<?xml version="1.0" encoding="UTF-8" standalone="no"?>
<!-- Created with Inkscape (http://www.inkscape.org/) -->

<svg
   width="300"
   height="300"
   viewBox="0 0 79.374999 79.374999"
   version="1.1"
   id="svg1"
   inkscape:version="1.4.2 (ebf0e940d0, 2025-05-08)"
   sodipodi:docname="bosses.svg"
   xml:space="preserve"
   xmlns:inkscape="http://www.inkscape.org/namespaces/inkscape"
   xmlns:sodipodi="http://sodipodi.sourceforge.net/DTD/sodipodi-0.dtd"
   xmlns="http://www.w3.org/2000/svg"
   xmlns:svg="http://www.w3.org/2000/svg"><sodipodi:namedview
     id="namedview1"
     pagecolor="#505050"
     bordercolor="#eeeeee"
     borderopacity="1"
     inkscape:showpageshadow="0"
     inkscape:pageopacity="0"
     inkscape:pagecheckerboard="0"
     inkscape:deskcolor="#505050"
     inkscape:document-units="px"
     inkscape:zoom="0.88194445"
     inkscape:cx="107.14961"
     inkscape:cy="256.8189"
     inkscape:window-width="1366"
     inkscape:window-height="697"
     inkscape:window-x="0"
     inkscape:window-y="0"
     inkscape:window-maximized="1"
     inkscape:current-layer="layer1" /><defs
     id="defs1"><inkscape:path-effect
       effect="fillet_chamfer"
       id="path-effect68"
       is_visible="true"
       lpeversion="1"
       nodesatellites_param="F,0,0,1,0,0,0,1 @ F,0,0,1,0,0,0,1 @ F,0,0,1,0,0,0,1 @ F,0,0,1,0,0,0,1 @ F,0,0,1,0,0,0,1 @ F,0,0,1,0,0,0,1 @ F,0,0,1,0,0,0,1 @ F,0,0,1,0,0,0,1 @ F,0,0,1,0,0,0,1"
       radius="0"
       unit="px"
       method="auto"
       mode="F"
       chamfer_steps="1"
       flexible="false"
       use_knot_distance="true"
       apply_no_radius="true"
       apply_with_radius="true"
       only_selected="false"
       hide_knots="false" /><inkscape:path-effect
       effect="fillet_chamfer"
       id="path-effect66"
       is_visible="true"
       lpeversion="1"
       nodesatellites_param="F,0,0,1,0,0,0,1 @ F,0,0,1,0,0.44929322,0,1 @ F,0,0,1,0,0.44929322,0,1 @ F,0,0,1,0,0,0,1 @ F,0,0,1,0,0,0,1 @ F,0,0,1,0,0,0,1 @ F,0,0,1,0,0,0,1 @ F,0,0,1,0,0,0,1 @ F,0,0,1,0,0,0,1 @ F,0,0,1,0,0,0,1"
       radius="0"
       unit="px"
       method="auto"
       mode="F"
       chamfer_steps="1"
       flexible="false"
       use_knot_distance="true"
       apply_no_radius="true"
       apply_with_radius="true"
       only_selected="false"
       hide_knots="false" /><inkscape:path-effect
       effect="fillet_chamfer"
       id="path-effect68-7"
       is_visible="true"
       lpeversion="1"
       nodesatellites_param="F,0,0,1,0,0,0,1 @ F,0,0,1,0,0,0,1 @ F,0,0,1,0,0,0,1 @ F,0,0,1,0,0,0,1 @ F,0,0,1,0,0,0,1 @ F,0,0,1,0,0,0,1 @ F,0,0,1,0,0,0,1 @ F,0,0,1,0,0,0,1 @ F,0,0,1,0,0,0,1"
       radius="0"
       unit="px"
       method="auto"
       mode="F"
       chamfer_steps="1"
       flexible="false"
       use_knot_distance="true"
       apply_no_radius="true"
       apply_with_radius="true"
       only_selected="false"
       hide_knots="false" /><inkscape:path-effect
       effect="fillet_chamfer"
       id="path-effect66-5"
       is_visible="true"
       lpeversion="1"
       nodesatellites_param="F,0,0,1,0,0,0,1 @ F,0,0,1,0,0.44929322,0,1 @ F,0,0,1,0,0.44929322,0,1 @ F,0,0,1,0,0,0,1 @ F,0,0,1,0,0,0,1 @ F,0,0,1,0,0,0,1 @ F,0,0,1,0,0,0,1 @ F,0,0,1,0,0,0,1 @ F,0,0,1,0,0,0,1 @ F,0,0,1,0,0,0,1"
       radius="0"
       unit="px"
       method="auto"
       mode="F"
       chamfer_steps="1"
       flexible="false"
       use_knot_distance="true"
       apply_no_radius="true"
       apply_with_radius="true"
       only_selected="false"
       hide_knots="false" /><inkscape:path-effect
       effect="fillet_chamfer"
       id="path-effect68-3"
       is_visible="true"
       lpeversion="1"
       nodesatellites_param="F,0,0,1,0,0,0,1 @ F,0,0,1,0,0,0,1 @ F,0,0,1,0,0,0,1 @ F,0,0,1,0,0,0,1 @ F,0,0,1,0,0,0,1 @ F,0,0,1,0,0,0,1 @ F,0,0,1,0,0,0,1 @ F,0,0,1,0,0,0,1 @ F,0,0,1,0,0,0,1"
       radius="0"
       unit="px"
       method="auto"
       mode="F"
       chamfer_steps="1"
       flexible="false"
       use_knot_distance="true"
       apply_no_radius="true"
       apply_with_radius="true"
       only_selected="false"
       hide_knots="false" /><inkscape:path-effect
       effect="fillet_chamfer"
       id="path-effect66-6"
       is_visible="true"
       lpeversion="1"
       nodesatellites_param="F,0,0,1,0,0,0,1 @ F,0,0,1,0,0.44929322,0,1 @ F,0,0,1,0,0.44929322,0,1 @ F,0,0,1,0,0,0,1 @ F,0,0,1,0,0,0,1 @ F,0,0,1,0,0,0,1 @ F,0,0,1,0,0,0,1 @ F,0,0,1,0,0,0,1 @ F,0,0,1,0,0,0,1 @ F,0,0,1,0,0,0,1"
       radius="0"
       unit="px"
       method="auto"
       mode="F"
       chamfer_steps="1"
       flexible="false"
       use_knot_distance="true"
       apply_no_radius="true"
       apply_with_radius="true"
       only_selected="false"
       hide_knots="false" /></defs><g
     inkscape:label="Camada 1"
     inkscape:groupmode="layer"
     id="layer1"><rect
       style="fill:#33ccff;stroke-width:1.15729;fill-opacity:1"
       id="rect1"
       width="80.185905"
       height="80.610168"
       x="-0.42426407"
       y="-0.84852815"
       ry="1.0871766" /><path
       id="path4"
       style="fill:#2b6a6a;fill-opacity:1;stroke:#0d1f1f;stroke-width:2.7162;stroke-miterlimit:4;stroke-dasharray:none;stroke-opacity:1"
       d="m 46.913606,73.156924 c 0.150791,1.564729 -0.24103,2.999586 -1.113581,3.663381 L 35.2888,84.981424 c -0.133514,0.182651 -1.76644,1.434811 -1.99136,1.48979 -0.25479,0.270558 -0.709376,0.275396 -1.033792,0.377602 l -13.794622,4.346793 c -1.456328,0.458892 -2.976703,-1.157377 -3.409975,-3.621399 l -0.330159,-1.863872 c -0.433284,-2.464023 0.392795,-4.816989 1.84913,-5.275863 l 12.685515,-3.609561 c 0.759598,-0.553307 0.907918,-0.77427 1.009281,-0.813755 l 11.355245,-9.050248 c 1.269185,-0.965501 3.060483,0.07641 4.015857,2.333646 l 0.723903,1.708401 c 0.298585,0.70536 0.477191,1.442765 0.545639,2.154021 z"
       sodipodi:nodetypes="cccccccccccccccc" /><path
       id="path74"
       style="fill:#143030;fill-opacity:1;stroke:none;stroke-width:2.15489;stroke-miterlimit:4;stroke-dasharray:none;stroke-opacity:1"
       d="m 45.282655,73.597398 c 0.351127,0.908715 0.147468,1.868404 -0.632257,2.477215 l -9.371799,7.433494 c -0.108884,0.142111 -1.566801,1.287444 -1.782758,1.37427 -0.217793,0.224099 -0.667956,0.335425 -0.976491,0.474481 -10.048048,3.013791 -8.913455,3.973154 -13.119205,5.913622 -1.385028,0.624303 -3.100938,0.01115 -3.848066,-1.373225 l -0.567552,-1.046541 c -0.74714,-1.384276 -0.23114,-3.001803 1.153893,-3.626103 l 12.295507,-2.472403 c 2.624183,-0.879698 4.208802,-1.723087 5.478094,-2.518712 l 5.330955,-9.116448 c 1.134172,-0.885536 3.044739,-0.683634 4.282957,0.451296 l 0.937971,0.85879 c 0.386971,0.354647 0.659098,0.75725 0.818615,1.170332 z"
       sodipodi:nodetypes="cccccccccccccccc" /><ellipse
       style="fill:#143030;fill-opacity:1;stroke:#050d0d;stroke-width:2.11639;stroke-dasharray:none;stroke-opacity:1"
       id="ellipse9"
       cx="34.516872"
       cy="37.56073"
       rx="5.8383183"
       ry="8.6281939" /><rect
       style="fill:#2b6a6a;fill-opacity:1;stroke:#0d1f1f;stroke-width:1.88566;stroke-opacity:1"
       id="rect1-5"
       width="14.66917"
       height="28.963161"
       x="47.720039"
       y="48.549103" /><path
       id="path75"
       style="fill:#143030;stroke-width:1.2288"
       d="m 54.298532,58.197692 2.03817,0.07051 c 2.966237,0.102612 5.335142,0.667367 5.311447,1.266269 l -0.243018,6.142501 c -0.05743,1.451517 0.428333,1.097346 -5.396989,0.895828 l -2.038168,-0.07051 c -2.966235,-0.10261 -5.335141,-0.667366 -5.311446,-1.266267 l 0.243018,-6.142503 c 0.0237,-0.598902 2.430751,-0.998441 5.396986,-0.895828 z"
       sodipodi:nodetypes="sssssssss" /><ellipse
       style="fill:#2b6a6a;fill-opacity:1;stroke:#050d0d;stroke-width:1.12197;stroke-dasharray:none;stroke-opacity:1"
       id="ellipse27"
       cx="35.925591"
       cy="37.481216"
       rx="4.7897043"
       ry="6.2534833" /><g
       id="g32"
       transform="matrix(-2.5150234,0,0,2.5902516,173.63578,1.9582745)"><ellipse
         style="fill:#143030;fill-opacity:1;stroke:#050d0d;stroke-width:0.689877;stroke-dasharray:none;stroke-opacity:1"
         id="ellipse31"
         cx="38.670341"
         cy="13.051166"
         rx="1.8224092"
         ry="2.9370708" /><ellipse
         style="fill:#2b6a6a;fill-opacity:1;stroke:#050d0d;stroke-width:0.359071;stroke-dasharray:none;stroke-opacity:1"
         id="ellipse32"
         cx="39.492393"
         cy="13.078341"
         rx="1.6364409"
         ry="1.8746989" /></g><ellipse
       style="fill:#143030;fill-opacity:1;stroke:#060e0e;stroke-width:2.18017;stroke-dasharray:none;stroke-opacity:1"
       id="path2"
       cx="55.197762"
       cy="37.557774"
       rx="21.167156"
       ry="24.240705" /><ellipse
       style="fill:#2b6a6a;fill-opacity:1;stroke:none;stroke-width:1.41453;stroke-dasharray:none;stroke-opacity:1"
       id="path66"
       cx="57.364307"
       cy="33.218044"
       rx="17.036171"
       ry="18.144096" /><g
       id="g28"
       transform="matrix(2.4435367,0,0,2.5937405,-9.157894,2.6538513)"><path
         sodipodi:type="spiral"
         style="fill:#005d19;fill-opacity:1;fill-rule:evenodd;stroke:#050c0c;stroke-width:1.165;stroke-dasharray:none;stroke-opacity:1"
         id="path28"
         sodipodi:cx="7.3788824"
         sodipodi:cy="11.990684"
         sodipodi:expansion="1"
         sodipodi:revolution="3"
         sodipodi:radius="7.1775723"
         sodipodi:argument="-18.677364"
         sodipodi:t0="0"
         d="m 7.3788824,11.990684 c 0.3545501,0.06166 0.091804,0.508347 -0.1024849,0.589285 -0.5265123,0.219336 -1.0101602,-0.312416 -1.0760864,-0.794255 -0.1179264,-0.861898 0.6785411,-1.533067 1.4860261,-1.562887 1.1850166,-0.04376 2.0659185,1.047626 2.0496877,2.177796 -0.021633,1.506339 -1.4174993,2.602675 -2.8695671,2.536489 C 5.0391786,14.853823 3.7250753,13.149428 3.8431686,11.375774 3.9861954,9.2276413 6.0011989,7.6945659 8.0962768,7.8656841 10.565254,8.067341 12.31801,10.39416 12.093167,12.810563 11.833578,15.600395 9.1941789,17.573289 6.4565181,17.294254 3.345814,16.977198 1.1524728,14.024706 1.4860261,10.965834 1.8602224,7.5342424 5.1261684,5.1202316 8.5062165,5.5085416 12.258711,5.9396393 14.893555,9.5193049 14.45031,13.220503"
         transform="matrix(-0.12693299,-0.27940024,-0.24651116,0.18568287,23.532179,18.320999)" /><path
         sodipodi:type="spiral"
         style="fill:#00d438;fill-opacity:1;fill-rule:evenodd;stroke:#050c0c;stroke-width:1.165;stroke-dasharray:none;stroke-opacity:1"
         id="path12"
         sodipodi:cx="7.3788824"
         sodipodi:cy="11.990684"
         sodipodi:expansion="1"
         sodipodi:revolution="3"
         sodipodi:radius="7.1775723"
         sodipodi:argument="-18.677364"
         sodipodi:t0="0"
         d="m 7.3788824,11.990684 c 0.3545501,0.06166 0.091804,0.508347 -0.1024849,0.589285 -0.5265123,0.219336 -1.0101602,-0.312416 -1.0760864,-0.794255 -0.1179264,-0.861898 0.6785411,-1.533067 1.4860261,-1.562887 1.1850166,-0.04376 2.0659185,1.047626 2.0496877,2.177796 -0.021633,1.506339 -1.4174993,2.602675 -2.8695671,2.536489 C 5.0391786,14.853823 3.7250753,13.149428 3.8431686,11.375774 3.9861954,9.2276413 6.0011989,7.6945659 8.0962768,7.8656841 10.565254,8.067341 12.31801,10.39416 12.093167,12.810563 11.833578,15.600395 9.1941789,17.573289 6.4565181,17.294254 3.345814,16.977198 1.1524728,14.024706 1.4860261,10.965834 1.8602224,7.5342424 5.1261684,5.1202316 8.5062165,5.5085416 12.258711,5.9396393 14.893555,9.5193049 14.45031,13.220503"
         transform="matrix(0.12693299,-0.27940024,0.24651116,0.18568287,15.465587,19.054733)" /></g><path
       id="path15"
       style="fill:#ffffff;stroke:#060e0e;stroke-width:1.14295;stroke-dasharray:none;stroke-opacity:1"
       d="m 61.196362,26.219464 c 0,3.612249 -2.416924,8.23208 -5.398352,8.23208 -2.981425,-3e-6 -5.398349,-4.619831 -5.398349,-8.23208 0,-3.612247 2.527096,-8.457613 5.508521,-8.457614 2.981425,0 5.28818,4.845367 5.28818,8.457614 z"
       sodipodi:nodetypes="sssss" /><path
       id="path16"
       style="fill:#2b6a6a;fill-opacity:1;stroke:#060e0e;stroke-width:1.45261;stroke-dasharray:none;stroke-opacity:1"
       d="m 44.96967,30.018761 c 2.745143,0.04866 6.217968,2.062794 6.171057,4.470584 -0.04692,2.407793 -3.595792,4.297457 -6.340934,4.248796 -2.74514,-0.04866 -6.38763,-2.154807 -6.340721,-4.562597 0.04692,-2.40779 3.765458,-4.205444 6.510598,-4.156783 z"
       sodipodi:nodetypes="sssss" /><path
       id="path18"
       style="fill:#e7f5f5;fill-opacity:1;stroke:none;stroke-width:0.454289"
       d="m 58.767105,25.410786 c 0,1.789851 -1.268887,4.078955 -2.834136,4.078955 -1.565249,0 -2.834134,-2.289104 -2.834134,-4.078955 0,-1.789853 1.326726,-4.190711 2.891975,-4.190711 1.565249,0 2.776295,2.400858 2.776295,4.190711 z"
       sodipodi:nodetypes="sssss" /><path
       id="path19"
       style="fill:#0f2222;fill-opacity:1;stroke:#060e0e;stroke-width:1.30727;stroke-dasharray:none;stroke-opacity:1"
       d="m 59.037617,26.338113 c 0,1.981751 -1.521872,4.516278 -3.399185,4.516278 -1.87732,0 -3.399186,-2.534527 -3.399186,-4.516278 0,-1.981749 1.591238,-4.640011 3.468553,-4.640011 1.877321,0 3.329818,2.658262 3.329818,4.640011 z"
       sodipodi:nodetypes="sssss" /><path
       id="path20"
       style="fill:#ffffff;fill-opacity:1;stroke:none;stroke-width:0.295509"
       d="m 57.555494,22.463233 c 0,1.164034 -0.825563,2.652756 -1.843944,2.652756 -1.018378,0 -1.843942,-1.488722 -1.843942,-2.652756 0,-1.164032 0.863192,-2.725434 1.881572,-2.725434 1.018381,0 1.806314,1.561402 1.806314,2.725434 z"
       sodipodi:nodetypes="sssss" /><g
       id="g31"
       transform="matrix(2.4435367,0,0,2.5937405,-4.7088365,7.6583343)"><path
         sodipodi:type="spiral"
         style="fill:#005d19;fill-opacity:1;fill-rule:evenodd;stroke:#050c0c;stroke-width:1.165;stroke-dasharray:none;stroke-opacity:1"
         id="path29"
         sodipodi:cx="7.3788824"
         sodipodi:cy="11.990684"
         sodipodi:expansion="1"
         sodipodi:revolution="3"
         sodipodi:radius="7.1775723"
         sodipodi:argument="-18.677364"
         sodipodi:t0="0"
         d="m 7.3788824,11.990684 c 0.3545501,0.06166 0.091804,0.508347 -0.1024849,0.589285 -0.5265123,0.219336 -1.0101602,-0.312416 -1.0760864,-0.794255 -0.1179264,-0.861898 0.6785411,-1.533067 1.4860261,-1.562887 1.1850166,-0.04376 2.0659185,1.047626 2.0496877,2.177796 -0.021633,1.506339 -1.4174993,2.602675 -2.8695671,2.536489 C 5.0391786,14.853823 3.7250753,13.149428 3.8431686,11.375774 3.9861954,9.2276413 6.0011989,7.6945659 8.0962768,7.8656841 10.565254,8.067341 12.31801,10.39416 12.093167,12.810563 11.833578,15.600395 9.1941789,17.573289 6.4565181,17.294254 3.345814,16.977198 1.1524728,14.024706 1.4860261,10.965834 1.8602224,7.5342424 5.1261684,5.1202316 8.5062165,5.5085416 12.258711,5.9396393 14.893555,9.5193049 14.45031,13.220503"
         transform="matrix(-0.12693299,-0.27940024,-0.24651116,0.18568287,23.532179,18.320999)" /><path
         sodipodi:type="spiral"
         style="fill:#00d438;fill-opacity:1;fill-rule:evenodd;stroke:#050c0c;stroke-width:1.165;stroke-dasharray:none;stroke-opacity:1"
         id="path31"
         sodipodi:cx="7.3788824"
         sodipodi:cy="11.990684"
         sodipodi:expansion="1"
         sodipodi:revolution="3"
         sodipodi:radius="7.1775723"
         sodipodi:argument="-18.677364"
         sodipodi:t0="0"
         d="m 7.3788824,11.990684 c 0.3545501,0.06166 0.091804,0.508347 -0.1024849,0.589285 -0.5265123,0.219336 -1.0101602,-0.312416 -1.0760864,-0.794255 -0.1179264,-0.861898 0.6785411,-1.533067 1.4860261,-1.562887 1.1850166,-0.04376 2.0659185,1.047626 2.0496877,2.177796 -0.021633,1.506339 -1.4174993,2.602675 -2.8695671,2.536489 C 5.0391786,14.853823 3.7250753,13.149428 3.8431686,11.375774 3.9861954,9.2276413 6.0011989,7.6945659 8.0962768,7.8656841 10.565254,8.067341 12.31801,10.39416 12.093167,12.810563 11.833578,15.600395 9.1941789,17.573289 6.4565181,17.294254 3.345814,16.977198 1.1524728,14.024706 1.4860261,10.965834 1.8602224,7.5342424 5.1261684,5.1202316 8.5062165,5.5085416 12.258711,5.9396393 14.893555,9.5193049 14.45031,13.220503"
         transform="matrix(0.12693299,-0.27940024,0.24651116,0.18568287,15.465587,19.054733)" /></g><g
       id="g33"
       transform="matrix(2.4287435,-0.34163186,0.35919098,2.3100138,-3.6164801,22.251034)"><path
         sodipodi:type="spiral"
         style="fill:#005d19;fill-opacity:1;fill-rule:evenodd;stroke:#050c0c;stroke-width:1.165;stroke-dasharray:none;stroke-opacity:1"
         id="path32"
         sodipodi:cx="7.3788824"
         sodipodi:cy="11.990684"
         sodipodi:expansion="1"
         sodipodi:revolution="3"
         sodipodi:radius="7.1775723"
         sodipodi:argument="-18.677364"
         sodipodi:t0="0"
         d="m 7.3788824,11.990684 c 0.3545501,0.06166 0.091804,0.508347 -0.1024849,0.589285 -0.5265123,0.219336 -1.0101602,-0.312416 -1.0760864,-0.794255 -0.1179264,-0.861898 0.6785411,-1.533067 1.4860261,-1.562887 1.1850166,-0.04376 2.0659185,1.047626 2.0496877,2.177796 -0.021633,1.506339 -1.4174993,2.602675 -2.8695671,2.536489 C 5.0391786,14.853823 3.7250753,13.149428 3.8431686,11.375774 3.9861954,9.2276413 6.0011989,7.6945659 8.0962768,7.8656841 10.565254,8.067341 12.31801,10.39416 12.093167,12.810563 11.833578,15.600395 9.1941789,17.573289 6.4565181,17.294254 3.345814,16.977198 1.1524728,14.024706 1.4860261,10.965834 1.8602224,7.5342424 5.1261684,5.1202316 8.5062165,5.5085416 12.258711,5.9396393 14.893555,9.5193049 14.45031,13.220503"
         transform="matrix(-0.12693299,-0.27940024,-0.24651116,0.18568287,23.532179,18.320999)" /><path
         sodipodi:type="spiral"
         style="fill:#00d438;fill-opacity:1;fill-rule:evenodd;stroke:#050c0c;stroke-width:1.165;stroke-dasharray:none;stroke-opacity:1"
         id="path33"
         sodipodi:cx="7.3788824"
         sodipodi:cy="11.990684"
         sodipodi:expansion="1"
         sodipodi:revolution="3"
         sodipodi:radius="7.1775723"
         sodipodi:argument="-18.677364"
         sodipodi:t0="0"
         d="m 7.3788824,11.990684 c 0.3545501,0.06166 0.091804,0.508347 -0.1024849,0.589285 -0.5265123,0.219336 -1.0101602,-0.312416 -1.0760864,-0.794255 -0.1179264,-0.861898 0.6785411,-1.533067 1.4860261,-1.562887 1.1850166,-0.04376 2.0659185,1.047626 2.0496877,2.177796 -0.021633,1.506339 -1.4174993,2.602675 -2.8695671,2.536489 C 5.0391786,14.853823 3.7250753,13.149428 3.8431686,11.375774 3.9861954,9.2276413 6.0011989,7.6945659 8.0962768,7.8656841 10.565254,8.067341 12.31801,10.39416 12.093167,12.810563 11.833578,15.600395 9.1941789,17.573289 6.4565181,17.294254 3.345814,16.977198 1.1524728,14.024706 1.4860261,10.965834 1.8602224,7.5342424 5.1261684,5.1202316 8.5062165,5.5085416 12.258711,5.9396393 14.893555,9.5193049 14.45031,13.220503"
         transform="matrix(0.12693299,-0.27940024,0.24651116,0.18568287,15.465587,19.054733)" /></g><g
       id="g35"
       transform="matrix(2.3890371,-0.576411,0.55708104,2.2653622,0.7740078,28.007574)"><path
         sodipodi:type="spiral"
         style="fill:#005d19;fill-opacity:1;fill-rule:evenodd;stroke:#050c0c;stroke-width:1.165;stroke-dasharray:none;stroke-opacity:1"
         id="path34"
         sodipodi:cx="7.3788824"
         sodipodi:cy="11.990684"
         sodipodi:expansion="1"
         sodipodi:revolution="3"
         sodipodi:radius="7.1775723"
         sodipodi:argument="-18.677364"
         sodipodi:t0="0"
         d="m 7.3788824,11.990684 c 0.3545501,0.06166 0.091804,0.508347 -0.1024849,0.589285 -0.5265123,0.219336 -1.0101602,-0.312416 -1.0760864,-0.794255 -0.1179264,-0.861898 0.6785411,-1.533067 1.4860261,-1.562887 1.1850166,-0.04376 2.0659185,1.047626 2.0496877,2.177796 -0.021633,1.506339 -1.4174993,2.602675 -2.8695671,2.536489 C 5.0391786,14.853823 3.7250753,13.149428 3.8431686,11.375774 3.9861954,9.2276413 6.0011989,7.6945659 8.0962768,7.8656841 10.565254,8.067341 12.31801,10.39416 12.093167,12.810563 11.833578,15.600395 9.1941789,17.573289 6.4565181,17.294254 3.345814,16.977198 1.1524728,14.024706 1.4860261,10.965834 1.8602224,7.5342424 5.1261684,5.1202316 8.5062165,5.5085416 12.258711,5.9396393 14.893555,9.5193049 14.45031,13.220503"
         transform="matrix(-0.12693299,-0.27940024,-0.24651116,0.18568287,23.532179,18.320999)" /><path
         sodipodi:type="spiral"
         style="fill:#00d438;fill-opacity:1;fill-rule:evenodd;stroke:#050c0c;stroke-width:1.165;stroke-dasharray:none;stroke-opacity:1"
         id="path35"
         sodipodi:cx="7.3788824"
         sodipodi:cy="11.990684"
         sodipodi:expansion="1"
         sodipodi:revolution="3"
         sodipodi:radius="7.1775723"
         sodipodi:argument="-18.677364"
         sodipodi:t0="0"
         d="m 7.3788824,11.990684 c 0.3545501,0.06166 0.091804,0.508347 -0.1024849,0.589285 -0.5265123,0.219336 -1.0101602,-0.312416 -1.0760864,-0.794255 -0.1179264,-0.861898 0.6785411,-1.533067 1.4860261,-1.562887 1.1850166,-0.04376 2.0659185,1.047626 2.0496877,2.177796 -0.021633,1.506339 -1.4174993,2.602675 -2.8695671,2.536489 C 5.0391786,14.853823 3.7250753,13.149428 3.8431686,11.375774 3.9861954,9.2276413 6.0011989,7.6945659 8.0962768,7.8656841 10.565254,8.067341 12.31801,10.39416 12.093167,12.810563 11.833578,15.600395 9.1941789,17.573289 6.4565181,17.294254 3.345814,16.977198 1.1524728,14.024706 1.4860261,10.965834 1.8602224,7.5342424 5.1261684,5.1202316 8.5062165,5.5085416 12.258711,5.9396393 14.893555,9.5193049 14.45031,13.220503"
         transform="matrix(0.12693299,-0.27940024,0.24651116,0.18568287,15.465587,19.054733)" /></g><path
       id="path5"
       style="fill:#2b6a6a;fill-opacity:1;stroke:#0d1f1f;stroke-width:2.93669;stroke-miterlimit:4;stroke-dasharray:none;stroke-opacity:1"
       d="m 67.593304,67.41125 c -0.799076,1.304677 -0.98835,2.827114 -0.367181,3.956618 l 7.415039,13.753582 c 0.06165,0.245238 1.220041,2.367867 1.427986,2.555311 0.149765,0.39835 0.613846,0.68226 0.904348,0.973084 l 12.352279,12.366575 c 1.304064,1.30555 3.528484,0.79723 4.987551,-1.136857 l 1.106165,-1.461523 c 1.459065,-1.934085 1.581286,-4.543549 0.277214,-5.849098 L 84.177866,81.542941 c -0.550873,-0.961349 -0.61193,-1.249905 -0.699587,-1.347513 L 75.56414,65.128657 c -0.903542,-1.642894 -3.169162,-1.81414 -5.078324,-0.385868 l -1.445804,1.08051 c -0.596595,0.446349 -1.083462,0.995003 -1.446581,1.588114 z"
       sodipodi:nodetypes="cccccccccccccccc" /><path
       id="path79"
       style="fill:#143030;fill-opacity:1;stroke:none;stroke-width:2.24604;stroke-miterlimit:4;stroke-dasharray:none;stroke-opacity:1"
       d="m 68.58126,65.626266 c -0.724003,0.664449 -0.987064,1.689207 -0.586002,2.705095 l 4.76725,12.320329 c 0.02979,0.196009 0.776468,2.102136 0.925125,2.305921 0.08719,0.335018 0.429071,0.69374 0.63456,0.999122 7.387996,8.508626 5.956719,8.780559 8.737142,12.98598 0.92241,1.37095 2.702163,1.754266 3.99041,0.861339 l 0.976266,-0.673475 c 1.288211,-0.892822 1.580778,-2.717161 0.658369,-4.088106 L 79.085523,83.783572 C 77.198592,81.473595 76.202575,79.782616 75.459911,78.31425 L 74.993662,66.669896 c -0.583392,-1.477664 -2.34417,-2.360498 -3.946571,-1.98031 l -1.213416,0.287109 c -0.500766,0.118767 -0.923298,0.347613 -1.252327,0.649714 z"
       sodipodi:nodetypes="cccccccccccccccc" /><g
       id="g37"
       transform="matrix(2.0969891,-1.3447686,1.2000683,1.9644012,1.7280217,46.663149)"><path
         sodipodi:type="spiral"
         style="fill:#005d19;fill-opacity:1;fill-rule:evenodd;stroke:#050c0c;stroke-width:1.165;stroke-dasharray:none;stroke-opacity:1"
         id="path36"
         sodipodi:cx="7.3788824"
         sodipodi:cy="11.990684"
         sodipodi:expansion="1"
         sodipodi:revolution="3"
         sodipodi:radius="7.1775723"
         sodipodi:argument="-18.677364"
         sodipodi:t0="0"
         d="m 7.3788824,11.990684 c 0.3545501,0.06166 0.091804,0.508347 -0.1024849,0.589285 -0.5265123,0.219336 -1.0101602,-0.312416 -1.0760864,-0.794255 -0.1179264,-0.861898 0.6785411,-1.533067 1.4860261,-1.562887 1.1850166,-0.04376 2.0659185,1.047626 2.0496877,2.177796 -0.021633,1.506339 -1.4174993,2.602675 -2.8695671,2.536489 C 5.0391786,14.853823 3.7250753,13.149428 3.8431686,11.375774 3.9861954,9.2276413 6.0011989,7.6945659 8.0962768,7.8656841 10.565254,8.067341 12.31801,10.39416 12.093167,12.810563 11.833578,15.600395 9.1941789,17.573289 6.4565181,17.294254 3.345814,16.977198 1.1524728,14.024706 1.4860261,10.965834 1.8602224,7.5342424 5.1261684,5.1202316 8.5062165,5.5085416 12.258711,5.9396393 14.893555,9.5193049 14.45031,13.220503"
         transform="matrix(-0.12693299,-0.27940024,-0.24651116,0.18568287,23.532179,18.320999)" /><path
         sodipodi:type="spiral"
         style="fill:#00d438;fill-opacity:1;fill-rule:evenodd;stroke:#050c0c;stroke-width:1.165;stroke-dasharray:none;stroke-opacity:1"
         id="path37"
         sodipodi:cx="7.3788824"
         sodipodi:cy="11.990684"
         sodipodi:expansion="1"
         sodipodi:revolution="3"
         sodipodi:radius="7.1775723"
         sodipodi:argument="-18.677364"
         sodipodi:t0="0"
         d="m 7.3788824,11.990684 c 0.3545501,0.06166 0.091804,0.508347 -0.1024849,0.589285 -0.5265123,0.219336 -1.0101602,-0.312416 -1.0760864,-0.794255 -0.1179264,-0.861898 0.6785411,-1.533067 1.4860261,-1.562887 1.1850166,-0.04376 2.0659185,1.047626 2.0496877,2.177796 -0.021633,1.506339 -1.4174993,2.602675 -2.8695671,2.536489 C 5.0391786,14.853823 3.7250753,13.149428 3.8431686,11.375774 3.9861954,9.2276413 6.0011989,7.6945659 8.0962768,7.8656841 10.565254,8.067341 12.31801,10.39416 12.093167,12.810563 11.833578,15.600395 9.1941789,17.573289 6.4565181,17.294254 3.345814,16.977198 1.1524728,14.024706 1.4860261,10.965834 1.8602224,7.5342424 5.1261684,5.1202316 8.5062165,5.5085416 12.258711,5.9396393 14.893555,9.5193049 14.45031,13.220503"
         transform="matrix(0.12693299,-0.27940024,0.24651116,0.18568287,15.465587,19.054733)" /></g><g
       id="g39"
       transform="matrix(0.73650324,-2.3688441,1.7323077,0.75766156,23.595964,86.423186)"><path
         sodipodi:type="spiral"
         style="fill:#005d19;fill-opacity:1;fill-rule:evenodd;stroke:#050c0c;stroke-width:1.165;stroke-dasharray:none;stroke-opacity:1"
         id="path38"
         sodipodi:cx="7.3788824"
         sodipodi:cy="11.990684"
         sodipodi:expansion="1"
         sodipodi:revolution="3"
         sodipodi:radius="7.1775723"
         sodipodi:argument="-18.677364"
         sodipodi:t0="0"
         d="m 7.3788824,11.990684 c 0.3545501,0.06166 0.091804,0.508347 -0.1024849,0.589285 -0.5265123,0.219336 -1.0101602,-0.312416 -1.0760864,-0.794255 -0.1179264,-0.861898 0.6785411,-1.533067 1.4860261,-1.562887 1.1850166,-0.04376 2.0659185,1.047626 2.0496877,2.177796 -0.021633,1.506339 -1.4174993,2.602675 -2.8695671,2.536489 C 5.0391786,14.853823 3.7250753,13.149428 3.8431686,11.375774 3.9861954,9.2276413 6.0011989,7.6945659 8.0962768,7.8656841 10.565254,8.067341 12.31801,10.39416 12.093167,12.810563 11.833578,15.600395 9.1941789,17.573289 6.4565181,17.294254 3.345814,16.977198 1.1524728,14.024706 1.4860261,10.965834 1.8602224,7.5342424 5.1261684,5.1202316 8.5062165,5.5085416 12.258711,5.9396393 14.893555,9.5193049 14.45031,13.220503"
         transform="matrix(-0.12693299,-0.27940024,-0.24651116,0.18568287,23.532179,18.320999)" /><path
         sodipodi:type="spiral"
         style="fill:#00d438;fill-opacity:1;fill-rule:evenodd;stroke:#050c0c;stroke-width:1.165;stroke-dasharray:none;stroke-opacity:1"
         id="path39"
         sodipodi:cx="7.3788824"
         sodipodi:cy="11.990684"
         sodipodi:expansion="1"
         sodipodi:revolution="3"
         sodipodi:radius="7.1775723"
         sodipodi:argument="-18.677364"
         sodipodi:t0="0"
         d="m 7.3788824,11.990684 c 0.3545501,0.06166 0.091804,0.508347 -0.1024849,0.589285 -0.5265123,0.219336 -1.0101602,-0.312416 -1.0760864,-0.794255 -0.1179264,-0.861898 0.6785411,-1.533067 1.4860261,-1.562887 1.1850166,-0.04376 2.0659185,1.047626 2.0496877,2.177796 -0.021633,1.506339 -1.4174993,2.602675 -2.8695671,2.536489 C 5.0391786,14.853823 3.7250753,13.149428 3.8431686,11.375774 3.9861954,9.2276413 6.0011989,7.6945659 8.0962768,7.8656841 10.565254,8.067341 12.31801,10.39416 12.093167,12.810563 11.833578,15.600395 9.1941789,17.573289 6.4565181,17.294254 3.345814,16.977198 1.1524728,14.024706 1.4860261,10.965834 1.8602224,7.5342424 5.1261684,5.1202316 8.5062165,5.5085416 12.258711,5.9396393 14.893555,9.5193049 14.45031,13.220503"
         transform="matrix(0.12693299,-0.27940024,0.24651116,0.18568287,15.465587,19.054733)" /></g><g
       id="g41"
       transform="matrix(-2.336095,0.2714994,0.33751309,1.9562358,113.22341,6.9309872)"><path
         sodipodi:type="spiral"
         style="fill:#005d19;fill-opacity:1;fill-rule:evenodd;stroke:#050c0c;stroke-width:1.165;stroke-dasharray:none;stroke-opacity:1"
         id="path40"
         sodipodi:cx="7.3788824"
         sodipodi:cy="11.990684"
         sodipodi:expansion="1"
         sodipodi:revolution="3"
         sodipodi:radius="7.1775723"
         sodipodi:argument="-18.677364"
         sodipodi:t0="0"
         d="m 7.3788824,11.990684 c 0.3545501,0.06166 0.091804,0.508347 -0.1024849,0.589285 -0.5265123,0.219336 -1.0101602,-0.312416 -1.0760864,-0.794255 -0.1179264,-0.861898 0.6785411,-1.533067 1.4860261,-1.562887 1.1850166,-0.04376 2.0659185,1.047626 2.0496877,2.177796 -0.021633,1.506339 -1.4174993,2.602675 -2.8695671,2.536489 C 5.0391786,14.853823 3.7250753,13.149428 3.8431686,11.375774 3.9861954,9.2276413 6.0011989,7.6945659 8.0962768,7.8656841 10.565254,8.067341 12.31801,10.39416 12.093167,12.810563 11.833578,15.600395 9.1941789,17.573289 6.4565181,17.294254 3.345814,16.977198 1.1524728,14.024706 1.4860261,10.965834 1.8602224,7.5342424 5.1261684,5.1202316 8.5062165,5.5085416 12.258711,5.9396393 14.893555,9.5193049 14.45031,13.220503"
         transform="matrix(-0.12693299,-0.27940024,-0.24651116,0.18568287,23.532179,18.320999)" /><path
         sodipodi:type="spiral"
         style="fill:#00d438;fill-opacity:1;fill-rule:evenodd;stroke:#050c0c;stroke-width:1.165;stroke-dasharray:none;stroke-opacity:1"
         id="path41"
         sodipodi:cx="7.3788824"
         sodipodi:cy="11.990684"
         sodipodi:expansion="1"
         sodipodi:revolution="3"
         sodipodi:radius="7.1775723"
         sodipodi:argument="-18.677364"
         sodipodi:t0="0"
         d="m 7.3788824,11.990684 c 0.3545501,0.06166 0.091804,0.508347 -0.1024849,0.589285 -0.5265123,0.219336 -1.0101602,-0.312416 -1.0760864,-0.794255 -0.1179264,-0.861898 0.6785411,-1.533067 1.4860261,-1.562887 1.1850166,-0.04376 2.0659185,1.047626 2.0496877,2.177796 -0.021633,1.506339 -1.4174993,2.602675 -2.8695671,2.536489 C 5.0391786,14.853823 3.7250753,13.149428 3.8431686,11.375774 3.9861954,9.2276413 6.0011989,7.6945659 8.0962768,7.8656841 10.565254,8.067341 12.31801,10.39416 12.093167,12.810563 11.833578,15.600395 9.1941789,17.573289 6.4565181,17.294254 3.345814,16.977198 1.1524728,14.024706 1.4860261,10.965834 1.8602224,7.5342424 5.1261684,5.1202316 8.5062165,5.5085416 12.258711,5.9396393 14.893555,9.5193049 14.45031,13.220503"
         transform="matrix(0.12693299,-0.27940024,0.24651116,0.18568287,15.465587,19.054733)" /></g><g
       id="g56"
       transform="matrix(-2.8870907,-0.14234489,0.14070729,-2.9206914,172.32799,61.671135)"><g
         id="g43"
         transform="translate(14.267033,-5.6524625)"><path
           sodipodi:type="spiral"
           style="fill:#005d19;fill-opacity:1;fill-rule:evenodd;stroke:#050c0c;stroke-width:1.165;stroke-dasharray:none;stroke-opacity:1"
           id="path42"
           sodipodi:cx="7.3788824"
           sodipodi:cy="11.990684"
           sodipodi:expansion="1"
           sodipodi:revolution="3"
           sodipodi:radius="7.1775723"
           sodipodi:argument="-18.677364"
           sodipodi:t0="0"
           d="m 7.3788824,11.990684 c 0.3545501,0.06166 0.091804,0.508347 -0.1024849,0.589285 -0.5265123,0.219336 -1.0101602,-0.312416 -1.0760864,-0.794255 -0.1179264,-0.861898 0.6785411,-1.533067 1.4860261,-1.562887 1.1850166,-0.04376 2.0659185,1.047626 2.0496877,2.177796 -0.021633,1.506339 -1.4174993,2.602675 -2.8695671,2.536489 C 5.0391786,14.853823 3.7250753,13.149428 3.8431686,11.375774 3.9861954,9.2276413 6.0011989,7.6945659 8.0962768,7.8656841 10.565254,8.067341 12.31801,10.39416 12.093167,12.810563 11.833578,15.600395 9.1941789,17.573289 6.4565181,17.294254 3.345814,16.977198 1.1524728,14.024706 1.4860261,10.965834 1.8602224,7.5342424 5.1261684,5.1202316 8.5062165,5.5085416 12.258711,5.9396393 14.893555,9.5193049 14.45031,13.220503"
           transform="matrix(-0.12693299,-0.27940024,-0.24651116,0.18568287,23.532179,18.320999)" /><path
           sodipodi:type="spiral"
           style="fill:#00d438;fill-opacity:1;fill-rule:evenodd;stroke:#050c0c;stroke-width:1.165;stroke-dasharray:none;stroke-opacity:1"
           id="path43"
           sodipodi:cx="7.3788824"
           sodipodi:cy="11.990684"
           sodipodi:expansion="1"
           sodipodi:revolution="3"
           sodipodi:radius="7.1775723"
           sodipodi:argument="-18.677364"
           sodipodi:t0="0"
           d="m 7.3788824,11.990684 c 0.3545501,0.06166 0.091804,0.508347 -0.1024849,0.589285 -0.5265123,0.219336 -1.0101602,-0.312416 -1.0760864,-0.794255 -0.1179264,-0.861898 0.6785411,-1.533067 1.4860261,-1.562887 1.1850166,-0.04376 2.0659185,1.047626 2.0496877,2.177796 -0.021633,1.506339 -1.4174993,2.602675 -2.8695671,2.536489 C 5.0391786,14.853823 3.7250753,13.149428 3.8431686,11.375774 3.9861954,9.2276413 6.0011989,7.6945659 8.0962768,7.8656841 10.565254,8.067341 12.31801,10.39416 12.093167,12.810563 11.833578,15.600395 9.1941789,17.573289 6.4565181,17.294254 3.345814,16.977198 1.1524728,14.024706 1.4860261,10.965834 1.8602224,7.5342424 5.1261684,5.1202316 8.5062165,5.5085416 12.258711,5.9396393 14.893555,9.5193049 14.45031,13.220503"
           transform="matrix(0.12693299,-0.27940024,0.24651116,0.18568287,15.465587,19.054733)" /></g><g
         id="g45"
         transform="translate(16.087778,-3.7230162)"><path
           sodipodi:type="spiral"
           style="fill:#005d19;fill-opacity:1;fill-rule:evenodd;stroke:#050c0c;stroke-width:1.165;stroke-dasharray:none;stroke-opacity:1"
           id="path44"
           sodipodi:cx="7.3788824"
           sodipodi:cy="11.990684"
           sodipodi:expansion="1"
           sodipodi:revolution="3"
           sodipodi:radius="7.1775723"
           sodipodi:argument="-18.677364"
           sodipodi:t0="0"
           d="m 7.3788824,11.990684 c 0.3545501,0.06166 0.091804,0.508347 -0.1024849,0.589285 -0.5265123,0.219336 -1.0101602,-0.312416 -1.0760864,-0.794255 -0.1179264,-0.861898 0.6785411,-1.533067 1.4860261,-1.562887 1.1850166,-0.04376 2.0659185,1.047626 2.0496877,2.177796 -0.021633,1.506339 -1.4174993,2.602675 -2.8695671,2.536489 C 5.0391786,14.853823 3.7250753,13.149428 3.8431686,11.375774 3.9861954,9.2276413 6.0011989,7.6945659 8.0962768,7.8656841 10.565254,8.067341 12.31801,10.39416 12.093167,12.810563 11.833578,15.600395 9.1941789,17.573289 6.4565181,17.294254 3.345814,16.977198 1.1524728,14.024706 1.4860261,10.965834 1.8602224,7.5342424 5.1261684,5.1202316 8.5062165,5.5085416 12.258711,5.9396393 14.893555,9.5193049 14.45031,13.220503"
           transform="matrix(-0.12693299,-0.27940024,-0.24651116,0.18568287,23.532179,18.320999)" /><path
           sodipodi:type="spiral"
           style="fill:#00d438;fill-opacity:1;fill-rule:evenodd;stroke:#050c0c;stroke-width:1.165;stroke-dasharray:none;stroke-opacity:1"
           id="path45"
           sodipodi:cx="7.3788824"
           sodipodi:cy="11.990684"
           sodipodi:expansion="1"
           sodipodi:revolution="3"
           sodipodi:radius="7.1775723"
           sodipodi:argument="-18.677364"
           sodipodi:t0="0"
           d="m 7.3788824,11.990684 c 0.3545501,0.06166 0.091804,0.508347 -0.1024849,0.589285 -0.5265123,0.219336 -1.0101602,-0.312416 -1.0760864,-0.794255 -0.1179264,-0.861898 0.6785411,-1.533067 1.4860261,-1.562887 1.1850166,-0.04376 2.0659185,1.047626 2.0496877,2.177796 -0.021633,1.506339 -1.4174993,2.602675 -2.8695671,2.536489 C 5.0391786,14.853823 3.7250753,13.149428 3.8431686,11.375774 3.9861954,9.2276413 6.0011989,7.6945659 8.0962768,7.8656841 10.565254,8.067341 12.31801,10.39416 12.093167,12.810563 11.833578,15.600395 9.1941789,17.573289 6.4565181,17.294254 3.345814,16.977198 1.1524728,14.024706 1.4860261,10.965834 1.8602224,7.5342424 5.1261684,5.1202316 8.5062165,5.5085416 12.258711,5.9396393 14.893555,9.5193049 14.45031,13.220503"
           transform="matrix(0.12693299,-0.27940024,0.24651116,0.18568287,15.465587,19.054733)" /></g><g
         id="g47"
         transform="matrix(0.99394598,-0.13171397,0.14699635,0.89061098,16.534817,1.9031054)"><path
           sodipodi:type="spiral"
           style="fill:#005d19;fill-opacity:1;fill-rule:evenodd;stroke:#050c0c;stroke-width:1.165;stroke-dasharray:none;stroke-opacity:1"
           id="path46"
           sodipodi:cx="7.3788824"
           sodipodi:cy="11.990684"
           sodipodi:expansion="1"
           sodipodi:revolution="3"
           sodipodi:radius="7.1775723"
           sodipodi:argument="-18.677364"
           sodipodi:t0="0"
           d="m 7.3788824,11.990684 c 0.3545501,0.06166 0.091804,0.508347 -0.1024849,0.589285 -0.5265123,0.219336 -1.0101602,-0.312416 -1.0760864,-0.794255 -0.1179264,-0.861898 0.6785411,-1.533067 1.4860261,-1.562887 1.1850166,-0.04376 2.0659185,1.047626 2.0496877,2.177796 -0.021633,1.506339 -1.4174993,2.602675 -2.8695671,2.536489 C 5.0391786,14.853823 3.7250753,13.149428 3.8431686,11.375774 3.9861954,9.2276413 6.0011989,7.6945659 8.0962768,7.8656841 10.565254,8.067341 12.31801,10.39416 12.093167,12.810563 11.833578,15.600395 9.1941789,17.573289 6.4565181,17.294254 3.345814,16.977198 1.1524728,14.024706 1.4860261,10.965834 1.8602224,7.5342424 5.1261684,5.1202316 8.5062165,5.5085416 12.258711,5.9396393 14.893555,9.5193049 14.45031,13.220503"
           transform="matrix(-0.12693299,-0.27940024,-0.24651116,0.18568287,23.532179,18.320999)" /><path
           sodipodi:type="spiral"
           style="fill:#00d438;fill-opacity:1;fill-rule:evenodd;stroke:#050c0c;stroke-width:1.165;stroke-dasharray:none;stroke-opacity:1"
           id="path47"
           sodipodi:cx="7.3788824"
           sodipodi:cy="11.990684"
           sodipodi:expansion="1"
           sodipodi:revolution="3"
           sodipodi:radius="7.1775723"
           sodipodi:argument="-18.677364"
           sodipodi:t0="0"
           d="m 7.3788824,11.990684 c 0.3545501,0.06166 0.091804,0.508347 -0.1024849,0.589285 -0.5265123,0.219336 -1.0101602,-0.312416 -1.0760864,-0.794255 -0.1179264,-0.861898 0.6785411,-1.533067 1.4860261,-1.562887 1.1850166,-0.04376 2.0659185,1.047626 2.0496877,2.177796 -0.021633,1.506339 -1.4174993,2.602675 -2.8695671,2.536489 C 5.0391786,14.853823 3.7250753,13.149428 3.8431686,11.375774 3.9861954,9.2276413 6.0011989,7.6945659 8.0962768,7.8656841 10.565254,8.067341 12.31801,10.39416 12.093167,12.810563 11.833578,15.600395 9.1941789,17.573289 6.4565181,17.294254 3.345814,16.977198 1.1524728,14.024706 1.4860261,10.965834 1.8602224,7.5342424 5.1261684,5.1202316 8.5062165,5.5085416 12.258711,5.9396393 14.893555,9.5193049 14.45031,13.220503"
           transform="matrix(0.12693299,-0.27940024,0.24651116,0.18568287,15.465587,19.054733)" /></g><g
         id="g49"
         transform="matrix(0.97769643,-0.22223156,0.22798145,0.87339585,18.331593,4.1225025)"><path
           sodipodi:type="spiral"
           style="fill:#005d19;fill-opacity:1;fill-rule:evenodd;stroke:#050c0c;stroke-width:1.165;stroke-dasharray:none;stroke-opacity:1"
           id="path48"
           sodipodi:cx="7.3788824"
           sodipodi:cy="11.990684"
           sodipodi:expansion="1"
           sodipodi:revolution="3"
           sodipodi:radius="7.1775723"
           sodipodi:argument="-18.677364"
           sodipodi:t0="0"
           d="m 7.3788824,11.990684 c 0.3545501,0.06166 0.091804,0.508347 -0.1024849,0.589285 -0.5265123,0.219336 -1.0101602,-0.312416 -1.0760864,-0.794255 -0.1179264,-0.861898 0.6785411,-1.533067 1.4860261,-1.562887 1.1850166,-0.04376 2.0659185,1.047626 2.0496877,2.177796 -0.021633,1.506339 -1.4174993,2.602675 -2.8695671,2.536489 C 5.0391786,14.853823 3.7250753,13.149428 3.8431686,11.375774 3.9861954,9.2276413 6.0011989,7.6945659 8.0962768,7.8656841 10.565254,8.067341 12.31801,10.39416 12.093167,12.810563 11.833578,15.600395 9.1941789,17.573289 6.4565181,17.294254 3.345814,16.977198 1.1524728,14.024706 1.4860261,10.965834 1.8602224,7.5342424 5.1261684,5.1202316 8.5062165,5.5085416 12.258711,5.9396393 14.893555,9.5193049 14.45031,13.220503"
           transform="matrix(-0.12693299,-0.27940024,-0.24651116,0.18568287,23.532179,18.320999)" /><path
           sodipodi:type="spiral"
           style="fill:#00d438;fill-opacity:1;fill-rule:evenodd;stroke:#050c0c;stroke-width:1.165;stroke-dasharray:none;stroke-opacity:1"
           id="path49"
           sodipodi:cx="7.3788824"
           sodipodi:cy="11.990684"
           sodipodi:expansion="1"
           sodipodi:revolution="3"
           sodipodi:radius="7.1775723"
           sodipodi:argument="-18.677364"
           sodipodi:t0="0"
           d="m 7.3788824,11.990684 c 0.3545501,0.06166 0.091804,0.508347 -0.1024849,0.589285 -0.5265123,0.219336 -1.0101602,-0.312416 -1.0760864,-0.794255 -0.1179264,-0.861898 0.6785411,-1.533067 1.4860261,-1.562887 1.1850166,-0.04376 2.0659185,1.047626 2.0496877,2.177796 -0.021633,1.506339 -1.4174993,2.602675 -2.8695671,2.536489 C 5.0391786,14.853823 3.7250753,13.149428 3.8431686,11.375774 3.9861954,9.2276413 6.0011989,7.6945659 8.0962768,7.8656841 10.565254,8.067341 12.31801,10.39416 12.093167,12.810563 11.833578,15.600395 9.1941789,17.573289 6.4565181,17.294254 3.345814,16.977198 1.1524728,14.024706 1.4860261,10.965834 1.8602224,7.5342424 5.1261684,5.1202316 8.5062165,5.5085416 12.258711,5.9396393 14.893555,9.5193049 14.45031,13.220503"
           transform="matrix(0.12693299,-0.27940024,0.24651116,0.18568287,15.465587,19.054733)" /></g><g
         id="g51"
         transform="matrix(0.85817786,-0.51846691,0.4911194,0.75736226,18.722016,11.31504)"><path
           sodipodi:type="spiral"
           style="fill:#005d19;fill-opacity:1;fill-rule:evenodd;stroke:#050c0c;stroke-width:1.165;stroke-dasharray:none;stroke-opacity:1"
           id="path50"
           sodipodi:cx="7.3788824"
           sodipodi:cy="11.990684"
           sodipodi:expansion="1"
           sodipodi:revolution="3"
           sodipodi:radius="7.1775723"
           sodipodi:argument="-18.677364"
           sodipodi:t0="0"
           d="m 7.3788824,11.990684 c 0.3545501,0.06166 0.091804,0.508347 -0.1024849,0.589285 -0.5265123,0.219336 -1.0101602,-0.312416 -1.0760864,-0.794255 -0.1179264,-0.861898 0.6785411,-1.533067 1.4860261,-1.562887 1.1850166,-0.04376 2.0659185,1.047626 2.0496877,2.177796 -0.021633,1.506339 -1.4174993,2.602675 -2.8695671,2.536489 C 5.0391786,14.853823 3.7250753,13.149428 3.8431686,11.375774 3.9861954,9.2276413 6.0011989,7.6945659 8.0962768,7.8656841 10.565254,8.067341 12.31801,10.39416 12.093167,12.810563 11.833578,15.600395 9.1941789,17.573289 6.4565181,17.294254 3.345814,16.977198 1.1524728,14.024706 1.4860261,10.965834 1.8602224,7.5342424 5.1261684,5.1202316 8.5062165,5.5085416 12.258711,5.9396393 14.893555,9.5193049 14.45031,13.220503"
           transform="matrix(-0.12693299,-0.27940024,-0.24651116,0.18568287,23.532179,18.320999)" /><path
           sodipodi:type="spiral"
           style="fill:#00d438;fill-opacity:1;fill-rule:evenodd;stroke:#050c0c;stroke-width:1.165;stroke-dasharray:none;stroke-opacity:1"
           id="path51"
           sodipodi:cx="7.3788824"
           sodipodi:cy="11.990684"
           sodipodi:expansion="1"
           sodipodi:revolution="3"
           sodipodi:radius="7.1775723"
           sodipodi:argument="-18.677364"
           sodipodi:t0="0"
           d="m 7.3788824,11.990684 c 0.3545501,0.06166 0.091804,0.508347 -0.1024849,0.589285 -0.5265123,0.219336 -1.0101602,-0.312416 -1.0760864,-0.794255 -0.1179264,-0.861898 0.6785411,-1.533067 1.4860261,-1.562887 1.1850166,-0.04376 2.0659185,1.047626 2.0496877,2.177796 -0.021633,1.506339 -1.4174993,2.602675 -2.8695671,2.536489 C 5.0391786,14.853823 3.7250753,13.149428 3.8431686,11.375774 3.9861954,9.2276413 6.0011989,7.6945659 8.0962768,7.8656841 10.565254,8.067341 12.31801,10.39416 12.093167,12.810563 11.833578,15.600395 9.1941789,17.573289 6.4565181,17.294254 3.345814,16.977198 1.1524728,14.024706 1.4860261,10.965834 1.8602224,7.5342424 5.1261684,5.1202316 8.5062165,5.5085416 12.258711,5.9396393 14.893555,9.5193049 14.45031,13.220503"
           transform="matrix(0.12693299,-0.27940024,0.24651116,0.18568287,15.465587,19.054733)" /></g><g
         id="g53"
         transform="matrix(0.30140871,-0.91329263,0.70893461,0.29211155,27.671316,26.644267)"><path
           sodipodi:type="spiral"
           style="fill:#005d19;fill-opacity:1;fill-rule:evenodd;stroke:#050c0c;stroke-width:1.165;stroke-dasharray:none;stroke-opacity:1"
           id="path52"
           sodipodi:cx="7.3788824"
           sodipodi:cy="11.990684"
           sodipodi:expansion="1"
           sodipodi:revolution="3"
           sodipodi:radius="7.1775723"
           sodipodi:argument="-18.677364"
           sodipodi:t0="0"
           d="m 7.3788824,11.990684 c 0.3545501,0.06166 0.091804,0.508347 -0.1024849,0.589285 -0.5265123,0.219336 -1.0101602,-0.312416 -1.0760864,-0.794255 -0.1179264,-0.861898 0.6785411,-1.533067 1.4860261,-1.562887 1.1850166,-0.04376 2.0659185,1.047626 2.0496877,2.177796 -0.021633,1.506339 -1.4174993,2.602675 -2.8695671,2.536489 C 5.0391786,14.853823 3.7250753,13.149428 3.8431686,11.375774 3.9861954,9.2276413 6.0011989,7.6945659 8.0962768,7.8656841 10.565254,8.067341 12.31801,10.39416 12.093167,12.810563 11.833578,15.600395 9.1941789,17.573289 6.4565181,17.294254 3.345814,16.977198 1.1524728,14.024706 1.4860261,10.965834 1.8602224,7.5342424 5.1261684,5.1202316 8.5062165,5.5085416 12.258711,5.9396393 14.893555,9.5193049 14.45031,13.220503"
           transform="matrix(-0.12693299,-0.27940024,-0.24651116,0.18568287,23.532179,18.320999)" /><path
           sodipodi:type="spiral"
           style="fill:#00d438;fill-opacity:1;fill-rule:evenodd;stroke:#050c0c;stroke-width:1.165;stroke-dasharray:none;stroke-opacity:1"
           id="path53"
           sodipodi:cx="7.3788824"
           sodipodi:cy="11.990684"
           sodipodi:expansion="1"
           sodipodi:revolution="3"
           sodipodi:radius="7.1775723"
           sodipodi:argument="-18.677364"
           sodipodi:t0="0"
           d="m 7.3788824,11.990684 c 0.3545501,0.06166 0.091804,0.508347 -0.1024849,0.589285 -0.5265123,0.219336 -1.0101602,-0.312416 -1.0760864,-0.794255 -0.1179264,-0.861898 0.6785411,-1.533067 1.4860261,-1.562887 1.1850166,-0.04376 2.0659185,1.047626 2.0496877,2.177796 -0.021633,1.506339 -1.4174993,2.602675 -2.8695671,2.536489 C 5.0391786,14.853823 3.7250753,13.149428 3.8431686,11.375774 3.9861954,9.2276413 6.0011989,7.6945659 8.0962768,7.8656841 10.565254,8.067341 12.31801,10.39416 12.093167,12.810563 11.833578,15.600395 9.1941789,17.573289 6.4565181,17.294254 3.345814,16.977198 1.1524728,14.024706 1.4860261,10.965834 1.8602224,7.5342424 5.1261684,5.1202316 8.5062165,5.5085416 12.258711,5.9396393 14.893555,9.5193049 14.45031,13.220503"
           transform="matrix(0.12693299,-0.27940024,0.24651116,0.18568287,15.465587,19.054733)" /></g><g
         id="g55"
         transform="matrix(-0.95603024,0.10467485,0.13812483,0.75421414,64.350711,-4.0034402)"><path
           sodipodi:type="spiral"
           style="fill:#005d19;fill-opacity:1;fill-rule:evenodd;stroke:#050c0c;stroke-width:1.165;stroke-dasharray:none;stroke-opacity:1"
           id="path54"
           sodipodi:cx="7.3788824"
           sodipodi:cy="11.990684"
           sodipodi:expansion="1"
           sodipodi:revolution="3"
           sodipodi:radius="7.1775723"
           sodipodi:argument="-18.677364"
           sodipodi:t0="0"
           d="m 7.3788824,11.990684 c 0.3545501,0.06166 0.091804,0.508347 -0.1024849,0.589285 -0.5265123,0.219336 -1.0101602,-0.312416 -1.0760864,-0.794255 -0.1179264,-0.861898 0.6785411,-1.533067 1.4860261,-1.562887 1.1850166,-0.04376 2.0659185,1.047626 2.0496877,2.177796 -0.021633,1.506339 -1.4174993,2.602675 -2.8695671,2.536489 C 5.0391786,14.853823 3.7250753,13.149428 3.8431686,11.375774 3.9861954,9.2276413 6.0011989,7.6945659 8.0962768,7.8656841 10.565254,8.067341 12.31801,10.39416 12.093167,12.810563 11.833578,15.600395 9.1941789,17.573289 6.4565181,17.294254 3.345814,16.977198 1.1524728,14.024706 1.4860261,10.965834 1.8602224,7.5342424 5.1261684,5.1202316 8.5062165,5.5085416 12.258711,5.9396393 14.893555,9.5193049 14.45031,13.220503"
           transform="matrix(-0.12693299,-0.27940024,-0.24651116,0.18568287,23.532179,18.320999)" /><path
           sodipodi:type="spiral"
           style="fill:#00d438;fill-opacity:1;fill-rule:evenodd;stroke:#050c0c;stroke-width:1.165;stroke-dasharray:none;stroke-opacity:1"
           id="path55"
           sodipodi:cx="7.3788824"
           sodipodi:cy="11.990684"
           sodipodi:expansion="1"
           sodipodi:revolution="3"
           sodipodi:radius="7.1775723"
           sodipodi:argument="-18.677364"
           sodipodi:t0="0"
           d="m 7.3788824,11.990684 c 0.3545501,0.06166 0.091804,0.508347 -0.1024849,0.589285 -0.5265123,0.219336 -1.0101602,-0.312416 -1.0760864,-0.794255 -0.1179264,-0.861898 0.6785411,-1.533067 1.4860261,-1.562887 1.1850166,-0.04376 2.0659185,1.047626 2.0496877,2.177796 -0.021633,1.506339 -1.4174993,2.602675 -2.8695671,2.536489 C 5.0391786,14.853823 3.7250753,13.149428 3.8431686,11.375774 3.9861954,9.2276413 6.0011989,7.6945659 8.0962768,7.8656841 10.565254,8.067341 12.31801,10.39416 12.093167,12.810563 11.833578,15.600395 9.1941789,17.573289 6.4565181,17.294254 3.345814,16.977198 1.1524728,14.024706 1.4860261,10.965834 1.8602224,7.5342424 5.1261684,5.1202316 8.5062165,5.5085416 12.258711,5.9396393 14.893555,9.5193049 14.45031,13.220503"
           transform="matrix(0.12693299,-0.27940024,0.24651116,0.18568287,15.465587,19.054733)" /></g></g><path
       id="rect56"
       style="fill:#ffffff;fill-opacity:1;stroke:#060e0e;stroke-width:0.859202;stroke-dasharray:none;stroke-opacity:1"
       d="m 19.414496,25.516732 c -0.456561,8.539672 -0.34766,17.932885 -0.314956,20.06399 0.0038,0.246391 0.208297,0.433871 0.45618,0.422696 9.43876,-0.425527 8.631153,3.944539 12.459894,1.700564 0.213954,-0.125395 0.33594,-0.42982 0.3385,-0.671614 0.02745,-2.592508 1.308583,-16.09868 0.581584,-23.129767 -0.139964,-1.35365 -3.647496,-0.30627 -3.647496,-0.30627 -0.135497,0.319831 -0.208038,0.819153 -0.208143,1.086316 0,1.161992 -1.427897,2.103977 -3.189313,2.103993 -1.761416,-1.7e-5 -3.189311,-0.889871 -3.189311,-2.051862 -0.223651,-0.281481 -0.555453,-0.824767 -0.04171,-0.961195 0,0 -3.171063,0.35587 -3.245232,1.743149 z"
       sodipodi:nodetypes="sccscccccss"
       inkscape:path-effect="#path-effect66-6"
       inkscape:original-d="m 19.414496,25.516732 c -0.518809,9.703979 -0.307454,20.51011 -0.307454,20.51011 10.225904,-0.605201 8.95319,4.247261 13.290612,1.441188 -0.331653,0.110551 1.347287,-15.738929 0.538044,-23.565429 -0.139964,-1.35365 -3.647496,-0.30627 -3.647496,-0.30627 -0.135497,0.319831 -0.208038,0.819153 -0.208143,1.086316 0,1.161992 -1.427897,2.103977 -3.189313,2.103993 -1.761416,-1.7e-5 -3.189311,-0.889871 -3.189311,-2.051862 -0.223651,-0.281481 -0.555453,-0.824767 -0.04171,-0.961195 0,0 -3.171063,0.35587 -3.245232,1.743149 z"
       transform="matrix(2.4418558,0,0,2.7041687,-8.3835597,0.37535241)" /><rect
       style="fill:#1f1f1f;fill-opacity:1;stroke:#000000;stroke-width:1.02578;stroke-dasharray:none;stroke-opacity:1"
       id="rect65"
       width="6.8082576"
       height="22.232473"
       x="14.224276"
       y="63.37339" /><path
       id="rect66"
       style="fill:#d5d5d5;fill-opacity:1;stroke:#182629;stroke-width:2.15248;stroke-dasharray:none;stroke-opacity:1"
       d="M 24.773957,4.9087929 7.7750498,14.494994 8.5667831,26.540743 a 6.6403843,6.9075963 0 0 1 1.5986199,-0.203733 6.6403843,6.9075963 0 0 1 6.640711,6.908177 6.6403843,6.9075963 0 0 1 -6.640711,6.906836 6.6403843,6.9075963 0 0 1 -0.7071308,-0.03888 L 11.758971,75.11377 h 9.297501 z" /><path
       id="path68"
       style="fill:#2b6a6a;fill-opacity:1;stroke:#0d1f1f;stroke-width:2.83473;stroke-dasharray:none;stroke-opacity:1"
       d="m 25.422889,87.876316 c -0.110521,3.38243 -4.00317,7.439548 -9.013547,5.061254 -3.995173,-1.896406 -7.7837565,-3.808187 -7.0861812,-7.742007 0.7023822,-3.960901 1.3580282,-7.967099 9.2772222,-5.274687 4.230463,1.438291 6.916062,5.093011 6.822506,7.95544 z"
       sodipodi:nodetypes="sssss" /><path
       id="path76"
       style="fill:#143030;fill-opacity:1;stroke:none;stroke-width:1.24761;stroke-dasharray:none;stroke-opacity:1"
       d="m 41.526805,31.55922 c -1.30533,0.629547 -2.315095,1.592507 -2.33788,2.711644 -0.04117,2.023058 3.157232,3.792217 5.567324,3.83312 1.550803,0.0263 3.3942,-0.622324 4.522217,-1.626724 -0.986602,0.476157 -2.134569,0.751036 -3.155151,0.733725 -2.410092,-0.0409 -5.607272,-1.810065 -5.566088,-3.833123 0.01368,-0.67638 0.387564,-1.295685 0.969578,-1.818642 z" /><path
       style="fill:#2b6a6a;fill-opacity:1;stroke:#060e0e;stroke-width:1.45261;stroke-dasharray:none;stroke-opacity:1"
       d="m 38.984892,34.019976 c 5.035144,-1.20592 8.60261,-0.698152 11.886288,0.14097"
       id="path22"
       sodipodi:nodetypes="cc" /><path
       id="path23"
       style="fill:#2b6a6a;fill-opacity:1;stroke:#060e0e;stroke-width:1.45261;stroke-dasharray:none;stroke-opacity:1"
       d="m 67.305531,30.055042 c 2.745142,0.04866 6.217968,2.062794 6.171056,4.470584 -0.04691,2.407793 -3.595791,4.297457 -6.340933,4.248796 -2.74514,-0.04866 -6.38763,-2.154807 -6.340721,-4.562597 0.04691,-2.40779 3.765458,-4.205444 6.510598,-4.156783 z"
       sodipodi:nodetypes="sssss" /><path
       id="path77"
       style="fill:#143030;fill-opacity:1;stroke:none;stroke-width:1.24744;stroke-dasharray:none;stroke-opacity:1"
       d="m 63.838497,31.560991 c -1.30533,0.629376 -2.315095,1.592077 -2.337881,2.71091 -0.04117,2.022511 3.157233,3.791193 5.567325,3.832083 1.550803,0.0263 3.394199,-0.622155 4.522217,-1.626285 -0.986603,0.476029 -2.134569,0.750833 -3.155151,0.733528 -2.410092,-0.0409 -5.607272,-1.809575 -5.566088,-3.832086 0.01368,-0.676199 0.387564,-1.295335 0.969578,-1.81815 z" /><path
       style="fill:#2b6a6a;fill-opacity:1;stroke:#060e0e;stroke-width:1.45261;stroke-dasharray:none;stroke-opacity:1"
       d="m 61.312696,34.389079 c 5.035144,-1.205921 8.60261,-0.698152 11.886289,0.140969"
       id="path27"
       sodipodi:nodetypes="cc" /><path
       id="path78"
       style="fill:#487078;fill-opacity:1;stroke:none;stroke-width:1.75667;stroke-dasharray:none;stroke-opacity:1"
       d="M 23.640791,6.8060862 15.426068,13.068856 14.59602,26.806664 c 1.511548,1.14691 3.169321,4.03757 3.168986,6.487086 -9e-6,2.449041 -1.132889,4.872061 -2.644143,6.018749 l 0.305205,34.769208 h 5.412712 z"
       sodipodi:nodetypes="cccccccc" /></g></svg>
