<?xml version="1.0" encoding="UTF-8" standalone="no"?>
<!-- Created with Inkscape (http://www.inkscape.org/) -->

<svg
   width="300"
   height="300"
   viewBox="0 0 79.374999 79.374999"
   version="1.1"
   id="svg1"
   inkscape:version="1.4.2 (ebf0e940d0, 2025-05-08)"
   sodipodi:docname="b_lord.svg"
   xml:space="preserve"
   xmlns:inkscape="http://www.inkscape.org/namespaces/inkscape"
   xmlns:sodipodi="http://sodipodi.sourceforge.net/DTD/sodipodi-0.dtd"
   xmlns="http://www.w3.org/2000/svg"
   xmlns:svg="http://www.w3.org/2000/svg"><sodipodi:namedview
     id="namedview1"
     pagecolor="#505050"
     bordercolor="#eeeeee"
     borderopacity="1"
     inkscape:showpageshadow="0"
     inkscape:pageopacity="0"
     inkscape:pagecheckerboard="0"
     inkscape:deskcolor="#505050"
     inkscape:document-units="px"
     inkscape:zoom="1.2472578"
     inkscape:cx="216.87577"
     inkscape:cy="315.49211"
     inkscape:window-width="1366"
     inkscape:window-height="697"
     inkscape:window-x="0"
     inkscape:window-y="0"
     inkscape:window-maximized="1"
     inkscape:current-layer="layer1" /><defs
     id="defs1"><inkscape:path-effect
       effect="fillet_chamfer"
       id="path-effect68"
       is_visible="true"
       lpeversion="1"
       nodesatellites_param="F,0,0,1,0,0,0,1 @ F,0,0,1,0,0,0,1 @ F,0,0,1,0,0,0,1 @ F,0,0,1,0,0,0,1 @ F,0,0,1,0,0,0,1 @ F,0,0,1,0,0,0,1 @ F,0,0,1,0,0,0,1 @ F,0,0,1,0,0,0,1 @ F,0,0,1,0,0,0,1"
       radius="0"
       unit="px"
       method="auto"
       mode="F"
       chamfer_steps="1"
       flexible="false"
       use_knot_distance="true"
       apply_no_radius="true"
       apply_with_radius="true"
       only_selected="false"
       hide_knots="false" /><inkscape:path-effect
       effect="fillet_chamfer"
       id="path-effect66"
       is_visible="true"
       lpeversion="1"
       nodesatellites_param="F,0,0,1,0,0,0,1 @ F,0,0,1,0,0.44929322,0,1 @ F,0,0,1,0,0.44929322,0,1 @ F,0,0,1,0,0,0,1 @ F,0,0,1,0,0,0,1 @ F,0,0,1,0,0,0,1 @ F,0,0,1,0,0,0,1 @ F,0,0,1,0,0,0,1 @ F,0,0,1,0,0,0,1 @ F,0,0,1,0,0,0,1"
       radius="0"
       unit="px"
       method="auto"
       mode="F"
       chamfer_steps="1"
       flexible="false"
       use_knot_distance="true"
       apply_no_radius="true"
       apply_with_radius="true"
       only_selected="false"
       hide_knots="false" /><inkscape:path-effect
       effect="fillet_chamfer"
       id="path-effect68-7"
       is_visible="true"
       lpeversion="1"
       nodesatellites_param="F,0,0,1,0,0,0,1 @ F,0,0,1,0,0,0,1 @ F,0,0,1,0,0,0,1 @ F,0,0,1,0,0,0,1 @ F,0,0,1,0,0,0,1 @ F,0,0,1,0,0,0,1 @ F,0,0,1,0,0,0,1 @ F,0,0,1,0,0,0,1 @ F,0,0,1,0,0,0,1"
       radius="0"
       unit="px"
       method="auto"
       mode="F"
       chamfer_steps="1"
       flexible="false"
       use_knot_distance="true"
       apply_no_radius="true"
       apply_with_radius="true"
       only_selected="false"
       hide_knots="false" /><inkscape:path-effect
       effect="fillet_chamfer"
       id="path-effect66-5"
       is_visible="true"
       lpeversion="1"
       nodesatellites_param="F,0,0,1,0,0,0,1 @ F,0,0,1,0,0.44929322,0,1 @ F,0,0,1,0,0.44929322,0,1 @ F,0,0,1,0,0,0,1 @ F,0,0,1,0,0,0,1 @ F,0,0,1,0,0,0,1 @ F,0,0,1,0,0,0,1 @ F,0,0,1,0,0,0,1 @ F,0,0,1,0,0,0,1 @ F,0,0,1,0,0,0,1"
       radius="0"
       unit="px"
       method="auto"
       mode="F"
       chamfer_steps="1"
       flexible="false"
       use_knot_distance="true"
       apply_no_radius="true"
       apply_with_radius="true"
       only_selected="false"
       hide_knots="false" /><inkscape:path-effect
       effect="fillet_chamfer"
       id="path-effect68-3"
       is_visible="true"
       lpeversion="1"
       nodesatellites_param="F,0,0,1,0,0,0,1 @ F,0,0,1,0,0,0,1 @ F,0,0,1,0,0,0,1 @ F,0,0,1,0,0,0,1 @ F,0,0,1,0,0,0,1 @ F,0,0,1,0,0,0,1 @ F,0,0,1,0,0,0,1 @ F,0,0,1,0,0,0,1 @ F,0,0,1,0,0,0,1"
       radius="0"
       unit="px"
       method="auto"
       mode="F"
       chamfer_steps="1"
       flexible="false"
       use_knot_distance="true"
       apply_no_radius="true"
       apply_with_radius="true"
       only_selected="false"
       hide_knots="false" /><inkscape:path-effect
       effect="fillet_chamfer"
       id="path-effect66-6"
       is_visible="true"
       lpeversion="1"
       nodesatellites_param="F,0,0,1,0,0,0,1 @ F,0,0,1,0,0.44929322,0,1 @ F,0,0,1,0,0.44929322,0,1 @ F,0,0,1,0,0,0,1 @ F,0,0,1,0,0,0,1 @ F,0,0,1,0,0,0,1 @ F,0,0,1,0,0,0,1 @ F,0,0,1,0,0,0,1 @ F,0,0,1,0,0,0,1 @ F,0,0,1,0,0,0,1"
       radius="0"
       unit="px"
       method="auto"
       mode="F"
       chamfer_steps="1"
       flexible="false"
       use_knot_distance="true"
       apply_no_radius="true"
       apply_with_radius="true"
       only_selected="false"
       hide_knots="false" /><inkscape:path-effect
       effect="fillet_chamfer"
       id="path-effect68-36"
       is_visible="true"
       lpeversion="1"
       nodesatellites_param="F,0,0,1,0,0,0,1 @ F,0,0,1,0,0,0,1 @ F,0,0,1,0,0,0,1 @ F,0,0,1,0,0,0,1 @ F,0,0,1,0,0,0,1 @ F,0,0,1,0,0,0,1 @ F,0,0,1,0,0,0,1 @ F,0,0,1,0,0,0,1 @ F,0,0,1,0,0,0,1"
       radius="0"
       unit="px"
       method="auto"
       mode="F"
       chamfer_steps="1"
       flexible="false"
       use_knot_distance="true"
       apply_no_radius="true"
       apply_with_radius="true"
       only_selected="false"
       hide_knots="false" /><inkscape:path-effect
       effect="fillet_chamfer"
       id="path-effect66-7"
       is_visible="true"
       lpeversion="1"
       nodesatellites_param="F,0,0,1,0,0,0,1 @ F,0,0,1,0,0.44929322,0,1 @ F,0,0,1,0,0.44929322,0,1 @ F,0,0,1,0,0,0,1 @ F,0,0,1,0,0,0,1 @ F,0,0,1,0,0,0,1 @ F,0,0,1,0,0,0,1 @ F,0,0,1,0,0,0,1 @ F,0,0,1,0,0,0,1 @ F,0,0,1,0,0,0,1"
       radius="0"
       unit="px"
       method="auto"
       mode="F"
       chamfer_steps="1"
       flexible="false"
       use_knot_distance="true"
       apply_no_radius="true"
       apply_with_radius="true"
       only_selected="false"
       hide_knots="false" /></defs><g
     inkscape:label="Camada 1"
     inkscape:groupmode="layer"
     id="layer1"><rect
       style="fill:#6a0a0a;fill-opacity:1;stroke-width:1.17709"
       id="rect1"
       width="81.034431"
       height="82.519356"
       x="-1.2727922"
       y="-0.84852815"
       ry="1.1129255" /><ellipse
       style="fill:#5d4927;fill-opacity:1;stroke:#292112;stroke-width:1.88599;stroke-opacity:1"
       id="ellipse66"
       cx="-57.635029"
       cy="28.033134"
       rx="5.4505558"
       ry="7.6975017"
       transform="matrix(-0.98782846,-0.1555472,-0.14244579,0.98980261,0,0)" /><rect
       style="fill:#5d4927;fill-opacity:1;stroke:#292112;stroke-width:2.79712;stroke-opacity:1"
       id="rect1-3"
       width="17.856096"
       height="52.355198"
       x="68.651459"
       y="47.848274" /><path
       id="path75"
       style="fill:#6a0a0a;fill-opacity:1;stroke-width:1.52628"
       d="m 76.565309,58.735595 h 2.503114 c 3.642895,0 6.575621,0.606511 6.575621,1.359892 v 7.726878 c 0,1.825918 0.578573,1.359891 -6.575621,1.359891 h -2.503114 c -3.642891,0 -6.575619,-0.60651 -6.575619,-1.359891 v -7.726878 c 0,-0.753381 2.932728,-1.359892 6.575619,-1.359892 z"
       sodipodi:nodetypes="sssssssss" /><rect
       style="fill:#d9810f;fill-opacity:1;stroke:#331708;stroke-width:1.79653;stroke-opacity:1"
       id="rect71"
       width="2.4394886"
       height="10.670967"
       x="50.967556"
       y="46.203964" /><ellipse
       style="fill:#d9810f;fill-opacity:1;stroke:#331708;stroke-width:1.79653;stroke-opacity:1"
       id="path68"
       cx="52.352264"
       cy="44.708843"
       rx="3.4107535"
       ry="3.7727566" /><ellipse
       style="fill:#5d4927;fill-opacity:1;stroke:#292112;stroke-width:2.54442;stroke-dasharray:none;stroke-opacity:1"
       id="path2"
       cx="77.86586"
       cy="35.508774"
       rx="25.44923"
       ry="27.461784" /><ellipse
       style="fill:#6a0a0a;fill-opacity:1;stroke:none;stroke-width:1.03932;stroke-opacity:1"
       id="path3"
       cx="82.050011"
       cy="32.774998"
       rx="19.049999"
       ry="23.325001" /><path
       id="path16"
       style="fill:#aea810;fill-opacity:1;stroke:#1a0d1f;stroke-width:1.30693;stroke-dasharray:none;stroke-opacity:1"
       d="m 66.34169,22.374881 c 2.642309,1.04217 5.309051,3.736065 4.430021,5.414976 -0.879036,1.678911 -4.97096,1.707072 -7.613269,0.6649 -2.642309,-1.042168 -5.441546,-3.863174 -4.562519,-5.542086 0.879036,-1.678909 5.103458,-1.579961 7.745767,-0.53779 z"
       sodipodi:nodetypes="sssss" /><path
       id="path19"
       style="fill:#4d285b;fill-opacity:1;stroke:#1a0d1f;stroke-width:0.802988;stroke-dasharray:none;stroke-opacity:1"
       d="m 66.946515,24.612812 c 0.424297,1.09657 0.121441,2.995796 -0.921527,3.608609 -1.042971,0.612816 -2.43111,-0.292838 -2.855403,-1.389411 -0.424297,-1.096568 -0.10941,-3.086907 0.933573,-3.69972 1.042971,-0.612817 2.419064,0.383951 2.843357,1.480522 z"
       sodipodi:nodetypes="sssss" /><path
       id="path20"
       style="fill:#aea810;fill-opacity:1;stroke:none;stroke-width:0.2119"
       d="m 67.685832,26.136982 c -0.491786,0.367006 -1.685086,0.252771 -2.381224,-0.467152 -0.696135,-0.719918 -0.631505,-1.772909 -0.139705,-2.139915 0.491786,-0.367007 1.741507,-0.249089 2.437645,0.470835 0.696139,0.71992 0.575081,1.769225 0.0833,2.136232 z"
       sodipodi:nodetypes="sssss" /><path
       id="path4"
       style="fill:#5d4927;fill-opacity:1;stroke:#120e08;stroke-width:3.3921;stroke-miterlimit:4;stroke-dasharray:none;stroke-opacity:1"
       d="m 62.112852,78.811285 c -0.944337,1.647311 -2.401349,2.819071 -3.846175,2.919298 l -17.522252,1.370592 c -0.278732,0.09569 -2.989673,0.293098 -3.279547,0.203815 -0.476435,0.105399 -0.986749,-0.180451 -1.421138,-0.286506 L 17.572359,78.509709 c -1.950057,-0.476007 -2.496161,-3.049815 -1.227425,-5.769044 l 0.95702,-2.058468 c 1.268722,-2.719239 3.862674,-4.523441 5.812726,-4.047412 l 16.710584,4.53059 c 1.240331,-0.06292 1.562805,-0.187124 1.703895,-0.161478 l 19.095472,-1.7124 c 2.101575,-0.145751 3.358103,2.031933 2.818529,4.879916 l -0.407465,2.156038 c -0.168567,0.889991 -0.493687,1.735053 -0.923046,2.483786 z"
       sodipodi:nodetypes="cccccccccccccccc" /><path
       id="path31"
       style="fill:#6a0a0a;fill-opacity:1;stroke:none;stroke-width:2.50126;stroke-miterlimit:4;stroke-dasharray:none;stroke-opacity:1"
       d="m 63.014456,78.916062 c -1.077282,1.001572 -2.626497,1.788989 -4.075234,1.982403 l -17.582456,2.431453 c -0.285789,0.07942 -3.004826,0.447656 -3.286471,0.425916 -0.483667,0.103929 -0.968896,-0.0055 -1.39324,-0.02282 C 23.278156,78.376812 14.323097,80.2162 18.240938,72.160846 c 1.489053,-1.625607 4.991598,3.665066 6.896537,3.742233 l 16.286787,0.910961 c 1.241782,-0.153237 1.573522,-0.252753 1.712074,-0.252032 l 19.179115,-2.770784 c 2.107259,-0.2813 3.180492,0.80354 2.407778,2.430748 l -0.583961,1.231764 c -0.241429,0.508496 -0.635225,1.007083 -1.125009,1.462329 z"
       sodipodi:nodetypes="cccccccccccccc" /><rect
       style="fill:#310099;fill-opacity:1;stroke:#0f0916;stroke-width:1.6879;stroke-opacity:1"
       id="rect53"
       width="16.051746"
       height="20.992058"
       x="-117.20737"
       y="-12.469798"
       transform="matrix(-0.48771951,-0.87300039,-0.90007383,0.43573741,0,0)" /><path
       id="rect52"
       style="fill:#310099;stroke:#0f0916;stroke-width:1.68645"
       d="M 65.603264,82.918581 63.362236,66.85825 42.959962,66.378379 44.73054,85.145252 Z"
       sodipodi:nodetypes="ccccc" /><path
       style="fill:none;fill-opacity:1;stroke:#292112;stroke-width:1.79653;stroke-opacity:1"
       d="m 64.296053,76.459861 10.506689,2.460491 0.784081,2.788564"
       id="path74" /><path
       style="fill:none;fill-opacity:1;stroke:#292112;stroke-width:1.79653;stroke-opacity:1"
       d="M 91.312468,74.804062 81.202919,78.678654 80.77368,81.550441"
       id="path76" /><path
       id="rect5"
       style="fill:#6a0a0a;stroke-width:1.15729"
       d="m 44.624998,76.425008 24.525002,-1.8 0.225,6.9 -24.225002,3.15 z"
       sodipodi:nodetypes="ccccc" /><path
       id="rect56"
       style="fill:#310099;fill-opacity:1;stroke:#0f0916;stroke-width:0.859202;stroke-dasharray:none;stroke-opacity:1"
       d="m 19.414496,25.516732 c -0.459025,8.585761 -0.346469,18.755707 -0.314433,20.985526 0.0035,0.246401 0.207775,0.434063 0.455584,0.421307 9.476273,-0.487802 9.716731,1.867512 13.616009,-0.507026 0.211572,-0.12884 0.316138,-0.427891 0.30077,-0.669057 -0.156656,-2.458349 0.187076,-14.844697 -0.536728,-21.844881 -0.139964,-1.35365 -3.647496,-0.30627 -3.647496,-0.30627 -0.135497,0.319831 -0.208038,0.819153 -0.208143,1.086316 0,1.161992 -1.120232,8.370563 -2.881648,8.370579 -1.761416,-1.7e-5 -3.496976,-7.156457 -3.496976,-8.318448 -0.223651,-0.281481 -0.555453,-0.824767 -0.04171,-0.961195 0,0 -3.171063,0.35587 -3.245232,1.743149 z"
       sodipodi:nodetypes="sccscccccss"
       transform="matrix(2.8796469,0,0,3.2873317,2.4361796,-11.743032)"
       inkscape:original-d="m 19.414496,25.516732 c -0.518809,9.703979 -0.307454,21.431667 -0.307454,21.431667 10.225904,-0.605201 10.106934,2.035525 14.444356,-0.770548 -0.331653,0.110551 0.193543,-14.44875 -0.6157,-22.27525 -0.139964,-1.35365 -3.647496,-0.30627 -3.647496,-0.30627 -0.135497,0.319831 -0.208038,0.819153 -0.208143,1.086316 0,1.161992 -1.120232,8.370563 -2.881648,8.370579 -1.761416,-1.7e-5 -3.496976,-7.156457 -3.496976,-8.318448 -0.223651,-0.281481 -0.555453,-0.824767 -0.04171,-0.961195 0,0 -3.171063,0.35587 -3.245232,1.743149 z"
       inkscape:path-effect="#path-effect66-7" /><path
       id="path15"
       style="fill:#aea810;fill-opacity:1;stroke:#1a0d1f;stroke-width:1.14566;stroke-dasharray:none;stroke-opacity:1"
       d="m 70.339867,50.74914 c 2.197192,1.222912 4.270774,3.8945 3.362276,5.260747 -0.908503,1.366245 -4.455041,0.909786 -6.652234,-0.313126 -2.197192,-1.222908 -4.374384,-4.021339 -3.46589,-5.387586 0.9085,-1.366245 4.558655,-0.782946 6.755848,0.439965 z"
       sodipodi:nodetypes="sssss" /><path
       id="path17"
       style="fill:#4d285b;fill-opacity:1;stroke:#1a0d1f;stroke-width:0.716087;stroke-dasharray:none;stroke-opacity:1"
       d="m 70.567927,52.749852 c 0.325514,0.998667 -0.05003,2.626643 -1.026799,3.059323 -0.976783,0.432677 -2.184933,-0.493796 -2.510446,-1.492457 -0.325511,-0.998664 0.06578,-2.704985 1.042573,-3.137662 0.976782,-0.43268 2.169159,0.572135 2.494672,1.570796 z"
       sodipodi:nodetypes="sssss" /><path
       id="path18"
       style="fill:#aea810;fill-opacity:1;stroke:none;stroke-width:0.174261"
       d="m 71.112277,53.445899 c -0.241642,0.499548 -1.050352,0.788493 -1.66675,0.356824 -0.616398,-0.431669 -0.807059,-1.420494 -0.565426,-1.920039 0.241641,-0.499545 1.088209,-0.803734 1.70461,-0.372062 0.616398,0.431669 0.769196,1.435732 0.527566,1.935277 z"
       sodipodi:nodetypes="sssss" /><g
       id="g48"
       transform="matrix(-1.9977413,0.53870602,0.72244051,2.9313601,99.17671,-19.575712)"
       style="fill:#000000"><path
         id="path47"
         style="fill:#000000;fill-opacity:1;stroke:#000000;stroke-width:0.637266;stroke-opacity:1"
         d="M 45.179578,1.4273455 C 45.931,3.4226832 46.682422,3.5558366 47.433844,4.0361743 L 46.618585,22.976073 44.690423,23.139125 Z"
         sodipodi:nodetypes="ccccc" /><rect
         style="fill:#000000;fill-opacity:1;stroke:#000000;stroke-width:0.608806;stroke-opacity:1"
         id="rect48"
         width="3.1251595"
         height="5.5437613"
         x="44.051163"
         y="21.876118" /></g><g
       id="g49"
       transform="matrix(-2.0542582,-0.19908578,-0.26698727,3.0142895,128.72455,45.614017)"
       style="fill:#000000"><path
         id="path48"
         style="fill:#000000;fill-opacity:1;stroke:#000000;stroke-width:0.637266;stroke-opacity:1"
         d="M 45.179578,1.4273455 C 45.931,3.4226832 46.682422,3.5558366 47.433844,4.0361743 L 46.618585,22.976073 44.690423,23.139125 Z"
         sodipodi:nodetypes="ccccc" /><rect
         style="fill:#000000;fill-opacity:1;stroke:#000000;stroke-width:0.608806;stroke-opacity:1"
         id="rect49"
         width="3.1251595"
         height="5.5437613"
         x="44.051163"
         y="21.876118" /></g><path
       id="path62"
       style="fill:#aea810;fill-opacity:1;stroke:#1a0d1f;stroke-width:1.70268;stroke-dasharray:none;stroke-opacity:1"
       d="m 67.505067,34.154552 c 3.008787,1.26252 6.317459,4.460254 5.31015,7.056901 -1.007315,2.596646 -5.671932,3.086959 -8.68072,1.824436 -3.008787,-1.262523 -6.190879,-5.156987 -5.183573,-7.753636 1.007312,-2.596644 5.545355,-2.390227 8.554143,-1.127701 z"
       sodipodi:nodetypes="sssss" /><path
       id="path63"
       style="fill:#4d285b;fill-opacity:1;stroke:#1a0d1f;stroke-width:1.04614;stroke-dasharray:none;stroke-opacity:1"
       d="m 68.460245,38.66123 c 0.13956,1.731718 -0.789408,4.044122 -2.155509,4.164581 -1.36611,0.120451 -2.652041,-1.996637 -2.791602,-3.728355 -0.139561,-1.731716 0.831172,-4.156696 2.197279,-4.277155 1.366107,-0.120451 2.610274,2.109213 2.749832,3.840929 z"
       sodipodi:nodetypes="sssss" /><path
       id="path64"
       style="fill:#aea810;fill-opacity:1;stroke:none;stroke-width:0.228985"
       d="m 69.245982,38.537408 c -0.286536,0.682167 -1.391223,1.298317 -2.301835,0.982155 -0.910604,-0.316159 -1.282322,-1.44491 -0.995774,-2.127077 0.286565,-0.68217 1.44276,-1.329231 2.353369,-1.013069 0.910609,0.316165 1.230791,1.475824 0.94424,2.157991 z"
       sodipodi:nodetypes="sssss" /><rect
       style="fill:#d9810f;fill-opacity:1;stroke:#331708;stroke-width:2.16052;stroke-opacity:1"
       id="rect72"
       width="5.5210652"
       height="6.8190422"
       x="49.260433"
       y="55.669197" /><rect
       style="fill:#6a0a0a;fill-opacity:1;stroke:#6a0a0a;stroke-width:1.15729;stroke-opacity:1"
       id="rect2"
       width="0.14999999"
       height="53.999996"
       x="6.2495823"
       y="17.125938"
       ry="0"
       transform="rotate(-14.166187)" /><rect
       style="fill:#6a0a0a;fill-opacity:1;stroke:#6a0a0a;stroke-width:1.15729;stroke-opacity:1"
       id="rect3"
       width="0.14999999"
       height="53.999996"
       x="-37.567543"
       y="45.521557"
       ry="0"
       transform="matrix(-0.99716713,-0.07521779,-0.07521779,0.99716713,0,0)" /></g></svg>
