<?xml version="1.0" encoding="UTF-8" standalone="no"?>
<!-- Created with Inkscape (http://www.inkscape.org/) -->

<svg
   width="300"
   height="300"
   viewBox="0 0 79.374999 79.374999"
   version="1.1"
   id="svg1"
   inkscape:version="1.4.2 (ebf0e940d0, 2025-05-08)"
   sodipodi:docname="b_woody.svg"
   xml:space="preserve"
   xmlns:inkscape="http://www.inkscape.org/namespaces/inkscape"
   xmlns:sodipodi="http://sodipodi.sourceforge.net/DTD/sodipodi-0.dtd"
   xmlns="http://www.w3.org/2000/svg"
   xmlns:svg="http://www.w3.org/2000/svg"><sodipodi:namedview
     id="namedview1"
     pagecolor="#505050"
     bordercolor="#eeeeee"
     borderopacity="1"
     inkscape:showpageshadow="0"
     inkscape:pageopacity="0"
     inkscape:pagecheckerboard="0"
     inkscape:deskcolor="#505050"
     inkscape:document-units="px"
     inkscape:zoom="0.88194445"
     inkscape:cx="-87.874015"
     inkscape:cy="134.3622"
     inkscape:window-width="1366"
     inkscape:window-height="697"
     inkscape:window-x="0"
     inkscape:window-y="0"
     inkscape:window-maximized="1"
     inkscape:current-layer="layer1" /><defs
     id="defs1"><inkscape:path-effect
       effect="fillet_chamfer"
       id="path-effect68"
       is_visible="true"
       lpeversion="1"
       nodesatellites_param="F,0,0,1,0,0,0,1 @ F,0,0,1,0,0,0,1 @ F,0,0,1,0,0,0,1 @ F,0,0,1,0,0,0,1 @ F,0,0,1,0,0,0,1 @ F,0,0,1,0,0,0,1 @ F,0,0,1,0,0,0,1 @ F,0,0,1,0,0,0,1 @ F,0,0,1,0,0,0,1"
       radius="0"
       unit="px"
       method="auto"
       mode="F"
       chamfer_steps="1"
       flexible="false"
       use_knot_distance="true"
       apply_no_radius="true"
       apply_with_radius="true"
       only_selected="false"
       hide_knots="false" /><inkscape:path-effect
       effect="fillet_chamfer"
       id="path-effect66"
       is_visible="true"
       lpeversion="1"
       nodesatellites_param="F,0,0,1,0,0,0,1 @ F,0,0,1,0,0.44929322,0,1 @ F,0,0,1,0,0.44929322,0,1 @ F,0,0,1,0,0,0,1 @ F,0,0,1,0,0,0,1 @ F,0,0,1,0,0,0,1 @ F,0,0,1,0,0,0,1 @ F,0,0,1,0,0,0,1 @ F,0,0,1,0,0,0,1 @ F,0,0,1,0,0,0,1"
       radius="0"
       unit="px"
       method="auto"
       mode="F"
       chamfer_steps="1"
       flexible="false"
       use_knot_distance="true"
       apply_no_radius="true"
       apply_with_radius="true"
       only_selected="false"
       hide_knots="false" /><inkscape:path-effect
       effect="fillet_chamfer"
       id="path-effect68-7"
       is_visible="true"
       lpeversion="1"
       nodesatellites_param="F,0,0,1,0,0,0,1 @ F,0,0,1,0,0,0,1 @ F,0,0,1,0,0,0,1 @ F,0,0,1,0,0,0,1 @ F,0,0,1,0,0,0,1 @ F,0,0,1,0,0,0,1 @ F,0,0,1,0,0,0,1 @ F,0,0,1,0,0,0,1 @ F,0,0,1,0,0,0,1"
       radius="0"
       unit="px"
       method="auto"
       mode="F"
       chamfer_steps="1"
       flexible="false"
       use_knot_distance="true"
       apply_no_radius="true"
       apply_with_radius="true"
       only_selected="false"
       hide_knots="false" /><inkscape:path-effect
       effect="fillet_chamfer"
       id="path-effect66-5"
       is_visible="true"
       lpeversion="1"
       nodesatellites_param="F,0,0,1,0,0,0,1 @ F,0,0,1,0,0.44929322,0,1 @ F,0,0,1,0,0.44929322,0,1 @ F,0,0,1,0,0,0,1 @ F,0,0,1,0,0,0,1 @ F,0,0,1,0,0,0,1 @ F,0,0,1,0,0,0,1 @ F,0,0,1,0,0,0,1 @ F,0,0,1,0,0,0,1 @ F,0,0,1,0,0,0,1"
       radius="0"
       unit="px"
       method="auto"
       mode="F"
       chamfer_steps="1"
       flexible="false"
       use_knot_distance="true"
       apply_no_radius="true"
       apply_with_radius="true"
       only_selected="false"
       hide_knots="false" /><inkscape:path-effect
       effect="fillet_chamfer"
       id="path-effect68-3"
       is_visible="true"
       lpeversion="1"
       nodesatellites_param="F,0,0,1,0,0,0,1 @ F,0,0,1,0,0,0,1 @ F,0,0,1,0,0,0,1 @ F,0,0,1,0,0,0,1 @ F,0,0,1,0,0,0,1 @ F,0,0,1,0,0,0,1 @ F,0,0,1,0,0,0,1 @ F,0,0,1,0,0,0,1 @ F,0,0,1,0,0,0,1"
       radius="0"
       unit="px"
       method="auto"
       mode="F"
       chamfer_steps="1"
       flexible="false"
       use_knot_distance="true"
       apply_no_radius="true"
       apply_with_radius="true"
       only_selected="false"
       hide_knots="false" /><inkscape:path-effect
       effect="fillet_chamfer"
       id="path-effect66-6"
       is_visible="true"
       lpeversion="1"
       nodesatellites_param="F,0,0,1,0,0,0,1 @ F,0,0,1,0,0.44929322,0,1 @ F,0,0,1,0,0.44929322,0,1 @ F,0,0,1,0,0,0,1 @ F,0,0,1,0,0,0,1 @ F,0,0,1,0,0,0,1 @ F,0,0,1,0,0,0,1 @ F,0,0,1,0,0,0,1 @ F,0,0,1,0,0,0,1 @ F,0,0,1,0,0,0,1"
       radius="0"
       unit="px"
       method="auto"
       mode="F"
       chamfer_steps="1"
       flexible="false"
       use_knot_distance="true"
       apply_no_radius="true"
       apply_with_radius="true"
       only_selected="false"
       hide_knots="false" /><inkscape:path-effect
       effect="fillet_chamfer"
       id="path-effect68-36"
       is_visible="true"
       lpeversion="1"
       nodesatellites_param="F,0,0,1,0,0,0,1 @ F,0,0,1,0,0,0,1 @ F,0,0,1,0,0,0,1 @ F,0,0,1,0,0,0,1 @ F,0,0,1,0,0,0,1 @ F,0,0,1,0,0,0,1 @ F,0,0,1,0,0,0,1 @ F,0,0,1,0,0,0,1 @ F,0,0,1,0,0,0,1"
       radius="0"
       unit="px"
       method="auto"
       mode="F"
       chamfer_steps="1"
       flexible="false"
       use_knot_distance="true"
       apply_no_radius="true"
       apply_with_radius="true"
       only_selected="false"
       hide_knots="false" /><inkscape:path-effect
       effect="fillet_chamfer"
       id="path-effect66-7"
       is_visible="true"
       lpeversion="1"
       nodesatellites_param="F,0,0,1,0,0,0,1 @ F,0,0,1,0,0.44929322,0,1 @ F,0,0,1,0,0.44929322,0,1 @ F,0,0,1,0,0,0,1 @ F,0,0,1,0,0,0,1 @ F,0,0,1,0,0,0,1 @ F,0,0,1,0,0,0,1 @ F,0,0,1,0,0,0,1 @ F,0,0,1,0,0,0,1 @ F,0,0,1,0,0,0,1"
       radius="0"
       unit="px"
       method="auto"
       mode="F"
       chamfer_steps="1"
       flexible="false"
       use_knot_distance="true"
       apply_no_radius="true"
       apply_with_radius="true"
       only_selected="false"
       hide_knots="false" /></defs><g
     inkscape:label="Camada 1"
     inkscape:groupmode="layer"
     id="layer1"><rect
       style="fill:#316a2b;stroke-width:1.15729;fill-opacity:1"
       id="rect1"
       width="80.185905"
       height="80.610168"
       x="-0.42426407"
       y="-0.84852815"
       ry="1.0871766" /><path
       id="path97"
       style="fill:#63412c;stroke:#332117;stroke-width:1.86623;stroke-dasharray:none"
       d="M 10.391478,85.393208 6.9314954,86.07228 14.89355,95.852309 18.046194,93.171878 Z"
       sodipodi:nodetypes="ccccc" /><path
       id="path98"
       style="fill:#63412c;stroke:#332117;stroke-width:1.86623;stroke-dasharray:none"
       d="m 21.981095,102.44666 0.769564,3.51354 -11.950518,-3.56459 1.149067,-4.023152 z"
       sodipodi:nodetypes="ccccc" /><path
       id="rect83"
       style="fill:#c89f00;fill-opacity:1;stroke:#2d2303;stroke-width:1.22067;stroke-dasharray:none;stroke-opacity:1"
       d="m 13.221736,10.692892 0.03511,24.383927 h 6.094129 l -1.390447,-20.26872 54.754915,0.965809 -3.443014,20.937918 7.814748,-0.74293 V 11.598103 c -0.01262,-0.811467 -0.36844,-0.767574 -0.665058,-0.871099 H 19.35098 v -0.02098 z"
       sodipodi:nodetypes="cccccccccccc" /><rect
       style="fill:#c89f00;fill-opacity:1;stroke:#2d2303;stroke-width:2.99747;stroke-dasharray:none;stroke-opacity:1"
       id="rect95"
       width="13.370143"
       height="30.789227"
       x="65.993111"
       y="27.406691"
       ry="5.8499532" /><path
       id="rect96"
       style="fill:#63412c;stroke:#332117;stroke-width:1.86623;stroke-dasharray:none"
       d="m 84.21399,45.605516 3.084805,-1.739393 v 12.722211 h -4.101073 z"
       sodipodi:nodetypes="ccccc" /><path
       id="rect80"
       style="fill:#63412c;fill-opacity:1;stroke:#332117;stroke-width:3.39537;stroke-dasharray:none;stroke-opacity:1"
       d="m 22.371387,15.623812 1.538751,71.843652 C 17.820139,93.238388 10.408755,94.993672 3.2032298,94.671996 -0.01287447,94.528414 -0.64752597,99.789824 0.66436576,102.16061 1.9762584,104.53139 4.8074291,104.56632 7.6996429,103.88 15.480547,102.0336 24.349189,99.597716 31.24724,94.009143 l 4.377958,-4.590582 c 0.01993,6.825402 -7.169863,6.991497 -7.635124,8.938433 -1.162468,4.864446 0.462302,6.707736 3.399131,6.881586 2.936831,0.17385 8.608676,1.17529 10.180816,-1.12035 2.15737,-3.15018 3.251865,-8.297992 3.756115,-12.334481 l 1.017301,1.33431 c 1.634901,2.988349 3.861714,5.856213 6.55735,8.627901 2.022807,2.07988 4.756676,3.82556 8.535383,3.66805 3.7787,-0.15751 10.32568,1.37725 6.390953,-5.07118 C 65.50026,96.529448 58.5537,95.397605 56.393118,92.593892 l 4.095977,0.524167 c 10.602546,3.661123 16.904116,7.867951 23.206758,11.232411 3.061338,1.6342 6.91606,0.64296 8.501244,-1.69847 1.585186,-2.34142 0.197851,-7.927171 -1.70493,-10.760944 -2.942064,-4.381554 -9.055589,-5.356635 -19.335988,-4.081358 L 72.592346,22.018647 45.689795,22.437981 41.835319,34.98242 32.058938,20.55098 Z"
       sodipodi:nodetypes="ccsssccsssccsssccssscccccc" /><rect
       style="fill:#c89f00;fill-opacity:1;stroke:#2d2303;stroke-width:2.83428;stroke-dasharray:none;stroke-opacity:1"
       id="rect81"
       width="11.89024"
       height="30.954197"
       x="9.2863693"
       y="29.630541"
       ry="5.8812981" /><path
       id="path93"
       style="fill:#ffffff;fill-opacity:1;stroke:#20140e;stroke-width:2.31869;stroke-dasharray:none;stroke-opacity:1"
       d="m 53.667396,40.923681 a 8.6822541,15.283647 0 0 0 -0.710148,6.055314 8.6822541,15.283647 0 0 0 8.681578,15.284287 8.6822541,15.283647 0 0 0 8.682641,-15.284287 8.6822541,15.283647 0 0 0 -0.710149,-6.055314 z" /><path
       id="path94"
       style="fill:#20140e;fill-opacity:1;stroke:none;stroke-width:4.12943;stroke-dasharray:none;stroke-opacity:1"
       d="m 60.838028,40.708199 a 4.9925688,7.4128381 0 0 0 -4.993101,7.412854 4.9925688,7.4128381 0 0 0 4.993101,7.412856 4.9925688,7.4128381 0 0 0 4.940142,-6.339353 l -3.523666,-2.635414 2.856079,-2.271601 a 4.9925688,7.4128381 0 0 0 -4.272555,-3.579342 z" /><path
       id="path86"
       style="fill:#63412c;fill-opacity:1;stroke:#332117;stroke-width:4.06409;stroke-dasharray:none;stroke-opacity:1"
       d="m 48.822538,53.667701 c 14.275259,2.49278 26.73656,1.218806 36.481282,-0.518901 3.944259,-0.703352 7.289086,3.01313 7.289086,6.111343 0,3.098213 -3.067417,4.689921 -6.63625,5.592442 -11.489533,2.905584 -23.71285,3.411556 -37.134119,0"
       sodipodi:nodetypes="csssc" /><path
       id="path87"
       style="fill:#ffffff;fill-opacity:1;stroke:#20140e;stroke-width:2.51668;stroke-dasharray:none;stroke-opacity:1"
       d="M 28.946841,40.875506 A 10.325247,15.140288 0 0 0 28.102307,46.874022 10.325247,15.140288 0 0 0 38.426751,62.014944 10.325247,15.140288 0 0 0 48.752456,46.874022 10.325247,15.140288 0 0 0 47.907922,40.875506 Z" /><path
       id="path92"
       style="fill:#20140e;fill-opacity:1;stroke:none;stroke-width:4.32352;stroke-dasharray:none;stroke-opacity:1"
       d="m 37.540922,41.906457 a 5.4728826,7.4128381 0 0 0 -5.473467,7.412854 5.4728826,7.4128381 0 0 0 5.473467,7.412856 5.4728826,7.4128381 0 0 0 5.415412,-6.339353 L 39.093672,47.7574 42.224521,45.485799 a 5.4728826,7.4128381 0 0 0 -4.683599,-3.579342 z" /><path
       id="path95"
       style="fill:#63412c;fill-opacity:1;stroke:#332117;stroke-width:1.58201;stroke-dasharray:none;stroke-opacity:1"
       d="m 61.315811,70.450891 c 5.257458,1.025612 9.846849,0.501457 13.435747,-0.213493 1.452639,-0.289381 2.684509,1.239701 2.684509,2.514408 0,1.274706 -1.129703,1.929588 -2.444074,2.300914 -4.231499,1.195453 -8.733243,1.403627 -13.676182,0"
       sodipodi:nodetypes="csssc" /><path
       id="path96"
       style="fill:#63412c;fill-opacity:1;stroke:#332117;stroke-width:1.58201;stroke-dasharray:none;stroke-opacity:1"
       d="m 61.230828,81.55147 c 5.257457,-1.025612 9.846848,-0.501457 13.435746,0.213493 1.452639,0.289381 2.684509,-1.239701 2.684509,-2.514409 0,-1.274705 -1.283578,-1.457837 -2.597949,-1.829163 -4.231499,-1.195453 -8.425492,-2.189878 -13.368431,-0.786251"
       sodipodi:nodetypes="csssc" /><path
       style="fill:#63412c;fill-opacity:1;stroke:#332117;stroke-width:1.84124;stroke-dasharray:none;stroke-opacity:1"
       d="m 60.054463,22.484863 1.450747,9.784945"
       id="path99" /></g></svg>
