<?xml version="1.0" encoding="UTF-8" standalone="no"?>
<!-- Created with Inkscape (http://www.inkscape.org/) -->

<svg
   width="300"
   height="300"
   viewBox="0 0 79.374999 79.374999"
   version="1.1"
   id="svg1"
   inkscape:version="1.4.2 (ebf0e940d0, 2025-05-08)"
   sodipodi:docname="cap1.svg"
   xml:space="preserve"
   xmlns:inkscape="http://www.inkscape.org/namespaces/inkscape"
   xmlns:sodipodi="http://sodipodi.sourceforge.net/DTD/sodipodi-0.dtd"
   xmlns="http://www.w3.org/2000/svg"
   xmlns:svg="http://www.w3.org/2000/svg"><sodipodi:namedview
     id="namedview1"
     pagecolor="#505050"
     bordercolor="#eeeeee"
     borderopacity="1"
     inkscape:showpageshadow="0"
     inkscape:pageopacity="0"
     inkscape:pagecheckerboard="0"
     inkscape:deskcolor="#505050"
     inkscape:document-units="px"
     inkscape:zoom="0.88194445"
     inkscape:cx="-35.149606"
     inkscape:cy="244.34646"
     inkscape:window-width="1477"
     inkscape:window-height="697"
     inkscape:window-x="0"
     inkscape:window-y="0"
     inkscape:window-maximized="0"
     inkscape:current-layer="layer1" /><defs
     id="defs1"><inkscape:path-effect
       effect="fillet_chamfer"
       id="path-effect68"
       is_visible="true"
       lpeversion="1"
       nodesatellites_param="F,0,0,1,0,0,0,1 @ F,0,0,1,0,0,0,1 @ F,0,0,1,0,0,0,1 @ F,0,0,1,0,0,0,1 @ F,0,0,1,0,0,0,1 @ F,0,0,1,0,0,0,1 @ F,0,0,1,0,0,0,1 @ F,0,0,1,0,0,0,1 @ F,0,0,1,0,0,0,1"
       radius="0"
       unit="px"
       method="auto"
       mode="F"
       chamfer_steps="1"
       flexible="false"
       use_knot_distance="true"
       apply_no_radius="true"
       apply_with_radius="true"
       only_selected="false"
       hide_knots="false" /><inkscape:path-effect
       effect="fillet_chamfer"
       id="path-effect66"
       is_visible="true"
       lpeversion="1"
       nodesatellites_param="F,0,0,1,0,0,0,1 @ F,0,0,1,0,0.44929322,0,1 @ F,0,0,1,0,0.44929322,0,1 @ F,0,0,1,0,0,0,1 @ F,0,0,1,0,0,0,1 @ F,0,0,1,0,0,0,1 @ F,0,0,1,0,0,0,1 @ F,0,0,1,0,0,0,1 @ F,0,0,1,0,0,0,1 @ F,0,0,1,0,0,0,1"
       radius="0"
       unit="px"
       method="auto"
       mode="F"
       chamfer_steps="1"
       flexible="false"
       use_knot_distance="true"
       apply_no_radius="true"
       apply_with_radius="true"
       only_selected="false"
       hide_knots="false" /><inkscape:path-effect
       effect="fillet_chamfer"
       id="path-effect68-7"
       is_visible="true"
       lpeversion="1"
       nodesatellites_param="F,0,0,1,0,0,0,1 @ F,0,0,1,0,0,0,1 @ F,0,0,1,0,0,0,1 @ F,0,0,1,0,0,0,1 @ F,0,0,1,0,0,0,1 @ F,0,0,1,0,0,0,1 @ F,0,0,1,0,0,0,1 @ F,0,0,1,0,0,0,1 @ F,0,0,1,0,0,0,1"
       radius="0"
       unit="px"
       method="auto"
       mode="F"
       chamfer_steps="1"
       flexible="false"
       use_knot_distance="true"
       apply_no_radius="true"
       apply_with_radius="true"
       only_selected="false"
       hide_knots="false" /><inkscape:path-effect
       effect="fillet_chamfer"
       id="path-effect66-5"
       is_visible="true"
       lpeversion="1"
       nodesatellites_param="F,0,0,1,0,0,0,1 @ F,0,0,1,0,0.44929322,0,1 @ F,0,0,1,0,0.44929322,0,1 @ F,0,0,1,0,0,0,1 @ F,0,0,1,0,0,0,1 @ F,0,0,1,0,0,0,1 @ F,0,0,1,0,0,0,1 @ F,0,0,1,0,0,0,1 @ F,0,0,1,0,0,0,1 @ F,0,0,1,0,0,0,1"
       radius="0"
       unit="px"
       method="auto"
       mode="F"
       chamfer_steps="1"
       flexible="false"
       use_knot_distance="true"
       apply_no_radius="true"
       apply_with_radius="true"
       only_selected="false"
       hide_knots="false" /><inkscape:path-effect
       effect="fillet_chamfer"
       id="path-effect68-3"
       is_visible="true"
       lpeversion="1"
       nodesatellites_param="F,0,0,1,0,0,0,1 @ F,0,0,1,0,0,0,1 @ F,0,0,1,0,0,0,1 @ F,0,0,1,0,0,0,1 @ F,0,0,1,0,0,0,1 @ F,0,0,1,0,0,0,1 @ F,0,0,1,0,0,0,1 @ F,0,0,1,0,0,0,1 @ F,0,0,1,0,0,0,1"
       radius="0"
       unit="px"
       method="auto"
       mode="F"
       chamfer_steps="1"
       flexible="false"
       use_knot_distance="true"
       apply_no_radius="true"
       apply_with_radius="true"
       only_selected="false"
       hide_knots="false" /><inkscape:path-effect
       effect="fillet_chamfer"
       id="path-effect66-6"
       is_visible="true"
       lpeversion="1"
       nodesatellites_param="F,0,0,1,0,0,0,1 @ F,0,0,1,0,0.44929322,0,1 @ F,0,0,1,0,0.44929322,0,1 @ F,0,0,1,0,0,0,1 @ F,0,0,1,0,0,0,1 @ F,0,0,1,0,0,0,1 @ F,0,0,1,0,0,0,1 @ F,0,0,1,0,0,0,1 @ F,0,0,1,0,0,0,1 @ F,0,0,1,0,0,0,1"
       radius="0"
       unit="px"
       method="auto"
       mode="F"
       chamfer_steps="1"
       flexible="false"
       use_knot_distance="true"
       apply_no_radius="true"
       apply_with_radius="true"
       only_selected="false"
       hide_knots="false" /></defs><g
     inkscape:label="Camada 1"
     inkscape:groupmode="layer"
     id="layer1"><rect
       style="fill:#008cbc;fill-opacity:1;stroke-width:1.18747"
       id="rect1"
       width="81.685905"
       height="83.310165"
       x="-0.72426409"
       y="-0.84852815"
       ry="1.1235911" /><path
       id="path1"
       style="fill:#28b328;fill-opacity:1;stroke:#0b5a04;stroke-width:1.69037;stroke-dasharray:none;stroke-opacity:1"
       d="m 71.388604,44.726801 a 36.675746,25.935328 0 0 0 -25.055631,6.99496 42.318171,25.935328 0 0 0 -17.697072,-2.37651 42.318171,25.935328 0 0 0 -29.47224229,7.32367 V 85.416815 H 81.889739 V 45.812932 A 36.675746,25.935328 0 0 0 71.388604,44.726801 Z" /><path
       id="path2"
       style="fill:#1a6c14;fill-opacity:1;stroke:none;stroke-width:1.53348;stroke-dasharray:none;stroke-opacity:1"
       d="M 71.446921,52.071739 A 36.745049,21.30394 0 0 0 46.343945,57.817577 42.398136,21.30394 0 0 0 28.613431,55.865452 42.398136,21.30394 0 0 0 -0.91450165,61.881301 V 85.495554 H 81.9679 V 52.963914 A 36.745049,21.30394 0 0 0 71.446921,52.071739 Z" /><g
       id="g26"
       transform="matrix(1.0126932,0,0,1.0951702,-2.1615337,-1.0656357)"><path
         id="path5"
         style="fill:#ffffff;fill-opacity:1;stroke:#00445a;stroke-width:0.876069;stroke-dasharray:none;stroke-opacity:1"
         d="m 65.59171,2.5257695 a 5.9539576,4.931901 0 0 0 -5.953641,4.9319988 5.9539576,4.931901 0 0 0 0,0.01757 5.9539576,4.931901 0 0 0 -4.499984,4.7826537 5.9539576,4.931901 0 0 0 5.953642,4.931481 5.9539576,4.931901 0 0 0 4.159436,-1.403015 5.9539576,4.931901 0 0 0 1.690853,0.203089 5.9539576,4.931901 0 0 0 0.962215,-0.0646 5.9539576,4.931901 0 0 0 4.512903,1.714624 5.9539576,4.931901 0 0 0 4.330484,-1.547192 5.9539576,4.931901 0 0 0 2.194182,0.347265 5.9539576,4.931901 0 0 0 5.954158,-4.931998 A 5.9539576,4.931901 0 0 0 78.9418,6.5756473 5.9539576,4.931901 0 0 0 78.60952,6.5833973 5.9539576,4.931901 0 0 0 73.166959,3.6507654 5.9539576,4.931901 0 0 0 70.181094,4.3158411 5.9539576,4.931901 0 0 0 65.59171,2.5257695 Z" /><path
         id="path6"
         style="fill:#008cbc;fill-opacity:1;stroke-width:1.15729"
         d="m 56.521044,11.653467 a 4.6499996,3.2437501 0 0 0 -0.346232,1.227832 4.6499996,3.2437501 0 0 0 4.650362,3.243729 4.6499996,3.2437501 0 0 0 4.104659,-1.719791 4.9687495,3.2437501 0 0 1 -3.486092,0.932242 4.9687495,3.2437501 0 0 1 -4.968689,-3.243729 4.9687495,3.2437501 0 0 1 0.04599,-0.440283 z" /><path
         id="path24"
         style="fill:#008cbc;fill-opacity:1;stroke-width:1.07239"
         d="m 68.745989,12.941156 a 3.2437501,3.992734 77.529756 0 0 -0.02515,1.263061 3.2437501,3.992734 77.529756 0 0 4.599269,2.304975 3.2437501,3.992734 77.529756 0 0 3.069968,-2.440267 3.2437501,4.2664294 77.529756 0 1 -2.721422,1.556609 3.2437501,4.2664294 77.529756 0 1 -4.866153,-2.245954 3.2437501,4.2664294 77.529756 0 1 -0.05651,-0.438424 z" /><path
         id="path25"
         style="fill:#008cbc;fill-opacity:1;stroke-width:0.432082"
         d="m 65.218509,13.846228 a 1.6135471,1.3030545 1.06855 0 0 0.08042,0.499026 1.6135471,1.3030545 1.06855 0 0 2.043077,0.833997 1.6135471,1.3030545 1.06855 0 0 1.078037,-1.014004 1.3104819,1.7143813 86.667898 0 1 -0.9992,0.659415 1.3104819,1.7143813 86.667898 0 1 -2.14779,-0.806293 1.3104819,1.7143813 86.667898 0 1 -0.05456,-0.17214 z" /><path
         id="path26"
         style="fill:#008cbc;fill-opacity:1;stroke-width:1.15468"
         d="m 76.469476,13.36501 a 3.7501567,4.0038985 63.561008 0 0 0.890193,1.144855 3.7501567,4.0038985 63.561008 0 0 5.590416,-0.451462 3.7501567,4.0038985 63.561008 0 0 0.859637,-3.864431 3.7679259,4.2581831 52.584943 0 1 -1.199886,2.882464 3.7679259,4.2581831 52.584943 0 1 -5.775672,0.650288 3.7679259,4.2581831 52.584943 0 1 -0.364722,-0.361691 z" /></g><g
       id="g37"
       transform="matrix(0.63774128,0,0,0.76555479,-18.122791,0.66677755)"><path
         id="path33"
         style="fill:#ffffff;fill-opacity:1;stroke:#00445a;stroke-width:0.876069;stroke-dasharray:none;stroke-opacity:1"
         d="m 65.59171,2.5257695 a 5.9539576,4.931901 0 0 0 -5.953641,4.9319988 5.9539576,4.931901 0 0 0 0,0.01757 5.9539576,4.931901 0 0 0 -4.499984,4.7826537 5.9539576,4.931901 0 0 0 5.953642,4.931481 5.9539576,4.931901 0 0 0 4.159436,-1.403015 5.9539576,4.931901 0 0 0 1.690853,0.203089 5.9539576,4.931901 0 0 0 0.962215,-0.0646 5.9539576,4.931901 0 0 0 4.512903,1.714624 5.9539576,4.931901 0 0 0 4.330484,-1.547192 5.9539576,4.931901 0 0 0 2.194182,0.347265 5.9539576,4.931901 0 0 0 5.954158,-4.931998 A 5.9539576,4.931901 0 0 0 78.9418,6.5756473 5.9539576,4.931901 0 0 0 78.60952,6.5833973 5.9539576,4.931901 0 0 0 73.166959,3.6507654 5.9539576,4.931901 0 0 0 70.181094,4.3158411 5.9539576,4.931901 0 0 0 65.59171,2.5257695 Z" /><path
         id="path34"
         style="fill:#008cbc;fill-opacity:1;stroke-width:1.15729"
         d="m 56.521044,11.653467 a 4.6499996,3.2437501 0 0 0 -0.346232,1.227832 4.6499996,3.2437501 0 0 0 4.650362,3.243729 4.6499996,3.2437501 0 0 0 4.104659,-1.719791 4.9687495,3.2437501 0 0 1 -3.486092,0.932242 4.9687495,3.2437501 0 0 1 -4.968689,-3.243729 4.9687495,3.2437501 0 0 1 0.04599,-0.440283 z" /><path
         id="path35"
         style="fill:#008cbc;fill-opacity:1;stroke-width:1.07239"
         d="m 68.745989,12.941156 a 3.2437501,3.992734 77.529756 0 0 -0.02515,1.263061 3.2437501,3.992734 77.529756 0 0 4.599269,2.304975 3.2437501,3.992734 77.529756 0 0 3.069968,-2.440267 3.2437501,4.2664294 77.529756 0 1 -2.721422,1.556609 3.2437501,4.2664294 77.529756 0 1 -4.866153,-2.245954 3.2437501,4.2664294 77.529756 0 1 -0.05651,-0.438424 z" /><path
         id="path36"
         style="fill:#008cbc;fill-opacity:1;stroke-width:0.432082"
         d="m 65.218509,13.846228 a 1.6135471,1.3030545 1.06855 0 0 0.08042,0.499026 1.6135471,1.3030545 1.06855 0 0 2.043077,0.833997 1.6135471,1.3030545 1.06855 0 0 1.078037,-1.014004 1.3104819,1.7143813 86.667898 0 1 -0.9992,0.659415 1.3104819,1.7143813 86.667898 0 1 -2.14779,-0.806293 1.3104819,1.7143813 86.667898 0 1 -0.05456,-0.17214 z" /><path
         id="path37"
         style="fill:#008cbc;fill-opacity:1;stroke-width:1.15468"
         d="m 76.469476,13.36501 a 3.7501567,4.0038985 63.561008 0 0 0.890193,1.144855 3.7501567,4.0038985 63.561008 0 0 5.590416,-0.451462 3.7501567,4.0038985 63.561008 0 0 0.859637,-3.864431 3.7679259,4.2581831 52.584943 0 1 -1.199886,2.882464 3.7679259,4.2581831 52.584943 0 1 -5.775672,0.650288 3.7679259,4.2581831 52.584943 0 1 -0.364722,-0.361691 z" /></g><g
       id="g32"
       transform="matrix(1.0126932,0,0,1.0951702,-61.134238,2.1163448)"><path
         id="path28"
         style="fill:#ffffff;fill-opacity:1;stroke:#00445a;stroke-width:0.876069;stroke-dasharray:none;stroke-opacity:1"
         d="m 65.59171,2.5257695 a 5.9539576,4.931901 0 0 0 -5.953641,4.9319988 5.9539576,4.931901 0 0 0 0,0.01757 5.9539576,4.931901 0 0 0 -4.499984,4.7826537 5.9539576,4.931901 0 0 0 5.953642,4.931481 5.9539576,4.931901 0 0 0 4.159436,-1.403015 5.9539576,4.931901 0 0 0 1.690853,0.203089 5.9539576,4.931901 0 0 0 0.962215,-0.0646 5.9539576,4.931901 0 0 0 4.512903,1.714624 5.9539576,4.931901 0 0 0 4.330484,-1.547192 5.9539576,4.931901 0 0 0 2.194182,0.347265 5.9539576,4.931901 0 0 0 5.954158,-4.931998 A 5.9539576,4.931901 0 0 0 78.9418,6.5756473 5.9539576,4.931901 0 0 0 78.60952,6.5833973 5.9539576,4.931901 0 0 0 73.166959,3.6507654 5.9539576,4.931901 0 0 0 70.181094,4.3158411 5.9539576,4.931901 0 0 0 65.59171,2.5257695 Z" /><path
         id="path29"
         style="fill:#008cbc;fill-opacity:1;stroke-width:1.15729"
         d="m 56.521044,11.653467 a 4.6499996,3.2437501 0 0 0 -0.346232,1.227832 4.6499996,3.2437501 0 0 0 4.650362,3.243729 4.6499996,3.2437501 0 0 0 4.104659,-1.719791 4.9687495,3.2437501 0 0 1 -3.486092,0.932242 4.9687495,3.2437501 0 0 1 -4.968689,-3.243729 4.9687495,3.2437501 0 0 1 0.04599,-0.440283 z" /><path
         id="path30"
         style="fill:#008cbc;fill-opacity:1;stroke-width:1.07239"
         d="m 68.745989,12.941156 a 3.2437501,3.992734 77.529756 0 0 -0.02515,1.263061 3.2437501,3.992734 77.529756 0 0 4.599269,2.304975 3.2437501,3.992734 77.529756 0 0 3.069968,-2.440267 3.2437501,4.2664294 77.529756 0 1 -2.721422,1.556609 3.2437501,4.2664294 77.529756 0 1 -4.866153,-2.245954 3.2437501,4.2664294 77.529756 0 1 -0.05651,-0.438424 z" /><path
         id="path31"
         style="fill:#008cbc;fill-opacity:1;stroke-width:0.432082"
         d="m 65.218509,13.846228 a 1.6135471,1.3030545 1.06855 0 0 0.08042,0.499026 1.6135471,1.3030545 1.06855 0 0 2.043077,0.833997 1.6135471,1.3030545 1.06855 0 0 1.078037,-1.014004 1.3104819,1.7143813 86.667898 0 1 -0.9992,0.659415 1.3104819,1.7143813 86.667898 0 1 -2.14779,-0.806293 1.3104819,1.7143813 86.667898 0 1 -0.05456,-0.17214 z" /><path
         id="path32"
         style="fill:#008cbc;fill-opacity:1;stroke-width:1.15468"
         d="m 76.469476,13.36501 a 3.7501567,4.0038985 63.561008 0 0 0.890193,1.144855 3.7501567,4.0038985 63.561008 0 0 5.590416,-0.451462 3.7501567,4.0038985 63.561008 0 0 0.859637,-3.864431 3.7679259,4.2581831 52.584943 0 1 -1.199886,2.882464 3.7679259,4.2581831 52.584943 0 1 -5.775672,0.650288 3.7679259,4.2581831 52.584943 0 1 -0.364722,-0.361691 z" /></g><ellipse
       style="fill:#ffffff;fill-opacity:1;stroke:#4e4a47;stroke-width:1.52628;stroke-dasharray:none;stroke-opacity:1"
       id="path4"
       cx="50.313511"
       cy="56.479271"
       rx="12.735921"
       ry="8.3872156" /><ellipse
       style="fill:#a5a09b;fill-opacity:1;stroke:none;stroke-width:1.15729;stroke-opacity:1"
       id="ellipse47"
       cx="-66.762047"
       cy="-30.509657"
       rx="3.8714094"
       ry="8.8034792"
       transform="matrix(-0.29373753,-0.95588611,-0.95588611,0.29373753,0,0)" /><ellipse
       style="fill:#ffffff;fill-opacity:1;stroke:#4e4a47;stroke-width:1.52628;stroke-dasharray:none;stroke-opacity:1"
       id="ellipse4"
       cx="73.648033"
       cy="55.853535"
       rx="12.735921"
       ry="8.3872156" /><ellipse
       style="fill:#a5a09b;fill-opacity:1;stroke:none;stroke-width:1.15729;stroke-opacity:1"
       id="ellipse48"
       cx="-29.692051"
       cy="88.081566"
       rx="3.8714094"
       ry="8.8034792"
       transform="rotate(-72.91815)" /><ellipse
       style="fill:#ffffff;fill-opacity:1;stroke:#4e4a47;stroke-width:1.52628;stroke-dasharray:none;stroke-opacity:1"
       id="ellipse9"
       cx="-2.1875157"
       cy="82.644516"
       rx="12.735921"
       ry="8.3872156"
       transform="rotate(-40.736962)" /><ellipse
       style="fill:#ffffff;fill-opacity:1;stroke:#4e4a47;stroke-width:1.58749998;stroke-dasharray:none;stroke-opacity:1"
       id="ellipse8"
       cx="-93.87159"
       cy="3.0189722"
       rx="12.735921"
       ry="8.3872156"
       transform="matrix(-0.7577135,-0.65258735,-0.65258735,0.7577135,0,0)" /><ellipse
       style="fill:#ffffff;fill-opacity:1;stroke:#4e4a47;stroke-width:1.52628;stroke-dasharray:none;stroke-opacity:1"
       id="ellipse5"
       cx="25.865868"
       cy="80.872444"
       rx="12.735921"
       ry="8.3872156"
       transform="rotate(-40.736962)" /><ellipse
       style="fill:#a5a09b;fill-opacity:1;stroke:none;stroke-width:1.15729;stroke-opacity:1"
       id="ellipse44"
       cx="-85.860825"
       cy="-17.337559"
       rx="3.8714094"
       ry="8.8034792"
       transform="matrix(-0.73292241,-0.68031223,-0.68031223,0.73292241,0,0)" /><ellipse
       style="fill:#ffffff;fill-opacity:1;stroke:#4e4a47;stroke-width:1.52628;stroke-dasharray:none;stroke-opacity:1"
       id="ellipse6"
       cx="-69.591209"
       cy="0.57091314"
       rx="12.735921"
       ry="8.3872156"
       transform="matrix(-0.7577135,-0.65258735,-0.65258735,0.7577135,0,0)" /><ellipse
       style="fill:#ffffff;fill-opacity:1;stroke:#4e4a47;stroke-width:1.52628;stroke-dasharray:none;stroke-opacity:1"
       id="ellipse7"
       cx="-40.927998"
       cy="-63.298016"
       rx="12.735921"
       ry="8.3872156"
       transform="matrix(0.02146216,-0.99976966,-0.99976966,-0.02146216,0,0)" /><ellipse
       style="fill:#a5a09b;fill-opacity:1;stroke:none;stroke-width:1.15729;stroke-opacity:1"
       id="path42"
       cx="66.131744"
       cy="28.914024"
       rx="3.8714094"
       ry="8.8034792"
       transform="rotate(10.331103)" /><path
       id="rect22"
       style="fill:#33d233;fill-opacity:1;stroke:#042401;stroke-width:1.58749998;stroke-opacity:1;stroke-dasharray:none"
       d="m 58.502609,61.117084 h 6.797917 c -2.208143,0.560745 -4.470757,0.908036 0,27.640872 h -6.797917 c 0.601689,-7.363664 4.110195,-5.789993 0,-27.640872 z"
       sodipodi:nodetypes="ccccc" /><ellipse
       style="fill:#a5a09b;fill-opacity:1;stroke:none;stroke-width:1.15729;stroke-opacity:1"
       id="ellipse43"
       cx="4.0812082"
       cy="68.399574"
       rx="3.8714094"
       ry="8.8034792"
       transform="rotate(-42.868047)" /><ellipse
       style="fill:#a5a09b;fill-opacity:1;stroke:none;stroke-width:1.62283672;stroke-opacity:1;stroke-dasharray:none"
       id="ellipse45"
       cx="-86.552887"
       cy="23.369167"
       rx="5.1976495"
       ry="11.566235"
       transform="matrix(-0.82391848,-0.56670834,-0.7815104,0.62389222,0,0)" /><ellipse
       style="fill:#a5a09b;fill-opacity:1;stroke:none;stroke-width:1.40101;stroke-opacity:1"
       id="ellipse46"
       cx="0.29766318"
       cy="93.810127"
       rx="4.7151861"
       ry="10.593077"
       transform="matrix(0.78564041,-0.61868339,0.73813546,0.67465253,0,0)" /><ellipse
       style="fill:#f4e714;fill-opacity:1;stroke:#954800;stroke-width:2.04697;stroke-dasharray:none;stroke-opacity:1"
       id="path3"
       cx="61.66523"
       cy="54.538368"
       rx="12.700122"
       ry="13.052697" /><g
       id="g38"
       transform="matrix(0.95341989,0,0,0.87866971,103.68142,14.819091)"
       style="stroke:#512800;stroke-opacity:1"><path
         id="path13"
         style="fill:#ffffff;fill-opacity:1;stroke:#512800;stroke-width:0.952078;stroke-dasharray:none;stroke-opacity:1"
         d="m -32.587252,48.445794 a 14.496517,9.0564575 0 0 1 -11.712736,3.720331 14.496517,9.0564575 0 0 1 -11.249301,-3.344147 11.54949,11.132549 0 0 0 11.459951,9.75017 11.54949,11.132549 0 0 0 11.502086,-10.126354 z" /><path
         style="fill:#ffffff;fill-opacity:1;stroke:#512800;stroke-width:0.881062;stroke-dasharray:none;stroke-opacity:1"
         d="m -44.456476,52.088191 0.106066,6.310929"
         id="path14" /><path
         style="fill:#ffffff;fill-opacity:1;stroke:#512800;stroke-width:0.881062;stroke-dasharray:none;stroke-opacity:1"
         d="m -41.493976,51.825691 0.106066,6.310929"
         id="path15" /><path
         style="fill:#ffffff;fill-opacity:1;stroke:#512800;stroke-width:0.881062;stroke-dasharray:none;stroke-opacity:1"
         d="m -47.381476,51.713191 0.106066,6.310929"
         id="path16" /><path
         style="fill:#ffffff;fill-opacity:1;stroke:#512800;stroke-width:0.850745;stroke-dasharray:none;stroke-opacity:1"
         d="m -49.744215,51.189795 0.106544,5.857721"
         id="path17" /><path
         style="fill:#ffffff;fill-opacity:1;stroke:#512800;stroke-width:0.75733;stroke-dasharray:none;stroke-opacity:1"
         d="m -52.220012,50.594375 0.108138,4.573561"
         id="path18" /><path
         style="fill:#ffffff;fill-opacity:1;stroke:#512800;stroke-width:0.66979;stroke-dasharray:none;stroke-opacity:1"
         d="m -53.645984,49.886556 0.110082,3.514199"
         id="path19" /><path
         style="fill:#ffffff;fill-opacity:1;stroke:#512800;stroke-width:0.732455;stroke-dasharray:none;stroke-opacity:1"
         d="m -35.082561,49.923221 0.108236,4.274203"
         id="path20" /><path
         style="fill:#ffffff;fill-opacity:1;stroke:#512800;stroke-width:0.75733;stroke-dasharray:none;stroke-opacity:1"
         d="m -36.732512,51.011042 0.108138,4.573561"
         id="path21" /><path
         style="fill:#ffffff;fill-opacity:1;stroke:#512800;stroke-width:0.850745;stroke-dasharray:none;stroke-opacity:1"
         d="m -38.794215,51.456462 0.106544,5.857721"
         id="path22" /></g><path
       id="path9"
       style="fill:#ffffff;stroke:#512800;stroke-width:1.19881;stroke-opacity:1"
       d="m 49.570417,45.894896 c -0.596085,0.789042 -1.027963,1.699341 -1.265697,2.6678 -0.905687,3.688806 1.544483,6.18428 4.994773,7.000252 3.450496,0.816315 6.594731,-0.356364 7.500355,-4.045497 0.237781,-0.968447 0.275735,-1.971898 0.11123,-2.940798 z"
       sodipodi:nodetypes="cccccc" /><path
       id="path38"
       style="fill:#ffffff;stroke:#512800;stroke-width:1.23829;stroke-opacity:1"
       d="m 62.470862,48.37675 a 7.3387262,6.4187226 81.259478 0 0 0.137042,3.146229 7.3387262,6.4187226 81.259478 0 0 7.908666,5.494703 7.3387262,6.4187226 81.259478 0 0 4.521199,-8.771802 7.3387262,6.4187226 81.259478 0 0 -1.285473,-2.843449 z" /><ellipse
       style="fill:#000000;fill-opacity:1;stroke:none;stroke-width:1.76137;stroke-opacity:1"
       id="path39"
       cx="54.962059"
       cy="52.192783"
       rx="2.6705737"
       ry="3.0365415" /><ellipse
       style="fill:#ffffff;fill-opacity:1;stroke:none;stroke-width:1.08686;stroke-opacity:1"
       id="ellipse39"
       cx="53.755569"
       cy="50.129433"
       rx="1.7233189"
       ry="1.7916782" /><ellipse
       style="fill:#000000;fill-opacity:1;stroke:none;stroke-width:2.20073;stroke-opacity:1"
       id="ellipse41"
       cx="69.595558"
       cy="52.78162"
       rx="3.3301077"
       ry="3.8014884" /><ellipse
       style="fill:#ffffff;fill-opacity:1;stroke:none;stroke-width:1.3256;stroke-opacity:1"
       id="ellipse42"
       cx="68.04435"
       cy="50.014599"
       rx="2.1489158"
       ry="2.1374407" /><ellipse
       style="fill:#ffffff;fill-opacity:1;stroke:#4e4a47;stroke-width:0.825408;stroke-dasharray:none;stroke-opacity:1"
       id="ellipse49"
       cx="-24.146421"
       cy="46.183643"
       rx="6.7355022"
       ry="4.6381726"
       transform="scale(-1,1)" /><ellipse
       style="fill:#a5a09b;fill-opacity:1;stroke:none;stroke-width:0.625957;stroke-opacity:1"
       id="ellipse50"
       cx="-35.489651"
       cy="36.727676"
       rx="2.1330049"
       ry="4.6745186"
       transform="matrix(0.28195274,-0.95942829,0.95205764,0.30591869,0,0)" /><ellipse
       style="fill:#ffffff;fill-opacity:1;stroke:#4e4a47;stroke-width:0.825408;stroke-dasharray:none;stroke-opacity:1"
       id="ellipse51"
       cx="-11.805755"
       cy="45.837608"
       rx="6.7355022"
       ry="4.6381726"
       transform="scale(-1,1)" /><ellipse
       style="fill:#a5a09b;fill-opacity:1;stroke:none;stroke-width:0.625957;stroke-opacity:1"
       id="ellipse52"
       cx="-46.129108"
       cy="2.2753842"
       rx="2.1330049"
       ry="4.6745186"
       transform="matrix(-0.28195274,-0.95942829,-0.95205764,0.30591871,0,0)" /><ellipse
       style="fill:#ffffff;fill-opacity:1;stroke:#4e4a47;stroke-width:0.82581;stroke-dasharray:none;stroke-opacity:1"
       id="ellipse54"
       cx="-20.921392"
       cy="46.757603"
       rx="6.8681521"
       ry="4.5530267"
       transform="matrix(0.74307918,-0.6692035,0.63576396,0.77188353,0,0)" /><ellipse
       style="fill:#a5a09b;fill-opacity:1;stroke:none;stroke-width:0.755292;stroke-opacity:1"
       id="ellipse62"
       cx="-46.043308"
       cy="29.785536"
       rx="2.5378506"
       ry="5.7200809"
       transform="matrix(-0.77196254,-0.63566802,-0.722929,0.69092232,0,0)" /><ellipse
       style="fill:#ffffff;fill-opacity:1;stroke:#4e4a47;stroke-width:0.82581;stroke-dasharray:none;stroke-opacity:1"
       id="ellipse53"
       cx="-49.909077"
       cy="21.985294"
       rx="6.8681521"
       ry="4.5530267"
       transform="matrix(-0.74307918,-0.6692035,-0.63576396,0.77188353,0,0)" /><path
       id="path77"
       style="fill:#33d233;stroke:#042401;stroke-width:1.15729"
       transform="rotate(24.799514)"
       d="m 40.120034,45.448521 c 1.480967,0.825119 -0.540923,0.404129 -6.825996,3.31384 -3.375554,1.562732 -6.644387,-1.410034 -6.644388,-3.31384 -1e-6,-1.903806 3.015448,-3.447146 6.735192,-3.447146 3.719744,0 5.072092,2.520552 6.735192,3.447146 z"
       sodipodi:nodetypes="sssss" /><ellipse
       style="fill:#ffffff;fill-opacity:1;stroke:#4e4a47;stroke-width:0.82581;stroke-dasharray:none;stroke-opacity:1"
       id="ellipse55"
       cx="-34.780613"
       cy="21.023319"
       rx="6.8681521"
       ry="4.5530267"
       transform="matrix(-0.74307918,-0.6692035,-0.63576396,0.77188353,0,0)" /><ellipse
       style="fill:#a5a09b;fill-opacity:1;stroke:none;stroke-width:0.626169;stroke-opacity:1"
       id="ellipse56"
       cx="-18.318985"
       cy="36.727276"
       rx="2.091213"
       ry="4.7711625"
       transform="matrix(0.71757689,-0.6964793,0.66386236,0.74785477,0,0)" /><ellipse
       style="fill:#ffffff;fill-opacity:1;stroke:#4e4a47;stroke-width:0.82581;stroke-dasharray:none;stroke-opacity:1"
       id="ellipse57"
       cx="-7.8276129"
       cy="45.428665"
       rx="6.8681521"
       ry="4.5530267"
       transform="matrix(0.74307918,-0.6692035,0.63576396,0.77188353,0,0)" /><ellipse
       style="fill:#ffffff;fill-opacity:1;stroke:#4e4a47;stroke-width:0.825409;stroke-dasharray:none;stroke-opacity:1"
       id="ellipse58"
       cx="-38.718555"
       cy="16.961271"
       rx="7.0428901"
       ry="4.4357471"
       transform="matrix(-0.02052544,-0.99978933,0.99974816,-0.02244158,0,0)" /><ellipse
       style="fill:#a5a09b;fill-opacity:1;stroke:none;stroke-width:0.625898;stroke-opacity:1"
       id="ellipse59"
       cx="-12.412495"
       cy="40.160091"
       rx="2.0505011"
       ry="4.8616767"
       transform="matrix(-0.98231356,0.18724334,0.17174182,0.98514199,0,0)" /><path
       id="path59"
       style="fill:#33d233;fill-opacity:1;stroke:#042401;stroke-width:0.87550629;stroke-opacity:1;stroke-dasharray:none"
       d="m 19.815545,48.748377 h -3.595137 c 1.167796,0.310095 2.364399,0.502149 0,15.285543 h 3.595137 c -0.318208,-4.072144 -2.173712,-3.201896 0,-15.285543 z"
       sodipodi:nodetypes="ccccc" /><ellipse
       style="fill:#a5a09b;fill-opacity:1;stroke:none;stroke-width:0.626169;stroke-opacity:1"
       id="ellipse60"
       cx="-45.725368"
       cy="12.423736"
       rx="2.091213"
       ry="4.7711625"
       transform="matrix(-0.71757689,-0.6964793,-0.66386237,0.74785476,0,0)" /><ellipse
       style="fill:#a5a09b;fill-opacity:1;stroke:none;stroke-width:0.826238;stroke-opacity:1"
       id="ellipse61"
       cx="-24.722378"
       cy="55.71331"
       rx="2.7897444"
       ry="6.2271008"
       transform="matrix(0.81183252,-0.58389036,0.76768043,0.64083286,0,0)" /><ellipse
       style="fill:#f4e714;fill-opacity:1;stroke:#954800;stroke-width:1.107;stroke-dasharray:none;stroke-opacity:1"
       id="ellipse63"
       cx="-18.142967"
       cy="45.110313"
       rx="6.7165694"
       ry="7.2182078"
       transform="scale(-1,1)" /><g
       id="g72"
       transform="matrix(-0.50422437,0,0,0.4859088,-4.0776609,23.145352)"
       style="stroke:#512800;stroke-opacity:1"><path
         id="path63"
         style="fill:#ffffff;fill-opacity:1;stroke:#512800;stroke-width:0.952078;stroke-dasharray:none;stroke-opacity:1"
         d="m -32.587252,48.445794 a 14.496517,9.0564575 0 0 1 -11.712736,3.720331 14.496517,9.0564575 0 0 1 -11.249301,-3.344147 11.54949,11.132549 0 0 0 11.459951,9.75017 11.54949,11.132549 0 0 0 11.502086,-10.126354 z" /><path
         style="fill:#ffffff;fill-opacity:1;stroke:#512800;stroke-width:0.881062;stroke-dasharray:none;stroke-opacity:1"
         d="m -44.456476,52.088191 0.106066,6.310929"
         id="path64" /><path
         style="fill:#ffffff;fill-opacity:1;stroke:#512800;stroke-width:0.881062;stroke-dasharray:none;stroke-opacity:1"
         d="m -41.493976,51.825691 0.106066,6.310929"
         id="path65" /><path
         style="fill:#ffffff;fill-opacity:1;stroke:#512800;stroke-width:0.881062;stroke-dasharray:none;stroke-opacity:1"
         d="m -47.381476,51.713191 0.106066,6.310929"
         id="path66" /><path
         style="fill:#ffffff;fill-opacity:1;stroke:#512800;stroke-width:0.850745;stroke-dasharray:none;stroke-opacity:1"
         d="m -49.744215,51.189795 0.106544,5.857721"
         id="path67" /><path
         style="fill:#ffffff;fill-opacity:1;stroke:#512800;stroke-width:0.75733;stroke-dasharray:none;stroke-opacity:1"
         d="m -52.220012,50.594375 0.108138,4.573561"
         id="path68" /><path
         style="fill:#ffffff;fill-opacity:1;stroke:#512800;stroke-width:0.66979;stroke-dasharray:none;stroke-opacity:1"
         d="m -53.645984,49.886556 0.110082,3.514199"
         id="path69" /><path
         style="fill:#ffffff;fill-opacity:1;stroke:#512800;stroke-width:0.732455;stroke-dasharray:none;stroke-opacity:1"
         d="m -35.082561,49.923221 0.108236,4.274203"
         id="path70" /><path
         style="fill:#ffffff;fill-opacity:1;stroke:#512800;stroke-width:0.75733;stroke-dasharray:none;stroke-opacity:1"
         d="m -36.732512,51.011042 0.108138,4.573561"
         id="path71" /><path
         style="fill:#ffffff;fill-opacity:1;stroke:#512800;stroke-width:0.850745;stroke-dasharray:none;stroke-opacity:1"
         d="m -38.794215,51.456462 0.106544,5.857721"
         id="path72" /></g><path
       id="path73"
       style="fill:#ffffff;stroke:#512800;stroke-width:0.610626;stroke-opacity:1"
       d="m 23.800544,40.31123 c 0.2777,0.439424 0.4789,0.946377 0.589653,1.485721 0.421934,2.054327 -0.719531,3.444078 -2.326924,3.8985 -1.607488,0.454613 -3.072299,-0.198462 -3.494203,-2.252972 -0.110776,-0.539337 -0.128458,-1.098167 -0.05182,-1.637756 z"
       sodipodi:nodetypes="cccccc" /><path
       id="path74"
       style="fill:#ffffff;stroke:#512800;stroke-width:0.669664;stroke-opacity:1"
       d="m 17.7169,41.702908 a 3.3972292,4.0552084 6.553274 0 1 -0.07248,1.73988 3.3972292,4.0552084 6.553274 0 1 -4.182566,3.038599 3.3972292,4.0552084 6.553274 0 1 -2.391075,-4.850851 3.3972292,4.0552084 6.553274 0 1 0.679833,-1.572442 z" /><ellipse
       style="fill:#000000;fill-opacity:1;stroke:none;stroke-width:0.952544;stroke-opacity:1"
       id="ellipse74"
       cx="-22.271358"
       cy="43.229828"
       rx="1.412356"
       ry="1.6792228"
       transform="scale(-1,1)" /><ellipse
       style="fill:#ffffff;fill-opacity:1;stroke:none;stroke-width:0.587771;stroke-opacity:1"
       id="ellipse75"
       cx="-22.909422"
       cy="42.300919"
       rx="0.91139215"
       ry="0.99080712"
       transform="scale(-1,1)" /><ellipse
       style="fill:#000000;fill-opacity:1;stroke:none;stroke-width:1.19015;stroke-opacity:1"
       id="ellipse76"
       cx="-14.797471"
       cy="43.873661"
       rx="1.7611563"
       ry="2.1022425"
       transform="scale(-1,1)" /><ellipse
       style="fill:#ffffff;fill-opacity:1;stroke:none;stroke-width:0.716881;stroke-opacity:1"
       id="ellipse77"
       cx="-15.776941"
       cy="42.979877"
       rx="1.1364727"
       ry="1.1820155"
       transform="scale(-1,1)" /><path
       style="fill:#33d233;fill-opacity:1;stroke:#042401;stroke-width:0.875506;stroke-dasharray:none;stroke-opacity:1"
       d="m 7.2124889,53.801986 c 4.3992831,0.09197 7.2295331,1.909886 9.5194251,4.322191"
       id="path78"
       sodipodi:nodetypes="cc" /></g></svg>
