<?xml version="1.0" encoding="UTF-8" standalone="no"?>
<!-- Created with Inkscape (http://www.inkscape.org/) -->

<svg
   width="300"
   height="300"
   viewBox="0 0 79.374999 79.374999"
   version="1.1"
   id="svg1"
   inkscape:version="1.4.2 (ebf0e940d0, 2025-05-08)"
   sodipodi:docname="cap2.svg"
   xml:space="preserve"
   xmlns:inkscape="http://www.inkscape.org/namespaces/inkscape"
   xmlns:sodipodi="http://sodipodi.sourceforge.net/DTD/sodipodi-0.dtd"
   xmlns="http://www.w3.org/2000/svg"
   xmlns:svg="http://www.w3.org/2000/svg"><sodipodi:namedview
     id="namedview1"
     pagecolor="#505050"
     bordercolor="#eeeeee"
     borderopacity="1"
     inkscape:showpageshadow="0"
     inkscape:pageopacity="0"
     inkscape:pagecheckerboard="0"
     inkscape:deskcolor="#505050"
     inkscape:document-units="px"
     inkscape:zoom="1.2472578"
     inkscape:cx="343.55367"
     inkscape:cy="66.946865"
     inkscape:window-width="1366"
     inkscape:window-height="697"
     inkscape:window-x="0"
     inkscape:window-y="0"
     inkscape:window-maximized="1"
     inkscape:current-layer="layer1" /><defs
     id="defs1"><inkscape:path-effect
       effect="fillet_chamfer"
       id="path-effect68"
       is_visible="true"
       lpeversion="1"
       nodesatellites_param="F,0,0,1,0,0,0,1 @ F,0,0,1,0,0,0,1 @ F,0,0,1,0,0,0,1 @ F,0,0,1,0,0,0,1 @ F,0,0,1,0,0,0,1 @ F,0,0,1,0,0,0,1 @ F,0,0,1,0,0,0,1 @ F,0,0,1,0,0,0,1 @ F,0,0,1,0,0,0,1"
       radius="0"
       unit="px"
       method="auto"
       mode="F"
       chamfer_steps="1"
       flexible="false"
       use_knot_distance="true"
       apply_no_radius="true"
       apply_with_radius="true"
       only_selected="false"
       hide_knots="false" /><inkscape:path-effect
       effect="fillet_chamfer"
       id="path-effect66"
       is_visible="true"
       lpeversion="1"
       nodesatellites_param="F,0,0,1,0,0,0,1 @ F,0,0,1,0,0.44929322,0,1 @ F,0,0,1,0,0.44929322,0,1 @ F,0,0,1,0,0,0,1 @ F,0,0,1,0,0,0,1 @ F,0,0,1,0,0,0,1 @ F,0,0,1,0,0,0,1 @ F,0,0,1,0,0,0,1 @ F,0,0,1,0,0,0,1 @ F,0,0,1,0,0,0,1"
       radius="0"
       unit="px"
       method="auto"
       mode="F"
       chamfer_steps="1"
       flexible="false"
       use_knot_distance="true"
       apply_no_radius="true"
       apply_with_radius="true"
       only_selected="false"
       hide_knots="false" /><inkscape:path-effect
       effect="fillet_chamfer"
       id="path-effect68-7"
       is_visible="true"
       lpeversion="1"
       nodesatellites_param="F,0,0,1,0,0,0,1 @ F,0,0,1,0,0,0,1 @ F,0,0,1,0,0,0,1 @ F,0,0,1,0,0,0,1 @ F,0,0,1,0,0,0,1 @ F,0,0,1,0,0,0,1 @ F,0,0,1,0,0,0,1 @ F,0,0,1,0,0,0,1 @ F,0,0,1,0,0,0,1"
       radius="0"
       unit="px"
       method="auto"
       mode="F"
       chamfer_steps="1"
       flexible="false"
       use_knot_distance="true"
       apply_no_radius="true"
       apply_with_radius="true"
       only_selected="false"
       hide_knots="false" /><inkscape:path-effect
       effect="fillet_chamfer"
       id="path-effect66-5"
       is_visible="true"
       lpeversion="1"
       nodesatellites_param="F,0,0,1,0,0,0,1 @ F,0,0,1,0,0.44929322,0,1 @ F,0,0,1,0,0.44929322,0,1 @ F,0,0,1,0,0,0,1 @ F,0,0,1,0,0,0,1 @ F,0,0,1,0,0,0,1 @ F,0,0,1,0,0,0,1 @ F,0,0,1,0,0,0,1 @ F,0,0,1,0,0,0,1 @ F,0,0,1,0,0,0,1"
       radius="0"
       unit="px"
       method="auto"
       mode="F"
       chamfer_steps="1"
       flexible="false"
       use_knot_distance="true"
       apply_no_radius="true"
       apply_with_radius="true"
       only_selected="false"
       hide_knots="false" /><inkscape:path-effect
       effect="fillet_chamfer"
       id="path-effect68-3"
       is_visible="true"
       lpeversion="1"
       nodesatellites_param="F,0,0,1,0,0,0,1 @ F,0,0,1,0,0,0,1 @ F,0,0,1,0,0,0,1 @ F,0,0,1,0,0,0,1 @ F,0,0,1,0,0,0,1 @ F,0,0,1,0,0,0,1 @ F,0,0,1,0,0,0,1 @ F,0,0,1,0,0,0,1 @ F,0,0,1,0,0,0,1"
       radius="0"
       unit="px"
       method="auto"
       mode="F"
       chamfer_steps="1"
       flexible="false"
       use_knot_distance="true"
       apply_no_radius="true"
       apply_with_radius="true"
       only_selected="false"
       hide_knots="false" /><inkscape:path-effect
       effect="fillet_chamfer"
       id="path-effect66-6"
       is_visible="true"
       lpeversion="1"
       nodesatellites_param="F,0,0,1,0,0,0,1 @ F,0,0,1,0,0.44929322,0,1 @ F,0,0,1,0,0.44929322,0,1 @ F,0,0,1,0,0,0,1 @ F,0,0,1,0,0,0,1 @ F,0,0,1,0,0,0,1 @ F,0,0,1,0,0,0,1 @ F,0,0,1,0,0,0,1 @ F,0,0,1,0,0,0,1 @ F,0,0,1,0,0,0,1"
       radius="0"
       unit="px"
       method="auto"
       mode="F"
       chamfer_steps="1"
       flexible="false"
       use_knot_distance="true"
       apply_no_radius="true"
       apply_with_radius="true"
       only_selected="false"
       hide_knots="false" /><inkscape:path-effect
       effect="fillet_chamfer"
       id="path-effect68-9"
       is_visible="true"
       lpeversion="1"
       nodesatellites_param="F,0,0,1,0,0,0,1 @ F,0,0,1,0,0,0,1 @ F,0,0,1,0,0,0,1 @ F,0,0,1,0,0,0,1 @ F,0,0,1,0,0,0,1 @ F,0,0,1,0,0,0,1 @ F,0,0,1,0,0,0,1 @ F,0,0,1,0,0,0,1 @ F,0,0,1,0,0,0,1"
       radius="0"
       unit="px"
       method="auto"
       mode="F"
       chamfer_steps="1"
       flexible="false"
       use_knot_distance="true"
       apply_no_radius="true"
       apply_with_radius="true"
       only_selected="false"
       hide_knots="false" /><inkscape:path-effect
       effect="fillet_chamfer"
       id="path-effect66-3"
       is_visible="true"
       lpeversion="1"
       nodesatellites_param="F,0,0,1,0,0,0,1 @ F,0,0,1,0,0.44929322,0,1 @ F,0,0,1,0,0.44929322,0,1 @ F,0,0,1,0,0,0,1 @ F,0,0,1,0,0,0,1 @ F,0,0,1,0,0,0,1 @ F,0,0,1,0,0,0,1 @ F,0,0,1,0,0,0,1 @ F,0,0,1,0,0,0,1 @ F,0,0,1,0,0,0,1"
       radius="0"
       unit="px"
       method="auto"
       mode="F"
       chamfer_steps="1"
       flexible="false"
       use_knot_distance="true"
       apply_no_radius="true"
       apply_with_radius="true"
       only_selected="false"
       hide_knots="false" /><filter
       inkscape:label="Blur Double"
       inkscape:menu="Blurs"
       inkscape:menu-tooltip="Overlays two copies with different blur amounts and modifiable blend and composite"
       style="color-interpolation-filters:sRGB;"
       id="filter6"
       x="-0.71930275"
       y="-0.45810527"
       width="2.4386055"
       height="1.9162105"><feGaussianBlur
         stdDeviation="5"
         result="fbSourceGraphic"
         id="feGaussianBlur5" /><feGaussianBlur
         stdDeviation="0.01"
         in="SourceGraphic"
         result="result1"
         id="feGaussianBlur6" /><feComposite
         in2="result1"
         operator="arithmetic"
         in="fbSourceGraphic"
         k2="0.5"
         k3="0.5"
         result="result2"
         id="feComposite6" /><feBlend
         in2="fbSourceGraphic"
         mode="normal"
         result="result3"
         id="feBlend6" /></filter></defs><g
     inkscape:label="Camada 1"
     inkscape:groupmode="layer"
     id="layer1"><rect
       style="fill:#143721;fill-opacity:1;stroke-width:1.18747"
       id="rect1"
       width="81.685905"
       height="83.310165"
       x="-0.72426409"
       y="-0.84852815"
       ry="1.1235911" /><ellipse
       style="fill:#1f5a34;fill-opacity:1;stroke:none;stroke-width:2.03701"
       id="path1"
       cx="66.609459"
       cy="30.01668"
       rx="36.274578"
       ry="38.501968" /><ellipse
       style="fill:#2c814b;fill-opacity:1;stroke:none;stroke-width:2.05656"
       id="ellipse1"
       cx="83.792152"
       cy="30.971272"
       rx="36.274578"
       ry="39.244431" /><g
       id="g55"
       transform="matrix(-0.77283067,-0.28244874,-0.28483153,0.76636547,19.212227,-46.615449)"><path
         id="path54"
         style="fill:#ffffff;fill-opacity:1;stroke:#060e0e;stroke-width:1.40184;stroke-opacity:1"
         d="m -73.691211,44.674475 c -4.842857,-2.5e-5 -9.414874,3.393373 -9.414848,8.01707 -2.7e-5,4.623698 5.524488,10.140411 10.367345,10.140386 0.07601,-1.1e-4 0.15202,-0.0011 0.228003,-0.0032 -0.0015,-0.05452 -0.0023,-0.109066 -0.0023,-0.163611 -5.6e-5,-3.214582 2.657084,-5.820579 5.934932,-5.820698 0.723041,1.7e-5 1.439995,0.1296 2.115539,0.382365 0.326081,-0.889232 0.492607,-1.824637 0.49256,-2.766792 -9.7e-5,-1.565794 -0.460117,-3.10018 -1.327809,-4.428871 -0.343161,0.08748 -0.695038,0.131691 -1.048175,0.131708 -2.154681,1.04e-4 -2.698524,-1.119551 -3.073927,-3.346375 -0.661476,-0.149495 -2.385971,-0.100032 -3.292194,-0.879638 z"
         sodipodi:nodetypes="cccccccccsccc" /><path
         id="path55"
         style="fill:#808080;fill-opacity:1;stroke:none;stroke-width:1.1309;stroke-opacity:1"
         d="m -76.625341,46.41124 c -2.805308,0.859594 -5.055838,3.330777 -5.055823,6.471177 -2.1e-5,3.921185 4.23949,8.599333 7.95591,8.599312 0.05833,-9.3e-5 0.116576,-8.48e-4 0.174886,-0.0027 -0.0012,-0.04624 -0.0016,-0.09223 -0.0016,-0.138485 -1.5e-5,-0.933945 0.239333,-1.807669 0.655127,-2.55236 a 7.079287,7.2509352 0 0 1 -5.901698,-7.149586 7.079287,7.2509352 0 0 1 2.173183,-5.227428 z" /></g><g
       id="g54"
       transform="matrix(0.77283067,-0.28244874,0.28483153,0.76636547,78.184664,-46.182298)"><path
         id="path41"
         style="fill:#ffffff;fill-opacity:1;stroke:#060e0e;stroke-width:1.40184;stroke-opacity:1"
         d="m -73.691211,44.674475 c -4.842857,-2.5e-5 -9.414874,3.393373 -9.414848,8.01707 -2.7e-5,4.623698 5.524488,10.140411 10.367345,10.140386 0.07601,-1.1e-4 0.15202,-0.0011 0.228003,-0.0032 -0.0015,-0.05452 -0.0023,-0.109066 -0.0023,-0.163611 -5.6e-5,-3.214582 2.657084,-5.820579 5.934932,-5.820698 0.723041,1.7e-5 1.439995,0.1296 2.115539,0.382365 0.326081,-0.889232 0.492607,-1.824637 0.49256,-2.766792 -9.7e-5,-1.565794 -0.460117,-3.10018 -1.327809,-4.428871 -0.343161,0.08748 -0.695038,0.131691 -1.048175,0.131708 -2.154681,1.04e-4 -2.698524,-1.119551 -3.073927,-3.346375 -0.661476,-0.149495 -2.385971,-0.100032 -3.292194,-0.879638 z"
         sodipodi:nodetypes="cccccccccsccc" /><path
         id="path53"
         style="fill:#808080;fill-opacity:1;stroke:none;stroke-width:1.1309;stroke-opacity:1"
         d="m -76.625341,46.41124 c -2.805308,0.859594 -5.055838,3.330777 -5.055823,6.471177 -2.1e-5,3.921185 4.23949,8.599333 7.95591,8.599312 0.05833,-9.3e-5 0.116576,-8.48e-4 0.174886,-0.0027 -0.0012,-0.04624 -0.0016,-0.09223 -0.0016,-0.138485 -1.5e-5,-0.933945 0.239333,-1.807669 0.655127,-2.55236 a 7.079287,7.2509352 0 0 1 -5.901698,-7.149586 7.079287,7.2509352 0 0 1 2.173183,-5.227428 z" /></g><ellipse
       style="fill:#143030;fill-opacity:1;stroke:#060e0e;stroke-width:1.166;stroke-dasharray:none;stroke-opacity:1"
       id="ellipse42"
       cx="48.699615"
       cy="12.065453"
       rx="7.1348586"
       ry="7.6332946" /><ellipse
       style="fill:#2b6a6a;fill-opacity:1;stroke:none;stroke-width:0.496359;stroke-dasharray:none;stroke-opacity:1"
       id="ellipse43"
       cx="48.943203"
       cy="11.492727"
       rx="5.935657"
       ry="6.4123082" /><path
       id="path43"
       style="fill:#ffffff;stroke:#060e0e;stroke-width:0.603023;stroke-dasharray:none;stroke-opacity:1"
       d="m 52.394725,12.280493 c 0,1.486133 -1.635287,3.386803 -3.652515,3.386803 -2.017226,-2e-6 -3.652512,-1.90067 -3.652512,-3.386803 0,-1.486134 1.709828,-3.4795912 3.727055,-3.4795912 2.017225,0 3.577972,1.9934572 3.577972,3.4795912 z"
       sodipodi:nodetypes="sssss" /><path
       id="path44"
       style="fill:#e7f5f5;fill-opacity:1;stroke:none;stroke-width:0.290247"
       d="m 50.715963,11.785119 c 0,1.099052 -0.843513,2.504666 -1.884036,2.504666 -1.040525,0 -1.884035,-1.405614 -1.884035,-2.504666 0,-1.099052 0.881961,-2.5732892 1.922485,-2.5732892 1.040524,0 1.845586,1.4742372 1.845586,2.5732892 z"
       sodipodi:nodetypes="sssss" /><path
       id="path45"
       style="fill:#0f2222;fill-opacity:1;stroke:#060e0e;stroke-width:0.835222;stroke-dasharray:none;stroke-opacity:1"
       d="m 50.89579,12.354541 c 0,1.216886 -1.011688,2.773202 -2.259662,2.773202 -1.247977,0 -2.259663,-1.556316 -2.259663,-2.773202 0,-1.216885 1.057802,-2.8491807 2.305777,-2.8491807 1.247978,0 2.213548,1.6322957 2.213548,2.8491807 z"
       sodipodi:nodetypes="sssss" /><path
       id="path46"
       style="fill:#ffffff;fill-opacity:1;stroke:none;stroke-width:0.188802"
       d="m 50.065169,10.619934 c 0,0.71477 -0.548806,1.628915 -1.225791,1.628915 -0.676982,0 -1.225789,-0.914145 -1.225789,-1.628915 0,-0.7147691 0.57382,-1.6735415 1.250805,-1.6735415 0.676985,0 1.200775,0.9587724 1.200775,1.6735415 z"
       sodipodi:nodetypes="sssss" /><g
       id="g49"
       transform="matrix(0.00873856,-0.87716056,1.1357758,0.03918606,25.868983,-21.926311)"><path
         id="path47"
         style="fill:#2b6a6a;fill-opacity:1;stroke:#060e0e;stroke-width:0.577;stroke-dasharray:none;stroke-opacity:1"
         d="m -48.127675,16.057515 c 1.12343,0.01876 2.544659,0.795297 2.525461,1.723605 -0.0192,0.928309 -1.471552,1.656857 -2.594982,1.638096 -1.123429,-0.01876 -2.614092,-0.830772 -2.594895,-1.75908 0.0192,-0.928308 1.540987,-1.621382 2.664416,-1.602621 z"
         sodipodi:nodetypes="sssss" /><path
         id="path48"
         style="fill:#143030;fill-opacity:1;stroke:none;stroke-width:0.495503;stroke-dasharray:none;stroke-opacity:1"
         d="m -49.546534,16.638124 c -0.534197,0.242652 -0.947436,0.613815 -0.956761,1.045174 -0.01685,0.779766 1.292075,1.46167 2.278388,1.477435 0.634655,0.01014 1.389052,-0.239868 1.850685,-0.627004 -0.40376,0.18353 -0.873557,0.289479 -1.291223,0.282807 -0.986313,-0.01577 -2.294736,-0.69767 -2.277882,-1.477436 0.0056,-0.260704 0.158608,-0.499408 0.396793,-0.700976 z" /><path
         style="fill:#2b6a6a;fill-opacity:1;stroke:#060e0e;stroke-width:0.577001;stroke-dasharray:none;stroke-opacity:1"
         d="m -50.5802,17.728475 c 2.060597,-0.464935 3.520557,-0.269168 4.864379,0.05435"
         id="path49"
         sodipodi:nodetypes="cc" /></g><g
       id="g52"
       transform="matrix(0.00873856,-0.87716056,1.1357758,0.03918606,31.547452,-21.66642)"><path
         id="path50"
         style="fill:#2b6a6a;fill-opacity:1;stroke:#060e0e;stroke-width:0.577;stroke-dasharray:none;stroke-opacity:1"
         d="m -48.127675,16.057515 c 1.12343,0.01876 2.544659,0.795297 2.525461,1.723605 -0.0192,0.928309 -1.471552,1.656857 -2.594982,1.638096 -1.123429,-0.01876 -2.614092,-0.830772 -2.594895,-1.75908 0.0192,-0.928308 1.540987,-1.621382 2.664416,-1.602621 z"
         sodipodi:nodetypes="sssss" /><path
         id="path51"
         style="fill:#143030;fill-opacity:1;stroke:none;stroke-width:0.495503;stroke-dasharray:none;stroke-opacity:1"
         d="m -49.546534,16.638124 c -0.534197,0.242652 -0.947436,0.613815 -0.956761,1.045174 -0.01685,0.779766 1.292075,1.46167 2.278388,1.477435 0.634655,0.01014 1.389052,-0.239868 1.850685,-0.627004 -0.40376,0.18353 -0.873557,0.289479 -1.291223,0.282807 -0.986313,-0.01577 -2.294736,-0.69767 -2.277882,-1.477436 0.0056,-0.260704 0.158608,-0.499408 0.396793,-0.700976 z" /><path
         style="fill:#2b6a6a;fill-opacity:1;stroke:#060e0e;stroke-width:0.577001;stroke-dasharray:none;stroke-opacity:1"
         d="m -50.5802,17.728475 c 2.060597,-0.464935 3.520557,-0.269168 4.864379,0.05435"
         id="path52"
         sodipodi:nodetypes="cc" /></g><rect
       style="fill:#143921;fill-opacity:1;stroke:none;stroke-width:0.208984"
       id="rect3553"
       width="96.40731"
       height="47.192509"
       x="-10.214075"
       y="42.580933"
       ry="0.49524102" /><rect
       style="fill:#050c0c;stroke-width:0.557685"
       id="rect5"
       width="68.148239"
       height="4.5725527"
       x="11.166739"
       y="74.618904"
       ry="0.030660443" /><rect
       style="fill:#050c0c;stroke-width:0.454458"
       id="rect1-6"
       width="4.9936213"
       height="41.438766"
       x="-1.4641845"
       y="45.508717"
       ry="0.27786031" /><rect
       style="fill:#050c0c;stroke-width:0.608274"
       id="rect3"
       width="81.072906"
       height="4.5725527"
       x="-1.4641845"
       y="82.477982"
       ry="0.030660443" /><rect
       style="fill:#050c0c;stroke-width:0.353032"
       id="rect6"
       width="4.9936213"
       height="25.006153"
       x="11.166738"
       y="53.876171"
       ry="0.16767432" /><rect
       style="fill:#050c0c;stroke-width:0.445426"
       id="rect9-1"
       width="43.473877"
       height="4.5725527"
       x="25.430208"
       y="66.434196"
       ry="0.030660443" /><path
       id="path12-8"
       style="fill:#0e2121;fill-opacity:1;stroke-width:0.103778"
       d="m 25.431634,66.747567 h 2.502604 c 7.91e-4,0 0.0014,0.01287 0.0014,0.02889 v 4.249061 c 0,0.016 -6.36e-4,0.02889 -0.0014,0.02889 h -2.502604 c -7.91e-4,0 -0.0014,-0.01287 -0.0014,-0.02889 v -4.249061 c 0,-0.016 6.37e-4,-0.02889 0.0014,-0.02889 z" /><rect
       style="fill:#050c0c;stroke-width:0.608274"
       id="rect2"
       width="81.072906"
       height="4.5725527"
       x="-1.4641845"
       y="45.508717"
       ry="0.030660443" /><path
       id="path14"
       style="fill:#0e2121;fill-opacity:1;stroke-width:0.24294"
       d="m -1.4492377,45.291357 h 1.41807322 c 4.3853e-4,0 7.9681e-4,0.124527 7.9681e-4,0.279334 v 41.09381 c 0,0.154686 -3.6115e-4,0.279334 -7.9681e-4,0.279334 H -1.4492377 c -4.386e-4,0 -7.968e-4,-0.124526 -7.968e-4,-0.279334 v -41.09381 c 0,-0.154686 3.611e-4,-0.279334 7.968e-4,-0.279334 z" /><path
       id="path1-7"
       style="fill:#000000;fill-opacity:0.378371;stroke-width:0.812738"
       inkscape:transform-center-x="-0.26363865"
       inkscape:transform-center-y="-16.211906"
       d="M 86.007554,88.959166 -9.3776,89.44438 -9.6902952,42.493222 C 7.4698954,66.250141 46.090567,77.968254 86.007554,88.959166 Z"
       sodipodi:nodetypes="cccc" /><rect
       style="fill:#050c0c;stroke-width:0.409969"
       id="rect4"
       width="4.9936213"
       height="33.722584"
       x="74.826927"
       y="45.508717"
       ry="0.22612078" /><rect
       style="fill:#050c0c;stroke-width:0.511284"
       id="rect7"
       width="57.27977"
       height="4.5725527"
       x="11.330572"
       y="53.859669"
       ry="0.030660443" /><rect
       style="fill:#050c0c;stroke-width:0.26011"
       id="rect8"
       width="4.9936213"
       height="13.574769"
       x="63.910465"
       y="54.019062"
       ry="0.091023199" /><path
       id="rect10-9"
       style="fill:#0e2121;fill-opacity:1;stroke-width:0.247289"
       d="m 25.452152,66.390336 h 38.445016 c 0.01215,0 0.02195,0.0048 0.02195,0.01068 v 1.570521 c 0,0.0059 -0.0098,0.01068 -0.02195,0.01068 H 25.452152 c -0.01215,0 -0.02195,-0.0048 -0.02195,-0.01068 v -1.570521 c 0,-0.0059 0.0098,-0.01068 0.02195,-0.01068 z" /><path
       id="path10"
       style="fill:#0e2121;fill-opacity:1;stroke-width:0.302895"
       d="m 11.192166,53.680742 h 57.678997 c 0.01824,0 0.03291,0.0048 0.03291,0.01068 v 1.570521 c 0,0.0059 -0.01468,0.01068 -0.03291,0.01068 H 11.192166 c -0.01823,0 -0.03292,-0.0048 -0.03292,-0.01068 v -1.570521 c 0,-0.0059 0.01468,-0.01068 0.03292,-0.01068 z" /><path
       id="path11"
       style="fill:#122d2d;stroke-width:0.35632"
       d="M -0.08265984,45.294412 H 79.737194 c 0.02525,0 0.04555,0.0048 0.04555,0.01068 v 1.570521 c 0,0.0059 -0.02031,0.01068 -0.04555,0.01068 H -0.08265984 c -0.02523223,0 -0.04556324,-0.0048 -0.04556324,-0.01068 v -1.570521 c 0,-0.0059 0.0203119,-0.01068 0.04556324,-0.01068 z" /><path
       id="path13"
       style="fill:#0e2121;fill-opacity:1;stroke-width:0.190316"
       d="m 11.086633,53.684867 h 1.418073 c 4.39e-4,0 7.97e-4,0.07642 7.97e-4,0.171427 v 25.219203 c 0,0.09493 -3.61e-4,0.171427 -7.97e-4,0.171427 h -1.418073 c -4.38e-4,0 -7.96e-4,-0.07642 -7.96e-4,-0.171427 V 53.856294 c 0,-0.09493 3.61e-4,-0.171427 7.96e-4,-0.171427 z" /><path
       id="path2-2"
       style="fill:#040909;fill-opacity:1;stroke:none;stroke-width:0.276406"
       d="m 16.157934,56.957882 h 48.03162 c 0.01519,0 0.02741,0.0048 0.02741,0.01067 v 1.570522 c 0,0.0059 -0.01222,0.01067 -0.02741,0.01067 h -48.03162 c -0.01518,0 -0.02742,-0.0048 -0.02742,-0.01067 v -1.570522 c 0,-0.0059 0.01222,-0.01067 0.02742,-0.01067 z" /><path
       id="path3"
       style="fill:#040909;fill-opacity:1;stroke:none;stroke-width:0.170353"
       d="m 66.498009,56.957882 h -2.643018 c -8.35e-4,0 -0.0015,0.03285 -0.0015,0.07369 V 67.87279 c 0,0.04081 6.71e-4,0.07369 0.0015,0.07369 h 2.643018 c 8.35e-4,0 0.0015,-0.03285 0.0015,-0.07369 V 57.031575 c 0,-0.04081 -6.73e-4,-0.07369 -0.0015,-0.07369 z" /><g
       inkscape:label="Camada 1"
       id="layer1-0"
       transform="matrix(0.62821469,0,0,0.68545336,34.766243,2.2101167)"><path
         id="rect3-2"
         style="fill:#2b2200;stroke:#0f0c00;stroke-width:1.685;stroke-dasharray:none;stroke-opacity:1"
         d="m 34.831363,28.162321 h 28.642068 l -7.733358,71.308404 -15.466717,0.28638 z"
         sodipodi:nodetypes="ccccc" /><path
         id="rect4-3"
         style="fill:#2b2200;stroke:#0f0c00;stroke-width:1.612;stroke-dasharray:none;stroke-opacity:1"
         d="M 34.987913,28.175094 63.030748,28.325448 54.446207,40.203459 41.998621,40.053104 Z"
         sodipodi:nodetypes="ccccc" /><path
         id="path3-7"
         style="fill:#ffcc00;stroke:none;stroke-width:0.590117;stroke-opacity:1;filter:url(#filter6)"
         d="m 60.498078,23.243517 c 0,4.716593 -3.742046,8.540147 -8.358095,8.540147 -4.616047,-1e-6 -8.358093,-3.823554 -8.358093,-8.540147 0,-4.716593 3.587265,-17.7070952 8.203314,-17.7070952 4.616049,0 8.512874,12.9905012 8.512874,17.7070952 z"
         sodipodi:nodetypes="sssss"
         transform="matrix(0.88508657,0,0,0.9063175,2.4647466,6.8768418)" /><path
         style="fill:#806600;fill-opacity:1;stroke:#0f0c00;stroke-width:1.412;stroke-dasharray:none;stroke-opacity:1"
         d="M 41.712468,39.752396 40.424787,99.593514 H 55.447733 L 54.732355,39.90275 Z"
         id="path4-5" /><path
         id="path6"
         style="fill:#ff6600;stroke:none;stroke-width:0.590117;stroke-opacity:1;filter:url(#filter6)"
         d="m 60.498078,23.243517 c 0,4.716593 -3.742046,8.540147 -8.358095,8.540147 -4.616047,-1e-6 -8.358093,-3.823554 -8.358093,-8.540147 0,-4.716593 3.587265,-17.7070952 8.203314,-17.7070952 4.616049,0 8.512874,12.9905012 8.512874,17.7070952 z"
         sodipodi:nodetypes="sssss"
         transform="matrix(0.63939796,0,0,0.64922572,15.131871,15.282695)" /><path
         id="path7"
         style="fill:#ffffff;stroke:none;stroke-width:0.590117;stroke-opacity:1;filter:url(#filter6)"
         d="m 60.498078,23.243517 c 0,4.716593 -3.742046,8.540147 -8.358095,8.540147 -4.616047,-1e-6 -8.358093,-3.823554 -8.358093,-8.540147 0,-4.716593 3.587265,-17.7070952 8.203314,-17.7070952 4.616049,0 8.512874,12.9905012 8.512874,17.7070952 z"
         sodipodi:nodetypes="sssss"
         transform="matrix(0.25682568,0,0,0.23967254,35.150721,28.262561)" /><path
         style="fill:none;fill-opacity:1;stroke:#2b2200;stroke-width:0.634474;stroke-dasharray:none;stroke-opacity:1"
         d="m 44.430907,42.082891 -0.143077,2.931914 h 8.369926 l -0.214612,6.6156 -8.012237,-0.375885 3.29074,-3.984396 h 3.290741 l -0.07154,1.052482"
         id="path8" /><path
         style="fill:none;fill-opacity:1;stroke:#2b2200;stroke-width:0.539064;stroke-dasharray:none;stroke-opacity:1"
         d="m 43.572451,53.509837 h 9.371457 l 0.07153,1.278015 -4.721497,-0.150355 -0.143077,1.879432 4.793035,-0.225532 -0.143075,2.931914 h -9.085301 v -3.683686 h 1.287682 l 0.07153,3.007092 h 6.867631 v -1.052482 l -5.007649,-0.07517 0.143078,-2.78156 -1.931524,-0.07517"
         id="path9" /><path
         style="fill:none;fill-opacity:1;stroke:#2b2200;stroke-width:0.539063;stroke-dasharray:none;stroke-opacity:1"
         d="m 43.429378,61.253098 -0.143077,4.510638 2.289211,-4.736168 h 6.867633 l -0.214614,4.811346 -2.933052,-0.07517 0.143077,-2.25532 2.146133,-0.07517 v -0.52624 l -2.146133,-0.07517 0.07153,-1.278014 h 2.074595"
         id="path10-9" /><path
         style="fill:none;fill-opacity:1;stroke:#2b2200;stroke-width:0.539063;stroke-dasharray:none;stroke-opacity:1"
         d="m 43.35784,67.041749 8.94223,5.036878 0.143075,-4.886524 -2.503825,0.150356 -3.648431,4.209927 -2.360747,0.07517 0.143075,-2.706383 h -0.643839"
         id="path11-2" /><path
         style="fill:none;fill-opacity:1;stroke:#2b2200;stroke-width:0.539063;stroke-dasharray:none;stroke-opacity:1"
         d="m 47.828955,61.140333 -0.357691,6.277303"
         id="path12-2" /><path
         style="fill:none;fill-opacity:1;stroke:#2b2200;stroke-width:0.456971;stroke-dasharray:none;stroke-opacity:1"
         d="m 45.34397,65.642727 3.539211,0.09166"
         id="path13-8" /><path
         style="fill:none;fill-opacity:1;stroke:#2b2200;stroke-width:0.407773;stroke-dasharray:none;stroke-opacity:1"
         d="m 45.845451,66.378502 3.001245,0.08607"
         id="path14-9" /><path
         style="fill:none;fill-opacity:1;stroke:#2b2200;stroke-width:0.732808;stroke-dasharray:none;stroke-opacity:1"
         d="m 42.122937,61.020539 2.368252,0.352274"
         id="path15-7" /><path
         style="fill:none;fill-opacity:1;stroke:#2b2200;stroke-width:0.652095;stroke-dasharray:none;stroke-opacity:1"
         d="m 49.470072,69.360945 2.141261,0.947931"
         id="path16-3" /><path
         style="fill:none;fill-opacity:1;stroke:#2b2200;stroke-width:0.624021;stroke-dasharray:none;stroke-opacity:1"
         d="m 45.091271,43.771143 8.169385,0.03599"
         id="path17" /><path
         style="fill:none;fill-opacity:1;stroke:#2b2200;stroke-width:0.539064;stroke-dasharray:none;stroke-opacity:1"
         d="m 43.268941,73.6037 h 9.371457 l 0.07154,1.278016 -4.721497,-0.150356 -0.143076,1.879432 4.793035,-0.225532 -0.143075,2.931914 H 43.412018 V 75.633488 H 44.6997 l 0.07153,3.007092 h 6.86763 v -1.052482 l -5.007649,-0.07517 0.143078,-2.78156 -1.931524,-0.07517"
         id="path18-6" /><path
         style="fill:none;fill-opacity:1;stroke:#2b2200;stroke-width:0.634474;stroke-dasharray:none;stroke-opacity:1"
         d="m 46.184829,82.61816 -1.011697,3.136344 1.466962,1.169484 -0.10117,1.328959 -4.046792,0.05316 0.961115,1.594749 2.984507,0.106317 -0.10117,2.33897 -2.630414,4.996887 h 2.124567 l 1.770469,-4.093195 1.517548,-0.106317 0.354095,3.986878 1.719885,-0.106318 -1.112868,-4.518462 v -2.711077 l 2.88334,-0.106314 0.859942,-1.488435 -4.350299,-0.318951 0.101169,-1.435276 1.56813,-1.594752 -2.225734,-4.199511 -1.062283,1.488434 1.466963,1.116325"
         id="path19-1" /><path
         style="fill:none;fill-opacity:1;stroke:#1a1700;stroke-width:0.352707;stroke-dasharray:none;stroke-opacity:1"
         d="m 37.746555,41.200375 -0.04307,3.009586 h 2.51981 l -0.06461,6.790859 -2.412125,-0.385843 0.990693,-4.089949 h 0.990695 l -0.02154,1.080363"
         id="path20-2" /><path
         style="fill:none;fill-opacity:1;stroke:#1a1700;stroke-width:0.352707;stroke-dasharray:none;stroke-opacity:1"
         d="m 59.208404,41.05002 0.04307,3.009586 h -2.519809 l 0.06461,6.790859 2.412125,-0.385842 -0.990693,-4.08995 h -0.990696 l 0.02154,1.080363"
         id="path21-9" /><path
         style="fill:none;fill-opacity:1;stroke:#1a1700;stroke-width:0.288426;stroke-dasharray:none;stroke-opacity:1"
         d="m 37.980351,52.080249 2.581675,0.08282 -0.01884,1.327489 -1.296156,-0.197828 -0.0961,1.949993 1.327201,-0.191793 -0.127841,3.042698 -2.50284,-0.08029 0.111099,-3.824465 0.354734,0.01138 -0.07099,3.122644 1.891914,0.06069 0.03175,-1.092703 -1.377255,-0.122298 0.123307,-2.886597 -0.529834,-0.09513"
         id="path22-3" /><path
         style="fill:none;fill-opacity:1;stroke:#1a1700;stroke-width:0.288426;stroke-dasharray:none;stroke-opacity:1"
         d="m 58.839851,51.973933 -2.581675,0.08282 0.01884,1.327489 1.296155,-0.197828 0.0961,1.949993 -1.3272,-0.191792 0.127841,3.042697 2.502839,-0.08029 -0.111099,-3.824465 -0.354734,0.01138 0.07099,3.122645 -1.891915,0.06069 -0.03175,-1.092703 1.377254,-0.122298 -0.123307,-2.886598 0.529834,-0.09513"
         id="path23-1" /><path
         style="fill:none;fill-opacity:1;stroke:#1a1700;stroke-width:0.237752;stroke-dasharray:none;stroke-opacity:1"
         d="m 38.769454,58.802188 -0.01939,3.037713 h 1.134353 l -0.02909,6.854322 -1.085876,-0.389447 0.445985,-4.128173 h 0.445984 l -0.0097,1.09046"
         id="path24" /><path
         style="fill:none;fill-opacity:1;stroke:#1a1700;stroke-width:0.237752;stroke-dasharray:none;stroke-opacity:1"
         d="m 57.670652,58.589555 0.01939,3.037712 h -1.134353 l 0.02909,6.854323 1.085876,-0.389447 -0.445985,-4.128173 h -0.445984 l 0.0097,1.09046"
         id="path25" /></g><g
       id="g40"
       transform="matrix(1.3787084,-0.32517617,0.32234063,1.3666861,83.923204,12.697668)"><path
         id="path26"
         style="fill:#ffffff;fill-opacity:1;stroke:#060e0e;stroke-width:1.40184;stroke-opacity:1"
         d="m -67.391211,3.8744758 c -4.842857,-2.43e-5 -9.414874,3.3933736 -9.414848,8.0170702 -2.7e-5,4.623698 5.524488,10.140411 10.367345,10.140386 0.07601,-1.1e-4 0.15202,-0.0011 0.228003,-0.0032 -0.0015,-0.05452 -0.0023,-0.109066 -0.0023,-0.163611 -5.6e-5,-3.214582 2.657084,-5.820579 5.934932,-5.820698 0.723041,1.7e-5 1.439995,0.1296 2.115539,0.382365 0.326081,-0.889232 0.492607,-1.824637 0.49256,-2.766792 -9.7e-5,-1.565794 -0.460117,-3.10018 -1.327809,-4.4288714 -0.343161,0.087477 -0.695038,0.1316919 -1.048175,0.1317086 -2.154681,1.035e-4 -2.698524,-1.1195513 -3.073927,-3.3463752 -0.661476,-0.1494948 -2.385971,-0.1000315 -3.292194,-0.8796375 z"
         sodipodi:nodetypes="cccccccccsccc" /><path
         id="path28"
         style="fill:#ffffff;fill-opacity:1;stroke:#060e0e;stroke-width:1.40184;stroke-opacity:1"
         d="m -36.109828,3.2744758 c 4.842857,-2.43e-5 9.414874,3.3933736 9.414848,8.0170702 2.7e-5,4.623698 -5.524488,10.140411 -10.367345,10.140386 -0.07601,-1.1e-4 -0.15202,-0.0011 -0.228003,-0.0032 0.0015,-0.05452 0.0023,-0.109066 0.0023,-0.163611 5.6e-5,-3.214582 -2.657084,-5.820579 -5.934932,-5.820698 -0.723041,1.7e-5 -1.439995,0.1296 -2.115539,0.382365 -0.326081,-0.889232 -0.492607,-1.824637 -0.49256,-2.766792 9.7e-5,-1.565794 0.460117,-3.10018 1.327809,-4.4288714 0.343161,0.087477 0.695038,0.1316919 1.048175,0.1317086 2.154681,1.035e-4 2.698524,-1.1195513 3.073927,-3.3463752 0.661476,-0.1494948 2.385971,-0.1000315 3.292194,-0.8796375 z"
         sodipodi:nodetypes="cccccccccsccc" /><ellipse
         style="fill:#143030;fill-opacity:1;stroke:#060e0e;stroke-width:1.42161;stroke-dasharray:none;stroke-opacity:1"
         id="ellipse28"
         cx="-52.159164"
         cy="13.421844"
         rx="8.662508"
         ry="9.3458481" /><ellipse
         style="fill:#2b6a6a;fill-opacity:1;stroke:none;stroke-width:0.555001;stroke-dasharray:none;stroke-opacity:1"
         id="ellipse29"
         cx="-51.931721"
         cy="11.894188"
         rx="6.9561338"
         ry="6.8408389" /><g
         id="g32"
         transform="matrix(1.9721766,0,0,1.949998,50.423089,-4.4004845)"><path
           id="path29"
           style="fill:#ffffff;stroke:#060e0e;stroke-width:0.454;stroke-dasharray:none;stroke-opacity:1"
           d="m -49.779281,9.275432 c 0,1.392679 -0.989109,3.173825 -2.209237,3.173825 -1.220127,-10e-7 -2.209236,-1.781146 -2.209236,-3.173825 0,-1.3926789 1.034196,-3.2607784 2.254323,-3.2607787 1.220127,0 2.16415,1.8680998 2.16415,3.2607787 z"
           sodipodi:nodetypes="sssss" /><path
           id="path30"
           style="fill:#e7f5f5;fill-opacity:1;stroke:none;stroke-width:0.180451"
           d="m -50.773437,8.9636513 c 0,0.6900657 -0.519283,1.5726147 -1.15985,1.5726147 -0.640567,0 -1.159849,-0.882549 -1.159849,-1.5726147 0,-0.6900665 0.542953,-1.6157017 1.18352,-1.6157017 0.640567,0 1.136179,0.9256352 1.136179,1.6157017 z"
           sodipodi:nodetypes="sssss" /><path
           id="path31"
           style="fill:#0f2222;fill-opacity:1;stroke:#060e0e;stroke-width:0.51927;stroke-dasharray:none;stroke-opacity:1"
           d="m -50.662732,9.3211764 c 0,0.7640516 -0.622815,1.7412216 -1.391092,1.7412216 -0.76828,0 -1.391093,-0.97717 -1.391093,-1.7412216 0,-0.7640507 0.651203,-1.7889266 1.419481,-1.7889266 0.76828,0 1.362704,1.0248759 1.362704,1.7889266 z"
           sodipodi:nodetypes="sssss" /><path
           id="path32"
           style="fill:#ffffff;fill-opacity:1;stroke:none;stroke-width:0.117381"
           d="m -50.609376,8.2320619 c 0,0.4487857 -0.337856,1.0227532 -0.754621,1.0227532 -0.416764,0 -0.75462,-0.5739675 -0.75462,-1.0227532 0,-0.4487852 0.353255,-1.0507734 0.77002,-1.0507734 0.416765,0 0.739221,0.6019882 0.739221,1.0507734 z"
           sodipodi:nodetypes="sssss" /></g><g
         id="g35"
         transform="matrix(0.01060958,-1.0739543,1.3789576,0.04797758,-79.87808,-28.196078)"><path
           id="path33"
           style="fill:#2b6a6a;fill-opacity:1;stroke:#060e0e;stroke-width:0.577;stroke-dasharray:none;stroke-opacity:1"
           d="m -48.127675,16.057515 c 1.12343,0.01876 2.544659,0.795297 2.525461,1.723605 -0.0192,0.928309 -1.471552,1.656857 -2.594982,1.638096 -1.123429,-0.01876 -2.614092,-0.830772 -2.594895,-1.75908 0.0192,-0.928308 1.540987,-1.621382 2.664416,-1.602621 z"
           sodipodi:nodetypes="sssss" /><path
           id="path34"
           style="fill:#143030;fill-opacity:1;stroke:none;stroke-width:0.495503;stroke-dasharray:none;stroke-opacity:1"
           d="m -49.546534,16.638124 c -0.534197,0.242652 -0.947436,0.613815 -0.956761,1.045174 -0.01685,0.779766 1.292075,1.46167 2.278388,1.477435 0.634655,0.01014 1.389052,-0.239868 1.850685,-0.627004 -0.40376,0.18353 -0.873557,0.289479 -1.291223,0.282807 -0.986313,-0.01577 -2.294736,-0.69767 -2.277882,-1.477436 0.0056,-0.260704 0.158608,-0.499408 0.396793,-0.700976 z" /><path
           style="fill:#2b6a6a;fill-opacity:1;stroke:#060e0e;stroke-width:0.577001;stroke-dasharray:none;stroke-opacity:1"
           d="m -50.5802,17.728475 c 2.060597,-0.464935 3.520557,-0.269168 4.864379,0.05435"
           id="path35"
           sodipodi:nodetypes="cc" /></g><g
         id="g38"
         transform="matrix(0.01060958,-1.0739543,1.3789576,0.04797758,-72.983789,-27.87788)"><path
           id="path36"
           style="fill:#2b6a6a;fill-opacity:1;stroke:#060e0e;stroke-width:0.577;stroke-dasharray:none;stroke-opacity:1"
           d="m -48.127675,16.057515 c 1.12343,0.01876 2.544659,0.795297 2.525461,1.723605 -0.0192,0.928309 -1.471552,1.656857 -2.594982,1.638096 -1.123429,-0.01876 -2.614092,-0.830772 -2.594895,-1.75908 0.0192,-0.928308 1.540987,-1.621382 2.664416,-1.602621 z"
           sodipodi:nodetypes="sssss" /><path
           id="path37"
           style="fill:#143030;fill-opacity:1;stroke:none;stroke-width:0.495503;stroke-dasharray:none;stroke-opacity:1"
           d="m -49.546534,16.638124 c -0.534197,0.242652 -0.947436,0.613815 -0.956761,1.045174 -0.01685,0.779766 1.292075,1.46167 2.278388,1.477435 0.634655,0.01014 1.389052,-0.239868 1.850685,-0.627004 -0.40376,0.18353 -0.873557,0.289479 -1.291223,0.282807 -0.986313,-0.01577 -2.294736,-0.69767 -2.277882,-1.477436 0.0056,-0.260704 0.158608,-0.499408 0.396793,-0.700976 z" /><path
           style="fill:#2b6a6a;fill-opacity:1;stroke:#060e0e;stroke-width:0.577001;stroke-dasharray:none;stroke-opacity:1"
           d="m -50.5802,17.728475 c 2.060597,-0.464935 3.520557,-0.269168 4.864379,0.05435"
           id="path38"
           sodipodi:nodetypes="cc" /></g><path
         id="path39"
         style="fill:#808080;fill-opacity:1;stroke:none;stroke-width:1.1309;stroke-opacity:1"
         d="m -70.325341,5.6112414 c -2.805308,0.8595938 -5.055838,3.3307767 -5.055823,6.4711766 -2.1e-5,3.921185 4.23949,8.599333 7.95591,8.599312 0.05833,-9.3e-5 0.116576,-8.48e-4 0.174886,-0.0027 -0.0012,-0.04624 -0.0016,-0.09223 -0.0016,-0.138485 -1.5e-5,-0.933945 0.239333,-1.807669 0.655127,-2.55236 a 7.079287,7.2509352 0 0 1 -5.901698,-7.149586 7.079287,7.2509352 0 0 1 2.173183,-5.2274276 z" /><path
         id="path40"
         style="fill:#808080;fill-opacity:1;stroke:none;stroke-width:1.1309;stroke-opacity:1"
         d="m -33.327665,4.7862414 c 2.805308,0.8595938 5.055838,3.3307767 5.055823,6.4711766 2.1e-5,3.921185 -4.23949,8.599333 -7.95591,8.599312 -0.05833,-9.3e-5 -0.116576,-8.48e-4 -0.174886,-0.0027 0.0012,-0.04624 0.0016,-0.09223 0.0016,-0.138485 1.5e-5,-0.933945 -0.239333,-1.807669 -0.655127,-2.55236 a 7.079287,7.2509352 0 0 0 5.901698,-7.149586 7.079287,7.2509352 0 0 0 -2.173183,-5.2274276 z" /></g></g></svg>
