<?xml version="1.0" encoding="UTF-8" standalone="no"?>
<!-- Created with Inkscape (http://www.inkscape.org/) -->

<svg
   width="400"
   height="400"
   viewBox="0 0 105.83334 105.83334"
   version="1.1"
   id="svg1"
   inkscape:version="1.4.2 (ebf0e940d0, 2025-05-08)"
   sodipodi:docname="6.svg"
   xml:space="preserve"
   xmlns:inkscape="http://www.inkscape.org/namespaces/inkscape"
   xmlns:sodipodi="http://sodipodi.sourceforge.net/DTD/sodipodi-0.dtd"
   xmlns="http://www.w3.org/2000/svg"
   xmlns:svg="http://www.w3.org/2000/svg"><sodipodi:namedview
     id="namedview1"
     pagecolor="#505050"
     bordercolor="#eeeeee"
     borderopacity="1"
     inkscape:showpageshadow="0"
     inkscape:pageopacity="0"
     inkscape:pagecheckerboard="0"
     inkscape:deskcolor="#505050"
     inkscape:document-units="px"
     inkscape:zoom="7.0555556"
     inkscape:cx="243.70866"
     inkscape:cy="338.38582"
     inkscape:window-width="1366"
     inkscape:window-height="697"
     inkscape:window-x="0"
     inkscape:window-y="0"
     inkscape:window-maximized="1"
     inkscape:current-layer="layer1" /><defs
     id="defs1"><linearGradient
       id="linearGradient13895"
       inkscape:swatch="solid"><stop
         style="stop-color:#000000;stop-opacity:1;"
         offset="0"
         id="stop13893" /></linearGradient><filter
       style="color-interpolation-filters:sRGB;"
       inkscape:label="Clean Edges"
       id="filter14269"
       x="-0.31154084"
       y="-0.29580634"
       width="1.6230817"
       height="1.5916127"><feGaussianBlur
         stdDeviation="0.204612"
         result="blur"
         id="feGaussianBlur14263" /><feComposite
         in="SourceGraphic"
         in2="blur"
         operator="in"
         result="composite1"
         id="feComposite14265" /><feComposite
         in="composite1"
         in2="composite1"
         operator="in"
         result="composite2"
         id="feComposite14267" /></filter><filter
       style="color-interpolation-filters:sRGB;"
       inkscape:label="Clean Edges"
       id="filter14269-6"
       x="-0.31154084"
       y="-0.29580634"
       width="1.6230817"
       height="1.5916127"><feGaussianBlur
         stdDeviation="0.204612"
         result="blur"
         id="feGaussianBlur14263-7" /><feComposite
         in="SourceGraphic"
         in2="blur"
         operator="in"
         result="composite1"
         id="feComposite14265-5" /><feComposite
         in="composite1"
         in2="composite1"
         operator="in"
         result="composite2"
         id="feComposite14267-3" /></filter></defs><g
     inkscape:label="Camada 1"
     inkscape:groupmode="layer"
     id="layer1"><path
       id="ellipse5"
       style="fill:#000000;fill-opacity:0.488185;stroke:none;stroke-width:0.494777;stroke-linecap:round;stroke-linejoin:round"
       d="M 54.244754 96.899001 A 19.832649 3.0376015 0 0 0 34.411855 99.936542 A 19.832649 3.0376015 0 0 0 54.244754 102.97408 A 19.832649 3.0376015 0 0 0 71.707772 101.37625 A 6.7877111 1.5360402 0 0 0 77.024244 101.95709 A 6.7877111 1.5360402 0 0 0 83.811944 100.42127 A 6.7877111 1.5360402 0 0 0 77.024244 98.885443 A 6.7877111 1.5360402 0 0 0 73.361935 99.127806 A 19.832649 3.0376015 0 0 0 54.244754 96.899001 z " /><rect
       style="fill:#0053ce;fill-opacity:1;stroke:#110077;stroke-width:1.87256;stroke-opacity:1"
       id="rect2199"
       width="10.092169"
       height="22.583548"
       x="37.963997"
       y="77.184982"
       ry="3.9738195" /><rect
       style="fill:#0053ce;fill-opacity:1;stroke:#110077;stroke-width:1.90289;stroke-opacity:1"
       id="rect2303"
       width="10.545374"
       height="22.318825"
       x="50.706406"
       y="77.261703"
       ry="3.9272389" /><path
       id="rect9714"
       style="fill:#0053ce;fill-opacity:1;stroke:#110077;stroke-width:2.75449;stroke-miterlimit:4;stroke-dasharray:none;stroke-opacity:1"
       d="m 35.461719,52.351734 c -1.241484,0.249862 -2.263852,0.934308 -2.585203,1.846162 L 28.45008,66.758569 c -0.274652,0.504741 -0.231307,1.006635 -0.350805,1.520024 l -0.332549,12.926115 c 0.630424,1.598583 2.897124,2.768565 4.782892,2.559639 2.017054,-0.168715 4.242784,-1.198075 3.942989,-3.539773 l 0.305502,-11.886777 c 1.622618,-4.270378 3.087149,-8.623857 4.608014,-12.938296 0.467412,-1.326321 -0.730128,-2.615562 -2.682917,-2.890873 l -1.478178,-0.209203 c -0.610256,-0.08604 -1.218945,-0.06111 -1.783278,0.05234 z"
       sodipodi:nodetypes="ccccccccccccc" /><path
       id="path11551"
       style="fill:#002766;fill-opacity:1;stroke:#110077;stroke-width:2.83319;stroke-miterlimit:4;stroke-dasharray:none;stroke-opacity:1"
       d="m 88.88999,57.27296 c -0.403344,1.404613 -1.217697,2.509261 -2.174079,2.781151 l -12.978119,3.76167 c -0.22324,0.06349 -0.83293,-0.634417 -1.040147,-0.66468 -0.305241,0.145731 -1.073295,0.994937 -1.379918,0.855142 L 58.932225,63.024377 c -1.376473,-0.107161 -2.104022,-2.030109 -1.633029,-4.309724 l 0.35424,-1.725226 c 0.470979,-2.279618 1.960308,-4.027597 3.336781,-3.920415 l 11.989841,0.933632 c 0.129997,-0.07121 0.262304,-0.127324 0.399004,-0.166135 l 13.176987,-3.74741 c 1.391086,-0.395458 2.540262,1.124805 2.577067,3.406274 l 0.02853,1.727053 c 0.01155,0.712962 -0.08839,1.412106 -0.271816,2.050545 z"
       sodipodi:nodetypes="cccccccccccccccc" /><path
       id="path13"
       style="fill:#002766;fill-opacity:1;stroke-width:2.04547"
       d="m 35.375992,67.721682 3.12453,-5.938498 -0.845948,-6.974041 -7.847832,14.012376 z"
       sodipodi:nodetypes="ccccc" /><path
       id="rect10"
       style="fill:#002766;stroke-width:1.53792"
       d="m 41.670093,80.298614 h 2.491115 c 1.676207,0 3.025647,1.41367 3.025647,3.169666 v 11.674142 c 0,1.755995 -1.205189,1.9133 -2.846823,2.268116 l -2.871115,0.620547 c -1.641634,0.354816 -2.824471,-1.132668 -2.824471,-2.888663 V 83.46828 c 0,-1.755996 1.349438,-3.169666 3.025647,-3.169666 z"
       sodipodi:nodetypes="sssssssss" /><path
       id="path10"
       style="fill:#002766;stroke-width:1.55856"
       d="m 54.675269,80.579617 h 2.558412 c 1.721493,0 3.107385,1.41367 3.107385,3.169666 v 11.674142 c 0,1.755995 -1.237745,1.9133 -2.923732,2.268116 l -2.948678,0.620547 C 52.782673,98.666904 51.567884,97.17942 51.567884,95.423425 V 83.749283 c 0,-1.755996 1.385892,-3.169666 3.107385,-3.169666 z"
       sodipodi:nodetypes="sssssssss" /><path
       id="rect9738"
       style="fill:#313131;fill-opacity:1;stroke:#000000;stroke-width:1.82844;stroke-miterlimit:4;stroke-dasharray:none;stroke-opacity:1"
       d="m 37.54509,53.171557 -0.696112,40.077515 c 0,0 2.425308,2.48797 3.989903,2.588385 3.922701,0.251754 9.629208,-3.663931 9.629208,-3.663931 0,0 3.388177,3.363233 5.933677,3.615838 2.407184,0.238862 3.714402,-1.676101 6.089778,-4.003163 2.375376,-2.327062 -1.00995,-24.829135 -0.822869,-36.892589 z"
       sodipodi:nodetypes="ccscszcc" /><path
       id="rect9"
       style="fill:#101010;fill-opacity:1;stroke-width:2.77497"
       d="m 38.815122,62.820557 14.830966,-1.509252 2.86215,25.478834 c 0.208193,1.853464 -9.736319,2.452156 -15.337813,0.495149 z"
       sodipodi:nodetypes="ccscc" /><path
       id="path34"
       style="fill:#101010;fill-opacity:1;stroke:none;stroke-width:1.40593;stroke-dasharray:none;stroke-opacity:1"
       d="m 37.66135,92.946236 c 2.102322,2.914711 4.923577,2.400664 7.937876,0.96595 l -0.547478,-38.179059 -7.253431,-1.17952 z"
       sodipodi:nodetypes="ccccc" /><path
       id="path9"
       style="fill:#101010;fill-opacity:1;stroke:none;stroke-width:1.7881;stroke-dasharray:none"
       d="m 60.699841,60.223645 c -0.02751,5.738732 -4.367571,6.703758 -11.316454,6.206562 -6.560195,-0.469385 -10.148735,-2.896694 -11.090154,-6.188187 -1.635245,-5.717325 4.513673,-5.914102 11.090154,-5.914102 6.576491,0 11.346193,-0.276571 11.316454,5.895727 z"
       sodipodi:nodetypes="sssss" /><g
       id="g15"
       transform="matrix(3.3740288,-0.39867924,0.41572828,3.4209762,4.5606381,14.227772)"><path
         id="rect2"
         style="fill:#800000;fill-opacity:1;stroke:#330000;stroke-width:0.428;stroke-dasharray:none;stroke-opacity:1"
         d="m 9.4570037,14.797702 h 1.7663953 l 0.652207,7.255805 -2.9621083,-0.02717 z"
         sodipodi:nodetypes="ccccc" /><path
         id="path35"
         style="fill:#ff0000;fill-opacity:1;stroke:none;stroke-width:0.428;stroke-dasharray:none;stroke-opacity:1"
         d="m 9.7068097,14.095592 0.7095243,-0.01922 0.0373,6.083639 -1.2903304,1.164212 z"
         sodipodi:nodetypes="ccccc" /></g><path
       d="m 72.317133,55.200625 c 3.62781,-0.505624 6.352874,-1.899965 6.872615,-1.504783 l 0.595358,1.146237 c 0.399968,0.304111 0.97344,1.258541 0.42094,1.645233 l -1.729119,0.321207 c -1.302588,0.695211 -2.482648,1.952697 -4.649431,2.374774 -0.401823,-0.26399 -11.967972,-4.464268 -11.464455,-4.909734 z"
       style="fill:#0053ce;fill-opacity:1;stroke:none;stroke-width:0.924475"
       id="path1"
       sodipodi:nodetypes="cccccccc" /><path
       id="ellipse1"
       style="fill:#ff0000;stroke:#4e0600;stroke-width:1.95186;stroke-dasharray:none"
       d="m 61.033969,56.452135 c -0.918224,3.713507 -4.935597,6.399759 -11.897549,6.399759 -6.961945,0 -10.743572,-3.260483 -11.740169,-6.965346 -1.731091,-6.435344 4.778227,-6.656837 11.740169,-6.656837 6.961952,0 13.628642,0.221493 11.897549,7.222424 z"
       sodipodi:nodetypes="sssss" /><path
       id="path6"
       style="fill:#690006;fill-opacity:1;stroke:none;stroke-width:1.28687;stroke-dasharray:none"
       d="m 51.470653,56.044972 c -0.517394,2.864704 -2.781076,4.936957 -6.703953,4.936957 -3.922867,0 -6.053716,-2.515231 -6.615272,-5.373266 -0.975423,-4.964407 2.692405,-5.135278 6.615272,-5.135278 3.922877,0 7.679375,0.170857 6.703953,5.571587 z"
       sodipodi:nodetypes="sssss" /><path
       id="path2"
       style="fill:#ff2c2a;fill-opacity:1;stroke:none;stroke-width:1.48062;stroke-dasharray:none"
       d="m 59.978873,55.479108 c -0.772572,2.539703 -4.152698,4.376861 -10.010336,4.376861 -5.85762,0 -9.039401,-2.229878 -9.877915,-4.76367 -1.4565,-4.401194 4.020295,-4.552681 9.877915,-4.552681 5.857638,0 11.466836,0.151487 10.010336,4.93949 z"
       sodipodi:nodetypes="sssss" /><ellipse
       style="fill:#0053ce;fill-opacity:1;stroke:#110077;stroke-width:1.0283;stroke-miterlimit:4;stroke-dasharray:none;stroke-opacity:1"
       id="path11105"
       cx="48.75106"
       cy="51.712818"
       rx="8.3992338"
       ry="6.6100922" /><path
       id="ellipse2"
       style="fill:#002766;stroke-width:0.917155"
       d="m 40.545162,50.983448 c 0.330951,4.449265 6.078851,4.772601 10.996553,4.581131 4.47212,-0.174124 5.792002,-3.181034 5.374744,-6.163307 -0.417258,-2.982273 -4.433419,-5.035466 -8.866623,-4.435034 -4.433205,0.600433 -7.727998,3.015025 -7.504674,6.01721 z"
       sodipodi:nodetypes="sssss" /><g
       id="g12"
       transform="matrix(3.8719398,0.42279022,-0.38294948,3.5708459,-63.386614,-13.227787)"><path
         id="path15"
         style="fill:#ffffff;fill-opacity:1;stroke:#191414;stroke-width:0.444;stroke-dasharray:none"
         d="M 35.414568,3.0001364 36.619809,1.3389155 37.945571,6.67603 36.860855,7.771729 Z"
         sodipodi:nodetypes="ccccc" /><rect
         style="fill:#ffffff;stroke:#191414;stroke-width:0.549;stroke-miterlimit:4;stroke-dasharray:none;stroke-opacity:1"
         id="rect2963"
         width="2.00069"
         height="17.948395"
         x="37.498688"
         y="7.6114192"
         ry="0.56545579" /><path
         id="path7"
         style="fill:#ffffff;fill-opacity:1;stroke:#191414;stroke-width:0.444;stroke-dasharray:none"
         d="M 41.827767,2.8848413 40.622526,1.2236204 39.296764,6.5607349 40.38148,7.6564339 Z"
         sodipodi:nodetypes="ccccc" /><g
         id="g6"
         transform="matrix(-1.7902656,0,0,-1.7323616,90.68463,20.999998)"
         style="stroke-width:0.283917;stroke-dasharray:none"><rect
           style="fill:#ffffff;stroke:#191414;stroke-width:0.283917;stroke-miterlimit:4;stroke-dasharray:none;stroke-opacity:1"
           id="rect5"
           width="2.418293"
           height="0.53468895"
           x="27.855507"
           y="7.3858442"
           ry="0.25027269" /><rect
           style="fill:#ffffff;stroke:#191414;stroke-width:0.283917;stroke-miterlimit:4;stroke-dasharray:none;stroke-opacity:1"
           id="rect6"
           width="2.895308"
           height="0.70425063"
           x="27.631411"
           y="7.8246946"
           ry="0.3296397" /></g><g
         id="g22"
         transform="matrix(1.7884929,0.07707202,-0.07964813,1.7306462,-12.882346,5.0543937)"><path
           id="path17"
           style="fill:#861414;fill-opacity:1;stroke:#191414;stroke-width:0.192"
           d="m 29.179479,1.3621619 c 0,0.1894821 -0.12582,0.6505412 -0.328434,0.6505415 -0.202615,2e-7 -0.405299,-0.461059 -0.405299,-0.6505415 0,-0.1894825 0.164252,-0.3430884 0.366867,-0.3430882 0.202615,3e-7 0.366866,0.153606 0.366866,0.3430882 z"
           sodipodi:nodetypes="sssss" /><path
           id="path18"
           style="fill:#4d4d4d;stroke:#191414;stroke-width:0.192"
           d="m 28.357427,0.89338797 c 0,0.18948213 0.220065,0.48720663 0.01745,0.48720693 -0.202615,2e-7 -0.751184,-0.2977244 -0.751184,-0.48720693 0,-0.18948251 0.164252,-0.34308838 0.366867,-0.34308815 0.202615,2.9e-7 0.366866,0.153606 0.366867,0.34308815 z"
           sodipodi:nodetypes="sssss" /><path
           id="path19"
           style="fill:#4d4d4d;stroke:#191414;stroke-width:0.192"
           d="m 29.960769,0.80506825 c 0,0.18948215 -0.471705,0.48720665 -0.674319,0.48720695 -0.202615,2e-7 -0.05941,-0.29772444 -0.05941,-0.48720695 0,-0.18948251 0.164252,-0.34308838 0.366867,-0.34308815 0.202615,2.9e-7 0.366866,0.153606 0.366866,0.34308815 z"
           sodipodi:nodetypes="sssss" /><path
           id="path20"
           style="fill:#df2e2e;fill-opacity:1;stroke:none;stroke-width:0.0965249"
           d="m 29.044968,1.3211899 c 0,0.097872 -0.06157,0.3360203 -0.160706,0.3360204 -0.09914,1e-7 -0.198318,-0.2381481 -0.198318,-0.3360204 0,-0.097872 0.08037,-0.1772134 0.179512,-0.1772133 0.09915,2e-7 0.179512,0.079341 0.179512,0.1772133 z"
           sodipodi:nodetypes="sssss" /><path
           id="path21"
           style="fill:#7f7f7f;fill-opacity:1;stroke:none;stroke-width:0.0784491"
           d="m 28.149614,0.69865723 c 0.05242,0.0598357 0.142334,0.23840606 0.08174,0.29149337 -0.0606,0.053093 -0.248779,-0.0393931 -0.301199,-0.099229 -0.05242,-0.0598357 -0.04579,-0.15137913 0.01482,-0.2044742 0.06061,-0.053099 0.152226,-0.0476261 0.204647,0.0122098 z"
           sodipodi:nodetypes="sssss" /><path
           id="path22"
           style="fill:#7f7f7f;fill-opacity:1;stroke:none;stroke-width:0.0784491"
           d="m 29.428341,0.62179387 c -0.05242,0.0598357 -0.142334,0.23840606 -0.08174,0.29149337 0.0606,0.053093 0.248779,-0.0393931 0.301199,-0.099229 0.05242,-0.0598357 0.04579,-0.15137913 -0.01482,-0.2044742 -0.06061,-0.053099 -0.152226,-0.0476261 -0.204647,0.0122098 z"
           sodipodi:nodetypes="sssss" /></g><rect
         style="fill:#ffffff;stroke:#191414;stroke-width:0.421;stroke-miterlimit:4;stroke-dasharray:none;stroke-opacity:1"
         id="rect4"
         width="4.2497587"
         height="0.9376806"
         x="36.37653"
         y="22.523273"
         ry="0.43890166" /><rect
         style="fill:#ffffff;stroke:#191414;stroke-width:0.478;stroke-miterlimit:4;stroke-dasharray:none;stroke-opacity:1"
         id="rect3"
         width="5.0880356"
         height="1.2350399"
         x="35.982716"
         y="23.292883"
         ry="0.57808709" /><g
         id="g28"
         transform="matrix(1.7555982,-0.07802106,-0.07818321,-1.7519572,-12.018157,25.578561)"><path
           id="path23"
           style="fill:#861414;fill-opacity:1;stroke:#191414;stroke-width:0.192"
           d="m 29.179479,1.3621619 c 0,0.1894821 -0.12582,0.6505412 -0.328434,0.6505415 -0.202615,2e-7 -0.405299,-0.461059 -0.405299,-0.6505415 0,-0.1894825 0.164252,-0.3430884 0.366867,-0.3430882 0.202615,3e-7 0.366866,0.153606 0.366866,0.3430882 z"
           sodipodi:nodetypes="sssss" /><path
           id="path24"
           style="fill:#4d4d4d;stroke:#191414;stroke-width:0.192"
           d="m 28.357427,0.89338797 c 0,0.18948213 0.220065,0.48720663 0.01745,0.48720693 -0.202615,2e-7 -0.751184,-0.2977244 -0.751184,-0.48720693 0,-0.18948251 0.164252,-0.34308838 0.366867,-0.34308815 0.202615,2.9e-7 0.366866,0.153606 0.366867,0.34308815 z"
           sodipodi:nodetypes="sssss" /><path
           id="path25"
           style="fill:#4d4d4d;stroke:#191414;stroke-width:0.192"
           d="m 29.960769,0.80506825 c 0,0.18948215 -0.471705,0.48720665 -0.674319,0.48720695 -0.202615,2e-7 -0.05941,-0.29772444 -0.05941,-0.48720695 0,-0.18948251 0.164252,-0.34308838 0.366867,-0.34308815 0.202615,2.9e-7 0.366866,0.153606 0.366866,0.34308815 z"
           sodipodi:nodetypes="sssss" /><path
           id="path26"
           style="fill:#df2e2e;fill-opacity:1;stroke:none;stroke-width:0.0965249"
           d="m 29.044968,1.3211899 c 0,0.097872 -0.06157,0.3360203 -0.160706,0.3360204 -0.09914,1e-7 -0.198318,-0.2381481 -0.198318,-0.3360204 0,-0.097872 0.08037,-0.1772134 0.179512,-0.1772133 0.09915,2e-7 0.179512,0.079341 0.179512,0.1772133 z"
           sodipodi:nodetypes="sssss" /><path
           id="path27"
           style="fill:#7f7f7f;fill-opacity:1;stroke:none;stroke-width:0.0784491"
           d="m 28.149614,0.69865723 c 0.05242,0.0598357 0.142334,0.23840606 0.08174,0.29149337 -0.0606,0.053093 -0.248779,-0.0393931 -0.301199,-0.099229 -0.05242,-0.0598357 -0.04579,-0.15137913 0.01482,-0.2044742 0.06061,-0.053099 0.152226,-0.0476261 0.204647,0.0122098 z"
           sodipodi:nodetypes="sssss" /><path
           id="path28"
           style="fill:#7f7f7f;fill-opacity:1;stroke:none;stroke-width:0.0784491"
           d="m 29.428341,0.62179387 c -0.05242,0.0598357 -0.142334,0.23840606 -0.08174,0.29149337 0.0606,0.053093 0.248779,-0.0393931 0.301199,-0.099229 0.05242,-0.0598357 0.04579,-0.15137913 -0.01482,-0.2044742 -0.06061,-0.053099 -0.152226,-0.0476261 -0.204647,0.0122098 z"
           sodipodi:nodetypes="sssss" /></g></g><g
       id="g11"
       transform="matrix(3.5018484,0.47012953,-0.48422923,3.3998823,8.809066,-1.2073299)"><path
         d="m 23.932572,11.908702 c -0.02779,-9.52e-4 -0.05362,0.0032 -0.07752,0.01292 l -1.456759,0.594279 c -0.382288,0.155903 -1.121078,0.464503 -1.102258,0.89762 l 0.05478,1.254704 c 0.01882,0.433116 0.251076,1.314771 0.654224,1.261421 l 2.095479,-0.276985 c 0.403149,-0.05335 1.050282,-0.823093 1.053682,-1.257288 l 0.0072,-0.910539 c 0.0032,-0.407058 -0.811987,-1.561847 -1.228865,-1.576131 z"
         style="fill:#002766;fill-opacity:1;stroke:#110077;stroke-width:0.882;stroke-dasharray:none;stroke-opacity:1"
         id="path32" /><path
         d="m 22.748216,12.894898 c 0.0099,-0.0085 0.02054,-0.01564 0.03207,-0.02104 l 0.703245,-0.32889 c 0.184536,-0.08632 0.543255,-0.251738 0.661003,-0.163506 l 0.273749,0.29412 c 0.117747,0.08823 0.286572,0.365134 0.123921,0.477323 l -0.778059,0.506327 c -0.162645,0.112192 -0.620568,0.161932 -0.746743,0.08024 l -0.264665,-0.171267 c -0.118293,-0.07659 -0.152731,-0.544011 -0.0045,-0.673252 z"
         style="fill:#0053ce;fill-opacity:1;stroke:none;stroke-width:0.270178"
         id="path33"
         sodipodi:nodetypes="ccccccccccc" /></g><path
       id="rect8"
       style="fill:#002766;fill-opacity:1;stroke-width:2.11856"
       d="m 35.993246,66.217005 -0.548808,3.41431 -0.40077,12.310592 -5.157762,-13.278682 z"
       sodipodi:nodetypes="ccccc" /><ellipse
       style="fill:#002766;fill-opacity:1;stroke:#110077;stroke-width:3.04534;stroke-miterlimit:4;stroke-dasharray:none;stroke-opacity:1"
       id="path9279"
       cx="-48.577991"
       cy="31.879896"
       rx="20.350412"
       ry="20.520233"
       transform="scale(-1,1)" /><ellipse
       style="fill:#0053ce;fill-opacity:1;stroke:none;stroke-width:1.01385;stroke-miterlimit:4;stroke-dasharray:none;stroke-opacity:1"
       id="ellipse9379"
       cx="-46.5951"
       cy="31.440416"
       rx="16.798279"
       ry="17.097231"
       transform="scale(-1,1)" /><ellipse
       style="fill:#1e78ff;fill-opacity:1;stroke:none;stroke-width:2.69915;stroke-dasharray:none;stroke-opacity:1"
       id="path11"
       cx="-48.531689"
       cy="-9.5323429"
       rx="9.7644262"
       ry="13.08782"
       transform="matrix(-0.72017668,-0.69379071,-0.68735514,0.72632149,0,0)" /><path
       id="path9421"
       style="fill:#ffffff;fill-opacity:1;stroke:#002865;stroke-width:1.68358;stroke-miterlimit:4;stroke-dasharray:none;stroke-opacity:1"
       d="m 56.312184,27.016537 c 0.735742,1.365414 1.174897,2.987042 1.262273,4.661064 0.244407,4.689164 -2.27469,8.605808 -5.626762,8.748384 -3.352079,0.142463 -6.267892,-3.543105 -6.512889,-8.232246 -0.08734,-1.674023 0.181,-3.325729 0.771289,-4.747523 2.60557,-1.734485 6.531651,-1.504419 10.106089,-0.429679 z"
       sodipodi:nodetypes="cccccc" /><path
       id="path3"
       style="fill:#ffffff;fill-opacity:1;stroke:#002865;stroke-width:1.68358;stroke-miterlimit:4;stroke-dasharray:none;stroke-opacity:1"
       d="m 41.781876,27.358338 c 0.73574,1.365416 1.174897,2.987042 1.262273,4.661063 0.244405,4.689165 -2.274691,8.605808 -5.626761,8.748384 -3.352075,0.142463 -6.267889,-3.543105 -6.512885,-8.232244 -0.08734,-1.674023 0.180999,-3.325731 0.77129,-4.747525 6.158526,-2.04976 7.589731,-1.163601 10.106083,-0.429678 z"
       sodipodi:nodetypes="cccccc" /><path
       id="path14"
       style="fill:#818181;fill-opacity:1;stroke:none;stroke-width:1.1665;stroke-miterlimit:4;stroke-dasharray:none;stroke-opacity:1"
       d="m 55.844311,27.832326 a 7.4848712,5.320249 86.448275 0 1 1.106582,4.103143 7.4848712,5.320249 86.448275 0 1 -4.925872,7.699702 7.4848712,5.320249 86.448275 0 1 -4.483308,-2.937136 6.897325,6.8310774 43.220768 0 0 2.056418,0.224527 6.897325,6.8310774 43.220768 0 0 6.498957,-7.147567 6.897325,6.8310774 43.220768 0 0 -0.38476,-1.937058 z" /><path
       id="path5"
       style="fill:#818181;fill-opacity:1;stroke:none;stroke-width:1.1665;stroke-miterlimit:4;stroke-dasharray:none;stroke-opacity:1"
       d="m 41.315803,28.15731 a 7.4848712,5.320249 86.448275 0 1 1.106582,4.103142 7.4848712,5.320249 86.448275 0 1 -4.925871,7.699702 7.4848712,5.320249 86.448275 0 1 -4.483305,-2.937135 6.897325,6.8310774 43.220768 0 0 2.056417,0.224527 6.897325,6.8310774 43.220768 0 0 6.498953,-7.147567 6.897325,6.8310774 43.220768 0 0 -0.384761,-1.937057 z" /><ellipse
       style="fill:#110077;fill-opacity:1;stroke:none;stroke-width:3.74663"
       id="ellipse7"
       cx="-34.280453"
       cy="34.661453"
       rx="3.9069963"
       ry="4.1158042"
       transform="matrix(-0.99909738,0.04247844,0.05211361,0.99864116,0,0)" /><path
       id="path8"
       style="fill:#2300ec;fill-opacity:1;stroke:none;stroke-width:3.74654"
       d="m 38.195314,29.748237 a 4.1175337,3.9051733 82.036295 0 1 1.763379,3.24445 4.1175337,3.9051733 82.036295 0 1 -3.68924,4.275982 4.1175337,3.9051733 82.036295 0 1 -3.389141,-1.759609 4.1175337,3.9051733 82.036295 0 0 2.353004,0.699662 4.1175337,3.9051733 82.036295 0 0 3.689237,-4.275982 4.1175337,3.9051733 82.036295 0 0 -0.727239,-2.184503 z" /><ellipse
       style="fill:#ffffff;fill-opacity:1;stroke:none;stroke-width:1.48804"
       id="circle8"
       cx="-31.560726"
       cy="34.784054"
       rx="1.5768764"
       ry="1.6085924"
       transform="matrix(-0.99909738,0.04247844,0.05211361,0.99864116,0,0)" /><ellipse
       style="fill:#110077;fill-opacity:1;stroke:none;stroke-width:3.86731"
       id="ellipse3"
       cx="-48.948757"
       cy="34.640244"
       rx="3.9586644"
       ry="4.3279858"
       transform="matrix(-0.99909738,0.04247844,0.05211361,0.99864116,0,0)" /><path
       id="path4"
       style="fill:#2300ec;fill-opacity:1;stroke:none;stroke-width:3.86722"
       d="m 52.870945,28.931941 a 4.3290132,3.9575401 84.194768 0 1 1.793324,3.414304 4.3290132,3.9575401 84.194768 0 1 -3.729808,4.490058 4.3290132,3.9575401 84.194768 0 1 -3.437759,-1.855683 4.3290132,3.9575401 84.194768 0 0 2.385716,0.739498 4.3290132,3.9575401 84.194768 0 0 3.729805,-4.490058 4.3290132,3.9575401 84.194768 0 0 -0.741278,-2.298119 z" /><ellipse
       style="fill:#ffffff;fill-opacity:1;stroke:none;stroke-width:1.53598"
       id="ellipse4"
       cx="-46.195755"
       cy="34.49036"
       rx="1.5977299"
       ry="1.6915199"
       transform="matrix(-0.99909738,0.04247844,0.05211361,0.99864116,0,0)" /></g></svg>
