<?xml version="1.0" encoding="UTF-8" standalone="no"?>
<!-- Created with Inkscape (http://www.inkscape.org/) -->

<svg
   width="400"
   height="400"
   viewBox="0 0 105.83334 105.83334"
   version="1.1"
   id="svg1"
   inkscape:version="1.4.2 (ebf0e940d0, 2025-05-08)"
   sodipodi:docname="7.svg"
   xml:space="preserve"
   xmlns:inkscape="http://www.inkscape.org/namespaces/inkscape"
   xmlns:sodipodi="http://sodipodi.sourceforge.net/DTD/sodipodi-0.dtd"
   xmlns="http://www.w3.org/2000/svg"
   xmlns:svg="http://www.w3.org/2000/svg"><sodipodi:namedview
     id="namedview1"
     pagecolor="#505050"
     bordercolor="#eeeeee"
     borderopacity="1"
     inkscape:showpageshadow="0"
     inkscape:pageopacity="0"
     inkscape:pagecheckerboard="0"
     inkscape:deskcolor="#505050"
     inkscape:document-units="px"
     inkscape:zoom="2.4945156"
     inkscape:cx="169.37156"
     inkscape:cy="178.19091"
     inkscape:window-width="1366"
     inkscape:window-height="697"
     inkscape:window-x="0"
     inkscape:window-y="0"
     inkscape:window-maximized="1"
     inkscape:current-layer="layer1" /><defs
     id="defs1"><linearGradient
       id="linearGradient13895"
       inkscape:swatch="solid"><stop
         style="stop-color:#000000;stop-opacity:1;"
         offset="0"
         id="stop13893" /></linearGradient><filter
       style="color-interpolation-filters:sRGB;"
       inkscape:label="Clean Edges"
       id="filter14269"
       x="-0.31154084"
       y="-0.29580634"
       width="1.6230817"
       height="1.5916127"><feGaussianBlur
         stdDeviation="0.204612"
         result="blur"
         id="feGaussianBlur14263" /><feComposite
         in="SourceGraphic"
         in2="blur"
         operator="in"
         result="composite1"
         id="feComposite14265" /><feComposite
         in="composite1"
         in2="composite1"
         operator="in"
         result="composite2"
         id="feComposite14267" /></filter><filter
       style="color-interpolation-filters:sRGB;"
       inkscape:label="Clean Edges"
       id="filter14269-6"
       x="-0.31154084"
       y="-0.29580634"
       width="1.6230817"
       height="1.5916127"><feGaussianBlur
         stdDeviation="0.204612"
         result="blur"
         id="feGaussianBlur14263-7" /><feComposite
         in="SourceGraphic"
         in2="blur"
         operator="in"
         result="composite1"
         id="feComposite14265-5" /><feComposite
         in="composite1"
         in2="composite1"
         operator="in"
         result="composite2"
         id="feComposite14267-3" /></filter></defs><g
     inkscape:label="Camada 1"
     inkscape:groupmode="layer"
     id="layer1"><ellipse
       style="fill:#000000;fill-opacity:0.488185;stroke:none;stroke-width:0.659637;stroke-linecap:round;stroke-linejoin:round"
       id="ellipse5"
       cx="80.178062"
       cy="100.30608"
       rx="10.288537"
       ry="1.8012053" /><ellipse
       style="fill:#000000;fill-opacity:0.488185;stroke:none;stroke-width:1.1246;stroke-linecap:round;stroke-linejoin:round"
       id="path12"
       cx="52.144653"
       cy="99.936409"
       rx="17.732649"
       ry="3.0376015" /><rect
       style="fill:#0053ce;fill-opacity:1;stroke:#110077;stroke-width:1.87256;stroke-opacity:1"
       id="rect2199"
       width="10.092169"
       height="22.583548"
       x="37.963997"
       y="77.184982"
       ry="3.9738195" /><rect
       style="fill:#0053ce;fill-opacity:1;stroke:#110077;stroke-width:1.90289;stroke-opacity:1"
       id="rect2303"
       width="10.545374"
       height="22.318825"
       x="50.706406"
       y="77.261703"
       ry="3.9272389" /><path
       id="rect9714"
       style="fill:#0053ce;fill-opacity:1;stroke:#110077;stroke-width:2.75449;stroke-miterlimit:4;stroke-dasharray:none;stroke-opacity:1"
       d="m 35.461719,52.351734 c -1.241484,0.249862 -2.263852,0.934308 -2.585203,1.846162 L 28.45008,66.758569 c -0.274652,0.504741 -0.231307,1.006635 -0.350805,1.520024 l -0.332549,12.926115 c 0.630424,1.598583 2.897124,2.768565 4.782892,2.559639 2.017054,-0.168715 4.242784,-1.198075 3.942989,-3.539773 l 0.305502,-11.886777 c 1.622618,-4.270378 3.087149,-8.623857 4.608014,-12.938296 0.467412,-1.326321 -0.730128,-2.615562 -2.682917,-2.890873 l -1.478178,-0.209203 c -0.610256,-0.08604 -1.218945,-0.06111 -1.783278,0.05234 z"
       sodipodi:nodetypes="ccccccccccccc" /><path
       id="path11551"
       style="fill:#002766;fill-opacity:1;stroke:#110077;stroke-width:2.83319;stroke-miterlimit:4;stroke-dasharray:none;stroke-opacity:1"
       d="m 88.88999,57.27296 c -0.403344,1.404613 -1.217697,2.509261 -2.174079,2.781151 l -12.978119,3.76167 c -0.22324,0.06349 -0.83293,-0.634417 -1.040147,-0.66468 -0.305241,0.145731 -1.073295,0.994937 -1.379918,0.855142 L 58.932225,63.024377 c -1.376473,-0.107161 -2.104022,-2.030109 -1.633029,-4.309724 l 0.35424,-1.725226 c 0.470979,-2.279618 1.960308,-4.027597 3.336781,-3.920415 l 11.989841,0.933632 c 0.129997,-0.07121 0.262304,-0.127324 0.399004,-0.166135 l 13.176987,-3.74741 c 1.391086,-0.395458 2.540262,1.124805 2.577067,3.406274 l 0.02853,1.727053 c 0.01155,0.712962 -0.08839,1.412106 -0.271816,2.050545 z"
       sodipodi:nodetypes="cccccccccccccccc" /><path
       id="path13"
       style="fill:#002766;fill-opacity:1;stroke-width:1.89906"
       d="M 35.80727,67.721682 38.500522,61.783184 37.77134,54.809143 31.006742,68.821519 Z"
       sodipodi:nodetypes="ccccc" /><path
       id="rect10"
       style="fill:#002766;stroke-width:1.53792"
       d="m 41.670093,80.298614 h 2.491115 c 1.676207,0 3.025647,1.41367 3.025647,3.169666 v 11.674142 c 0,1.755995 -1.205189,1.9133 -2.846823,2.268116 l -2.871115,0.620547 c -1.641634,0.354816 -2.824471,-1.132668 -2.824471,-2.888663 V 83.46828 c 0,-1.755996 1.349438,-3.169666 3.025647,-3.169666 z"
       sodipodi:nodetypes="sssssssss" /><path
       id="path10"
       style="fill:#002766;stroke-width:1.55856"
       d="m 54.675269,80.579617 h 2.558412 c 1.721493,0 3.107385,1.41367 3.107385,3.169666 v 11.674142 c 0,1.755995 -1.237745,1.9133 -2.923732,2.268116 l -2.948678,0.620547 C 52.782673,98.666904 51.567884,97.17942 51.567884,95.423425 V 83.749283 c 0,-1.755996 1.385892,-3.169666 3.107385,-3.169666 z"
       sodipodi:nodetypes="sssssssss" /><path
       id="rect9738"
       style="fill:#313131;fill-opacity:1;stroke:#000000;stroke-width:1.82844;stroke-miterlimit:4;stroke-dasharray:none;stroke-opacity:1"
       d="m 37.54509,53.171557 -0.696112,40.077515 c 0,0 2.425308,2.48797 3.989903,2.588385 3.922701,0.251754 10.053472,-5.467053 10.053472,-5.467053 0,0 2.963913,5.166355 5.509413,5.41896 2.407184,0.238862 6.089778,-4.003163 6.089778,-4.003163 -1.174248,-12.754125 -1.00995,-24.829135 -0.822869,-36.892589 z"
       sodipodi:nodetypes="ccscsccc" /><path
       id="rect9"
       style="fill:#101010;fill-opacity:1;stroke-width:2.13715"
       d="m 39.790122,62.820557 8.796781,-1.509252 1.697644,25.478834 c 0.123487,1.853464 -5.774962,2.452156 -9.09741,0.495149 z"
       sodipodi:nodetypes="ccscc" /><path
       id="path34"
       style="fill:#101010;fill-opacity:1;stroke:none;stroke-width:1.40593;stroke-dasharray:none;stroke-opacity:1"
       d="m 37.66135,92.946236 2.767157,2.000094 4.623241,-39.213203 -7.253431,-1.17952 z"
       sodipodi:nodetypes="ccccc" /><path
       id="path9"
       style="fill:#101010;fill-opacity:1;stroke:none;stroke-width:1.7881;stroke-dasharray:none"
       d="m 60.699841,60.223645 c -0.02751,5.738732 -4.367571,6.703758 -11.316454,6.206562 -6.560195,-0.469385 -10.148735,-2.896694 -11.090154,-6.188187 -1.635245,-5.717325 4.513673,-5.914102 11.090154,-5.914102 6.576491,0 11.346193,-0.276571 11.316454,5.895727 z"
       sodipodi:nodetypes="sssss" /><g
       id="g15"
       transform="matrix(3.3929028,0.17670977,-0.167832,3.4420547,11.850159,8.4265863)"><path
         id="rect2"
         style="fill:#800000;fill-opacity:1;stroke:#330000;stroke-width:0.428;stroke-dasharray:none;stroke-opacity:1"
         d="m 9.4570037,14.797702 h 1.7663953 l 0.652207,7.255805 -2.9621083,-0.02717 z"
         sodipodi:nodetypes="ccccc" /><path
         id="path35"
         style="fill:#ff0000;fill-opacity:1;stroke:none;stroke-width:0.428;stroke-dasharray:none;stroke-opacity:1"
         d="m 9.7068097,14.095592 0.7095243,-0.01922 0.0373,6.083639 -1.2903304,1.164212 z"
         sodipodi:nodetypes="ccccc" /></g><path
       d="m 72.317133,55.200625 c 3.62781,-0.505624 6.352874,-1.899965 6.872615,-1.504783 l 0.595358,1.146237 c 0.399968,0.304111 0.97344,1.258541 0.42094,1.645233 l -1.729119,0.321207 c -1.302588,0.695211 -2.482648,1.952697 -4.649431,2.374774 -0.401823,-0.26399 -11.967972,-4.464268 -11.464455,-4.909734 z"
       style="fill:#0053ce;fill-opacity:1;stroke:none;stroke-width:0.924475"
       id="path1"
       sodipodi:nodetypes="cccccccc" /><path
       id="ellipse1"
       style="fill:#ff0000;stroke:#4e0600;stroke-width:1.98802;stroke-dasharray:none"
       d="m 62.012436,56.451045 c -0.955094,3.703664 -5.13378,6.382796 -12.375281,6.382796 -7.241493,0 -11.174967,-3.251841 -12.211581,-6.946884 -1.8006,-6.418288 4.970091,-6.639193 12.211581,-6.639193 7.241501,0 14.175884,0.220905 12.375281,7.203281 z"
       sodipodi:nodetypes="sssss" /><path
       id="path6"
       style="fill:#690006;fill-opacity:1;stroke:none;stroke-width:1.44682;stroke-dasharray:none"
       d="m 55.029407,56.044972 c -0.654004,2.864704 -3.515373,4.936957 -8.474022,4.936957 -4.958636,0 -7.6521,-2.515231 -8.361926,-5.373266 -1.232967,-4.964407 3.40329,-5.135278 8.361926,-5.135278 4.958649,0 9.706988,0.170857 8.474022,5.571587 z"
       sodipodi:nodetypes="sssss" /><path
       id="path2"
       style="fill:#ff2c2a;fill-opacity:1;stroke:none;stroke-width:1.35451;stroke-dasharray:none"
       d="m 60.97151,55.479108 c -0.646572,2.539703 -3.47543,4.376861 -8.377739,4.376861 -4.902295,0 -7.565156,-2.229878 -8.266916,-4.76367 -1.218958,-4.401194 3.364621,-4.552681 8.266916,-4.552681 4.902309,0 9.596697,0.151487 8.377739,4.93949 z"
       sodipodi:nodetypes="sssss" /><ellipse
       style="fill:#0053ce;fill-opacity:1;stroke:#110077;stroke-width:1.0283;stroke-miterlimit:4;stroke-dasharray:none;stroke-opacity:1"
       id="path11105"
       cx="49.87606"
       cy="51.712818"
       rx="8.3992338"
       ry="6.6100922" /><path
       id="ellipse2"
       style="fill:#002766;stroke-width:0.917155"
       d="m 42.132663,50.983448 c 0.330951,4.449265 6.078851,4.772601 10.996553,4.581131 4.47212,-0.174124 5.792002,-3.181034 5.374744,-6.163307 -0.417258,-2.982273 -4.433419,-5.035466 -8.866623,-4.435034 -4.433205,0.600433 -7.727998,3.015025 -7.504674,6.01721 z"
       sodipodi:nodetypes="sssss" /><g
       id="g12"
       transform="matrix(3.8852613,0.27461675,-0.24630352,3.5828655,-63.169425,-2.331746)"><path
         id="path15"
         style="fill:#ffffff;fill-opacity:1;stroke:#191414;stroke-width:0.444;stroke-dasharray:none"
         d="M 35.414568,3.0001364 36.619809,1.3389155 37.945571,6.67603 36.860855,7.771729 Z"
         sodipodi:nodetypes="ccccc" /><rect
         style="fill:#ffffff;stroke:#191414;stroke-width:0.549;stroke-miterlimit:4;stroke-dasharray:none;stroke-opacity:1"
         id="rect2963"
         width="2.00069"
         height="17.948395"
         x="37.498688"
         y="7.6114192"
         ry="0.56545579" /><path
         id="path7"
         style="fill:#ffffff;fill-opacity:1;stroke:#191414;stroke-width:0.444;stroke-dasharray:none"
         d="M 41.827767,2.8848413 40.622526,1.2236204 39.296764,6.5607349 40.38148,7.6564339 Z"
         sodipodi:nodetypes="ccccc" /><g
         id="g6"
         transform="matrix(-1.7902656,0,0,-1.7323616,90.68463,20.999998)"
         style="stroke-width:0.283917;stroke-dasharray:none"><rect
           style="fill:#ffffff;stroke:#191414;stroke-width:0.283917;stroke-miterlimit:4;stroke-dasharray:none;stroke-opacity:1"
           id="rect5"
           width="2.418293"
           height="0.53468895"
           x="27.855507"
           y="7.3858442"
           ry="0.25027269" /><rect
           style="fill:#ffffff;stroke:#191414;stroke-width:0.283917;stroke-miterlimit:4;stroke-dasharray:none;stroke-opacity:1"
           id="rect6"
           width="2.895308"
           height="0.70425063"
           x="27.631411"
           y="7.8246946"
           ry="0.3296397" /></g><g
         id="g22"
         transform="matrix(1.7884929,0.07707202,-0.07964813,1.7306462,-12.882346,5.0543937)"><path
           id="path17"
           style="fill:#861414;fill-opacity:1;stroke:#191414;stroke-width:0.192"
           d="m 29.179479,1.3621619 c 0,0.1894821 -0.12582,0.6505412 -0.328434,0.6505415 -0.202615,2e-7 -0.405299,-0.461059 -0.405299,-0.6505415 0,-0.1894825 0.164252,-0.3430884 0.366867,-0.3430882 0.202615,3e-7 0.366866,0.153606 0.366866,0.3430882 z"
           sodipodi:nodetypes="sssss" /><path
           id="path18"
           style="fill:#4d4d4d;stroke:#191414;stroke-width:0.192"
           d="m 28.357427,0.89338797 c 0,0.18948213 0.220065,0.48720663 0.01745,0.48720693 -0.202615,2e-7 -0.751184,-0.2977244 -0.751184,-0.48720693 0,-0.18948251 0.164252,-0.34308838 0.366867,-0.34308815 0.202615,2.9e-7 0.366866,0.153606 0.366867,0.34308815 z"
           sodipodi:nodetypes="sssss" /><path
           id="path19"
           style="fill:#4d4d4d;stroke:#191414;stroke-width:0.192"
           d="m 29.960769,0.80506825 c 0,0.18948215 -0.471705,0.48720665 -0.674319,0.48720695 -0.202615,2e-7 -0.05941,-0.29772444 -0.05941,-0.48720695 0,-0.18948251 0.164252,-0.34308838 0.366867,-0.34308815 0.202615,2.9e-7 0.366866,0.153606 0.366866,0.34308815 z"
           sodipodi:nodetypes="sssss" /><path
           id="path20"
           style="fill:#df2e2e;fill-opacity:1;stroke:none;stroke-width:0.0965249"
           d="m 29.044968,1.3211899 c 0,0.097872 -0.06157,0.3360203 -0.160706,0.3360204 -0.09914,1e-7 -0.198318,-0.2381481 -0.198318,-0.3360204 0,-0.097872 0.08037,-0.1772134 0.179512,-0.1772133 0.09915,2e-7 0.179512,0.079341 0.179512,0.1772133 z"
           sodipodi:nodetypes="sssss" /><path
           id="path21"
           style="fill:#7f7f7f;fill-opacity:1;stroke:none;stroke-width:0.0784491"
           d="m 28.149614,0.69865723 c 0.05242,0.0598357 0.142334,0.23840606 0.08174,0.29149337 -0.0606,0.053093 -0.248779,-0.0393931 -0.301199,-0.099229 -0.05242,-0.0598357 -0.04579,-0.15137913 0.01482,-0.2044742 0.06061,-0.053099 0.152226,-0.0476261 0.204647,0.0122098 z"
           sodipodi:nodetypes="sssss" /><path
           id="path22"
           style="fill:#7f7f7f;fill-opacity:1;stroke:none;stroke-width:0.0784491"
           d="m 29.428341,0.62179387 c -0.05242,0.0598357 -0.142334,0.23840606 -0.08174,0.29149337 0.0606,0.053093 0.248779,-0.0393931 0.301199,-0.099229 0.05242,-0.0598357 0.04579,-0.15137913 -0.01482,-0.2044742 -0.06061,-0.053099 -0.152226,-0.0476261 -0.204647,0.0122098 z"
           sodipodi:nodetypes="sssss" /></g><rect
         style="fill:#ffffff;stroke:#191414;stroke-width:0.421;stroke-miterlimit:4;stroke-dasharray:none;stroke-opacity:1"
         id="rect4"
         width="4.2497587"
         height="0.9376806"
         x="36.37653"
         y="22.523273"
         ry="0.43890166" /><rect
         style="fill:#ffffff;stroke:#191414;stroke-width:0.478;stroke-miterlimit:4;stroke-dasharray:none;stroke-opacity:1"
         id="rect3"
         width="5.0880356"
         height="1.2350399"
         x="35.982716"
         y="23.292883"
         ry="0.57808709" /><g
         id="g28"
         transform="matrix(1.7555982,-0.07802106,-0.07818321,-1.7519572,-12.018157,25.578561)"><path
           id="path23"
           style="fill:#861414;fill-opacity:1;stroke:#191414;stroke-width:0.192"
           d="m 29.179479,1.3621619 c 0,0.1894821 -0.12582,0.6505412 -0.328434,0.6505415 -0.202615,2e-7 -0.405299,-0.461059 -0.405299,-0.6505415 0,-0.1894825 0.164252,-0.3430884 0.366867,-0.3430882 0.202615,3e-7 0.366866,0.153606 0.366866,0.3430882 z"
           sodipodi:nodetypes="sssss" /><path
           id="path24"
           style="fill:#4d4d4d;stroke:#191414;stroke-width:0.192"
           d="m 28.357427,0.89338797 c 0,0.18948213 0.220065,0.48720663 0.01745,0.48720693 -0.202615,2e-7 -0.751184,-0.2977244 -0.751184,-0.48720693 0,-0.18948251 0.164252,-0.34308838 0.366867,-0.34308815 0.202615,2.9e-7 0.366866,0.153606 0.366867,0.34308815 z"
           sodipodi:nodetypes="sssss" /><path
           id="path25"
           style="fill:#4d4d4d;stroke:#191414;stroke-width:0.192"
           d="m 29.960769,0.80506825 c 0,0.18948215 -0.471705,0.48720665 -0.674319,0.48720695 -0.202615,2e-7 -0.05941,-0.29772444 -0.05941,-0.48720695 0,-0.18948251 0.164252,-0.34308838 0.366867,-0.34308815 0.202615,2.9e-7 0.366866,0.153606 0.366866,0.34308815 z"
           sodipodi:nodetypes="sssss" /><path
           id="path26"
           style="fill:#df2e2e;fill-opacity:1;stroke:none;stroke-width:0.0965249"
           d="m 29.044968,1.3211899 c 0,0.097872 -0.06157,0.3360203 -0.160706,0.3360204 -0.09914,1e-7 -0.198318,-0.2381481 -0.198318,-0.3360204 0,-0.097872 0.08037,-0.1772134 0.179512,-0.1772133 0.09915,2e-7 0.179512,0.079341 0.179512,0.1772133 z"
           sodipodi:nodetypes="sssss" /><path
           id="path27"
           style="fill:#7f7f7f;fill-opacity:1;stroke:none;stroke-width:0.0784491"
           d="m 28.149614,0.69865723 c 0.05242,0.0598357 0.142334,0.23840606 0.08174,0.29149337 -0.0606,0.053093 -0.248779,-0.0393931 -0.301199,-0.099229 -0.05242,-0.0598357 -0.04579,-0.15137913 0.01482,-0.2044742 0.06061,-0.053099 0.152226,-0.0476261 0.204647,0.0122098 z"
           sodipodi:nodetypes="sssss" /><path
           id="path28"
           style="fill:#7f7f7f;fill-opacity:1;stroke:none;stroke-width:0.0784491"
           d="m 29.428341,0.62179387 c -0.05242,0.0598357 -0.142334,0.23840606 -0.08174,0.29149337 0.0606,0.053093 0.248779,-0.0393931 0.301199,-0.099229 0.05242,-0.0598357 0.04579,-0.15137913 -0.01482,-0.2044742 -0.06061,-0.053099 -0.152226,-0.0476261 -0.204647,0.0122098 z"
           sodipodi:nodetypes="sssss" /></g></g><g
       id="g11"
       transform="matrix(3.3648274,0.47212374,-0.46528221,3.414304,15.422855,-2.3024722)"><path
         d="m 23.932572,11.908702 c -0.02779,-9.52e-4 -0.05362,0.0032 -0.07752,0.01292 l -1.456759,0.594279 c -0.382288,0.155903 -1.121078,0.464503 -1.102258,0.89762 l 0.05478,1.254704 c 0.01882,0.433116 0.251076,1.314771 0.654224,1.261421 l 2.095479,-0.276985 c 0.403149,-0.05335 1.050282,-0.823093 1.053682,-1.257288 l 0.0072,-0.910539 c 0.0032,-0.407058 -0.811987,-1.561847 -1.228865,-1.576131 z"
         style="fill:#002766;fill-opacity:1;stroke:#110077;stroke-width:0.882;stroke-dasharray:none;stroke-opacity:1"
         id="path32" /><path
         d="m 22.748216,12.894898 c 0.0099,-0.0085 0.02054,-0.01564 0.03207,-0.02104 l 0.703245,-0.32889 c 0.184536,-0.08632 0.543255,-0.251738 0.661003,-0.163506 l 0.273749,0.29412 c 0.117747,0.08823 0.286572,0.365134 0.123921,0.477323 l -0.778059,0.506327 c -0.162645,0.112192 -0.620568,0.161932 -0.746743,0.08024 l -0.264665,-0.171267 c -0.118293,-0.07659 -0.152731,-0.544011 -0.0045,-0.673252 z"
         style="fill:#0053ce;fill-opacity:1;stroke:none;stroke-width:0.270178"
         id="path33"
         sodipodi:nodetypes="ccccccccccc" /></g><path
       id="rect8"
       style="fill:#002766;fill-opacity:1;stroke-width:1.89906"
       d="m 35.993246,66.217005 -0.832689,3.41431 0.06969,12.310592 -4.144339,-13.278682 z"
       sodipodi:nodetypes="ccccc" /><ellipse
       style="fill:#002766;fill-opacity:1;stroke:#110077;stroke-width:3.04534;stroke-miterlimit:4;stroke-dasharray:none;stroke-opacity:1"
       id="path9279"
       cx="-50.165493"
       cy="31.879896"
       rx="20.350412"
       ry="20.520233"
       transform="scale(-1,1)" /><ellipse
       style="fill:#0053ce;fill-opacity:1;stroke:none;stroke-width:1.01385;stroke-miterlimit:4;stroke-dasharray:none;stroke-opacity:1"
       id="ellipse9379"
       cx="-50.091789"
       cy="31.440416"
       rx="16.798279"
       ry="17.097231"
       transform="scale(-1,1)" /><ellipse
       style="fill:#1e78ff;fill-opacity:1;stroke:none;stroke-width:2.69915;stroke-dasharray:none;stroke-opacity:1"
       id="path11"
       cx="-51.529625"
       cy="-12.249973"
       rx="9.7644262"
       ry="13.08782"
       transform="matrix(-0.72017668,-0.69379071,-0.68735514,0.72632149,0,0)" /><path
       id="path9421"
       style="fill:#ffffff;fill-opacity:1;stroke:#002865;stroke-width:1.68347;stroke-miterlimit:4;stroke-dasharray:none;stroke-opacity:1"
       d="m 61.818776,27.745681 c 0.663678,1.395134 1.017778,3.033599 1.017796,4.709461 -2.96e-4,4.694304 -2.720459,8.499585 -6.075874,8.499641 -3.355415,-5.6e-5 -6.075577,-3.805337 -6.075873,-8.499641 1.7e-5,-1.675862 0.354118,-3.314326 1.017793,-4.709461 2.692795,-1.621889 6.602096,-1.225343 10.116158,0 z"
       sodipodi:nodetypes="cccccc" /><path
       id="path3"
       style="fill:#ffffff;fill-opacity:1;stroke:#002865;stroke-width:1.68347;stroke-miterlimit:4;stroke-dasharray:none;stroke-opacity:1"
       d="m 47.288375,27.470008 c 0.663676,1.395135 1.017776,3.0336 1.017793,4.709461 -2.95e-4,4.694303 -2.720458,8.499584 -6.075871,8.499641 -3.355413,-5.7e-5 -6.075575,-3.805338 -6.07587,-8.499641 1.6e-5,-1.675861 0.354117,-3.314326 1.017793,-4.709461 6.257852,-1.785921 7.641123,-0.839971 10.116155,0 z"
       sodipodi:nodetypes="cccccc" /><path
       id="path14"
       style="fill:#818181;fill-opacity:1;stroke:none;stroke-width:1.16642;stroke-miterlimit:4;stroke-dasharray:none;stroke-opacity:1"
       d="m 61.308955,28.540688 a 5.3212439,7.4825558 0 0 1 0.891373,4.145552 5.3212439,7.4825558 0 0 1 -5.32118,7.481897 5.3212439,7.4825558 0 0 1 -4.324754,-3.124255 6.8638419,6.8635606 0 0 0 2.042207,0.31161 6.8638419,6.8635606 0 0 0 6.863569,-6.863572 6.8638419,6.8635606 0 0 0 -0.28333,-1.951232 z" /><path
       id="path5"
       style="fill:#818181;fill-opacity:1;stroke:none;stroke-width:1.16642;stroke-miterlimit:4;stroke-dasharray:none;stroke-opacity:1"
       d="m 46.781226,28.248293 a 5.3212439,7.4825558 0 0 1 0.891373,4.145552 5.3212439,7.4825558 0 0 1 -5.321177,7.481897 5.3212439,7.4825558 0 0 1 -4.324753,-3.124255 6.8638419,6.8635606 0 0 0 2.042206,0.311611 6.8638419,6.8635606 0 0 0 6.863565,-6.863572 6.8638419,6.8635606 0 0 0 -0.283331,-1.951232 z" /><ellipse
       style="fill:#110077;fill-opacity:1;stroke:none;stroke-width:3.74631"
       id="ellipse7"
       cx="-42.486576"
       cy="32.06559"
       rx="3.9073596"
       ry="4.1147265"
       transform="scale(-1,1)" /><path
       id="path8"
       style="fill:#2300ec;fill-opacity:1;stroke:none;stroke-width:3.74631"
       d="m 44.801167,28.750323 a 3.9073594,4.1147264 0 0 1 1.592125,3.315713 3.9073594,4.1147264 0 0 1 -3.907608,4.114523 3.9073594,4.1147264 0 0 1 -3.293295,-1.901577 3.9073594,4.1147264 0 0 0 2.313666,0.798811 3.9073594,4.1147264 0 0 0 3.907607,-4.114523 3.9073594,4.1147264 0 0 0 -0.612495,-2.212947 z" /><ellipse
       style="fill:#ffffff;fill-opacity:1;stroke:none;stroke-width:1.48792"
       id="circle8"
       cx="-39.888393"
       cy="30.024195"
       rx="1.577023"
       ry="1.6081712"
       transform="scale(-1,1)" /><ellipse
       style="fill:#110077;fill-opacity:1;stroke:none;stroke-width:3.86698"
       id="ellipse3"
       cx="-57.069004"
       cy="32.044384"
       rx="3.9590323"
       ry="4.3268523"
       transform="scale(-1,1)" /><path
       id="path4"
       style="fill:#2300ec;fill-opacity:1;stroke:none;stroke-width:3.86698"
       d="m 59.414203,28.558203 a 3.9590322,4.3268522 0 0 1 1.613181,3.486648 3.9590322,4.3268522 0 0 1 -3.959285,4.326638 3.9590322,4.3268522 0 0 1 -3.336847,-1.999609 3.9590322,4.3268522 0 0 0 2.344263,0.839992 3.9590322,4.3268522 0 0 0 3.959283,-4.326638 3.9590322,4.3268522 0 0 0 -0.620595,-2.327031 z" /><ellipse
       style="fill:#ffffff;fill-opacity:1;stroke:none;stroke-width:1.53585"
       id="ellipse4"
       cx="-54.724419"
       cy="29.869539"
       rx="1.5978783"
       ry="1.691077"
       transform="scale(-1,1)" /></g></svg>
