<?xml version="1.0" encoding="UTF-8" standalone="no"?>
<!-- Created with Inkscape (http://www.inkscape.org/) -->

<svg
   width="300"
   height="300"
   viewBox="0 0 79.375 79.374999"
   version="1.1"
   id="svg3527"
   inkscape:version="1.4.2 (ebf0e940d0, 2025-05-08)"
   sodipodi:docname="[0].svg"
   xml:space="preserve"
   xmlns:inkscape="http://www.inkscape.org/namespaces/inkscape"
   xmlns:sodipodi="http://sodipodi.sourceforge.net/DTD/sodipodi-0.dtd"
   xmlns="http://www.w3.org/2000/svg"
   xmlns:svg="http://www.w3.org/2000/svg"><sodipodi:namedview
     id="namedview3529"
     pagecolor="#505050"
     bordercolor="#ffffff"
     borderopacity="1"
     inkscape:pageshadow="0"
     inkscape:pageopacity="0"
     inkscape:pagecheckerboard="1"
     inkscape:document-units="px"
     showgrid="false"
     width="100mm"
     inkscape:zoom="3.4422558"
     inkscape:cx="85.263856"
     inkscape:cy="292.10496"
     inkscape:window-width="1366"
     inkscape:window-height="697"
     inkscape:window-x="0"
     inkscape:window-y="0"
     inkscape:window-maximized="1"
     inkscape:current-layer="layer1"
     inkscape:snap-global="false"
     inkscape:showpageshadow="0"
     inkscape:deskcolor="#505050"
     showguides="true"><sodipodi:guide
       position="49.169673,83.35102"
       orientation="0,-1"
       id="guide68"
       inkscape:locked="false" /></sodipodi:namedview><defs
     id="defs3524"><inkscape:path-effect
       effect="fillet_chamfer"
       id="path-effect68"
       is_visible="true"
       lpeversion="1"
       nodesatellites_param="F,0,0,1,0,0,0,1 @ F,0,0,1,0,0,0,1 @ F,0,0,1,0,0,0,1 @ F,0,0,1,0,0,0,1 @ F,0,0,1,0,0,0,1 @ F,0,0,1,0,0,0,1 @ F,0,0,1,0,0,0,1 @ F,0,0,1,0,0,0,1 @ F,0,0,1,0,0,0,1"
       radius="0"
       unit="px"
       method="auto"
       mode="F"
       chamfer_steps="1"
       flexible="false"
       use_knot_distance="true"
       apply_no_radius="true"
       apply_with_radius="true"
       only_selected="false"
       hide_knots="false" /><inkscape:path-effect
       effect="fillet_chamfer"
       id="path-effect66"
       is_visible="true"
       lpeversion="1"
       nodesatellites_param="F,0,0,1,0,0,0,1 @ F,0,0,1,0,0.44929322,0,1 @ F,0,0,1,0,0.44929322,0,1 @ F,0,0,1,0,0,0,1 @ F,0,0,1,0,0,0,1 @ F,0,0,1,0,0,0,1 @ F,0,0,1,0,0,0,1 @ F,0,0,1,0,0,0,1 @ F,0,0,1,0,0,0,1 @ F,0,0,1,0,0,0,1"
       radius="0"
       unit="px"
       method="auto"
       mode="F"
       chamfer_steps="1"
       flexible="false"
       use_knot_distance="true"
       apply_no_radius="true"
       apply_with_radius="true"
       only_selected="false"
       hide_knots="false" /><inkscape:path-effect
       effect="fillet_chamfer"
       id="path-effect68-6"
       is_visible="true"
       lpeversion="1"
       nodesatellites_param="F,0,0,1,0,0,0,1 @ F,0,0,1,0,0,0,1 @ F,0,0,1,0,0,0,1 @ F,0,0,1,0,0,0,1 @ F,0,0,1,0,0,0,1 @ F,0,0,1,0,0,0,1 @ F,0,0,1,0,0,0,1 @ F,0,0,1,0,0,0,1 @ F,0,0,1,0,0,0,1"
       radius="0"
       unit="px"
       method="auto"
       mode="F"
       chamfer_steps="1"
       flexible="false"
       use_knot_distance="true"
       apply_no_radius="true"
       apply_with_radius="true"
       only_selected="false"
       hide_knots="false" /><inkscape:path-effect
       effect="fillet_chamfer"
       id="path-effect66-7"
       is_visible="true"
       lpeversion="1"
       nodesatellites_param="F,0,0,1,0,0,0,1 @ F,0,0,1,0,0.44929322,0,1 @ F,0,0,1,0,0.44929322,0,1 @ F,0,0,1,0,0,0,1 @ F,0,0,1,0,0,0,1 @ F,0,0,1,0,0,0,1 @ F,0,0,1,0,0,0,1 @ F,0,0,1,0,0,0,1 @ F,0,0,1,0,0,0,1 @ F,0,0,1,0,0,0,1"
       radius="0"
       unit="px"
       method="auto"
       mode="F"
       chamfer_steps="1"
       flexible="false"
       use_knot_distance="true"
       apply_no_radius="true"
       apply_with_radius="true"
       only_selected="false"
       hide_knots="false" /><inkscape:path-effect
       effect="fillet_chamfer"
       id="path-effect68-7"
       is_visible="true"
       lpeversion="1"
       nodesatellites_param="F,0,0,1,0,0,0,1 @ F,0,0,1,0,0,0,1 @ F,0,0,1,0,0,0,1 @ F,0,0,1,0,0,0,1 @ F,0,0,1,0,0,0,1 @ F,0,0,1,0,0,0,1 @ F,0,0,1,0,0,0,1 @ F,0,0,1,0,0,0,1 @ F,0,0,1,0,0,0,1"
       radius="0"
       unit="px"
       method="auto"
       mode="F"
       chamfer_steps="1"
       flexible="false"
       use_knot_distance="true"
       apply_no_radius="true"
       apply_with_radius="true"
       only_selected="false"
       hide_knots="false" /><inkscape:path-effect
       effect="fillet_chamfer"
       id="path-effect66-5"
       is_visible="true"
       lpeversion="1"
       nodesatellites_param="F,0,0,1,0,0,0,1 @ F,0,0,1,0,0.44929322,0,1 @ F,0,0,1,0,0.44929322,0,1 @ F,0,0,1,0,0,0,1 @ F,0,0,1,0,0,0,1 @ F,0,0,1,0,0,0,1 @ F,0,0,1,0,0,0,1 @ F,0,0,1,0,0,0,1 @ F,0,0,1,0,0,0,1 @ F,0,0,1,0,0,0,1"
       radius="0"
       unit="px"
       method="auto"
       mode="F"
       chamfer_steps="1"
       flexible="false"
       use_knot_distance="true"
       apply_no_radius="true"
       apply_with_radius="true"
       only_selected="false"
       hide_knots="false" /><inkscape:path-effect
       effect="fillet_chamfer"
       id="path-effect68-3"
       is_visible="true"
       lpeversion="1"
       nodesatellites_param="F,0,0,1,0,0,0,1 @ F,0,0,1,0,0,0,1 @ F,0,0,1,0,0,0,1 @ F,0,0,1,0,0,0,1 @ F,0,0,1,0,0,0,1 @ F,0,0,1,0,0,0,1 @ F,0,0,1,0,0,0,1 @ F,0,0,1,0,0,0,1 @ F,0,0,1,0,0,0,1"
       radius="0"
       unit="px"
       method="auto"
       mode="F"
       chamfer_steps="1"
       flexible="false"
       use_knot_distance="true"
       apply_no_radius="true"
       apply_with_radius="true"
       only_selected="false"
       hide_knots="false" /><inkscape:path-effect
       effect="fillet_chamfer"
       id="path-effect66-6"
       is_visible="true"
       lpeversion="1"
       nodesatellites_param="F,0,0,1,0,0,0,1 @ F,0,0,1,0,0.44929322,0,1 @ F,0,0,1,0,0.44929322,0,1 @ F,0,0,1,0,0,0,1 @ F,0,0,1,0,0,0,1 @ F,0,0,1,0,0,0,1 @ F,0,0,1,0,0,0,1 @ F,0,0,1,0,0,0,1 @ F,0,0,1,0,0,0,1 @ F,0,0,1,0,0,0,1"
       radius="0"
       unit="px"
       method="auto"
       mode="F"
       chamfer_steps="1"
       flexible="false"
       use_knot_distance="true"
       apply_no_radius="true"
       apply_with_radius="true"
       only_selected="false"
       hide_knots="false" /><linearGradient
       id="linearGradient13895"
       inkscape:swatch="solid"><stop
         style="stop-color:#000000;stop-opacity:1;"
         offset="0"
         id="stop13893" /></linearGradient><filter
       style="color-interpolation-filters:sRGB;"
       inkscape:label="Clean Edges"
       id="filter14269"
       x="-0.31154084"
       y="-0.29580634"
       width="1.6230817"
       height="1.5916127"><feGaussianBlur
         stdDeviation="0.204612"
         result="blur"
         id="feGaussianBlur14263" /><feComposite
         in="SourceGraphic"
         in2="blur"
         operator="in"
         result="composite1"
         id="feComposite14265" /><feComposite
         in="composite1"
         in2="composite1"
         operator="in"
         result="composite2"
         id="feComposite14267" /></filter><filter
       style="color-interpolation-filters:sRGB;"
       inkscape:label="Clean Edges"
       id="filter14269-6"
       x="-0.31154084"
       y="-0.29580634"
       width="1.6230817"
       height="1.5916127"><feGaussianBlur
         stdDeviation="0.204612"
         result="blur"
         id="feGaussianBlur14263-7" /><feComposite
         in="SourceGraphic"
         in2="blur"
         operator="in"
         result="composite1"
         id="feComposite14265-5" /><feComposite
         in="composite1"
         in2="composite1"
         operator="in"
         result="composite2"
         id="feComposite14267-3" /></filter><inkscape:path-effect
       effect="fillet_chamfer"
       id="path-effect68-5"
       is_visible="true"
       lpeversion="1"
       nodesatellites_param="F,0,0,1,0,0,0,1 @ F,0,0,1,0,0,0,1 @ F,0,0,1,0,0,0,1 @ F,0,0,1,0,0,0,1 @ F,0,0,1,0,0,0,1 @ F,0,0,1,0,0,0,1 @ F,0,0,1,0,0,0,1 @ F,0,0,1,0,0,0,1 @ F,0,0,1,0,0,0,1"
       radius="0"
       unit="px"
       method="auto"
       mode="F"
       chamfer_steps="1"
       flexible="false"
       use_knot_distance="true"
       apply_no_radius="true"
       apply_with_radius="true"
       only_selected="false"
       hide_knots="false" /><inkscape:path-effect
       effect="fillet_chamfer"
       id="path-effect66-62"
       is_visible="true"
       lpeversion="1"
       nodesatellites_param="F,0,0,1,0,0,0,1 @ F,0,0,1,0,0.44929322,0,1 @ F,0,0,1,0,0.44929322,0,1 @ F,0,0,1,0,0,0,1 @ F,0,0,1,0,0,0,1 @ F,0,0,1,0,0,0,1 @ F,0,0,1,0,0,0,1 @ F,0,0,1,0,0,0,1 @ F,0,0,1,0,0,0,1 @ F,0,0,1,0,0,0,1"
       radius="0"
       unit="px"
       method="auto"
       mode="F"
       chamfer_steps="1"
       flexible="false"
       use_knot_distance="true"
       apply_no_radius="true"
       apply_with_radius="true"
       only_selected="false"
       hide_knots="false" /><inkscape:path-effect
       effect="fillet_chamfer"
       id="path-effect68-7-9"
       is_visible="true"
       lpeversion="1"
       nodesatellites_param="F,0,0,1,0,0,0,1 @ F,0,0,1,0,0,0,1 @ F,0,0,1,0,0,0,1 @ F,0,0,1,0,0,0,1 @ F,0,0,1,0,0,0,1 @ F,0,0,1,0,0,0,1 @ F,0,0,1,0,0,0,1 @ F,0,0,1,0,0,0,1 @ F,0,0,1,0,0,0,1"
       radius="0"
       unit="px"
       method="auto"
       mode="F"
       chamfer_steps="1"
       flexible="false"
       use_knot_distance="true"
       apply_no_radius="true"
       apply_with_radius="true"
       only_selected="false"
       hide_knots="false" /><inkscape:path-effect
       effect="fillet_chamfer"
       id="path-effect66-5-1"
       is_visible="true"
       lpeversion="1"
       nodesatellites_param="F,0,0,1,0,0,0,1 @ F,0,0,1,0,0.44929322,0,1 @ F,0,0,1,0,0.44929322,0,1 @ F,0,0,1,0,0,0,1 @ F,0,0,1,0,0,0,1 @ F,0,0,1,0,0,0,1 @ F,0,0,1,0,0,0,1 @ F,0,0,1,0,0,0,1 @ F,0,0,1,0,0,0,1 @ F,0,0,1,0,0,0,1"
       radius="0"
       unit="px"
       method="auto"
       mode="F"
       chamfer_steps="1"
       flexible="false"
       use_knot_distance="true"
       apply_no_radius="true"
       apply_with_radius="true"
       only_selected="false"
       hide_knots="false" /><inkscape:path-effect
       effect="fillet_chamfer"
       id="path-effect68-3-2"
       is_visible="true"
       lpeversion="1"
       nodesatellites_param="F,0,0,1,0,0,0,1 @ F,0,0,1,0,0,0,1 @ F,0,0,1,0,0,0,1 @ F,0,0,1,0,0,0,1 @ F,0,0,1,0,0,0,1 @ F,0,0,1,0,0,0,1 @ F,0,0,1,0,0,0,1 @ F,0,0,1,0,0,0,1 @ F,0,0,1,0,0,0,1"
       radius="0"
       unit="px"
       method="auto"
       mode="F"
       chamfer_steps="1"
       flexible="false"
       use_knot_distance="true"
       apply_no_radius="true"
       apply_with_radius="true"
       only_selected="false"
       hide_knots="false" /><inkscape:path-effect
       effect="fillet_chamfer"
       id="path-effect66-6-7"
       is_visible="true"
       lpeversion="1"
       nodesatellites_param="F,0,0,1,0,0,0,1 @ F,0,0,1,0,0.44929322,0,1 @ F,0,0,1,0,0.44929322,0,1 @ F,0,0,1,0,0,0,1 @ F,0,0,1,0,0,0,1 @ F,0,0,1,0,0,0,1 @ F,0,0,1,0,0,0,1 @ F,0,0,1,0,0,0,1 @ F,0,0,1,0,0,0,1 @ F,0,0,1,0,0,0,1"
       radius="0"
       unit="px"
       method="auto"
       mode="F"
       chamfer_steps="1"
       flexible="false"
       use_knot_distance="true"
       apply_no_radius="true"
       apply_with_radius="true"
       only_selected="false"
       hide_knots="false" /><filter
       style="color-interpolation-filters:sRGB;"
       inkscape:label="Clean Edges"
       id="filter14269-5"
       x="-0.31154084"
       y="-0.29580634"
       width="1.6230817"
       height="1.5916127"><feGaussianBlur
         stdDeviation="0.204612"
         result="blur"
         id="feGaussianBlur14263-6" /><feComposite
         in="SourceGraphic"
         in2="blur"
         operator="in"
         result="composite1"
         id="feComposite14265-2" /><feComposite
         in="composite1"
         in2="composite1"
         operator="in"
         result="composite2"
         id="feComposite14267-9" /></filter></defs><g
     inkscape:label="Camada 1"
     inkscape:groupmode="layer"
     id="layer1"><ellipse
       style="fill:#260011;fill-opacity:1;stroke:none;stroke-width:1.13688;stroke-linecap:round;stroke-dasharray:none"
       id="path3"
       cx="18.603701"
       cy="77.684006"
       rx="5.3227873"
       ry="1.6141305" /><rect
       style="fill:#260011;fill-opacity:1;stroke:#510025;stroke-width:1.45887;stroke-dasharray:none;stroke-opacity:1"
       id="rect19"
       width="3.2533581"
       height="10.030683"
       x="-35.902428"
       y="51.221397"
       transform="matrix(-0.87721392,0.48009972,0.44532922,0.8953669,0,0)" /><rect
       style="fill:#260011;fill-opacity:1;stroke:#510025;stroke-width:1.45887;stroke-dasharray:none;stroke-opacity:1"
       id="rect18"
       width="3.2533581"
       height="10.030683"
       x="35.861988"
       y="13.771146"
       transform="matrix(0.87721392,0.48009972,-0.44532922,0.8953669,0,0)" /><path
       id="rect11"
       style="fill:#552323;fill-opacity:1;stroke:#350f0f;stroke-width:2.12549;stroke-dasharray:none;stroke-opacity:1"
       d="m 51.506736,45.554261 -22.419158,3.095917 9e-6,7.640393 18.976131,-1.32e-4 -0.01165,-2.282127 -6.457188,-2.354088 6.81895,-1.560434 z"
       transform="matrix(0.7864738,-0.61762364,0.57571522,0.81765028,0,0)"
       sodipodi:nodetypes="cccccccc" /><rect
       style="fill:#552323;fill-opacity:1;stroke:#350f0f;stroke-width:1.95146;stroke-dasharray:none;stroke-opacity:1"
       id="rect44"
       width="17.533892"
       height="6.9704514"
       x="-3.6836717"
       y="48.101486"
       transform="matrix(0.96357242,-0.26744755,0.25799954,0.96614504,0,0)" /><rect
       style="fill:#260011;fill-opacity:1;stroke:none;stroke-width:1.09345;stroke-dasharray:none;stroke-opacity:1"
       id="rect30"
       width="12.726264"
       height="3.0152307"
       x="-16.633142"
       y="52.244831"
       transform="matrix(0.96512045,-0.26180625,0.57709517,0.8166769,0,0)" /><path
       id="path9"
       style="fill:#552323;fill-opacity:1;stroke:#350f0f;stroke-width:1.56557;stroke-opacity:1"
       inkscape:transform-center-x="0.09851727"
       inkscape:transform-center-y="-2.6847986"
       d="M 40.5722,12.074198 C 35.45059,11.817277 30.02557,12.623161 24.076566,15.262117 V 56.362968 L 1.2588379,77.858813 24.121129,67.499416 l -7.990848,10.766607 10.768335,-5.119584 2.073372,-3.11565 2.055059,1.152979 6.29884,-2.994649 19.155936,9.106938 -8.009847,-10.993644 9.304342,4.250386 0.262516,-3.383773 3.765662,4.317566 16.60157,6.741191 L 55.24624,58.806229 V 15.262117 C 50.511587,13.650848 45.69381,12.33112 40.5722,12.074198 Z"
       sodipodi:nodetypes="scccccccccccccccccs" /><ellipse
       style="fill:#260011;fill-opacity:1;stroke:none;stroke-width:2.08378;stroke-dasharray:none;stroke-opacity:1"
       id="ellipse27"
       cx="47.578415"
       cy="36.279499"
       rx="8.0706511"
       ry="7.2251558" /><ellipse
       style="fill:#260011;fill-opacity:1;stroke:none;stroke-width:1.99975;stroke-dasharray:none;stroke-opacity:1"
       id="path27"
       cx="31.129658"
       cy="36.740681"
       rx="7.7631984"
       ry="6.9177022" /><ellipse
       style="fill:#552323;fill-opacity:1;stroke:#350f0f;stroke-width:1.99094;stroke-dasharray:none;stroke-opacity:1"
       id="ellipse8"
       cx="39.395756"
       cy="16.200153"
       rx="15.322746"
       ry="4.923821" /><rect
       style="fill:#260011;fill-opacity:1;stroke:none;stroke-width:1.5617;stroke-dasharray:none;stroke-opacity:1"
       id="rect27"
       width="8.3012428"
       height="5.1692953"
       x="35.094719"
       y="31.928665" /><rect
       style="fill:#ff0f7c;fill-opacity:1;stroke:#510025;stroke-width:1.35996;stroke-dasharray:none;stroke-opacity:1"
       id="rect17"
       width="8.3012428"
       height="3.9200313"
       x="35.203419"
       y="30.05357" /><path
       id="path17"
       style="fill:#ff0f7c;fill-opacity:1;stroke:#510025;stroke-width:1.52512;stroke-opacity:1"
       d="m 38.091026,30.3178 a 7.8387989,9.1155689 7.725968 0 1 -0.167301,3.909401 7.8387989,9.1155689 7.725968 0 1 -9.65489,6.827539 7.8387989,9.1155689 7.725968 0 1 -5.519474,-10.899555 7.8387989,9.1155689 7.725968 0 1 1.569304,-3.533177 z" /><g
       id="g21"
       transform="matrix(1.3268546,0.34342108,-0.32921843,1.0327088,-1.5100028,-11.957452)"><ellipse
         style="fill:#ff2386;fill-opacity:1;fill-rule:nonzero;stroke:none;stroke-width:2.00647;stroke-linecap:round;stroke-opacity:1"
         id="ellipse21"
         cx="33.685371"
         cy="33.426682"
         rx="3.2090452"
         ry="3.1513977" /><ellipse
         style="fill:#ff4e9e;fill-opacity:1;fill-rule:nonzero;stroke:none;stroke-width:1.50296;stroke-linecap:round;stroke-opacity:1"
         id="ellipse20"
         cx="34.37714"
         cy="33.108891"
         rx="2.3251166"
         ry="2.4404116" /><ellipse
         style="fill:#ff7db7;fill-opacity:1;fill-rule:nonzero;stroke:none;stroke-width:0.89686;stroke-linecap:round;stroke-opacity:1"
         id="path20"
         cx="34.665375"
         cy="33.051243"
         rx="1.3835404"
         ry="1.4604038" /></g><path
       id="path22"
       style="fill:#510025;fill-opacity:1;stroke:none;stroke-width:1.75803;stroke-dasharray:none;stroke-opacity:1"
       d="m 29.916597,39.955083 c 1.745965,4.44e-4 3.364459,-1.022689 4.264971,-2.69611 -0.285885,0.05623 -0.575619,0.08437 -0.865889,0.08411 -3.9709,-2.38e-4 -8.080674,-4.765765 -6.155859,-8.344486 -5.888478,1.163117 -3.238522,10.956129 2.756777,10.956486 z"
       sodipodi:nodetypes="scccss" /><g
       id="g1"
       style="stroke-width:1.26999999;stroke-dasharray:none"><path
         id="path13"
         style="fill:#ffffff;fill-opacity:1;stroke:#350f0f;stroke-width:1.26999999;stroke-dasharray:none;stroke-opacity:1"
         d="M 53.330073,46.353245 A 17.30158,11.03738 0 0 1 39.350933,50.887325 17.30158,11.03738 0 0 1 25.924903,46.811712 13.784306,13.567576 0 0 0 39.602344,58.69454 13.784306,13.567576 0 0 0 53.330073,46.353245 Z" /><path
         style="fill:#ffffff;fill-opacity:1;stroke:#350f0f;stroke-width:1.26999999;stroke-dasharray:none;stroke-opacity:1"
         d="m 39.164165,50.792345 0.12659,7.691321"
         id="path14" /><path
         style="fill:#ffffff;fill-opacity:1;stroke:#350f0f;stroke-width:1.26999999;stroke-dasharray:none;stroke-opacity:1"
         d="m 44.547826,50.146324 0.12659,7.691321"
         id="path15-0" /><path
         style="fill:#ffffff;fill-opacity:1;stroke:#350f0f;stroke-width:1.26999999;stroke-dasharray:none;stroke-opacity:1"
         d="m 34.003099,49.986705 0.12659,7.691321"
         id="path16" /><path
         style="fill:#ffffff;fill-opacity:1;stroke:#350f0f;stroke-width:1.26999999;stroke-dasharray:none;stroke-opacity:1"
         d="m 29.898392,49.500953 0.129062,5.573938"
         id="path18" /><path
         style="fill:#ffffff;fill-opacity:1;stroke:#350f0f;stroke-width:1.26999999;stroke-dasharray:none;stroke-opacity:1"
         d="m 49.306669,49.099137 0.129063,5.573937"
         id="path21" /><path
         style="fill:none;fill-opacity:1;stroke:#350f0f;stroke-width:1.26999999;stroke-dasharray:none;stroke-opacity:1"
         d="m 26.133541,47.809008 c 2.638975,2.126552 4.756853,4.353771 7.763198,5.918477 1.55145,0.80748 3.586692,0.986885 5.380436,0.922362 1.793744,-0.06452 3.777645,-0.367443 5.457298,-0.845498 1.679653,-0.478055 3.369552,-0.871186 4.458074,-2.113743 l 4.073757,-4.650231"
         id="path2"
         sodipodi:nodetypes="cszzsc" /></g><path
       id="path12"
       style="fill:#ff0f7c;fill-opacity:1;stroke:#510025;stroke-width:1.52512;stroke-opacity:1"
       d="m 40.335895,30.164074 a 9.1155689,7.8387989 82.274032 0 0 0.167301,3.909401 9.1155689,7.8387989 82.274032 0 0 9.65489,6.827539 9.1155689,7.8387989 82.274032 0 0 5.519474,-10.899555 9.1155689,7.8387989 82.274032 0 0 -1.569304,-3.533177 z" /><ellipse
       style="fill:#260011;fill-opacity:1;stroke:none;stroke-width:2.11778;stroke-dasharray:none;stroke-opacity:1"
       id="path26"
       cx="40.731781"
       cy="17.071058"
       rx="11.864547"
       ry="2.1929505" /><path
       id="path24"
       style="fill:#e5b000;fill-opacity:1;stroke:#461c00;stroke-width:1.53267;stroke-dasharray:none;stroke-opacity:1"
       inkscape:transform-center-x="-0.091956415"
       inkscape:transform-center-y="-2.0390942"
       d="M 40.098582,4.4599127 35.130636,12.149388 28.084179,5.3047078 28.719374,16.47597 c 7.355657,1.659984 14.600698,1.410973 21.713411,-0.143635 L 51.223622,5.5762254 44.761103,12.526007 Z"
       sodipodi:nodetypes="cccccccc" /><path
       id="path28"
       style="fill:#ed7700;fill-opacity:1;stroke:none;stroke-width:1.3163;stroke-dasharray:none;stroke-opacity:1"
       inkscape:transform-center-x="-0.085044847"
       inkscape:transform-center-y="-1.626262"
       d="m 28.913025,6.981486 0.532245,8.909534 c 6.956514,1.419985 13.708139,1.084897 20.286242,-0.154968 l 0.0577,-1.91209 c -1.677717,1.410706 -4.007651,2.209583 -6.444568,2.209685 -3.250275,-4.8e-5 -8.085312,-3.496984 -8.085312,-3.496984 z"
       sodipodi:nodetypes="ccccccc" /><g
       id="g24"
       transform="matrix(1.3268546,0.34342108,-0.32921843,1.0327088,16.706613,-13.187266)"><ellipse
         style="fill:#ff2386;fill-opacity:1;fill-rule:nonzero;stroke:none;stroke-width:2.00647;stroke-linecap:round;stroke-opacity:1"
         id="ellipse22"
         cx="33.685371"
         cy="33.426682"
         rx="3.2090452"
         ry="3.1513977" /><ellipse
         style="fill:#ff4e9e;fill-opacity:1;fill-rule:nonzero;stroke:none;stroke-width:1.50296;stroke-linecap:round;stroke-opacity:1"
         id="ellipse23"
         cx="34.37714"
         cy="33.108891"
         rx="2.3251166"
         ry="2.4404116" /><ellipse
         style="fill:#ff7db7;fill-opacity:1;fill-rule:nonzero;stroke:none;stroke-width:0.89686;stroke-linecap:round;stroke-opacity:1"
         id="ellipse24"
         cx="34.665375"
         cy="33.051243"
         rx="1.3835404"
         ry="1.4604038" /></g><path
       id="path15"
       style="fill:#510025;fill-opacity:1;stroke:none;stroke-width:1.66324;stroke-dasharray:none;stroke-opacity:1"
       d="m 48.549285,39.955083 c 1.732965,4e-4 3.339409,-0.922246 4.233216,-2.431313 -0.283757,0.05071 -0.571334,0.07608 -0.859442,0.07585 -3.941334,-2.15e-4 -8.020508,-4.297698 -6.110025,-7.524936 -5.844634,1.048882 -3.214409,9.880077 2.736251,9.880399 z"
       sodipodi:nodetypes="scccss" /><path
       style="fill:#813535;fill-opacity:1;fill-rule:nonzero;stroke:none;stroke-width:1.24486;stroke-linecap:round;stroke-dasharray:none;stroke-opacity:1"
       d="M 5.3263588,75.11253 C 13.156684,70.48125 21.332266,66.168668 27.363354,59.876554 l -0.07686,4.534937 -2.613355,2.459628 z"
       id="path39"
       sodipodi:nodetypes="ccccc" /><path
       style="fill:#562424;fill-opacity:1;fill-rule:nonzero;stroke:none;stroke-width:1.24486;stroke-linecap:round;stroke-dasharray:none;stroke-opacity:1"
       d="m 27.447052,60.927022 -5.217657,6.929701 1.548993,-0.489156 2.092498,-1.168538 1.467467,-3.369736 z"
       id="path44"
       sodipodi:nodetypes="cccccc" /><path
       style="fill:none;fill-opacity:1;fill-rule:nonzero;stroke:#350f0f;stroke-width:1.32847291;stroke-linecap:round;stroke-opacity:1;stroke-dasharray:none"
       d="m 23.981367,67.601322 c 0,0 1.832769,-1.04495 2.613354,-2.190607 0.780585,-1.145656 1.383541,-5.380436 1.383541,-5.380436"
       id="path31"
       sodipodi:nodetypes="czc" /><path
       style="fill:none;fill-opacity:1;fill-rule:nonzero;stroke:#350f0f;stroke-width:1.24486;stroke-linecap:round;stroke-dasharray:none;stroke-opacity:1"
       d="m 27.223967,68.707915 3.299579,2.129334"
       id="path35" /><path
       style="fill:none;fill-opacity:1;fill-rule:nonzero;stroke:#350f0f;stroke-width:1.32847;stroke-linecap:round;stroke-dasharray:none;stroke-opacity:1"
       d="m 38.902733,69.123139 c 0,0 -1.832769,-1.04495 -2.613354,-2.190607 -0.780585,-1.145656 -1.383541,-5.380436 -1.383541,-5.380436"
       id="path36"
       sodipodi:nodetypes="czc" /><path
       style="fill:none;fill-opacity:1;fill-rule:nonzero;stroke:#350f0f;stroke-width:1.32847;stroke-linecap:round;stroke-dasharray:none;stroke-opacity:1"
       d="m 49.971056,67.739599 c 0,0 -1.832769,-1.04495 -2.613354,-2.190607 -0.780585,-1.145656 -1.383541,-5.380436 -1.383541,-5.380436"
       id="path37"
       sodipodi:nodetypes="czc" /><path
       style="fill:#260011;fill-opacity:1;fill-rule:nonzero;stroke:none;stroke-width:1.24486;stroke-linecap:round;stroke-dasharray:none;stroke-opacity:1"
       d="m 54.676703,60.927022 8.424344,8.859149 10.81577,5.706814 -11.685381,-4.619802 c -3.431247,-3.419935 -5.621833,-6.662632 -8.09824,-9.946161 z"
       id="path49"
       sodipodi:nodetypes="cccccc" /><path
       style="fill:none;fill-opacity:1;fill-rule:nonzero;stroke:#350f0f;stroke-width:1.32847;stroke-linecap:round;stroke-dasharray:none;stroke-opacity:1"
       d="m 57.713408,69.41107 c 0,0 0.339715,-2.0822 -0.06041,-3.409506 -0.40011,-1.32731 -3.314132,-4.458678 -3.314132,-4.458678"
       id="path38"
       sodipodi:nodetypes="czc" /><path
       style="fill:#813535;fill-opacity:1;fill-rule:nonzero;stroke:none;stroke-width:1.24486;stroke-linecap:round;stroke-dasharray:none;stroke-opacity:1"
       d="m 27.440218,68.100932 c 0,0 1.565334,-0.614189 2.382762,-1.921582 0.817429,-1.307393 1.383542,-6.033775 1.383542,-6.033775 0,0 0.951008,4.762398 1.998448,6.033775 1.04744,1.271377 3.074535,1.729425 3.074535,1.729425 l -5.26514,2.536492 z"
       id="path40"
       sodipodi:nodetypes="czczccc" /><path
       style="fill:#260011;fill-opacity:1;fill-rule:nonzero;stroke:none;stroke-width:1.24486;stroke-linecap:round;stroke-dasharray:none;stroke-opacity:1"
       d="m 26.633154,68.677408 -8.072985,7.562115 7.842394,-3.642083 1.652563,-2.613354 z"
       id="path41"
       sodipodi:nodetypes="ccccc" /><path
       style="fill:#c06666;fill-opacity:1;fill-rule:nonzero;stroke:none;stroke-width:0.608321;stroke-linecap:round;stroke-dasharray:none;stroke-opacity:1"
       d="m 29.052885,68.879193 c 0,0 0.848282,-0.27064 1.291261,-0.846739 0.44298,-0.576099 0.749766,-2.658765 0.749766,-2.658765 0,0 0.515369,2.098536 1.082995,2.658765 0.567626,0.560228 1.666145,0.762066 1.666145,0.762066 l -2.853273,1.117697 z"
       id="path42"
       sodipodi:nodetypes="czczccc" /><path
       style="fill:#3d0c21;fill-opacity:1;fill-rule:nonzero;stroke:none;stroke-width:0.94793;stroke-linecap:round;stroke-dasharray:none;stroke-opacity:1"
       d="m 24.705659,70.512486 -6.168712,5.757449 6.044423,-2.830672 1.247823,-1.973077 z"
       id="path43"
       sodipodi:nodetypes="ccccc" /><path
       style="fill:#813535;fill-opacity:1;fill-rule:nonzero;stroke:none;stroke-width:1.24486;stroke-linecap:round;stroke-dasharray:none;stroke-opacity:1"
       d="m 39.892081,67.024847 c 0,0 3.738359,0.696771 6.110636,1.998445 2.372277,1.301674 7.95536,6.072207 7.95536,6.072207 l -5.534163,-7.686337 -1.5757,-1.498835 -0.960792,-2.421194 -0.49961,-2.574923 c 0,0 0.675476,4.000935 -0.499612,5.26514 -1.175088,1.264205 -4.996119,0.845497 -4.996119,0.845497 z"
       id="path45"
       sodipodi:nodetypes="czccccczc" /><path
       style="fill:#c06666;fill-opacity:1;fill-rule:nonzero;stroke:none;stroke-width:1.24486;stroke-linecap:round;stroke-dasharray:none;stroke-opacity:1"
       d="m 45.763206,67.883899 c 0,0 1.385148,0.368183 2.816906,1.481737 1.431758,1.113553 5.308509,5.638192 5.308509,5.638192 l -4.646978,-6.467721 -0.828162,-1.139713 c -0.2615,1.013336 -1.508424,0.623516 -2.650275,0.487505 z"
       id="path46"
       sodipodi:nodetypes="czcccc" /><path
       style="fill:#813535;fill-opacity:1;fill-rule:nonzero;stroke:none;stroke-width:1.24486;stroke-linecap:round;stroke-dasharray:none;stroke-opacity:1"
       d="m 46.714341,60.030238 c 0.726128,4.774528 0.883675,4.762363 1.15495,5.163306 l 9.198838,4.184997 C 53.069601,66.601455 48.666162,64.19349 46.714341,60.030238 Z"
       id="path47"
       sodipodi:nodetypes="cccc" /><path
       style="fill:#260011;fill-opacity:1;fill-rule:nonzero;stroke:none;stroke-width:1.24486;stroke-linecap:round;stroke-dasharray:none;stroke-opacity:1"
       d="m 53.68246,61.64441 c -0.312059,0.53446 -1.789907,0.780618 -2.837349,1.11452 3.202261,0.695046 4.376451,3.106152 6.302793,4.880822 0.1331,-0.55014 -0.04899,-1.145308 -0.153726,-1.729425 -0.897711,-1.510128 -2.019987,-2.899069 -3.311718,-4.265917 z"
       id="path48"
       sodipodi:nodetypes="ccccc" /><path
       style="fill:#260011;fill-opacity:1;fill-rule:nonzero;stroke:none;stroke-width:1.24486;stroke-linecap:round;stroke-dasharray:none;stroke-opacity:1"
       d="m 57.665987,16.30518 -0.271753,4.076295 4.375223,1.358765 -5.679638,4.402399 -0.05435,-8.15259 z"
       id="path50"
       sodipodi:nodetypes="cccccc" /><g
       id="g66"
       transform="rotate(2.4153044,114.01322,677.58856)"><path
         style="fill:#9a3d2b;fill-opacity:1;fill-rule:nonzero;stroke:#511717;stroke-width:0.963612;stroke-linecap:round;stroke-dasharray:none;stroke-opacity:1"
         d="m -9.3057811,58.498973 0.843647,10.791689 1.325731,1.079168 -1.084689,2.620841 1.446253,3.700007 3.193807,-2.042713 -0.813517,-9.48127 -1.3812438,0.114186 2.5474588,-5.526239 -2.691619,1.935974 -1.166349,-16.816786 1.363539,-2.507291 5.45415896,-2.725313 -1.78964596,-0.763086 -1.763824,0.504125 1.385991,-3.468758 0.301303,-4.008344 -1.506513,3.93126 -3.314327,4.39376 -1.345784,-8.723764 2.003186,-9.442139 -5.3900299,3.187293 -1.032661,7.521866 2.48142,7.412851 v 7.739889 l -3.281018,-4.142476 c -1.250187,-0.947737 -2.69252,-1.657214 -5.208926,-1.03484 -1.062623,-0.842555 -1.402642,-2.100259 -3.164041,-2.244038 0.724262,0.914366 1.061169,1.816136 1.227351,2.984174 l -1.438589,-0.110008 c 0.207917,0.740574 0.764788,1.727884 1.473152,1.968011 l -0.213002,3.61294 2.268002,-3.37531 1.432043,1.186573 3.197905,0.119356 3.536681,3.052352 -0.426105,5.341613 0.553937,2.016731 z"
         id="path51"
         sodipodi:nodetypes="ccccccccccccccccccccccccccccccccccccccc" /><g
         id="g65"
         transform="matrix(0.49760407,-0.18504874,0.1847707,0.49685641,-9.2676318,39.745409)"><path
           id="path63"
           style="fill:#1c7e1c;fill-opacity:1;stroke:#023c0c;stroke-width:1.54185;stroke-opacity:1"
           d="m -10.83715,30.180191 c 1.1889451,1.945427 -0.865699,0.143348 -9.832251,-0.352761 -4.815709,-0.266397 -6.73577,-5.954214 -5.571533,-8.258492 1.164238,-2.304276 5.556297,-2.244566 9.809936,0.133366 4.253636,2.377932 4.258686,6.293208 5.593848,8.477887 z"
           sodipodi:nodetypes="sssss" /><path
           id="path64"
           style="fill:#125212;fill-opacity:1;stroke-width:1.00549;stroke-linecap:round;stroke-linejoin:round"
           d="m -14.149442,28.022718 c 5.0606911,3.26981 -2.036339,1.325143 -5.537999,0.836473 -3.119328,-0.435315 -5.908775,-2.492594 -5.506995,-3.828058 0.40178,-1.335461 3.199993,-1.748377 6.249983,-0.922275 3.049992,0.826105 3.698237,3.205215 4.795011,3.91386 z"
           sodipodi:nodetypes="sssss" /><path
           style="fill:none;fill-opacity:1;stroke:#012307;stroke-width:1.16643;stroke-dasharray:none;stroke-opacity:1"
           d="m -23.646757,23.588316 c 5.688273,0.445296 9.215019,3.13576 11.997357,6.599427"
           id="path65"
           sodipodi:nodetypes="cc" /></g><path
         id="path6"
         style="fill:#1c7e1c;fill-opacity:1;stroke:#023c0c;stroke-width:1.54185;stroke-opacity:1"
         d="m -9.479551,30.374267 c -1.184482,1.948147 0.866025,0.141363 9.83141594,-0.375298 C 5.1669514,29.721533 7.0739692,24.02933 5.9044525,21.727726 4.734936,19.426125 0.34302531,19.495904 -3.9051511,21.88358 c -4.2481744,2.387676 -4.2442494,6.302953 -5.5743999,8.490687 z"
         sodipodi:nodetypes="sssss" /><path
         id="path7"
         style="fill:#125212;fill-opacity:1;stroke-width:1.00549;stroke-linecap:round;stroke-linejoin:round"
         d="m -6.1722132,28.209207 c -5.0531818,3.281401 2.039371,1.320472 5.53990209,0.823776 3.11832181,-0.442465 5.90304521,-2.506132 5.49820471,-3.840671 -0.4048403,-1.334537 -3.2039915,-1.741038 -6.25208,-0.907946 -3.0480906,0.833094 -3.6908802,3.213683 -4.7860268,3.924841 z"
         sodipodi:nodetypes="sssss" /><path
         style="fill:none;fill-opacity:1;stroke:#012307;stroke-width:1.16643;stroke-dasharray:none;stroke-opacity:1"
         d="m 3.3149119,23.753046 c -5.6872377,0.458334 -9.2078066,3.156875 -11.9821976,6.626911"
         id="path8"
         sodipodi:nodetypes="cc" /><g
         id="g62"><path
           id="path77"
           style="fill:#1c7e1c;fill-opacity:1;stroke:#023c0c;stroke-width:1.54185;stroke-opacity:1"
           d="m -10.83715,30.180191 c 1.1889451,1.945427 -0.865699,0.143348 -9.832251,-0.352761 -4.815709,-0.266397 -6.73577,-5.954214 -5.571533,-8.258492 1.164238,-2.304276 5.556297,-2.244566 9.809936,0.133366 4.253636,2.377932 4.258686,6.293208 5.593848,8.477887 z"
           sodipodi:nodetypes="sssss" /><path
           id="path29-3"
           style="fill:#125212;fill-opacity:1;stroke-width:1.00549;stroke-linecap:round;stroke-linejoin:round"
           d="m -14.149442,28.022718 c 5.0606911,3.26981 -2.036339,1.325143 -5.537999,0.836473 -3.119328,-0.435315 -5.908775,-2.492594 -5.506995,-3.828058 0.40178,-1.335461 3.199993,-1.748377 6.249983,-0.922275 3.049992,0.826105 3.698237,3.205215 4.795011,3.91386 z"
           sodipodi:nodetypes="sssss" /><path
           style="fill:none;fill-opacity:1;stroke:#012307;stroke-width:1.16643;stroke-dasharray:none;stroke-opacity:1"
           d="m -23.646757,23.588316 c 5.688273,0.445296 9.215019,3.13576 11.997357,6.599427"
           id="path78"
           sodipodi:nodetypes="cc" /></g><path
         style="fill:#511717;fill-opacity:1;fill-rule:nonzero;stroke:none;stroke-width:0.487363;stroke-linecap:round;stroke-dasharray:none;stroke-opacity:1"
         d="m -11.875606,34.893086 1.548992,0.597855 2.6631793,-1.114187 -0.2989281,-1.603343 -3.7773672,0.842436 z"
         id="path59" /><g
         id="g53"
         transform="matrix(1.4255095,0,0,1.1533788,4.3571478,-4.2712034)"><path
           style="fill:#ac5a30;fill-opacity:1;fill-rule:nonzero;stroke:#4f2a16;stroke-width:0.487362;stroke-linecap:round;stroke-dasharray:none;stroke-opacity:1"
           d="m -11.386451,26.550268 -0.842434,6.304669 1.875096,0.543507 1.7392188,-0.625033 -0.2174023,-6.060091 z"
           id="path52" /><path
           style="fill:#ac5a30;fill-opacity:1;fill-rule:nonzero;stroke:#4f2a16;stroke-width:0.487363;stroke-linecap:round;stroke-dasharray:none;stroke-opacity:1"
           d="m -11.427214,27.610104 1.9837973,0.380455 -0.067938,0.625033 -1.5625803,-0.06794 -0.04076,0.815261 2.3099012,-0.203817 -0.095114,0.910373 -2.2147872,-0.122287 0.06794,0.149463 2.1604357,0.326104 -0.1358765,0.747321 -2.8669942,-0.09511 0.01359,0.69297 1.589755,0.122291 0.06794,0.584268 1.1549507,-0.163052"
           id="path53" /></g><path
         style="fill:#511717;fill-opacity:1;fill-rule:nonzero;stroke:none;stroke-width:0.487363;stroke-linecap:round;stroke-dasharray:none;stroke-opacity:1"
         d="m -8.954581,60.260872 0.1921584,1.575697 2.6517859,-0.384315 -0.038432,-1.537269 -3.0745342,0.384318 z"
         id="path60" /><path
         style="fill:#d16e5b;fill-opacity:1;fill-rule:nonzero;stroke:none;stroke-width:0.487363;stroke-linecap:round;stroke-dasharray:none;stroke-opacity:1"
         d="m -10.222826,36.43323 1.3066768,3.381989 -0.3074535,7.916926 0.1537266,5.918478 1.460404,-0.07686 -0.5380437,-7.532608 0.1537269,-6.072206 -0.614907,-4.534937 z"
         id="path61" /><g
         id="g55"
         transform="matrix(1.4255095,0,0,-1.1533788,6.6170858,91.065287)"><path
           style="fill:#ac5a30;fill-opacity:1;fill-rule:nonzero;stroke:#4f2a16;stroke-width:0.487362;stroke-linecap:round;stroke-dasharray:none;stroke-opacity:1"
           d="m -11.386451,26.550268 -0.842434,6.304669 1.875096,0.543507 1.7392188,-0.625033 -0.2174023,-6.060091 z"
           id="path54" /><path
           style="fill:#ac5a30;fill-opacity:1;fill-rule:nonzero;stroke:#4f2a16;stroke-width:0.487363;stroke-linecap:round;stroke-dasharray:none;stroke-opacity:1"
           d="m -11.427214,27.610104 1.9837973,0.380455 -0.067938,0.625033 -1.5625803,-0.06794 -0.04076,0.815261 2.3099012,-0.203817 -0.095114,0.910373 -2.2147872,-0.122287 0.06794,0.149463 2.1604357,0.326104 -0.1358765,0.747321 -2.8669942,-0.09511 0.01359,0.69297 1.589755,0.122291 0.06794,0.584268 1.1549507,-0.163052"
           id="path55" /></g><path
         style="fill:#d16e5b;fill-opacity:1;fill-rule:nonzero;stroke:none;stroke-width:0.487363;stroke-linecap:round;stroke-dasharray:none;stroke-opacity:1"
         d="m -7.880837,62.340137 0.1087012,6.087269 1.902271,1.95662 -1.358765,2.71753 0.815259,1.902272 1.3044143,-0.97831 -0.4891553,-1.73922 0.7609083,-2.391426 -2.174024,-2.119674 -0.05435,-3.152334 1.5218167,-1.684869 -1.6305178,0.543507 z"
         id="path62" /></g><g
       id="g51"
       transform="translate(65.438123,11.957132)"><path
         id="path1"
         style="fill:#552323;fill-opacity:1;stroke:#350f0f;stroke-width:2.14441;stroke-dasharray:none;stroke-opacity:1"
         d="m -48.703375,40.174167 c -0.08379,2.553094 -3.035005,5.615465 -6.833623,3.820289 -3.028943,-1.431425 -5.901259,-2.874457 -5.372392,-5.843758 0.532511,-2.989739 1.029589,-6.013668 7.03353,-3.981401 3.207327,1.08564 5.243415,3.844274 5.172485,6.00487 z"
         sodipodi:nodetypes="sssss" /><path
         id="path30"
         style="fill:#813535;fill-opacity:1;stroke:none;stroke-width:1.14835;stroke-dasharray:none;stroke-opacity:1"
         d="m -49.724999,39.567201 c -0.209017,1.341993 -1.986013,2.765742 -3.904411,1.570532 -1.529694,-0.953029 -2.974781,-1.901969 -2.500712,-3.434594 0.477335,-1.543176 0.720494,-2.957242 3.8044,-1.493062 1.647434,0.782168 2.777614,2.221445 2.600723,3.357124 z"
         sodipodi:nodetypes="sssss" /></g></g></svg>
