<?xml version="1.0" encoding="UTF-8" standalone="no"?>
<!-- Created with Inkscape (http://www.inkscape.org/) -->

<svg
   width="300"
   height="300"
   viewBox="0 0 79.375 79.374999"
   version="1.1"
   id="svg3527"
   inkscape:version="1.4.2 (ebf0e940d0, 2025-05-08)"
   sodipodi:docname="[3].svg"
   xml:space="preserve"
   xmlns:inkscape="http://www.inkscape.org/namespaces/inkscape"
   xmlns:sodipodi="http://sodipodi.sourceforge.net/DTD/sodipodi-0.dtd"
   xmlns="http://www.w3.org/2000/svg"
   xmlns:svg="http://www.w3.org/2000/svg"><sodipodi:namedview
     id="namedview3529"
     pagecolor="#505050"
     bordercolor="#ffffff"
     borderopacity="1"
     inkscape:pageshadow="0"
     inkscape:pageopacity="0"
     inkscape:pagecheckerboard="1"
     inkscape:document-units="px"
     showgrid="false"
     width="100mm"
     inkscape:zoom="3.4422558"
     inkscape:cx="150.62797"
     inkscape:cy="84.973349"
     inkscape:window-width="1366"
     inkscape:window-height="697"
     inkscape:window-x="0"
     inkscape:window-y="0"
     inkscape:window-maximized="1"
     inkscape:current-layer="layer1"
     inkscape:snap-global="false"
     inkscape:showpageshadow="0"
     inkscape:deskcolor="#505050"
     showguides="true"><sodipodi:guide
       position="49.169673,83.35102"
       orientation="0,-1"
       id="guide68"
       inkscape:locked="false" /></sodipodi:namedview><defs
     id="defs3524"><inkscape:path-effect
       effect="fillet_chamfer"
       id="path-effect68"
       is_visible="true"
       lpeversion="1"
       nodesatellites_param="F,0,0,1,0,0,0,1 @ F,0,0,1,0,0,0,1 @ F,0,0,1,0,0,0,1 @ F,0,0,1,0,0,0,1 @ F,0,0,1,0,0,0,1 @ F,0,0,1,0,0,0,1 @ F,0,0,1,0,0,0,1 @ F,0,0,1,0,0,0,1 @ F,0,0,1,0,0,0,1"
       radius="0"
       unit="px"
       method="auto"
       mode="F"
       chamfer_steps="1"
       flexible="false"
       use_knot_distance="true"
       apply_no_radius="true"
       apply_with_radius="true"
       only_selected="false"
       hide_knots="false" /><inkscape:path-effect
       effect="fillet_chamfer"
       id="path-effect66"
       is_visible="true"
       lpeversion="1"
       nodesatellites_param="F,0,0,1,0,0,0,1 @ F,0,0,1,0,0.44929322,0,1 @ F,0,0,1,0,0.44929322,0,1 @ F,0,0,1,0,0,0,1 @ F,0,0,1,0,0,0,1 @ F,0,0,1,0,0,0,1 @ F,0,0,1,0,0,0,1 @ F,0,0,1,0,0,0,1 @ F,0,0,1,0,0,0,1 @ F,0,0,1,0,0,0,1"
       radius="0"
       unit="px"
       method="auto"
       mode="F"
       chamfer_steps="1"
       flexible="false"
       use_knot_distance="true"
       apply_no_radius="true"
       apply_with_radius="true"
       only_selected="false"
       hide_knots="false" /><inkscape:path-effect
       effect="fillet_chamfer"
       id="path-effect68-6"
       is_visible="true"
       lpeversion="1"
       nodesatellites_param="F,0,0,1,0,0,0,1 @ F,0,0,1,0,0,0,1 @ F,0,0,1,0,0,0,1 @ F,0,0,1,0,0,0,1 @ F,0,0,1,0,0,0,1 @ F,0,0,1,0,0,0,1 @ F,0,0,1,0,0,0,1 @ F,0,0,1,0,0,0,1 @ F,0,0,1,0,0,0,1"
       radius="0"
       unit="px"
       method="auto"
       mode="F"
       chamfer_steps="1"
       flexible="false"
       use_knot_distance="true"
       apply_no_radius="true"
       apply_with_radius="true"
       only_selected="false"
       hide_knots="false" /><inkscape:path-effect
       effect="fillet_chamfer"
       id="path-effect66-7"
       is_visible="true"
       lpeversion="1"
       nodesatellites_param="F,0,0,1,0,0,0,1 @ F,0,0,1,0,0.44929322,0,1 @ F,0,0,1,0,0.44929322,0,1 @ F,0,0,1,0,0,0,1 @ F,0,0,1,0,0,0,1 @ F,0,0,1,0,0,0,1 @ F,0,0,1,0,0,0,1 @ F,0,0,1,0,0,0,1 @ F,0,0,1,0,0,0,1 @ F,0,0,1,0,0,0,1"
       radius="0"
       unit="px"
       method="auto"
       mode="F"
       chamfer_steps="1"
       flexible="false"
       use_knot_distance="true"
       apply_no_radius="true"
       apply_with_radius="true"
       only_selected="false"
       hide_knots="false" /><inkscape:path-effect
       effect="fillet_chamfer"
       id="path-effect68-7"
       is_visible="true"
       lpeversion="1"
       nodesatellites_param="F,0,0,1,0,0,0,1 @ F,0,0,1,0,0,0,1 @ F,0,0,1,0,0,0,1 @ F,0,0,1,0,0,0,1 @ F,0,0,1,0,0,0,1 @ F,0,0,1,0,0,0,1 @ F,0,0,1,0,0,0,1 @ F,0,0,1,0,0,0,1 @ F,0,0,1,0,0,0,1"
       radius="0"
       unit="px"
       method="auto"
       mode="F"
       chamfer_steps="1"
       flexible="false"
       use_knot_distance="true"
       apply_no_radius="true"
       apply_with_radius="true"
       only_selected="false"
       hide_knots="false" /><inkscape:path-effect
       effect="fillet_chamfer"
       id="path-effect66-5"
       is_visible="true"
       lpeversion="1"
       nodesatellites_param="F,0,0,1,0,0,0,1 @ F,0,0,1,0,0.44929322,0,1 @ F,0,0,1,0,0.44929322,0,1 @ F,0,0,1,0,0,0,1 @ F,0,0,1,0,0,0,1 @ F,0,0,1,0,0,0,1 @ F,0,0,1,0,0,0,1 @ F,0,0,1,0,0,0,1 @ F,0,0,1,0,0,0,1 @ F,0,0,1,0,0,0,1"
       radius="0"
       unit="px"
       method="auto"
       mode="F"
       chamfer_steps="1"
       flexible="false"
       use_knot_distance="true"
       apply_no_radius="true"
       apply_with_radius="true"
       only_selected="false"
       hide_knots="false" /><inkscape:path-effect
       effect="fillet_chamfer"
       id="path-effect68-3"
       is_visible="true"
       lpeversion="1"
       nodesatellites_param="F,0,0,1,0,0,0,1 @ F,0,0,1,0,0,0,1 @ F,0,0,1,0,0,0,1 @ F,0,0,1,0,0,0,1 @ F,0,0,1,0,0,0,1 @ F,0,0,1,0,0,0,1 @ F,0,0,1,0,0,0,1 @ F,0,0,1,0,0,0,1 @ F,0,0,1,0,0,0,1"
       radius="0"
       unit="px"
       method="auto"
       mode="F"
       chamfer_steps="1"
       flexible="false"
       use_knot_distance="true"
       apply_no_radius="true"
       apply_with_radius="true"
       only_selected="false"
       hide_knots="false" /><inkscape:path-effect
       effect="fillet_chamfer"
       id="path-effect66-6"
       is_visible="true"
       lpeversion="1"
       nodesatellites_param="F,0,0,1,0,0,0,1 @ F,0,0,1,0,0.44929322,0,1 @ F,0,0,1,0,0.44929322,0,1 @ F,0,0,1,0,0,0,1 @ F,0,0,1,0,0,0,1 @ F,0,0,1,0,0,0,1 @ F,0,0,1,0,0,0,1 @ F,0,0,1,0,0,0,1 @ F,0,0,1,0,0,0,1 @ F,0,0,1,0,0,0,1"
       radius="0"
       unit="px"
       method="auto"
       mode="F"
       chamfer_steps="1"
       flexible="false"
       use_knot_distance="true"
       apply_no_radius="true"
       apply_with_radius="true"
       only_selected="false"
       hide_knots="false" /><linearGradient
       id="linearGradient13895"
       inkscape:swatch="solid"><stop
         style="stop-color:#000000;stop-opacity:1;"
         offset="0"
         id="stop13893" /></linearGradient><filter
       style="color-interpolation-filters:sRGB;"
       inkscape:label="Clean Edges"
       id="filter14269"
       x="-0.31154084"
       y="-0.29580634"
       width="1.6230817"
       height="1.5916127"><feGaussianBlur
         stdDeviation="0.204612"
         result="blur"
         id="feGaussianBlur14263" /><feComposite
         in="SourceGraphic"
         in2="blur"
         operator="in"
         result="composite1"
         id="feComposite14265" /><feComposite
         in="composite1"
         in2="composite1"
         operator="in"
         result="composite2"
         id="feComposite14267" /></filter><filter
       style="color-interpolation-filters:sRGB;"
       inkscape:label="Clean Edges"
       id="filter14269-6"
       x="-0.31154084"
       y="-0.29580634"
       width="1.6230817"
       height="1.5916127"><feGaussianBlur
         stdDeviation="0.204612"
         result="blur"
         id="feGaussianBlur14263-7" /><feComposite
         in="SourceGraphic"
         in2="blur"
         operator="in"
         result="composite1"
         id="feComposite14265-5" /><feComposite
         in="composite1"
         in2="composite1"
         operator="in"
         result="composite2"
         id="feComposite14267-3" /></filter><inkscape:path-effect
       effect="fillet_chamfer"
       id="path-effect68-5"
       is_visible="true"
       lpeversion="1"
       nodesatellites_param="F,0,0,1,0,0,0,1 @ F,0,0,1,0,0,0,1 @ F,0,0,1,0,0,0,1 @ F,0,0,1,0,0,0,1 @ F,0,0,1,0,0,0,1 @ F,0,0,1,0,0,0,1 @ F,0,0,1,0,0,0,1 @ F,0,0,1,0,0,0,1 @ F,0,0,1,0,0,0,1"
       radius="0"
       unit="px"
       method="auto"
       mode="F"
       chamfer_steps="1"
       flexible="false"
       use_knot_distance="true"
       apply_no_radius="true"
       apply_with_radius="true"
       only_selected="false"
       hide_knots="false" /><inkscape:path-effect
       effect="fillet_chamfer"
       id="path-effect66-62"
       is_visible="true"
       lpeversion="1"
       nodesatellites_param="F,0,0,1,0,0,0,1 @ F,0,0,1,0,0.44929322,0,1 @ F,0,0,1,0,0.44929322,0,1 @ F,0,0,1,0,0,0,1 @ F,0,0,1,0,0,0,1 @ F,0,0,1,0,0,0,1 @ F,0,0,1,0,0,0,1 @ F,0,0,1,0,0,0,1 @ F,0,0,1,0,0,0,1 @ F,0,0,1,0,0,0,1"
       radius="0"
       unit="px"
       method="auto"
       mode="F"
       chamfer_steps="1"
       flexible="false"
       use_knot_distance="true"
       apply_no_radius="true"
       apply_with_radius="true"
       only_selected="false"
       hide_knots="false" /><inkscape:path-effect
       effect="fillet_chamfer"
       id="path-effect68-7-9"
       is_visible="true"
       lpeversion="1"
       nodesatellites_param="F,0,0,1,0,0,0,1 @ F,0,0,1,0,0,0,1 @ F,0,0,1,0,0,0,1 @ F,0,0,1,0,0,0,1 @ F,0,0,1,0,0,0,1 @ F,0,0,1,0,0,0,1 @ F,0,0,1,0,0,0,1 @ F,0,0,1,0,0,0,1 @ F,0,0,1,0,0,0,1"
       radius="0"
       unit="px"
       method="auto"
       mode="F"
       chamfer_steps="1"
       flexible="false"
       use_knot_distance="true"
       apply_no_radius="true"
       apply_with_radius="true"
       only_selected="false"
       hide_knots="false" /><inkscape:path-effect
       effect="fillet_chamfer"
       id="path-effect66-5-1"
       is_visible="true"
       lpeversion="1"
       nodesatellites_param="F,0,0,1,0,0,0,1 @ F,0,0,1,0,0.44929322,0,1 @ F,0,0,1,0,0.44929322,0,1 @ F,0,0,1,0,0,0,1 @ F,0,0,1,0,0,0,1 @ F,0,0,1,0,0,0,1 @ F,0,0,1,0,0,0,1 @ F,0,0,1,0,0,0,1 @ F,0,0,1,0,0,0,1 @ F,0,0,1,0,0,0,1"
       radius="0"
       unit="px"
       method="auto"
       mode="F"
       chamfer_steps="1"
       flexible="false"
       use_knot_distance="true"
       apply_no_radius="true"
       apply_with_radius="true"
       only_selected="false"
       hide_knots="false" /><inkscape:path-effect
       effect="fillet_chamfer"
       id="path-effect68-3-2"
       is_visible="true"
       lpeversion="1"
       nodesatellites_param="F,0,0,1,0,0,0,1 @ F,0,0,1,0,0,0,1 @ F,0,0,1,0,0,0,1 @ F,0,0,1,0,0,0,1 @ F,0,0,1,0,0,0,1 @ F,0,0,1,0,0,0,1 @ F,0,0,1,0,0,0,1 @ F,0,0,1,0,0,0,1 @ F,0,0,1,0,0,0,1"
       radius="0"
       unit="px"
       method="auto"
       mode="F"
       chamfer_steps="1"
       flexible="false"
       use_knot_distance="true"
       apply_no_radius="true"
       apply_with_radius="true"
       only_selected="false"
       hide_knots="false" /><inkscape:path-effect
       effect="fillet_chamfer"
       id="path-effect66-6-7"
       is_visible="true"
       lpeversion="1"
       nodesatellites_param="F,0,0,1,0,0,0,1 @ F,0,0,1,0,0.44929322,0,1 @ F,0,0,1,0,0.44929322,0,1 @ F,0,0,1,0,0,0,1 @ F,0,0,1,0,0,0,1 @ F,0,0,1,0,0,0,1 @ F,0,0,1,0,0,0,1 @ F,0,0,1,0,0,0,1 @ F,0,0,1,0,0,0,1 @ F,0,0,1,0,0,0,1"
       radius="0"
       unit="px"
       method="auto"
       mode="F"
       chamfer_steps="1"
       flexible="false"
       use_knot_distance="true"
       apply_no_radius="true"
       apply_with_radius="true"
       only_selected="false"
       hide_knots="false" /><filter
       style="color-interpolation-filters:sRGB;"
       inkscape:label="Clean Edges"
       id="filter14269-5"
       x="-0.31154084"
       y="-0.29580634"
       width="1.6230817"
       height="1.5916127"><feGaussianBlur
         stdDeviation="0.204612"
         result="blur"
         id="feGaussianBlur14263-6" /><feComposite
         in="SourceGraphic"
         in2="blur"
         operator="in"
         result="composite1"
         id="feComposite14265-2" /><feComposite
         in="composite1"
         in2="composite1"
         operator="in"
         result="composite2"
         id="feComposite14267-9" /></filter></defs><g
     inkscape:label="Camada 1"
     inkscape:groupmode="layer"
     id="layer1"><g
       id="g1"
       transform="rotate(1.8800151,90.045147,8.9800817)"><path
         id="rect11"
         style="fill:#552323;fill-opacity:1;stroke:#350f0f;stroke-width:2.12549;stroke-dasharray:none;stroke-opacity:1"
         d="m 51.506736,45.554261 -22.419158,3.095917 9e-6,7.640393 18.976131,-1.32e-4 -0.01165,-2.282127 -6.457188,-2.354088 6.81895,-1.560434 z"
         transform="matrix(0.7864738,-0.61762364,0.57571522,0.81765028,0,0)"
         sodipodi:nodetypes="cccccccc" /><path
         style="fill:#260011;fill-opacity:1;fill-rule:nonzero;stroke:none;stroke-width:1.24486;stroke-linecap:round;stroke-dasharray:none;stroke-opacity:1"
         d="m 57.665987,16.30518 -0.271753,4.076295 4.375223,1.358765 -5.679638,4.402399 -0.05435,-8.15259 z"
         id="path50"
         sodipodi:nodetypes="cccccc" /></g><rect
       style="fill:#260011;fill-opacity:1;stroke:#510025;stroke-width:1.45887;stroke-dasharray:none;stroke-opacity:1"
       id="rect19"
       width="3.2533581"
       height="10.030683"
       x="-35.666592"
       y="51.685947"
       transform="matrix(-0.87721392,0.48009972,0.44532922,0.8953669,0,0)" /><rect
       style="fill:#260011;fill-opacity:1;stroke:#510025;stroke-width:1.45887;stroke-dasharray:none;stroke-opacity:1"
       id="rect18"
       width="3.2533581"
       height="10.030683"
       x="35.861988"
       y="13.771146"
       transform="matrix(0.87721392,0.48009972,-0.44532922,0.8953669,0,0)" /><rect
       style="fill:#552323;fill-opacity:1;stroke:#350f0f;stroke-width:1.95146;stroke-dasharray:none;stroke-opacity:1"
       id="rect44"
       width="17.533892"
       height="6.9704514"
       x="-18.737555"
       y="48.965668"
       transform="matrix(0.82381063,-0.56686511,0.55877127,0.82932181,0,0)" /><rect
       style="fill:#260011;fill-opacity:1;stroke:none;stroke-width:1.09345;stroke-dasharray:none;stroke-opacity:1"
       id="rect30"
       width="12.726264"
       height="3.0152307"
       x="-36.557846"
       y="53.138157"
       transform="matrix(0.82460222,-0.56571298,0.81432873,0.58040393,0,0)" /><path
       id="path9"
       style="fill:#552323;fill-opacity:1;stroke:#350f0f;stroke-width:1.56557;stroke-opacity:1"
       inkscape:transform-center-x="0.09851727"
       inkscape:transform-center-y="-2.6847986"
       d="M 40.5722,12.074198 C 35.45059,11.817277 30.02557,12.623161 24.076566,15.262117 V 56.362968 C 17.871841,58.75141 11.875049,63.271171 6.4855461,74.015645 l 17.6355829,-6.516229 -8.759482,10.38229 12.305603,-3.42859 1.304738,-4.422327 2.055059,1.152979 6.29884,-2.994649 9.807633,5.791551 1.338456,-7.678257 c 4.367058,4.686291 7.871559,6.43775 10.608756,6.913565 l -0.172288,-4.95994 2.896052,3.230554 9.068961,0.976439 L 55.24624,58.806229 V 15.262117 C 50.511587,13.650848 45.69381,12.33112 40.5722,12.074198 Z"
       sodipodi:nodetypes="scccccccccccccccccs" /><ellipse
       style="fill:#260011;fill-opacity:1;stroke:none;stroke-width:2.08378;stroke-dasharray:none;stroke-opacity:1"
       id="ellipse27"
       cx="47.578415"
       cy="36.808666"
       rx="8.0706511"
       ry="7.2251558" /><ellipse
       style="fill:#260011;fill-opacity:1;stroke:none;stroke-width:1.99975;stroke-dasharray:none;stroke-opacity:1"
       id="path27"
       cx="31.129658"
       cy="37.269848"
       rx="7.7631984"
       ry="6.9177022" /><ellipse
       style="fill:#552323;fill-opacity:1;stroke:#350f0f;stroke-width:1.99094;stroke-dasharray:none;stroke-opacity:1"
       id="ellipse8"
       cx="39.395756"
       cy="16.200153"
       rx="15.322746"
       ry="4.923821" /><rect
       style="fill:#260011;fill-opacity:1;stroke:none;stroke-width:1.5617;stroke-dasharray:none;stroke-opacity:1"
       id="rect27"
       width="8.3012428"
       height="5.1692953"
       x="35.094719"
       y="32.457832" /><rect
       style="fill:#ff0f7c;fill-opacity:1;stroke:#510025;stroke-width:1.35996;stroke-dasharray:none;stroke-opacity:1"
       id="rect17"
       width="8.3012428"
       height="3.9200313"
       x="35.203419"
       y="31.111904" /><path
       id="path17"
       style="fill:#ff0f7c;fill-opacity:1;stroke:#510025;stroke-width:1.52512;stroke-opacity:1"
       d="m 38.091026,30.846967 a 7.8387989,9.1155689 7.725968 0 1 -0.167301,3.909401 7.8387989,9.1155689 7.725968 0 1 -9.65489,6.827539 7.8387989,9.1155689 7.725968 0 1 -5.519474,-10.899555 7.8387989,9.1155689 7.725968 0 1 1.569304,-3.533177 z" /><g
       id="g21"
       transform="matrix(1.3268546,0.34342108,-0.32921843,1.0327088,-1.5100028,-11.957452)"><ellipse
         style="fill:#ff2386;fill-opacity:1;fill-rule:nonzero;stroke:none;stroke-width:2.00647;stroke-linecap:round;stroke-opacity:1"
         id="ellipse21"
         cx="33.685371"
         cy="33.426682"
         rx="3.2090452"
         ry="3.1513977" /><ellipse
         style="fill:#ff4e9e;fill-opacity:1;fill-rule:nonzero;stroke:none;stroke-width:1.50296;stroke-linecap:round;stroke-opacity:1"
         id="ellipse20"
         cx="34.37714"
         cy="33.108891"
         rx="2.3251166"
         ry="2.4404116" /><ellipse
         style="fill:#ff7db7;fill-opacity:1;fill-rule:nonzero;stroke:none;stroke-width:0.89686;stroke-linecap:round;stroke-opacity:1"
         id="path20"
         cx="34.665375"
         cy="33.051243"
         rx="1.3835404"
         ry="1.4604038" /></g><path
       id="path22"
       style="fill:#510025;fill-opacity:1;stroke:none;stroke-width:1.75803;stroke-dasharray:none;stroke-opacity:1"
       d="m 29.916597,39.955083 c 1.745965,4.44e-4 3.364459,-1.022689 4.264971,-2.69611 -0.285885,0.05623 -0.575619,0.08437 -0.865889,0.08411 -3.9709,-2.38e-4 -8.080674,-4.765765 -6.155859,-8.344486 -5.888478,1.163117 -3.238522,10.956129 2.756777,10.956486 z"
       sodipodi:nodetypes="scccss" /><g
       id="g3"
       transform="matrix(0.87626992,0,0,0.59668105,4.5845151,19.084192)"
       style="stroke-width:1.76843541;stroke-dasharray:none"><path
         id="path13"
         style="fill:#ffffff;fill-opacity:1;stroke:#350f0f;stroke-width:1.76843541;stroke-dasharray:none;stroke-opacity:1"
         d="M 53.330073,46.353245 A 17.30158,11.03738 0 0 1 39.350933,50.887325 17.30158,11.03738 0 0 1 25.924903,46.811712 13.784306,13.567576 0 0 0 39.602344,58.69454 13.784306,13.567576 0 0 0 53.330073,46.353245 Z" /><path
         style="fill:#ffffff;fill-opacity:1;stroke:#350f0f;stroke-width:1.76843541;stroke-dasharray:none;stroke-opacity:1"
         d="m 39.164165,50.792345 0.12659,7.691321"
         id="path14" /><path
         style="fill:#ffffff;fill-opacity:1;stroke:#350f0f;stroke-width:1.76843541;stroke-dasharray:none;stroke-opacity:1"
         d="m 44.547826,50.146324 0.12659,7.691321"
         id="path15-0" /><path
         style="fill:#ffffff;fill-opacity:1;stroke:#350f0f;stroke-width:1.76843541;stroke-dasharray:none;stroke-opacity:1"
         d="m 34.003099,49.986705 0.12659,7.691321"
         id="path16" /><path
         style="fill:#ffffff;fill-opacity:1;stroke:#350f0f;stroke-width:1.76843541;stroke-dasharray:none;stroke-opacity:1"
         d="m 29.898392,49.500953 0.129062,5.573938"
         id="path18" /><path
         style="fill:#ffffff;fill-opacity:1;stroke:#350f0f;stroke-width:1.76843541;stroke-dasharray:none;stroke-opacity:1"
         d="m 49.306669,49.099137 0.129063,5.573937"
         id="path21" /><path
         style="fill:none;fill-opacity:1;stroke:#350f0f;stroke-width:1.76843541;stroke-dasharray:none;stroke-opacity:1"
         d="m 26.133541,47.809008 c 2.638975,2.126552 4.756853,4.353771 7.763198,5.918477 1.55145,0.80748 3.586692,0.986885 5.380436,0.922362 1.793744,-0.06452 3.777645,-0.367443 5.457298,-0.845498 1.679653,-0.478055 3.369552,-0.871186 4.458074,-2.113743 l 4.073757,-4.650231"
         id="path2"
         sodipodi:nodetypes="cszzsc" /></g><path
       id="path12"
       style="fill:#ff0f7c;fill-opacity:1;stroke:#510025;stroke-width:1.52512;stroke-opacity:1"
       d="m 40.335895,30.778981 a 9.1155689,7.8387989 82.274032 0 0 0.167301,3.909401 9.1155689,7.8387989 82.274032 0 0 9.65489,6.827539 9.1155689,7.8387989 82.274032 0 0 5.519474,-10.899555 9.1155689,7.8387989 82.274032 0 0 -1.569304,-3.533177 z" /><ellipse
       style="fill:#260011;fill-opacity:1;stroke:none;stroke-width:2.20103;stroke-dasharray:none;stroke-opacity:1"
       id="path26"
       cx="39.671947"
       cy="17.125408"
       rx="12.815682"
       ry="2.1929505" /><g
       id="g2"
       transform="rotate(-0.53311364,54.990808,-19.971132)"><path
         id="path24"
         style="fill:#e5b000;fill-opacity:1;stroke:#461c00;stroke-width:1.53267;stroke-dasharray:none;stroke-opacity:1"
         inkscape:transform-center-x="-0.091956415"
         inkscape:transform-center-y="-2.0390942"
         d="M 40.098582,4.4599127 35.130636,12.149388 28.084179,5.3047078 28.719374,16.47597 c 7.355657,1.659984 14.600698,1.410973 21.713411,-0.143635 L 51.223622,5.5762254 44.761103,12.526007 Z"
         sodipodi:nodetypes="cccccccc" /><path
         id="path28"
         style="fill:#ed7700;fill-opacity:1;stroke:none;stroke-width:1.3163;stroke-dasharray:none;stroke-opacity:1"
         inkscape:transform-center-x="-0.085044847"
         inkscape:transform-center-y="-1.626262"
         d="m 28.913025,6.981486 0.532245,8.909534 c 6.956514,1.419985 13.708139,1.084897 20.286242,-0.154968 l 0.0577,-1.91209 c -1.677717,1.410706 -4.007651,2.209583 -6.444568,2.209685 -3.250275,-4.8e-5 -8.085312,-3.496984 -8.085312,-3.496984 z"
         sodipodi:nodetypes="ccccccc" /></g><g
       id="g24"
       transform="matrix(1.3268546,0.34342108,-0.32921843,1.0327088,16.706613,-13.187266)"><ellipse
         style="fill:#ff2386;fill-opacity:1;fill-rule:nonzero;stroke:none;stroke-width:2.00647;stroke-linecap:round;stroke-opacity:1"
         id="ellipse22"
         cx="33.685371"
         cy="33.426682"
         rx="3.2090452"
         ry="3.1513977" /><ellipse
         style="fill:#ff4e9e;fill-opacity:1;fill-rule:nonzero;stroke:none;stroke-width:1.50296;stroke-linecap:round;stroke-opacity:1"
         id="ellipse23"
         cx="34.37714"
         cy="33.108891"
         rx="2.3251166"
         ry="2.4404116" /><ellipse
         style="fill:#ff7db7;fill-opacity:1;fill-rule:nonzero;stroke:none;stroke-width:0.89686;stroke-linecap:round;stroke-opacity:1"
         id="ellipse24"
         cx="34.665375"
         cy="33.051243"
         rx="1.3835404"
         ry="1.4604038" /></g><path
       id="path15"
       style="fill:#510025;fill-opacity:1;stroke:none;stroke-width:1.66324;stroke-dasharray:none;stroke-opacity:1"
       d="m 48.549285,40.56999 c 1.732965,4e-4 3.339409,-0.922246 4.233216,-2.431313 -0.283757,0.05071 -0.571334,0.07608 -0.859442,0.07585 -3.941334,-2.15e-4 -8.020508,-4.297698 -6.110025,-7.524936 -5.844634,1.048882 -3.214409,9.880077 2.736251,9.880399 z"
       sodipodi:nodetypes="scccss" /><path
       style="fill:#813535;fill-opacity:1;fill-rule:nonzero;stroke:none;stroke-width:1.24486;stroke-linecap:round;stroke-dasharray:none;stroke-opacity:1"
       d="M 8.4777564,72.576039 C 16.308082,67.944759 21.332266,66.168668 27.363354,59.876554 l -0.07686,4.534937 -2.613355,2.459628 z"
       id="path39"
       sodipodi:nodetypes="ccccc" /><path
       style="fill:#562424;fill-opacity:1;fill-rule:nonzero;stroke:none;stroke-width:1.24486;stroke-linecap:round;stroke-dasharray:none;stroke-opacity:1"
       d="m 27.447052,60.927022 -5.217657,6.929701 1.548993,-0.489156 2.092498,-1.168538 1.467467,-3.369736 z"
       id="path44"
       sodipodi:nodetypes="cccccc" /><path
       style="fill:none;fill-opacity:1;fill-rule:nonzero;stroke:#350f0f;stroke-width:1.32847;stroke-linecap:round;stroke-dasharray:none;stroke-opacity:1"
       d="m 23.981367,67.601322 c 0,0 1.832769,-1.04495 2.613354,-2.190607 0.780585,-1.145656 1.573768,-6.847902 1.573768,-6.847902"
       id="path31"
       sodipodi:nodetypes="czc" /><path
       style="fill:none;fill-opacity:1;fill-rule:nonzero;stroke:#350f0f;stroke-width:1.24486;stroke-linecap:round;stroke-dasharray:none;stroke-opacity:1"
       d="m 27.223967,68.707915 3.299579,2.129334"
       id="path35" /><path
       style="fill:none;fill-opacity:1;fill-rule:nonzero;stroke:#350f0f;stroke-width:1.32847;stroke-linecap:round;stroke-dasharray:none;stroke-opacity:1"
       d="m 38.902733,69.123139 c 0,0 -1.832769,-1.04495 -2.613354,-2.190607 -0.780585,-1.145656 -1.302015,-7.445759 -1.302015,-7.445759"
       id="path36"
       sodipodi:nodetypes="czc" /><path
       style="fill:none;fill-opacity:1;fill-rule:nonzero;stroke:#350f0f;stroke-width:1.32847;stroke-linecap:round;stroke-dasharray:none;stroke-opacity:1"
       d="m 49.971056,67.739599 c 0,0 -1.832769,-1.04495 -2.613354,-2.190607 -0.780585,-1.145656 -1.383541,-5.380436 -1.383541,-5.380436"
       id="path37"
       sodipodi:nodetypes="czc" /><path
       style="fill:#260011;fill-opacity:1;fill-rule:nonzero;stroke:none;stroke-width:1.24486;stroke-linecap:round;stroke-dasharray:none;stroke-opacity:1"
       d="m 54.676703,60.927022 8.804798,7.663436 5.217658,2.880583 -6.467723,-0.597858 c -3.431247,-3.419935 -5.621833,-6.662632 -8.09824,-9.946161 z"
       id="path49"
       sodipodi:nodetypes="cccccc" /><path
       style="fill:none;fill-opacity:1;fill-rule:nonzero;stroke:#350f0f;stroke-width:1.32847;stroke-linecap:round;stroke-dasharray:none;stroke-opacity:1"
       d="m 58.854771,69.084966 c 0,0 -0.801648,-1.756096 -1.201773,-3.083402 -0.40011,-1.32731 -3.314132,-4.458678 -3.314132,-4.458678"
       id="path38"
       sodipodi:nodetypes="czc" /><path
       style="fill:#813535;fill-opacity:1;fill-rule:nonzero;stroke:none;stroke-width:1.24486;stroke-linecap:round;stroke-dasharray:none;stroke-opacity:1"
       d="m 27.440218,68.100932 c 0,0 1.565334,-0.614189 2.382762,-1.921582 0.817429,-1.307393 1.138964,-8.887182 1.138964,-8.887182 0,0 1.195586,7.615805 2.243026,8.887182 1.04744,1.271377 3.074535,1.729425 3.074535,1.729425 l -5.26514,2.536492 z"
       id="path40"
       sodipodi:nodetypes="czczccc" /><path
       style="fill:#260011;fill-opacity:1;fill-rule:nonzero;stroke:none;stroke-width:1.24486;stroke-linecap:round;stroke-dasharray:none;stroke-opacity:1"
       d="m 26.633154,68.677408 -8.072985,7.562115 8.494601,-2.419194 1.136233,-3.836243 z"
       id="path41"
       sodipodi:nodetypes="ccccc" /><path
       style="fill:#c06666;fill-opacity:1;fill-rule:nonzero;stroke:none;stroke-width:0.82916;stroke-linecap:round;stroke-dasharray:none;stroke-opacity:1"
       d="m 28.40381,68.782507 c 0,0 1.276784,-0.500641 1.865478,-1.306022 0.588696,-0.805381 0.996397,-3.716927 0.996397,-3.716927 0,0 0.684897,2.933732 1.439241,3.716927 0.754343,0.783193 2.214214,1.065361 2.214214,1.065361 l -3.91413,1.90222 z"
       id="path42"
       sodipodi:nodetypes="czczccc" /><path
       style="fill:#3d0c21;fill-opacity:1;fill-rule:nonzero;stroke:none;stroke-width:0.94793;stroke-linecap:round;stroke-dasharray:none;stroke-opacity:1"
       d="m 25.847022,69.425474 -7.310075,6.844461 6.506403,-2.586094 1.465226,-2.054603 z"
       id="path43"
       sodipodi:nodetypes="ccccc" /><path
       style="fill:#813535;fill-opacity:1;fill-rule:nonzero;stroke:none;stroke-width:1.24486;stroke-linecap:round;stroke-dasharray:none;stroke-opacity:1"
       d="m 37.432454,64.603651 c 0,0 1.893638,2.96424 4.265915,4.265914 2.372277,1.301674 4.919257,3.804738 4.919257,3.804738 l 0.883928,-5.764753 -0.65334,-0.999223 -0.960792,-2.421194 -0.49961,-2.574923 c 0,0 0.675476,4.000935 -0.499612,5.26514 -1.175088,1.264205 -7.455746,-1.575699 -7.455746,-1.575699 z"
       id="path45"
       sodipodi:nodetypes="czccccczc" /><path
       style="fill:#813535;fill-opacity:1;fill-rule:nonzero;stroke:none;stroke-width:1.24486;stroke-linecap:round;stroke-dasharray:none;stroke-opacity:1"
       d="m 46.714341,60.030238 c 0.726128,4.774528 1.383287,5.60786 1.654562,6.008803 0,0 9.067172,6.812776 9.854108,6.168657 0.786935,-0.64412 -9.556849,-8.014208 -11.50867,-12.17746 z"
       id="path47"
       sodipodi:nodetypes="cczc" /><path
       style="fill:#260011;fill-opacity:1;fill-rule:nonzero;stroke:none;stroke-width:1.24486;stroke-linecap:round;stroke-dasharray:none;stroke-opacity:1"
       d="m 53.68246,61.64441 c -0.312059,0.53446 -1.789907,0.780618 -2.837349,1.11452 3.202261,0.695046 5.433322,4.989304 7.359664,6.763974 0.1331,-0.55014 -1.105861,-3.02846 -1.210597,-3.612577 -0.897711,-1.510128 -2.019987,-2.899069 -3.311718,-4.265917 z"
       id="path48"
       sodipodi:nodetypes="ccccc" /><path
       style="fill:#9a3d2b;fill-opacity:1;fill-rule:nonzero;stroke:#511717;stroke-width:0.963612;stroke-linecap:round;stroke-dasharray:none;stroke-opacity:1"
       d="m 18.964201,57.946182 -1.095466,10.769041 1.111899,1.298402 -1.534922,2.38524 0.762847,3.898687 3.507038,-1.440057 0.891293,-9.474275 -1.379453,-0.134104 3.492632,-4.98301 -2.993863,1.424638 1.853007,-16.75503 1.789036,-2.223757 5.852914,-1.708386 -1.624768,-1.070169 -1.82547,0.181314 1.982683,-3.165789 1.011682,-3.890258 -2.183797,3.599364 -4.045124,3.731871 0.232405,-8.823898 3.655812,-8.933184 -5.872246,2.174395 -2.358225,7.216899 1.118916,7.736655 -1.381038,7.615682 -2.489219,-4.661435 c -1.061018,-1.1556 -2.353612,-2.111049 -4.940687,-1.947668 -0.895232,-1.018639 -1.005381,-2.31683 -2.7128593,-2.77259 0.5494883,1.028923 0.7200843,1.976337 0.6751853,3.155283 L 9.0685386,40.785111 c 0.072439,0.765788 0.4442066,1.836617 1.0983574,2.199285 l -0.8542455,3.516955 2.8338665,-2.916462 1.197341,1.423052 3.125289,0.688047 2.935291,3.634423 -1.372378,5.179863 0.1852,2.083207 z"
       id="path51"
       sodipodi:nodetypes="ccccccccccccccccccccccccccccccccccccccc" /><g
       id="g65"
       transform="matrix(0.52263718,-0.09329106,0.09315089,0.52185191,22.347959,39.500375)"><path
         id="path63"
         style="fill:#1c7e1c;fill-opacity:1;stroke:#023c0c;stroke-width:1.54185;stroke-opacity:1"
         d="m -10.83715,30.180191 c 1.1889451,1.945427 -0.865699,0.143348 -9.832251,-0.352761 -4.815709,-0.266397 -6.73577,-5.954214 -5.571533,-8.258492 1.164238,-2.304276 5.556297,-2.244566 9.809936,0.133366 4.253636,2.377932 4.258686,6.293208 5.593848,8.477887 z"
         sodipodi:nodetypes="sssss" /><path
         id="path64"
         style="fill:#125212;fill-opacity:1;stroke-width:1.00549;stroke-linecap:round;stroke-linejoin:round"
         d="m -14.149442,28.022718 c 5.0606911,3.26981 -2.036339,1.325143 -5.537999,0.836473 -3.119328,-0.435315 -5.908775,-2.492594 -5.506995,-3.828058 0.40178,-1.335461 3.199993,-1.748377 6.249983,-0.922275 3.049992,0.826105 3.698237,3.205215 4.795011,3.91386 z"
         sodipodi:nodetypes="sssss" /><path
         style="fill:none;fill-opacity:1;stroke:#012307;stroke-width:1.16643;stroke-dasharray:none;stroke-opacity:1"
         d="m -23.646757,23.588316 c 5.688273,0.445296 9.215019,3.13576 11.997357,6.599427"
         id="path65"
         sodipodi:nodetypes="cc" /></g><g
       id="g4"
       transform="rotate(-24.290853,19.23213,28.340662)"><path
         id="path6"
         style="fill:#1c7e1c;fill-opacity:1;stroke:#023c0c;stroke-width:1.54185;stroke-opacity:1"
         d="m 23.811545,30.241804 c -1.513085,1.705535 0.826903,0.29362 9.74061,1.384956 4.787319,0.586178 7.6794,-4.674407 6.939329,-7.147754 -0.740071,-2.473344 -5.073953,-3.188339 -9.679992,-1.596987 -4.606037,1.591353 -5.300783,5.444499 -6.999947,7.359785 z"
         sodipodi:nodetypes="sssss" /><path
         id="path7"
         style="fill:#125212;fill-opacity:1;stroke-width:1.00549;stroke-linecap:round;stroke-linejoin:round"
         d="m 27.452122,28.70162 c -5.557595,2.327097 1.77103,1.663169 5.304012,1.799048 3.14723,0.121042 6.255488,-1.412627 6.095267,-2.797986 -0.16022,-1.385357 -2.841919,-2.284791 -5.989743,-2.008942 -3.147826,0.275851 -4.205071,2.503543 -5.409536,3.00788 z"
         sodipodi:nodetypes="sssss" /><path
         style="fill:none;fill-opacity:1;stroke:#012307;stroke-width:1.16643;stroke-dasharray:none;stroke-opacity:1"
         d="M 37.582119,26.009769 C 31.904367,25.445967 27.958791,27.473024 24.60976,30.392336"
         id="path8"
         sodipodi:nodetypes="cc" /></g><g
       id="g62"
       transform="rotate(30.42182,9.4912992,90.618188)"><path
         id="path77"
         style="fill:#1c7e1c;fill-opacity:1;stroke:#023c0c;stroke-width:1.54185;stroke-opacity:1"
         d="m -10.83715,30.180191 c 1.1889451,1.945427 -0.865699,0.143348 -9.832251,-0.352761 -4.815709,-0.266397 -6.73577,-5.954214 -5.571533,-8.258492 1.164238,-2.304276 5.556297,-2.244566 9.809936,0.133366 4.253636,2.377932 4.258686,6.293208 5.593848,8.477887 z"
         sodipodi:nodetypes="sssss" /><path
         id="path29-3"
         style="fill:#125212;fill-opacity:1;stroke-width:1.00549;stroke-linecap:round;stroke-linejoin:round"
         d="m -14.149442,28.022718 c 5.0606911,3.26981 -2.036339,1.325143 -5.537999,0.836473 -3.119328,-0.435315 -5.908775,-2.492594 -5.506995,-3.828058 0.40178,-1.335461 3.199993,-1.748377 6.249983,-0.922275 3.049992,0.826105 3.698237,3.205215 4.795011,3.91386 z"
         sodipodi:nodetypes="sssss" /><path
         style="fill:none;fill-opacity:1;stroke:#012307;stroke-width:1.16643;stroke-dasharray:none;stroke-opacity:1"
         d="m -23.646757,23.588316 c 5.688273,0.445296 9.215019,3.13576 11.997357,6.599427"
         id="path78"
         sodipodi:nodetypes="cc" /></g><path
       style="fill:#511717;fill-opacity:1;fill-rule:nonzero;stroke:none;stroke-width:0.487363;stroke-linecap:round;stroke-dasharray:none;stroke-opacity:1"
       d="m 20.647642,34.260576 1.417459,0.864649 2.819247,-0.621112 -0.008,-1.630952 -3.867066,0.154917 z"
       id="path59" /><g
       id="g53"
       transform="matrix(1.4026335,0.25435537,-0.20579876,1.1348698,43.60803,-1.3787905)"><path
         style="fill:#ac5a30;fill-opacity:1;fill-rule:nonzero;stroke:#4f2a16;stroke-width:0.487362;stroke-linecap:round;stroke-dasharray:none;stroke-opacity:1"
         d="m -11.386451,26.550268 -0.842434,6.304669 1.875096,0.543507 1.7392188,-0.625033 -0.2174023,-6.060091 z"
         id="path52" /><path
         style="fill:#ac5a30;fill-opacity:1;fill-rule:nonzero;stroke:#4f2a16;stroke-width:0.487363;stroke-linecap:round;stroke-dasharray:none;stroke-opacity:1"
         d="m -11.427214,27.610104 1.9837973,0.380455 -0.067938,0.625033 -1.5625803,-0.06794 -0.04076,0.815261 2.3099012,-0.203817 -0.095114,0.910373 -2.2147872,-0.122287 0.06794,0.149463 2.1604357,0.326104 -0.1358765,0.747321 -2.8669942,-0.09511 0.01359,0.69297 1.589755,0.122291 0.06794,0.584268 1.1549507,-0.163052"
         id="path53" /></g><path
       style="fill:#511717;fill-opacity:1;fill-rule:nonzero;stroke:none;stroke-width:0.487363;stroke-linecap:round;stroke-dasharray:none;stroke-opacity:1"
       d="m 18.995387,59.742472 -0.09208,1.584697 2.677805,0.09501 0.236482,-1.519457 -3.09377,-0.170442 z"
       id="path60" /><path
       style="fill:#d16e5b;fill-opacity:1;fill-rule:nonzero;stroke:none;stroke-width:0.487363;stroke-linecap:round;stroke-dasharray:none;stroke-opacity:1"
       d="m 21.999089,36.070912 0.682256,3.560868 -1.715147,7.735019 -0.904781,5.85093 1.450682,0.184955 0.814643,-7.507731 1.234731,-5.947332 0.204135,-4.571881 z"
       id="path61" /><g
       id="g55"
       transform="matrix(1.4026335,0.25435537,0.20579876,-1.1348698,28.820697,92.831021)"><path
         style="fill:#ac5a30;fill-opacity:1;fill-rule:nonzero;stroke:#4f2a16;stroke-width:0.487362;stroke-linecap:round;stroke-dasharray:none;stroke-opacity:1"
         d="m -11.386451,26.550268 -0.842434,6.304669 1.875096,0.543507 1.7392188,-0.625033 -0.2174023,-6.060091 z"
         id="path54" /><path
         style="fill:#ac5a30;fill-opacity:1;fill-rule:nonzero;stroke:#4f2a16;stroke-width:0.487363;stroke-linecap:round;stroke-dasharray:none;stroke-opacity:1"
         d="m -11.427214,27.610104 1.9837973,0.380455 -0.067938,0.625033 -1.5625803,-0.06794 -0.04076,0.815261 2.3099012,-0.203817 -0.095114,0.910373 -2.2147872,-0.122287 0.06794,0.149463 2.1604357,0.326104 -0.1358765,0.747321 -2.8669942,-0.09511 0.01359,0.69297 1.589755,0.122291 0.06794,0.584268 1.1549507,-0.163052"
         id="path55" /></g><path
       style="fill:#d16e5b;fill-opacity:1;fill-rule:nonzero;stroke:none;stroke-width:0.487363;stroke-linecap:round;stroke-dasharray:none;stroke-opacity:1"
       d="m 19.680894,61.979959 -0.979202,6.008978 1.522623,2.264646 -1.821853,2.431474 0.462752,2.017213 1.458042,-0.729863 -0.170974,-1.79859 1.175402,-2.217279 -1.76092,-2.473572 0.508997,-3.111445 1.798029,-1.386291 -1.701331,0.24385 z"
       id="path62" /><g
       id="g51"
       transform="translate(69.369079,16.665109)"><path
         id="path1"
         style="fill:#552323;fill-opacity:1;stroke:#350f0f;stroke-width:2.14441;stroke-dasharray:none;stroke-opacity:1"
         d="m -48.703375,40.174167 c -0.08379,2.553094 -3.035005,5.615465 -6.833623,3.820289 -3.028943,-1.431425 -5.901259,-2.874457 -5.372392,-5.843758 0.532511,-2.989739 1.029589,-6.013668 7.03353,-3.981401 3.207327,1.08564 5.243415,3.844274 5.172485,6.00487 z"
         sodipodi:nodetypes="sssss" /><path
         id="path30"
         style="fill:#813535;fill-opacity:1;stroke:none;stroke-width:1.14835;stroke-dasharray:none;stroke-opacity:1"
         d="m -49.724999,39.567201 c -0.209017,1.341993 -1.986013,2.765742 -3.904411,1.570532 -1.529694,-0.953029 -2.974781,-1.901969 -2.500712,-3.434594 0.477335,-1.543176 0.720494,-2.957242 3.8044,-1.493062 1.647434,0.782168 2.777614,2.221445 2.600723,3.357124 z"
         sodipodi:nodetypes="sssss" /></g><path
       style="fill:#c06666;fill-opacity:1;fill-rule:nonzero;stroke:none;stroke-width:0.865389;stroke-linecap:round;stroke-dasharray:none;stroke-opacity:1"
       d="m 40.699146,66.516945 c 0,0 1.207015,2.247398 2.719114,3.234288 1.5121,0.986891 3.135557,2.884638 3.135557,2.884638 l 0.56342,-4.370662 -0.416442,-0.757581 -0.612413,-1.835677 -0.318453,-1.952228 c 0,0 0.430551,3.033388 -0.318456,3.99187 -0.749006,0.958483 -4.752327,-1.194648 -4.752327,-1.194648 z"
       id="path3"
       sodipodi:nodetypes="czccccczc" /></g></svg>
