<?xml version="1.0" encoding="UTF-8" standalone="no"?>
<!-- Created with Inkscape (http://www.inkscape.org/) -->

<svg
   width="400"
   height="400"
   viewBox="0 0 105.83333 105.83333"
   version="1.1"
   id="svg3527"
   inkscape:version="1.4.2 (ebf0e940d0, 2025-05-08)"
   sodipodi:docname="colina_background.svg"
   xml:space="preserve"
   xmlns:inkscape="http://www.inkscape.org/namespaces/inkscape"
   xmlns:sodipodi="http://sodipodi.sourceforge.net/DTD/sodipodi-0.dtd"
   xmlns:xlink="http://www.w3.org/1999/xlink"
   xmlns="http://www.w3.org/2000/svg"
   xmlns:svg="http://www.w3.org/2000/svg"><sodipodi:namedview
     id="namedview3529"
     pagecolor="#505050"
     bordercolor="#ffffff"
     borderopacity="1"
     inkscape:pageshadow="0"
     inkscape:pageopacity="0"
     inkscape:pagecheckerboard="1"
     inkscape:document-units="px"
     showgrid="false"
     width="100mm"
     inkscape:zoom="1.7211279"
     inkscape:cx="190.2822"
     inkscape:cy="70.012229"
     inkscape:window-width="1366"
     inkscape:window-height="697"
     inkscape:window-x="0"
     inkscape:window-y="0"
     inkscape:window-maximized="1"
     inkscape:current-layer="layer1"
     inkscape:snap-global="false"
     inkscape:showpageshadow="0"
     inkscape:deskcolor="#505050" /><defs
     id="defs3524"><linearGradient
       id="linearGradient1"
       inkscape:collect="always"><stop
         style="stop-color:#2384b0;stop-opacity:0.82684594;"
         offset="0.55878431"
         id="stop1" /><stop
         style="stop-color:#44adda;stop-opacity:0.73123181;"
         offset="1"
         id="stop2" /></linearGradient><linearGradient
       id="linearGradient13895"
       inkscape:swatch="solid"><stop
         style="stop-color:#000000;stop-opacity:1;"
         offset="0"
         id="stop13893" /></linearGradient><filter
       style="color-interpolation-filters:sRGB;"
       inkscape:label="Clean Edges"
       id="filter14269"
       x="-0.31154084"
       y="-0.29580634"
       width="1.6230817"
       height="1.5916127"><feGaussianBlur
         stdDeviation="0.204612"
         result="blur"
         id="feGaussianBlur14263" /><feComposite
         in="SourceGraphic"
         in2="blur"
         operator="in"
         result="composite1"
         id="feComposite14265" /><feComposite
         in="composite1"
         in2="composite1"
         operator="in"
         result="composite2"
         id="feComposite14267" /></filter><filter
       inkscape:label="Glowing Bubble"
       inkscape:menu="Ridges"
       inkscape:menu-tooltip="Bubble effect with refraction and glow"
       x="-2.8985506"
       y="-2.8985509"
       width="6.7971012"
       height="6.7971018"
       style="color-interpolation-filters:sRGB;"
       id="filter14"><feGaussianBlur
         stdDeviation="1"
         result="result1"
         id="feGaussianBlur9" /><feGaussianBlur
         stdDeviation="10"
         result="result6"
         in="result1"
         id="feGaussianBlur10" /><feComposite
         operator="atop"
         in="result6"
         in2="result1"
         result="result8"
         id="feComposite10" /><feComposite
         operator="xor"
         result="fbSourceGraphic"
         in="result6"
         in2="result8"
         id="feComposite11" /><feColorMatrix
         result="fbSourceGraphicAlpha"
         in="fbSourceGraphic"
         values="0 0 0 -1 0 0 0 0 -1 0 0 0 0 -1 0 0 0 0 2 0 "
         id="feColorMatrix11" /><feGaussianBlur
         result="result0"
         in="fbSourceGraphicAlpha"
         stdDeviation="1"
         id="feGaussianBlur11" /><feSpecularLighting
         specularExponent="35"
         specularConstant="1.5"
         surfaceScale="-2"
         lighting-color="rgb(255,255,255)"
         result="result1"
         in="result0"
         id="feSpecularLighting11"><feDistantLight
           azimuth="230"
           elevation="60"
           id="feDistantLight11" /></feSpecularLighting><feComposite
         operator="in"
         result="result2"
         in="result1"
         in2="fbSourceGraphicAlpha"
         id="feComposite12" /><feComposite
         k3="1.2"
         k2="1.1"
         operator="arithmetic"
         result="result4"
         in="fbSourceGraphic"
         in2="result2"
         id="feComposite13" /><feGaussianBlur
         result="result80"
         in="result4"
         stdDeviation="0.5"
         id="feGaussianBlur13" /><feComposite
         operator="atop"
         in="result9"
         in2="result80"
         result="result91"
         id="feComposite14" /><feBlend
         mode="multiply"
         in2="result91"
         id="feBlend14" /></filter><filter
       inkscape:label="Glowing Bubble"
       inkscape:menu="Ridges"
       inkscape:menu-tooltip="Bubble effect with refraction and glow"
       x="-2.8985506"
       y="-2.8985509"
       width="6.7971012"
       height="6.7971018"
       style="color-interpolation-filters:sRGB;"
       id="filter14-6"><feGaussianBlur
         stdDeviation="1"
         result="result1"
         id="feGaussianBlur9-7" /><feGaussianBlur
         stdDeviation="10"
         result="result6"
         in="result1"
         id="feGaussianBlur10-5" /><feComposite
         operator="atop"
         in="result6"
         in2="result1"
         result="result8"
         id="feComposite10-3" /><feComposite
         operator="xor"
         result="fbSourceGraphic"
         in="result6"
         in2="result8"
         id="feComposite11-5" /><feColorMatrix
         result="fbSourceGraphicAlpha"
         in="fbSourceGraphic"
         values="0 0 0 -1 0 0 0 0 -1 0 0 0 0 -1 0 0 0 0 2 0 "
         id="feColorMatrix11-6" /><feGaussianBlur
         result="result0"
         in="fbSourceGraphicAlpha"
         stdDeviation="1"
         id="feGaussianBlur11-2" /><feSpecularLighting
         specularExponent="35"
         specularConstant="1.5"
         surfaceScale="-2"
         lighting-color="rgb(255,255,255)"
         result="result1"
         in="result0"
         id="feSpecularLighting11-9"><feDistantLight
           azimuth="230"
           elevation="60"
           id="feDistantLight11-1" /></feSpecularLighting><feComposite
         operator="in"
         result="result2"
         in="result1"
         in2="fbSourceGraphicAlpha"
         id="feComposite12-2" /><feComposite
         k3="1.2"
         k2="1.1"
         operator="arithmetic"
         result="result4"
         in="fbSourceGraphic"
         in2="result2"
         id="feComposite13-7" /><feGaussianBlur
         result="result80"
         in="result4"
         stdDeviation="0.5"
         id="feGaussianBlur13-0" /><feComposite
         operator="atop"
         in="result9"
         in2="result80"
         result="result91"
         id="feComposite14-9" /><feBlend
         mode="multiply"
         in2="result91"
         id="feBlend14-3" /></filter><inkscape:path-effect
       effect="fillet_chamfer"
       id="path-effect68"
       is_visible="true"
       lpeversion="1"
       nodesatellites_param="F,0,0,1,0,0,0,1 @ F,0,0,1,0,0,0,1 @ F,0,0,1,0,0,0,1 @ F,0,0,1,0,0,0,1 @ F,0,0,1,0,0,0,1 @ F,0,0,1,0,0,0,1 @ F,0,0,1,0,0,0,1 @ F,0,0,1,0,0,0,1 @ F,0,0,1,0,0,0,1"
       radius="0"
       unit="px"
       method="auto"
       mode="F"
       chamfer_steps="1"
       flexible="false"
       use_knot_distance="true"
       apply_no_radius="true"
       apply_with_radius="true"
       only_selected="false"
       hide_knots="false" /><inkscape:path-effect
       effect="fillet_chamfer"
       id="path-effect66"
       is_visible="true"
       lpeversion="1"
       nodesatellites_param="F,0,0,1,0,0,0,1 @ F,0,0,1,0,0.44929322,0,1 @ F,0,0,1,0,0.44929322,0,1 @ F,0,0,1,0,0,0,1 @ F,0,0,1,0,0,0,1 @ F,0,0,1,0,0,0,1 @ F,0,0,1,0,0,0,1 @ F,0,0,1,0,0,0,1 @ F,0,0,1,0,0,0,1 @ F,0,0,1,0,0,0,1"
       radius="0"
       unit="px"
       method="auto"
       mode="F"
       chamfer_steps="1"
       flexible="false"
       use_knot_distance="true"
       apply_no_radius="true"
       apply_with_radius="true"
       only_selected="false"
       hide_knots="false" /><inkscape:path-effect
       effect="fillet_chamfer"
       id="path-effect68-7"
       is_visible="true"
       lpeversion="1"
       nodesatellites_param="F,0,0,1,0,0,0,1 @ F,0,0,1,0,0,0,1 @ F,0,0,1,0,0,0,1 @ F,0,0,1,0,0,0,1 @ F,0,0,1,0,0,0,1 @ F,0,0,1,0,0,0,1 @ F,0,0,1,0,0,0,1 @ F,0,0,1,0,0,0,1 @ F,0,0,1,0,0,0,1"
       radius="0"
       unit="px"
       method="auto"
       mode="F"
       chamfer_steps="1"
       flexible="false"
       use_knot_distance="true"
       apply_no_radius="true"
       apply_with_radius="true"
       only_selected="false"
       hide_knots="false" /><inkscape:path-effect
       effect="fillet_chamfer"
       id="path-effect66-5"
       is_visible="true"
       lpeversion="1"
       nodesatellites_param="F,0,0,1,0,0,0,1 @ F,0,0,1,0,0.44929322,0,1 @ F,0,0,1,0,0.44929322,0,1 @ F,0,0,1,0,0,0,1 @ F,0,0,1,0,0,0,1 @ F,0,0,1,0,0,0,1 @ F,0,0,1,0,0,0,1 @ F,0,0,1,0,0,0,1 @ F,0,0,1,0,0,0,1 @ F,0,0,1,0,0,0,1"
       radius="0"
       unit="px"
       method="auto"
       mode="F"
       chamfer_steps="1"
       flexible="false"
       use_knot_distance="true"
       apply_no_radius="true"
       apply_with_radius="true"
       only_selected="false"
       hide_knots="false" /><inkscape:path-effect
       effect="fillet_chamfer"
       id="path-effect68-3"
       is_visible="true"
       lpeversion="1"
       nodesatellites_param="F,0,0,1,0,0,0,1 @ F,0,0,1,0,0,0,1 @ F,0,0,1,0,0,0,1 @ F,0,0,1,0,0,0,1 @ F,0,0,1,0,0,0,1 @ F,0,0,1,0,0,0,1 @ F,0,0,1,0,0,0,1 @ F,0,0,1,0,0,0,1 @ F,0,0,1,0,0,0,1"
       radius="0"
       unit="px"
       method="auto"
       mode="F"
       chamfer_steps="1"
       flexible="false"
       use_knot_distance="true"
       apply_no_radius="true"
       apply_with_radius="true"
       only_selected="false"
       hide_knots="false" /><inkscape:path-effect
       effect="fillet_chamfer"
       id="path-effect66-6"
       is_visible="true"
       lpeversion="1"
       nodesatellites_param="F,0,0,1,0,0,0,1 @ F,0,0,1,0,0.44929322,0,1 @ F,0,0,1,0,0.44929322,0,1 @ F,0,0,1,0,0,0,1 @ F,0,0,1,0,0,0,1 @ F,0,0,1,0,0,0,1 @ F,0,0,1,0,0,0,1 @ F,0,0,1,0,0,0,1 @ F,0,0,1,0,0,0,1 @ F,0,0,1,0,0,0,1"
       radius="0"
       unit="px"
       method="auto"
       mode="F"
       chamfer_steps="1"
       flexible="false"
       use_knot_distance="true"
       apply_no_radius="true"
       apply_with_radius="true"
       only_selected="false"
       hide_knots="false" /><linearGradient
       inkscape:collect="always"
       xlink:href="#linearGradient1"
       id="linearGradient2"
       x1="-3.0640795"
       y1="52.58141"
       x2="108.54229"
       y2="52.58141"
       gradientUnits="userSpaceOnUse"
       gradientTransform="matrix(0.53249464,0,0,1,-1.4324736,0)" /><linearGradient
       inkscape:collect="always"
       xlink:href="#linearGradient1"
       id="linearGradient3"
       gradientUnits="userSpaceOnUse"
       gradientTransform="matrix(0.53249464,0,0,1,-114.17501,-0.05074319)"
       x1="-3.0640795"
       y1="52.58141"
       x2="108.54229"
       y2="52.58141" /></defs><g
     inkscape:label="Camada 1"
     inkscape:groupmode="layer"
     id="layer1"><rect
       style="fill:#2383ad;fill-opacity:1;stroke:none;stroke-width:0.344748"
       id="rect3553"
       width="111.60637"
       height="110.93615"
       x="-3.0640795"
       y="-2.8866646"
       ry="1.1641705" /><g
       id="g43"
       transform="matrix(0.78971408,0,0,0.80732571,6.3548475,6.6363873)" /><g
       id="g26"
       transform="matrix(1.0126932,0,0,1.0951702,14.20173,23.115913)"><path
         id="path5"
         style="fill:#ffffff;fill-opacity:1;stroke:#00445a;stroke-width:0.876069;stroke-dasharray:none;stroke-opacity:1"
         d="m 65.59171,2.5257695 a 5.9539576,4.931901 0 0 0 -5.953641,4.9319988 5.9539576,4.931901 0 0 0 0,0.01757 5.9539576,4.931901 0 0 0 -4.499984,4.7826537 5.9539576,4.931901 0 0 0 5.953642,4.931481 5.9539576,4.931901 0 0 0 4.159436,-1.403015 5.9539576,4.931901 0 0 0 1.690853,0.203089 5.9539576,4.931901 0 0 0 0.962215,-0.0646 5.9539576,4.931901 0 0 0 4.512903,1.714624 5.9539576,4.931901 0 0 0 4.330484,-1.547192 5.9539576,4.931901 0 0 0 2.194182,0.347265 5.9539576,4.931901 0 0 0 5.954158,-4.931998 A 5.9539576,4.931901 0 0 0 78.9418,6.5756473 5.9539576,4.931901 0 0 0 78.60952,6.5833973 5.9539576,4.931901 0 0 0 73.166959,3.6507654 5.9539576,4.931901 0 0 0 70.181094,4.3158411 5.9539576,4.931901 0 0 0 65.59171,2.5257695 Z" /><path
         id="path6"
         style="fill:#008cbc;fill-opacity:1;stroke-width:1.15729"
         d="m 56.521044,11.653467 a 4.6499996,3.2437501 0 0 0 -0.346232,1.227832 4.6499996,3.2437501 0 0 0 4.650362,3.243729 4.6499996,3.2437501 0 0 0 4.104659,-1.719791 4.9687495,3.2437501 0 0 1 -3.486092,0.932242 4.9687495,3.2437501 0 0 1 -4.968689,-3.243729 4.9687495,3.2437501 0 0 1 0.04599,-0.440283 z" /><path
         id="path24"
         style="fill:#008cbc;fill-opacity:1;stroke-width:1.07239"
         d="m 68.745989,12.941156 a 3.2437501,3.992734 77.529756 0 0 -0.02515,1.263061 3.2437501,3.992734 77.529756 0 0 4.599269,2.304975 3.2437501,3.992734 77.529756 0 0 3.069968,-2.440267 3.2437501,4.2664294 77.529756 0 1 -2.721422,1.556609 3.2437501,4.2664294 77.529756 0 1 -4.866153,-2.245954 3.2437501,4.2664294 77.529756 0 1 -0.05651,-0.438424 z" /><path
         id="path25"
         style="fill:#008cbc;fill-opacity:1;stroke-width:0.432082"
         d="m 65.218509,13.846228 a 1.6135471,1.3030545 1.06855 0 0 0.08042,0.499026 1.6135471,1.3030545 1.06855 0 0 2.043077,0.833997 1.6135471,1.3030545 1.06855 0 0 1.078037,-1.014004 1.3104819,1.7143813 86.667898 0 1 -0.9992,0.659415 1.3104819,1.7143813 86.667898 0 1 -2.14779,-0.806293 1.3104819,1.7143813 86.667898 0 1 -0.05456,-0.17214 z" /><path
         id="path26"
         style="fill:#008cbc;fill-opacity:1;stroke-width:1.15468"
         d="m 76.469476,13.36501 a 3.7501567,4.0038985 63.561008 0 0 0.890193,1.144855 3.7501567,4.0038985 63.561008 0 0 5.590416,-0.451462 3.7501567,4.0038985 63.561008 0 0 0.859637,-3.864431 3.7679259,4.2581831 52.584943 0 1 -1.199886,2.882464 3.7679259,4.2581831 52.584943 0 1 -5.775672,0.650288 3.7679259,4.2581831 52.584943 0 1 -0.364722,-0.361691 z" /></g><g
       id="g37"
       transform="matrix(0.63774128,0,0,0.76555479,-8.5374028,9.3019532)"><path
         id="path33"
         style="fill:#ffffff;fill-opacity:1;stroke:#00445a;stroke-width:0.876069;stroke-dasharray:none;stroke-opacity:1"
         d="m 65.59171,2.5257695 a 5.9539576,4.931901 0 0 0 -5.953641,4.9319988 5.9539576,4.931901 0 0 0 0,0.01757 5.9539576,4.931901 0 0 0 -4.499984,4.7826537 5.9539576,4.931901 0 0 0 5.953642,4.931481 5.9539576,4.931901 0 0 0 4.159436,-1.403015 5.9539576,4.931901 0 0 0 1.690853,0.203089 5.9539576,4.931901 0 0 0 0.962215,-0.0646 5.9539576,4.931901 0 0 0 4.512903,1.714624 5.9539576,4.931901 0 0 0 4.330484,-1.547192 5.9539576,4.931901 0 0 0 2.194182,0.347265 5.9539576,4.931901 0 0 0 5.954158,-4.931998 A 5.9539576,4.931901 0 0 0 78.9418,6.5756473 5.9539576,4.931901 0 0 0 78.60952,6.5833973 5.9539576,4.931901 0 0 0 73.166959,3.6507654 5.9539576,4.931901 0 0 0 70.181094,4.3158411 5.9539576,4.931901 0 0 0 65.59171,2.5257695 Z" /><path
         id="path34"
         style="fill:#008cbc;fill-opacity:1;stroke-width:1.15729"
         d="m 56.521044,11.653467 a 4.6499996,3.2437501 0 0 0 -0.346232,1.227832 4.6499996,3.2437501 0 0 0 4.650362,3.243729 4.6499996,3.2437501 0 0 0 4.104659,-1.719791 4.9687495,3.2437501 0 0 1 -3.486092,0.932242 4.9687495,3.2437501 0 0 1 -4.968689,-3.243729 4.9687495,3.2437501 0 0 1 0.04599,-0.440283 z" /><path
         id="path35"
         style="fill:#008cbc;fill-opacity:1;stroke-width:1.07239"
         d="m 68.745989,12.941156 a 3.2437501,3.992734 77.529756 0 0 -0.02515,1.263061 3.2437501,3.992734 77.529756 0 0 4.599269,2.304975 3.2437501,3.992734 77.529756 0 0 3.069968,-2.440267 3.2437501,4.2664294 77.529756 0 1 -2.721422,1.556609 3.2437501,4.2664294 77.529756 0 1 -4.866153,-2.245954 3.2437501,4.2664294 77.529756 0 1 -0.05651,-0.438424 z" /><path
         id="path36"
         style="fill:#008cbc;fill-opacity:1;stroke-width:0.432082"
         d="m 65.218509,13.846228 a 1.6135471,1.3030545 1.06855 0 0 0.08042,0.499026 1.6135471,1.3030545 1.06855 0 0 2.043077,0.833997 1.6135471,1.3030545 1.06855 0 0 1.078037,-1.014004 1.3104819,1.7143813 86.667898 0 1 -0.9992,0.659415 1.3104819,1.7143813 86.667898 0 1 -2.14779,-0.806293 1.3104819,1.7143813 86.667898 0 1 -0.05456,-0.17214 z" /><path
         id="path37"
         style="fill:#008cbc;fill-opacity:1;stroke-width:1.15468"
         d="m 76.469476,13.36501 a 3.7501567,4.0038985 63.561008 0 0 0.890193,1.144855 3.7501567,4.0038985 63.561008 0 0 5.590416,-0.451462 3.7501567,4.0038985 63.561008 0 0 0.859637,-3.864431 3.7679259,4.2581831 52.584943 0 1 -1.199886,2.882464 3.7679259,4.2581831 52.584943 0 1 -5.775672,0.650288 3.7679259,4.2581831 52.584943 0 1 -0.364722,-0.361691 z" /></g><g
       id="g32"
       transform="matrix(1.0126932,0,0,1.0951702,-51.842407,10.925223)"><path
         id="path28"
         style="fill:#ffffff;fill-opacity:1;stroke:#00445a;stroke-width:0.876069;stroke-dasharray:none;stroke-opacity:1"
         d="m 65.59171,2.5257695 a 5.9539576,4.931901 0 0 0 -5.953641,4.9319988 5.9539576,4.931901 0 0 0 0,0.01757 5.9539576,4.931901 0 0 0 -4.499984,4.7826537 5.9539576,4.931901 0 0 0 5.953642,4.931481 5.9539576,4.931901 0 0 0 4.159436,-1.403015 5.9539576,4.931901 0 0 0 1.690853,0.203089 5.9539576,4.931901 0 0 0 0.962215,-0.0646 5.9539576,4.931901 0 0 0 4.512903,1.714624 5.9539576,4.931901 0 0 0 4.330484,-1.547192 5.9539576,4.931901 0 0 0 2.194182,0.347265 5.9539576,4.931901 0 0 0 5.954158,-4.931998 A 5.9539576,4.931901 0 0 0 78.9418,6.5756473 5.9539576,4.931901 0 0 0 78.60952,6.5833973 5.9539576,4.931901 0 0 0 73.166959,3.6507654 5.9539576,4.931901 0 0 0 70.181094,4.3158411 5.9539576,4.931901 0 0 0 65.59171,2.5257695 Z" /><path
         id="path29"
         style="fill:#008cbc;fill-opacity:1;stroke-width:1.15729"
         d="m 56.521044,11.653467 a 4.6499996,3.2437501 0 0 0 -0.346232,1.227832 4.6499996,3.2437501 0 0 0 4.650362,3.243729 4.6499996,3.2437501 0 0 0 4.104659,-1.719791 4.9687495,3.2437501 0 0 1 -3.486092,0.932242 4.9687495,3.2437501 0 0 1 -4.968689,-3.243729 4.9687495,3.2437501 0 0 1 0.04599,-0.440283 z" /><path
         id="path30"
         style="fill:#008cbc;fill-opacity:1;stroke-width:1.07239"
         d="m 68.745989,12.941156 a 3.2437501,3.992734 77.529756 0 0 -0.02515,1.263061 3.2437501,3.992734 77.529756 0 0 4.599269,2.304975 3.2437501,3.992734 77.529756 0 0 3.069968,-2.440267 3.2437501,4.2664294 77.529756 0 1 -2.721422,1.556609 3.2437501,4.2664294 77.529756 0 1 -4.866153,-2.245954 3.2437501,4.2664294 77.529756 0 1 -0.05651,-0.438424 z" /><path
         id="path31"
         style="fill:#008cbc;fill-opacity:1;stroke-width:0.432082"
         d="m 65.218509,13.846228 a 1.6135471,1.3030545 1.06855 0 0 0.08042,0.499026 1.6135471,1.3030545 1.06855 0 0 2.043077,0.833997 1.6135471,1.3030545 1.06855 0 0 1.078037,-1.014004 1.3104819,1.7143813 86.667898 0 1 -0.9992,0.659415 1.3104819,1.7143813 86.667898 0 1 -2.14779,-0.806293 1.3104819,1.7143813 86.667898 0 1 -0.05456,-0.17214 z" /><path
         id="path32"
         style="fill:#008cbc;fill-opacity:1;stroke-width:1.15468"
         d="m 76.469476,13.36501 a 3.7501567,4.0038985 63.561008 0 0 0.890193,1.144855 3.7501567,4.0038985 63.561008 0 0 5.590416,-0.451462 3.7501567,4.0038985 63.561008 0 0 0.859637,-3.864431 3.7679259,4.2581831 52.584943 0 1 -1.199886,2.882464 3.7679259,4.2581831 52.584943 0 1 -5.775672,0.650288 3.7679259,4.2581831 52.584943 0 1 -0.364722,-0.361691 z" /></g><g
       id="g12"
       transform="matrix(0.63774128,0,0,0.76555479,41.030344,32.998814)"><path
         id="path8"
         style="fill:#ffffff;fill-opacity:1;stroke:#00445a;stroke-width:0.876069;stroke-dasharray:none;stroke-opacity:1"
         d="m 65.59171,2.5257695 a 5.9539576,4.931901 0 0 0 -5.953641,4.9319988 5.9539576,4.931901 0 0 0 0,0.01757 5.9539576,4.931901 0 0 0 -4.499984,4.7826537 5.9539576,4.931901 0 0 0 5.953642,4.931481 5.9539576,4.931901 0 0 0 4.159436,-1.403015 5.9539576,4.931901 0 0 0 1.690853,0.203089 5.9539576,4.931901 0 0 0 0.962215,-0.0646 5.9539576,4.931901 0 0 0 4.512903,1.714624 5.9539576,4.931901 0 0 0 4.330484,-1.547192 5.9539576,4.931901 0 0 0 2.194182,0.347265 5.9539576,4.931901 0 0 0 5.954158,-4.931998 A 5.9539576,4.931901 0 0 0 78.9418,6.5756473 5.9539576,4.931901 0 0 0 78.60952,6.5833973 5.9539576,4.931901 0 0 0 73.166959,3.6507654 5.9539576,4.931901 0 0 0 70.181094,4.3158411 5.9539576,4.931901 0 0 0 65.59171,2.5257695 Z" /><path
         id="path9"
         style="fill:#008cbc;fill-opacity:1;stroke-width:1.15729"
         d="m 56.521044,11.653467 a 4.6499996,3.2437501 0 0 0 -0.346232,1.227832 4.6499996,3.2437501 0 0 0 4.650362,3.243729 4.6499996,3.2437501 0 0 0 4.104659,-1.719791 4.9687495,3.2437501 0 0 1 -3.486092,0.932242 4.9687495,3.2437501 0 0 1 -4.968689,-3.243729 4.9687495,3.2437501 0 0 1 0.04599,-0.440283 z" /><path
         id="path10"
         style="fill:#008cbc;fill-opacity:1;stroke-width:1.07239"
         d="m 68.745989,12.941156 a 3.2437501,3.992734 77.529756 0 0 -0.02515,1.263061 3.2437501,3.992734 77.529756 0 0 4.599269,2.304975 3.2437501,3.992734 77.529756 0 0 3.069968,-2.440267 3.2437501,4.2664294 77.529756 0 1 -2.721422,1.556609 3.2437501,4.2664294 77.529756 0 1 -4.866153,-2.245954 3.2437501,4.2664294 77.529756 0 1 -0.05651,-0.438424 z" /><path
         id="path11"
         style="fill:#008cbc;fill-opacity:1;stroke-width:0.432082"
         d="m 65.218509,13.846228 a 1.6135471,1.3030545 1.06855 0 0 0.08042,0.499026 1.6135471,1.3030545 1.06855 0 0 2.043077,0.833997 1.6135471,1.3030545 1.06855 0 0 1.078037,-1.014004 1.3104819,1.7143813 86.667898 0 1 -0.9992,0.659415 1.3104819,1.7143813 86.667898 0 1 -2.14779,-0.806293 1.3104819,1.7143813 86.667898 0 1 -0.05456,-0.17214 z" /><path
         id="path12"
         style="fill:#008cbc;fill-opacity:1;stroke-width:1.15468"
         d="m 76.469476,13.36501 a 3.7501567,4.0038985 63.561008 0 0 0.890193,1.144855 3.7501567,4.0038985 63.561008 0 0 5.590416,-0.451462 3.7501567,4.0038985 63.561008 0 0 0.859637,-3.864431 3.7679259,4.2581831 52.584943 0 1 -1.199886,2.882464 3.7679259,4.2581831 52.584943 0 1 -5.775672,0.650288 3.7679259,4.2581831 52.584943 0 1 -0.364722,-0.361691 z" /></g><g
       id="g7"
       transform="matrix(0.63774128,0,0,0.76555479,25.159969,34.955436)"><path
         id="path1"
         style="fill:#ffffff;fill-opacity:1;stroke:#00445a;stroke-width:0.876069;stroke-dasharray:none;stroke-opacity:1"
         d="m 65.59171,2.5257695 a 5.9539576,4.931901 0 0 0 -5.953641,4.9319988 5.9539576,4.931901 0 0 0 0,0.01757 5.9539576,4.931901 0 0 0 -4.499984,4.7826537 5.9539576,4.931901 0 0 0 5.953642,4.931481 5.9539576,4.931901 0 0 0 4.159436,-1.403015 5.9539576,4.931901 0 0 0 1.690853,0.203089 5.9539576,4.931901 0 0 0 0.962215,-0.0646 5.9539576,4.931901 0 0 0 4.512903,1.714624 5.9539576,4.931901 0 0 0 4.330484,-1.547192 5.9539576,4.931901 0 0 0 2.194182,0.347265 5.9539576,4.931901 0 0 0 5.954158,-4.931998 A 5.9539576,4.931901 0 0 0 78.9418,6.5756473 5.9539576,4.931901 0 0 0 78.60952,6.5833973 5.9539576,4.931901 0 0 0 73.166959,3.6507654 5.9539576,4.931901 0 0 0 70.181094,4.3158411 5.9539576,4.931901 0 0 0 65.59171,2.5257695 Z" /><path
         id="path2"
         style="fill:#008cbc;fill-opacity:1;stroke-width:1.15729"
         d="m 56.521044,11.653467 a 4.6499996,3.2437501 0 0 0 -0.346232,1.227832 4.6499996,3.2437501 0 0 0 4.650362,3.243729 4.6499996,3.2437501 0 0 0 4.104659,-1.719791 4.9687495,3.2437501 0 0 1 -3.486092,0.932242 4.9687495,3.2437501 0 0 1 -4.968689,-3.243729 4.9687495,3.2437501 0 0 1 0.04599,-0.440283 z" /><path
         id="path3"
         style="fill:#008cbc;fill-opacity:1;stroke-width:1.07239"
         d="m 68.745989,12.941156 a 3.2437501,3.992734 77.529756 0 0 -0.02515,1.263061 3.2437501,3.992734 77.529756 0 0 4.599269,2.304975 3.2437501,3.992734 77.529756 0 0 3.069968,-2.440267 3.2437501,4.2664294 77.529756 0 1 -2.721422,1.556609 3.2437501,4.2664294 77.529756 0 1 -4.866153,-2.245954 3.2437501,4.2664294 77.529756 0 1 -0.05651,-0.438424 z" /><path
         id="path4"
         style="fill:#008cbc;fill-opacity:1;stroke-width:0.432082"
         d="m 65.218509,13.846228 a 1.6135471,1.3030545 1.06855 0 0 0.08042,0.499026 1.6135471,1.3030545 1.06855 0 0 2.043077,0.833997 1.6135471,1.3030545 1.06855 0 0 1.078037,-1.014004 1.3104819,1.7143813 86.667898 0 1 -0.9992,0.659415 1.3104819,1.7143813 86.667898 0 1 -2.14779,-0.806293 1.3104819,1.7143813 86.667898 0 1 -0.05456,-0.17214 z" /><path
         id="path7"
         style="fill:#008cbc;fill-opacity:1;stroke-width:1.15468"
         d="m 76.469476,13.36501 a 3.7501567,4.0038985 63.561008 0 0 0.890193,1.144855 3.7501567,4.0038985 63.561008 0 0 5.590416,-0.451462 3.7501567,4.0038985 63.561008 0 0 0.859637,-3.864431 3.7679259,4.2581831 52.584943 0 1 -1.199886,2.882464 3.7679259,4.2581831 52.584943 0 1 -5.775672,0.650288 3.7679259,4.2581831 52.584943 0 1 -0.364722,-0.361691 z" /></g><g
       id="g17"
       transform="matrix(0.63774128,0,0,0.76555479,50.493654,61.569034)"><path
         id="path13"
         style="fill:#ffffff;fill-opacity:1;stroke:#00445a;stroke-width:0.876069;stroke-dasharray:none;stroke-opacity:1"
         d="m 65.59171,2.5257695 a 5.9539576,4.931901 0 0 0 -5.953641,4.9319988 5.9539576,4.931901 0 0 0 0,0.01757 5.9539576,4.931901 0 0 0 -4.499984,4.7826537 5.9539576,4.931901 0 0 0 5.953642,4.931481 5.9539576,4.931901 0 0 0 4.159436,-1.403015 5.9539576,4.931901 0 0 0 1.690853,0.203089 5.9539576,4.931901 0 0 0 0.962215,-0.0646 5.9539576,4.931901 0 0 0 4.512903,1.714624 5.9539576,4.931901 0 0 0 4.330484,-1.547192 5.9539576,4.931901 0 0 0 2.194182,0.347265 5.9539576,4.931901 0 0 0 5.954158,-4.931998 A 5.9539576,4.931901 0 0 0 78.9418,6.5756473 5.9539576,4.931901 0 0 0 78.60952,6.5833973 5.9539576,4.931901 0 0 0 73.166959,3.6507654 5.9539576,4.931901 0 0 0 70.181094,4.3158411 5.9539576,4.931901 0 0 0 65.59171,2.5257695 Z" /><path
         id="path14"
         style="fill:#008cbc;fill-opacity:1;stroke-width:1.15729"
         d="m 56.521044,11.653467 a 4.6499996,3.2437501 0 0 0 -0.346232,1.227832 4.6499996,3.2437501 0 0 0 4.650362,3.243729 4.6499996,3.2437501 0 0 0 4.104659,-1.719791 4.9687495,3.2437501 0 0 1 -3.486092,0.932242 4.9687495,3.2437501 0 0 1 -4.968689,-3.243729 4.9687495,3.2437501 0 0 1 0.04599,-0.440283 z" /><path
         id="path15"
         style="fill:#008cbc;fill-opacity:1;stroke-width:1.07239"
         d="m 68.745989,12.941156 a 3.2437501,3.992734 77.529756 0 0 -0.02515,1.263061 3.2437501,3.992734 77.529756 0 0 4.599269,2.304975 3.2437501,3.992734 77.529756 0 0 3.069968,-2.440267 3.2437501,4.2664294 77.529756 0 1 -2.721422,1.556609 3.2437501,4.2664294 77.529756 0 1 -4.866153,-2.245954 3.2437501,4.2664294 77.529756 0 1 -0.05651,-0.438424 z" /><path
         id="path16"
         style="fill:#008cbc;fill-opacity:1;stroke-width:0.432082"
         d="m 65.218509,13.846228 a 1.6135471,1.3030545 1.06855 0 0 0.08042,0.499026 1.6135471,1.3030545 1.06855 0 0 2.043077,0.833997 1.6135471,1.3030545 1.06855 0 0 1.078037,-1.014004 1.3104819,1.7143813 86.667898 0 1 -0.9992,0.659415 1.3104819,1.7143813 86.667898 0 1 -2.14779,-0.806293 1.3104819,1.7143813 86.667898 0 1 -0.05456,-0.17214 z" /><path
         id="path17"
         style="fill:#008cbc;fill-opacity:1;stroke-width:1.15468"
         d="m 76.469476,13.36501 a 3.7501567,4.0038985 63.561008 0 0 0.890193,1.144855 3.7501567,4.0038985 63.561008 0 0 5.590416,-0.451462 3.7501567,4.0038985 63.561008 0 0 0.859637,-3.864431 3.7679259,4.2581831 52.584943 0 1 -1.199886,2.882464 3.7679259,4.2581831 52.584943 0 1 -5.775672,0.650288 3.7679259,4.2581831 52.584943 0 1 -0.364722,-0.361691 z" /></g><g
       id="g22"
       transform="matrix(1.0126932,0,0,1.0951702,-19.867252,82.254416)"><path
         id="path18"
         style="fill:#ffffff;fill-opacity:1;stroke:#00445a;stroke-width:0.876069;stroke-dasharray:none;stroke-opacity:1"
         d="m 65.59171,2.5257695 a 5.9539576,4.931901 0 0 0 -5.953641,4.9319988 5.9539576,4.931901 0 0 0 0,0.01757 5.9539576,4.931901 0 0 0 -4.499984,4.7826537 5.9539576,4.931901 0 0 0 5.953642,4.931481 5.9539576,4.931901 0 0 0 4.159436,-1.403015 5.9539576,4.931901 0 0 0 1.690853,0.203089 5.9539576,4.931901 0 0 0 0.962215,-0.0646 5.9539576,4.931901 0 0 0 4.512903,1.714624 5.9539576,4.931901 0 0 0 4.330484,-1.547192 5.9539576,4.931901 0 0 0 2.194182,0.347265 5.9539576,4.931901 0 0 0 5.954158,-4.931998 A 5.9539576,4.931901 0 0 0 78.9418,6.5756473 5.9539576,4.931901 0 0 0 78.60952,6.5833973 5.9539576,4.931901 0 0 0 73.166959,3.6507654 5.9539576,4.931901 0 0 0 70.181094,4.3158411 5.9539576,4.931901 0 0 0 65.59171,2.5257695 Z" /><path
         id="path19"
         style="fill:#008cbc;fill-opacity:1;stroke-width:1.15729"
         d="m 56.521044,11.653467 a 4.6499996,3.2437501 0 0 0 -0.346232,1.227832 4.6499996,3.2437501 0 0 0 4.650362,3.243729 4.6499996,3.2437501 0 0 0 4.104659,-1.719791 4.9687495,3.2437501 0 0 1 -3.486092,0.932242 4.9687495,3.2437501 0 0 1 -4.968689,-3.243729 4.9687495,3.2437501 0 0 1 0.04599,-0.440283 z" /><path
         id="path20"
         style="fill:#008cbc;fill-opacity:1;stroke-width:1.07239"
         d="m 68.745989,12.941156 a 3.2437501,3.992734 77.529756 0 0 -0.02515,1.263061 3.2437501,3.992734 77.529756 0 0 4.599269,2.304975 3.2437501,3.992734 77.529756 0 0 3.069968,-2.440267 3.2437501,4.2664294 77.529756 0 1 -2.721422,1.556609 3.2437501,4.2664294 77.529756 0 1 -4.866153,-2.245954 3.2437501,4.2664294 77.529756 0 1 -0.05651,-0.438424 z" /><path
         id="path21"
         style="fill:#008cbc;fill-opacity:1;stroke-width:0.432082"
         d="m 65.218509,13.846228 a 1.6135471,1.3030545 1.06855 0 0 0.08042,0.499026 1.6135471,1.3030545 1.06855 0 0 2.043077,0.833997 1.6135471,1.3030545 1.06855 0 0 1.078037,-1.014004 1.3104819,1.7143813 86.667898 0 1 -0.9992,0.659415 1.3104819,1.7143813 86.667898 0 1 -2.14779,-0.806293 1.3104819,1.7143813 86.667898 0 1 -0.05456,-0.17214 z" /><path
         id="path22"
         style="fill:#008cbc;fill-opacity:1;stroke-width:1.15468"
         d="m 76.469476,13.36501 a 3.7501567,4.0038985 63.561008 0 0 0.890193,1.144855 3.7501567,4.0038985 63.561008 0 0 5.590416,-0.451462 3.7501567,4.0038985 63.561008 0 0 0.859637,-3.864431 3.7679259,4.2581831 52.584943 0 1 -1.199886,2.882464 3.7679259,4.2581831 52.584943 0 1 -5.775672,0.650288 3.7679259,4.2581831 52.584943 0 1 -0.364722,-0.361691 z" /></g><g
       id="g40"
       transform="matrix(1.0126932,0,0,1.0951702,-5.7243948,74.875534)"><path
         id="path23"
         style="fill:#ffffff;fill-opacity:1;stroke:#00445a;stroke-width:0.876069;stroke-dasharray:none;stroke-opacity:1"
         d="m 65.59171,2.5257695 a 5.9539576,4.931901 0 0 0 -5.953641,4.9319988 5.9539576,4.931901 0 0 0 0,0.01757 5.9539576,4.931901 0 0 0 -4.499984,4.7826537 5.9539576,4.931901 0 0 0 5.953642,4.931481 5.9539576,4.931901 0 0 0 4.159436,-1.403015 5.9539576,4.931901 0 0 0 1.690853,0.203089 5.9539576,4.931901 0 0 0 0.962215,-0.0646 5.9539576,4.931901 0 0 0 4.512903,1.714624 5.9539576,4.931901 0 0 0 4.330484,-1.547192 5.9539576,4.931901 0 0 0 2.194182,0.347265 5.9539576,4.931901 0 0 0 5.954158,-4.931998 A 5.9539576,4.931901 0 0 0 78.9418,6.5756473 5.9539576,4.931901 0 0 0 78.60952,6.5833973 5.9539576,4.931901 0 0 0 73.166959,3.6507654 5.9539576,4.931901 0 0 0 70.181094,4.3158411 5.9539576,4.931901 0 0 0 65.59171,2.5257695 Z" /><path
         id="path27"
         style="fill:#008cbc;fill-opacity:1;stroke-width:1.15729"
         d="m 56.521044,11.653467 a 4.6499996,3.2437501 0 0 0 -0.346232,1.227832 4.6499996,3.2437501 0 0 0 4.650362,3.243729 4.6499996,3.2437501 0 0 0 4.104659,-1.719791 4.9687495,3.2437501 0 0 1 -3.486092,0.932242 4.9687495,3.2437501 0 0 1 -4.968689,-3.243729 4.9687495,3.2437501 0 0 1 0.04599,-0.440283 z" /><path
         id="path38"
         style="fill:#008cbc;fill-opacity:1;stroke-width:1.07239"
         d="m 68.745989,12.941156 a 3.2437501,3.992734 77.529756 0 0 -0.02515,1.263061 3.2437501,3.992734 77.529756 0 0 4.599269,2.304975 3.2437501,3.992734 77.529756 0 0 3.069968,-2.440267 3.2437501,4.2664294 77.529756 0 1 -2.721422,1.556609 3.2437501,4.2664294 77.529756 0 1 -4.866153,-2.245954 3.2437501,4.2664294 77.529756 0 1 -0.05651,-0.438424 z" /><path
         id="path39"
         style="fill:#008cbc;fill-opacity:1;stroke-width:0.432082"
         d="m 65.218509,13.846228 a 1.6135471,1.3030545 1.06855 0 0 0.08042,0.499026 1.6135471,1.3030545 1.06855 0 0 2.043077,0.833997 1.6135471,1.3030545 1.06855 0 0 1.078037,-1.014004 1.3104819,1.7143813 86.667898 0 1 -0.9992,0.659415 1.3104819,1.7143813 86.667898 0 1 -2.14779,-0.806293 1.3104819,1.7143813 86.667898 0 1 -0.05456,-0.17214 z" /><path
         id="path40"
         style="fill:#008cbc;fill-opacity:1;stroke-width:1.15468"
         d="m 76.469476,13.36501 a 3.7501567,4.0038985 63.561008 0 0 0.890193,1.144855 3.7501567,4.0038985 63.561008 0 0 5.590416,-0.451462 3.7501567,4.0038985 63.561008 0 0 0.859637,-3.864431 3.7679259,4.2581831 52.584943 0 1 -1.199886,2.882464 3.7679259,4.2581831 52.584943 0 1 -5.775672,0.650288 3.7679259,4.2581831 52.584943 0 1 -0.364722,-0.361691 z" /></g><g
       id="g50"
       transform="matrix(-1.0126932,0,0,1.0951702,92.428743,42.285471)"><path
         id="path46"
         style="fill:#ffffff;fill-opacity:1;stroke:#00445a;stroke-width:0.876069;stroke-dasharray:none;stroke-opacity:1"
         d="m 65.59171,2.5257695 a 5.9539576,4.931901 0 0 0 -5.953641,4.9319988 5.9539576,4.931901 0 0 0 0,0.01757 5.9539576,4.931901 0 0 0 -4.499984,4.7826537 5.9539576,4.931901 0 0 0 5.953642,4.931481 5.9539576,4.931901 0 0 0 4.159436,-1.403015 5.9539576,4.931901 0 0 0 1.690853,0.203089 5.9539576,4.931901 0 0 0 0.962215,-0.0646 5.9539576,4.931901 0 0 0 4.512903,1.714624 5.9539576,4.931901 0 0 0 4.330484,-1.547192 5.9539576,4.931901 0 0 0 2.194182,0.347265 5.9539576,4.931901 0 0 0 5.954158,-4.931998 A 5.9539576,4.931901 0 0 0 78.9418,6.5756473 5.9539576,4.931901 0 0 0 78.60952,6.5833973 5.9539576,4.931901 0 0 0 73.166959,3.6507654 5.9539576,4.931901 0 0 0 70.181094,4.3158411 5.9539576,4.931901 0 0 0 65.59171,2.5257695 Z" /><path
         id="path47"
         style="fill:#008cbc;fill-opacity:1;stroke-width:1.15729"
         d="m 56.521044,11.653467 a 4.6499996,3.2437501 0 0 0 -0.346232,1.227832 4.6499996,3.2437501 0 0 0 4.650362,3.243729 4.6499996,3.2437501 0 0 0 4.104659,-1.719791 4.9687495,3.2437501 0 0 1 -3.486092,0.932242 4.9687495,3.2437501 0 0 1 -4.968689,-3.243729 4.9687495,3.2437501 0 0 1 0.04599,-0.440283 z" /><path
         id="path48"
         style="fill:#008cbc;fill-opacity:1;stroke-width:1.07239"
         d="m 68.745989,12.941156 a 3.2437501,3.992734 77.529756 0 0 -0.02515,1.263061 3.2437501,3.992734 77.529756 0 0 4.599269,2.304975 3.2437501,3.992734 77.529756 0 0 3.069968,-2.440267 3.2437501,4.2664294 77.529756 0 1 -2.721422,1.556609 3.2437501,4.2664294 77.529756 0 1 -4.866153,-2.245954 3.2437501,4.2664294 77.529756 0 1 -0.05651,-0.438424 z" /><path
         id="path49"
         style="fill:#008cbc;fill-opacity:1;stroke-width:0.432082"
         d="m 65.218509,13.846228 a 1.6135471,1.3030545 1.06855 0 0 0.08042,0.499026 1.6135471,1.3030545 1.06855 0 0 2.043077,0.833997 1.6135471,1.3030545 1.06855 0 0 1.078037,-1.014004 1.3104819,1.7143813 86.667898 0 1 -0.9992,0.659415 1.3104819,1.7143813 86.667898 0 1 -2.14779,-0.806293 1.3104819,1.7143813 86.667898 0 1 -0.05456,-0.17214 z" /><path
         id="path50"
         style="fill:#008cbc;fill-opacity:1;stroke-width:1.15468"
         d="m 76.469476,13.36501 a 3.7501567,4.0038985 63.561008 0 0 0.890193,1.144855 3.7501567,4.0038985 63.561008 0 0 5.590416,-0.451462 3.7501567,4.0038985 63.561008 0 0 0.859637,-3.864431 3.7679259,4.2581831 52.584943 0 1 -1.199886,2.882464 3.7679259,4.2581831 52.584943 0 1 -5.775672,0.650288 3.7679259,4.2581831 52.584943 0 1 -0.364722,-0.361691 z" /></g><g
       id="g45"
       transform="matrix(1.0126932,0,0,1.0951702,-39.851724,51.509074)"><path
         id="path41"
         style="fill:#ffffff;fill-opacity:1;stroke:#00445a;stroke-width:0.876069;stroke-dasharray:none;stroke-opacity:1"
         d="m 65.59171,2.5257695 a 5.9539576,4.931901 0 0 0 -5.953641,4.9319988 5.9539576,4.931901 0 0 0 0,0.01757 5.9539576,4.931901 0 0 0 -4.499984,4.7826537 5.9539576,4.931901 0 0 0 5.953642,4.931481 5.9539576,4.931901 0 0 0 4.159436,-1.403015 5.9539576,4.931901 0 0 0 1.690853,0.203089 5.9539576,4.931901 0 0 0 0.962215,-0.0646 5.9539576,4.931901 0 0 0 4.512903,1.714624 5.9539576,4.931901 0 0 0 4.330484,-1.547192 5.9539576,4.931901 0 0 0 2.194182,0.347265 5.9539576,4.931901 0 0 0 5.954158,-4.931998 A 5.9539576,4.931901 0 0 0 78.9418,6.5756473 5.9539576,4.931901 0 0 0 78.60952,6.5833973 5.9539576,4.931901 0 0 0 73.166959,3.6507654 5.9539576,4.931901 0 0 0 70.181094,4.3158411 5.9539576,4.931901 0 0 0 65.59171,2.5257695 Z" /><path
         id="path42"
         style="fill:#008cbc;fill-opacity:1;stroke-width:1.15729"
         d="m 56.521044,11.653467 a 4.6499996,3.2437501 0 0 0 -0.346232,1.227832 4.6499996,3.2437501 0 0 0 4.650362,3.243729 4.6499996,3.2437501 0 0 0 4.104659,-1.719791 4.9687495,3.2437501 0 0 1 -3.486092,0.932242 4.9687495,3.2437501 0 0 1 -4.968689,-3.243729 4.9687495,3.2437501 0 0 1 0.04599,-0.440283 z" /><path
         id="path43"
         style="fill:#008cbc;fill-opacity:1;stroke-width:1.07239"
         d="m 68.745989,12.941156 a 3.2437501,3.992734 77.529756 0 0 -0.02515,1.263061 3.2437501,3.992734 77.529756 0 0 4.599269,2.304975 3.2437501,3.992734 77.529756 0 0 3.069968,-2.440267 3.2437501,4.2664294 77.529756 0 1 -2.721422,1.556609 3.2437501,4.2664294 77.529756 0 1 -4.866153,-2.245954 3.2437501,4.2664294 77.529756 0 1 -0.05651,-0.438424 z" /><path
         id="path44"
         style="fill:#008cbc;fill-opacity:1;stroke-width:0.432082"
         d="m 65.218509,13.846228 a 1.6135471,1.3030545 1.06855 0 0 0.08042,0.499026 1.6135471,1.3030545 1.06855 0 0 2.043077,0.833997 1.6135471,1.3030545 1.06855 0 0 1.078037,-1.014004 1.3104819,1.7143813 86.667898 0 1 -0.9992,0.659415 1.3104819,1.7143813 86.667898 0 1 -2.14779,-0.806293 1.3104819,1.7143813 86.667898 0 1 -0.05456,-0.17214 z" /><path
         id="path45"
         style="fill:#008cbc;fill-opacity:1;stroke-width:1.15468"
         d="m 76.469476,13.36501 a 3.7501567,4.0038985 63.561008 0 0 0.890193,1.144855 3.7501567,4.0038985 63.561008 0 0 5.590416,-0.451462 3.7501567,4.0038985 63.561008 0 0 0.859637,-3.864431 3.7679259,4.2581831 52.584943 0 1 -1.199886,2.882464 3.7679259,4.2581831 52.584943 0 1 -5.775672,0.650288 3.7679259,4.2581831 52.584943 0 1 -0.364722,-0.361691 z" /></g><rect
       style="fill:url(#linearGradient2);stroke:none;stroke-width:0.25157"
       id="rect1"
       width="59.429794"
       height="110.93615"
       x="-3.0640795"
       y="-2.8866646"
       ry="1.1641705" /><rect
       style="fill:url(#linearGradient3);stroke:none;stroke-width:0.25157"
       id="rect2"
       width="59.429794"
       height="110.93615"
       x="-115.80663"
       y="-2.9374077"
       ry="1.1641705"
       transform="scale(-1,1)" /></g></svg>
