<?xml version="1.0" encoding="UTF-8" standalone="no"?>
<!-- Created with Inkscape (http://www.inkscape.org/) -->

<svg
   width="400"
   height="400"
   viewBox="0 0 105.83333 105.83333"
   version="1.1"
   id="svg3527"
   inkscape:version="1.4.2 (ebf0e940d0, 2025-05-08)"
   sodipodi:docname="mirrorroom_background.svg"
   xml:space="preserve"
   xmlns:inkscape="http://www.inkscape.org/namespaces/inkscape"
   xmlns:sodipodi="http://sodipodi.sourceforge.net/DTD/sodipodi-0.dtd"
   xmlns="http://www.w3.org/2000/svg"
   xmlns:svg="http://www.w3.org/2000/svg"><sodipodi:namedview
     id="namedview3529"
     pagecolor="#505050"
     bordercolor="#ffffff"
     borderopacity="1"
     inkscape:pageshadow="0"
     inkscape:pageopacity="0"
     inkscape:pagecheckerboard="1"
     inkscape:document-units="px"
     showgrid="false"
     width="100mm"
     inkscape:zoom="0.86056394"
     inkscape:cx="292.25022"
     inkscape:cy="172.56126"
     inkscape:window-width="1366"
     inkscape:window-height="697"
     inkscape:window-x="0"
     inkscape:window-y="0"
     inkscape:window-maximized="1"
     inkscape:current-layer="layer1"
     inkscape:snap-global="false"
     inkscape:showpageshadow="0"
     inkscape:deskcolor="#505050" /><defs
     id="defs3524"><linearGradient
       id="linearGradient13895"
       inkscape:swatch="solid"><stop
         style="stop-color:#000000;stop-opacity:1;"
         offset="0"
         id="stop13893" /></linearGradient><filter
       style="color-interpolation-filters:sRGB;"
       inkscape:label="Clean Edges"
       id="filter14269"
       x="-0.31154084"
       y="-0.29580634"
       width="1.6230817"
       height="1.5916127"><feGaussianBlur
         stdDeviation="0.204612"
         result="blur"
         id="feGaussianBlur14263" /><feComposite
         in="SourceGraphic"
         in2="blur"
         operator="in"
         result="composite1"
         id="feComposite14265" /><feComposite
         in="composite1"
         in2="composite1"
         operator="in"
         result="composite2"
         id="feComposite14267" /></filter><filter
       inkscape:label="Glowing Bubble"
       inkscape:menu="Ridges"
       inkscape:menu-tooltip="Bubble effect with refraction and glow"
       x="-2.8985506"
       y="-2.8985509"
       width="6.7971012"
       height="6.7971018"
       style="color-interpolation-filters:sRGB;"
       id="filter14"><feGaussianBlur
         stdDeviation="1"
         result="result1"
         id="feGaussianBlur9" /><feGaussianBlur
         stdDeviation="10"
         result="result6"
         in="result1"
         id="feGaussianBlur10" /><feComposite
         operator="atop"
         in="result6"
         in2="result1"
         result="result8"
         id="feComposite10" /><feComposite
         operator="xor"
         result="fbSourceGraphic"
         in="result6"
         in2="result8"
         id="feComposite11" /><feColorMatrix
         result="fbSourceGraphicAlpha"
         in="fbSourceGraphic"
         values="0 0 0 -1 0 0 0 0 -1 0 0 0 0 -1 0 0 0 0 2 0 "
         id="feColorMatrix11" /><feGaussianBlur
         result="result0"
         in="fbSourceGraphicAlpha"
         stdDeviation="1"
         id="feGaussianBlur11" /><feSpecularLighting
         specularExponent="35"
         specularConstant="1.5"
         surfaceScale="-2"
         lighting-color="rgb(255,255,255)"
         result="result1"
         in="result0"
         id="feSpecularLighting11"><feDistantLight
           azimuth="230"
           elevation="60"
           id="feDistantLight11" /></feSpecularLighting><feComposite
         operator="in"
         result="result2"
         in="result1"
         in2="fbSourceGraphicAlpha"
         id="feComposite12" /><feComposite
         k3="1.2"
         k2="1.1"
         operator="arithmetic"
         result="result4"
         in="fbSourceGraphic"
         in2="result2"
         id="feComposite13" /><feGaussianBlur
         result="result80"
         in="result4"
         stdDeviation="0.5"
         id="feGaussianBlur13" /><feComposite
         operator="atop"
         in="result9"
         in2="result80"
         result="result91"
         id="feComposite14" /><feBlend
         mode="multiply"
         in2="result91"
         id="feBlend14" /></filter><filter
       inkscape:label="Glowing Bubble"
       inkscape:menu="Ridges"
       inkscape:menu-tooltip="Bubble effect with refraction and glow"
       x="-2.8985506"
       y="-2.8985509"
       width="6.7971012"
       height="6.7971018"
       style="color-interpolation-filters:sRGB;"
       id="filter14-6"><feGaussianBlur
         stdDeviation="1"
         result="result1"
         id="feGaussianBlur9-7" /><feGaussianBlur
         stdDeviation="10"
         result="result6"
         in="result1"
         id="feGaussianBlur10-5" /><feComposite
         operator="atop"
         in="result6"
         in2="result1"
         result="result8"
         id="feComposite10-3" /><feComposite
         operator="xor"
         result="fbSourceGraphic"
         in="result6"
         in2="result8"
         id="feComposite11-5" /><feColorMatrix
         result="fbSourceGraphicAlpha"
         in="fbSourceGraphic"
         values="0 0 0 -1 0 0 0 0 -1 0 0 0 0 -1 0 0 0 0 2 0 "
         id="feColorMatrix11-6" /><feGaussianBlur
         result="result0"
         in="fbSourceGraphicAlpha"
         stdDeviation="1"
         id="feGaussianBlur11-2" /><feSpecularLighting
         specularExponent="35"
         specularConstant="1.5"
         surfaceScale="-2"
         lighting-color="rgb(255,255,255)"
         result="result1"
         in="result0"
         id="feSpecularLighting11-9"><feDistantLight
           azimuth="230"
           elevation="60"
           id="feDistantLight11-1" /></feSpecularLighting><feComposite
         operator="in"
         result="result2"
         in="result1"
         in2="fbSourceGraphicAlpha"
         id="feComposite12-2" /><feComposite
         k3="1.2"
         k2="1.1"
         operator="arithmetic"
         result="result4"
         in="fbSourceGraphic"
         in2="result2"
         id="feComposite13-7" /><feGaussianBlur
         result="result80"
         in="result4"
         stdDeviation="0.5"
         id="feGaussianBlur13-0" /><feComposite
         operator="atop"
         in="result9"
         in2="result80"
         result="result91"
         id="feComposite14-9" /><feBlend
         mode="multiply"
         in2="result91"
         id="feBlend14-3" /></filter><filter
       inkscape:label="Glowing Bubble"
       inkscape:menu="Ridges"
       inkscape:menu-tooltip="Bubble effect with refraction and glow"
       x="-2.8985506"
       y="-2.8985509"
       width="6.7971012"
       height="6.7971018"
       style="color-interpolation-filters:sRGB;"
       id="filter14-3"><feGaussianBlur
         stdDeviation="1"
         result="result1"
         id="feGaussianBlur9-6" /><feGaussianBlur
         stdDeviation="10"
         result="result6"
         in="result1"
         id="feGaussianBlur10-7" /><feComposite
         operator="atop"
         in="result6"
         in2="result1"
         result="result8"
         id="feComposite10-5" /><feComposite
         operator="xor"
         result="fbSourceGraphic"
         in="result6"
         in2="result8"
         id="feComposite11-3" /><feColorMatrix
         result="fbSourceGraphicAlpha"
         in="fbSourceGraphic"
         values="0 0 0 -1 0 0 0 0 -1 0 0 0 0 -1 0 0 0 0 2 0 "
         id="feColorMatrix11-5" /><feGaussianBlur
         result="result0"
         in="fbSourceGraphicAlpha"
         stdDeviation="1"
         id="feGaussianBlur11-6" /><feSpecularLighting
         specularExponent="35"
         specularConstant="1.5"
         surfaceScale="-2"
         lighting-color="rgb(255,255,255)"
         result="result1"
         in="result0"
         id="feSpecularLighting11-2"><feDistantLight
           azimuth="230"
           elevation="60"
           id="feDistantLight11-9" /></feSpecularLighting><feComposite
         operator="in"
         result="result2"
         in="result1"
         in2="fbSourceGraphicAlpha"
         id="feComposite12-1" /><feComposite
         k3="1.2"
         k2="1.1"
         operator="arithmetic"
         result="result4"
         in="fbSourceGraphic"
         in2="result2"
         id="feComposite13-2" /><feGaussianBlur
         result="result80"
         in="result4"
         stdDeviation="0.5"
         id="feGaussianBlur13-7" /><feComposite
         operator="atop"
         in="result9"
         in2="result80"
         result="result91"
         id="feComposite14-0" /><feBlend
         mode="multiply"
         in2="result91"
         id="feBlend14-9" /></filter><filter
       style="color-interpolation-filters:sRGB;"
       inkscape:label="Clean Edges"
       id="filter14269-0"
       x="-0.31154084"
       y="-0.29580634"
       width="1.6230817"
       height="1.5916127"><feGaussianBlur
         stdDeviation="0.204612"
         result="blur"
         id="feGaussianBlur14263-6" /><feComposite
         in="SourceGraphic"
         in2="blur"
         operator="in"
         result="composite1"
         id="feComposite14265-2" /><feComposite
         in="composite1"
         in2="composite1"
         operator="in"
         result="composite2"
         id="feComposite14267-6" /></filter><filter
       style="color-interpolation-filters:sRGB;"
       inkscape:label="Blur"
       id="filter52"
       x="-0.071642077"
       y="-0.078731364"
       width="1.1421161"
       height="1.1569681"><feGaussianBlur
         stdDeviation="0.41 0.45"
         result="blur"
         id="feGaussianBlur52" /></filter></defs><g
     inkscape:label="Camada 1"
     inkscape:groupmode="layer"
     id="layer1"><rect
       style="fill:#512da3;fill-opacity:1;stroke:none;stroke-width:0.344748"
       id="rect3553"
       width="111.60637"
       height="110.93615"
       x="-3.0640795"
       y="-2.8866646"
       ry="1.1641705" /><g
       id="g64"
       transform="matrix(-0.98308096,-0.18317159,-0.18317159,0.98308096,117.90075,46.985858)"
       style="filter:url(#filter52)"><path
         id="path52"
         style="fill:#441fc7;fill-opacity:1;stroke:#3202da;stroke-width:0.544419;stroke-dasharray:none;stroke-opacity:1"
         d="m 99.282462,53.477778 c 0.173306,0.06243 0.30186,0.192829 0.436001,0.31475 0.917767,0.920929 -2.050062,3.591632 -2.722547,4.129667 l -0.182822,0.09788 c -0.380639,0.203385 -0.884063,0.06835 -1.128667,-0.302673 l -2.251026,-3.414293 c -0.244606,-0.37103 -0.134774,-0.833579 0.245866,-1.036963 l 0.182709,-0.09758 c 0.380639,-0.203384 0.884063,-0.06836 1.128668,0.302672 l 1.556606,2.429599 1.886948,-2.240609 c 0.216761,-0.23261 0.552979,-0.293959 0.848264,-0.182448 z"
         sodipodi:nodetypes="cccccccccccc" /><path
         id="path53"
         style="fill:#5728ff;fill-opacity:1;stroke:#3202da;stroke-width:0.544419;stroke-dasharray:none;stroke-opacity:1"
         d="m 83.334996,53.255321 c -0.173306,0.06243 -0.30186,0.192829 -0.436001,0.31475 -0.917762,0.920929 2.050062,3.591632 2.722547,4.129667 l 0.182822,0.09788 c 0.380639,0.203385 0.884062,0.06835 1.128667,-0.302673 l 2.251027,-3.414293 c 0.244605,-0.37103 0.134773,-0.833578 -0.245867,-1.036963 l -0.182709,-0.09758 c -0.380639,-0.203384 -0.884063,-0.06836 -1.128668,0.302672 L 86.070208,55.678378 84.18326,53.437769 C 83.966499,53.20516 83.630281,53.14381 83.334996,53.255321 Z"
         sodipodi:nodetypes="cccccccccccc" /><path
         id="path54"
         style="fill:#5728ff;fill-opacity:1;stroke:#3202da;stroke-width:0.742919;stroke-dasharray:none;stroke-opacity:1"
         d="m 88.894611,52.872172 c 1.26996,1.27427 3.210984,1.101467 4.884239,0.14989 0.675174,-0.38397 1.169278,0.304518 1.15939,0.809384 -0.04888,2.496508 0.515742,7.129067 -0.441998,7.724276 -0.752368,0.467577 -2.070324,-2.626616 -2.110706,-2.359722 -0.659553,4.359184 -1.98694,1.632742 -2.625186,-0.118499 -0.01492,-0.04095 -1.00609,3.128338 -1.650459,2.474953 -0.678008,-0.687495 -0.852029,-5.515995 -0.505876,-7.865564 0.07362,-0.499711 0.751002,-1.356151 1.290596,-0.814724 z"
         sodipodi:nodetypes="ssssssssss" /><ellipse
         style="fill:#5728ff;fill-opacity:1;stroke:#3202da;stroke-width:0.751504;stroke-dasharray:none;stroke-opacity:1"
         id="ellipse54"
         cx="91.15448"
         cy="47.697128"
         rx="4.553545"
         ry="4.5460224" /><path
         id="path55"
         style="fill-opacity:0.220034;stroke-width:0.371642;stroke-linecap:round;stroke-linejoin:round"
         d="m 89.562668,48.988232 c 1.225149,1.88723 3.24578,2.619282 4.583306,1.635084 1.337528,-0.984196 1.769603,-3.408545 0.544454,-5.295776 -1.22515,-1.887229 -3.98456,-2.38745 -5.322088,-1.403252 -1.337527,0.984197 -1.030822,3.176714 0.194328,5.063944 z"
         sodipodi:nodetypes="sssss" /><path
         id="path56"
         style="fill:#ffffff;stroke:#3202da;stroke-width:0.404466;stroke-opacity:1"
         d="m 90.94573,47.476119 c -0.166881,1.148617 -1.082993,1.809973 -1.947053,1.679398 -0.86406,-0.130575 -1.348866,-1.003635 -1.181985,-2.152252 0.166881,-1.148617 1.002624,-1.973903 1.866684,-1.843328 0.86406,0.130575 1.429235,1.167565 1.262354,2.316182 z"
         sodipodi:nodetypes="sssss" /><path
         id="path57"
         style="fill:#ffffff;stroke:#3202da;stroke-width:0.404466;stroke-opacity:1"
         d="m 91.492017,47.456799 c 0.166881,1.148617 1.123177,1.782651 1.987237,1.652076 0.86406,-0.130574 1.308682,-0.976312 1.141801,-2.124929 -0.166881,-1.148617 -1.002624,-1.973903 -1.866684,-1.843329 -0.86406,0.130575 -1.429235,1.167565 -1.262354,2.316182 z"
         sodipodi:nodetypes="sssss" /><path
         id="path58"
         style="fill:#000000;fill-opacity:1;stroke:none;stroke-width:0.262482;stroke-opacity:1"
         d="m 93.101277,50.510587 c 0.03035,0.511086 -0.721376,0.922142 -1.553133,0.989794 -0.831763,0.06764 -1.428579,-0.233716 -1.45893,-0.744803 -0.03035,-0.511086 0.619313,-0.980247 1.451073,-1.047899 0.831759,-0.06765 1.530637,0.291822 1.56099,0.802908 z"
         sodipodi:nodetypes="sssss" /><ellipse
         style="fill:#3202da;fill-opacity:1;stroke:none;stroke-width:0.421725;stroke-opacity:1"
         id="ellipse58"
         cx="88.72184"
         cy="47.191059"
         rx="0.82377911"
         ry="1.1680022" /><path
         id="path59"
         style="fill:#ffffff;stroke:none;stroke-width:0.0960032;stroke-opacity:1"
         d="m 89.827331,46.734664 c -0.04218,0.25599 -0.273768,0.403386 -0.492192,0.374285 -0.218425,-0.0291 -0.340979,-0.223679 -0.298793,-0.479669 0.04218,-0.255991 0.253452,-0.439922 0.471877,-0.410821 0.218424,0.0291 0.361294,0.260214 0.319108,0.516205 z"
         sodipodi:nodetypes="sssss" /><path
         id="path60"
         style="fill:#381aa5;fill-opacity:1;stroke:none;stroke-width:0.28227;stroke-linecap:round;stroke-linejoin:round"
         d="m 85.55811,55.6998 c 0,0.44308 -0.286843,0.802267 -0.640682,0.802267 -0.353839,0 -0.640682,-0.359187 -0.640682,-0.802267 0,-0.44308 0.277129,-0.604461 0.630968,-0.604461 0.353839,0 0.650397,0.161381 0.650396,0.604461 z"
         sodipodi:nodetypes="sssss" /><path
         id="path61"
         style="fill:#5728ff;stroke:#3202da;stroke-width:0.635308;stroke-linecap:round;stroke-linejoin:round"
         d="m 85.307648,54.380703 c 0,0.925656 -0.695531,1.676048 -1.553513,1.676048 -0.857981,0 -1.553513,-0.750392 -1.553513,-1.676048 0,-0.925656 0.671977,-1.262803 1.529959,-1.262803 0.857982,0 1.577067,0.337147 1.577067,1.262803 z"
         sodipodi:nodetypes="sssss" /><path
         id="path62"
         style="fill:#441fc7;fill-opacity:1;stroke:#3202da;stroke-width:0.592863;stroke-linecap:round;stroke-linejoin:round"
         d="m 100.36947,54.657535 c 0,0.939158 -0.596992,1.700494 -1.33342,1.700494 -0.736428,0 -1.333421,-0.761336 -1.333421,-1.700494 -10e-7,-0.939157 0.576775,-1.281221 1.313203,-1.281221 0.736428,0 1.353638,0.342064 1.353638,1.281221 z"
         sodipodi:nodetypes="sssss" /><path
         id="path63"
         style="fill:#5728ff;fill-opacity:1;stroke:none;stroke-width:0.325481;stroke-linecap:round;stroke-linejoin:round"
         d="m 99.329732,54.585317 c 0,0.589121 -0.286843,1.066698 -0.640682,1.066698 -0.353839,0 -0.640682,-0.477577 -0.640682,-1.066698 0,-0.589122 0.277129,-0.803695 0.630968,-0.803695 0.35384,0 0.650396,0.214573 0.650396,0.803695 z"
         sodipodi:nodetypes="sssss" /><ellipse
         style="fill:#3202da;fill-opacity:1;stroke:none;stroke-width:0.421725;stroke-opacity:1"
         id="ellipse63"
         cx="92.390503"
         cy="47.136707"
         rx="0.82377911"
         ry="1.1680022" /><path
         id="path64"
         style="fill:#ffffff;stroke:none;stroke-width:0.0960032;stroke-opacity:1"
         d="m 93.495996,46.680313 c -0.04218,0.25599 -0.273768,0.403386 -0.492192,0.374285 -0.218425,-0.0291 -0.340979,-0.223679 -0.298793,-0.479669 0.04218,-0.255991 0.253452,-0.439922 0.471877,-0.410821 0.218424,0.0291 0.361294,0.260214 0.319108,0.516205 z"
         sodipodi:nodetypes="sssss" /></g><g
       id="g43"
       transform="matrix(0.78971408,0,0,0.80732571,6.3548475,6.6363873)" /><g
       inkscape:label="Camada 1"
       id="layer1-3"
       transform="matrix(0.78571881,-0.75107731,0.79237502,0.74476799,19.032789,21.628812)"><rect
         style="fill:#ffffff;fill-opacity:0.576419;stroke:none;stroke-width:2.225;stroke-dasharray:none;stroke-opacity:1"
         id="rect1-2"
         width="26.432261"
         height="26.432261"
         x="-0.072979786"
         y="0.085318074"
         ry="0" /><path
         id="path4-7"
         style="fill:#b76000;fill-opacity:1;stroke:#713b00;stroke-width:0.531544;stroke-dasharray:none;stroke-opacity:1"
         d="M 0.12618857,0.22410627 V 26.233407 H 26.179425 V 0.22410627 Z M 2.0868196,2.0984603 h 1.256897 a 1.6478896,1.5129884 52.774056 0 0 -0.234757,0.81461 1.6478896,1.5129884 52.774056 0 0 -1.02214,0.01616 z m 3.762597,0 H 20.287818 a 1.5129884,1.6478896 37.225944 0 0 -0.06692,0.08943 1.5129884,1.6478896 37.225944 0 0 -0.0027,1.928231 1.5129884,1.6478896 37.225944 0 0 0.336755,2.143198 1.5129884,1.6478896 37.225944 0 0 0.749066,0.251063 1.5129884,1.6478896 37.225944 0 0 1.347022,-0.616344 1.5129884,1.6478896 37.225944 0 0 1.697271,-0.281773 V 21.110309 a 1.6478896,1.5129884 52.774056 0 0 -1.775523,-0.354507 1.6478896,1.5129884 52.774056 0 0 -1.347023,-0.615804 1.6478896,1.5129884 52.774056 0 0 -0.749066,0.250524 1.6478896,1.5129884 52.774056 0 0 -0.336755,2.143197 1.6478896,1.5129884 52.774056 0 0 -0.06476,1.825328 H 5.9713826 a 1.5129884,1.6478896 37.225944 0 0 0.101999,-0.131459 1.5129884,1.6478896 37.225944 0 0 0.0022,-1.928231 1.5129884,1.6478896 37.225944 0 0 -0.33622,-2.143197 1.5129884,1.6478896 37.225944 0 0 -0.749605,-0.251064 1.5129884,1.6478896 37.225944 0 0 -1.346483,0.616346 1.5129884,1.6478896 37.225944 0 0 -1.556416,0.171326 V 5.8213093 a 1.6478896,1.5129884 52.774056 0 0 1.399911,0.07273 1.6478896,1.5129884 52.774056 0 0 1.346483,0.616344 1.6478896,1.5129884 52.774056 0 0 0.749065,-0.251063 1.6478896,1.5129884 52.774056 0 0 0.336756,-2.143198 1.6478896,1.5129884 52.774056 0 0 -0.0027,-1.928231 1.6478896,1.5129884 52.774056 0 0 -0.06692,-0.08943 z m 16.9446424,0 h 1.554257 v 0.989168 a 1.5129884,1.6478896 37.225944 0 0 -0.007,-0.0048 1.5129884,1.6478896 37.225944 0 0 -1.31252,-0.169712 1.5129884,1.6478896 37.225944 0 0 -0.234757,-0.814609 z M 2.0868196,23.414601 a 1.5129884,1.6478896 37.225944 0 0 1.178645,0.08781 1.5129884,1.6478896 37.225944 0 0 0.262821,0.856633 h -1.441466 z m 22.2614964,0.08836 v 0.856094 h -1.528892 a 1.6478896,1.5129884 52.774056 0 0 0.130601,-0.622271 1.6478896,1.5129884 52.774056 0 0 1.313022,-0.16971 1.6478896,1.5129884 52.774056 0 0 0.08527,-0.06412 z" /><path
         id="path34"
         style="fill:#da7200;fill-opacity:1;stroke:#3e2100;stroke-width:0.318648;stroke-dasharray:none;stroke-opacity:1"
         d="M 1.9957769,12.575312 12.737478,24.258955 24.384837,14.257202 13.643136,2.5735587 Z m 1.6506182,0.0893 0.5619075,-0.482517 a 1.0100269,0.88710286 16.606225 0 0 0.2314795,0.456053 1.0100269,0.88710286 16.606225 0 0 -0.4502842,0.399654 z m 1.6821055,-1.44445 6.4548324,-5.5428551 a 0.98295452,0.91153532 68.289482 0 0 0.007,0.065861 0.98295452,0.91153532 68.289482 0 0 0.795157,0.8672047 0.98295452,0.91153532 68.289482 0 0 1.035677,0.8334673 0.98295452,0.91153532 68.289482 0 0 0.438566,-0.1747834 0.98295452,0.91153532 68.289482 0 0 0.347653,-0.7939858 0.98295452,0.91153532 68.289482 0 0 0.642411,-0.778152 l 6.400608,6.9618803 a 1.0100269,0.88710286 16.606225 0 0 -0.940174,0.522369 1.0100269,0.88710286 16.606225 0 0 -0.856524,0.240493 1.0100269,0.88710286 16.606225 0 0 -0.231412,0.400101 1.0100269,0.88710286 16.606225 0 0 0.734579,1.092025 1.0100269,0.88710286 16.606225 0 0 0.724897,0.844819 l -6.305262,5.414419 a 0.98295452,0.91153532 68.289482 0 0 -0.0087,-0.09821 0.98295452,0.91153532 68.289482 0 0 -0.795317,-0.867068 0.98295452,0.91153532 68.289482 0 0 -1.035464,-0.833653 0.98295452,0.91153532 68.289482 0 0 -0.438805,0.17499 0.98295452,0.91153532 68.289482 0 0 -0.347411,0.793779 0.98295452,0.91153532 68.289482 0 0 -0.625054,0.674465 L 5.1839491,14.33692 A 1.0100269,0.88710286 16.606225 0 0 5.839828,13.832168 1.0100269,0.88710286 16.606225 0 0 6.6963339,13.592125 1.0100269,0.88710286 16.606225 0 0 6.9275231,13.191781 1.0100269,0.88710286 16.606225 0 0 6.1929442,12.099755 1.0100269,0.88710286 16.606225 0 0 5.3954025,11.234598 1.0100269,0.88710286 16.606225 0 0 5.3285495,11.22011 Z m 7.5752724,-6.5049934 0.694845,-0.5966738 0.408521,0.4443443 a 0.98295452,0.91153532 68.289482 0 0 -0.0051,5.033e-4 0.98295452,0.91153532 68.289482 0 0 -0.656893,0.4276659 0.98295452,0.91153532 68.289482 0 0 -0.44138,-0.2758078 z M 12.449845,22.240038 a 0.98295452,0.91153532 68.289482 0 0 0.563188,-0.413035 0.98295452,0.91153532 68.289482 0 0 0.471281,0.283913 l -0.644421,0.553374 z m 9.988713,-8.506427 0.353561,0.384565 -0.683506,0.586938 a 1.0100269,0.88710286 16.606225 0 0 -0.198603,-0.329673 1.0100269,0.88710286 16.606225 0 0 0.516911,-0.5803 1.0100269,0.88710286 16.606225 0 0 0.01164,-0.06154 z" /><path
         id="path35"
         style="fill:#ff8a0b;fill-opacity:1;stroke:#3e2100;stroke-width:0.241028;stroke-dasharray:none;stroke-opacity:1"
         d="M 7.1809301,7.8080145 V 19.257834 H 19.349685 V 7.8080145 Z m 0.9157571,0.8251283 h 0.5870622 a 0.74894341,0.68449299 33.052381 0 0 -0.1096496,0.3586081 0.74894341,0.68449299 33.052381 0 0 -0.4774135,0.0071 z m 1.7574062,0 h 6.7437816 a 0.68449299,0.74894341 56.947619 0 0 -0.03125,0.039369 0.68449299,0.74894341 56.947619 0 0 -0.0013,0.8488465 0.68449299,0.74894341 56.947619 0 0 0.157288,0.9434807 0.68449299,0.74894341 56.947619 0 0 0.349869,0.110521 0.68449299,0.74894341 56.947619 0 0 0.629157,-0.271327 0.68449299,0.74894341 56.947619 0 0 0.792747,-0.12404 v 6.822552 a 0.74894341,0.68449299 33.052381 0 0 -0.829296,-0.156061 0.74894341,0.68449299 33.052381 0 0 -0.629158,-0.27109 0.74894341,0.68449299 33.052381 0 0 -0.34987,0.110288 0.74894341,0.68449299 33.052381 0 0 -0.157287,0.94348 0.74894341,0.68449299 33.052381 0 0 -0.03024,0.803548 H 9.9110605 a 0.68449299,0.74894341 56.947619 0 0 0.047649,-0.05786 0.68449299,0.74894341 56.947619 0 0 0.001,-0.848845 0.68449299,0.74894341 56.947619 0 0 -0.1570361,-0.943479 0.68449299,0.74894341 56.947619 0 0 -0.35012,-0.110521 0.68449299,0.74894341 56.947619 0 0 -0.6289052,0.271328 0.68449299,0.74894341 56.947619 0 0 -0.7269595,0.07542 v -6.546714 a 0.74894341,0.68449299 33.052381 0 0 0.6538602,0.03201 0.74894341,0.68449299 33.052381 0 0 0.6289056,0.271327 0.74894341,0.68449299 33.052381 0 0 0.3498675,-0.110521 0.74894341,0.68449299 33.052381 0 0 0.1572893,-0.9434792 0.74894341,0.68449299 33.052381 0 0 -0.0013,-0.8488471 0.74894341,0.68449299 33.052381 0 0 -0.031265,-0.039369 z m 7.9143776,0 h 0.72595 v 0.4354515 a 0.68449299,0.74894341 56.947619 0 0 -0.0032,-0.00209 A 0.68449299,0.74894341 56.947619 0 0 17.87818,8.9917923 0.68449299,0.74894341 56.947619 0 0 17.768524,8.6331606 Z M 8.0966872,18.016937 A 0.68449299,0.74894341 56.947619 0 0 8.6472,18.055598 0.68449299,0.74894341 56.947619 0 0 8.7699566,18.432706 H 8.0966872 Z m 10.3977338,0.03889 v 0.376871 H 17.78032 a 0.74894341,0.68449299 33.052381 0 0 0.06099,-0.273936 0.74894341,0.68449299 33.052381 0 0 0.613278,-0.0747 0.74894341,0.68449299 33.052381 0 0 0.03983,-0.02823 z" /><path
         id="path36"
         style="fill:#dd9900;fill-opacity:1;stroke:#3e2100;stroke-width:0.181027;stroke-dasharray:none;stroke-opacity:1"
         d="m 6.6969389,13.124775 6.0867731,6.654724 6.599963,-5.69676 -6.086773,-6.6547246 z m 0.935321,0.05086 0.3184043,-0.27483 a 0.57258069,0.50505198 17.254125 0 0 0.1311676,0.259757 0.57258069,0.50505198 17.254125 0 0 -0.2551531,0.227633 z M 8.5854231,12.352914 12.243047,9.1958354 a 0.55949504,0.5168643 69.572601 0 0 0.004,0.037513 0.55949504,0.5168643 69.572601 0 0 0.450575,0.4939391 0.55949504,0.5168643 69.572601 0 0 0.586865,0.4747235 0.55949504,0.5168643 69.572601 0 0 0.248513,-0.09955 0.55949504,0.5168643 69.572601 0 0 0.196998,-0.4522358 0.55949504,0.5168643 69.572601 0 0 0.364021,-0.4432169 l 3.626898,3.9653207 a 0.57258069,0.50505198 17.254125 0 0 -0.532749,0.29753 0.57258069,0.50505198 17.254125 0 0 -0.485348,0.136979 0.57258069,0.50505198 17.254125 0 0 -0.13113,0.227888 0.57258069,0.50505198 17.254125 0 0 0.416249,0.621991 0.57258069,0.50505198 17.254125 0 0 0.410762,0.481189 l -3.57287,3.083924 a 0.55949504,0.5168643 69.572601 0 0 -0.0049,-0.05594 0.55949504,0.5168643 69.572601 0 0 -0.450665,-0.493861 0.55949504,0.5168643 69.572601 0 0 -0.586745,-0.474829 0.55949504,0.5168643 69.572601 0 0 -0.248648,0.09967 0.55949504,0.5168643 69.572601 0 0 -0.196861,0.452118 0.55949504,0.5168643 69.572601 0 0 -0.354186,0.384159 l -3.4802828,-3.805 A 0.57258069,0.50505198 17.254125 0 0 8.8751662,13.84065 0.57258069,0.50505198 17.254125 0 0 9.3605044,13.703927 0.57258069,0.50505198 17.254125 0 0 9.4915075,13.475901 0.57258069,0.50505198 17.254125 0 0 9.0752591,12.853909 0.57258069,0.50505198 17.254125 0 0 8.623333,12.361136 0.57258069,0.50505198 17.254125 0 0 8.585451,12.352836 Z m 4.2925199,-3.7050896 0.393733,-0.3398512 0.231488,0.2530879 a 0.55949504,0.5168643 69.572601 0 0 -0.0029,2.867e-4 0.55949504,0.5168643 69.572601 0 0 -0.372228,0.2435883 0.55949504,0.5168643 69.572601 0 0 -0.250107,-0.1570935 z m -0.257218,9.9817476 a 0.55949504,0.5168643 69.572601 0 0 0.31913,-0.235255 0.55949504,0.5168643 69.572601 0 0 0.267051,0.161711 l -0.365161,0.315188 z m 5.660093,-4.845058 0.200345,0.219039 -0.387308,0.334306 a 0.57258069,0.50505198 17.254125 0 0 -0.112538,-0.187774 0.57258069,0.50505198 17.254125 0 0 0.292907,-0.330525 0.57258069,0.50505198 17.254125 0 0 0.0066,-0.03505 z" /><path
         id="path37"
         style="fill:#ffb819;fill-opacity:1;stroke:#3e2100;stroke-width:0.133815;stroke-dasharray:none;stroke-opacity:1"
         d="m 9.7481564,10.379407 v 6.457034 h 6.6509686 v -6.457034 z m 0.5005176,0.465325 h 0.320865 a 0.41423667,0.38145435 43.235768 0 0 -0.05993,0.202234 0.41423667,0.38145435 43.235768 0 0 -0.260936,0.004 z m 0.96053,0 h 3.685889 a 0.38145435,0.41423667 46.764232 0 0 -0.01708,0.0222 0.38145435,0.41423667 46.764232 0 0 -7.1e-4,0.478699 0.38145435,0.41423667 46.764232 0 0 0.08597,0.532069 0.38145435,0.41423667 46.764232 0 0 0.191224,0.06232 0.38145435,0.41423667 46.764232 0 0 0.343873,-0.153012 0.38145435,0.41423667 46.764232 0 0 0.433284,-0.06995 v 3.847523 a 0.41423667,0.38145435 43.235768 0 0 -0.45326,-0.08801 0.41423667,0.38145435 43.235768 0 0 -0.343874,-0.15288 0.41423667,0.38145435 43.235768 0 0 -0.191225,0.0622 0.41423667,0.38145435 43.235768 0 0 -0.08597,0.532068 0.41423667,0.38145435 43.235768 0 0 -0.01653,0.453155 h -3.600458 a 0.38145435,0.41423667 46.764232 0 0 0.02604,-0.03263 0.38145435,0.41423667 46.764232 0 0 5.47e-4,-0.478699 0.38145435,0.41423667 46.764232 0 0 -0.08583,-0.532068 0.38145435,0.41423667 46.764232 0 0 -0.191363,-0.06232 0.38145435,0.41423667 46.764232 0 0 -0.343734,0.153013 0.38145435,0.41423667 46.764232 0 0 -0.397328,0.04253 v -3.691967 a 0.41423667,0.38145435 43.235768 0 0 0.357375,0.01805 0.41423667,0.38145435 43.235768 0 0 0.343734,0.153013 0.41423667,0.38145435 43.235768 0 0 0.191225,-0.06232 0.41423667,0.38145435 43.235768 0 0 0.08597,-0.532067 0.41423667,0.38145435 43.235768 0 0 -7.11e-4,-0.478701 0.41423667,0.38145435 43.235768 0 0 -0.01709,-0.0222 z m 4.325691,0 h 0.396775 v 0.245569 a 0.38145435,0.41423667 46.764232 0 0 -0.0017,-0.0011 0.38145435,0.41423667 46.764232 0 0 -0.335063,-0.04213 0.38145435,0.41423667 46.764232 0 0 -0.05994,-0.202247 z m -5.286221,5.291915 a 0.38145435,0.41423667 46.764232 0 0 0.300889,0.0218 0.38145435,0.41423667 46.764232 0 0 0.06709,0.212668 h -0.367979 z m 5.682996,0.02193 v 0.212533 h -0.3903 a 0.41423667,0.38145435 43.235768 0 0 0.03334,-0.154484 0.41423667,0.38145435 43.235768 0 0 0.335193,-0.04212 0.41423667,0.38145435 43.235768 0 0 0.02177,-0.01592 z" /></g><g
       id="g5"
       transform="rotate(34.650098,116.14573,46.02326)"><rect
         style="fill:#ffffff;fill-opacity:0.576419;stroke:none;stroke-width:2.41902;stroke-dasharray:none;stroke-opacity:1"
         id="rect1"
         width="28.730679"
         height="28.743641"
         x="-11.595079"
         y="74.335625"
         ry="0"
         transform="matrix(0.72286232,-0.69099209,0.72865728,0.6848785,0,0)" /><path
         id="path1"
         style="fill:#b76000;fill-opacity:1;stroke:#713b00;stroke-width:0.577481;stroke-dasharray:none;stroke-opacity:1"
         d="M 46.050009,58.876752 66.659129,78.247646 87.129647,58.679652 66.520527,39.308757 Z m 3.025696,-0.07663 0.987568,-0.944027 a 1.8378227,1.6012434 4.6260418 0 0 0.461023,0.783016 1.8378227,1.6012434 4.6260418 0 0 -0.79031,0.779742 z m 2.956343,-2.826001 11.344524,-10.844356 a 1.7475334,1.6839744 70.205541 0 0 0.01828,0.116867 1.7475334,1.6839744 70.205541 0 0 1.52576,1.438113 1.7475334,1.6839744 70.205541 0 0 1.962811,1.343256 1.7475334,1.6839744 70.205541 0 0 0.787492,-0.375623 1.7475334,1.6839744 70.205541 0 0 0.570005,-1.470751 1.7475334,1.6839744 70.205541 0 0 1.110308,-1.484637 l 12.280264,11.54245 a 1.8378227,1.6012434 4.6260418 0 0 -1.675964,1.069529 1.8378227,1.6012434 4.6260418 0 0 -1.546329,0.553088 1.8378227,1.6012434 4.6260418 0 0 -0.390046,0.749188 1.8378227,1.6012434 4.6260418 0 0 1.433621,1.849114 1.8378227,1.6012434 4.6260418 0 0 1.395461,1.408086 L 69.766612,72.46149 A 1.7475334,1.6839744 70.205541 0 0 69.74259,72.286975 1.7475334,1.6839744 70.205541 0 0 68.216436,70.849238 1.7475334,1.6839744 70.205541 0 0 66.254046,69.50558 1.7475334,1.6839744 70.205541 0 0 65.46613,69.881607 1.7475334,1.6839744 70.205541 0 0 64.896551,71.351955 1.7475334,1.6839744 70.205541 0 0 63.8094,72.648542 L 52.025627,61.572755 a 1.8378227,1.6012434 4.6260418 0 0 1.157566,-0.997274 1.8378227,1.6012434 4.6260418 0 0 1.546333,-0.55228 1.8378227,1.6012434 4.6260418 0 0 0.389618,-0.749589 A 1.8378227,1.6012434 4.6260418 0 0 53.685523,57.424497 1.8378227,1.6012434 4.6260418 0 0 52.15552,55.99044 1.8378227,1.6012434 4.6260418 0 0 52.032077,55.9741 Z m 13.313724,-12.726736 1.221209,-1.167368 0.783792,0.736701 a 1.7475334,1.6839744 70.205541 0 0 -0.0093,0.0017 1.7475334,1.6839744 70.205541 0 0 -1.165747,0.859408 1.7475334,1.6839744 70.205541 0 0 -0.829929,-0.430374 z m 0.62031,31.428316 a 1.7475334,1.6839744 70.205541 0 0 0.995662,-0.819855 1.7475334,1.6839744 70.205541 0 0 0.885278,0.440594 l -1.132587,1.082652 z m 17.561291,-16.654297 0.678348,0.637592 -1.20128,1.148316 a 1.8378227,1.6012434 4.6260418 0 0 -0.390456,-0.561539 1.8378227,1.6012434 4.6260418 0 0 0.897192,-1.112576 1.8378227,1.6012434 4.6260418 0 0 0.01619,-0.111799 z" /></g><g
       id="g6"
       transform="matrix(-0.82263955,0.56856326,0.56856326,0.82263955,39.67994,-28.050507)"><rect
         style="fill:#ffffff;fill-opacity:0.576419;stroke:none;stroke-width:2.41902;stroke-dasharray:none;stroke-opacity:1"
         id="rect5"
         width="28.730679"
         height="28.743641"
         x="-11.595079"
         y="74.335625"
         ry="0"
         transform="matrix(0.72286232,-0.69099209,0.72865728,0.6848785,0,0)" /><path
         id="path5"
         style="fill:#b76000;fill-opacity:1;stroke:#713b00;stroke-width:0.577481;stroke-dasharray:none;stroke-opacity:1"
         d="M 46.050009,58.876752 66.659129,78.247646 87.129647,58.679652 66.520527,39.308757 Z m 3.025696,-0.07663 0.987568,-0.944027 a 1.8378227,1.6012434 4.6260418 0 0 0.461023,0.783016 1.8378227,1.6012434 4.6260418 0 0 -0.79031,0.779742 z m 2.956343,-2.826001 11.344524,-10.844356 a 1.7475334,1.6839744 70.205541 0 0 0.01828,0.116867 1.7475334,1.6839744 70.205541 0 0 1.52576,1.438113 1.7475334,1.6839744 70.205541 0 0 1.962811,1.343256 1.7475334,1.6839744 70.205541 0 0 0.787492,-0.375623 1.7475334,1.6839744 70.205541 0 0 0.570005,-1.470751 1.7475334,1.6839744 70.205541 0 0 1.110308,-1.484637 l 12.280264,11.54245 a 1.8378227,1.6012434 4.6260418 0 0 -1.675964,1.069529 1.8378227,1.6012434 4.6260418 0 0 -1.546329,0.553088 1.8378227,1.6012434 4.6260418 0 0 -0.390046,0.749188 1.8378227,1.6012434 4.6260418 0 0 1.433621,1.849114 1.8378227,1.6012434 4.6260418 0 0 1.395461,1.408086 L 69.766612,72.46149 A 1.7475334,1.6839744 70.205541 0 0 69.74259,72.286975 1.7475334,1.6839744 70.205541 0 0 68.216436,70.849238 1.7475334,1.6839744 70.205541 0 0 66.254046,69.50558 1.7475334,1.6839744 70.205541 0 0 65.46613,69.881607 1.7475334,1.6839744 70.205541 0 0 64.896551,71.351955 1.7475334,1.6839744 70.205541 0 0 63.8094,72.648542 L 52.025627,61.572755 a 1.8378227,1.6012434 4.6260418 0 0 1.157566,-0.997274 1.8378227,1.6012434 4.6260418 0 0 1.546333,-0.55228 1.8378227,1.6012434 4.6260418 0 0 0.389618,-0.749589 A 1.8378227,1.6012434 4.6260418 0 0 53.685523,57.424497 1.8378227,1.6012434 4.6260418 0 0 52.15552,55.99044 1.8378227,1.6012434 4.6260418 0 0 52.032077,55.9741 Z m 13.313724,-12.726736 1.221209,-1.167368 0.783792,0.736701 a 1.7475334,1.6839744 70.205541 0 0 -0.0093,0.0017 1.7475334,1.6839744 70.205541 0 0 -1.165747,0.859408 1.7475334,1.6839744 70.205541 0 0 -0.829929,-0.430374 z m 0.62031,31.428316 a 1.7475334,1.6839744 70.205541 0 0 0.995662,-0.819855 1.7475334,1.6839744 70.205541 0 0 0.885278,0.440594 l -1.132587,1.082652 z m 17.561291,-16.654297 0.678348,0.637592 -1.20128,1.148316 a 1.8378227,1.6012434 4.6260418 0 0 -0.390456,-0.561539 1.8378227,1.6012434 4.6260418 0 0 0.897192,-1.112576 1.8378227,1.6012434 4.6260418 0 0 0.01619,-0.111799 z" /></g><path
       id="path8"
       style="fill:#ff8a0b;fill-opacity:1;stroke:#3e2100;stroke-width:0.284666;stroke-dasharray:none;stroke-opacity:1"
       d="m 5.0523549,21.461722 9.8797251,9.25428 10.411869,-9.918678 -9.879724,-9.25428 z m 1.4955231,-0.07953 0.5023042,-0.47851 A 0.78695352,0.90866656 82.532101 0 0 7.2657959,21.2829 0.78695352,0.90866656 82.532101 0 0 6.8634361,21.677776 Z m 1.5036774,-1.432451 5.7701366,-5.496815 a 0.82722317,0.86443222 27.218067 0 0 0.0072,0.05729 0.82722317,0.86443222 27.218067 0 0 0.731333,0.687137 0.82722317,0.86443222 27.218067 0 0 0.948683,0.634361 0.82722317,0.86443222 27.218067 0 0 0.39472,-0.195848 0.82722317,0.86443222 27.218067 0 0 0.304201,-0.732121 0.82722317,0.86443222 27.218067 0 0 0.571262,-0.746419 l 5.886987,5.514307 a 0.78695352,0.90866656 82.532101 0 0 -0.844225,0.549818 0.78695352,0.90866656 82.532101 0 0 -0.772239,0.293715 0.78695352,0.90866656 82.532101 0 0 -0.204193,0.374316 0.78695352,0.90866656 82.532101 0 0 0.679524,0.890769 0.78695352,0.90866656 82.532101 0 0 0.667485,0.674113 l -5.636395,5.369411 a 0.82722317,0.86443222 27.218067 0 0 -0.0091,-0.0856 0.82722317,0.86443222 27.218067 0 0 -0.731588,-0.686891 0.82722317,0.86443222 27.218067 0 0 -0.948466,-0.634565 0.82722317,0.86443222 27.218067 0 0 -0.394936,0.196053 0.82722317,0.86443222 27.218067 0 0 -0.303985,0.731917 0.82722317,0.86443222 27.218067 0 0 -0.556925,0.653498 L 7.9620367,22.706833 a 0.78695352,0.90866656 82.532101 0 0 0.5870782,-0.507086 0.78695352,0.90866656 82.532101 0 0 0.7722267,-0.293318 0.78695352,0.90866656 82.532101 0 0 0.203989,-0.374503 0.78695352,0.90866656 82.532101 0 0 -0.679521,-0.89077 0.78695352,0.90866656 82.532101 0 0 -0.7335584,-0.685018 0.78695352,0.90866656 82.532101 0 0 -0.060721,-0.0063 z m 6.7717266,-6.45096 0.621139,-0.591718 0.375739,0.351953 a 0.82722317,0.86443222 27.218067 0 0 -0.0046,9.19e-4 0.82722317,0.86443222 27.218067 0 0 -0.588999,0.4393 0.82722317,0.86443222 27.218067 0 0 -0.403278,-0.200484 z m -0.178394,15.467838 a 0.82722317,0.86443222 27.218067 0 0 0.504392,-0.417472 0.82722317,0.86443222 27.218067 0 0 0.430429,0.204738 l -0.576065,0.548777 z m 8.9301,-8.443697 0.325191,0.304604 -0.611002,0.582061 a 0.78695352,0.90866656 82.532101 0 0 -0.184187,-0.271121 0.78695352,0.90866656 82.532101 0 0 0.460279,-0.560256 0.78695352,0.90866656 82.532101 0 0 0.0097,-0.05528 z" /><path
       id="path9"
       style="fill:#dd9900;fill-opacity:1;stroke:#3e2100;stroke-width:0.34441;stroke-dasharray:none;stroke-opacity:1"
       d="M 49.07018,49.201629 66.182333,49.894676 67.325485,33.316127 50.213331,32.62308 Z m 1.319207,-1.197674 0.05515,-0.799804 a 0.96186096,1.0882366 61.291167 0 0 0.525652,0.171086 0.96186096,1.0882366 61.291167 0 0 -0.03422,0.65085 z m 0.165088,-2.394264 0.633523,-9.18764 a 1.0631726,0.98453663 25.377498 0 0 0.05594,0.04492 1.0631726,0.98453663 25.377498 0 0 1.268513,0.05307 1.0631726,0.98453663 25.377498 0 0 1.424837,-0.157174 1.0631726,0.98453663 25.377498 0 0 0.198051,-0.469963 1.0631726,0.98453663 25.377498 0 0 -0.346403,-0.87358 1.0631726,0.98453663 25.377498 0 0 -0.110921,-1.087538 l 10.196542,0.412962 a 0.96186096,1.0882366 61.291167 0 0 -0.311142,1.120381 0.96186096,1.0882366 61.291167 0 0 -0.464257,0.840746 0.96186096,1.0882366 61.291167 0 0 0.131955,0.483333 0.96186096,1.0882366 61.291167 0 0 1.395286,0.271395 0.96186096,1.0882366 61.291167 0 0 1.198085,0.08985 L 65.205642,46.1252 a 1.0631726,0.98453663 25.377498 0 0 -0.08199,-0.06844 1.0631726,0.98453663 25.377498 0 0 -1.268528,-0.05285 1.0631726,0.98453663 25.377498 0 0 -1.424819,0.156868 1.0631726,0.98453663 25.377498 0 0 -0.198072,0.470307 1.0631726,0.98453663 25.377498 0 0 0.346429,0.873237 1.0631726,0.98453663 25.377498 0 0 0.04443,0.994964 L 52.838774,48.10305 a 0.96186096,1.0882366 61.291167 0 0 0.109219,-0.888834 0.96186096,1.0882366 61.291167 0 0 0.464589,-0.840389 0.96186096,1.0882366 61.291167 0 0 -0.132312,-0.483345 0.96186096,1.0882366 61.291167 0 0 -1.395286,-0.271397 0.96186096,1.0882366 61.291167 0 0 -1.268748,-0.04968 0.96186096,1.0882366 61.291167 0 0 -0.06184,0.04013 z m 0.74349,-10.782445 0.06819,-0.989024 0.650797,0.02636 a 1.0631726,0.98453663 25.377498 0 0 -0.0036,0.0043 1.0631726,0.98453663 25.377498 0 0 -0.169241,0.830724 1.0631726,0.98453663 25.377498 0 0 -0.54625,0.127675 z M 64.41379,48.571951 a 1.0631726,0.98453663 25.377498 0 0 0.109492,-0.747673 1.0631726,0.98453663 25.377498 0 0 0.575133,-0.144416 l -0.06325,0.917252 z m 1.034908,-14.163384 0.563244,0.02281 -0.06708,0.972885 a 0.96186096,1.0882366 61.291167 0 0 -0.403677,-0.09969 0.96186096,1.0882366 61.291167 0 0 -0.05405,-0.840042 0.96186096,1.0882366 61.291167 0 0 -0.03844,-0.05597 z" /><path
       id="path10"
       style="fill:#ffb819;fill-opacity:1;stroke:#3e2100;stroke-width:0.407205;stroke-dasharray:none;stroke-opacity:1"
       d="M 17.197727,51.640729 31.708064,64.943971 46.528662,51.125089 32.018325,37.821846 Z m 2.161007,-0.08125 0.714993,-0.66667 a 1.1162022,1.3108788 88.97518 0 0 0.320919,0.541177 1.1162022,1.3108788 88.97518 0 0 -0.572462,0.550393 z m 2.140383,-1.995718 8.213401,-7.658262 a 1.2060819,1.2131895 24.13217 0 0 0.01191,0.08122 1.2060819,1.2131895 24.13217 0 0 1.074157,0.987725 1.2060819,1.2131895 24.13217 0 0 1.387244,0.917585 1.2060819,1.2131895 24.13217 0 0 0.566158,-0.268915 1.2060819,1.2131895 24.13217 0 0 0.422415,-1.02972 1.2060819,1.2131895 24.13217 0 0 0.808308,-1.04436 l 8.646207,7.926941 a 1.1162022,1.3108788 88.97518 0 0 -1.20779,0.760425 1.1162022,1.3108788 88.97518 0 0 -1.109822,0.399501 1.1162022,1.3108788 88.97518 0 0 -0.286336,0.525461 1.1162022,1.3108788 88.97518 0 0 1.0041,1.274828 1.1162022,1.3108788 88.97518 0 0 0.981502,0.967966 l -8.023034,7.480762 a 1.2060819,1.2131895 24.13217 0 0 -0.01532,-0.121331 1.2060819,1.2131895 24.13217 0 0 -1.074519,-0.987388 1.2060819,1.2131895 24.13217 0 0 -1.38693,-0.917872 1.2060819,1.2131895 24.13217 0 0 -0.566467,0.269191 1.2060819,1.2131895 24.13217 0 0 -0.422103,1.029433 1.2060819,1.2131895 24.13217 0 0 -0.789806,0.913162 l -8.296641,-7.606451 a 1.1162022,1.3108788 88.97518 0 0 0.836915,-0.705341 1.1162022,1.3108788 88.97518 0 0 1.109808,-0.398935 1.1162022,1.3108788 88.97518 0 0 0.286067,-0.52571 1.1162022,1.3108788 88.97518 0 0 -1.004097,-1.274823 1.1162022,1.3108788 88.97518 0 0 -1.07733,-0.984779 1.1162022,1.3108788 88.97518 0 0 -0.08798,-0.01023 z m 9.639097,-8.987595 0.88415,-0.82439 0.551844,0.505939 a 1.2060819,1.2131895 24.13217 0 0 -0.0062,0.0012 1.2060819,1.2131895 24.13217 0 0 -0.841308,0.60937 1.2060819,1.2131895 24.13217 0 0 -0.588061,-0.292144 z m 0.11259,21.886095 a 1.2060819,1.2131895 24.13217 0 0 0.719473,-0.580251 1.2060819,1.2131895 24.13217 0 0 0.62741,0.298758 l -0.819982,0.764559 z m 12.712912,-11.762522 0.477605,0.437876 -0.86972,0.810934 A 1.1162022,1.3108788 88.97518 0 0 43.298745,51.561 a 1.1162022,1.3108788 88.97518 0 0 0.652272,-0.783219 1.1162022,1.3108788 88.97518 0 0 0.01276,-0.07803 z" /><g
       id="g11"
       transform="rotate(60.800675,53.058207,90.89552)"><rect
         style="fill:#ffffff;fill-opacity:0.576419;stroke:none;stroke-width:2.41902;stroke-dasharray:none;stroke-opacity:1"
         id="rect10"
         width="28.730679"
         height="28.743641"
         x="-11.595079"
         y="74.335625"
         ry="0"
         transform="matrix(0.72286232,-0.69099209,0.72865728,0.6848785,0,0)" /><path
         id="path11"
         style="fill:#b76000;fill-opacity:1;stroke:#713b00;stroke-width:0.577481;stroke-dasharray:none;stroke-opacity:1"
         d="M 46.050009,58.876752 66.659129,78.247646 87.129647,58.679652 66.520527,39.308757 Z m 3.025696,-0.07663 0.987568,-0.944027 a 1.8378227,1.6012434 4.6260418 0 0 0.461023,0.783016 1.8378227,1.6012434 4.6260418 0 0 -0.79031,0.779742 z m 2.956343,-2.826001 11.344524,-10.844356 a 1.7475334,1.6839744 70.205541 0 0 0.01828,0.116867 1.7475334,1.6839744 70.205541 0 0 1.52576,1.438113 1.7475334,1.6839744 70.205541 0 0 1.962811,1.343256 1.7475334,1.6839744 70.205541 0 0 0.787492,-0.375623 1.7475334,1.6839744 70.205541 0 0 0.570005,-1.470751 1.7475334,1.6839744 70.205541 0 0 1.110308,-1.484637 l 12.280264,11.54245 a 1.8378227,1.6012434 4.6260418 0 0 -1.675964,1.069529 1.8378227,1.6012434 4.6260418 0 0 -1.546329,0.553088 1.8378227,1.6012434 4.6260418 0 0 -0.390046,0.749188 1.8378227,1.6012434 4.6260418 0 0 1.433621,1.849114 1.8378227,1.6012434 4.6260418 0 0 1.395461,1.408086 L 69.766612,72.46149 A 1.7475334,1.6839744 70.205541 0 0 69.74259,72.286975 1.7475334,1.6839744 70.205541 0 0 68.216436,70.849238 1.7475334,1.6839744 70.205541 0 0 66.254046,69.50558 1.7475334,1.6839744 70.205541 0 0 65.46613,69.881607 1.7475334,1.6839744 70.205541 0 0 64.896551,71.351955 1.7475334,1.6839744 70.205541 0 0 63.8094,72.648542 L 52.025627,61.572755 a 1.8378227,1.6012434 4.6260418 0 0 1.157566,-0.997274 1.8378227,1.6012434 4.6260418 0 0 1.546333,-0.55228 1.8378227,1.6012434 4.6260418 0 0 0.389618,-0.749589 A 1.8378227,1.6012434 4.6260418 0 0 53.685523,57.424497 1.8378227,1.6012434 4.6260418 0 0 52.15552,55.99044 1.8378227,1.6012434 4.6260418 0 0 52.032077,55.9741 Z m 13.313724,-12.726736 1.221209,-1.167368 0.783792,0.736701 a 1.7475334,1.6839744 70.205541 0 0 -0.0093,0.0017 1.7475334,1.6839744 70.205541 0 0 -1.165747,0.859408 1.7475334,1.6839744 70.205541 0 0 -0.829929,-0.430374 z m 0.62031,31.428316 a 1.7475334,1.6839744 70.205541 0 0 0.995662,-0.819855 1.7475334,1.6839744 70.205541 0 0 0.885278,0.440594 l -1.132587,1.082652 z m 17.561291,-16.654297 0.678348,0.637592 -1.20128,1.148316 a 1.8378227,1.6012434 4.6260418 0 0 -0.390456,-0.561539 1.8378227,1.6012434 4.6260418 0 0 0.897192,-1.112576 1.8378227,1.6012434 4.6260418 0 0 0.01619,-0.111799 z" /></g><g
       inkscape:label="Camada 1"
       id="g16"
       transform="matrix(0.68172594,-0.34215866,0.37319004,0.66558402,18.3368,85.779645)"><rect
         style="fill:#ffffff;fill-opacity:0.576419;stroke:none;stroke-width:2.225;stroke-dasharray:none;stroke-opacity:1"
         id="rect11"
         width="26.432261"
         height="26.432261"
         x="-0.072979786"
         y="0.085318074"
         ry="0" /><path
         id="path12"
         style="fill:#b76000;fill-opacity:1;stroke:#713b00;stroke-width:0.531544;stroke-dasharray:none;stroke-opacity:1"
         d="M 0.12618857,0.22410627 V 26.233407 H 26.179425 V 0.22410627 Z M 2.0868196,2.0984603 h 1.256897 a 1.6478896,1.5129884 52.774056 0 0 -0.234757,0.81461 1.6478896,1.5129884 52.774056 0 0 -1.02214,0.01616 z m 3.762597,0 H 20.287818 a 1.5129884,1.6478896 37.225944 0 0 -0.06692,0.08943 1.5129884,1.6478896 37.225944 0 0 -0.0027,1.928231 1.5129884,1.6478896 37.225944 0 0 0.336755,2.143198 1.5129884,1.6478896 37.225944 0 0 0.749066,0.251063 1.5129884,1.6478896 37.225944 0 0 1.347022,-0.616344 1.5129884,1.6478896 37.225944 0 0 1.697271,-0.281773 V 21.110309 a 1.6478896,1.5129884 52.774056 0 0 -1.775523,-0.354507 1.6478896,1.5129884 52.774056 0 0 -1.347023,-0.615804 1.6478896,1.5129884 52.774056 0 0 -0.749066,0.250524 1.6478896,1.5129884 52.774056 0 0 -0.336755,2.143197 1.6478896,1.5129884 52.774056 0 0 -0.06476,1.825328 H 5.9713826 a 1.5129884,1.6478896 37.225944 0 0 0.101999,-0.131459 1.5129884,1.6478896 37.225944 0 0 0.0022,-1.928231 1.5129884,1.6478896 37.225944 0 0 -0.33622,-2.143197 1.5129884,1.6478896 37.225944 0 0 -0.749605,-0.251064 1.5129884,1.6478896 37.225944 0 0 -1.346483,0.616346 1.5129884,1.6478896 37.225944 0 0 -1.556416,0.171326 V 5.8213093 a 1.6478896,1.5129884 52.774056 0 0 1.399911,0.07273 1.6478896,1.5129884 52.774056 0 0 1.346483,0.616344 1.6478896,1.5129884 52.774056 0 0 0.749065,-0.251063 1.6478896,1.5129884 52.774056 0 0 0.336756,-2.143198 1.6478896,1.5129884 52.774056 0 0 -0.0027,-1.928231 1.6478896,1.5129884 52.774056 0 0 -0.06692,-0.08943 z m 16.9446424,0 h 1.554257 v 0.989168 a 1.5129884,1.6478896 37.225944 0 0 -0.007,-0.0048 1.5129884,1.6478896 37.225944 0 0 -1.31252,-0.169712 1.5129884,1.6478896 37.225944 0 0 -0.234757,-0.814609 z M 2.0868196,23.414601 a 1.5129884,1.6478896 37.225944 0 0 1.178645,0.08781 1.5129884,1.6478896 37.225944 0 0 0.262821,0.856633 h -1.441466 z m 22.2614964,0.08836 v 0.856094 h -1.528892 a 1.6478896,1.5129884 52.774056 0 0 0.130601,-0.622271 1.6478896,1.5129884 52.774056 0 0 1.313022,-0.16971 1.6478896,1.5129884 52.774056 0 0 0.08527,-0.06412 z" /><path
         id="path13"
         style="fill:#da7200;fill-opacity:1;stroke:#3e2100;stroke-width:0.318648;stroke-dasharray:none;stroke-opacity:1"
         d="M 1.9957769,12.575312 12.737478,24.258955 24.384837,14.257202 13.643136,2.5735587 Z m 1.6506182,0.0893 0.5619075,-0.482517 a 1.0100269,0.88710286 16.606225 0 0 0.2314795,0.456053 1.0100269,0.88710286 16.606225 0 0 -0.4502842,0.399654 z m 1.6821055,-1.44445 6.4548324,-5.5428551 a 0.98295452,0.91153532 68.289482 0 0 0.007,0.065861 0.98295452,0.91153532 68.289482 0 0 0.795157,0.8672047 0.98295452,0.91153532 68.289482 0 0 1.035677,0.8334673 0.98295452,0.91153532 68.289482 0 0 0.438566,-0.1747834 0.98295452,0.91153532 68.289482 0 0 0.347653,-0.7939858 0.98295452,0.91153532 68.289482 0 0 0.642411,-0.778152 l 6.400608,6.9618803 a 1.0100269,0.88710286 16.606225 0 0 -0.940174,0.522369 1.0100269,0.88710286 16.606225 0 0 -0.856524,0.240493 1.0100269,0.88710286 16.606225 0 0 -0.231412,0.400101 1.0100269,0.88710286 16.606225 0 0 0.734579,1.092025 1.0100269,0.88710286 16.606225 0 0 0.724897,0.844819 l -6.305262,5.414419 a 0.98295452,0.91153532 68.289482 0 0 -0.0087,-0.09821 0.98295452,0.91153532 68.289482 0 0 -0.795317,-0.867068 0.98295452,0.91153532 68.289482 0 0 -1.035464,-0.833653 0.98295452,0.91153532 68.289482 0 0 -0.438805,0.17499 0.98295452,0.91153532 68.289482 0 0 -0.347411,0.793779 0.98295452,0.91153532 68.289482 0 0 -0.625054,0.674465 L 5.1839491,14.33692 A 1.0100269,0.88710286 16.606225 0 0 5.839828,13.832168 1.0100269,0.88710286 16.606225 0 0 6.6963339,13.592125 1.0100269,0.88710286 16.606225 0 0 6.9275231,13.191781 1.0100269,0.88710286 16.606225 0 0 6.1929442,12.099755 1.0100269,0.88710286 16.606225 0 0 5.3954025,11.234598 1.0100269,0.88710286 16.606225 0 0 5.3285495,11.22011 Z m 7.5752724,-6.5049934 0.694845,-0.5966738 0.408521,0.4443443 a 0.98295452,0.91153532 68.289482 0 0 -0.0051,5.033e-4 0.98295452,0.91153532 68.289482 0 0 -0.656893,0.4276659 0.98295452,0.91153532 68.289482 0 0 -0.44138,-0.2758078 z M 12.449845,22.240038 a 0.98295452,0.91153532 68.289482 0 0 0.563188,-0.413035 0.98295452,0.91153532 68.289482 0 0 0.471281,0.283913 l -0.644421,0.553374 z m 9.988713,-8.506427 0.353561,0.384565 -0.683506,0.586938 a 1.0100269,0.88710286 16.606225 0 0 -0.198603,-0.329673 1.0100269,0.88710286 16.606225 0 0 0.516911,-0.5803 1.0100269,0.88710286 16.606225 0 0 0.01164,-0.06154 z" /><path
         id="path14"
         style="fill:#ff8a0b;fill-opacity:1;stroke:#3e2100;stroke-width:0.241028;stroke-dasharray:none;stroke-opacity:1"
         d="M 7.1809301,7.8080145 V 19.257834 H 19.349685 V 7.8080145 Z m 0.9157571,0.8251283 h 0.5870622 a 0.74894341,0.68449299 33.052381 0 0 -0.1096496,0.3586081 0.74894341,0.68449299 33.052381 0 0 -0.4774135,0.0071 z m 1.7574062,0 h 6.7437816 a 0.68449299,0.74894341 56.947619 0 0 -0.03125,0.039369 0.68449299,0.74894341 56.947619 0 0 -0.0013,0.8488465 0.68449299,0.74894341 56.947619 0 0 0.157288,0.9434807 0.68449299,0.74894341 56.947619 0 0 0.349869,0.110521 0.68449299,0.74894341 56.947619 0 0 0.629157,-0.271327 0.68449299,0.74894341 56.947619 0 0 0.792747,-0.12404 v 6.822552 a 0.74894341,0.68449299 33.052381 0 0 -0.829296,-0.156061 0.74894341,0.68449299 33.052381 0 0 -0.629158,-0.27109 0.74894341,0.68449299 33.052381 0 0 -0.34987,0.110288 0.74894341,0.68449299 33.052381 0 0 -0.157287,0.94348 0.74894341,0.68449299 33.052381 0 0 -0.03024,0.803548 H 9.9110605 a 0.68449299,0.74894341 56.947619 0 0 0.047649,-0.05786 0.68449299,0.74894341 56.947619 0 0 0.001,-0.848845 0.68449299,0.74894341 56.947619 0 0 -0.1570361,-0.943479 0.68449299,0.74894341 56.947619 0 0 -0.35012,-0.110521 0.68449299,0.74894341 56.947619 0 0 -0.6289052,0.271328 0.68449299,0.74894341 56.947619 0 0 -0.7269595,0.07542 v -6.546714 a 0.74894341,0.68449299 33.052381 0 0 0.6538602,0.03201 0.74894341,0.68449299 33.052381 0 0 0.6289056,0.271327 0.74894341,0.68449299 33.052381 0 0 0.3498675,-0.110521 0.74894341,0.68449299 33.052381 0 0 0.1572893,-0.9434792 0.74894341,0.68449299 33.052381 0 0 -0.0013,-0.8488471 0.74894341,0.68449299 33.052381 0 0 -0.031265,-0.039369 z m 7.9143776,0 h 0.72595 v 0.4354515 a 0.68449299,0.74894341 56.947619 0 0 -0.0032,-0.00209 A 0.68449299,0.74894341 56.947619 0 0 17.87818,8.9917923 0.68449299,0.74894341 56.947619 0 0 17.768524,8.6331606 Z M 8.0966872,18.016937 A 0.68449299,0.74894341 56.947619 0 0 8.6472,18.055598 0.68449299,0.74894341 56.947619 0 0 8.7699566,18.432706 H 8.0966872 Z m 10.3977338,0.03889 v 0.376871 H 17.78032 a 0.74894341,0.68449299 33.052381 0 0 0.06099,-0.273936 0.74894341,0.68449299 33.052381 0 0 0.613278,-0.0747 0.74894341,0.68449299 33.052381 0 0 0.03983,-0.02823 z" /><path
         id="path15"
         style="fill:#dd9900;fill-opacity:1;stroke:#3e2100;stroke-width:0.181027;stroke-dasharray:none;stroke-opacity:1"
         d="m 6.6969389,13.124775 6.0867731,6.654724 6.599963,-5.69676 -6.086773,-6.6547246 z m 0.935321,0.05086 0.3184043,-0.27483 a 0.57258069,0.50505198 17.254125 0 0 0.1311676,0.259757 0.57258069,0.50505198 17.254125 0 0 -0.2551531,0.227633 z M 8.5854231,12.352914 12.243047,9.1958354 a 0.55949504,0.5168643 69.572601 0 0 0.004,0.037513 0.55949504,0.5168643 69.572601 0 0 0.450575,0.4939391 0.55949504,0.5168643 69.572601 0 0 0.586865,0.4747235 0.55949504,0.5168643 69.572601 0 0 0.248513,-0.09955 0.55949504,0.5168643 69.572601 0 0 0.196998,-0.4522358 0.55949504,0.5168643 69.572601 0 0 0.364021,-0.4432169 l 3.626898,3.9653207 a 0.57258069,0.50505198 17.254125 0 0 -0.532749,0.29753 0.57258069,0.50505198 17.254125 0 0 -0.485348,0.136979 0.57258069,0.50505198 17.254125 0 0 -0.13113,0.227888 0.57258069,0.50505198 17.254125 0 0 0.416249,0.621991 0.57258069,0.50505198 17.254125 0 0 0.410762,0.481189 l -3.57287,3.083924 a 0.55949504,0.5168643 69.572601 0 0 -0.0049,-0.05594 0.55949504,0.5168643 69.572601 0 0 -0.450665,-0.493861 0.55949504,0.5168643 69.572601 0 0 -0.586745,-0.474829 0.55949504,0.5168643 69.572601 0 0 -0.248648,0.09967 0.55949504,0.5168643 69.572601 0 0 -0.196861,0.452118 0.55949504,0.5168643 69.572601 0 0 -0.354186,0.384159 l -3.4802828,-3.805 A 0.57258069,0.50505198 17.254125 0 0 8.8751662,13.84065 0.57258069,0.50505198 17.254125 0 0 9.3605044,13.703927 0.57258069,0.50505198 17.254125 0 0 9.4915075,13.475901 0.57258069,0.50505198 17.254125 0 0 9.0752591,12.853909 0.57258069,0.50505198 17.254125 0 0 8.623333,12.361136 0.57258069,0.50505198 17.254125 0 0 8.585451,12.352836 Z m 4.2925199,-3.7050896 0.393733,-0.3398512 0.231488,0.2530879 a 0.55949504,0.5168643 69.572601 0 0 -0.0029,2.867e-4 0.55949504,0.5168643 69.572601 0 0 -0.372228,0.2435883 0.55949504,0.5168643 69.572601 0 0 -0.250107,-0.1570935 z m -0.257218,9.9817476 a 0.55949504,0.5168643 69.572601 0 0 0.31913,-0.235255 0.55949504,0.5168643 69.572601 0 0 0.267051,0.161711 l -0.365161,0.315188 z m 5.660093,-4.845058 0.200345,0.219039 -0.387308,0.334306 a 0.57258069,0.50505198 17.254125 0 0 -0.112538,-0.187774 0.57258069,0.50505198 17.254125 0 0 0.292907,-0.330525 0.57258069,0.50505198 17.254125 0 0 0.0066,-0.03505 z" /><path
         id="path16"
         style="fill:#ffb819;fill-opacity:1;stroke:#3e2100;stroke-width:0.133815;stroke-dasharray:none;stroke-opacity:1"
         d="m 9.7481564,10.379407 v 6.457034 h 6.6509686 v -6.457034 z m 0.5005176,0.465325 h 0.320865 a 0.41423667,0.38145435 43.235768 0 0 -0.05993,0.202234 0.41423667,0.38145435 43.235768 0 0 -0.260936,0.004 z m 0.96053,0 h 3.685889 a 0.38145435,0.41423667 46.764232 0 0 -0.01708,0.0222 0.38145435,0.41423667 46.764232 0 0 -7.1e-4,0.478699 0.38145435,0.41423667 46.764232 0 0 0.08597,0.532069 0.38145435,0.41423667 46.764232 0 0 0.191224,0.06232 0.38145435,0.41423667 46.764232 0 0 0.343873,-0.153012 0.38145435,0.41423667 46.764232 0 0 0.433284,-0.06995 v 3.847523 a 0.41423667,0.38145435 43.235768 0 0 -0.45326,-0.08801 0.41423667,0.38145435 43.235768 0 0 -0.343874,-0.15288 0.41423667,0.38145435 43.235768 0 0 -0.191225,0.0622 0.41423667,0.38145435 43.235768 0 0 -0.08597,0.532068 0.41423667,0.38145435 43.235768 0 0 -0.01653,0.453155 h -3.600458 a 0.38145435,0.41423667 46.764232 0 0 0.02604,-0.03263 0.38145435,0.41423667 46.764232 0 0 5.47e-4,-0.478699 0.38145435,0.41423667 46.764232 0 0 -0.08583,-0.532068 0.38145435,0.41423667 46.764232 0 0 -0.191363,-0.06232 0.38145435,0.41423667 46.764232 0 0 -0.343734,0.153013 0.38145435,0.41423667 46.764232 0 0 -0.397328,0.04253 v -3.691967 a 0.41423667,0.38145435 43.235768 0 0 0.357375,0.01805 0.41423667,0.38145435 43.235768 0 0 0.343734,0.153013 0.41423667,0.38145435 43.235768 0 0 0.191225,-0.06232 0.41423667,0.38145435 43.235768 0 0 0.08597,-0.532067 0.41423667,0.38145435 43.235768 0 0 -7.11e-4,-0.478701 0.41423667,0.38145435 43.235768 0 0 -0.01709,-0.0222 z m 4.325691,0 h 0.396775 v 0.245569 a 0.38145435,0.41423667 46.764232 0 0 -0.0017,-0.0011 0.38145435,0.41423667 46.764232 0 0 -0.335063,-0.04213 0.38145435,0.41423667 46.764232 0 0 -0.05994,-0.202247 z m -5.286221,5.291915 a 0.38145435,0.41423667 46.764232 0 0 0.300889,0.0218 0.38145435,0.41423667 46.764232 0 0 0.06709,0.212668 h -0.367979 z m 5.682996,0.02193 v 0.212533 h -0.3903 a 0.41423667,0.38145435 43.235768 0 0 0.03334,-0.154484 0.41423667,0.38145435 43.235768 0 0 0.335193,-0.04212 0.41423667,0.38145435 43.235768 0 0 0.02177,-0.01592 z" /></g><g
       id="g17"
       transform="rotate(-10.554551,237.844,168.32674)"><path
         id="path3"
         style="fill:#441fc7;fill-opacity:1;stroke:#3202da;stroke-width:0.544419;stroke-dasharray:none;stroke-opacity:1"
         d="m 99.282462,53.477778 c 0.173306,0.06243 0.30186,0.192829 0.436001,0.31475 0.917767,0.920929 -2.050062,3.591632 -2.722547,4.129667 l -0.182822,0.09788 c -0.380639,0.203385 -0.884063,0.06835 -1.128667,-0.302673 l -2.251026,-3.414293 c -0.244606,-0.37103 -0.134774,-0.833579 0.245866,-1.036963 l 0.182709,-0.09758 c 0.380639,-0.203384 0.884063,-0.06836 1.128668,0.302672 l 1.556606,2.429599 1.886948,-2.240609 c 0.216761,-0.23261 0.552979,-0.293959 0.848264,-0.182448 z"
         sodipodi:nodetypes="cccccccccccc" /><path
         id="rect1-8"
         style="fill:#5728ff;fill-opacity:1;stroke:#3202da;stroke-width:0.544419;stroke-dasharray:none;stroke-opacity:1"
         d="m 83.334996,53.255321 c -0.173306,0.06243 -0.30186,0.192829 -0.436001,0.31475 -0.917762,0.920929 2.050062,3.591632 2.722547,4.129667 l 0.182822,0.09788 c 0.380639,0.203385 0.884062,0.06835 1.128667,-0.302673 l 2.251027,-3.414293 c 0.244605,-0.37103 0.134773,-0.833578 -0.245867,-1.036963 l -0.182709,-0.09758 c -0.380639,-0.203384 -0.884063,-0.06836 -1.128668,0.302672 L 86.070208,55.678378 84.18326,53.437769 C 83.966499,53.20516 83.630281,53.14381 83.334996,53.255321 Z"
         sodipodi:nodetypes="cccccccccccc" /><path
         id="rect3"
         style="fill:#5728ff;fill-opacity:1;stroke:#3202da;stroke-width:0.742919;stroke-dasharray:none;stroke-opacity:1"
         d="m 88.894611,52.872172 c 1.26996,1.27427 3.210984,1.101467 4.884239,0.14989 0.675174,-0.38397 1.169278,0.304518 1.15939,0.809384 -0.04888,2.496508 0.515742,7.129067 -0.441998,7.724276 -0.752368,0.467577 -2.070324,-2.626616 -2.110706,-2.359722 -0.659553,4.359184 -1.98694,1.632742 -2.625186,-0.118499 -0.01492,-0.04095 -1.00609,3.128338 -1.650459,2.474953 -0.678008,-0.687495 -0.852029,-5.515995 -0.505876,-7.865564 0.07362,-0.499711 0.751002,-1.356151 1.290596,-0.814724 z"
         sodipodi:nodetypes="ssssssssss" /><ellipse
         style="fill:#5728ff;fill-opacity:1;stroke:#3202da;stroke-width:0.751504;stroke-dasharray:none;stroke-opacity:1"
         id="path1-7"
         cx="91.15448"
         cy="47.697128"
         rx="4.553545"
         ry="4.5460224" /><path
         id="path12-9"
         style="fill-opacity:0.220034;stroke-width:0.371642;stroke-linecap:round;stroke-linejoin:round"
         d="m 89.562668,48.988232 c 1.225149,1.88723 3.24578,2.619282 4.583306,1.635084 1.337528,-0.984196 1.769603,-3.408545 0.544454,-5.295776 -1.22515,-1.887229 -3.98456,-2.38745 -5.322088,-1.403252 -1.337527,0.984197 -1.030822,3.176714 0.194328,5.063944 z"
         sodipodi:nodetypes="sssss" /><path
         id="ellipse3"
         style="fill:#ffffff;stroke:#3202da;stroke-width:0.404466;stroke-opacity:1"
         d="m 90.94573,47.476119 c -0.166881,1.148617 -1.082993,1.809973 -1.947053,1.679398 -0.86406,-0.130575 -1.348866,-1.003635 -1.181985,-2.152252 0.166881,-1.148617 1.002624,-1.973903 1.866684,-1.843328 0.86406,0.130575 1.429235,1.167565 1.262354,2.316182 z"
         sodipodi:nodetypes="sssss" /><path
         id="ellipse1"
         style="fill:#ffffff;stroke:#3202da;stroke-width:0.404466;stroke-opacity:1"
         d="m 91.492017,47.456799 c 0.166881,1.148617 1.123177,1.782651 1.987237,1.652076 0.86406,-0.130574 1.308682,-0.976312 1.141801,-2.124929 -0.166881,-1.148617 -1.002624,-1.973903 -1.866684,-1.843329 -0.86406,0.130575 -1.429235,1.167565 -1.262354,2.316182 z"
         sodipodi:nodetypes="sssss" /><path
         id="path2"
         style="fill:#000000;fill-opacity:1;stroke:none;stroke-width:0.262482;stroke-opacity:1"
         d="m 93.101277,50.510587 c 0.03035,0.511086 -0.721376,0.922142 -1.553133,0.989794 -0.831763,0.06764 -1.428579,-0.233716 -1.45893,-0.744803 -0.03035,-0.511086 0.619313,-0.980247 1.451073,-1.047899 0.831759,-0.06765 1.530637,0.291822 1.56099,0.802908 z"
         sodipodi:nodetypes="sssss" /><ellipse
         style="fill:#3202da;fill-opacity:1;stroke:none;stroke-width:0.421725;stroke-opacity:1"
         id="path7"
         cx="88.72184"
         cy="47.191059"
         rx="0.82377911"
         ry="1.1680022" /><path
         id="path8-2"
         style="fill:#ffffff;stroke:none;stroke-width:0.0960032;stroke-opacity:1"
         d="m 89.827331,46.734664 c -0.04218,0.25599 -0.273768,0.403386 -0.492192,0.374285 -0.218425,-0.0291 -0.340979,-0.223679 -0.298793,-0.479669 0.04218,-0.255991 0.253452,-0.439922 0.471877,-0.410821 0.218424,0.0291 0.361294,0.260214 0.319108,0.516205 z"
         sodipodi:nodetypes="sssss" /><path
         id="path40"
         style="fill:#381aa5;fill-opacity:1;stroke:none;stroke-width:0.28227;stroke-linecap:round;stroke-linejoin:round"
         d="m 85.55811,55.6998 c 0,0.44308 -0.286843,0.802267 -0.640682,0.802267 -0.353839,0 -0.640682,-0.359187 -0.640682,-0.802267 0,-0.44308 0.277129,-0.604461 0.630968,-0.604461 0.353839,0 0.650397,0.161381 0.650396,0.604461 z"
         sodipodi:nodetypes="sssss" /><path
         id="path38"
         style="fill:#5728ff;stroke:#3202da;stroke-width:0.635308;stroke-linecap:round;stroke-linejoin:round"
         d="m 85.307648,54.380703 c 0,0.925656 -0.695531,1.676048 -1.553513,1.676048 -0.857981,0 -1.553513,-0.750392 -1.553513,-1.676048 0,-0.925656 0.671977,-1.262803 1.529959,-1.262803 0.857982,0 1.577067,0.337147 1.577067,1.262803 z"
         sodipodi:nodetypes="sssss" /><path
         id="path39"
         style="fill:#441fc7;fill-opacity:1;stroke:#3202da;stroke-width:0.592863;stroke-linecap:round;stroke-linejoin:round"
         d="m 100.36947,54.657535 c 0,0.939158 -0.596992,1.700494 -1.33342,1.700494 -0.736428,0 -1.333421,-0.761336 -1.333421,-1.700494 -10e-7,-0.939157 0.576775,-1.281221 1.313203,-1.281221 0.736428,0 1.353638,0.342064 1.353638,1.281221 z"
         sodipodi:nodetypes="sssss" /><path
         id="path41"
         style="fill:#5728ff;fill-opacity:1;stroke:none;stroke-width:0.325481;stroke-linecap:round;stroke-linejoin:round"
         d="m 99.329732,54.585317 c 0,0.589121 -0.286843,1.066698 -0.640682,1.066698 -0.353839,0 -0.640682,-0.477577 -0.640682,-1.066698 0,-0.589122 0.277129,-0.803695 0.630968,-0.803695 0.35384,0 0.650396,0.214573 0.650396,0.803695 z"
         sodipodi:nodetypes="sssss" /><ellipse
         style="fill:#3202da;fill-opacity:1;stroke:none;stroke-width:0.421725;stroke-opacity:1"
         id="ellipse16"
         cx="92.390503"
         cy="47.136707"
         rx="0.82377911"
         ry="1.1680022" /><path
         id="path17"
         style="fill:#ffffff;stroke:none;stroke-width:0.0960032;stroke-opacity:1"
         d="m 93.495996,46.680313 c -0.04218,0.25599 -0.273768,0.403386 -0.492192,0.374285 -0.218425,-0.0291 -0.340979,-0.223679 -0.298793,-0.479669 0.04218,-0.255991 0.253452,-0.439922 0.471877,-0.410821 0.218424,0.0291 0.361294,0.260214 0.319108,0.516205 z"
         sodipodi:nodetypes="sssss" /></g><g
       id="g30"
       transform="matrix(-0.98308096,-0.18317159,-0.18317159,0.98308096,184.15697,-9.8930288)"><path
         id="path18"
         style="fill:#441fc7;fill-opacity:1;stroke:#3202da;stroke-width:0.544419;stroke-dasharray:none;stroke-opacity:1"
         d="m 99.282462,53.477778 c 0.173306,0.06243 0.30186,0.192829 0.436001,0.31475 0.917767,0.920929 -2.050062,3.591632 -2.722547,4.129667 l -0.182822,0.09788 c -0.380639,0.203385 -0.884063,0.06835 -1.128667,-0.302673 l -2.251026,-3.414293 c -0.244606,-0.37103 -0.134774,-0.833579 0.245866,-1.036963 l 0.182709,-0.09758 c 0.380639,-0.203384 0.884063,-0.06836 1.128668,0.302672 l 1.556606,2.429599 1.886948,-2.240609 c 0.216761,-0.23261 0.552979,-0.293959 0.848264,-0.182448 z"
         sodipodi:nodetypes="cccccccccccc" /><path
         id="path19"
         style="fill:#5728ff;fill-opacity:1;stroke:#3202da;stroke-width:0.544419;stroke-dasharray:none;stroke-opacity:1"
         d="m 83.334996,53.255321 c -0.173306,0.06243 -0.30186,0.192829 -0.436001,0.31475 -0.917762,0.920929 2.050062,3.591632 2.722547,4.129667 l 0.182822,0.09788 c 0.380639,0.203385 0.884062,0.06835 1.128667,-0.302673 l 2.251027,-3.414293 c 0.244605,-0.37103 0.134773,-0.833578 -0.245867,-1.036963 l -0.182709,-0.09758 c -0.380639,-0.203384 -0.884063,-0.06836 -1.128668,0.302672 L 86.070208,55.678378 84.18326,53.437769 C 83.966499,53.20516 83.630281,53.14381 83.334996,53.255321 Z"
         sodipodi:nodetypes="cccccccccccc" /><path
         id="path20"
         style="fill:#5728ff;fill-opacity:1;stroke:#3202da;stroke-width:0.742919;stroke-dasharray:none;stroke-opacity:1"
         d="m 88.894611,52.872172 c 1.26996,1.27427 3.210984,1.101467 4.884239,0.14989 0.675174,-0.38397 1.169278,0.304518 1.15939,0.809384 -0.04888,2.496508 0.515742,7.129067 -0.441998,7.724276 -0.752368,0.467577 -2.070324,-2.626616 -2.110706,-2.359722 -0.659553,4.359184 -1.98694,1.632742 -2.625186,-0.118499 -0.01492,-0.04095 -1.00609,3.128338 -1.650459,2.474953 -0.678008,-0.687495 -0.852029,-5.515995 -0.505876,-7.865564 0.07362,-0.499711 0.751002,-1.356151 1.290596,-0.814724 z"
         sodipodi:nodetypes="ssssssssss" /><ellipse
         style="fill:#5728ff;fill-opacity:1;stroke:#3202da;stroke-width:0.751504;stroke-dasharray:none;stroke-opacity:1"
         id="ellipse20"
         cx="91.15448"
         cy="47.697128"
         rx="4.553545"
         ry="4.5460224" /><path
         id="path21"
         style="fill-opacity:0.220034;stroke-width:0.371642;stroke-linecap:round;stroke-linejoin:round"
         d="m 89.562668,48.988232 c 1.225149,1.88723 3.24578,2.619282 4.583306,1.635084 1.337528,-0.984196 1.769603,-3.408545 0.544454,-5.295776 -1.22515,-1.887229 -3.98456,-2.38745 -5.322088,-1.403252 -1.337527,0.984197 -1.030822,3.176714 0.194328,5.063944 z"
         sodipodi:nodetypes="sssss" /><path
         id="path22"
         style="fill:#ffffff;stroke:#3202da;stroke-width:0.404466;stroke-opacity:1"
         d="m 90.94573,47.476119 c -0.166881,1.148617 -1.082993,1.809973 -1.947053,1.679398 -0.86406,-0.130575 -1.348866,-1.003635 -1.181985,-2.152252 0.166881,-1.148617 1.002624,-1.973903 1.866684,-1.843328 0.86406,0.130575 1.429235,1.167565 1.262354,2.316182 z"
         sodipodi:nodetypes="sssss" /><path
         id="path23"
         style="fill:#ffffff;stroke:#3202da;stroke-width:0.404466;stroke-opacity:1"
         d="m 91.492017,47.456799 c 0.166881,1.148617 1.123177,1.782651 1.987237,1.652076 0.86406,-0.130574 1.308682,-0.976312 1.141801,-2.124929 -0.166881,-1.148617 -1.002624,-1.973903 -1.866684,-1.843329 -0.86406,0.130575 -1.429235,1.167565 -1.262354,2.316182 z"
         sodipodi:nodetypes="sssss" /><path
         id="path24"
         style="fill:#000000;fill-opacity:1;stroke:none;stroke-width:0.262482;stroke-opacity:1"
         d="m 93.101277,50.510587 c 0.03035,0.511086 -0.721376,0.922142 -1.553133,0.989794 -0.831763,0.06764 -1.428579,-0.233716 -1.45893,-0.744803 -0.03035,-0.511086 0.619313,-0.980247 1.451073,-1.047899 0.831759,-0.06765 1.530637,0.291822 1.56099,0.802908 z"
         sodipodi:nodetypes="sssss" /><ellipse
         style="fill:#3202da;fill-opacity:1;stroke:none;stroke-width:0.421725;stroke-opacity:1"
         id="ellipse24"
         cx="88.72184"
         cy="47.191059"
         rx="0.82377911"
         ry="1.1680022" /><path
         id="path25"
         style="fill:#ffffff;stroke:none;stroke-width:0.0960032;stroke-opacity:1"
         d="m 89.827331,46.734664 c -0.04218,0.25599 -0.273768,0.403386 -0.492192,0.374285 -0.218425,-0.0291 -0.340979,-0.223679 -0.298793,-0.479669 0.04218,-0.255991 0.253452,-0.439922 0.471877,-0.410821 0.218424,0.0291 0.361294,0.260214 0.319108,0.516205 z"
         sodipodi:nodetypes="sssss" /><path
         id="path26"
         style="fill:#381aa5;fill-opacity:1;stroke:none;stroke-width:0.28227;stroke-linecap:round;stroke-linejoin:round"
         d="m 85.55811,55.6998 c 0,0.44308 -0.286843,0.802267 -0.640682,0.802267 -0.353839,0 -0.640682,-0.359187 -0.640682,-0.802267 0,-0.44308 0.277129,-0.604461 0.630968,-0.604461 0.353839,0 0.650397,0.161381 0.650396,0.604461 z"
         sodipodi:nodetypes="sssss" /><path
         id="path27"
         style="fill:#5728ff;stroke:#3202da;stroke-width:0.635308;stroke-linecap:round;stroke-linejoin:round"
         d="m 85.307648,54.380703 c 0,0.925656 -0.695531,1.676048 -1.553513,1.676048 -0.857981,0 -1.553513,-0.750392 -1.553513,-1.676048 0,-0.925656 0.671977,-1.262803 1.529959,-1.262803 0.857982,0 1.577067,0.337147 1.577067,1.262803 z"
         sodipodi:nodetypes="sssss" /><path
         id="path28"
         style="fill:#441fc7;fill-opacity:1;stroke:#3202da;stroke-width:0.592863;stroke-linecap:round;stroke-linejoin:round"
         d="m 100.36947,54.657535 c 0,0.939158 -0.596992,1.700494 -1.33342,1.700494 -0.736428,0 -1.333421,-0.761336 -1.333421,-1.700494 -10e-7,-0.939157 0.576775,-1.281221 1.313203,-1.281221 0.736428,0 1.353638,0.342064 1.353638,1.281221 z"
         sodipodi:nodetypes="sssss" /><path
         id="path29"
         style="fill:#5728ff;fill-opacity:1;stroke:none;stroke-width:0.325481;stroke-linecap:round;stroke-linejoin:round"
         d="m 99.329732,54.585317 c 0,0.589121 -0.286843,1.066698 -0.640682,1.066698 -0.353839,0 -0.640682,-0.477577 -0.640682,-1.066698 0,-0.589122 0.277129,-0.803695 0.630968,-0.803695 0.35384,0 0.650396,0.214573 0.650396,0.803695 z"
         sodipodi:nodetypes="sssss" /><ellipse
         style="fill:#3202da;fill-opacity:1;stroke:none;stroke-width:0.421725;stroke-opacity:1"
         id="ellipse29"
         cx="92.390503"
         cy="47.136707"
         rx="0.82377911"
         ry="1.1680022" /><path
         id="path30"
         style="fill:#ffffff;stroke:none;stroke-width:0.0960032;stroke-opacity:1"
         d="m 93.495996,46.680313 c -0.04218,0.25599 -0.273768,0.403386 -0.492192,0.374285 -0.218425,-0.0291 -0.340979,-0.223679 -0.298793,-0.479669 0.04218,-0.255991 0.253452,-0.439922 0.471877,-0.410821 0.218424,0.0291 0.361294,0.260214 0.319108,0.516205 z"
         sodipodi:nodetypes="sssss" /></g><g
       id="g51"
       transform="rotate(-10.554551,-155.25419,460.08872)"
       style="filter:url(#filter52)"><path
         id="path31"
         style="fill:#441fc7;fill-opacity:1;stroke:#3202da;stroke-width:0.544419;stroke-dasharray:none;stroke-opacity:1"
         d="m 99.282462,53.477778 c 0.173306,0.06243 0.30186,0.192829 0.436001,0.31475 0.917767,0.920929 -2.050062,3.591632 -2.722547,4.129667 l -0.182822,0.09788 c -0.380639,0.203385 -0.884063,0.06835 -1.128667,-0.302673 l -2.251026,-3.414293 c -0.244606,-0.37103 -0.134774,-0.833579 0.245866,-1.036963 l 0.182709,-0.09758 c 0.380639,-0.203384 0.884063,-0.06836 1.128668,0.302672 l 1.556606,2.429599 1.886948,-2.240609 c 0.216761,-0.23261 0.552979,-0.293959 0.848264,-0.182448 z"
         sodipodi:nodetypes="cccccccccccc" /><path
         id="path32"
         style="fill:#5728ff;fill-opacity:1;stroke:#3202da;stroke-width:0.544419;stroke-dasharray:none;stroke-opacity:1"
         d="m 83.334996,53.255321 c -0.173306,0.06243 -0.30186,0.192829 -0.436001,0.31475 -0.917762,0.920929 2.050062,3.591632 2.722547,4.129667 l 0.182822,0.09788 c 0.380639,0.203385 0.884062,0.06835 1.128667,-0.302673 l 2.251027,-3.414293 c 0.244605,-0.37103 0.134773,-0.833578 -0.245867,-1.036963 l -0.182709,-0.09758 c -0.380639,-0.203384 -0.884063,-0.06836 -1.128668,0.302672 L 86.070208,55.678378 84.18326,53.437769 C 83.966499,53.20516 83.630281,53.14381 83.334996,53.255321 Z"
         sodipodi:nodetypes="cccccccccccc" /><path
         id="path33"
         style="fill:#5728ff;fill-opacity:1;stroke:#3202da;stroke-width:0.742919;stroke-dasharray:none;stroke-opacity:1"
         d="m 88.894611,52.872172 c 1.26996,1.27427 3.210984,1.101467 4.884239,0.14989 0.675174,-0.38397 1.169278,0.304518 1.15939,0.809384 -0.04888,2.496508 0.515742,7.129067 -0.441998,7.724276 -0.752368,0.467577 -2.070324,-2.626616 -2.110706,-2.359722 -0.659553,4.359184 -1.98694,1.632742 -2.625186,-0.118499 -0.01492,-0.04095 -1.00609,3.128338 -1.650459,2.474953 -0.678008,-0.687495 -0.852029,-5.515995 -0.505876,-7.865564 0.07362,-0.499711 0.751002,-1.356151 1.290596,-0.814724 z"
         sodipodi:nodetypes="ssssssssss" /><ellipse
         style="fill:#5728ff;fill-opacity:1;stroke:#3202da;stroke-width:0.751504;stroke-dasharray:none;stroke-opacity:1"
         id="ellipse33"
         cx="91.15448"
         cy="47.697128"
         rx="4.553545"
         ry="4.5460224" /><path
         id="path42"
         style="fill-opacity:0.220034;stroke-width:0.371642;stroke-linecap:round;stroke-linejoin:round"
         d="m 89.562668,48.988232 c 1.225149,1.88723 3.24578,2.619282 4.583306,1.635084 1.337528,-0.984196 1.769603,-3.408545 0.544454,-5.295776 -1.22515,-1.887229 -3.98456,-2.38745 -5.322088,-1.403252 -1.337527,0.984197 -1.030822,3.176714 0.194328,5.063944 z"
         sodipodi:nodetypes="sssss" /><path
         id="path43"
         style="fill:#ffffff;stroke:#3202da;stroke-width:0.404466;stroke-opacity:1"
         d="m 90.94573,47.476119 c -0.166881,1.148617 -1.082993,1.809973 -1.947053,1.679398 -0.86406,-0.130575 -1.348866,-1.003635 -1.181985,-2.152252 0.166881,-1.148617 1.002624,-1.973903 1.866684,-1.843328 0.86406,0.130575 1.429235,1.167565 1.262354,2.316182 z"
         sodipodi:nodetypes="sssss" /><path
         id="path44"
         style="fill:#ffffff;stroke:#3202da;stroke-width:0.404466;stroke-opacity:1"
         d="m 91.492017,47.456799 c 0.166881,1.148617 1.123177,1.782651 1.987237,1.652076 0.86406,-0.130574 1.308682,-0.976312 1.141801,-2.124929 -0.166881,-1.148617 -1.002624,-1.973903 -1.866684,-1.843329 -0.86406,0.130575 -1.429235,1.167565 -1.262354,2.316182 z"
         sodipodi:nodetypes="sssss" /><path
         id="path45"
         style="fill:#000000;fill-opacity:1;stroke:none;stroke-width:0.262482;stroke-opacity:1"
         d="m 93.101277,50.510587 c 0.03035,0.511086 -0.721376,0.922142 -1.553133,0.989794 -0.831763,0.06764 -1.428579,-0.233716 -1.45893,-0.744803 -0.03035,-0.511086 0.619313,-0.980247 1.451073,-1.047899 0.831759,-0.06765 1.530637,0.291822 1.56099,0.802908 z"
         sodipodi:nodetypes="sssss" /><ellipse
         style="fill:#3202da;fill-opacity:1;stroke:none;stroke-width:0.421725;stroke-opacity:1"
         id="ellipse45"
         cx="88.72184"
         cy="47.191059"
         rx="0.82377911"
         ry="1.1680022" /><path
         id="path46"
         style="fill:#ffffff;stroke:none;stroke-width:0.0960032;stroke-opacity:1"
         d="m 89.827331,46.734664 c -0.04218,0.25599 -0.273768,0.403386 -0.492192,0.374285 -0.218425,-0.0291 -0.340979,-0.223679 -0.298793,-0.479669 0.04218,-0.255991 0.253452,-0.439922 0.471877,-0.410821 0.218424,0.0291 0.361294,0.260214 0.319108,0.516205 z"
         sodipodi:nodetypes="sssss" /><path
         id="path47"
         style="fill:#381aa5;fill-opacity:1;stroke:none;stroke-width:0.28227;stroke-linecap:round;stroke-linejoin:round"
         d="m 85.55811,55.6998 c 0,0.44308 -0.286843,0.802267 -0.640682,0.802267 -0.353839,0 -0.640682,-0.359187 -0.640682,-0.802267 0,-0.44308 0.277129,-0.604461 0.630968,-0.604461 0.353839,0 0.650397,0.161381 0.650396,0.604461 z"
         sodipodi:nodetypes="sssss" /><path
         id="path48"
         style="fill:#5728ff;stroke:#3202da;stroke-width:0.635308;stroke-linecap:round;stroke-linejoin:round"
         d="m 85.307648,54.380703 c 0,0.925656 -0.695531,1.676048 -1.553513,1.676048 -0.857981,0 -1.553513,-0.750392 -1.553513,-1.676048 0,-0.925656 0.671977,-1.262803 1.529959,-1.262803 0.857982,0 1.577067,0.337147 1.577067,1.262803 z"
         sodipodi:nodetypes="sssss" /><path
         id="path49"
         style="fill:#441fc7;fill-opacity:1;stroke:#3202da;stroke-width:0.592863;stroke-linecap:round;stroke-linejoin:round"
         d="m 100.36947,54.657535 c 0,0.939158 -0.596992,1.700494 -1.33342,1.700494 -0.736428,0 -1.333421,-0.761336 -1.333421,-1.700494 -10e-7,-0.939157 0.576775,-1.281221 1.313203,-1.281221 0.736428,0 1.353638,0.342064 1.353638,1.281221 z"
         sodipodi:nodetypes="sssss" /><path
         id="path50"
         style="fill:#5728ff;fill-opacity:1;stroke:none;stroke-width:0.325481;stroke-linecap:round;stroke-linejoin:round"
         d="m 99.329732,54.585317 c 0,0.589121 -0.286843,1.066698 -0.640682,1.066698 -0.353839,0 -0.640682,-0.477577 -0.640682,-1.066698 0,-0.589122 0.277129,-0.803695 0.630968,-0.803695 0.35384,0 0.650396,0.214573 0.650396,0.803695 z"
         sodipodi:nodetypes="sssss" /><ellipse
         style="fill:#3202da;fill-opacity:1;stroke:none;stroke-width:0.421725;stroke-opacity:1"
         id="ellipse50"
         cx="92.390503"
         cy="47.136707"
         rx="0.82377911"
         ry="1.1680022" /><path
         id="path51"
         style="fill:#ffffff;stroke:none;stroke-width:0.0960032;stroke-opacity:1"
         d="m 93.495996,46.680313 c -0.04218,0.25599 -0.273768,0.403386 -0.492192,0.374285 -0.218425,-0.0291 -0.340979,-0.223679 -0.298793,-0.479669 0.04218,-0.255991 0.253452,-0.439922 0.471877,-0.410821 0.218424,0.0291 0.361294,0.260214 0.319108,0.516205 z"
         sodipodi:nodetypes="sssss" /></g><rect
       style="fill:#512da3;fill-opacity:0.795666;stroke:none;stroke-width:0.344748"
       id="rect374"
       width="111.60637"
       height="110.93615"
       x="-3.4052773"
       y="-3.0705159"
       ry="1.1641705" /></g></svg>
