<?xml version="1.0" encoding="UTF-8" standalone="no"?>
<!-- Created with Inkscape (http://www.inkscape.org/) -->

<svg
   width="100mm"
   height="100mm"
   viewBox="0 0 100 100"
   version="1.1"
   id="svg3527"
   inkscape:version="1.4.2 (ebf0e940d0, 2025-05-08)"
   sodipodi:docname="ore_1.svg"
   xmlns:inkscape="http://www.inkscape.org/namespaces/inkscape"
   xmlns:sodipodi="http://sodipodi.sourceforge.net/DTD/sodipodi-0.dtd"
   xmlns="http://www.w3.org/2000/svg"
   xmlns:svg="http://www.w3.org/2000/svg">
  <sodipodi:namedview
     id="namedview3529"
     pagecolor="#505050"
     bordercolor="#ffffff"
     borderopacity="1"
     inkscape:pageshadow="0"
     inkscape:pageopacity="0"
     inkscape:pagecheckerboard="1"
     inkscape:document-units="mm"
     showgrid="false"
     width="100mm"
     inkscape:zoom="0.60851063"
     inkscape:cx="94.493009"
     inkscape:cy="132.29021"
     inkscape:window-width="1366"
     inkscape:window-height="697"
     inkscape:window-x="0"
     inkscape:window-y="0"
     inkscape:window-maximized="1"
     inkscape:current-layer="layer1"
     inkscape:snap-global="false"
     inkscape:showpageshadow="0"
     inkscape:deskcolor="#505050" />
  <defs
     id="defs3524" />
  <g
     inkscape:label="Camada 1"
     inkscape:groupmode="layer"
     id="layer1">
    <rect
       style="fill:#2e842e;fill-opacity:1;stroke:none;stroke-width:0.331217"
       id="rect3553-3"
       width="108.28619"
       height="105.53841"
       x="-6.3581982"
       y="-3.4373965"
       ry="1.1075262" />
    <path
       id="rect3"
       style="fill:#1a4820;fill-opacity:1;stroke-width:2.7681"
       d="M 10.326064,83.537272 H 86.267058 L 94.963154,96.510815 17.935148,96.90697 Z"
       sodipodi:nodetypes="ccccc" />
    <g
       id="g3"
       transform="matrix(1.0124574,0,0,1.0123094,-108.31962,-0.29854511)">
      <path
         id="rect42278"
         style="fill:#381b11;fill-opacity:1;stroke:#0c0807;stroke-width:2.9;stroke-miterlimit:4;stroke-dasharray:none;stroke-opacity:1"
         d="m 118.29417,45.747688 h 73.29587 c 0.14272,0 10.07118,-0.04611 9.95993,0.363377 l -9.70232,35.712208 c -0.11125,0.409483 -0.11489,0.775779 -0.25761,0.775779 h -73.29587 c -0.14272,0 -0.1721,-0.357871 -0.25761,-0.775779 l -7.33793,-35.863407 c -0.0855,-0.417909 7.45282,-0.212178 7.59554,-0.212178 z"
         sodipodi:nodetypes="sssssssss" />
      <path
         id="path6473"
         style="fill:#483e37;stroke:#130d0c;stroke-width:1.74273;stroke-miterlimit:4;stroke-dasharray:none;stroke-opacity:1"
         d="m 122.72585,47.838307 h 65.03893 c 0.12664,0 8.93663,-0.03946 8.83792,0.310929 l -8.60933,30.55775 c -0.0987,0.350381 -0.10195,0.663808 -0.22859,0.663808 h -65.03893 c -0.12663,0 -0.15271,-0.306217 -0.22858,-0.663808 l -6.5113,-30.687126 c -0.0759,-0.35759 6.61325,-0.181553 6.73988,-0.181553 z"
         sodipodi:nodetypes="sssssssss" />
      <path
         id="path6475"
         style="fill:#381b11;fill-opacity:1;stroke:#130d0c;stroke-width:1.5767;stroke-miterlimit:4;stroke-dasharray:none;stroke-opacity:1"
         d="m 126.35737,46.079627 h 58.39703 c 0.11371,0 8.02401,-0.03597 7.93538,0.283455 l -7.73013,27.85763 c -0.0886,0.319421 -0.0915,0.605154 -0.20525,0.605154 h -58.39703 c -0.11371,0 -0.13712,-0.27916 -0.20524,-0.605154 l -5.84636,-27.975574 c -0.0681,-0.325993 5.93789,-0.165511 6.0516,-0.165511 z"
         sodipodi:nodetypes="sssssssss" />
      <path
         id="rect1"
         style="fill:#1b0b09;stroke-width:2.79633"
         d="m 121.79,49.893194 69.27912,-0.03843 -2.00474,6.87927 -65.57807,0.307453 z"
         sodipodi:nodetypes="ccccc" />
      <path
         id="path6414"
         style="fill:#502d16;stroke:#0c0807;stroke-width:3;stroke-miterlimit:4;stroke-dasharray:none;stroke-opacity:1"
         d="m 195.66045,50.943445 -77.2482,0.06272 c -0.15041,1.15e-4 -10.6142,0.05905 -10.49729,-0.388949 l 10.19605,-39.070477 c 0.11691,-0.447988 0.12045,-0.848648 0.27086,-0.848771 l 77.2482,-0.06272 c 0.15041,-1.22e-4 0.18167,0.391293 0.27214,0.848331 l 7.76318,39.221283 c 0.0905,0.457039 -7.85453,0.238458 -8.00494,0.238581 z"
         sodipodi:nodetypes="sssssssss" />
      <path
         id="path9173"
         style="fill:#483e37;stroke:#281a18;stroke-width:1.74273;stroke-miterlimit:4;stroke-dasharray:none;stroke-opacity:1"
         d="m 188.99123,46.259929 -65.03808,0.332241 c -0.12663,6.43e-4 -8.93632,0.08511 -8.83939,-0.265778 l 8.45312,-30.60133 c 0.0969,-0.350881 0.0986,-0.664321 0.22519,-0.664967 l 65.03808,-0.332241 c 0.12663,-6.43e-4 0.15427,0.305432 0.23197,0.662631 l 6.66798,30.653464 c 0.0777,0.357198 -6.61224,0.215333 -6.73887,0.21598 z"
         sodipodi:nodetypes="sssssssss" />
      <path
         id="path9175"
         style="fill:#502d16;stroke:#0c0807;stroke-width:1.93486;stroke-miterlimit:4;stroke-dasharray:none;stroke-opacity:1"
         d="m 182.81992,46.123788 -51.82182,0.04147 c -0.1009,7.5e-5 -7.12052,0.03903 -7.04209,-0.257126 l 6.84001,-25.828514 c 0.0784,-0.296153 0.0808,-0.56102 0.1817,-0.561103 l 51.82182,-0.04147 c 0.10089,-8e-5 0.12187,0.258675 0.18256,0.560811 l 5.20791,25.928209 c 0.0607,0.302136 -5.2692,0.157638 -5.37009,0.157721 z"
         sodipodi:nodetypes="sssssssss" />
      <path
         id="path2"
         style="fill:#2f190d;fill-opacity:1;stroke-width:1.91644"
         d="m 124.24962,45.338734 64.05241,0.01952 -1.85349,-3.494816 -60.63059,-0.156193 z"
         sodipodi:nodetypes="ccccc" />
      <path
         id="path1"
         style="fill:#1b0b09;stroke-width:1.64319"
         d="m 141.59788,55.436567 31.53957,-1.130665 -0.73069,5.243155 -29.84748,1.275611 z"
         sodipodi:nodetypes="ccccc" />
      <path
         id="rect42567"
         style="fill:#381b11;fill-opacity:1;stroke:#0c0807;stroke-width:2;stroke-miterlimit:4;stroke-dasharray:none"
         d="m 145.37348,45.294603 h 24.47518 c 0.16664,0 0.57602,0.389613 0.3008,0.707827 l -4.83092,5.585563 c -0.27522,0.318214 4.69676,6.454659 4.53012,6.454659 h -24.47518 c -0.16664,0 3.896,-5.787933 3.65789,-6.142661 l -3.95869,-5.897561 c -0.23811,-0.354729 0.13416,-0.707827 0.3008,-0.707827 z"
         sodipodi:nodetypes="sssssssss" />
      <ellipse
         style="fill:#0c0807;fill-opacity:1;stroke:none;stroke-width:3.4809;stroke-opacity:1"
         id="path5174"
         cx="157.3443"
         cy="49.310001"
         rx="3.2258117"
         ry="3.1429646" />
      <path
         sodipodi:type="star"
         style="fill:#0c0807;fill-opacity:1;stroke:none;stroke-width:11.2592;stroke-opacity:1"
         id="path6252"
         inkscape:flatsided="true"
         sodipodi:sides="3"
         sodipodi:cx="177.62337"
         sodipodi:cy="200.85498"
         sodipodi:r1="17.519781"
         sodipodi:r2="8.7598906"
         sodipodi:arg1="0.53294908"
         sodipodi:arg2="1.5801466"
         inkscape:rounded="0"
         inkscape:randomized="0"
         d="m 192.71337,209.75635 -30.34382,-0.28373 15.41763,-26.13665 z"
         transform="matrix(0.26458333,0,0,0.26458333,110.27288,2.1077949)"
         inkscape:transform-center-x="0.021671674"
         inkscape:transform-center-y="-1.1400429" />
      <ellipse
         style="fill:#483e37;fill-opacity:1;stroke:#0c0807;stroke-width:1.6127;stroke-miterlimit:4;stroke-dasharray:none;stroke-opacity:1"
         id="path8904"
         cx="186.1834"
         cy="75.81636"
         rx="0.70671153"
         ry="0.81580108" />
      <ellipse
         style="fill:#483e37;fill-opacity:1;stroke:#0c0807;stroke-width:1.6127;stroke-miterlimit:4;stroke-dasharray:none;stroke-opacity:1"
         id="ellipse9005"
         cx="125.74545"
         cy="75.813354"
         rx="0.70671153"
         ry="0.81580108" />
      <ellipse
         style="fill:#483e37;fill-opacity:1;stroke:#0c0807;stroke-width:1.6127;stroke-miterlimit:4;stroke-dasharray:none;stroke-opacity:1"
         id="ellipse9007"
         cx="120.46925"
         cy="55.007568"
         rx="0.70671153"
         ry="0.81580108" />
      <ellipse
         style="fill:#483e37;fill-opacity:1;stroke:#0c0807;stroke-width:1.6127;stroke-miterlimit:4;stroke-dasharray:none;stroke-opacity:1"
         id="ellipse9009"
         cx="191.49609"
         cy="54.731022"
         rx="0.70671153"
         ry="0.81580108" />
      <g
         id="g9404"
         transform="matrix(-1,0,0,1,142.79709,-5.6499329)">
        <ellipse
           style="fill:#483e37;fill-opacity:1;stroke:#281a18;stroke-width:1.6127;stroke-miterlimit:4;stroke-dasharray:none;stroke-opacity:1"
           id="ellipse9398"
           cx="22.194138"
           cy="47.031895"
           rx="0.70671153"
           ry="0.81580108" />
        <ellipse
           style="fill:#483e37;fill-opacity:1;stroke:#281a18;stroke-width:1.6127;stroke-miterlimit:4;stroke-dasharray:none;stroke-opacity:1"
           id="ellipse9400"
           cx="16.917931"
           cy="26.226107"
           rx="0.70671153"
           ry="0.81580108" />
      </g>
      <g
         id="g9410"
         transform="translate(168.44962,-7.124392)">
        <ellipse
           style="fill:#483e37;fill-opacity:1;stroke:#281a18;stroke-width:1.6127;stroke-miterlimit:4;stroke-dasharray:none;stroke-opacity:1"
           id="ellipse9406"
           cx="22.194138"
           cy="47.031895"
           rx="0.70671153"
           ry="0.81580108" />
        <ellipse
           style="fill:#483e37;fill-opacity:1;stroke:#281a18;stroke-width:1.6127;stroke-miterlimit:4;stroke-dasharray:none;stroke-opacity:1"
           id="ellipse9408"
           cx="16.917931"
           cy="26.226107"
           rx="0.70671153"
           ry="0.81580108" />
      </g>
      <rect
         style="fill:#060000;fill-opacity:1;stroke:#150d0c;stroke-width:0.9;stroke-miterlimit:4;stroke-dasharray:none;stroke-opacity:1"
         id="rect9947"
         width="19.071381"
         height="0.52177382"
         x="134.72409"
         y="64.586357"
         rx="0.25083929"
         ry="0.52177382" />
      <rect
         style="fill:#060000;fill-opacity:1;stroke:#150d0c;stroke-width:0.9;stroke-miterlimit:4;stroke-dasharray:none;stroke-opacity:1"
         id="rect15221"
         width="19.071381"
         height="0.52177382"
         x="140.85605"
         y="67.903816"
         rx="0.25083929"
         ry="0.52177382" />
      <rect
         style="fill:#060000;fill-opacity:1;stroke:#150d0c;stroke-width:0.9;stroke-miterlimit:4;stroke-dasharray:none;stroke-opacity:1"
         id="rect15223"
         width="19.071381"
         height="0.52177382"
         x="136.19637"
         y="70.344246"
         rx="0.25083929"
         ry="0.52177382" />
      <rect
         style="fill:#060000;fill-opacity:1;stroke:#150d0c;stroke-width:0.9;stroke-miterlimit:4;stroke-dasharray:none;stroke-opacity:1"
         id="rect15225"
         width="19.071381"
         height="0.52177382"
         x="164.9129"
         y="60.818775"
         rx="0.25083929"
         ry="0.52177382" />
      <rect
         style="fill:#060000;fill-opacity:1;stroke:#150d0c;stroke-width:0.9;stroke-miterlimit:4;stroke-dasharray:none;stroke-opacity:1"
         id="rect15227"
         width="19.071381"
         height="0.52177382"
         x="161.69206"
         y="63.582623"
         rx="0.25083929"
         ry="0.52177382" />
      <rect
         style="fill:#060000;fill-opacity:1;stroke:#150d0c;stroke-width:0.730044;stroke-miterlimit:4;stroke-dasharray:none;stroke-opacity:1"
         id="rect15229"
         width="12.046432"
         height="0.54352468"
         x="168.49498"
         y="68.45594"
         rx="0.15844256"
         ry="0.54352468" />
      <rect
         style="fill:#281a18;fill-opacity:1;stroke:#150d0c;stroke-width:0.9;stroke-miterlimit:4;stroke-dasharray:none;stroke-opacity:1"
         id="rect15243"
         width="19.071381"
         height="0.52177382"
         x="130.46118"
         y="31.513828"
         rx="0.25083929"
         ry="0.52177382" />
      <rect
         style="fill:#281a18;fill-opacity:1;stroke:#150d0c;stroke-width:0.9;stroke-miterlimit:4;stroke-dasharray:none;stroke-opacity:1"
         id="rect15245"
         width="19.071381"
         height="0.52177382"
         x="126.45154"
         y="36.706013"
         rx="0.25083929"
         ry="0.52177382" />
      <path
         id="path3"
         style="fill:#2f190d;fill-opacity:1;stroke-width:1.42563"
         d="m 141.2453,44.107277 32.69216,0.02116 -0.94602,-3.789116 -30.94567,-0.169346 z"
         sodipodi:nodetypes="ccccc" />
      <rect
         style="fill:#281a18;fill-opacity:1;stroke:#150d0c;stroke-width:0.9;stroke-miterlimit:4;stroke-dasharray:none;stroke-opacity:1"
         id="rect15247"
         width="19.071381"
         height="0.52177382"
         x="131.57089"
         y="39.782299"
         rx="0.25083929"
         ry="0.52177382" />
      <rect
         style="fill:#281a18;fill-opacity:1;stroke:#150d0c;stroke-width:0.9;stroke-miterlimit:4;stroke-dasharray:none;stroke-opacity:1"
         id="rect15249"
         width="19.071381"
         height="0.52177382"
         x="158.55583"
         y="29.175007"
         rx="0.25083929"
         ry="0.52177382" />
      <rect
         style="fill:#281a18;fill-opacity:1;stroke:#150d0c;stroke-width:0.9;stroke-miterlimit:4;stroke-dasharray:none;stroke-opacity:1"
         id="rect15251"
         width="19.071381"
         height="0.52177382"
         x="161.89587"
         y="32.559864"
         rx="0.25083929"
         ry="0.52177382" />
      <rect
         style="fill:#281a18;fill-opacity:1;stroke:#150d0c;stroke-width:0.730044;stroke-miterlimit:4;stroke-dasharray:none;stroke-opacity:1"
         id="rect15253"
         width="12.046432"
         height="0.54352468"
         x="162.13791"
         y="36.812164"
         rx="0.15844256"
         ry="0.54352468" />
    </g>
    <g
       id="g7938"
       transform="matrix(0.478182,0,0,0.47557397,53.885199,67.070539)">
      <path
         id="path7924"
         style="fill:#225e22;fill-opacity:1;stroke-width:2.11989"
         d="m 44.676477,45.046567 c -0.456845,3.62319 -11.30265,-6.792628 -15.966986,-6.770873 -5.500456,0.02566 -13.980657,0.08134 -16.438645,-3.457792 -2.034278,-2.929057 13.986433,0.619104 19.439232,1.306644 5.452799,0.687539 13.423245,5.298834 12.966399,8.922021 z"
         sodipodi:nodetypes="sssss" />
      <path
         id="path7926"
         style="fill:#225e22;stroke-width:2.53931"
         d="m 35.828801,39.263078 c 0,4.54262 -6.734827,4.824874 -12.069651,5.577551 C 17.468016,45.728232 3.880352,40.311236 0.55668554,36.325935 -2.1940463,33.027621 17.419642,28.390359 23.75915,28.390359 c 6.339508,0 12.069651,6.330105 12.069651,10.872719 z"
         sodipodi:nodetypes="sssss" />
      <path
         id="path7928"
         style="fill:#174017;fill-opacity:1;stroke-width:1.46868"
         d="m 35.063526,38.932089 c 0,1.752843 -12.06361,-2.556067 -16.688582,-2.265635 C 12.920907,37.00895 4.5142897,37.544665 1.6328699,36.006873 -0.75184987,34.734166 15.586879,35.461877 21.082853,35.461877 c 5.495973,0 13.980673,1.717371 13.980673,3.470212 z"
         sodipodi:nodetypes="sssss" />
      <rect
         style="fill:#174017;fill-opacity:1;stroke-width:2.979"
         id="rect7930"
         width="1.5164093"
         height="8.1990547"
         x="11.352146"
         y="32.581093"
         rx="0.25083929"
         ry="1.2203165" />
      <rect
         style="fill:#174017;fill-opacity:1;stroke-width:2.979"
         id="rect7932"
         width="2.0263655"
         height="11.971917"
         x="18.841402"
         y="30.474119"
         rx="0.25083929"
         ry="1.2203165" />
      <rect
         style="fill:#174017;fill-opacity:1;stroke-width:2.979"
         id="rect7934"
         width="2.0127888"
         height="8.4114799"
         x="27.443251"
         y="32.629051"
         rx="0.25083929"
         ry="1.2203165" />
      <rect
         style="fill:#174017;fill-opacity:1;stroke-width:2.979"
         id="rect7936"
         width="1.0963677"
         height="4.4322958"
         x="4.2030797"
         y="33.825947"
         rx="0.25083929"
         ry="1.2203165" />
    </g>
    <g
       id="g7954"
       transform="matrix(-0.3326402,0,0,0.3440962,88.580439,69.023026)">
      <path
         id="path7940"
         style="fill:#225e22;fill-opacity:1;stroke-width:2.11989"
         d="m 44.676477,45.046567 c -0.456845,3.62319 -11.30265,-6.792628 -15.966986,-6.770873 -5.500456,0.02566 -13.980657,0.08134 -16.438645,-3.457792 -2.034278,-2.929057 13.986433,0.619104 19.439232,1.306644 5.452799,0.687539 13.423245,5.298834 12.966399,8.922021 z"
         sodipodi:nodetypes="sssss" />
      <path
         id="path7942"
         style="fill:#225e22;stroke-width:2.53931"
         d="m 35.828801,39.263078 c 0,4.54262 -6.734827,4.824874 -12.069651,5.577551 C 17.468016,45.728232 3.880352,40.311236 0.55668554,36.325935 -2.1940463,33.027621 17.419642,28.390359 23.75915,28.390359 c 6.339508,0 12.069651,6.330105 12.069651,10.872719 z"
         sodipodi:nodetypes="sssss" />
      <path
         id="path7944"
         style="fill:#174017;fill-opacity:1;stroke-width:1.46868"
         d="m 35.063526,38.932089 c 0,1.752843 -12.06361,-2.556067 -16.688582,-2.265635 C 12.920907,37.00895 4.5142897,37.544665 1.6328699,36.006873 -0.75184987,34.734166 15.586879,35.461877 21.082853,35.461877 c 5.495973,0 13.980673,1.717371 13.980673,3.470212 z"
         sodipodi:nodetypes="sssss" />
      <rect
         style="fill:#174017;fill-opacity:1;stroke-width:2.979"
         id="rect7946"
         width="1.5164093"
         height="8.1990547"
         x="11.352146"
         y="32.581093"
         rx="0.25083929"
         ry="1.2203165" />
      <rect
         style="fill:#174017;fill-opacity:1;stroke-width:2.979"
         id="rect7948"
         width="2.0263655"
         height="11.971917"
         x="18.841402"
         y="30.474119"
         rx="0.25083929"
         ry="1.2203165" />
      <rect
         style="fill:#174017;fill-opacity:1;stroke-width:2.979"
         id="rect7950"
         width="2.0127888"
         height="8.4114799"
         x="27.443251"
         y="32.629051"
         rx="0.25083929"
         ry="1.2203165" />
      <rect
         style="fill:#174017;fill-opacity:1;stroke-width:2.979"
         id="rect7952"
         width="1.0963677"
         height="4.4322958"
         x="4.2030797"
         y="33.825947"
         rx="0.25083929"
         ry="1.2203165" />
    </g>
    <g
       id="g7970"
       transform="matrix(0.3326402,0,0,0.3440962,84.727659,75.098421)">
      <path
         id="path7956"
         style="fill:#225e22;fill-opacity:1;stroke-width:2.11989"
         d="m 44.676477,45.046567 c -0.456845,3.62319 -11.30265,-6.792628 -15.966986,-6.770873 -5.500456,0.02566 -13.980657,0.08134 -16.438645,-3.457792 -2.034278,-2.929057 13.986433,0.619104 19.439232,1.306644 5.452799,0.687539 13.423245,5.298834 12.966399,8.922021 z"
         sodipodi:nodetypes="sssss" />
      <path
         id="path7958"
         style="fill:#225e22;stroke-width:2.53931"
         d="m 35.828801,39.263078 c 0,4.54262 -6.734827,4.824874 -12.069651,5.577551 C 17.468016,45.728232 3.880352,40.311236 0.55668554,36.325935 -2.1940463,33.027621 17.419642,28.390359 23.75915,28.390359 c 6.339508,0 12.069651,6.330105 12.069651,10.872719 z"
         sodipodi:nodetypes="sssss" />
      <path
         id="path7960"
         style="fill:#174017;fill-opacity:1;stroke-width:1.46868"
         d="m 35.063526,38.932089 c 0,1.752843 -12.06361,-2.556067 -16.688582,-2.265635 C 12.920907,37.00895 4.5142897,37.544665 1.6328699,36.006873 -0.75184987,34.734166 15.586879,35.461877 21.082853,35.461877 c 5.495973,0 13.980673,1.717371 13.980673,3.470212 z"
         sodipodi:nodetypes="sssss" />
      <rect
         style="fill:#174017;fill-opacity:1;stroke-width:2.979"
         id="rect7962"
         width="1.5164093"
         height="8.1990547"
         x="11.352146"
         y="32.581093"
         rx="0.25083929"
         ry="1.2203165" />
      <rect
         style="fill:#174017;fill-opacity:1;stroke-width:2.979"
         id="rect7964"
         width="2.0263655"
         height="11.971917"
         x="18.841402"
         y="30.474119"
         rx="0.25083929"
         ry="1.2203165" />
      <rect
         style="fill:#174017;fill-opacity:1;stroke-width:2.979"
         id="rect7966"
         width="2.0127888"
         height="8.4114799"
         x="27.443251"
         y="32.629051"
         rx="0.25083929"
         ry="1.2203165" />
      <rect
         style="fill:#174017;fill-opacity:1;stroke-width:2.979"
         id="rect7968"
         width="1.0963677"
         height="4.4322958"
         x="4.2030797"
         y="33.825947"
         rx="0.25083929"
         ry="1.2203165" />
    </g>
    <g
       id="g7986"
       transform="matrix(-0.3326402,0,0,0.3440962,93.846169,80.629449)">
      <path
         id="path7972"
         style="fill:#225e22;fill-opacity:1;stroke-width:2.11989"
         d="m 44.676477,45.046567 c -0.456845,3.62319 -11.30265,-6.792628 -15.966986,-6.770873 -5.500456,0.02566 -13.980657,0.08134 -16.438645,-3.457792 -2.034278,-2.929057 13.986433,0.619104 19.439232,1.306644 5.452799,0.687539 13.423245,5.298834 12.966399,8.922021 z"
         sodipodi:nodetypes="sssss" />
      <path
         id="path7974"
         style="fill:#225e22;stroke-width:2.53931"
         d="m 35.828801,39.263078 c 0,4.54262 -6.734827,4.824874 -12.069651,5.577551 C 17.468016,45.728232 3.880352,40.311236 0.55668554,36.325935 -2.1940463,33.027621 17.419642,28.390359 23.75915,28.390359 c 6.339508,0 12.069651,6.330105 12.069651,10.872719 z"
         sodipodi:nodetypes="sssss" />
      <path
         id="path7976"
         style="fill:#174017;fill-opacity:1;stroke-width:1.46868"
         d="m 35.063526,38.932089 c 0,1.752843 -12.06361,-2.556067 -16.688582,-2.265635 C 12.920907,37.00895 4.5142897,37.544665 1.6328699,36.006873 -0.75184987,34.734166 15.586879,35.461877 21.082853,35.461877 c 5.495973,0 13.980673,1.717371 13.980673,3.470212 z"
         sodipodi:nodetypes="sssss" />
      <rect
         style="fill:#174017;fill-opacity:1;stroke-width:2.979"
         id="rect7978"
         width="1.5164093"
         height="8.1990547"
         x="11.352146"
         y="32.581093"
         rx="0.25083929"
         ry="1.2203165" />
      <rect
         style="fill:#174017;fill-opacity:1;stroke-width:2.979"
         id="rect7980"
         width="2.0263655"
         height="11.971917"
         x="18.841402"
         y="30.474119"
         rx="0.25083929"
         ry="1.2203165" />
      <rect
         style="fill:#174017;fill-opacity:1;stroke-width:2.979"
         id="rect7982"
         width="2.0127888"
         height="8.4114799"
         x="27.443251"
         y="32.629051"
         rx="0.25083929"
         ry="1.2203165" />
      <rect
         style="fill:#174017;fill-opacity:1;stroke-width:2.979"
         id="rect7984"
         width="1.0963677"
         height="4.4322958"
         x="4.2030797"
         y="33.825947"
         rx="0.25083929"
         ry="1.2203165" />
    </g>
    <g
       id="g9"
       transform="matrix(0.46328124,-0.11844206,0.11779607,0.46075448,62.241944,-4.2843508)">
      <path
         id="path4"
         style="fill:#225e22;fill-opacity:1;stroke-width:2.11989"
         d="m 44.676477,45.046567 c -0.456845,3.62319 -11.30265,-6.792628 -15.966986,-6.770873 -5.500456,0.02566 -13.980657,0.08134 -16.438645,-3.457792 -2.034278,-2.929057 13.986433,0.619104 19.439232,1.306644 5.452799,0.687539 13.423245,5.298834 12.966399,8.922021 z"
         sodipodi:nodetypes="sssss" />
      <path
         id="path5"
         style="fill:#225e22;stroke-width:2.53931"
         d="m 35.828801,39.263078 c 0,4.54262 -6.734827,4.824874 -12.069651,5.577551 C 17.468016,45.728232 3.880352,40.311236 0.55668554,36.325935 -2.1940463,33.027621 17.419642,28.390359 23.75915,28.390359 c 6.339508,0 12.069651,6.330105 12.069651,10.872719 z"
         sodipodi:nodetypes="sssss" />
      <path
         id="path6"
         style="fill:#174017;fill-opacity:1;stroke-width:1.46868"
         d="m 35.063526,38.932089 c 0,1.752843 -12.06361,-2.556067 -16.688582,-2.265635 C 12.920907,37.00895 4.5142897,37.544665 1.6328699,36.006873 -0.75184987,34.734166 15.586879,35.461877 21.082853,35.461877 c 5.495973,0 13.980673,1.717371 13.980673,3.470212 z"
         sodipodi:nodetypes="sssss" />
      <rect
         style="fill:#174017;fill-opacity:1;stroke-width:2.979"
         id="rect6"
         width="1.5164093"
         height="8.1990547"
         x="11.352146"
         y="32.581093"
         rx="0.25083929"
         ry="1.2203165" />
      <rect
         style="fill:#174017;fill-opacity:1;stroke-width:2.979"
         id="rect7"
         width="2.0263655"
         height="11.971917"
         x="18.841402"
         y="30.474119"
         rx="0.25083929"
         ry="1.2203165" />
      <rect
         style="fill:#174017;fill-opacity:1;stroke-width:2.979"
         id="rect8"
         width="2.0127888"
         height="8.4114799"
         x="27.443251"
         y="32.629051"
         rx="0.25083929"
         ry="1.2203165" />
      <rect
         style="fill:#174017;fill-opacity:1;stroke-width:2.979"
         id="rect9"
         width="1.0963677"
         height="4.4322958"
         x="4.2030797"
         y="33.825947"
         rx="0.25083929"
         ry="1.2203165" />
    </g>
  </g>
</svg>
