<?xml version="1.0" encoding="UTF-8" standalone="no"?>
<!-- Created with Inkscape (http://www.inkscape.org/) -->

<svg
   width="100mm"
   height="100mm"
   viewBox="0 0 100 100"
   version="1.1"
   id="svg3527"
   inkscape:version="1.4.2 (ebf0e940d0, 2025-05-08)"
   sodipodi:docname="terra_2.svg"
   xmlns:inkscape="http://www.inkscape.org/namespaces/inkscape"
   xmlns:sodipodi="http://sodipodi.sourceforge.net/DTD/sodipodi-0.dtd"
   xmlns="http://www.w3.org/2000/svg"
   xmlns:svg="http://www.w3.org/2000/svg">
  <sodipodi:namedview
     id="namedview3529"
     pagecolor="#505050"
     bordercolor="#ffffff"
     borderopacity="1"
     inkscape:pageshadow="0"
     inkscape:pageopacity="0"
     inkscape:pagecheckerboard="1"
     inkscape:document-units="mm"
     showgrid="false"
     width="100mm"
     inkscape:zoom="0.86056394"
     inkscape:cx="401.48092"
     inkscape:cy="195.80184"
     inkscape:window-width="1366"
     inkscape:window-height="697"
     inkscape:window-x="0"
     inkscape:window-y="0"
     inkscape:window-maximized="1"
     inkscape:current-layer="layer1"
     inkscape:snap-global="false"
     inkscape:showpageshadow="0"
     inkscape:deskcolor="#505050" />
  <defs
     id="defs3524" />
  <g
     inkscape:label="Camada 1"
     inkscape:groupmode="layer"
     id="layer1">
    <rect
       style="fill:#2e842e;stroke:none;stroke-width:0.331217;fill-opacity:1"
       id="rect3553"
       width="108.28619"
       height="105.53841"
       x="-4.2390537"
       y="-2.610112"
       ry="1.1075262" />
    <g
       id="g7874"
       transform="matrix(0.3326402,0,0,0.3440962,5.0257933,8.9856667)">
      <path
         id="path5349"
         style="fill:#225e22;fill-opacity:1;stroke-width:2.11989"
         d="m 44.676477,45.046567 c -0.456845,3.62319 -11.30265,-6.792628 -15.966986,-6.770873 -5.500456,0.02566 -13.980657,0.08134 -16.438645,-3.457792 -2.034278,-2.929057 13.986433,0.619104 19.439232,1.306644 5.452799,0.687539 13.423245,5.298834 12.966399,8.922021 z"
         sodipodi:nodetypes="sssss" />
      <path
         id="path3478"
         style="fill:#225e22;stroke-width:2.53931"
         d="m 35.828801,39.263078 c 0,4.54262 -6.734827,4.824874 -12.069651,5.577551 C 17.468016,45.728232 3.880352,40.311236 0.55668554,36.325935 -2.1940463,33.027621 17.419642,28.390359 23.75915,28.390359 c 6.339508,0 12.069651,6.330105 12.069651,10.872719 z"
         sodipodi:nodetypes="sssss" />
      <path
         id="path4350"
         style="fill:#174017;fill-opacity:1;stroke-width:1.46868"
         d="m 35.063526,38.932089 c 0,1.752843 -12.06361,-2.556067 -16.688582,-2.265635 C 12.920907,37.00895 4.5142897,37.544665 1.6328699,36.006873 -0.75184987,34.734166 15.586879,35.461877 21.082853,35.461877 c 5.495973,0 13.980673,1.717371 13.980673,3.470212 z"
         sodipodi:nodetypes="sssss" />
      <rect
         style="fill:#174017;fill-opacity:1;stroke-width:2.979"
         id="rect5261"
         width="1.5164093"
         height="8.1990547"
         x="11.352146"
         y="32.581093"
         rx="0.25083929"
         ry="1.2203165" />
      <rect
         style="fill:#174017;fill-opacity:1;stroke-width:2.979"
         id="rect5263"
         width="2.0263655"
         height="11.971917"
         x="18.841402"
         y="30.474119"
         rx="0.25083929"
         ry="1.2203165" />
      <rect
         style="fill:#174017;fill-opacity:1;stroke-width:2.979"
         id="rect5265"
         width="2.0127888"
         height="8.4114799"
         x="27.443251"
         y="32.629051"
         rx="0.25083929"
         ry="1.2203165" />
      <rect
         style="fill:#174017;fill-opacity:1;stroke-width:2.979"
         id="rect5267"
         width="1.0963677"
         height="4.4322958"
         x="4.2030797"
         y="33.825947"
         rx="0.25083929"
         ry="1.2203165" />
    </g>
    <g
       id="g7890"
       transform="matrix(-0.3326402,0,0,0.3440962,33.215999,4.9148833)">
      <path
         id="path7876"
         style="fill:#225e22;fill-opacity:1;stroke-width:2.11989"
         d="m 44.676477,45.046567 c -0.456845,3.62319 -11.30265,-6.792628 -15.966986,-6.770873 -5.500456,0.02566 -13.980657,0.08134 -16.438645,-3.457792 -2.034278,-2.929057 13.986433,0.619104 19.439232,1.306644 5.452799,0.687539 13.423245,5.298834 12.966399,8.922021 z"
         sodipodi:nodetypes="sssss" />
      <path
         id="path7878"
         style="fill:#225e22;stroke-width:2.53931"
         d="m 35.828801,39.263078 c 0,4.54262 -6.734827,4.824874 -12.069651,5.577551 C 17.468016,45.728232 3.880352,40.311236 0.55668554,36.325935 -2.1940463,33.027621 17.419642,28.390359 23.75915,28.390359 c 6.339508,0 12.069651,6.330105 12.069651,10.872719 z"
         sodipodi:nodetypes="sssss" />
      <path
         id="path7880"
         style="fill:#174017;fill-opacity:1;stroke-width:1.46868"
         d="m 35.063526,38.932089 c 0,1.752843 -12.06361,-2.556067 -16.688582,-2.265635 C 12.920907,37.00895 4.5142897,37.544665 1.6328699,36.006873 -0.75184987,34.734166 15.586879,35.461877 21.082853,35.461877 c 5.495973,0 13.980673,1.717371 13.980673,3.470212 z"
         sodipodi:nodetypes="sssss" />
      <rect
         style="fill:#174017;fill-opacity:1;stroke-width:2.979"
         id="rect7882"
         width="1.5164093"
         height="8.1990547"
         x="11.352146"
         y="32.581093"
         rx="0.25083929"
         ry="1.2203165" />
      <rect
         style="fill:#174017;fill-opacity:1;stroke-width:2.979"
         id="rect7884"
         width="2.0263655"
         height="11.971917"
         x="18.841402"
         y="30.474119"
         rx="0.25083929"
         ry="1.2203165" />
      <rect
         style="fill:#174017;fill-opacity:1;stroke-width:2.979"
         id="rect7886"
         width="2.0127888"
         height="8.4114799"
         x="27.443251"
         y="32.629051"
         rx="0.25083929"
         ry="1.2203165" />
      <rect
         style="fill:#174017;fill-opacity:1;stroke-width:2.979"
         id="rect7888"
         width="1.0963677"
         height="4.4322958"
         x="4.2030797"
         y="33.825947"
         rx="0.25083929"
         ry="1.2203165" />
    </g>
    <g
       id="g7906"
       transform="matrix(0.46997784,0,0,0.4182534,29.322851,7.5929823)">
      <path
         id="path7892"
         style="fill:#225e22;fill-opacity:1;stroke-width:2.11989"
         d="m 44.676477,45.046567 c -0.456845,3.62319 -11.30265,-6.792628 -15.966986,-6.770873 -5.500456,0.02566 -13.980657,0.08134 -16.438645,-3.457792 -2.034278,-2.929057 13.986433,0.619104 19.439232,1.306644 5.452799,0.687539 13.423245,5.298834 12.966399,8.922021 z"
         sodipodi:nodetypes="sssss" />
      <path
         id="path7894"
         style="fill:#225e22;stroke-width:2.53931"
         d="m 35.828801,39.263078 c 0,4.54262 -6.734827,4.824874 -12.069651,5.577551 C 17.468016,45.728232 3.880352,40.311236 0.55668554,36.325935 -2.1940463,33.027621 17.419642,28.390359 23.75915,28.390359 c 6.339508,0 12.069651,6.330105 12.069651,10.872719 z"
         sodipodi:nodetypes="sssss" />
      <path
         id="path7896"
         style="fill:#174017;fill-opacity:1;stroke-width:1.46868"
         d="m 35.063526,38.932089 c 0,1.752843 -12.06361,-2.556067 -16.688582,-2.265635 C 12.920907,37.00895 4.5142897,37.544665 1.6328699,36.006873 -0.75184987,34.734166 15.586879,35.461877 21.082853,35.461877 c 5.495973,0 13.980673,1.717371 13.980673,3.470212 z"
         sodipodi:nodetypes="sssss" />
      <rect
         style="fill:#174017;fill-opacity:1;stroke-width:2.979"
         id="rect7898"
         width="1.5164093"
         height="8.1990547"
         x="11.352146"
         y="32.581093"
         rx="0.25083929"
         ry="1.2203165" />
      <rect
         style="fill:#174017;fill-opacity:1;stroke-width:2.979"
         id="rect7900"
         width="2.0263655"
         height="11.971917"
         x="18.841402"
         y="30.474119"
         rx="0.25083929"
         ry="1.2203165" />
      <rect
         style="fill:#174017;fill-opacity:1;stroke-width:2.979"
         id="rect7902"
         width="2.0127888"
         height="8.4114799"
         x="27.443251"
         y="32.629051"
         rx="0.25083929"
         ry="1.2203165" />
      <rect
         style="fill:#174017;fill-opacity:1;stroke-width:2.979"
         id="rect7904"
         width="1.0963677"
         height="4.4322958"
         x="4.2030797"
         y="33.825947"
         rx="0.25083929"
         ry="1.2203165" />
    </g>
    <g
       id="g7922"
       transform="matrix(-0.3326402,0,0,0.3440962,38.48173,16.521306)">
      <path
         id="path7908"
         style="fill:#225e22;fill-opacity:1;stroke-width:2.11989"
         d="m 44.676477,45.046567 c -0.456845,3.62319 -11.30265,-6.792628 -15.966986,-6.770873 -5.500456,0.02566 -13.980657,0.08134 -16.438645,-3.457792 -2.034278,-2.929057 13.986433,0.619104 19.439232,1.306644 5.452799,0.687539 13.423245,5.298834 12.966399,8.922021 z"
         sodipodi:nodetypes="sssss" />
      <path
         id="path7910"
         style="fill:#225e22;stroke-width:2.53931"
         d="m 35.828801,39.263078 c 0,4.54262 -6.734827,4.824874 -12.069651,5.577551 C 17.468016,45.728232 3.880352,40.311236 0.55668554,36.325935 -2.1940463,33.027621 17.419642,28.390359 23.75915,28.390359 c 6.339508,0 12.069651,6.330105 12.069651,10.872719 z"
         sodipodi:nodetypes="sssss" />
      <path
         id="path7912"
         style="fill:#174017;fill-opacity:1;stroke-width:1.46868"
         d="m 35.063526,38.932089 c 0,1.752843 -12.06361,-2.556067 -16.688582,-2.265635 C 12.920907,37.00895 4.5142897,37.544665 1.6328699,36.006873 -0.75184987,34.734166 15.586879,35.461877 21.082853,35.461877 c 5.495973,0 13.980673,1.717371 13.980673,3.470212 z"
         sodipodi:nodetypes="sssss" />
      <rect
         style="fill:#174017;fill-opacity:1;stroke-width:2.979"
         id="rect7914"
         width="1.5164093"
         height="8.1990547"
         x="11.352146"
         y="32.581093"
         rx="0.25083929"
         ry="1.2203165" />
      <rect
         style="fill:#174017;fill-opacity:1;stroke-width:2.979"
         id="rect7916"
         width="2.0263655"
         height="11.971917"
         x="18.841402"
         y="30.474119"
         rx="0.25083929"
         ry="1.2203165" />
      <rect
         style="fill:#174017;fill-opacity:1;stroke-width:2.979"
         id="rect7918"
         width="2.0127888"
         height="8.4114799"
         x="27.443251"
         y="32.629051"
         rx="0.25083929"
         ry="1.2203165" />
      <rect
         style="fill:#174017;fill-opacity:1;stroke-width:2.979"
         id="rect7920"
         width="1.0963677"
         height="4.4322958"
         x="4.2030797"
         y="33.825947"
         rx="0.25083929"
         ry="1.2203165" />
    </g>
    <g
       id="g7938"
       transform="matrix(0.478182,0,0,0.47557397,54.166997,51.96377)">
      <path
         id="path7924"
         style="fill:#225e22;fill-opacity:1;stroke-width:2.11989"
         d="m 44.676477,45.046567 c -0.456845,3.62319 -11.30265,-6.792628 -15.966986,-6.770873 -5.500456,0.02566 -13.980657,0.08134 -16.438645,-3.457792 -2.034278,-2.929057 13.986433,0.619104 19.439232,1.306644 5.452799,0.687539 13.423245,5.298834 12.966399,8.922021 z"
         sodipodi:nodetypes="sssss" />
      <path
         id="path7926"
         style="fill:#225e22;stroke-width:2.53931"
         d="m 35.828801,39.263078 c 0,4.54262 -6.734827,4.824874 -12.069651,5.577551 C 17.468016,45.728232 3.880352,40.311236 0.55668554,36.325935 -2.1940463,33.027621 17.419642,28.390359 23.75915,28.390359 c 6.339508,0 12.069651,6.330105 12.069651,10.872719 z"
         sodipodi:nodetypes="sssss" />
      <path
         id="path7928"
         style="fill:#174017;fill-opacity:1;stroke-width:1.46868"
         d="m 35.063526,38.932089 c 0,1.752843 -12.06361,-2.556067 -16.688582,-2.265635 C 12.920907,37.00895 4.5142897,37.544665 1.6328699,36.006873 -0.75184987,34.734166 15.586879,35.461877 21.082853,35.461877 c 5.495973,0 13.980673,1.717371 13.980673,3.470212 z"
         sodipodi:nodetypes="sssss" />
      <rect
         style="fill:#174017;fill-opacity:1;stroke-width:2.979"
         id="rect7930"
         width="1.5164093"
         height="8.1990547"
         x="11.352146"
         y="32.581093"
         rx="0.25083929"
         ry="1.2203165" />
      <rect
         style="fill:#174017;fill-opacity:1;stroke-width:2.979"
         id="rect7932"
         width="2.0263655"
         height="11.971917"
         x="18.841402"
         y="30.474119"
         rx="0.25083929"
         ry="1.2203165" />
      <rect
         style="fill:#174017;fill-opacity:1;stroke-width:2.979"
         id="rect7934"
         width="2.0127888"
         height="8.4114799"
         x="27.443251"
         y="32.629051"
         rx="0.25083929"
         ry="1.2203165" />
      <rect
         style="fill:#174017;fill-opacity:1;stroke-width:2.979"
         id="rect7936"
         width="1.0963677"
         height="4.4322958"
         x="4.2030797"
         y="33.825947"
         rx="0.25083929"
         ry="1.2203165" />
    </g>
    <g
       id="g7954"
       transform="matrix(-0.3326402,0,0,0.3440962,86.402607,53.916257)">
      <path
         id="path7940"
         style="fill:#225e22;fill-opacity:1;stroke-width:2.11989"
         d="m 44.676477,45.046567 c -0.456845,3.62319 -11.30265,-6.792628 -15.966986,-6.770873 -5.500456,0.02566 -13.980657,0.08134 -16.438645,-3.457792 -2.034278,-2.929057 13.986433,0.619104 19.439232,1.306644 5.452799,0.687539 13.423245,5.298834 12.966399,8.922021 z"
         sodipodi:nodetypes="sssss" />
      <path
         id="path7942"
         style="fill:#225e22;stroke-width:2.53931"
         d="m 35.828801,39.263078 c 0,4.54262 -6.734827,4.824874 -12.069651,5.577551 C 17.468016,45.728232 3.880352,40.311236 0.55668554,36.325935 -2.1940463,33.027621 17.419642,28.390359 23.75915,28.390359 c 6.339508,0 12.069651,6.330105 12.069651,10.872719 z"
         sodipodi:nodetypes="sssss" />
      <path
         id="path7944"
         style="fill:#174017;fill-opacity:1;stroke-width:1.46868"
         d="m 35.063526,38.932089 c 0,1.752843 -12.06361,-2.556067 -16.688582,-2.265635 C 12.920907,37.00895 4.5142897,37.544665 1.6328699,36.006873 -0.75184987,34.734166 15.586879,35.461877 21.082853,35.461877 c 5.495973,0 13.980673,1.717371 13.980673,3.470212 z"
         sodipodi:nodetypes="sssss" />
      <rect
         style="fill:#174017;fill-opacity:1;stroke-width:2.979"
         id="rect7946"
         width="1.5164093"
         height="8.1990547"
         x="11.352146"
         y="32.581093"
         rx="0.25083929"
         ry="1.2203165" />
      <rect
         style="fill:#174017;fill-opacity:1;stroke-width:2.979"
         id="rect7948"
         width="2.0263655"
         height="11.971917"
         x="18.841402"
         y="30.474119"
         rx="0.25083929"
         ry="1.2203165" />
      <rect
         style="fill:#174017;fill-opacity:1;stroke-width:2.979"
         id="rect7950"
         width="2.0127888"
         height="8.4114799"
         x="27.443251"
         y="32.629051"
         rx="0.25083929"
         ry="1.2203165" />
      <rect
         style="fill:#174017;fill-opacity:1;stroke-width:2.979"
         id="rect7952"
         width="1.0963677"
         height="4.4322958"
         x="4.2030797"
         y="33.825947"
         rx="0.25083929"
         ry="1.2203165" />
    </g>
    <g
       id="g7970"
       transform="matrix(0.3326402,0,0,0.3440962,82.549833,59.991652)">
      <path
         id="path7956"
         style="fill:#225e22;fill-opacity:1;stroke-width:2.11989"
         d="m 44.676477,45.046567 c -0.456845,3.62319 -11.30265,-6.792628 -15.966986,-6.770873 -5.500456,0.02566 -13.980657,0.08134 -16.438645,-3.457792 -2.034278,-2.929057 13.986433,0.619104 19.439232,1.306644 5.452799,0.687539 13.423245,5.298834 12.966399,8.922021 z"
         sodipodi:nodetypes="sssss" />
      <path
         id="path7958"
         style="fill:#225e22;stroke-width:2.53931"
         d="m 35.828801,39.263078 c 0,4.54262 -6.734827,4.824874 -12.069651,5.577551 C 17.468016,45.728232 3.880352,40.311236 0.55668554,36.325935 -2.1940463,33.027621 17.419642,28.390359 23.75915,28.390359 c 6.339508,0 12.069651,6.330105 12.069651,10.872719 z"
         sodipodi:nodetypes="sssss" />
      <path
         id="path7960"
         style="fill:#174017;fill-opacity:1;stroke-width:1.46868"
         d="m 35.063526,38.932089 c 0,1.752843 -12.06361,-2.556067 -16.688582,-2.265635 C 12.920907,37.00895 4.5142897,37.544665 1.6328699,36.006873 -0.75184987,34.734166 15.586879,35.461877 21.082853,35.461877 c 5.495973,0 13.980673,1.717371 13.980673,3.470212 z"
         sodipodi:nodetypes="sssss" />
      <rect
         style="fill:#174017;fill-opacity:1;stroke-width:2.979"
         id="rect7962"
         width="1.5164093"
         height="8.1990547"
         x="11.352146"
         y="32.581093"
         rx="0.25083929"
         ry="1.2203165" />
      <rect
         style="fill:#174017;fill-opacity:1;stroke-width:2.979"
         id="rect7964"
         width="2.0263655"
         height="11.971917"
         x="18.841402"
         y="30.474119"
         rx="0.25083929"
         ry="1.2203165" />
      <rect
         style="fill:#174017;fill-opacity:1;stroke-width:2.979"
         id="rect7966"
         width="2.0127888"
         height="8.4114799"
         x="27.443251"
         y="32.629051"
         rx="0.25083929"
         ry="1.2203165" />
      <rect
         style="fill:#174017;fill-opacity:1;stroke-width:2.979"
         id="rect7968"
         width="1.0963677"
         height="4.4322958"
         x="4.2030797"
         y="33.825947"
         rx="0.25083929"
         ry="1.2203165" />
    </g>
    <g
       id="g7986"
       transform="matrix(-0.3326402,0,0,0.3440962,91.668338,65.52268)">
      <path
         id="path7972"
         style="fill:#225e22;fill-opacity:1;stroke-width:2.11989"
         d="m 44.676477,45.046567 c -0.456845,3.62319 -11.30265,-6.792628 -15.966986,-6.770873 -5.500456,0.02566 -13.980657,0.08134 -16.438645,-3.457792 -2.034278,-2.929057 13.986433,0.619104 19.439232,1.306644 5.452799,0.687539 13.423245,5.298834 12.966399,8.922021 z"
         sodipodi:nodetypes="sssss" />
      <path
         id="path7974"
         style="fill:#225e22;stroke-width:2.53931"
         d="m 35.828801,39.263078 c 0,4.54262 -6.734827,4.824874 -12.069651,5.577551 C 17.468016,45.728232 3.880352,40.311236 0.55668554,36.325935 -2.1940463,33.027621 17.419642,28.390359 23.75915,28.390359 c 6.339508,0 12.069651,6.330105 12.069651,10.872719 z"
         sodipodi:nodetypes="sssss" />
      <path
         id="path7976"
         style="fill:#174017;fill-opacity:1;stroke-width:1.46868"
         d="m 35.063526,38.932089 c 0,1.752843 -12.06361,-2.556067 -16.688582,-2.265635 C 12.920907,37.00895 4.5142897,37.544665 1.6328699,36.006873 -0.75184987,34.734166 15.586879,35.461877 21.082853,35.461877 c 5.495973,0 13.980673,1.717371 13.980673,3.470212 z"
         sodipodi:nodetypes="sssss" />
      <rect
         style="fill:#174017;fill-opacity:1;stroke-width:2.979"
         id="rect7978"
         width="1.5164093"
         height="8.1990547"
         x="11.352146"
         y="32.581093"
         rx="0.25083929"
         ry="1.2203165" />
      <rect
         style="fill:#174017;fill-opacity:1;stroke-width:2.979"
         id="rect7980"
         width="2.0263655"
         height="11.971917"
         x="18.841402"
         y="30.474119"
         rx="0.25083929"
         ry="1.2203165" />
      <rect
         style="fill:#174017;fill-opacity:1;stroke-width:2.979"
         id="rect7982"
         width="2.0127888"
         height="8.4114799"
         x="27.443251"
         y="32.629051"
         rx="0.25083929"
         ry="1.2203165" />
      <rect
         style="fill:#174017;fill-opacity:1;stroke-width:2.979"
         id="rect7984"
         width="1.0963677"
         height="4.4322958"
         x="4.2030797"
         y="33.825947"
         rx="0.25083929"
         ry="1.2203165" />
    </g>
    <g
       id="g8140"
       transform="matrix(0.3326402,0,0,0.3440962,56.791986,-4.0681741)">
      <path
         id="path8126"
         style="fill:#225e22;fill-opacity:1;stroke-width:2.11989"
         d="m 44.676477,45.046567 c -0.456845,3.62319 -11.30265,-6.792628 -15.966986,-6.770873 -5.500456,0.02566 -13.980657,0.08134 -16.438645,-3.457792 -2.034278,-2.929057 13.986433,0.619104 19.439232,1.306644 5.452799,0.687539 13.423245,5.298834 12.966399,8.922021 z"
         sodipodi:nodetypes="sssss" />
      <path
         id="path8128"
         style="fill:#225e22;stroke-width:2.53931"
         d="m 35.828801,39.263078 c 0,4.54262 -6.734827,4.824874 -12.069651,5.577551 C 17.468016,45.728232 3.880352,40.311236 0.55668554,36.325935 -2.1940463,33.027621 17.419642,28.390359 23.75915,28.390359 c 6.339508,0 12.069651,6.330105 12.069651,10.872719 z"
         sodipodi:nodetypes="sssss" />
      <path
         id="path8130"
         style="fill:#174017;fill-opacity:1;stroke-width:1.46868"
         d="m 35.063526,38.932089 c 0,1.752843 -12.06361,-2.556067 -16.688582,-2.265635 C 12.920907,37.00895 4.5142897,37.544665 1.6328699,36.006873 -0.75184987,34.734166 15.586879,35.461877 21.082853,35.461877 c 5.495973,0 13.980673,1.717371 13.980673,3.470212 z"
         sodipodi:nodetypes="sssss" />
      <rect
         style="fill:#174017;fill-opacity:1;stroke-width:2.979"
         id="rect8132"
         width="1.5164093"
         height="8.1990547"
         x="11.352146"
         y="32.581093"
         rx="0.25083929"
         ry="1.2203165" />
      <rect
         style="fill:#174017;fill-opacity:1;stroke-width:2.979"
         id="rect8134"
         width="2.0263655"
         height="11.971917"
         x="18.841402"
         y="30.474119"
         rx="0.25083929"
         ry="1.2203165" />
      <rect
         style="fill:#174017;fill-opacity:1;stroke-width:2.979"
         id="rect8136"
         width="2.0127888"
         height="8.4114799"
         x="27.443251"
         y="32.629051"
         rx="0.25083929"
         ry="1.2203165" />
      <rect
         style="fill:#174017;fill-opacity:1;stroke-width:2.979"
         id="rect8138"
         width="1.0963677"
         height="4.4322958"
         x="4.2030797"
         y="33.825947"
         rx="0.25083929"
         ry="1.2203165" />
    </g>
    <g
       id="g8156"
       transform="matrix(-0.3326402,0,0,0.3440962,84.982192,-8.1389575)">
      <path
         id="path8142"
         style="fill:#225e22;fill-opacity:1;stroke-width:2.11989"
         d="m 44.676477,45.046567 c -0.456845,3.62319 -11.30265,-6.792628 -15.966986,-6.770873 -5.500456,0.02566 -13.980657,0.08134 -16.438645,-3.457792 -2.034278,-2.929057 13.986433,0.619104 19.439232,1.306644 5.452799,0.687539 13.423245,5.298834 12.966399,8.922021 z"
         sodipodi:nodetypes="sssss" />
      <path
         id="path8144"
         style="fill:#225e22;stroke-width:2.53931"
         d="m 35.828801,39.263078 c 0,4.54262 -6.734827,4.824874 -12.069651,5.577551 C 17.468016,45.728232 3.880352,40.311236 0.55668554,36.325935 -2.1940463,33.027621 17.419642,28.390359 23.75915,28.390359 c 6.339508,0 12.069651,6.330105 12.069651,10.872719 z"
         sodipodi:nodetypes="sssss" />
      <path
         id="path8146"
         style="fill:#174017;fill-opacity:1;stroke-width:1.46868"
         d="m 35.063526,38.932089 c 0,1.752843 -12.06361,-2.556067 -16.688582,-2.265635 C 12.920907,37.00895 4.5142897,37.544665 1.6328699,36.006873 -0.75184987,34.734166 15.586879,35.461877 21.082853,35.461877 c 5.495973,0 13.980673,1.717371 13.980673,3.470212 z"
         sodipodi:nodetypes="sssss" />
      <rect
         style="fill:#174017;fill-opacity:1;stroke-width:2.979"
         id="rect8148"
         width="1.5164093"
         height="8.1990547"
         x="11.352146"
         y="32.581093"
         rx="0.25083929"
         ry="1.2203165" />
      <rect
         style="fill:#174017;fill-opacity:1;stroke-width:2.979"
         id="rect8150"
         width="2.0263655"
         height="11.971917"
         x="18.841402"
         y="30.474119"
         rx="0.25083929"
         ry="1.2203165" />
      <rect
         style="fill:#174017;fill-opacity:1;stroke-width:2.979"
         id="rect8152"
         width="2.0127888"
         height="8.4114799"
         x="27.443251"
         y="32.629051"
         rx="0.25083929"
         ry="1.2203165" />
      <rect
         style="fill:#174017;fill-opacity:1;stroke-width:2.979"
         id="rect8154"
         width="1.0963677"
         height="4.4322958"
         x="4.2030797"
         y="33.825947"
         rx="0.25083929"
         ry="1.2203165" />
    </g>
    <g
       id="g8172"
       transform="matrix(0.46997784,0,0,0.4182534,81.089044,-5.4608585)">
      <path
         id="path8158"
         style="fill:#225e22;fill-opacity:1;stroke-width:2.11989"
         d="m 44.676477,45.046567 c -0.456845,3.62319 -11.30265,-6.792628 -15.966986,-6.770873 -5.500456,0.02566 -13.980657,0.08134 -16.438645,-3.457792 -2.034278,-2.929057 13.986433,0.619104 19.439232,1.306644 5.452799,0.687539 13.423245,5.298834 12.966399,8.922021 z"
         sodipodi:nodetypes="sssss" />
      <path
         id="path8160"
         style="fill:#225e22;stroke-width:2.53931"
         d="m 35.828801,39.263078 c 0,4.54262 -6.734827,4.824874 -12.069651,5.577551 C 17.468016,45.728232 3.880352,40.311236 0.55668554,36.325935 -2.1940463,33.027621 17.419642,28.390359 23.75915,28.390359 c 6.339508,0 12.069651,6.330105 12.069651,10.872719 z"
         sodipodi:nodetypes="sssss" />
      <path
         id="path8162"
         style="fill:#174017;fill-opacity:1;stroke-width:1.46868"
         d="m 35.063526,38.932089 c 0,1.752843 -12.06361,-2.556067 -16.688582,-2.265635 C 12.920907,37.00895 4.5142897,37.544665 1.6328699,36.006873 -0.75184987,34.734166 15.586879,35.461877 21.082853,35.461877 c 5.495973,0 13.980673,1.717371 13.980673,3.470212 z"
         sodipodi:nodetypes="sssss" />
      <rect
         style="fill:#174017;fill-opacity:1;stroke-width:2.979"
         id="rect8164"
         width="1.5164093"
         height="8.1990547"
         x="11.352146"
         y="32.581093"
         rx="0.25083929"
         ry="1.2203165" />
      <rect
         style="fill:#174017;fill-opacity:1;stroke-width:2.979"
         id="rect8166"
         width="2.0263655"
         height="11.971917"
         x="18.841402"
         y="30.474119"
         rx="0.25083929"
         ry="1.2203165" />
      <rect
         style="fill:#174017;fill-opacity:1;stroke-width:2.979"
         id="rect8168"
         width="2.0127888"
         height="8.4114799"
         x="27.443251"
         y="32.629051"
         rx="0.25083929"
         ry="1.2203165" />
      <rect
         style="fill:#174017;fill-opacity:1;stroke-width:2.979"
         id="rect8170"
         width="1.0963677"
         height="4.4322958"
         x="4.2030797"
         y="33.825947"
         rx="0.25083929"
         ry="1.2203165" />
    </g>
    <g
       id="g8188"
       transform="matrix(-0.3326402,0,0,0.3440962,90.247923,3.4674652)">
      <path
         id="path8174"
         style="fill:#225e22;fill-opacity:1;stroke-width:2.11989"
         d="m 44.676477,45.046567 c -0.456845,3.62319 -11.30265,-6.792628 -15.966986,-6.770873 -5.500456,0.02566 -13.980657,0.08134 -16.438645,-3.457792 -2.034278,-2.929057 13.986433,0.619104 19.439232,1.306644 5.452799,0.687539 13.423245,5.298834 12.966399,8.922021 z"
         sodipodi:nodetypes="sssss" />
      <path
         id="path8176"
         style="fill:#225e22;stroke-width:2.53931"
         d="m 35.828801,39.263078 c 0,4.54262 -6.734827,4.824874 -12.069651,5.577551 C 17.468016,45.728232 3.880352,40.311236 0.55668554,36.325935 -2.1940463,33.027621 17.419642,28.390359 23.75915,28.390359 c 6.339508,0 12.069651,6.330105 12.069651,10.872719 z"
         sodipodi:nodetypes="sssss" />
      <path
         id="path8178"
         style="fill:#174017;fill-opacity:1;stroke-width:1.46868"
         d="m 35.063526,38.932089 c 0,1.752843 -12.06361,-2.556067 -16.688582,-2.265635 C 12.920907,37.00895 4.5142897,37.544665 1.6328699,36.006873 -0.75184987,34.734166 15.586879,35.461877 21.082853,35.461877 c 5.495973,0 13.980673,1.717371 13.980673,3.470212 z"
         sodipodi:nodetypes="sssss" />
      <rect
         style="fill:#174017;fill-opacity:1;stroke-width:2.979"
         id="rect8180"
         width="1.5164093"
         height="8.1990547"
         x="11.352146"
         y="32.581093"
         rx="0.25083929"
         ry="1.2203165" />
      <rect
         style="fill:#174017;fill-opacity:1;stroke-width:2.979"
         id="rect8182"
         width="2.0263655"
         height="11.971917"
         x="18.841402"
         y="30.474119"
         rx="0.25083929"
         ry="1.2203165" />
      <rect
         style="fill:#174017;fill-opacity:1;stroke-width:2.979"
         id="rect8184"
         width="2.0127888"
         height="8.4114799"
         x="27.443251"
         y="32.629051"
         rx="0.25083929"
         ry="1.2203165" />
      <rect
         style="fill:#174017;fill-opacity:1;stroke-width:2.979"
         id="rect8186"
         width="1.0963677"
         height="4.4322958"
         x="4.2030797"
         y="33.825947"
         rx="0.25083929"
         ry="1.2203165" />
    </g>
    <g
       id="g14"
       transform="matrix(-1.4669361,0,0,1.4676143,101.93451,-87.18872)">
      <path
         id="path13"
         style="fill:#000000;fill-opacity:0.410352;stroke-width:2.979"
         d="m 40.98911,90.408598 c 0,3.614968 -9.269019,5.952583 -16.744622,6.171591 C 14.843617,96.8556 6.2742712,95.0215 6.2742715,91.406532 c 1.1e-6,-3.614968 11.2420795,-4.215276 20.6469835,-4.215276 9.404903,0 14.067854,-0.397626 14.067855,3.217342 z"
         sodipodi:nodetypes="sssss" />
    </g>
    <g
       id="g13">
      <g
         id="g10726"
         transform="matrix(1.7175614,0,0,1.8173638,-5.1244912,-78.236462)">
        <path
           id="path10369"
           style="fill:#000000;fill-opacity:0.41035163;stroke-width:2.979"
           d="m 40.98911,90.408598 c 0,3.614968 -9.269019,5.952583 -16.744622,6.171591 C 14.843617,96.8556 6.2742712,95.0215 6.2742715,91.406532 c 1.1e-6,-3.614968 11.2420795,-4.215276 20.6469835,-4.215276 9.404903,0 14.067854,-0.397626 14.067855,3.217342 z"
           sodipodi:nodetypes="sssss" />
      </g>
      <g
         id="g2"
         transform="translate(4.7828529,-6.5220721)">
        <path
           id="path1"
           style="fill:#102b16;fill-opacity:1;stroke:#08150b;stroke-width:1.433;stroke-dasharray:none;stroke-opacity:1"
           d="m 2.862206,54.704478 1.645722,-7.877449 c 0,0 5.599196,18.169884 5.654949,19.596014 l 0.954848,24.424708 c 0.05567,1.426134 1.449611,3.243163 1.197356,3.237403 L 5.0078334,93.918248 c -0.252254,-0.0057 0.8649091,-1.216754 0.8474976,-2.644216 L 5.6012669,70.446178 C 5.5838373,69.018718 2.8026347,54.989625 2.8622078,54.704472 Z"
           sodipodi:nodetypes="scsssssss" />
        <path
           id="path2"
           style="fill:#235f31;fill-opacity:1;stroke-width:2.91881"
           d="m 4.0967598,55.422747 0.019563,-4.058622 c 0,0 3.2446164,15.76922 3.3183256,17.012551 l 1.2624081,21.293979 c 0.073786,1.243331 0.5472251,2.821725 0.4746034,2.817797 L 7.0680357,92.37457 c -0.072624,-0.0038 0.1833455,-1.064055 0.1361871,-2.309405 L 6.3971531,68.752239 C 6.349995,67.506898 3.2540848,55.008474 3.3665797,55.230583 Z"
           sodipodi:nodetypes="scssssssss" />
      </g>
      <g
         id="g6"
         transform="translate(15.095127,-13.232869)">
        <path
           id="path5"
           style="fill:#102b16;fill-opacity:1;stroke:#08150b;stroke-width:1.433;stroke-dasharray:none;stroke-opacity:1"
           d="m 2.862206,54.704478 1.645722,-7.877449 c 0,0 5.599196,18.169884 5.654949,19.596014 l 0.954848,24.424708 c 0.05567,1.426134 1.449611,3.243163 1.197356,3.237403 L 5.0078334,93.918248 c -0.252254,-0.0057 0.8649091,-1.216754 0.8474976,-2.644216 L 5.6012669,70.446178 C 5.5838373,69.018718 2.8026347,54.989625 2.8622078,54.704472 Z"
           sodipodi:nodetypes="scsssssss" />
        <path
           id="path6"
           style="fill:#235f31;fill-opacity:1;stroke-width:2.91881"
           d="m 4.0967598,55.422747 0.019563,-4.058622 c 0,0 3.2446164,15.76922 3.3183256,17.012551 l 1.2624081,21.293979 c 0.073786,1.243331 0.5472251,2.821725 0.4746034,2.817797 L 7.0680357,92.37457 c -0.072624,-0.0038 0.1833455,-1.064055 0.1361871,-2.309405 L 6.3971531,68.752239 C 6.349995,67.506898 3.2540848,55.008474 3.3665797,55.230583 Z"
           sodipodi:nodetypes="scssssssss" />
      </g>
      <g
         id="g1">
        <path
           id="path10154"
           style="fill:#102b16;fill-opacity:1;stroke-width:1.433;stroke:#08150b;stroke-opacity:1;stroke-dasharray:none"
           d="m 2.862206,54.704478 1.645722,-7.877449 c 0,0 5.599196,18.169884 5.654949,19.596014 l 0.954848,24.424708 c 0.05567,1.426134 1.449611,3.243163 1.197356,3.237403 L 5.0078334,93.918248 c -0.252254,-0.0057 0.8649091,-1.216754 0.8474976,-2.644216 L 5.6012669,70.446178 C 5.5838373,69.018718 2.8026347,54.989625 2.8622078,54.704472 Z"
           sodipodi:nodetypes="scsssssss" />
        <path
           id="path10156"
           style="fill:#235f31;fill-opacity:1;stroke-width:2.91881"
           d="m 4.0967598,55.422747 0.019563,-4.058622 c 0,0 3.2446164,15.76922 3.3183256,17.012551 l 1.2624081,21.293979 c 0.073786,1.243331 0.5472251,2.821725 0.4746034,2.817797 L 7.0680357,92.37457 c -0.072624,-0.0038 0.1833455,-1.064055 0.1361871,-2.309405 L 6.3971531,68.752239 C 6.349995,67.506898 3.2540848,55.008474 3.3665797,55.230583 Z"
           sodipodi:nodetypes="scssssssss" />
      </g>
      <g
         id="g4"
         transform="translate(11.739729,0.2174024)">
        <path
           id="path3"
           style="fill:#102b16;fill-opacity:1;stroke:#08150b;stroke-width:1.433;stroke-dasharray:none;stroke-opacity:1"
           d="m 2.862206,54.704478 1.645722,-7.877449 c 0,0 5.599196,18.169884 5.654949,19.596014 l 0.954848,24.424708 c 0.05567,1.426134 1.449611,3.243163 1.197356,3.237403 L 5.0078334,93.918248 c -0.252254,-0.0057 0.8649091,-1.216754 0.8474976,-2.644216 L 5.6012669,70.446178 C 5.5838373,69.018718 2.8026347,54.989625 2.8622078,54.704472 Z"
           sodipodi:nodetypes="scsssssss" />
        <path
           id="path4"
           style="fill:#235f31;fill-opacity:1;stroke-width:2.91881"
           d="m 4.0967598,55.422747 0.019563,-4.058622 c 0,0 3.2446164,15.76922 3.3183256,17.012551 l 1.2624081,21.293979 c 0.073786,1.243331 0.5472251,2.821725 0.4746034,2.817797 L 7.0680357,92.37457 c -0.072624,-0.0038 0.1833455,-1.064055 0.1361871,-2.309405 L 6.3971531,68.752239 C 6.349995,67.506898 3.2540848,55.008474 3.3665797,55.230583 Z"
           sodipodi:nodetypes="scssssssss" />
      </g>
      <g
         id="g10"
         transform="matrix(-1,0,0,1,43.585082,-10.189235)">
        <path
           id="path9"
           style="fill:#102b16;fill-opacity:1;stroke:#08150b;stroke-width:1.433;stroke-dasharray:none;stroke-opacity:1"
           d="m 2.862206,54.704478 1.645722,-7.877449 c 0,0 5.599196,18.169884 5.654949,19.596014 l 0.954848,24.424708 c 0.05567,1.426134 1.449611,3.243163 1.197356,3.237403 L 5.0078334,93.918248 c -0.252254,-0.0057 0.8649091,-1.216754 0.8474976,-2.644216 L 5.6012669,70.446178 C 5.5838373,69.018718 2.8026347,54.989625 2.8622078,54.704472 Z"
           sodipodi:nodetypes="scsssssss" />
        <path
           id="path10"
           style="fill:#235f31;fill-opacity:1;stroke-width:2.91881"
           d="m 4.0967598,55.422747 0.019563,-4.058622 c 0,0 3.2446164,15.76922 3.3183256,17.012551 l 1.2624081,21.293979 c 0.073786,1.243331 0.5472251,2.821725 0.4746034,2.817797 L 7.0680357,92.37457 c -0.072624,-0.0038 0.1833455,-1.064055 0.1361871,-2.309405 L 6.3971531,68.752239 C 6.349995,67.506898 3.2540848,55.008474 3.3665797,55.230583 Z"
           sodipodi:nodetypes="scssssssss" />
      </g>
      <g
         id="g8"
         transform="matrix(-1,0,0,1,37.251734,-1.7105417)">
        <path
           id="path7"
           style="fill:#102b16;fill-opacity:1;stroke:#08150b;stroke-width:1.433;stroke-dasharray:none;stroke-opacity:1"
           d="m 2.862206,54.704478 1.645722,-7.877449 c 0,0 5.599196,18.169884 5.654949,19.596014 l 0.954848,24.424708 c 0.05567,1.426134 1.449611,3.243163 1.197356,3.237403 L 5.0078334,93.918248 c -0.252254,-0.0057 0.8649091,-1.216754 0.8474976,-2.644216 L 5.6012669,70.446178 C 5.5838373,69.018718 2.8026347,54.989625 2.8622078,54.704472 Z"
           sodipodi:nodetypes="scsssssss" />
        <path
           id="path8"
           style="fill:#235f31;fill-opacity:1;stroke-width:2.91881"
           d="m 4.0967598,55.422747 0.019563,-4.058622 c 0,0 3.2446164,15.76922 3.3183256,17.012551 l 1.2624081,21.293979 c 0.073786,1.243331 0.5472251,2.821725 0.4746034,2.817797 L 7.0680357,92.37457 c -0.072624,-0.0038 0.1833455,-1.064055 0.1361871,-2.309405 L 6.3971531,68.752239 C 6.349995,67.506898 3.2540848,55.008474 3.3665797,55.230583 Z"
           sodipodi:nodetypes="scssssssss" />
      </g>
      <g
         id="g12"
         transform="matrix(-1,0,0,1,48.585337,-1.4931389)">
        <path
           id="path11"
           style="fill:#102b16;fill-opacity:1;stroke:#08150b;stroke-width:1.433;stroke-dasharray:none;stroke-opacity:1"
           d="m 2.862206,54.704478 1.645722,-7.877449 c 0,0 5.599196,18.169884 5.654949,19.596014 l 0.954848,24.424708 c 0.05567,1.426134 1.449611,3.243163 1.197356,3.237403 L 5.0078334,93.918248 c -0.252254,-0.0057 0.8649091,-1.216754 0.8474976,-2.644216 L 5.6012669,70.446178 C 5.5838373,69.018718 2.8026347,54.989625 2.8622078,54.704472 Z"
           sodipodi:nodetypes="scsssssss" />
        <path
           id="path12"
           style="fill:#235f31;fill-opacity:1;stroke-width:2.91881"
           d="m 4.0967598,55.422747 0.019563,-4.058622 c 0,0 3.2446164,15.76922 3.3183256,17.012551 l 1.2624081,21.293979 c 0.073786,1.243331 0.5472251,2.821725 0.4746034,2.817797 L 7.0680357,92.37457 c -0.072624,-0.0038 0.1833455,-1.064055 0.1361871,-2.309405 L 6.3971531,68.752239 C 6.349995,67.506898 3.2540848,55.008474 3.3665797,55.230583 Z"
           sodipodi:nodetypes="scssssssss" />
      </g>
    </g>
    <g
       id="g15"
       transform="matrix(0.85408072,0,0,0.8075512,58.896116,-28.968225)">
      <path
         id="path14"
         style="fill:#102b16;fill-opacity:1;stroke:#08150b;stroke-width:1.433;stroke-dasharray:none;stroke-opacity:1"
         d="m 2.862206,54.704478 1.645722,-7.877449 c 0,0 5.599196,18.169884 5.654949,19.596014 l 0.954848,24.424708 c 0.05567,1.426134 1.449611,3.243163 1.197356,3.237403 L 5.0078334,93.918248 c -0.252254,-0.0057 0.8649091,-1.216754 0.8474976,-2.644216 L 5.6012669,70.446178 C 5.5838373,69.018718 2.8026347,54.989625 2.8622078,54.704472 Z"
         sodipodi:nodetypes="scsssssss" />
      <path
         id="path15"
         style="fill:#235f31;fill-opacity:1;stroke-width:2.91881"
         d="m 4.0967598,55.422747 0.019563,-4.058622 c 0,0 3.2446164,15.76922 3.3183256,17.012551 l 1.2624081,21.293979 c 0.073786,1.243331 0.5472251,2.821725 0.4746034,2.817797 L 7.0680357,92.37457 c -0.072624,-0.0038 0.1833455,-1.064055 0.1361871,-2.309405 L 6.3971531,68.752239 C 6.349995,67.506898 3.2540848,55.008474 3.3665797,55.230583 Z"
         sodipodi:nodetypes="scssssssss" />
    </g>
    <g
       id="g17"
       transform="matrix(0.85408072,0,0,0.8075512,67.703631,-34.387537)">
      <path
         id="path16"
         style="fill:#102b16;fill-opacity:1;stroke:#08150b;stroke-width:1.433;stroke-dasharray:none;stroke-opacity:1"
         d="m 2.862206,54.704478 1.645722,-7.877449 c 0,0 5.599196,18.169884 5.654949,19.596014 l 0.954848,24.424708 c 0.05567,1.426134 1.449611,3.243163 1.197356,3.237403 L 5.0078334,93.918248 c -0.252254,-0.0057 0.8649091,-1.216754 0.8474976,-2.644216 L 5.6012669,70.446178 C 5.5838373,69.018718 2.8026347,54.989625 2.8622078,54.704472 Z"
         sodipodi:nodetypes="scsssssss" />
      <path
         id="path17"
         style="fill:#235f31;fill-opacity:1;stroke-width:2.91881"
         d="m 4.0967598,55.422747 0.019563,-4.058622 c 0,0 3.2446164,15.76922 3.3183256,17.012551 l 1.2624081,21.293979 c 0.073786,1.243331 0.5472251,2.821725 0.4746034,2.817797 L 7.0680357,92.37457 c -0.072624,-0.0038 0.1833455,-1.064055 0.1361871,-2.309405 L 6.3971531,68.752239 C 6.349995,67.506898 3.2540848,55.008474 3.3665797,55.230583 Z"
         sodipodi:nodetypes="scssssssss" />
    </g>
    <g
       id="g19"
       transform="matrix(0.85408072,0,0,0.8075512,54.811174,-23.701318)">
      <path
         id="path18"
         style="fill:#102b16;fill-opacity:1;stroke:#08150b;stroke-width:1.433;stroke-dasharray:none;stroke-opacity:1"
         d="m 2.862206,54.704478 1.645722,-7.877449 c 0,0 5.599196,18.169884 5.654949,19.596014 l 0.954848,24.424708 c 0.05567,1.426134 1.449611,3.243163 1.197356,3.237403 L 5.0078334,93.918248 c -0.252254,-0.0057 0.8649091,-1.216754 0.8474976,-2.644216 L 5.6012669,70.446178 C 5.5838373,69.018718 2.8026347,54.989625 2.8622078,54.704472 Z"
         sodipodi:nodetypes="scsssssss" />
      <path
         id="path19"
         style="fill:#235f31;fill-opacity:1;stroke-width:2.91881"
         d="m 4.0967598,55.422747 0.019563,-4.058622 c 0,0 3.2446164,15.76922 3.3183256,17.012551 l 1.2624081,21.293979 c 0.073786,1.243331 0.5472251,2.821725 0.4746034,2.817797 L 7.0680357,92.37457 c -0.072624,-0.0038 0.1833455,-1.064055 0.1361871,-2.309405 L 6.3971531,68.752239 C 6.349995,67.506898 3.2540848,55.008474 3.3665797,55.230583 Z"
         sodipodi:nodetypes="scssssssss" />
    </g>
    <g
       id="g21"
       transform="matrix(0.85408072,0,0,0.8075512,64.83785,-23.525754)">
      <path
         id="path20"
         style="fill:#102b16;fill-opacity:1;stroke:#08150b;stroke-width:1.433;stroke-dasharray:none;stroke-opacity:1"
         d="m 2.862206,54.704478 1.645722,-7.877449 c 0,0 5.599196,18.169884 5.654949,19.596014 l 0.954848,24.424708 c 0.05567,1.426134 1.449611,3.243163 1.197356,3.237403 L 5.0078334,93.918248 c -0.252254,-0.0057 0.8649091,-1.216754 0.8474976,-2.644216 L 5.6012669,70.446178 C 5.5838373,69.018718 2.8026347,54.989625 2.8622078,54.704472 Z"
         sodipodi:nodetypes="scsssssss" />
      <path
         id="path21"
         style="fill:#235f31;fill-opacity:1;stroke-width:2.91881"
         d="m 4.0967598,55.422747 0.019563,-4.058622 c 0,0 3.2446164,15.76922 3.3183256,17.012551 l 1.2624081,21.293979 c 0.073786,1.243331 0.5472251,2.821725 0.4746034,2.817797 L 7.0680357,92.37457 c -0.072624,-0.0038 0.1833455,-1.064055 0.1361871,-2.309405 L 6.3971531,68.752239 C 6.349995,67.506898 3.2540848,55.008474 3.3665797,55.230583 Z"
         sodipodi:nodetypes="scssssssss" />
    </g>
    <g
       id="g23"
       transform="matrix(-0.85408072,0,0,0.8075512,92.036352,-31.929647)">
      <path
         id="path22"
         style="fill:#102b16;fill-opacity:1;stroke:#08150b;stroke-width:1.433;stroke-dasharray:none;stroke-opacity:1"
         d="m 2.862206,54.704478 1.645722,-7.877449 c 0,0 5.599196,18.169884 5.654949,19.596014 l 0.954848,24.424708 c 0.05567,1.426134 1.449611,3.243163 1.197356,3.237403 L 5.0078334,93.918248 c -0.252254,-0.0057 0.8649091,-1.216754 0.8474976,-2.644216 L 5.6012669,70.446178 C 5.5838373,69.018718 2.8026347,54.989625 2.8622078,54.704472 Z"
         sodipodi:nodetypes="scsssssss" />
      <path
         id="path23"
         style="fill:#235f31;fill-opacity:1;stroke-width:2.91881"
         d="m 4.0967598,55.422747 0.019563,-4.058622 c 0,0 3.2446164,15.76922 3.3183256,17.012551 l 1.2624081,21.293979 c 0.073786,1.243331 0.5472251,2.821725 0.4746034,2.817797 L 7.0680357,92.37457 c -0.072624,-0.0038 0.1833455,-1.064055 0.1361871,-2.309405 L 6.3971531,68.752239 C 6.349995,67.506898 3.2540848,55.008474 3.3665797,55.230583 Z"
         sodipodi:nodetypes="scssssssss" />
    </g>
    <g
       id="g25"
       transform="matrix(-0.85408072,0,0,0.8075512,86.627162,-25.082668)">
      <path
         id="path24"
         style="fill:#102b16;fill-opacity:1;stroke:#08150b;stroke-width:1.433;stroke-dasharray:none;stroke-opacity:1"
         d="m 2.862206,54.704478 1.645722,-7.877449 c 0,0 5.599196,18.169884 5.654949,19.596014 l 0.954848,24.424708 c 0.05567,1.426134 1.449611,3.243163 1.197356,3.237403 L 5.0078334,93.918248 c -0.252254,-0.0057 0.8649091,-1.216754 0.8474976,-2.644216 L 5.6012669,70.446178 C 5.5838373,69.018718 2.8026347,54.989625 2.8622078,54.704472 Z"
         sodipodi:nodetypes="scsssssss" />
      <path
         id="path25"
         style="fill:#235f31;fill-opacity:1;stroke-width:2.91881"
         d="m 4.0967598,55.422747 0.019563,-4.058622 c 0,0 3.2446164,15.76922 3.3183256,17.012551 l 1.2624081,21.293979 c 0.073786,1.243331 0.5472251,2.821725 0.4746034,2.817797 L 7.0680357,92.37457 c -0.072624,-0.0038 0.1833455,-1.064055 0.1361871,-2.309405 L 6.3971531,68.752239 C 6.349995,67.506898 3.2540848,55.008474 3.3665797,55.230583 Z"
         sodipodi:nodetypes="scssssssss" />
    </g>
    <g
       id="g27"
       transform="matrix(-0.85408072,0,0,0.8075512,96.306974,-24.907104)">
      <path
         id="path26"
         style="fill:#102b16;fill-opacity:1;stroke:#08150b;stroke-width:1.433;stroke-dasharray:none;stroke-opacity:1"
         d="m 2.862206,54.704478 1.645722,-7.877449 c 0,0 5.599196,18.169884 5.654949,19.596014 l 0.954848,24.424708 c 0.05567,1.426134 1.449611,3.243163 1.197356,3.237403 L 5.0078334,93.918248 c -0.252254,-0.0057 0.8649091,-1.216754 0.8474976,-2.644216 L 5.6012669,70.446178 C 5.5838373,69.018718 2.8026347,54.989625 2.8622078,54.704472 Z"
         sodipodi:nodetypes="scsssssss" />
      <path
         id="path27"
         style="fill:#235f31;fill-opacity:1;stroke-width:2.91881"
         d="m 4.0967598,55.422747 0.019563,-4.058622 c 0,0 3.2446164,15.76922 3.3183256,17.012551 l 1.2624081,21.293979 c 0.073786,1.243331 0.5472251,2.821725 0.4746034,2.817797 L 7.0680357,92.37457 c -0.072624,-0.0038 0.1833455,-1.064055 0.1361871,-2.309405 L 6.3971531,68.752239 C 6.349995,67.506898 3.2540848,55.008474 3.3665797,55.230583 Z"
         sodipodi:nodetypes="scssssssss" />
    </g>
    <g
       id="g3"
       transform="matrix(0.51370017,0,0,0.51882336,33.329864,13.550066)">
      <path
         id="path1088"
         style="fill:#31170e;fill-opacity:1;stroke:#1f0f09;stroke-width:1.51244;stroke-opacity:1"
         d="m 48.205399,73.739469 c 6.095232,-2.588318 13.814241,4.156121 19.645977,0.490618 5.831738,-3.665505 9.495402,-12.856212 3.709388,-15.545599 -9.807628,-4.558666 -26.080559,-3.106492 -31.373982,1.185763 -2.766542,2.243294 3.416805,15.823356 8.018617,13.869218 z"
         sodipodi:nodetypes="sssss" />
      <path
         id="path14159"
         style="fill:#471d13;fill-opacity:1;stroke-width:0.842724"
         d="m 44.873728,67.638179 c 3.253493,-1.428306 12.051694,-2.150749 15.187792,-4.091652 3.136094,-1.940909 3.544258,-3.989198 0.264879,-5.611901 -5.558736,-2.750573 -15.995139,0.06206 -18.816141,2.365144 -1.474365,1.203669 0.907132,8.416759 3.363467,7.338411 z"
         sodipodi:nodetypes="ssssss" />
      <path
         id="path873"
         style="fill:#5a3519;fill-opacity:1;stroke:#1f0f09;stroke-width:1.84379;stroke-opacity:1"
         d="m 64.238336,68.72761 c 10.865052,0.621631 13.796389,-10.253962 22.936928,-7.120443 9.140528,3.133518 5.826709,9.284361 5.50878,15.743689 -0.629331,12.78558 -15.691136,5.48181 -36.202372,8.013438 -9.507898,1.173527 -1.236602,-17.151222 7.756664,-16.636684 z"
         sodipodi:nodetypes="sssss" />
      <path
         id="path12396"
         style="fill:#905126;fill-opacity:1;stroke-width:1.21507"
         d="m 64.386147,70.21666 c 7.690984,1.578861 14.877389,-9.541144 21.514238,-7.505829 6.636859,2.035317 -5.348434,8.226455 -5.474533,12.116423 -0.249602,7.699795 -10.69773,4.41e-4 -23.88283,5.00888 -6.043475,2.295651 1.473457,-10.927088 7.843125,-9.619474 z"
         sodipodi:nodetypes="sssss" />
      <path
         id="path162"
         style="fill:#784421;fill-opacity:1;stroke:#1f0f09;stroke-width:1.89546;stroke-opacity:1"
         d="M 51.339603,89.064305 C 46.010096,82.660371 37.352089,94.864588 32.837803,87.304294 28.323516,79.744 29.947665,70.460247 36.465441,66.568453 42.983216,62.67666 65.353033,77.342267 69.867319,84.902562 74.381605,92.462856 55.363302,93.89918 51.339603,89.064305 Z"
         sodipodi:nodetypes="sssss" />
      <path
         id="path11715"
         style="fill:#c9743c;fill-opacity:1;stroke-width:0.985002"
         d="m 45.934294,78.838559 c -2.960753,-3.206293 -7.590155,2.770074 -10.115072,-1.002526 -2.524913,-3.772594 -1.712321,-8.354158 1.814981,-10.233202 3.527302,-1.879045 16.84795,4.023398 19.372863,7.795993 2.524917,3.772599 -8.837449,5.860437 -11.072772,3.439735 z"
         sodipodi:nodetypes="sssss" />
    </g>
  </g>
</svg>
