<?xml version="1.0" encoding="UTF-8" standalone="no"?>
<!-- Created with Inkscape (http://www.inkscape.org/) -->

<svg
   width="100mm"
   height="100mm"
   viewBox="0 0 100 100"
   version="1.1"
   id="svg3527"
   inkscape:version="1.4.2 (ebf0e940d0, 2025-05-08)"
   sodipodi:docname="terra_1.svg"
   xmlns:inkscape="http://www.inkscape.org/namespaces/inkscape"
   xmlns:sodipodi="http://sodipodi.sourceforge.net/DTD/sodipodi-0.dtd"
   xmlns="http://www.w3.org/2000/svg"
   xmlns:svg="http://www.w3.org/2000/svg">
  <sodipodi:namedview
     id="namedview3529"
     pagecolor="#505050"
     bordercolor="#ffffff"
     borderopacity="1"
     inkscape:pageshadow="0"
     inkscape:pageopacity="0"
     inkscape:pagecheckerboard="1"
     inkscape:document-units="mm"
     showgrid="false"
     width="100mm"
     inkscape:zoom="0.86056394"
     inkscape:cx="378.24034"
     inkscape:cy="245.76907"
     inkscape:window-width="1366"
     inkscape:window-height="697"
     inkscape:window-x="0"
     inkscape:window-y="0"
     inkscape:window-maximized="1"
     inkscape:current-layer="layer1"
     inkscape:snap-global="false"
     inkscape:showpageshadow="0"
     inkscape:deskcolor="#505050" />
  <defs
     id="defs3524">
    <filter
       inkscape:label="Matte Ridge"
       inkscape:menu="Ridges"
       inkscape:menu-tooltip="Soft pastel ridge"
       style="color-interpolation-filters:sRGB;"
       id="filter54"
       x="-1.5454835"
       y="-0.090962147"
       width="4.0909669"
       height="1.1819243">
      <feGaussianBlur
         stdDeviation="0.5"
         result="result1"
         id="feGaussianBlur49" />
      <feBlend
         in="SourceGraphic"
         mode="normal"
         result="result5"
         in2="result1"
         id="feBlend49" />
      <feGaussianBlur
         stdDeviation="3"
         result="result6"
         in="result5"
         id="feGaussianBlur50" />
      <feComposite
         operator="xor"
         in="result6"
         in2="result6"
         result="result8"
         id="feComposite50" />
      <feComposite
         operator="in"
         result="fbSourceGraphic"
         in="result6"
         in2="result8"
         id="feComposite51" />
      <feColorMatrix
         result="fbSourceGraphicAlpha"
         in="fbSourceGraphic"
         values="0 0 0 -1 0 0 0 0 -1 0 0 0 0 -1 0 0 0 0 1 0 "
         id="feColorMatrix51" />
      <feSpecularLighting
         specularExponent="55"
         specularConstant="2"
         surfaceScale="2"
         lighting-color="rgb(255,255,255)"
         result="result1"
         in="result0"
         id="feSpecularLighting51">
        <fePointLight
           z="20000"
           y="-10000"
           x="-5000"
           id="fePointLight51" />
      </feSpecularLighting>
      <feComposite
         operator="arithmetic"
         result="result2"
         in="result1"
         in2="fbSourceGraphicAlpha"
         k1="1"
         id="feComposite52" />
      <feComposite
         k3="1.5"
         k2="1.3"
         operator="arithmetic"
         result="result4"
         in="fbSourceGraphic"
         in2="result2"
         id="feComposite53" />
      <feGaussianBlur
         result="result90"
         in="result4"
         stdDeviation="0.5"
         id="feGaussianBlur53" />
      <feComposite
         operator="over"
         in="result9"
         in2="result4"
         result="result91"
         id="feComposite54" />
      <feBlend
         mode="screen"
         in2="result91"
         id="feBlend54" />
    </filter>
  </defs>
  <g
     inkscape:label="Camada 1"
     inkscape:groupmode="layer"
     id="layer1">
    <rect
       style="fill:#4a2115;stroke:none;stroke-width:0.31454;fill-opacity:1"
       id="rect3553"
       width="100.87013"
       height="102.17582"
       x="-0.057540242"
       y="-0.81232357"
       ry="1.072239" />
    <g
       id="g76"
       transform="matrix(0.76298039,0,0,0.49896147,-40.074261,-3.3291136)">
      <g
         id="g63"
         transform="translate(137.65137,-27.66338)">
        <path
           id="path62"
           style="fill:#102b16;fill-opacity:1;stroke:#08150b;stroke-width:1.433;stroke-dasharray:none;stroke-opacity:1"
           d="m 2.862206,54.704478 1.645722,-7.877449 c 0,0 5.599196,18.169884 5.654949,19.596014 l 0.954848,24.424708 c 0.05567,1.426134 1.449611,3.243163 1.197356,3.237403 L 5.0078334,93.918248 c -0.252254,-0.0057 0.8649091,-1.216754 0.8474976,-2.644216 L 5.6012669,70.446178 C 5.5838373,69.018718 2.8026347,54.989625 2.8622078,54.704472 Z"
           sodipodi:nodetypes="scsssssss" />
        <path
           id="path63"
           style="fill:#235f31;fill-opacity:1;stroke-width:2.91881"
           d="m 4.0967598,55.422747 0.019563,-4.058622 c 0,0 3.2446164,15.76922 3.3183256,17.012551 l 1.2624081,21.293979 c 0.073786,1.243331 0.5472251,2.821725 0.4746034,2.817797 L 7.0680357,92.37457 c -0.072624,-0.0038 0.1833455,-1.064055 0.1361871,-2.309405 L 6.3971531,68.752239 C 6.349995,67.506898 3.2540848,55.008474 3.3665797,55.230583 Z"
           sodipodi:nodetypes="scssssssss" />
      </g>
      <g
         id="g65"
         transform="translate(147.96365,-34.374177)">
        <path
           id="path64"
           style="fill:#102b16;fill-opacity:1;stroke:#08150b;stroke-width:1.433;stroke-dasharray:none;stroke-opacity:1"
           d="m 2.862206,54.704478 1.645722,-7.877449 c 0,0 5.599196,18.169884 5.654949,19.596014 l 0.954848,24.424708 c 0.05567,1.426134 1.449611,3.243163 1.197356,3.237403 L 5.0078334,93.918248 c -0.252254,-0.0057 0.8649091,-1.216754 0.8474976,-2.644216 L 5.6012669,70.446178 C 5.5838373,69.018718 2.8026347,54.989625 2.8622078,54.704472 Z"
           sodipodi:nodetypes="scsssssss" />
        <path
           id="path65"
           style="fill:#235f31;fill-opacity:1;stroke-width:2.91881"
           d="m 4.0967598,55.422747 0.019563,-4.058622 c 0,0 3.2446164,15.76922 3.3183256,17.012551 l 1.2624081,21.293979 c 0.073786,1.243331 0.5472251,2.821725 0.4746034,2.817797 L 7.0680357,92.37457 c -0.072624,-0.0038 0.1833455,-1.064055 0.1361871,-2.309405 L 6.3971531,68.752239 C 6.349995,67.506898 3.2540848,55.008474 3.3665797,55.230583 Z"
           sodipodi:nodetypes="scssssssss" />
      </g>
      <g
         id="g67"
         transform="translate(132.86852,-21.141308)">
        <path
           id="path66"
           style="fill:#102b16;fill-opacity:1;stroke:#08150b;stroke-width:1.433;stroke-dasharray:none;stroke-opacity:1"
           d="m 2.862206,54.704478 1.645722,-7.877449 c 0,0 5.599196,18.169884 5.654949,19.596014 l 0.954848,24.424708 c 0.05567,1.426134 1.449611,3.243163 1.197356,3.237403 L 5.0078334,93.918248 c -0.252254,-0.0057 0.8649091,-1.216754 0.8474976,-2.644216 L 5.6012669,70.446178 C 5.5838373,69.018718 2.8026347,54.989625 2.8622078,54.704472 Z"
           sodipodi:nodetypes="scsssssss" />
        <path
           id="path67"
           style="fill:#235f31;fill-opacity:1;stroke-width:2.91881"
           d="m 4.0967598,55.422747 0.019563,-4.058622 c 0,0 3.2446164,15.76922 3.3183256,17.012551 l 1.2624081,21.293979 c 0.073786,1.243331 0.5472251,2.821725 0.4746034,2.817797 L 7.0680357,92.37457 c -0.072624,-0.0038 0.1833455,-1.064055 0.1361871,-2.309405 L 6.3971531,68.752239 C 6.349995,67.506898 3.2540848,55.008474 3.3665797,55.230583 Z"
           sodipodi:nodetypes="scssssssss" />
      </g>
      <g
         id="g69"
         transform="translate(144.60825,-20.923906)">
        <path
           id="path68"
           style="fill:#102b16;fill-opacity:1;stroke:#08150b;stroke-width:1.433;stroke-dasharray:none;stroke-opacity:1"
           d="m 2.862206,54.704478 1.645722,-7.877449 c 0,0 5.599196,18.169884 5.654949,19.596014 l 0.954848,24.424708 c 0.05567,1.426134 1.449611,3.243163 1.197356,3.237403 L 5.0078334,93.918248 c -0.252254,-0.0057 0.8649091,-1.216754 0.8474976,-2.644216 L 5.6012669,70.446178 C 5.5838373,69.018718 2.8026347,54.989625 2.8622078,54.704472 Z"
           sodipodi:nodetypes="scsssssss" />
        <path
           id="path69"
           style="fill:#235f31;fill-opacity:1;stroke-width:2.91881"
           d="m 4.0967598,55.422747 0.019563,-4.058622 c 0,0 3.2446164,15.76922 3.3183256,17.012551 l 1.2624081,21.293979 c 0.073786,1.243331 0.5472251,2.821725 0.4746034,2.817797 L 7.0680357,92.37457 c -0.072624,-0.0038 0.1833455,-1.064055 0.1361871,-2.309405 L 6.3971531,68.752239 C 6.349995,67.506898 3.2540848,55.008474 3.3665797,55.230583 Z"
           sodipodi:nodetypes="scssssssss" />
      </g>
      <g
         id="g71"
         transform="matrix(-1,0,0,1,176.4536,-31.330543)">
        <path
           id="path70"
           style="fill:#102b16;fill-opacity:1;stroke:#08150b;stroke-width:1.433;stroke-dasharray:none;stroke-opacity:1"
           d="m 2.862206,54.704478 1.645722,-7.877449 c 0,0 5.599196,18.169884 5.654949,19.596014 l 0.954848,24.424708 c 0.05567,1.426134 1.449611,3.243163 1.197356,3.237403 L 5.0078334,93.918248 c -0.252254,-0.0057 0.8649091,-1.216754 0.8474976,-2.644216 L 5.6012669,70.446178 C 5.5838373,69.018718 2.8026347,54.989625 2.8622078,54.704472 Z"
           sodipodi:nodetypes="scsssssss" />
        <path
           id="path71"
           style="fill:#235f31;fill-opacity:1;stroke-width:2.91881"
           d="m 4.0967598,55.422747 0.019563,-4.058622 c 0,0 3.2446164,15.76922 3.3183256,17.012551 l 1.2624081,21.293979 c 0.073786,1.243331 0.5472251,2.821725 0.4746034,2.817797 L 7.0680357,92.37457 c -0.072624,-0.0038 0.1833455,-1.064055 0.1361871,-2.309405 L 6.3971531,68.752239 C 6.349995,67.506898 3.2540848,55.008474 3.3665797,55.230583 Z"
           sodipodi:nodetypes="scssssssss" />
      </g>
      <g
         id="g73"
         transform="matrix(-1,0,0,1,170.12025,-22.85185)">
        <path
           id="path72"
           style="fill:#102b16;fill-opacity:1;stroke:#08150b;stroke-width:1.433;stroke-dasharray:none;stroke-opacity:1"
           d="m 2.862206,54.704478 1.645722,-7.877449 c 0,0 5.599196,18.169884 5.654949,19.596014 l 0.954848,24.424708 c 0.05567,1.426134 1.449611,3.243163 1.197356,3.237403 L 5.0078334,93.918248 c -0.252254,-0.0057 0.8649091,-1.216754 0.8474976,-2.644216 L 5.6012669,70.446178 C 5.5838373,69.018718 2.8026347,54.989625 2.8622078,54.704472 Z"
           sodipodi:nodetypes="scsssssss" />
        <path
           id="path73"
           style="fill:#235f31;fill-opacity:1;stroke-width:2.91881"
           d="m 4.0967598,55.422747 0.019563,-4.058622 c 0,0 3.2446164,15.76922 3.3183256,17.012551 l 1.2624081,21.293979 c 0.073786,1.243331 0.5472251,2.821725 0.4746034,2.817797 L 7.0680357,92.37457 c -0.072624,-0.0038 0.1833455,-1.064055 0.1361871,-2.309405 L 6.3971531,68.752239 C 6.349995,67.506898 3.2540848,55.008474 3.3665797,55.230583 Z"
           sodipodi:nodetypes="scssssssss" />
      </g>
      <g
         id="g75"
         transform="matrix(-1,0,0,1,181.45386,-22.634447)">
        <path
           id="path74"
           style="fill:#102b16;fill-opacity:1;stroke:#08150b;stroke-width:1.433;stroke-dasharray:none;stroke-opacity:1"
           d="m 2.862206,54.704478 1.645722,-7.877449 c 0,0 5.599196,18.169884 5.654949,19.596014 l 0.954848,24.424708 c 0.05567,1.426134 1.449611,3.243163 1.197356,3.237403 L 5.0078334,93.918248 c -0.252254,-0.0057 0.8649091,-1.216754 0.8474976,-2.644216 L 5.6012669,70.446178 C 5.5838373,69.018718 2.8026347,54.989625 2.8622078,54.704472 Z"
           sodipodi:nodetypes="scsssssss" />
        <path
           id="path75"
           style="fill:#235f31;fill-opacity:1;stroke-width:2.91881"
           d="m 4.0967598,55.422747 0.019563,-4.058622 c 0,0 3.2446164,15.76922 3.3183256,17.012551 l 1.2624081,21.293979 c 0.073786,1.243331 0.5472251,2.821725 0.4746034,2.817797 L 7.0680357,92.37457 c -0.072624,-0.0038 0.1833455,-1.064055 0.1361871,-2.309405 L 6.3971531,68.752239 C 6.349995,67.506898 3.2540848,55.008474 3.3665797,55.230583 Z"
           sodipodi:nodetypes="scssssssss" />
      </g>
    </g>
    <path
       id="path40"
       style="fill:#000000;stroke-width:2.89999;fill-opacity:0.40490517"
       d="m 54.111799,33.89674 c -10e-7,3.862992 -5.39038,5.555187 -17.986024,4.381211 C 19.632371,36.740684 8.3012418,37.759732 8.3012409,33.89674 8.30124,30.033748 18.556283,26.902174 31.20652,26.902174 c 12.650237,0 22.90528,3.131574 22.905279,6.994566 z"
       sodipodi:nodetypes="sssss" />
    <g
       id="g5905"
       transform="matrix(0.81862201,-0.7891508,-1.6091785,-0.40145713,22.978692,156.50974)">
      <ellipse
         style="fill:#784421;fill-opacity:1;stroke-width:2.979"
         id="ellipse5887"
         cx="63.437008"
         cy="38.173702"
         rx="1.4974537"
         ry="1.5273118" />
      <ellipse
         style="fill:#1a1a1a;fill-opacity:1;stroke-width:2.979"
         id="ellipse5889"
         cx="61.776096"
         cy="40.939117"
         rx="0.87169039"
         ry="0.90865499" />
      <ellipse
         style="fill:#784421;fill-opacity:1;stroke-width:1.36265"
         id="ellipse5891"
         cx="67.202087"
         cy="34.928391"
         rx="0.65503901"
         ry="0.73053241" />
      <ellipse
         style="fill:#1a1a1a;fill-opacity:1;stroke-width:2.979"
         id="ellipse5893"
         cx="66.394806"
         cy="36.231834"
         rx="0.87169039"
         ry="0.90865499" />
      <ellipse
         style="fill:#784421;fill-opacity:1;stroke-width:1.36265"
         id="ellipse5895"
         cx="66.518303"
         cy="32.673805"
         rx="0.65503901"
         ry="0.73053241" />
      <ellipse
         style="fill:#784421;fill-opacity:1;stroke-width:1.36265"
         id="ellipse5897"
         cx="71.227654"
         cy="32.999882"
         rx="0.65503901"
         ry="0.73053241" />
      <ellipse
         style="fill:#784421;fill-opacity:1;stroke-width:1.5727"
         id="ellipse5899"
         cx="69.512672"
         cy="35.424694"
         rx="0.84549206"
         ry="0.75391185" />
      <ellipse
         style="fill:#1a1a1a;fill-opacity:1;stroke-width:2.979"
         id="ellipse5901"
         cx="69.55024"
         cy="33.794304"
         rx="0.87169039"
         ry="0.90865499" />
      <ellipse
         style="fill:#784421;fill-opacity:1;stroke-width:1.7052"
         id="ellipse5903"
         cx="61.484051"
         cy="37.797653"
         rx="0.8695963"
         ry="0.86172533" />
    </g>
    <path
       id="path42"
       style="fill:#000000;fill-opacity:0.404905;stroke-width:3.42429"
       d="m 33.30114,90.35339 c 0.517596,4.332821 7.350745,5.441627 22.630575,2.280761 C 75.939934,88.495143 89.963824,87.979158 89.446228,83.646337 88.928633,79.313517 75.940534,77.302496 60.436496,79.154598 44.932458,81.006699 32.783544,86.02057 33.30114,90.35339 Z"
       sodipodi:nodetypes="sssss" />
    <g
       id="g22"
       transform="matrix(0.81862201,-0.7891508,-1.6091785,-0.40145713,58.643289,111.92899)">
      <ellipse
         style="fill:#784421;fill-opacity:1;stroke-width:2.979"
         id="ellipse14"
         cx="63.437008"
         cy="38.173702"
         rx="1.4974537"
         ry="1.5273118" />
      <ellipse
         style="fill:#1a1a1a;fill-opacity:1;stroke-width:2.979"
         id="ellipse15"
         cx="61.776096"
         cy="40.939117"
         rx="0.87169039"
         ry="0.90865499" />
      <ellipse
         style="fill:#784421;fill-opacity:1;stroke-width:1.36265"
         id="ellipse16"
         cx="67.202087"
         cy="34.928391"
         rx="0.65503901"
         ry="0.73053241" />
      <ellipse
         style="fill:#1a1a1a;fill-opacity:1;stroke-width:2.979"
         id="ellipse17"
         cx="66.394806"
         cy="36.231834"
         rx="0.87169039"
         ry="0.90865499" />
      <ellipse
         style="fill:#784421;fill-opacity:1;stroke-width:1.36265"
         id="ellipse18"
         cx="66.518303"
         cy="32.673805"
         rx="0.65503901"
         ry="0.73053241" />
      <ellipse
         style="fill:#784421;fill-opacity:1;stroke-width:1.36265"
         id="ellipse19"
         cx="71.227654"
         cy="32.999882"
         rx="0.65503901"
         ry="0.73053241" />
      <ellipse
         style="fill:#784421;fill-opacity:1;stroke-width:1.5727"
         id="ellipse20"
         cx="69.512672"
         cy="35.424694"
         rx="0.84549206"
         ry="0.75391185" />
      <ellipse
         style="fill:#1a1a1a;fill-opacity:1;stroke-width:2.979"
         id="ellipse21"
         cx="69.55024"
         cy="33.794304"
         rx="0.87169039"
         ry="0.90865499" />
      <ellipse
         style="fill:#784421;fill-opacity:1;stroke-width:1.7052"
         id="ellipse22"
         cx="61.484051"
         cy="37.797653"
         rx="0.8695963"
         ry="0.86172533" />
    </g>
    <g
       id="g62"
       transform="matrix(0.76298039,0,0,0.49896147,-67.437616,33.872751)">
      <g
         id="g2"
         transform="translate(137.65137,-27.66338)">
        <path
           id="path1"
           style="fill:#102b16;fill-opacity:1;stroke:#08150b;stroke-width:1.433;stroke-dasharray:none;stroke-opacity:1"
           d="m 2.862206,54.704478 1.645722,-7.877449 c 0,0 5.599196,18.169884 5.654949,19.596014 l 0.954848,24.424708 c 0.05567,1.426134 1.449611,3.243163 1.197356,3.237403 L 5.0078334,93.918248 c -0.252254,-0.0057 0.8649091,-1.216754 0.8474976,-2.644216 L 5.6012669,70.446178 C 5.5838373,69.018718 2.8026347,54.989625 2.8622078,54.704472 Z"
           sodipodi:nodetypes="scsssssss" />
        <path
           id="path2"
           style="fill:#235f31;fill-opacity:1;stroke-width:2.91881"
           d="m 4.0967598,55.422747 0.019563,-4.058622 c 0,0 3.2446164,15.76922 3.3183256,17.012551 l 1.2624081,21.293979 c 0.073786,1.243331 0.5472251,2.821725 0.4746034,2.817797 L 7.0680357,92.37457 c -0.072624,-0.0038 0.1833455,-1.064055 0.1361871,-2.309405 L 6.3971531,68.752239 C 6.349995,67.506898 3.2540848,55.008474 3.3665797,55.230583 Z"
           sodipodi:nodetypes="scssssssss" />
      </g>
      <g
         id="g6"
         transform="translate(147.96365,-34.374177)">
        <path
           id="path5-4"
           style="fill:#102b16;fill-opacity:1;stroke:#08150b;stroke-width:1.433;stroke-dasharray:none;stroke-opacity:1"
           d="m 2.862206,54.704478 1.645722,-7.877449 c 0,0 5.599196,18.169884 5.654949,19.596014 l 0.954848,24.424708 c 0.05567,1.426134 1.449611,3.243163 1.197356,3.237403 L 5.0078334,93.918248 c -0.252254,-0.0057 0.8649091,-1.216754 0.8474976,-2.644216 L 5.6012669,70.446178 C 5.5838373,69.018718 2.8026347,54.989625 2.8622078,54.704472 Z"
           sodipodi:nodetypes="scsssssss" />
        <path
           id="path6-7"
           style="fill:#235f31;fill-opacity:1;stroke-width:2.91881"
           d="m 4.0967598,55.422747 0.019563,-4.058622 c 0,0 3.2446164,15.76922 3.3183256,17.012551 l 1.2624081,21.293979 c 0.073786,1.243331 0.5472251,2.821725 0.4746034,2.817797 L 7.0680357,92.37457 c -0.072624,-0.0038 0.1833455,-1.064055 0.1361871,-2.309405 L 6.3971531,68.752239 C 6.349995,67.506898 3.2540848,55.008474 3.3665797,55.230583 Z"
           sodipodi:nodetypes="scssssssss" />
      </g>
      <g
         id="g1"
         transform="translate(132.86852,-21.141308)">
        <path
           id="path10154"
           style="fill:#102b16;fill-opacity:1;stroke:#08150b;stroke-width:1.433;stroke-dasharray:none;stroke-opacity:1"
           d="m 2.862206,54.704478 1.645722,-7.877449 c 0,0 5.599196,18.169884 5.654949,19.596014 l 0.954848,24.424708 c 0.05567,1.426134 1.449611,3.243163 1.197356,3.237403 L 5.0078334,93.918248 c -0.252254,-0.0057 0.8649091,-1.216754 0.8474976,-2.644216 L 5.6012669,70.446178 C 5.5838373,69.018718 2.8026347,54.989625 2.8622078,54.704472 Z"
           sodipodi:nodetypes="scsssssss" />
        <path
           id="path10156"
           style="fill:#235f31;fill-opacity:1;stroke-width:2.91881"
           d="m 4.0967598,55.422747 0.019563,-4.058622 c 0,0 3.2446164,15.76922 3.3183256,17.012551 l 1.2624081,21.293979 c 0.073786,1.243331 0.5472251,2.821725 0.4746034,2.817797 L 7.0680357,92.37457 c -0.072624,-0.0038 0.1833455,-1.064055 0.1361871,-2.309405 L 6.3971531,68.752239 C 6.349995,67.506898 3.2540848,55.008474 3.3665797,55.230583 Z"
           sodipodi:nodetypes="scssssssss" />
      </g>
      <g
         id="g4"
         transform="translate(144.60825,-20.923906)">
        <path
           id="path3-6"
           style="fill:#102b16;fill-opacity:1;stroke:#08150b;stroke-width:1.433;stroke-dasharray:none;stroke-opacity:1"
           d="m 2.862206,54.704478 1.645722,-7.877449 c 0,0 5.599196,18.169884 5.654949,19.596014 l 0.954848,24.424708 c 0.05567,1.426134 1.449611,3.243163 1.197356,3.237403 L 5.0078334,93.918248 c -0.252254,-0.0057 0.8649091,-1.216754 0.8474976,-2.644216 L 5.6012669,70.446178 C 5.5838373,69.018718 2.8026347,54.989625 2.8622078,54.704472 Z"
           sodipodi:nodetypes="scsssssss" />
        <path
           id="path4-5"
           style="fill:#235f31;fill-opacity:1;stroke-width:2.91881"
           d="m 4.0967598,55.422747 0.019563,-4.058622 c 0,0 3.2446164,15.76922 3.3183256,17.012551 l 1.2624081,21.293979 c 0.073786,1.243331 0.5472251,2.821725 0.4746034,2.817797 L 7.0680357,92.37457 c -0.072624,-0.0038 0.1833455,-1.064055 0.1361871,-2.309405 L 6.3971531,68.752239 C 6.349995,67.506898 3.2540848,55.008474 3.3665797,55.230583 Z"
           sodipodi:nodetypes="scssssssss" />
      </g>
      <g
         id="g10"
         transform="matrix(-1,0,0,1,176.4536,-31.330543)">
        <path
           id="path9-6"
           style="fill:#102b16;fill-opacity:1;stroke:#08150b;stroke-width:1.433;stroke-dasharray:none;stroke-opacity:1"
           d="m 2.862206,54.704478 1.645722,-7.877449 c 0,0 5.599196,18.169884 5.654949,19.596014 l 0.954848,24.424708 c 0.05567,1.426134 1.449611,3.243163 1.197356,3.237403 L 5.0078334,93.918248 c -0.252254,-0.0057 0.8649091,-1.216754 0.8474976,-2.644216 L 5.6012669,70.446178 C 5.5838373,69.018718 2.8026347,54.989625 2.8622078,54.704472 Z"
           sodipodi:nodetypes="scsssssss" />
        <path
           id="path10-9"
           style="fill:#235f31;fill-opacity:1;stroke-width:2.91881"
           d="m 4.0967598,55.422747 0.019563,-4.058622 c 0,0 3.2446164,15.76922 3.3183256,17.012551 l 1.2624081,21.293979 c 0.073786,1.243331 0.5472251,2.821725 0.4746034,2.817797 L 7.0680357,92.37457 c -0.072624,-0.0038 0.1833455,-1.064055 0.1361871,-2.309405 L 6.3971531,68.752239 C 6.349995,67.506898 3.2540848,55.008474 3.3665797,55.230583 Z"
           sodipodi:nodetypes="scssssssss" />
      </g>
      <g
         id="g8"
         transform="matrix(-1,0,0,1,170.12025,-22.85185)">
        <path
           id="path7-3"
           style="fill:#102b16;fill-opacity:1;stroke:#08150b;stroke-width:1.433;stroke-dasharray:none;stroke-opacity:1"
           d="m 2.862206,54.704478 1.645722,-7.877449 c 0,0 5.599196,18.169884 5.654949,19.596014 l 0.954848,24.424708 c 0.05567,1.426134 1.449611,3.243163 1.197356,3.237403 L 5.0078334,93.918248 c -0.252254,-0.0057 0.8649091,-1.216754 0.8474976,-2.644216 L 5.6012669,70.446178 C 5.5838373,69.018718 2.8026347,54.989625 2.8622078,54.704472 Z"
           sodipodi:nodetypes="scsssssss" />
        <path
           id="path8-7"
           style="fill:#235f31;fill-opacity:1;stroke-width:2.91881"
           d="m 4.0967598,55.422747 0.019563,-4.058622 c 0,0 3.2446164,15.76922 3.3183256,17.012551 l 1.2624081,21.293979 c 0.073786,1.243331 0.5472251,2.821725 0.4746034,2.817797 L 7.0680357,92.37457 c -0.072624,-0.0038 0.1833455,-1.064055 0.1361871,-2.309405 L 6.3971531,68.752239 C 6.349995,67.506898 3.2540848,55.008474 3.3665797,55.230583 Z"
           sodipodi:nodetypes="scssssssss" />
      </g>
      <g
         id="g12"
         transform="matrix(-1,0,0,1,181.45386,-22.634447)">
        <path
           id="path11-4"
           style="fill:#102b16;fill-opacity:1;stroke:#08150b;stroke-width:1.433;stroke-dasharray:none;stroke-opacity:1"
           d="m 2.862206,54.704478 1.645722,-7.877449 c 0,0 5.599196,18.169884 5.654949,19.596014 l 0.954848,24.424708 c 0.05567,1.426134 1.449611,3.243163 1.197356,3.237403 L 5.0078334,93.918248 c -0.252254,-0.0057 0.8649091,-1.216754 0.8474976,-2.644216 L 5.6012669,70.446178 C 5.5838373,69.018718 2.8026347,54.989625 2.8622078,54.704472 Z"
           sodipodi:nodetypes="scsssssss" />
        <path
           id="path12-5"
           style="fill:#235f31;fill-opacity:1;stroke-width:2.91881"
           d="m 4.0967598,55.422747 0.019563,-4.058622 c 0,0 3.2446164,15.76922 3.3183256,17.012551 l 1.2624081,21.293979 c 0.073786,1.243331 0.5472251,2.821725 0.4746034,2.817797 L 7.0680357,92.37457 c -0.072624,-0.0038 0.1833455,-1.064055 0.1361871,-2.309405 L 6.3971531,68.752239 C 6.349995,67.506898 3.2540848,55.008474 3.3665797,55.230583 Z"
           sodipodi:nodetypes="scssssssss" />
      </g>
    </g>
    <g
       id="g3">
      <path
         id="path1088"
         style="fill:#31170e;fill-opacity:1;stroke-width:1.51244;stroke:#1f0f09;stroke-opacity:1"
         d="m 48.205399,73.739469 c 6.095232,-2.588318 13.814241,4.156121 19.645977,0.490618 5.831738,-3.665505 9.495402,-12.856212 3.709388,-15.545599 -9.807628,-4.558666 -26.080559,-3.106492 -31.373982,1.185763 -2.766542,2.243294 3.416805,15.823356 8.018617,13.869218 z"
         sodipodi:nodetypes="sssss" />
      <path
         id="path14159"
         style="fill:#471d13;fill-opacity:1;stroke-width:0.842724"
         d="m 44.873728,67.638179 c 3.253493,-1.428306 12.051694,-2.150749 15.187792,-4.091652 3.136094,-1.940909 3.544258,-3.989198 0.264879,-5.611901 -5.558736,-2.750573 -15.995139,0.06206 -18.816141,2.365144 -1.474365,1.203669 0.907132,8.416759 3.363467,7.338411 z"
         sodipodi:nodetypes="ssssss" />
      <path
         id="path873"
         style="fill:#5a3519;fill-opacity:1;stroke-width:1.84379;stroke:#1f0f09;stroke-opacity:1"
         d="m 64.238336,68.72761 c 10.865052,0.621631 13.796389,-10.253962 22.936928,-7.120443 9.140528,3.133518 5.826709,9.284361 5.50878,15.743689 -0.629331,12.78558 -15.691136,5.48181 -36.202372,8.013438 -9.507898,1.173527 -1.236602,-17.151222 7.756664,-16.636684 z"
         sodipodi:nodetypes="sssss" />
      <path
         id="path12396"
         style="fill:#905126;fill-opacity:1;stroke-width:1.21507"
         d="m 64.386147,70.21666 c 7.690984,1.578861 14.877389,-9.541144 21.514238,-7.505829 6.636859,2.035317 -5.348434,8.226455 -5.474533,12.116423 -0.249602,7.699795 -10.69773,4.41e-4 -23.88283,5.00888 -6.043475,2.295651 1.473457,-10.927088 7.843125,-9.619474 z"
         sodipodi:nodetypes="sssss" />
      <path
         id="path162"
         style="fill:#784421;fill-opacity:1;stroke-width:1.89546;stroke:#1f0f09;stroke-opacity:1"
         d="M 51.339603,89.064305 C 46.010096,82.660371 37.352089,94.864588 32.837803,87.304294 28.323516,79.744 29.947665,70.460247 36.465441,66.568453 42.983216,62.67666 65.353033,77.342267 69.867319,84.902562 74.381605,92.462856 55.363302,93.89918 51.339603,89.064305 Z"
         sodipodi:nodetypes="sssss" />
      <path
         id="path11715"
         style="fill:#c9743c;fill-opacity:1;stroke-width:0.985002"
         d="m 45.934294,78.838559 c -2.960753,-3.206293 -7.590155,2.770074 -10.115072,-1.002526 -2.524913,-3.772594 -1.712321,-8.354158 1.814981,-10.233202 3.527302,-1.879045 16.84795,4.023398 19.372863,7.795993 2.524917,3.772599 -8.837449,5.860437 -11.072772,3.439735 z"
         sodipodi:nodetypes="sssss" />
    </g>
    <path
       id="path3"
       style="fill:#31170e;fill-opacity:1;stroke:#1f0f09;stroke-width:1.27386;stroke-opacity:1"
       d="m 18.736613,21.047389 c 5.116232,-2.187494 11.595435,3.512507 16.490494,0.414641 4.89506,-3.097868 7.970276,-10.86531 3.113596,-13.1382212 C 30.108349,4.4710938 16.449132,5.6983854 12.005924,9.3259456 9.6837366,11.221845 14.873931,22.698911 18.736613,21.047389 Z"
       sodipodi:nodetypes="sssss" />
    <path
       id="path4"
       style="fill:#471d13;fill-opacity:1;stroke-width:0.70979"
       d="m 15.940066,15.890939 c 2.730926,-1.20712 10.115984,-1.817686 12.74837,-3.458022 2.632383,-1.640342 2.974989,-3.3714346 0.222335,-4.7428472 -4.665907,-2.3246217 -13.426044,0.052449 -15.793944,1.9988799 -1.237556,1.0172703 0.761431,7.1133473 2.823236,6.2019913 z"
       sodipodi:nodetypes="ssssss" />
    <path
       id="path44"
       style="fill-opacity:0.404905;stroke-width:2.60082"
       d="m 15.197344,24.734839 c -3.646951,8.18076 6.995653,1.138087 14.221725,4.816205 6.773415,3.447712 13.550066,-2.00173 13.550066,-6.815175 0,-4.813444 -6.785089,-10.794441 -13.838665,-6.956417 -6.648565,3.617648 -13.091547,7.067575 -13.933126,8.955387 z"
       sodipodi:nodetypes="sssss" />
    <path
       id="path5"
       style="fill:#5a3519;fill-opacity:1;stroke:#1f0f09;stroke-width:1.55294;stroke-opacity:1"
       d="m 32.194383,16.811662 c 9.119938,0.525366 11.580451,-8.6660427 19.252862,-6.017778 7.672401,2.648264 4.890839,7.846593 4.623975,13.305636 -0.52825,10.805616 -13.170869,4.632901 -30.387646,6.772484 -7.980766,0.991795 -1.037983,-14.495199 6.510809,-14.060342 z"
       sodipodi:nodetypes="sssss" />
    <path
       id="path6"
       style="fill:#905126;fill-opacity:1;stroke-width:1.0234"
       d="m 32.318453,18.070119 c 6.45568,1.33436 12.487824,-8.063611 18.058681,-6.343483 5.570864,1.720129 -4.489384,6.952513 -4.595229,10.240084 -0.209512,6.507412 -8.97949,3.73e-4 -20.046835,4.23321 -5.072789,1.940148 1.236794,-9.234929 6.583383,-8.129811 z"
       sodipodi:nodetypes="sssss" />
    <path
       id="path43"
       style="fill-opacity:0.404905;stroke-width:2.88424"
       d="m 36.46789,25.443906 c 3.646951,10.060876 -6.995653,1.399644 -14.221725,5.923073 -6.773415,4.240072 -13.5500667,-2.461771 -13.5500667,-8.38145 3e-7,-5.919679 6.7850897,-13.2752392 13.8386657,-8.555154 6.648565,4.449063 13.091547,8.691858 13.933126,11.013531 z"
       sodipodi:nodetypes="sssss" />
    <path
       id="path7"
       style="fill:#784421;fill-opacity:1;stroke:#1f0f09;stroke-width:1.59646;stroke-opacity:1"
       d="M 21.36741,33.999034 C 16.893913,28.586808 9.6265318,38.90109 5.8373181,32.511577 2.0481035,26.122063 3.4113861,18.275984 8.8822948,14.98687 14.353203,11.697757 33.130041,24.092261 36.919255,30.481775 c 3.789213,6.389513 -12.174422,7.60341 -15.551845,3.517259 z"
       sodipodi:nodetypes="sssss" />
    <path
       id="path8"
       style="fill:#c9743c;fill-opacity:1;stroke-width:0.829625"
       d="M 16.830287,25.356838 C 14.345082,22.647069 10.459241,27.697941 8.3398697,24.509562 6.2205013,21.321189 6.902577,17.449122 9.8633334,15.861065 12.82409,14.273007 24.005212,19.261403 26.12458,22.449777 c 2.119372,3.188378 -7.418002,4.952895 -9.294293,2.907061 z"
       sodipodi:nodetypes="sssss" />
    <path
       id="path41"
       style="fill:#000000;fill-opacity:0.404905;stroke-width:2.73987"
       d="m 49.03882,43.274069 c 0,3.862992 4.81155,5.555187 16.054642,4.381211 14.7223,-1.537267 24.836664,-0.518219 24.836664,-4.381211 0,-3.862992 -9.153829,-6.994566 -20.445652,-6.994566 -11.291822,0 -20.445654,3.131574 -20.445654,6.994566 z"
       sodipodi:nodetypes="sssss" />
    <g
       id="g14"
       transform="matrix(-0.65019876,0,0,0.6825826,112.28636,-16.949772)">
      <path
         id="path9"
         style="fill:#31170e;fill-opacity:1;stroke:#1f0f09;stroke-width:1.51244;stroke-opacity:1"
         d="m 48.205399,73.739469 c 6.095232,-2.588318 13.814241,4.156121 19.645977,0.490618 5.831738,-3.665505 9.495402,-12.856212 3.709388,-15.545599 -9.807628,-4.558666 -26.080559,-3.106492 -31.373982,1.185763 -2.766542,2.243294 3.416805,15.823356 8.018617,13.869218 z"
         sodipodi:nodetypes="sssss" />
      <path
         id="path10"
         style="fill:#471d13;fill-opacity:1;stroke-width:0.842724"
         d="m 44.873728,67.638179 c 3.253493,-1.428306 12.051694,-2.150749 15.187792,-4.091652 3.136094,-1.940909 3.544258,-3.989198 0.264879,-5.611901 -5.558736,-2.750573 -15.995139,0.06206 -18.816141,2.365144 -1.474365,1.203669 0.907132,8.416759 3.363467,7.338411 z"
         sodipodi:nodetypes="ssssss" />
      <path
         id="path11"
         style="fill:#5a3519;fill-opacity:1;stroke:#1f0f09;stroke-width:1.84379;stroke-opacity:1"
         d="m 64.238336,68.72761 c 10.865052,0.621631 13.796389,-10.253962 22.936928,-7.120443 9.140528,3.133518 5.826709,9.284361 5.50878,15.743689 -0.629331,12.78558 -15.691136,5.48181 -36.202372,8.013438 -9.507898,1.173527 -1.236602,-17.151222 7.756664,-16.636684 z"
         sodipodi:nodetypes="sssss" />
      <path
         id="path12"
         style="fill:#905126;fill-opacity:1;stroke-width:1.21507"
         d="m 64.386147,70.21666 c 7.690984,1.578861 14.877389,-9.541144 21.514238,-7.505829 6.636859,2.035317 -5.348434,8.226455 -5.474533,12.116423 -0.249602,7.699795 -10.69773,4.41e-4 -23.88283,5.00888 -6.043475,2.295651 1.473457,-10.927088 7.843125,-9.619474 z"
         sodipodi:nodetypes="sssss" />
      <path
         id="path13"
         style="fill:#784421;fill-opacity:1;stroke:#1f0f09;stroke-width:1.89546;stroke-opacity:1"
         d="M 51.339603,89.064305 C 46.010096,82.660371 37.352089,94.864588 32.837803,87.304294 28.323516,79.744 29.947665,70.460247 36.465441,66.568453 42.983216,62.67666 65.353033,77.342267 69.867319,84.902562 74.381605,92.462856 55.363302,93.89918 51.339603,89.064305 Z"
         sodipodi:nodetypes="sssss" />
      <path
         id="path14"
         style="fill:#c9743c;fill-opacity:1;stroke-width:0.985002"
         d="m 45.934294,78.838559 c -2.960753,-3.206293 -7.590155,2.770074 -10.115072,-1.002526 -2.524913,-3.772594 -1.712321,-8.354158 1.814981,-10.233202 3.527302,-1.879045 16.84795,4.023398 19.372863,7.795993 2.524917,3.772599 -8.837449,5.860437 -11.072772,3.439735 z"
         sodipodi:nodetypes="sssss" />
    </g>
    <g
       id="g31"
       transform="matrix(1.0128624,-0.51673087,-1.422673,-0.8524229,3.0940395,105.03517)">
      <ellipse
         style="fill:#784421;fill-opacity:1;stroke-width:2.979"
         id="ellipse23"
         cx="63.437008"
         cy="38.173702"
         rx="1.4974537"
         ry="1.5273118" />
      <ellipse
         style="fill:#1a1a1a;fill-opacity:1;stroke-width:2.979"
         id="ellipse24"
         cx="61.776096"
         cy="40.939117"
         rx="0.87169039"
         ry="0.90865499" />
      <ellipse
         style="fill:#784421;fill-opacity:1;stroke-width:1.36265"
         id="ellipse25"
         cx="67.202087"
         cy="34.928391"
         rx="0.65503901"
         ry="0.73053241" />
      <ellipse
         style="fill:#1a1a1a;fill-opacity:1;stroke-width:2.979"
         id="ellipse26"
         cx="66.394806"
         cy="36.231834"
         rx="0.87169039"
         ry="0.90865499" />
      <ellipse
         style="fill:#784421;fill-opacity:1;stroke-width:1.36265"
         id="ellipse27"
         cx="66.518303"
         cy="32.673805"
         rx="0.65503901"
         ry="0.73053241" />
      <ellipse
         style="fill:#784421;fill-opacity:1;stroke-width:1.36265"
         id="ellipse28"
         cx="71.227654"
         cy="32.999882"
         rx="0.65503901"
         ry="0.73053241" />
      <ellipse
         style="fill:#784421;fill-opacity:1;stroke-width:1.5727"
         id="ellipse29"
         cx="69.512672"
         cy="35.424694"
         rx="0.84549206"
         ry="0.75391185" />
      <ellipse
         style="fill:#1a1a1a;fill-opacity:1;stroke-width:2.979"
         id="ellipse30"
         cx="69.55024"
         cy="33.794304"
         rx="0.87169039"
         ry="0.90865499" />
      <ellipse
         style="fill:#784421;fill-opacity:1;stroke-width:1.7052"
         id="ellipse31"
         cx="61.484051"
         cy="37.797653"
         rx="0.8695963"
         ry="0.86172533" />
    </g>
    <g
       id="g40"
       transform="matrix(1.0128624,-0.51673087,-1.422673,-0.8524229,69.196527,155.76498)">
      <ellipse
         style="fill:#784421;fill-opacity:1;stroke-width:2.979"
         id="ellipse32"
         cx="63.437008"
         cy="38.173702"
         rx="1.4974537"
         ry="1.5273118" />
      <ellipse
         style="fill:#1a1a1a;fill-opacity:1;stroke-width:2.979"
         id="ellipse33"
         cx="61.776096"
         cy="40.939117"
         rx="0.87169039"
         ry="0.90865499" />
      <ellipse
         style="fill:#784421;fill-opacity:1;stroke-width:1.36265"
         id="ellipse34"
         cx="67.202087"
         cy="34.928391"
         rx="0.65503901"
         ry="0.73053241" />
      <ellipse
         style="fill:#1a1a1a;fill-opacity:1;stroke-width:2.979"
         id="ellipse35"
         cx="66.394806"
         cy="36.231834"
         rx="0.87169039"
         ry="0.90865499" />
      <ellipse
         style="fill:#784421;fill-opacity:1;stroke-width:1.36265"
         id="ellipse36"
         cx="66.518303"
         cy="32.673805"
         rx="0.65503901"
         ry="0.73053241" />
      <ellipse
         style="fill:#784421;fill-opacity:1;stroke-width:1.36265"
         id="ellipse37"
         cx="71.227654"
         cy="32.999882"
         rx="0.65503901"
         ry="0.73053241" />
      <ellipse
         style="fill:#784421;fill-opacity:1;stroke-width:1.5727"
         id="ellipse38"
         cx="69.512672"
         cy="35.424694"
         rx="0.84549206"
         ry="0.75391185" />
      <ellipse
         style="fill:#1a1a1a;fill-opacity:1;stroke-width:2.979"
         id="ellipse39"
         cx="69.55024"
         cy="33.794304"
         rx="0.87169039"
         ry="0.90865499" />
      <ellipse
         style="fill:#784421;fill-opacity:1;stroke-width:1.7052"
         id="ellipse40"
         cx="61.484051"
         cy="37.797653"
         rx="0.8695963"
         ry="0.86172533" />
    </g>
    <g
       id="g9"
       transform="matrix(0.23001642,-0.23746723,0.22784104,0.29050626,59.234348,60.044838)">
      <path
         id="path4-6"
         style="fill:#225e22;fill-opacity:1;stroke-width:2.11989"
         d="m 44.676477,45.046567 c -0.456845,3.62319 -11.30265,-6.792628 -15.966986,-6.770873 -5.500456,0.02566 -13.980657,0.08134 -16.438645,-3.457792 -2.034278,-2.929057 13.986433,0.619104 19.439232,1.306644 5.452799,0.687539 13.423245,5.298834 12.966399,8.922021 z"
         sodipodi:nodetypes="sssss" />
      <path
         id="path5-1"
         style="fill:#225e22;stroke-width:2.53931"
         d="m 35.828801,39.263078 c 0,4.54262 -6.734827,4.824874 -12.069651,5.577551 C 17.468016,45.728232 3.880352,40.311236 0.55668554,36.325935 -2.1940463,33.027621 17.419642,28.390359 23.75915,28.390359 c 6.339508,0 12.069651,6.330105 12.069651,10.872719 z"
         sodipodi:nodetypes="sssss" />
      <path
         id="path6-5"
         style="fill:#174017;fill-opacity:1;stroke-width:1.46868"
         d="m 35.063526,38.932089 c 0,1.752843 -12.06361,-2.556067 -16.688582,-2.265635 C 12.920907,37.00895 4.5142897,37.544665 1.6328699,36.006873 -0.75184987,34.734166 15.586879,35.461877 21.082853,35.461877 c 5.495973,0 13.980673,1.717371 13.980673,3.470212 z"
         sodipodi:nodetypes="sssss" />
      <rect
         style="fill:#174017;fill-opacity:1;stroke-width:2.979"
         id="rect6"
         width="1.5164093"
         height="8.1990547"
         x="11.352146"
         y="32.581093"
         rx="0.25083929"
         ry="1.2203165" />
      <rect
         style="fill:#174017;fill-opacity:1;stroke-width:2.979"
         id="rect7"
         width="2.0263655"
         height="11.971917"
         x="18.841402"
         y="30.474119"
         rx="0.25083929"
         ry="1.2203165" />
      <rect
         style="fill:#174017;fill-opacity:1;stroke-width:2.979"
         id="rect8"
         width="2.0127888"
         height="8.4114799"
         x="27.443251"
         y="32.629051"
         rx="0.25083929"
         ry="1.2203165" />
      <rect
         style="fill:#174017;fill-opacity:1;stroke-width:2.979"
         id="rect9"
         width="1.0963677"
         height="4.4322958"
         x="4.2030797"
         y="33.825947"
         rx="0.25083929"
         ry="1.2203165" />
    </g>
    <ellipse
       style="fill:#000000;fill-opacity:0.404905;stroke:none;stroke-width:2.89999;stroke-opacity:1"
       id="path61"
       cx="18.316153"
       cy="73.400482"
       rx="7.1199288"
       ry="1.6033427" />
    <g
       id="g61"
       transform="matrix(0.32772426,-0.04353214,-0.00154643,0.36919241,10.75571,58.141057)">
      <path
         id="path56"
         style="fill:#225e22;fill-opacity:1;stroke-width:2.11989"
         d="m 44.676477,45.046567 c -0.456845,3.62319 -11.30265,-6.792628 -15.966986,-6.770873 -5.500456,0.02566 -13.980657,0.08134 -16.438645,-3.457792 -2.034278,-2.929057 13.986433,0.619104 19.439232,1.306644 5.452799,0.687539 13.423245,5.298834 12.966399,8.922021 z"
         sodipodi:nodetypes="sssss" />
      <path
         id="path57"
         style="fill:#225e22;stroke-width:2.53931"
         d="m 35.828801,39.263078 c 0,4.54262 -6.734827,4.824874 -12.069651,5.577551 C 17.468016,45.728232 3.880352,40.311236 0.55668554,36.325935 -2.1940463,33.027621 17.419642,28.390359 23.75915,28.390359 c 6.339508,0 12.069651,6.330105 12.069651,10.872719 z"
         sodipodi:nodetypes="sssss" />
      <path
         id="path58"
         style="fill:#174017;fill-opacity:1;stroke-width:1.46868"
         d="m 35.063526,38.932089 c 0,1.752843 -12.06361,-2.556067 -16.688582,-2.265635 C 12.920907,37.00895 4.5142897,37.544665 1.6328699,36.006873 -0.75184987,34.734166 15.586879,35.461877 21.082853,35.461877 c 5.495973,0 13.980673,1.717371 13.980673,3.470212 z"
         sodipodi:nodetypes="sssss" />
      <rect
         style="fill:#174017;fill-opacity:1;stroke-width:2.979"
         id="rect58"
         width="1.5164093"
         height="8.1990547"
         x="11.352146"
         y="32.581093"
         rx="0.25083929"
         ry="1.2203165" />
      <rect
         style="fill:#174017;fill-opacity:1;stroke-width:2.979"
         id="rect59"
         width="2.0263655"
         height="11.971917"
         x="18.841402"
         y="30.474119"
         rx="0.25083929"
         ry="1.2203165" />
      <rect
         style="fill:#174017;fill-opacity:1;stroke-width:2.979"
         id="rect60"
         width="2.0127888"
         height="8.4114799"
         x="27.443251"
         y="32.629051"
         rx="0.25083929"
         ry="1.2203165" />
      <rect
         style="fill:#174017;fill-opacity:1;stroke-width:2.979"
         id="rect61"
         width="1.0963677"
         height="4.4322958"
         x="4.2030797"
         y="33.825947"
         rx="0.25083929"
         ry="1.2203165" />
    </g>
  </g>
</svg>
