<?xml version="1.0" encoding="UTF-8" standalone="no"?>
<!-- Created with Inkscape (http://www.inkscape.org/) -->

<svg
   width="100"
   height="100"
   viewBox="0 0 26.458333 26.458334"
   version="1.1"
   id="svg5"
   inkscape:version="1.4.2 (ebf0e940d0, 2025-05-08)"
   sodipodi:docname="escudeiro[0][2].svg"
   xml:space="preserve"
   xmlns:inkscape="http://www.inkscape.org/namespaces/inkscape"
   xmlns:sodipodi="http://sodipodi.sourceforge.net/DTD/sodipodi-0.dtd"
   xmlns="http://www.w3.org/2000/svg"
   xmlns:svg="http://www.w3.org/2000/svg"><sodipodi:namedview
     id="namedview7"
     pagecolor="#505050"
     bordercolor="#ffffff"
     borderopacity="1"
     inkscape:pageshadow="0"
     inkscape:pageopacity="0"
     inkscape:pagecheckerboard="1"
     inkscape:document-units="px"
     showgrid="false"
     units="px"
     width="100px"
     inkscape:snap-global="false"
     inkscape:zoom="16"
     inkscape:cx="55.90625"
     inkscape:cy="99.28125"
     inkscape:window-width="1366"
     inkscape:window-height="697"
     inkscape:window-x="0"
     inkscape:window-y="0"
     inkscape:window-maximized="1"
     inkscape:current-layer="layer1"
     inkscape:showpageshadow="0"
     inkscape:deskcolor="#505050" /><defs
     id="defs2"><linearGradient
       id="linearGradient13895"
       inkscape:swatch="solid"><stop
         style="stop-color:#000000;stop-opacity:1;"
         offset="0"
         id="stop13893" /></linearGradient><filter
       style="color-interpolation-filters:sRGB;"
       inkscape:label="Clean Edges"
       id="filter14269"
       x="-0.31154084"
       y="-0.29580634"
       width="1.6230817"
       height="1.5916127"><feGaussianBlur
         stdDeviation="0.204612"
         result="blur"
         id="feGaussianBlur14263" /><feComposite
         in="SourceGraphic"
         in2="blur"
         operator="in"
         result="composite1"
         id="feComposite14265" /><feComposite
         in="composite1"
         in2="composite1"
         operator="in"
         result="composite2"
         id="feComposite14267" /></filter><inkscape:path-effect
       effect="fillet_chamfer"
       id="path-effect68"
       is_visible="true"
       lpeversion="1"
       nodesatellites_param="F,0,0,1,0,0,0,1 @ F,0,0,1,0,0,0,1 @ F,0,0,1,0,0,0,1 @ F,0,0,1,0,0,0,1 @ F,0,0,1,0,0,0,1 @ F,0,0,1,0,0,0,1 @ F,0,0,1,0,0,0,1 @ F,0,0,1,0,0,0,1 @ F,0,0,1,0,0,0,1"
       radius="0"
       unit="px"
       method="auto"
       mode="F"
       chamfer_steps="1"
       flexible="false"
       use_knot_distance="true"
       apply_no_radius="true"
       apply_with_radius="true"
       only_selected="false"
       hide_knots="false" /><inkscape:path-effect
       effect="fillet_chamfer"
       id="path-effect66"
       is_visible="true"
       lpeversion="1"
       nodesatellites_param="F,0,0,1,0,0,0,1 @ F,0,0,1,0,0.44929322,0,1 @ F,0,0,1,0,0.44929322,0,1 @ F,0,0,1,0,0,0,1 @ F,0,0,1,0,0,0,1 @ F,0,0,1,0,0,0,1 @ F,0,0,1,0,0,0,1 @ F,0,0,1,0,0,0,1 @ F,0,0,1,0,0,0,1 @ F,0,0,1,0,0,0,1"
       radius="0"
       unit="px"
       method="auto"
       mode="F"
       chamfer_steps="1"
       flexible="false"
       use_knot_distance="true"
       apply_no_radius="true"
       apply_with_radius="true"
       only_selected="false"
       hide_knots="false" /><filter
       style="color-interpolation-filters:sRGB;"
       inkscape:label="Clean Edges"
       id="filter14269-35"
       x="-0.31154084"
       y="-0.29580634"
       width="1.6230817"
       height="1.5916127"><feGaussianBlur
         stdDeviation="0.204612"
         result="blur"
         id="feGaussianBlur14263-6" /><feComposite
         in="SourceGraphic"
         in2="blur"
         operator="in"
         result="composite1"
         id="feComposite14265-2" /><feComposite
         in="composite1"
         in2="composite1"
         operator="in"
         result="composite2"
         id="feComposite14267-9" /></filter><filter
       style="color-interpolation-filters:sRGB;"
       inkscape:label="Clean Edges"
       id="filter14269-3"
       x="-0.31154084"
       y="-0.29580634"
       width="1.6230817"
       height="1.5916127"><feGaussianBlur
         stdDeviation="0.204612"
         result="blur"
         id="feGaussianBlur14263-5" /><feComposite
         in="SourceGraphic"
         in2="blur"
         operator="in"
         result="composite1"
         id="feComposite14265-6" /><feComposite
         in="composite1"
         in2="composite1"
         operator="in"
         result="composite2"
         id="feComposite14267-2" /></filter><filter
       style="color-interpolation-filters:sRGB;"
       inkscape:label="Clean Edges"
       id="filter14269-8"
       x="-0.31154084"
       y="-0.29580634"
       width="1.6230817"
       height="1.5916127"><feGaussianBlur
         stdDeviation="0.204612"
         result="blur"
         id="feGaussianBlur14263-9" /><feComposite
         in="SourceGraphic"
         in2="blur"
         operator="in"
         result="composite1"
         id="feComposite14265-7" /><feComposite
         in="composite1"
         in2="composite1"
         operator="in"
         result="composite2"
         id="feComposite14267-3" /></filter><filter
       style="color-interpolation-filters:sRGB"
       inkscape:label="Clean Edges"
       id="filter14269-6"
       x="-0.31154084"
       y="-0.29580635"
       width="1.6230817"
       height="1.5916127"><feGaussianBlur
         stdDeviation="0.204612"
         result="blur"
         id="feGaussianBlur14263-7" /><feComposite
         in="SourceGraphic"
         in2="blur"
         operator="in"
         result="composite1"
         id="feComposite14265-5" /><feComposite
         in="composite1"
         in2="composite1"
         operator="in"
         result="composite2"
         id="feComposite14267-35" /></filter><filter
       style="color-interpolation-filters:sRGB"
       inkscape:label="Clean Edges"
       id="filter14269-3-6"
       x="-0.31154084"
       y="-0.29580635"
       width="1.6230817"
       height="1.5916127"><feGaussianBlur
         stdDeviation="0.204612"
         result="blur"
         id="feGaussianBlur14263-5-2" /><feComposite
         in="SourceGraphic"
         in2="blur"
         operator="in"
         result="composite1"
         id="feComposite14265-6-9" /><feComposite
         in="composite1"
         in2="composite1"
         operator="in"
         result="composite2"
         id="feComposite14267-2-1" /></filter></defs><g
     inkscape:label="Camada 1"
     inkscape:groupmode="layer"
     id="layer1"><rect
       style="fill:#006f4c;fill-opacity:1;stroke:#001e14;stroke-width:0.547255;stroke-opacity:1"
       id="rect46-7"
       width="2.9710424"
       height="6.5520492"
       x="7.6541209"
       y="19.618006"
       ry="1.1529039" /><rect
       style="fill:#006f4c;fill-opacity:1;stroke:#001e14;stroke-width:0.55612;stroke-opacity:1"
       id="rect47-0"
       width="3.1044619"
       height="6.4752464"
       x="11.405369"
       y="18.58193"
       ry="1.1393898" /><path
       id="path47-9"
       style="fill:#00432e;fill-opacity:1;stroke-width:0.449457"
       d="m 8.7451624,20.521351 h 0.733361 c 0.4934602,0 0.8907236,0.410141 0.8907236,0.919599 v 3.386959 c 0,0.509458 -0.354797,0.555096 -0.8380796,0.658037 l -0.84523,0.180036 c -0.483282,0.102941 -0.831498,-0.328615 -0.831498,-0.838073 V 21.44095 c 0,-0.509458 0.397262,-0.919599 0.890723,-0.919599 z"
       sodipodi:nodetypes="sssssssss" /><path
       id="path48-3"
       style="fill:#00432e;fill-opacity:1;stroke-width:0.455488"
       d="m 12.573769,19.544543 h 0.753173 c 0.506792,0 0.914786,0.410141 0.914786,0.919599 v 3.386959 c 0,0.509458 -0.364381,0.555096 -0.86072,0.658037 l -0.868064,0.180036 c -0.496338,0.102941 -0.853961,-0.328615 -0.853961,-0.838073 v -3.386959 c 0,-0.509458 0.407994,-0.919599 0.914786,-0.919599 z"
       sodipodi:nodetypes="sssssssss" /><path
       id="rect9714-6"
       style="fill:#006f4c;fill-opacity:1;stroke:#001e14;stroke-width:0.766134;stroke-miterlimit:4;stroke-dasharray:none;stroke-opacity:1"
       d="m 10.867314,13.48115 c 0.02412,0.397646 -0.104601,0.764361 -0.361289,0.936752 l -3.5358481,2.374633 c -0.1523946,0.07404 -0.291068,0.156046 -0.4430265,0.231203 L 2.542671,18.18462 C 2.1220103,18.307131 1.7079458,17.90184 1.6139197,17.276449 l -0.071817,-0.473058 c -0.094036,-0.625389 0.1696202,-1.227499 0.5902717,-1.350047 l 3.6641299,-1.067441 c 0.031371,-0.03206 0.064985,-0.06058 0.1016531,-0.08522 l 3.5365249,-2.37554 c 0.3733609,-0.25075 0.8715397,0.0074 1.1168827,0.578037 l 0.185959,0.431914 c 0.07667,0.178342 0.11871,0.365328 0.129762,0.546052 z"
       sodipodi:nodetypes="ccccccccccccccc" /><rect
       style="fill:#af7700;fill-opacity:1;stroke:#2d2000;stroke-width:0.639753;stroke-linecap:round;stroke-linejoin:round;stroke-dasharray:none;stroke-opacity:1"
       id="rect8"
       width="3.4497409"
       height="5.7593126"
       x="13.732694"
       y="1.4907064"
       transform="matrix(0.65998036,0.75128286,-0.74830266,0.66335747,0,0)"
       ry="1.3457601" /><path
       id="path11551-0"
       style="fill:#006f4c;fill-opacity:1;stroke:#001e14;stroke-width:0.728343;stroke-miterlimit:4;stroke-dasharray:none;stroke-opacity:1"
       d="m 22.622397,13.825415 c -0.118741,0.407513 -0.358479,0.727999 -0.640029,0.806881 l -3.878288,1.08655 c -0.06572,0.01842 -0.129911,0.02251 -0.190914,0.01373 -0.08986,0.04228 -0.181458,0.06287 -0.271725,0.05594 l -3.838337,-0.294472 c -0.405221,-0.03109 -0.619405,-0.588985 -0.480749,-1.250358 l 0.104285,-0.500531 c 0.138652,-0.661374 0.577097,-1.168506 0.982318,-1.13741 l 3.5297,0.27087 c 0.03827,-0.02066 0.07722,-0.03694 0.117463,-0.0482 l 3.879185,-1.087217 c 0.409523,-0.114732 0.74783,0.326334 0.758665,0.988245 l 0.0084,0.501061 c 0.0034,0.206848 -0.02602,0.409687 -0.08002,0.594914 z" /><path
       id="path8"
       style="fill:#af7700;fill-opacity:1;stroke:#2d2000;stroke-width:0.699126;stroke-miterlimit:4;stroke-dasharray:none;stroke-opacity:1"
       d="m 7.389488,17.820179 -0.2012936,5.393113 2.1394452,-0.53983 1.3181834,1.870678 1.567252,-0.05164 1.133974,-1.733239 1.634802,0.958943 -0.05193,-5.89803 z"
       sodipodi:nodetypes="ccccccccc" /><rect
       style="fill:#af7700;fill-opacity:1;stroke:#2d2000;stroke-width:0.593053;stroke-linecap:round;stroke-linejoin:round;stroke-dasharray:none;stroke-opacity:1"
       id="rect9"
       width="3.4959421"
       height="4.8837752"
       x="12.370753"
       y="-18.526814"
       transform="matrix(-0.0117854,0.99993055,-0.99993444,-0.01145017,0,0)"
       ry="1.1411761" /><path
       id="path6"
       style="fill:#3a2900;fill-opacity:1;stroke:none;stroke-width:0.590523;stroke-miterlimit:4;stroke-dasharray:none;stroke-opacity:1"
       d="m 12.509444,18.769787 a 4.3764673,3.1511144 2.4276628 0 1 1.116724,2.279652 4.3764673,3.1511144 2.4276628 0 1 -0.417148,1.19348 l 1.306473,0.557873 0.201629,-3.910609 z" /><rect
       style="fill:#3a2900;fill-opacity:1;stroke:none;stroke-width:0.5741;stroke-linecap:round;stroke-linejoin:round;stroke-dasharray:none;stroke-opacity:1"
       id="rect7"
       width="2.8566022"
       height="5.6008811"
       x="14.112015"
       y="1.9393485"
       transform="matrix(0.71224939,0.70192649,-0.61936459,0.7851035,0,0)"
       ry="1.3087399" /><path
       style="fill:#3a2900;fill-opacity:1;stroke:none;stroke-width:0.577302;stroke-linecap:round;stroke-linejoin:round"
       d="m 15.277317,15.815734 c 0.58482,-1.197312 1.365488,-2.157784 2.48426,-2.70939 0,0 0.120644,-0.09677 -0.324159,-0.250656 -0.444804,-0.153882 -2.417687,-0.02638 -2.417687,-0.02638 z"
       id="path12"
       sodipodi:nodetypes="cczcc" /><path
       id="rect9738-6"
       style="fill:#af7700;fill-opacity:1;stroke:#2d2000;stroke-width:0.654777;stroke-miterlimit:4;stroke-dasharray:none;stroke-opacity:1"
       d="m 7.5449014,12.631571 -0.308509,6.507613 c 3.4503576,2.424939 5.7616016,1.432537 7.9261336,0 l -0.285771,-6.507613 z"
       sodipodi:nodetypes="ccccc" /><path
       id="path1-1"
       style="fill:#191200;fill-opacity:1;stroke-width:0.045826"
       d="m 8.9979675,14.914832 c -0.0017,1.82e-4 -0.003,0.0017 -0.003,0.0035 v 0.523194 4.246943 0.04063 c 0,0.002 0.00152,0.0035 0.00338,0.0035 h 4.7086305 l -0.392415,-0.530316 -3.8278306,0.04562 0.057439,-3.787666 3.8925056,-0.01522 v 2.845793 l -3.192214,0.0054 0.03553,-1.861152 2.521137,-0.02151 v 0.928063 c -0.744761,0.02482 -1.638812,-0.03786 -2.379749,0.0019 l 0.13939,0.214356 h 0.120783 c 0.03672,0 0.06628,0.03131 0.06628,0.07021 v 0.0048 c 0,0.0389 -0.02956,0.07021 -0.06628,0.07021 h -0.120783 l -0.111203,0.175068 c 0.838152,0.0073 1.797328,-0.0062 2.638928,-0.0062 0.0019,0 0.0033,-0.0016 0.0033,-0.0036 v -0.402736 -7e-5 -0.120387 c 0,-1.26e-4 1.1e-5,-2.45e-4 0,-3.64e-4 v -1.432494 c 0,-0.0058 -0.0044,-0.01056 -0.01,-0.01056 h -0.0071 v -0.01493 c 0,-0.002 -0.0015,-0.0036 -0.0033,-0.0036 H 9.7432403 c -0.00186,0 -0.00334,0.0016 -0.00334,0.0036 v 7.22e-4 c -0.00569,0.0033 -0.00956,0.0097 -0.00956,0.01706 v 2.389805 0.471461 0.05173 c 0,0.002 0.00152,0.0035 0.00338,0.0035 h 3.7136357 c 0.004,0.0029 0.0089,0.0046 0.01409,0.0046 h 0.241189 c 0.01372,0 0.02478,-0.01168 0.02478,-0.02621 v -3.858596 c 0,-0.0097 -0.005,-0.01817 -0.01236,-0.0227 -2e-5,-0.002 -0.0015,-0.0035 -0.0033,-0.0035 H 8.9983429 c -1.189e-4,0 -2.642e-4,-1.2e-5 -3.765e-4,0 z m 2.0000565,2.568397 h 0.19706 c 0.04087,0 0.07379,0.03484 0.07379,0.07812 v 0.02245 c 0,0.04329 -0.03292,0.07813 -0.07379,0.07813 h -0.19706 c -0.04087,0 -0.07375,-0.03484 -0.07375,-0.07813 v -0.02245 c 0,-0.04329 0.03289,-0.07812 0.07375,-0.07812 z"
       sodipodi:nodetypes="ssccssccccccccccccssssccssccscsscsssscsccsscsssscsscssssssssss" /><path
       id="rect5-2"
       style="fill:#2d2000;fill-opacity:1;stroke-width:0.045826"
       d="m 8.9280714,14.840792 c -0.0017,1.82e-4 -0.003,0.0017 -0.003,0.0035 v 0.523195 4.246943 0.04064 c 0,0.002 0.00152,0.0035 0.00338,0.0035 h 4.7086306 l -0.392415,-0.530316 -3.8278307,0.04562 0.057439,-3.787665 3.8925057,-0.01522 v 2.845792 l -3.192214,0.0054 0.03553,-1.861151 2.521137,-0.02151 v 0.928063 c -0.744761,0.02482 -1.638812,-0.03786 -2.37975,0.0019 l 0.139391,0.214355 h 0.120783 c 0.03672,0 0.06628,0.03131 0.06628,0.07021 v 0.0048 c 0,0.0389 -0.02956,0.07021 -0.06628,0.07021 h -0.120783 l -0.111203,0.175068 c 0.838152,0.0073 1.797328,-0.0062 2.638928,-0.0062 0.0019,0 0.0033,-0.0016 0.0033,-0.0036 v -0.402735 -7e-5 -0.120387 c 0,-1.26e-4 1.1e-5,-2.45e-4 0,-3.64e-4 v -1.432495 c 0,-0.0058 -0.0044,-0.01056 -0.01,-0.01056 h -0.0071 v -0.01493 c 0,-0.002 -0.0015,-0.0036 -0.0033,-0.0036 H 9.6733443 c -0.00186,0 -0.00334,0.0016 -0.00334,0.0036 v 7.23e-4 c -0.00569,0.0033 -0.00956,0.0097 -0.00956,0.01706 v 2.389804 0.471461 0.05173 c 0,0.002 0.00152,0.0035 0.00338,0.0035 H 13.37746 c 0.004,0.0029 0.0089,0.0046 0.01409,0.0046 h 0.241189 c 0.01372,0 0.02478,-0.01168 0.02478,-0.02621 v -3.858595 c 0,-0.0097 -0.005,-0.01818 -0.01236,-0.0227 -2e-5,-0.002 -0.0015,-0.0035 -0.0033,-0.0035 H 8.9284468 c -1.188e-4,0 -2.641e-4,-1.2e-5 -3.764e-4,0 z m 2.0000566,2.568397 h 0.19706 c 0.04087,0 0.07379,0.03484 0.07379,0.07813 v 0.02245 c 0,0.04329 -0.03292,0.07813 -0.07379,0.07813 h -0.19706 c -0.04087,0 -0.07375,-0.03484 -0.07375,-0.07813 v -0.02245 c 0,-0.04329 0.03289,-0.07813 0.07375,-0.07813 z"
       sodipodi:nodetypes="ssccssccccccccccccssssccssccscsscsssscsccsscsssscsscssssssssss" /><path
       id="path3"
       style="fill:#3a2900;fill-opacity:1;stroke:none;stroke-width:0.581904;stroke-miterlimit:4;stroke-dasharray:none;stroke-opacity:1"
       d="m 12.391858,13.120942 a 3.5935517,4.4920436 0 0 1 1.001013,3.110311 3.5935517,4.4920436 0 0 1 -1.85012,3.927517 c 1.177391,-0.09144 2.201587,-0.637315 3.191422,-1.285419 L 14.47884,13.120942 Z" /><ellipse
       style="fill:#00432e;fill-opacity:1;stroke:#00140d;stroke-width:0.509;stroke-miterlimit:4;stroke-dasharray:none;stroke-opacity:1"
       id="ellipse5"
       cx="11.228928"
       cy="12.35756"
       rx="2.3867757"
       ry="2.1036232" /><ellipse
       style="fill:#001e14;fill-opacity:1;stroke:none;stroke-width:0.2544;stroke-miterlimit:4;stroke-dasharray:none;stroke-opacity:1"
       id="ellipse6"
       cx="11.203259"
       cy="12.187714"
       rx="2.1500163"
       ry="1.5804987" /><ellipse
       style="fill:#00432e;fill-opacity:1;stroke:#00140d;stroke-width:0.89;stroke-miterlimit:4;stroke-dasharray:none;stroke-opacity:1"
       id="ellipse7"
       cx="11.057728"
       cy="6.9715381"
       rx="5.9909759"
       ry="5.9534302" /><ellipse
       style="fill:#006f4c;fill-opacity:1;stroke:none;stroke-width:0.316973;stroke-miterlimit:4;stroke-dasharray:none;stroke-opacity:1"
       id="ellipse9"
       cx="11.270221"
       cy="6.806529"
       rx="5.3129797"
       ry="5.2838368" /><ellipse
       style="fill:#00e49c;fill-opacity:1;stroke:none;stroke-width:1.02391;stroke-dasharray:none;stroke-opacity:1"
       id="ellipse10"
       cx="4.9780874"
       cy="12.968019"
       rx="3.7013178"
       ry="4.9684868"
       transform="matrix(0.70888957,-0.70531948,0.67557496,0.7372913,0,0)" /><path
       id="path10"
       style="fill:#ffffff;fill-opacity:1;stroke:#001e14;stroke-width:0.525907;stroke-miterlimit:4;stroke-dasharray:none;stroke-opacity:1"
       d="M 7.7207054,5.126318 C 7.4914391,5.5204462 7.3372261,6.1553136 7.337221,6.6287478 7.3373224,7.9548972 8.2770025,9.0298963 9.4361296,9.0299119 10.59526,9.0298961 11.534942,7.9548972 11.535043,6.6287478 11.535037,6.1553137 11.412714,5.5733687 11.183445,5.1792405 10.117883,4.8688427 8.9452786,4.8971317 7.7207054,5.126318 Z"
       sodipodi:nodetypes="cccccc" /><ellipse
       style="fill:#001e14;fill-opacity:1;stroke:none;stroke-width:1.48331"
       id="ellipse11"
       cx="9.4093456"
       cy="6.8310142"
       rx="1.5384029"
       ry="1.638382" /><path
       id="path11"
       style="fill:#00432e;fill-opacity:1;stroke:none;stroke-width:1.48331"
       d="M 8.4980465,5.5109573 A 1.5384027,1.6383819 0 0 0 7.8711979,6.8311918 1.5384027,1.6383819 0 0 0 9.409698,8.4694926 1.5384027,1.6383819 0 0 0 10.706334,7.7123319 1.5384027,1.6383819 0 0 1 9.7953962,8.0303985 1.5384027,1.6383819 0 0 1 8.2568969,6.3920976 1.5384027,1.6383819 0 0 1 8.4980465,5.5109573 Z" /><ellipse
       style="fill:#ffffff;fill-opacity:1;stroke:none;stroke-width:0.513663"
       id="ellipse12"
       cx="10.598028"
       cy="6.4481492"
       rx="0.54559565"
       ry="0.55397868" /><path
       id="path14"
       style="fill:#ffffff;fill-opacity:1;stroke:#001e14;stroke-width:0.527037;stroke-miterlimit:4;stroke-dasharray:none;stroke-opacity:1"
       d="m 12.611511,4.9544868 c -0.229205,0.3959317 -0.383376,1.0337045 -0.383382,1.5093051 1.02e-4,1.3322182 0.939529,2.4121366 2.098346,2.4121523 1.158818,-1.58e-5 2.098244,-1.0799341 2.098347,-2.4121523 -7e-6,-0.4756005 -0.122297,-1.0602085 -0.351502,-1.4561404 -1.065277,-0.3118183 -2.237565,-0.2833997 -3.461809,-0.053165 z"
       sodipodi:nodetypes="cccccc" /><ellipse
       style="fill:#001e14;fill-opacity:1;stroke:none;stroke-width:1.48331"
       id="ellipse14"
       cx="14.37801"
       cy="6.6860604"
       rx="1.5384029"
       ry="1.638382" /><path
       id="path15"
       style="fill:#00432e;fill-opacity:1;stroke:none;stroke-width:1.48331"
       d="M 13.466713,5.3660032 A 1.5384027,1.6383819 0 0 0 12.839864,6.6862377 1.5384027,1.6383819 0 0 0 14.378365,8.3245385 1.5384027,1.6383819 0 0 0 15.675,7.5673778 1.5384027,1.6383819 0 0 1 14.764063,7.8854444 1.5384027,1.6383819 0 0 1 13.225563,6.2471435 1.5384027,1.6383819 0 0 1 13.466713,5.3660032 Z" /><g
       id="g43"
       transform="matrix(0.78971408,0,0,0.80732571,-239.3645,-34.947894)" /><ellipse
       style="fill:#ffffff;fill-opacity:1;stroke:none;stroke-width:0.513663"
       id="ellipse13"
       cx="15.558966"
       cy="6.1670294"
       rx="0.54559565"
       ry="0.55397868" /><rect
       style="fill:#af7700;fill-opacity:1;stroke:#201600;stroke-width:0.665065;stroke-linecap:round;stroke-linejoin:round;stroke-opacity:1"
       id="rect1"
       width="9.2491388"
       height="19.171015"
       x="15.315651"
       y="2.6490202"
       ry="2.9420621"
       transform="rotate(-3.2637816)" /><rect
       style="fill:#3a2900;fill-opacity:1;stroke:#201600;stroke-width:0.517469;stroke-linecap:round;stroke-linejoin:round;stroke-opacity:1"
       id="rect2"
       width="6.8170476"
       height="15.746736"
       x="16.526024"
       y="4.5128255"
       ry="2.4165583"
       transform="rotate(-3.2637816)" /><path
       id="rect16"
       style="fill:#8e6400;fill-opacity:1;stroke:none;stroke-width:0.485981;stroke-linecap:round;stroke-linejoin:round;stroke-opacity:1"
       d="m 21.191239,3.6431932 c 1.214232,-0.069242 2.250963,0.9148039 2.324622,2.2064893 l 0.600452,10.5295365 c 0.07366,1.291685 -0.844484,2.387209 -2.058717,2.456451 l -1.828411,0.104266 c -1.214232,0.06924 -2.250964,-0.914804 -2.324623,-2.20649 l -0.09738,-1.707715 A 6.8460937,5.7516096 86.736218 0 0 22.692,7.9127305 6.8460937,5.7516096 86.736218 0 0 21.137404,3.6462631 Z" /><path
       id="path4"
       style="fill:#201600;fill-opacity:1;stroke-width:0.054545"
       d="m 17.727654,8.6773015 c -0.002,3.365e-4 -0.0034,0.0023 -0.0033,0.00449 l 0.03644,0.6389767 0.295779,5.1867875 0.0028,0.04963 c 1.37e-4,0.0024 0.0019,0.0042 0.0042,0.0041 l 5.444372,-0.310468 -0.490666,-0.621801 -4.422765,0.308111 -0.19737,-4.6296583 4.499663,-0.2752455 0.198196,3.4755638 -3.690632,0.21707 -0.08854,-2.275364 2.913576,-0.1925 0.06463,1.133442 c -0.859404,0.07942 -1.897518,0.06182 -2.751462,0.159207 l 0.176098,0.252601 0.139657,-0.008 c 0.04246,-0.0024 0.07882,0.03387 0.08153,0.08138 l 3.36e-4,0.0059 c 0.0027,0.04751 -0.02928,0.0877 -0.07175,0.09012 l -0.139656,0.008 -0.116385,0.221143 c 0.969622,-0.04638 2.077733,-0.126096 3.050836,-0.181588 0.0022,-1.25e-4 0.0037,-0.0022 0.0035,-0.0046 l -0.02805,-0.49186 -5e-6,-8.6e-5 -0.0084,-0.147028 c -9e-6,-1.55e-4 -5e-6,-3e-4 -2.6e-5,-4.45e-4 l -0.09977,-1.7495048 c -4.04e-4,-0.00709 -0.0058,-0.012609 -0.0123,-0.01224 l -0.0082,4.669e-4 -0.001,-0.01823 c -1.37e-4,-0.0024 -0.0019,-0.0043 -0.004,-0.00418 l -3.848215,0.2194461 c -0.0022,1.252e-4 -0.0038,0.00222 -0.0036,0.00461 l 5.1e-5,8.826e-4 c -0.0064,0.00437 -0.01043,0.012484 -0.0099,0.021469 l 0.166438,2.9186648 0.03284,0.575796 0.0036,0.06318 c 1.36e-4,0.0024 0.0019,0.0042 0.0042,0.0041 L 23.144408,13.1547 c 0.0048,0.0032 0.0106,0.005 0.0166,0.0047 l 0.278876,-0.0159 c 0.01586,-9.04e-4 0.02784,-0.0159 0.02683,-0.03364 L 23.197982,8.3973185 c -6.76e-4,-0.011851 -0.0071,-0.021874 -0.01587,-0.02691 -1.59e-4,-0.00239 -0.0019,-0.0042 -0.004,-0.00408 l -5.449899,0.3107828 c -1.38e-4,7.8e-6 -3.07e-4,3.4e-6 -4.37e-4,2.49e-5 z m 2.491451,3.0049055 0.22785,-0.01299 c 0.04725,-0.0027 0.08775,0.03769 0.09076,0.09056 l 0.0016,0.02742 c 0.003,0.05287 -0.03262,0.0976 -0.07988,0.100291 l -0.22785,0.01299 c -0.04725,0.0027 -0.0877,-0.03769 -0.09071,-0.09056 l -0.0016,-0.02742 c -0.003,-0.05287 0.03259,-0.09759 0.07983,-0.100287 z"
       sodipodi:nodetypes="ssccssccccccccccccssssccssccscsscsssscsccsscsssscsscssssssssss" /><path
       id="path2"
       style="fill:#af7700;fill-opacity:1;stroke-width:0.054545"
       d="m 17.687102,8.547107 c -0.002,3.365e-4 -0.0034,0.0023 -0.0032,0.00449 l 0.03644,0.6389767 0.295779,5.186787 0.0028,0.04963 c 1.36e-4,0.0024 0.0019,0.0042 0.0042,0.0041 l 5.444372,-0.310468 -0.490666,-0.6218 -4.422765,0.308111 -0.19737,-4.6296588 4.499663,-0.2752454 0.198195,3.4755632 -3.690631,0.217071 -0.08854,-2.275364 2.913576,-0.192501 0.06463,1.133443 c -0.859404,0.07942 -1.897518,0.06182 -2.751463,0.159207 l 0.176099,0.252601 0.139656,-0.008 c 0.04246,-0.0024 0.07882,0.03387 0.08153,0.08138 l 3.36e-4,0.0059 c 0.0027,0.04751 -0.02929,0.0877 -0.07175,0.09012 l -0.139656,0.008 -0.116385,0.221142 c 0.969622,-0.04638 2.077733,-0.126096 3.050836,-0.181587 0.0022,-1.25e-4 0.0037,-0.0022 0.0035,-0.0046 l -0.02805,-0.49186 -5e-6,-8.6e-5 -0.0084,-0.147028 c -8e-6,-1.55e-4 -4e-6,-3.01e-4 -2.5e-5,-4.46e-4 l -0.09977,-1.7495043 c -4.04e-4,-0.00709 -0.0058,-0.012609 -0.0123,-0.01224 l -0.0082,4.669e-4 -0.001,-0.01823 c -1.37e-4,-0.0024 -0.0019,-0.0043 -0.004,-0.00418 L 18.616344,9.680697 c -0.0022,1.253e-4 -0.0038,0.00222 -0.0036,0.00461 l 5e-5,8.826e-4 c -0.0064,0.00437 -0.01043,0.012484 -0.0099,0.021469 l 0.166438,2.9186653 0.03283,0.575796 0.0036,0.06318 c 1.36e-4,0.0024 0.0019,0.0042 0.0042,0.0041 l 4.293905,-0.244862 c 0.0048,0.0032 0.0106,0.005 0.0166,0.0047 l 0.278876,-0.0159 c 0.01586,-9.05e-4 0.02784,-0.0159 0.02683,-0.03364 L 23.157431,8.267124 c -6.76e-4,-0.011851 -0.0071,-0.021874 -0.01587,-0.02691 -1.59e-4,-0.00239 -0.0019,-0.0042 -0.004,-0.00408 l -5.449899,0.3107828 c -1.38e-4,7.9e-6 -3.07e-4,3.4e-6 -4.37e-4,2.49e-5 z m 2.491452,3.004905 0.227849,-0.01299 c 0.04725,-0.0027 0.08775,0.03768 0.09076,0.09056 l 0.0016,0.02742 c 0.003,0.05287 -0.03262,0.0976 -0.07988,0.10029 l -0.22785,0.01299 c -0.04725,0.0027 -0.0877,-0.03769 -0.09071,-0.09056 l -0.0016,-0.02741 c -0.003,-0.05287 0.03259,-0.09759 0.07983,-0.100288 z"
       sodipodi:nodetypes="ssccssccccccccccccssssccssccscsscsssscsccsscsssscsscssssssssss" /><path
       style="fill:#ffb81f;fill-opacity:1;stroke:none;stroke-width:0.58764;stroke-linecap:round;stroke-linejoin:round;stroke-opacity:1"
       d="m 19.35731,12.591553 -0.230228,0.319551 4.078353,-0.224256 -0.149965,-0.306152 z"
       id="path5" /><path
       style="fill:#ffb81f;fill-opacity:1;stroke:none;stroke-width:0.453142;stroke-linecap:round;stroke-linejoin:round;stroke-opacity:1"
       d="m 19.443397,10.050618 -0.162374,0.26437 2.912927,-0.1592 -0.109229,-0.2557761 z"
       id="path7" /><path
       style="fill:#ffb81f;fill-opacity:1;stroke:none;stroke-width:0.41976;stroke-linecap:round;stroke-linejoin:round;stroke-opacity:1"
       d="m 19.693951,11.851696 -0.178406,0.213969 3.128817,-0.172913 -0.113227,-0.202848 z"
       id="path9" /><path
       style="fill:#ffb81f;fill-opacity:1;stroke:none;stroke-width:0.564129;stroke-linecap:round;stroke-linejoin:round;stroke-opacity:1"
       d="M 18.630874,8.9043946 18.371247,9.1743098 22.885608,8.9237876 22.724509,8.6709694 Z"
       id="path13" /><path
       style="fill:#ffb81f;fill-opacity:1;stroke:none;stroke-width:0.616386;stroke-linecap:round;stroke-linejoin:round;stroke-opacity:1"
       d="m 18.35415,14.154185 -0.312765,0.272946 5.389372,-0.30042 -0.18944,-0.251202 z"
       id="path16" /><path
       id="rect6"
       style="fill:#b86b00;fill-opacity:1;stroke:#3f2502;stroke-width:0.406917;stroke-linecap:round;stroke-linejoin:round;stroke-opacity:1"
       d="M 3.1508479,17.614559 3.653158,14.579931 2.63318,14.470984 1.8072385,17.348091 Z"
       sodipodi:nodetypes="ccccc" /><path
       id="rect4"
       style="fill:#868686;fill-opacity:1;stroke:#212121;stroke-width:0.458124;stroke-linecap:round;stroke-linejoin:round;stroke-dasharray:none;stroke-opacity:1"
       d="m 4.7131028,7.1444726 0.4855396,2.0912759 -1.566297,6.0585685 -1.1657712,-0.209114 0.804605,-6.2097155 -0.018941,-0.0033 z"
       sodipodi:nodetypes="ccccccc" /><path
       style="fill:none;fill-opacity:1;stroke:#212121;stroke-width:0.408532;stroke-dasharray:none;stroke-opacity:1"
       d="M 4.5850786,7.4222366 3.4705588,12.780368"
       id="path9-7"
       sodipodi:nodetypes="cc" /><path
       style="fill:#573200;fill-opacity:1;stroke:none;stroke-width:0.528901;stroke-linecap:round;stroke-linejoin:round;stroke-dasharray:none;stroke-opacity:0.514698"
       d="M 3.273324,15.887886 3.0144174,17.41531 2.031005,15.580203 Z"
       id="path13-0"
       sodipodi:nodetypes="cccc" /><path
       id="rect5"
       style="fill:#b86b00;fill-opacity:1;stroke:#402500;stroke-width:0.335562;stroke-linecap:round;stroke-linejoin:round;stroke-opacity:1"
       d="M 4.7190627,15.096147 1.4380146,14.65772 1.1586989,16.288858 c 1.3573188,-0.67332 2.2560694,-0.229532 3.0741413,0.410796 z"
       sodipodi:nodetypes="ccccc" /><ellipse
       style="fill:#006f4c;fill-opacity:1;stroke:#001e14;stroke-width:0.58764;stroke-linecap:round;stroke-linejoin:round;stroke-opacity:1"
       id="path17"
       cx="14.661787"
       cy="9.2780943"
       rx="1.8299609"
       ry="1.2979276"
       transform="rotate(50.11144)" /><ellipse
       style="fill:#000000;fill-opacity:0.379809;stroke:none;stroke-width:9.06296;stroke-linecap:round;stroke-linejoin:round;stroke-opacity:0.652519"
       id="path18"
       cx="13.452408"
       cy="26.077995"
       rx="2.207617"
       ry="0.31419271" /></g></svg>
