<?xml version="1.0" encoding="UTF-8" standalone="no"?>
<!-- Created with Inkscape (http://www.inkscape.org/) -->

<svg
   width="100"
   height="100"
   viewBox="0 0 26.458333 26.458334"
   version="1.1"
   id="svg5"
   inkscape:version="1.4.2 (ebf0e940d0, 2025-05-08)"
   sodipodi:docname="escudeiro.svg"
   xml:space="preserve"
   xmlns:inkscape="http://www.inkscape.org/namespaces/inkscape"
   xmlns:sodipodi="http://sodipodi.sourceforge.net/DTD/sodipodi-0.dtd"
   xmlns="http://www.w3.org/2000/svg"
   xmlns:svg="http://www.w3.org/2000/svg"><sodipodi:namedview
     id="namedview7"
     pagecolor="#505050"
     bordercolor="#ffffff"
     borderopacity="1"
     inkscape:pageshadow="0"
     inkscape:pageopacity="0"
     inkscape:pagecheckerboard="1"
     inkscape:document-units="px"
     showgrid="false"
     units="px"
     width="100px"
     inkscape:snap-global="false"
     inkscape:zoom="4"
     inkscape:cx="64.875"
     inkscape:cy="59.875"
     inkscape:window-width="1366"
     inkscape:window-height="697"
     inkscape:window-x="0"
     inkscape:window-y="0"
     inkscape:window-maximized="1"
     inkscape:current-layer="layer1"
     inkscape:showpageshadow="0"
     inkscape:deskcolor="#505050" /><defs
     id="defs2"><linearGradient
       id="linearGradient13895"
       inkscape:swatch="solid"><stop
         style="stop-color:#000000;stop-opacity:1;"
         offset="0"
         id="stop13893" /></linearGradient><filter
       style="color-interpolation-filters:sRGB;"
       inkscape:label="Clean Edges"
       id="filter14269"
       x="-0.31154084"
       y="-0.29580634"
       width="1.6230817"
       height="1.5916127"><feGaussianBlur
         stdDeviation="0.204612"
         result="blur"
         id="feGaussianBlur14263" /><feComposite
         in="SourceGraphic"
         in2="blur"
         operator="in"
         result="composite1"
         id="feComposite14265" /><feComposite
         in="composite1"
         in2="composite1"
         operator="in"
         result="composite2"
         id="feComposite14267" /></filter><inkscape:path-effect
       effect="fillet_chamfer"
       id="path-effect68"
       is_visible="true"
       lpeversion="1"
       nodesatellites_param="F,0,0,1,0,0,0,1 @ F,0,0,1,0,0,0,1 @ F,0,0,1,0,0,0,1 @ F,0,0,1,0,0,0,1 @ F,0,0,1,0,0,0,1 @ F,0,0,1,0,0,0,1 @ F,0,0,1,0,0,0,1 @ F,0,0,1,0,0,0,1 @ F,0,0,1,0,0,0,1"
       radius="0"
       unit="px"
       method="auto"
       mode="F"
       chamfer_steps="1"
       flexible="false"
       use_knot_distance="true"
       apply_no_radius="true"
       apply_with_radius="true"
       only_selected="false"
       hide_knots="false" /><inkscape:path-effect
       effect="fillet_chamfer"
       id="path-effect66"
       is_visible="true"
       lpeversion="1"
       nodesatellites_param="F,0,0,1,0,0,0,1 @ F,0,0,1,0,0.44929322,0,1 @ F,0,0,1,0,0.44929322,0,1 @ F,0,0,1,0,0,0,1 @ F,0,0,1,0,0,0,1 @ F,0,0,1,0,0,0,1 @ F,0,0,1,0,0,0,1 @ F,0,0,1,0,0,0,1 @ F,0,0,1,0,0,0,1 @ F,0,0,1,0,0,0,1"
       radius="0"
       unit="px"
       method="auto"
       mode="F"
       chamfer_steps="1"
       flexible="false"
       use_knot_distance="true"
       apply_no_radius="true"
       apply_with_radius="true"
       only_selected="false"
       hide_knots="false" /><filter
       style="color-interpolation-filters:sRGB;"
       inkscape:label="Clean Edges"
       id="filter14269-35"
       x="-0.31154084"
       y="-0.29580634"
       width="1.6230817"
       height="1.5916127"><feGaussianBlur
         stdDeviation="0.204612"
         result="blur"
         id="feGaussianBlur14263-6" /><feComposite
         in="SourceGraphic"
         in2="blur"
         operator="in"
         result="composite1"
         id="feComposite14265-2" /><feComposite
         in="composite1"
         in2="composite1"
         operator="in"
         result="composite2"
         id="feComposite14267-9" /></filter><filter
       style="color-interpolation-filters:sRGB;"
       inkscape:label="Clean Edges"
       id="filter14269-3"
       x="-0.31154084"
       y="-0.29580634"
       width="1.6230817"
       height="1.5916127"><feGaussianBlur
         stdDeviation="0.204612"
         result="blur"
         id="feGaussianBlur14263-5" /><feComposite
         in="SourceGraphic"
         in2="blur"
         operator="in"
         result="composite1"
         id="feComposite14265-6" /><feComposite
         in="composite1"
         in2="composite1"
         operator="in"
         result="composite2"
         id="feComposite14267-2" /></filter><filter
       style="color-interpolation-filters:sRGB;"
       inkscape:label="Clean Edges"
       id="filter14269-8"
       x="-0.31154084"
       y="-0.29580634"
       width="1.6230817"
       height="1.5916127"><feGaussianBlur
         stdDeviation="0.204612"
         result="blur"
         id="feGaussianBlur14263-9" /><feComposite
         in="SourceGraphic"
         in2="blur"
         operator="in"
         result="composite1"
         id="feComposite14265-7" /><feComposite
         in="composite1"
         in2="composite1"
         operator="in"
         result="composite2"
         id="feComposite14267-3" /></filter><filter
       style="color-interpolation-filters:sRGB"
       inkscape:label="Clean Edges"
       id="filter14269-6"
       x="-0.31154084"
       y="-0.29580635"
       width="1.6230817"
       height="1.5916127"><feGaussianBlur
         stdDeviation="0.204612"
         result="blur"
         id="feGaussianBlur14263-7" /><feComposite
         in="SourceGraphic"
         in2="blur"
         operator="in"
         result="composite1"
         id="feComposite14265-5" /><feComposite
         in="composite1"
         in2="composite1"
         operator="in"
         result="composite2"
         id="feComposite14267-35" /></filter><filter
       style="color-interpolation-filters:sRGB"
       inkscape:label="Clean Edges"
       id="filter14269-3-6"
       x="-0.31154084"
       y="-0.29580635"
       width="1.6230817"
       height="1.5916127"><feGaussianBlur
         stdDeviation="0.204612"
         result="blur"
         id="feGaussianBlur14263-5-2" /><feComposite
         in="SourceGraphic"
         in2="blur"
         operator="in"
         result="composite1"
         id="feComposite14265-6-9" /><feComposite
         in="composite1"
         in2="composite1"
         operator="in"
         result="composite2"
         id="feComposite14267-2-1" /></filter></defs><g
     inkscape:label="Camada 1"
     inkscape:groupmode="layer"
     id="layer1"><rect
       style="fill:#006f4c;fill-opacity:1;stroke:#001e14;stroke-width:0.547255;stroke-opacity:1"
       id="rect46-7"
       width="2.9710424"
       height="6.5520492"
       x="7.1249542"
       y="19.618006"
       ry="1.1529039" /><rect
       style="fill:#006f4c;fill-opacity:1;stroke:#001e14;stroke-width:0.55612;stroke-opacity:1"
       id="rect47-0"
       width="3.1044619"
       height="6.4752464"
       x="10.876203"
       y="19.640265"
       ry="1.1393898" /><path
       id="path47-9"
       style="fill:#00432e;fill-opacity:1;stroke-width:0.449457"
       d="m 8.2159957,20.521351 h 0.733361 c 0.4934602,0 0.8907232,0.410141 0.8907232,0.919599 v 3.386959 c 0,0.509458 -0.354797,0.555096 -0.8380792,0.658037 l -0.84523,0.180036 c -0.483282,0.102941 -0.831498,-0.328615 -0.831498,-0.838073 V 21.44095 c 0,-0.509458 0.397262,-0.919599 0.890723,-0.919599 z"
       sodipodi:nodetypes="sssssssss" /><path
       id="path48-3"
       style="fill:#00432e;fill-opacity:1;stroke-width:0.455488"
       d="m 12.044602,20.602877 h 0.753173 c 0.506792,0 0.914786,0.410141 0.914786,0.919599 v 3.386959 c 0,0.509458 -0.364381,0.555096 -0.86072,0.658037 l -0.868064,0.180036 c -0.496338,0.102941 -0.853961,-0.328615 -0.853961,-0.838073 v -3.386959 c 0,-0.509458 0.407994,-0.919599 0.914786,-0.919599 z"
       sodipodi:nodetypes="sssssssss" /><path
       id="rect9714-6"
       style="fill:#006f4c;fill-opacity:1;stroke:#001e14;stroke-width:0.766134;stroke-miterlimit:4;stroke-dasharray:none;stroke-opacity:1"
       d="m 9.0495996,12.451669 c 0.1984571,0.345426 0.2462741,0.731122 0.093045,0.999689 L 7.0319149,17.150807 C 6.9283511,17.284896 6.840624,17.420026 6.7379497,17.554926 L 3.6855734,20.366815 C 3.3632976,20.663636 2.812183,20.484798 2.4498182,19.966487 L 2.1750968,19.574735 C 1.812724,19.05643 1.7810713,18.399887 2.1033224,18.103037 l 2.8070146,-2.58572 c 0.013837,-0.04267 0.031261,-0.08316 0.053144,-0.121536 l 2.1109305,-3.700566 c 0.2228758,-0.390641 0.7838645,-0.381042 1.2574238,0.02097 l 0.3586536,0.304136 c 0.1479901,0.125631 0.2688065,0.274407 0.3590843,0.431357 z"
       sodipodi:nodetypes="ccccccccccccccc" /><rect
       style="fill:#af7700;fill-opacity:1;stroke:#2d2000;stroke-width:0.639753;stroke-linecap:round;stroke-linejoin:round;stroke-dasharray:none;stroke-opacity:1"
       id="rect8"
       width="3.4497409"
       height="5.7593126"
       x="10.871391"
       y="7.7775702"
       transform="matrix(0.88662872,0.4624819,-0.4584838,0.88870276,0,0)"
       ry="1.3457601" /><path
       id="path11551-0"
       style="fill:#006f4c;fill-opacity:1;stroke:#001e14;stroke-width:0.728343;stroke-miterlimit:4;stroke-dasharray:none;stroke-opacity:1"
       d="m 22.09323,13.825415 c -0.118741,0.407513 -0.358479,0.727999 -0.640029,0.806881 l -3.878288,1.08655 c -0.06572,0.01842 -0.129911,0.02251 -0.190914,0.01373 -0.08986,0.04228 -0.181458,0.06287 -0.271725,0.05594 l -3.838337,-0.294472 c -0.405221,-0.03109 -0.619405,-0.588985 -0.480749,-1.250358 l 0.104285,-0.500531 c 0.138652,-0.661374 0.577097,-1.168506 0.982318,-1.13741 l 3.5297,0.27087 c 0.03827,-0.02066 0.07722,-0.03694 0.117463,-0.0482 l 3.879185,-1.087217 c 0.409523,-0.114732 0.74783,0.326334 0.758665,0.988245 l 0.0084,0.501061 c 0.0034,0.206848 -0.02602,0.409687 -0.08002,0.594914 z" /><path
       id="path8"
       style="fill:#af7700;fill-opacity:1;stroke:#2d2000;stroke-width:0.717688;stroke-miterlimit:4;stroke-dasharray:none;stroke-opacity:1"
       d="m 6.8692777,17.829261 -0.200805,5.697129 2.134252,-0.57026 1.3149833,1.97613 1.563448,-0.05455 1.131221,-1.830944 1.630834,1.013 -0.0518,-6.230509 z"
       sodipodi:nodetypes="ccccccccc" /><rect
       style="fill:#af7700;fill-opacity:1;stroke:#2d2000;stroke-width:0.593053;stroke-linecap:round;stroke-linejoin:round;stroke-dasharray:none;stroke-opacity:1"
       id="rect9"
       width="3.4959421"
       height="4.8837752"
       x="12.376812"
       y="-17.997684"
       transform="matrix(-0.0117854,0.99993055,-0.99993444,-0.01145017,0,0)"
       ry="1.1411761" /><path
       id="path6"
       style="fill:#ffb81f;fill-opacity:1;stroke:none;stroke-width:0.618959;stroke-miterlimit:4;stroke-dasharray:none;stroke-opacity:1"
       d="m 11.980277,18.769787 a 4.3775119,3.4610713 3.4287084 0 1 1.116724,2.504486 4.3775119,3.4610713 3.4287084 0 1 -0.417148,1.311189 l 1.306473,0.612893 0.201629,-4.296298 z" /><rect
       style="fill:#3a2900;fill-opacity:1;stroke:none;stroke-width:0.5741;stroke-linecap:round;stroke-linejoin:round;stroke-dasharray:none;stroke-opacity:1"
       id="rect7"
       width="2.8566022"
       height="5.6008811"
       x="10.163592"
       y="8.043376"
       transform="matrix(0.91756374,0.3975887,-0.29429887,0.95571344,0,0)"
       ry="1.3087399" /><path
       style="fill:#3a2900;fill-opacity:1;stroke:none;stroke-width:0.577302;stroke-linecap:round;stroke-linejoin:round"
       d="m 14.74815,15.815734 c 0.58482,-1.197312 1.365488,-2.157784 2.48426,-2.70939 0,0 0.120644,-0.09677 -0.324159,-0.250656 -0.444804,-0.153882 -2.417687,-0.02638 -2.417687,-0.02638 z"
       id="path12"
       sodipodi:nodetypes="cczcc" /><path
       id="rect9738-6"
       style="fill:#af7700;fill-opacity:1;stroke:#2d2000;stroke-width:0.654777;stroke-miterlimit:4;stroke-dasharray:none;stroke-opacity:1"
       d="m 7.0157347,12.631571 -0.308509,6.507613 c 3.4503573,2.424939 5.7616013,1.432537 7.9261333,0 l -0.285771,-6.507613 z"
       sodipodi:nodetypes="ccccc" /><path
       id="path1-1"
       style="fill:#191200;fill-opacity:1;stroke-width:0.045826"
       d="m 8.4688008,14.914832 c -0.0017,1.82e-4 -0.003,0.0017 -0.003,0.0035 v 0.523194 4.246943 0.04063 c 0,0.002 0.00152,0.0035 0.00338,0.0035 h 4.7086302 l -0.392415,-0.530316 -3.8278303,0.04562 0.057439,-3.787666 3.8925053,-0.01522 v 2.845793 l -3.1922141,0.0054 0.03553,-1.861152 2.5211371,-0.02151 v 0.928063 c -0.744761,0.02482 -1.638812,-0.03786 -2.3797491,0.0019 l 0.1393901,0.214356 h 0.120783 c 0.03672,0 0.06628,0.03131 0.06628,0.07021 v 0.0048 c 0,0.0389 -0.02956,0.07021 -0.06628,0.07021 h -0.120783 l -0.1112031,0.175068 c 0.8381521,0.0073 1.7973281,-0.0062 2.6389281,-0.0062 0.0019,0 0.0033,-0.0016 0.0033,-0.0036 v -0.402736 -7e-5 -0.120387 c 0,-1.26e-4 1.1e-5,-2.45e-4 0,-3.64e-4 v -1.432494 c 0,-0.0058 -0.0044,-0.01056 -0.01,-0.01056 h -0.0071 v -0.01493 c 0,-0.002 -0.0015,-0.0036 -0.0033,-0.0036 H 9.2140736 c -0.00186,0 -0.00334,0.0016 -0.00334,0.0036 v 7.22e-4 c -0.00569,0.0033 -0.00956,0.0097 -0.00956,0.01706 v 2.389805 0.471461 0.05173 c 0,0.002 0.00152,0.0035 0.00338,0.0035 h 3.7136354 c 0.004,0.0029 0.0089,0.0046 0.01409,0.0046 h 0.241189 c 0.01372,0 0.02478,-0.01168 0.02478,-0.02621 v -3.858596 c 0,-0.0097 -0.005,-0.01817 -0.01236,-0.0227 -2e-5,-0.002 -0.0015,-0.0035 -0.0033,-0.0035 H 8.4691762 c -1.189e-4,0 -2.642e-4,-1.2e-5 -3.765e-4,0 z m 2.0000562,2.568397 h 0.19706 c 0.04087,0 0.07379,0.03484 0.07379,0.07812 v 0.02245 c 0,0.04329 -0.03292,0.07813 -0.07379,0.07813 h -0.19706 c -0.04087,0 -0.07375,-0.03484 -0.07375,-0.07813 v -0.02245 c 0,-0.04329 0.03289,-0.07812 0.07375,-0.07812 z"
       sodipodi:nodetypes="ssccssccccccccccccssssccssccscsscsssscsccsscsssscsscssssssssss" /><path
       id="rect5-2"
       style="fill:#2d2000;fill-opacity:1;stroke-width:0.045826"
       d="m 8.3989047,14.840792 c -0.0017,1.82e-4 -0.003,0.0017 -0.003,0.0035 v 0.523195 4.246943 0.04064 c 0,0.002 0.00152,0.0035 0.00338,0.0035 h 4.7086303 l -0.392415,-0.530316 -3.8278304,0.04562 0.057439,-3.787665 3.8925054,-0.01522 v 2.845792 l -3.1922141,0.0054 0.03553,-1.861151 2.5211371,-0.02151 v 0.928063 c -0.744761,0.02482 -1.638812,-0.03786 -2.3797501,0.0019 l 0.139391,0.214355 h 0.1207831 c 0.03672,0 0.06628,0.03131 0.06628,0.07021 v 0.0048 c 0,0.0389 -0.02956,0.07021 -0.06628,0.07021 H 9.9617079 l -0.111203,0.175068 c 0.8381521,0.0073 1.7973281,-0.0062 2.6389281,-0.0062 0.0019,0 0.0033,-0.0016 0.0033,-0.0036 v -0.402735 -7e-5 -0.120387 c 0,-1.26e-4 1.1e-5,-2.45e-4 0,-3.64e-4 v -1.432495 c 0,-0.0058 -0.0044,-0.01056 -0.01,-0.01056 h -0.0071 v -0.01493 c 0,-0.002 -0.0015,-0.0036 -0.0033,-0.0036 H 9.1441776 c -0.00186,0 -0.00334,0.0016 -0.00334,0.0036 v 7.23e-4 c -0.00569,0.0033 -0.00956,0.0097 -0.00956,0.01706 v 2.389804 0.471461 0.05173 c 0,0.002 0.00152,0.0035 0.00338,0.0035 h 3.7136354 c 0.004,0.0029 0.0089,0.0046 0.01409,0.0046 h 0.241189 c 0.01372,0 0.02478,-0.01168 0.02478,-0.02621 v -3.858595 c 0,-0.0097 -0.005,-0.01818 -0.01236,-0.0227 -2e-5,-0.002 -0.0015,-0.0035 -0.0033,-0.0035 H 8.3992801 c -1.188e-4,0 -2.641e-4,-1.2e-5 -3.764e-4,0 z m 2.0000563,2.568397 h 0.19706 c 0.04087,0 0.07379,0.03484 0.07379,0.07813 v 0.02245 c 0,0.04329 -0.03292,0.07813 -0.07379,0.07813 h -0.19706 c -0.04087,0 -0.07375,-0.03484 -0.07375,-0.07813 v -0.02245 c 0,-0.04329 0.03289,-0.07813 0.07375,-0.07813 z"
       sodipodi:nodetypes="ssccssccccccccccccssssccssccscsscsssscsccsscsssscsscssssssssss" /><path
       id="path3"
       style="fill:#ffb81f;fill-opacity:1;stroke:none;stroke-width:0.581904;stroke-miterlimit:4;stroke-dasharray:none;stroke-opacity:1"
       d="m 11.862691,13.120942 a 3.5935517,4.4920436 0 0 1 1.001013,3.110311 3.5935517,4.4920436 0 0 1 -1.85012,3.927517 c 1.177391,-0.09144 2.201587,-0.637315 3.191422,-1.285419 l -0.255333,-5.752409 z" /><ellipse
       style="fill:#00432e;fill-opacity:1;stroke:#00140d;stroke-width:0.509;stroke-miterlimit:4;stroke-dasharray:none;stroke-opacity:1"
       id="ellipse5"
       cx="10.699761"
       cy="12.35756"
       rx="2.3867757"
       ry="2.1036232" /><ellipse
       style="fill:#001e14;fill-opacity:1;stroke:none;stroke-width:0.2544;stroke-miterlimit:4;stroke-dasharray:none;stroke-opacity:1"
       id="ellipse6"
       cx="10.674092"
       cy="12.187714"
       rx="2.1500163"
       ry="1.5804987" /><ellipse
       style="fill:#00432e;fill-opacity:1;stroke:#00140d;stroke-width:0.89;stroke-miterlimit:4;stroke-dasharray:none;stroke-opacity:1"
       id="ellipse7"
       cx="10.528562"
       cy="6.9715381"
       rx="5.9909759"
       ry="5.9534302" /><ellipse
       style="fill:#006f4c;fill-opacity:1;stroke:none;stroke-width:0.316973;stroke-miterlimit:4;stroke-dasharray:none;stroke-opacity:1"
       id="ellipse9"
       cx="10.741055"
       cy="6.806529"
       rx="5.3129797"
       ry="5.2838368" /><ellipse
       style="fill:#00e49c;fill-opacity:1;stroke:none;stroke-width:1.02391;stroke-dasharray:none;stroke-opacity:1"
       id="ellipse10"
       cx="4.5876074"
       cy="12.594472"
       rx="3.7013178"
       ry="4.9684868"
       transform="matrix(0.70888957,-0.70531948,0.67557496,0.7372913,0,0)" /><path
       id="path10"
       style="fill:#ffffff;fill-opacity:1;stroke:#001e14;stroke-width:0.525907;stroke-miterlimit:4;stroke-dasharray:none;stroke-opacity:1"
       d="M 7.1915387,5.126318 C 6.9622724,5.5204462 6.8080594,6.1553136 6.8080543,6.6287478 6.8081557,7.9548972 7.7478358,9.0298963 8.9069629,9.0299119 10.066093,9.0298961 11.005775,7.9548972 11.005876,6.6287478 11.00587,6.1553137 10.883547,5.5733687 10.654278,5.1792405 9.5887159,4.8688427 8.4161119,4.8971317 7.1915387,5.126318 Z"
       sodipodi:nodetypes="cccccc" /><ellipse
       style="fill:#001e14;fill-opacity:1;stroke:none;stroke-width:1.48331"
       id="ellipse11"
       cx="8.8801794"
       cy="6.8310142"
       rx="1.5384029"
       ry="1.638382" /><path
       id="path11"
       style="fill:#00432e;fill-opacity:1;stroke:none;stroke-width:1.48331"
       d="M 7.9688798,5.5109573 A 1.5384027,1.6383819 0 0 0 7.3420312,6.8311918 1.5384027,1.6383819 0 0 0 8.8805313,8.4694926 1.5384027,1.6383819 0 0 0 10.177167,7.7123319 1.5384027,1.6383819 0 0 1 9.2662295,8.0303985 1.5384027,1.6383819 0 0 1 7.7277302,6.3920976 1.5384027,1.6383819 0 0 1 7.9688798,5.5109573 Z" /><ellipse
       style="fill:#ffffff;fill-opacity:1;stroke:none;stroke-width:0.513663"
       id="ellipse12"
       cx="10.068862"
       cy="6.4481492"
       rx="0.54559565"
       ry="0.55397868" /><path
       id="path14"
       style="fill:#ffffff;fill-opacity:1;stroke:#001e14;stroke-width:0.527037;stroke-miterlimit:4;stroke-dasharray:none;stroke-opacity:1"
       d="m 12.082344,4.9544868 c -0.229205,0.3959317 -0.383376,1.0337045 -0.383382,1.5093051 1.02e-4,1.3322182 0.939529,2.4121366 2.098346,2.4121523 1.158818,-1.58e-5 2.098244,-1.0799341 2.098347,-2.4121523 -7e-6,-0.4756005 -0.122297,-1.0602085 -0.351502,-1.4561404 -1.065277,-0.3118183 -2.237565,-0.2833997 -3.461809,-0.053165 z"
       sodipodi:nodetypes="cccccc" /><ellipse
       style="fill:#001e14;fill-opacity:1;stroke:none;stroke-width:1.48331"
       id="ellipse14"
       cx="13.848844"
       cy="6.6860604"
       rx="1.5384029"
       ry="1.638382" /><path
       id="path15"
       style="fill:#00432e;fill-opacity:1;stroke:none;stroke-width:1.48331"
       d="m 12.937546,5.3660032 a 1.5384027,1.6383819 0 0 0 -0.626849,1.3202345 1.5384027,1.6383819 0 0 0 1.538501,1.6383008 1.5384027,1.6383819 0 0 0 1.296635,-0.7571607 1.5384027,1.6383819 0 0 1 -0.910937,0.3180666 1.5384027,1.6383819 0 0 1 -1.5385,-1.6383009 1.5384027,1.6383819 0 0 1 0.24115,-0.8811403 z" /><g
       id="g43"
       transform="matrix(0.78971408,0,0,0.80732571,-239.3645,-34.947894)" /><ellipse
       style="fill:#ffffff;fill-opacity:1;stroke:none;stroke-width:0.513663"
       id="ellipse13"
       cx="15.029799"
       cy="6.1670294"
       rx="0.54559565"
       ry="0.55397868" /><rect
       style="fill:#af7700;fill-opacity:1;stroke:#201600;stroke-width:0.665065;stroke-linecap:round;stroke-linejoin:round;stroke-opacity:1"
       id="rect1"
       width="9.2491388"
       height="19.171015"
       x="16.178293"
       y="5.330379"
       ry="2.9420621" /><rect
       style="fill:#3a2900;fill-opacity:1;stroke:#201600;stroke-width:0.517469;stroke-linecap:round;stroke-linejoin:round;stroke-opacity:1"
       id="rect2"
       width="6.8170476"
       height="15.746736"
       x="17.388666"
       y="7.1941843"
       ry="2.4165583" /><path
       id="rect16"
       style="fill:#5b4000;fill-opacity:1;stroke:none;stroke-width:0.485981;stroke-linecap:round;stroke-linejoin:round;stroke-opacity:1"
       d="m 21.812091,7.5251221 c 1.216205,0 2.19523,1.041474 2.19523,2.335258 V 20.407023 c 0,1.293784 -0.979025,2.335258 -2.19523,2.335258 h -1.831382 c -1.216205,0 -2.19523,-1.041474 -2.19523,-2.335258 v -1.71049 a 5.7516096,6.8460937 0 0 0 5.281862,-6.823356 5.7516096,6.8460937 0 0 0 -1.309172,-4.3480549 z" /><path
       id="path4"
       style="fill:#201600;fill-opacity:1;stroke-width:0.054545"
       d="m 18.067517,12.353873 c -0.002,2.23e-4 -0.0035,0.0021 -0.0035,0.0043 v 0.640015 5.195214 0.04971 c 0,0.0024 0.0017,0.0043 0.004,0.0043 h 5.453217 l -0.454469,-0.648727 -4.433133,0.05581 0.06653,-4.633386 4.508035,-0.01862 v 3.48121 l -3.697004,0.0066 0.04115,-2.276714 2.91981,-0.02631 v 1.135284 c -0.862532,0.03036 -1.89796,-0.04631 -2.756064,0.0023 l 0.161432,0.262217 h 0.139883 c 0.04253,0 0.07676,0.0383 0.07676,0.08589 v 0.0059 c 0,0.04759 -0.03423,0.08589 -0.07676,0.08589 h -0.139883 l -0.128787,0.214158 c 0.97069,0.0089 2.081542,-0.0076 3.056226,-0.0076 0.0022,0 0.0038,-0.002 0.0038,-0.0044 v -0.492659 -8.6e-5 -0.147267 c 0,-1.55e-4 1.3e-5,-3e-4 0,-4.46e-4 v -1.752347 c 0,-0.0071 -0.0051,-0.01292 -0.01158,-0.01292 h -0.0082 v -0.01826 c 0,-0.0024 -0.0017,-0.0044 -0.0038,-0.0044 h -3.854467 c -0.0022,0 -0.0039,0.002 -0.0039,0.0044 v 8.84e-4 c -0.0066,0.004 -0.01112,0.01187 -0.01112,0.02087 v 2.923407 0.576731 0.06328 c 0,0.0024 0.0017,0.0043 0.004,0.0043 h 4.300881 c 0.0046,0.0035 0.0103,0.0056 0.01631,0.0056 h 0.279329 c 0.01589,0 0.0287,-0.01429 0.0287,-0.03206 v -4.720155 c 0,-0.01187 -0.0058,-0.02224 -0.01431,-0.02777 -2.3e-5,-0.0024 -0.0017,-0.0043 -0.0038,-0.0043 H 18.06805 c -1.38e-4,0 -3.06e-4,-1.4e-5 -4.37e-4,0 z m 2.316332,3.141877 h 0.22822 c 0.04733,0 0.08546,0.04262 0.08546,0.09558 v 0.02746 c 0,0.05296 -0.03812,0.09558 -0.08546,0.09558 h -0.22822 c -0.04733,0 -0.08541,-0.04262 -0.08541,-0.09558 v -0.02746 c 0,-0.05296 0.03809,-0.09558 0.08541,-0.09558 z"
       sodipodi:nodetypes="ssccssccccccccccccssssccssccscsscsssscsccsscsssscsscssssssssss" /><path
       id="path2"
       style="fill:#af7700;fill-opacity:1;stroke-width:0.054545"
       d="m 18.034444,12.221581 c -0.002,2.23e-4 -0.0035,0.0021 -0.0035,0.0043 v 0.640015 5.195214 0.04971 c 0,0.0024 0.0017,0.0043 0.004,0.0043 h 5.453217 l -0.454469,-0.648727 -4.433133,0.05581 0.06653,-4.633386 4.508035,-0.01862 v 3.48121 l -3.697004,0.0066 0.04115,-2.276714 2.91981,-0.02631 v 1.135284 c -0.862532,0.03036 -1.89796,-0.04631 -2.756064,0.0023 l 0.161432,0.262217 h 0.139883 c 0.04253,0 0.07676,0.0383 0.07676,0.08589 v 0.0059 c 0,0.04759 -0.03423,0.08589 -0.07676,0.08589 h -0.139883 l -0.128787,0.214158 c 0.97069,0.0089 2.081542,-0.0076 3.056226,-0.0076 0.0022,0 0.0038,-0.002 0.0038,-0.0044 v -0.492659 -8.6e-5 -0.147267 c 0,-1.55e-4 1.3e-5,-3e-4 0,-4.46e-4 v -1.752347 c 0,-0.0071 -0.0051,-0.01292 -0.01158,-0.01292 h -0.0082 v -0.01826 c 0,-0.0024 -0.0017,-0.0044 -0.0038,-0.0044 H 18.89764 c -0.0022,0 -0.0039,0.002 -0.0039,0.0044 v 8.84e-4 c -0.0066,0.004 -0.01112,0.01187 -0.01112,0.02087 v 2.923407 0.576731 0.06328 c 0,0.0024 0.0017,0.0043 0.004,0.0043 h 4.300881 c 0.0046,0.0035 0.0103,0.0056 0.01631,0.0056 h 0.279329 c 0.01589,0 0.0287,-0.01429 0.0287,-0.03206 v -4.720155 c 0,-0.01187 -0.0058,-0.02224 -0.01431,-0.02777 -2.3e-5,-0.0024 -0.0017,-0.0043 -0.0038,-0.0043 h -5.458753 c -1.38e-4,0 -3.06e-4,-1.4e-5 -4.37e-4,0 z m 2.316332,3.141877 h 0.22822 c 0.04733,0 0.08546,0.04262 0.08546,0.09558 v 0.02746 c 0,0.05296 -0.03812,0.09558 -0.08546,0.09558 h -0.22822 c -0.04733,0 -0.08541,-0.04262 -0.08541,-0.09558 v -0.02746 c 0,-0.05296 0.03809,-0.09558 0.08541,-0.09558 z"
       sodipodi:nodetypes="ssccssccccccccccccssssccssccscsscsssscsccsscsssscsscssssssssss" /><path
       style="fill:#ffb81f;fill-opacity:1;stroke:none;stroke-width:0.58764;stroke-linecap:round;stroke-linejoin:round;stroke-opacity:1"
       d="m 19.47168,16.354557 -0.248047,0.305925 4.084505,0.0083 -0.132291,-0.314193 z"
       id="path5" /><path
       style="fill:#ffb81f;fill-opacity:1;stroke:none;stroke-width:0.453142;stroke-linecap:round;stroke-linejoin:round;stroke-opacity:1"
       d="m 19.702291,13.822645 -0.177162,0.254696 2.917266,0.0069 -0.09449,-0.26158 z"
       id="path7" /><path
       style="fill:#ffb81f;fill-opacity:1;stroke:none;stroke-width:0.41976;stroke-linecap:round;stroke-linejoin:round;stroke-opacity:1"
       d="m 19.849898,15.635066 -0.190299,0.203465 3.133587,0.0055 -0.101495,-0.208965 z"
       id="path9" /><path
       style="fill:#ffb81f;fill-opacity:1;stroke:none;stroke-width:0.564129;stroke-linecap:round;stroke-linejoin:round;stroke-opacity:1"
       d="m 18.956343,12.632021 -0.274573,0.254696 4.521302,0.0069 -0.146444,-0.26158 z"
       id="path13" /><path
       style="fill:#ffb81f;fill-opacity:1;stroke:none;stroke-width:0.616386;stroke-linecap:round;stroke-linejoin:round;stroke-opacity:1"
       d="m 18.381182,17.857542 -0.327797,0.254696 5.397734,0.0069 -0.174831,-0.26158 z"
       id="path16" /><path
       id="rect6"
       style="fill:#b86b00;fill-opacity:1;stroke:#3f2502;stroke-width:0.406917;stroke-linecap:round;stroke-linejoin:round;stroke-opacity:1"
       d="M 3.8759237,19.554329 3.2492477,16.542924 2.2586872,16.809409 2.5266943,19.7907 Z"
       sodipodi:nodetypes="ccccc" /><path
       id="rect4"
       style="fill:#868686;fill-opacity:1;stroke:#212121;stroke-width:0.458124;stroke-linecap:round;stroke-linejoin:round;stroke-dasharray:none;stroke-opacity:1"
       d="m 1.554457,9.2260114 1.2075197,1.7751276 0.7256685,6.215541 -1.1626773,0.225682 -1.49057798,-6.081624 -0.0188393,0.0038 z"
       sodipodi:nodetypes="ccccccc" /><path
       style="fill:none;fill-opacity:1;stroke:#212121;stroke-width:0.408532;stroke-dasharray:none;stroke-opacity:1"
       d="M 1.5352996,9.5312588 2.4295272,14.930526"
       id="path9-7"
       sodipodi:nodetypes="cc" /><path
       style="fill:#573200;fill-opacity:1;stroke:none;stroke-width:0.528901;stroke-linecap:round;stroke-linejoin:round;stroke-dasharray:none;stroke-opacity:0.514698"
       d="m 3.3670249,17.899814 0.309757,1.517928 -1.5793956,-1.356549 z"
       id="path13-0"
       sodipodi:nodetypes="cccc" /><path
       id="rect5"
       style="fill:#b86b00;fill-opacity:1;stroke:#402500;stroke-width:0.335562;stroke-linecap:round;stroke-linejoin:round;stroke-opacity:1"
       d="m 4.4296156,16.63969 -3.2181653,0.775182 0.3281519,1.622019 C 2.5624666,17.919115 3.5608066,18.008656 4.554832,18.310608 Z"
       sodipodi:nodetypes="ccccc" /><ellipse
       style="fill:#006f4c;fill-opacity:1;stroke:#001e14;stroke-width:0.58764;stroke-linecap:round;stroke-linejoin:round;stroke-opacity:1"
       id="path17"
       cx="11.984337"
       cy="15.632691"
       rx="1.8299609"
       ry="1.2979276"
       transform="rotate(28.957191)" /></g></svg>
