<?xml version="1.0" encoding="UTF-8" standalone="no"?>
<!-- Created with Inkscape (http://www.inkscape.org/) -->

<svg
   width="100"
   height="100"
   viewBox="0 0 26.458333 26.458334"
   version="1.1"
   id="svg5"
   inkscape:version="1.4.2 (ebf0e940d0, 2025-05-08)"
   sodipodi:docname="escudeiro[0][1].svg"
   xml:space="preserve"
   xmlns:inkscape="http://www.inkscape.org/namespaces/inkscape"
   xmlns:sodipodi="http://sodipodi.sourceforge.net/DTD/sodipodi-0.dtd"
   xmlns="http://www.w3.org/2000/svg"
   xmlns:svg="http://www.w3.org/2000/svg"><sodipodi:namedview
     id="namedview7"
     pagecolor="#505050"
     bordercolor="#ffffff"
     borderopacity="1"
     inkscape:pageshadow="0"
     inkscape:pageopacity="0"
     inkscape:pagecheckerboard="1"
     inkscape:document-units="px"
     showgrid="false"
     units="px"
     width="100px"
     inkscape:snap-global="false"
     inkscape:zoom="16"
     inkscape:cx="38.65625"
     inkscape:cy="85.78125"
     inkscape:window-width="1366"
     inkscape:window-height="697"
     inkscape:window-x="0"
     inkscape:window-y="0"
     inkscape:window-maximized="1"
     inkscape:current-layer="layer1"
     inkscape:showpageshadow="0"
     inkscape:deskcolor="#505050" /><defs
     id="defs2"><linearGradient
       id="linearGradient13895"
       inkscape:swatch="solid"><stop
         style="stop-color:#000000;stop-opacity:1;"
         offset="0"
         id="stop13893" /></linearGradient><filter
       style="color-interpolation-filters:sRGB;"
       inkscape:label="Clean Edges"
       id="filter14269"
       x="-0.31154084"
       y="-0.29580634"
       width="1.6230817"
       height="1.5916127"><feGaussianBlur
         stdDeviation="0.204612"
         result="blur"
         id="feGaussianBlur14263" /><feComposite
         in="SourceGraphic"
         in2="blur"
         operator="in"
         result="composite1"
         id="feComposite14265" /><feComposite
         in="composite1"
         in2="composite1"
         operator="in"
         result="composite2"
         id="feComposite14267" /></filter><inkscape:path-effect
       effect="fillet_chamfer"
       id="path-effect68"
       is_visible="true"
       lpeversion="1"
       nodesatellites_param="F,0,0,1,0,0,0,1 @ F,0,0,1,0,0,0,1 @ F,0,0,1,0,0,0,1 @ F,0,0,1,0,0,0,1 @ F,0,0,1,0,0,0,1 @ F,0,0,1,0,0,0,1 @ F,0,0,1,0,0,0,1 @ F,0,0,1,0,0,0,1 @ F,0,0,1,0,0,0,1"
       radius="0"
       unit="px"
       method="auto"
       mode="F"
       chamfer_steps="1"
       flexible="false"
       use_knot_distance="true"
       apply_no_radius="true"
       apply_with_radius="true"
       only_selected="false"
       hide_knots="false" /><inkscape:path-effect
       effect="fillet_chamfer"
       id="path-effect66"
       is_visible="true"
       lpeversion="1"
       nodesatellites_param="F,0,0,1,0,0,0,1 @ F,0,0,1,0,0.44929322,0,1 @ F,0,0,1,0,0.44929322,0,1 @ F,0,0,1,0,0,0,1 @ F,0,0,1,0,0,0,1 @ F,0,0,1,0,0,0,1 @ F,0,0,1,0,0,0,1 @ F,0,0,1,0,0,0,1 @ F,0,0,1,0,0,0,1 @ F,0,0,1,0,0,0,1"
       radius="0"
       unit="px"
       method="auto"
       mode="F"
       chamfer_steps="1"
       flexible="false"
       use_knot_distance="true"
       apply_no_radius="true"
       apply_with_radius="true"
       only_selected="false"
       hide_knots="false" /><filter
       style="color-interpolation-filters:sRGB;"
       inkscape:label="Clean Edges"
       id="filter14269-35"
       x="-0.31154084"
       y="-0.29580634"
       width="1.6230817"
       height="1.5916127"><feGaussianBlur
         stdDeviation="0.204612"
         result="blur"
         id="feGaussianBlur14263-6" /><feComposite
         in="SourceGraphic"
         in2="blur"
         operator="in"
         result="composite1"
         id="feComposite14265-2" /><feComposite
         in="composite1"
         in2="composite1"
         operator="in"
         result="composite2"
         id="feComposite14267-9" /></filter><filter
       style="color-interpolation-filters:sRGB;"
       inkscape:label="Clean Edges"
       id="filter14269-3"
       x="-0.31154084"
       y="-0.29580634"
       width="1.6230817"
       height="1.5916127"><feGaussianBlur
         stdDeviation="0.204612"
         result="blur"
         id="feGaussianBlur14263-5" /><feComposite
         in="SourceGraphic"
         in2="blur"
         operator="in"
         result="composite1"
         id="feComposite14265-6" /><feComposite
         in="composite1"
         in2="composite1"
         operator="in"
         result="composite2"
         id="feComposite14267-2" /></filter><filter
       style="color-interpolation-filters:sRGB;"
       inkscape:label="Clean Edges"
       id="filter14269-8"
       x="-0.31154084"
       y="-0.29580634"
       width="1.6230817"
       height="1.5916127"><feGaussianBlur
         stdDeviation="0.204612"
         result="blur"
         id="feGaussianBlur14263-9" /><feComposite
         in="SourceGraphic"
         in2="blur"
         operator="in"
         result="composite1"
         id="feComposite14265-7" /><feComposite
         in="composite1"
         in2="composite1"
         operator="in"
         result="composite2"
         id="feComposite14267-3" /></filter><filter
       style="color-interpolation-filters:sRGB"
       inkscape:label="Clean Edges"
       id="filter14269-6"
       x="-0.31154084"
       y="-0.29580635"
       width="1.6230817"
       height="1.5916127"><feGaussianBlur
         stdDeviation="0.204612"
         result="blur"
         id="feGaussianBlur14263-7" /><feComposite
         in="SourceGraphic"
         in2="blur"
         operator="in"
         result="composite1"
         id="feComposite14265-5" /><feComposite
         in="composite1"
         in2="composite1"
         operator="in"
         result="composite2"
         id="feComposite14267-35" /></filter><filter
       style="color-interpolation-filters:sRGB"
       inkscape:label="Clean Edges"
       id="filter14269-3-6"
       x="-0.31154084"
       y="-0.29580635"
       width="1.6230817"
       height="1.5916127"><feGaussianBlur
         stdDeviation="0.204612"
         result="blur"
         id="feGaussianBlur14263-5-2" /><feComposite
         in="SourceGraphic"
         in2="blur"
         operator="in"
         result="composite1"
         id="feComposite14265-6-9" /><feComposite
         in="composite1"
         in2="composite1"
         operator="in"
         result="composite2"
         id="feComposite14267-2-1" /></filter></defs><g
     inkscape:label="Camada 1"
     inkscape:groupmode="layer"
     id="layer1"><g
       id="g43"
       transform="matrix(0.78971408,0,0,0.80732571,-239.3645,-34.947894)" /><rect
       style="fill:#006f4c;fill-opacity:1;stroke:#001e14;stroke-width:0.547255;stroke-opacity:1"
       id="rect46-7"
       width="2.9710424"
       height="6.5520492"
       x="8.1832876"
       y="18.030504"
       ry="1.1529039" /><rect
       style="fill:#006f4c;fill-opacity:1;stroke:#001e14;stroke-width:0.55612;stroke-opacity:1"
       id="rect47-0"
       width="3.1044619"
       height="6.4752464"
       x="11.934535"
       y="19.640265"
       ry="1.1393898" /><path
       id="path47-9"
       style="fill:#00432e;fill-opacity:1;stroke-width:0.449457"
       d="M 9.2743291,18.93385 H 10.00769 c 0.49346,0 0.890724,0.410141 0.890724,0.919599 v 3.386959 c 0,0.509458 -0.354797,0.555096 -0.83808,0.658037 l -0.8452299,0.180036 c -0.483282,0.102941 -0.831498,-0.328615 -0.831498,-0.838073 v -3.386959 c 0,-0.509458 0.397262,-0.919599 0.890723,-0.919599 z"
       sodipodi:nodetypes="sssssssss" /><path
       id="path48-3"
       style="fill:#00432e;fill-opacity:1;stroke-width:0.455488"
       d="m 13.102936,20.602877 h 0.753173 c 0.506792,0 0.914786,0.410141 0.914786,0.919599 v 3.386959 c 0,0.509458 -0.364381,0.555096 -0.86072,0.658037 l -0.868064,0.180036 C 12.545773,25.850449 12.18815,25.418893 12.18815,24.909435 v -3.386959 c 0,-0.509458 0.407994,-0.919599 0.914786,-0.919599 z"
       sodipodi:nodetypes="sssssssss" /><path
       id="rect9714-6"
       style="fill:#006f4c;fill-opacity:1;stroke:#001e14;stroke-width:0.766134;stroke-miterlimit:4;stroke-dasharray:none;stroke-opacity:1"
       d="m 10.139953,12.391802 c 0.229903,0.325344 0.313594,0.704875 0.186163,0.986599 l -1.755368,3.880694 c -0.090565,0.14319 -0.165265,0.285935 -0.2548683,0.429849 l -2.775921,3.085123 c -0.293093,0.32567 -0.8585218,0.199176 -1.2677881,-0.28296 L 3.9620035,20.126774 C 3.5527297,19.644645 3.4597926,18.993943 3.7528584,18.668246 l 2.5527947,-2.836991 c 0.00978,-0.04378 0.023344,-0.08572 0.041541,-0.125975 l 1.7554635,-3.881825 c 0.1853517,-0.409779 0.744778,-0.452705 1.2538707,-0.09676 l 0.385534,0.269249 c 0.159095,0.111234 0.2932997,0.248055 0.3978657,0.39587 z"
       sodipodi:nodetypes="ccccccccccccccc" /><rect
       style="fill:#af7700;fill-opacity:1;stroke:#2d2000;stroke-width:0.639753;stroke-linecap:round;stroke-linejoin:round;stroke-dasharray:none;stroke-opacity:1"
       id="rect8"
       width="3.4497409"
       height="5.7593126"
       x="11.153152"
       y="8.5698738"
       transform="matrix(0.92600777,0.37750444,-0.37332984,0.92769867,0,0)"
       ry="1.3457601" /><path
       id="path11551-0"
       style="fill:#006f4c;fill-opacity:1;stroke:#001e14;stroke-width:0.728343;stroke-miterlimit:4;stroke-dasharray:none;stroke-opacity:1"
       d="m 23.151564,13.825415 c -0.118741,0.407513 -0.358479,0.727999 -0.640029,0.806881 l -3.878288,1.08655 c -0.06572,0.01842 -0.129911,0.02251 -0.190914,0.01373 -0.08986,0.04228 -0.181458,0.06287 -0.271725,0.05594 l -3.838337,-0.294472 c -0.405221,-0.03109 -0.619405,-0.588985 -0.480749,-1.250358 l 0.104285,-0.500531 c 0.138652,-0.661374 0.577097,-1.168506 0.982318,-1.13741 l 3.5297,0.27087 c 0.03827,-0.02066 0.07722,-0.03694 0.117463,-0.0482 l 3.879185,-1.087217 c 0.409523,-0.114732 0.74783,0.326334 0.758665,0.988245 l 0.0084,0.501061 c 0.0034,0.206848 -0.02602,0.409687 -0.08002,0.594914 z" /><path
       id="path8"
       style="fill:#af7700;fill-opacity:1;stroke:#2d2000;stroke-width:0.675219;stroke-miterlimit:4;stroke-dasharray:none;stroke-opacity:1"
       d="m 7.90712,17.808464 -0.2019229,5.014913 2.1461332,-0.501973 1.3223047,1.739494 1.572151,-0.04802 1.137519,-1.611693 1.639913,0.891696 -0.05209,-5.484422 z"
       sodipodi:nodetypes="ccccccccc" /><rect
       style="fill:#af7700;fill-opacity:1;stroke:#2d2000;stroke-width:0.593053;stroke-linecap:round;stroke-linejoin:round;stroke-dasharray:none;stroke-opacity:1"
       id="rect9"
       width="3.4959421"
       height="4.8837752"
       x="12.364695"
       y="-19.055943"
       transform="matrix(-0.0117854,0.99993055,-0.99993444,-0.01145017,0,0)"
       ry="1.1411761" /><path
       id="path6"
       style="fill:#ffb81f;fill-opacity:1;stroke:none;stroke-width:0.555627;stroke-miterlimit:4;stroke-dasharray:none;stroke-opacity:1"
       d="m 13.071684,18.835933 a 4.3757784,2.7901394 1.7436949 0 1 1.116724,2.01819 4.3757784,2.7901394 1.7436949 0 1 -0.417148,1.056595 l 1.306473,0.493887 0.201629,-3.462085 z" /><rect
       style="fill:#3a2900;fill-opacity:1;stroke:none;stroke-width:0.5741;stroke-linecap:round;stroke-linejoin:round;stroke-dasharray:none;stroke-opacity:1"
       id="rect7"
       width="2.8566022"
       height="5.6008811"
       x="10.301583"
       y="8.8590698"
       transform="matrix(0.950736,0.31000172,-0.20359579,0.97905503,0,0)"
       ry="1.3087399" /><path
       style="fill:#3a2900;fill-opacity:1;stroke:none;stroke-width:0.577302;stroke-linecap:round;stroke-linejoin:round"
       d="m 15.806484,15.815734 c 0.58482,-1.197312 1.365488,-2.157784 2.48426,-2.70939 0,0 0.120644,-0.09677 -0.324159,-0.250656 -0.444804,-0.153882 -2.417687,-0.02638 -2.417687,-0.02638 z"
       id="path12"
       sodipodi:nodetypes="cczcc" /><path
       id="rect9738-6"
       style="fill:#af7700;fill-opacity:1;stroke:#2d2000;stroke-width:0.654777;stroke-miterlimit:4;stroke-dasharray:none;stroke-opacity:1"
       d="m 8.0740681,12.631571 -0.308509,6.507613 c 3.4503579,2.424939 5.7616019,1.432537 7.9261339,0 l -0.285771,-6.507613 z"
       sodipodi:nodetypes="ccccc" /><path
       id="path1-1"
       style="fill:#191200;fill-opacity:1;stroke-width:0.045826"
       d="m 9.5271343,14.914832 c -0.0017,1.82e-4 -0.003,0.0017 -0.003,0.0035 v 0.523194 4.246943 0.04063 c 0,0.002 0.0015,0.0035 0.0034,0.0035 h 4.7086307 l -0.392415,-0.530316 -3.827831,0.04562 0.05744,-3.787666 3.892506,-0.01522 v 2.845793 l -3.192214,0.0054 0.03553,-1.861152 2.521137,-0.02151 v 0.928063 c -0.744761,0.02482 -1.638812,-0.03786 -2.379749,0.0019 l 0.13939,0.214356 h 0.120783 c 0.03672,0 0.06628,0.03131 0.06628,0.07021 v 0.0048 c 0,0.0389 -0.02956,0.07021 -0.06628,0.07021 h -0.120783 l -0.111203,0.175068 c 0.838152,0.0073 1.797328,-0.0062 2.638928,-0.0062 0.0019,0 0.0033,-0.0016 0.0033,-0.0036 v -0.402736 -7e-5 -0.120387 c 0,-1.26e-4 1.1e-5,-2.45e-4 0,-3.64e-4 v -1.432494 c 0,-0.0058 -0.0044,-0.01056 -0.01,-0.01056 h -0.0071 v -0.01493 c 0,-0.002 -0.0015,-0.0036 -0.0033,-0.0036 h -3.328156 c -0.0019,0 -0.0033,0.0016 -0.0033,0.0036 v 7.22e-4 c -0.0057,0.0033 -0.0096,0.0097 -0.0096,0.01706 v 2.389805 0.471461 0.05173 c 0,0.002 0.0015,0.0035 0.0034,0.0035 h 3.713636 c 0.004,0.0029 0.0089,0.0046 0.01409,0.0046 h 0.241189 c 0.01372,0 0.02478,-0.01168 0.02478,-0.02621 v -3.858596 c 0,-0.0097 -0.005,-0.01817 -0.01236,-0.0227 -2e-5,-0.002 -0.0015,-0.0035 -0.0033,-0.0035 H 9.5275293 c -1.19e-4,0 -2.64e-4,-1.2e-5 -3.76e-4,0 z m 2.0000567,2.568397 h 0.19706 c 0.04087,0 0.07379,0.03484 0.07379,0.07812 v 0.02245 c 0,0.04329 -0.03292,0.07813 -0.07379,0.07813 h -0.19706 c -0.04087,0 -0.07375,-0.03484 -0.07375,-0.07813 v -0.02245 c 0,-0.04329 0.03289,-0.07812 0.07375,-0.07812 z"
       sodipodi:nodetypes="ssccssccccccccccccssssccssccscsscsssscsccsscsssscsscssssssssss" /><path
       id="rect5-2"
       style="fill:#2d2000;fill-opacity:1;stroke-width:0.045826"
       d="m 9.4572381,14.840792 c -0.0017,1.82e-4 -0.003,0.0017 -0.003,0.0035 v 0.523195 4.246943 0.04064 c 0,0.002 0.00152,0.0035 0.00338,0.0035 h 4.7086309 l -0.392415,-0.530316 -3.8278307,0.04562 0.05744,-3.787665 3.892506,-0.01522 v 2.845792 l -3.192214,0.0054 0.03553,-1.861151 2.521137,-0.02151 v 0.928063 c -0.744761,0.02482 -1.638812,-0.03786 -2.37975,0.0019 l 0.139391,0.214355 h 0.120783 c 0.03672,0 0.06628,0.03131 0.06628,0.07021 v 0.0048 c 0,0.0389 -0.02956,0.07021 -0.06628,0.07021 h -0.120783 l -0.111203,0.175068 c 0.838152,0.0073 1.797328,-0.0062 2.638928,-0.0062 0.0019,0 0.0033,-0.0016 0.0033,-0.0036 v -0.402735 -7e-5 -0.120387 c 0,-1.26e-4 1.1e-5,-2.45e-4 0,-3.64e-4 v -1.432495 c 0,-0.0058 -0.0044,-0.01056 -0.01,-0.01056 h -0.0071 v -0.01493 c 0,-0.002 -0.0015,-0.0036 -0.0033,-0.0036 h -3.328156 c -0.0019,0 -0.0033,0.0016 -0.0033,0.0036 v 7.23e-4 c -0.0057,0.0033 -0.0096,0.0097 -0.0096,0.01706 v 2.389804 0.471461 0.05173 c 0,0.002 0.0015,0.0035 0.0034,0.0035 h 3.713636 c 0.004,0.0029 0.0089,0.0046 0.01409,0.0046 h 0.241189 c 0.01372,0 0.02478,-0.01168 0.02478,-0.02621 v -3.858595 c 0,-0.0097 -0.005,-0.01818 -0.01236,-0.0227 -2e-5,-0.002 -0.0015,-0.0035 -0.0033,-0.0035 H 9.4576135 c -1.188e-4,0 -2.641e-4,-1.2e-5 -3.764e-4,0 z m 2.0000569,2.568397 h 0.19706 c 0.04087,0 0.07379,0.03484 0.07379,0.07813 v 0.02245 c 0,0.04329 -0.03292,0.07813 -0.07379,0.07813 h -0.19706 c -0.04087,0 -0.07375,-0.03484 -0.07375,-0.07813 v -0.02245 c 0,-0.04329 0.03289,-0.07813 0.07375,-0.07813 z"
       sodipodi:nodetypes="ssccssccccccccccccssssccssccscsscsssscsccsscsssscsscssssssssss" /><path
       id="path3"
       style="fill:#ffb81f;fill-opacity:1;stroke:none;stroke-width:0.581904;stroke-miterlimit:4;stroke-dasharray:none;stroke-opacity:1"
       d="m 12.921025,13.120942 a 3.5935517,4.4920436 0 0 1 1.001013,3.110311 3.5935517,4.4920436 0 0 1 -1.85012,3.927517 c 1.177391,-0.09144 2.201587,-0.637315 3.191422,-1.285419 l -0.255333,-5.752409 z" /><ellipse
       style="fill:#00432e;fill-opacity:1;stroke:#00140d;stroke-width:0.509;stroke-miterlimit:4;stroke-dasharray:none;stroke-opacity:1"
       id="ellipse5"
       cx="11.758094"
       cy="12.35756"
       rx="2.3867757"
       ry="2.1036232" /><ellipse
       style="fill:#001e14;fill-opacity:1;stroke:none;stroke-width:0.2544;stroke-miterlimit:4;stroke-dasharray:none;stroke-opacity:1"
       id="ellipse6"
       cx="11.732426"
       cy="12.187714"
       rx="2.1500163"
       ry="1.5804987" /><ellipse
       style="fill:#00432e;fill-opacity:1;stroke:#00140d;stroke-width:0.89;stroke-miterlimit:4;stroke-dasharray:none;stroke-opacity:1"
       id="ellipse7"
       cx="11.586894"
       cy="6.9715381"
       rx="5.9909759"
       ry="5.9534302" /><ellipse
       style="fill:#006f4c;fill-opacity:1;stroke:none;stroke-width:0.316973;stroke-miterlimit:4;stroke-dasharray:none;stroke-opacity:1"
       id="ellipse9"
       cx="11.799387"
       cy="6.806529"
       rx="5.3129797"
       ry="5.2838368" /><ellipse
       style="fill:#00e49c;fill-opacity:1;stroke:none;stroke-width:1.02391;stroke-dasharray:none;stroke-opacity:1"
       id="ellipse10"
       cx="5.3685675"
       cy="13.341566"
       rx="3.7013178"
       ry="4.9684868"
       transform="matrix(0.70888957,-0.70531948,0.67557496,0.7372913,0,0)" /><path
       id="path10"
       style="fill:#ffffff;fill-opacity:1;stroke:#001e14;stroke-width:0.525907;stroke-miterlimit:4;stroke-dasharray:none;stroke-opacity:1"
       d="M 8.2498721,5.6554847 C 8.0206058,6.0496129 7.8663928,6.6844803 7.8663877,7.1579145 7.8664891,8.4840639 8.8061692,9.559063 9.9652963,9.5590786 11.124427,9.5590628 12.064109,8.4840639 12.06421,7.1579145 12.064204,6.6844804 11.941881,6.1025354 11.712612,5.7084072 10.64705,5.3980094 9.4744453,5.4262984 8.2498721,5.6554847 Z"
       sodipodi:nodetypes="cccccc" /><ellipse
       style="fill:#001e14;fill-opacity:1;stroke:none;stroke-width:1.48331"
       id="ellipse11"
       cx="9.9385118"
       cy="7.3601809"
       rx="1.5384029"
       ry="1.638382" /><path
       id="path11"
       style="fill:#00432e;fill-opacity:1;stroke:none;stroke-width:1.48331"
       d="M 9.0272132,6.040124 A 1.5384027,1.6383819 0 0 0 8.4003646,7.3603585 1.5384027,1.6383819 0 0 0 9.9388643,8.9986593 1.5384027,1.6383819 0 0 0 11.235501,8.2414986 1.5384027,1.6383819 0 0 1 10.324563,8.5595652 1.5384027,1.6383819 0 0 1 8.7860636,6.9212643 1.5384027,1.6383819 0 0 1 9.0272132,6.040124 Z" /><ellipse
       style="fill:#ffffff;fill-opacity:1;stroke:none;stroke-width:0.513663"
       id="ellipse12"
       cx="11.127194"
       cy="6.9773159"
       rx="0.54559565"
       ry="0.55397868" /><path
       id="path14"
       style="fill:#ffffff;fill-opacity:1;stroke:#001e14;stroke-width:0.527037;stroke-miterlimit:4;stroke-dasharray:none;stroke-opacity:1"
       d="m 13.140678,5.4836535 c -0.229205,0.3959317 -0.383376,1.0337045 -0.383382,1.5093051 1.02e-4,1.3322182 0.939529,2.4121366 2.098346,2.4121523 1.158818,-1.58e-5 2.098244,-1.0799341 2.098347,-2.4121523 -7e-6,-0.4756005 -0.122297,-1.0602085 -0.351502,-1.4561404 C 15.53721,5.2249999 14.364922,5.2534185 13.140678,5.4836535 Z"
       sodipodi:nodetypes="cccccc" /><ellipse
       style="fill:#001e14;fill-opacity:1;stroke:none;stroke-width:1.48331"
       id="ellipse14"
       cx="14.907176"
       cy="7.2152271"
       rx="1.5384029"
       ry="1.638382" /><path
       id="path15"
       style="fill:#00432e;fill-opacity:1;stroke:none;stroke-width:1.48331"
       d="M 13.99588,5.8951699 A 1.5384027,1.6383819 0 0 0 13.369031,7.2154044 1.5384027,1.6383819 0 0 0 14.907532,8.8537052 1.5384027,1.6383819 0 0 0 16.204167,8.0965445 1.5384027,1.6383819 0 0 1 15.29323,8.4146111 1.5384027,1.6383819 0 0 1 13.75473,6.7763102 1.5384027,1.6383819 0 0 1 13.99588,5.8951699 Z" /><ellipse
       style="fill:#ffffff;fill-opacity:1;stroke:none;stroke-width:0.513663"
       id="ellipse13"
       cx="16.088133"
       cy="6.6961961"
       rx="0.54559565"
       ry="0.55397868" /><g
       id="g2"
       transform="rotate(11.596522,15.836188,15.312761)"><g
         id="g1"><rect
           style="fill:#af7700;fill-opacity:1;stroke:#201600;stroke-width:0.665065;stroke-linecap:round;stroke-linejoin:round;stroke-opacity:1"
           id="rect1"
           width="9.2491388"
           height="19.171015"
           x="15.119961"
           y="5.330379"
           ry="2.9420621" /><rect
           style="fill:#3a2900;fill-opacity:1;stroke:#201600;stroke-width:0.517469;stroke-linecap:round;stroke-linejoin:round;stroke-opacity:1"
           id="rect2"
           width="6.8170476"
           height="15.746736"
           x="16.330332"
           y="7.1941843"
           ry="2.4165583" /><path
           id="rect16"
           style="fill:#5b4000;fill-opacity:1;stroke:none;stroke-width:0.485981;stroke-linecap:round;stroke-linejoin:round;stroke-opacity:1"
           d="m 20.753757,7.5251221 c 1.216205,0 2.19523,1.041474 2.19523,2.335258 V 20.407023 c 0,1.293784 -0.979025,2.335258 -2.19523,2.335258 h -1.831382 c -1.216205,0 -2.19523,-1.041474 -2.19523,-2.335258 v -1.71049 a 5.7516096,6.8460937 0 0 0 5.281862,-6.823356 5.7516096,6.8460937 0 0 0 -1.309172,-4.3480549 z" /><path
           id="path4"
           style="fill:#201600;fill-opacity:1;stroke-width:0.054545"
           d="m 17.009183,12.353873 c -0.002,2.23e-4 -0.0035,0.0021 -0.0035,0.0043 v 0.640015 5.195214 0.04971 c 0,0.0024 0.0017,0.0043 0.004,0.0043 H 22.4629 l -0.454469,-0.648727 -4.433133,0.05581 0.06653,-4.633386 4.508035,-0.01862 v 3.48121 l -3.697004,0.0066 0.04115,-2.276714 2.91981,-0.02631 v 1.135284 c -0.862532,0.03036 -1.89796,-0.04631 -2.756064,0.0023 l 0.161432,0.262217 h 0.139883 c 0.04253,0 0.07676,0.0383 0.07676,0.08589 v 0.0059 c 0,0.04759 -0.03423,0.08589 -0.07676,0.08589 H 18.819187 L 18.6904,15.978914 c 0.97069,0.0089 2.081542,-0.0076 3.056226,-0.0076 0.0022,0 0.0038,-0.002 0.0038,-0.0044 v -0.492659 -8.6e-5 -0.147267 c 0,-1.55e-4 1.3e-5,-3e-4 0,-4.46e-4 v -1.752347 c 0,-0.0071 -0.0051,-0.01292 -0.01158,-0.01292 h -0.0082 v -0.01826 c 0,-0.0024 -0.0017,-0.0044 -0.0038,-0.0044 h -3.854467 c -0.0022,0 -0.0039,0.002 -0.0039,0.0044 v 8.84e-4 c -0.0066,0.004 -0.01112,0.01187 -0.01112,0.02087 v 2.923407 0.576731 0.06328 c 0,0.0024 0.0017,0.0043 0.004,0.0043 h 4.300881 c 0.0046,0.0035 0.0103,0.0056 0.01631,0.0056 h 0.279329 c 0.01589,0 0.0287,-0.01429 0.0287,-0.03206 v -4.720155 c 0,-0.01187 -0.0058,-0.02224 -0.01431,-0.02777 -2.3e-5,-0.0024 -0.0017,-0.0043 -0.0038,-0.0043 h -5.458753 c -1.38e-4,0 -3.06e-4,-1.4e-5 -4.37e-4,0 z m 2.316332,3.141877 h 0.22822 c 0.04733,0 0.08546,0.04262 0.08546,0.09558 v 0.02746 c 0,0.05296 -0.03812,0.09558 -0.08546,0.09558 h -0.22822 c -0.04733,0 -0.08541,-0.04262 -0.08541,-0.09558 v -0.02746 c 0,-0.05296 0.03809,-0.09558 0.08541,-0.09558 z"
           sodipodi:nodetypes="ssccssccccccccccccssssccssccscsscsssscsccsscsssscsscssssssssss" /><path
           id="path2"
           style="fill:#af7700;fill-opacity:1;stroke-width:0.054545"
           d="m 16.97611,12.221581 c -0.002,2.23e-4 -0.0035,0.0021 -0.0035,0.0043 v 0.640015 5.195214 0.04971 c 0,0.0024 0.0017,0.0043 0.004,0.0043 h 5.453217 l -0.454469,-0.648727 -4.433133,0.05581 0.06653,-4.633386 4.508035,-0.01862 v 3.48121 l -3.697004,0.0066 0.04115,-2.276714 2.91981,-0.02631 v 1.135284 c -0.862532,0.03036 -1.89796,-0.04631 -2.756064,0.0023 l 0.161432,0.262217 h 0.139883 c 0.04253,0 0.07676,0.0383 0.07676,0.08589 v 0.0059 c 0,0.04759 -0.03423,0.08589 -0.07676,0.08589 h -0.139883 l -0.128787,0.214158 c 0.97069,0.0089 2.081542,-0.0076 3.056226,-0.0076 0.0022,0 0.0038,-0.002 0.0038,-0.0044 v -0.492659 -8.6e-5 -0.147267 c 0,-1.55e-4 1.3e-5,-3e-4 0,-4.46e-4 v -1.752347 c 0,-0.0071 -0.0051,-0.01292 -0.01158,-0.01292 h -0.0082 v -0.01826 c 0,-0.0024 -0.0017,-0.0044 -0.0038,-0.0044 h -3.854467 c -0.0022,0 -0.0039,0.002 -0.0039,0.0044 v 8.84e-4 c -0.0066,0.004 -0.01112,0.01187 -0.01112,0.02087 v 2.923407 0.576731 0.06328 c 0,0.0024 0.0017,0.0043 0.004,0.0043 h 4.300881 c 0.0046,0.0035 0.0103,0.0056 0.01631,0.0056 h 0.279329 c 0.01589,0 0.0287,-0.01429 0.0287,-0.03206 v -4.720155 c 0,-0.01187 -0.0058,-0.02224 -0.01431,-0.02777 -2.3e-5,-0.0024 -0.0017,-0.0043 -0.0038,-0.0043 h -5.458753 c -1.38e-4,0 -3.06e-4,-1.4e-5 -4.37e-4,0 z m 2.316332,3.141877 h 0.22822 c 0.04733,0 0.08546,0.04262 0.08546,0.09558 v 0.02746 c 0,0.05296 -0.03812,0.09558 -0.08546,0.09558 h -0.22822 c -0.04733,0 -0.08541,-0.04262 -0.08541,-0.09558 v -0.02746 c 0,-0.05296 0.03809,-0.09558 0.08541,-0.09558 z"
           sodipodi:nodetypes="ssccssccccccccccccssssccssccscsscsssscsccsscsssscsscssssssssss" /><path
           style="fill:#ffb81f;fill-opacity:1;stroke:none;stroke-width:0.58764;stroke-linecap:round;stroke-linejoin:round;stroke-opacity:1"
           d="m 18.413346,16.354557 -0.248047,0.305925 4.084505,0.0083 -0.132291,-0.314193 z"
           id="path5" /><path
           style="fill:#ffb81f;fill-opacity:1;stroke:none;stroke-width:0.453142;stroke-linecap:round;stroke-linejoin:round;stroke-opacity:1"
           d="m 18.643957,13.822645 -0.177162,0.254696 2.917266,0.0069 -0.09449,-0.26158 z"
           id="path7" /><path
           style="fill:#ffb81f;fill-opacity:1;stroke:none;stroke-width:0.41976;stroke-linecap:round;stroke-linejoin:round;stroke-opacity:1"
           d="m 18.791564,15.635066 -0.190299,0.203465 3.133587,0.0055 -0.101495,-0.208965 z"
           id="path9" /><path
           style="fill:#ffb81f;fill-opacity:1;stroke:none;stroke-width:0.564129;stroke-linecap:round;stroke-linejoin:round;stroke-opacity:1"
           d="m 17.898009,12.632021 -0.274573,0.254696 4.521302,0.0069 -0.146444,-0.26158 z"
           id="path13" /></g><path
         style="fill:#ffb81f;fill-opacity:1;stroke:none;stroke-width:0.616386;stroke-linecap:round;stroke-linejoin:round;stroke-opacity:1"
         d="m 17.322848,17.857542 -0.327797,0.254696 5.397734,0.0069 -0.174831,-0.26158 z"
         id="path16" /></g><path
       id="rect6"
       style="fill:#b86b00;fill-opacity:1;stroke:#3f2502;stroke-width:0.406917;stroke-linecap:round;stroke-linejoin:round;stroke-opacity:1"
       d="M 5.6534616,19.947336 4.7478005,17.007768 3.7865157,17.365757 4.3322636,20.308898 Z"
       sodipodi:nodetypes="ccccc" /><path
       id="rect4"
       style="fill:#868686;fill-opacity:1;stroke:#212121;stroke-width:0.458124;stroke-linecap:round;stroke-linejoin:round;stroke-dasharray:none;stroke-opacity:1"
       d="m 2.3759052,9.8815043 1.3682967,1.6543717 1.3039841,6.12039 -1.1364641,0.333467 -2.0530101,-5.915499 -0.018401,0.0055 z"
       sodipodi:nodetypes="ccccccc" /><path
       style="fill:none;fill-opacity:1;stroke:#212121;stroke-width:0.408532;stroke-dasharray:none;stroke-opacity:1"
       d="m 2.3853894,10.187205 1.395437,5.291926"
       id="path9-7"
       sodipodi:nodetypes="cc" /><path
       style="fill:#573200;fill-opacity:1;stroke:none;stroke-width:0.528901;stroke-linecap:round;stroke-linejoin:round;stroke-dasharray:none;stroke-opacity:0.514698"
       d="m 4.9920057,18.347688 0.450409,1.482291 -1.6993811,-1.202838 z"
       id="path13-0"
       sodipodi:nodetypes="cccc" /><path
       id="rect5"
       style="fill:#b86b00;fill-opacity:1;stroke:#402500;stroke-width:0.335562;stroke-linecap:round;stroke-linejoin:round;stroke-opacity:1"
       d="m 5.9320444,16.99368 -3.1315281,1.072859 0.4784616,1.584204 c 0.913804,-1.208568 1.9161424,-1.21282 2.9340573,-1.005189 z"
       sodipodi:nodetypes="ccccc" /><ellipse
       style="fill:#006f4c;fill-opacity:1;stroke:#001e14;stroke-width:0.58764;stroke-linecap:round;stroke-linejoin:round;stroke-opacity:1"
       id="path17"
       cx="12.289072"
       cy="16.417728"
       rx="1.8299609"
       ry="1.2979276"
       transform="rotate(23.589002)" /><ellipse
       style="fill:#000000;fill-opacity:0.379809;stroke:none;stroke-width:9.06296;stroke-linecap:round;stroke-linejoin:round;stroke-opacity:0.652519"
       id="path18"
       cx="9.4175129"
       cy="26.077995"
       rx="2.207617"
       ry="0.31419271" /></g></svg>
