<?xml version="1.0" encoding="UTF-8" standalone="no"?>
<!-- Created with Inkscape (http://www.inkscape.org/) -->

<svg
   width="100"
   height="100"
   viewBox="0 0 26.458333 26.458334"
   version="1.1"
   id="svg5"
   inkscape:version="1.4.2 (ebf0e940d0, 2025-05-08)"
   sodipodi:docname="ogro[0][1].svg"
   xml:space="preserve"
   xmlns:inkscape="http://www.inkscape.org/namespaces/inkscape"
   xmlns:sodipodi="http://sodipodi.sourceforge.net/DTD/sodipodi-0.dtd"
   xmlns="http://www.w3.org/2000/svg"
   xmlns:svg="http://www.w3.org/2000/svg"><sodipodi:namedview
     id="namedview7"
     pagecolor="#505050"
     bordercolor="#ffffff"
     borderopacity="1"
     inkscape:pageshadow="0"
     inkscape:pageopacity="0"
     inkscape:pagecheckerboard="1"
     inkscape:document-units="mm"
     showgrid="false"
     units="px"
     width="100px"
     inkscape:snap-global="false"
     inkscape:zoom="9.73617"
     inkscape:cx="67.12085"
     inkscape:cy="63.936846"
     inkscape:window-width="1366"
     inkscape:window-height="697"
     inkscape:window-x="0"
     inkscape:window-y="0"
     inkscape:window-maximized="1"
     inkscape:current-layer="layer1"
     inkscape:showpageshadow="0"
     inkscape:deskcolor="#505050"
     showguides="true" /><defs
     id="defs2"><linearGradient
       id="linearGradient13895"
       inkscape:swatch="solid"><stop
         style="stop-color:#000000;stop-opacity:1;"
         offset="0"
         id="stop13893" /></linearGradient><filter
       style="color-interpolation-filters:sRGB;"
       inkscape:label="Clean Edges"
       id="filter14269"
       x="-0.31154084"
       y="-0.29580634"
       width="1.6230817"
       height="1.5916127"><feGaussianBlur
         stdDeviation="0.204612"
         result="blur"
         id="feGaussianBlur14263" /><feComposite
         in="SourceGraphic"
         in2="blur"
         operator="in"
         result="composite1"
         id="feComposite14265" /><feComposite
         in="composite1"
         in2="composite1"
         operator="in"
         result="composite2"
         id="feComposite14267" /></filter><filter
       style="color-interpolation-filters:sRGB;"
       inkscape:label="Clean Edges"
       id="filter14269-3"
       x="-0.31154084"
       y="-0.29580634"
       width="1.6230817"
       height="1.5916127"><feGaussianBlur
         stdDeviation="0.204612"
         result="blur"
         id="feGaussianBlur14263-5" /><feComposite
         in="SourceGraphic"
         in2="blur"
         operator="in"
         result="composite1"
         id="feComposite14265-6" /><feComposite
         in="composite1"
         in2="composite1"
         operator="in"
         result="composite2"
         id="feComposite14267-2" /></filter><inkscape:path-effect
       effect="fillet_chamfer"
       id="path-effect68"
       is_visible="true"
       lpeversion="1"
       nodesatellites_param="F,0,0,1,0,0,0,1 @ F,0,0,1,0,0,0,1 @ F,0,0,1,0,0,0,1 @ F,0,0,1,0,0,0,1 @ F,0,0,1,0,0,0,1 @ F,0,0,1,0,0,0,1 @ F,0,0,1,0,0,0,1 @ F,0,0,1,0,0,0,1 @ F,0,0,1,0,0,0,1"
       radius="0"
       unit="px"
       method="auto"
       mode="F"
       chamfer_steps="1"
       flexible="false"
       use_knot_distance="true"
       apply_no_radius="true"
       apply_with_radius="true"
       only_selected="false"
       hide_knots="false" /><inkscape:path-effect
       effect="fillet_chamfer"
       id="path-effect66"
       is_visible="true"
       lpeversion="1"
       nodesatellites_param="F,0,0,1,0,0,0,1 @ F,0,0,1,0,0.44929322,0,1 @ F,0,0,1,0,0.44929322,0,1 @ F,0,0,1,0,0,0,1 @ F,0,0,1,0,0,0,1 @ F,0,0,1,0,0,0,1 @ F,0,0,1,0,0,0,1 @ F,0,0,1,0,0,0,1 @ F,0,0,1,0,0,0,1 @ F,0,0,1,0,0,0,1"
       radius="0"
       unit="px"
       method="auto"
       mode="F"
       chamfer_steps="1"
       flexible="false"
       use_knot_distance="true"
       apply_no_radius="true"
       apply_with_radius="true"
       only_selected="false"
       hide_knots="false" /><filter
       style="color-interpolation-filters:sRGB;"
       inkscape:label="Clean Edges"
       id="filter14269-35"
       x="-0.31154084"
       y="-0.29580634"
       width="1.6230817"
       height="1.5916127"><feGaussianBlur
         stdDeviation="0.204612"
         result="blur"
         id="feGaussianBlur14263-6" /><feComposite
         in="SourceGraphic"
         in2="blur"
         operator="in"
         result="composite1"
         id="feComposite14265-2" /><feComposite
         in="composite1"
         in2="composite1"
         operator="in"
         result="composite2"
         id="feComposite14267-9" /></filter><inkscape:path-effect
       effect="fillet_chamfer"
       id="path-effect68-1"
       is_visible="true"
       lpeversion="1"
       nodesatellites_param="F,0,0,1,0,0,0,1 @ F,0,0,1,0,0,0,1 @ F,0,0,1,0,0,0,1 @ F,0,0,1,0,0,0,1 @ F,0,0,1,0,0,0,1 @ F,0,0,1,0,0,0,1 @ F,0,0,1,0,0,0,1 @ F,0,0,1,0,0,0,1 @ F,0,0,1,0,0,0,1"
       radius="0"
       unit="px"
       method="auto"
       mode="F"
       chamfer_steps="1"
       flexible="false"
       use_knot_distance="true"
       apply_no_radius="true"
       apply_with_radius="true"
       only_selected="false"
       hide_knots="false" /><inkscape:path-effect
       effect="fillet_chamfer"
       id="path-effect66-2"
       is_visible="true"
       lpeversion="1"
       nodesatellites_param="F,0,0,1,0,0,0,1 @ F,0,0,1,0,0.44929322,0,1 @ F,0,0,1,0,0.44929322,0,1 @ F,0,0,1,0,0,0,1 @ F,0,0,1,0,0,0,1 @ F,0,0,1,0,0,0,1 @ F,0,0,1,0,0,0,1 @ F,0,0,1,0,0,0,1 @ F,0,0,1,0,0,0,1 @ F,0,0,1,0,0,0,1"
       radius="0"
       unit="px"
       method="auto"
       mode="F"
       chamfer_steps="1"
       flexible="false"
       use_knot_distance="true"
       apply_no_radius="true"
       apply_with_radius="true"
       only_selected="false"
       hide_knots="false" /><filter
       style="color-interpolation-filters:sRGB"
       inkscape:label="Clean Edges"
       id="filter14269-6"
       x="-0.31154084"
       y="-0.29580635"
       width="1.6230817"
       height="1.5916127"><feGaussianBlur
         stdDeviation="0.204612"
         result="blur"
         id="feGaussianBlur14263-7" /><feComposite
         in="SourceGraphic"
         in2="blur"
         operator="in"
         result="composite1"
         id="feComposite14265-5" /><feComposite
         in="composite1"
         in2="composite1"
         operator="in"
         result="composite2"
         id="feComposite14267-3" /></filter><filter
       style="color-interpolation-filters:sRGB"
       inkscape:label="Clean Edges"
       id="filter14269-3-5"
       x="-0.31154084"
       y="-0.29580635"
       width="1.6230817"
       height="1.5916127"><feGaussianBlur
         stdDeviation="0.204612"
         result="blur"
         id="feGaussianBlur14263-5-6" /><feComposite
         in="SourceGraphic"
         in2="blur"
         operator="in"
         result="composite1"
         id="feComposite14265-6-2" /><feComposite
         in="composite1"
         in2="composite1"
         operator="in"
         result="composite2"
         id="feComposite14267-2-9" /></filter></defs><g
     inkscape:label="Camada 1"
     inkscape:groupmode="layer"
     id="layer1"><path
       id="path6"
       style="fill:#c23b00;fill-opacity:1;stroke:#371100;stroke-width:0.696;stroke-dasharray:none;stroke-opacity:1"
       d="m 18.464183,7.4860489 c -1.378059,-0.5198609 1.411996,1.8472168 2.637761,2.7310241 0.772639,0.557092 1.821826,-1.052754 1.949472,-2.5340489 0.127646,-1.481295 -1.073064,-3.687979 -1.487226,-2.830195 -1.247783,2.5843198 -2.832939,2.7339688 -3.100007,2.6332198 z"
       sodipodi:nodetypes="sssss" /><path
       id="path13"
       style="fill:#c23b00;fill-opacity:1;stroke:#371100;stroke-width:0.447636;stroke-dasharray:none;stroke-opacity:1"
       d="m 19.718942,16.789728 c -0.36093,-0.916823 1.189409,0.945147 1.773182,1.762489 0.367972,0.515199 -0.607697,1.204449 -1.527834,1.282683 -0.920137,0.07823 -2.328017,-0.728266 -1.804276,-0.999371 1.577919,-0.81679 1.628877,-1.868122 1.558928,-2.045801 z"
       sodipodi:nodetypes="sssss" /><path
       id="path15"
       style="fill:#00cf8e;fill-opacity:1;stroke:#001e14;stroke-width:0.720841;stroke-miterlimit:4;stroke-dasharray:none;stroke-opacity:1"
       d="m 23.487103,18.974945 c -0.27123,0.299029 -0.592648,0.457476 -0.836389,0.379485 l -3.357467,-1.074347 c -0.124582,-0.06627 -0.24836,-0.116228 -0.373535,-0.181362 l -2.706678,-2.278569 c -0.285744,-0.240558 -0.193208,-0.84809 0.206875,-1.361987 l 0.302302,-0.389259 c 0.400067,-0.513907 0.952514,-0.733393 1.238257,-0.492833 l 2.488991,2.095444 c 0.03761,0.0018 0.07374,0.0078 0.108562,0.019 l 3.358437,1.074188 c 0.354528,0.113435 0.406346,0.682567 0.116607,1.27551 l -0.219159,0.448974 c -0.09055,0.185292 -0.203605,0.349757 -0.326812,0.485752 z"
       sodipodi:nodetypes="ccccccccccccccc" /><path
       id="path16"
       style="fill:#00452f;fill-opacity:1;stroke:none;stroke-width:0.720841;stroke-miterlimit:4;stroke-dasharray:none;stroke-opacity:1"
       d="m 16.641715,13.515822 c -0.01341,0.179672 0.02964,0.334263 0.134894,0.436782 l 2.534227,2.468542 c 0.120131,0.07402 0.240404,0.132764 0.359861,0.207879 l 3.270443,1.314649 c 0.237457,0.09542 0.569846,-0.03935 0.862012,-0.317956 0.04892,-0.04671 0.09669,-0.09712 0.142775,-0.151407 -0.04027,0.127957 -0.09908,0.261261 -0.176688,0.394656 l -0.251375,0.432023 c -0.103726,0.178252 -0.228019,0.334014 -0.360747,0.460733 -0.292167,0.27861 -0.624556,0.413387 -0.862011,0.317956 L 19.024153,17.76494 c -0.119458,-0.0751 -0.239219,-0.133767 -0.359351,-0.20779 l -2.534736,-2.468629 c -0.26758,-0.260612 -0.131289,-0.859656 0.304945,-1.343241 z" /><g
       id="g30"
       transform="matrix(-0.99503027,-0.09957287,-0.09957287,0.99503027,54.402985,2.1660279)"><path
         id="path17"
         style="fill:#4e4e4e;fill-opacity:1;stroke:#171717;stroke-width:0.492379;stroke-linecap:round;stroke-linejoin:round;stroke-opacity:1"
         d="m 29.954793,19.038528 -0.62001,-3.795487 1.634508,0.02316 0.923594,3.49222 z"
         sodipodi:nodetypes="ccccc" /><path
         id="path19"
         style="fill:#656565;fill-opacity:1;stroke:#272727;stroke-width:0.55434;stroke-linecap:round;stroke-linejoin:round;stroke-dasharray:none;stroke-opacity:1"
         d="m 28.101337,6.9830043 -0.595603,2.4348026 c 0.12512,2.3270001 1.065783,4.4141341 2.044722,6.4900101 l 1.430932,-0.21052 c -0.550135,-2.17067 -1.286504,-4.353756 -1.108864,-6.4759076 l 0.02327,-0.00156 z"
         sodipodi:nodetypes="ccccccc" /><path
         style="fill:none;fill-opacity:1;stroke:#272727;stroke-width:0.494332;stroke-dasharray:none;stroke-opacity:1"
         d="m 28.258633,7.3296815 c 0.350829,2.0868004 0.624053,4.5626295 1.37833,6.6998605"
         id="path27"
         sodipodi:nodetypes="cc" /><path
         id="path29"
         style="fill:#4e4e4e;fill-opacity:1;stroke:#171717;stroke-width:0.406037;stroke-linecap:round;stroke-linejoin:round;stroke-opacity:1"
         d="m 27.830339,15.528156 4.837517,-0.744082 -0.216988,2.014565 -3.815165,0.616368 z"
         sodipodi:nodetypes="ccccc" /></g><ellipse
       style="fill:#171717;fill-opacity:1;stroke:none;stroke-width:0.574345;stroke-linecap:round;stroke-linejoin:round;stroke-opacity:1"
       id="ellipse31"
       cx="24.312601"
       cy="13.535766"
       rx="1.6487681"
       ry="1.1198155"
       transform="rotate(5.7145747)" /><ellipse
       style="fill:#00cf8e;fill-opacity:1;stroke:#001e14;stroke-width:0.565134;stroke-linecap:round;stroke-linejoin:round;stroke-opacity:1"
       id="ellipse30"
       cx="-27.580631"
       cy="6.7413816"
       rx="1.7799245"
       ry="2.0180008"
       transform="matrix(-0.91319477,-0.40752338,-0.37886226,0.92545307,0,0)" /><path
       id="path30"
       style="fill:#00452f;fill-opacity:1;stroke:none;stroke-width:0.494555;stroke-linecap:round;stroke-linejoin:round;stroke-opacity:1"
       d="m 23.17226,15.837675 a 1.5703329,1.7516909 20.256442 0 1 0.203615,0.07859 1.5703329,1.7516909 20.256442 0 1 0.684991,2.273322 1.5703329,1.7516909 20.256442 0 1 -2.146181,0.90803 1.5703329,1.7516909 20.256442 0 1 -0.815467,-1.069188 1.5703329,1.7516909 20.256442 0 0 1.942993,-0.986035 1.5703329,1.7516909 20.256442 0 0 0.130003,-1.204716 z" /><path
       id="path2"
       style="fill:#c23b00;fill-opacity:1;stroke:#371100;stroke-width:0.696;stroke-dasharray:none;stroke-opacity:1"
       d="M 9.3399446,5.9897729 C 10.775261,6.32018 7.141205,6.7457406 5.6311167,6.8027085 4.6792584,6.8386173 4.6973196,4.9171405 5.4114675,3.6131002 6.1256155,2.30906 8.3475299,1.1367736 8.2172753,2.0803611 7.8248459,4.9231889 9.0617805,5.92574 9.3399446,5.9897729 Z"
       sodipodi:nodetypes="sssss" /><path
       style="fill:none;fill-opacity:1;stroke:#371100;stroke-width:0.464992;stroke-linecap:round;stroke-dasharray:none;stroke-opacity:1"
       d="M 8.8650397,6.0018091 C 7.6461778,5.252925 7.12723,4.3911057 7.0179849,3.4631768"
       id="path20"
       sodipodi:nodetypes="cc" /><path
       style="fill:none;fill-opacity:1;stroke:#371100;stroke-width:0.464992;stroke-linecap:round;stroke-dasharray:none;stroke-opacity:1"
       d="M 8.8281356,6.4234893 C 7.6823606,5.5669549 6.6898725,5.4026177 5.787111,5.6434667"
       id="path21"
       sodipodi:nodetypes="cc" /><path
       style="fill:none;fill-opacity:1;stroke:#371100;stroke-width:0.464992;stroke-linecap:round;stroke-dasharray:none;stroke-opacity:1"
       d="M 8.4169151,6.40836 C 7.7068554,5.1664798 6.8618365,4.6206021 5.9378159,4.4821378"
       id="path22"
       sodipodi:nodetypes="cc" /><g
       id="g1"
       transform="rotate(22.750834,9.5684643,13.331313)"><path
         id="path9"
         style="fill:#c23b00;fill-opacity:1;stroke:#371100;stroke-width:0.447636;stroke-dasharray:none;stroke-opacity:1"
         d="m 7.3098365,16.80536 c 0.3184312,-0.932435 -1.1447325,0.998791 -1.690342,1.842088 -0.3439148,0.531559 0.6623874,1.17526 1.5851469,1.211141 0.9227587,0.03588 2.2921029,-0.834445 1.75646,-1.081204 -1.613776,-0.743438 -1.7129776,-1.79132 -1.6512649,-1.972025 z"
         sodipodi:nodetypes="sssss" /><path
         id="rect9714"
         style="fill:#00cf8e;fill-opacity:1;stroke:#001e14;stroke-width:0.720841;stroke-miterlimit:4;stroke-dasharray:none;stroke-opacity:1"
         d="m 3.1855761,18.497087 c 0.2401072,0.32455 0.5441507,0.514214 0.7944462,0.460881 l 3.4477568,-0.734696 c 0.1305606,-0.05353 0.2586991,-0.09092 0.389738,-0.143266 l 2.9201099,-1.997734 c 0.308277,-0.21091 0.276694,-0.824637 -0.07023,-1.375817 l -0.26204,-0.417426 C 10.058449,13.73784 9.5306032,13.464437 9.2223258,13.675349 l -2.6852702,1.837194 c -0.037597,-0.002 -0.074149,4.22e-4 -0.1099142,0.0081 l -3.4487076,0.73444 c -0.3640611,0.07757 -0.472291,0.638714 -0.243033,1.25756 l 0.1733643,0.468565 c 0.071651,0.193388 0.1677674,0.368293 0.27682,0.51588 z"
         sodipodi:nodetypes="ccccccccccccccc" /><path
         id="path10"
         style="fill:#00452f;fill-opacity:1;stroke:none;stroke-width:0.720841;stroke-miterlimit:4;stroke-dasharray:none;stroke-opacity:1"
         d="m 10.439951,13.987535 c -0.0072,0.180027 -0.06762,0.328691 -0.183893,0.418519 L 7.4564979,16.56903 c -0.1277994,0.05982 -0.253993,0.104441 -0.3812471,0.165422 l -3.3991822,0.932556 c -0.2468006,0.06768 -0.5616234,-0.10417 -0.8200602,-0.41432 -0.043267,-0.05199 -0.084966,-0.107531 -0.1245507,-0.166722 0.025388,0.131719 0.068586,0.270867 0.1304617,0.412253 l 0.2003921,0.457904 c 0.082692,0.188931 0.1883826,0.357869 0.3057705,0.498917 0.2584365,0.310153 0.5732596,0.482008 0.8200602,0.414319 L 7.587841,17.936773 c 0.127253,-0.06097 0.25293,-0.105573 0.38073,-0.165392 l 2.800076,-2.163005 c 0.295592,-0.228349 0.228605,-0.839038 -0.149549,-1.369278 z" /><g
         id="g7"
         transform="translate(-25.90295,-1.306677)"><path
           id="rect6"
           style="fill:#4e4e4e;fill-opacity:1;stroke:#171717;stroke-width:0.492379;stroke-linecap:round;stroke-linejoin:round;stroke-opacity:1"
           d="m 29.954793,19.038528 -0.62001,-3.795487 1.634508,0.02316 0.923594,3.49222 z"
           sodipodi:nodetypes="ccccc" /><path
           id="rect4"
           style="fill:#656565;fill-opacity:1;stroke:#272727;stroke-width:0.55434;stroke-linecap:round;stroke-linejoin:round;stroke-dasharray:none;stroke-opacity:1"
           d="m 28.101337,6.9830043 -0.595603,2.4348026 c 0.12512,2.3270001 1.065783,4.4141341 2.044722,6.4900101 l 1.430932,-0.21052 c -0.550135,-2.17067 -1.286504,-4.353756 -1.108864,-6.4759076 l 0.02327,-0.00156 z"
           sodipodi:nodetypes="ccccccc" /><path
           style="fill:none;fill-opacity:1;stroke:#272727;stroke-width:0.494332;stroke-dasharray:none;stroke-opacity:1"
           d="m 28.258633,7.3296815 c 0.350829,2.0868004 0.624053,4.5626295 1.37833,6.6998605"
           id="path9-2"
           sodipodi:nodetypes="cc" /><path
           id="rect5"
           style="fill:#4e4e4e;fill-opacity:1;stroke:#171717;stroke-width:0.406037;stroke-linecap:round;stroke-linejoin:round;stroke-opacity:1"
           d="m 27.830339,15.528156 4.837517,-0.744082 -0.216988,2.014565 -3.815165,0.616368 z"
           sodipodi:nodetypes="ccccc" /></g><ellipse
         style="fill:#171717;fill-opacity:1;stroke:none;stroke-width:0.526276;stroke-linecap:round;stroke-linejoin:round;stroke-opacity:1"
         id="path31"
         cx="4.2177997"
         cy="15.47167"
         rx="1.5142572"
         ry="1.0237362" /><ellipse
         style="fill:#00cf8e;fill-opacity:1;stroke:#001e14;stroke-width:0.565134;stroke-linecap:round;stroke-linejoin:round;stroke-opacity:1"
         id="path4"
         cx="-0.85743457"
         cy="17.550516"
         rx="1.7799245"
         ry="2.0180008"
         transform="matrix(0.94923472,-0.31456868,0.2848294,0.95857823,0,0)" /><path
         id="ellipse8"
         style="fill:#00452f;fill-opacity:1;stroke:none;stroke-width:0.494555;stroke-linecap:round;stroke-linejoin:round;stroke-opacity:1"
         d="m 3.8112414,15.406758 a 1.7516909,1.5703329 75.458133 0 0 -0.210429,0.05793 1.7516909,1.5703329 75.458133 0 0 -0.9079482,2.193818 1.7516909,1.5703329 75.458133 0 0 2.0451,1.117218 1.7516909,1.5703329 75.458133 0 0 0.9178763,-0.982676 1.7516909,1.5703329 75.458133 0 1 -1.8351549,-1.174604 1.7516909,1.5703329 75.458133 0 1 -0.00944,-1.211673 z" /></g><path
       style="fill:none;fill-opacity:1;stroke:#371100;stroke-width:0.464992;stroke-linecap:round;stroke-dasharray:none;stroke-opacity:1"
       d="m 18.803199,8.1233579 c 1.428383,-0.078563 2.345759,0.3343054 2.964012,1.0348409"
       id="path25"
       sodipodi:nodetypes="cc" /><path
       style="fill:none;fill-opacity:1;stroke:#371100;stroke-width:0.464992;stroke-linecap:round;stroke-dasharray:none;stroke-opacity:1"
       d="m 19.006023,7.7518226 c 1.429613,0.051547 2.339021,-0.3785895 2.943921,-1.0906869"
       id="path24"
       sodipodi:nodetypes="cc" /><path
       id="rect9738"
       style="fill:#00cf8e;fill-opacity:1;stroke:#001e14;stroke-width:0.656868;stroke-miterlimit:4;stroke-dasharray:none;stroke-opacity:1"
       d="m 13.608198,11.593315 c -1.343307,1.96e-4 -2.460237,0.80411 -2.564104,1.845524 l -1.4389401,-0.05167 0.336286,6.346266 c 3.6492791,2.307421 5.3729171,1.312733 7.6622391,-0.05038 l -0.0095,-6.244207 h -1.421337 c -0.103881,-1.041579 -1.221138,-1.845555 -2.56466,-1.845524 z"
       sodipodi:nodetypes="ccccccccc" /><rect
       style="fill:#00cf8e;fill-opacity:1;stroke:#001e14;stroke-width:0.55398;stroke-opacity:1"
       id="rect46"
       width="3.2019644"
       height="6.2298665"
       x="9.8012218"
       y="20.084679"
       ry="1.0962124" /><rect
       style="fill:#00cf8e;fill-opacity:1;stroke:#001e14;stroke-width:0.562954;stroke-opacity:1"
       id="rect47"
       width="3.3457539"
       height="6.1568403"
       x="13.844032"
       y="20.105844"
       ry="1.0833627" /><path
       id="path47"
       style="fill:#00452f;fill-opacity:1;stroke-width:0.455124"
       d="m 11.0233,20.512896 h 0.809891 c 0.544956,0 0.983675,0.38081 0.983675,0.853832 v 3.144734 c 0,0.473023 -0.391822,0.515397 -0.925537,0.610976 l -0.933435,0.16716 c -0.533716,0.09558 -0.918271,-0.305113 -0.918271,-0.778136 v -3.144734 c 0,-0.473022 0.438719,-0.853832 0.983677,-0.853832 z"
       sodipodi:nodetypes="sssssssss" /><path
       id="path48"
       style="fill:#00452f;fill-opacity:1;stroke-width:0.430787"
       d="m 15.1126,21.021122 h 0.824845 c 0.555016,0 1.001834,0.334986 1.001834,0.751092 v 2.766339 c 0,0.416106 -0.399055,0.453381 -0.942624,0.537458 l -0.950668,0.147048 c -0.543568,0.08408 -0.935221,-0.2684 -0.935221,-0.684506 v -2.766339 c 0,-0.416106 0.446818,-0.751092 1.001834,-0.751092 z"
       sodipodi:nodetypes="sssssssss" /><path
       id="path8"
       style="fill:#ffffff;fill-opacity:1;stroke:#001e14;stroke-width:0.54578;stroke-miterlimit:4;stroke-dasharray:none;stroke-opacity:1"
       d="m 9.8571458,19.748221 -0.249851,3.316164 1.9671882,0.392835 1.562523,-0.171902 1.430284,0.0098 1.401952,0.103171 1.730593,-0.170396 -0.05363,-3.479712 z"
       sodipodi:nodetypes="ccccccccc" /><ellipse
       style="fill:#00452f;fill-opacity:1;stroke:none;stroke-width:0.227459;stroke-miterlimit:4;stroke-dasharray:none;stroke-opacity:1"
       id="ellipse49"
       cx="13.661813"
       cy="12.87202"
       rx="2.0959554"
       ry="1.296069" /><path
       style="fill:none;fill-opacity:1;stroke:#001e14;stroke-width:0.568587;stroke-linecap:round;stroke-dasharray:none;stroke-opacity:1"
       d="m 9.6422159,14.206343 c 0,0 0.148073,1.337687 0.8234411,1.737806 0.515098,0.305166 2.623633,0.198415 2.623633,0.198415"
       id="path23"
       sodipodi:nodetypes="csc" /><g
       id="g29"
       transform="matrix(0.33292115,0,0,-0.28651355,-0.00122753,28.492747)"
       style="fill:#001e14;fill-opacity:1"><ellipse
         style="fill:#001e14;fill-opacity:1;stroke:none;stroke-width:1.6332;stroke-dasharray:none;stroke-opacity:1"
         id="path28"
         cx="35.288403"
         cy="41.778561"
         rx="1.6525621"
         ry="1.2682455" /><ellipse
         style="fill:#001e14;fill-opacity:1;stroke:none;stroke-width:1.24266;stroke-dasharray:none;stroke-opacity:1"
         id="ellipse28"
         cx="35.326832"
         cy="41.804771"
         rx="1.1913821"
         ry="1.0184395" /><ellipse
         style="fill:#001e14;fill-opacity:1;stroke:none;stroke-width:0.946814;stroke-dasharray:none;stroke-opacity:1"
         id="ellipse29"
         cx="35.04314"
         cy="41.491093"
         rx="0.87090665"
         ry="0.80879658" /></g><path
       style="fill:none;fill-opacity:1;stroke:#001e14;stroke-width:0.568587;stroke-linecap:round;stroke-dasharray:none;stroke-opacity:1"
       d="m 17.57925,14.258022 c 0,0 -0.148073,1.337686 -0.82344,1.737804 -0.515097,0.305166 -2.62363,0.198417 -2.62363,0.198417"
       id="path14"
       sodipodi:nodetypes="csc" /><g
       id="g16"
       transform="matrix(-0.33292115,0,0,-0.28651355,26.79452,28.473365)"
       style="fill:#001e14;fill-opacity:1"><ellipse
         style="fill:#001e14;fill-opacity:1;stroke:none;stroke-width:1.6332;stroke-dasharray:none;stroke-opacity:1"
         id="ellipse14"
         cx="35.288403"
         cy="41.778561"
         rx="1.6525621"
         ry="1.2682455" /><ellipse
         style="fill:#001e14;fill-opacity:1;stroke:none;stroke-width:1.24266;stroke-dasharray:none;stroke-opacity:1"
         id="ellipse15"
         cx="35.326832"
         cy="41.804771"
         rx="1.1913821"
         ry="1.0184395" /><ellipse
         style="fill:#001e14;fill-opacity:1;stroke:none;stroke-width:0.946814;stroke-dasharray:none;stroke-opacity:1"
         id="ellipse16"
         cx="35.04314"
         cy="41.491093"
         rx="0.87090665"
         ry="0.80879658" /></g><rect
       style="fill:#ffffff;fill-opacity:1;stroke:#001e14;stroke-width:0.593303;stroke-linecap:round;stroke-dasharray:none;stroke-opacity:1"
       id="rect18"
       width="7.8638339"
       height="1.0546612"
       x="9.8383398"
       y="19.346523"
       ry="0.52733058" /><path
       style="fill:none;fill-opacity:1;stroke:#371100;stroke-width:0.464992;stroke-linecap:round;stroke-dasharray:none;stroke-opacity:1"
       d="M 19.153965,8.3385188 C 20.432994,7.6977879 21.438904,7.7113046 22.284943,8.1077939"
       id="path26"
       sodipodi:nodetypes="cc" /><path
       id="ellipse3"
       style="fill:#00432e;fill-opacity:1;stroke:#001e14;stroke-width:0.837515;stroke-miterlimit:4;stroke-dasharray:none;stroke-opacity:1"
       d="M 13.73012,0.66072011 C 12.592444,0.66083382 11.429296,1.12563 11.115318,2.1157371 9.2047249,3.0657247 8.1589427,5.2381624 8.1588821,7.378255 c -1.098e-4,3.109621 2.5113459,5.630544 5.6094639,5.630609 3.098117,-6.6e-5 5.609571,-2.520988 5.609461,-5.630609 C 19.377747,5.2017443 18.345284,3.0299736 16.38524,2.0989271 16.055084,1.1307494 14.849203,0.66065707 13.73012,0.66072011 Z"
       sodipodi:nodetypes="ccccccc" /><ellipse
       style="fill:#00cf8e;fill-opacity:1;stroke:none;stroke-width:0.296652;stroke-miterlimit:4;stroke-dasharray:none;stroke-opacity:1"
       id="ellipse4"
       cx="13.967298"
       cy="7.0136161"
       rx="4.9461136"
       ry="4.9713206" /><ellipse
       style="fill:#3affc2;fill-opacity:1;stroke:none;stroke-width:0.84444;stroke-dasharray:none;stroke-opacity:1"
       id="ellipse8-6"
       cx="6.5797286"
       cy="14.68462"
       rx="3.0567937"
       ry="4.0919609"
       transform="matrix(0.72969412,-0.68377371,0.69732971,0.71675049,0,0)" /><path
       id="path12-1"
       style="fill:#ffffff;fill-opacity:1;stroke:#001e14;stroke-width:0.511748;stroke-miterlimit:4;stroke-dasharray:none;stroke-opacity:1"
       d="M 10.394637,4.9093223 C 10.069035,5.2098125 9.7453076,5.7551059 9.6112236,6.1944931 9.2357506,7.4253069 9.8083496,8.6906267 10.890207,9.0207657 11.972073,9.3508758 13.153556,8.6208058 13.529219,7.3900498 13.66329,6.9506591 13.694714,6.4910192 13.592349,6.0599365 12.68572,5.4683832 11.602488,5.045381 10.394637,4.9093223 Z"
       sodipodi:nodetypes="cccccc" /><ellipse
       style="fill:#001e14;fill-opacity:1;stroke:none;stroke-width:1.44338"
       id="ellipse31-8"
       cx="11.521365"
       cy="7.0554118"
       rx="1.5012131"
       ry="1.5897816" /><path
       id="path36-7"
       style="fill:#00432e;fill-opacity:1;stroke:none;stroke-width:1.44338"
       d="m 10.632097,5.7745126 a 1.5012129,1.5897816 0 0 0 -0.611695,1.2810716 1.5012129,1.5897816 0 0 0 1.501311,1.5897029 1.5012129,1.5897816 0 0 0 1.265289,-0.7347006 1.5012129,1.5897816 0 0 1 -0.888915,0.3086316 1.5012129,1.5897816 0 0 1 -1.50131,-1.589703 1.5012129,1.5897816 0 0 1 0.23532,-0.8550025 z" /><ellipse
       style="fill:#ffffff;fill-opacity:1;stroke:none;stroke-width:0.608423"
       id="ellipse36-9"
       cx="12.220132"
       cy="6.3982477"
       rx="0.58081633"
       ry="0.73009682" /><g
       id="g6"
       transform="matrix(-1,0,0,1,26.975593,0.43593612)"><path
         id="path3"
         style="fill:#ffffff;fill-opacity:1;stroke:#001e14;stroke-width:0.511748;stroke-miterlimit:4;stroke-dasharray:none;stroke-opacity:1"
         d="M 9.3996388,4.8387271 C 9.0669743,5.1313784 8.730353,5.6688081 8.5858446,6.1048778 8.1811679,7.3264013 8.7234727,8.6049977 9.7971605,8.9608057 10.870858,9.3165849 12.069392,8.6148571 12.474256,7.3933959 12.618753,6.9573225 12.596598,6.4702278 12.504525,6.0368296 11.612243,5.4238543 10.603906,5.0035101 9.3996388,4.8387271 Z"
         sodipodi:nodetypes="cccccc" /><ellipse
         style="fill:#001e14;fill-opacity:1;stroke:none;stroke-width:1.44338"
         id="ellipse5"
         cx="10.476668"
         cy="7.01267"
         rx="1.5012131"
         ry="1.5897816" /><path
         id="path5"
         style="fill:#00432e;fill-opacity:1;stroke:none;stroke-width:1.44338"
         d="M 9.5873992,5.7317701 A 1.5012129,1.5897816 0 0 0 8.9757042,7.0128417 1.5012129,1.5897816 0 0 0 10.477014,8.6025446 1.5012129,1.5897816 0 0 0 11.742303,7.867844 1.5012129,1.5897816 0 0 1 10.853388,8.1764756 1.5012129,1.5897816 0 0 1 9.3520792,6.5867726 1.5012129,1.5897816 0 0 1 9.5873992,5.7317701 Z" /><ellipse
         style="fill:#ffffff;fill-opacity:1;stroke:none;stroke-width:0.608423"
         id="ellipse6"
         cx="11.175435"
         cy="6.3555055"
         rx="0.58081633"
         ry="0.73009682" /></g><ellipse
       style="fill:#c23b00;fill-opacity:1;stroke:#371100;stroke-width:0.396;stroke-dasharray:none;stroke-opacity:1"
       id="path11"
       cx="12.734416"
       cy="-2.2636178"
       rx="0.67938244"
       ry="1.0190737"
       transform="rotate(23.585442)" /><ellipse
       style="fill:#c23b00;fill-opacity:1;stroke:#371100;stroke-width:0.396;stroke-dasharray:none;stroke-opacity:1"
       id="ellipse11"
       cx="-12.768721"
       cy="8.8410616"
       rx="0.67938244"
       ry="1.0190737"
       transform="matrix(-0.91646442,0.40011619,0.40011619,0.91646442,0,0)" /><path
       style="fill:none;fill-opacity:1;stroke:#001e14;stroke-width:0.569927;stroke-linecap:round;stroke-dasharray:none;stroke-opacity:1"
       d="m 11.195984,10.455374 c 1.683242,-0.321323 2.860035,0.04468 3.740373,0.813029"
       id="path12"
       sodipodi:nodetypes="cc" /><ellipse
       style="fill:#c23b00;fill-opacity:1;stroke:#001e14;stroke-width:0.478205;stroke-linecap:round;stroke-linejoin:round;stroke-opacity:1"
       id="path7"
       cx="16.182184"
       cy="14.67294"
       rx="0.78530014"
       ry="0.3721596" /><ellipse
       style="fill:#c23b00;fill-opacity:1;stroke:#001e14;stroke-width:0.478205;stroke-linecap:round;stroke-linejoin:round;stroke-opacity:1"
       id="ellipse7"
       cx="10.964527"
       cy="18.178555"
       rx="0.78530014"
       ry="0.3721596" /><path
       style="fill:#ffffff;fill-opacity:1;stroke-width:0.665956;stroke-linecap:round;stroke-linejoin:round"
       d="m 2.9592391,10.145962 -1.306677,2.49806 2.152174,6.840838 -2.5749225,-2.536491 c 0,0 -0.80240547,-4.056329 -0.61490678,-5.956909 C 0.80240551,9.0908803 2.2290372,5.7647514 2.2290372,5.7647514 L 5.4957297,3.3051242 3.8815994,5.3804348 C 3.1477139,7.093989 2.7798578,8.0265118 2.9592391,10.145962 Z"
       id="path1"
       sodipodi:nodetypes="cccczcccc" /></g></svg>
