<?xml version="1.0" encoding="UTF-8" standalone="no"?>
<!-- Created with Inkscape (http://www.inkscape.org/) -->

<svg
   width="100"
   height="100"
   viewBox="0 0 26.458333 26.458334"
   version="1.1"
   id="svg5"
   inkscape:version="1.4.2 (ebf0e940d0, 2025-05-08)"
   sodipodi:docname="ogro.svg"
   xml:space="preserve"
   xmlns:inkscape="http://www.inkscape.org/namespaces/inkscape"
   xmlns:sodipodi="http://sodipodi.sourceforge.net/DTD/sodipodi-0.dtd"
   xmlns="http://www.w3.org/2000/svg"
   xmlns:svg="http://www.w3.org/2000/svg"><sodipodi:namedview
     id="namedview7"
     pagecolor="#505050"
     bordercolor="#ffffff"
     borderopacity="1"
     inkscape:pageshadow="0"
     inkscape:pageopacity="0"
     inkscape:pagecheckerboard="1"
     inkscape:document-units="mm"
     showgrid="false"
     units="px"
     width="100px"
     inkscape:snap-global="false"
     inkscape:zoom="3.4422559"
     inkscape:cx="41.687778"
     inkscape:cy="48.950457"
     inkscape:window-width="1366"
     inkscape:window-height="697"
     inkscape:window-x="0"
     inkscape:window-y="0"
     inkscape:window-maximized="1"
     inkscape:current-layer="layer1"
     inkscape:showpageshadow="0"
     inkscape:deskcolor="#505050"
     showguides="true" /><defs
     id="defs2"><linearGradient
       id="linearGradient13895"
       inkscape:swatch="solid"><stop
         style="stop-color:#000000;stop-opacity:1;"
         offset="0"
         id="stop13893" /></linearGradient><filter
       style="color-interpolation-filters:sRGB;"
       inkscape:label="Clean Edges"
       id="filter14269"
       x="-0.31154084"
       y="-0.29580634"
       width="1.6230817"
       height="1.5916127"><feGaussianBlur
         stdDeviation="0.204612"
         result="blur"
         id="feGaussianBlur14263" /><feComposite
         in="SourceGraphic"
         in2="blur"
         operator="in"
         result="composite1"
         id="feComposite14265" /><feComposite
         in="composite1"
         in2="composite1"
         operator="in"
         result="composite2"
         id="feComposite14267" /></filter><filter
       style="color-interpolation-filters:sRGB;"
       inkscape:label="Clean Edges"
       id="filter14269-3"
       x="-0.31154084"
       y="-0.29580634"
       width="1.6230817"
       height="1.5916127"><feGaussianBlur
         stdDeviation="0.204612"
         result="blur"
         id="feGaussianBlur14263-5" /><feComposite
         in="SourceGraphic"
         in2="blur"
         operator="in"
         result="composite1"
         id="feComposite14265-6" /><feComposite
         in="composite1"
         in2="composite1"
         operator="in"
         result="composite2"
         id="feComposite14267-2" /></filter><inkscape:path-effect
       effect="fillet_chamfer"
       id="path-effect68"
       is_visible="true"
       lpeversion="1"
       nodesatellites_param="F,0,0,1,0,0,0,1 @ F,0,0,1,0,0,0,1 @ F,0,0,1,0,0,0,1 @ F,0,0,1,0,0,0,1 @ F,0,0,1,0,0,0,1 @ F,0,0,1,0,0,0,1 @ F,0,0,1,0,0,0,1 @ F,0,0,1,0,0,0,1 @ F,0,0,1,0,0,0,1"
       radius="0"
       unit="px"
       method="auto"
       mode="F"
       chamfer_steps="1"
       flexible="false"
       use_knot_distance="true"
       apply_no_radius="true"
       apply_with_radius="true"
       only_selected="false"
       hide_knots="false" /><inkscape:path-effect
       effect="fillet_chamfer"
       id="path-effect66"
       is_visible="true"
       lpeversion="1"
       nodesatellites_param="F,0,0,1,0,0,0,1 @ F,0,0,1,0,0.44929322,0,1 @ F,0,0,1,0,0.44929322,0,1 @ F,0,0,1,0,0,0,1 @ F,0,0,1,0,0,0,1 @ F,0,0,1,0,0,0,1 @ F,0,0,1,0,0,0,1 @ F,0,0,1,0,0,0,1 @ F,0,0,1,0,0,0,1 @ F,0,0,1,0,0,0,1"
       radius="0"
       unit="px"
       method="auto"
       mode="F"
       chamfer_steps="1"
       flexible="false"
       use_knot_distance="true"
       apply_no_radius="true"
       apply_with_radius="true"
       only_selected="false"
       hide_knots="false" /><filter
       style="color-interpolation-filters:sRGB;"
       inkscape:label="Clean Edges"
       id="filter14269-35"
       x="-0.31154084"
       y="-0.29580634"
       width="1.6230817"
       height="1.5916127"><feGaussianBlur
         stdDeviation="0.204612"
         result="blur"
         id="feGaussianBlur14263-6" /><feComposite
         in="SourceGraphic"
         in2="blur"
         operator="in"
         result="composite1"
         id="feComposite14265-2" /><feComposite
         in="composite1"
         in2="composite1"
         operator="in"
         result="composite2"
         id="feComposite14267-9" /></filter><inkscape:path-effect
       effect="fillet_chamfer"
       id="path-effect68-1"
       is_visible="true"
       lpeversion="1"
       nodesatellites_param="F,0,0,1,0,0,0,1 @ F,0,0,1,0,0,0,1 @ F,0,0,1,0,0,0,1 @ F,0,0,1,0,0,0,1 @ F,0,0,1,0,0,0,1 @ F,0,0,1,0,0,0,1 @ F,0,0,1,0,0,0,1 @ F,0,0,1,0,0,0,1 @ F,0,0,1,0,0,0,1"
       radius="0"
       unit="px"
       method="auto"
       mode="F"
       chamfer_steps="1"
       flexible="false"
       use_knot_distance="true"
       apply_no_radius="true"
       apply_with_radius="true"
       only_selected="false"
       hide_knots="false" /><inkscape:path-effect
       effect="fillet_chamfer"
       id="path-effect66-2"
       is_visible="true"
       lpeversion="1"
       nodesatellites_param="F,0,0,1,0,0,0,1 @ F,0,0,1,0,0.44929322,0,1 @ F,0,0,1,0,0.44929322,0,1 @ F,0,0,1,0,0,0,1 @ F,0,0,1,0,0,0,1 @ F,0,0,1,0,0,0,1 @ F,0,0,1,0,0,0,1 @ F,0,0,1,0,0,0,1 @ F,0,0,1,0,0,0,1 @ F,0,0,1,0,0,0,1"
       radius="0"
       unit="px"
       method="auto"
       mode="F"
       chamfer_steps="1"
       flexible="false"
       use_knot_distance="true"
       apply_no_radius="true"
       apply_with_radius="true"
       only_selected="false"
       hide_knots="false" /><filter
       style="color-interpolation-filters:sRGB"
       inkscape:label="Clean Edges"
       id="filter14269-6"
       x="-0.31154084"
       y="-0.29580635"
       width="1.6230817"
       height="1.5916127"><feGaussianBlur
         stdDeviation="0.204612"
         result="blur"
         id="feGaussianBlur14263-7" /><feComposite
         in="SourceGraphic"
         in2="blur"
         operator="in"
         result="composite1"
         id="feComposite14265-5" /><feComposite
         in="composite1"
         in2="composite1"
         operator="in"
         result="composite2"
         id="feComposite14267-3" /></filter><filter
       style="color-interpolation-filters:sRGB"
       inkscape:label="Clean Edges"
       id="filter14269-3-5"
       x="-0.31154084"
       y="-0.29580635"
       width="1.6230817"
       height="1.5916127"><feGaussianBlur
         stdDeviation="0.204612"
         result="blur"
         id="feGaussianBlur14263-5-6" /><feComposite
         in="SourceGraphic"
         in2="blur"
         operator="in"
         result="composite1"
         id="feComposite14265-6-2" /><feComposite
         in="composite1"
         in2="composite1"
         operator="in"
         result="composite2"
         id="feComposite14267-2-9" /></filter></defs><g
     inkscape:label="Camada 1"
     inkscape:groupmode="layer"
     id="layer1"><path
       id="path6"
       style="fill:#c23b00;fill-opacity:1;stroke:#371100;stroke-width:0.696;stroke-dasharray:none;stroke-opacity:1"
       d="M 18.449458,6.128301 C 16.97779,6.069182 20.371612,7.4364548 21.813432,7.8889686 22.722258,8.1742029 23.210694,6.3157548 22.865049,4.8697058 22.519404,3.4236568 20.684495,1.7077696 20.56174,2.652362 20.191904,5.4982173 18.734667,6.1397583 18.449458,6.128301 Z"
       sodipodi:nodetypes="sssss" /><path
       id="path13"
       style="fill:#c23b00;fill-opacity:1;stroke:#371100;stroke-width:0.447636;stroke-dasharray:none;stroke-opacity:1"
       d="m 19.625935,16.621073 c -0.450427,-0.876327 1.277609,0.822018 1.939866,1.57717 0.417443,0.475998 -0.484746,1.258973 -1.392521,1.428439 -0.907774,0.169465 -2.388963,-0.49284 -1.894819,-0.814748 1.488747,-0.969848 1.434768,-2.02103 1.347474,-2.190861 z"
       sodipodi:nodetypes="sssss" /><path
       id="path15"
       style="fill:#00cf8e;fill-opacity:1;stroke:#001e14;stroke-width:0.720841;stroke-miterlimit:4;stroke-dasharray:none;stroke-opacity:1"
       d="m 23.592958,18.420224 c -0.240107,0.32455 -0.544151,0.514214 -0.794446,0.460881 l -3.447757,-0.734696 c -0.130561,-0.05353 -0.258699,-0.09092 -0.389738,-0.143266 l -2.92011,-1.997734 c -0.308277,-0.21091 -0.276694,-0.824637 0.07023,-1.375817 l 0.26204,-0.417426 c 0.346908,-0.551189 0.874754,-0.824592 1.183031,-0.61368 l 2.68527,1.837194 c 0.0376,-0.002 0.07415,4.22e-4 0.109915,0.0081 l 3.448707,0.73444 c 0.364061,0.07757 0.472291,0.638714 0.243033,1.25756 l -0.173364,0.468565 c -0.07165,0.193388 -0.167767,0.368293 -0.27682,0.51588 z"
       sodipodi:nodetypes="ccccccccccccccc" /><path
       id="path16"
       style="fill:#00452f;fill-opacity:1;stroke:none;stroke-width:0.720841;stroke-miterlimit:4;stroke-dasharray:none;stroke-opacity:1"
       d="m 16.338583,13.910672 c 0.0072,0.180027 0.06762,0.328691 0.183893,0.418519 l 2.79956,2.162976 c 0.127799,0.05982 0.253993,0.104441 0.381247,0.165422 l 3.399182,0.932556 c 0.246801,0.06768 0.561624,-0.10417 0.820061,-0.41432 0.04327,-0.05199 0.08497,-0.107531 0.12455,-0.166722 -0.02539,0.131719 -0.06859,0.270867 -0.130461,0.412253 l -0.200393,0.457904 c -0.08269,0.188931 -0.188382,0.357869 -0.30577,0.498917 -0.258437,0.310153 -0.57326,0.482008 -0.82006,0.414319 L 19.190693,17.85991 c -0.127253,-0.06097 -0.25293,-0.105573 -0.38073,-0.165392 l -2.800076,-2.163005 c -0.295592,-0.228349 -0.228605,-0.839038 0.149549,-1.369278 z" /><g
       id="g30"
       transform="matrix(-1,0,0,1,52.681484,-1.3835404)"><path
         id="path17"
         style="fill:#4e4e4e;fill-opacity:1;stroke:#171717;stroke-width:0.492379;stroke-linecap:round;stroke-linejoin:round;stroke-opacity:1"
         d="m 29.954793,19.038528 -0.62001,-3.795487 1.634508,0.02316 0.923594,3.49222 z"
         sodipodi:nodetypes="ccccc" /><path
         id="path19"
         style="fill:#656565;fill-opacity:1;stroke:#272727;stroke-width:0.55434;stroke-linecap:round;stroke-linejoin:round;stroke-dasharray:none;stroke-opacity:1"
         d="m 28.101337,6.9830043 -0.595603,2.4348026 c 0.12512,2.3270001 1.065783,4.4141341 2.044722,6.4900101 l 1.430932,-0.21052 c -0.550135,-2.17067 -1.286504,-4.353756 -1.108864,-6.4759076 l 0.02327,-0.00156 z"
         sodipodi:nodetypes="ccccccc" /><path
         style="fill:none;fill-opacity:1;stroke:#272727;stroke-width:0.494332;stroke-dasharray:none;stroke-opacity:1"
         d="m 28.258633,7.3296815 c 0.350829,2.0868004 0.624053,4.5626295 1.37833,6.6998605"
         id="path27"
         sodipodi:nodetypes="cc" /><path
         id="path29"
         style="fill:#4e4e4e;fill-opacity:1;stroke:#171717;stroke-width:0.406037;stroke-linecap:round;stroke-linejoin:round;stroke-opacity:1"
         d="m 27.830339,15.528156 4.837517,-0.744082 -0.216988,2.014565 -3.815165,0.616368 z"
         sodipodi:nodetypes="ccccc" /></g><ellipse
       style="fill:#171717;fill-opacity:1;stroke:none;stroke-width:0.574345;stroke-linecap:round;stroke-linejoin:round;stroke-opacity:1"
       id="ellipse31"
       cx="22.64579"
       cy="15.414023"
       rx="1.6487681"
       ry="1.1198155" /><ellipse
       style="fill:#00cf8e;fill-opacity:1;stroke:#001e14;stroke-width:0.565134;stroke-linecap:round;stroke-linejoin:round;stroke-opacity:1"
       id="ellipse30"
       cx="-26.517328"
       cy="9.049737"
       rx="1.7799245"
       ry="2.0180008"
       transform="matrix(-0.94923472,-0.31456868,-0.2848294,0.95857823,0,0)" /><path
       id="path30"
       style="fill:#00452f;fill-opacity:1;stroke:none;stroke-width:0.494555;stroke-linecap:round;stroke-linejoin:round;stroke-opacity:1"
       d="m 22.967293,15.329895 a 1.5703329,1.7516909 14.541867 0 1 0.210429,0.05793 1.5703329,1.7516909 14.541867 0 1 0.907948,2.193818 1.5703329,1.7516909 14.541867 0 1 -2.0451,1.117218 1.5703329,1.7516909 14.541867 0 1 -0.917877,-0.982676 1.5703329,1.7516909 14.541867 0 0 1.835155,-1.174604 1.5703329,1.7516909 14.541867 0 0 0.0094,-1.211673 z" /><path
       id="path9"
       style="fill:#c23b00;fill-opacity:1;stroke:#371100;stroke-width:0.447636;stroke-dasharray:none;stroke-opacity:1"
       d="m 7.3098365,16.80536 c 0.3184312,-0.932435 -1.1447325,0.998791 -1.690342,1.842088 -0.3439148,0.531559 0.6623874,1.17526 1.5851469,1.211141 0.9227587,0.03588 2.2921029,-0.834445 1.75646,-1.081204 -1.613776,-0.743438 -1.7129776,-1.79132 -1.6512649,-1.972025 z"
       sodipodi:nodetypes="sssss" /><path
       id="rect9714"
       style="fill:#00cf8e;fill-opacity:1;stroke:#001e14;stroke-width:0.720841;stroke-miterlimit:4;stroke-dasharray:none;stroke-opacity:1"
       d="m 3.1855761,18.497087 c 0.2401072,0.32455 0.5441507,0.514214 0.7944462,0.460881 l 3.4477568,-0.734696 c 0.1305606,-0.05353 0.2586991,-0.09092 0.389738,-0.143266 l 2.9201099,-1.997734 c 0.308277,-0.21091 0.276694,-0.824637 -0.07023,-1.375817 l -0.26204,-0.417426 C 10.058449,13.73784 9.5306032,13.464437 9.2223258,13.675349 l -2.6852702,1.837194 c -0.037597,-0.002 -0.074149,4.22e-4 -0.1099142,0.0081 l -3.4487076,0.73444 c -0.3640611,0.07757 -0.472291,0.638714 -0.243033,1.25756 l 0.1733643,0.468565 c 0.071651,0.193388 0.1677674,0.368293 0.27682,0.51588 z"
       sodipodi:nodetypes="ccccccccccccccc" /><path
       id="path10"
       style="fill:#00452f;fill-opacity:1;stroke:none;stroke-width:0.720841;stroke-miterlimit:4;stroke-dasharray:none;stroke-opacity:1"
       d="m 10.439951,13.987535 c -0.0072,0.180027 -0.06762,0.328691 -0.183893,0.418519 L 7.4564979,16.56903 c -0.1277994,0.05982 -0.253993,0.104441 -0.3812471,0.165422 l -3.3991822,0.932556 c -0.2468006,0.06768 -0.5616234,-0.10417 -0.8200602,-0.41432 -0.043267,-0.05199 -0.084966,-0.107531 -0.1245507,-0.166722 0.025388,0.131719 0.068586,0.270867 0.1304617,0.412253 l 0.2003921,0.457904 c 0.082692,0.188931 0.1883826,0.357869 0.3057705,0.498917 0.2584365,0.310153 0.5732596,0.482008 0.8200602,0.414319 L 7.587841,17.936773 c 0.127253,-0.06097 0.25293,-0.105573 0.38073,-0.165392 l 2.800076,-2.163005 c 0.295592,-0.228349 0.228605,-0.839038 -0.149549,-1.369278 z" /><g
       id="g7"
       transform="translate(-25.90295,-1.306677)"><path
         id="rect6"
         style="fill:#4e4e4e;fill-opacity:1;stroke:#171717;stroke-width:0.492379;stroke-linecap:round;stroke-linejoin:round;stroke-opacity:1"
         d="m 29.954793,19.038528 -0.62001,-3.795487 1.634508,0.02316 0.923594,3.49222 z"
         sodipodi:nodetypes="ccccc" /><path
         id="rect4"
         style="fill:#656565;fill-opacity:1;stroke:#272727;stroke-width:0.55434;stroke-linecap:round;stroke-linejoin:round;stroke-dasharray:none;stroke-opacity:1"
         d="m 28.101337,6.9830043 -0.595603,2.4348026 c 0.12512,2.3270001 1.065783,4.4141341 2.044722,6.4900101 l 1.430932,-0.21052 c -0.550135,-2.17067 -1.286504,-4.353756 -1.108864,-6.4759076 l 0.02327,-0.00156 z"
         sodipodi:nodetypes="ccccccc" /><path
         style="fill:none;fill-opacity:1;stroke:#272727;stroke-width:0.494332;stroke-dasharray:none;stroke-opacity:1"
         d="m 28.258633,7.3296815 c 0.350829,2.0868004 0.624053,4.5626295 1.37833,6.6998605"
         id="path9-2"
         sodipodi:nodetypes="cc" /><path
         id="rect5"
         style="fill:#4e4e4e;fill-opacity:1;stroke:#171717;stroke-width:0.406037;stroke-linecap:round;stroke-linejoin:round;stroke-opacity:1"
         d="m 27.830339,15.528156 4.837517,-0.744082 -0.216988,2.014565 -3.815165,0.616368 z"
         sodipodi:nodetypes="ccccc" /></g><ellipse
       style="fill:#171717;fill-opacity:1;stroke:none;stroke-width:0.526276;stroke-linecap:round;stroke-linejoin:round;stroke-opacity:1"
       id="path31"
       cx="4.2177997"
       cy="15.47167"
       rx="1.5142572"
       ry="1.0237362" /><ellipse
       style="fill:#00cf8e;fill-opacity:1;stroke:#001e14;stroke-width:0.565134;stroke-linecap:round;stroke-linejoin:round;stroke-opacity:1"
       id="path4"
       cx="-0.85743457"
       cy="17.550516"
       rx="1.7799245"
       ry="2.0180008"
       transform="matrix(0.94923472,-0.31456868,0.2848294,0.95857823,0,0)" /><path
       id="ellipse8"
       style="fill:#00452f;fill-opacity:1;stroke:none;stroke-width:0.494555;stroke-linecap:round;stroke-linejoin:round;stroke-opacity:1"
       d="m 3.8112414,15.406758 a 1.7516909,1.5703329 75.458133 0 0 -0.210429,0.05793 1.7516909,1.5703329 75.458133 0 0 -0.9079482,2.193818 1.7516909,1.5703329 75.458133 0 0 2.0451,1.117218 1.7516909,1.5703329 75.458133 0 0 0.9178763,-0.982676 1.7516909,1.5703329 75.458133 0 1 -1.8351549,-1.174604 1.7516909,1.5703329 75.458133 0 1 -0.00944,-1.211673 z" /><path
       style="fill:none;fill-opacity:1;stroke:#371100;stroke-width:0.464992;stroke-linecap:round;stroke-dasharray:none;stroke-opacity:1"
       d="m 18.972031,6.6263089 c 1.330852,-0.5246745 2.331593,-0.4219257 3.1391,0.048094"
       id="path25"
       sodipodi:nodetypes="cc" /><path
       style="fill:none;fill-opacity:1;stroke:#371100;stroke-width:0.464992;stroke-linecap:round;stroke-dasharray:none;stroke-opacity:1"
       d="m 19.047443,6.2097886 c 1.37302,-0.4015805 2.100549,-1.096376 2.450233,-1.9628099"
       id="path24"
       sodipodi:nodetypes="cc" /><path
       id="path2"
       style="fill:#c23b00;fill-opacity:1;stroke:#371100;stroke-width:0.696;stroke-dasharray:none;stroke-opacity:1"
       d="M 9.1721029,6.5894812 C 10.643771,6.5303621 7.2499488,7.897635 5.8081293,8.3501488 4.8993032,8.6353831 4.4108669,6.776935 4.756512,5.330886 5.1021572,3.884837 6.9370659,2.1689498 7.0598211,3.1135422 7.4296564,5.9593975 8.8868939,6.6009385 9.1721029,6.5894812 Z"
       sodipodi:nodetypes="sssss" /><path
       id="rect9738"
       style="fill:#00cf8e;fill-opacity:1;stroke:#001e14;stroke-width:0.656868;stroke-miterlimit:4;stroke-dasharray:none;stroke-opacity:1"
       d="m 13.608198,11.593315 c -1.343307,1.96e-4 -2.460237,0.80411 -2.564104,1.845524 l -1.4389401,-0.05167 0.336286,6.346266 c 3.6492791,2.307421 5.3729171,1.312733 7.6622391,-0.05038 l -0.0095,-6.244207 h -1.421337 c -0.103881,-1.041579 -1.221138,-1.845555 -2.56466,-1.845524 z"
       sodipodi:nodetypes="ccccccccc" /><rect
       style="fill:#00cf8e;fill-opacity:1;stroke:#001e14;stroke-width:0.55398;stroke-opacity:1"
       id="rect46"
       width="3.2019644"
       height="6.2298665"
       x="9.8012218"
       y="20.084679"
       ry="1.0962124" /><rect
       style="fill:#00cf8e;fill-opacity:1;stroke:#001e14;stroke-width:0.562954;stroke-opacity:1"
       id="rect47"
       width="3.3457539"
       height="6.1568403"
       x="13.844032"
       y="20.105844"
       ry="1.0833627" /><path
       id="path47"
       style="fill:#00452f;fill-opacity:1;stroke-width:0.441562"
       d="m 11.019899,20.540071 h 0.762343 c 0.512961,0 0.925923,0.38081 0.925923,0.853832 v 3.144734 c 0,0.473023 -0.368818,0.515397 -0.871199,0.610976 l -0.878633,0.16716 c -0.502381,0.09558 -0.864359,-0.305113 -0.864359,-0.778136 v -3.144734 c 0,-0.473022 0.412962,-0.853832 0.925925,-0.853832 z"
       sodipodi:nodetypes="sssssssss" /><path
       id="path48"
       style="fill:#00452f;fill-opacity:1;stroke-width:0.438987"
       d="m 15.0424,21.021122 h 0.856544 c 0.576346,0 1.040335,0.334986 1.040335,0.751092 v 2.766339 c 0,0.416106 -0.414391,0.453381 -0.97885,0.537458 l -0.987202,0.147048 c -0.564458,0.08408 -0.971162,-0.2684 -0.971162,-0.684506 v -2.766339 c 0,-0.416106 0.463989,-0.751092 1.040335,-0.751092 z"
       sodipodi:nodetypes="sssssssss" /><path
       id="path8"
       style="fill:#ffffff;fill-opacity:1;stroke:#001e14;stroke-width:0.54578;stroke-miterlimit:4;stroke-dasharray:none;stroke-opacity:1"
       d="m 9.8571458,19.748221 -0.249851,3.316164 1.9671882,0.392835 1.562523,-0.171902 1.430284,0.0098 1.401952,0.103171 1.730593,-0.170396 -0.05363,-3.479712 z"
       sodipodi:nodetypes="ccccccccc" /><ellipse
       style="fill:#00452f;fill-opacity:1;stroke:none;stroke-width:0.227459;stroke-miterlimit:4;stroke-dasharray:none;stroke-opacity:1"
       id="ellipse49"
       cx="13.661813"
       cy="12.87202"
       rx="2.0959554"
       ry="1.296069" /><path
       style="fill:none;fill-opacity:1;stroke:#001e14;stroke-width:0.568587;stroke-linecap:round;stroke-dasharray:none;stroke-opacity:1"
       d="m 9.6422159,14.206343 c 0,0 0.148073,1.337687 0.8234411,1.737806 0.515098,0.305166 2.623633,0.198415 2.623633,0.198415"
       id="path23"
       sodipodi:nodetypes="csc" /><g
       id="g29"
       transform="matrix(0.33292115,0,0,-0.28651355,-0.00122753,28.492747)"
       style="fill:#001e14;fill-opacity:1"><ellipse
         style="fill:#001e14;fill-opacity:1;stroke:none;stroke-width:1.6332;stroke-dasharray:none;stroke-opacity:1"
         id="path28"
         cx="35.288403"
         cy="41.778561"
         rx="1.6525621"
         ry="1.2682455" /><ellipse
         style="fill:#001e14;fill-opacity:1;stroke:none;stroke-width:1.24266;stroke-dasharray:none;stroke-opacity:1"
         id="ellipse28"
         cx="35.326832"
         cy="41.804771"
         rx="1.1913821"
         ry="1.0184395" /><ellipse
         style="fill:#001e14;fill-opacity:1;stroke:none;stroke-width:0.946814;stroke-dasharray:none;stroke-opacity:1"
         id="ellipse29"
         cx="35.04314"
         cy="41.491093"
         rx="0.87090665"
         ry="0.80879658" /></g><path
       style="fill:none;fill-opacity:1;stroke:#001e14;stroke-width:0.568587;stroke-linecap:round;stroke-dasharray:none;stroke-opacity:1"
       d="m 17.57925,14.258022 c 0,0 -0.148073,1.337686 -0.82344,1.737804 -0.515097,0.305166 -2.62363,0.198417 -2.62363,0.198417"
       id="path14"
       sodipodi:nodetypes="csc" /><g
       id="g16"
       transform="matrix(-0.33292115,0,0,-0.28651355,26.79452,28.473365)"
       style="fill:#001e14;fill-opacity:1"><ellipse
         style="fill:#001e14;fill-opacity:1;stroke:none;stroke-width:1.6332;stroke-dasharray:none;stroke-opacity:1"
         id="ellipse14"
         cx="35.288403"
         cy="41.778561"
         rx="1.6525621"
         ry="1.2682455" /><ellipse
         style="fill:#001e14;fill-opacity:1;stroke:none;stroke-width:1.24266;stroke-dasharray:none;stroke-opacity:1"
         id="ellipse15"
         cx="35.326832"
         cy="41.804771"
         rx="1.1913821"
         ry="1.0184395" /><ellipse
         style="fill:#001e14;fill-opacity:1;stroke:none;stroke-width:0.946814;stroke-dasharray:none;stroke-opacity:1"
         id="ellipse16"
         cx="35.04314"
         cy="41.491093"
         rx="0.87090665"
         ry="0.80879658" /></g><rect
       style="fill:#ffffff;fill-opacity:1;stroke:#001e14;stroke-width:0.593303;stroke-linecap:round;stroke-dasharray:none;stroke-opacity:1"
       id="rect18"
       width="7.8638339"
       height="1.0546612"
       x="9.8383398"
       y="19.346523"
       ry="0.52733058" /><path
       style="fill:none;fill-opacity:1;stroke:#371100;stroke-width:0.464992;stroke-linecap:round;stroke-dasharray:none;stroke-opacity:1"
       d="M 8.7171199,6.7261193 C 7.3440996,6.3245388 6.6165705,5.6297433 6.2668868,4.7633094"
       id="path20"
       sodipodi:nodetypes="cc" /><path
       style="fill:none;fill-opacity:1;stroke:#371100;stroke-width:0.464992;stroke-linecap:round;stroke-dasharray:none;stroke-opacity:1"
       d="M 8.7925319,7.1426396 C 7.4616795,6.6179651 6.4609387,6.7207139 5.6534313,7.1907333"
       id="path21"
       sodipodi:nodetypes="cc" /><path
       style="fill:none;fill-opacity:1;stroke:#371100;stroke-width:0.464992;stroke-linecap:round;stroke-dasharray:none;stroke-opacity:1"
       d="M 8.3918349,7.2363045 C 7.3798786,6.2251688 6.420958,5.921013 5.4930809,6.0306968"
       id="path22"
       sodipodi:nodetypes="cc" /><path
       style="fill:none;fill-opacity:1;stroke:#371100;stroke-width:0.464992;stroke-linecap:round;stroke-dasharray:none;stroke-opacity:1"
       d="M 19.372728,6.7199738 C 20.384684,5.7088381 21.343604,5.4046823 22.271481,5.5143661"
       id="path26"
       sodipodi:nodetypes="cc" /><path
       id="ellipse3"
       style="fill:#00432e;fill-opacity:1;stroke:#001e14;stroke-width:0.837515;stroke-miterlimit:4;stroke-dasharray:none;stroke-opacity:1"
       d="M 13.73012,0.66072011 C 12.592444,0.66083382 11.429296,1.12563 11.115318,2.1157371 9.2047249,3.0657247 8.1589427,5.2381624 8.1588821,7.378255 c -1.098e-4,3.109621 2.5113459,5.630544 5.6094639,5.630609 3.098117,-6.6e-5 5.609571,-2.520988 5.609461,-5.630609 C 19.377747,5.2017443 18.345284,3.0299736 16.38524,2.0989271 16.055084,1.1307494 14.849203,0.66065707 13.73012,0.66072011 Z"
       sodipodi:nodetypes="ccccccc" /><ellipse
       style="fill:#00cf8e;fill-opacity:1;stroke:none;stroke-width:0.296652;stroke-miterlimit:4;stroke-dasharray:none;stroke-opacity:1"
       id="ellipse4"
       cx="13.967298"
       cy="7.0136161"
       rx="4.9461136"
       ry="4.9713206" /><ellipse
       style="fill:#3affc2;fill-opacity:1;stroke:none;stroke-width:0.84444;stroke-dasharray:none;stroke-opacity:1"
       id="ellipse8-6"
       cx="6.5797286"
       cy="14.68462"
       rx="3.0567937"
       ry="4.0919609"
       transform="matrix(0.72969412,-0.68377371,0.69732971,0.71675049,0,0)" /><path
       id="path12-1"
       style="fill:#ffffff;fill-opacity:1;stroke:#001e14;stroke-width:0.511748;stroke-miterlimit:4;stroke-dasharray:none;stroke-opacity:1"
       d="M 10.24091,5.3320708 C 9.9153079,5.632561 9.5915809,6.1778544 9.4574969,6.6172416 9.0820239,7.8480554 9.6546229,9.1133752 10.73648,9.4435142 11.818346,9.7736243 12.999829,9.0435543 13.375492,7.8127983 13.509563,7.3734076 13.540987,6.9137677 13.438622,6.482685 12.531993,5.8911317 11.448761,5.4681295 10.24091,5.3320708 Z"
       sodipodi:nodetypes="cccccc" /><ellipse
       style="fill:#001e14;fill-opacity:1;stroke:none;stroke-width:1.44338"
       id="ellipse31-8"
       cx="11.367639"
       cy="7.4781604"
       rx="1.5012131"
       ry="1.5897816" /><path
       id="path36-7"
       style="fill:#00432e;fill-opacity:1;stroke:none;stroke-width:1.44338"
       d="M 10.47837,6.1972611 A 1.5012129,1.5897816 0 0 0 9.8666749,7.4783327 1.5012129,1.5897816 0 0 0 11.367986,9.0680356 1.5012129,1.5897816 0 0 0 12.633275,8.333335 1.5012129,1.5897816 0 0 1 11.74436,8.6419666 1.5012129,1.5897816 0 0 1 10.24305,7.0522636 1.5012129,1.5897816 0 0 1 10.47837,6.1972611 Z" /><ellipse
       style="fill:#ffffff;fill-opacity:1;stroke:none;stroke-width:0.608423"
       id="ellipse36-9"
       cx="12.066405"
       cy="6.8209963"
       rx="0.58081633"
       ry="0.73009682" /><g
       id="g6"
       transform="matrix(-1,0,0,1,26.937161,-0.06367568)"><path
         id="path3"
         style="fill:#ffffff;fill-opacity:1;stroke:#001e14;stroke-width:0.511748;stroke-miterlimit:4;stroke-dasharray:none;stroke-opacity:1"
         d="M 9.3996388,4.8387271 C 9.0669743,5.1313784 8.730353,5.6688081 8.5858446,6.1048778 8.1811679,7.3264013 8.7234727,8.6049977 9.7971605,8.9608057 10.870858,9.3165849 12.069392,8.6148571 12.474256,7.3933959 12.618753,6.9573225 12.596598,6.4702278 12.504525,6.0368296 11.612243,5.4238543 10.603906,5.0035101 9.3996388,4.8387271 Z"
         sodipodi:nodetypes="cccccc" /><ellipse
         style="fill:#001e14;fill-opacity:1;stroke:none;stroke-width:1.44338"
         id="ellipse5"
         cx="10.476668"
         cy="7.01267"
         rx="1.5012131"
         ry="1.5897816" /><path
         id="path5"
         style="fill:#00432e;fill-opacity:1;stroke:none;stroke-width:1.44338"
         d="M 9.5873992,5.7317701 A 1.5012129,1.5897816 0 0 0 8.9757042,7.0128417 1.5012129,1.5897816 0 0 0 10.477014,8.6025446 1.5012129,1.5897816 0 0 0 11.742303,7.867844 1.5012129,1.5897816 0 0 1 10.853388,8.1764756 1.5012129,1.5897816 0 0 1 9.3520792,6.5867726 1.5012129,1.5897816 0 0 1 9.5873992,5.7317701 Z" /><ellipse
         style="fill:#ffffff;fill-opacity:1;stroke:none;stroke-width:0.608423"
         id="ellipse6"
         cx="11.175435"
         cy="6.3555055"
         rx="0.58081633"
         ry="0.73009682" /></g><ellipse
       style="fill:#c23b00;fill-opacity:1;stroke:#371100;stroke-width:0.396;stroke-dasharray:none;stroke-opacity:1"
       id="path11"
       cx="12.734416"
       cy="-2.2636178"
       rx="0.67938244"
       ry="1.0190737"
       transform="rotate(23.585442)" /><ellipse
       style="fill:#c23b00;fill-opacity:1;stroke:#371100;stroke-width:0.396;stroke-dasharray:none;stroke-opacity:1"
       id="ellipse11"
       cx="-12.768721"
       cy="8.8410616"
       rx="0.67938244"
       ry="1.0190737"
       transform="matrix(-0.91646442,0.40011619,0.40011619,0.91646442,0,0)" /><path
       style="fill:none;fill-opacity:1;stroke:#001e14;stroke-width:0.569927;stroke-linecap:round;stroke-dasharray:none;stroke-opacity:1"
       d="m 13.262831,11.734705 c 1.253588,-1.168362 2.444545,-1.48526 3.598842,-1.303743"
       id="path12"
       sodipodi:nodetypes="cc" /><ellipse
       style="fill:#c23b00;fill-opacity:1;stroke:#001e14;stroke-width:0.478205;stroke-linecap:round;stroke-linejoin:round;stroke-opacity:1"
       id="path7"
       cx="16.182184"
       cy="14.67294"
       rx="0.78530014"
       ry="0.3721596" /><ellipse
       style="fill:#c23b00;fill-opacity:1;stroke:#001e14;stroke-width:0.478205;stroke-linecap:round;stroke-linejoin:round;stroke-opacity:1"
       id="ellipse7"
       cx="10.964527"
       cy="18.178555"
       rx="0.78530014"
       ry="0.3721596" /></g></svg>
