<?xml version="1.0" encoding="UTF-8" standalone="no"?>
<!-- Created with Inkscape (http://www.inkscape.org/) -->

<svg
   width="100"
   height="100"
   viewBox="0 0 26.458333 26.458334"
   version="1.1"
   id="svg5"
   inkscape:version="1.4.2 (ebf0e940d0, 2025-05-08)"
   sodipodi:docname="vassalos.svg"
   xml:space="preserve"
   xmlns:inkscape="http://www.inkscape.org/namespaces/inkscape"
   xmlns:sodipodi="http://sodipodi.sourceforge.net/DTD/sodipodi-0.dtd"
   xmlns="http://www.w3.org/2000/svg"
   xmlns:svg="http://www.w3.org/2000/svg"><sodipodi:namedview
     id="namedview7"
     pagecolor="#505050"
     bordercolor="#ffffff"
     borderopacity="1"
     inkscape:pageshadow="0"
     inkscape:pageopacity="0"
     inkscape:pagecheckerboard="1"
     inkscape:document-units="px"
     showgrid="false"
     units="px"
     width="100px"
     inkscape:snap-global="false"
     inkscape:zoom="5.6568543"
     inkscape:cx="38.272155"
     inkscape:cy="53.121397"
     inkscape:window-width="1366"
     inkscape:window-height="697"
     inkscape:window-x="0"
     inkscape:window-y="0"
     inkscape:window-maximized="1"
     inkscape:current-layer="layer1"
     inkscape:showpageshadow="0"
     inkscape:deskcolor="#505050" /><defs
     id="defs2"><linearGradient
       id="linearGradient13895"
       inkscape:swatch="solid"><stop
         style="stop-color:#000000;stop-opacity:1;"
         offset="0"
         id="stop13893" /></linearGradient><filter
       style="color-interpolation-filters:sRGB;"
       inkscape:label="Clean Edges"
       id="filter14269"
       x="-0.31154084"
       y="-0.29580634"
       width="1.6230817"
       height="1.5916127"><feGaussianBlur
         stdDeviation="0.204612"
         result="blur"
         id="feGaussianBlur14263" /><feComposite
         in="SourceGraphic"
         in2="blur"
         operator="in"
         result="composite1"
         id="feComposite14265" /><feComposite
         in="composite1"
         in2="composite1"
         operator="in"
         result="composite2"
         id="feComposite14267" /></filter><inkscape:path-effect
       effect="fillet_chamfer"
       id="path-effect68"
       is_visible="true"
       lpeversion="1"
       nodesatellites_param="F,0,0,1,0,0,0,1 @ F,0,0,1,0,0,0,1 @ F,0,0,1,0,0,0,1 @ F,0,0,1,0,0,0,1 @ F,0,0,1,0,0,0,1 @ F,0,0,1,0,0,0,1 @ F,0,0,1,0,0,0,1 @ F,0,0,1,0,0,0,1 @ F,0,0,1,0,0,0,1"
       radius="0"
       unit="px"
       method="auto"
       mode="F"
       chamfer_steps="1"
       flexible="false"
       use_knot_distance="true"
       apply_no_radius="true"
       apply_with_radius="true"
       only_selected="false"
       hide_knots="false" /><inkscape:path-effect
       effect="fillet_chamfer"
       id="path-effect66"
       is_visible="true"
       lpeversion="1"
       nodesatellites_param="F,0,0,1,0,0,0,1 @ F,0,0,1,0,0.44929322,0,1 @ F,0,0,1,0,0.44929322,0,1 @ F,0,0,1,0,0,0,1 @ F,0,0,1,0,0,0,1 @ F,0,0,1,0,0,0,1 @ F,0,0,1,0,0,0,1 @ F,0,0,1,0,0,0,1 @ F,0,0,1,0,0,0,1 @ F,0,0,1,0,0,0,1"
       radius="0"
       unit="px"
       method="auto"
       mode="F"
       chamfer_steps="1"
       flexible="false"
       use_knot_distance="true"
       apply_no_radius="true"
       apply_with_radius="true"
       only_selected="false"
       hide_knots="false" /><filter
       style="color-interpolation-filters:sRGB;"
       inkscape:label="Clean Edges"
       id="filter14269-35"
       x="-0.31154084"
       y="-0.29580634"
       width="1.6230817"
       height="1.5916127"><feGaussianBlur
         stdDeviation="0.204612"
         result="blur"
         id="feGaussianBlur14263-6" /><feComposite
         in="SourceGraphic"
         in2="blur"
         operator="in"
         result="composite1"
         id="feComposite14265-2" /><feComposite
         in="composite1"
         in2="composite1"
         operator="in"
         result="composite2"
         id="feComposite14267-9" /></filter><filter
       style="color-interpolation-filters:sRGB;"
       inkscape:label="Clean Edges"
       id="filter14269-3"
       x="-0.31154084"
       y="-0.29580634"
       width="1.6230817"
       height="1.5916127"><feGaussianBlur
         stdDeviation="0.204612"
         result="blur"
         id="feGaussianBlur14263-5" /><feComposite
         in="SourceGraphic"
         in2="blur"
         operator="in"
         result="composite1"
         id="feComposite14265-6" /><feComposite
         in="composite1"
         in2="composite1"
         operator="in"
         result="composite2"
         id="feComposite14267-2" /></filter><filter
       style="color-interpolation-filters:sRGB;"
       inkscape:label="Clean Edges"
       id="filter14269-8"
       x="-0.31154084"
       y="-0.29580634"
       width="1.6230817"
       height="1.5916127"><feGaussianBlur
         stdDeviation="0.204612"
         result="blur"
         id="feGaussianBlur14263-9" /><feComposite
         in="SourceGraphic"
         in2="blur"
         operator="in"
         result="composite1"
         id="feComposite14265-7" /><feComposite
         in="composite1"
         in2="composite1"
         operator="in"
         result="composite2"
         id="feComposite14267-3" /></filter></defs><g
     inkscape:label="Camada 1"
     inkscape:groupmode="layer"
     id="layer1"><rect
       style="fill:#006f4c;fill-opacity:1;stroke:#001e14;stroke-width:0.547255;stroke-opacity:1"
       id="rect46-7"
       width="2.9710424"
       height="6.5520492"
       x="7.8525586"
       y="19.419569"
       ry="1.1529039" /><rect
       style="fill:#006f4c;fill-opacity:1;stroke:#001e14;stroke-width:0.55612;stroke-opacity:1"
       id="rect47-0"
       width="3.1044619"
       height="6.4752464"
       x="11.603807"
       y="19.441828"
       ry="1.1393898" /><path
       id="path47-9"
       style="fill:#00432e;fill-opacity:1;stroke-width:0.449457"
       d="m 8.9435998,20.322914 h 0.733361 c 0.4934602,0 0.8907232,0.410141 0.8907232,0.919599 v 3.386959 c 0,0.509458 -0.354797,0.555096 -0.8380792,0.658037 l -0.84523,0.180036 c -0.483282,0.102941 -0.831498,-0.328615 -0.831498,-0.838073 v -3.386959 c 0,-0.509458 0.397262,-0.919599 0.890723,-0.919599 z"
       sodipodi:nodetypes="sssssssss" /><path
       id="path48-3"
       style="fill:#00432e;fill-opacity:1;stroke-width:0.455488"
       d="m 12.772205,20.40444 h 0.753173 c 0.506792,0 0.914786,0.410141 0.914786,0.919599 v 3.386959 c 0,0.509458 -0.364381,0.555096 -0.86072,0.658037 l -0.868064,0.180036 c -0.496338,0.102941 -0.853961,-0.328615 -0.853961,-0.838073 v -3.386959 c 0,-0.509458 0.407994,-0.919599 0.914786,-0.919599 z"
       sodipodi:nodetypes="sssssssss" /><path
       id="rect9714-6"
       style="fill:#006f4c;fill-opacity:1;stroke:#001e14;stroke-width:0.766134;stroke-miterlimit:4;stroke-dasharray:none;stroke-opacity:1"
       d="m 7.0771548,12.2265 c -0.38705,0.09432 -0.699441,0.325535 -0.788394,0.621668 l -1.225282,4.079189 c -0.02576,0.167457 -0.06319,0.324158 -0.09015,0.491529 l 0.06681,4.149609 c 0.0071,0.43808 0.516544,0.714082 1.141827,0.619342 l 0.473181,-0.071 c 0.625284,-0.09473 1.122757,-0.524348 1.115695,-0.96243 l -0.06154,-3.815952 c 0.02138,-0.03944 0.0387,-0.07997 0.05142,-0.122276 l 1.225953,-4.080105 c 0.129386,-0.430735 -0.264253,-0.830546 -0.881923,-0.89653 l -0.467559,-0.0502 c -0.193026,-0.02062 -0.384089,-0.0056 -0.560025,0.03718 z"
       sodipodi:nodetypes="ccccccccccccccc" /><rect
       style="fill:#af7700;fill-opacity:1;stroke:#2d2000;stroke-width:0.639753;stroke-linecap:round;stroke-linejoin:round;stroke-dasharray:none;stroke-opacity:1"
       id="rect8"
       width="3.4497409"
       height="5.7593126"
       x="7.629137"
       y="10.108075"
       transform="matrix(0.97682242,0.21405131,-0.2096495,0.9777766,0,0)"
       ry="1.3457601" /><path
       id="path11551-0"
       style="fill:#006f4c;fill-opacity:1;stroke:#001e14;stroke-width:0.728343;stroke-miterlimit:4;stroke-dasharray:none;stroke-opacity:1"
       d="m 22.820833,13.626978 c -0.118741,0.407513 -0.358479,0.727999 -0.640029,0.806881 l -3.878288,1.08655 c -0.06572,0.01842 -0.129911,0.02251 -0.190914,0.01373 -0.08986,0.04228 -0.181458,0.06287 -0.271725,0.05594 L 14.00154,15.295607 c -0.405221,-0.03109 -0.619405,-0.588985 -0.480749,-1.250358 l 0.104285,-0.500531 c 0.138652,-0.661374 0.577097,-1.168506 0.982318,-1.13741 l 3.5297,0.27087 c 0.03827,-0.02066 0.07722,-0.03694 0.117463,-0.0482 l 3.879185,-1.087217 c 0.409523,-0.114732 0.74783,0.326334 0.758665,0.988245 l 0.0084,0.501061 c 0.0034,0.206848 -0.02602,0.409687 -0.08002,0.594914 z" /><path
       id="path8"
       style="fill:#af7700;fill-opacity:1;stroke:#2d2000;stroke-width:0.717688;stroke-miterlimit:4;stroke-dasharray:none;stroke-opacity:1"
       d="m 7.5968818,17.630824 -0.200805,5.697129 2.134252,-0.57026 1.3149832,1.97613 1.563447,-0.05455 1.131221,-1.830944 1.630834,1.013 -0.0518,-6.230509 z"
       sodipodi:nodetypes="ccccccccc" /><rect
       style="fill:#af7700;fill-opacity:1;stroke:#2d2000;stroke-width:0.593053;stroke-linecap:round;stroke-linejoin:round;stroke-dasharray:none;stroke-opacity:1"
       id="rect9"
       width="3.4959421"
       height="4.8837752"
       x="12.170055"
       y="-18.7229"
       transform="matrix(-0.0117854,0.99993055,-0.99993444,-0.01145017,0,0)"
       ry="1.1411761" /><path
       id="path6"
       style="fill:#ffb81f;fill-opacity:1;stroke:none;stroke-width:0.618959;stroke-miterlimit:4;stroke-dasharray:none;stroke-opacity:1"
       d="m 12.70788,18.57135 a 4.3775119,3.4610713 3.4287084 0 1 1.116724,2.504486 4.3775119,3.4610713 3.4287084 0 1 -0.417148,1.311189 l 1.306473,0.612893 0.201629,-4.296298 z" /><rect
       style="fill:#3a2900;fill-opacity:1;stroke:none;stroke-width:0.547519;stroke-linecap:round;stroke-linejoin:round;stroke-dasharray:none;stroke-opacity:1"
       id="rect7"
       width="2.8191314"
       height="5.1619563"
       x="10.991179"
       y="7.9322858"
       transform="matrix(0.92975969,0.36816698,-0.31932331,0.94764583,0,0)"
       ry="1.2061777" /><path
       style="fill:#3a2900;fill-opacity:1;stroke:none;stroke-width:0.577302;stroke-linecap:round;stroke-linejoin:round"
       d="m 15.475753,15.617297 c 0.58482,-1.197312 1.365488,-2.157784 2.48426,-2.70939 0,0 0.120644,-0.09677 -0.324159,-0.250656 -0.444804,-0.153882 -2.417687,-0.02638 -2.417687,-0.02638 z"
       id="path12"
       sodipodi:nodetypes="cczcc" /><path
       id="rect9738-6"
       style="fill:#af7700;fill-opacity:1;stroke:#2d2000;stroke-width:0.654777;stroke-miterlimit:4;stroke-dasharray:none;stroke-opacity:1"
       d="m 7.7433388,12.433134 -0.308509,6.507613 c 3.4503572,2.424939 5.7616002,1.432537 7.9261322,0 l -0.285771,-6.507613 z"
       sodipodi:nodetypes="ccccc" /><path
       id="path1-1"
       style="fill:#191200;fill-opacity:1;stroke-width:0.045826"
       d="m 9.1964049,14.716395 c -0.0017,1.82e-4 -0.003,0.0017 -0.003,0.0035 v 0.523194 4.246943 0.04063 c 0,0.002 0.00152,0.0035 0.00338,0.0035 h 4.7086291 l -0.392415,-0.530316 -3.8278292,0.04562 0.057439,-3.787666 3.8925042,-0.01522 v 2.845793 l -3.192213,0.0054 0.03553,-1.861152 2.521136,-0.02151 v 0.928063 c -0.744761,0.02482 -1.638811,-0.03786 -2.379748,0.0019 l 0.13939,0.214356 h 0.120783 c 0.03672,0 0.06628,0.03131 0.06628,0.07021 v 0.0048 c 0,0.0389 -0.02956,0.07021 -0.06628,0.07021 h -0.120783 l -0.111203,0.175068 c 0.838152,0.0073 1.797327,-0.0062 2.638927,-0.0062 0.0019,0 0.0033,-0.0016 0.0033,-0.0036 v -0.402736 -7e-5 -0.120387 c 0,-1.26e-4 1.1e-5,-2.45e-4 0,-3.64e-4 v -1.432494 c 0,-0.0058 -0.0044,-0.01056 -0.01,-0.01056 h -0.0071 v -0.01493 c 0,-0.002 -0.0015,-0.0036 -0.0033,-0.0036 H 9.9416777 c -0.00186,0 -0.00334,0.0016 -0.00334,0.0036 v 7.22e-4 c -0.00569,0.0033 -0.00956,0.0097 -0.00956,0.01706 v 2.389805 0.471461 0.05173 c 0,0.002 0.00152,0.0035 0.00338,0.0035 h 3.7136343 c 0.004,0.0029 0.0089,0.0046 0.01409,0.0046 h 0.241189 c 0.01372,0 0.02478,-0.01168 0.02478,-0.02621 v -3.858596 c 0,-0.0097 -0.005,-0.01817 -0.01236,-0.0227 -2e-5,-0.002 -0.0015,-0.0035 -0.0033,-0.0035 H 9.1967803 c -1.189e-4,0 -2.642e-4,-1.2e-5 -3.765e-4,0 z m 2.0000561,2.568397 h 0.19706 c 0.04087,0 0.07379,0.03484 0.07379,0.07812 v 0.02245 c 0,0.04329 -0.03292,0.07813 -0.07379,0.07813 h -0.19706 c -0.04087,0 -0.07375,-0.03484 -0.07375,-0.07813 v -0.02245 c 0,-0.04329 0.03289,-0.07812 0.07375,-0.07812 z"
       sodipodi:nodetypes="ssccssccccccccccccssssccssccscsscsssscsccsscsssscsscssssssssss" /><path
       id="rect11"
       style="fill:#af7700;fill-opacity:1;stroke:#2d2000;stroke-width:0.665914;stroke-opacity:1"
       d="m 20.769937,6.0860266 1.730317,0.2024959 -1.621117,16.6589745 -0.981773,0.480514 -0.748544,-0.68301 z"
       sodipodi:nodetypes="cccccc" /><path
       id="path1"
       style="fill:#af7700;fill-opacity:1;stroke:#2d2000;stroke-width:0.603409;stroke-linecap:round;stroke-linejoin:round;stroke-opacity:1"
       inkscape:transform-center-x="0.14112589"
       inkscape:transform-center-y="-0.88337131"
       d="M 24.276424,8.097264 21.62782,6.271879 18.903496,7.0148518 22.308766,0.72724999 Z"
       sodipodi:nodetypes="ccccc" /><rect
       style="fill:#2d2000;fill-opacity:1;stroke:none;stroke-width:0.772088;stroke-linecap:round;stroke-linejoin:round;stroke-dasharray:none;stroke-opacity:1"
       id="rect3"
       width="2.133261"
       height="1.7528068"
       x="15.476251"
       y="17.001608"
       transform="rotate(-18.207152)" /><rect
       style="fill:#2d2000;fill-opacity:1;stroke:none;stroke-width:0.743105;stroke-linecap:round;stroke-linejoin:round;stroke-dasharray:none;stroke-opacity:1"
       id="rect4"
       width="1.9901214"
       height="1.7404659"
       x="14.303203"
       y="20.868458"
       transform="matrix(0.94224418,-0.33492673,0.29117894,0.95666861,0,0)" /><path
       d="m 22.876394,11.590695 c -0.02779,-9.52e-4 -0.05362,0.0032 -0.07752,0.01292 l -1.456759,0.594279 c -0.382288,0.155903 -1.121078,0.464503 -1.102258,0.89762 l 0.05478,1.254704 c 0.01882,0.433116 0.251076,1.314771 0.654224,1.261421 l 2.095479,-0.276985 c 0.403149,-0.05335 1.050282,-0.823093 1.053682,-1.257288 l 0.0072,-0.910539 c 0.0032,-0.407058 -0.811987,-1.561847 -1.228865,-1.576131 z"
       style="fill:#006f4c;fill-opacity:1;stroke:#001e14;stroke-width:0.682;stroke-opacity:1"
       id="path32" /><path
       d="m 21.148737,12.652394 c 0.01347,-0.01123 0.02779,-0.02048 0.04323,-0.02737 l 0.942415,-0.418516 c 0.247295,-0.109841 0.727908,-0.320116 0.879477,-0.194033 l 0.438939,0.365366 c 0.151565,0.126085 0.364017,0.460123 0.144482,0.606365 l -1.140957,0.76022 c -0.219528,0.146247 -0.826044,0.193702 -0.989017,0.07619 l -0.341852,-0.246364 c -0.152792,-0.110171 -0.177939,-0.751558 0.02328,-0.921794 z"
       style="fill:#00c285;fill-opacity:1;stroke:none;stroke-width:0.363341"
       id="path33" /><path
       id="path2"
       style="fill:#ffb81f;fill-opacity:1;stroke-width:0.566722;stroke-linecap:round;stroke-linejoin:round"
       inkscape:transform-center-x="0.039233733"
       inkscape:transform-center-y="-0.3823512"
       d="m 21.78148,5.9002289 1.778388,1.1419259 -1.293871,-5.342384 z"
       sodipodi:nodetypes="cccc" /><path
       id="rect5"
       style="fill:#2d2000;fill-opacity:1;stroke-width:0.58686;stroke-linecap:round;stroke-linejoin:round"
       d="m 20.519785,6.4226184 h 1.888683 l 0.163052,0.856022 -2.051735,0.1358765 z"
       sodipodi:nodetypes="ccccc" /><path
       id="rect5-2"
       style="fill:#2d2000;fill-opacity:1;stroke-width:0.045826"
       d="m 9.1265088,14.642355 c -0.0017,1.82e-4 -0.003,0.0017 -0.003,0.0035 v 0.523195 4.246943 0.04064 c 0,0.002 0.00152,0.0035 0.00338,0.0035 h 4.7086292 l -0.392415,-0.530316 -3.8278293,0.04562 0.057439,-3.787665 3.8925043,-0.01522 v 2.845792 l -3.192213,0.0054 0.03553,-1.861151 2.521136,-0.02151 v 0.928063 c -0.744761,0.02482 -1.638811,-0.03786 -2.379749,0.0019 l 0.139391,0.214355 h 0.120783 c 0.03672,0 0.06628,0.03131 0.06628,0.07021 v 0.0048 c 0,0.0389 -0.02956,0.07021 -0.06628,0.07021 h -0.120783 l -0.111203,0.175068 c 0.838152,0.0073 1.797327,-0.0062 2.638927,-0.0062 0.0019,0 0.0033,-0.0016 0.0033,-0.0036 v -0.402735 -7e-5 -0.120387 c 0,-1.26e-4 1.1e-5,-2.45e-4 0,-3.64e-4 v -1.432495 c 0,-0.0058 -0.0044,-0.01056 -0.01,-0.01056 h -0.0071 v -0.01493 c 0,-0.002 -0.0015,-0.0036 -0.0033,-0.0036 H 9.8717817 c -0.00186,0 -0.00334,0.0016 -0.00334,0.0036 v 7.23e-4 c -0.00569,0.0033 -0.00956,0.0097 -0.00956,0.01706 v 2.389804 0.471461 0.05173 c 0,0.002 0.00152,0.0035 0.00338,0.0035 h 3.7136343 c 0.004,0.0029 0.0089,0.0046 0.01409,0.0046 h 0.241189 c 0.01372,0 0.02478,-0.01168 0.02478,-0.02621 v -3.858595 c 0,-0.0097 -0.005,-0.01818 -0.01236,-0.0227 -2e-5,-0.002 -0.0015,-0.0035 -0.0033,-0.0035 H 9.1268842 c -1.188e-4,0 -2.641e-4,-1.2e-5 -3.764e-4,0 z m 2.0000562,2.568397 h 0.19706 c 0.04087,0 0.07379,0.03484 0.07379,0.07813 v 0.02245 c 0,0.04329 -0.03292,0.07813 -0.07379,0.07813 h -0.19706 c -0.04087,0 -0.07375,-0.03484 -0.07375,-0.07813 v -0.02245 c 0,-0.04329 0.03289,-0.07813 0.07375,-0.07813 z"
       sodipodi:nodetypes="ssccssccccccccccccssssccssccscsscsssscsccsscsssscsscssssssssss" /><path
       id="path3"
       style="fill:#ffb81f;fill-opacity:1;stroke:none;stroke-width:0.581904;stroke-miterlimit:4;stroke-dasharray:none;stroke-opacity:1"
       d="m 12.590294,12.922505 a 3.5935517,4.4920436 0 0 1 1.001013,3.110311 3.5935517,4.4920436 0 0 1 -1.850119,3.927517 c 1.17739,-0.09144 2.201586,-0.637315 3.191421,-1.285419 l -0.255333,-5.752409 z" /><ellipse
       style="fill:#00432e;fill-opacity:1;stroke:#00140d;stroke-width:0.509;stroke-miterlimit:4;stroke-dasharray:none;stroke-opacity:1"
       id="ellipse5"
       cx="11.427366"
       cy="12.159122"
       rx="2.3867757"
       ry="2.1036232" /><ellipse
       style="fill:#001e14;fill-opacity:1;stroke:none;stroke-width:0.2544;stroke-miterlimit:4;stroke-dasharray:none;stroke-opacity:1"
       id="ellipse6"
       cx="11.401697"
       cy="11.989276"
       rx="2.1500163"
       ry="1.5804987" /><ellipse
       style="fill:#00432e;fill-opacity:1;stroke:#00140d;stroke-width:0.89;stroke-miterlimit:4;stroke-dasharray:none;stroke-opacity:1"
       id="ellipse7"
       cx="11.256166"
       cy="6.7731009"
       rx="5.9909759"
       ry="5.9534302" /><ellipse
       style="fill:#006f4c;fill-opacity:1;stroke:none;stroke-width:0.316973;stroke-miterlimit:4;stroke-dasharray:none;stroke-opacity:1"
       id="ellipse9"
       cx="11.468659"
       cy="6.6080918"
       rx="5.3129797"
       ry="5.2838368" /><ellipse
       style="fill:#00e49c;fill-opacity:1;stroke:none;stroke-width:1.02391;stroke-dasharray:none;stroke-opacity:1"
       id="ellipse10"
       cx="5.2586908"
       cy="12.96731"
       rx="3.7013178"
       ry="4.9684868"
       transform="matrix(0.70888957,-0.70531948,0.67557496,0.7372913,0,0)" /><path
       id="path10"
       style="fill:#ffffff;fill-opacity:1;stroke:#001e14;stroke-width:0.525907;stroke-miterlimit:4;stroke-dasharray:none;stroke-opacity:1"
       d="M 7.9191428,4.9278805 C 7.6898765,5.3220087 7.5356635,5.9568761 7.5356584,6.4303103 7.5357598,7.7564597 8.4754399,8.8314588 9.634567,8.8314744 10.793697,8.8314586 11.733379,7.7564597 11.73348,6.4303103 11.733474,5.9568762 11.611151,5.3749312 11.381882,4.980803 10.31632,4.6704052 9.143716,4.6986942 7.9191428,4.9278805 Z"
       sodipodi:nodetypes="cccccc" /><ellipse
       style="fill:#001e14;fill-opacity:1;stroke:none;stroke-width:1.48331"
       id="ellipse11"
       cx="9.6077843"
       cy="6.6325769"
       rx="1.5384029"
       ry="1.638382" /><path
       id="path11"
       style="fill:#00432e;fill-opacity:1;stroke:none;stroke-width:1.48331"
       d="M 8.6964839,5.3125198 A 1.5384027,1.6383819 0 0 0 8.0696353,6.6327543 1.5384027,1.6383819 0 0 0 9.6081354,8.2710551 1.5384027,1.6383819 0 0 0 10.904771,7.5138944 1.5384027,1.6383819 0 0 1 9.9938336,7.831961 1.5384027,1.6383819 0 0 1 8.4553343,6.1936601 1.5384027,1.6383819 0 0 1 8.6964839,5.3125198 Z" /><ellipse
       style="fill:#ffffff;fill-opacity:1;stroke:none;stroke-width:0.513663"
       id="ellipse12"
       cx="10.796467"
       cy="6.249712"
       rx="0.54559565"
       ry="0.55397868" /><path
       id="path14"
       style="fill:#ffffff;fill-opacity:1;stroke:#001e14;stroke-width:0.527037;stroke-miterlimit:4;stroke-dasharray:none;stroke-opacity:1"
       d="m 12.809947,4.7560493 c -0.229205,0.3959317 -0.383376,1.0337045 -0.383382,1.5093051 1.02e-4,1.3322182 0.939529,2.4121366 2.098346,2.4121523 1.158818,-1.58e-5 2.098244,-1.0799341 2.098347,-2.4121523 -7e-6,-0.4756005 -0.122297,-1.0602085 -0.351502,-1.4561404 -1.065277,-0.3118183 -2.237565,-0.2833997 -3.461809,-0.053165 z"
       sodipodi:nodetypes="cccccc" /><ellipse
       style="fill:#001e14;fill-opacity:1;stroke:none;stroke-width:1.48331"
       id="ellipse14"
       cx="14.576448"
       cy="6.4876232"
       rx="1.5384029"
       ry="1.638382" /><path
       id="path15"
       style="fill:#00432e;fill-opacity:1;stroke:none;stroke-width:1.48331"
       d="M 13.665149,5.1675657 A 1.5384027,1.6383819 0 0 0 13.0383,6.4878002 1.5384027,1.6383819 0 0 0 14.576801,8.126101 1.5384027,1.6383819 0 0 0 15.873436,7.3689403 1.5384027,1.6383819 0 0 1 14.962499,7.6870069 1.5384027,1.6383819 0 0 1 13.423999,6.048706 1.5384027,1.6383819 0 0 1 13.665149,5.1675657 Z" /><g
       id="g43"
       transform="matrix(0.78971408,0,0,0.80732571,-239.3645,-34.947894)" /><ellipse
       style="fill:#ffffff;fill-opacity:1;stroke:none;stroke-width:0.513663"
       id="ellipse13"
       cx="15.757404"
       cy="5.9685922"
       rx="0.54559565"
       ry="0.55397868" /></g></svg>
