<?xml version="1.0" encoding="UTF-8" standalone="no"?>
<!-- Created with Inkscape (http://www.inkscape.org/) -->

<svg
   width="100"
   height="100"
   viewBox="0 0 26.458333 26.458334"
   version="1.1"
   id="svg5"
   inkscape:version="1.4.2 (ebf0e940d0, 2025-05-08)"
   sodipodi:docname="brooks.svg"
   xml:space="preserve"
   xmlns:inkscape="http://www.inkscape.org/namespaces/inkscape"
   xmlns:sodipodi="http://sodipodi.sourceforge.net/DTD/sodipodi-0.dtd"
   xmlns="http://www.w3.org/2000/svg"
   xmlns:svg="http://www.w3.org/2000/svg"><sodipodi:namedview
     id="namedview7"
     pagecolor="#505050"
     bordercolor="#ffffff"
     borderopacity="1"
     inkscape:pageshadow="0"
     inkscape:pageopacity="0"
     inkscape:pagecheckerboard="1"
     inkscape:document-units="mm"
     showgrid="false"
     units="px"
     width="100px"
     inkscape:snap-global="false"
     inkscape:zoom="6.8845118"
     inkscape:cx="58.319313"
     inkscape:cy="98.409302"
     inkscape:window-width="1366"
     inkscape:window-height="697"
     inkscape:window-x="0"
     inkscape:window-y="0"
     inkscape:window-maximized="1"
     inkscape:current-layer="layer1"
     inkscape:showpageshadow="0"
     inkscape:deskcolor="#505050" /><defs
     id="defs2"><linearGradient
       id="linearGradient13895"
       inkscape:swatch="solid"><stop
         style="stop-color:#000000;stop-opacity:1;"
         offset="0"
         id="stop13893" /></linearGradient><filter
       style="color-interpolation-filters:sRGB;"
       inkscape:label="Clean Edges"
       id="filter14269"
       x="-0.31154084"
       y="-0.29580634"
       width="1.6230817"
       height="1.5916127"><feGaussianBlur
         stdDeviation="0.204612"
         result="blur"
         id="feGaussianBlur14263" /><feComposite
         in="SourceGraphic"
         in2="blur"
         operator="in"
         result="composite1"
         id="feComposite14265" /><feComposite
         in="composite1"
         in2="composite1"
         operator="in"
         result="composite2"
         id="feComposite14267" /></filter><filter
       style="color-interpolation-filters:sRGB;"
       inkscape:label="Clean Edges"
       id="filter14269-3"
       x="-0.31154084"
       y="-0.29580634"
       width="1.6230817"
       height="1.5916127"><feGaussianBlur
         stdDeviation="0.204612"
         result="blur"
         id="feGaussianBlur14263-5" /><feComposite
         in="SourceGraphic"
         in2="blur"
         operator="in"
         result="composite1"
         id="feComposite14265-6" /><feComposite
         in="composite1"
         in2="composite1"
         operator="in"
         result="composite2"
         id="feComposite14267-2" /></filter><filter
       style="color-interpolation-filters:sRGB;"
       inkscape:label="Clean Edges"
       id="filter14269-7"
       x="-0.31154084"
       y="-0.29580634"
       width="1.6230817"
       height="1.5916127"><feGaussianBlur
         stdDeviation="0.204612"
         result="blur"
         id="feGaussianBlur14263-6" /><feComposite
         in="SourceGraphic"
         in2="blur"
         operator="in"
         result="composite1"
         id="feComposite14265-5" /><feComposite
         in="composite1"
         in2="composite1"
         operator="in"
         result="composite2"
         id="feComposite14267-6" /></filter><filter
       style="color-interpolation-filters:sRGB;"
       inkscape:label="Clean Edges"
       id="filter14269-3-9"
       x="-0.31154084"
       y="-0.29580634"
       width="1.6230817"
       height="1.5916127"><feGaussianBlur
         stdDeviation="0.204612"
         result="blur"
         id="feGaussianBlur14263-5-3" /><feComposite
         in="SourceGraphic"
         in2="blur"
         operator="in"
         result="composite1"
         id="feComposite14265-6-7" /><feComposite
         in="composite1"
         in2="composite1"
         operator="in"
         result="composite2"
         id="feComposite14267-2-4" /></filter></defs><g
     inkscape:label="Camada 1"
     inkscape:groupmode="layer"
     id="layer1"><ellipse
       style="fill:#000000;fill-opacity:0.44576392;stroke:none;stroke-width:0.971;stroke-linecap:round;stroke-linejoin:round;stroke-dasharray:none;stroke-opacity:1"
       id="path8"
       cx="18.805307"
       cy="23.859913"
       rx="7.6090837"
       ry="1.9022709" /><g
       id="g8"
       transform="translate(23.135869,-1.1529503)"><rect
         style="fill:#0e322b;fill-opacity:1;stroke:#061512;stroke-width:0.656;stroke-linecap:round;stroke-linejoin:round;stroke-dasharray:none;stroke-opacity:1"
         id="rect6"
         width="2.3796866"
         height="6.4559813"
         x="-0.29305795"
         y="17.479588"
         ry="0.53390092" /><rect
         style="fill:#0e322b;fill-opacity:1;stroke:#061512;stroke-width:0.656;stroke-linecap:round;stroke-linejoin:round;stroke-dasharray:none;stroke-opacity:1"
         id="rect5"
         width="2.3796866"
         height="6.4559813"
         x="-5.293313"
         y="16.990433"
         ry="0.53390092" /><rect
         style="fill:#175246;fill-opacity:1;stroke:#0c2923;stroke-width:0.971;stroke-linecap:round;stroke-linejoin:round;stroke-dasharray:none;stroke-opacity:1"
         id="rect4"
         width="7.7656946"
         height="10.374523"
         x="-5.6764159"
         y="7.8025303"
         ry="2.1623735" /><rect
         style="fill:#175246;fill-opacity:1;stroke:#0c2923;stroke-width:0.81;stroke-linecap:round;stroke-linejoin:round;stroke-dasharray:none;stroke-opacity:1"
         id="rect1"
         width="2.5986884"
         height="8.685955"
         x="-8.7997265"
         y="17.179859"
         ry="0.71831673" /><rect
         style="fill:#175246;fill-opacity:1;stroke:#0c2923;stroke-width:0.71;stroke-linecap:round;stroke-linejoin:round;stroke-dasharray:none;stroke-opacity:1"
         id="rect2"
         width="2.5986884"
         height="8.685955"
         x="-2.0059018"
         y="17.179859"
         ry="0.71831673" /><rect
         style="fill:#0f372f;fill-opacity:1;stroke:none;stroke-width:0.726415;stroke-linecap:round;stroke-linejoin:round;stroke-dasharray:none;stroke-opacity:1"
         id="rect7"
         width="5.7651348"
         height="7.8211327"
         x="-4.7782431"
         y="9.5283489"
         ry="1.6301675" /><rect
         style="fill:#0a2520;fill-opacity:1;stroke:none;stroke-width:0.561536;stroke-linecap:round;stroke-linejoin:round;stroke-dasharray:none;stroke-opacity:1"
         id="rect8"
         width="4.1346169"
         height="6.5167184"
         x="-3.7999322"
         y="11.158867"
         ry="1.358287" /><rect
         style="fill:#175246;fill-opacity:1;stroke:#0c2923;stroke-width:0.804769;stroke-linecap:round;stroke-linejoin:round;stroke-dasharray:none;stroke-opacity:1"
         id="rect3"
         width="11.736021"
         height="3.3660285"
         x="-9.3464479"
         y="16.361383"
         ry="0.27836603" /><ellipse
         style="fill:#28907a;fill-opacity:1;stroke:none;stroke-width:0.880101;stroke-linecap:round;stroke-linejoin:round;stroke-dasharray:none;stroke-opacity:1"
         id="path6"
         cx="-3.6125774"
         cy="17.535185"
         rx="4.9961181"
         ry="0.44196424" /></g><path
       id="path1"
       style="fill:#172d52;fill-opacity:1;stroke:#050024;stroke-width:0.719896;stroke-miterlimit:4;stroke-dasharray:none;stroke-opacity:1"
       d="m 13.908376,12.603419 c 0.359759,0.0896 0.650124,0.30923 0.732805,0.590531 l 1.13889,3.87488 c 0.02394,0.15907 0.05874,0.307922 0.08379,0.46691 l -0.0621,3.941773 c -0.0066,0.416139 -0.480123,0.678317 -1.061318,0.588322 l -0.439818,-0.06744 c -0.581197,-0.08999 -1.043594,-0.498086 -1.03703,-0.914226 l 0.0572,-3.624827 c -0.01987,-0.03746 -0.03598,-0.07597 -0.04779,-0.116152 L 12.13349,13.46744 c -0.120262,-0.409161 0.245622,-0.788947 0.81974,-0.851627 l 0.434594,-0.04769 c 0.179416,-0.01959 0.357007,-0.0053 0.520538,0.03532 z"
       sodipodi:nodetypes="ccccccccccccccc" /><rect
       style="fill:#172d52;fill-opacity:1;stroke:#050024;stroke-width:0.514227;stroke-opacity:1"
       id="rect46"
       width="2.76156"
       height="6.2238851"
       x="6.9944496"
       y="19.792854"
       ry="1.0951599" /><rect
       style="fill:#172d52;fill-opacity:1;stroke:#050024;stroke-width:0.522557;stroke-opacity:1"
       id="rect47"
       width="2.8855724"
       height="6.150929"
       x="10.481205"
       y="19.813999"
       ry="1.0823226" /><path
       id="path47"
       style="fill:#101f39;fill-opacity:1;stroke-width:0.422331"
       d="m 8.0085635,20.650954 h 0.681652 c 0.4586671,0 0.8279198,0.389599 0.8279198,0.87354 v 3.217321 c 0,0.483941 -0.3297807,0.527293 -0.7789868,0.625078 l -0.785635,0.171019 c -0.449206,0.09779 -0.7728703,-0.312156 -0.7728703,-0.796097 v -3.217321 c 0,-0.483941 0.3692523,-0.87354 0.8279203,-0.87354 z"
       sodipodi:nodetypes="sssssssss" /><path
       id="path48"
       style="fill:#101f39;fill-opacity:1;stroke-width:0.427998"
       d="m 11.56722,20.728396 h 0.700068 c 0.471059,0 0.850286,0.389599 0.850286,0.873541 v 3.21732 c 0,0.483942 -0.338689,0.527294 -0.800032,0.625079 l -0.806859,0.171019 c -0.461342,0.09778 -0.79375,-0.312156 -0.79375,-0.796098 v -3.21732 c 0,-0.483942 0.379228,-0.873541 0.850287,-0.873541 z"
       sodipodi:nodetypes="sssssssss" /><path
       id="rect9714"
       style="fill:#172d52;fill-opacity:1;stroke:#050024;stroke-width:0.719896;stroke-miterlimit:4;stroke-dasharray:none;stroke-opacity:1"
       d="m 6.2737173,12.960055 c -0.3597596,0.0896 -0.6501243,0.30923 -0.7328058,0.590531 l -1.1388902,3.87488 c -0.023943,0.15907 -0.058735,0.307922 -0.083795,0.46691 l 0.062102,3.941773 c 0.00656,0.416138 0.4801231,0.678317 1.0613188,0.588322 l 0.4398172,-0.06744 c 0.5811972,-0.08999 1.0435937,-0.498086 1.0370304,-0.914226 l -0.057199,-3.624827 c 0.019871,-0.03747 0.035976,-0.07597 0.047791,-0.116152 l 1.1395138,-3.87575 C 8.1688625,13.414911 7.8029795,13.035124 7.2288601,12.972445 L 6.794267,12.924765 c -0.1794154,-0.01959 -0.3570071,-0.0053 -0.5205387,0.03532 z"
       sodipodi:nodetypes="ccccccccccccccc" /><path
       id="rect9738"
       style="fill:#c8c8c8;fill-opacity:1;stroke:#806600;stroke-width:0.588322;stroke-miterlimit:4;stroke-dasharray:none;stroke-opacity:1"
       d="m 7.1396881,13.141409 -0.4547951,10.77721 1.7412335,1.127699 1.8337595,-1.658436 1.402089,1.658436 2.097563,-1.563401 -0.404262,-10.341508 z"
       sodipodi:nodetypes="cccccccc" /><path
       id="ellipse1"
       style="fill:#ffcc00;stroke:#806600;stroke-width:0.550634;stroke-dasharray:none;stroke-opacity:1"
       d="m 12.942896,14.111059 c -0.208428,1.318319 -1.120335,2.271958 -2.700632,2.271958 -1.5802965,0 -2.4386895,-1.157494 -2.6649085,-2.472746 -0.3929409,-2.284592 1.084613,-2.363223 2.6649085,-2.363223 1.580297,0 3.093573,0.07863 2.700632,2.564011 z"
       sodipodi:nodetypes="sssss" /><ellipse
       style="fill:#172d52;fill-opacity:1;stroke:#050024;stroke-width:0.478281;stroke-miterlimit:4;stroke-dasharray:none;stroke-opacity:1"
       id="path11105"
       cx="10.277989"
       cy="13.30791"
       rx="2.2184889"
       ry="1.9982617" /><ellipse
       style="fill:#101f39;fill-opacity:1;stroke:none;stroke-width:0.239046;stroke-miterlimit:4;stroke-dasharray:none;stroke-opacity:1"
       id="ellipse49"
       cx="10.25413"
       cy="13.146572"
       rx="1.9984229"
       ry="1.5013382" /><ellipse
       style="fill:#101f39;fill-opacity:1;stroke:#050024;stroke-width:0.836286;stroke-miterlimit:4;stroke-dasharray:none;stroke-opacity:1"
       id="ellipse3"
       cx="10.154583"
       cy="7.7170644"
       rx="5.5685639"
       ry="5.6552482" /><ellipse
       style="fill:#172d52;fill-opacity:1;stroke:none;stroke-width:0.290586;stroke-miterlimit:4;stroke-dasharray:none;stroke-opacity:1"
       id="ellipse4"
       cx="10.200539"
       cy="7.4699702"
       rx="4.7868166"
       ry="4.9288421" /><ellipse
       style="fill:#264b88;fill-opacity:1;stroke:none;stroke-width:0.859415;stroke-dasharray:none;stroke-opacity:1"
       id="ellipse8"
       cx="3.0720479"
       cy="11.997061"
       rx="3.1144025"
       ry="4.1599841"
       transform="matrix(0.74561761,-0.66637405,0.71410477,0.70003884,0,0)" /><path
       id="path13"
       style="fill:#ffffff;fill-opacity:1;stroke:#050024;stroke-width:0.473328;stroke-miterlimit:4;stroke-dasharray:none;stroke-opacity:1"
       d="M 10.862992,8.7776896 C 10.655306,8.4252557 10.51561,7.8575502 10.515605,7.4342003 c 9.2e-5,-1.1858572 0.851321,-2.1471332 1.90134,-2.1471471 1.050021,1.41e-5 1.90125,0.9612899 1.901341,2.1471471 -6e-6,0.4233499 -0.110815,0.9437313 -0.318501,1.2961652 -0.965261,0.2775608 -2.027488,0.2522647 -3.136793,0.047324 z"
       sodipodi:nodetypes="cccccc" /><path
       id="path12"
       style="fill:#ffffff;fill-opacity:1;stroke:#050024;stroke-width:0.473328;stroke-miterlimit:4;stroke-dasharray:none;stroke-opacity:1"
       d="M 6.328055,8.9314163 C 6.1203691,8.5789824 5.9806726,8.0112769 5.9806674,7.587927 5.9807598,6.4020698 6.8319882,5.4407938 7.8820075,5.4407799 8.9320285,5.440794 9.7832573,6.4020698 9.7833483,7.587927 9.7833423,8.0112769 9.6725333,8.5316583 9.4648476,8.8840922 8.4995865,9.161653 7.4373595,9.1363569 6.328055,8.9314163 Z"
       sodipodi:nodetypes="cccccc" /><ellipse
       style="fill:#110077;fill-opacity:1;stroke:none;stroke-width:1.29506"
       id="ellipse31"
       cx="-12.603489"
       cy="7.2315021"
       rx="1.3994143"
       ry="1.3729305"
       transform="scale(-1,1)" /><path
       id="path36"
       style="fill:#2300ec;fill-opacity:1;stroke:none;stroke-width:1.29506"
       d="M 13.432455,6.1253213 A 1.3994142,1.3729305 0 0 1 14.002671,7.2316508 1.3994142,1.3729305 0 0 1 12.603168,8.604513 1.3994142,1.3729305 0 0 1 11.423679,7.9700282 1.3994142,1.3729305 0 0 0 12.252316,8.2365616 1.3994142,1.3729305 0 0 0 13.651818,6.8636989 1.3994142,1.3729305 0 0 0 13.432455,6.1253213 Z" /><ellipse
       style="fill:#ffffff;fill-opacity:1;stroke:none;stroke-width:0.5459"
       id="ellipse36"
       cx="-11.542945"
       cy="7.073101"
       rx="0.54143065"
       ry="0.63050938"
       transform="scale(-1,1)" /><path
       id="path49"
       style="fill:#ffcc00;fill-opacity:1;stroke:#806600;stroke-width:0.521604;stroke-dasharray:none;stroke-opacity:1"
       d="m 10.391476,16.951745 c -0.7550367,0.03426 -1.3478944,0.666107 -1.3242154,1.411298 0.0016,0.05415 0.0066,0.108113 0.01476,0.161587 0.04869,-0.0073 0.09771,-0.0121 0.146842,-0.01425 0.4033197,-0.01726 0.7911954,0.142109 1.0598764,0.435483 0.249258,-0.317196 0.626104,-0.511469 1.029618,-0.530794 0.159358,-0.0072 0.318362,0.01311 0.469833,0.06007 0.01143,-0.07857 0.01585,-0.157872 0.01321,-0.237001 -0.02413,-0.744885 -0.609472,-1.323062 -1.364222,-1.288862 z m 1.396806,1.523589 c -0.08739,0.595613 -0.561767,1.068396 -1.164152,1.160247 0.0082,0.05347 0.01313,0.107433 0.01476,0.161586 0.0093,0.317295 -0.09496,0.629307 -0.294486,0.88123 0.268855,0.29356 0.657045,0.452935 1.060617,0.435445 0.755023,-0.03467 1.347535,-0.666826 1.323446,-1.411997 -0.01837,-0.567086 -0.394039,-1.057164 -0.940194,-1.226511 z m -1.443871,2.203067 c -0.215123,-0.232998 -0.339113,-0.534604 -0.3501907,-0.851834 -0.0023,-0.07892 0.0023,-0.157984 0.01399,-0.236293 -0.4899737,-0.151517 -0.8480234,-0.563511 -0.9261094,-1.065639 -0.6918771,0.10564 -1.1995141,0.708077 -1.1773791,1.39725 0.02373,0.745478 0.65548,1.321915 1.4107991,1.287283 0.4032467,-0.01953 0.7797774,-0.213764 1.0288764,-0.530755 z m -0.336167,-1.088146 c 0.151472,0.04695 0.310475,0.06727 0.46983,0.06004 0.04889,-0.0022 0.09766,-0.007 0.146108,-0.01434 -0.04124,-0.25805 -0.157733,-0.497608 -0.335294,-0.689522 -0.148692,0.187581 -0.245454,0.409722 -0.280605,0.644196 z"
       sodipodi:nodetypes="ccccccccccccccccccccccccsccccccc" /><ellipse
       style="fill:#110077;fill-opacity:1;stroke:none;stroke-width:1.29506"
       id="ellipse13"
       cx="-8.0685511"
       cy="7.3767037"
       rx="1.3994143"
       ry="1.3729305"
       transform="scale(-1,1)" /><path
       id="path14"
       style="fill:#2300ec;fill-opacity:1;stroke:none;stroke-width:1.29506"
       d="M 8.8975182,6.2705229 A 1.3994142,1.3729305 0 0 1 9.4677332,7.3768524 1.3994142,1.3729305 0 0 1 8.0682302,8.7497146 1.3994142,1.3729305 0 0 1 6.8887412,8.1152298 1.3994142,1.3729305 0 0 0 7.7173782,8.3817632 1.3994142,1.3729305 0 0 0 9.1168812,7.0089005 1.3994142,1.3729305 0 0 0 8.8975182,6.2705229 Z" /><ellipse
       style="fill:#ffffff;fill-opacity:1;stroke:none;stroke-width:0.5459"
       id="ellipse14"
       cx="-7.0080066"
       cy="7.2183027"
       rx="0.54143065"
       ry="0.63050938"
       transform="scale(-1,1)" /></g></svg>
