<?xml version="1.0" encoding="UTF-8" standalone="no"?>
<!-- Created with Inkscape (http://www.inkscape.org/) -->

<svg
   width="100"
   height="100"
   viewBox="0 0 26.458333 26.458334"
   version="1.1"
   id="svg5"
   inkscape:version="1.4.2 (ebf0e940d0, 2025-05-08)"
   sodipodi:docname="cambista.svg"
   xml:space="preserve"
   xmlns:inkscape="http://www.inkscape.org/namespaces/inkscape"
   xmlns:sodipodi="http://sodipodi.sourceforge.net/DTD/sodipodi-0.dtd"
   xmlns="http://www.w3.org/2000/svg"
   xmlns:svg="http://www.w3.org/2000/svg"><sodipodi:namedview
     id="namedview7"
     pagecolor="#505050"
     bordercolor="#ffffff"
     borderopacity="1"
     inkscape:pageshadow="0"
     inkscape:pageopacity="0"
     inkscape:pagecheckerboard="1"
     inkscape:document-units="px"
     showgrid="false"
     units="px"
     width="100px"
     inkscape:snap-global="false"
     inkscape:zoom="3.4422559"
     inkscape:cx="53.017557"
     inkscape:cy="67.833422"
     inkscape:window-width="1366"
     inkscape:window-height="697"
     inkscape:window-x="0"
     inkscape:window-y="0"
     inkscape:window-maximized="1"
     inkscape:current-layer="layer1"
     inkscape:showpageshadow="0"
     inkscape:deskcolor="#505050" /><defs
     id="defs2"><linearGradient
       id="linearGradient13895"
       inkscape:swatch="solid"><stop
         style="stop-color:#000000;stop-opacity:1;"
         offset="0"
         id="stop13893" /></linearGradient><filter
       style="color-interpolation-filters:sRGB;"
       inkscape:label="Clean Edges"
       id="filter14269"
       x="-0.31154084"
       y="-0.29580634"
       width="1.6230817"
       height="1.5916127"><feGaussianBlur
         stdDeviation="0.204612"
         result="blur"
         id="feGaussianBlur14263" /><feComposite
         in="SourceGraphic"
         in2="blur"
         operator="in"
         result="composite1"
         id="feComposite14265" /><feComposite
         in="composite1"
         in2="composite1"
         operator="in"
         result="composite2"
         id="feComposite14267" /></filter><inkscape:path-effect
       effect="fillet_chamfer"
       id="path-effect68"
       is_visible="true"
       lpeversion="1"
       nodesatellites_param="F,0,0,1,0,0,0,1 @ F,0,0,1,0,0,0,1 @ F,0,0,1,0,0,0,1 @ F,0,0,1,0,0,0,1 @ F,0,0,1,0,0,0,1 @ F,0,0,1,0,0,0,1 @ F,0,0,1,0,0,0,1 @ F,0,0,1,0,0,0,1 @ F,0,0,1,0,0,0,1"
       radius="0"
       unit="px"
       method="auto"
       mode="F"
       chamfer_steps="1"
       flexible="false"
       use_knot_distance="true"
       apply_no_radius="true"
       apply_with_radius="true"
       only_selected="false"
       hide_knots="false" /><inkscape:path-effect
       effect="fillet_chamfer"
       id="path-effect66"
       is_visible="true"
       lpeversion="1"
       nodesatellites_param="F,0,0,1,0,0,0,1 @ F,0,0,1,0,0.44929322,0,1 @ F,0,0,1,0,0.44929322,0,1 @ F,0,0,1,0,0,0,1 @ F,0,0,1,0,0,0,1 @ F,0,0,1,0,0,0,1 @ F,0,0,1,0,0,0,1 @ F,0,0,1,0,0,0,1 @ F,0,0,1,0,0,0,1 @ F,0,0,1,0,0,0,1"
       radius="0"
       unit="px"
       method="auto"
       mode="F"
       chamfer_steps="1"
       flexible="false"
       use_knot_distance="true"
       apply_no_radius="true"
       apply_with_radius="true"
       only_selected="false"
       hide_knots="false" /></defs><g
     inkscape:label="Camada 1"
     inkscape:groupmode="layer"
     id="layer1"><ellipse
       style="fill:#000000;fill-opacity:0.424967;stroke:none;stroke-width:0.414539;stroke-linecap:round;stroke-linejoin:round"
       id="path1"
       cx="17.909161"
       cy="24.903725"
       rx="7.9937887"
       ry="1.076087" /><path
       id="path8"
       style="fill:#006f4c;fill-opacity:1;stroke:#001e14;stroke-width:0.766134;stroke-miterlimit:4;stroke-dasharray:none;stroke-opacity:1"
       d="m 17.690112,12.100378 c 0.38705,0.09432 0.699441,0.325535 0.788394,0.621668 l 1.225283,4.079189 c 0.204712,1.525373 0.04813,3.101269 0.02334,4.641138 -0.0071,0.43808 -0.516544,0.714082 -1.141827,0.619342 l -0.47318,-0.071 c -0.625285,-0.09473 -1.122758,-0.524348 -1.115696,-0.96243 -0.130821,-1.284236 0.282524,-2.682244 0.01012,-3.938228 l -1.225953,-4.080105 c -0.129386,-0.430735 0.264253,-0.830546 0.881923,-0.89653 l 0.467559,-0.0502 c 0.193026,-0.02062 0.384089,-0.0056 0.560025,0.03718 z"
       sodipodi:nodetypes="ccccccccccccc" /><rect
       style="fill:#006f4c;fill-opacity:1;stroke:#001e14;stroke-width:0.547255;stroke-opacity:1"
       id="rect46"
       width="2.9710424"
       height="6.5520492"
       x="9.3965073"
       y="19.447174"
       ry="1.1529039" /><rect
       style="fill:#006f4c;fill-opacity:1;stroke:#001e14;stroke-width:0.55612;stroke-opacity:1"
       id="rect47"
       width="3.1044619"
       height="6.4752464"
       x="13.147755"
       y="19.469433"
       ry="1.1393898" /><path
       id="path47"
       style="fill:#001e14;fill-opacity:1;stroke-width:0.449457"
       d="m 10.48755,20.350518 h 0.733361 c 0.49346,0 0.890723,0.410141 0.890723,0.919599 v 3.386959 c 0,0.509458 -0.354797,0.555096 -0.838079,0.658037 l -0.84523,0.180036 C 9.9450428,25.59809 9.5968268,25.166534 9.5968268,24.657076 v -3.386959 c 0,-0.509458 0.397262,-0.919599 0.8907232,-0.919599 z"
       sodipodi:nodetypes="sssssssss" /><path
       id="path48"
       style="fill:#001e14;fill-opacity:1;stroke-width:0.455488"
       d="m 14.316156,20.432044 h 0.753173 c 0.506792,0 0.914786,0.410141 0.914786,0.919599 v 3.386959 c 0,0.509458 -0.364381,0.555096 -0.86072,0.658037 l -0.868064,0.180036 C 13.758993,25.679616 13.40137,25.24806 13.40137,24.738602 v -3.386959 c 0,-0.509458 0.407994,-0.919599 0.914786,-0.919599 z"
       sodipodi:nodetypes="sssssssss" /><path
       id="rect9714"
       style="fill:#006f4c;fill-opacity:1;stroke:#001e14;stroke-width:0.766134;stroke-miterlimit:4;stroke-dasharray:none;stroke-opacity:1"
       d="m 8.6211047,12.254104 c -0.3870497,0.09432 -0.6994405,0.325535 -0.788394,0.621668 l -1.2252824,4.079189 c -0.2047124,1.525373 -0.048131,3.101269 -0.023338,4.641138 0.00706,0.43808 0.5165435,0.714082 1.1418267,0.619342 l 0.4731803,-0.071 c 0.6252848,-0.09473 1.1227571,-0.524348 1.1156959,-0.96243 0.130821,-1.284236 -0.2825242,-2.682244 -0.010122,-3.938228 l 1.2259538,-4.080105 c 0.129385,-0.430735 -0.264254,-0.830546 -0.8819237,-0.89653 l -0.4675598,-0.0502 c -0.1930253,-0.02062 -0.3840884,-0.0056 -0.560025,0.03718 z"
       sodipodi:nodetypes="ccccccccccccc" /><rect
       style="fill:#ce8500;fill-opacity:1;stroke:#362400;stroke-width:0.656976;stroke-opacity:1"
       id="rect14"
       width="3.2862883"
       height="1.5470691"
       x="6.0580463"
       y="18.39864"
       ry="0.45618701" /><path
       id="rect9738"
       style="fill:#8000f3;fill-opacity:1;stroke:#1e0037;stroke-width:0.626109;stroke-miterlimit:4;stroke-dasharray:none;stroke-opacity:1"
       d="m 9.552765,12.445021 -0.4892943,11.345455 1.8733183,1.187159 1.972864,-1.74588 1.508446,1.74588 2.256677,-1.645834 -0.434928,-10.88678 z"
       sodipodi:nodetypes="cccccccc" /><path
       id="ellipse1"
       style="fill:#ce8500;fill-opacity:1;stroke:#362400;stroke-width:0.586;stroke-dasharray:none;stroke-opacity:1"
       d="m 15.796186,13.465797 c -0.224238,1.387829 -1.205319,2.39175 -2.905492,2.39175 -1.700174,0 -2.623683,-1.218524 -2.867061,-2.603125 -0.4227487,-2.405051 1.166888,-2.487828 2.867061,-2.487828 1.700173,0 3.328241,0.08278 2.905492,2.699203 z"
       sodipodi:nodetypes="sssss" /><ellipse
       style="fill:#00432e;fill-opacity:1;stroke:#001e14;stroke-width:0.509;stroke-miterlimit:4;stroke-dasharray:none;stroke-opacity:1"
       id="path11105"
       cx="12.929124"
       cy="12.620301"
       rx="2.3867757"
       ry="2.1036232" /><ellipse
       style="fill:#001e14;fill-opacity:1;stroke:none;stroke-width:0.2544;stroke-miterlimit:4;stroke-dasharray:none;stroke-opacity:1"
       id="ellipse49"
       cx="12.903457"
       cy="12.450456"
       rx="2.1500163"
       ry="1.5804987" /><ellipse
       style="fill:#00432e;fill-opacity:1;stroke:#001e14;stroke-width:0.89;stroke-miterlimit:4;stroke-dasharray:none;stroke-opacity:1"
       id="ellipse3"
       cx="12.796356"
       cy="6.7346692"
       rx="5.9909759"
       ry="5.9534302" /><ellipse
       style="fill:#006f4c;fill-opacity:1;stroke:none;stroke-width:0.30925;stroke-miterlimit:4;stroke-dasharray:none;stroke-opacity:1"
       id="ellipse4"
       cx="12.845798"
       cy="6.4745464"
       rx="5.1499281"
       ry="5.1887231" /><ellipse
       style="fill:#00c285;fill-opacity:1;stroke:none;stroke-width:0.915377;stroke-dasharray:none;stroke-opacity:1"
       id="ellipse8"
       cx="5.5807004"
       cy="12.958783"
       rx="3.3188555"
       ry="4.4286542"
       transform="matrix(0.75276069,-0.65829427,0.72166593,0.69224149,0,0)" /><path
       id="path12"
       style="fill:#ffffff;fill-opacity:1;stroke:#001e14;stroke-width:0.511748;stroke-miterlimit:4;stroke-dasharray:none;stroke-opacity:1"
       d="M 8.6985341,8.0682148 C 8.4748098,7.6857779 8.3243254,7.0697429 8.3243197,6.6103525 8.3244193,5.3235414 9.2413833,4.2804306 10.37249,4.2804155 c 1.131108,1.53e-5 2.048074,1.0431259 2.048173,2.329937 -6e-6,0.4593903 -0.119372,1.0240727 -0.343098,1.4065097 -1.039804,0.3011903 -2.1840604,0.2737404 -3.3790309,0.051353 z"
       sodipodi:nodetypes="cccccc" /><ellipse
       style="fill:#001e14;fill-opacity:1;stroke:none;stroke-width:1.44338"
       id="ellipse31"
       cx="10.314077"
       cy="6.3827491"
       rx="1.5012131"
       ry="1.5897816" /><path
       id="path36"
       style="fill:#00432e;fill-opacity:1;stroke:none;stroke-width:1.44338"
       d="M 11.198608,5.1018494 A 1.5012129,1.5897816 0 0 1 11.810304,6.382921 1.5012129,1.5897816 0 0 1 10.308994,7.9726239 1.5012129,1.5897816 0 0 1 9.0437048,7.2379233 1.5012129,1.5897816 0 0 0 9.9326205,7.5465549 1.5012129,1.5897816 0 0 0 11.433929,5.9568519 1.5012129,1.5897816 0 0 0 11.198608,5.1018494 Z" /><ellipse
       style="fill:#ffffff;fill-opacity:1;stroke:none;stroke-width:0.608423"
       id="ellipse36"
       cx="9.6100893"
       cy="5.6871529"
       rx="0.58081633"
       ry="0.73009682" /><path
       id="path42"
       style="fill:#ffffff;fill-opacity:1;stroke:#001e14;stroke-width:0.512848;stroke-miterlimit:4;stroke-dasharray:none;stroke-opacity:1"
       d="m 13.471107,7.8122005 c -0.223664,-0.384187 -0.374108,-1.0030411 -0.374114,-1.4645337 10e-5,-1.2926998 0.916817,-2.340584 2.04762,-2.3405992 1.130804,1.53e-5 2.047521,1.0478994 2.047621,2.3405992 -7e-6,0.4614925 -0.119341,1.0287589 -0.343005,1.412946 -1.039524,0.3025687 -2.183473,0.2749931 -3.378122,0.051588 z"
       sodipodi:nodetypes="cccccc" /><ellipse
       style="fill:#001e14;fill-opacity:1;stroke:none;stroke-width:1.44338"
       id="ellipse42"
       cx="15.194901"
       cy="6.1137276"
       rx="1.5012131"
       ry="1.5897816" /><path
       id="path43"
       style="fill:#00432e;fill-opacity:1;stroke:none;stroke-width:1.44338"
       d="m 16.079433,4.8136119 a 1.5012129,1.5897816 0 0 1 0.611695,1.2810716 1.5012129,1.5897816 0 0 1 -1.501309,1.5897029 1.5012129,1.5897816 0 0 1 -1.265289,-0.7347006 1.5012129,1.5897816 0 0 0 0.888915,0.3086316 1.5012129,1.5897816 0 0 0 1.501308,-1.589703 1.5012129,1.5897816 0 0 0 -0.23532,-0.8550025 z" /><ellipse
       style="fill:#ffffff;fill-opacity:1;stroke:none;stroke-width:0.608423"
       id="ellipse43"
       cx="14.327292"
       cy="5.577486"
       rx="0.58081633"
       ry="0.73009682" /><path
       sodipodi:type="spiral"
       style="fill:#04ff9f;fill-opacity:1;fill-rule:evenodd;stroke:#005b53;stroke-width:1.165;stroke-dasharray:none;stroke-opacity:1"
       id="path14"
       sodipodi:cx="7.3788824"
       sodipodi:cy="11.990684"
       sodipodi:expansion="1"
       sodipodi:revolution="3"
       sodipodi:radius="7.1775723"
       sodipodi:argument="-18.677364"
       sodipodi:t0="0"
       d="m 7.3788824,11.990684 c 0.3545501,0.06166 0.091804,0.508347 -0.1024849,0.589285 -0.5265123,0.219336 -1.0101602,-0.312416 -1.0760864,-0.794255 -0.1179264,-0.861898 0.6785411,-1.533067 1.4860261,-1.562887 1.1850166,-0.04376 2.0659185,1.047626 2.0496877,2.177796 -0.021633,1.506339 -1.4174993,2.602675 -2.8695671,2.536489 C 5.0391786,14.853823 3.7250753,13.149428 3.8431686,11.375774 3.9861954,9.2276413 6.0011989,7.6945659 8.0962768,7.8656841 10.565254,8.067341 12.31801,10.39416 12.093167,12.810563 11.833578,15.600395 9.1941789,17.573289 6.4565181,17.294254 3.345814,16.977198 1.1524728,14.024706 1.4860261,10.965834 1.8602224,7.5342424 5.1261684,5.1202316 8.5062165,5.5085416 12.258711,5.9396393 14.893555,9.5193049 14.45031,13.220503"
       transform="matrix(0.14713794,0.04893251,-0.077338,0.15325276,10.449247,8.0675417)" /><path
       sodipodi:type="spiral"
       style="fill:#04ff9f;fill-opacity:1;fill-rule:evenodd;stroke:#005b53;stroke-width:1.165;stroke-dasharray:none;stroke-opacity:1"
       id="path3"
       sodipodi:cx="7.3788824"
       sodipodi:cy="11.990684"
       sodipodi:expansion="1"
       sodipodi:revolution="3"
       sodipodi:radius="7.1775723"
       sodipodi:argument="-18.677364"
       sodipodi:t0="0"
       d="m 7.3788824,11.990684 c 0.3545501,0.06166 0.091804,0.508347 -0.1024849,0.589285 -0.5265123,0.219336 -1.0101602,-0.312416 -1.0760864,-0.794255 -0.1179264,-0.861898 0.6785411,-1.533067 1.4860261,-1.562887 1.1850166,-0.04376 2.0659185,1.047626 2.0496877,2.177796 -0.021633,1.506339 -1.4174993,2.602675 -2.8695671,2.536489 C 5.0391786,14.853823 3.7250753,13.149428 3.8431686,11.375774 3.9861954,9.2276413 6.0011989,7.6945659 8.0962768,7.8656841 10.565254,8.067341 12.31801,10.39416 12.093167,12.810563 11.833578,15.600395 9.1941789,17.573289 6.4565181,17.294254 3.345814,16.977198 1.1524728,14.024706 1.4860261,10.965834 1.8602224,7.5342424 5.1261684,5.1202316 8.5062165,5.5085416 12.258711,5.9396393 14.893555,9.5193049 14.45031,13.220503"
       transform="matrix(0.14713794,0.04893251,-0.077338,0.15325276,9.3984043,9.3590998)" /><path
       sodipodi:type="spiral"
       style="fill:#04ff9f;fill-opacity:1;fill-rule:evenodd;stroke:#005b53;stroke-width:1.165;stroke-dasharray:none;stroke-opacity:1"
       id="path4"
       sodipodi:cx="7.3788824"
       sodipodi:cy="11.990684"
       sodipodi:expansion="1"
       sodipodi:revolution="3"
       sodipodi:radius="7.1775723"
       sodipodi:argument="-18.677364"
       sodipodi:t0="0"
       d="m 7.3788824,11.990684 c 0.3545501,0.06166 0.091804,0.508347 -0.1024849,0.589285 -0.5265123,0.219336 -1.0101602,-0.312416 -1.0760864,-0.794255 -0.1179264,-0.861898 0.6785411,-1.533067 1.4860261,-1.562887 1.1850166,-0.04376 2.0659185,1.047626 2.0496877,2.177796 -0.021633,1.506339 -1.4174993,2.602675 -2.8695671,2.536489 C 5.0391786,14.853823 3.7250753,13.149428 3.8431686,11.375774 3.9861954,9.2276413 6.0011989,7.6945659 8.0962768,7.8656841 10.565254,8.067341 12.31801,10.39416 12.093167,12.810563 11.833578,15.600395 9.1941789,17.573289 6.4565181,17.294254 3.345814,16.977198 1.1524728,14.024706 1.4860261,10.965834 1.8602224,7.5342424 5.1261684,5.1202316 8.5062165,5.5085416 12.258711,5.9396393 14.893555,9.5193049 14.45031,13.220503"
       transform="matrix(0.14713794,0.04893251,-0.077338,0.15325276,10.962281,9.0442526)" /><path
       sodipodi:type="spiral"
       style="fill:#04ff9f;fill-opacity:1;fill-rule:evenodd;stroke:#005b53;stroke-width:1.165;stroke-dasharray:none;stroke-opacity:1"
       id="path5"
       sodipodi:cx="7.3788824"
       sodipodi:cy="11.990684"
       sodipodi:expansion="1"
       sodipodi:revolution="3"
       sodipodi:radius="7.1775723"
       sodipodi:argument="-18.677364"
       sodipodi:t0="0"
       d="m 7.3788824,11.990684 c 0.3545501,0.06166 0.091804,0.508347 -0.1024849,0.589285 -0.5265123,0.219336 -1.0101602,-0.312416 -1.0760864,-0.794255 -0.1179264,-0.861898 0.6785411,-1.533067 1.4860261,-1.562887 1.1850166,-0.04376 2.0659185,1.047626 2.0496877,2.177796 -0.021633,1.506339 -1.4174993,2.602675 -2.8695671,2.536489 C 5.0391786,14.853823 3.7250753,13.149428 3.8431686,11.375774 3.9861954,9.2276413 6.0011989,7.6945659 8.0962768,7.8656841 10.565254,8.067341 12.31801,10.39416 12.093167,12.810563 11.833578,15.600395 9.1941789,17.573289 6.4565181,17.294254 3.345814,16.977198 1.1524728,14.024706 1.4860261,10.965834 1.8602224,7.5342424 5.1261684,5.1202316 8.5062165,5.5085416 12.258711,5.9396393 14.893555,9.5193049 14.45031,13.220503"
       transform="matrix(-0.14713794,0.04893251,0.077338,0.15325276,14.903019,8.0483259)" /><path
       sodipodi:type="spiral"
       style="fill:#04ff9f;fill-opacity:1;fill-rule:evenodd;stroke:#005b53;stroke-width:1.165;stroke-dasharray:none;stroke-opacity:1"
       id="path6"
       sodipodi:cx="7.3788824"
       sodipodi:cy="11.990684"
       sodipodi:expansion="1"
       sodipodi:revolution="3"
       sodipodi:radius="7.1775723"
       sodipodi:argument="-18.677364"
       sodipodi:t0="0"
       d="m 7.3788824,11.990684 c 0.3545501,0.06166 0.091804,0.508347 -0.1024849,0.589285 -0.5265123,0.219336 -1.0101602,-0.312416 -1.0760864,-0.794255 -0.1179264,-0.861898 0.6785411,-1.533067 1.4860261,-1.562887 1.1850166,-0.04376 2.0659185,1.047626 2.0496877,2.177796 -0.021633,1.506339 -1.4174993,2.602675 -2.8695671,2.536489 C 5.0391786,14.853823 3.7250753,13.149428 3.8431686,11.375774 3.9861954,9.2276413 6.0011989,7.6945659 8.0962768,7.8656841 10.565254,8.067341 12.31801,10.39416 12.093167,12.810563 11.833578,15.600395 9.1941789,17.573289 6.4565181,17.294254 3.345814,16.977198 1.1524728,14.024706 1.4860261,10.965834 1.8602224,7.5342424 5.1261684,5.1202316 8.5062165,5.5085416 12.258711,5.9396393 14.893555,9.5193049 14.45031,13.220503"
       transform="matrix(-0.14713794,0.04893251,0.077338,0.15325276,15.926686,9.1224816)" /><rect
       style="fill:#ce8500;fill-opacity:1;stroke:#362400;stroke-width:0.656976;stroke-opacity:1"
       id="rect8"
       width="3.2862883"
       height="1.5470691"
       x="-20.253172"
       y="18.244911"
       ry="0.45618701"
       transform="scale(-1,1)" /><rect
       style="fill:#ce8500;fill-opacity:1;stroke:#1e0037;stroke-width:0.891186;stroke-opacity:1"
       id="rect9"
       width="7.1258354"
       height="1.3128585"
       x="9.2496843"
       y="20.168308"
       ry="0.3871249" /><path
       sodipodi:type="spiral"
       style="fill:#04ff9f;fill-opacity:1;fill-rule:evenodd;stroke:#005b53;stroke-width:1.165;stroke-dasharray:none;stroke-opacity:1"
       id="path9"
       sodipodi:cx="7.3788824"
       sodipodi:cy="11.990684"
       sodipodi:expansion="1"
       sodipodi:revolution="3"
       sodipodi:radius="7.1775723"
       sodipodi:argument="-18.677364"
       sodipodi:t0="0"
       d="m 7.3788824,11.990684 c 0.3545501,0.06166 0.091804,0.508347 -0.1024849,0.589285 -0.5265123,0.219336 -1.0101602,-0.312416 -1.0760864,-0.794255 -0.1179264,-0.861898 0.6785411,-1.533067 1.4860261,-1.562887 1.1850166,-0.04376 2.0659185,1.047626 2.0496877,2.177796 -0.021633,1.506339 -1.4174993,2.602675 -2.8695671,2.536489 C 5.0391786,14.853823 3.7250753,13.149428 3.8431686,11.375774 3.9861954,9.2276413 6.0011989,7.6945659 8.0962768,7.8656841 10.565254,8.067341 12.31801,10.39416 12.093167,12.810563 11.833578,15.600395 9.1941789,17.573289 6.4565181,17.294254 3.345814,16.977198 1.1524728,14.024706 1.4860261,10.965834 1.8602224,7.5342424 5.1261684,5.1202316 8.5062165,5.5085416 12.258711,5.9396393 14.893555,9.5193049 14.45031,13.220503"
       transform="matrix(0.14713794,0.04893251,-0.077338,0.15325276,14.277668,8.8540255)" /><path
       sodipodi:type="spiral"
       style="fill:#04ff9f;fill-opacity:1;fill-rule:evenodd;stroke:#005b53;stroke-width:1.165;stroke-dasharray:none;stroke-opacity:1"
       id="path10"
       sodipodi:cx="7.3788824"
       sodipodi:cy="11.990684"
       sodipodi:expansion="1"
       sodipodi:revolution="3"
       sodipodi:radius="7.1775723"
       sodipodi:argument="-18.677364"
       sodipodi:t0="0"
       d="m 7.3788824,11.990684 c 0.3545501,0.06166 0.091804,0.508347 -0.1024849,0.589285 -0.5265123,0.219336 -1.0101602,-0.312416 -1.0760864,-0.794255 -0.1179264,-0.861898 0.6785411,-1.533067 1.4860261,-1.562887 1.1850166,-0.04376 2.0659185,1.047626 2.0496877,2.177796 -0.021633,1.506339 -1.4174993,2.602675 -2.8695671,2.536489 C 5.0391786,14.853823 3.7250753,13.149428 3.8431686,11.375774 3.9861954,9.2276413 6.0011989,7.6945659 8.0962768,7.8656841 10.565254,8.067341 12.31801,10.39416 12.093167,12.810563 11.833578,15.600395 9.1941789,17.573289 6.4565181,17.294254 3.345814,16.977198 1.1524728,14.024706 1.4860261,10.965834 1.8602224,7.5342424 5.1261684,5.1202316 8.5062165,5.5085416 12.258711,5.9396393 14.893555,9.5193049 14.45031,13.220503"
       transform="matrix(0.14713794,0.04893251,-0.077338,0.15325276,7.6773667,0.94761321)" /><path
       sodipodi:type="spiral"
       style="fill:#04ff9f;fill-opacity:1;fill-rule:evenodd;stroke:#005b53;stroke-width:1.165;stroke-dasharray:none;stroke-opacity:1"
       id="path16"
       sodipodi:cx="7.3788824"
       sodipodi:cy="11.990684"
       sodipodi:expansion="1"
       sodipodi:revolution="3"
       sodipodi:radius="7.1775723"
       sodipodi:argument="-18.677364"
       sodipodi:t0="0"
       d="m 7.3788824,11.990684 c 0.3545501,0.06166 0.091804,0.508347 -0.1024849,0.589285 -0.5265123,0.219336 -1.0101602,-0.312416 -1.0760864,-0.794255 -0.1179264,-0.861898 0.6785411,-1.533067 1.4860261,-1.562887 1.1850166,-0.04376 2.0659185,1.047626 2.0496877,2.177796 -0.021633,1.506339 -1.4174993,2.602675 -2.8695671,2.536489 C 5.0391786,14.853823 3.7250753,13.149428 3.8431686,11.375774 3.9861954,9.2276413 6.0011989,7.6945659 8.0962768,7.8656841 10.565254,8.067341 12.31801,10.39416 12.093167,12.810563 11.833578,15.600395 9.1941789,17.573289 6.4565181,17.294254 3.345814,16.977198 1.1524728,14.024706 1.4860261,10.965834 1.8602224,7.5342424 5.1261684,5.1202316 8.5062165,5.5085416 12.258711,5.9396393 14.893555,9.5193049 14.45031,13.220503"
       transform="matrix(0.14713794,0.04893251,-0.077338,0.15325276,6.7262312,1.0019638)" /><path
       sodipodi:type="spiral"
       style="fill:#04ff9f;fill-opacity:1;fill-rule:evenodd;stroke:#005b53;stroke-width:1.165;stroke-dasharray:none;stroke-opacity:1"
       id="path13"
       sodipodi:cx="7.3788824"
       sodipodi:cy="11.990684"
       sodipodi:expansion="1"
       sodipodi:revolution="3"
       sodipodi:radius="7.1775723"
       sodipodi:argument="-18.677364"
       sodipodi:t0="0"
       d="m 7.3788824,11.990684 c 0.3545501,0.06166 0.091804,0.508347 -0.1024849,0.589285 -0.5265123,0.219336 -1.0101602,-0.312416 -1.0760864,-0.794255 -0.1179264,-0.861898 0.6785411,-1.533067 1.4860261,-1.562887 1.1850166,-0.04376 2.0659185,1.047626 2.0496877,2.177796 -0.021633,1.506339 -1.4174993,2.602675 -2.8695671,2.536489 C 5.0391786,14.853823 3.7250753,13.149428 3.8431686,11.375774 3.9861954,9.2276413 6.0011989,7.6945659 8.0962768,7.8656841 10.565254,8.067341 12.31801,10.39416 12.093167,12.810563 11.833578,15.600395 9.1941789,17.573289 6.4565181,17.294254 3.345814,16.977198 1.1524728,14.024706 1.4860261,10.965834 1.8602224,7.5342424 5.1261684,5.1202316 8.5062165,5.5085416 12.258711,5.9396393 14.893555,9.5193049 14.45031,13.220503"
       transform="matrix(0.14713794,0.04893251,-0.077338,0.15325276,7.5686655,-0.27527526)" /><path
       sodipodi:type="spiral"
       style="fill:#04ff9f;fill-opacity:1;fill-rule:evenodd;stroke:#005b53;stroke-width:1.165;stroke-dasharray:none;stroke-opacity:1"
       id="path11"
       sodipodi:cx="7.3788824"
       sodipodi:cy="11.990684"
       sodipodi:expansion="1"
       sodipodi:revolution="3"
       sodipodi:radius="7.1775723"
       sodipodi:argument="-18.677364"
       sodipodi:t0="0"
       d="m 7.3788824,11.990684 c 0.3545501,0.06166 0.091804,0.508347 -0.1024849,0.589285 -0.5265123,0.219336 -1.0101602,-0.312416 -1.0760864,-0.794255 -0.1179264,-0.861898 0.6785411,-1.533067 1.4860261,-1.562887 1.1850166,-0.04376 2.0659185,1.047626 2.0496877,2.177796 -0.021633,1.506339 -1.4174993,2.602675 -2.8695671,2.536489 C 5.0391786,14.853823 3.7250753,13.149428 3.8431686,11.375774 3.9861954,9.2276413 6.0011989,7.6945659 8.0962768,7.8656841 10.565254,8.067341 12.31801,10.39416 12.093167,12.810563 11.833578,15.600395 9.1941789,17.573289 6.4565181,17.294254 3.345814,16.977198 1.1524728,14.024706 1.4860261,10.965834 1.8602224,7.5342424 5.1261684,5.1202316 8.5062165,5.5085416 12.258711,5.9396393 14.893555,9.5193049 14.45031,13.220503"
       transform="matrix(0.14713794,0.04893251,-0.077338,0.15325276,8.8730799,0.10517893)" /><path
       sodipodi:type="spiral"
       style="fill:#04ff9f;fill-opacity:1;fill-rule:evenodd;stroke:#005b53;stroke-width:1.165;stroke-dasharray:none;stroke-opacity:1"
       id="path15"
       sodipodi:cx="7.3788824"
       sodipodi:cy="11.990684"
       sodipodi:expansion="1"
       sodipodi:revolution="3"
       sodipodi:radius="7.1775723"
       sodipodi:argument="-18.677364"
       sodipodi:t0="0"
       d="m 7.3788824,11.990684 c 0.3545501,0.06166 0.091804,0.508347 -0.1024849,0.589285 -0.5265123,0.219336 -1.0101602,-0.312416 -1.0760864,-0.794255 -0.1179264,-0.861898 0.6785411,-1.533067 1.4860261,-1.562887 1.1850166,-0.04376 2.0659185,1.047626 2.0496877,2.177796 -0.021633,1.506339 -1.4174993,2.602675 -2.8695671,2.536489 C 5.0391786,14.853823 3.7250753,13.149428 3.8431686,11.375774 3.9861954,9.2276413 6.0011989,7.6945659 8.0962768,7.8656841 10.565254,8.067341 12.31801,10.39416 12.093167,12.810563 11.833578,15.600395 9.1941789,17.573289 6.4565181,17.294254 3.345814,16.977198 1.1524728,14.024706 1.4860261,10.965834 1.8602224,7.5342424 5.1261684,5.1202316 8.5062165,5.5085416 12.258711,5.9396393 14.893555,9.5193049 14.45031,13.220503"
       transform="matrix(0.14713794,0.04893251,-0.077338,0.15325276,7.0251595,2.3335535)" /><path
       sodipodi:type="spiral"
       style="fill:#04ff9f;fill-opacity:1;fill-rule:evenodd;stroke:#005b53;stroke-width:1.165;stroke-dasharray:none;stroke-opacity:1"
       id="path17"
       sodipodi:cx="7.3788824"
       sodipodi:cy="11.990684"
       sodipodi:expansion="1"
       sodipodi:revolution="3"
       sodipodi:radius="7.1775723"
       sodipodi:argument="-18.677364"
       sodipodi:t0="0"
       d="m 7.3788824,11.990684 c 0.3545501,0.06166 0.091804,0.508347 -0.1024849,0.589285 -0.5265123,0.219336 -1.0101602,-0.312416 -1.0760864,-0.794255 -0.1179264,-0.861898 0.6785411,-1.533067 1.4860261,-1.562887 1.1850166,-0.04376 2.0659185,1.047626 2.0496877,2.177796 -0.021633,1.506339 -1.4174993,2.602675 -2.8695671,2.536489 C 5.0391786,14.853823 3.7250753,13.149428 3.8431686,11.375774 3.9861954,9.2276413 6.0011989,7.6945659 8.0962768,7.8656841 10.565254,8.067341 12.31801,10.39416 12.093167,12.810563 11.833578,15.600395 9.1941789,17.573289 6.4565181,17.294254 3.345814,16.977198 1.1524728,14.024706 1.4860261,10.965834 1.8602224,7.5342424 5.1261684,5.1202316 8.5062165,5.5085416 12.258711,5.9396393 14.893555,9.5193049 14.45031,13.220503"
       transform="matrix(0.14713794,0.04893251,-0.077338,0.15325276,6.5088288,3.3118643)" /><path
       sodipodi:type="spiral"
       style="fill:#04ff9f;fill-opacity:1;fill-rule:evenodd;stroke:#005b53;stroke-width:1.165;stroke-dasharray:none;stroke-opacity:1"
       id="path18"
       sodipodi:cx="7.3788824"
       sodipodi:cy="11.990684"
       sodipodi:expansion="1"
       sodipodi:revolution="3"
       sodipodi:radius="7.1775723"
       sodipodi:argument="-18.677364"
       sodipodi:t0="0"
       d="m 7.3788824,11.990684 c 0.3545501,0.06166 0.091804,0.508347 -0.1024849,0.589285 -0.5265123,0.219336 -1.0101602,-0.312416 -1.0760864,-0.794255 -0.1179264,-0.861898 0.6785411,-1.533067 1.4860261,-1.562887 1.1850166,-0.04376 2.0659185,1.047626 2.0496877,2.177796 -0.021633,1.506339 -1.4174993,2.602675 -2.8695671,2.536489 C 5.0391786,14.853823 3.7250753,13.149428 3.8431686,11.375774 3.9861954,9.2276413 6.0011989,7.6945659 8.0962768,7.8656841 10.565254,8.067341 12.31801,10.39416 12.093167,12.810563 11.833578,15.600395 9.1941789,17.573289 6.4565181,17.294254 3.345814,16.977198 1.1524728,14.024706 1.4860261,10.965834 1.8602224,7.5342424 5.1261684,5.1202316 8.5062165,5.5085416 12.258711,5.9396393 14.893555,9.5193049 14.45031,13.220503"
       transform="matrix(-0.14713794,0.04893251,0.077338,0.15325276,17.826987,0.6017281)" /><path
       sodipodi:type="spiral"
       style="fill:#04ff9f;fill-opacity:1;fill-rule:evenodd;stroke:#005b53;stroke-width:1.165;stroke-dasharray:none;stroke-opacity:1"
       id="path19"
       sodipodi:cx="7.3788824"
       sodipodi:cy="11.990684"
       sodipodi:expansion="1"
       sodipodi:revolution="3"
       sodipodi:radius="7.1775723"
       sodipodi:argument="-18.677364"
       sodipodi:t0="0"
       d="m 7.3788824,11.990684 c 0.3545501,0.06166 0.091804,0.508347 -0.1024849,0.589285 -0.5265123,0.219336 -1.0101602,-0.312416 -1.0760864,-0.794255 -0.1179264,-0.861898 0.6785411,-1.533067 1.4860261,-1.562887 1.1850166,-0.04376 2.0659185,1.047626 2.0496877,2.177796 -0.021633,1.506339 -1.4174993,2.602675 -2.8695671,2.536489 C 5.0391786,14.853823 3.7250753,13.149428 3.8431686,11.375774 3.9861954,9.2276413 6.0011989,7.6945659 8.0962768,7.8656841 10.565254,8.067341 12.31801,10.39416 12.093167,12.810563 11.833578,15.600395 9.1941789,17.573289 6.4565181,17.294254 3.345814,16.977198 1.1524728,14.024706 1.4860261,10.965834 1.8602224,7.5342424 5.1261684,5.1202316 8.5062165,5.5085416 12.258711,5.9396393 14.893555,9.5193049 14.45031,13.220503"
       transform="matrix(-0.14713794,0.04893251,0.077338,0.15325276,18.778123,0.6560787)" /><path
       sodipodi:type="spiral"
       style="fill:#04ff9f;fill-opacity:1;fill-rule:evenodd;stroke:#005b53;stroke-width:1.165;stroke-dasharray:none;stroke-opacity:1"
       id="path20"
       sodipodi:cx="7.3788824"
       sodipodi:cy="11.990684"
       sodipodi:expansion="1"
       sodipodi:revolution="3"
       sodipodi:radius="7.1775723"
       sodipodi:argument="-18.677364"
       sodipodi:t0="0"
       d="m 7.3788824,11.990684 c 0.3545501,0.06166 0.091804,0.508347 -0.1024849,0.589285 -0.5265123,0.219336 -1.0101602,-0.312416 -1.0760864,-0.794255 -0.1179264,-0.861898 0.6785411,-1.533067 1.4860261,-1.562887 1.1850166,-0.04376 2.0659185,1.047626 2.0496877,2.177796 -0.021633,1.506339 -1.4174993,2.602675 -2.8695671,2.536489 C 5.0391786,14.853823 3.7250753,13.149428 3.8431686,11.375774 3.9861954,9.2276413 6.0011989,7.6945659 8.0962768,7.8656841 10.565254,8.067341 12.31801,10.39416 12.093167,12.810563 11.833578,15.600395 9.1941789,17.573289 6.4565181,17.294254 3.345814,16.977198 1.1524728,14.024706 1.4860261,10.965834 1.8602224,7.5342424 5.1261684,5.1202316 8.5062165,5.5085416 12.258711,5.9396393 14.893555,9.5193049 14.45031,13.220503"
       transform="matrix(-0.14713794,0.04893251,0.077338,0.15325276,17.935689,-0.62116035)" /><path
       sodipodi:type="spiral"
       style="fill:#04ff9f;fill-opacity:1;fill-rule:evenodd;stroke:#005b53;stroke-width:1.165;stroke-dasharray:none;stroke-opacity:1"
       id="path21"
       sodipodi:cx="7.3788824"
       sodipodi:cy="11.990684"
       sodipodi:expansion="1"
       sodipodi:revolution="3"
       sodipodi:radius="7.1775723"
       sodipodi:argument="-18.677364"
       sodipodi:t0="0"
       d="m 7.3788824,11.990684 c 0.3545501,0.06166 0.091804,0.508347 -0.1024849,0.589285 -0.5265123,0.219336 -1.0101602,-0.312416 -1.0760864,-0.794255 -0.1179264,-0.861898 0.6785411,-1.533067 1.4860261,-1.562887 1.1850166,-0.04376 2.0659185,1.047626 2.0496877,2.177796 -0.021633,1.506339 -1.4174993,2.602675 -2.8695671,2.536489 C 5.0391786,14.853823 3.7250753,13.149428 3.8431686,11.375774 3.9861954,9.2276413 6.0011989,7.6945659 8.0962768,7.8656841 10.565254,8.067341 12.31801,10.39416 12.093167,12.810563 11.833578,15.600395 9.1941789,17.573289 6.4565181,17.294254 3.345814,16.977198 1.1524728,14.024706 1.4860261,10.965834 1.8602224,7.5342424 5.1261684,5.1202316 8.5062165,5.5085416 12.258711,5.9396393 14.893555,9.5193049 14.45031,13.220503"
       transform="matrix(-0.14713794,0.04893251,0.077338,0.15325276,16.631274,-0.24070616)" /><path
       sodipodi:type="spiral"
       style="fill:#04ff9f;fill-opacity:1;fill-rule:evenodd;stroke:#005b53;stroke-width:1.165;stroke-dasharray:none;stroke-opacity:1"
       id="path22"
       sodipodi:cx="7.3788824"
       sodipodi:cy="11.990684"
       sodipodi:expansion="1"
       sodipodi:revolution="3"
       sodipodi:radius="7.1775723"
       sodipodi:argument="-18.677364"
       sodipodi:t0="0"
       d="m 7.3788824,11.990684 c 0.3545501,0.06166 0.091804,0.508347 -0.1024849,0.589285 -0.5265123,0.219336 -1.0101602,-0.312416 -1.0760864,-0.794255 -0.1179264,-0.861898 0.6785411,-1.533067 1.4860261,-1.562887 1.1850166,-0.04376 2.0659185,1.047626 2.0496877,2.177796 -0.021633,1.506339 -1.4174993,2.602675 -2.8695671,2.536489 C 5.0391786,14.853823 3.7250753,13.149428 3.8431686,11.375774 3.9861954,9.2276413 6.0011989,7.6945659 8.0962768,7.8656841 10.565254,8.067341 12.31801,10.39416 12.093167,12.810563 11.833578,15.600395 9.1941789,17.573289 6.4565181,17.294254 3.345814,16.977198 1.1524728,14.024706 1.4860261,10.965834 1.8602224,7.5342424 5.1261684,5.1202316 8.5062165,5.5085416 12.258711,5.9396393 14.893555,9.5193049 14.45031,13.220503"
       transform="matrix(-0.14713794,0.04893251,0.077338,0.15325276,18.479195,1.9876684)" /><path
       sodipodi:type="spiral"
       style="fill:#04ff9f;fill-opacity:1;fill-rule:evenodd;stroke:#005b53;stroke-width:1.165;stroke-dasharray:none;stroke-opacity:1"
       id="path23"
       sodipodi:cx="7.3788824"
       sodipodi:cy="11.990684"
       sodipodi:expansion="1"
       sodipodi:revolution="3"
       sodipodi:radius="7.1775723"
       sodipodi:argument="-18.677364"
       sodipodi:t0="0"
       d="m 7.3788824,11.990684 c 0.3545501,0.06166 0.091804,0.508347 -0.1024849,0.589285 -0.5265123,0.219336 -1.0101602,-0.312416 -1.0760864,-0.794255 -0.1179264,-0.861898 0.6785411,-1.533067 1.4860261,-1.562887 1.1850166,-0.04376 2.0659185,1.047626 2.0496877,2.177796 -0.021633,1.506339 -1.4174993,2.602675 -2.8695671,2.536489 C 5.0391786,14.853823 3.7250753,13.149428 3.8431686,11.375774 3.9861954,9.2276413 6.0011989,7.6945659 8.0962768,7.8656841 10.565254,8.067341 12.31801,10.39416 12.093167,12.810563 11.833578,15.600395 9.1941789,17.573289 6.4565181,17.294254 3.345814,16.977198 1.1524728,14.024706 1.4860261,10.965834 1.8602224,7.5342424 5.1261684,5.1202316 8.5062165,5.5085416 12.258711,5.9396393 14.893555,9.5193049 14.45031,13.220503"
       transform="matrix(-0.14713794,0.04893251,0.077338,0.15325276,18.995525,2.9659792)" /><path
       sodipodi:type="spiral"
       style="fill:#04ff9f;fill-opacity:1;fill-rule:evenodd;stroke:#005b53;stroke-width:1.165;stroke-dasharray:none;stroke-opacity:1"
       id="path24"
       sodipodi:cx="7.3788824"
       sodipodi:cy="11.990684"
       sodipodi:expansion="1"
       sodipodi:revolution="3"
       sodipodi:radius="7.1775723"
       sodipodi:argument="-18.677364"
       sodipodi:t0="0"
       d="m 7.3788824,11.990684 c 0.3545501,0.06166 0.091804,0.508347 -0.1024849,0.589285 -0.5265123,0.219336 -1.0101602,-0.312416 -1.0760864,-0.794255 -0.1179264,-0.861898 0.6785411,-1.533067 1.4860261,-1.562887 1.1850166,-0.04376 2.0659185,1.047626 2.0496877,2.177796 -0.021633,1.506339 -1.4174993,2.602675 -2.8695671,2.536489 C 5.0391786,14.853823 3.7250753,13.149428 3.8431686,11.375774 3.9861954,9.2276413 6.0011989,7.6945659 8.0962768,7.8656841 10.565254,8.067341 12.31801,10.39416 12.093167,12.810563 11.833578,15.600395 9.1941789,17.573289 6.4565181,17.294254 3.345814,16.977198 1.1524728,14.024706 1.4860261,10.965834 1.8602224,7.5342424 5.1261684,5.1202316 8.5062165,5.5085416 12.258711,5.9396393 14.893555,9.5193049 14.45031,13.220503"
       transform="matrix(0.14713794,0.04893251,-0.077338,0.15325276,8.5198009,8.36647)" /><path
       sodipodi:type="spiral"
       style="fill:#04ff9f;fill-opacity:1;fill-rule:evenodd;stroke:#005b53;stroke-width:1.165;stroke-dasharray:none;stroke-opacity:1"
       id="path25"
       sodipodi:cx="7.3788824"
       sodipodi:cy="11.990684"
       sodipodi:expansion="1"
       sodipodi:revolution="3"
       sodipodi:radius="7.1775723"
       sodipodi:argument="-18.677364"
       sodipodi:t0="0"
       d="m 7.3788824,11.990684 c 0.3545501,0.06166 0.091804,0.508347 -0.1024849,0.589285 -0.5265123,0.219336 -1.0101602,-0.312416 -1.0760864,-0.794255 -0.1179264,-0.861898 0.6785411,-1.533067 1.4860261,-1.562887 1.1850166,-0.04376 2.0659185,1.047626 2.0496877,2.177796 -0.021633,1.506339 -1.4174993,2.602675 -2.8695671,2.536489 C 5.0391786,14.853823 3.7250753,13.149428 3.8431686,11.375774 3.9861954,9.2276413 6.0011989,7.6945659 8.0962768,7.8656841 10.565254,8.067341 12.31801,10.39416 12.093167,12.810563 11.833578,15.600395 9.1941789,17.573289 6.4565181,17.294254 3.345814,16.977198 1.1524728,14.024706 1.4860261,10.965834 1.8602224,7.5342424 5.1261684,5.1202316 8.5062165,5.5085416 12.258711,5.9396393 14.893555,9.5193049 14.45031,13.220503"
       transform="matrix(-0.14713794,0.04893251,0.077338,0.15325276,8.1918902,7.2522827)" /><path
       sodipodi:type="spiral"
       style="fill:#04ff9f;fill-opacity:1;fill-rule:evenodd;stroke:#005b53;stroke-width:1.165;stroke-dasharray:none;stroke-opacity:1"
       id="path26"
       sodipodi:cx="7.3788824"
       sodipodi:cy="11.990684"
       sodipodi:expansion="1"
       sodipodi:revolution="3"
       sodipodi:radius="7.1775723"
       sodipodi:argument="-18.677364"
       sodipodi:t0="0"
       d="m 7.3788824,11.990684 c 0.3545501,0.06166 0.091804,0.508347 -0.1024849,0.589285 -0.5265123,0.219336 -1.0101602,-0.312416 -1.0760864,-0.794255 -0.1179264,-0.861898 0.6785411,-1.533067 1.4860261,-1.562887 1.1850166,-0.04376 2.0659185,1.047626 2.0496877,2.177796 -0.021633,1.506339 -1.4174993,2.602675 -2.8695671,2.536489 C 5.0391786,14.853823 3.7250753,13.149428 3.8431686,11.375774 3.9861954,9.2276413 6.0011989,7.6945659 8.0962768,7.8656841 10.565254,8.067341 12.31801,10.39416 12.093167,12.810563 11.833578,15.600395 9.1941789,17.573289 6.4565181,17.294254 3.345814,16.977198 1.1524728,14.024706 1.4860261,10.965834 1.8602224,7.5342424 5.1261684,5.1202316 8.5062165,5.5085416 12.258711,5.9396393 14.893555,9.5193049 14.45031,13.220503"
       transform="matrix(-0.14713794,0.04893251,0.077338,0.15325276,17.078215,8.0675417)" /><path
       sodipodi:type="spiral"
       style="fill:#04ff9f;fill-opacity:1;fill-rule:evenodd;stroke:#005b53;stroke-width:1.165;stroke-dasharray:none;stroke-opacity:1"
       id="path27"
       sodipodi:cx="7.3788824"
       sodipodi:cy="11.990684"
       sodipodi:expansion="1"
       sodipodi:revolution="3"
       sodipodi:radius="7.1775723"
       sodipodi:argument="-18.677364"
       sodipodi:t0="0"
       d="m 7.3788824,11.990684 c 0.3545501,0.06166 0.091804,0.508347 -0.1024849,0.589285 -0.5265123,0.219336 -1.0101602,-0.312416 -1.0760864,-0.794255 -0.1179264,-0.861898 0.6785411,-1.533067 1.4860261,-1.562887 1.1850166,-0.04376 2.0659185,1.047626 2.0496877,2.177796 -0.021633,1.506339 -1.4174993,2.602675 -2.8695671,2.536489 C 5.0391786,14.853823 3.7250753,13.149428 3.8431686,11.375774 3.9861954,9.2276413 6.0011989,7.6945659 8.0962768,7.8656841 10.565254,8.067341 12.31801,10.39416 12.093167,12.810563 11.833578,15.600395 9.1941789,17.573289 6.4565181,17.294254 3.345814,16.977198 1.1524728,14.024706 1.4860261,10.965834 1.8602224,7.5342424 5.1261684,5.1202316 8.5062165,5.5085416 12.258711,5.9396393 14.893555,9.5193049 14.45031,13.220503"
       transform="matrix(0.14713794,0.04893251,-0.077338,0.15325276,17.406125,6.9533544)" /></g></svg>
