<?xml version="1.0" encoding="UTF-8" standalone="no"?>
<!-- Created with Inkscape (http://www.inkscape.org/) -->

<svg
   width="100"
   height="100"
   viewBox="0 0 26.458333 26.458334"
   version="1.1"
   id="svg5"
   inkscape:version="1.4.2 (ebf0e940d0, 2025-05-08)"
   sodipodi:docname="conde.svg"
   xml:space="preserve"
   xmlns:inkscape="http://www.inkscape.org/namespaces/inkscape"
   xmlns:sodipodi="http://sodipodi.sourceforge.net/DTD/sodipodi-0.dtd"
   xmlns="http://www.w3.org/2000/svg"
   xmlns:svg="http://www.w3.org/2000/svg"><sodipodi:namedview
     id="namedview7"
     pagecolor="#505050"
     bordercolor="#ffffff"
     borderopacity="1"
     inkscape:pageshadow="0"
     inkscape:pageopacity="0"
     inkscape:pagecheckerboard="1"
     inkscape:document-units="px"
     showgrid="false"
     units="px"
     width="100px"
     inkscape:snap-global="false"
     inkscape:zoom="2"
     inkscape:cx="93.25"
     inkscape:cy="64.75"
     inkscape:window-width="1366"
     inkscape:window-height="697"
     inkscape:window-x="0"
     inkscape:window-y="0"
     inkscape:window-maximized="1"
     inkscape:current-layer="layer1"
     inkscape:showpageshadow="0"
     inkscape:deskcolor="#505050" /><defs
     id="defs2"><linearGradient
       id="linearGradient13895"
       inkscape:swatch="solid"><stop
         style="stop-color:#000000;stop-opacity:1;"
         offset="0"
         id="stop13893" /></linearGradient><filter
       style="color-interpolation-filters:sRGB;"
       inkscape:label="Clean Edges"
       id="filter14269"
       x="-0.31154084"
       y="-0.29580634"
       width="1.6230817"
       height="1.5916127"><feGaussianBlur
         stdDeviation="0.204612"
         result="blur"
         id="feGaussianBlur14263" /><feComposite
         in="SourceGraphic"
         in2="blur"
         operator="in"
         result="composite1"
         id="feComposite14265" /><feComposite
         in="composite1"
         in2="composite1"
         operator="in"
         result="composite2"
         id="feComposite14267" /></filter><inkscape:path-effect
       effect="fillet_chamfer"
       id="path-effect68"
       is_visible="true"
       lpeversion="1"
       nodesatellites_param="F,0,0,1,0,0,0,1 @ F,0,0,1,0,0,0,1 @ F,0,0,1,0,0,0,1 @ F,0,0,1,0,0,0,1 @ F,0,0,1,0,0,0,1 @ F,0,0,1,0,0,0,1 @ F,0,0,1,0,0,0,1 @ F,0,0,1,0,0,0,1 @ F,0,0,1,0,0,0,1"
       radius="0"
       unit="px"
       method="auto"
       mode="F"
       chamfer_steps="1"
       flexible="false"
       use_knot_distance="true"
       apply_no_radius="true"
       apply_with_radius="true"
       only_selected="false"
       hide_knots="false" /><inkscape:path-effect
       effect="fillet_chamfer"
       id="path-effect66"
       is_visible="true"
       lpeversion="1"
       nodesatellites_param="F,0,0,1,0,0,0,1 @ F,0,0,1,0,0.44929322,0,1 @ F,0,0,1,0,0.44929322,0,1 @ F,0,0,1,0,0,0,1 @ F,0,0,1,0,0,0,1 @ F,0,0,1,0,0,0,1 @ F,0,0,1,0,0,0,1 @ F,0,0,1,0,0,0,1 @ F,0,0,1,0,0,0,1 @ F,0,0,1,0,0,0,1"
       radius="0"
       unit="px"
       method="auto"
       mode="F"
       chamfer_steps="1"
       flexible="false"
       use_knot_distance="true"
       apply_no_radius="true"
       apply_with_radius="true"
       only_selected="false"
       hide_knots="false" /><filter
       style="color-interpolation-filters:sRGB;"
       inkscape:label="Blur"
       id="filter18"
       x="-0.41092991"
       y="-0.38880496"
       width="1.8218598"
       height="1.7776099"><feGaussianBlur
         stdDeviation="1.77811 1.61808"
         result="blur"
         id="feGaussianBlur18" /></filter></defs><g
     inkscape:label="Camada 1"
     inkscape:groupmode="layer"
     id="layer1"><ellipse
       style="fill:#003fc9;fill-opacity:0.662745;stroke:none;stroke-width:0.688714;stroke-linecap:round;stroke-linejoin:round;stroke-dasharray:none;stroke-opacity:1;filter:url(#filter18)"
       id="ellipse19"
       cx="10.616406"
       cy="6.316927"
       rx="5.1924477"
       ry="4.9940104"
       transform="matrix(1.3810763,0,0,1.1378441,-2.1605044,12.391488)" /><ellipse
       style="fill:#0041c9;fill-opacity:0.71739399;stroke:none;stroke-width:0.688714;stroke-linecap:round;stroke-linejoin:round;stroke-dasharray:none;stroke-opacity:1;filter:url(#filter18)"
       id="path18"
       cx="10.616406"
       cy="6.316927"
       rx="5.1924477"
       ry="4.9940104"
       transform="matrix(1.0279689,0,0,1.0223531,1.5551542,1.1155679)" /><path
       id="rect14"
       style="fill:#ffffff;stroke:#2b2b13;stroke-width:0.509588"
       d="m 15.095167,22.316832 c 0.578352,0 1.112051,0.469627 1.043956,1.043955 -0.08085,0.68186 -0.122296,1.314478 0,1.742412 0.15892,0.556088 -0.465604,1.043955 -1.043956,1.043955 -0.578351,0 -1.043955,-0.465604 -1.043955,-1.043955 v -1.742412 c 0,-0.578351 0.465604,-1.043955 1.043955,-1.043955 z"
       sodipodi:nodetypes="sssssss" /><path
       id="rect15"
       style="fill:#ffffff;stroke:#2b2b13;stroke-width:0.556948"
       d="m 14.87794,19.909496 h 0.352928 c 0.37649,0 0.710456,0.304363 0.679585,0.679585 -0.111421,1.35429 -0.03292,1.822288 0,2.502969 0.01819,0.37605 -0.303095,0.679585 -0.679585,0.679585 H 14.87794 c -0.37649,0 -0.679585,-0.303095 -0.679585,-0.679585 v -2.502969 c 0,-0.37649 0.303095,-0.679585 0.679585,-0.679585 z"
       sodipodi:nodetypes="sssssssss" /><path
       id="rect13"
       style="fill:#ffffff;stroke:#2b2b13;stroke-width:0.509588"
       d="m 10.272303,22.398357 c 0.578352,0 1.043956,0.465605 1.043956,1.043956 v 1.742411 c 0,0.578352 -0.465604,1.043956 -1.043956,1.043956 -0.5783515,0 -1.1728074,-0.48014 -1.0439557,-1.043956 0.1017343,-0.445158 0.047658,-1.098063 0,-1.742411 -0.04266,-0.576776 0.4656042,-1.043956 1.0439557,-1.043956 z"
       sodipodi:nodetypes="sssssss" /><path
       id="rect46"
       style="fill:#ffffff;stroke:#2b2b13;stroke-width:0.556948"
       d="m 10.082252,19.88232 h 0.352928 c 0.37649,0 0.679585,0.303095 0.679585,0.679586 v 2.502968 c 0,0.37649 -0.303095,0.679585 -0.679585,0.679585 h -0.352928 c -0.3764905,0 -0.7648447,-0.312876 -0.6795854,-0.679585 0.1867426,-0.803199 0.117261,-1.649102 0,-2.502968 -0.051223,-0.37299 0.3030949,-0.679586 0.6795854,-0.679586 z"
       sodipodi:nodetypes="sssssssss" /><path
       id="rect12"
       style="fill:#ffffff;fill-opacity:1;stroke:#2b2b13;stroke-width:0.615421;stroke-dasharray:none;stroke-opacity:1"
       d="m 15.188738,18.400944 c -0.118309,0.0064 -0.238723,0.04469 -0.350883,0.117305 l -2.200383,1.424203 -2.295468,-1.257805 C 9.9212865,18.45414 9.3860208,18.60127 9.1420777,19.014343 l -0.081649,0.137977 c -0.2439431,0.413073 -0.1013579,0.931177 0.3193603,1.161686 l 2.796728,1.532723 c 0.319014,0.174785 0.703982,0.13218 0.977719,-0.07855 0.04015,-0.01694 0.07971,-0.03752 0.11834,-0.06253 l 2.385901,-1.545125 c 0.358913,-0.232356 0.493972,-0.72704 0.302823,-1.109494 l -0.130741,-0.261999 c -0.131415,-0.262936 -0.381542,-0.40222 -0.641821,-0.38809 z" /><rect
       style="fill:#ffffff;fill-opacity:1;stroke:#2b2b13;stroke-width:0.410162;stroke-opacity:1"
       id="rect7"
       width="2.028074"
       height="5.3918009"
       x="-20.542721"
       y="-10.587231"
       ry="0.94874567"
       transform="matrix(-0.37967975,-0.92511799,-0.9405437,0.33967271,0,0)" /><rect
       style="fill:#ffffff;fill-opacity:1;stroke:#2b2b13;stroke-width:0.410162;stroke-opacity:1"
       id="rect6"
       width="2.028074"
       height="5.3918009"
       x="-12.086647"
       y="12.203358"
       ry="0.94874567"
       transform="matrix(0.37967975,-0.92511799,0.9405437,0.33967271,0,0)" /><rect
       style="fill:#ffffff;fill-opacity:1;stroke:#2b2b13;stroke-width:0.464608;stroke-dasharray:none;stroke-opacity:1"
       id="rect5"
       width="2.3163974"
       height="3.0983481"
       x="11.32569"
       y="17.269182"
       ry="1.1581987" /><ellipse
       style="fill:#777735;fill-opacity:1;stroke:none;stroke-width:0.113024;stroke-miterlimit:4;stroke-dasharray:none;stroke-opacity:1"
       id="ellipse16"
       cx="12.502547"
       cy="18.654696"
       rx="0.9277522"
       ry="0.72294557" /><rect
       style="fill:#ffffff;fill-opacity:1;stroke:#2b2b13;stroke-width:0.480748;stroke-dasharray:none;stroke-opacity:1"
       id="rect4"
       width="1.8097314"
       height="3.1351881"
       x="11.565435"
       y="15.701769"
       ry="1.1719699" /><ellipse
       style="fill:#777735;fill-opacity:1;stroke:none;stroke-width:0.0737084;stroke-miterlimit:4;stroke-dasharray:none;stroke-opacity:1"
       id="ellipse15"
       cx="12.46892"
       cy="17.333609"
       rx="0.6635344"
       ry="0.42990404" /><ellipse
       style="fill:#777735;fill-opacity:1;stroke:none;stroke-width:0.180876;stroke-miterlimit:4;stroke-dasharray:none;stroke-opacity:1"
       id="ellipse17"
       cx="18.373695"
       cy="11.632901"
       rx="1.6280661"
       ry="1.0550771"
       transform="matrix(0.93283597,0.36030133,-0.61831559,0.78592992,0,0)" /><ellipse
       style="fill:#777735;fill-opacity:1;stroke:none;stroke-width:0.180876;stroke-miterlimit:4;stroke-dasharray:none;stroke-opacity:1"
       id="ellipse18"
       cx="0.15127508"
       cy="21.770502"
       rx="1.6280661"
       ry="1.0550771"
       transform="matrix(-0.88443986,0.46665418,0.70577095,0.7084401,0,0)" /><rect
       style="fill:#ffffff;fill-opacity:1;stroke:#2b2b13;stroke-width:0.43815;stroke-dasharray:none;stroke-opacity:1"
       id="rect3"
       width="2.3163974"
       height="3.0983481"
       x="11.32569"
       y="14.171197"
       ry="1.1581987" /><ellipse
       style="fill:#ffffff;fill-opacity:1;stroke:#2b2b13;stroke-width:0.462514;stroke-miterlimit:4;stroke-dasharray:none;stroke-opacity:1"
       id="path11105"
       cx="12.476822"
       cy="12.802852"
       rx="1.7951119"
       ry="2.3094165" /><path
       id="rect9714"
       style="fill:#ffffff;fill-opacity:1;stroke:#2b2b13;stroke-width:0.644718;stroke-miterlimit:4;stroke-dasharray:none;stroke-opacity:1"
       d="m 7.5039268,13.897198 c -0.3155226,0.08193 -0.5701833,0.28279 -0.6426982,0.540039 L 5.8623795,17.9808 c -0.1668814,1.325081 -0.039236,2.694051 -0.019025,4.031724 0.00576,0.380557 0.4210858,0.620318 0.9308161,0.538018 l 0.3857362,-0.06168 C 7.6696381,22.40657 8.0751771,22.033365 8.0694208,21.652807 8.1760659,20.5372 7.8391073,19.32276 8.0611738,18.231695 L 9.0605656,14.687339 C 9.1660402,14.313163 8.8451467,13.96585 8.3416227,13.908529 l -0.3811544,-0.04361 c -0.157354,-0.01791 -0.3131085,-0.0049 -0.4565318,0.0323 z"
       sodipodi:nodetypes="ccccccccccccc" /><ellipse
       style="fill:#777735;fill-opacity:1;stroke:none;stroke-width:0.26412;stroke-miterlimit:4;stroke-dasharray:none;stroke-opacity:1"
       id="ellipse49"
       cx="12.455815"
       cy="12.640683"
       rx="2.0684905"
       ry="1.7707258" /><path
       id="ellipse3"
       style="fill:#ffffff;fill-opacity:1;stroke:#2b2b13;stroke-width:0.599017;stroke-miterlimit:4;stroke-dasharray:none;stroke-opacity:1"
       d="m 12.25713,0.86752433 c -3.3087592,7.02e-5 -5.9909672,2.66562007 -5.9908492,5.95364177 4.7e-5,2.532946 1.320567,4.2623379 3.727583,5.0956919 l -0.4970774,1.258568 2.2989316,0.631874 0.144119,-1.041277 c 0.218137,0.01135 0.582305,0.01917 1.027328,-0.03356 l 0.250705,1.019087 1.919047,-0.631057 -0.163703,-1.308276 C 16.825965,10.748593 18.247864,8.9474821 18.247979,6.8211961 18.248097,3.533174 15.565888,0.86762393 12.25713,0.86755433 Z M 8.6303457,4.5584169 c 1.213023,0.077378 2.1033023,0.417731 3.0375253,0.9646644 0.123131,0.425617 0.138078,0.688766 0.02545,1.1341362 -0.315589,1.247512 -1.248467,1.9574436 -2.3450552,1.6801356 -1.096579,-0.277336 -1.729784,-1.513512 -1.414384,-2.7610722 0.112638,-0.4453671 0.3713365,-0.69265 0.6819975,-1.0085623 z m 7.5814513,0.1167886 c 0.310802,0.3178486 0.603018,0.5254182 0.715849,0.9729057 0.315937,1.2534979 -0.316863,2.4939059 -1.41335,2.7703739 -1.096492,0.27644 -2.241336,-0.515437 -2.557467,-1.768885 C 12.843992,6.2021091 12.800672,5.878595 12.923679,5.4513856 14.02746,4.9426991 15.07555,4.6223689 16.1575,4.6616179 Z"
       sodipodi:nodetypes="ccccccccccccccccccccccccccc" /><path
       id="path2"
       style="fill:#ffffff;fill-opacity:1;stroke:#2b2b13;stroke-width:0.658606;stroke-miterlimit:4;stroke-dasharray:none;stroke-opacity:1"
       d="m 17.810213,13.713913 c 0.329795,0.0818 0.595975,0.282334 0.67177,0.539168 l 1.04403,3.537851 c 0.174429,1.322945 0.04101,2.689708 0.01989,4.025225 -0.006,0.379944 -0.440133,0.619318 -0.97292,0.537151 l -0.403184,-0.06158 c -0.532788,-0.08216 -0.956671,-0.454763 -0.950654,-0.834708 -0.111469,-1.113809 0.240731,-2.326291 0.0086,-3.415597 L 16.183147,14.50278 c -0.110245,-0.373573 0.225163,-0.720326 0.751463,-0.777554 l 0.398395,-0.04354 c 0.164472,-0.01788 0.327272,-0.0049 0.477182,0.03225 z"
       sodipodi:nodetypes="ccccccccccccc" /><path
       id="rect8"
       style="fill:#ffffff;stroke:#2b2b13;stroke-width:0.46064"
       d="m 7.8902363,15.360975 0.057659,-0.147079 c 0.1510404,-0.385277 0.6867493,-0.731709 0.9713435,-0.43128 0.7030417,0.74216 1.5095692,1.204909 2.5733972,0.972947 0.404326,-0.08816 0.577112,0.574336 0.426072,0.959613 l -0.05766,0.147079 c -0.15104,0.385277 -0.584259,0.577627 -0.971344,0.431279 L 8.3163082,16.320587 C 7.9292241,16.174239 7.7391963,15.746251 7.8902363,15.360975 Z"
       sodipodi:nodetypes="sssssssss" /><path
       id="rect9"
       style="fill:#ffffff;stroke:#2b2b13;stroke-width:0.46064"
       d="m 17.082014,15.279447 -0.05766,-0.147078 c -0.15104,-0.385278 -0.639226,-0.67816 -0.971343,-0.43128 -0.71274,0.529816 -1.435328,1.04568 -2.573397,0.972947 -0.412983,-0.02639 -0.577111,0.574335 -0.426071,0.959613 l 0.05766,0.147078 c 0.151041,0.385278 0.58426,0.577628 0.971343,0.43128 l 2.573397,-0.972947 c 0.387084,-0.146348 0.577112,-0.574335 0.426071,-0.959613 z"
       sodipodi:nodetypes="sssssssss" /></g></svg>
