<?xml version="1.0" encoding="UTF-8" standalone="no"?>
<!-- Created with Inkscape (http://www.inkscape.org/) -->

<svg
   width="100"
   height="100"
   viewBox="0 0 26.458333 26.458334"
   version="1.1"
   id="svg5"
   inkscape:version="1.4.2 (ebf0e940d0, 2025-05-08)"
   sodipodi:docname="d'arby.svg"
   xml:space="preserve"
   xmlns:inkscape="http://www.inkscape.org/namespaces/inkscape"
   xmlns:sodipodi="http://sodipodi.sourceforge.net/DTD/sodipodi-0.dtd"
   xmlns="http://www.w3.org/2000/svg"
   xmlns:svg="http://www.w3.org/2000/svg"><sodipodi:namedview
     id="namedview7"
     pagecolor="#505050"
     bordercolor="#ffffff"
     borderopacity="1"
     inkscape:pageshadow="0"
     inkscape:pageopacity="0"
     inkscape:pagecheckerboard="1"
     inkscape:document-units="mm"
     showgrid="false"
     units="px"
     width="100px"
     inkscape:snap-global="false"
     inkscape:zoom="3.4422559"
     inkscape:cx="28.324449"
     inkscape:cy="55.051108"
     inkscape:window-width="1366"
     inkscape:window-height="697"
     inkscape:window-x="0"
     inkscape:window-y="0"
     inkscape:window-maximized="1"
     inkscape:current-layer="layer1"
     inkscape:showpageshadow="0"
     inkscape:deskcolor="#505050" /><defs
     id="defs2"><linearGradient
       id="linearGradient13895"
       inkscape:swatch="solid"><stop
         style="stop-color:#000000;stop-opacity:1;"
         offset="0"
         id="stop13893" /></linearGradient><filter
       style="color-interpolation-filters:sRGB;"
       inkscape:label="Clean Edges"
       id="filter14269"
       x="-0.31154084"
       y="-0.29580634"
       width="1.6230817"
       height="1.5916127"><feGaussianBlur
         stdDeviation="0.204612"
         result="blur"
         id="feGaussianBlur14263" /><feComposite
         in="SourceGraphic"
         in2="blur"
         operator="in"
         result="composite1"
         id="feComposite14265" /><feComposite
         in="composite1"
         in2="composite1"
         operator="in"
         result="composite2"
         id="feComposite14267" /></filter></defs><g
     inkscape:label="Camada 1"
     inkscape:groupmode="layer"
     id="layer1"><ellipse
       style="fill:#000000;fill-opacity:0.419547;stroke:none;stroke-width:0.475001;stroke-linecap:round;stroke-linejoin:round;stroke-dasharray:none;stroke-opacity:1"
       id="path16"
       cx="12.3868"
       cy="25.019022"
       rx="8.0322199"
       ry="1.3451086" /><path
       id="path1"
       style="fill:#0053ce;fill-opacity:1;stroke:#080039;stroke-width:0.766134;stroke-miterlimit:4;stroke-dasharray:none;stroke-opacity:1"
       d="m 16.920642,12.023514 c 0.38705,0.09432 0.699441,0.325535 0.788394,0.621668 l 1.225283,4.079189 c 0.02576,0.167457 0.06319,0.324158 0.09015,0.491529 l -0.06681,4.149609 c -0.0071,0.43808 -0.516544,0.714082 -1.141827,0.619342 l -0.47318,-0.071 c -0.625285,-0.09473 -1.122758,-0.524348 -1.115696,-0.96243 l 0.06154,-3.815952 c -0.02138,-0.03944 -0.03871,-0.07997 -0.05142,-0.122276 l -1.225953,-4.080105 c -0.129386,-0.430735 0.264253,-0.830546 0.881923,-0.89653 l 0.467559,-0.0502 c 0.193026,-0.02062 0.384089,-0.0056 0.560025,0.03718 z"
       sodipodi:nodetypes="ccccccccccccccc" /><rect
       style="fill:#0053ce;fill-opacity:1;stroke:#110077;stroke-width:0.547255;stroke-opacity:1"
       id="rect46"
       width="2.9710424"
       height="6.5520492"
       x="8.867341"
       y="19.447174"
       ry="1.1529039" /><rect
       style="fill:#0053ce;fill-opacity:1;stroke:#110077;stroke-width:0.55612;stroke-opacity:1"
       id="rect47"
       width="3.1044619"
       height="6.4752464"
       x="12.618588"
       y="19.469433"
       ry="1.1393898" /><path
       id="path47"
       style="fill:#002766;stroke-width:0.449457"
       d="m 9.9583833,19.821351 h 0.7333607 c 0.49346,0 0.890723,0.410141 0.890723,0.919599 v 3.386959 c 0,0.509458 -0.354797,0.555096 -0.838079,0.658037 L 9.8991583,24.965982 C 9.4158761,25.068923 9.0676601,24.637367 9.0676601,24.127909 V 20.74095 c 0,-0.509458 0.397262,-0.919599 0.8907232,-0.919599 z"
       sodipodi:nodetypes="sssssssss" /><path
       id="path48"
       style="fill:#002766;stroke-width:0.455488"
       d="m 13.786989,19.902877 h 0.753173 c 0.506792,0 0.914786,0.410141 0.914786,0.919599 v 3.386959 c 0,0.509458 -0.364381,0.555096 -0.86072,0.658037 l -0.868064,0.180036 c -0.496338,0.102941 -0.853961,-0.328615 -0.853961,-0.838073 v -3.386959 c 0,-0.509458 0.407994,-0.919599 0.914786,-0.919599 z"
       sodipodi:nodetypes="sssssssss" /><path
       id="rect9714"
       style="fill:#0053ce;fill-opacity:1;stroke:#080039;stroke-width:0.766134;stroke-miterlimit:4;stroke-dasharray:none;stroke-opacity:1"
       d="m 8.091938,12.254104 c -0.3870497,0.09432 -0.6994405,0.325535 -0.788394,0.621668 l -1.2252824,4.079189 c -0.025759,0.167457 -0.06319,0.324158 -0.090151,0.491529 l 0.066813,4.149609 c 0.00706,0.43808 0.5165435,0.714082 1.1418267,0.619342 l 0.4731803,-0.071 c 0.6252848,-0.09473 1.1227571,-0.524348 1.1156959,-0.96243 l -0.061538,-3.815952 c 0.021378,-0.03944 0.038705,-0.07997 0.051416,-0.122276 l 1.2259535,-4.080105 c 0.129385,-0.430735 -0.2642537,-0.830546 -0.8819234,-0.89653 l -0.4675598,-0.0502 c -0.1930253,-0.02062 -0.3840884,-0.0056 -0.560025,0.03718 z"
       sodipodi:nodetypes="ccccccccccccccc" /><path
       style="fill:#c5c5c5;fill-opacity:1;stroke:#120307;stroke-width:0.600001;stroke-linecap:round;stroke-linejoin:round;stroke-dasharray:none;stroke-opacity:1"
       d="m 7.1985249,12.259705 -1.8062889,5.188277 0.1152951,2.229037 3.5741459,0.03843 -0.1921585,-2.3059 0.8454968,-4.842391 -0.7686334,-0.845497 z"
       id="path5" /><path
       style="fill:#c5c5c5;fill-opacity:1;stroke:#120307;stroke-width:0.600001;stroke-linecap:round;stroke-linejoin:round;stroke-dasharray:none;stroke-opacity:1"
       d="m 18.121997,12.259705 1.806289,5.188277 -0.115295,2.229037 -3.574146,0.03843 0.192158,-2.3059 -0.845497,-4.842391 0.768634,-0.845497 z"
       id="path6" /><path
       id="rect9738"
       style="fill:#730e1f;fill-opacity:1;stroke:#23040a;stroke-width:0.626109;stroke-miterlimit:4;stroke-dasharray:none;stroke-opacity:1"
       d="m 9.0235983,12.445021 -0.4892943,11.345455 1.950181,0.226367 1.819138,-0.150965 2.065705,0.343123 1.776281,-0.8772 -0.434928,-10.88678 z"
       sodipodi:nodetypes="cccccccc" /><path
       id="ellipse1"
       style="fill:#ffffff;fill-opacity:1;stroke:#23040a;stroke-width:0.682982;stroke-dasharray:none;stroke-opacity:1"
       d="m 15.219611,14.542816 c -0.220556,1.916682 -1.185526,3.303162 -2.857779,3.303162 -1.672254,0 -2.5805967,-1.682861 -2.8199787,-3.595084 -0.4158061,-3.321531 1.1477257,-3.435852 2.8199787,-3.435852 1.672253,0 3.273585,0.114325 2.857779,3.727774 z"
       sodipodi:nodetypes="sssss" /><ellipse
       style="fill:#0053ce;fill-opacity:1;stroke:#090042;stroke-width:0.509;stroke-miterlimit:4;stroke-dasharray:none;stroke-opacity:1"
       id="path11105"
       cx="12.399958"
       cy="12.620301"
       rx="2.3867757"
       ry="2.1036232" /><ellipse
       style="fill:#002766;fill-opacity:1;stroke:none;stroke-width:0.24092;stroke-miterlimit:4;stroke-dasharray:none;stroke-opacity:1"
       id="ellipse49"
       cx="12.37429"
       cy="12.287404"
       rx="2.1500163"
       ry="1.4174469" /><ellipse
       style="fill:#002766;fill-opacity:1;stroke:#080039;stroke-width:0.89;stroke-miterlimit:4;stroke-dasharray:none;stroke-opacity:1"
       id="ellipse3"
       cx="12.26719"
       cy="6.7346692"
       rx="5.9909759"
       ry="5.9534302" /><ellipse
       style="fill:#0053ce;fill-opacity:1;stroke:none;stroke-width:0.30925;stroke-miterlimit:4;stroke-dasharray:none;stroke-opacity:1"
       id="ellipse4"
       cx="12.316631"
       cy="6.4745464"
       rx="5.1499281"
       ry="5.1887231" /><ellipse
       style="fill:#1e78ff;fill-opacity:1;stroke:none;stroke-width:0.915377;stroke-dasharray:none;stroke-opacity:1"
       id="ellipse8"
       cx="5.2129774"
       cy="12.609094"
       rx="3.3188555"
       ry="4.4286542"
       transform="matrix(0.75276069,-0.65829427,0.72166593,0.69224149,0,0)" /><path
       id="path42"
       style="fill:#ffffff;fill-opacity:1;stroke:#002865;stroke-width:0.479089;stroke-miterlimit:4;stroke-dasharray:none;stroke-opacity:1"
       d="m 12.999617,5.306404 c -0.213749,0.3382045 -0.347387,0.8787195 -0.334324,1.2795314 0.03659,1.1226963 0.986706,2.0141597 2.122215,1.9912111 1.135506,-0.022976 2.026458,-0.9516683 1.990063,-2.0743686 C 16.764542,6.1019758 16.628693,5.611733 16.393251,5.2826117 15.34086,5.040942 14.192931,5.08812 12.999617,5.306404 Z"
       sodipodi:nodetypes="cccccc" /><ellipse
       style="fill:#110077;fill-opacity:1;stroke:none;stroke-width:1.37026"
       id="ellipse42"
       cx="14.80946"
       cy="6.9121552"
       rx="1.5060499"
       ry="1.4281803" /><path
       id="path43"
       style="fill:#2300ec;fill-opacity:1;stroke:none;stroke-width:1.37026"
       d="M 13.917329,5.761459 A 1.5060497,1.4281802 0 0 0 13.303663,6.9123096 1.5060497,1.4281802 0 0 0 14.809809,8.3404191 1.5060497,1.4281802 0 0 0 16.079174,7.6804009 1.5060497,1.4281802 0 0 1 15.187395,7.9576601 1.5060497,1.4281802 0 0 1 13.68125,6.5295504 1.5060497,1.4281802 0 0 1 13.917329,5.761459 Z" /><ellipse
       style="fill:#ffffff;fill-opacity:1;stroke:none;stroke-width:0.551633"
       id="ellipse43"
       cx="14.882463"
       cy="6.0254517"
       rx="0.58268768"
       ry="0.59823495" /><rect
       style="fill:#a600cb;fill-opacity:1;stroke:#23040a;stroke-width:0.338315;stroke-linecap:round;stroke-linejoin:round;stroke-dasharray:none;stroke-opacity:1"
       id="rect2"
       width="1.1530666"
       height="2.8532197"
       x="11.877522"
       y="14.8158"
       ry="0.78274173" /><path
       style="fill:#c5c5c5;fill-opacity:1;stroke:#120307;stroke-width:0.6;stroke-linecap:round;stroke-linejoin:round;stroke-dasharray:none;stroke-opacity:1"
       d="m 9.6773683,12.682453 -0.3825515,1.113554 0.1173921,1.805322 2.5710601,-0.785918 -0.422748,-0.499612 -0.845497,-0.480395 -0.403533,-0.768634 -0.05765,-0.307453 z"
       id="path3"
       sodipodi:nodetypes="ccccccccc" /><path
       style="fill:#c5c5c5;fill-opacity:1;stroke:#120307;stroke-width:0.6;stroke-linecap:round;stroke-linejoin:round;stroke-dasharray:none;stroke-opacity:1"
       d="m 15.201434,12.64169 0.382551,1.113554 -0.117392,1.805322 -2.571059,-0.785918 0.422748,-0.499612 0.845497,-0.480395 0.403532,-0.768634 0.05765,-0.307453 z"
       id="path4"
       sodipodi:nodetypes="ccccccccc" /><ellipse
       style="fill:#a600cb;fill-opacity:1;stroke:#23040a;stroke-width:0.417284;stroke-linecap:round;stroke-linejoin:round;stroke-dasharray:none;stroke-opacity:1"
       id="path2"
       cx="12.471622"
       cy="14.969161"
       rx="0.89061058"
       ry="0.69199979" /><path
       id="path7"
       style="fill:#ffffff;fill-opacity:1;stroke:#002865;stroke-width:0.479089;stroke-miterlimit:4;stroke-dasharray:none;stroke-opacity:1"
       d="m 8.1572248,5.306404 c -0.213749,0.3382045 -0.347387,0.8787195 -0.334324,1.2795314 0.03659,1.1226963 0.986706,2.0141597 2.1222145,1.9912111 C 11.080622,8.5541705 11.971575,7.6254782 11.93518,6.5027779 11.922151,6.1019758 11.786302,5.611733 11.550859,5.2826117 10.498468,5.040942 9.3505388,5.08812 8.1572248,5.306404 Z"
       sodipodi:nodetypes="cccccc" /><ellipse
       style="fill:#110077;fill-opacity:1;stroke:none;stroke-width:1.37026"
       id="ellipse7"
       cx="9.9670687"
       cy="6.9121552"
       rx="1.5060499"
       ry="1.4281803" /><path
       id="path8"
       style="fill:#2300ec;fill-opacity:1;stroke:none;stroke-width:1.37026"
       d="M 9.0749368,5.761459 A 1.5060497,1.4281802 0 0 0 8.4612708,6.9123096 1.5060497,1.4281802 0 0 0 9.9674163,8.3404191 1.5060497,1.4281802 0 0 0 11.236782,7.6804009 1.5060497,1.4281802 0 0 1 10.345003,7.9576601 1.5060497,1.4281802 0 0 1 8.8388578,6.5295504 1.5060497,1.4281802 0 0 1 9.0749368,5.761459 Z" /><ellipse
       style="fill:#ffffff;fill-opacity:1;stroke:none;stroke-width:0.551633"
       id="ellipse9"
       cx="10.040071"
       cy="6.0254517"
       rx="0.58268768"
       ry="0.59823495" /><path
       style="fill:#0e0069;fill-opacity:1;stroke:#06002c;stroke-width:0.475;stroke-linecap:round;stroke-linejoin:round;stroke-dasharray:none;stroke-opacity:1"
       d="m 10.38554,9.285968 1.590312,0.6444635 -1.168781,0.7480075 -0.60118,1.025884 -1.3623669,-0.49831 0.8373882,-0.733297 z"
       id="path9" /><path
       style="fill:#0e0069;fill-opacity:1;stroke:#06002c;stroke-width:0.475;stroke-linecap:round;stroke-linejoin:round;stroke-dasharray:none;stroke-opacity:1"
       d="m 14.413699,9.1330563 -1.547502,0.7413905 1.21272,0.6744432 0.663352,0.986823 1.329014,-0.581447 -0.881053,-0.680214 z"
       id="path10" /><path
       style="fill:#0e0069;fill-opacity:1;stroke:#06002c;stroke-width:0.583499;stroke-linecap:round;stroke-linejoin:round;stroke-dasharray:none;stroke-opacity:1"
       d="m 5.5921655,8.987899 c 0,0 1.2258839,-0.2011073 1.8031476,-0.9745515 C 7.9725768,7.2399033 7.6191703,5.1056403 8.1643024,4.3521946 8.7094345,3.5987489 9.7553143,3.4303214 9.7553143,3.4303214 l 1.8826987,0.7374985 2.837306,-1.1589262 1.962249,1.7647284 c 0,0 0.465662,0.058911 0.715956,0.6584808 0.250294,0.5995703 -0.491963,2.1666784 -0.106068,2.9236545 0.385895,0.7569761 1.803148,1.2116047 1.803148,1.2116047 L 20.229481,7.855312 19.062739,6.2222798 17.339142,1.2968437 14.713971,0.40130992 9.9939663,0.4803276 6.5467729,2.2977345 5.5656486,5.8535307 3.8685685,7.6972766 Z"
       id="path11"
       sodipodi:nodetypes="czzcccczzcccccccccc" /><path
       style="fill:#300fff;fill-opacity:1;stroke:none;stroke-width:0.600001;stroke-linecap:round;stroke-linejoin:round;stroke-dasharray:none;stroke-opacity:1"
       d="M 9.5812883,2.4404115 11.771895,3.55493 14.75035,2.4019798 16.210754,3.6317936 17.267625,3.4012034 14.635055,1.787073 11.964054,2.9592391 Z"
       id="path12" /><path
       style="fill:#300fff;fill-opacity:1;stroke:none;stroke-width:0.600001;stroke-linecap:round;stroke-linejoin:round;stroke-dasharray:none;stroke-opacity:1"
       d="M 4.1148029,7.5819084 5.4463927,8.6145697 7.1584365,7.7721356 7.6475918,4.9187293 6.1257749,6.8481754 Z"
       id="path13" /><path
       style="fill:#6b8dc5;fill-opacity:1;stroke:none;stroke-width:0.475001;stroke-linecap:round;stroke-linejoin:round;stroke-dasharray:none;stroke-opacity:1"
       d="m 8.6397126,12.778532 -1.5949144,3.996895 0.4803958,2.574922 0.8070654,-0.03843 z"
       id="path14" /><path
       style="fill:#6b8dc5;fill-opacity:1;stroke:none;stroke-width:0.475001;stroke-linecap:round;stroke-linejoin:round;stroke-dasharray:none;stroke-opacity:1"
       d="m 16.453481,12.757737 1.594914,3.996895 -0.480396,2.574922 -0.807065,-0.03843 c 0.189508,-1.806169 -0.124725,-4.253463 -0.307453,-6.533387 z"
       id="path15"
       sodipodi:nodetypes="ccccc" /></g></svg>
