<?xml version="1.0" encoding="UTF-8" standalone="no"?>
<!-- Created with Inkscape (http://www.inkscape.org/) -->

<svg
   width="100"
   height="100"
   viewBox="0 0 26.458333 26.458334"
   version="1.1"
   id="svg5"
   inkscape:version="1.4.2 (ebf0e940d0, 2025-05-08)"
   sodipodi:docname="dex.svg"
   xml:space="preserve"
   xmlns:inkscape="http://www.inkscape.org/namespaces/inkscape"
   xmlns:sodipodi="http://sodipodi.sourceforge.net/DTD/sodipodi-0.dtd"
   xmlns="http://www.w3.org/2000/svg"
   xmlns:svg="http://www.w3.org/2000/svg"><sodipodi:namedview
     id="namedview7"
     pagecolor="#505050"
     bordercolor="#ffffff"
     borderopacity="1"
     inkscape:pageshadow="0"
     inkscape:pageopacity="0"
     inkscape:pagecheckerboard="1"
     inkscape:document-units="mm"
     showgrid="false"
     units="px"
     width="100px"
     inkscape:snap-global="false"
     inkscape:zoom="6.8845118"
     inkscape:cx="28.542329"
     inkscape:cy="34.642979"
     inkscape:window-width="1366"
     inkscape:window-height="697"
     inkscape:window-x="0"
     inkscape:window-y="0"
     inkscape:window-maximized="1"
     inkscape:current-layer="layer1"
     inkscape:showpageshadow="0"
     inkscape:deskcolor="#505050" /><defs
     id="defs2"><linearGradient
       id="linearGradient13895"
       inkscape:swatch="solid"><stop
         style="stop-color:#000000;stop-opacity:1;"
         offset="0"
         id="stop13893" /></linearGradient><filter
       style="color-interpolation-filters:sRGB;"
       inkscape:label="Clean Edges"
       id="filter14269"
       x="-0.31154084"
       y="-0.29580634"
       width="1.6230817"
       height="1.5916127"><feGaussianBlur
         stdDeviation="0.204612"
         result="blur"
         id="feGaussianBlur14263" /><feComposite
         in="SourceGraphic"
         in2="blur"
         operator="in"
         result="composite1"
         id="feComposite14265" /><feComposite
         in="composite1"
         in2="composite1"
         operator="in"
         result="composite2"
         id="feComposite14267" /></filter><filter
       style="color-interpolation-filters:sRGB;"
       inkscape:label="Clean Edges"
       id="filter14269-3"
       x="-0.31154084"
       y="-0.29580634"
       width="1.6230817"
       height="1.5916127"><feGaussianBlur
         stdDeviation="0.204612"
         result="blur"
         id="feGaussianBlur14263-5" /><feComposite
         in="SourceGraphic"
         in2="blur"
         operator="in"
         result="composite1"
         id="feComposite14265-6" /><feComposite
         in="composite1"
         in2="composite1"
         operator="in"
         result="composite2"
         id="feComposite14267-2" /></filter><inkscape:path-effect
       effect="fillet_chamfer"
       id="path-effect68"
       is_visible="true"
       lpeversion="1"
       nodesatellites_param="F,0,0,1,0,0,0,1 @ F,0,0,1,0,0,0,1 @ F,0,0,1,0,0,0,1 @ F,0,0,1,0,0,0,1 @ F,0,0,1,0,0,0,1 @ F,0,0,1,0,0,0,1 @ F,0,0,1,0,0,0,1 @ F,0,0,1,0,0,0,1 @ F,0,0,1,0,0,0,1"
       radius="0"
       unit="px"
       method="auto"
       mode="F"
       chamfer_steps="1"
       flexible="false"
       use_knot_distance="true"
       apply_no_radius="true"
       apply_with_radius="true"
       only_selected="false"
       hide_knots="false" /><inkscape:path-effect
       effect="fillet_chamfer"
       id="path-effect66"
       is_visible="true"
       lpeversion="1"
       nodesatellites_param="F,0,0,1,0,0,0,1 @ F,0,0,1,0,0.44929322,0,1 @ F,0,0,1,0,0.44929322,0,1 @ F,0,0,1,0,0,0,1 @ F,0,0,1,0,0,0,1 @ F,0,0,1,0,0,0,1 @ F,0,0,1,0,0,0,1 @ F,0,0,1,0,0,0,1 @ F,0,0,1,0,0,0,1 @ F,0,0,1,0,0,0,1"
       radius="0"
       unit="px"
       method="auto"
       mode="F"
       chamfer_steps="1"
       flexible="false"
       use_knot_distance="true"
       apply_no_radius="true"
       apply_with_radius="true"
       only_selected="false"
       hide_knots="false" /></defs><g
     inkscape:label="Camada 1"
     inkscape:groupmode="layer"
     id="layer1"><path
       id="path1"
       style="fill:#5500b0;fill-opacity:1;stroke:#2f005f;stroke-width:0.766134;stroke-miterlimit:4;stroke-dasharray:none;stroke-opacity:1;stroke-linejoin:round;stroke-linecap:round"
       d="m 18.124901,12.652857 c 0.387049,0.09432 0.69944,0.325535 0.788394,0.621668 l 1.225282,4.079189 c 0.02576,0.167457 0.06319,0.324158 0.09015,0.491529 l -0.06681,4.149609 c -0.0071,0.43808 -0.516543,0.714082 -1.141827,0.619342 l -0.47318,-0.071 c -0.625285,-0.09473 -1.122757,-0.524348 -1.115696,-0.96243 l 0.06154,-3.815952 c -0.02138,-0.03944 -0.03871,-0.07997 -0.05142,-0.122276 l -1.225953,-4.080105 c -0.129385,-0.430735 0.264253,-0.830546 0.881923,-0.89653 l 0.46756,-0.0502 c 0.193025,-0.02062 0.384088,-0.0056 0.560025,0.03718 z"
       sodipodi:nodetypes="ccccccccccccccc" /><path
       id="rect9714"
       style="fill:#5500b0;fill-opacity:1;stroke:#2f005f;stroke-width:0.766134;stroke-miterlimit:4;stroke-dasharray:none;stroke-opacity:1"
       d="m 7.9575648,12.634558 c -0.3870497,0.09432 -0.6994405,0.325535 -0.788394,0.621668 l -1.2252824,4.079189 c -0.025759,0.167457 -0.06319,0.324158 -0.090151,0.491529 l 0.066813,4.149609 c 0.00706,0.43808 0.5165435,0.714082 1.1418267,0.619342 l 0.4731803,-0.071 c 0.6252848,-0.09473 1.1227571,-0.524348 1.1156959,-0.96243 l -0.061538,-3.815952 c 0.021378,-0.03944 0.038705,-0.07997 0.051416,-0.122276 l 1.2259531,-4.080105 c 0.1293851,-0.430735 -0.2642531,-0.830546 -0.881923,-0.89653 l -0.4675598,-0.0502 c -0.1930253,-0.02062 -0.3840884,-0.0056 -0.560025,0.03718 z"
       sodipodi:nodetypes="ccccccccccccccc" /><path
       id="rect9738"
       style="fill:#5500b0;fill-opacity:1;stroke:#2f005f;stroke-width:0.648893;stroke-miterlimit:4;stroke-dasharray:none;stroke-opacity:1"
       d="m 12.971945,10.734073 c -1.246429,2.06e-4 -2.282807,0.845695 -2.379183,1.940967 l -1.3351639,-0.05435 0.3120336,6.674467 c 3.3860953,2.426751 4.9854263,1.380622 7.1096453,-0.05298 l -0.0088,-6.567131 h -1.318832 c -0.09639,-1.095446 -1.133072,-1.940999 -2.3797,-1.940967 z"
       sodipodi:nodetypes="ccccccccc" /><rect
       style="fill:#5500b0;fill-opacity:1;stroke:#2f005f;stroke-width:0.547255;stroke-opacity:1"
       id="rect46"
       width="2.9710424"
       height="6.5520492"
       x="9.4395266"
       y="19.664576"
       ry="1.1529039" /><rect
       style="fill:#5500b0;fill-opacity:1;stroke:#2f005f;stroke-width:0.55612;stroke-opacity:1"
       id="rect47"
       width="3.1044619"
       height="6.4752464"
       x="13.190774"
       y="19.686834"
       ry="1.1393898" /><path
       id="path47"
       style="fill:#310066;fill-opacity:1;stroke-width:0.449457"
       d="m 10.530568,20.56792 h 0.733361 c 0.49346,0 0.890723,0.410141 0.890723,0.919599 v 3.386959 c 0,0.509458 -0.354797,0.555096 -0.838079,0.658037 l -0.84523,0.180036 C 9.9880607,25.815492 9.6398447,25.383936 9.6398447,24.874478 v -3.386959 c 0,-0.509458 0.3972623,-0.919599 0.8907233,-0.919599 z"
       sodipodi:nodetypes="sssssssss" /><path
       id="path48"
       style="fill:#310066;fill-opacity:1;stroke-width:0.455488"
       d="m 14.359173,20.649446 h 0.753173 c 0.506792,0 0.914786,0.410141 0.914786,0.919599 v 3.386959 c 0,0.509458 -0.364381,0.555096 -0.86072,0.658037 l -0.868064,0.180036 c -0.496338,0.102941 -0.853961,-0.328615 -0.853961,-0.838073 v -3.386959 c 0,-0.509458 0.407994,-0.919599 0.914786,-0.919599 z"
       sodipodi:nodetypes="sssssssss" /><rect
       style="fill:#000000;fill-opacity:0.788099;stroke:none;stroke-width:0.440958;stroke-linecap:round;stroke-linejoin:round;stroke-dasharray:none;stroke-opacity:1"
       id="rect10"
       width="2.0250676"
       height="1.1671555"
       x="9.450757"
       y="12.966305"
       ry="0.58357775"
       rx="0.13388878"
       transform="matrix(0.94278466,0.33340228,-0.17458011,0.98464297,0,0)" /><path
       id="path8"
       style="fill:#ffffff;fill-opacity:1;stroke:#282828;stroke-width:0.624991;stroke-miterlimit:4;stroke-dasharray:none;stroke-opacity:1"
       d="m 9.5334281,19.351803 -0.2290592,4.743313 1.8915691,-0.839869 1.344414,1.155884 1.311262,0.01407 1.073886,-1.116765 1.797982,1.02061 -0.04917,-4.977247 z"
       sodipodi:nodetypes="ccccccccc" /><ellipse
       style="fill:#310066;fill-opacity:1;stroke:none;stroke-width:0.228669;stroke-miterlimit:4;stroke-dasharray:none;stroke-opacity:1"
       id="ellipse49"
       cx="13.028001"
       cy="12.450456"
       rx="2.0141399"
       ry="1.3630962" /><path
       id="rect7"
       style="fill:#5500b0;fill-opacity:1;stroke:#2f005f;stroke-width:0.869;stroke-linecap:round;stroke-dasharray:none;stroke-opacity:1"
       d="m 17.626557,0.49600356 c -0.347073,0.008075 -0.709351,-0.0141745 -1.00459,0.25373162 C 16.378106,0.9710196 16.101358,1.1857255 16.027689,1.6747432 15.184019,1.247848 14.247272,1.0250493 13.296589,1.0251701 12.303111,1.0250177 11.325551,1.2682972 10.453868,1.7326204 10.374012,1.2704098 10.149803,1.0048958 9.8678566,0.8582552 9.6175865,0.72808886 9.3523137,0.65793167 9.0510057,0.73191506 8.412281,0.888748 7.5761989,1.3640036 7.1698305,2.680883 L 5.1255108,9.3058016 C 4.7191423,10.62268 4.9018465,11.82663 5.534788,12.005377 l 0.8216554,0.232028 c 0.6329416,0.178747 1.4694862,-0.737259 1.8758545,-2.054138 l 0.082166,-0.2661328 c 0.5450483,0.8255318 1.2868034,1.4877828 2.1441851,1.9436418 0.857381,0.455859 1.830388,0.705326 2.83794,0.705291 1.984193,1.69e-4 3.836687,-0.967497 4.934582,-2.5776196 l 0.02636,0.0863 c 0.406368,1.316879 1.242912,2.232885 1.875854,2.054138 l 0.822172,-0.232027 c 0.632942,-0.178748 0.815129,-1.382697 0.40876,-2.6995767 L 19.319994,2.5723623 C 18.951723,1.3789404 18.229855,0.48196723 17.626557,0.49600356 Z"
       sodipodi:nodetypes="sscccssccccccscccccccs" /><ellipse
       style="fill:#9f45ff;fill-opacity:1;stroke:none;stroke-width:0.915377;stroke-dasharray:none;stroke-opacity:1"
       id="ellipse8"
       cx="5.9143491"
       cy="13.197557"
       rx="3.3188555"
       ry="4.4286542"
       transform="matrix(0.75276069,-0.65829427,0.72166593,0.69224149,0,0)" /><path
       id="path12"
       style="fill:#ffffff;fill-opacity:1;stroke:#2f005f;stroke-width:0.644;stroke-miterlimit:4;stroke-dasharray:none;stroke-opacity:1"
       d="m 9.0940727,5.0584362 c -0.238288,0.4372609 -0.3985684,1.1416073 -0.3985745,1.6668533 1.062e-4,1.4712812 0.9767615,2.6639266 2.1814988,2.6639438 1.20474,-1.74e-5 2.181395,-1.1926626 2.181501,-2.6639438 -6e-6,-0.525246 -0.127143,-1.170878 -0.365432,-1.6081391 -1.10749,-0.3443673 -2.326234,-0.3129823 -3.5989933,-0.058714 z"
       sodipodi:nodetypes="cccccc" /><ellipse
       style="fill:#281512;fill-opacity:1;stroke:none;stroke-width:0.644;stroke-dasharray:none"
       id="ellipse31"
       cx="10.876182"
       cy="7.1959538"
       rx="1.6044627"
       ry="1.715539" /><path
       id="path36"
       style="fill:#1b0e0c;fill-opacity:1;stroke:none;stroke-width:0.644;stroke-dasharray:none"
       d="M 9.9257512,5.8137307 A 1.6044626,1.7155389 0 0 0 9.2719849,7.1961396 1.6044626,1.7155389 0 0 0 10.87655,8.9115935 1.6044626,1.7155389 0 0 0 12.228863,8.1187755 1.6044626,1.7155389 0 0 1 11.27881,8.451821 1.6044626,1.7155389 0 0 1 9.6742461,6.7363669 1.6044626,1.7155389 0 0 1 9.9257512,5.8137307 Z" /><ellipse
       style="fill:#ffffff;fill-opacity:1;stroke:none;stroke-width:0.644;stroke-dasharray:none"
       id="ellipse36"
       cx="11.056643"
       cy="6.0615931"
       rx="0.62076342"
       ry="0.78785002" /><path
       id="path2"
       style="fill:#ffffff;fill-opacity:1;stroke:#2f005f;stroke-width:0.644;stroke-miterlimit:4;stroke-dasharray:none;stroke-opacity:1"
       d="m 14.176834,4.9997862 c -0.238288,0.437261 -0.398569,1.1416074 -0.398575,1.6668533 1.06e-4,1.4712813 0.976762,2.6639266 2.181499,2.6639439 1.20474,-1.75e-5 2.181395,-1.1926626 2.181501,-2.6639439 -6e-6,-0.5252459 -0.127143,-1.170878 -0.365432,-1.608139 -1.10749,-0.3443673 -2.326234,-0.3129823 -3.598993,-0.058714 z"
       sodipodi:nodetypes="cccccc" /><ellipse
       style="fill:#281512;fill-opacity:1;stroke:none;stroke-width:0.644;stroke-dasharray:none"
       id="ellipse2"
       cx="15.958942"
       cy="7.1373038"
       rx="1.6044627"
       ry="1.715539" /><path
       id="path3"
       style="fill:#1b0e0c;fill-opacity:1;stroke:none;stroke-width:0.644;stroke-dasharray:none"
       d="m 15.008512,5.7550808 a 1.6044626,1.7155389 0 0 0 -0.653766,1.3824088 1.6044626,1.7155389 0 0 0 1.604565,1.715454 1.6044626,1.7155389 0 0 0 1.352313,-0.792818 1.6044626,1.7155389 0 0 1 -0.950053,0.3330454 1.6044626,1.7155389 0 0 1 -1.604564,-1.715454 1.6044626,1.7155389 0 0 1 0.251505,-0.9226362 z" /><ellipse
       style="fill:#ffffff;fill-opacity:1;stroke:none;stroke-width:0.644;stroke-dasharray:none"
       id="ellipse5"
       cx="16.139404"
       cy="6.002943"
       rx="0.62076342"
       ry="0.78785002" /><path
       id="rect9"
       style="fill:#fe54ff;fill-opacity:1;stroke:#2f005f;stroke-width:0.322;stroke-linecap:round;stroke-dasharray:none;stroke-opacity:1"
       d="M 7.7639068,4.9476595 C 7.4476325,4.9422574 7.1609296,5.1548439 7.0538726,5.5124829 L 5.6487904,10.206769 c -0.1409776,0.470956 0.084668,1.009622 0.5059123,1.208195 0.4212448,0.198574 0.8739475,-0.02049 1.0149251,-0.491443 L 7.8393544,8.6859326 C 7.5505939,7.578328 7.4426918,6.1454973 7.7639068,4.9476595 Z" /><path
       style="fill:none;fill-opacity:1;stroke:#2f005f;stroke-width:0.7;stroke-linecap:round;stroke-dasharray:none;stroke-opacity:1"
       d="M 8.3828282,9.9461594 C 7.5390103,8.6698894 6.9170712,4.7845353 8.6823221,3.177013"
       id="path7"
       sodipodi:nodetypes="cc" /><path
       id="path11"
       style="fill:#fe54ff;fill-opacity:1;stroke:#2f005f;stroke-width:0.272509;stroke-linecap:round;stroke-dasharray:none;stroke-opacity:1"
       d="m 18.962415,5.3033017 c 0.254182,-0.00482 0.484598,0.1846415 0.570637,0.5033664 l 1.12923,4.1835073 c 0.113301,0.4197126 -0.06805,0.8997676 -0.406589,1.0767336 -0.338544,0.176968 -0.702371,-0.01826 -0.815671,-0.43797 L 18.901779,8.6348195 c 0.232071,-0.987088 0.318788,-2.2640147 0.06064,-3.3315178 z" /><path
       style="fill:none;fill-opacity:1;stroke:#2f005f;stroke-width:0.7;stroke-linecap:round;stroke-dasharray:none;stroke-opacity:1"
       d="M 18.339579,9.7831077 C 19.183397,8.5068376 19.805336,4.6214835 18.040085,3.0139612"
       id="path9"
       sodipodi:nodetypes="cc" /><path
       style="fill:none;fill-opacity:1;stroke:#2f005f;stroke-width:0.562;stroke-dasharray:none;stroke-opacity:1;stroke-linecap:round"
       d="m 9.2919869,13.482236 c 0,0 0.137394,1.406866 0.7640551,1.827677 0.477949,0.320948 2.434418,0.208677 2.434418,0.208677"
       id="path23"
       sodipodi:nodetypes="csc" /><g
       id="g29"
       transform="matrix(0.30891125,0,0,-0.30133084,-0.23919217,28.432738)"
       style="fill:#2f005f;fill-opacity:1"><ellipse
         style="fill:#2f005f;fill-opacity:1;stroke:none;stroke-width:1.6332;stroke-dasharray:none;stroke-opacity:1"
         id="path28"
         cx="35.288403"
         cy="41.778561"
         rx="1.6525621"
         ry="1.2682455" /><ellipse
         style="fill:#2f005f;fill-opacity:1;stroke:none;stroke-width:1.24266;stroke-dasharray:none;stroke-opacity:1"
         id="ellipse28"
         cx="35.326832"
         cy="41.804771"
         rx="1.1913821"
         ry="1.0184395" /><ellipse
         style="fill:#2f005f;fill-opacity:1;stroke:none;stroke-width:0.946814;stroke-dasharray:none;stroke-opacity:1"
         id="ellipse29"
         cx="35.04314"
         cy="41.491093"
         rx="0.87090665"
         ry="0.80879658" /></g><path
       style="fill:none;fill-opacity:1;stroke:#2f005f;stroke-width:0.562;stroke-dasharray:none;stroke-opacity:1;stroke-linecap:round"
       d="m 16.65661,13.536587 c 0,0 -0.137394,1.406866 -0.764055,1.827677 -0.477949,0.320948 -2.434417,0.208677 -2.434417,0.208677"
       id="path14"
       sodipodi:nodetypes="csc" /><g
       id="g16"
       transform="matrix(-0.30891125,0,0,-0.30133084,26.303084,28.487089)"
       style="fill:#2f005f;fill-opacity:1"><ellipse
         style="fill:#2f005f;fill-opacity:1;stroke:none;stroke-width:1.6332;stroke-dasharray:none;stroke-opacity:1"
         id="ellipse14"
         cx="35.288403"
         cy="41.778561"
         rx="1.6525621"
         ry="1.2682455" /><ellipse
         style="fill:#2f005f;fill-opacity:1;stroke:none;stroke-width:1.24266;stroke-dasharray:none;stroke-opacity:1"
         id="ellipse15"
         cx="35.326832"
         cy="41.804771"
         rx="1.1913821"
         ry="1.0184395" /><ellipse
         style="fill:#2f005f;fill-opacity:1;stroke:none;stroke-width:0.946814;stroke-dasharray:none;stroke-opacity:1"
         id="ellipse16"
         cx="35.04314"
         cy="41.491093"
         rx="0.87090665"
         ry="0.80879658" /></g><rect
       style="fill:#000000;fill-opacity:0.788099;stroke:none;stroke-width:0.444399;stroke-linecap:round;stroke-linejoin:round;stroke-dasharray:none;stroke-opacity:1"
       id="rect16"
       width="2.0476854"
       height="1.1723509"
       x="5.1659203"
       y="-20.903076"
       ry="0.58617544"
       rx="0.13538416"
       transform="matrix(0.99537206,-0.09609611,-0.05308674,-0.9985899,0,0)" /><rect
       style="fill:#000000;fill-opacity:0.788099;stroke:none;stroke-width:0.434653;stroke-linecap:round;stroke-linejoin:round;stroke-dasharray:none;stroke-opacity:1"
       id="rect17"
       width="2.0812535"
       height="1.103407"
       x="-16.075092"
       y="20.789782"
       ry="0.55170351"
       rx="0.13760352"
       transform="matrix(-0.95213055,0.3056917,0.19167131,0.98145917,0,0)" /><rect
       style="fill:#ffffff;fill-opacity:1;stroke:#282828;stroke-width:0.5861;stroke-linecap:round;stroke-dasharray:none;stroke-opacity:1"
       id="rect18"
       width="7.2967033"
       height="1.1092038"
       x="9.4739676"
       y="18.888245"
       ry="0.55460191" /><path
       style="fill:#b4adbf;fill-opacity:1;stroke:none;stroke-width:0.562759;stroke-linecap:round;stroke-dasharray:none;stroke-opacity:1"
       d="m 12.401728,20.387412 3.939965,-0.07024 0.0185,3.354129 -1.516794,-0.807801 -1.109849,1.123897 z"
       id="path18" /></g></svg>
