<?xml version="1.0" encoding="UTF-8" standalone="no"?>
<!-- Created with Inkscape (http://www.inkscape.org/) -->

<svg
   width="100"
   height="100"
   viewBox="0 0 26.458333 26.458334"
   version="1.1"
   id="svg5"
   inkscape:version="1.4.2 (ebf0e940d0, 2025-05-08)"
   sodipodi:docname="guarda.svg"
   xml:space="preserve"
   xmlns:inkscape="http://www.inkscape.org/namespaces/inkscape"
   xmlns:sodipodi="http://sodipodi.sourceforge.net/DTD/sodipodi-0.dtd"
   xmlns="http://www.w3.org/2000/svg"
   xmlns:svg="http://www.w3.org/2000/svg"><sodipodi:namedview
     id="namedview7"
     pagecolor="#505050"
     bordercolor="#ffffff"
     borderopacity="1"
     inkscape:pageshadow="0"
     inkscape:pageopacity="0"
     inkscape:pagecheckerboard="1"
     inkscape:document-units="mm"
     showgrid="false"
     units="px"
     width="100px"
     inkscape:snap-global="false"
     inkscape:zoom="3.4422559"
     inkscape:cx="98.336675"
     inkscape:cy="52.436543"
     inkscape:window-width="1366"
     inkscape:window-height="697"
     inkscape:window-x="0"
     inkscape:window-y="0"
     inkscape:window-maximized="1"
     inkscape:current-layer="layer1"
     inkscape:showpageshadow="0"
     inkscape:deskcolor="#505050" /><defs
     id="defs2"><linearGradient
       id="linearGradient13895"
       inkscape:swatch="solid"><stop
         style="stop-color:#000000;stop-opacity:1;"
         offset="0"
         id="stop13893" /></linearGradient><filter
       style="color-interpolation-filters:sRGB;"
       inkscape:label="Clean Edges"
       id="filter14269"
       x="-0.31154084"
       y="-0.29580634"
       width="1.6230817"
       height="1.5916127"><feGaussianBlur
         stdDeviation="0.204612"
         result="blur"
         id="feGaussianBlur14263" /><feComposite
         in="SourceGraphic"
         in2="blur"
         operator="in"
         result="composite1"
         id="feComposite14265" /><feComposite
         in="composite1"
         in2="composite1"
         operator="in"
         result="composite2"
         id="feComposite14267" /></filter><filter
       style="color-interpolation-filters:sRGB;"
       inkscape:label="Clean Edges"
       id="filter14269-3"
       x="-0.31154084"
       y="-0.29580634"
       width="1.6230817"
       height="1.5916127"><feGaussianBlur
         stdDeviation="0.204612"
         result="blur"
         id="feGaussianBlur14263-5" /><feComposite
         in="SourceGraphic"
         in2="blur"
         operator="in"
         result="composite1"
         id="feComposite14265-6" /><feComposite
         in="composite1"
         in2="composite1"
         operator="in"
         result="composite2"
         id="feComposite14267-2" /></filter></defs><g
     inkscape:label="Camada 1"
     inkscape:groupmode="layer"
     id="layer1"><rect
       style="fill:#888800;fill-opacity:1;stroke:#362c00;stroke-width:0.67374;stroke-linecap:round;stroke-linejoin:round;stroke-dasharray:none;stroke-opacity:1"
       id="rect15"
       width="10.837049"
       height="1.6479353"
       x="5.0338125"
       y="1.7584375"
       ry="0.82396764"
       rx="0.71649921" /><rect
       style="fill:#0053ce;fill-opacity:1;stroke:#110077;stroke-width:0.547255;stroke-opacity:1"
       id="rect46"
       width="2.9710424"
       height="6.5520492"
       x="7.2798419"
       y="19.447174"
       ry="1.1529039" /><rect
       style="fill:#0053ce;fill-opacity:1;stroke:#110077;stroke-width:0.55612;stroke-opacity:1"
       id="rect47"
       width="3.1044619"
       height="6.4752464"
       x="11.03109"
       y="19.469433"
       ry="1.1393898" /><path
       id="path47"
       style="fill:#002766;stroke-width:0.449457"
       d="m 8.370883,20.350518 h 0.7333606 c 0.49346,0 0.890723,0.410141 0.890723,0.919599 v 3.386959 c 0,0.509458 -0.354797,0.555096 -0.838079,0.658037 L 8.311658,25.495149 C 7.828376,25.59809 7.48016,25.166534 7.48016,24.657076 v -3.386959 c 0,-0.509458 0.397262,-0.919599 0.890723,-0.919599 z"
       sodipodi:nodetypes="sssssssss" /><path
       id="path48"
       style="fill:#002766;stroke-width:0.455488"
       d="m 12.199488,20.432044 h 0.753173 c 0.506792,0 0.914786,0.410141 0.914786,0.919599 v 3.386959 c 0,0.509458 -0.364381,0.555096 -0.86072,0.658037 l -0.868064,0.180036 c -0.496338,0.102941 -0.853961,-0.328615 -0.853961,-0.838073 v -3.386959 c 0,-0.509458 0.407994,-0.919599 0.914786,-0.919599 z"
       sodipodi:nodetypes="sssssssss" /><path
       id="rect9714"
       style="fill:#0053ce;fill-opacity:1;stroke:#080039;stroke-width:0.766134;stroke-miterlimit:4;stroke-dasharray:none;stroke-opacity:1"
       d="m 6.5044379,12.254104 c -0.3870497,0.09432 -0.6994405,0.325535 -0.788394,0.621668 l -1.2252824,4.079189 c -0.025759,0.167457 -0.06319,0.324158 -0.090151,0.491529 l 0.066813,4.149609 c 0.00706,0.43808 0.5165435,0.714082 1.1418267,0.619342 l 0.4731803,-0.071 c 0.6252848,-0.09473 1.1227571,-0.524348 1.1156959,-0.96243 l -0.061538,-3.815952 c 0.021378,-0.03944 0.038705,-0.07997 0.051416,-0.122276 l 1.2259531,-4.080105 c 0.1293851,-0.430735 -0.2642531,-0.830546 -0.881923,-0.89653 l -0.4675598,-0.0502 c -0.1930253,-0.02062 -0.3840884,-0.0056 -0.560025,0.03718 z"
       sodipodi:nodetypes="ccccccccccccccc" /><rect
       style="fill:#888800;fill-opacity:1;stroke:#362c00;stroke-width:0.578919;stroke-linecap:round;stroke-linejoin:round;stroke-dasharray:none;stroke-opacity:1"
       id="rect10"
       width="3.668766"
       height="1.1104254"
       x="3.7792475"
       y="19.323519"
       ry="0.55521268"
       rx="0.24256304" /><rect
       style="fill:#2f2f2f;fill-opacity:1;stroke:#100f0a;stroke-width:0.639753;stroke-linecap:round;stroke-linejoin:round;stroke-dasharray:none;stroke-opacity:1"
       id="rect8"
       width="3.4497409"
       height="5.7593126"
       x="7.0749288"
       y="10.257631"
       transform="matrix(0.97682242,0.21405131,-0.2096495,0.9777766,0,0)"
       ry="1.3457601" /><path
       id="path11551"
       style="fill:#0053ce;fill-opacity:1;stroke:#090042;stroke-width:0.728343;stroke-miterlimit:4;stroke-dasharray:none;stroke-opacity:1"
       d="m 22.248116,13.654582 c -0.118741,0.407513 -0.358479,0.727999 -0.640029,0.806881 l -3.878288,1.08655 c -0.06572,0.01842 -0.129911,0.02251 -0.190914,0.01373 -0.08986,0.04228 -0.181458,0.06287 -0.271725,0.05594 l -3.838337,-0.294472 c -0.405221,-0.03109 -0.619405,-0.588985 -0.480749,-1.250358 l 0.104285,-0.500531 c 0.138652,-0.661374 0.577097,-1.168506 0.982318,-1.13741 l 3.5297,0.27087 c 0.03827,-0.02066 0.07722,-0.03694 0.117463,-0.0482 l 3.879185,-1.087217 c 0.409523,-0.114732 0.74783,0.326334 0.758665,0.988245 l 0.0084,0.501061 c 0.0034,0.206848 -0.02602,0.409687 -0.08002,0.594914 z" /><path
       id="path8"
       style="fill:#2f2f2f;fill-opacity:1;stroke:#100f0a;stroke-width:0.717688;stroke-miterlimit:4;stroke-dasharray:none;stroke-opacity:1"
       d="m 7.0241653,17.658428 -0.2008051,5.697129 2.1342523,-0.57026 1.3149825,1.97613 1.563447,-0.05455 1.131221,-1.830944 1.630834,1.013 -0.0518,-6.230509 z"
       sodipodi:nodetypes="ccccccccc" /><rect
       style="fill:#2f2f2f;fill-opacity:1;stroke:#100f0a;stroke-width:0.593053;stroke-linecap:round;stroke-linejoin:round;stroke-dasharray:none;stroke-opacity:1"
       id="rect9"
       width="3.4959421"
       height="4.8837752"
       x="12.204216"
       y="-18.150549"
       transform="matrix(-0.0117854,0.99993055,-0.99993444,-0.01145017,0,0)"
       ry="1.1411761" /><path
       id="rect9738"
       style="fill:#2f2f2f;fill-opacity:1;stroke:#100f0a;stroke-width:0.654777;stroke-miterlimit:4;stroke-dasharray:none;stroke-opacity:1"
       d="m 7.1706217,12.460738 -0.3085083,6.507613 c 3.4503566,2.424939 5.7615996,1.432537 7.9261316,0 l -0.285771,-6.507613 z"
       sodipodi:nodetypes="ccccc" /><ellipse
       style="fill:#0053ce;fill-opacity:1;stroke:#090042;stroke-width:0.509;stroke-miterlimit:4;stroke-dasharray:none;stroke-opacity:1"
       id="path11105"
       cx="10.812459"
       cy="12.620301"
       rx="2.3867757"
       ry="2.1036232" /><ellipse
       style="fill:#002766;fill-opacity:1;stroke:none;stroke-width:0.2544;stroke-miterlimit:4;stroke-dasharray:none;stroke-opacity:1"
       id="ellipse49"
       cx="10.786791"
       cy="12.450456"
       rx="2.1500163"
       ry="1.5804987" /><rect
       style="fill:#888800;fill-opacity:1;stroke:#362c00;stroke-width:0.703601;stroke-linecap:round;stroke-linejoin:round;stroke-dasharray:none;stroke-opacity:1"
       id="rect12"
       width="3.8663249"
       height="1.5564246"
       x="11.885477"
       y="-20.425953"
       ry="0.77821231"
       rx="0.2556248"
       transform="rotate(90)" /><rect
       style="fill:#2f2f2f;fill-opacity:1;stroke:#100f0a;stroke-width:0.759001;stroke-miterlimit:4;stroke-dasharray:none;stroke-opacity:1"
       id="rect11"
       width="2.0668762"
       height="18.324255"
       x="20.769812"
       y="4.0129623"
       ry="0.57729715"
       transform="matrix(0.99424081,0.10716908,-0.10506743,0.9944651,0,0)" /><g
       id="g44"
       transform="matrix(-1.8049718,-0.26838331,-0.30573554,2.3351929,74.298914,13.444504)"
       style="fill:#2f2f2f;fill-opacity:1;stroke:#100f0a;stroke-width:0.255479;stroke-dasharray:none;stroke-opacity:1"><rect
         style="fill:#2f2f2f;fill-opacity:1;stroke:#100f0a;stroke-width:0.255479;stroke-miterlimit:4;stroke-dasharray:none;stroke-opacity:1"
         id="rect43"
         width="2.418293"
         height="0.53468895"
         x="27.855507"
         y="7.3858442"
         ry="0.25027269" /><rect
         style="fill:#2f2f2f;fill-opacity:1;stroke:#100f0a;stroke-width:0.255479;stroke-miterlimit:4;stroke-dasharray:none;stroke-opacity:1"
         id="rect44"
         width="2.895308"
         height="0.70425063"
         x="27.631411"
         y="7.8246946"
         ry="0.3296397" /></g><rect
       style="fill:#696969;fill-opacity:1;stroke:none;stroke-width:0.464031;stroke-linecap:round;stroke-linejoin:round;stroke-dasharray:none;stroke-opacity:1"
       id="rect2"
       width="0.76974922"
       height="14.892518"
       x="21.051149"
       y="4.6041217"
       transform="matrix(0.99024227,0.13935653,-0.09034215,0.99591079,0,0)" /><path
       id="path1"
       style="fill:#2f2f2f;stroke:#100f0a;stroke-width:0.611981;stroke-linecap:round;stroke-linejoin:round"
       inkscape:transform-center-x="0.14325572"
       inkscape:transform-center-y="-0.95172092"
       transform="matrix(0.84229208,0.01190304,-0.01783467,1.2620311,-3.5803666,-3.6699352)"
       d="m 32.978891,9.4367254 -3.224327,-1.527888 -3.269147,0.6650961 3.989424,-5.405241 z"
       sodipodi:nodetypes="ccccc" /><rect
       style="fill:#100f0a;fill-opacity:1;stroke:none;stroke-width:0.772088;stroke-linecap:round;stroke-linejoin:round;stroke-dasharray:none;stroke-opacity:1"
       id="rect3"
       width="2.133261"
       height="1.7528068"
       x="14.923583"
       y="16.848883"
       transform="rotate(-18.207152)" /><rect
       style="fill:#100f0a;fill-opacity:1;stroke:none;stroke-width:0.743105;stroke-linecap:round;stroke-linejoin:round;stroke-dasharray:none;stroke-opacity:1"
       id="rect4"
       width="1.9901214"
       height="1.7404659"
       x="13.746675"
       y="20.702473"
       transform="matrix(0.94224418,-0.33492673,0.29117894,0.95666861,0,0)" /><path
       d="m 22.303677,11.618299 c -0.02779,-9.52e-4 -0.05362,0.0032 -0.07752,0.01292 l -1.456759,0.594279 c -0.382288,0.155903 -1.121078,0.464503 -1.102258,0.89762 l 0.05478,1.254704 c 0.01882,0.433116 0.251076,1.314771 0.654224,1.261421 l 2.095479,-0.276985 c 0.403149,-0.05335 1.050282,-0.823093 1.053682,-1.257288 l 0.0072,-0.910539 c 0.0032,-0.407058 -0.811987,-1.561847 -1.228865,-1.576131 z"
       style="fill:#002766;fill-opacity:1;stroke:#080039;stroke-width:0.682;stroke-opacity:1"
       id="path32" /><path
       d="m 20.57602,12.679998 c 0.01347,-0.01123 0.02779,-0.02048 0.04323,-0.02737 l 0.942415,-0.418516 c 0.247295,-0.109841 0.727908,-0.320116 0.879477,-0.194033 l 0.438939,0.365366 c 0.151565,0.126085 0.364017,0.460123 0.144482,0.606365 l -1.140957,0.76022 c -0.219528,0.146247 -0.826044,0.193702 -0.989017,0.07619 l -0.341852,-0.246364 c -0.152792,-0.110171 -0.177939,-0.751558 0.02328,-0.921794 z"
       style="fill:#0053ce;fill-opacity:1;stroke:none;stroke-width:0.363341"
       id="path33" /><ellipse
       style="fill:#002766;fill-opacity:1;stroke:#080039;stroke-width:0.89;stroke-miterlimit:4;stroke-dasharray:none;stroke-opacity:1"
       id="ellipse3"
       cx="10.679691"
       cy="6.7346692"
       rx="5.9909759"
       ry="5.9534302" /><ellipse
       style="fill:#0053ce;fill-opacity:1;stroke:none;stroke-width:0.30925;stroke-miterlimit:4;stroke-dasharray:none;stroke-opacity:1"
       id="ellipse4"
       cx="10.729134"
       cy="6.4745464"
       rx="5.1499281"
       ry="5.1887231" /><ellipse
       style="fill:#1e78ff;fill-opacity:1;stroke:none;stroke-width:0.915377;stroke-dasharray:none;stroke-opacity:1"
       id="ellipse8"
       cx="4.1098084"
       cy="11.560025"
       rx="3.3188555"
       ry="4.4286542"
       transform="matrix(0.75276069,-0.65829427,0.72166593,0.69224149,0,0)" /><path
       id="path12"
       style="fill:#ffffff;fill-opacity:1;stroke:#002865;stroke-width:0.560863;stroke-miterlimit:4;stroke-dasharray:none;stroke-opacity:1"
       d="M 6.6291144,5.0618118 C 6.4080727,5.5267558 6.2593927,6.2756944 6.2593871,6.8341938 6.2594855,8.398622 7.1654545,9.6667739 8.2829981,9.6667923 9.4005436,9.6667737 10.306513,8.398622 10.306611,6.8341938 10.306605,6.2756945 10.18867,5.5891874 9.9676276,5.1242433 8.9402926,4.758074 7.8097564,4.791446 6.6291144,5.0618118 Z"
       sodipodi:nodetypes="cccccc" /><ellipse
       style="fill:#770000;fill-opacity:1;stroke:none;stroke-width:1.44338"
       id="ellipse31"
       cx="8.2245874"
       cy="7.3059092"
       rx="1.5012131"
       ry="1.5897816" /><path
       id="path36"
       style="fill:#ff2525;fill-opacity:1;stroke:none;stroke-width:1.44338"
       d="M 7.3353188,6.0250096 A 1.5012129,1.5897816 0 0 0 6.7236233,7.3060812 1.5012129,1.5897816 0 0 0 8.2249319,8.8957841 1.5012129,1.5897816 0 0 0 9.4902216,8.1610835 1.5012129,1.5897816 0 0 1 8.6013059,8.4697151 1.5012129,1.5897816 0 0 1 7.0999984,6.8800121 1.5012129,1.5897816 0 0 1 7.3353188,6.0250096 Z" /><ellipse
       style="fill:#ffffff;fill-opacity:1;stroke:none;stroke-width:0.608423"
       id="ellipse36"
       cx="8.3934364"
       cy="6.2547026"
       rx="0.58081633"
       ry="0.73009682" /><path
       id="path42"
       style="fill:#ffffff;fill-opacity:1;stroke:#002865;stroke-width:0.560863;stroke-miterlimit:4;stroke-dasharray:none;stroke-opacity:1"
       d="m 11.401236,4.9701812 c -0.221042,0.464944 -0.369722,1.2138826 -0.369727,1.772382 9.8e-5,1.5644282 0.906067,2.8325801 2.023611,2.8325985 1.117545,-1.86e-5 2.023514,-1.2681703 2.023612,-2.8325985 -6e-6,-0.5584993 -0.117941,-1.2450064 -0.338983,-1.7099505 -1.027335,-0.3661693 -2.157871,-0.3327973 -3.338513,-0.062431 z"
       sodipodi:nodetypes="cccccc" /><ellipse
       style="fill:#770000;fill-opacity:1;stroke:none;stroke-width:1.44338"
       id="ellipse42"
       cx="13.105411"
       cy="7.0368876"
       rx="1.5012131"
       ry="1.5897816" /><path
       id="path43"
       style="fill:#ff2525;fill-opacity:1;stroke:none;stroke-width:1.44338"
       d="m 12.216142,5.7559879 a 1.5012129,1.5897816 0 0 0 -0.611695,1.2810716 1.5012129,1.5897816 0 0 0 1.501309,1.5897029 1.5012129,1.5897816 0 0 0 1.265289,-0.7347006 1.5012129,1.5897816 0 0 1 -0.888915,0.3086316 1.5012129,1.5897816 0 0 1 -1.501308,-1.589703 1.5012129,1.5897816 0 0 1 0.23532,-0.8550025 z" /><ellipse
       style="fill:#ffffff;fill-opacity:1;stroke:none;stroke-width:0.608423"
       id="ellipse43"
       cx="13.178179"
       cy="5.9856811"
       rx="0.58081633"
       ry="0.73009682" /><path
       id="path2"
       style="fill:#696969;stroke-width:0.549;stroke-linecap:round;stroke-linejoin:round"
       inkscape:transform-center-x="0.10176024"
       inkscape:transform-center-y="-0.41373917"
       d="M 21.474723,5.908488 19.57386,6.5886415 21.970934,1.7699022 Z"
       sodipodi:nodetypes="cccc" /><path
       id="rect5"
       style="fill:#100f0a;stroke-width:0.58686;stroke-linecap:round;stroke-linejoin:round"
       d="m 20.177658,6.9025259 h 1.888683 l 0.163052,0.856022 -2.051735,0.1358765 z"
       sodipodi:nodetypes="ccccc" /><rect
       style="fill:#696969;fill-opacity:1;stroke:none;stroke-width:0.47521;stroke-linecap:round;stroke-linejoin:round;stroke-dasharray:none;stroke-opacity:1"
       id="rect6"
       width="3.8180656"
       height="0.56751138"
       x="24.313543"
       y="21.339355"
       ry="0.28375569"
       transform="matrix(0.98761555,0.15689336,-0.31790738,0.94812177,0,0)" /><rect
       style="fill:#696969;fill-opacity:1;stroke:none;stroke-width:0.309266;stroke-linecap:round;stroke-linejoin:round;stroke-dasharray:none;stroke-opacity:1"
       id="rect7"
       width="2.6509712"
       height="0.34618261"
       x="25.488319"
       y="20.923302"
       ry="0.17309131"
       transform="matrix(0.99078223,0.1354643,-0.36301272,0.93178418,0,0)" /><path
       id="path49"
       style="fill:#100f0a;fill-opacity:1;stroke:none;stroke-width:0.411902;stroke-dasharray:none;stroke-opacity:1"
       d="m 10.9777,15.534259 a 1.0280589,1.1206318 85.155092 0 0 -1.084269,1.074845 1.0280589,1.1206318 85.155092 0 0 0.012086,0.123065 1.0280589,1.1206318 85.155092 0 1 0.120235,-0.01085 1.0280589,1.1206318 85.155092 0 1 0.867827,0.331664 1.0280589,1.1206318 85.155092 0 1 0.843052,-0.404253 1.0280589,1.1206318 85.155092 0 1 0.384699,0.04575 1.0280589,1.1206318 85.155092 0 0 0.01081,-0.1805 1.0280589,1.1206318 85.155092 0 0 -1.154533,-0.979861 z m 1.143705,1.160366 a 1.0280589,1.1206318 85.155092 0 1 -0.953208,0.883645 1.0280589,1.1206318 85.155092 0 1 0.01209,0.123064 1.0280589,1.1206318 85.155092 0 1 -0.241125,0.671145 1.0280589,1.1206318 85.155092 0 0 0.868433,0.331636 1.0280589,1.1206318 85.155092 0 0 1.083638,-1.075378 1.0280589,1.1206318 85.155092 0 0 -0.769831,-0.934112 z m -1.182242,1.677857 a 1.0280589,1.1206318 85.155092 0 1 -0.286736,-0.648757 1.0280589,1.1206318 85.155092 0 1 0.01145,-0.179961 1.0280589,1.1206318 85.155092 0 1 -0.7582996,-0.811591 1.0280589,1.1206318 85.155092 0 0 -0.9640384,1.064146 1.0280589,1.1206318 85.155092 0 0 1.155163,0.980396 1.0280589,1.1206318 85.155092 0 0 0.842445,-0.404223 z M 10.66391,17.54375 a 1.0280589,1.1206318 85.155092 0 0 0.384697,0.04573 1.0280589,1.1206318 85.155092 0 0 0.119633,-0.01092 1.0280589,1.1206318 85.155092 0 0 -0.27454,-0.52514 1.0280589,1.1206318 85.155092 0 0 -0.229758,0.49062 z" /><path
       id="path13"
       style="fill:#100f0a;fill-opacity:1;stroke:none;stroke-width:0.411902;stroke-dasharray:none;stroke-opacity:1"
       d="m 10.9777,15.534259 a 1.0280589,1.1206318 85.155092 0 0 -1.084269,1.074845 1.0280589,1.1206318 85.155092 0 0 0.012086,0.123065 1.0280589,1.1206318 85.155092 0 1 0.120235,-0.01085 1.0280589,1.1206318 85.155092 0 1 0.867827,0.331664 1.0280589,1.1206318 85.155092 0 1 0.843052,-0.404253 1.0280589,1.1206318 85.155092 0 1 0.384699,0.04575 1.0280589,1.1206318 85.155092 0 0 0.01081,-0.1805 1.0280589,1.1206318 85.155092 0 0 -1.154533,-0.979861 z m 1.143705,1.160366 a 1.0280589,1.1206318 85.155092 0 1 -0.953208,0.883645 1.0280589,1.1206318 85.155092 0 1 0.01209,0.123064 1.0280589,1.1206318 85.155092 0 1 -0.241125,0.671145 1.0280589,1.1206318 85.155092 0 0 0.868433,0.331636 1.0280589,1.1206318 85.155092 0 0 1.083638,-1.075378 1.0280589,1.1206318 85.155092 0 0 -0.769831,-0.934112 z m -1.182242,1.677857 a 1.0280589,1.1206318 85.155092 0 1 -0.286736,-0.648757 1.0280589,1.1206318 85.155092 0 1 0.01145,-0.179961 1.0280589,1.1206318 85.155092 0 1 -0.7582996,-0.811591 1.0280589,1.1206318 85.155092 0 0 -0.9640384,1.064146 1.0280589,1.1206318 85.155092 0 0 1.155163,0.980396 1.0280589,1.1206318 85.155092 0 0 0.842445,-0.404223 z M 10.66391,17.54375 a 1.0280589,1.1206318 85.155092 0 0 0.384697,0.04573 1.0280589,1.1206318 85.155092 0 0 0.119633,-0.01092 1.0280589,1.1206318 85.155092 0 0 -0.27454,-0.52514 1.0280589,1.1206318 85.155092 0 0 -0.229758,0.49062 z" /><rect
       style="fill:#888800;fill-opacity:1;stroke:#362c00;stroke-width:0.60787;stroke-linecap:round;stroke-linejoin:round;stroke-dasharray:none;stroke-opacity:1"
       id="rect14"
       width="10.90292"
       height="1.3333515"
       x="5.0408883"
       y="2.5407615"
       ry="0.66667575"
       rx="0.72085422" /></g></svg>
