<?xml version="1.0" encoding="UTF-8" standalone="no"?>
<!-- Created with Inkscape (http://www.inkscape.org/) -->

<svg
   width="100"
   height="100"
   viewBox="0 0 26.458333 26.458334"
   version="1.1"
   id="svg5"
   inkscape:version="1.4.2 (ebf0e940d0, 2025-05-08)"
   sodipodi:docname="guardião.svg"
   xml:space="preserve"
   xmlns:inkscape="http://www.inkscape.org/namespaces/inkscape"
   xmlns:sodipodi="http://sodipodi.sourceforge.net/DTD/sodipodi-0.dtd"
   xmlns="http://www.w3.org/2000/svg"
   xmlns:svg="http://www.w3.org/2000/svg"><sodipodi:namedview
     id="namedview7"
     pagecolor="#505050"
     bordercolor="#ffffff"
     borderopacity="1"
     inkscape:pageshadow="0"
     inkscape:pageopacity="0"
     inkscape:pagecheckerboard="1"
     inkscape:document-units="mm"
     showgrid="false"
     units="px"
     width="100px"
     inkscape:snap-global="false"
     inkscape:zoom="3.4422559"
     inkscape:cx="63.185308"
     inkscape:cy="68.995452"
     inkscape:window-width="1366"
     inkscape:window-height="697"
     inkscape:window-x="0"
     inkscape:window-y="0"
     inkscape:window-maximized="1"
     inkscape:current-layer="layer1"
     inkscape:showpageshadow="0"
     inkscape:deskcolor="#505050" /><defs
     id="defs2"><linearGradient
       id="linearGradient13895"
       inkscape:swatch="solid"><stop
         style="stop-color:#000000;stop-opacity:1;"
         offset="0"
         id="stop13893" /></linearGradient><filter
       style="color-interpolation-filters:sRGB;"
       inkscape:label="Clean Edges"
       id="filter14269"
       x="-0.31154084"
       y="-0.29580634"
       width="1.6230817"
       height="1.5916127"><feGaussianBlur
         stdDeviation="0.204612"
         result="blur"
         id="feGaussianBlur14263" /><feComposite
         in="SourceGraphic"
         in2="blur"
         operator="in"
         result="composite1"
         id="feComposite14265" /><feComposite
         in="composite1"
         in2="composite1"
         operator="in"
         result="composite2"
         id="feComposite14267" /></filter><filter
       style="color-interpolation-filters:sRGB;"
       inkscape:label="Clean Edges"
       id="filter14269-3"
       x="-0.31154084"
       y="-0.29580634"
       width="1.6230817"
       height="1.5916127"><feGaussianBlur
         stdDeviation="0.204612"
         result="blur"
         id="feGaussianBlur14263-5" /><feComposite
         in="SourceGraphic"
         in2="blur"
         operator="in"
         result="composite1"
         id="feComposite14265-6" /><feComposite
         in="composite1"
         in2="composite1"
         operator="in"
         result="composite2"
         id="feComposite14267-2" /></filter><filter
       style="color-interpolation-filters:sRGB;"
       inkscape:label="Clean Edges"
       id="filter14269-6"
       x="-0.31154084"
       y="-0.29580634"
       width="1.6230817"
       height="1.5916127"><feGaussianBlur
         stdDeviation="0.204612"
         result="blur"
         id="feGaussianBlur14263-7" /><feComposite
         in="SourceGraphic"
         in2="blur"
         operator="in"
         result="composite1"
         id="feComposite14265-5" /><feComposite
         in="composite1"
         in2="composite1"
         operator="in"
         result="composite2"
         id="feComposite14267-3" /></filter><inkscape:path-effect
       effect="fillet_chamfer"
       id="path-effect68"
       is_visible="true"
       lpeversion="1"
       nodesatellites_param="F,0,0,1,0,0,0,1 @ F,0,0,1,0,0,0,1 @ F,0,0,1,0,0,0,1 @ F,0,0,1,0,0,0,1 @ F,0,0,1,0,0,0,1 @ F,0,0,1,0,0,0,1 @ F,0,0,1,0,0,0,1 @ F,0,0,1,0,0,0,1 @ F,0,0,1,0,0,0,1"
       radius="0"
       unit="px"
       method="auto"
       mode="F"
       chamfer_steps="1"
       flexible="false"
       use_knot_distance="true"
       apply_no_radius="true"
       apply_with_radius="true"
       only_selected="false"
       hide_knots="false" /><inkscape:path-effect
       effect="fillet_chamfer"
       id="path-effect66"
       is_visible="true"
       lpeversion="1"
       nodesatellites_param="F,0,0,1,0,0,0,1 @ F,0,0,1,0,0.44929322,0,1 @ F,0,0,1,0,0.44929322,0,1 @ F,0,0,1,0,0,0,1 @ F,0,0,1,0,0,0,1 @ F,0,0,1,0,0,0,1 @ F,0,0,1,0,0,0,1 @ F,0,0,1,0,0,0,1 @ F,0,0,1,0,0,0,1 @ F,0,0,1,0,0,0,1"
       radius="0"
       unit="px"
       method="auto"
       mode="F"
       chamfer_steps="1"
       flexible="false"
       use_knot_distance="true"
       apply_no_radius="true"
       apply_with_radius="true"
       only_selected="false"
       hide_knots="false" /><inkscape:path-effect
       effect="fillet_chamfer"
       id="path-effect68-7"
       is_visible="true"
       lpeversion="1"
       nodesatellites_param="F,0,0,1,0,0,0,1 @ F,0,0,1,0,0,0,1 @ F,0,0,1,0,0,0,1 @ F,0,0,1,0,0,0,1 @ F,0,0,1,0,0,0,1 @ F,0,0,1,0,0,0,1 @ F,0,0,1,0,0,0,1 @ F,0,0,1,0,0,0,1 @ F,0,0,1,0,0,0,1"
       radius="0"
       unit="px"
       method="auto"
       mode="F"
       chamfer_steps="1"
       flexible="false"
       use_knot_distance="true"
       apply_no_radius="true"
       apply_with_radius="true"
       only_selected="false"
       hide_knots="false" /><inkscape:path-effect
       effect="fillet_chamfer"
       id="path-effect66-5"
       is_visible="true"
       lpeversion="1"
       nodesatellites_param="F,0,0,1,0,0,0,1 @ F,0,0,1,0,0.44929322,0,1 @ F,0,0,1,0,0.44929322,0,1 @ F,0,0,1,0,0,0,1 @ F,0,0,1,0,0,0,1 @ F,0,0,1,0,0,0,1 @ F,0,0,1,0,0,0,1 @ F,0,0,1,0,0,0,1 @ F,0,0,1,0,0,0,1 @ F,0,0,1,0,0,0,1"
       radius="0"
       unit="px"
       method="auto"
       mode="F"
       chamfer_steps="1"
       flexible="false"
       use_knot_distance="true"
       apply_no_radius="true"
       apply_with_radius="true"
       only_selected="false"
       hide_knots="false" /><inkscape:path-effect
       effect="fillet_chamfer"
       id="path-effect68-3"
       is_visible="true"
       lpeversion="1"
       nodesatellites_param="F,0,0,1,0,0,0,1 @ F,0,0,1,0,0,0,1 @ F,0,0,1,0,0,0,1 @ F,0,0,1,0,0,0,1 @ F,0,0,1,0,0,0,1 @ F,0,0,1,0,0,0,1 @ F,0,0,1,0,0,0,1 @ F,0,0,1,0,0,0,1 @ F,0,0,1,0,0,0,1"
       radius="0"
       unit="px"
       method="auto"
       mode="F"
       chamfer_steps="1"
       flexible="false"
       use_knot_distance="true"
       apply_no_radius="true"
       apply_with_radius="true"
       only_selected="false"
       hide_knots="false" /><inkscape:path-effect
       effect="fillet_chamfer"
       id="path-effect66-6"
       is_visible="true"
       lpeversion="1"
       nodesatellites_param="F,0,0,1,0,0,0,1 @ F,0,0,1,0,0.44929322,0,1 @ F,0,0,1,0,0.44929322,0,1 @ F,0,0,1,0,0,0,1 @ F,0,0,1,0,0,0,1 @ F,0,0,1,0,0,0,1 @ F,0,0,1,0,0,0,1 @ F,0,0,1,0,0,0,1 @ F,0,0,1,0,0,0,1 @ F,0,0,1,0,0,0,1"
       radius="0"
       unit="px"
       method="auto"
       mode="F"
       chamfer_steps="1"
       flexible="false"
       use_knot_distance="true"
       apply_no_radius="true"
       apply_with_radius="true"
       only_selected="false"
       hide_knots="false" /><filter
       style="color-interpolation-filters:sRGB;"
       inkscape:label="Clean Edges"
       id="filter14269-5"
       x="-0.31154084"
       y="-0.29580634"
       width="1.6230817"
       height="1.5916127"><feGaussianBlur
         stdDeviation="0.204612"
         result="blur"
         id="feGaussianBlur14263-6" /><feComposite
         in="SourceGraphic"
         in2="blur"
         operator="in"
         result="composite1"
         id="feComposite14265-2" /><feComposite
         in="composite1"
         in2="composite1"
         operator="in"
         result="composite2"
         id="feComposite14267-9" /></filter></defs><g
     inkscape:label="Camada 1"
     inkscape:groupmode="layer"
     id="layer1"><rect
       style="fill:#6a3327;fill-opacity:1;stroke:#21100c;stroke-width:0.547255;stroke-opacity:1"
       id="rect46"
       width="2.9710424"
       height="6.5520492"
       x="7.2798419"
       y="19.447174"
       ry="1.1529039" /><rect
       style="fill:#6a3327;fill-opacity:1;stroke:#21100c;stroke-width:0.55612;stroke-opacity:1"
       id="rect47"
       width="3.1044619"
       height="6.4752464"
       x="11.03109"
       y="19.469433"
       ry="1.1393898" /><path
       id="path47"
       style="fill:#442119;stroke-width:0.449457;fill-opacity:1"
       d="m 8.370883,20.350518 h 0.7333606 c 0.49346,0 0.890723,0.410141 0.890723,0.919599 v 3.386959 c 0,0.509458 -0.354797,0.555096 -0.838079,0.658037 L 8.311658,25.495149 C 7.828376,25.59809 7.48016,25.166534 7.48016,24.657076 v -3.386959 c 0,-0.509458 0.397262,-0.919599 0.890723,-0.919599 z"
       sodipodi:nodetypes="sssssssss" /><path
       id="path48"
       style="fill:#442119;stroke-width:0.455488;fill-opacity:1"
       d="m 12.199488,20.432044 h 0.753173 c 0.506792,0 0.914786,0.410141 0.914786,0.919599 v 3.386959 c 0,0.509458 -0.364381,0.555096 -0.86072,0.658037 l -0.868064,0.180036 c -0.496338,0.102941 -0.853961,-0.328615 -0.853961,-0.838073 v -3.386959 c 0,-0.509458 0.407994,-0.919599 0.914786,-0.919599 z"
       sodipodi:nodetypes="sssssssss" /><path
       id="rect9714"
       style="fill:#6a3327;fill-opacity:1;stroke:#21100c;stroke-width:0.766134;stroke-miterlimit:4;stroke-dasharray:none;stroke-opacity:1"
       d="m 6.5044379,12.254104 c -0.3870497,0.09432 -0.6994405,0.325535 -0.788394,0.621668 l -1.2252824,4.079189 c -0.025759,0.167457 -0.06319,0.324158 -0.090151,0.491529 l 0.066813,4.149609 c 0.00706,0.43808 0.5165435,0.714082 1.1418267,0.619342 l 0.4731803,-0.071 c 0.6252848,-0.09473 1.1227571,-0.524348 1.1156959,-0.96243 l -0.061538,-3.815952 c 0.021378,-0.03944 0.038705,-0.07997 0.051416,-0.122276 l 1.2259531,-4.080105 c 0.1293851,-0.430735 -0.2642531,-0.830546 -0.881923,-0.89653 l -0.4675598,-0.0502 c -0.1930253,-0.02062 -0.3840884,-0.0056 -0.560025,0.03718 z"
       sodipodi:nodetypes="ccccccccccccccc" /><path
       id="path11551"
       style="fill:#6a3327;fill-opacity:1;stroke:#21100c;stroke-width:0.728343;stroke-miterlimit:4;stroke-dasharray:none;stroke-opacity:1"
       d="m 22.248116,13.654582 c -0.118741,0.407513 -0.358479,0.727999 -0.640029,0.806881 l -3.878288,1.08655 c -0.06572,0.01842 -0.129911,0.02251 -0.190914,0.01373 -0.08986,0.04228 -0.181458,0.06287 -0.271725,0.05594 l -3.838337,-0.294472 c -0.405221,-0.03109 -0.619405,-0.588985 -0.480749,-1.250358 l 0.104285,-0.500531 c 0.138652,-0.661374 0.577097,-1.168506 0.982318,-1.13741 l 3.5297,0.27087 c 0.03827,-0.02066 0.07722,-0.03694 0.117463,-0.0482 l 3.879185,-1.087217 c 0.409523,-0.114732 0.74783,0.326334 0.758665,0.988245 l 0.0084,0.501061 c 0.0034,0.206848 -0.02602,0.409687 -0.08002,0.594914 z" /><path
       id="path8"
       style="fill:#6a4e27;fill-opacity:1;stroke:#44321a;stroke-width:0.717688;stroke-miterlimit:4;stroke-dasharray:none;stroke-opacity:1"
       d="m 7.0241653,17.658428 -0.2008051,5.697129 2.1342523,-0.57026 1.3149825,1.97613 1.563447,-0.05455 1.131221,-1.830944 1.630834,1.013 -0.0518,-6.230509 z"
       sodipodi:nodetypes="ccccccccc" /><rect
       style="fill:#570f0f;fill-opacity:1;stroke:none;stroke-width:0.640899;stroke-dasharray:none;stroke-opacity:1"
       id="rect15"
       width="2.2011993"
       height="0.82884669"
       x="6.247694"
       y="17.322868"
       ry="0.41442335"
       rx="0"
       transform="rotate(5.1264868)" /><path
       id="rect9738"
       style="fill:#6a3327;fill-opacity:1;stroke:#21100c;stroke-width:0.654777;stroke-miterlimit:4;stroke-dasharray:none;stroke-opacity:1"
       d="m 7.1706217,12.460738 -0.3085083,6.507613 c 3.4503566,2.424939 5.7615996,1.432537 7.9261316,0 l -0.285771,-6.507613 z"
       sodipodi:nodetypes="ccccc" /><ellipse
       style="fill:#442119;fill-opacity:1;stroke:none;stroke-width:0.2544;stroke-miterlimit:4;stroke-dasharray:none;stroke-opacity:1"
       id="ellipse49"
       cx="10.786791"
       cy="12.450456"
       rx="2.1500163"
       ry="1.5804987" /><g
       id="g15"
       transform="matrix(0.15949451,0.35780913,-0.35701078,0.15913864,23.097013,6.127616)"><path
         id="path6-1"
         style="fill:#33d233;stroke:#042401;stroke-width:0.717176"
         d="m 29.260485,21.019309 c -0.62396,0.837381 0.366671,0.09115 4.744382,0.06007 2.351158,-0.01667 3.417713,-2.497682 2.904099,-3.543705 -0.513613,-1.046023 -2.653694,-1.112056 -4.780002,-0.147489 -2.126309,0.964566 -2.167784,2.690755 -2.868479,3.63112 z"
         sodipodi:nodetypes="sssss" /><path
         id="ellipse29"
         style="fill:#197319;stroke-width:0.427204;stroke-linecap:round;stroke-linejoin:round"
         d="m 30.053275,20.825626 c 0.263533,0.463667 0.767858,-0.304334 3.648512,-0.484594 1.502598,-0.09403 2.320209,-1.381263 2.056678,-1.84493 -0.263531,-0.463668 -1.611608,-0.389419 -3.011012,0.165841 -1.399405,0.55526 -2.957711,1.700014 -2.694178,2.163683 z"
         sodipodi:nodetypes="sssss" /><path
         style="fill:none;fill-opacity:1;stroke:#042401;stroke-width:0.542553;stroke-dasharray:none;stroke-opacity:1"
         d="m 35.599023,18.376246 c -2.78019,0.0776 -4.55977,1.196024 -5.994753,2.672893"
         id="path7-2"
         sodipodi:nodetypes="cc" /></g><g
       id="g17"
       transform="matrix(-0.45588602,0,0,0.50823459,33.278423,-0.69409287)"><path
         id="path15"
         style="fill:#33d233;stroke:#042401;stroke-width:0.717176"
         d="m 29.260485,21.019309 c -0.62396,0.837381 0.366671,0.09115 4.744382,0.06007 2.351158,-0.01667 3.417713,-2.497682 2.904099,-3.543705 -0.513613,-1.046023 -2.653694,-1.112056 -4.780002,-0.147489 -2.126309,0.964566 -2.167784,2.690755 -2.868479,3.63112 z"
         sodipodi:nodetypes="sssss" /><path
         id="path16"
         style="fill:#197319;stroke-width:0.427204;stroke-linecap:round;stroke-linejoin:round"
         d="m 30.053275,20.825626 c 0.263533,0.463667 0.767858,-0.304334 3.648512,-0.484594 1.502598,-0.09403 2.320209,-1.381263 2.056678,-1.84493 -0.263531,-0.463668 -1.611608,-0.389419 -3.011012,0.165841 -1.399405,0.55526 -2.957711,1.700014 -2.694178,2.163683 z"
         sodipodi:nodetypes="sssss" /><path
         style="fill:none;fill-opacity:1;stroke:#042401;stroke-width:0.542553;stroke-dasharray:none;stroke-opacity:1"
         d="m 35.599023,18.376246 c -2.78019,0.0776 -4.55977,1.196024 -5.994753,2.672893"
         id="path17"
         sodipodi:nodetypes="cc" /></g><path
       id="rect11"
       style="fill:#6a4e27;stroke:#322513;stroke-width:0.759001;fill-opacity:1;stroke-opacity:1"
       transform="matrix(0.99424081,0.10716908,-0.10506743,0.9944651,0,0)"
       d="m 20.769812,4.0129623 h 2.066876 L 22.016446,23.627979 21.34069,23.601033 Z"
       sodipodi:nodetypes="ccccc" /><path
       id="path1"
       style="fill:#6a4e27;stroke:#322513;stroke-width:0.611981;stroke-linecap:round;stroke-linejoin:round;fill-opacity:1;stroke-opacity:1"
       inkscape:transform-center-x="0.14325572"
       inkscape:transform-center-y="-0.95172092"
       transform="matrix(0.84229208,0.01190304,-0.01783467,1.2620311,-3.5803666,-3.6699352)"
       d="m 32.978891,9.4367254 -3.224327,-1.527888 -3.269147,0.6650961 3.989424,-5.405241 z"
       sodipodi:nodetypes="ccccc" /><rect
       style="fill:#322513;fill-opacity:1;stroke:none;stroke-width:0.772088;stroke-linecap:round;stroke-linejoin:round;stroke-dasharray:none;stroke-opacity:1"
       id="rect3"
       width="2.133261"
       height="1.7528068"
       x="14.923583"
       y="16.848883"
       transform="rotate(-18.207152)" /><rect
       style="fill:#322513;fill-opacity:1;stroke:none;stroke-width:0.743105;stroke-linecap:round;stroke-linejoin:round;stroke-dasharray:none;stroke-opacity:1"
       id="rect4"
       width="1.9901214"
       height="1.7404659"
       x="13.746675"
       y="20.702473"
       transform="matrix(0.94224418,-0.33492673,0.29117894,0.95666861,0,0)" /><path
       d="m 22.303677,11.618299 c -0.02779,-9.52e-4 -0.05362,0.0032 -0.07752,0.01292 l -1.456759,0.594279 c -0.382288,0.155903 -1.121078,0.464503 -1.102258,0.89762 l 0.05478,1.254704 c 0.01882,0.433116 0.251076,1.314771 0.654224,1.261421 l 2.095479,-0.276985 c 0.403149,-0.05335 1.050282,-0.823093 1.053682,-1.257288 l 0.0072,-0.910539 c 0.0032,-0.407058 -0.811987,-1.561847 -1.228865,-1.576131 z"
       style="fill:#6a3327;fill-opacity:1;stroke:#21100c;stroke-width:0.682;stroke-opacity:1"
       id="path32" /><path
       d="m 20.57602,12.679998 c 0.01347,-0.01123 0.02779,-0.02048 0.04323,-0.02737 l 0.942415,-0.418516 c 0.247295,-0.109841 0.727908,-0.320116 0.879477,-0.194033 l 0.438939,0.365366 c 0.151565,0.126085 0.364017,0.460123 0.144482,0.606365 l -1.140957,0.76022 c -0.219528,0.146247 -0.826044,0.193702 -0.989017,0.07619 l -0.341852,-0.246364 c -0.152792,-0.110171 -0.177939,-0.751558 0.02328,-0.921794 z"
       style="fill:#9c4b39;fill-opacity:1;stroke:none;stroke-width:0.363341"
       id="path33" /><ellipse
       style="fill:#6a3327;fill-opacity:1;stroke:#21100c;stroke-width:0.89;stroke-miterlimit:4;stroke-dasharray:none;stroke-opacity:1"
       id="ellipse3"
       cx="10.794987"
       cy="6.542511"
       rx="5.9909759"
       ry="5.9534302" /><path
       id="path42"
       style="fill:#ffffff;fill-opacity:1;stroke:#757575;stroke-width:0.806365;stroke-miterlimit:4;stroke-dasharray:none;stroke-opacity:1"
       d="M 6.1150323,1.9528529 C 5.493104,3.0261427 5.0747749,4.7550136 5.0747608,6.0442692 5.0750366,9.65564 7.6240894,12.583077 10.768435,12.58312 c 3.144347,-4.3e-5 5.6934,-2.92748 5.693676,-6.5388508 C 16.462094,4.7550138 16.13027,3.1702615 15.508342,2.0969715 12.617811,1.2516961 9.4369106,1.3287328 6.1150323,1.9528529 Z"
       sodipodi:nodetypes="cccccc" /><path
       id="path2"
       style="fill:#c59a60;stroke-width:0.549;stroke-linecap:round;stroke-linejoin:round;fill-opacity:1"
       inkscape:transform-center-x="0.10176024"
       inkscape:transform-center-y="-0.41373917"
       d="M 21.474723,5.908488 19.57386,6.5886415 21.970934,1.7699022 Z"
       sodipodi:nodetypes="cccc" /><path
       id="rect5"
       style="fill:#322513;stroke-width:0.58686;stroke-linecap:round;stroke-linejoin:round;fill-opacity:1"
       d="m 20.177658,6.9025259 h 1.888683 l 0.163052,0.856022 -2.051735,0.1358765 z"
       sodipodi:nodetypes="ccccc" /><ellipse
       style="fill:none;fill-opacity:1;stroke:#b60000;stroke-width:0.564999;stroke-dasharray:none;stroke-opacity:1"
       id="path3"
       cx="10.568711"
       cy="6.4469137"
       rx="1.3258928"
       ry="1.2778531" /><path
       sodipodi:type="star"
       style="fill:#ffffff;fill-opacity:1;stroke:#b60000;stroke-width:0.564999;stroke-dasharray:none;stroke-opacity:1"
       id="path4"
       inkscape:flatsided="true"
       sodipodi:sides="3"
       sodipodi:cx="8.6279116"
       sodipodi:cy="3.4972825"
       sodipodi:r1="2.243732"
       sodipodi:r2="1.121866"
       sodipodi:arg1="0.4904611"
       sodipodi:arg2="1.5376587"
       inkscape:rounded="0"
       inkscape:randomized="0"
       d="M 10.607143,4.5541536 6.7230187,4.6829116 8.5535731,1.2547823 Z"
       inkscape:transform-center-x="-0.037169224"
       inkscape:transform-center-y="-0.52843557"
       transform="translate(1.8831522,1.4988354)" /><path
       sodipodi:type="star"
       style="fill:#b60000;fill-opacity:1;stroke:#b60000;stroke-width:0.564999;stroke-dasharray:none;stroke-opacity:1"
       id="path6"
       inkscape:flatsided="true"
       sodipodi:sides="3"
       sodipodi:cx="8.6279116"
       sodipodi:cy="3.4972825"
       sodipodi:r1="2.243732"
       sodipodi:r2="1.121866"
       sodipodi:arg1="0.4904611"
       sodipodi:arg2="1.5376587"
       inkscape:rounded="0"
       inkscape:randomized="0"
       d="M 10.607143,4.5541536 6.7230187,4.6829116 8.5535731,1.2547823 Z"
       inkscape:transform-center-x="-0.26061964"
       inkscape:transform-center-y="0.10020361"
       transform="matrix(0.5291176,0.20092717,0.21489669,-0.56590467,2.6464578,9.8042074)" /><path
       sodipodi:type="star"
       style="fill:#b60000;fill-opacity:1;stroke:#b60000;stroke-width:0.564999;stroke-dasharray:none;stroke-opacity:1"
       id="path7"
       inkscape:flatsided="true"
       sodipodi:sides="3"
       sodipodi:cx="8.6279116"
       sodipodi:cy="3.4972825"
       sodipodi:r1="2.243732"
       sodipodi:r2="1.121866"
       sodipodi:arg1="0.4904611"
       sodipodi:arg2="1.5376587"
       inkscape:rounded="0"
       inkscape:randomized="0"
       d="M 10.607143,4.5541536 6.7230187,4.6829116 8.5535731,1.2547823 Z"
       inkscape:transform-center-x="0.26062001"
       inkscape:transform-center-y="0.10020361"
       transform="matrix(-0.5291176,0.20092717,-0.21489669,-0.56590467,18.878038,9.7498565)" /><ellipse
       style="fill:#21100c;fill-opacity:1;stroke:none;stroke-width:0.585167;stroke-dasharray:none;stroke-opacity:1"
       id="path9"
       cx="8.877717"
       cy="15.401494"
       rx="0.3843168"
       ry="0.29784551" /><ellipse
       style="fill:#21100c;fill-opacity:1;stroke:none;stroke-width:0.585167;stroke-dasharray:none;stroke-opacity:1"
       id="ellipse10"
       cx="12.663238"
       cy="15.363062"
       rx="0.3843168"
       ry="0.29784551" /><path
       style="fill:none;fill-opacity:1;stroke:#b60000;stroke-width:0.564999;stroke-dasharray:none;stroke-opacity:1"
       d="m 8.301242,9.1083072 1.325893,-1.5180511 0.960791,0.2882377 0.980008,-0.4227486 2.036879,1.7486412"
       id="path10" /><rect
       style="fill:#570f0f;fill-opacity:1;stroke:none;stroke-width:0.640899;stroke-dasharray:none;stroke-opacity:1"
       id="rect10"
       width="2.2011993"
       height="0.82884669"
       x="8.7892332"
       y="15.239516"
       ry="0.41442335"
       rx="0"
       transform="rotate(5.1264868)" /><rect
       style="fill:#570f0f;fill-opacity:1;stroke:none;stroke-width:0.641;stroke-dasharray:none;stroke-opacity:1"
       id="rect12"
       width="2.2011993"
       height="0.82884669"
       x="8.8036814"
       y="16.541052"
       ry="0.41442335"
       rx="0"
       transform="rotate(5.1264868)" /><rect
       style="fill:#570f0f;fill-opacity:1;stroke:none;stroke-width:0.640899;stroke-dasharray:none;stroke-opacity:1"
       id="rect13"
       width="2.2011993"
       height="0.82884669"
       x="-12.808839"
       y="17.501427"
       ry="0"
       rx="0"
       transform="matrix(-0.99599986,0.08935474,0.08935474,0.99599986,0,0)" /><rect
       style="fill:#570f0f;fill-opacity:1;stroke:none;stroke-width:0.641;stroke-dasharray:none;stroke-opacity:1"
       id="rect14"
       width="2.2011993"
       height="0.82884669"
       x="-12.747113"
       y="18.873753"
       ry="0"
       rx="0"
       transform="matrix(-0.99599986,0.08935474,0.08935474,0.99599986,0,0)" /></g></svg>
