<?xml version="1.0" encoding="UTF-8" standalone="no"?>
<!-- Created with Inkscape (http://www.inkscape.org/) -->

<svg
   width="100"
   height="100"
   viewBox="0 0 26.458333 26.458334"
   version="1.1"
   id="svg5"
   inkscape:version="1.4.2 (ebf0e940d0, 2025-05-08)"
   sodipodi:docname="hefesto.svg"
   xml:space="preserve"
   xmlns:inkscape="http://www.inkscape.org/namespaces/inkscape"
   xmlns:sodipodi="http://sodipodi.sourceforge.net/DTD/sodipodi-0.dtd"
   xmlns:xlink="http://www.w3.org/1999/xlink"
   xmlns="http://www.w3.org/2000/svg"
   xmlns:svg="http://www.w3.org/2000/svg"><sodipodi:namedview
     id="namedview7"
     pagecolor="#505050"
     bordercolor="#ffffff"
     borderopacity="1"
     inkscape:pageshadow="0"
     inkscape:pageopacity="0"
     inkscape:pagecheckerboard="1"
     inkscape:document-units="mm"
     showgrid="false"
     units="px"
     width="100px"
     inkscape:snap-global="false"
     inkscape:zoom="6.8845118"
     inkscape:cx="79.526336"
     inkscape:cy="70.956375"
     inkscape:window-width="1366"
     inkscape:window-height="697"
     inkscape:window-x="0"
     inkscape:window-y="0"
     inkscape:window-maximized="1"
     inkscape:current-layer="layer1"
     inkscape:showpageshadow="0"
     inkscape:deskcolor="#505050"
     showguides="true" /><defs
     id="defs2"><linearGradient
       id="linearGradient13895"
       inkscape:swatch="solid"><stop
         style="stop-color:#000000;stop-opacity:1;"
         offset="0"
         id="stop13893" /></linearGradient><filter
       style="color-interpolation-filters:sRGB;"
       inkscape:label="Clean Edges"
       id="filter14269"
       x="-0.31154084"
       y="-0.29580634"
       width="1.6230817"
       height="1.5916127"><feGaussianBlur
         stdDeviation="0.204612"
         result="blur"
         id="feGaussianBlur14263" /><feComposite
         in="SourceGraphic"
         in2="blur"
         operator="in"
         result="composite1"
         id="feComposite14265" /><feComposite
         in="composite1"
         in2="composite1"
         operator="in"
         result="composite2"
         id="feComposite14267" /></filter><filter
       style="color-interpolation-filters:sRGB;"
       inkscape:label="Clean Edges"
       id="filter14269-3"
       x="-0.31154084"
       y="-0.29580634"
       width="1.6230817"
       height="1.5916127"><feGaussianBlur
         stdDeviation="0.204612"
         result="blur"
         id="feGaussianBlur14263-5" /><feComposite
         in="SourceGraphic"
         in2="blur"
         operator="in"
         result="composite1"
         id="feComposite14265-6" /><feComposite
         in="composite1"
         in2="composite1"
         operator="in"
         result="composite2"
         id="feComposite14267-2" /></filter><inkscape:path-effect
       effect="fillet_chamfer"
       id="path-effect68"
       is_visible="true"
       lpeversion="1"
       nodesatellites_param="F,0,0,1,0,0,0,1 @ F,0,0,1,0,0,0,1 @ F,0,0,1,0,0,0,1 @ F,0,0,1,0,0,0,1 @ F,0,0,1,0,0,0,1 @ F,0,0,1,0,0,0,1 @ F,0,0,1,0,0,0,1 @ F,0,0,1,0,0,0,1 @ F,0,0,1,0,0,0,1"
       radius="0"
       unit="px"
       method="auto"
       mode="F"
       chamfer_steps="1"
       flexible="false"
       use_knot_distance="true"
       apply_no_radius="true"
       apply_with_radius="true"
       only_selected="false"
       hide_knots="false" /><inkscape:path-effect
       effect="fillet_chamfer"
       id="path-effect66"
       is_visible="true"
       lpeversion="1"
       nodesatellites_param="F,0,0,1,0,0,0,1 @ F,0,0,1,0,0.44929322,0,1 @ F,0,0,1,0,0.44929322,0,1 @ F,0,0,1,0,0,0,1 @ F,0,0,1,0,0,0,1 @ F,0,0,1,0,0,0,1 @ F,0,0,1,0,0,0,1 @ F,0,0,1,0,0,0,1 @ F,0,0,1,0,0,0,1 @ F,0,0,1,0,0,0,1"
       radius="0"
       unit="px"
       method="auto"
       mode="F"
       chamfer_steps="1"
       flexible="false"
       use_knot_distance="true"
       apply_no_radius="true"
       apply_with_radius="true"
       only_selected="false"
       hide_knots="false" /><filter
       style="color-interpolation-filters:sRGB;"
       inkscape:label="Clean Edges"
       id="filter14269-35"
       x="-0.31154084"
       y="-0.29580634"
       width="1.6230817"
       height="1.5916127"><feGaussianBlur
         stdDeviation="0.204612"
         result="blur"
         id="feGaussianBlur14263-6" /><feComposite
         in="SourceGraphic"
         in2="blur"
         operator="in"
         result="composite1"
         id="feComposite14265-2" /><feComposite
         in="composite1"
         in2="composite1"
         operator="in"
         result="composite2"
         id="feComposite14267-9" /></filter><inkscape:path-effect
       effect="fillet_chamfer"
       id="path-effect68-1"
       is_visible="true"
       lpeversion="1"
       nodesatellites_param="F,0,0,1,0,0,0,1 @ F,0,0,1,0,0,0,1 @ F,0,0,1,0,0,0,1 @ F,0,0,1,0,0,0,1 @ F,0,0,1,0,0,0,1 @ F,0,0,1,0,0,0,1 @ F,0,0,1,0,0,0,1 @ F,0,0,1,0,0,0,1 @ F,0,0,1,0,0,0,1"
       radius="0"
       unit="px"
       method="auto"
       mode="F"
       chamfer_steps="1"
       flexible="false"
       use_knot_distance="true"
       apply_no_radius="true"
       apply_with_radius="true"
       only_selected="false"
       hide_knots="false" /><inkscape:path-effect
       effect="fillet_chamfer"
       id="path-effect66-2"
       is_visible="true"
       lpeversion="1"
       nodesatellites_param="F,0,0,1,0,0,0,1 @ F,0,0,1,0,0.44929322,0,1 @ F,0,0,1,0,0.44929322,0,1 @ F,0,0,1,0,0,0,1 @ F,0,0,1,0,0,0,1 @ F,0,0,1,0,0,0,1 @ F,0,0,1,0,0,0,1 @ F,0,0,1,0,0,0,1 @ F,0,0,1,0,0,0,1 @ F,0,0,1,0,0,0,1"
       radius="0"
       unit="px"
       method="auto"
       mode="F"
       chamfer_steps="1"
       flexible="false"
       use_knot_distance="true"
       apply_no_radius="true"
       apply_with_radius="true"
       only_selected="false"
       hide_knots="false" /><linearGradient
       id="linearGradient7"
       inkscape:collect="always"><stop
         style="stop-color:#141414;stop-opacity:1;"
         offset="0"
         id="stop7" /><stop
         style="stop-color:#280000;stop-opacity:0.95530456;"
         offset="1"
         id="stop8" /></linearGradient><filter
       inkscape:label="Blur Double"
       inkscape:menu="Blurs"
       inkscape:menu-tooltip="Overlays two copies with different blur amounts and modifiable blend and composite"
       style="color-interpolation-filters:sRGB;"
       id="filter6"
       x="-0.71930275"
       y="-0.45810527"
       width="2.4386055"
       height="1.9162105"><feGaussianBlur
         stdDeviation="5"
         result="fbSourceGraphic"
         id="feGaussianBlur5" /><feGaussianBlur
         stdDeviation="0.01"
         in="SourceGraphic"
         result="result1"
         id="feGaussianBlur6" /><feComposite
         in2="result1"
         operator="arithmetic"
         in="fbSourceGraphic"
         k2="0.5"
         k3="0.5"
         result="result2"
         id="feComposite6" /><feBlend
         in2="fbSourceGraphic"
         mode="normal"
         result="result3"
         id="feBlend6" /></filter><filter
       style="color-interpolation-filters:sRGB;"
       inkscape:label="Clean Edges"
       id="filter14269-6"
       x="-0.31154084"
       y="-0.29580634"
       width="1.6230817"
       height="1.5916127"><feGaussianBlur
         stdDeviation="0.204612"
         result="blur"
         id="feGaussianBlur14263-7" /><feComposite
         in="SourceGraphic"
         in2="blur"
         operator="in"
         result="composite1"
         id="feComposite14265-5" /><feComposite
         in="composite1"
         in2="composite1"
         operator="in"
         result="composite2"
         id="feComposite14267-3" /></filter><filter
       inkscape:label="Blur Double"
       inkscape:menu="Blurs"
       inkscape:menu-tooltip="Overlays two copies with different blur amounts and modifiable blend and composite"
       style="color-interpolation-filters:sRGB;"
       id="filter6-3"
       x="-0.71930275"
       y="-0.45810527"
       width="2.4386055"
       height="1.9162105"><feGaussianBlur
         stdDeviation="5"
         result="fbSourceGraphic"
         id="feGaussianBlur5-6" /><feGaussianBlur
         stdDeviation="0.01"
         in="SourceGraphic"
         result="result1"
         id="feGaussianBlur6-7" /><feComposite
         in2="result1"
         operator="arithmetic"
         in="fbSourceGraphic"
         k2="0.5"
         k3="0.5"
         result="result2"
         id="feComposite6-5" /><feBlend
         in2="fbSourceGraphic"
         mode="normal"
         result="result3"
         id="feBlend6-3" /></filter><filter
       style="color-interpolation-filters:sRGB;"
       inkscape:label="Clean Edges"
       id="filter14269-3-5"
       x="-0.31154084"
       y="-0.29580634"
       width="1.6230817"
       height="1.5916127"><feGaussianBlur
         stdDeviation="0.204612"
         result="blur"
         id="feGaussianBlur14263-5-6" /><feComposite
         in="SourceGraphic"
         in2="blur"
         operator="in"
         result="composite1"
         id="feComposite14265-6-2" /><feComposite
         in="composite1"
         in2="composite1"
         operator="in"
         result="composite2"
         id="feComposite14267-2-9" /></filter><filter
       style="color-interpolation-filters:sRGB"
       inkscape:label="Clean Edges"
       id="filter14269-35-1"
       x="-0.31154084"
       y="-0.29580635"
       width="1.6230817"
       height="1.5916127"><feGaussianBlur
         stdDeviation="0.204612"
         result="blur"
         id="feGaussianBlur14263-6-2" /><feComposite
         in="SourceGraphic"
         in2="blur"
         operator="in"
         result="composite1"
         id="feComposite14265-2-7" /><feComposite
         in="composite1"
         in2="composite1"
         operator="in"
         result="composite2"
         id="feComposite14267-9-0" /></filter><filter
       style="color-interpolation-filters:sRGB"
       inkscape:label="Clean Edges"
       id="filter14269-3-1"
       x="-0.31154084"
       y="-0.29580635"
       width="1.6230817"
       height="1.5916127"><feGaussianBlur
         stdDeviation="0.204612"
         result="blur"
         id="feGaussianBlur14263-5-2" /><feComposite
         in="SourceGraphic"
         in2="blur"
         operator="in"
         result="composite1"
         id="feComposite14265-6-7" /><feComposite
         in="composite1"
         in2="composite1"
         operator="in"
         result="composite2"
         id="feComposite14267-2-0" /></filter><linearGradient
       inkscape:collect="always"
       xlink:href="#linearGradient7"
       id="linearGradient8"
       x1="-85.085594"
       y1="34.893436"
       x2="-89.636406"
       y2="59.922131"
       gradientUnits="userSpaceOnUse"
       gradientTransform="translate(120.04525,-69.780818)" /></defs><g
     inkscape:label="Camada 1"
     inkscape:groupmode="layer"
     id="layer1"><g
       id="g22"
       transform="matrix(-0.156363,-0.11534868,-0.11184435,0.15161265,27.096111,31.667304)"><rect
         style="fill:#141414;fill-opacity:1;stroke:#000000;stroke-width:1.72661;stroke-dasharray:none;stroke-opacity:1"
         id="rect3"
         width="44.24905"
         height="6.3883963"
         x="-77.575981"
         y="-32.524525"
         transform="matrix(-0.98043391,-0.19684855,-0.24155774,0.97038645,0,0)"
         ry="3.1941981" /><rect
         style="fill:#6e5426;fill-opacity:1;stroke:#20190c;stroke-width:0.985927;stroke-dasharray:none;stroke-opacity:1"
         id="rect4"
         width="7.2074547"
         height="10.407162"
         x="43.515526"
         y="-35.258053"
         transform="matrix(0.97851675,0.20616733,-0.1895446,0.98187211,0,0)"
         ry="1.5635483" /><rect
         style="fill:url(#linearGradient8);stroke:#000000;stroke-width:2.41084;stroke-dasharray:none;stroke-opacity:1"
         id="rect5"
         width="16.790165"
         height="26.711855"
         x="30.657633"
         y="-45.367859"
         transform="matrix(0.97037453,0.24160561,-0.17587186,0.98441307,0,0)"
         ry="4.0131283" /><ellipse
         style="fill:#000000;fill-opacity:1;stroke:none;stroke-width:4.48726;stroke-linecap:round;stroke-linejoin:round;stroke-opacity:1"
         id="path5-0"
         cx="43.696396"
         cy="-22.003035"
         rx="4.0835414"
         ry="4.2691569" /><ellipse
         style="fill:#000000;fill-opacity:1;stroke:none;stroke-width:2.94864;stroke-linecap:round;stroke-linejoin:round;stroke-opacity:1"
         id="ellipse5-6"
         cx="42.529671"
         cy="-17.017931"
         rx="2.8107493"
         ry="2.6781666" /><ellipse
         style="fill:#000000;fill-opacity:1;stroke:none;stroke-width:2.94864;stroke-linecap:round;stroke-linejoin:round;stroke-opacity:1"
         id="ellipse6-2"
         cx="45.075256"
         cy="-27.20027"
         rx="2.8107493"
         ry="2.6781666" /><ellipse
         style="fill:#141414;fill-opacity:1;stroke:none;stroke-width:2.07289;stroke-linecap:round;stroke-linejoin:round;stroke-opacity:1"
         id="ellipse7"
         cx="43.789207"
         cy="-21.817419"
         rx="1.8959299"
         ry="1.962221" /></g><path
       id="path9"
       style="fill:#c23b00;fill-opacity:1;stroke:#371100;stroke-width:0.433277;stroke-dasharray:none;stroke-opacity:1"
       d="M 7.207785,17.942228 C 8.1292148,17.905637 6.0043001,18.75192 5.1015593,19.032007 4.5325318,19.208555 4.2267167,18.058254 4.4431294,17.16321 4.659542,16.268167 5.8084005,15.206106 5.8852588,15.790768 c 0.2315595,1.761465 1.1439533,2.158551 1.3225262,2.15146 z"
       sodipodi:nodetypes="sssss" /><path
       id="path7"
       style="fill:#c23b00;fill-opacity:1;stroke:#371100;stroke-width:0.433277;stroke-dasharray:none;stroke-opacity:1"
       d="m 18.800186,18.050784 c -0.92143,-0.03659 1.203485,0.809692 2.106225,1.08978 0.569028,0.176547 0.874843,-0.973754 0.65843,-1.868798 -0.216412,-0.895043 -1.365271,-1.957104 -1.442129,-1.372442 -0.23156,1.761465 -1.143953,2.158552 -1.322526,2.15146 z"
       sodipodi:nodetypes="sssss" /><path
       id="path6"
       style="fill:#c23b00;fill-opacity:1;stroke:#371100;stroke-width:0.686733;stroke-dasharray:none;stroke-opacity:1"
       d="M 17.410538,5.8473929 C 15.959943,5.7890019 19.305167,7.1394467 20.726341,7.5863912 21.622154,7.8681151 22.103596,6.0325396 21.7629,4.6042877 21.422204,3.1760357 19.61357,1.4812666 19.492573,2.4142336 19.128033,5.2250638 17.691662,5.8587091 17.410538,5.8473929 Z"
       sodipodi:nodetypes="sssss" /><path
       style="fill:none;fill-opacity:1;stroke:#371100;stroke-width:0.458801;stroke-linecap:round;stroke-dasharray:none;stroke-opacity:1"
       d="m 17.925628,6.3392716 c 1.311795,-0.5182172 2.298206,-0.4167329 3.09415,0.047502"
       id="path25"
       sodipodi:nodetypes="cc" /><path
       style="fill:none;fill-opacity:1;stroke:#371100;stroke-width:0.458801;stroke-linecap:round;stroke-dasharray:none;stroke-opacity:1"
       d="M 17.99996,5.9278776 C 19.353319,5.5312395 20.07043,4.8449951 20.415107,3.9892247"
       id="path24"
       sodipodi:nodetypes="cc" /><path
       id="path2"
       style="fill:#c23b00;fill-opacity:1;stroke:#371100;stroke-width:0.686733;stroke-dasharray:none;stroke-opacity:1"
       d="M 8.2660297,6.3028971 C 9.7166234,6.2445056 6.3713993,7.594951 4.9502257,8.0418955 4.0544135,8.3236193 3.5729713,6.4880439 3.9136669,5.0597919 4.2543627,3.63154 6.0629966,1.9367709 6.1839941,2.8697378 6.5485336,5.6805681 7.9849043,6.3142134 8.2660297,6.3028971 Z"
       sodipodi:nodetypes="sssss" /><path
       id="path1"
       style="fill:#006f4c;fill-opacity:1;stroke:#001e14;stroke-width:0.750671;stroke-miterlimit:4;stroke-dasharray:none;stroke-opacity:1"
       d="m 17.564951,13.312132 c 0.390358,0.08978 0.70542,0.309877 0.795134,0.591767 l 1.235757,3.882995 c 0.02598,0.159403 0.06373,0.308567 0.09092,0.467888 l -0.06738,3.950027 c -0.0072,0.41701 -0.520958,0.679737 -1.151587,0.589554 l -0.477225,-0.06759 c -0.630631,-0.09017 -1.132355,-0.499128 -1.125235,-0.91614 l 0.06207,-3.632418 c -0.02156,-0.03754 -0.03904,-0.07613 -0.05186,-0.116395 l -1.236432,-3.883865 c -0.130492,-0.410018 0.266511,-0.7906 0.889461,-0.853411 l 0.471558,-0.04779 c 0.194674,-0.01962 0.387371,-0.0053 0.564812,0.03539 z"
       sodipodi:nodetypes="ccccccccccccccc" /><rect
       style="fill:#b4adbf;fill-opacity:1;stroke:#282828;stroke-width:0.484;stroke-linecap:round;stroke-linejoin:round;stroke-dasharray:none;stroke-opacity:1"
       id="rect21"
       width="3.7501912"
       height="2.2011993"
       x="16.616943"
       y="19.267288"
       ry="0.59569097" /><path
       id="rect9714"
       style="fill:#006f4c;fill-opacity:1;stroke:#001e14;stroke-width:0.750671;stroke-miterlimit:4;stroke-dasharray:none;stroke-opacity:1"
       d="m 8.3780819,13.294713 c -0.3903584,0.08978 -0.7054197,0.309878 -0.7951335,0.591768 l -1.2357566,3.882994 c -0.025979,0.159403 -0.063731,0.308567 -0.090922,0.467888 l 0.067384,3.950027 c 0.00713,0.417009 0.5209591,0.679737 1.1515874,0.589554 l 0.4772253,-0.06759 c 0.6306299,-0.09017 1.1323549,-0.499128 1.1252333,-0.91614 l -0.062063,-3.632418 c 0.021561,-0.03754 0.039036,-0.07612 0.051856,-0.116394 L 10.303925,14.16054 c 0.13049,-0.410018 -0.266512,-0.7906 -0.8894623,-0.85341 L 8.9429065,13.25934 C 8.7482311,13.23972 8.5555347,13.25404 8.3780942,13.29473 Z"
       sodipodi:nodetypes="ccccccccccccccc" /><path
       id="rect9738"
       style="fill:#006f4c;fill-opacity:1;stroke:#001e14;stroke-width:0.635796;stroke-miterlimit:4;stroke-dasharray:none;stroke-opacity:1"
       d="m 12.901636,11.485635 c -1.257084,1.96e-4 -2.302321,0.80502 -2.399521,1.847613 l -1.3465769,-0.05173 0.314701,6.353448 c 3.4150399,2.310033 5.0280439,1.314219 7.1704209,-0.05043 l -0.0089,-6.251274 h -1.330106 c -0.09721,-1.042758 -1.142757,-1.847644 -2.400042,-1.847613 z"
       sodipodi:nodetypes="ccccccccc" /><rect
       style="fill:#b4adbf;fill-opacity:1;stroke:#282828;stroke-width:0.167439;stroke-linecap:round;stroke-linejoin:round;stroke-dasharray:none;stroke-opacity:1"
       id="rect22"
       width="0.83289152"
       height="1.1861706"
       x="18.089182"
       y="19.734039"
       ry="0.32100278" /><rect
       style="fill:#006f4c;fill-opacity:1;stroke:#001e14;stroke-width:0.53621;stroke-opacity:1"
       id="rect46"
       width="2.9964399"
       height="6.236918"
       x="9.3390217"
       y="19.98661"
       ry="1.0974531" /><rect
       style="fill:#006f4c;fill-opacity:1;stroke:#001e14;stroke-width:0.544895;stroke-opacity:1"
       id="rect47"
       width="3.131"
       height="6.1638093"
       x="13.122336"
       y="20.007799"
       ry="1.0845889" /><path
       id="path47"
       style="fill:#00452f;fill-opacity:1;stroke-width:0.440386"
       d="m 10.43939,20.846507 h 0.73963 c 0.497678,0 0.898337,0.390415 0.898337,0.875369 v 3.224059 c 0,0.484954 -0.35783,0.528397 -0.845243,0.626388 l -0.852455,0.171376 c -0.4874135,0.09799 -0.8386067,-0.31281 -0.8386067,-0.797764 v -3.224059 c 0,-0.484954 0.4006586,-0.875369 0.8983377,-0.875369 z"
       sodipodi:nodetypes="sssssssss" /><path
       id="path48"
       style="fill:#00452f;fill-opacity:1;stroke-width:0.446295"
       d="m 14.300723,20.924113 h 0.759612 c 0.511124,0 0.922605,0.390414 0.922605,0.875369 v 3.224058 c 0,0.484955 -0.367496,0.528398 -0.868077,0.626387 l -0.875485,0.171377 c -0.50058,0.09799 -0.86126,-0.312809 -0.86126,-0.797764 v -3.224058 c 0,-0.484955 0.411481,-0.875369 0.922605,-0.875369 z"
       sodipodi:nodetypes="sssssssss" /><rect
       style="fill:#b4adbf;fill-opacity:1;stroke:#282828;stroke-width:0.484;stroke-linecap:round;stroke-linejoin:round;stroke-dasharray:none;stroke-opacity:1"
       id="rect19"
       width="3.7501912"
       height="2.2011993"
       x="5.7068129"
       y="19.566216"
       ry="0.59569097" /><path
       id="path8"
       style="fill:#ffffff;fill-opacity:1;stroke:#282828;stroke-width:0.612377;stroke-miterlimit:4;stroke-dasharray:none;stroke-opacity:1"
       d="m 9.4337261,19.688881 -0.2310174,4.515177 1.9077383,-0.799475 1.355907,1.10029 1.322471,0.01339 1.083066,-1.063053 1.813352,0.971523 -0.04959,-4.737856 z"
       sodipodi:nodetypes="ccccccccc" /><ellipse
       style="fill:#00452f;fill-opacity:1;stroke:none;stroke-width:0.224053;stroke-miterlimit:4;stroke-dasharray:none;stroke-opacity:1"
       id="ellipse49"
       cx="12.958172"
       cy="13.119466"
       rx="2.0313575"
       ry="1.297536" /><path
       style="fill:none;fill-opacity:1;stroke:#001e14;stroke-width:0.550347;stroke-linecap:round;stroke-dasharray:none;stroke-opacity:1"
       d="m 9.1902209,14.101621 c 0,0 0.1385686,1.3392 0.7705865,1.739772 0.4820336,0.305512 2.4552286,0.19864 2.4552286,0.19864"
       id="path23"
       sodipodi:nodetypes="csc" /><g
       id="g29"
       transform="matrix(0.31155194,0,0,-0.28683785,0.16576092,28.404195)"
       style="fill:#001e14;fill-opacity:1"><ellipse
         style="fill:#001e14;fill-opacity:1;stroke:none;stroke-width:1.6332;stroke-dasharray:none;stroke-opacity:1"
         id="path28"
         cx="35.288403"
         cy="41.778561"
         rx="1.6525621"
         ry="1.2682455" /><ellipse
         style="fill:#001e14;fill-opacity:1;stroke:none;stroke-width:1.24266;stroke-dasharray:none;stroke-opacity:1"
         id="ellipse28"
         cx="35.326832"
         cy="41.804771"
         rx="1.1913821"
         ry="1.0184395" /><ellipse
         style="fill:#001e14;fill-opacity:1;stroke:none;stroke-width:0.946814;stroke-dasharray:none;stroke-opacity:1"
         id="ellipse29"
         cx="35.04314"
         cy="41.491093"
         rx="0.87090665"
         ry="0.80879658" /></g><path
       style="fill:#ffffff;fill-opacity:1;stroke:#282828;stroke-width:0.873718;stroke-linecap:round;stroke-linejoin:round;stroke-opacity:1"
       d="m 9.622141,19.566333 5.382685,-5.523428 0.562651,-0.615852 1.106545,-0.03849 0.881485,-0.07698 0.26257,1.481895 -0.67518,2.598128 -0.56265,2.42492 z"
       id="path10" /><rect
       style="fill:#ffffff;fill-opacity:1;stroke:#282828;stroke-width:0.574271;stroke-linecap:round;stroke-dasharray:none;stroke-opacity:1"
       id="rect18"
       width="7.3590784"
       height="1.0558549"
       x="9.3737574"
       y="19.247618"
       ry="0.52792746" /><path
       style="fill:#b4adbf;fill-opacity:1;stroke:none;stroke-width:0.551401;stroke-linecap:round;stroke-dasharray:none;stroke-opacity:1"
       d="m 12.326545,20.674681 3.973645,-0.06686 0.01865,3.192808 -1.52976,-0.76895 -1.119336,1.069842 z"
       id="path18" /><path
       style="fill:none;fill-opacity:1;stroke:#371100;stroke-width:0.458801;stroke-linecap:round;stroke-dasharray:none;stroke-opacity:1"
       d="M 7.8175609,6.4378536 C 6.4642019,6.0412155 5.7470905,5.3549711 5.4024141,4.4992007"
       id="path20"
       sodipodi:nodetypes="cc" /><path
       style="fill:none;fill-opacity:1;stroke:#371100;stroke-width:0.458801;stroke-linecap:round;stroke-dasharray:none;stroke-opacity:1"
       d="M 7.8918931,6.8492476 C 6.5800981,6.3310305 5.5936873,6.4325147 4.7977429,6.8967494"
       id="path21"
       sodipodi:nodetypes="cc" /><path
       style="fill:none;fill-opacity:1;stroke:#371100;stroke-width:0.458801;stroke-linecap:round;stroke-dasharray:none;stroke-opacity:1"
       d="M 7.496934,6.9417597 C 6.4994685,5.9430685 5.5542791,5.642656 4.6396886,5.7509899"
       id="path22"
       sodipodi:nodetypes="cc" /><path
       style="fill:none;fill-opacity:1;stroke:#371100;stroke-width:0.458801;stroke-linecap:round;stroke-dasharray:none;stroke-opacity:1"
       d="M 18.320587,6.4317837 C 19.318052,5.4330924 20.263241,5.13268 21.177831,5.2410139"
       id="path26"
       sodipodi:nodetypes="cc" /><path
       id="ellipse3"
       style="fill:#00432e;fill-opacity:1;stroke:#001e14;stroke-width:0.826364;stroke-miterlimit:4;stroke-dasharray:none;stroke-opacity:1"
       d="M 12.758778,0.44710356 C 11.637392,0.44721587 10.4909,0.90629161 10.181418,1.8842131 8.2981841,2.8225088 7.2673769,4.9682095 7.2673172,7.0819632 7.267209,10.153312 9.7427015,12.643209 12.796456,12.643273 15.85021,12.643208 18.325702,10.153312 18.325593,7.0819632 18.325534,4.9322396 17.307855,2.7871977 15.375878,1.86761 15.050449,0.91134801 13.861836,0.44704129 12.758778,0.44710356 Z"
       sodipodi:nodetypes="ccccccc" /><ellipse
       style="fill:#006f4c;fill-opacity:1;stroke:none;stroke-width:0.292702;stroke-miterlimit:4;stroke-dasharray:none;stroke-opacity:1"
       id="ellipse4"
       cx="12.99256"
       cy="6.7218122"
       rx="4.8752885"
       ry="4.9101367" /><ellipse
       style="fill:#00c285;fill-opacity:1;stroke:none;stroke-width:0.833182;stroke-dasharray:none;stroke-opacity:1"
       id="ellipse8-6"
       cx="6.0789452"
       cy="13.809319"
       rx="3.0158994"
       ry="4.0375981"
       transform="matrix(0.72899801,-0.68451582,0.69659887,0.71746081,0,0)" /><g
       id="g2"
       transform="matrix(0.94119023,-0.29338979,0.29279214,0.94311141,-1.2698022,3.4002772)"><path
         id="path12-1"
         style="fill:#ffffff;fill-opacity:1;stroke:#001e14;stroke-width:0.511748;stroke-miterlimit:4;stroke-dasharray:none;stroke-opacity:1"
         d="M 9.3996388,4.8387271 C 9.0669743,5.1313784 8.730353,5.6688081 8.5858446,6.1048778 8.1811679,7.3264013 8.7234727,8.6049977 9.7971605,8.9608057 10.870858,9.3165849 12.069392,8.6148571 12.474256,7.3933959 12.618753,6.9573225 12.683069,6.3837565 12.590996,5.9503583 11.698714,5.337383 10.603906,5.0035101 9.3996388,4.8387271 Z"
         sodipodi:nodetypes="cccccc" /><ellipse
         style="fill:#001e14;fill-opacity:1;stroke:none;stroke-width:1.44338"
         id="ellipse31-8"
         cx="10.476668"
         cy="7.01267"
         rx="1.5012131"
         ry="1.5897816" /><path
         id="path36-7"
         style="fill:#00432e;fill-opacity:1;stroke:none;stroke-width:1.44338"
         d="M 9.5873992,5.7317701 A 1.5012129,1.5897816 0 0 0 8.9757042,7.0128417 1.5012129,1.5897816 0 0 0 10.477014,8.6025446 1.5012129,1.5897816 0 0 0 11.742303,7.867844 1.5012129,1.5897816 0 0 1 10.853388,8.1764756 1.5012129,1.5897816 0 0 1 9.3520792,6.5867726 1.5012129,1.5897816 0 0 1 9.5873992,5.7317701 Z" /><ellipse
         style="fill:#ffffff;fill-opacity:1;stroke:none;stroke-width:0.608423"
         id="ellipse36-9"
         cx="11.175435"
         cy="6.3555055"
         rx="0.58081633"
         ry="0.73009682" /></g><ellipse
       style="fill:#c23b00;fill-opacity:1;stroke:#371100;stroke-width:0.390728;stroke-dasharray:none;stroke-opacity:1"
       id="path11"
       cx="11.763847"
       cy="-2.1127732"
       rx="0.66987312"
       ry="1.0062037"
       transform="matrix(0.91616477,0.40080183,-0.39943127,0.91676314,0,0)" /><ellipse
       style="fill:#c23b00;fill-opacity:1;stroke:#371100;stroke-width:0.390728;stroke-dasharray:none;stroke-opacity:1"
       id="ellipse11"
       cx="-11.961825"
       cy="8.2306318"
       rx="0.66987312"
       ry="1.0062037"
       transform="matrix(-0.91616477,0.40080183,0.39943128,0.91676314,0,0)" /><path
       style="fill:none;fill-opacity:1;stroke:#001e14;stroke-width:0.562339;stroke-linecap:round;stroke-dasharray:none;stroke-opacity:1"
       d="m 11.839306,11.252378 c 1.649297,0.36472 2.819237,0.03657 3.708583,-0.69715"
       id="path12"
       sodipodi:nodetypes="cc" /><path
       id="path3"
       style="fill:#ffffff;fill-opacity:1;stroke:#001e14;stroke-width:0.504935;stroke-miterlimit:4;stroke-dasharray:none;stroke-opacity:1"
       d="m 16.899819,5.1300605 c 0.227415,0.3736032 0.386884,0.9792205 0.395216,1.4328802 0.02322,1.2707607 -0.861549,2.3175129 -1.976271,2.3380704 -1.114723,0.020528 -2.037312,-0.9929176 -2.060731,-2.2636745 -0.0083,-0.4536598 0.09908,-1.0134661 0.312635,-1.3951956 1.019281,-0.3163176 2.14746,-0.3099914 3.329151,-0.1120805 z"
       sodipodi:nodetypes="cccccc" /><ellipse
       style="fill:#001e14;fill-opacity:1;stroke:none;stroke-width:1.42416"
       id="ellipse5"
       cx="-16.599159"
       cy="2.0150673"
       rx="1.4799834"
       ry="1.5699337"
       transform="matrix(-0.95469117,-0.29759834,-0.29649379,0.95503478,0,0)" /><path
       id="path5"
       style="fill:#00432e;fill-opacity:1;stroke:none;stroke-width:1.42416"
       d="m 16.461625,5.9172126 a 1.4799743,1.569942 16.718042 0 1 0.200634,1.3876583 1.4799743,1.569942 16.718042 0 1 -1.878471,1.058798 1.4799743,1.569942 16.718042 0 1 -0.975763,-1.0641274 1.4799743,1.569942 16.718042 0 0 0.746273,0.5518726 1.4799743,1.569942 16.718042 0 0 1.87847,-1.0587984 1.4799743,1.569942 16.718042 0 0 0.02886,-0.8754031 z" /><ellipse
       style="fill:#ffffff;fill-opacity:1;stroke:none;stroke-width:0.600323"
       id="ellipse6"
       cx="-17.162838"
       cy="1.0552881"
       rx="0.57260263"
       ry="0.72098172"
       transform="matrix(-0.95469117,-0.29759834,-0.29649379,0.95503478,0,0)" /><path
       style="fill:#ffffff;fill-opacity:1;stroke:#282828;stroke-width:0.484;stroke-linecap:round;stroke-linejoin:round;stroke-opacity:1;stroke-dasharray:none"
       d="m 12.473462,18.343327 2.391427,-2.500128"
       id="path13" /><path
       style="fill:#ffffff;fill-opacity:1;stroke:#282828;stroke-width:0.484;stroke-linecap:round;stroke-linejoin:round;stroke-dasharray:none;stroke-opacity:1"
       d="m 14.10398,17.74547 2.391427,-2.500128"
       id="path14" /><path
       style="fill:#ffffff;fill-opacity:1;stroke:#282828;stroke-width:0.434456;stroke-linecap:round;stroke-linejoin:round;stroke-dasharray:none;stroke-opacity:1"
       d="m 14.541188,18.53115 2.114867,-2.277919"
       id="path15" /><path
       style="fill:#c23b00;fill-opacity:1;stroke:#371100;stroke-width:0.484;stroke-linecap:round;stroke-linejoin:round;stroke-dasharray:none;stroke-opacity:1"
       d="m 10.818517,11.933036 1.787073,0.422748 2.3059,-0.288237 1.825505,-1.325893 0.92236,1.518051 -1.518051,-0.134511 -0.249806,2.286685 -1.652562,-1.114519 -1.229814,1.594915 -0.730201,-1.460404 -1.806289,0.999224 -0.09608,-1.325893 -0.365101,0.710986 -0.038432,-1.24903 z"
       id="path16" /><ellipse
       style="fill:#c23b00;fill-opacity:1;stroke:#371100;stroke-width:0.390728;stroke-dasharray:none;stroke-opacity:1"
       id="ellipse16"
       cx="-11.961825"
       cy="8.2306318"
       rx="0.66987312"
       ry="1.0062037"
       transform="matrix(-0.91616477,0.40080183,0.39943128,0.91676314,0,0)" /><rect
       style="fill:#b4adbf;fill-opacity:1;stroke:#282828;stroke-width:0.167439;stroke-linecap:round;stroke-linejoin:round;stroke-dasharray:none;stroke-opacity:1"
       id="rect20"
       width="0.83289152"
       height="1.1861706"
       x="7.1790504"
       y="20.032967"
       ry="0.32100278" /></g></svg>
