<?xml version="1.0" encoding="UTF-8" standalone="no"?>
<!-- Created with Inkscape (http://www.inkscape.org/) -->

<svg
   width="100"
   height="100"
   viewBox="0 0 26.458333 26.458334"
   version="1.1"
   id="svg5"
   inkscape:version="1.4.2 (ebf0e940d0, 2025-05-08)"
   sodipodi:docname="meliadas.svg"
   xml:space="preserve"
   xmlns:inkscape="http://www.inkscape.org/namespaces/inkscape"
   xmlns:sodipodi="http://sodipodi.sourceforge.net/DTD/sodipodi-0.dtd"
   xmlns:xlink="http://www.w3.org/1999/xlink"
   xmlns="http://www.w3.org/2000/svg"
   xmlns:svg="http://www.w3.org/2000/svg"><sodipodi:namedview
     id="namedview7"
     pagecolor="#505050"
     bordercolor="#ffffff"
     borderopacity="1"
     inkscape:pageshadow="0"
     inkscape:pageopacity="0"
     inkscape:pagecheckerboard="1"
     inkscape:document-units="px"
     showgrid="false"
     units="px"
     width="100px"
     inkscape:snap-global="false"
     inkscape:zoom="2.4340426"
     inkscape:cx="102.50437"
     inkscape:cy="56.490384"
     inkscape:window-width="1366"
     inkscape:window-height="697"
     inkscape:window-x="0"
     inkscape:window-y="0"
     inkscape:window-maximized="1"
     inkscape:current-layer="layer1"
     inkscape:showpageshadow="0"
     inkscape:deskcolor="#505050" /><defs
     id="defs2"><linearGradient
       id="linearGradient25"
       inkscape:collect="always"><stop
         style="stop-color:#ff7a07;stop-opacity:1;"
         offset="0"
         id="stop25" /><stop
         style="stop-color:#4f2500;stop-opacity:1;"
         offset="1"
         id="stop26" /></linearGradient><linearGradient
       id="linearGradient13895"
       inkscape:swatch="solid"><stop
         style="stop-color:#000000;stop-opacity:1;"
         offset="0"
         id="stop13893" /></linearGradient><filter
       style="color-interpolation-filters:sRGB;"
       inkscape:label="Clean Edges"
       id="filter14269"
       x="-0.31154084"
       y="-0.29580634"
       width="1.6230817"
       height="1.5916127"><feGaussianBlur
         stdDeviation="0.204612"
         result="blur"
         id="feGaussianBlur14263" /><feComposite
         in="SourceGraphic"
         in2="blur"
         operator="in"
         result="composite1"
         id="feComposite14265" /><feComposite
         in="composite1"
         in2="composite1"
         operator="in"
         result="composite2"
         id="feComposite14267" /></filter><inkscape:path-effect
       effect="fillet_chamfer"
       id="path-effect68"
       is_visible="true"
       lpeversion="1"
       nodesatellites_param="F,0,0,1,0,0,0,1 @ F,0,0,1,0,0,0,1 @ F,0,0,1,0,0,0,1 @ F,0,0,1,0,0,0,1 @ F,0,0,1,0,0,0,1 @ F,0,0,1,0,0,0,1 @ F,0,0,1,0,0,0,1 @ F,0,0,1,0,0,0,1 @ F,0,0,1,0,0,0,1"
       radius="0"
       unit="px"
       method="auto"
       mode="F"
       chamfer_steps="1"
       flexible="false"
       use_knot_distance="true"
       apply_no_radius="true"
       apply_with_radius="true"
       only_selected="false"
       hide_knots="false" /><inkscape:path-effect
       effect="fillet_chamfer"
       id="path-effect66"
       is_visible="true"
       lpeversion="1"
       nodesatellites_param="F,0,0,1,0,0,0,1 @ F,0,0,1,0,0.44929322,0,1 @ F,0,0,1,0,0.44929322,0,1 @ F,0,0,1,0,0,0,1 @ F,0,0,1,0,0,0,1 @ F,0,0,1,0,0,0,1 @ F,0,0,1,0,0,0,1 @ F,0,0,1,0,0,0,1 @ F,0,0,1,0,0,0,1 @ F,0,0,1,0,0,0,1"
       radius="0"
       unit="px"
       method="auto"
       mode="F"
       chamfer_steps="1"
       flexible="false"
       use_knot_distance="true"
       apply_no_radius="true"
       apply_with_radius="true"
       only_selected="false"
       hide_knots="false" /><linearGradient
       inkscape:collect="always"
       xlink:href="#linearGradient25"
       id="linearGradient26"
       x1="31.331742"
       y1="17.464602"
       x2="41.036871"
       y2="17.464602"
       gradientUnits="userSpaceOnUse"
       gradientTransform="matrix(0.86305947,0,0,0.98157754,-24.060808,-9.209315)" /><linearGradient
       inkscape:collect="always"
       xlink:href="#linearGradient25"
       id="linearGradient28"
       gradientUnits="userSpaceOnUse"
       gradientTransform="matrix(0.85568448,-0.11764127,0.15623523,0.83341664,-25.022992,-2.6672803)"
       x1="31.331742"
       y1="17.464602"
       x2="41.036871"
       y2="17.464602" /><linearGradient
       inkscape:collect="always"
       xlink:href="#linearGradient25"
       id="linearGradient29"
       gradientUnits="userSpaceOnUse"
       gradientTransform="matrix(-0.85568448,-0.11764127,-0.15623523,0.83341664,51.322148,-2.590417)"
       x1="31.331742"
       y1="17.464602"
       x2="41.036871"
       y2="17.464602" /><linearGradient
       inkscape:collect="always"
       xlink:href="#linearGradient25"
       id="linearGradient30"
       gradientUnits="userSpaceOnUse"
       gradientTransform="matrix(-0.88102686,-0.10555128,-0.12351303,0.97388492,50.790508,-5.0250721)"
       x1="31.331742"
       y1="17.464602"
       x2="41.036871"
       y2="17.464602" /><linearGradient
       inkscape:collect="always"
       xlink:href="#linearGradient25"
       id="linearGradient31"
       gradientUnits="userSpaceOnUse"
       gradientTransform="matrix(-0.58117756,-0.05116711,-0.10611436,0.36248779,37.823346,-0.65181611)"
       x1="31.331742"
       y1="17.464602"
       x2="41.036871"
       y2="17.464602" /><linearGradient
       inkscape:collect="always"
       xlink:href="#linearGradient25"
       id="linearGradient32"
       gradientUnits="userSpaceOnUse"
       gradientTransform="matrix(0.56430448,0.18528198,-0.05607569,0.40002435,-8.9142785,-10.347219)"
       x1="31.331742"
       y1="17.464602"
       x2="41.036871"
       y2="17.464602" /><linearGradient
       inkscape:collect="always"
       xlink:href="#linearGradient25"
       id="linearGradient33"
       gradientUnits="userSpaceOnUse"
       gradientTransform="matrix(0.5241001,0.27944239,-0.12394244,0.38445056,-6.6064006,-14.575212)"
       x1="31.331742"
       y1="17.464602"
       x2="41.036871"
       y2="17.464602" /></defs><g
     inkscape:label="Camada 1"
     inkscape:groupmode="layer"
     id="layer1"><g
       id="g1"
       transform="matrix(0.95272149,0,0,0.95070741,1.0003264,1.3055279)"><path
         style="fill:url(#linearGradient30);stroke:#572800;stroke-width:0.364005;stroke-dasharray:none;stroke-opacity:1"
         d="m 16.215934,1.7371718 c 0.939804,0.8352565 2.13059,2.538352 2.396299,4.2345648 0.265708,1.6962116 -0.951018,3.7538892 -0.900698,5.1378024 0.05033,1.383914 0.289189,2.585801 0.764855,2.946761 0.475666,0.360959 0.670263,-0.05432 0.735428,-0.324551 0.204954,-0.84989 -0.332346,-1.911455 -0.330077,-2.380409 9.08e-4,-0.189217 0.05198,-0.436819 0.191346,-0.530883 0.151422,-0.102234 0.36293,-0.01697 0.495088,0.102303 0.450074,0.406211 0.899079,1.736107 0.573538,3.224127 -0.187123,0.999794 -1.027155,1.536399 -1.903699,1.594996 -0.38101,-0.02415 -0.53634,0.04802 -0.976964,-0.669108 -0.440623,-0.71713 -0.762016,-2.429674 -0.764752,-3.960822 -0.0028,-1.5311472 1.212953,-3.3740322 0.923186,-5.0063951 -0.468806,-2.6409498 -4.345835,-4.3882738 -3.870229,-5.36306204 0.40561,-0.83132811 1.726875,0.15942177 2.666679,0.99467594 z"
         id="path30"
         sodipodi:nodetypes="zzzzssassszsszz" /><path
         id="path23"
         style="fill:#006f4c;fill-opacity:1;stroke:#001e14;stroke-width:0.671392;stroke-miterlimit:4;stroke-dasharray:none;stroke-opacity:1"
         d="m 9.705568,12.32774 c -0.3474955,0.08068 -0.6279625,0.278459 -0.7078256,0.531766 l -1.0520262,3.364373 c -0.1837916,1.30478 -0.043214,2.652777 -0.020969,3.969958 0.00628,0.374727 0.8096419,0.67807 1.3710247,0.597031 0.6049737,-0.06425 0.8867241,-0.150413 1.0325761,-0.826331 0.117453,-1.098516 -0.253651,-2.29435 -0.009,-3.368699 l 1.100596,-3.490066 c 0.116161,-0.368446 -0.237249,-0.710437 -0.791797,-0.766879 l -0.419777,-0.04294 c -0.173299,-0.01764 -0.3448369,-0.0047 -0.5027936,0.03181 z"
         sodipodi:nodetypes="cccccccccccc" /><path
         id="path22"
         style="fill:#006f4c;fill-opacity:1;stroke:#001e14;stroke-width:0.671392;stroke-miterlimit:4;stroke-dasharray:none;stroke-opacity:1"
         d="m 15.9646,12.32774 c 0.347495,0.08068 0.627962,0.278459 0.707826,0.531766 l 1.100065,3.489276 c 0.183791,1.30478 0.04321,2.652777 0.02097,3.969958 -0.0063,0.374727 -0.463757,0.610815 -1.025139,0.529776 l -0.424824,-0.06073 c -0.561384,-0.08104 -1.008019,-0.44852 -1.001678,-0.823249 -0.117452,-1.098516 0.253651,-2.29435 0.009,-3.368699 l -1.100591,-3.490063 c -0.116161,-0.368446 0.23725,-0.710437 0.791797,-0.766879 l 0.419777,-0.04294 c 0.173299,-0.01764 0.344837,-0.0047 0.502794,0.03181 z"
         sodipodi:nodetypes="ccccccccccccc" /><rect
         style="fill:#636363;fill-opacity:1;stroke:#202020;stroke-width:0.575735;stroke-opacity:1"
         id="rect22"
         width="2.9504488"
         height="1.323339"
         x="-18.265724"
         y="16.525351"
         ry="0.39021537"
         transform="scale(-1,1)" /><path
         style="fill:url(#linearGradient26);stroke:#572800;stroke-width:0.755915;stroke-dasharray:none;stroke-opacity:1"
         d="M 8.4741844,1.6167687 C 7.4651074,2.334239 6.1076417,3.883459 5.6436669,5.5358781 5.1796913,7.1882961 6.1019472,9.3759086 5.8840299,10.743892 5.66611,12.111876 5.28853,13.276714 4.7853647,13.578502 4.2821984,13.880289 4.1452464,13.444843 4.1154346,13.168809 c -0.093764,-0.868161 0.5546193,-1.858188 0.6098188,-2.324043 0.022275,-0.187965 0.00328,-0.439862 -0.1196684,-0.549827 -0.1336024,-0.11951 -0.3481305,-0.06002 -0.4902522,0.04268 -0.4840081,0.349759 -1.0800249,1.616691 -0.9479993,3.132739 0.058205,1.014867 0.8031252,1.647533 1.6417705,1.809968 0.3706089,0.02134 0.5116613,0.111469 1.0246008,-0.548097 C 6.3466435,14.072663 6.8663495,12.410653 7.056371,10.890834 7.2463917,9.3710153 6.2988499,7.3967744 6.778226,5.8106079 7.5537945,3.244398 11.50875,1.9707795 11.16911,0.94642579 10.879457,0.07282697 9.4832615,0.89930025 8.4741844,1.6167687 Z"
         id="path17"
         sodipodi:nodetypes="zzzzssassszsszz" /><rect
         style="fill:#006f4c;fill-opacity:1;stroke:#001e14;stroke-width:0.536663;stroke-opacity:1"
         id="rect46"
         width="2.9127901"
         height="6.4268956"
         x="9.2930155"
         y="19.73457"
         ry="1.1308818" /><rect
         style="fill:#006f4c;fill-opacity:1;stroke:#001e14;stroke-width:0.545357;stroke-opacity:1"
         id="rect47"
         width="3.0435939"
         height="6.3515601"
         x="13.052238"
         y="19.866608"
         ry="1.1176258" /><path
         id="rect9738"
         style="fill:#ffffff;fill-opacity:1;stroke:#060e2d;stroke-width:0.613991;stroke-miterlimit:4;stroke-dasharray:none;stroke-opacity:1"
         d="m 9.9471862,12.63901 -0.8448017,11.167172 2.1898665,0.865555 3.114126,-0.108701 1.886326,-1.342643 -0.673475,-10.696678 z"
         sodipodi:nodetypes="ccccccc" /><ellipse
         style="fill:#00432e;fill-opacity:1;stroke:#001e14;stroke-width:0.423743;stroke-miterlimit:4;stroke-dasharray:none;stroke-opacity:1"
         id="path11105"
         cx="12.788444"
         cy="12.698721"
         rx="1.8654262"
         ry="1.8653927" /><ellipse
         style="fill:#00432e;fill-opacity:1;stroke:#001e14;stroke-width:0.872775;stroke-miterlimit:4;stroke-dasharray:none;stroke-opacity:1"
         id="ellipse3"
         cx="12.762082"
         cy="7.0761666"
         rx="5.8735132"
         ry="5.8397112" /><ellipse
         style="fill:#006f4c;fill-opacity:1;stroke:none;stroke-width:0.303265;stroke-miterlimit:4;stroke-dasharray:none;stroke-opacity:1"
         id="ellipse4"
         cx="12.810555"
         cy="6.8210125"
         rx="5.0489554"
         ry="5.0896111" /><ellipse
         style="fill:#00c285;fill-opacity:1;stroke:none;stroke-width:0.89764;stroke-dasharray:none;stroke-opacity:1"
         id="ellipse8"
         cx="5.2825751"
         cy="13.206199"
         rx="3.2545106"
         ry="4.3428955"
         transform="matrix(0.75259261,-0.65848642,0.72148775,0.6924272,0,0)" /><path
         id="path12"
         style="fill:#ffffff;fill-opacity:1;stroke:#001e14;stroke-width:0.501843;stroke-miterlimit:4;stroke-dasharray:none;stroke-opacity:1"
         d="M 8.744603,8.3842393 C 8.5252652,8.0091076 8.3777313,7.4048397 8.3777257,6.9542244 8.3778234,5.6919932 9.2768088,4.6688073 10.385738,4.6687925 c 1.108932,1.5e-5 2.007918,1.0232007 2.008014,2.2854319 -5e-6,0.4506152 -0.11703,1.0045113 -0.33637,1.3796433 -1.019416,0.2954371 -2.1412377,0.2685115 -3.312779,0.050372 z"
         sodipodi:nodetypes="cccccc" /><ellipse
         style="fill:#001e14;fill-opacity:1;stroke:none;stroke-width:1.41545"
         id="ellipse31"
         cx="10.328472"
         cy="6.730969"
         rx="1.4717793"
         ry="1.5594145" /><path
         id="path36"
         style="fill:#00432e;fill-opacity:1;stroke:none;stroke-width:1.41545"
         d="M 9.4566394,5.4745359 A 1.4717791,1.5594145 0 0 0 8.8569371,6.7311371 1.4717791,1.5594145 0 0 0 10.32881,8.2904744 1.4717791,1.5594145 0 0 0 11.569292,7.5698077 1.4717791,1.5594145 0 0 1 10.697805,7.8725439 1.4717791,1.5594145 0 0 1 9.2259328,6.3132066 1.4717791,1.5594145 0 0 1 9.4566394,5.4745359 Z" /><ellipse
         style="fill:#ffffff;fill-opacity:1;stroke:none;stroke-width:0.596647"
         id="ellipse36"
         cx="11.380405"
         cy="6.6162748"
         rx="0.56942844"
         ry="0.71615088" /><path
         id="path42"
         style="fill:#ffffff;fill-opacity:1;stroke:#001e14;stroke-width:0.502922;stroke-miterlimit:4;stroke-dasharray:none;stroke-opacity:1"
         d="M 13.423601,8.1331153 C 13.204323,7.7562668 13.056828,7.1492337 13.056823,6.6965564 c 9.7e-5,-1.2680074 0.89884,-2.2958756 2.007472,-2.2958905 1.108633,1.5e-5 2.007376,1.0278831 2.007474,2.2958905 -6e-6,0.4526772 -0.117001,1.009108 -0.336279,1.3859566 -1.019143,0.2967892 -2.140663,0.2697404 -3.311889,0.050602 z"
         sodipodi:nodetypes="cccccc" /><ellipse
         style="fill:#001e14;fill-opacity:1;stroke:none;stroke-width:1.41545"
         id="ellipse42"
         cx="15.113599"
         cy="6.4670858"
         rx="1.4717793"
         ry="1.5594145" /><path
         id="path43"
         style="fill:#00432e;fill-opacity:1;stroke:none;stroke-width:1.41545"
         d="M 14.241767,5.2106528 A 1.4717791,1.5594145 0 0 0 13.642065,6.4672541 1.4717791,1.5594145 0 0 0 15.113938,8.0265914 1.4717791,1.5594145 0 0 0 16.354419,7.3059246 1.4717791,1.5594145 0 0 1 15.482933,7.6086609 1.4717791,1.5594145 0 0 1 14.011061,6.0493236 1.4717791,1.5594145 0 0 1 14.241767,5.2106528 Z" /><ellipse
         style="fill:#ffffff;fill-opacity:1;stroke:none;stroke-width:0.596647"
         id="ellipse43"
         cx="16.239763"
         cy="6.2910037"
         rx="0.56942844"
         ry="0.71615088" /><path
         style="fill:#5e78aa;fill-opacity:1;stroke-width:0.571765;stroke-linecap:round;stroke-dasharray:none"
         d="m 9.6215066,20.732524 c 0,0 1.1011394,0.982359 1.8163794,1.168104 0.71524,0.185745 1.62724,-0.181113 2.392713,0.0054 0.773015,0.188383 2.132958,0.965596 2.132958,0.965596 l -0.129709,-2.695021 -5.9376944,0.172942 z"
         id="path2"
         sodipodi:nodetypes="czscccc" /><path
         id="path1"
         style="fill:#1d42d5;fill-opacity:1;stroke:#060e2d;stroke-width:0.426141;stroke-opacity:1"
         d="m 9.3068933,19.112841 c -0.7808017,3.081008 7.3548847,2.479424 6.8469357,-0.03565 -2.945178,0.795631 -3.868005,1.700867 -6.8469357,0.03565 z"
         sodipodi:nodetypes="ccc" /><path
         style="fill:url(#linearGradient28);stroke:#572800;stroke-width:0.598223;stroke-dasharray:none;stroke-opacity:1"
         d="M 8.957143,2.0899411 C 8.0708867,2.8366597 6.9716062,4.3370704 6.7746077,5.8033138 6.577608,7.2695564 7.8401799,9.0012573 7.8418631,10.192458 7.8435364,11.38366 7.6545948,12.424142 7.203764,12.748964 6.752932,13.073783 6.5478415,12.722732 6.4743488,12.492427 6.243203,11.768088 6.7284657,10.839118 6.7090445,10.436055 6.7012094,10.273426 6.642285,10.06214 6.5028841,9.985532 6.3514012,9.9022762 6.1481752,9.9819947 6.0236146,10.088594 c -0.424202,0.36294 -0.8134713,1.519881 -0.4412684,2.789099 0.2192414,0.853747 1.058496,1.289379 1.9158293,1.312982 0.3708385,-0.0324 0.5250313,0.0249 0.9286061,-0.605026 0.403574,-0.629928 0.6543011,-2.111911 0.6007931,-3.428227 C 8.9740659,8.8411073 7.7203861,7.2940172 7.9431997,5.8819269 8.3036837,3.5973491 12.022125,1.9768835 11.522344,1.1534427 11.096117,0.4511881 9.8433995,1.3432239 8.957143,2.0899411 Z"
         id="path28"
         sodipodi:nodetypes="zzzzssassszsszz" /><path
         style="fill:url(#linearGradient29);stroke:#572800;stroke-width:0.571765;stroke-dasharray:none;stroke-opacity:1"
         d="m 17.342013,2.1668044 c 0.886257,0.7467186 1.985537,2.2471293 2.182536,3.7133727 0.196999,1.4662426 -1.065573,3.1979435 -1.067256,4.3891449 -0.0017,1.191202 0.187268,2.231684 0.638099,2.556506 0.450832,0.324819 0.655923,-0.02623 0.729415,-0.256537 0.231146,-0.724339 -0.254116,-1.653309 -0.234695,-2.056372 0.0078,-0.162629 0.06676,-0.373915 0.20616,-0.450523 0.151483,-0.08326 0.354709,-0.0035 0.47927,0.103062 0.424202,0.36294 0.813471,1.519881 0.441268,2.789099 -0.219241,0.853747 -0.718805,1.221441 -1.576138,1.245044 -0.370839,-0.0324 -0.864723,0.09284 -1.268297,-0.537088 -0.403574,-0.629928 -0.654301,-2.111911 -0.600793,-3.428227 0.05351,-1.3163154 1.307188,-2.8634055 1.084375,-4.2754958 -0.360484,-2.2845778 -4.078926,-3.9050434 -3.579145,-4.7284842 0.426227,-0.70225458 1.678945,0.1897812 2.565201,0.9364984 z"
         id="path29"
         sodipodi:nodetypes="zzzzssassszsszz" /><path
         style="fill:url(#linearGradient31);stroke:#572800;stroke-width:0.445823;stroke-dasharray:none;stroke-opacity:1"
         d="m 14.744171,1.4172987 c 0.601942,0.3247791 1.348569,0.9773706 1.48237,1.6151012 0.133801,0.6377303 -0.723733,1.3909196 -0.724877,1.9090229 -0.0012,0.5181036 0.127192,0.9706528 0.433395,1.1119315 0.306203,0.1412774 0.4455,-0.011408 0.495416,-0.1115787 0.156993,-0.3150453 -0.172595,-0.7190933 -0.159404,-0.8944022 0.0053,-0.070734 0.04534,-0.1626313 0.140023,-0.1959514 0.102886,-0.036213 0.240917,-0.00152 0.325518,0.044826 0.288116,0.1578578 0.552506,0.6610599 0.299708,1.213096 -0.148908,0.3713303 -0.718927,0.5608049 -1.301224,0.5710708 -0.251872,-0.014092 -0.3566,0.01083 -0.630706,-0.2631511 -0.274105,-0.2739821 -0.444398,-0.9185586 -0.408056,-1.4910795 0.03634,-0.5725207 0.887837,-1.2454149 0.736503,-1.8595921 -0.244839,-0.9936586 -2.77039,-1.6984669 -2.430941,-2.0566158 0.289492,-0.30543993 1.140333,0.082544 1.742275,0.4073224 z"
         id="path31"
         sodipodi:nodetypes="zzzzssassszsszz" /><path
         style="fill:url(#linearGradient32);stroke:#572800;stroke-width:0.348192;stroke-dasharray:none;stroke-opacity:1"
         d="M 11.73999,1.0493829 C 11.039226,1.1251461 10.063153,1.4650816 9.6653881,2.0388891 9.2676221,2.6126961 9.7456571,3.702209 9.5250241,4.2129238 9.3044241,4.7236531 8.9909655,5.1172873 8.6447339,5.1322563 8.2985028,5.147224 8.2338329,4.9403662 8.2301108,4.8214724 8.2184007,4.4475397 8.6988989,4.183267 8.7616039,4.005266 8.7869244,3.9334545 8.788879,3.8267134 8.7147702,3.7555035 8.6342435,3.6781182 8.4905744,3.6563122 8.3917849,3.6676492 8.0553392,3.7062805 7.5932611,4.094643 7.5929751,4.7408246 7.5730547,5.1669107 8.0239721,5.5846621 8.5630336,5.8309 8.8041345,5.9191584 8.8912117,5.9861708 9.2642721,5.827495 9.6373321,5.6688181 10.072085,5.1030662 10.283154,4.5244855 10.494224,3.9459059 9.9874651,2.9379194 10.391516,2.3944183 11.045217,1.5151045 13.703893,1.8451158 13.540342,1.3547448 13.400861,0.93654226 12.440755,0.9736209 11.73999,1.0493829 Z"
         id="path32"
         sodipodi:nodetypes="zzzzssassszsszz" /><path
         style="fill:url(#linearGradient33);stroke:#572800;stroke-width:0.348192;stroke-dasharray:none;stroke-opacity:1"
         d="M 11.783751,0.19921367 C 11.080388,0.1535025 10.060436,0.32075726 9.5700361,0.81772751 9.0796347,1.3146971 9.3634551,2.4701199 9.0583904,2.9353553 8.7533557,3.4006107 8.3769519,3.7345633 8.0332936,3.6898484 7.6896362,3.6451322 7.6614527,3.4302415 7.6782046,3.3124749 7.7308875,2.9420868 8.2496326,2.764261 8.3419758,2.5996736 8.3792529,2.5332775 8.3995101,2.428458 8.3387319,2.3455788 8.2726917,2.2555136 8.1349022,2.209358 8.0356334,2.2035605 7.697552,2.1838369 7.1756421,2.4870723 7.0643856,3.1236041 c -0.0928,0.4163344 0.2796734,0.9053192 0.768437,1.2404767 0.2223613,0.1283536 0.2966361,0.2093249 0.6914046,0.1170758 0.3947683,-0.09225 0.9202237,-0.5749324 1.2275217,-1.1086679 0.3072991,-0.5337343 -0.01882,-1.613775 0.4725681,-2.0798096 0.795001,-0.75398314 3.3575,0.027724 3.280595,-0.48344929 -0.06559,-0.43594345 -1.017796,-0.56430362 -1.721161,-0.61001614 z"
         id="path33"
         sodipodi:nodetypes="zzzzssassszsszz" /><path
         style="fill:none;fill-opacity:1;stroke:#060e2d;stroke-width:0.509588;stroke-dasharray:none;stroke-opacity:1"
         d="m 9.8215869,15.691319 c 1.1360971,1.701791 1.8540671,0.974121 2.7044821,1.015993"
         id="path38"
         sodipodi:nodetypes="cc" /><path
         style="fill:none;fill-opacity:1;stroke:#060e2d;stroke-width:0.509588;stroke-dasharray:none;stroke-opacity:1"
         d="m 15.768902,15.827195 c -1.136097,1.701791 -1.854067,0.974121 -2.704482,1.015993"
         id="path39"
         sodipodi:nodetypes="cc" /></g></g></svg>
