<?xml version="1.0" encoding="UTF-8" standalone="no"?>
<!-- Created with Inkscape (http://www.inkscape.org/) -->

<svg
   width="100"
   height="100"
   viewBox="0 0 26.458333 26.458334"
   version="1.1"
   id="svg5"
   inkscape:version="1.4.2 (ebf0e940d0, 2025-05-08)"
   sodipodi:docname="mestre.svg"
   xml:space="preserve"
   xmlns:inkscape="http://www.inkscape.org/namespaces/inkscape"
   xmlns:sodipodi="http://sodipodi.sourceforge.net/DTD/sodipodi-0.dtd"
   xmlns="http://www.w3.org/2000/svg"
   xmlns:svg="http://www.w3.org/2000/svg"><sodipodi:namedview
     id="namedview7"
     pagecolor="#505050"
     bordercolor="#ffffff"
     borderopacity="1"
     inkscape:pageshadow="0"
     inkscape:pageopacity="0"
     inkscape:pagecheckerboard="1"
     inkscape:document-units="mm"
     showgrid="false"
     units="px"
     width="100px"
     inkscape:snap-global="false"
     inkscape:zoom="2.4340425"
     inkscape:cx="80.319058"
     inkscape:cy="68.404722"
     inkscape:window-width="1366"
     inkscape:window-height="697"
     inkscape:window-x="0"
     inkscape:window-y="0"
     inkscape:window-maximized="1"
     inkscape:current-layer="layer1"
     inkscape:showpageshadow="0"
     inkscape:deskcolor="#505050" /><defs
     id="defs2"><linearGradient
       id="linearGradient13895"
       inkscape:swatch="solid"><stop
         style="stop-color:#000000;stop-opacity:1;"
         offset="0"
         id="stop13893" /></linearGradient><filter
       style="color-interpolation-filters:sRGB;"
       inkscape:label="Clean Edges"
       id="filter14269"
       x="-0.31154084"
       y="-0.29580634"
       width="1.6230817"
       height="1.5916127"><feGaussianBlur
         stdDeviation="0.204612"
         result="blur"
         id="feGaussianBlur14263" /><feComposite
         in="SourceGraphic"
         in2="blur"
         operator="in"
         result="composite1"
         id="feComposite14265" /><feComposite
         in="composite1"
         in2="composite1"
         operator="in"
         result="composite2"
         id="feComposite14267" /></filter><filter
       style="color-interpolation-filters:sRGB;"
       inkscape:label="Clean Edges"
       id="filter14269-3"
       x="-0.31154084"
       y="-0.29580634"
       width="1.6230817"
       height="1.5916127"><feGaussianBlur
         stdDeviation="0.204612"
         result="blur"
         id="feGaussianBlur14263-5" /><feComposite
         in="SourceGraphic"
         in2="blur"
         operator="in"
         result="composite1"
         id="feComposite14265-6" /><feComposite
         in="composite1"
         in2="composite1"
         operator="in"
         result="composite2"
         id="feComposite14267-2" /></filter></defs><g
     inkscape:label="Camada 1"
     inkscape:groupmode="layer"
     id="layer1"><path
       id="path19"
       style="fill:#1b58b3;fill-opacity:1;stroke:#080039;stroke-width:0.766134;stroke-miterlimit:4;stroke-dasharray:none;stroke-opacity:1"
       d="m 16.45972,23.53776 -0.03152,1.948718 c -0.0071,0.43808 -0.516766,0.71434 -1.142049,0.6196 l -0.472839,-0.07131 c -0.625284,-0.09473 -1.122755,-0.524133 -1.115694,-0.962215 l 0.0248,-1.53479 z" /><path
       id="path18"
       style="fill:#1b58b3;fill-opacity:1;stroke:#080039;stroke-width:0.766134;stroke-miterlimit:4;stroke-dasharray:none;stroke-opacity:1"
       d="m 8.8998251,23.45202 0.031523,1.948718 c 0.00706,0.43808 0.5167659,0.71434 1.1420489,0.6196 l 0.47284,-0.07131 c 0.625284,-0.09473 1.122755,-0.524133 1.115694,-0.962215 l -0.0248,-1.53479 z" /><path
       id="path15"
       style="fill:#1b58b3;fill-opacity:1;stroke:#080039;stroke-width:0.766134;stroke-miterlimit:4;stroke-dasharray:none;stroke-opacity:1"
       d="m 16.954828,13.134619 c 0.38705,0.09432 0.69944,0.325535 0.788394,0.621668 l 1.225282,4.079189 c 0.02576,0.167457 0.06319,0.324158 0.09015,0.491529 l -0.06681,4.149609 c -0.0071,0.43808 -0.516543,0.714082 -1.141826,0.619342 l -0.473181,-0.071 c -0.625285,-0.09473 -1.122757,-0.524348 -1.115696,-0.96243 l 0.06154,-3.815952 c -0.02138,-0.03944 -0.03871,-0.07997 -0.05142,-0.122276 l -1.225953,-4.080105 c -0.129385,-0.430735 0.264253,-0.830546 0.881923,-0.89653 l 0.46756,-0.0502 c 0.193025,-0.02062 0.384088,-0.0056 0.560025,0.03718 z"
       sodipodi:nodetypes="ccccccccccccccc" /><path
       id="rect9714-2"
       style="fill:#1b58b3;fill-opacity:1;stroke:#080039;stroke-width:0.766134;stroke-miterlimit:4;stroke-dasharray:none;stroke-opacity:1"
       d="m 8.4319165,12.591113 c -0.3870497,0.09432 -0.6994405,0.325535 -0.788394,0.621668 L 6.4182401,17.29197 c -0.025759,0.167457 -0.06319,0.324158 -0.090151,0.491529 l 0.066813,4.149609 c 0.00706,0.43808 0.5165435,0.714082 1.1418267,0.619342 l 0.4731803,-0.071 C 8.6351939,22.38672 9.1326662,21.957102 9.125605,21.51902 L 9.064067,17.703068 c 0.021378,-0.03944 0.038705,-0.07997 0.051416,-0.122276 l 1.225953,-4.080105 c 0.129386,-0.430735 -0.264253,-0.830546 -0.8819229,-0.89653 l -0.4675598,-0.0502 c -0.1930253,-0.02062 -0.3840884,-0.0056 -0.560025,0.03718 z"
       sodipodi:nodetypes="ccccccccccccccc" /><g
       id="g15"
       transform="translate(1.0583333)"><path
         id="rect13"
         style="fill:#ffffff;stroke:#000000;stroke-width:0.8;stroke-linecap:round;stroke-dasharray:none;stroke-opacity:1"
         d="M 6.424721,12.514689 9.712743,12.998757 8.08604,19.227659 4.689317,18.037035 Z"
         sodipodi:nodetypes="ccccc" /><path
         id="rect15"
         style="stroke-width:0.388882;stroke-linecap:round"
         transform="matrix(0.97421697,0.22561315,-0.11717576,0.99311119,0,0)"
         d="m 7.4647706,13.685385 3.2214004,0.178886 v 1.658188 H 6.6773458 Z"
         sodipodi:nodetypes="ccccc" /></g><g
       id="g17"
       transform="matrix(-1,0,0,1,24.647767,0.35327889)"><path
         id="path16"
         style="fill:#ffffff;stroke:#000000;stroke-width:0.8;stroke-linecap:round;stroke-dasharray:none;stroke-opacity:1"
         d="M 6.424721,12.514689 9.712743,12.998757 8.08604,19.227659 4.689317,18.037035 Z"
         sodipodi:nodetypes="ccccc" /><path
         id="path17"
         style="stroke-width:0.388882;stroke-linecap:round"
         transform="matrix(0.97421697,0.22561315,-0.11717576,0.99311119,0,0)"
         d="m 7.4647706,13.685385 3.2214004,0.178886 v 1.658188 H 6.6773458 Z"
         sodipodi:nodetypes="ccccc" /></g><path
       id="rect9738-7"
       style="fill:#ffffff;fill-opacity:1;stroke:#000000;stroke-width:0.626109;stroke-miterlimit:4;stroke-dasharray:none;stroke-opacity:1"
       d="m 9.3635768,12.78203 -0.4349437,9.551885 -0.6307407,3.260276 4.3926656,-0.580807 4.482844,0.6169 -0.71499,-3.320246 -0.407753,-9.528015 z"
       sodipodi:nodetypes="cccccccc" /><ellipse
       style="fill:#4c5d60;fill-opacity:1;stroke:none;stroke-width:0.416179;stroke-miterlimit:4;stroke-dasharray:none;stroke-opacity:1"
       id="ellipse9"
       cx="16.60334"
       cy="12.005149"
       rx="3.1569965"
       ry="2.0881114"
       transform="matrix(0.98154742,0.19121889,-0.29219266,0.95635948,0,0)" /><ellipse
       style="fill:#113363;fill-opacity:1;stroke:#090042;stroke-width:0.509;stroke-miterlimit:4;stroke-dasharray:none;stroke-opacity:1"
       id="path11105-0"
       cx="12.739936"
       cy="12.957311"
       rx="2.3867757"
       ry="2.1036232" /><ellipse
       style="fill:#1f59af;fill-opacity:1;stroke:#080039;stroke-width:1.02226;stroke-miterlimit:4;stroke-dasharray:none;stroke-opacity:1"
       id="ellipse3"
       cx="12.838557"
       cy="8.6834278"
       rx="5.165153"
       ry="5.0375562" /><ellipse
       style="fill:#113363;fill-opacity:1;stroke:none;stroke-width:0.687567;stroke-miterlimit:4;stroke-dasharray:none;stroke-opacity:1"
       id="ellipse2"
       cx="14.389403"
       cy="4.776073"
       rx="4.7029848"
       ry="3.8258147"
       transform="matrix(0.97101359,0.23902428,-0.23502415,0.97198953,0,0)" /><g
       id="g2"
       transform="matrix(0.90761652,0,0,0.84679642,2.2602653,1.4044181)"><path
         id="path12"
         style="fill:#ffffff;fill-opacity:1;stroke:#002865;stroke-width:0.560863;stroke-miterlimit:4;stroke-dasharray:none;stroke-opacity:1"
         d="M 7.8589281,9.7370337 C 7.6378864,9.2720897 7.4892064,8.5231511 7.4892008,7.9646517 c 9.84e-5,-1.5644282 0.9060674,-2.8325801 2.023611,-2.8325985 1.1175452,1.86e-5 2.0235152,1.2681703 2.0236132,2.8325985 -6e-6,0.5584993 -0.117941,1.2450064 -0.338984,1.7099505 -1.027335,0.3661688 -2.1578709,0.3327968 -3.3385129,0.062431 z"
         sodipodi:nodetypes="cccccc" /><ellipse
         style="fill:#000000;fill-opacity:1;stroke:none;stroke-width:1.44338"
         id="ellipse31"
         cx="9.454401"
         cy="8.1129742"
         rx="1.5012131"
         ry="1.5897816" /><path
         id="path36"
         style="fill:#171717;fill-opacity:1;stroke:none;stroke-width:1.44338"
         d="M 8.5651325,6.8320749 A 1.5012129,1.5897816 0 0 0 7.953437,8.1131465 1.5012129,1.5897816 0 0 0 9.4547456,9.7028494 1.5012129,1.5897816 0 0 0 10.720035,8.9681488 1.5012129,1.5897816 0 0 1 9.8311196,9.2767804 1.5012129,1.5897816 0 0 1 8.3298121,7.6870774 1.5012129,1.5897816 0 0 1 8.5651325,6.8320749 Z" /><ellipse
         style="fill:#ffffff;fill-opacity:1;stroke:none;stroke-width:0.608423"
         id="ellipse36"
         cx="9.62325"
         cy="7.0617681"
         rx="0.58081633"
         ry="0.73009682" /><path
         id="path42"
         style="fill:#ffffff;fill-opacity:1;stroke:#002865;stroke-width:0.560863;stroke-miterlimit:4;stroke-dasharray:none;stroke-opacity:1"
         d="m 12.63105,9.4823513 c -0.221042,-0.464944 -0.369722,-1.2138826 -0.369727,-1.772382 9.8e-5,-1.5644282 0.906067,-2.8325801 2.023611,-2.8325985 1.117545,1.86e-5 2.023514,1.2681703 2.023612,2.8325985 -6e-6,0.5584993 -0.117941,1.2450064 -0.338983,1.7099505 -1.027335,0.3661693 -2.157871,0.3327973 -3.338513,0.062431 z"
         sodipodi:nodetypes="cccccc" /><ellipse
         style="fill:#000000;fill-opacity:1;stroke:none;stroke-width:1.44338"
         id="ellipse42"
         cx="14.335224"
         cy="7.8439531"
         rx="1.5012131"
         ry="1.5897816" /><path
         id="path43"
         style="fill:#171717;fill-opacity:1;stroke:none;stroke-width:1.44338"
         d="m 13.445956,6.5630532 a 1.5012129,1.5897816 0 0 0 -0.611695,1.2810716 1.5012129,1.5897816 0 0 0 1.501309,1.5897029 1.5012129,1.5897816 0 0 0 1.265289,-0.7347006 1.5012129,1.5897816 0 0 1 -0.888915,0.3086316 1.5012129,1.5897816 0 0 1 -1.501308,-1.589703 1.5012129,1.5897816 0 0 1 0.23532,-0.8550025 z" /><ellipse
         style="fill:#ffffff;fill-opacity:1;stroke:none;stroke-width:0.608423"
         id="ellipse43"
         cx="14.407992"
         cy="6.7927465"
         rx="0.58081633"
         ry="0.73009682" /></g><path
       id="path2"
       style="fill:#8a6019;stroke:#37260a;stroke-width:1.06924;stroke-linecap:round;stroke-dasharray:none"
       inkscape:transform-center-x="-0.00059990021"
       inkscape:transform-center-y="-0.97580667"
       d="M 21.748184,6.6683569 C 16.640536,8.0384878 11.290715,8.7270165 4.9651155,6.6691929 L 13.124499,0.81268028 Z"
       sodipodi:nodetypes="cccc" /><path
       id="path8"
       style="fill:#ca8d25;fill-opacity:1;stroke:none;stroke-width:0.863098;stroke-linecap:round;stroke-dasharray:none"
       inkscape:transform-center-x="-0.00048157237"
       inkscape:transform-center-y="-0.7913248"
       d="M 13.229587,1.5276314 6.6733975,6.2772123 c 1.448219,0.4755058 2.832644,0.769833 4.1671875,0.9224243 a 6.7394743,5.8155141 0 0 1 -0.03049,-0.5560384 6.7394743,5.8155141 0 0 1 2.905249,-4.7826538 z" /><path
       style="fill:none;fill-opacity:1;stroke:#37260a;stroke-width:0.557296;stroke-linecap:round;stroke-dasharray:none;stroke-opacity:1"
       d="M 7.7356045,6.1129696 13.086194,1.2515362"
       id="path3"
       sodipodi:nodetypes="cc" /><path
       style="fill:none;fill-opacity:1;stroke:#37260a;stroke-width:0.557296;stroke-linecap:round;stroke-dasharray:none;stroke-opacity:1"
       d="M 18.562017,6.1809079 13.265779,1.5097016"
       id="path4"
       sodipodi:nodetypes="cc" /><path
       style="fill:none;fill-opacity:1;stroke:#37260a;stroke-width:0.557296;stroke-linecap:round;stroke-dasharray:none;stroke-opacity:1"
       d="M 9.8960405,6.4798361 13.208483,1.3738251"
       id="path5"
       sodipodi:nodetypes="cc" /><path
       style="fill:none;fill-opacity:1;stroke:#37260a;stroke-width:0.557296;stroke-linecap:round;stroke-dasharray:none;stroke-opacity:1"
       d="M 16.143414,6.6428879 13.129902,1.5640521"
       id="path6"
       sodipodi:nodetypes="cc" /><path
       style="fill:none;fill-opacity:1;stroke:#37260a;stroke-width:0.557296;stroke-linecap:round;stroke-dasharray:none;stroke-opacity:1"
       d="M 14.146029,6.6972385 13.021201,1.6727534"
       id="path7"
       sodipodi:nodetypes="cc" /><path
       style="fill:none;fill-opacity:1;stroke:#090042;stroke-width:0.753447;stroke-linecap:round;stroke-dasharray:none;stroke-opacity:1"
       d="m 10.853201,11.615276 c 0,0 -1.4526711,1.954334 -1.5361943,3.059922 -0.1206706,1.59731 2.9391703,3.546863 1.5361943,4.623144 -0.323043,0.24782 -1.221078,-0.399121 -1.221078,-0.399121"
       id="path9"
       sodipodi:nodetypes="cssc" /><path
       style="fill:none;fill-opacity:1;stroke:#090042;stroke-width:0.766286;stroke-linecap:round;stroke-dasharray:none;stroke-opacity:1"
       d="m 14.063215,11.693504 c 0,0 1.770653,1.823142 2.05082,2.954475 0.404771,1.634504 -2.23552,4.063702 -0.671113,4.986089 0.360214,0.212386 1.121689,-0.577831 1.121689,-0.577831"
       id="path10"
       sodipodi:nodetypes="cssc" /><path
       id="rect19"
       style="fill:#4c5d60;stroke-width:0.828;stroke-linecap:round"
       d="m 9.1097689,22.559393 7.0714301,-0.153726 0.5854,2.828025 -3.160323,-1.867233 z"
       sodipodi:nodetypes="ccccc" /><rect
       style="fill:#000000;fill-opacity:1;stroke:none;stroke-width:0.515093;stroke-linecap:round;stroke-dasharray:none;stroke-opacity:1"
       id="rect12"
       width="7.2251554"
       height="1.6141304"
       x="9.1181068"
       y="20.967113" /></g></svg>
