<?xml version="1.0" encoding="UTF-8" standalone="no"?>
<!-- Created with Inkscape (http://www.inkscape.org/) -->

<svg
   width="100"
   height="100"
   viewBox="0 0 26.458333 26.458334"
   version="1.1"
   id="svg5"
   inkscape:version="1.4.2 (ebf0e940d0, 2025-05-08)"
   sodipodi:docname="picalo.svg"
   xml:space="preserve"
   xmlns:inkscape="http://www.inkscape.org/namespaces/inkscape"
   xmlns:sodipodi="http://sodipodi.sourceforge.net/DTD/sodipodi-0.dtd"
   xmlns="http://www.w3.org/2000/svg"
   xmlns:svg="http://www.w3.org/2000/svg"><sodipodi:namedview
     id="namedview7"
     pagecolor="#505050"
     bordercolor="#ffffff"
     borderopacity="1"
     inkscape:pageshadow="0"
     inkscape:pageopacity="0"
     inkscape:pagecheckerboard="1"
     inkscape:document-units="mm"
     showgrid="false"
     units="px"
     width="100px"
     inkscape:snap-global="false"
     inkscape:zoom="4.868085"
     inkscape:cx="33.791522"
     inkscape:cy="49.197991"
     inkscape:window-width="1366"
     inkscape:window-height="697"
     inkscape:window-x="0"
     inkscape:window-y="0"
     inkscape:window-maximized="1"
     inkscape:current-layer="layer1"
     inkscape:showpageshadow="0"
     inkscape:deskcolor="#505050"
     showguides="true" /><defs
     id="defs2"><linearGradient
       id="linearGradient13895"
       inkscape:swatch="solid"><stop
         style="stop-color:#000000;stop-opacity:1;"
         offset="0"
         id="stop13893" /></linearGradient><filter
       style="color-interpolation-filters:sRGB;"
       inkscape:label="Clean Edges"
       id="filter14269"
       x="-0.31154084"
       y="-0.29580634"
       width="1.6230817"
       height="1.5916127"><feGaussianBlur
         stdDeviation="0.204612"
         result="blur"
         id="feGaussianBlur14263" /><feComposite
         in="SourceGraphic"
         in2="blur"
         operator="in"
         result="composite1"
         id="feComposite14265" /><feComposite
         in="composite1"
         in2="composite1"
         operator="in"
         result="composite2"
         id="feComposite14267" /></filter><filter
       style="color-interpolation-filters:sRGB;"
       inkscape:label="Clean Edges"
       id="filter14269-3"
       x="-0.31154084"
       y="-0.29580634"
       width="1.6230817"
       height="1.5916127"><feGaussianBlur
         stdDeviation="0.204612"
         result="blur"
         id="feGaussianBlur14263-5" /><feComposite
         in="SourceGraphic"
         in2="blur"
         operator="in"
         result="composite1"
         id="feComposite14265-6" /><feComposite
         in="composite1"
         in2="composite1"
         operator="in"
         result="composite2"
         id="feComposite14267-2" /></filter><inkscape:path-effect
       effect="fillet_chamfer"
       id="path-effect68"
       is_visible="true"
       lpeversion="1"
       nodesatellites_param="F,0,0,1,0,0,0,1 @ F,0,0,1,0,0,0,1 @ F,0,0,1,0,0,0,1 @ F,0,0,1,0,0,0,1 @ F,0,0,1,0,0,0,1 @ F,0,0,1,0,0,0,1 @ F,0,0,1,0,0,0,1 @ F,0,0,1,0,0,0,1 @ F,0,0,1,0,0,0,1"
       radius="0"
       unit="px"
       method="auto"
       mode="F"
       chamfer_steps="1"
       flexible="false"
       use_knot_distance="true"
       apply_no_radius="true"
       apply_with_radius="true"
       only_selected="false"
       hide_knots="false" /><inkscape:path-effect
       effect="fillet_chamfer"
       id="path-effect66"
       is_visible="true"
       lpeversion="1"
       nodesatellites_param="F,0,0,1,0,0,0,1 @ F,0,0,1,0,0.44929322,0,1 @ F,0,0,1,0,0.44929322,0,1 @ F,0,0,1,0,0,0,1 @ F,0,0,1,0,0,0,1 @ F,0,0,1,0,0,0,1 @ F,0,0,1,0,0,0,1 @ F,0,0,1,0,0,0,1 @ F,0,0,1,0,0,0,1 @ F,0,0,1,0,0,0,1"
       radius="0"
       unit="px"
       method="auto"
       mode="F"
       chamfer_steps="1"
       flexible="false"
       use_knot_distance="true"
       apply_no_radius="true"
       apply_with_radius="true"
       only_selected="false"
       hide_knots="false" /><filter
       style="color-interpolation-filters:sRGB;"
       inkscape:label="Clean Edges"
       id="filter14269-35"
       x="-0.31154084"
       y="-0.29580634"
       width="1.6230817"
       height="1.5916127"><feGaussianBlur
         stdDeviation="0.204612"
         result="blur"
         id="feGaussianBlur14263-6" /><feComposite
         in="SourceGraphic"
         in2="blur"
         operator="in"
         result="composite1"
         id="feComposite14265-2" /><feComposite
         in="composite1"
         in2="composite1"
         operator="in"
         result="composite2"
         id="feComposite14267-9" /></filter><inkscape:path-effect
       effect="fillet_chamfer"
       id="path-effect68-1"
       is_visible="true"
       lpeversion="1"
       nodesatellites_param="F,0,0,1,0,0,0,1 @ F,0,0,1,0,0,0,1 @ F,0,0,1,0,0,0,1 @ F,0,0,1,0,0,0,1 @ F,0,0,1,0,0,0,1 @ F,0,0,1,0,0,0,1 @ F,0,0,1,0,0,0,1 @ F,0,0,1,0,0,0,1 @ F,0,0,1,0,0,0,1"
       radius="0"
       unit="px"
       method="auto"
       mode="F"
       chamfer_steps="1"
       flexible="false"
       use_knot_distance="true"
       apply_no_radius="true"
       apply_with_radius="true"
       only_selected="false"
       hide_knots="false" /><inkscape:path-effect
       effect="fillet_chamfer"
       id="path-effect66-2"
       is_visible="true"
       lpeversion="1"
       nodesatellites_param="F,0,0,1,0,0,0,1 @ F,0,0,1,0,0.44929322,0,1 @ F,0,0,1,0,0.44929322,0,1 @ F,0,0,1,0,0,0,1 @ F,0,0,1,0,0,0,1 @ F,0,0,1,0,0,0,1 @ F,0,0,1,0,0,0,1 @ F,0,0,1,0,0,0,1 @ F,0,0,1,0,0,0,1 @ F,0,0,1,0,0,0,1"
       radius="0"
       unit="px"
       method="auto"
       mode="F"
       chamfer_steps="1"
       flexible="false"
       use_knot_distance="true"
       apply_no_radius="true"
       apply_with_radius="true"
       only_selected="false"
       hide_knots="false" /></defs><g
     inkscape:label="Camada 1"
     inkscape:groupmode="layer"
     id="layer1"><path
       id="path9"
       style="fill:#c23b00;fill-opacity:1;stroke:#371100;stroke-width:0.416336;stroke-dasharray:none;stroke-opacity:1"
       d="m 7.563446,17.886692 c 0.84965,-0.03664 -1.109733,0.810772 -1.94215,1.091233 -0.5247,0.176783 -0.806692,-0.975052 -0.607138,-1.87129 0.199554,-0.896237 1.258916,-1.959715 1.329787,-1.374273 0.213521,1.763815 1.054839,2.161431 1.219501,2.15433 z"
       sodipodi:nodetypes="sssss" /><path
       id="path7"
       style="fill:#c23b00;fill-opacity:1;stroke:#371100;stroke-width:0.416336;stroke-dasharray:none;stroke-opacity:1"
       d="m 18.252795,17.995393 c -0.84965,-0.03664 1.109733,0.810772 1.94215,1.091233 0.5247,0.176783 0.806692,-0.975052 0.607138,-1.87129 -0.199554,-0.896237 -1.258916,-1.959715 -1.329787,-1.374273 -0.213521,1.763815 -1.054839,2.161431 -1.219501,2.15433 z"
       sodipodi:nodetypes="sssss" /><path
       id="path6"
       style="fill:#c23b00;fill-opacity:1;stroke:#371100;stroke-width:0.696;stroke-dasharray:none;stroke-opacity:1"
       d="M 17.558486,6.1919767 C 16.086818,6.1328577 19.48064,7.5001305 20.92246,7.9526443 21.831286,8.2378786 22.319722,6.3794305 21.974077,4.9333815 21.628432,3.4873325 19.793523,1.7714453 19.670768,2.7160377 19.300932,5.561893 17.843695,6.203434 17.558486,6.1919767 Z"
       sodipodi:nodetypes="sssss" /><path
       style="fill:none;fill-opacity:1;stroke:#371100;stroke-width:0.464992;stroke-linecap:round;stroke-dasharray:none;stroke-opacity:1"
       d="m 18.081059,6.6899846 c 1.330852,-0.5246745 2.331593,-0.4219257 3.1391,0.048094"
       id="path25"
       sodipodi:nodetypes="cc" /><path
       style="fill:none;fill-opacity:1;stroke:#371100;stroke-width:0.464992;stroke-linecap:round;stroke-dasharray:none;stroke-opacity:1"
       d="m 18.156471,6.2734643 c 1.37302,-0.4015805 2.100549,-1.096376 2.450233,-1.9628099"
       id="path24"
       sodipodi:nodetypes="cc" /><path
       id="path2"
       style="fill:#c23b00;fill-opacity:1;stroke:#371100;stroke-width:0.696;stroke-dasharray:none;stroke-opacity:1"
       d="M 8.2811326,6.6531569 C 9.7527997,6.5940378 6.3589781,7.9613107 4.9171586,8.4138245 4.0083325,8.6990588 3.5198962,6.8406107 3.8655413,5.3945617 4.2111865,3.9485127 6.0460952,2.2326255 6.1688504,3.1772179 6.5386857,6.0230732 7.9959232,6.6646142 8.2811326,6.6531569 Z"
       sodipodi:nodetypes="sssss" /><path
       id="path1"
       style="fill:#006f4c;fill-opacity:1;stroke:#001e14;stroke-width:0.72132;stroke-miterlimit:4;stroke-dasharray:none;stroke-opacity:1"
       d="m 17.113786,13.25042 c 0.359949,0.0899 0.650467,0.310291 0.733192,0.592557 l 1.139491,3.888174 c 0.02396,0.159615 0.05877,0.308978 0.08384,0.468512 l -0.06213,3.955296 c -0.0066,0.417566 -0.480375,0.680643 -1.061878,0.59034 l -0.440049,-0.06768 c -0.581504,-0.09029 -1.044144,-0.499794 -1.037578,-0.917362 l 0.05723,-3.637263 c -0.01988,-0.03759 -0.036,-0.07623 -0.04782,-0.11655 L 15.33797,14.117398 c -0.120326,-0.410565 0.24575,-0.791654 0.820172,-0.854549 l 0.434823,-0.04785 c 0.179509,-0.01965 0.357195,-0.0053 0.520813,0.03544 z"
       sodipodi:nodetypes="ccccccccccccccc" /><path
       id="rect9714"
       style="fill:#006f4c;fill-opacity:1;stroke:#001e14;stroke-width:0.72132;stroke-miterlimit:4;stroke-dasharray:none;stroke-opacity:1"
       d="m 8.6425763,13.232978 c -0.3599493,0.0899 -0.6504672,0.310291 -0.7331923,0.592557 l -1.1394907,3.888174 c -0.023955,0.159615 -0.058766,0.308978 -0.083839,0.468512 l 0.062135,3.955295 c 0.00657,0.417566 0.4803762,0.680644 1.0618783,0.590341 l 0.4400493,-0.06768 c 0.5815036,-0.09029 1.044144,-0.499794 1.0375772,-0.917362 l -0.057229,-3.637263 c 0.019881,-0.03759 0.035995,-0.07622 0.047816,-0.11655 L 10.418396,14.09996 c 0.120325,-0.410565 -0.245751,-0.791655 -0.8201737,-0.854549 l -0.4348218,-0.04785 c -0.1795101,-0.01965 -0.3571954,-0.0053 -0.5208132,0.03544 z"
       sodipodi:nodetypes="ccccccccccccccc" /><path
       id="rect9738"
       style="fill:#006f4c;fill-opacity:1;stroke:#001e14;stroke-width:0.610937;stroke-miterlimit:4;stroke-dasharray:none;stroke-opacity:1"
       d="m 12.813745,11.421487 c -1.159157,1.96e-4 -2.12297,0.806094 -2.212598,1.850077 l -1.2416786,-0.0518 0.2901857,6.361923 c 3.1490079,2.313114 4.6363579,1.315972 6.6118429,-0.0505 l -0.0082,-6.259613 h -1.22649 c -0.08964,-1.044149 -1.053736,-1.850108 -2.213078,-1.850077 z"
       sodipodi:nodetypes="ccccccccc" /><rect
       style="fill:#006f4c;fill-opacity:1;stroke:#001e14;stroke-width:0.515244;stroke-opacity:1"
       id="rect46"
       width="2.7630162"
       height="6.2452369"
       x="9.5286579"
       y="19.933802"
       ry="1.098917" /><rect
       style="fill:#006f4c;fill-opacity:1;stroke:#001e14;stroke-width:0.52359;stroke-opacity:1"
       id="rect47"
       width="2.887094"
       height="6.1720309"
       x="13.017251"
       y="19.955019"
       ry="1.0860356" /><path
       id="path47"
       style="fill:#00452f;fill-opacity:1;stroke-width:0.423167"
       d="m 10.543308,20.794845 h 0.682013 c 0.458909,0 0.828356,0.390936 0.828356,0.876537 v 3.228359 c 0,0.485601 -0.329955,0.529102 -0.779398,0.627223 L 10.48823,25.698569 C 10.038786,25.79669 9.7149509,25.385342 9.7149509,24.899741 v -3.228359 c 0,-0.485601 0.3694471,-0.876537 0.8283571,-0.876537 z"
       sodipodi:nodetypes="sssssssss" /><path
       id="path48"
       style="fill:#00452f;fill-opacity:1;stroke-width:0.428845"
       d="m 14.103842,20.872554 h 0.700438 c 0.471307,0 0.850734,0.390935 0.850734,0.876537 v 3.228358 c 0,0.485602 -0.338868,0.529103 -0.800454,0.627223 l -0.807284,0.171606 c -0.461585,0.09812 -0.794168,-0.313227 -0.794168,-0.798829 v -3.228358 c 0,-0.485602 0.379427,-0.876537 0.850734,-0.876537 z"
       sodipodi:nodetypes="sssssssss" /><path
       id="path8"
       style="fill:#ffffff;fill-opacity:1;stroke:#282828;stroke-width:0.588433;stroke-miterlimit:4;stroke-dasharray:none;stroke-opacity:1"
       d="m 9.6159854,19.635675 -0.213021,4.521199 1.7591256,-0.800541 1.250281,1.101758 1.21945,0.01341 0.998695,-1.064471 1.672091,0.972818 -0.04573,-4.744177 z"
       sodipodi:nodetypes="ccccccccc" /><ellipse
       style="fill:#00452f;fill-opacity:1;stroke:none;stroke-width:0.215293;stroke-miterlimit:4;stroke-dasharray:none;stroke-opacity:1"
       id="ellipse49"
       cx="12.865875"
       cy="13.057497"
       rx="1.873114"
       ry="1.2992667" /><path
       style="fill:none;fill-opacity:1;stroke:#001e14;stroke-width:0.528829;stroke-dasharray:none;stroke-opacity:1;stroke-linecap:round"
       d="m 9.3914494,14.040962 c 0,0 0.127774,1.340987 0.7105576,1.742093 0.444484,0.305919 2.263966,0.198905 2.263966,0.198905"
       id="path23"
       sodipodi:nodetypes="csc" /><g
       id="g29"
       transform="matrix(0.28728193,0,0,-0.28722045,1.0699981,28.362614)"
       style="fill:#001e14;fill-opacity:1"><ellipse
         style="fill:#001e14;fill-opacity:1;stroke:none;stroke-width:1.6332;stroke-dasharray:none;stroke-opacity:1"
         id="path28"
         cx="35.288403"
         cy="41.778561"
         rx="1.6525621"
         ry="1.2682455" /><ellipse
         style="fill:#001e14;fill-opacity:1;stroke:none;stroke-width:1.24266;stroke-dasharray:none;stroke-opacity:1"
         id="ellipse28"
         cx="35.326832"
         cy="41.804771"
         rx="1.1913821"
         ry="1.0184395" /><ellipse
         style="fill:#001e14;fill-opacity:1;stroke:none;stroke-width:0.946814;stroke-dasharray:none;stroke-opacity:1"
         id="ellipse29"
         cx="35.04314"
         cy="41.491093"
         rx="0.87090665"
         ry="0.80879658" /></g><path
       style="fill:none;fill-opacity:1;stroke:#001e14;stroke-width:0.528829;stroke-dasharray:none;stroke-opacity:1;stroke-linecap:round"
       d="m 16.240417,14.092768 c 0,0 -0.127774,1.340987 -0.710557,1.742092 -0.444484,0.305919 -2.263964,0.198906 -2.263964,0.198906"
       id="path14"
       sodipodi:nodetypes="csc" /><g
       id="g16"
       transform="matrix(-0.28728193,0,0,-0.28722045,24.192392,28.343184)"
       style="fill:#001e14;fill-opacity:1"><ellipse
         style="fill:#001e14;fill-opacity:1;stroke:none;stroke-width:1.6332;stroke-dasharray:none;stroke-opacity:1"
         id="ellipse14"
         cx="35.288403"
         cy="41.778561"
         rx="1.6525621"
         ry="1.2682455" /><ellipse
         style="fill:#001e14;fill-opacity:1;stroke:none;stroke-width:1.24266;stroke-dasharray:none;stroke-opacity:1"
         id="ellipse15"
         cx="35.326832"
         cy="41.804771"
         rx="1.1913821"
         ry="1.0184395" /><ellipse
         style="fill:#001e14;fill-opacity:1;stroke:none;stroke-width:0.946814;stroke-dasharray:none;stroke-opacity:1"
         id="ellipse16"
         cx="35.04314"
         cy="41.491093"
         rx="0.87090665"
         ry="0.80879658" /></g><g
       id="g19"
       transform="matrix(0.28728193,0,0,-0.28722045,2.8635679,30.862742)"
       style="fill:#001e14;fill-opacity:1"><ellipse
         style="fill:#001e14;fill-opacity:1;stroke:none;stroke-width:1.6332;stroke-dasharray:none;stroke-opacity:1"
         id="ellipse17"
         cx="35.288403"
         cy="41.778561"
         rx="1.6525621"
         ry="1.2682455" /><ellipse
         style="fill:#001e14;fill-opacity:1;stroke:none;stroke-width:1.24266;stroke-dasharray:none;stroke-opacity:1"
         id="ellipse18"
         cx="35.326832"
         cy="41.804771"
         rx="1.1913821"
         ry="1.0184395" /><ellipse
         style="fill:#001e14;fill-opacity:1;stroke:none;stroke-width:0.946814;stroke-dasharray:none;stroke-opacity:1"
         id="ellipse19"
         cx="35.04314"
         cy="41.491093"
         rx="0.87090665"
         ry="0.80879658" /></g><rect
       style="fill:#ffffff;fill-opacity:1;stroke:#282828;stroke-width:0.551817;stroke-linecap:round;stroke-dasharray:none;stroke-opacity:1"
       id="rect18"
       width="6.7858033"
       height="1.0572633"
       x="9.560688"
       y="19.193825"
       ry="0.52863163" /><path
       style="fill:#b4adbf;fill-opacity:1;stroke:none;stroke-width:0.529841;stroke-linecap:round;stroke-dasharray:none;stroke-opacity:1"
       d="m 12.283453,20.62279 3.664097,-0.06695 0.0172,3.197066 -1.410591,-0.769975 -1.03214,1.071269 z"
       id="path18" /><path
       style="fill:none;fill-opacity:1;stroke:#371100;stroke-width:0.464992;stroke-linecap:round;stroke-dasharray:none;stroke-opacity:1"
       d="M 7.8261487,6.789795 C 6.4531289,6.3882145 5.7255998,5.693419 5.3759161,4.8269851"
       id="path20"
       sodipodi:nodetypes="cc" /><path
       style="fill:none;fill-opacity:1;stroke:#371100;stroke-width:0.464992;stroke-linecap:round;stroke-dasharray:none;stroke-opacity:1"
       d="M 7.9015608,7.2063153 C 6.5707088,6.6816408 5.569968,6.7843896 4.7624606,7.254409"
       id="path21"
       sodipodi:nodetypes="cc" /><path
       style="fill:none;fill-opacity:1;stroke:#371100;stroke-width:0.464992;stroke-linecap:round;stroke-dasharray:none;stroke-opacity:1"
       d="M 7.5008639,7.2999802 C 6.4889079,6.2888445 5.5299873,5.9846887 4.6021102,6.0943725"
       id="path22"
       sodipodi:nodetypes="cc" /><path
       style="fill:none;fill-opacity:1;stroke:#371100;stroke-width:0.464992;stroke-linecap:round;stroke-dasharray:none;stroke-opacity:1"
       d="M 18.481756,6.7836495 C 19.493712,5.7725138 20.452632,5.468358 21.380509,5.5780418"
       id="path26"
       sodipodi:nodetypes="cc" /><path
       id="ellipse3"
       style="fill:#00432e;fill-opacity:1;stroke:#001e14;stroke-width:0.837515;stroke-miterlimit:4;stroke-dasharray:none;stroke-opacity:1"
       d="M 12.839148,0.72439579 C 11.701472,0.7245095 10.538324,1.1893057 10.224346,2.1794128 8.3137541,3.1294004 7.267972,5.3018381 7.2679114,7.4419307 7.2678016,10.551551 9.7792566,13.072474 12.877374,13.072539 15.975491,13.072473 18.486945,10.551551 18.486835,7.4419307 18.486775,5.26542 17.454312,3.0936493 15.494268,2.1626028 15.164112,1.1944251 13.958231,0.72433275 12.839148,0.72439579 Z"
       sodipodi:nodetypes="ccccccc" /><ellipse
       style="fill:#006f4c;fill-opacity:1;stroke:none;stroke-width:0.296652;stroke-miterlimit:4;stroke-dasharray:none;stroke-opacity:1"
       id="ellipse4"
       cx="13.076327"
       cy="7.077292"
       rx="4.9461136"
       ry="4.9713206" /><ellipse
       style="fill:#00c285;fill-opacity:1;stroke:none;stroke-width:0.84444;stroke-dasharray:none;stroke-opacity:1"
       id="ellipse8-6"
       cx="5.8966022"
       cy="14.121761"
       rx="3.0567937"
       ry="4.0919609"
       transform="matrix(0.72969412,-0.68377371,0.69732971,0.71675049,0,0)" /><g
       id="g2"><path
         id="path12-1"
         style="fill:#ffffff;fill-opacity:1;stroke:#001e14;stroke-width:0.511748;stroke-miterlimit:4;stroke-dasharray:none;stroke-opacity:1"
         d="M 9.3996388,4.8387271 C 9.0669743,5.1313784 8.730353,5.6688081 8.5858446,6.1048778 8.1811679,7.3264013 8.7234727,8.6049977 9.7971605,8.9608057 10.870858,9.3165849 12.069392,8.6148571 12.474256,7.3933959 12.618753,6.9573225 12.683069,6.3837565 12.590996,5.9503583 11.698714,5.337383 10.603906,5.0035101 9.3996388,4.8387271 Z"
         sodipodi:nodetypes="cccccc" /><ellipse
         style="fill:#001e14;fill-opacity:1;stroke:none;stroke-width:1.44338"
         id="ellipse31-8"
         cx="10.476668"
         cy="7.01267"
         rx="1.5012131"
         ry="1.5897816" /><path
         id="path36-7"
         style="fill:#00432e;fill-opacity:1;stroke:none;stroke-width:1.44338"
         d="M 9.5873992,5.7317701 A 1.5012129,1.5897816 0 0 0 8.9757042,7.0128417 1.5012129,1.5897816 0 0 0 10.477014,8.6025446 1.5012129,1.5897816 0 0 0 11.742303,7.867844 1.5012129,1.5897816 0 0 1 10.853388,8.1764756 1.5012129,1.5897816 0 0 1 9.3520792,6.5867726 1.5012129,1.5897816 0 0 1 9.5873992,5.7317701 Z" /><ellipse
         style="fill:#ffffff;fill-opacity:1;stroke:none;stroke-width:0.608423"
         id="ellipse36-9"
         cx="11.175435"
         cy="6.3555055"
         rx="0.58081633"
         ry="0.73009682" /></g><g
       id="g6"
       transform="matrix(-1,0,0,1,26.046189,0)"><path
         id="path3"
         style="fill:#ffffff;fill-opacity:1;stroke:#001e14;stroke-width:0.511748;stroke-miterlimit:4;stroke-dasharray:none;stroke-opacity:1"
         d="M 9.3996388,4.8387271 C 9.0669743,5.1313784 8.730353,5.6688081 8.5858446,6.1048778 8.1811679,7.3264013 8.7234727,8.6049977 9.7971605,8.9608057 10.870858,9.3165849 12.069392,8.6148571 12.474256,7.3933959 12.618753,6.9573225 12.683069,6.3837565 12.590996,5.9503583 11.698714,5.337383 10.603906,5.0035101 9.3996388,4.8387271 Z"
         sodipodi:nodetypes="cccccc" /><ellipse
         style="fill:#001e14;fill-opacity:1;stroke:none;stroke-width:1.44338"
         id="ellipse5"
         cx="10.476668"
         cy="7.01267"
         rx="1.5012131"
         ry="1.5897816" /><path
         id="path5"
         style="fill:#00432e;fill-opacity:1;stroke:none;stroke-width:1.44338"
         d="M 9.5873992,5.7317701 A 1.5012129,1.5897816 0 0 0 8.9757042,7.0128417 1.5012129,1.5897816 0 0 0 10.477014,8.6025446 1.5012129,1.5897816 0 0 0 11.742303,7.867844 1.5012129,1.5897816 0 0 1 10.853388,8.1764756 1.5012129,1.5897816 0 0 1 9.3520792,6.5867726 1.5012129,1.5897816 0 0 1 9.5873992,5.7317701 Z" /><ellipse
         style="fill:#ffffff;fill-opacity:1;stroke:none;stroke-width:0.608423"
         id="ellipse6"
         cx="11.175435"
         cy="6.3555055"
         rx="0.58081633"
         ry="0.73009682" /></g><ellipse
       style="fill:#c23b00;fill-opacity:1;stroke:#371100;stroke-width:0.396;stroke-dasharray:none;stroke-opacity:1"
       id="path11"
       cx="11.943352"
       cy="-1.8487698"
       rx="0.67938244"
       ry="1.0190737"
       transform="rotate(23.585442)" /><ellipse
       style="fill:#c23b00;fill-opacity:1;stroke:#371100;stroke-width:0.396;stroke-dasharray:none;stroke-opacity:1"
       id="ellipse11"
       cx="-11.9267"
       cy="8.5429258"
       rx="0.67938244"
       ry="1.0190737"
       transform="matrix(-0.91646442,0.40011619,0.40011619,0.91646442,0,0)" /><path
       style="fill:none;fill-opacity:1;stroke:#001e14;stroke-width:0.569927;stroke-linecap:round;stroke-dasharray:none;stroke-opacity:1"
       d="m 12.371859,11.79838 c 1.253588,-1.168362 2.444545,-1.48526 3.598842,-1.303743"
       id="path12"
       sodipodi:nodetypes="cc" /></g></svg>
