<?xml version="1.0" encoding="UTF-8" standalone="no"?>
<!-- Created with Inkscape (http://www.inkscape.org/) -->

<svg
   width="100"
   height="100"
   viewBox="0 0 26.458333 26.458334"
   version="1.1"
   id="svg5"
   inkscape:version="1.4.2 (ebf0e940d0, 2025-05-08)"
   sodipodi:docname="sabio.svg"
   xml:space="preserve"
   xmlns:inkscape="http://www.inkscape.org/namespaces/inkscape"
   xmlns:sodipodi="http://sodipodi.sourceforge.net/DTD/sodipodi-0.dtd"
   xmlns="http://www.w3.org/2000/svg"
   xmlns:svg="http://www.w3.org/2000/svg"><sodipodi:namedview
     id="namedview7"
     pagecolor="#505050"
     bordercolor="#ffffff"
     borderopacity="1"
     inkscape:pageshadow="0"
     inkscape:pageopacity="0"
     inkscape:pagecheckerboard="1"
     inkscape:document-units="mm"
     showgrid="false"
     units="px"
     width="100px"
     inkscape:snap-global="false"
     inkscape:zoom="3.4422559"
     inkscape:cx="115.4766"
     inkscape:cy="51.565021"
     inkscape:window-width="1366"
     inkscape:window-height="697"
     inkscape:window-x="0"
     inkscape:window-y="0"
     inkscape:window-maximized="1"
     inkscape:current-layer="layer1"
     inkscape:showpageshadow="0"
     inkscape:deskcolor="#505050" /><defs
     id="defs2"><linearGradient
       id="linearGradient13895"
       inkscape:swatch="solid"><stop
         style="stop-color:#000000;stop-opacity:1;"
         offset="0"
         id="stop13893" /></linearGradient><filter
       style="color-interpolation-filters:sRGB;"
       inkscape:label="Clean Edges"
       id="filter14269"
       x="-0.31154084"
       y="-0.29580634"
       width="1.6230817"
       height="1.5916127"><feGaussianBlur
         stdDeviation="0.204612"
         result="blur"
         id="feGaussianBlur14263" /><feComposite
         in="SourceGraphic"
         in2="blur"
         operator="in"
         result="composite1"
         id="feComposite14265" /><feComposite
         in="composite1"
         in2="composite1"
         operator="in"
         result="composite2"
         id="feComposite14267" /></filter></defs><g
     inkscape:label="Camada 1"
     inkscape:groupmode="layer"
     id="layer1"><rect
       style="fill:#00112b;stroke:#030016;stroke-width:0.549252;stroke-opacity:1"
       id="rect2199"
       width="2.9690452"
       height="6.6044025"
       x="8.7919703"
       y="19.400715"
       ry="1.1621161" /><rect
       style="fill:#00112b;stroke:#030016;stroke-width:0.555604;stroke-opacity:1"
       id="rect2303"
       width="3.1049774"
       height="6.4621744"
       x="12.157646"
       y="19.460148"
       ry="1.1370896" /><path
       id="rect9714"
       style="fill:#002766;fill-opacity:1;stroke:#090042;stroke-width:0.729891;stroke-miterlimit:4;stroke-dasharray:none;stroke-opacity:1"
       d="m 7.6022694,12.553516 c -0.3984669,0.04333 -0.7387347,0.217058 -0.8633398,0.472573 l -1.7163778,3.519688 c -0.029088,0.05965 -0.044659,0.120295 -0.047717,0.180126 -0.055572,0.07858 -0.091435,0.162602 -0.1016004,0.250084 l -0.432536,3.719764 c -0.045655,0.392702 0.4306996,0.693691 1.0674906,0.675259 l 0.4818061,-0.01333 c 0.6367913,-0.01842 1.1860484,-0.350028 1.2317043,-0.742731 l 0.3976602,-3.42068 c 0.026129,-0.03302 0.048334,-0.06744 0.06614,-0.103945 L 9.4026581,13.569886 C 9.5838996,13.198231 9.2383071,12.798759 8.6284722,12.674198 l -0.4615991,-0.09451 c -0.190576,-0.03893 -0.3834691,-0.04582 -0.5645944,-0.02615 z" /><path
       id="path11551"
       style="fill:#002766;fill-opacity:1;stroke:#090042;stroke-width:0.728343;stroke-miterlimit:4;stroke-dasharray:none;stroke-opacity:1"
       d="m 23.55253,13.763283 c -0.118741,0.407513 -0.358479,0.727999 -0.640029,0.806881 l -3.878288,1.08655 c -0.06572,0.01842 -0.129911,0.02251 -0.190914,0.01373 -0.08986,0.04228 -0.181458,0.06287 -0.271725,0.05594 l -3.838337,-0.294472 c -0.405221,-0.03109 -0.619405,-0.588985 -0.480749,-1.250358 l 0.104285,-0.500531 c 0.138652,-0.661374 0.577097,-1.168506 0.982318,-1.13741 l 3.5297,0.27087 c 0.03827,-0.02066 0.07722,-0.03694 0.117463,-0.0482 l 3.879185,-1.087217 c 0.409523,-0.114732 0.74783,0.326334 0.758665,0.988245 l 0.0084,0.501061 c 0.0034,0.206848 -0.02602,0.409687 -0.08002,0.594914 z" /><path
       id="rect9738"
       style="fill:#601288;fill-opacity:1;stroke:#260039;stroke-width:0.526931;stroke-miterlimit:4;stroke-dasharray:none;stroke-opacity:1"
       d="m 8.7409407,12.554121 -0.4892311,11.379227 1.8730754,1.190693 1.972609,-1.751077 1.508251,1.751077 2.256386,-1.650733 -0.434872,-10.919187 z"
       sodipodi:nodetypes="cccccccc" /><path
       id="rect2"
       style="fill:#806600;fill-opacity:1;stroke:#403300;stroke-width:0.428;stroke-dasharray:none;stroke-opacity:1"
       d="m 11.180635,15.340857 h 1.766395 l 0.652207,7.255805 -2.962108,-0.02717 z"
       sodipodi:nodetypes="ccccc" /><path
       id="path35"
       style="fill:#ffff00;fill-opacity:1;stroke:none;stroke-width:0.428;stroke-dasharray:none;stroke-opacity:1"
       d="m 11.430441,15.167914 0.709524,-0.01922 0.0373,6.083639 -1.29033,1.164212 z"
       sodipodi:nodetypes="ccccc" /><path
       id="path34"
       style="fill:#260039;fill-opacity:1;stroke:none;stroke-width:0.411673;stroke-dasharray:none;stroke-opacity:1"
       d="M 8.2942458,23.809397 9.2756903,24.348911 10.723814,13.176 8.9274609,13.064382 Z"
       sodipodi:nodetypes="ccccc" /><path
       id="ellipse1"
       style="fill:#ffcc00;stroke:#806600;stroke-width:0.386319;stroke-opacity:1"
       d="m 14.983932,13.574498 c -0.224238,1.387829 -1.205319,2.39175 -2.905492,2.39175 -1.700173,0 -2.6236813,-1.218524 -2.8670598,-2.603125 -0.4227483,-2.405051 1.1668878,-2.487828 2.8670598,-2.487828 1.700173,0 3.328241,0.08278 2.905492,2.699203 z"
       sodipodi:nodetypes="sssss" /><ellipse
       style="fill:#002766;fill-opacity:1;stroke:#090042;stroke-width:0.309234;stroke-miterlimit:4;stroke-dasharray:none;stroke-opacity:1"
       id="path11105"
       cx="12.116874"
       cy="12.729002"
       rx="2.3867757"
       ry="2.1036232" /><ellipse
       style="fill:#002766;fill-opacity:1;stroke:#090042;stroke-width:0.650363;stroke-miterlimit:4;stroke-dasharray:none;stroke-opacity:1"
       id="path9279"
       cx="12.392307"
       cy="7.2467313"
       rx="5.6305685"
       ry="5.6201978" /><ellipse
       style="fill:#0053ce;fill-opacity:1;stroke:none;stroke-width:0.286156;stroke-miterlimit:4;stroke-dasharray:none;stroke-opacity:1"
       id="ellipse9379"
       cx="12.485004"
       cy="6.6386304"
       rx="4.8519564"
       ry="4.715518" /><g
       id="g61"
       transform="matrix(1.0298936,0,0,1.0488796,26.052991,-1.9706754)"><rect
         style="fill:#e6a000;fill-opacity:1;stroke:#191414;stroke-width:0.342646;stroke-miterlimit:4;stroke-dasharray:none;stroke-opacity:1"
         id="rect11"
         width="2.0073555"
         height="17.212606"
         x="-4.8346939"
         y="9.3509035"
         ry="0.54227519" /><rect
         style="fill:#b25200;fill-opacity:1;stroke:none;stroke-width:0.201897;stroke-miterlimit:4;stroke-dasharray:none;stroke-opacity:1"
         id="rect45"
         width="0.70294106"
         height="17.065474"
         x="-4.7259927"
         y="9.3509035"
         ry="0.53763986" /><g
         id="g17"
         transform="matrix(-1.7902656,0,0,-1.7323616,48.237921,23.600697)"
         style="fill:#e6a000;fill-opacity:1"><rect
           style="fill:#e6a000;fill-opacity:1;stroke:#191414;stroke-width:0.125918;stroke-miterlimit:4;stroke-dasharray:none;stroke-opacity:1"
           id="rect16"
           width="2.418293"
           height="0.53468895"
           x="27.855507"
           y="7.3858442"
           ry="0.25027269" /><rect
           style="fill:#e6a000;fill-opacity:1;stroke:#191414;stroke-width:0.158123;stroke-miterlimit:4;stroke-dasharray:none;stroke-opacity:1"
           id="rect17"
           width="2.895308"
           height="0.70425063"
           x="27.631411"
           y="7.8246946"
           ry="0.3296397" /></g><g
         id="g22"
         transform="matrix(1.7884929,0.07707202,-0.07964813,1.7306462,-55.193179,7.8996717)"><path
           id="path17"
           style="fill:#861414;fill-opacity:1;stroke:#191414;stroke-width:0.192"
           d="m 29.179479,1.3621619 c 0,0.1894821 -0.12582,0.6505412 -0.328434,0.6505415 -0.202615,2e-7 -0.405299,-0.461059 -0.405299,-0.6505415 0,-0.1894825 0.164252,-0.3430884 0.366867,-0.3430882 0.202615,3e-7 0.366866,0.153606 0.366866,0.3430882 z"
           sodipodi:nodetypes="sssss" /><path
           id="path18"
           style="fill:#4d4d4d;stroke:#191414;stroke-width:0.192"
           d="m 28.357427,0.89338797 c 0,0.18948213 0.220065,0.48720663 0.01745,0.48720693 -0.202615,2e-7 -0.751184,-0.2977244 -0.751184,-0.48720693 0,-0.18948251 0.164252,-0.34308838 0.366867,-0.34308815 0.202615,2.9e-7 0.366866,0.153606 0.366867,0.34308815 z"
           sodipodi:nodetypes="sssss" /><path
           id="path19"
           style="fill:#4d4d4d;stroke:#191414;stroke-width:0.192"
           d="m 29.960769,0.80506825 c 0,0.18948215 -0.471705,0.48720665 -0.674319,0.48720695 -0.202615,2e-7 -0.05941,-0.29772444 -0.05941,-0.48720695 0,-0.18948251 0.164252,-0.34308838 0.366867,-0.34308815 0.202615,2.9e-7 0.366866,0.153606 0.366866,0.34308815 z"
           sodipodi:nodetypes="sssss" /><path
           id="path20"
           style="fill:#df2e2e;fill-opacity:1;stroke:none;stroke-width:0.0965249"
           d="m 29.044968,1.3211899 c 0,0.097872 -0.06157,0.3360203 -0.160706,0.3360204 -0.09914,1e-7 -0.198318,-0.2381481 -0.198318,-0.3360204 0,-0.097872 0.08037,-0.1772134 0.179512,-0.1772133 0.09915,2e-7 0.179512,0.079341 0.179512,0.1772133 z"
           sodipodi:nodetypes="sssss" /><path
           id="path21"
           style="fill:#7f7f7f;fill-opacity:1;stroke:none;stroke-width:0.0784491"
           d="m 28.149614,0.69865723 c 0.05242,0.0598357 0.142334,0.23840606 0.08174,0.29149337 -0.0606,0.053093 -0.248779,-0.0393931 -0.301199,-0.099229 -0.05242,-0.0598357 -0.04579,-0.15137913 0.01482,-0.2044742 0.06061,-0.053099 0.152226,-0.0476261 0.204647,0.0122098 z"
           sodipodi:nodetypes="sssss" /><path
           id="path22"
           style="fill:#7f7f7f;fill-opacity:1;stroke:none;stroke-width:0.0784491"
           d="m 29.428341,0.62179387 c -0.05242,0.0598357 -0.142334,0.23840606 -0.08174,0.29149337 0.0606,0.053093 0.248779,-0.0393931 0.301199,-0.099229 0.05242,-0.0598357 0.04579,-0.15137913 -0.01482,-0.2044742 -0.06061,-0.053099 -0.152226,-0.0476261 -0.204647,0.0122098 z"
           sodipodi:nodetypes="sssss" /></g><g
         id="g29"
         transform="matrix(1.7555982,-0.07802106,-0.07818321,-1.7519572,-54.32899,26.578925)"><path
           id="path24"
           style="fill:#861414;fill-opacity:1;stroke:#191414;stroke-width:0.192"
           d="m 29.179479,1.3621619 c 0,0.1894821 -0.12582,0.6505412 -0.328434,0.6505415 -0.202615,2e-7 -0.405299,-0.461059 -0.405299,-0.6505415 0,-0.1894825 0.164252,-0.3430884 0.366867,-0.3430882 0.202615,3e-7 0.366866,0.153606 0.366866,0.3430882 z"
           sodipodi:nodetypes="sssss" /><path
           id="path25"
           style="fill:#4d4d4d;stroke:#191414;stroke-width:0.192"
           d="m 28.357427,0.89338797 c 0,0.18948213 0.220065,0.48720663 0.01745,0.48720693 -0.202615,2e-7 -0.751184,-0.2977244 -0.751184,-0.48720693 0,-0.18948251 0.164252,-0.34308838 0.366867,-0.34308815 0.202615,2.9e-7 0.366866,0.153606 0.366867,0.34308815 z"
           sodipodi:nodetypes="sssss" /><path
           id="path26"
           style="fill:#4d4d4d;stroke:#191414;stroke-width:0.192"
           d="m 29.960769,0.80506825 c 0,0.18948215 -0.471705,0.48720665 -0.674319,0.48720695 -0.202615,2e-7 -0.05941,-0.29772444 -0.05941,-0.48720695 0,-0.18948251 0.164252,-0.34308838 0.366867,-0.34308815 0.202615,2.9e-7 0.366866,0.153606 0.366866,0.34308815 z"
           sodipodi:nodetypes="sssss" /><path
           id="path27"
           style="fill:#df2e2e;fill-opacity:1;stroke:none;stroke-width:0.0965249"
           d="m 29.044968,1.3211899 c 0,0.097872 -0.06157,0.3360203 -0.160706,0.3360204 -0.09914,1e-7 -0.198318,-0.2381481 -0.198318,-0.3360204 0,-0.097872 0.08037,-0.1772134 0.179512,-0.1772133 0.09915,2e-7 0.179512,0.079341 0.179512,0.1772133 z"
           sodipodi:nodetypes="sssss" /><path
           id="path28"
           style="fill:#7f7f7f;fill-opacity:1;stroke:none;stroke-width:0.0784491"
           d="m 28.149614,0.69865723 c 0.05242,0.0598357 0.142334,0.23840606 0.08174,0.29149337 -0.0606,0.053093 -0.248779,-0.0393931 -0.301199,-0.099229 -0.05242,-0.0598357 -0.04579,-0.15137913 0.01482,-0.2044742 0.06061,-0.053099 0.152226,-0.0476261 0.204647,0.0122098 z"
           sodipodi:nodetypes="sssss" /><path
           id="path29"
           style="fill:#7f7f7f;fill-opacity:1;stroke:none;stroke-width:0.0784491"
           d="m 29.428341,0.62179387 c -0.05242,0.0598357 -0.142334,0.23840606 -0.08174,0.29149337 0.0606,0.053093 0.248779,-0.0393931 0.301199,-0.099229 0.05242,-0.0598357 0.04579,-0.15137913 -0.01482,-0.2044742 -0.06061,-0.053099 -0.152226,-0.0476261 -0.204647,0.0122098 z"
           sodipodi:nodetypes="sssss" /></g><g
         id="g44"
         transform="matrix(-1.7902656,0,0,1.7323616,48.183571,11.166448)"
         style="fill:#e6a000;fill-opacity:1"><rect
           style="fill:#e6a000;fill-opacity:1;stroke:#191414;stroke-width:0.125918;stroke-miterlimit:4;stroke-dasharray:none;stroke-opacity:1"
           id="rect43"
           width="2.418293"
           height="0.53468895"
           x="27.855507"
           y="7.3858442"
           ry="0.25027269" /><rect
           style="fill:#e6a000;fill-opacity:1;stroke:#191414;stroke-width:0.158123;stroke-miterlimit:4;stroke-dasharray:none;stroke-opacity:1"
           id="rect44"
           width="2.895308"
           height="0.70425063"
           x="27.631411"
           y="7.8246946"
           ry="0.3296397" /></g><path
         id="path56"
         style="fill:#e6a000;fill-opacity:1;stroke:#191414;stroke-width:0.306999;stroke-dasharray:none;stroke-opacity:1"
         d="m -3.8860677,2.3641968 a 3.451263,3.4240878 0 0 0 -3.4514689,3.4240804 3.451263,3.4240878 0 0 0 3.4514689,3.4240804 3.451263,3.4240878 0 0 0 3.4514689,-3.4240804 3.451263,3.4240878 0 0 0 -3.4514689,-3.4240804 z m -0.622701,1.1162109 v 0.2754354 c 0,0.3561913 0.2853307,0.6428548 0.6392375,0.6428548 0.3539068,0 0.6387207,-0.2866635 0.6387207,-0.6428548 V 3.4969442 a 2.450061,2.4811844 0 0 1 1.6185058,1.4991333 h -0.2950724 c -0.3539068,0 -0.6392375,0.2866636 -0.6392375,0.6428548 0,0.3561913 0.2853307,0.6428548 0.6392375,0.6428548 h 0.4258138 A 2.450061,2.4811844 0 0 1 -3.2612996,8.2790812 V 7.7969401 c 0,-0.3561914 -0.2848139,-0.6428548 -0.6387207,-0.6428548 -0.3539069,0 -0.6387207,0.2866634 -0.6387207,0.6428548 V 8.2790812 A 2.450061,2.4811844 0 0 1 -6.3076253,6.3432821 h 0.5059122 c 0.3539068,0 0.6392375,-0.2871803 0.6392375,-0.6433716 0,-0.3561914 -0.2853307,-0.6428548 -0.6392375,-0.6428548 h -0.4082438 a 2.450061,2.4811844 0 0 1 1.7011882,-1.576648 z" /><ellipse
         style="fill:#861414;fill-opacity:1;stroke:#191414;stroke-width:0.33298;stroke-dasharray:none;stroke-opacity:1"
         id="path59"
         cx="-3.8724799"
         cy="5.7611628"
         rx="1.3321862"
         ry="1.2914233" /><ellipse
         style="fill:#df2e2e;fill-opacity:1;stroke:none;stroke-width:0.195036;stroke-dasharray:none;stroke-opacity:1"
         id="ellipse59"
         cx="-3.627902"
         cy="5.5165849"
         rx="0.76150495"
         ry="0.77509266" /></g><path
       d="m 23.49939,11.618299 c -0.02779,-9.52e-4 -0.05362,0.0032 -0.07752,0.01292 l -1.456759,0.594279 c -0.382288,0.155903 -1.121078,0.464503 -1.102258,0.89762 l 0.05478,1.254704 c 0.01882,0.433116 0.251076,1.314771 0.654224,1.261421 l 2.095479,-0.276985 c 0.403149,-0.05335 1.050282,-0.823093 1.053682,-1.257288 l 0.0072,-0.910539 c 0.0032,-0.407058 -0.811987,-1.561847 -1.228865,-1.576131 z"
       style="fill:#002766;fill-opacity:1;stroke:#090042;stroke-width:0.682;stroke-opacity:1"
       id="path32" /><path
       d="m 22.225842,12.578304 c 0.0102,-0.0082 0.02104,-0.01495 0.03274,-0.01998 l 0.713687,-0.305574 c 0.187276,-0.0802 0.551242,-0.23373 0.666025,-0.141672 l 0.332407,0.266768 c 0.11478,0.09206 0.275669,0.335954 0.109416,0.442731 l -0.864043,0.555065 c -0.166248,0.106781 -0.62556,0.14143 -0.748979,0.05563 l -0.258887,-0.17988 c -0.115709,-0.08044 -0.134752,-0.548741 0.01763,-0.673037 z"
       style="fill:#0053ce;fill-opacity:1;stroke:none;stroke-width:0.270178"
       id="path33" /><path
       id="path1"
       style="fill:#f2f2f2;stroke-width:1.03857"
       d="M 10.297245,5.1229582 A 1.834341,2.2827935 0 0 0 8.4630659,7.405517 1.834341,2.2827935 0 0 0 8.6206112,8.3315864 2.0044123,0.9179487 0 0 1 10.248734,7.9493991 2.0044123,0.9179487 0 0 1 11.954475,8.3848722 1.834341,2.2827935 0 0 0 12.131887,7.405517 1.834341,2.2827935 0 0 0 10.297245,5.1229582 Z" /><path
       id="path3"
       style="fill:#f2f2f2;stroke-width:1.03857"
       d="M 14.645293,5.1229582 A 1.834341,2.2827935 0 0 0 12.811114,7.405517 1.834341,2.2827935 0 0 0 12.968659,8.3315864 2.0044123,0.9179487 0 0 1 14.596782,7.9493991 2.0044123,0.9179487 0 0 1 16.302523,8.3848722 1.834341,2.2827935 0 0 0 16.479935,7.405517 1.834341,2.2827935 0 0 0 14.645293,5.1229582 Z" /><path
       id="rect8"
       style="fill:#d6ab00;fill-opacity:1;stroke:#7f6500;stroke-width:0.461635;stroke-dasharray:none;stroke-opacity:1"
       d="m 18.072834,12.57993 1.094003,-0.0508 c 0.430767,-0.02 0.95222,-0.613605 0.944958,-0.206655 l -0.05562,3.116912 c -0.0073,0.40695 -0.82688,1.051037 -1.25736,1.030037 l -0.496392,-0.02422 c -0.43048,-0.021 -1.254875,-0.45876 -1.270241,-0.865395 l -0.109464,-2.896543 c -0.01538,-0.406633 0.719353,-0.08334 1.150119,-0.103343 z"
       sodipodi:nodetypes="sssssssss" /><g
       id="g54"
       transform="matrix(1.3073004,0,0,1.3505855,-23.574549,-0.43080016)"><g
         id="g49"
         transform="matrix(1.051405,0.04675001,-0.04682291,1.0497679,-3.025573,9.1381983)"><path
           id="path44"
           style="fill:#861414;fill-opacity:1;stroke:#191414;stroke-width:0.192"
           d="m 29.179479,1.3621619 c 0,0.1894821 -0.12582,0.6505412 -0.328434,0.6505415 -0.202615,2e-7 -0.405299,-0.461059 -0.405299,-0.6505415 0,-0.1894825 0.164252,-0.3430884 0.366867,-0.3430882 0.202615,3e-7 0.366866,0.153606 0.366866,0.3430882 z"
           sodipodi:nodetypes="sssss" /><path
           id="path45"
           style="fill:#4d4d4d;stroke:#191414;stroke-width:0.192"
           d="m 28.357427,0.89338797 c 0,0.18948213 0.220065,0.48720663 0.01745,0.48720693 -0.202615,2e-7 -0.751184,-0.2977244 -0.751184,-0.48720693 0,-0.18948251 0.164252,-0.34308838 0.366867,-0.34308815 0.202615,2.9e-7 0.366866,0.153606 0.366867,0.34308815 z"
           sodipodi:nodetypes="sssss" /><path
           id="path46"
           style="fill:#4d4d4d;stroke:#191414;stroke-width:0.192"
           d="m 29.960769,0.80506825 c 0,0.18948215 -0.471705,0.48720665 -0.674319,0.48720695 -0.202615,2e-7 -0.05941,-0.29772444 -0.05941,-0.48720695 0,-0.18948251 0.164252,-0.34308838 0.366867,-0.34308815 0.202615,2.9e-7 0.366866,0.153606 0.366866,0.34308815 z"
           sodipodi:nodetypes="sssss" /><path
           id="path47"
           style="fill:#df2e2e;fill-opacity:1;stroke:none;stroke-width:0.0965249"
           d="m 29.044968,1.3211899 c 0,0.097872 -0.06157,0.3360203 -0.160706,0.3360204 -0.09914,1e-7 -0.198318,-0.2381481 -0.198318,-0.3360204 0,-0.097872 0.08037,-0.1772134 0.179512,-0.1772133 0.09915,2e-7 0.179512,0.079341 0.179512,0.1772133 z"
           sodipodi:nodetypes="sssss" /><path
           id="path48"
           style="fill:#7f7f7f;fill-opacity:1;stroke:none;stroke-width:0.0784491"
           d="m 28.149614,0.69865723 c 0.05242,0.0598357 0.142334,0.23840606 0.08174,0.29149337 -0.0606,0.053093 -0.248779,-0.0393931 -0.301199,-0.099229 -0.05242,-0.0598357 -0.04579,-0.15137913 0.01482,-0.2044742 0.06061,-0.053099 0.152226,-0.0476261 0.204647,0.0122098 z"
           sodipodi:nodetypes="sssss" /><path
           id="path49"
           style="fill:#7f7f7f;fill-opacity:1;stroke:none;stroke-width:0.0784491"
           d="m 29.428341,0.62179387 c -0.05242,0.0598357 -0.142334,0.23840606 -0.08174,0.29149337 0.0606,0.053093 0.248779,-0.0393931 0.301199,-0.099229 0.05242,-0.0598357 0.04579,-0.15137913 -0.01482,-0.2044742 -0.06061,-0.053099 -0.152226,-0.0476261 -0.204647,0.0122098 z"
           sodipodi:nodetypes="sssss" /></g><g
         id="g53"
         transform="matrix(1,0,0,-1,0.11529503,25.879765)"><path
           id="path50"
           style="fill:#4d4d4d;stroke:#191414;stroke-width:0.201912"
           d="m 26.613226,12.939025 c -0.0089,0.198912 0.208565,0.521742 -0.0045,0.51227 -0.21303,-0.0095 -0.775858,-0.347659 -0.766986,-0.546572 0.0089,-0.198913 0.18876,-0.352484 0.40179,-0.343012 0.213031,0.0095 0.378533,0.178402 0.369662,0.377314 z"
           sodipodi:nodetypes="sssss" /><path
           id="path51"
           style="fill:#4d4d4d;stroke:#191414;stroke-width:0.201912"
           d="m 28.303123,12.921266 c -0.0089,0.198912 -0.518766,0.489402 -0.731795,0.47993 -0.21303,-0.0095 -0.04852,-0.315319 -0.03965,-0.514232 0.0089,-0.198912 0.18876,-0.352484 0.401791,-0.343012 0.21303,0.0095 0.378532,0.178402 0.36966,0.377314 z"
           sodipodi:nodetypes="sssss" /><path
           id="path52"
           style="fill:#7f7f7f;fill-opacity:1;stroke:none;stroke-width:0.0824992"
           d="m 26.403848,12.724888 c 0.05231,0.06526 0.138488,0.256925 0.07229,0.309821 -0.0662,0.0529 -0.259723,-0.05298 -0.312036,-0.118248 -0.05231,-0.06526 -0.04106,-0.161054 0.02516,-0.213958 0.06621,-0.05291 0.162281,-0.04288 0.214595,0.02238 z"
           sodipodi:nodetypes="sssss" /><path
           id="path53"
           style="fill:#7f7f7f;fill-opacity:1;stroke:none;stroke-width:0.0824992"
           d="m 27.751907,12.703979 c -0.05792,0.06036 -0.160814,0.243617 -0.09959,0.30218 0.06123,0.05857 0.263412,-0.02972 0.321329,-0.09009 0.05792,-0.06036 0.05523,-0.156772 -0.006,-0.215343 -0.06124,-0.05858 -0.157821,-0.05711 -0.215739,0.0032 z"
           sodipodi:nodetypes="sssss" /></g></g><path
       id="path54"
       style="fill:#d6ab00;fill-opacity:1;stroke:#7f6500;stroke-width:0.316932;stroke-dasharray:none;stroke-opacity:1"
       d="m 5.8862291,17.029812 1.0832,0.09601 c 0.4265135,0.0378 1.1641571,-0.400526 1.1055261,-0.06375 l -0.426185,2.447961 c -0.058631,0.33677 -1.2728206,0.882422 -1.6922733,0.810925 l -0.4836762,-0.08245 c -0.4194523,-0.0715 -1.143315,-0.533752 -1.104889,-0.871914 l 0.286483,-2.521157 c 0.038426,-0.338163 0.8053048,0.146575 1.2318172,0.184373 z"
       sodipodi:nodetypes="ssssssssss" /><path
       id="path55"
       style="fill:#493900;fill-opacity:1;stroke:none;stroke-width:0.284431;stroke-dasharray:none;stroke-opacity:1"
       d="m 6.2411426,17.314592 a 0.73431809,0.7481069 82.407188 0 0 -0.8186189,0.661626 0.73431809,0.7481069 82.407188 0 0 -0.00365,0.0883 0.73431809,0.7481069 82.407188 0 1 0.080467,0.0033 0.73431809,0.7481069 82.407188 0 1 0.5418685,0.314851 0.73431809,0.7481069 82.407188 0 1 0.5954744,-0.208769 0.73431809,0.7481069 82.407188 0 1 0.2498342,0.06782 0.73431809,0.7481069 82.407188 0 0 0.024311,-0.12688 0.73431809,0.7481069 82.407188 0 0 -0.6696707,-0.800442 z m 0.6453522,0.927319 a 0.73431809,0.7481069 82.407188 0 1 -0.7138422,0.538242 0.73431809,0.7481069 82.407188 0 1 -0.00365,0.0883 0.73431809,0.7481069 82.407188 0 1 -0.2231851,0.453256 0.73431809,0.7481069 82.407188 0 0 0.5422729,0.314888 0.73431809,0.7481069 82.407188 0 0 0.8182535,-0.662062 0.73431809,0.7481069 82.407188 0 0 -0.4198361,-0.732618 z m -0.9406919,1.079793 a 0.73431809,0.7481069 82.407188 0 1 -0.1277615,-0.48599 0.73431809,0.7481069 82.407188 0 1 0.02468,-0.126429 0.73431809,0.7481069 82.407188 0 1 -0.4238646,-0.644759 0.73431809,0.7481069 82.407188 0 0 -0.7381608,0.665118 0.73431809,0.7481069 82.407188 0 0 0.6700346,0.800877 0.73431809,0.7481069 82.407188 0 0 0.5950699,-0.208805 z M 5.842723,18.709272 a 0.73431809,0.7481069 82.407188 0 0 0.2498342,0.06782 0.73431809,0.7481069 82.407188 0 0 0.080091,0.0031 0.73431809,0.7481069 82.407188 0 0 -0.1314665,-0.397295 0.73431809,0.7481069 82.407188 0 0 -0.1984623,0.326415 z" /><path
       id="path6"
       style="fill:#493900;fill-opacity:1;stroke:none;stroke-width:0.235068;stroke-dasharray:none;stroke-opacity:1"
       d="m 17.387693,14.352797 a 0.62075669,0.60444892 82.271745 0 0 0.585913,0.643416 0.62075669,0.60444892 82.271745 0 0 0.07272,-0.0016 0.62075669,0.60444892 82.271745 0 1 -0.0015,-0.06683 0.62075669,0.60444892 82.271745 0 1 0.23046,-0.465318 0.62075669,0.60444892 82.271745 0 1 -0.202386,-0.482299 0.62075669,0.60444892 82.271745 0 1 0.04273,-0.210489 0.62075669,0.60444892 82.271745 0 0 -0.105471,-0.0135 0.62075669,0.60444892 82.271745 0 0 -0.622649,0.596604 z m 0.728118,-0.583105 a 0.62075669,0.60444892 82.271745 0 1 0.479135,0.563091 0.62075669,0.60444892 82.271745 0 1 0.07271,-0.0016 0.62075669,0.60444892 82.271745 0 1 0.383858,0.161131 0.62075669,0.60444892 82.271745 0 0 0.230467,-0.465654 0.62075669,0.60444892 82.271745 0 0 -0.586252,-0.643092 0.62075669,0.60444892 82.271745 0 0 -0.579915,0.386113 z m 0.9357,0.722633 a 0.62075669,0.60444892 82.271745 0 1 -0.392519,0.131274 0.62075669,0.60444892 82.271745 0 1 -0.10512,-0.01382 0.62075669,0.60444892 82.271745 0 1 -0.507546,0.384848 0.62075669,0.60444892 82.271745 0 0 0.584602,0.576591 0.62075669,0.60444892 82.271745 0 0 0.622987,-0.596927 0.62075669,0.60444892 82.271745 0 0 -0.202393,-0.481963 z m -0.497651,0.117452 a 0.62075669,0.60444892 82.271745 0 0 0.04273,-0.210489 0.62075669,0.60444892 82.271745 0 0 -0.0017,-0.06651 0.62075669,0.60444892 82.271745 0 0 -0.319481,0.129698 0.62075669,0.60444892 82.271745 0 0 0.278395,0.147293 z" /><path
       id="path7"
       style="fill:#002766;fill-opacity:1;stroke-width:1.04939"
       d="M 8.3479766,7.4041113 A 1.9973775,2.1403899 0 0 0 8.3271566,7.711302 1.9973775,2.1403899 0 0 0 8.4987784,8.579576 2.1825647,0.86068589 0 0 1 10.271828,8.2210254 2.1825647,0.86068589 0 0 1 12.128721,8.6294824 1.9973775,2.1403899 0 0 0 12.322288,7.711302 1.9973775,2.1403899 0 0 0 12.314388,7.521367 2.9817018,1.5482969 0 0 1 10.457495,7.858114 2.9817018,1.5482969 0 0 1 8.3479543,7.4041113 Z" /><path
       id="path9"
       style="fill:#002766;fill-opacity:1;stroke-width:1.04939"
       d="m 12.696024,7.4584619 a 1.9973775,2.1403899 0 0 0 -0.02082,0.3071907 1.9973775,2.1403899 0 0 0 0.171622,0.868274 2.1825647,0.86068589 0 0 1 1.77305,-0.3585506 2.1825647,0.86068589 0 0 1 1.856893,0.408457 1.9973775,2.1403899 0 0 0 0.193567,-0.9181804 1.9973775,2.1403899 0 0 0 -0.0079,-0.189935 2.9817018,1.5482969 0 0 1 -1.856893,0.336747 2.9817018,1.5482969 0 0 1 -2.109541,-0.4540027 z" /><ellipse
       style="fill:#002766;fill-opacity:1;stroke:none;stroke-width:1.1343"
       id="ellipse9"
       cx="14.80045"
       cy="6.7166176"
       rx="1.2128806"
       ry="1.2152098" /><path
       id="path10"
       style="fill:#001c4a;fill-opacity:1;stroke:none;stroke-width:1.1343"
       d="M 14.08198,5.7375128 A 1.2128805,1.2152098 0 0 0 13.587771,6.7167483 1.2128805,1.2152098 0 0 0 14.800728,7.9318979 1.2128805,1.2152098 0 0 0 15.822997,7.3703018 1.2128805,1.2152098 0 0 1 15.104814,7.606216 1.2128805,1.2152098 0 0 1 13.891856,6.3910663 1.2128805,1.2152098 0 0 1 14.08198,5.7375128 Z" /><ellipse
       style="fill:#ffffff;fill-opacity:1;stroke:none;stroke-width:0.450509"
       id="circle10"
       cx="14.796424"
       cy="5.8644772"
       rx="0.48952255"
       ry="0.47494414" /><ellipse
       style="fill:#002766;fill-opacity:1;stroke:none;stroke-width:1.1343"
       id="ellipse10"
       cx="10.479578"
       cy="6.6622672"
       rx="1.2128806"
       ry="1.2152098" /><path
       id="path11"
       style="fill:#001c4a;fill-opacity:1;stroke:none;stroke-width:1.1343"
       d="M 9.7611082,5.6831622 A 1.2128805,1.2152098 0 0 0 9.2668984,6.6623977 1.2128805,1.2152098 0 0 0 10.479856,7.8775473 1.2128805,1.2152098 0 0 0 11.502124,7.3159512 1.2128805,1.2152098 0 0 1 10.783941,7.5518654 1.2128805,1.2152098 0 0 1 9.5709839,6.3367157 1.2128805,1.2152098 0 0 1 9.7611082,5.6831622 Z" /><ellipse
       style="fill:#ffffff;fill-opacity:1;stroke:none;stroke-width:0.491719"
       id="circle11"
       cx="10.523108"
       cy="5.8237143"
       rx="0.53707933"
       ry="0.51570708" /></g></svg>
