<?xml version="1.0" encoding="UTF-8" standalone="no"?>
<!-- Created with Inkscape (http://www.inkscape.org/) -->

<svg
   width="100"
   height="100"
   viewBox="0 0 26.458333 26.458334"
   version="1.1"
   id="svg5"
   inkscape:version="1.4.2 (ebf0e940d0, 2025-05-08)"
   sodipodi:docname="sabio.svg"
   xml:space="preserve"
   xmlns:inkscape="http://www.inkscape.org/namespaces/inkscape"
   xmlns:sodipodi="http://sodipodi.sourceforge.net/DTD/sodipodi-0.dtd"
   xmlns="http://www.w3.org/2000/svg"
   xmlns:svg="http://www.w3.org/2000/svg"><sodipodi:namedview
     id="namedview7"
     pagecolor="#505050"
     bordercolor="#ffffff"
     borderopacity="1"
     inkscape:pageshadow="0"
     inkscape:pageopacity="0"
     inkscape:pagecheckerboard="1"
     inkscape:document-units="mm"
     showgrid="false"
     units="px"
     width="100px"
     inkscape:snap-global="false"
     inkscape:zoom="3.4422559"
     inkscape:cx="81.777766"
     inkscape:cy="34.134592"
     inkscape:window-width="1366"
     inkscape:window-height="697"
     inkscape:window-x="0"
     inkscape:window-y="0"
     inkscape:window-maximized="1"
     inkscape:current-layer="layer1"
     inkscape:showpageshadow="0"
     inkscape:deskcolor="#505050" /><defs
     id="defs2"><linearGradient
       id="linearGradient13895"
       inkscape:swatch="solid"><stop
         style="stop-color:#000000;stop-opacity:1;"
         offset="0"
         id="stop13893" /></linearGradient><filter
       style="color-interpolation-filters:sRGB;"
       inkscape:label="Clean Edges"
       id="filter14269"
       x="-0.31154084"
       y="-0.29580634"
       width="1.6230817"
       height="1.5916127"><feGaussianBlur
         stdDeviation="0.204612"
         result="blur"
         id="feGaussianBlur14263" /><feComposite
         in="SourceGraphic"
         in2="blur"
         operator="in"
         result="composite1"
         id="feComposite14265" /><feComposite
         in="composite1"
         in2="composite1"
         operator="in"
         result="composite2"
         id="feComposite14267" /></filter></defs><g
     inkscape:label="Camada 1"
     inkscape:groupmode="layer"
     id="layer1"><rect
       style="fill:#0053ce;fill-opacity:1;stroke:#110077;stroke-width:0.547255;stroke-opacity:1"
       id="rect46"
       width="2.9710424"
       height="6.5520492"
       x="7.2798419"
       y="19.447174"
       ry="1.1529039" /><rect
       style="fill:#0053ce;fill-opacity:1;stroke:#110077;stroke-width:0.55612;stroke-opacity:1"
       id="rect47"
       width="3.1044619"
       height="6.4752464"
       x="11.03109"
       y="19.469433"
       ry="1.1393898" /><path
       id="path47"
       style="fill:#002766;stroke-width:0.449457"
       d="m 8.370883,20.350518 h 0.7333606 c 0.49346,0 0.890723,0.410141 0.890723,0.919599 v 3.386959 c 0,0.509458 -0.354797,0.555096 -0.838079,0.658037 L 8.311658,25.495149 C 7.828376,25.59809 7.48016,25.166534 7.48016,24.657076 v -3.386959 c 0,-0.509458 0.397262,-0.919599 0.890723,-0.919599 z"
       sodipodi:nodetypes="sssssssss" /><path
       id="path48"
       style="fill:#002766;stroke-width:0.455488"
       d="m 12.199488,20.432044 h 0.753173 c 0.506792,0 0.914786,0.410141 0.914786,0.919599 v 3.386959 c 0,0.509458 -0.364381,0.555096 -0.86072,0.658037 l -0.868064,0.180036 c -0.496338,0.102941 -0.853961,-0.328615 -0.853961,-0.838073 v -3.386959 c 0,-0.509458 0.407994,-0.919599 0.914786,-0.919599 z"
       sodipodi:nodetypes="sssssssss" /><path
       id="rect9714"
       style="fill:#0053ce;fill-opacity:1;stroke:#080039;stroke-width:0.766134;stroke-miterlimit:4;stroke-dasharray:none;stroke-opacity:1"
       d="m 6.5044379,12.254104 c -0.3870497,0.09432 -0.6994405,0.325535 -0.788394,0.621668 l -1.2252824,4.079189 c -0.025759,0.167457 -0.06319,0.324158 -0.090151,0.491529 l 0.066813,4.149609 c 0.00706,0.43808 0.5165435,0.714082 1.1418267,0.619342 l 0.4731803,-0.071 c 0.6252848,-0.09473 1.1227571,-0.524348 1.1156959,-0.96243 l -0.061538,-3.815952 c 0.021378,-0.03944 0.038705,-0.07997 0.051416,-0.122276 l 1.2259531,-4.080105 c 0.1293851,-0.430735 -0.2642531,-0.830546 -0.881923,-0.89653 l -0.4675598,-0.0502 c -0.1930253,-0.02062 -0.3840884,-0.0056 -0.560025,0.03718 z"
       sodipodi:nodetypes="ccccccccccccccc" /><path
       id="path11551"
       style="fill:#0053ce;fill-opacity:1;stroke:#090042;stroke-width:0.728343;stroke-miterlimit:4;stroke-dasharray:none;stroke-opacity:1"
       d="m 22.248116,13.654582 c -0.118741,0.407513 -0.358479,0.727999 -0.640029,0.806881 l -3.878288,1.08655 c -0.06572,0.01842 -0.129911,0.02251 -0.190914,0.01373 -0.08986,0.04228 -0.181458,0.06287 -0.271725,0.05594 l -3.838337,-0.294472 c -0.405221,-0.03109 -0.619405,-0.588985 -0.480749,-1.250358 l 0.104285,-0.500531 c 0.138652,-0.661374 0.577097,-1.168506 0.982318,-1.13741 l 3.5297,0.27087 c 0.03827,-0.02066 0.07722,-0.03694 0.117463,-0.0482 l 3.879185,-1.087217 c 0.409523,-0.114732 0.74783,0.326334 0.758665,0.988245 l 0.0084,0.501061 c 0.0034,0.206848 -0.02602,0.409687 -0.08002,0.594914 z" /><path
       id="rect9738"
       style="fill:#ffffff;fill-opacity:1;stroke:#806600;stroke-width:0.626109;stroke-miterlimit:4;stroke-dasharray:none;stroke-opacity:1"
       d="m 7.4360982,12.445021 -0.4892943,11.345455 1.8733177,1.187159 1.9728634,-1.74588 1.508446,1.74588 2.256677,-1.645834 -0.434928,-10.88678 z"
       sodipodi:nodetypes="cccccccc" /><path
       id="ellipse1"
       style="fill:#ffcc00;stroke:#806600;stroke-width:0.586;stroke-opacity:1;stroke-dasharray:none"
       d="m 13.679518,13.465797 c -0.224238,1.387829 -1.205319,2.39175 -2.905492,2.39175 -1.7001734,0 -2.6236817,-1.218524 -2.8670602,-2.603125 -0.4227483,-2.405051 1.1668878,-2.487828 2.8670602,-2.487828 1.700173,0 3.328241,0.08278 2.905492,2.699203 z"
       sodipodi:nodetypes="sssss" /><ellipse
       style="fill:#002766;fill-opacity:1;stroke:#090042;stroke-width:0.509;stroke-miterlimit:4;stroke-dasharray:none;stroke-opacity:1"
       id="path11105"
       cx="10.812459"
       cy="12.620301"
       rx="2.3867757"
       ry="2.1036232" /><ellipse
       style="fill:#0053ce;fill-opacity:1;stroke:none;stroke-width:0.2544;stroke-miterlimit:4;stroke-dasharray:none;stroke-opacity:1"
       id="ellipse49"
       cx="10.786791"
       cy="12.450456"
       rx="2.1500163"
       ry="1.5804987" /><g
       id="g61"
       transform="matrix(1.0270853,0.07264713,-0.07286711,1.0620867,25.081948,-2.0093647)"><rect
         style="fill:#e6a000;fill-opacity:1;stroke:#191414;stroke-width:0.342646;stroke-miterlimit:4;stroke-dasharray:none;stroke-opacity:1"
         id="rect11"
         width="2.0073555"
         height="17.212606"
         x="-4.7221446"
         y="9.4455519"
         ry="0.54227519" /><rect
         style="fill:#b25200;fill-opacity:1;stroke:none;stroke-width:0.201897;stroke-miterlimit:4;stroke-dasharray:none;stroke-opacity:1"
         id="rect45"
         width="0.70294106"
         height="17.065474"
         x="-4.6134434"
         y="9.4455519"
         ry="0.53763986" /><g
         id="g17"
         transform="matrix(-1.7902656,0,0,-1.7323616,48.350471,23.695345)"
         style="fill:#e6a000;fill-opacity:1"><rect
           style="fill:#e6a000;fill-opacity:1;stroke:#191414;stroke-width:0.125918;stroke-miterlimit:4;stroke-dasharray:none;stroke-opacity:1"
           id="rect16"
           width="2.418293"
           height="0.53468895"
           x="27.855507"
           y="7.3858442"
           ry="0.25027269" /><rect
           style="fill:#e6a000;fill-opacity:1;stroke:#191414;stroke-width:0.158123;stroke-miterlimit:4;stroke-dasharray:none;stroke-opacity:1"
           id="rect17"
           width="2.895308"
           height="0.70425063"
           x="27.631411"
           y="7.8246946"
           ry="0.3296397" /></g><g
         id="g22"
         transform="matrix(1.7884929,0.07707202,-0.07964813,1.7306462,-55.080629,7.9943201)"><path
           id="path17"
           style="fill:#861414;fill-opacity:1;stroke:#191414;stroke-width:0.192"
           d="m 29.179479,1.3621619 c 0,0.1894821 -0.12582,0.6505412 -0.328434,0.6505415 -0.202615,2e-7 -0.405299,-0.461059 -0.405299,-0.6505415 0,-0.1894825 0.164252,-0.3430884 0.366867,-0.3430882 0.202615,3e-7 0.366866,0.153606 0.366866,0.3430882 z"
           sodipodi:nodetypes="sssss" /><path
           id="path18"
           style="fill:#4d4d4d;stroke:#191414;stroke-width:0.192"
           d="m 28.357427,0.89338797 c 0,0.18948213 0.220065,0.48720663 0.01745,0.48720693 -0.202615,2e-7 -0.751184,-0.2977244 -0.751184,-0.48720693 0,-0.18948251 0.164252,-0.34308838 0.366867,-0.34308815 0.202615,2.9e-7 0.366866,0.153606 0.366867,0.34308815 z"
           sodipodi:nodetypes="sssss" /><path
           id="path19"
           style="fill:#4d4d4d;stroke:#191414;stroke-width:0.192"
           d="m 29.960769,0.80506825 c 0,0.18948215 -0.471705,0.48720665 -0.674319,0.48720695 -0.202615,2e-7 -0.05941,-0.29772444 -0.05941,-0.48720695 0,-0.18948251 0.164252,-0.34308838 0.366867,-0.34308815 0.202615,2.9e-7 0.366866,0.153606 0.366866,0.34308815 z"
           sodipodi:nodetypes="sssss" /><path
           id="path20"
           style="fill:#df2e2e;fill-opacity:1;stroke:none;stroke-width:0.0965249"
           d="m 29.044968,1.3211899 c 0,0.097872 -0.06157,0.3360203 -0.160706,0.3360204 -0.09914,1e-7 -0.198318,-0.2381481 -0.198318,-0.3360204 0,-0.097872 0.08037,-0.1772134 0.179512,-0.1772133 0.09915,2e-7 0.179512,0.079341 0.179512,0.1772133 z"
           sodipodi:nodetypes="sssss" /><path
           id="path21"
           style="fill:#7f7f7f;fill-opacity:1;stroke:none;stroke-width:0.0784491"
           d="m 28.149614,0.69865723 c 0.05242,0.0598357 0.142334,0.23840606 0.08174,0.29149337 -0.0606,0.053093 -0.248779,-0.0393931 -0.301199,-0.099229 -0.05242,-0.0598357 -0.04579,-0.15137913 0.01482,-0.2044742 0.06061,-0.053099 0.152226,-0.0476261 0.204647,0.0122098 z"
           sodipodi:nodetypes="sssss" /><path
           id="path22"
           style="fill:#7f7f7f;fill-opacity:1;stroke:none;stroke-width:0.0784491"
           d="m 29.428341,0.62179387 c -0.05242,0.0598357 -0.142334,0.23840606 -0.08174,0.29149337 0.0606,0.053093 0.248779,-0.0393931 0.301199,-0.099229 0.05242,-0.0598357 0.04579,-0.15137913 -0.01482,-0.2044742 -0.06061,-0.053099 -0.152226,-0.0476261 -0.204647,0.0122098 z"
           sodipodi:nodetypes="sssss" /></g><g
         id="g29"
         transform="matrix(1.7555982,-0.07802106,-0.07818321,-1.7519572,-54.21644,26.673573)"><path
           id="path24"
           style="fill:#861414;fill-opacity:1;stroke:#191414;stroke-width:0.192"
           d="m 29.179479,1.3621619 c 0,0.1894821 -0.12582,0.6505412 -0.328434,0.6505415 -0.202615,2e-7 -0.405299,-0.461059 -0.405299,-0.6505415 0,-0.1894825 0.164252,-0.3430884 0.366867,-0.3430882 0.202615,3e-7 0.366866,0.153606 0.366866,0.3430882 z"
           sodipodi:nodetypes="sssss" /><path
           id="path25"
           style="fill:#4d4d4d;stroke:#191414;stroke-width:0.192"
           d="m 28.357427,0.89338797 c 0,0.18948213 0.220065,0.48720663 0.01745,0.48720693 -0.202615,2e-7 -0.751184,-0.2977244 -0.751184,-0.48720693 0,-0.18948251 0.164252,-0.34308838 0.366867,-0.34308815 0.202615,2.9e-7 0.366866,0.153606 0.366867,0.34308815 z"
           sodipodi:nodetypes="sssss" /><path
           id="path26"
           style="fill:#4d4d4d;stroke:#191414;stroke-width:0.192"
           d="m 29.960769,0.80506825 c 0,0.18948215 -0.471705,0.48720665 -0.674319,0.48720695 -0.202615,2e-7 -0.05941,-0.29772444 -0.05941,-0.48720695 0,-0.18948251 0.164252,-0.34308838 0.366867,-0.34308815 0.202615,2.9e-7 0.366866,0.153606 0.366866,0.34308815 z"
           sodipodi:nodetypes="sssss" /><path
           id="path27"
           style="fill:#df2e2e;fill-opacity:1;stroke:none;stroke-width:0.0965249"
           d="m 29.044968,1.3211899 c 0,0.097872 -0.06157,0.3360203 -0.160706,0.3360204 -0.09914,1e-7 -0.198318,-0.2381481 -0.198318,-0.3360204 0,-0.097872 0.08037,-0.1772134 0.179512,-0.1772133 0.09915,2e-7 0.179512,0.079341 0.179512,0.1772133 z"
           sodipodi:nodetypes="sssss" /><path
           id="path28"
           style="fill:#7f7f7f;fill-opacity:1;stroke:none;stroke-width:0.0784491"
           d="m 28.149614,0.69865723 c 0.05242,0.0598357 0.142334,0.23840606 0.08174,0.29149337 -0.0606,0.053093 -0.248779,-0.0393931 -0.301199,-0.099229 -0.05242,-0.0598357 -0.04579,-0.15137913 0.01482,-0.2044742 0.06061,-0.053099 0.152226,-0.0476261 0.204647,0.0122098 z"
           sodipodi:nodetypes="sssss" /><path
           id="path29"
           style="fill:#7f7f7f;fill-opacity:1;stroke:none;stroke-width:0.0784491"
           d="m 29.428341,0.62179387 c -0.05242,0.0598357 -0.142334,0.23840606 -0.08174,0.29149337 0.0606,0.053093 0.248779,-0.0393931 0.301199,-0.099229 0.05242,-0.0598357 0.04579,-0.15137913 -0.01482,-0.2044742 -0.06061,-0.053099 -0.152226,-0.0476261 -0.204647,0.0122098 z"
           sodipodi:nodetypes="sssss" /></g><g
         id="g44"
         transform="matrix(-1.7902656,0,0,1.7323616,48.296121,11.261096)"
         style="fill:#e6a000;fill-opacity:1"><rect
           style="fill:#e6a000;fill-opacity:1;stroke:#191414;stroke-width:0.125918;stroke-miterlimit:4;stroke-dasharray:none;stroke-opacity:1"
           id="rect43"
           width="2.418293"
           height="0.53468895"
           x="27.855507"
           y="7.3858442"
           ry="0.25027269" /><rect
           style="fill:#e6a000;fill-opacity:1;stroke:#191414;stroke-width:0.158123;stroke-miterlimit:4;stroke-dasharray:none;stroke-opacity:1"
           id="rect44"
           width="2.895308"
           height="0.70425063"
           x="27.631411"
           y="7.8246946"
           ry="0.3296397" /></g><path
         id="path56"
         style="fill:#e6a000;fill-opacity:1;stroke:#191414;stroke-width:0.306999;stroke-dasharray:none;stroke-opacity:1"
         d="M -3.7735182,2.4588452 A 3.451263,3.4240878 0 0 0 -7.2249871,5.8829256 3.451263,3.4240878 0 0 0 -3.7735182,9.307006 3.451263,3.4240878 0 0 0 -0.32204929,5.8829256 3.451263,3.4240878 0 0 0 -3.7735182,2.4588452 Z m -0.622701,1.1162109 v 0.2754354 c 0,0.3561913 0.2853307,0.6428548 0.6392375,0.6428548 0.3539068,0 0.6387207,-0.2866635 0.6387207,-0.6428548 V 3.5915926 a 2.4811844,2.450061 90 0 1 1.6185058,1.4991333 h -0.2950724 c -0.3539068,0 -0.6392375,0.2866636 -0.6392375,0.6428548 0,0.3561913 0.2853307,0.6428548 0.6392375,0.6428548 h 0.4258138 A 2.4811844,2.450061 90 0 1 -3.1487501,8.3737296 V 7.8915885 c 0,-0.3561914 -0.2848139,-0.6428548 -0.6387207,-0.6428548 -0.3539069,0 -0.6387207,0.2866634 -0.6387207,0.6428548 V 8.3737296 A 2.4811844,2.450061 90 0 1 -6.1950758,6.4379305 h 0.5059122 c 0.3539068,0 0.6392375,-0.2871803 0.6392375,-0.6433716 0,-0.3561914 -0.2853307,-0.6428548 -0.6392375,-0.6428548 h -0.4082438 a 2.4811844,2.450061 90 0 1 1.7011882,-1.576648 z" /><ellipse
         style="fill:#861414;fill-opacity:1;stroke:#191414;stroke-width:0.33298;stroke-dasharray:none;stroke-opacity:1"
         id="path59"
         cx="-3.7599304"
         cy="5.8558111"
         rx="1.3321862"
         ry="1.2914233" /><ellipse
         style="fill:#df2e2e;fill-opacity:1;stroke:none;stroke-width:0.195036;stroke-dasharray:none;stroke-opacity:1"
         id="ellipse59"
         cx="-3.5153525"
         cy="5.6112332"
         rx="0.76150495"
         ry="0.77509266" /></g><path
       d="m 22.303677,11.618299 c -0.02779,-9.52e-4 -0.05362,0.0032 -0.07752,0.01292 l -1.456759,0.594279 c -0.382288,0.155903 -1.121078,0.464503 -1.102258,0.89762 l 0.05478,1.254704 c 0.01882,0.433116 0.251076,1.314771 0.654224,1.261421 l 2.095479,-0.276985 c 0.403149,-0.05335 1.050282,-0.823093 1.053682,-1.257288 l 0.0072,-0.910539 c 0.0032,-0.407058 -0.811987,-1.561847 -1.228865,-1.576131 z"
       style="fill:#002766;fill-opacity:1;stroke:#080039;stroke-width:0.682;stroke-opacity:1"
       id="path32" /><path
       d="m 20.57602,12.679998 c 0.01347,-0.01123 0.02779,-0.02048 0.04323,-0.02737 l 0.942415,-0.418516 c 0.247295,-0.109841 0.727908,-0.320116 0.879477,-0.194033 l 0.438939,0.365366 c 0.151565,0.126085 0.364017,0.460123 0.144482,0.606365 l -1.140957,0.76022 c -0.219528,0.146247 -0.826044,0.193702 -0.989017,0.07619 l -0.341852,-0.246364 c -0.152792,-0.110171 -0.177939,-0.751558 0.02328,-0.921794 z"
       style="fill:#0053ce;fill-opacity:1;stroke:none;stroke-width:0.363341"
       id="path33" /><ellipse
       style="fill:#002766;fill-opacity:1;stroke:#080039;stroke-width:0.89;stroke-miterlimit:4;stroke-dasharray:none;stroke-opacity:1"
       id="ellipse3"
       cx="10.679691"
       cy="6.7346692"
       rx="5.9909759"
       ry="5.9534302" /><ellipse
       style="fill:#0053ce;fill-opacity:1;stroke:none;stroke-width:0.30925;stroke-miterlimit:4;stroke-dasharray:none;stroke-opacity:1"
       id="ellipse4"
       cx="10.729134"
       cy="6.4745464"
       rx="5.1499281"
       ry="5.1887231" /><ellipse
       style="fill:#1e78ff;fill-opacity:1;stroke:none;stroke-width:0.915377;stroke-dasharray:none;stroke-opacity:1"
       id="ellipse8"
       cx="4.1098084"
       cy="11.560025"
       rx="3.3188555"
       ry="4.4286542"
       transform="matrix(0.75276069,-0.65829427,0.72166593,0.69224149,0,0)" /><path
       id="path12"
       style="fill:#ffffff;fill-opacity:1;stroke:#002865;stroke-width:0.560863;stroke-miterlimit:4;stroke-dasharray:none;stroke-opacity:1"
       d="M 6.6291144,8.4687883 C 6.4080727,8.0038443 6.2593927,7.2549057 6.2593871,6.6964063 c 9.84e-5,-1.5644282 0.9060674,-2.8325801 2.023611,-2.8325985 1.1175455,1.86e-5 2.0235149,1.2681703 2.0236129,2.8325985 -6e-6,0.5584993 -0.117941,1.2450064 -0.3389834,1.7099505 -1.027335,0.3661693 -2.1578712,0.3327973 -3.3385132,0.062432 z"
       sodipodi:nodetypes="cccccc" /><ellipse
       style="fill:#110077;fill-opacity:1;stroke:none;stroke-width:1.44338"
       id="ellipse31"
       cx="8.2245874"
       cy="6.8447289"
       rx="1.5012131"
       ry="1.5897816" /><path
       id="path36"
       style="fill:#2300ec;fill-opacity:1;stroke:none;stroke-width:1.44338"
       d="M 7.3353188,5.5638295 A 1.5012129,1.5897816 0 0 0 6.7236233,6.8449011 1.5012129,1.5897816 0 0 0 8.2249319,8.434604 1.5012129,1.5897816 0 0 0 9.4902216,7.6999034 1.5012129,1.5897816 0 0 1 8.6013059,8.008535 1.5012129,1.5897816 0 0 1 7.0999984,6.418832 1.5012129,1.5897816 0 0 1 7.3353188,5.5638295 Z" /><ellipse
       style="fill:#ffffff;fill-opacity:1;stroke:none;stroke-width:0.608423"
       id="ellipse36"
       cx="8.3934364"
       cy="5.7935224"
       rx="0.58081633"
       ry="0.73009682" /><path
       id="path42"
       style="fill:#ffffff;fill-opacity:1;stroke:#002865;stroke-width:0.560863;stroke-miterlimit:4;stroke-dasharray:none;stroke-opacity:1"
       d="m 11.401236,8.2141059 c -0.221042,-0.464944 -0.369722,-1.2138826 -0.369727,-1.772382 9.8e-5,-1.5644282 0.906067,-2.8325801 2.023611,-2.8325985 1.117545,1.86e-5 2.023514,1.2681703 2.023612,2.8325985 -6e-6,0.5584993 -0.117941,1.2450064 -0.338983,1.7099505 -1.027335,0.3661693 -2.157871,0.3327973 -3.338513,0.062432 z"
       sodipodi:nodetypes="cccccc" /><ellipse
       style="fill:#110077;fill-opacity:1;stroke:none;stroke-width:1.44338"
       id="ellipse42"
       cx="13.105411"
       cy="6.5757074"
       rx="1.5012131"
       ry="1.5897816" /><path
       id="path43"
       style="fill:#2300ec;fill-opacity:1;stroke:none;stroke-width:1.44338"
       d="m 12.216142,5.2948078 a 1.5012129,1.5897816 0 0 0 -0.611695,1.2810716 1.5012129,1.5897816 0 0 0 1.501309,1.5897029 1.5012129,1.5897816 0 0 0 1.265289,-0.7347006 1.5012129,1.5897816 0 0 1 -0.888915,0.3086316 1.5012129,1.5897816 0 0 1 -1.501308,-1.589703 1.5012129,1.5897816 0 0 1 0.23532,-0.8550025 z" /><ellipse
       style="fill:#ffffff;fill-opacity:1;stroke:none;stroke-width:0.608423"
       id="ellipse43"
       cx="13.178179"
       cy="5.5245008"
       rx="0.58081633"
       ry="0.73009682" /><path
       id="path49"
       style="fill:#ffcc00;fill-opacity:1;stroke:#806600;stroke-width:0.555106;stroke-dasharray:none;stroke-opacity:1"
       d="m 10.934557,16.456263 a 1.4198211,1.4737093 78.523954 0 0 -1.4246674,1.485711 1.4198211,1.4737093 78.523954 0 0 0.01588,0.170106 1.4198211,1.4737093 78.523954 0 1 0.157981,-0.015 1.4198211,1.4737093 78.523954 0 1 1.1402754,0.458445 1.4198211,1.4737093 78.523954 0 1 1.107722,-0.558781 1.4198211,1.4737093 78.523954 0 1 0.505472,0.06324 1.4198211,1.4737093 78.523954 0 0 0.01421,-0.249497 1.4198211,1.4737093 78.523954 0 0 -1.51699,-1.354418 z m 1.502762,1.603922 a 1.4198211,1.4737093 78.523954 0 1 -1.25246,1.221423 1.4198211,1.4737093 78.523954 0 1 0.01588,0.170106 1.4198211,1.4737093 78.523954 0 1 -0.316825,0.927694 1.4198211,1.4737093 78.523954 0 0 1.141072,0.458405 1.4198211,1.4737093 78.523954 0 0 1.423838,-1.486447 1.4198211,1.4737093 78.523954 0 0 -1.011514,-1.291181 z m -1.553398,2.319227 a 1.4198211,1.4737093 78.523954 0 1 -0.376755,-0.896748 1.4198211,1.4737093 78.523954 0 1 0.01505,-0.248752 1.4198211,1.4737093 78.523954 0 1 -0.9963614,-1.121826 1.4198211,1.4737093 78.523954 0 0 -1.2666908,1.470922 1.4198211,1.4737093 78.523954 0 0 1.5178168,1.355157 1.4198211,1.4737093 78.523954 0 0 1.1069244,-0.55874 z m -0.361667,-1.14552 a 1.4198211,1.4737093 78.523954 0 0 0.50547,0.06321 1.4198211,1.4737093 78.523954 0 0 0.157191,-0.0151 1.4198211,1.4737093 78.523954 0 0 -0.360729,-0.725878 1.4198211,1.4737093 78.523954 0 0 -0.30189,0.678162 z" /></g></svg>
