<?xml version="1.0" encoding="UTF-8" standalone="no"?>
<!-- Created with Inkscape (http://www.inkscape.org/) -->

<svg
   width="100"
   height="100"
   viewBox="0 0 26.458333 26.458334"
   version="1.1"
   id="svg5"
   inkscape:version="1.4.2 (ebf0e940d0, 2025-05-08)"
   sodipodi:docname="soldadoCamara.svg"
   xml:space="preserve"
   xmlns:inkscape="http://www.inkscape.org/namespaces/inkscape"
   xmlns:sodipodi="http://sodipodi.sourceforge.net/DTD/sodipodi-0.dtd"
   xmlns="http://www.w3.org/2000/svg"
   xmlns:svg="http://www.w3.org/2000/svg"><sodipodi:namedview
     id="namedview7"
     pagecolor="#505050"
     bordercolor="#ffffff"
     borderopacity="1"
     inkscape:pageshadow="0"
     inkscape:pageopacity="0"
     inkscape:pagecheckerboard="1"
     inkscape:document-units="mm"
     showgrid="false"
     units="px"
     width="100px"
     inkscape:snap-global="false"
     inkscape:zoom="3.4422559"
     inkscape:cx="14.380105"
     inkscape:cy="58.537193"
     inkscape:window-width="1366"
     inkscape:window-height="697"
     inkscape:window-x="0"
     inkscape:window-y="0"
     inkscape:window-maximized="1"
     inkscape:current-layer="layer1"
     inkscape:showpageshadow="0"
     inkscape:deskcolor="#505050" /><defs
     id="defs2"><linearGradient
       id="linearGradient13895"
       inkscape:swatch="solid"><stop
         style="stop-color:#000000;stop-opacity:1;"
         offset="0"
         id="stop13893" /></linearGradient><filter
       style="color-interpolation-filters:sRGB;"
       inkscape:label="Clean Edges"
       id="filter14269"
       x="-0.31154084"
       y="-0.29580634"
       width="1.6230817"
       height="1.5916127"><feGaussianBlur
         stdDeviation="0.204612"
         result="blur"
         id="feGaussianBlur14263" /><feComposite
         in="SourceGraphic"
         in2="blur"
         operator="in"
         result="composite1"
         id="feComposite14265" /><feComposite
         in="composite1"
         in2="composite1"
         operator="in"
         result="composite2"
         id="feComposite14267" /></filter></defs><g
     inkscape:label="Camada 1"
     inkscape:groupmode="layer"
     id="layer1"><rect
       style="fill:#002766;stroke:#090042;stroke-width:0.549252;stroke-opacity:1;fill-opacity:1"
       id="rect2199"
       width="2.9690452"
       height="6.6044025"
       x="8.7919703"
       y="19.400715"
       ry="1.1621161" /><rect
       style="fill:#002766;stroke:#090042;stroke-width:0.555604;stroke-opacity:1;fill-opacity:1"
       id="rect2303"
       width="3.1049774"
       height="6.4621744"
       x="12.157646"
       y="19.460148"
       ry="1.1370896" /><path
       id="rect9714"
       style="fill:#002766;fill-opacity:1;stroke:#090042;stroke-width:0.729891;stroke-miterlimit:4;stroke-dasharray:none;stroke-opacity:1"
       d="m 7.6022694,12.553516 c -0.3984669,0.04333 -0.7387347,0.217058 -0.8633398,0.472573 l -1.7163778,3.519688 c -0.029088,0.05965 -0.044659,0.120295 -0.047717,0.180126 -0.055572,0.07858 -0.091435,0.162602 -0.1016004,0.250084 l -0.432536,3.719764 c -0.045655,0.392702 0.4306996,0.693691 1.0674906,0.675259 l 0.4818061,-0.01333 c 0.6367913,-0.01842 1.1860484,-0.350028 1.2317043,-0.742731 l 0.3976602,-3.42068 c 0.026129,-0.03302 0.048334,-0.06744 0.06614,-0.103945 L 9.4026581,13.569886 C 9.5838996,13.198231 9.2383071,12.798759 8.6284722,12.674198 l -0.4615991,-0.09451 c -0.190576,-0.03893 -0.3834691,-0.04582 -0.5645944,-0.02615 z" /><path
       id="path77"
       style="fill:#060606;fill-opacity:1;stroke:#060606;stroke-width:0.558099;stroke-dasharray:none;stroke-opacity:1"
       d="m 15.093747,4.7161739 c -0.203908,0.3693335 -0.355682,0.7660664 -0.448434,1.1861065 -0.431282,1.9525973 0.5163,4.076008 2.528822,5.6667776 C 16.904799,9.3602789 15.78856,6.9193741 17.406011,5.2266226 Z" /><path
       id="path11551"
       style="fill:#002766;fill-opacity:1;stroke:#090042;stroke-width:0.728343;stroke-miterlimit:4;stroke-dasharray:none;stroke-opacity:1"
       d="m 23.55253,13.763283 c -0.118741,0.407513 -0.358479,0.727999 -0.640029,0.806881 l -3.878288,1.08655 c -0.06572,0.01842 -0.129911,0.02251 -0.190914,0.01373 -0.08986,0.04228 -0.181458,0.06287 -0.271725,0.05594 l -3.838337,-0.294472 c -0.405221,-0.03109 -0.619405,-0.588985 -0.480749,-1.250358 l 0.104285,-0.500531 c 0.138652,-0.661374 0.577097,-1.168506 0.982318,-1.13741 l 3.5297,0.27087 c 0.03827,-0.02066 0.07722,-0.03694 0.117463,-0.0482 l 3.879185,-1.087217 c 0.409523,-0.114732 0.74783,0.326334 0.758665,0.988245 l 0.0084,0.501061 c 0.0034,0.206848 -0.02602,0.409687 -0.08002,0.594914 z" /><rect
       style="fill:#353535;fill-opacity:1;stroke:#0d0d0d;stroke-width:0.461;stroke-dasharray:none;stroke-opacity:1"
       id="rect63"
       width="3.3208897"
       height="7.7405319"
       x="8.6008129"
       y="16.709896"
       ry="0.46161059" /><rect
       style="fill:#353535;fill-opacity:1;stroke:#0d0d0d;stroke-width:0.461;stroke-dasharray:none;stroke-opacity:1"
       id="rect64"
       width="3.3208897"
       height="7.7405319"
       x="12.059664"
       y="16.594601"
       ry="0.46161059" /><rect
       style="fill:#4d4d4d;fill-opacity:1;stroke:#1a1a1a;stroke-width:0.579002;stroke-dasharray:none;stroke-opacity:1"
       id="rect62"
       width="7.6374707"
       height="8.6751251"
       x="8.1719475"
       y="12.437864"
       ry="0.51734555" /><ellipse
       style="fill:#002766;fill-opacity:1;stroke:#090042;stroke-width:0.509;stroke-miterlimit:4;stroke-dasharray:none;stroke-opacity:1"
       id="path11105"
       cx="12.116874"
       cy="12.729002"
       rx="2.3867757"
       ry="2.1036232" /><ellipse
       style="fill:#002766;fill-opacity:1;stroke:#090042;stroke-width:0.650363;stroke-miterlimit:4;stroke-dasharray:none;stroke-opacity:1"
       id="path9279"
       cx="12.392307"
       cy="7.2467313"
       rx="5.6305685"
       ry="5.6201978" /><ellipse
       style="fill:#0053ce;fill-opacity:1;stroke:none;stroke-width:0.286156;stroke-miterlimit:4;stroke-dasharray:none;stroke-opacity:1"
       id="ellipse9379"
       cx="12.485004"
       cy="6.6386304"
       rx="4.8519564"
       ry="4.715518" /><path
       id="rect74"
       style="fill:#3d3d3d;fill-opacity:1;stroke:#060606;stroke-width:0.46;stroke-dasharray:none;stroke-opacity:1"
       d="m 20.729965,1.1541141 -1.382825,3.5176681 0.502805,-0.0031 a 1.0268432,1.2245261 0 0 0 -0.141123,0.6193952 1.0268432,1.2245261 0 0 0 0.417155,0.9852369 V 19.759262 a 1.0268432,1.2245261 0 0 0 -0.417155,0.985236 1.0268432,1.2245261 0 0 0 0.384759,0.952638 1.0268432,1.2245261 0 0 0 -0.384759,0.95212 1.0268432,1.2245261 0 0 0 0.417155,0.985236 v 2.310961 h 1.172915 v -2.272156 a 1.0268432,1.2245261 0 0 0 0.463753,-1.024046 1.0268432,1.2245261 0 0 0 -0.383872,-0.95212 1.0268432,1.2245261 0 0 0 0.383872,-0.952638 1.0268432,1.2245261 0 0 0 -0.463753,-1.024045 V 6.3121188 A 1.0268432,1.2245261 0 0 0 21.762645,5.2880727 1.0268432,1.2245261 0 0 0 21.615753,4.6572935 l 0.518781,-0.00362 z" /><path
       d="m 23.49939,11.618299 c -0.02779,-9.52e-4 -0.05362,0.0032 -0.07752,0.01292 l -1.456759,0.594279 c -0.382288,0.155903 -1.121078,0.464503 -1.102258,0.89762 l 0.05478,1.254704 c 0.01882,0.433116 0.251076,1.314771 0.654224,1.261421 l 2.095479,-0.276985 c 0.403149,-0.05335 1.050282,-0.823093 1.053682,-1.257288 l 0.0072,-0.910539 c 0.0032,-0.407058 -0.811987,-1.561847 -1.228865,-1.576131 z"
       style="fill:#002766;fill-opacity:1;stroke:#090042;stroke-width:0.682;stroke-opacity:1"
       id="path32" /><path
       d="m 22.225842,12.578304 c 0.0102,-0.0082 0.02104,-0.01495 0.03274,-0.01998 l 0.713687,-0.305574 c 0.187276,-0.0802 0.551242,-0.23373 0.666025,-0.141672 l 0.332407,0.266768 c 0.11478,0.09206 0.275669,0.335954 0.109416,0.442731 l -0.864043,0.555065 c -0.166248,0.106781 -0.62556,0.14143 -0.748979,0.05563 l -0.258887,-0.17988 c -0.115709,-0.08044 -0.134752,-0.548741 0.01763,-0.673037 z"
       style="fill:#0053ce;fill-opacity:1;stroke:none;stroke-width:0.270178"
       id="path33" /><path
       id="path55"
       style="fill:#1a1a1a;fill-opacity:1;stroke:none;stroke-width:0.529213;stroke-dasharray:none;stroke-opacity:1"
       d="m 12.33086,15.472761 a 1.3751644,1.382931 60.040378 0 0 -1.511645,1.240372 1.3751644,1.382931 60.040378 0 0 -0.0068,0.165539 1.3751644,1.382931 60.040378 0 1 0.148594,0.0062 1.3751644,1.382931 60.040378 0 1 1.000602,0.590261 1.3751644,1.382931 60.040378 0 1 1.099592,-0.391386 1.3751644,1.382931 60.040378 0 1 0.461338,0.127144 1.3751644,1.382931 60.040378 0 0 0.04489,-0.237866 1.3751644,1.382931 60.040378 0 0 -1.236601,-1.500614 z m 1.191694,1.738475 a 1.3751644,1.382931 60.040378 0 1 -1.318166,1.00906 1.3751644,1.382931 60.040378 0 1 -0.0068,0.165539 1.3751644,1.382931 60.040378 0 1 -0.412129,0.849734 1.3751644,1.382931 60.040378 0 0 1.00135,0.590331 1.3751644,1.382931 60.040378 0 0 1.510969,-1.24119 1.3751644,1.382931 60.040378 0 0 -0.775261,-1.373462 z m -1.737063,2.024323 a 1.3751644,1.382931 60.040378 0 1 -0.23592,-0.911101 1.3751644,1.382931 60.040378 0 1 0.04557,-0.23702 1.3751644,1.382931 60.040378 0 1 -0.7827,-1.208751 1.3751644,1.382931 60.040378 0 0 -1.3630733,1.246918 1.3751644,1.382931 60.040378 0 0 1.2372733,1.50143 1.3751644,1.382931 60.040378 0 0 1.098844,-0.391453 z m -0.190345,-1.148146 a 1.3751644,1.382931 60.040378 0 0 0.461338,0.127145 1.3751644,1.382931 60.040378 0 0 0.147893,0.0058 1.3751644,1.382931 60.040378 0 0 -0.242763,-0.744821 1.3751644,1.382931 60.040378 0 0 -0.366475,0.61194 z" /><g
       id="g61"
       transform="translate(0.0815259,0.19022709)"><path
         id="path1"
         style="fill:#f2f2f2;stroke-width:1.03857"
         d="M 10.46076,9.0642547 A 1.834341,2.2827935 0 0 0 12.294939,6.7816959 1.834341,2.2827935 0 0 0 12.137394,5.8556265 2.0044123,0.9179487 0 0 1 10.509271,6.2378138 2.0044123,0.9179487 0 0 1 8.8035297,5.8023407 1.834341,2.2827935 0 0 0 8.6261177,6.7816959 1.834341,2.2827935 0 0 0 10.46076,9.0642547 Z" /><ellipse
         style="fill:#002766;fill-opacity:1;stroke:none;stroke-width:1.1343"
         id="ellipse10"
         cx="10.914383"
         cy="7.4231758"
         rx="1.2128806"
         ry="1.2152098" /><path
         id="path11"
         style="fill:#001c4a;fill-opacity:1;stroke:none;stroke-width:1.1343"
         d="M 10.114387,6.5527718 A 1.2128805,1.2152098 0 0 0 9.6201773,7.5320073 1.2128805,1.2152098 0 0 0 10.833135,8.7471569 1.2128805,1.2152098 0 0 0 11.855403,8.1855608 1.2128805,1.2152098 0 0 1 11.13722,8.421475 1.2128805,1.2152098 0 0 1 9.9242628,7.2063253 1.2128805,1.2152098 0 0 1 10.114387,6.5527718 Z" /><ellipse
         style="fill:#ffffff;fill-opacity:1;stroke:none;stroke-width:0.491719"
         id="circle11"
         cx="11.718821"
         cy="6.9650769"
         rx="0.53707933"
         ry="0.51570708" /></g><g
       id="g62"
       transform="translate(4.3480479,0.13587649)"><path
         id="path61"
         style="fill:#f2f2f2;stroke-width:1.03857"
         d="M 10.46076,9.0642547 A 1.834341,2.2827935 0 0 0 12.294939,6.7816959 1.834341,2.2827935 0 0 0 12.137394,5.8556265 2.0044123,0.9179487 0 0 1 10.509271,6.2378138 2.0044123,0.9179487 0 0 1 8.8035297,5.8023407 1.834341,2.2827935 0 0 0 8.6261177,6.7816959 1.834341,2.2827935 0 0 0 10.46076,9.0642547 Z" /><ellipse
         style="fill:#002766;fill-opacity:1;stroke:none;stroke-width:1.1343"
         id="ellipse61"
         cx="10.914383"
         cy="7.4231758"
         rx="1.2128806"
         ry="1.2152098" /><path
         id="path62"
         style="fill:#001c4a;fill-opacity:1;stroke:none;stroke-width:1.1343"
         d="M 10.114387,6.5527718 A 1.2128805,1.2152098 0 0 0 9.6201773,7.5320073 1.2128805,1.2152098 0 0 0 10.833135,8.7471569 1.2128805,1.2152098 0 0 0 11.855403,8.1855608 1.2128805,1.2152098 0 0 1 11.13722,8.421475 1.2128805,1.2152098 0 0 1 9.9242628,7.2063253 1.2128805,1.2152098 0 0 1 10.114387,6.5527718 Z" /><ellipse
         style="fill:#ffffff;fill-opacity:1;stroke:none;stroke-width:0.491719"
         id="ellipse62"
         cx="11.718821"
         cy="6.9650769"
         rx="0.53707933"
         ry="0.51570708" /></g><ellipse
       style="fill:#1a1a1a;fill-opacity:1;stroke:#060606;stroke-width:0.509;stroke-dasharray:none;stroke-opacity:1"
       id="path65"
       cx="3.346669"
       cy="18.880611"
       rx="3.0979841"
       ry="5.842689"
       transform="rotate(-7.4332942)" /><ellipse
       style="fill:#1a1a1a;fill-opacity:1;stroke:#060606;stroke-width:0.309385;stroke-dasharray:none;stroke-opacity:1"
       id="ellipse65"
       cx="1.9380324"
       cy="19.084885"
       rx="1.6875403"
       ry="3.9627831"
       transform="matrix(0.9868599,-0.16157829,0.1034065,0.99463918,0,0)" /><ellipse
       style="fill:#1a1a1a;fill-opacity:1;stroke:#060606;stroke-width:0.295563;stroke-dasharray:none;stroke-opacity:1"
       id="ellipse66"
       cx="4.4857554"
       cy="21.751234"
       rx="0.90367496"
       ry="0.62411231"
       transform="matrix(0.97231107,0.23369035,0.08326896,0.99652711,0,0)" /><ellipse
       style="fill:#1a1a1a;fill-opacity:1;stroke:#060606;stroke-width:0.295563;stroke-dasharray:none;stroke-opacity:1"
       id="ellipse67"
       cx="4.4857554"
       cy="21.751234"
       rx="0.90367496"
       ry="0.62411231"
       transform="matrix(0.97231107,0.23369035,0.08326896,0.99652711,0,0)" /><ellipse
       style="fill:#1a1a1a;fill-opacity:1;stroke:#060606;stroke-width:0.295563;stroke-dasharray:none;stroke-opacity:1"
       id="ellipse68"
       cx="6.8526449"
       cy="-15.578618"
       rx="0.90367496"
       ry="0.62411231"
       transform="matrix(0.97231107,-0.23369035,0.08326896,-0.99652711,0,0)" /><ellipse
       style="fill:#1a1a1a;fill-opacity:1;stroke:#060606;stroke-width:0.295563;stroke-dasharray:none;stroke-opacity:1"
       id="ellipse69"
       cx="10.799017"
       cy="-17.33996"
       rx="0.90367496"
       ry="0.62411231"
       transform="matrix(0.99651947,-0.08336036,0.23360117,-0.9723325,0,0)" /><ellipse
       style="fill:#1a1a1a;fill-opacity:1;stroke:#060606;stroke-width:0.295563;stroke-dasharray:none;stroke-opacity:1"
       id="ellipse70"
       cx="2.2030647"
       cy="20.810188"
       rx="0.90367496"
       ry="0.62411231"
       transform="matrix(0.99651947,0.08336036,0.23360117,0.9723325,0,0)" /><ellipse
       style="fill:#1a1a1a;fill-opacity:1;stroke:#060606;stroke-width:0.304694;stroke-dasharray:none;stroke-opacity:1"
       id="ellipse71"
       cx="-2.5818591"
       cy="20.266659"
       rx="0.93706065"
       ry="0.63963711"
       transform="matrix(0.98406895,-0.17778722,0.47924544,0.87768092,0,0)" /><path
       id="ellipse72"
       style="fill:#060606;fill-opacity:1;stroke:none;stroke-width:0.29515;stroke-dasharray:none;stroke-opacity:1"
       d="m 2.6765087,15.850122 a 3.7279814,1.6325552 84.56828 0 0 -0.4384737,3.286162 3.7279814,1.6325552 84.56828 0 0 2.0124687,3.4494 3.7279814,1.6325552 84.56828 0 0 1.1881384,-2.010368 3.7279814,1.6325552 84.56828 0 1 -0.778228,0.673361 3.7279814,1.6325552 84.56828 0 1 -2.0124688,-3.448914 3.7279814,1.6325552 84.56828 0 1 0.028563,-1.949641 z" /><path
       id="ellipse73"
       style="fill:#3d3d3d;fill-opacity:1;stroke:none;stroke-width:0.137625;stroke-dasharray:none;stroke-opacity:1"
       d="M 1.306788 16.060178 A 0.7419762 1.7834666 0 0 0 1.2101488 16.045009 A 0.7419762 1.7834666 0 0 0 0.6715273 16.605774 A 0.7419762 1.7834666 0 0 1 0.75714193 16.592442 A 0.7419762 1.7834666 0 0 1 1.4986611 18.37581 A 0.7419762 1.7834666 0 0 1 1.2957907 19.598331 A 0.7419762 1.7834666 0 0 0 1.952179 17.828507 A 0.7419762 1.7834666 0 0 0 1.306788 16.060178 z "
       transform="matrix(0.96800178,-0.25094334,0.16951123,0.98552826,0,0)" /><path
       id="path76"
       style="fill:#3d3d3d;fill-opacity:1;stroke:#060606;stroke-width:0.464116;stroke-dasharray:none;stroke-opacity:1"
       d="m 12.215679,1.1752566 c -3.2706038,2.01e-5 -5.9219804,2.6391344 -5.9221195,5.8947306 -1.6e-4,1.958194 0.9765493,3.7886528 2.6065592,4.8849738 -0.6293193,-2.4778785 -2.1585429,-5.017819 0,-7.3034308 3.4616033,1.4213541 6.1675743,0.9116474 8.7162643,0 -0.956236,-2.115622 -3.070124,-3.4762693 -5.400704,-3.4762736 z"
       sodipodi:nodetypes="cccccc" /><path
       id="path78"
       style="fill:#1a1a1a;fill-opacity:1;stroke:none;stroke-width:0.267586;stroke-dasharray:none;stroke-opacity:1"
       d="m 13.370838,2.7303029 a 0.70857085,0.68617942 85.75019 0 0 -0.647196,0.743419 0.70857085,0.68617942 85.75019 0 0 0.0094,0.08471 0.70857085,0.68617942 85.75019 0 1 0.0735,-0.00791 0.70857085,0.68617942 85.75019 0 1 0.537137,0.2257541 0.70857085,0.68617942 85.75019 0 1 0.510142,-0.2809199 0.70857085,0.68617942 85.75019 0 1 0.23648,0.030332 0.70857085,0.68617942 85.75019 0 0 0.0037,-0.1243297 A 0.70857085,0.68617942 85.75019 0 0 13.37078,2.73013 Z m 0.719501,0.7955595 a 0.70857085,0.68617942 85.75019 0 1 -0.569949,0.6113633 0.70857085,0.68617942 85.75019 0 1 0.0094,0.084709 0.70857085,0.68617942 85.75019 0 1 -0.137034,0.4628852 0.70857085,0.68617942 85.75019 0 0 0.537511,0.225734 0.70857085,0.68617942 85.75019 0 0 0.646799,-0.7437846 0.70857085,0.68617942 85.75019 0 0 -0.486758,-0.640895 z m -0.697554,1.1589471 a 0.70857085,0.68617942 85.75019 0 1 -0.186121,-0.4458635 0.70857085,0.68617942 85.75019 0 1 0.0041,-0.1239505 0.70857085,0.68617942 85.75019 0 1 -0.477722,-0.5565624 0.70857085,0.68617942 85.75019 0 0 -0.573688,0.73569 0.70857085,0.68617942 85.75019 0 0 0.723633,0.6715962 0.70857085,0.68617942 85.75019 0 0 0.509769,-0.2808983 z M 13.210798,4.1149822 a 0.70857085,0.68617942 85.75019 0 0 0.236481,0.030333 0.70857085,0.68617942 85.75019 0 0 0.07312,-0.00806 0.70857085,0.68617942 85.75019 0 0 -0.176672,-0.3607772 0.70857085,0.68617942 85.75019 0 0 -0.132923,0.3385354 z" /></g></svg>
