<?xml version="1.0" encoding="UTF-8" standalone="no"?>
<!-- Created with Inkscape (http://www.inkscape.org/) -->

<svg
   width="100"
   height="100"
   viewBox="0 0 26.458333 26.458334"
   version="1.1"
   id="svg5"
   inkscape:version="1.4.2 (ebf0e940d0, 2025-05-08)"
   sodipodi:docname="viajante.svg"
   xml:space="preserve"
   xmlns:inkscape="http://www.inkscape.org/namespaces/inkscape"
   xmlns:sodipodi="http://sodipodi.sourceforge.net/DTD/sodipodi-0.dtd"
   xmlns="http://www.w3.org/2000/svg"
   xmlns:svg="http://www.w3.org/2000/svg"><sodipodi:namedview
     id="namedview7"
     pagecolor="#505050"
     bordercolor="#ffffff"
     borderopacity="1"
     inkscape:pageshadow="0"
     inkscape:pageopacity="0"
     inkscape:pagecheckerboard="1"
     inkscape:document-units="mm"
     showgrid="false"
     units="px"
     width="100px"
     inkscape:snap-global="false"
     inkscape:zoom="2.4340425"
     inkscape:cx="-38.002623"
     inkscape:cy="43.754372"
     inkscape:window-width="1366"
     inkscape:window-height="697"
     inkscape:window-x="0"
     inkscape:window-y="0"
     inkscape:window-maximized="1"
     inkscape:current-layer="layer1"
     inkscape:showpageshadow="0"
     inkscape:deskcolor="#505050" /><defs
     id="defs2"><linearGradient
       id="linearGradient13895"
       inkscape:swatch="solid"><stop
         style="stop-color:#000000;stop-opacity:1;"
         offset="0"
         id="stop13893" /></linearGradient><filter
       style="color-interpolation-filters:sRGB;"
       inkscape:label="Clean Edges"
       id="filter14269"
       x="-0.31154084"
       y="-0.29580634"
       width="1.6230817"
       height="1.5916127"><feGaussianBlur
         stdDeviation="0.204612"
         result="blur"
         id="feGaussianBlur14263" /><feComposite
         in="SourceGraphic"
         in2="blur"
         operator="in"
         result="composite1"
         id="feComposite14265" /><feComposite
         in="composite1"
         in2="composite1"
         operator="in"
         result="composite2"
         id="feComposite14267" /></filter><filter
       style="color-interpolation-filters:sRGB;"
       inkscape:label="Clean Edges"
       id="filter14269-3"
       x="-0.31154084"
       y="-0.29580634"
       width="1.6230817"
       height="1.5916127"><feGaussianBlur
         stdDeviation="0.204612"
         result="blur"
         id="feGaussianBlur14263-5" /><feComposite
         in="SourceGraphic"
         in2="blur"
         operator="in"
         result="composite1"
         id="feComposite14265-6" /><feComposite
         in="composite1"
         in2="composite1"
         operator="in"
         result="composite2"
         id="feComposite14267-2" /></filter><filter
       style="color-interpolation-filters:sRGB;"
       inkscape:label="Clean Edges"
       id="filter14269-6"
       x="-0.31154084"
       y="-0.29580634"
       width="1.6230817"
       height="1.5916127"><feGaussianBlur
         stdDeviation="0.204612"
         result="blur"
         id="feGaussianBlur14263-7" /><feComposite
         in="SourceGraphic"
         in2="blur"
         operator="in"
         result="composite1"
         id="feComposite14265-5" /><feComposite
         in="composite1"
         in2="composite1"
         operator="in"
         result="composite2"
         id="feComposite14267-3" /></filter><inkscape:path-effect
       effect="fillet_chamfer"
       id="path-effect68"
       is_visible="true"
       lpeversion="1"
       nodesatellites_param="F,0,0,1,0,0,0,1 @ F,0,0,1,0,0,0,1 @ F,0,0,1,0,0,0,1 @ F,0,0,1,0,0,0,1 @ F,0,0,1,0,0,0,1 @ F,0,0,1,0,0,0,1 @ F,0,0,1,0,0,0,1 @ F,0,0,1,0,0,0,1 @ F,0,0,1,0,0,0,1"
       radius="0"
       unit="px"
       method="auto"
       mode="F"
       chamfer_steps="1"
       flexible="false"
       use_knot_distance="true"
       apply_no_radius="true"
       apply_with_radius="true"
       only_selected="false"
       hide_knots="false" /><inkscape:path-effect
       effect="fillet_chamfer"
       id="path-effect66"
       is_visible="true"
       lpeversion="1"
       nodesatellites_param="F,0,0,1,0,0,0,1 @ F,0,0,1,0,0.44929322,0,1 @ F,0,0,1,0,0.44929322,0,1 @ F,0,0,1,0,0,0,1 @ F,0,0,1,0,0,0,1 @ F,0,0,1,0,0,0,1 @ F,0,0,1,0,0,0,1 @ F,0,0,1,0,0,0,1 @ F,0,0,1,0,0,0,1 @ F,0,0,1,0,0,0,1"
       radius="0"
       unit="px"
       method="auto"
       mode="F"
       chamfer_steps="1"
       flexible="false"
       use_knot_distance="true"
       apply_no_radius="true"
       apply_with_radius="true"
       only_selected="false"
       hide_knots="false" /><inkscape:path-effect
       effect="fillet_chamfer"
       id="path-effect68-6"
       is_visible="true"
       lpeversion="1"
       nodesatellites_param="F,0,0,1,0,0,0,1 @ F,0,0,1,0,0,0,1 @ F,0,0,1,0,0,0,1 @ F,0,0,1,0,0,0,1 @ F,0,0,1,0,0,0,1 @ F,0,0,1,0,0,0,1 @ F,0,0,1,0,0,0,1 @ F,0,0,1,0,0,0,1 @ F,0,0,1,0,0,0,1"
       radius="0"
       unit="px"
       method="auto"
       mode="F"
       chamfer_steps="1"
       flexible="false"
       use_knot_distance="true"
       apply_no_radius="true"
       apply_with_radius="true"
       only_selected="false"
       hide_knots="false" /><inkscape:path-effect
       effect="fillet_chamfer"
       id="path-effect66-7"
       is_visible="true"
       lpeversion="1"
       nodesatellites_param="F,0,0,1,0,0,0,1 @ F,0,0,1,0,0.44929322,0,1 @ F,0,0,1,0,0.44929322,0,1 @ F,0,0,1,0,0,0,1 @ F,0,0,1,0,0,0,1 @ F,0,0,1,0,0,0,1 @ F,0,0,1,0,0,0,1 @ F,0,0,1,0,0,0,1 @ F,0,0,1,0,0,0,1 @ F,0,0,1,0,0,0,1"
       radius="0"
       unit="px"
       method="auto"
       mode="F"
       chamfer_steps="1"
       flexible="false"
       use_knot_distance="true"
       apply_no_radius="true"
       apply_with_radius="true"
       only_selected="false"
       hide_knots="false" /><inkscape:path-effect
       effect="fillet_chamfer"
       id="path-effect68-7"
       is_visible="true"
       lpeversion="1"
       nodesatellites_param="F,0,0,1,0,0,0,1 @ F,0,0,1,0,0,0,1 @ F,0,0,1,0,0,0,1 @ F,0,0,1,0,0,0,1 @ F,0,0,1,0,0,0,1 @ F,0,0,1,0,0,0,1 @ F,0,0,1,0,0,0,1 @ F,0,0,1,0,0,0,1 @ F,0,0,1,0,0,0,1"
       radius="0"
       unit="px"
       method="auto"
       mode="F"
       chamfer_steps="1"
       flexible="false"
       use_knot_distance="true"
       apply_no_radius="true"
       apply_with_radius="true"
       only_selected="false"
       hide_knots="false" /><inkscape:path-effect
       effect="fillet_chamfer"
       id="path-effect66-5"
       is_visible="true"
       lpeversion="1"
       nodesatellites_param="F,0,0,1,0,0,0,1 @ F,0,0,1,0,0.44929322,0,1 @ F,0,0,1,0,0.44929322,0,1 @ F,0,0,1,0,0,0,1 @ F,0,0,1,0,0,0,1 @ F,0,0,1,0,0,0,1 @ F,0,0,1,0,0,0,1 @ F,0,0,1,0,0,0,1 @ F,0,0,1,0,0,0,1 @ F,0,0,1,0,0,0,1"
       radius="0"
       unit="px"
       method="auto"
       mode="F"
       chamfer_steps="1"
       flexible="false"
       use_knot_distance="true"
       apply_no_radius="true"
       apply_with_radius="true"
       only_selected="false"
       hide_knots="false" /><inkscape:path-effect
       effect="fillet_chamfer"
       id="path-effect68-3"
       is_visible="true"
       lpeversion="1"
       nodesatellites_param="F,0,0,1,0,0,0,1 @ F,0,0,1,0,0,0,1 @ F,0,0,1,0,0,0,1 @ F,0,0,1,0,0,0,1 @ F,0,0,1,0,0,0,1 @ F,0,0,1,0,0,0,1 @ F,0,0,1,0,0,0,1 @ F,0,0,1,0,0,0,1 @ F,0,0,1,0,0,0,1"
       radius="0"
       unit="px"
       method="auto"
       mode="F"
       chamfer_steps="1"
       flexible="false"
       use_knot_distance="true"
       apply_no_radius="true"
       apply_with_radius="true"
       only_selected="false"
       hide_knots="false" /><inkscape:path-effect
       effect="fillet_chamfer"
       id="path-effect66-6"
       is_visible="true"
       lpeversion="1"
       nodesatellites_param="F,0,0,1,0,0,0,1 @ F,0,0,1,0,0.44929322,0,1 @ F,0,0,1,0,0.44929322,0,1 @ F,0,0,1,0,0,0,1 @ F,0,0,1,0,0,0,1 @ F,0,0,1,0,0,0,1 @ F,0,0,1,0,0,0,1 @ F,0,0,1,0,0,0,1 @ F,0,0,1,0,0,0,1 @ F,0,0,1,0,0,0,1"
       radius="0"
       unit="px"
       method="auto"
       mode="F"
       chamfer_steps="1"
       flexible="false"
       use_knot_distance="true"
       apply_no_radius="true"
       apply_with_radius="true"
       only_selected="false"
       hide_knots="false" /><filter
       style="color-interpolation-filters:sRGB;"
       inkscape:label="Clean Edges"
       id="filter14269-5"
       x="-0.31154084"
       y="-0.29580634"
       width="1.6230817"
       height="1.5916127"><feGaussianBlur
         stdDeviation="0.204612"
         result="blur"
         id="feGaussianBlur14263-6" /><feComposite
         in="SourceGraphic"
         in2="blur"
         operator="in"
         result="composite1"
         id="feComposite14265-2" /><feComposite
         in="composite1"
         in2="composite1"
         operator="in"
         result="composite2"
         id="feComposite14267-9" /></filter></defs><g
     inkscape:label="Camada 1"
     inkscape:groupmode="layer"
     id="layer1"><rect
       style="fill:#ffa233;fill-opacity:1;stroke:#a85b00;stroke-width:0.559363;stroke-linecap:round;stroke-linejoin:round;stroke-dasharray:none;stroke-opacity:1"
       id="rect9"
       width="12.598449"
       height="14.11292"
       x="8.7652054"
       y="8.5991726"
       ry="1.9358392" /><path
       id="path1"
       style="fill:#0053ce;fill-opacity:1;stroke:#110077;stroke-width:1.049;stroke-miterlimit:4;stroke-dasharray:none;stroke-opacity:1"
       d="m 18.276068,12.484172 c 0.369913,0.09438 0.668473,0.325731 0.753489,0.622042 l 1.171034,4.081646 c 0.02462,0.167558 0.06039,0.324353 0.08616,0.491825 l -0.06385,4.152108 c -0.0068,0.438344 -0.493674,0.714512 -1.091274,0.619715 l -0.452231,-0.07104 c -0.597601,-0.09479 -1.073049,-0.524664 -1.066301,-0.96301 l 0.05882,-3.81825 c -0.02043,-0.03946 -0.037,-0.08002 -0.04914,-0.122349 L 16.4511,13.394297 c -0.123657,-0.430995 0.252553,-0.831047 0.842877,-0.89707 l 0.446859,-0.05023 c 0.184479,-0.02063 0.367084,-0.0056 0.535231,0.0372 z"
       sodipodi:nodetypes="ccccccccccccccc" /><rect
       style="fill:#a80000;fill-opacity:1;stroke:#1e0000;stroke-width:0.625702;stroke-linecap:round;stroke-linejoin:round;stroke-dasharray:none;stroke-opacity:1"
       id="rect2"
       width="3.3042605"
       height="5.7516651"
       x="-16.786551"
       y="15.653372"
       transform="matrix(-0.97467866,0.22361018,0.20063399,0.97966627,0,0)"
       ry="1.3439732" /><rect
       style="fill:#0053ce;fill-opacity:1;stroke:#110077;stroke-width:0.535164;stroke-opacity:1"
       id="rect46"
       width="2.839504"
       height="6.555995"
       x="10.058825"
       y="19.604668"
       ry="1.1535982" /><rect
       style="fill:#0053ce;fill-opacity:1;stroke:#110077;stroke-width:0.543834;stroke-opacity:1"
       id="rect47"
       width="2.9670165"
       height="6.479146"
       x="13.643992"
       y="19.62694"
       ry="1.1400759" /><path
       id="path47"
       style="fill:#002766;stroke-width:0.439527"
       d="m 11.101562,20.508552 h 0.700892 c 0.471613,0 0.851288,0.410388 0.851288,0.920153 v 3.388999 c 0,0.509765 -0.339089,0.55543 -0.800975,0.658433 l -0.807808,0.180145 c -0.461886,0.103002 -0.794685,-0.328813 -0.794685,-0.838578 v -3.388999 c 0,-0.509765 0.379674,-0.920153 0.851288,-0.920153 z"
       sodipodi:nodetypes="sssssssss" /><path
       id="path48"
       style="fill:#002766;stroke-width:0.445425"
       d="m 14.76066,20.590127 h 0.719827 c 0.484355,0 0.874285,0.410388 0.874285,0.920153 v 3.388999 c 0,0.509765 -0.348248,0.55543 -0.822612,0.658433 l -0.829632,0.180145 C 14.228164,25.84086 13.886375,25.409044 13.886375,24.899279 V 21.51028 c 0,-0.509765 0.38993,-0.920153 0.874285,-0.920153 z"
       sodipodi:nodetypes="sssssssss" /><path
       id="rect9714"
       style="fill:#0053ce;fill-opacity:1;stroke:#110077;stroke-width:0.749208;stroke-miterlimit:4;stroke-dasharray:none;stroke-opacity:1"
       d="m 10.967841,12.539042 c -0.351486,-0.148999 -0.729179,-0.145797 -0.9763223,0.03845 L 6.5871706,15.115513 C 6.4660777,15.233911 6.3426288,15.336989 6.2206739,15.454622 L 3.7561413,18.7968 c -0.2601773,0.352845 -0.040073,0.867547 0.4928162,1.154149 l 0.4028395,0.217439 c 0.5328861,0.286609 1.1715774,0.23262 1.4317574,-0.120226 l 2.2662937,-3.073501 c 0.04016,-0.01902 0.077907,-0.04125 0.1132159,-0.06757 l 3.405414,-2.538364 c 0.359479,-0.267996 0.302509,-0.814193 -0.127167,-1.22434 l -0.3251,-0.31067 c -0.134278,-0.12817 -0.288666,-0.226833 -0.448376,-0.294644 z"
       sodipodi:nodetypes="ccccccccccccccc" /><rect
       style="fill:#a80000;fill-opacity:1;stroke:#1e0000;stroke-width:0.625702;stroke-linecap:round;stroke-linejoin:round;stroke-dasharray:none;stroke-opacity:1"
       id="rect8"
       width="3.3042605"
       height="5.7516651"
       x="13.691114"
       y="4.4535213"
       transform="matrix(0.80185519,0.59751841,-0.5785019,0.81568104,0,0)"
       ry="1.3439732" /><path
       id="path8"
       style="fill:#a80000;fill-opacity:1;stroke:#1e0000;stroke-width:0.701832;stroke-miterlimit:4;stroke-dasharray:none;stroke-opacity:1"
       d="m 9.8144675,17.814841 -0.1919148,5.70056 1.5785813,0.736074 1.717944,0.670643 1.494227,-0.05458 1.657613,-0.486938 0.982156,-0.331499 -0.04951,-6.234261 z"
       sodipodi:nodetypes="ccccccccc" /><path
       id="rect9738"
       style="fill:#a80000;fill-opacity:1;stroke:#1e0000;stroke-width:0.640311;stroke-miterlimit:4;stroke-dasharray:none;stroke-opacity:1"
       d="m 9.9544397,12.614021 -0.2948495,6.511532 c 3.2975978,2.426399 5.5065128,1.4334 7.5752138,0 l -0.273119,-6.511532 z"
       sodipodi:nodetypes="ccccc" /><ellipse
       style="fill:#0053ce;fill-opacity:1;stroke:#110077;stroke-width:0.497755;stroke-miterlimit:4;stroke-dasharray:none;stroke-opacity:1"
       id="path11105"
       cx="13.435041"
       cy="12.773681"
       rx="2.2811048"
       ry="2.1048901" /><ellipse
       style="fill:#002766;fill-opacity:1;stroke:none;stroke-width:0.24878;stroke-miterlimit:4;stroke-dasharray:none;stroke-opacity:1"
       id="ellipse49"
       cx="13.41051"
       cy="12.603733"
       rx="2.0548275"
       ry="1.5814505" /><ellipse
       style="fill:#0047b0;fill-opacity:1;stroke:#110077;stroke-width:0.870337;stroke-miterlimit:4;stroke-dasharray:none;stroke-opacity:1"
       id="ellipse3"
       cx="13.308152"
       cy="6.8845043"
       rx="5.7257342"
       ry="5.9570155" /><ellipse
       style="fill:#005ade;fill-opacity:1;stroke:none;stroke-width:0.306549;stroke-miterlimit:4;stroke-dasharray:none;stroke-opacity:1"
       id="ellipse4"
       cx="13.566779"
       cy="6.5473619"
       rx="5.133297"
       ry="5.1149845" /><path
       id="path12"
       style="fill:#ffffff;fill-opacity:1;stroke:#002865;stroke-width:0.548472;stroke-miterlimit:4;stroke-dasharray:none;stroke-opacity:1"
       d="M 9.4369069,5.2106397 C 9.2256514,5.6758637 9.083554,6.4252534 9.0835487,6.9840891 c 9.4e-5,1.5653703 0.8659526,2.8342859 1.9340193,2.8343043 1.068068,-1.86e-5 1.933926,-1.268934 1.93402,-2.8343043 -6e-6,-0.5588356 -0.112719,-1.2457562 -0.323975,-1.7109803 C 11.645762,4.906719 10.565277,4.9401111 9.4369069,5.2106397 Z"
       sodipodi:nodetypes="cccccc" /><ellipse
       style="fill:#080039;fill-opacity:1;stroke:none;stroke-width:1.41149"
       id="ellipse31"
       cx="10.961743"
       cy="7.4560881"
       rx="1.4347491"
       ry="1.590739" /><path
       id="path42"
       style="fill:#ffffff;fill-opacity:1;stroke:#002865;stroke-width:0.548472;stroke-miterlimit:4;stroke-dasharray:none;stroke-opacity:1"
       d="m 13.997749,5.1189539 c -0.211255,0.465224 -0.353352,1.2146137 -0.353357,1.7734494 9.4e-5,1.5653703 0.865952,2.8342859 1.934018,2.8343044 1.068067,-1.87e-5 1.933926,-1.2689341 1.93402,-2.8343044 C 17.512424,6.3335677 17.39971,5.6466471 17.188455,5.181423 16.206603,4.8150332 15.12612,4.8484253 13.997749,5.1189539 Z"
       sodipodi:nodetypes="cccccc" /><ellipse
       style="fill:#080039;fill-opacity:1;stroke:none;stroke-width:1.41149"
       id="ellipse42"
       cx="15.626477"
       cy="7.1869049"
       rx="1.4347491"
       ry="1.590739" /><path
       id="path36"
       style="fill:#002766;fill-opacity:1;stroke:none;stroke-width:1.41149"
       d="m 16.496803,5.9438275 a 1.4347489,1.590739 0 0 1 0.584614,1.2818431 1.4347489,1.590739 0 0 1 -1.434841,1.5906602 1.4347489,1.590739 0 0 1 -1.209271,-0.735143 1.4347489,1.590739 0 0 0 0.84956,0.3088174 1.4347489,1.590739 0 0 0 1.43484,-1.5906603 1.4347489,1.590739 0 0 0 -0.224902,-0.8555174 z" /><ellipse
       style="fill:#ffffff;fill-opacity:1;stroke:none;stroke-width:0.594981"
       id="ellipse36"
       cx="9.9844809"
       cy="7.4040742"
       rx="0.55510157"
       ry="0.73053652" /><path
       id="path43"
       style="fill:#002766;fill-opacity:1;stroke:none;stroke-width:1.41149"
       d="M 11.817318,6.1742556 A 1.4347489,1.590739 0 0 1 12.401932,7.4560987 1.4347489,1.590739 0 0 1 10.967091,9.0467589 1.4347489,1.590739 0 0 1 9.7578215,8.3116159 1.4347489,1.590739 0 0 0 10.60738,8.6204333 1.4347489,1.590739 0 0 0 12.04222,7.029773 1.4347489,1.590739 0 0 0 11.817318,6.1742556 Z" /><ellipse
       style="fill:#ffffff;fill-opacity:1;stroke:none;stroke-width:0.594981"
       id="ellipse43"
       cx="14.630848"
       cy="7.3271646"
       rx="0.55510157"
       ry="0.73053652" /><path
       id="path13"
       style="fill:#1e0000;fill-opacity:1;stroke:none;stroke-width:0.234617;stroke-dasharray:none;stroke-opacity:1"
       d="m 11.512136,14.582559 a 0.58998504,0.63353138 84.118431 0 0 -0.612893,0.616916 0.58998504,0.63353138 84.118431 0 0 0.0068,0.07063 0.58998504,0.63353138 84.118431 0 1 0.06796,-0.0062 0.58998504,0.63353138 84.118431 0 1 0.490547,0.190361 0.58998504,0.63353138 84.118431 0 1 0.476543,-0.232023 0.58998504,0.63353138 84.118431 0 1 0.217455,0.02625 0.58998504,0.63353138 84.118431 0 0 0.0061,-0.103598 0.58998504,0.63353138 84.118431 0 0 -0.65261,-0.5624 z m 0.64649,0.666002 a 0.58998504,0.63353138 84.118431 0 1 -0.53881,0.507175 0.58998504,0.63353138 84.118431 0 1 0.0069,0.07063 0.58998504,0.63353138 84.118431 0 1 -0.136298,0.38521 0.58998504,0.63353138 84.118431 0 0 0.49089,0.190345 0.58998504,0.63353138 84.118431 0 0 0.612536,-0.617223 0.58998504,0.63353138 84.118431 0 0 -0.435154,-0.53614 z m -0.668274,0.963019 a 0.58998504,0.63353138 84.118431 0 1 -0.16208,-0.372359 0.58998504,0.63353138 84.118431 0 1 0.0065,-0.10329 0.58998504,0.63353138 84.118431 0 1 -0.428635,-0.465819 0.58998504,0.63353138 84.118431 0 0 -0.544932,0.610774 0.58998504,0.63353138 84.118431 0 0 0.652967,0.562707 0.58998504,0.63353138 84.118431 0 0 0.476199,-0.232007 z m -0.155588,-0.475657 a 0.58998504,0.63353138 84.118431 0 0 0.217453,0.02625 0.58998504,0.63353138 84.118431 0 0 0.06763,-0.0062 0.58998504,0.63353138 84.118431 0 0 -0.155186,-0.301408 0.58998504,0.63353138 84.118431 0 0 -0.129873,0.281595 z" /><rect
       style="fill:#ffa233;fill-opacity:1;stroke:#a85b00;stroke-width:0.548212;stroke-linecap:round;stroke-linejoin:round;stroke-dasharray:none;stroke-opacity:1"
       id="rect6"
       width="1.2566882"
       height="6.1665916"
       x="9.8201828"
       y="11.498075"
       ry="0.23858835"
       transform="matrix(0.99604148,0.08888962,-0.09014165,0.99592895,0,0)" /><rect
       style="fill:#ffa233;fill-opacity:1;stroke:#a85b00;stroke-width:0.559372;stroke-linecap:round;stroke-linejoin:round;stroke-dasharray:none;stroke-opacity:1"
       id="rect7"
       width="1.2493067"
       height="6.4581399"
       x="-17.242537"
       y="13.648067"
       ry="0.24986848"
       transform="matrix(-0.99560231,0.09368048,0.08552897,0.99633568,0,0)" /><path
       id="rect10"
       style="fill:#5a2c19;fill-opacity:1;stroke:#211309;stroke-width:0.839831;stroke-linecap:round;stroke-linejoin:round;stroke-dasharray:none;stroke-opacity:1"
       d="m 1.1548625,8.7162201 c 0.011387,0.2464029 0.2189419,2.1859109 0.2189419,3.1349459 0,0.08554 0.06861,0.154353 0.1538815,0.154353 h 1.3418473 c 0.085272,0 0.1538816,-0.06882 0.1538816,-0.154353 L 2.9060767,9.6962848 c 0.6656952,-0.5450892 1.247836,-0.3265725 1.8177092,0.00409 L 4.6428643,25.058292 c -0.00258,0.491484 0.2778463,0.887223 0.6229125,0.887223 0.3450662,0 0.6229126,-0.395731 0.6229126,-0.887223 V 9.7612514 C 6.1751476,9.4113069 6.0050233,8.5424089 6.0050233,8.0386732 c 0,-0.050228 -0.04318,-0.074267 -0.090482,-0.090766 -1.2436141,-0.4336732 -2.4729875,-0.894617 -4.4102456,0 C 1.2973338,8.1774646 1.1467699,8.3850865 1.1548625,8.7162201 Z"
       sodipodi:nodetypes="cssssccssscsssc" /><path
       id="ellipse10"
       style="fill:#0053ce;stroke:#110077;stroke-width:0.762;stroke-dasharray:none;stroke-opacity:1"
       d="M 6.2017375,19.935903 C 5.8981805,20.821968 4.7569205,21.140487 3.8436389,20.723439 2.9303572,20.306391 2.5053917,19.277631 2.894452,18.425638 3.2835124,17.573646 4.7729308,16.756072 5.2525507,17.638102 5.6594,18.386306 6.4655675,19.165798 6.2017375,19.935903 Z"
       sodipodi:nodetypes="sssss" /><path
       id="rect1"
       style="fill:#ffa233;stroke:#a85b00;stroke-width:0.930174;stroke-linejoin:round"
       d="m 4.6883199,2.8916669 c 4.8887024,0 9.8618551,-1.6890133 14.6661071,0 0.201879,0.070974 0.386268,0.1722757 0.386268,0.3862684 V 4.356393 c 0,0.2139927 -0.172276,0.3862684 -0.386268,0.3862684 H 4.6883199 c -0.2139927,0 -0.3862684,-0.1722757 -0.3862684,-0.3862684 V 3.2779353 c 0,-0.2139927 0.1722757,-0.3862684 0.3862684,-0.3862684 z"
       sodipodi:nodetypes="sssssssss" /><g
       id="g26"
       transform="matrix(0.14474598,0.00631823,-0.00538024,0.16998112,-12.467124,5.404212)"><path
         id="path23"
         style="fill:#783821;fill-opacity:1;stroke-width:0.820241;stroke-linecap:round"
         d="m 106.94004,28.280741 c -0.1486,-0.174771 -1.26263,-5.219605 -1.26263,-7.097347 0,-1.877743 0.33765,-5.992954 0.60848,-6.272589 0.1224,0.515571 1.06786,4.394846 1.06786,6.272589 0,1.877742 -0.25639,6.817712 -0.41371,7.097347 z"
         sodipodi:nodetypes="cscsc" /><path
         id="path24"
         style="fill:#26120b;fill-opacity:1;stroke-width:0.991436;stroke-linecap:round"
         d="m 100.85456,28.7907 c -0.20923,-0.181342 -1.777852,-5.415825 -1.777852,-7.364161 0,-1.948331 0.475433,-6.218259 0.856774,-6.508403 0.172348,0.534958 1.503608,4.560072 1.503608,6.508403 0,1.948336 -0.36101,7.074016 -0.58253,7.364161 z"
         sodipodi:nodetypes="cscsc" /><path
         id="path25"
         style="fill:#26120b;fill-opacity:1;stroke-width:0.640876;stroke-linecap:round"
         d="m 102.16001,24.883738 c -0.12621,-0.125361 -1.05484,-3.732025 -1.04601,-5.072895 0.009,-1.340877 0.31684,-4.278228 0.54968,-4.476889 0.10221,0.368628 0.89222,3.142344 0.88339,4.483214 -0.009,1.340876 -0.25125,4.86748 -0.38706,5.06657 z"
         sodipodi:nodetypes="cscsc" /><path
         id="path26"
         style="fill:#783821;fill-opacity:1;stroke-width:0.521073;stroke-linecap:round"
         d="m 103.68501,31.409545 c -0.0944,-0.111017 -0.80218,-3.315532 -0.80218,-4.508287 0,-1.192755 0.21452,-3.806773 0.38658,-3.984397 0.0778,0.327494 0.67845,2.791642 0.67845,3.984397 0,1.192755 -0.16289,4.330663 -0.26285,4.508287 z"
         sodipodi:nodetypes="cscsc" /></g><g
       id="g18"
       transform="matrix(-0.14474598,0.00631823,0.00538024,0.16998112,20.123849,7.6140334)"><path
         id="path3"
         style="fill:#783821;fill-opacity:1;stroke-width:0.820241;stroke-linecap:round"
         d="m 106.94004,28.280741 c -0.1486,-0.174771 -1.26263,-5.219605 -1.26263,-7.097347 0,-1.877743 0.33765,-5.992954 0.60848,-6.272589 0.1224,0.515571 1.06786,4.394846 1.06786,6.272589 0,1.877742 -0.25639,6.817712 -0.41371,7.097347 z"
         sodipodi:nodetypes="cscsc" /><path
         id="path15"
         style="fill:#26120b;fill-opacity:1;stroke-width:0.991436;stroke-linecap:round"
         d="m 100.85456,28.7907 c -0.20923,-0.181342 -1.777852,-5.415825 -1.777852,-7.364161 0,-1.948331 0.475433,-6.218259 0.856774,-6.508403 0.172348,0.534958 1.503608,4.560072 1.503608,6.508403 0,1.948336 -0.36101,7.074016 -0.58253,7.364161 z"
         sodipodi:nodetypes="cscsc" /><path
         id="path16"
         style="fill:#26120b;fill-opacity:1;stroke-width:0.640876;stroke-linecap:round"
         d="m 102.16001,24.883738 c -0.12621,-0.125361 -1.05484,-3.732025 -1.04601,-5.072895 0.009,-1.340877 0.31684,-4.278228 0.54968,-4.476889 0.10221,0.368628 0.89222,3.142344 0.88339,4.483214 -0.009,1.340876 -0.25125,4.86748 -0.38706,5.06657 z"
         sodipodi:nodetypes="cscsc" /><path
         id="path18"
         style="fill:#783821;fill-opacity:1;stroke-width:0.521073;stroke-linecap:round"
         d="m 103.68501,31.409545 c -0.0944,-0.111017 -0.80218,-3.315532 -0.80218,-4.508287 0,-1.192755 0.21452,-3.806773 0.38658,-3.984397 0.0778,0.327494 0.67845,2.791642 0.67845,3.984397 0,1.192755 -0.16289,4.330663 -0.26285,4.508287 z"
         sodipodi:nodetypes="cscsc" /></g></g></svg>
