<?xml version="1.0" encoding="UTF-8" standalone="no"?>
<!-- Created with Inkscape (http://www.inkscape.org/) -->

<svg
   width="200"
   height="200"
   viewBox="0 0 52.916667 52.916666"
   version="1.1"
   id="svg3527"
   inkscape:version="1.4.2 (ebf0e940d0, 2025-05-08)"
   sodipodi:docname="cavaleiro.svg"
   xmlns:inkscape="http://www.inkscape.org/namespaces/inkscape"
   xmlns:sodipodi="http://sodipodi.sourceforge.net/DTD/sodipodi-0.dtd"
   xmlns="http://www.w3.org/2000/svg"
   xmlns:svg="http://www.w3.org/2000/svg">
  <sodipodi:namedview
     id="namedview3529"
     pagecolor="#505050"
     bordercolor="#ffffff"
     borderopacity="1"
     inkscape:pageshadow="0"
     inkscape:pageopacity="0"
     inkscape:pagecheckerboard="1"
     inkscape:document-units="mm"
     showgrid="false"
     width="100mm"
     inkscape:zoom="3.4422558"
     inkscape:cx="131.4545"
     inkscape:cy="87.587913"
     inkscape:window-width="1366"
     inkscape:window-height="697"
     inkscape:window-x="0"
     inkscape:window-y="0"
     inkscape:window-maximized="1"
     inkscape:current-layer="layer1"
     inkscape:snap-global="false"
     inkscape:showpageshadow="0"
     inkscape:deskcolor="#505050"
     showguides="true">
    <sodipodi:guide
       position="49.169673,83.35102"
       orientation="0,-1"
       id="guide68"
       inkscape:locked="false" />
  </sodipodi:namedview>
  <defs
     id="defs3524">
    <inkscape:path-effect
       effect="fillet_chamfer"
       id="path-effect68"
       is_visible="true"
       lpeversion="1"
       nodesatellites_param="F,0,0,1,0,0,0,1 @ F,0,0,1,0,0,0,1 @ F,0,0,1,0,0,0,1 @ F,0,0,1,0,0,0,1 @ F,0,0,1,0,0,0,1 @ F,0,0,1,0,0,0,1 @ F,0,0,1,0,0,0,1 @ F,0,0,1,0,0,0,1 @ F,0,0,1,0,0,0,1"
       radius="0"
       unit="px"
       method="auto"
       mode="F"
       chamfer_steps="1"
       flexible="false"
       use_knot_distance="true"
       apply_no_radius="true"
       apply_with_radius="true"
       only_selected="false"
       hide_knots="false" />
    <inkscape:path-effect
       effect="fillet_chamfer"
       id="path-effect66"
       is_visible="true"
       lpeversion="1"
       nodesatellites_param="F,0,0,1,0,0,0,1 @ F,0,0,1,0,0.44929322,0,1 @ F,0,0,1,0,0.44929322,0,1 @ F,0,0,1,0,0,0,1 @ F,0,0,1,0,0,0,1 @ F,0,0,1,0,0,0,1 @ F,0,0,1,0,0,0,1 @ F,0,0,1,0,0,0,1 @ F,0,0,1,0,0,0,1 @ F,0,0,1,0,0,0,1"
       radius="0"
       unit="px"
       method="auto"
       mode="F"
       chamfer_steps="1"
       flexible="false"
       use_knot_distance="true"
       apply_no_radius="true"
       apply_with_radius="true"
       only_selected="false"
       hide_knots="false" />
    <inkscape:path-effect
       effect="fillet_chamfer"
       id="path-effect66-3"
       is_visible="true"
       lpeversion="1"
       nodesatellites_param="F,0,0,1,0,0,0,1 @ F,0,0,1,0,0.44929322,0,1 @ F,0,0,1,0,0.44929322,0,1 @ F,0,0,1,0,0,0,1 @ F,0,0,1,0,0,0,1 @ F,0,0,1,0,0,0,1 @ F,0,0,1,0,0,0,1 @ F,0,0,1,0,0,0,1 @ F,0,0,1,0,0,0,1 @ F,0,0,1,0,0,0,1"
       radius="0"
       unit="px"
       method="auto"
       mode="F"
       chamfer_steps="1"
       flexible="false"
       use_knot_distance="true"
       apply_no_radius="true"
       apply_with_radius="true"
       only_selected="false"
       hide_knots="false" />
  </defs>
  <g
     inkscape:label="Camada 1"
     inkscape:groupmode="layer"
     id="layer1">
    <rect
       style="fill:#aa0b00;fill-opacity:1;stroke:#1f0d0d;stroke-width:0.93;stroke-dasharray:none;stroke-opacity:1"
       id="rect9"
       width="4.3757286"
       height="13.875885"
       x="27.870729"
       y="38.551445"
       ry="1.806289" />
    <path
       id="path4"
       style="fill:#aa0b00;fill-opacity:1;stroke:#1f0d0d;stroke-width:1.07892;stroke-miterlimit:4;stroke-dasharray:none;stroke-opacity:1"
       d="m 22.647934,27.073306 c 0.06171,0.603271 -0.09864,1.156471 -0.455725,1.412393 l -4.301644,3.146467 c -0.05464,0.07042 -0.722903,0.553182 -0.81495,0.574379 -0.104271,0.104312 -0.290307,0.106177 -0.423072,0.145582 l -5.645351,1.675878 C 10.4112,34.204928 9.7889976,33.581786 9.6116841,32.631798 L 9.4765687,31.913194 C 9.2992505,30.963206 9.6373174,30.056035 10.233312,29.879119 l 5.191457,-1.391643 c 0.31086,-0.213324 0.371559,-0.298515 0.413041,-0.313738 l 4.647053,-3.489265 c 0.519405,-0.372243 1.252481,0.02946 1.643461,0.899722 l 0.296252,0.658663 c 0.122194,0.271947 0.195287,0.556249 0.223299,0.830469 z"
       sodipodi:nodetypes="cccccccccccccccc" />
    <path
       id="path74"
       style="fill:#3f0404;fill-opacity:1;stroke:none;stroke-width:0.855959;stroke-miterlimit:4;stroke-dasharray:none;stroke-opacity:1"
       d="m 21.980479,27.243128 c 0.143696,0.350349 0.06035,0.720351 -0.258747,0.955074 l -3.835342,2.865936 c -0.04456,0.05479 -0.641202,0.496366 -0.729581,0.529841 -0.08913,0.0864 -0.273356,0.129321 -0.399622,0.182933 -4.112092,1.161948 -3.647768,1.531824 -5.368941,2.279959 -0.566813,0.240696 -1.269037,0.0043 -1.5747939,-0.529438 L 9.5811857,33.123946 C 9.2754238,32.590247 9.4865934,31.96662 10.053408,31.725925 l 5.031849,-0.953219 c 1.073928,-0.339162 1.722422,-0.664325 2.241871,-0.971073 l 2.181655,-3.514788 c 0.464152,-0.341413 1.246038,-0.263571 1.75277,0.173994 l 0.383858,0.331101 c 0.158365,0.136732 0.269731,0.291953 0.335012,0.451214 z"
       sodipodi:nodetypes="cccccccccccccccc" />
    <rect
       style="fill:#3f0404;fill-opacity:1;stroke:#0d1f1f;stroke-width:0.749015;stroke-opacity:1"
       id="rect1"
       width="6.0032535"
       height="11.166561"
       x="22.977961"
       y="17.585918" />
    <ellipse
       style="fill:#0f0f0f;fill-opacity:1;stroke:#000000;stroke-width:0.714537;stroke-opacity:1"
       id="path7"
       cx="26.006762"
       cy="14.022455"
       rx="8.1812496"
       ry="8.4801788" />
    <path
       id="path5"
       style="fill:#aa0b00;fill-opacity:1;stroke:#1f0d0d;stroke-width:1.1665;stroke-miterlimit:4;stroke-dasharray:none;stroke-opacity:1"
       d="m 30.097478,25.873916 c -0.260313,0.540552 -0.26241,1.132603 0.04517,1.532167 l 3.684972,4.8731 c 0.03706,0.09057 0.611461,0.841918 0.705069,0.902763 0.08035,0.144528 0.282657,0.228916 0.414851,0.324993 l 5.620976,4.085451 c 0.593421,0.431305 1.471389,0.121016 1.968705,-0.694611 l 0.377265,-0.616531 c 0.497315,-0.815629 0.418837,-1.819872 -0.174587,-2.251174 L 37.523034,30.41384 C 37.252238,30.074917 37.21329,29.967753 37.172918,29.934995 l -3.952023,-5.349267 c -0.447403,-0.581175 -1.375452,-0.528613 -2.080296,0.117042 l -0.533831,0.488525 c -0.220256,0.201772 -0.39095,0.436948 -0.509231,0.682677 z"
       sodipodi:nodetypes="cccccccccccccccc" />
    <rect
       style="fill:#aa0b00;fill-opacity:1;stroke:#1f0d0d;stroke-width:0.93;stroke-dasharray:none;stroke-opacity:1"
       id="rect63"
       width="4.3757286"
       height="13.875885"
       x="20.030666"
       y="38.474583"
       ry="1.806289" />
    <path
       id="rect56"
       style="fill:#ffffff;fill-opacity:1;stroke:#101010;stroke-width:0.859202;stroke-dasharray:none;stroke-opacity:1"
       d="m 19.414496,25.516732 c -0.459025,8.585761 -0.346469,18.755707 -0.314433,20.985526 0.0035,0.246401 0.207775,0.434063 0.455584,0.421307 9.476273,-0.487802 9.716731,1.867512 13.616009,-0.507026 0.211572,-0.12884 0.316138,-0.427891 0.30077,-0.669057 -0.156656,-2.458349 0.187076,-14.844697 -0.536728,-21.844881 -0.139964,-1.35365 -3.647496,-0.30627 -3.647496,-0.30627 -0.135497,0.319831 -0.208038,0.819153 -0.208143,1.086316 0,1.161992 -1.120232,8.370563 -2.881648,8.370579 -1.761416,-1.7e-5 -3.496976,-7.156457 -3.496976,-8.318448 -0.223651,-0.281481 -0.555453,-0.824767 -0.04171,-0.961195 0,0 -3.171063,0.35587 -3.245232,1.743149 z"
       sodipodi:nodetypes="sccscccccss"
       transform="matrix(0.99926695,0,0,1.0456942,0.00741942,-0.62730993)"
       inkscape:original-d="m 19.414496,25.516732 c -0.518809,9.703979 -0.307454,21.431667 -0.307454,21.431667 10.225904,-0.605201 10.106934,2.035525 14.444356,-0.770548 -0.331653,0.110551 0.193543,-14.44875 -0.6157,-22.27525 -0.139964,-1.35365 -3.647496,-0.30627 -3.647496,-0.30627 -0.135497,0.319831 -0.208038,0.819153 -0.208143,1.086316 0,1.161992 -1.120232,8.370563 -2.881648,8.370579 -1.761416,-1.7e-5 -3.496976,-7.156457 -3.496976,-8.318448 -0.223651,-0.281481 -0.555453,-0.824767 -0.04171,-0.961195 0,0 -3.171063,0.35587 -3.245232,1.743149 z"
       inkscape:path-effect="#path-effect66-3" />
    <path
       id="rect14"
       style="fill:#96908b;stroke:#1b1b1b;stroke-width:0.596891"
       transform="matrix(0.79600047,-0.605296,0.66088385,0.7504882,0,0)"
       d="m -8.0282269,31.575983 8.2917525,0.185303 0.67849897,1.041286 -8.97025147,4.644398 z"
       sodipodi:nodetypes="ccccc" />
    <path
       id="rect16"
       style="fill:#96908b;stroke:#1b1b1b;stroke-width:0.440675"
       d="m 18.612379,41.497852 c 5.110375,-0.371618 10.22075,-0.109395 15.331125,0 v 0.975196 c -5.110375,0.878608 -10.22075,1.064845 -15.331125,0 z"
       sodipodi:nodetypes="ccccc" />
    <path
       id="path13"
       style="fill:#96908b;stroke:#1b1b1b;stroke-width:0.567862"
       inkscape:transform-center-x="-0.054163935"
       inkscape:transform-center-y="1.0890426"
       d="m 18.535477,32.439862 4.06802,-7.971194 c 3.699844,6.998961 6.26258,0.926253 6.440698,-0.188424 l 5.376984,8.018323 c -1.722713,3.525255 -4.781633,6.307323 -8.231498,9.334026 -3.061664,-2.520302 -6.021899,-4.691984 -7.654204,-9.192731 z"
       sodipodi:nodetypes="cccccc" />
    <path
       id="rect15"
       style="fill:#96908b;stroke:#1b1b1b;stroke-width:0.590339"
       transform="matrix(-0.74627637,-0.66563623,-0.60038658,0.79970992,0,0)"
       d="m -47.58852,-4.2829156 8.034343,0 1.822119,2.6096508 -9.856462,3.2890666 z"
       sodipodi:nodetypes="ccccc" />
    <rect
       style="fill:#1f1f1f;fill-opacity:1;stroke:#000000;stroke-width:0.615405;stroke-dasharray:none;stroke-opacity:1"
       id="rect65"
       width="2.0258322"
       height="26.89242"
       x="9.4872065"
       y="16.44408" />
    <rect
       style="fill:#1f1f1f;fill-opacity:1;stroke:#000000;stroke-width:0.5;stroke-miterlimit:4;stroke-dasharray:none;stroke-opacity:1"
       id="rect10"
       width="5.5141988"
       height="1.327625"
       x="8.0319462"
       y="-21.003143"
       ry="0.62142354"
       transform="scale(1,-1)" />
    <path
       id="path68"
       style="fill:#aa0b00;fill-opacity:1;stroke:#1f0d0d;stroke-width:1.126;stroke-dasharray:none;stroke-opacity:1"
       d="m 14.613919,31.987365 c -0.04523,1.304074 -1.638269,2.86827 -3.688729,1.951334 -1.6349967,-0.731147 -3.1854475,-1.468222 -2.8999698,-2.984881 0.2874449,-1.5271 0.5557633,-3.071664 3.7966368,-2.033622 1.731287,0.554524 2.830349,1.963578 2.792062,3.067169 z"
       sodipodi:nodetypes="sssss" />
    <rect
       style="fill:#1f1f1f;fill-opacity:1;stroke:#000000;stroke-width:0.776;stroke-miterlimit:4;stroke-dasharray:none;stroke-opacity:1"
       id="rect11"
       width="6.6018896"
       height="1.7486444"
       x="7.4825301"
       y="-19.644463"
       ry="0.81849068"
       transform="scale(1,-1)" />
    <path
       id="path11"
       style="fill:#96908b;stroke:#1b1b1b;stroke-width:0.593972;fill-opacity:1"
       d="m 15.80005,12.751357 c 0.12642,3.307547 -1.864965,5.191747 -5.02854,5.191747 -3.163573,0 -4.9256995,-2.787537 -4.5130309,-6.069907 0.2577537,-2.0501746 2.9564546,-6.4064631 5.6913349,-8.055313 2.279845,-1.3745114 3.73977,6.0433193 3.850236,8.933473 z"
       sodipodi:nodetypes="sssss" />
    <path
       id="path1"
       style="fill:#4b4744;fill-opacity:1;stroke:#1b1b1b;stroke-width:1.04;stroke-dasharray:none;stroke-opacity:1"
       inkscape:transform-center-x="-0.013355175"
       inkscape:transform-center-y="1.1691051"
       d="M 32.699925,4.4803238 C 28.85395,5.438646 24.99741,6.3768806 19.69539,4.5375398 l -3.969923,13.8723182 9.686421,7.819669 V 12.294995 l -4.261467,-0.710475 -0.706576,0.627706 -0.921877,-1.875344 1.264964,-1.1237613 0.168052,0.3421834 5.241331,0.8737899 h 0.21745 l 5.287504,-0.9121188 0.42953,-0.5582701 1.246708,1.6625899 -1.038386,1.349847 -0.371543,-0.496054 -4.768849,0.82324 v 13.871205 l 9.568301,-7.851888 z" />
    <path
       style="fill:none;fill-opacity:1;stroke:#1b1b1b;stroke-width:0.213;stroke-dasharray:none;stroke-opacity:0.458634"
       d="M 8.9048267,8.3939868 C 8.6625938,9.5496603 8.960774,8.0767681 8.8088343,8.9550022 8.7802516,9.1202149 8.7423074,9.2718657 8.7128419,9.4358729 8.703792,9.486247 8.7013812,9.5441221 8.6936436,9.5961628 8.6509111,9.8835675 8.6118483,10.176598 8.5592542,10.451043 c -0.019256,0.100487 -0.050372,0.188525 -0.067195,0.293866 -0.012794,0.08011 -0.016004,0.187037 -0.028798,0.26715 -0.00468,0.02933 -0.016163,0.04917 -0.019199,0.08015 -0.07212,0.73595 0.035158,-0.207267 -0.0096,0.374011 -0.013078,0.169856 -0.045172,0.334708 -0.057595,0.507585 -0.00654,0.09098 0.00484,0.206352 0,0.293866 -0.00708,0.128151 -0.031313,0.245859 -0.038397,0.374009 -0.00243,0.04402 0.00176,0.08932 0,0.133576 -0.00146,0.03649 -0.00796,0.07042 -0.0096,0.106861 -0.0093,0.207052 0,0.431763 0,0.64116 0,0.123964 -0.00893,0.28468 0.0096,0.400725 0.034119,0.213646 0.088271,0.395208 0.1343895,0.587731 0.051414,0.214633 -0.022748,-0.0055 0.057595,0.240435 0.018264,0.05591 0.041305,0.09984 0.057595,0.16029 0.012879,0.04778 0.016488,0.111353 0.028798,0.16029 0.036745,0.146089 0.095948,0.281881 0.1439887,0.400726 0.018678,0.04621 0.035897,0.09906 0.057595,0.133575 0.071917,0.11437 0.040252,0.03188 0.067195,0.106861"
       id="path17" />
    <path
       style="fill:none;fill-opacity:1;stroke:#1b1b1b;stroke-width:0.325;stroke-dasharray:none;stroke-opacity:0.458634"
       d="m 10.83098,16.42917 c -0.448914,-1.12949 0.103683,0.310032 -0.177896,-0.548305 -0.05297,-0.161469 -0.12329,-0.309684 -0.177896,-0.469976 -0.01677,-0.04923 -0.02124,-0.105796 -0.03558,-0.156658 -0.07919,-0.280893 -0.151586,-0.567285 -0.249055,-0.835512 -0.03569,-0.09821 -0.09335,-0.184254 -0.124528,-0.287208 -0.02371,-0.0783 -0.02966,-0.1828 -0.05337,-0.261098 -0.0087,-0.02867 -0.029954,-0.04806 -0.03558,-0.07833 -0.133656,-0.719276 0.065155,0.202571 -0.017789,-0.365537 -0.024237,-0.166008 -0.083714,-0.327125 -0.1067376,-0.496085 -0.012117,-0.08892 0.00897,-0.201677 0,-0.287208 -0.013128,-0.125248 -0.05803,-0.240289 -0.071159,-0.365536 -0.00451,-0.04302 0.00327,-0.0873 0,-0.130549 -0.0027,-0.03566 -0.014757,-0.06883 -0.01779,-0.10444 -0.017236,-0.202361 0,-0.421981 0,-0.626634 0,-0.121155 -0.016555,-0.27823 0.01779,-0.391646 0.06323,-0.208806 0.1635868,-0.386254 0.2490556,-0.574415 0.09528,-0.20977 -0.042158,0.0054 0.106737,-0.234988 0.03385,-0.05464 0.07655,-0.09758 0.106738,-0.156658 0.02387,-0.0467 0.03056,-0.1088303 0.05337,-0.1566593 0.0681,-0.142779 0.177813,-0.275494 0.266844,-0.391647 0.03462,-0.04516 0.06653,-0.09682 0.106738,-0.130548 0.133279,-0.111779 0.0746,-0.03116 0.124528,-0.10444"
       id="path18" />
    <path
       style="fill:none;fill-opacity:1;stroke:#1b1b1b;stroke-width:0.325;stroke-dasharray:none;stroke-opacity:0.458634"
       d="m 11.875973,14.738177 c 0.448914,-1.12949 -0.103683,0.310032 0.177896,-0.548305 0.05297,-0.161469 0.12329,-0.309684 0.177896,-0.469976 0.01677,-0.04923 0.02124,-0.105796 0.03558,-0.156658 0.07919,-0.280893 0.151586,-0.567285 0.249055,-0.835512 0.03569,-0.09821 0.09335,-0.184254 0.124528,-0.287208 0.02371,-0.0783 0.02966,-0.1828 0.05337,-0.261098 0.0087,-0.02867 0.02995,-0.04806 0.03558,-0.07833 0.133656,-0.719276 -0.06516,0.202571 0.01779,-0.365537 0.02424,-0.166008 0.08371,-0.327125 0.106738,-0.496085 0.01212,-0.08892 -0.009,-0.201677 0,-0.287208 0.01313,-0.125248 0.05803,-0.240289 0.07116,-0.365536 0.0045,-0.04302 -0.0033,-0.0873 0,-0.130549 0.0027,-0.03566 0.01476,-0.06883 0.01779,-0.10444 0.01724,-0.202361 0,-0.4219811 0,-0.6266344 0,-0.121155 0.01656,-0.27823 -0.01779,-0.391646 -0.06323,-0.208806 -0.163587,-0.386254 -0.249056,-0.5744155 -0.09528,-0.20977 0.04216,0.0054 -0.106737,-0.234988 -0.03385,-0.05464 -0.07655,-0.09758 -0.106738,-0.156658 -0.02387,-0.0467 -0.03056,-0.1088303 -0.05337,-0.1566593 -0.0681,-0.142779 -0.177813,-0.275494 -0.266844,-0.391647 -0.03462,-0.04516 -0.06653,-0.09682 -0.106738,-0.130548 -0.133279,-0.111779 -0.0746,-0.03116 -0.124528,-0.10444"
       id="path20" />
    <path
       style="fill:none;fill-opacity:1;stroke:#1b1b1b;stroke-width:0.247;stroke-dasharray:none;stroke-opacity:0.458634"
       d="m 13.420796,15.9324 c 0.442787,-1.207117 -0.102268,0.33134 0.175468,-0.585989 0.05225,-0.172566 0.121607,-0.330967 0.175468,-0.502276 0.01654,-0.05261 0.02095,-0.113067 0.03509,-0.167425 0.07811,-0.300198 0.149517,-0.606273 0.245656,-0.892935 0.0352,-0.104959 0.09208,-0.196917 0.122828,-0.306947 0.02339,-0.08368 0.02926,-0.195363 0.05264,-0.279043 0.0086,-0.03064 0.02954,-0.05136 0.03509,-0.08371 0.131832,-0.76871 -0.06427,0.216493 0.01755,-0.39066 0.02391,-0.177417 0.08257,-0.349607 0.105281,-0.530179 0.01196,-0.09503 -0.0089,-0.215538 0,-0.306948 0.01295,-0.133856 0.05724,-0.256803 0.07019,-0.390658 0.0044,-0.04598 -0.0033,-0.0933 0,-0.139521 0.0027,-0.03811 0.01456,-0.07356 0.01755,-0.111618 0.017,-0.216269 0,-0.450983 0,-0.669703 0,-0.129481 0.01633,-0.297351 -0.01755,-0.418562 -0.06237,-0.2231566 -0.161354,-0.4128002 -0.245657,-0.6138937 -0.09398,-0.224187 0.04158,0.00577 -0.10528,-0.2511382 -0.03339,-0.058395 -0.0755,-0.1042864 -0.105281,-0.1674247 -0.02354,-0.04991 -0.03014,-0.11631 -0.05264,-0.1674262 -0.06717,-0.1525919 -0.175386,-0.2944281 -0.263202,-0.418564 -0.03415,-0.048264 -0.06562,-0.1034743 -0.105281,-0.1395203 -0.13146,-0.1194614 -0.07358,-0.033302 -0.122829,-0.111618"
       id="path21" />
    <path
       id="path12"
       style="fill:#e83939;fill-opacity:1;stroke:#751c1c;stroke-width:0.608806;stroke-opacity:1"
       d="M 14.757765,7.8016306 C 14.20973,7.5718703 11.711067,11.94737 11.414209,11.106755 10.330299,8.037441 8.1810351,8.7549151 8.3396745,7.8400623 8.5523776,6.6134309 11.985126,3.3160879 12.836181,2.6133541 c 1.42391,-1.1757518 3.604996,5.8940371 1.921584,5.1882765 z"
       sodipodi:nodetypes="sssss" />
    <path
       id="path19"
       style="fill:#ffffff;stroke-width:1.1178;stroke-opacity:0.458634"
       transform="matrix(0.47223647,-0.8814719,0.52869412,0.84881242,0,0)"
       d="m 11.079572,15.493559 c 0,0.470154 -1.021883,0.260914 -1.7425037,0.260914 -0.7206213,0 -4.6941973,-1.388071 -4.6941977,-1.858226 -5e-7,-0.470155 2.6208415,0.02328 3.4432232,0.32804 0.8831875,0.32729 2.9934792,0.799117 2.9934782,1.269272 z"
       sodipodi:nodetypes="sssss" />
  </g>
</svg>
