<?xml version="1.0" encoding="UTF-8" standalone="no"?>
<!-- Created with Inkscape (http://www.inkscape.org/) -->

<svg
   width="300"
   height="300"
   viewBox="0 0 79.375 79.374999"
   version="1.1"
   id="svg3527"
   inkscape:version="1.4.2 (ebf0e940d0, 2025-05-08)"
   sodipodi:docname="ciclop.svg"
   xmlns:inkscape="http://www.inkscape.org/namespaces/inkscape"
   xmlns:sodipodi="http://sodipodi.sourceforge.net/DTD/sodipodi-0.dtd"
   xmlns="http://www.w3.org/2000/svg"
   xmlns:svg="http://www.w3.org/2000/svg">
  <sodipodi:namedview
     id="namedview3529"
     pagecolor="#505050"
     bordercolor="#ffffff"
     borderopacity="1"
     inkscape:pageshadow="0"
     inkscape:pageopacity="0"
     inkscape:pagecheckerboard="1"
     inkscape:document-units="px"
     showgrid="false"
     width="100mm"
     inkscape:zoom="9.7361696"
     inkscape:cx="28.604678"
     inkscape:cy="115.70259"
     inkscape:window-width="1366"
     inkscape:window-height="697"
     inkscape:window-x="0"
     inkscape:window-y="0"
     inkscape:window-maximized="1"
     inkscape:current-layer="layer1"
     inkscape:snap-global="false"
     inkscape:showpageshadow="0"
     inkscape:deskcolor="#505050"
     showguides="true">
    <sodipodi:guide
       position="49.169673,83.35102"
       orientation="0,-1"
       id="guide68"
       inkscape:locked="false" />
  </sodipodi:namedview>
  <defs
     id="defs3524">
    <inkscape:path-effect
       effect="fillet_chamfer"
       id="path-effect68"
       is_visible="true"
       lpeversion="1"
       nodesatellites_param="F,0,0,1,0,0,0,1 @ F,0,0,1,0,0,0,1 @ F,0,0,1,0,0,0,1 @ F,0,0,1,0,0,0,1 @ F,0,0,1,0,0,0,1 @ F,0,0,1,0,0,0,1 @ F,0,0,1,0,0,0,1 @ F,0,0,1,0,0,0,1 @ F,0,0,1,0,0,0,1"
       radius="0"
       unit="px"
       method="auto"
       mode="F"
       chamfer_steps="1"
       flexible="false"
       use_knot_distance="true"
       apply_no_radius="true"
       apply_with_radius="true"
       only_selected="false"
       hide_knots="false" />
    <inkscape:path-effect
       effect="fillet_chamfer"
       id="path-effect66"
       is_visible="true"
       lpeversion="1"
       nodesatellites_param="F,0,0,1,0,0,0,1 @ F,0,0,1,0,0.44929322,0,1 @ F,0,0,1,0,0.44929322,0,1 @ F,0,0,1,0,0,0,1 @ F,0,0,1,0,0,0,1 @ F,0,0,1,0,0,0,1 @ F,0,0,1,0,0,0,1 @ F,0,0,1,0,0,0,1 @ F,0,0,1,0,0,0,1 @ F,0,0,1,0,0,0,1"
       radius="0"
       unit="px"
       method="auto"
       mode="F"
       chamfer_steps="1"
       flexible="false"
       use_knot_distance="true"
       apply_no_radius="true"
       apply_with_radius="true"
       only_selected="false"
       hide_knots="false" />
  </defs>
  <g
     inkscape:label="Camada 1"
     inkscape:groupmode="layer"
     id="layer1">
    <path
       sodipodi:type="spiral"
       style="fill:#00954e;fill-opacity:1;fill-rule:evenodd;stroke:#00312b;stroke-width:1.165;stroke-dasharray:none;stroke-opacity:1"
       id="path86"
       sodipodi:cx="7.3788824"
       sodipodi:cy="11.990684"
       sodipodi:expansion="1"
       sodipodi:revolution="3"
       sodipodi:radius="7.1775723"
       sodipodi:argument="-18.677364"
       sodipodi:t0="0"
       d="m 7.3788824,11.990684 c 0.3545501,0.06166 0.091804,0.508347 -0.1024849,0.589285 -0.5265123,0.219336 -1.0101602,-0.312416 -1.0760864,-0.794255 -0.1179264,-0.861898 0.6785411,-1.533067 1.4860261,-1.562887 1.1850166,-0.04376 2.0659185,1.047626 2.0496877,2.177796 -0.021633,1.506339 -1.4174993,2.602675 -2.8695671,2.536489 C 5.0391786,14.853823 3.7250753,13.149428 3.8431686,11.375774 3.9861954,9.2276413 6.0011989,7.6945659 8.0962768,7.8656841 10.565254,8.067341 12.31801,10.39416 12.093167,12.810563 11.833578,15.600395 9.1941789,17.573289 6.4565181,17.294254 3.345814,16.977198 1.1524728,14.024706 1.4860261,10.965834 1.8602224,7.5342424 5.1261684,5.1202316 8.5062165,5.5085416 12.258711,5.9396393 14.893555,9.5193049 14.45031,13.220503"
       transform="matrix(0.21030906,-0.6588067,0.57417187,0.38027529,43.575636,27.804766)" />
    <path
       sodipodi:type="spiral"
       style="fill:#00954e;fill-opacity:1;fill-rule:evenodd;stroke:#00312b;stroke-width:1.165;stroke-dasharray:none;stroke-opacity:1"
       id="path85"
       sodipodi:cx="7.3788824"
       sodipodi:cy="11.990684"
       sodipodi:expansion="1"
       sodipodi:revolution="3"
       sodipodi:radius="7.1775723"
       sodipodi:argument="-18.677364"
       sodipodi:t0="0"
       d="m 7.3788824,11.990684 c 0.3545501,0.06166 0.091804,0.508347 -0.1024849,0.589285 -0.5265123,0.219336 -1.0101602,-0.312416 -1.0760864,-0.794255 -0.1179264,-0.861898 0.6785411,-1.533067 1.4860261,-1.562887 1.1850166,-0.04376 2.0659185,1.047626 2.0496877,2.177796 -0.021633,1.506339 -1.4174993,2.602675 -2.8695671,2.536489 C 5.0391786,14.853823 3.7250753,13.149428 3.8431686,11.375774 3.9861954,9.2276413 6.0011989,7.6945659 8.0962768,7.8656841 10.565254,8.067341 12.31801,10.39416 12.093167,12.810563 11.833578,15.600395 9.1941789,17.573289 6.4565181,17.294254 3.345814,16.977198 1.1524728,14.024706 1.4860261,10.965834 1.8602224,7.5342424 5.1261684,5.1202316 8.5062165,5.5085416 12.258711,5.9396393 14.893555,9.5193049 14.45031,13.220503"
       transform="matrix(-0.21030906,-0.6588067,-0.57417187,0.38027529,34.970935,24.883958)" />
    <path
       sodipodi:type="spiral"
       style="fill:#00954e;fill-opacity:1;fill-rule:evenodd;stroke:#00312b;stroke-width:1.165;stroke-dasharray:none;stroke-opacity:1"
       id="path83"
       sodipodi:cx="7.3788824"
       sodipodi:cy="11.990684"
       sodipodi:expansion="1"
       sodipodi:revolution="3"
       sodipodi:radius="7.1775723"
       sodipodi:argument="-18.677364"
       sodipodi:t0="0"
       d="m 7.3788824,11.990684 c 0.3545501,0.06166 0.091804,0.508347 -0.1024849,0.589285 -0.5265123,0.219336 -1.0101602,-0.312416 -1.0760864,-0.794255 -0.1179264,-0.861898 0.6785411,-1.533067 1.4860261,-1.562887 1.1850166,-0.04376 2.0659185,1.047626 2.0496877,2.177796 -0.021633,1.506339 -1.4174993,2.602675 -2.8695671,2.536489 C 5.0391786,14.853823 3.7250753,13.149428 3.8431686,11.375774 3.9861954,9.2276413 6.0011989,7.6945659 8.0962768,7.8656841 10.565254,8.067341 12.31801,10.39416 12.093167,12.810563 11.833578,15.600395 9.1941789,17.573289 6.4565181,17.294254 3.345814,16.977198 1.1524728,14.024706 1.4860261,10.965834 1.8602224,7.5342424 5.1261684,5.1202316 8.5062165,5.5085416 12.258711,5.9396393 14.893555,9.5193049 14.45031,13.220503"
       transform="matrix(-0.51443136,0.55245752,-0.50062699,-0.71566052,60.665213,11.071387)" />
    <path
       sodipodi:type="spiral"
       style="fill:#00954e;fill-opacity:1;fill-rule:evenodd;stroke:#00312b;stroke-width:1.165;stroke-dasharray:none;stroke-opacity:1"
       id="path82"
       sodipodi:cx="7.3788824"
       sodipodi:cy="11.990684"
       sodipodi:expansion="1"
       sodipodi:revolution="3"
       sodipodi:radius="7.1775723"
       sodipodi:argument="-18.677364"
       sodipodi:t0="0"
       d="m 7.3788824,11.990684 c 0.3545501,0.06166 0.091804,0.508347 -0.1024849,0.589285 -0.5265123,0.219336 -1.0101602,-0.312416 -1.0760864,-0.794255 -0.1179264,-0.861898 0.6785411,-1.533067 1.4860261,-1.562887 1.1850166,-0.04376 2.0659185,1.047626 2.0496877,2.177796 -0.021633,1.506339 -1.4174993,2.602675 -2.8695671,2.536489 C 5.0391786,14.853823 3.7250753,13.149428 3.8431686,11.375774 3.9861954,9.2276413 6.0011989,7.6945659 8.0962768,7.8656841 10.565254,8.067341 12.31801,10.39416 12.093167,12.810563 11.833578,15.600395 9.1941789,17.573289 6.4565181,17.294254 3.345814,16.977198 1.1524728,14.024706 1.4860261,10.965834 1.8602224,7.5342424 5.1261684,5.1202316 8.5062165,5.5085416 12.258711,5.9396393 14.893555,9.5193049 14.45031,13.220503"
       transform="matrix(-0.29142518,0.73448135,-0.79562976,-0.42395608,56.142141,5.0883121)" />
    <path
       sodipodi:type="spiral"
       style="fill:#00954e;fill-opacity:1;fill-rule:evenodd;stroke:#00312b;stroke-width:1.165;stroke-dasharray:none;stroke-opacity:1"
       id="path81"
       sodipodi:cx="7.3788824"
       sodipodi:cy="11.990684"
       sodipodi:expansion="1"
       sodipodi:revolution="3"
       sodipodi:radius="7.1775723"
       sodipodi:argument="-18.677364"
       sodipodi:t0="0"
       d="m 7.3788824,11.990684 c 0.3545501,0.06166 0.091804,0.508347 -0.1024849,0.589285 -0.5265123,0.219336 -1.0101602,-0.312416 -1.0760864,-0.794255 -0.1179264,-0.861898 0.6785411,-1.533067 1.4860261,-1.562887 1.1850166,-0.04376 2.0659185,1.047626 2.0496877,2.177796 -0.021633,1.506339 -1.4174993,2.602675 -2.8695671,2.536489 C 5.0391786,14.853823 3.7250753,13.149428 3.8431686,11.375774 3.9861954,9.2276413 6.0011989,7.6945659 8.0962768,7.8656841 10.565254,8.067341 12.31801,10.39416 12.093167,12.810563 11.833578,15.600395 9.1941789,17.573289 6.4565181,17.294254 3.345814,16.977198 1.1524728,14.024706 1.4860261,10.965834 1.8602224,7.5342424 5.1261684,5.1202316 8.5062165,5.5085416 12.258711,5.9396393 14.893555,9.5193049 14.45031,13.220503"
       transform="matrix(-0.29142518,0.73448135,-0.79562976,-0.42395608,48.913511,5.3600651)" />
    <path
       sodipodi:type="spiral"
       style="fill:#00954e;fill-opacity:1;fill-rule:evenodd;stroke:#00312b;stroke-width:1.165;stroke-dasharray:none;stroke-opacity:1"
       id="path80"
       sodipodi:cx="7.3788824"
       sodipodi:cy="11.990684"
       sodipodi:expansion="1"
       sodipodi:revolution="3"
       sodipodi:radius="7.1775723"
       sodipodi:argument="-18.677364"
       sodipodi:t0="0"
       d="m 7.3788824,11.990684 c 0.3545501,0.06166 0.091804,0.508347 -0.1024849,0.589285 -0.5265123,0.219336 -1.0101602,-0.312416 -1.0760864,-0.794255 -0.1179264,-0.861898 0.6785411,-1.533067 1.4860261,-1.562887 1.1850166,-0.04376 2.0659185,1.047626 2.0496877,2.177796 -0.021633,1.506339 -1.4174993,2.602675 -2.8695671,2.536489 C 5.0391786,14.853823 3.7250753,13.149428 3.8431686,11.375774 3.9861954,9.2276413 6.0011989,7.6945659 8.0962768,7.8656841 10.565254,8.067341 12.31801,10.39416 12.093167,12.810563 11.833578,15.600395 9.1941789,17.573289 6.4565181,17.294254 3.345814,16.977198 1.1524728,14.024706 1.4860261,10.965834 1.8602224,7.5342424 5.1261684,5.1202316 8.5062165,5.5085416 12.258711,5.9396393 14.893555,9.5193049 14.45031,13.220503"
       transform="matrix(-0.29142518,0.73448135,-0.79562976,-0.42395608,42.44579,5.3057145)" />
    <path
       sodipodi:type="spiral"
       style="fill:#00954e;fill-opacity:1;fill-rule:evenodd;stroke:#00312b;stroke-width:1.165;stroke-dasharray:none;stroke-opacity:1"
       id="path7"
       sodipodi:cx="7.3788824"
       sodipodi:cy="11.990684"
       sodipodi:expansion="1"
       sodipodi:revolution="3"
       sodipodi:radius="7.1775723"
       sodipodi:argument="-18.677364"
       sodipodi:t0="0"
       d="m 7.3788824,11.990684 c 0.3545501,0.06166 0.091804,0.508347 -0.1024849,0.589285 -0.5265123,0.219336 -1.0101602,-0.312416 -1.0760864,-0.794255 -0.1179264,-0.861898 0.6785411,-1.533067 1.4860261,-1.562887 1.1850166,-0.04376 2.0659185,1.047626 2.0496877,2.177796 -0.021633,1.506339 -1.4174993,2.602675 -2.8695671,2.536489 C 5.0391786,14.853823 3.7250753,13.149428 3.8431686,11.375774 3.9861954,9.2276413 6.0011989,7.6945659 8.0962768,7.8656841 10.565254,8.067341 12.31801,10.39416 12.093167,12.810563 11.833578,15.600395 9.1941789,17.573289 6.4565181,17.294254 3.345814,16.977198 1.1524728,14.024706 1.4860261,10.965834 1.8602224,7.5342424 5.1261684,5.1202316 8.5062165,5.5085416 12.258711,5.9396393 14.893555,9.5193049 14.45031,13.220503"
       transform="matrix(-0.29169973,0.72016159,-0.79637931,-0.41569045,38.095092,7.91544)" />
    <path
       id="path39"
       style="fill:#774600;stroke:#201300;stroke-width:1.24354"
       d="m 50.401492,53.453814 0.05435,0.298928 v 3.831718 l 0.543506,-1.38594 z"
       sodipodi:nodetypes="ccccc" />
    <path
       id="rect39"
       style="fill:#774600;stroke:#201300;stroke-width:1.24354"
       d="m 28.914519,53.616866 -0.05435,0.298928 v 3.831718 l -0.543506,-1.38594 z"
       sodipodi:nodetypes="ccccc" />
    <g
       id="g21"
       transform="matrix(-1,0,0,1,78.645185,0.76863355)">
      <ellipse
         style="fill:#00954e;fill-opacity:1;stroke:#002011;stroke-width:1.82416;stroke-dasharray:none;stroke-opacity:1"
         id="ellipse18"
         cx="29.934484"
         cy="10.026855"
         rx="4.9577522"
         ry="7.5484438"
         transform="matrix(0.97570939,0.21906891,-0.26079045,0.96539543,0,0)" />
      <ellipse
         style="fill:#00312b;fill-opacity:1;stroke:none;stroke-width:0.854978;stroke-dasharray:none;stroke-opacity:1"
         id="ellipse19"
         cx="29.958776"
         cy="5.5897098"
         rx="3.3862095"
         ry="5.1364975"
         transform="matrix(0.91054053,0.41341981,-0.27194541,0.96231268,0,0)" />
      <ellipse
         style="fill:#00312b;fill-opacity:1;stroke:#050d0d;stroke-width:0.949448;stroke-dasharray:none;stroke-opacity:1"
         id="ellipse20"
         cx="32.170826"
         cy="10.096696"
         rx="4.4518371"
         ry="4.8180857"
         transform="matrix(0.97570939,0.21906891,-0.26079045,0.96539543,0,0)" />
      <ellipse
         style="fill:#081616;fill-opacity:1;stroke:none;stroke-width:0.433649;stroke-dasharray:none;stroke-opacity:1"
         id="ellipse21"
         cx="30.804125"
         cy="5.4019146"
         rx="1.741599"
         ry="2.5692153"
         transform="matrix(0.91610884,0.40092966,-0.28133932,0.95960835,0,0)" />
    </g>
    <rect
       style="fill:#00954e;fill-opacity:1;stroke:#002011;stroke-width:1.50806;stroke-dasharray:none;stroke-opacity:1"
       id="rect63"
       width="7.7134871"
       height="20.698326"
       x="29.252718"
       y="57.822136"
       ry="2.6943982" />
    <path
       id="path5"
       style="fill:#00954e;fill-opacity:1;stroke:#002011;stroke-width:1.72956;stroke-miterlimit:4;stroke-dasharray:none;stroke-opacity:1"
       d="m 46.848912,38.096992 c -0.47892,0.755069 -0.59236,1.636163 -0.220067,2.289852 l 4.444143,7.95974 c 0.03695,0.141929 0.731221,1.370378 0.855852,1.47886 0.08976,0.23054 0.367903,0.394851 0.542013,0.563162 l 7.403237,7.157025 c 0.78158,0.755576 2.114768,0.461386 2.989248,-0.657944 l 0.662971,-0.845841 c 0.874479,-1.119331 0.947731,-2.629531 0.166146,-3.385104 L 56.788733,46.27556 c -0.330161,-0.556371 -0.366755,-0.723369 -0.419292,-0.779859 l -4.743274,-8.719735 c -0.54153,-0.950807 -1.899411,-1.049915 -3.043652,-0.223317 l -0.866531,0.625334 c -0.357564,0.25832 -0.649364,0.575847 -0.866996,0.919104 z"
       sodipodi:nodetypes="cccccccccccccccc" />
    <path
       id="path79"
       style="fill:#00312b;fill-opacity:1;stroke:none;stroke-width:1.32281;stroke-miterlimit:4;stroke-dasharray:none;stroke-opacity:1"
       d="m 47.441035,37.063952 c -0.433925,0.384543 -0.591589,0.977611 -0.351215,1.565545 l 2.857212,7.130261 c 0.01785,0.113438 0.465369,1.216589 0.554466,1.334528 0.05225,0.193888 0.25716,0.401494 0.380318,0.578231 4.427935,4.924277 3.570111,5.081656 5.236534,7.515499 0.55284,0.793423 1.61952,1.015263 2.39162,0.498491 l 0.585117,-0.389767 c 0.772079,-0.516711 0.947426,-1.572528 0.394589,-2.365948 l -5.752997,-5.35849 c -1.130916,-1.336875 -1.727871,-2.315511 -2.172981,-3.165313 l -0.279442,-6.739047 c -0.349651,-0.855183 -1.404959,-1.366114 -2.365345,-1.146084 l -0.727251,0.166161 c -0.30013,0.06874 -0.553371,0.201178 -0.750572,0.376015 z"
       sodipodi:nodetypes="cccccccccccccccc" />
    <rect
       style="fill:#00954e;fill-opacity:1;stroke:#002011;stroke-width:1.52852;stroke-dasharray:none;stroke-opacity:1"
       id="rect9"
       width="7.9320755"
       height="20.67762"
       x="42.177448"
       y="57.947868"
       ry="2.6917026" />
    <path
       id="path4"
       style="fill:#00954e;fill-opacity:1;stroke:#002011;stroke-width:2.2027;stroke-miterlimit:4;stroke-dasharray:none;stroke-opacity:1"
       d="m 31.477871,40.167763 c 0.06967,0.907331 -0.184901,1.731667 -0.717969,2.102995 l -6.423824,4.568488 c -0.08266,0.103721 -1.080389,0.804371 -1.216247,0.832914 -0.156685,0.152813 -0.429847,0.149015 -0.626108,0.203436 L 14.148357,50.19 c -0.88104,0.244332 -1.772812,-0.712677 -2.000164,-2.144317 l -0.17343,-1.082978 c -0.227359,-1.431641 0.300372,-2.780774 1.181414,-3.025096 l 7.669204,-1.904025 c 0.463734,-0.309053 0.555793,-0.434722 0.617215,-0.456092 l 6.801682,-5.214775 c 0.775384,-0.540104 1.978676,0.232789 2.52245,1.552378 l 0.412053,0.998754 c 0.169949,0.412357 0.26739,0.841513 0.299002,1.253944 z"
       sodipodi:nodetypes="cccccccccccccccc" />
    <path
       id="path74"
       style="fill:#00312b;fill-opacity:1;stroke:none;stroke-width:1.24968;stroke-miterlimit:4;stroke-dasharray:none;stroke-opacity:1"
       d="m 31.328083,40.237937 c 0.210445,0.50991 0.08838,1.048423 -0.378938,1.390046 l -5.616911,4.171179 c -0.06526,0.07975 -0.939049,0.722427 -1.068482,0.771147 -0.130532,0.12575 -0.400333,0.188219 -0.585251,0.266247 -6.022215,1.691138 -7.80524,2.200453 -7.80524,2.200453 0,0 -1.91617,1.124177 -2.363956,0.347314 l -0.340157,-0.587248 c -0.447792,-0.776764 -0.138532,-1.684411 0.691576,-2.034727 l 7.369212,-1.387347 c 1.572782,-0.493627 2.522511,-0.96688 3.283251,-1.413331 l 3.944482,-6.429043 c 0,0 1.075421,0.929894 1.817537,1.566741 l 0.562166,0.481895 c 0.231927,0.199004 0.395024,0.424918 0.490629,0.656712 z"
       sodipodi:nodetypes="cccccccccccccccc" />
    <rect
       style="fill:none;fill-opacity:1;stroke:#002011;stroke-width:4.511;stroke-dasharray:none;stroke-opacity:1"
       id="rect1"
       width="8.7918472"
       height="16.762125"
       x="35.101086"
       y="26.468765" />
    <rect
       style="fill:#00954e;fill-opacity:1;stroke:#002011;stroke-width:2.05966;stroke-opacity:1"
       id="rect2"
       width="20.429962"
       height="24.811441"
       x="29.437363"
       y="36.414341" />
    <path
       id="ellipse25"
       style="fill:#00ca67;stroke-width:1.02678;fill-opacity:1"
       transform="matrix(0.95278466,-0.30364681,0.60168762,0.7987315,0,0)"
       d="m 4.5233873,53.633156 c 0,1.938971 -0.1759899,2.669343 -1.8578161,2.669343 -1.68182617,0 -3.04521564,-1.571846 -3.04521559,-3.510816 -5e-8,-1.93897 1.36338942,-3.510816 3.04521559,-3.510816 1.6818262,0 1.8578161,2.413319 1.8578161,4.352289 z"
       sodipodi:nodetypes="sssss" />
    <path
       id="path75"
       style="fill:#00954e;fill-opacity:1;stroke-width:0.858754"
       d="m 38.748275,31.676383 h 1.251921 c 1.821976,0 4.861458,-0.11572 4.444599,0.495646 0,0 0.757925,3.548742 0.757925,5.178995 0,1.155722 -1.624389,0.937612 -5.202524,0.937612 h -1.251921 c -1.821974,0 -4.425649,0.03885 -4.425649,-0.438001 0,-1.630252 0.549495,-5.544095 0.549495,-5.544095 0,-0.476855 2.05418,-0.630157 3.876154,-0.630157 z"
       sodipodi:nodetypes="sssssssss" />
    <path
       id="ellipse24"
       style="fill:#00312b;stroke-width:0.808785"
       d="m 44.872166,32.934239 c 0,2.884842 -2.219949,2.804227 -5.063678,2.804227 -2.843729,10e-7 -5.234375,0.08062 -5.234375,-2.804227 0,-2.884842 2.305298,-5.223469 5.149027,-5.223469 2.843728,0 5.149026,2.338627 5.149026,5.223469 z"
       sodipodi:nodetypes="sssss" />
    <g
       id="g17">
      <ellipse
         style="fill:#00954e;fill-opacity:1;stroke:#002011;stroke-width:1.82416;stroke-dasharray:none;stroke-opacity:1"
         id="ellipse14"
         cx="29.934484"
         cy="10.026855"
         rx="4.9577522"
         ry="7.5484438"
         transform="matrix(0.97570939,0.21906891,-0.26079045,0.96539543,0,0)" />
      <ellipse
         style="fill:#00312b;fill-opacity:1;stroke:none;stroke-width:0.854978;stroke-dasharray:none;stroke-opacity:1"
         id="ellipse16"
         cx="29.958776"
         cy="5.5897098"
         rx="3.3862095"
         ry="5.1364975"
         transform="matrix(0.91054053,0.41341981,-0.27194541,0.96231268,0,0)" />
      <ellipse
         style="fill:#00312b;fill-opacity:1;stroke:#050d0d;stroke-width:0.949448;stroke-dasharray:none;stroke-opacity:1"
         id="ellipse15"
         cx="32.170826"
         cy="10.096696"
         rx="4.4518371"
         ry="4.8180857"
         transform="matrix(0.97570939,0.21906891,-0.26079045,0.96539543,0,0)" />
      <ellipse
         style="fill:#081616;fill-opacity:1;stroke:none;stroke-width:0.433649;stroke-dasharray:none;stroke-opacity:1"
         id="ellipse17"
         cx="30.804125"
         cy="5.4019146"
         rx="1.741599"
         ry="2.5692153"
         transform="matrix(0.91610884,0.40092966,-0.28133932,0.95960835,0,0)" />
    </g>
    <ellipse
       style="fill:#00473e;fill-opacity:1;stroke:#002011;stroke-width:2.089;stroke-dasharray:none;stroke-opacity:1"
       id="path2"
       cx="39.419746"
       cy="18.640125"
       rx="12.683779"
       ry="14.146383" />
    <ellipse
       style="fill:#00954e;fill-opacity:1;stroke:none;stroke-width:0.885967;stroke-dasharray:none;stroke-opacity:1"
       id="path66"
       cx="40.263802"
       cy="16.878059"
       rx="10.664937"
       ry="11.370191" />
    <ellipse
       style="fill:#07ff86;fill-opacity:1;stroke:none;stroke-width:2.089;stroke-dasharray:none;stroke-opacity:1"
       id="path22"
       cx="33.964279"
       cy="32.17688"
       rx="5.4572983"
       ry="8.1090841"
       transform="rotate(-26.103605)" />
    <path
       id="path15"
       style="fill:#ffffff;stroke:#163333;stroke-width:0.988493;stroke-dasharray:none;stroke-opacity:1"
       d="m 44.966441,17.791298 c 0,2.822845 -2.313362,6.433079 -5.167039,6.433079 -2.853674,-1e-6 -5.167036,-3.610234 -5.167036,-6.433079 0,-2.822844 2.418813,-6.609325 5.272488,-6.609326 2.853675,0 5.061587,3.786482 5.061587,6.609326 z"
       sodipodi:nodetypes="sssss" />
    <path
       id="path19"
       style="fill:#17ffea;fill-opacity:1;stroke:#163333;stroke-width:1.3169;stroke-dasharray:none;stroke-opacity:1"
       d="m 43.489084,17.679984 c 0,1.947254 -1.571754,4.437664 -3.510601,4.437664 -1.938854,0 -3.510603,-2.49041 -3.510603,-4.437664 0,-1.947253 1.643395,-4.559245 3.582244,-4.559245 1.938854,0 3.43896,2.611992 3.43896,4.559245 z"
       sodipodi:nodetypes="sssss" />
    <path
       id="path20"
       style="fill:#ffffff;fill-opacity:0.767531;stroke:none;stroke-width:0.219787"
       d="m 41.571068,16.98123 c 0,0.7748 -0.686104,1.765718 -1.532453,1.765718 -0.846347,0 -1.532452,-0.990918 -1.532452,-1.765718 0,-0.774798 0.717376,-1.814092 1.563725,-1.814092 0.84635,0 1.50118,1.039294 1.50118,1.814092 z"
       sodipodi:nodetypes="sssss" />
    <path
       id="rect10"
       style="fill:#00312b;stroke-width:0.674374;fill-opacity:1"
       d="m 32.600468,69.642878 h 0.982494 c 1.429864,0 2.580983,0.30167 2.580983,0.67638 v 3.84315 c 0,0.90816 0.227094,0.67637 -2.580983,0.67637 h -0.982494 c -1.429864,0 -2.580983,-0.30166 -2.580983,-0.67637 v -3.84315 c 0,-0.37471 1.151119,-0.67638 2.580983,-0.67638 z"
       sodipodi:nodetypes="sssssssss" />
    <path
       id="path21"
       style="fill:#00473f;stroke-width:0.683237;fill-opacity:1"
       d="m 45.57105,70.784795 h 1.008491 c 1.467699,0 2.649277,0.30167 2.649277,0.67638 v 3.84315 c 0,0.90816 0.233104,0.67637 -2.649277,0.67637 H 45.57105 c -1.467698,0 -2.649277,-0.30166 -2.649277,-0.67637 v -3.84315 c 0,-0.37471 1.181579,-0.67638 2.649277,-0.67638 z"
       sodipodi:nodetypes="sssssssss" />
    <rect
       style="fill:#1f1f1f;fill-opacity:1;stroke:#000000;stroke-width:1.04226;stroke-dasharray:none;stroke-opacity:1"
       id="rect65"
       width="3.6346195"
       height="42.993729"
       x="11.210691"
       y="34.648521" />
    <path
       id="rect66"
       style="fill:#747474;fill-opacity:1;stroke:#191919;stroke-width:1.2677;stroke-dasharray:none;stroke-opacity:1"
       d="M 17.310625,1.212395 7.1224718,6.7603082 7.5969907,13.731658 a 3.9798599,3.9976986 0 0 1 0.9581195,-0.117908 3.9798599,3.9976986 0 0 1 3.9800558,3.998035 3.9798599,3.9976986 0 0 1 -3.9800558,3.997258 3.9798599,3.9976986 0 0 1 -0.4238128,-0.0225 l 1.378905,20.256244 h 5.5723796 z" />
    <path
       id="path68"
       style="fill:#00954e;fill-opacity:1;stroke:#002011;stroke-width:1.66951;stroke-dasharray:none;stroke-opacity:1"
       d="m 17.699557,48.614068 c -0.06624,1.957546 -2.399266,4.30556 -5.402193,2.929148 -2.3944741,-1.097525 -4.6651306,-2.203948 -4.2470446,-4.480605 0.420967,-2.29233 0.813923,-4.610875 5.5602266,-3.05267 2.535492,0.832396 4.145083,2.947527 4.089011,4.604127 z"
       sodipodi:nodetypes="sssss" />
    <rect
       style="fill:#1f1f1f;fill-opacity:1;stroke:#000000;stroke-width:0.741347;stroke-miterlimit:4;stroke-dasharray:none;stroke-opacity:1"
       id="rect32"
       width="8.0756197"
       height="1.992898"
       x="9.015337"
       y="73.960762"
       ry="0.93281889" />
    <rect
       style="fill:#1f1f1f;fill-opacity:1;stroke:#000000;stroke-width:1.15057;stroke-miterlimit:4;stroke-dasharray:none;stroke-opacity:1"
       id="rect33"
       width="9.6685581"
       height="2.6248901"
       x="8.2107086"
       y="76.000275"
       ry="1.2286364" />
    <ellipse
       style="fill:#147249;fill-opacity:1;stroke:#060e0e;stroke-width:1.88303957;stroke-dasharray:none;stroke-opacity:1"
       id="ellipse62"
       cx="64.42041"
       cy="51.63932"
       rx="10.344237"
       ry="19.12809" />
    <path
       id="ellipse73"
       style="fill:#00685d;fill-opacity:1;stroke:none;stroke-width:1.27524;stroke-dasharray:none;stroke-opacity:1"
       d="m 56.49868,41.631498 a 9.4339186,18.608883 0 0 0 -1.424861,9.834514 9.4339186,18.608883 0 0 0 9.433906,18.609401 9.4339186,18.608883 0 0 0 6.475018,-5.075503 13.466701,18.608883 0 0 1 -1.486936,0.114023 13.466701,18.608883 0 0 1 -13.466611,-18.608624 13.466701,18.608883 0 0 1 0.469484,-4.873817 z" />
    <path
       id="path62"
       style="fill:#ffffff;stroke:#163333;stroke-width:1.75403;stroke-dasharray:none;stroke-opacity:1"
       d="m 76.588201,51.792632 c 0,3.609178 -1.898379,8.225079 -4.240151,8.225079 -2.341771,-3e-6 -4.24015,-4.615901 -4.24015,-8.225079 0,-3.609176 1.984914,-8.450419 4.326683,-8.450422 2.34177,0 4.153618,4.841246 4.153618,8.450422 z"
       sodipodi:nodetypes="sssss" />
    <path
       id="path63"
       style="fill:#17ffea;fill-opacity:1;stroke:#163333;stroke-width:1.15809;stroke-dasharray:none;stroke-opacity:1"
       d="m 75.469973,51.720159 c 0,1.980063 -1.195358,4.512437 -2.6699,4.512437 -1.474547,0 -2.669902,-2.532374 -2.669902,-4.512437 0,-1.980065 1.249844,-4.636067 2.724387,-4.636067 1.474547,0 2.615415,2.656002 2.615415,4.636067 z"
       sodipodi:nodetypes="sssss" />
    <path
       id="path64"
       style="fill:#ffffff;fill-opacity:1;stroke:none;stroke-width:0.261786"
       d="m 75.233985,48.523584 c 0.221173,1.14656 -0.135204,2.708917 -0.923761,2.827323 -0.788548,0.118407 -1.710666,-1.251977 -1.931838,-2.398535 -0.221176,-1.146555 0.150531,-2.784875 0.939087,-2.903281 0.788551,-0.118406 1.695337,1.327938 1.916512,2.474493 z"
       sodipodi:nodetypes="sssss" />
    <g
       id="g67"
       transform="matrix(1.6730398,-0.08026892,-0.88239998,-1.7726663,50.136838,71.333653)"
       style="stroke:#021212;stroke-opacity:1">
      <path
         sodipodi:type="spiral"
         style="fill:none;fill-opacity:1;fill-rule:evenodd;stroke:#021212;stroke-width:1.165;stroke-dasharray:none;stroke-opacity:1"
         id="path65"
         sodipodi:cx="7.3788824"
         sodipodi:cy="11.990684"
         sodipodi:expansion="1"
         sodipodi:revolution="3"
         sodipodi:radius="7.1775723"
         sodipodi:argument="-18.677364"
         sodipodi:t0="0"
         d="m 7.3788824,11.990684 c 0.3545501,0.06166 0.091804,0.508347 -0.1024849,0.589285 -0.5265123,0.219336 -1.0101602,-0.312416 -1.0760864,-0.794255 -0.1179264,-0.861898 0.6785411,-1.533067 1.4860261,-1.562887 1.1850166,-0.04376 2.0659185,1.047626 2.0496877,2.177796 -0.021633,1.506339 -1.4174993,2.602675 -2.8695671,2.536489 C 5.0391786,14.853823 3.7250753,13.149428 3.8431686,11.375774 3.9861954,9.2276413 6.0011989,7.6945659 8.0962768,7.8656841 10.565254,8.067341 12.31801,10.39416 12.093167,12.810563 11.833578,15.600395 9.1941789,17.573289 6.4565181,17.294254 3.345814,16.977198 1.1524728,14.024706 1.4860261,10.965834 1.8602224,7.5342424 5.1261684,5.1202316 8.5062165,5.5085416 12.258711,5.9396393 14.893555,9.5193049 14.45031,13.220503"
         transform="matrix(-0.12693299,-0.27940024,-0.24651116,0.18568287,23.532179,18.320999)" />
    </g>
    <g
       id="g68"
       transform="matrix(-1.6730398,-0.08026892,0.88239998,-1.7726663,83.685071,99.043061)"
       style="stroke:#021212;stroke-opacity:1">
      <path
         sodipodi:type="spiral"
         style="fill:none;fill-opacity:1;fill-rule:evenodd;stroke:#021212;stroke-width:1.165;stroke-dasharray:none;stroke-opacity:1"
         id="path67"
         sodipodi:cx="7.3788824"
         sodipodi:cy="11.990684"
         sodipodi:expansion="1"
         sodipodi:revolution="3"
         sodipodi:radius="7.1775723"
         sodipodi:argument="-18.677364"
         sodipodi:t0="0"
         d="m 7.3788824,11.990684 c 0.3545501,0.06166 0.091804,0.508347 -0.1024849,0.589285 -0.5265123,0.219336 -1.0101602,-0.312416 -1.0760864,-0.794255 -0.1179264,-0.861898 0.6785411,-1.533067 1.4860261,-1.562887 1.1850166,-0.04376 2.0659185,1.047626 2.0496877,2.177796 -0.021633,1.506339 -1.4174993,2.602675 -2.8695671,2.536489 C 5.0391786,14.853823 3.7250753,13.149428 3.8431686,11.375774 3.9861954,9.2276413 6.0011989,7.6945659 8.0962768,7.8656841 10.565254,8.067341 12.31801,10.39416 12.093167,12.810563 11.833578,15.600395 9.1941789,17.573289 6.4565181,17.294254 3.345814,16.977198 1.1524728,14.024706 1.4860261,10.965834 1.8602224,7.5342424 5.1261684,5.1202316 8.5062165,5.5085416 12.258711,5.9396393 14.893555,9.5193049 14.45031,13.220503"
         transform="matrix(-0.12693299,-0.27940024,-0.24651116,0.18568287,23.532179,18.320999)" />
    </g>
    <g
       id="g69"
       transform="matrix(1.3003611,-1.8773345,-2.0579881,-0.99817935,73.181834,106.2305)"
       style="stroke:#021212;stroke-opacity:1">
      <path
         sodipodi:type="spiral"
         style="fill:none;fill-opacity:1;fill-rule:evenodd;stroke:#021212;stroke-width:1.165;stroke-dasharray:none;stroke-opacity:1"
         id="path69"
         sodipodi:cx="7.3788824"
         sodipodi:cy="11.990684"
         sodipodi:expansion="1"
         sodipodi:revolution="3"
         sodipodi:radius="7.1775723"
         sodipodi:argument="-18.677364"
         sodipodi:t0="0"
         d="m 7.3788824,11.990684 c 0.3545501,0.06166 0.091804,0.508347 -0.1024849,0.589285 -0.5265123,0.219336 -1.0101602,-0.312416 -1.0760864,-0.794255 -0.1179264,-0.861898 0.6785411,-1.533067 1.4860261,-1.562887 1.1850166,-0.04376 2.0659185,1.047626 2.0496877,2.177796 -0.021633,1.506339 -1.4174993,2.602675 -2.8695671,2.536489 C 5.0391786,14.853823 3.7250753,13.149428 3.8431686,11.375774 3.9861954,9.2276413 6.0011989,7.6945659 8.0962768,7.8656841 10.565254,8.067341 12.31801,10.39416 12.093167,12.810563 11.833578,15.600395 9.1941789,17.573289 6.4565181,17.294254 3.345814,16.977198 1.1524728,14.024706 1.4860261,10.965834 1.8602224,7.5342424 5.1261684,5.1202316 8.5062165,5.5085416 12.258711,5.9396393 14.893555,9.5193049 14.45031,13.220503"
         transform="matrix(-0.12693299,-0.27940024,-0.24651116,0.18568287,23.532179,18.320999)" />
    </g>
    <g
       id="g70"
       transform="matrix(1.9139155,-0.23559403,-1.1758403,-1.8141946,46.410519,80.616503)"
       style="stroke:#021212;stroke-opacity:1">
      <path
         sodipodi:type="spiral"
         style="fill:none;fill-opacity:1;fill-rule:evenodd;stroke:#021212;stroke-width:1.165;stroke-dasharray:none;stroke-opacity:1"
         id="path70"
         sodipodi:cx="7.3788824"
         sodipodi:cy="11.990684"
         sodipodi:expansion="1"
         sodipodi:revolution="3"
         sodipodi:radius="7.1775723"
         sodipodi:argument="-18.677364"
         sodipodi:t0="0"
         d="m 7.3788824,11.990684 c 0.3545501,0.06166 0.091804,0.508347 -0.1024849,0.589285 -0.5265123,0.219336 -1.0101602,-0.312416 -1.0760864,-0.794255 -0.1179264,-0.861898 0.6785411,-1.533067 1.4860261,-1.562887 1.1850166,-0.04376 2.0659185,1.047626 2.0496877,2.177796 -0.021633,1.506339 -1.4174993,2.602675 -2.8695671,2.536489 C 5.0391786,14.853823 3.7250753,13.149428 3.8431686,11.375774 3.9861954,9.2276413 6.0011989,7.6945659 8.0962768,7.8656841 10.565254,8.067341 12.31801,10.39416 12.093167,12.810563 11.833578,15.600395 9.1941789,17.573289 6.4565181,17.294254 3.345814,16.977198 1.1524728,14.024706 1.4860261,10.965834 1.8602224,7.5342424 5.1261684,5.1202316 8.5062165,5.5085416 12.258711,5.9396393 14.893555,9.5193049 14.45031,13.220503"
         transform="matrix(-0.03138143,-0.26457186,-0.33973589,0.08157699,23.858253,19.394667)" />
    </g>
    <g
       id="g71"
       transform="matrix(-1.8841446,-0.57867297,1.5178889,-1.6934053,72.091663,102.47966)"
       style="stroke:#021212;stroke-opacity:1">
      <path
         sodipodi:type="spiral"
         style="fill:none;fill-opacity:1;fill-rule:evenodd;stroke:#021212;stroke-width:1.165;stroke-dasharray:none;stroke-opacity:1"
         id="path71"
         sodipodi:cx="7.3788824"
         sodipodi:cy="11.990684"
         sodipodi:expansion="1"
         sodipodi:revolution="3"
         sodipodi:radius="7.1775723"
         sodipodi:argument="-18.677364"
         sodipodi:t0="0"
         d="m 7.3788824,11.990684 c 0.3545501,0.06166 0.091804,0.508347 -0.1024849,0.589285 -0.5265123,0.219336 -1.0101602,-0.312416 -1.0760864,-0.794255 -0.1179264,-0.861898 0.6785411,-1.533067 1.4860261,-1.562887 1.1850166,-0.04376 2.0659185,1.047626 2.0496877,2.177796 -0.021633,1.506339 -1.4174993,2.602675 -2.8695671,2.536489 C 5.0391786,14.853823 3.7250753,13.149428 3.8431686,11.375774 3.9861954,9.2276413 6.0011989,7.6945659 8.0962768,7.8656841 10.565254,8.067341 12.31801,10.39416 12.093167,12.810563 11.833578,15.600395 9.1941789,17.573289 6.4565181,17.294254 3.345814,16.977198 1.1524728,14.024706 1.4860261,10.965834 1.8602224,7.5342424 5.1261684,5.1202316 8.5062165,5.5085416 12.258711,5.9396393 14.893555,9.5193049 14.45031,13.220503"
         transform="matrix(-0.12693299,-0.27940024,-0.24651116,0.18568287,23.532179,18.320999)" />
    </g>
    <path
       id="path78"
       style="fill:#464646;fill-opacity:1;stroke:none;stroke-width:1.03459;stroke-dasharray:none;stroke-opacity:1"
       d="m 16.631472,2.3104335 -5.086477,2.7277272 c 1.113741,4.0763324 0.30116,6.3804493 -0.334431,8.8473963 0.905934,0.663762 1.899507,2.336702 1.899306,3.754333 -6e-6,1.417357 -0.678988,2.819654 -1.584745,3.483287 1.95666,6.707438 1.387736,13.414876 0.182922,20.122314 h 3.244063 z"
       sodipodi:nodetypes="cccccccc" />
    <path
       sodipodi:type="spiral"
       style="fill:#07ff86;fill-opacity:1;fill-rule:evenodd;stroke:#006836;stroke-width:1.165;stroke-dasharray:none;stroke-opacity:1"
       id="path8"
       sodipodi:cx="7.3788824"
       sodipodi:cy="11.990684"
       sodipodi:expansion="1"
       sodipodi:revolution="3"
       sodipodi:radius="7.1775723"
       sodipodi:argument="-18.677364"
       sodipodi:t0="0"
       d="m 7.3788824,11.990684 c 0.3545501,0.06166 0.091804,0.508347 -0.1024849,0.589285 -0.5265123,0.219336 -1.0101602,-0.312416 -1.0760864,-0.794255 -0.1179264,-0.861898 0.6785411,-1.533067 1.4860261,-1.562887 1.1850166,-0.04376 2.0659185,1.047626 2.0496877,2.177796 -0.021633,1.506339 -1.4174993,2.602675 -2.8695671,2.536489 C 5.0391786,14.853823 3.7250753,13.149428 3.8431686,11.375774 3.9861954,9.2276413 6.0011989,7.6945659 8.0962768,7.8656841 10.565254,8.067341 12.31801,10.39416 12.093167,12.810563 11.833578,15.600395 9.1941789,17.573289 6.4565181,17.294254 3.345814,16.977198 1.1524728,14.024706 1.4860261,10.965834 1.8602224,7.5342424 5.1261684,5.1202316 8.5062165,5.5085416 12.258711,5.9396393 14.893555,9.5193049 14.45031,13.220503"
       transform="matrix(0.70129202,-0.00776254,-0.01830601,-0.7320009,20.972723,18.456962)" />
    <path
       id="path26"
       style="fill:#00473f;fill-opacity:1;stroke:none;stroke-width:1.68133;stroke-dasharray:none;stroke-opacity:1"
       d="m 30.714215,39.039083 c -0.0937,0.0538 -0.186366,0.114972 -0.277798,0.183395 l 0.02717,14.802112 0.0058,0.01373 c 0,0 4.574141,-5.480119 4.638543,-9.726696 -0.842582,0.09781 -2.403222,0.692463 -3.249265,-0.445954 -0.929447,-1.250646 -1.090021,-2.582424 -1.144465,-4.826587 z m 4.799467,6.715861 c -0.02653,0.0227 -0.05327,0.04476 -0.08021,0.06616 l 0.09125,0.172607 c -0.0031,-0.0797 -0.0068,-0.159302 -0.01103,-0.238773 z"
       sodipodi:nodetypes="cccccscscccs" />
    <path
       style="fill:none;fill-opacity:1;stroke:#002011;stroke-width:1.84099999;stroke-dasharray:none;stroke-opacity:1;stroke-linejoin:round;stroke-linecap:round"
       d="m 30.27916,36.929954 c 0,0 -0.302986,5.074673 1.725626,6.471179 1.547205,1.065103 5.637372,0.647427 5.637372,0.647427"
       id="path23"
       sodipodi:nodetypes="csc" />
    <path
       id="path25"
       style="fill:#00ca67;stroke-width:0.997468;fill-opacity:1"
       d="m 42.487178,41.301927 c -1.166655,1.548718 -1.438431,2.185528 0.163988,2.696209 1.602418,0.510681 3.847195,-0.330813 5.013849,-1.87953 1.166654,-1.548716 0.813398,-3.218188 -0.78902,-3.728869 -1.602419,-0.510681 -3.222163,1.363474 -4.388817,2.91219 z"
       sodipodi:nodetypes="sssss" />
    <path
       id="path27"
       style="fill:#00473f;fill-opacity:1;stroke:none;stroke-width:1.68133;stroke-dasharray:none;stroke-opacity:1"
       d="m 48.630473,38.73163 c 0.0937,0.0538 0.186366,0.114972 0.277798,0.183395 l -0.02717,14.802112 -0.0058,0.01373 c 0,0 -4.574141,-5.480119 -4.638543,-9.726696 0.842582,0.09781 2.403222,0.692463 3.249265,-0.445954 0.929447,-1.250646 1.090021,-2.582424 1.144465,-4.826587 z m -4.799467,6.715861 c 0.02653,0.0227 0.05327,0.04476 0.08021,0.06616 l -0.09125,0.172607 c 0.0031,-0.0797 0.0068,-0.159302 0.01103,-0.238773 z"
       sodipodi:nodetypes="cccccscscccs" />
    <path
       style="fill:none;fill-opacity:1;stroke:#002011;stroke-width:1.74099999;stroke-dasharray:none;stroke-opacity:1;stroke-linejoin:round;stroke-linecap:round"
       d="m 48.782439,36.712552 c 0,0 0.302986,5.074673 -1.725626,6.471179 -1.547205,1.065103 -5.637372,0.647427 -5.637372,0.647427"
       id="path24"
       sodipodi:nodetypes="csc" />
    <g
       id="g29"
       transform="matrix(1,0,0,-1,-0.8440342,86.823151)">
      <ellipse
         style="fill:#002011;fill-opacity:1;stroke:none;stroke-width:1.6332;stroke-dasharray:none;stroke-opacity:1"
         id="path28"
         cx="35.288403"
         cy="41.778561"
         rx="1.6525621"
         ry="1.2682455" />
      <ellipse
         style="fill:#000f08;fill-opacity:1;stroke:none;stroke-width:1.24266;stroke-dasharray:none;stroke-opacity:1"
         id="ellipse28"
         cx="35.326832"
         cy="41.804771"
         rx="1.1913821"
         ry="1.0184395" />
      <ellipse
         style="fill:#002011;fill-opacity:1;stroke:none;stroke-width:0.946814;stroke-dasharray:none;stroke-opacity:1"
         id="ellipse29"
         cx="35.04314"
         cy="41.491093"
         rx="0.87090665"
         ry="0.80879658" />
    </g>
    <g
       id="g32"
       transform="rotate(180,40.816439,43.023162)">
      <ellipse
         style="fill:#002011;fill-opacity:1;stroke:none;stroke-width:1.6332;stroke-dasharray:none;stroke-opacity:1"
         id="ellipse30"
         cx="35.288403"
         cy="41.778561"
         rx="1.6525621"
         ry="1.2682455" />
      <ellipse
         style="fill:#000f08;fill-opacity:1;stroke:none;stroke-width:1.24266;stroke-dasharray:none;stroke-opacity:1"
         id="ellipse31"
         cx="35.326832"
         cy="41.804771"
         rx="1.1913821"
         ry="1.0184395" />
      <ellipse
         style="fill:#002011;fill-opacity:1;stroke:none;stroke-width:0.946814;stroke-dasharray:none;stroke-opacity:1"
         id="ellipse32"
         cx="35.04314"
         cy="41.491093"
         rx="0.87090665"
         ry="0.80879658" />
    </g>
    <g
       id="g35"
       transform="matrix(1,0,0,-1,4.4823246,97.58457)">
      <ellipse
         style="fill:#002011;fill-opacity:1;stroke:none;stroke-width:1.6332;stroke-dasharray:none;stroke-opacity:1"
         id="ellipse33"
         cx="35.288403"
         cy="41.778561"
         rx="1.6525621"
         ry="1.2682455" />
      <ellipse
         style="fill:#000f08;fill-opacity:1;stroke:none;stroke-width:1.24266;stroke-dasharray:none;stroke-opacity:1"
         id="ellipse34"
         cx="35.326832"
         cy="41.804771"
         rx="1.1913821"
         ry="1.0184395" />
      <ellipse
         style="fill:#002011;fill-opacity:1;stroke:none;stroke-width:0.946814;stroke-dasharray:none;stroke-opacity:1"
         id="ellipse35"
         cx="35.04314"
         cy="41.491093"
         rx="0.87090665"
         ry="0.80879658" />
    </g>
    <path
       id="rect38"
       style="fill:#ffffff;fill-opacity:1;stroke:#201300;stroke-width:1.24354;stroke-dasharray:none"
       d="m 28.250989,59.466654 c 0,0 0.407968,7.055317 0.701249,10.156486 0.180295,1.906453 -0.999502,3.455244 3.246931,4.264545 0.787935,-0.437773 2.044827,-0.783741 2.666851,-0.783635 0.534772,0.0024 1.285407,0.497491 1.624338,1.115145 0.338675,-0.665211 1.572692,-1.082962 2.132311,-1.082925 0.687124,0.0018 1.149912,0.69922 2.072735,1.297751 0.260523,-0.211203 0.579259,-1.137795 0.875702,-1.13927 0.383153,0.0022 0.755728,0.187875 1.062984,0.529683 0.319912,-0.827239 0.911062,-1.336838 1.55081,-1.336869 0.478272,3.58e-4 0.202844,1.536421 0.539057,2.04433 0.815773,-0.217876 1.482437,-1.926902 1.920224,-1.929092 0.310247,3.92e-4 1.104259,1.479889 1.373856,1.709131 0.532115,-2.068568 1.303543,-2.409112 2.304013,-1.384378 0.273495,-0.273592 0.263954,-1.791669 0.334806,-2.107073 0.925106,-4.11823 0.277502,-11.353829 0.277502,-11.353829 z"
       sodipodi:nodetypes="csccccccccccccscc" />
    <path
       id="path40"
       style="fill:#00473f;fill-opacity:1;stroke:none;stroke-width:1.54033;stroke-dasharray:none"
       d="m 28.794612,59.112166 c 7.485852,2.248922 14.756111,1.897244 21.711242,-0.0096 v 3.7771 C 43.894505,66.942008 36.39723,65.2848 29.063634,62.764363 Z"
       sodipodi:nodetypes="ccccc" />
    <path
       id="rect37"
       style="fill:#774600;stroke:#201300;stroke-width:1.46526249;stroke-dasharray:none"
       d="m 28.393576,57.254637 c 7.787287,1.956283 15.230362,1.658725 22.465557,0 v 3.285608 c -7.403139,1.775808 -14.878328,2.053084 -22.465557,0 z"
       sodipodi:nodetypes="ccccc" />
    <path
       id="path41"
       style="fill:#e58700;fill-opacity:1;stroke:none;stroke-width:1.07074;stroke-dasharray:none"
       d="m 29.116415,58.184106 -0.0096,1.776894 c 2.447162,0.542304 4.876591,1.24847 7.579842,1.197024 l -0.937548,-1.52191 c -2.52839,-0.09517 -4.029054,-1.066314 -6.632686,-1.452008 z"
       sodipodi:nodetypes="cccccc" />
    <rect
       style="fill:#201300;fill-opacity:1;stroke:none;stroke-width:1.66129;stroke-dasharray:none;stroke-opacity:1"
       id="rect41"
       width="2.4186018"
       height="5.9785662"
       x="30.381985"
       y="56.687679" />
    <rect
       style="fill:#201300;fill-opacity:1;stroke:none;stroke-width:1.66129;stroke-dasharray:none;stroke-opacity:1"
       id="rect42"
       width="2.4186018"
       height="5.9785662"
       x="46.524113"
       y="56.510288" />
    <path
       sodipodi:type="spiral"
       style="fill:#00954e;fill-opacity:1;fill-rule:evenodd;stroke:#00312b;stroke-width:1.165;stroke-dasharray:none;stroke-opacity:1"
       id="path84"
       sodipodi:cx="7.3788824"
       sodipodi:cy="11.990684"
       sodipodi:expansion="1"
       sodipodi:revolution="3"
       sodipodi:radius="7.1775723"
       sodipodi:argument="-18.677364"
       sodipodi:t0="0"
       d="m 7.3788824,11.990684 c 0.3545501,0.06166 0.091804,0.508347 -0.1024849,0.589285 -0.5265123,0.219336 -1.0101602,-0.312416 -1.0760864,-0.794255 -0.1179264,-0.861898 0.6785411,-1.533067 1.4860261,-1.562887 1.1850166,-0.04376 2.0659185,1.047626 2.0496877,2.177796 -0.021633,1.506339 -1.4174993,2.602675 -2.8695671,2.536489 C 5.0391786,14.853823 3.7250753,13.149428 3.8431686,11.375774 3.9861954,9.2276413 6.0011989,7.6945659 8.0962768,7.8656841 10.565254,8.067341 12.31801,10.39416 12.093167,12.810563 11.833578,15.600395 9.1941789,17.573289 6.4565181,17.294254 3.345814,16.977198 1.1524728,14.024706 1.4860261,10.965834 1.8602224,7.5342424 5.1261684,5.1202316 8.5062165,5.5085416 12.258711,5.9396393 14.893555,9.5193049 14.45031,13.220503"
       transform="matrix(-0.45502258,0.43213374,-0.4428124,-0.55979156,62.663003,12.205945)" />
    <path
       sodipodi:type="spiral"
       style="fill:#07ff86;fill-opacity:1;fill-rule:evenodd;stroke:#006836;stroke-width:1.165;stroke-dasharray:none;stroke-opacity:1"
       id="path60"
       sodipodi:cx="7.3788824"
       sodipodi:cy="11.990684"
       sodipodi:expansion="1"
       sodipodi:revolution="3"
       sodipodi:radius="7.1775723"
       sodipodi:argument="-18.677364"
       sodipodi:t0="0"
       d="m 7.3788824,11.990684 c 0.3545501,0.06166 0.091804,0.508347 -0.1024849,0.589285 -0.5265123,0.219336 -1.0101602,-0.312416 -1.0760864,-0.794255 -0.1179264,-0.861898 0.6785411,-1.533067 1.4860261,-1.562887 1.1850166,-0.04376 2.0659185,1.047626 2.0496877,2.177796 -0.021633,1.506339 -1.4174993,2.602675 -2.8695671,2.536489 C 5.0391786,14.853823 3.7250753,13.149428 3.8431686,11.375774 3.9861954,9.2276413 6.0011989,7.6945659 8.0962768,7.8656841 10.565254,8.067341 12.31801,10.39416 12.093167,12.810563 11.833578,15.600395 9.1941789,17.573289 6.4565181,17.294254 3.345814,16.977198 1.1524728,14.024706 1.4860261,10.965834 1.8602224,7.5342424 5.1261684,5.1202316 8.5062165,5.5085416 12.258711,5.9396393 14.893555,9.5193049 14.45031,13.220503"
       transform="matrix(-0.60400417,-0.22067304,0.27349361,-0.72877663,55.634017,23.919775)"
       inkscape:transform-center-x="0.92234406"
       inkscape:transform-center-y="-2.6133833" />
    <path
       style="fill:#07ff86;fill-opacity:1;stroke:#002011;stroke-width:1.53556;stroke-dasharray:none;stroke-opacity:1"
       d="m 34.706037,10.772923 2.567481,1.776196 4.546585,0.08074 3.423309,-2.179875"
       id="path94" />
    <path
       sodipodi:type="spiral"
       style="fill:#07ff86;fill-opacity:1;fill-rule:evenodd;stroke:#006836;stroke-width:1.165;stroke-dasharray:none;stroke-opacity:1"
       id="path61"
       sodipodi:cx="7.3788824"
       sodipodi:cy="11.990684"
       sodipodi:expansion="1"
       sodipodi:revolution="3"
       sodipodi:radius="7.1775723"
       sodipodi:argument="-18.677364"
       sodipodi:t0="0"
       d="m 7.3788824,11.990684 c 0.3545501,0.06166 0.091804,0.508347 -0.1024849,0.589285 -0.5265123,0.219336 -1.0101602,-0.312416 -1.0760864,-0.794255 -0.1179264,-0.861898 0.6785411,-1.533067 1.4860261,-1.562887 1.1850166,-0.04376 2.0659185,1.047626 2.0496877,2.177796 -0.021633,1.506339 -1.4174993,2.602675 -2.8695671,2.536489 C 5.0391786,14.853823 3.7250753,13.149428 3.8431686,11.375774 3.9861954,9.2276413 6.0011989,7.6945659 8.0962768,7.8656841 10.565254,8.067341 12.31801,10.39416 12.093167,12.810563 11.833578,15.600395 9.1941789,17.573289 6.4565181,17.294254 3.345814,16.977198 1.1524728,14.024706 1.4860261,10.965834 1.8602224,7.5342424 5.1261684,5.1202316 8.5062165,5.5085416 12.258711,5.9396393 14.893555,9.5193049 14.45031,13.220503"
       transform="matrix(0.41619984,-0.56448954,-0.5953537,-0.42627972,33.928363,18.461531)" />
    <path
       sodipodi:type="spiral"
       style="fill:#07ff86;fill-opacity:1;fill-rule:evenodd;stroke:#006836;stroke-width:1.165;stroke-dasharray:none;stroke-opacity:1"
       id="path72"
       sodipodi:cx="7.3788824"
       sodipodi:cy="11.990684"
       sodipodi:expansion="1"
       sodipodi:revolution="3"
       sodipodi:radius="7.1775723"
       sodipodi:argument="-18.677364"
       sodipodi:t0="0"
       d="m 7.3788824,11.990684 c 0.3545501,0.06166 0.091804,0.508347 -0.1024849,0.589285 -0.5265123,0.219336 -1.0101602,-0.312416 -1.0760864,-0.794255 -0.1179264,-0.861898 0.6785411,-1.533067 1.4860261,-1.562887 1.1850166,-0.04376 2.0659185,1.047626 2.0496877,2.177796 -0.021633,1.506339 -1.4174993,2.602675 -2.8695671,2.536489 C 5.0391786,14.853823 3.7250753,13.149428 3.8431686,11.375774 3.9861954,9.2276413 6.0011989,7.6945659 8.0962768,7.8656841 10.565254,8.067341 12.31801,10.39416 12.093167,12.810563 11.833578,15.600395 9.1941789,17.573289 6.4565181,17.294254 3.345814,16.977198 1.1524728,14.024706 1.4860261,10.965834 1.8602224,7.5342424 5.1261684,5.1202316 8.5062165,5.5085416 12.258711,5.9396393 14.893555,9.5193049 14.45031,13.220503"
       transform="matrix(0.61483457,-0.00675805,-0.01604919,-0.63727799,29.786614,13.249227)" />
    <path
       sodipodi:type="spiral"
       style="fill:#07ff86;fill-opacity:1;fill-rule:evenodd;stroke:#006836;stroke-width:1.165;stroke-dasharray:none;stroke-opacity:1"
       id="path77"
       sodipodi:cx="7.3788824"
       sodipodi:cy="11.990684"
       sodipodi:expansion="1"
       sodipodi:revolution="3"
       sodipodi:radius="7.1775723"
       sodipodi:argument="-18.677364"
       sodipodi:t0="0"
       d="m 7.3788824,11.990684 c 0.3545501,0.06166 0.091804,0.508347 -0.1024849,0.589285 -0.5265123,0.219336 -1.0101602,-0.312416 -1.0760864,-0.794255 -0.1179264,-0.861898 0.6785411,-1.533067 1.4860261,-1.562887 1.1850166,-0.04376 2.0659185,1.047626 2.0496877,2.177796 -0.021633,1.506339 -1.4174993,2.602675 -2.8695671,2.536489 C 5.0391786,14.853823 3.7250753,13.149428 3.8431686,11.375774 3.9861954,9.2276413 6.0011989,7.6945659 8.0962768,7.8656841 10.565254,8.067341 12.31801,10.39416 12.093167,12.810563 11.833578,15.600395 9.1941789,17.573289 6.4565181,17.294254 3.345814,16.977198 1.1524728,14.024706 1.4860261,10.965834 1.8602224,7.5342424 5.1261684,5.1202316 8.5062165,5.5085416 12.258711,5.9396393 14.893555,9.5193049 14.45031,13.220503"
       transform="matrix(-0.61483457,-0.00675805,0.01604919,-0.63727799,55.437451,16.225771)" />
    <path
       sodipodi:type="spiral"
       style="fill:#07ff86;fill-opacity:1;fill-rule:evenodd;stroke:#006836;stroke-width:1.165;stroke-dasharray:none;stroke-opacity:1"
       id="path76"
       sodipodi:cx="7.3788824"
       sodipodi:cy="11.990684"
       sodipodi:expansion="1"
       sodipodi:revolution="3"
       sodipodi:radius="7.1775723"
       sodipodi:argument="-18.677364"
       sodipodi:t0="0"
       d="m 7.3788824,11.990684 c 0.3545501,0.06166 0.091804,0.508347 -0.1024849,0.589285 -0.5265123,0.219336 -1.0101602,-0.312416 -1.0760864,-0.794255 -0.1179264,-0.861898 0.6785411,-1.533067 1.4860261,-1.562887 1.1850166,-0.04376 2.0659185,1.047626 2.0496877,2.177796 -0.021633,1.506339 -1.4174993,2.602675 -2.8695671,2.536489 C 5.0391786,14.853823 3.7250753,13.149428 3.8431686,11.375774 3.9861954,9.2276413 6.0011989,7.6945659 8.0962768,7.8656841 10.565254,8.067341 12.31801,10.39416 12.093167,12.810563 11.833578,15.600395 9.1941789,17.573289 6.4565181,17.294254 3.345814,16.977198 1.1524728,14.024706 1.4860261,10.965834 1.8602224,7.5342424 5.1261684,5.1202316 8.5062165,5.5085416 12.258711,5.9396393 14.893555,9.5193049 14.45031,13.220503"
       transform="matrix(-0.61483457,-0.00675805,0.01604919,-0.63727799,50.872001,13.236488)" />
    <path
       sodipodi:type="spiral"
       style="fill:#07ff86;fill-opacity:1;fill-rule:evenodd;stroke:#006836;stroke-width:1.165;stroke-dasharray:none;stroke-opacity:1"
       id="path73"
       sodipodi:cx="7.3788824"
       sodipodi:cy="11.990684"
       sodipodi:expansion="1"
       sodipodi:revolution="3"
       sodipodi:radius="7.1775723"
       sodipodi:argument="-18.677364"
       sodipodi:t0="0"
       d="m 7.3788824,11.990684 c 0.3545501,0.06166 0.091804,0.508347 -0.1024849,0.589285 -0.5265123,0.219336 -1.0101602,-0.312416 -1.0760864,-0.794255 -0.1179264,-0.861898 0.6785411,-1.533067 1.4860261,-1.562887 1.1850166,-0.04376 2.0659185,1.047626 2.0496877,2.177796 -0.021633,1.506339 -1.4174993,2.602675 -2.8695671,2.536489 C 5.0391786,14.853823 3.7250753,13.149428 3.8431686,11.375774 3.9861954,9.2276413 6.0011989,7.6945659 8.0962768,7.8656841 10.565254,8.067341 12.31801,10.39416 12.093167,12.810563 11.833578,15.600395 9.1941789,17.573289 6.4565181,17.294254 3.345814,16.977198 1.1524728,14.024706 1.4860261,10.965834 1.8602224,7.5342424 5.1261684,5.1202316 8.5062165,5.5085416 12.258711,5.9396393 14.893555,9.5193049 14.45031,13.220503"
       transform="matrix(-0.61483457,-0.00675805,0.01604919,-0.63727799,45.110837,12.421229)" />
    <path
       style="fill:none;fill-opacity:1;stroke:#00120a;stroke-width:1.24465;stroke-linecap:round;stroke-linejoin:round;stroke-dasharray:none;stroke-opacity:1"
       d="m 34.88041,28.48058 2.376635,-1.260655 4.208628,-0.0573 3.168846,1.547167"
       id="path93" />
    <ellipse
       style="fill:#e58700;fill-opacity:1;stroke:#201300;stroke-width:0.968387;stroke-dasharray:none;stroke-opacity:1"
       id="path95"
       cx="22.756182"
       cy="22.866014"
       rx="1.2863752"
       ry="1.3248069" />
    <ellipse
       style="fill:#e58700;fill-opacity:1;stroke:#201300;stroke-width:0.968387;stroke-dasharray:none;stroke-opacity:1"
       id="ellipse95"
       cx="55.884289"
       cy="22.866014"
       rx="1.2863752"
       ry="1.3248069" />
    <path
       style="fill:#000000;fill-opacity:1;stroke:none;stroke-width:1.88304;stroke-linecap:round;stroke-linejoin:round;stroke-dasharray:none;stroke-opacity:1"
       d="m 11.712554,52.203752 v 2.472951 l 2.608829,1.005486 V 52.44833 Z"
       id="path6" />
    <path
       id="path1"
       style="fill:#00954e;fill-opacity:1;stroke:#002011;stroke-width:1.66951;stroke-dasharray:none;stroke-opacity:1"
       d="m 17.699557,48.614068 c -0.06624,1.957546 -2.399266,4.30556 -5.402193,2.929148 -2.3944741,-1.097525 -4.6651306,-2.203948 -4.2470446,-4.480605 0.420967,-2.29233 0.813923,-4.610875 5.5602266,-3.05267 2.535492,0.832396 4.145083,2.947527 4.089011,4.604127 z"
       sodipodi:nodetypes="sssss" />
    <path
       id="path3"
       style="fill:#01ff85;fill-opacity:1;stroke:none;stroke-width:1.21834;stroke-dasharray:none;stroke-opacity:1"
       d="m 16.748699,47.622373 c -0.05324,1.296776 -1.928779,2.852219 -4.342842,1.940415 -1.924926,-0.727056 -3.7503147,-1.460006 -3.4142139,-2.968177 0.3384169,-1.518554 0.6543156,-3.054475 4.4698859,-2.022242 2.038291,0.55142 3.332247,1.952589 3.28717,3.050004 z"
       sodipodi:nodetypes="sssss" />
    <path
       style="fill:#2e2e2e;fill-opacity:1;stroke:none;stroke-width:1.88304;stroke-linecap:round;stroke-linejoin:round;stroke-dasharray:none;stroke-opacity:1"
       d="m 12.283236,55.981118 0.489155,4.130646 0.489155,12.989792 -0.05435,-13.098494 0.434805,-4.130646 z"
       id="path9" />
    <path
       style="fill:#191919;fill-opacity:1;stroke:none;stroke-width:1.88304;stroke-linecap:round;stroke-linejoin:round;stroke-dasharray:none;stroke-opacity:1"
       d="M 8.8863232,30.137407 10.571192,30.76244 8.7776218,31.74075 Z"
       id="path10" />
    <path
       style="fill:#191919;fill-opacity:1;stroke:none;stroke-width:3.30148;stroke-linecap:round;stroke-linejoin:round;stroke-dasharray:none;stroke-opacity:1"
       d="m 8.9777311,31.034192 2.6804739,1.207691 -2.8534079,1.890294 z"
       id="path11" />
  </g>
</svg>
