<?xml version="1.0" encoding="UTF-8" standalone="no"?>
<!-- Created with Inkscape (http://www.inkscape.org/) -->

<svg
   width="200"
   height="200"
   viewBox="0 0 52.916667 52.916666"
   version="1.1"
   id="svg3527"
   inkscape:version="1.4.2 (ebf0e940d0, 2025-05-08)"
   sodipodi:docname="Lord_Orakana.svg"
   xmlns:inkscape="http://www.inkscape.org/namespaces/inkscape"
   xmlns:sodipodi="http://sodipodi.sourceforge.net/DTD/sodipodi-0.dtd"
   xmlns="http://www.w3.org/2000/svg"
   xmlns:svg="http://www.w3.org/2000/svg">
  <sodipodi:namedview
     id="namedview3529"
     pagecolor="#505050"
     bordercolor="#ffffff"
     borderopacity="1"
     inkscape:pageshadow="0"
     inkscape:pageopacity="0"
     inkscape:pagecheckerboard="1"
     inkscape:document-units="mm"
     showgrid="false"
     width="100mm"
     inkscape:zoom="1.7211279"
     inkscape:cx="89.476209"
     inkscape:cy="104.87309"
     inkscape:window-width="1477"
     inkscape:window-height="697"
     inkscape:window-x="0"
     inkscape:window-y="0"
     inkscape:window-maximized="0"
     inkscape:current-layer="layer1"
     inkscape:snap-global="false"
     inkscape:showpageshadow="0"
     inkscape:deskcolor="#505050"
     showguides="true">
    <sodipodi:guide
       position="49.169673,83.35102"
       orientation="0,-1"
       id="guide68"
       inkscape:locked="false" />
  </sodipodi:namedview>
  <defs
     id="defs3524">
    <inkscape:path-effect
       effect="fillet_chamfer"
       id="path-effect68"
       is_visible="true"
       lpeversion="1"
       nodesatellites_param="F,0,0,1,0,0,0,1 @ F,0,0,1,0,0,0,1 @ F,0,0,1,0,0,0,1 @ F,0,0,1,0,0,0,1 @ F,0,0,1,0,0,0,1 @ F,0,0,1,0,0,0,1 @ F,0,0,1,0,0,0,1 @ F,0,0,1,0,0,0,1 @ F,0,0,1,0,0,0,1"
       radius="0"
       unit="px"
       method="auto"
       mode="F"
       chamfer_steps="1"
       flexible="false"
       use_knot_distance="true"
       apply_no_radius="true"
       apply_with_radius="true"
       only_selected="false"
       hide_knots="false" />
    <inkscape:path-effect
       effect="fillet_chamfer"
       id="path-effect66"
       is_visible="true"
       lpeversion="1"
       nodesatellites_param="F,0,0,1,0,0,0,1 @ F,0,0,1,0,0.44929322,0,1 @ F,0,0,1,0,0.44929322,0,1 @ F,0,0,1,0,0,0,1 @ F,0,0,1,0,0,0,1 @ F,0,0,1,0,0,0,1 @ F,0,0,1,0,0,0,1 @ F,0,0,1,0,0,0,1 @ F,0,0,1,0,0,0,1 @ F,0,0,1,0,0,0,1"
       radius="0"
       unit="px"
       method="auto"
       mode="F"
       chamfer_steps="1"
       flexible="false"
       use_knot_distance="true"
       apply_no_radius="true"
       apply_with_radius="true"
       only_selected="false"
       hide_knots="false" />
  </defs>
  <g
     inkscape:label="Camada 1"
     inkscape:groupmode="layer"
     id="layer1">
    <ellipse
       style="fill:#5d4927;fill-opacity:1;stroke:#292112;stroke-width:0.639091;stroke-opacity:1"
       id="ellipse66"
       cx="-19.076874"
       cy="8.7941313"
       rx="1.8871282"
       ry="2.5529227"
       transform="matrix(-0.98885844,-0.14885896,-0.14885896,0.98885844,0,0)" />
    <rect
       style="fill:#d9810f;fill-opacity:1;stroke:#331708;stroke-width:0.608806;stroke-opacity:1"
       id="rect73"
       width="0.84549689"
       height="3.5357144"
       x="34.550079"
       y="14.181289" />
    <ellipse
       style="fill:#5d4927;fill-opacity:1;stroke:#292112;stroke-width:0.639091;stroke-opacity:1"
       id="ellipse65"
       cx="32.426598"
       cy="16.25795"
       rx="1.8871282"
       ry="2.5529227"
       transform="rotate(-8.5608075)" />
    <g
       id="g37"
       transform="matrix(-0.92981787,-0.66740365,-0.57831652,0.80570288,65.566421,20.829096)">
      <path
         id="path36"
         style="fill:#5d4927;fill-opacity:1;stroke:#292112;stroke-width:1.07892;stroke-miterlimit:4;stroke-dasharray:none;stroke-opacity:1"
         d="m 19.527426,27.992359 c -0.364342,0.484767 -0.857699,0.78199 -1.293617,0.72739 l -5.294422,-0.61114 c -0.08793,0.01459 -0.906317,-0.08478 -0.988282,-0.131727 -0.147378,0.0058 -0.285214,-0.119184 -0.409435,-0.180409 L 6.259411,25.193341 C 5.7017535,24.918521 5.6681284,24.038571 6.1830386,23.220779 L 6.5718084,22.6015 c 0.5149067,-0.817796 1.3790855,-1.254194 1.9367404,-0.979367 l 4.7560472,2.50358 c 0.373059,0.05448 0.475466,0.03316 0.516255,0.05015 l 5.780761,0.594036 c 0.634064,0.07943 0.899447,0.872107 0.595527,1.77646 l -0.229777,0.684693 c -0.09496,0.282612 -0.234352,0.540952 -0.399994,0.761279 z"
         sodipodi:nodetypes="cccccccccccccccc" />
      <path
         id="path37"
         style="fill:#332b16;fill-opacity:1;stroke:none;stroke-width:0.777486;stroke-miterlimit:4;stroke-dasharray:none;stroke-opacity:1"
         d="m 19.805624,27.964099 c -0.37082,0.247335 -0.872949,0.398982 -1.316618,0.371124 l -5.388558,-0.311812 c -0.08949,0.0074 -0.922432,-0.04325 -1.005854,-0.06721 -0.149998,0.003 -0.290285,-0.0608 -0.416715,-0.09205 -3.7330127,-2.496442 -6.2806588,-2.512722 -4.9767011,-4.740037 0.5240619,-0.417251 1.3220801,1.449588 1.8896502,1.589809 l 4.8406109,1.27736 c 0.379692,0.0278 0.48392,0.01692 0.525434,0.02559 l 5.883545,0.303086 c 0.645337,0.04053 0.915439,0.444961 0.606115,0.906374 l -0.233862,0.34934 c -0.09665,0.144192 -0.238519,0.276001 -0.407106,0.388415 z"
         sodipodi:nodetypes="cccccccccccccc" />
    </g>
    <rect
       style="fill:#5d4927;fill-opacity:1;stroke:#292112;stroke-width:0.93;stroke-dasharray:none;stroke-opacity:1"
       id="rect9"
       width="4.3757286"
       height="13.875885"
       x="27.870729"
       y="38.737652"
       ry="1.806289" />
    <rect
       style="fill:#5d4927;fill-opacity:1;stroke:#292112;stroke-width:0.947881;stroke-opacity:1"
       id="rect1"
       width="6.1887045"
       height="17.347353"
       x="23.00053"
       y="15.225725" />
    <path
       id="path75"
       style="fill:#292112;fill-opacity:1;stroke-width:0.534276"
       d="m 25.532211,18.833126 h 0.925697 c 1.347209,0 2.431784,0.200961 2.431784,0.450586 v 2.560221 c 0,0.604999 0.213967,0.450586 -2.431784,0.450586 h -0.925697 c -1.347207,0 -2.431783,-0.200961 -2.431783,-0.450586 v -2.560221 c 0,-0.249625 1.084576,-0.450586 2.431783,-0.450586 z"
       sodipodi:nodetypes="sssssssss" />
    <rect
       style="fill:#310099;fill-opacity:1;stroke:#0f0916;stroke-width:0.572805;stroke-opacity:1"
       id="rect54"
       width="5.3778105"
       height="7.2159081"
       x="-16.526146"
       y="41.354298"
       transform="matrix(0.50454527,-0.86338524,0.9075183,0.42001255,0,0)" />
    <g
       id="g33"
       transform="matrix(-1.1271993,-0.19852111,-0.17202189,0.97673722,57.765393,1.4769196)">
      <path
         id="path32"
         style="fill:#5d4927;fill-opacity:1;stroke:#292112;stroke-width:1.07892;stroke-miterlimit:4;stroke-dasharray:none;stroke-opacity:1"
         d="m 19.527426,27.992359 c -0.364342,0.484767 -0.857699,0.78199 -1.293617,0.72739 l -5.294422,-0.61114 c -0.08793,0.01459 -0.906317,-0.08478 -0.988282,-0.131727 -0.147378,0.0058 -0.285214,-0.119184 -0.409435,-0.180409 L 6.259411,25.193341 C 5.7017535,24.918521 5.6681284,24.038571 6.1830386,23.220779 L 6.5718084,22.6015 c 0.5149067,-0.817796 1.3790855,-1.254194 1.9367404,-0.979367 l 4.7560472,2.50358 c 0.373059,0.05448 0.475466,0.03316 0.516255,0.05015 l 5.780761,0.594036 c 0.634064,0.07943 0.899447,0.872107 0.595527,1.77646 l -0.229777,0.684693 c -0.09496,0.282612 -0.234352,0.540952 -0.399994,0.761279 z"
         sodipodi:nodetypes="cccccccccccccccc" />
      <path
         id="path33"
         style="fill:#332b16;fill-opacity:1;stroke:none;stroke-width:0.777486;stroke-miterlimit:4;stroke-dasharray:none;stroke-opacity:1"
         d="m 19.805624,27.964099 c -0.37082,0.247335 -0.872949,0.398982 -1.316618,0.371124 l -5.388558,-0.311812 c -0.08949,0.0074 -0.922432,-0.04325 -1.005854,-0.06721 -0.149998,0.003 -0.290285,-0.0608 -0.416715,-0.09205 -3.7330127,-2.496442 -6.2806588,-2.512722 -4.9767011,-4.740037 0.5240619,-0.417251 1.3220801,1.449588 1.8896502,1.589809 l 4.8406109,1.27736 c 0.379692,0.0278 0.48392,0.01692 0.525434,0.02559 l 5.883545,0.303086 c 0.645337,0.04053 0.915439,0.444961 0.606115,0.906374 l -0.233862,0.34934 c -0.09665,0.144192 -0.238519,0.276001 -0.407106,0.388415 z"
         sodipodi:nodetypes="cccccccccccccc" />
    </g>
    <rect
       style="fill:#d9810f;fill-opacity:1;stroke:#331708;stroke-width:0.608806;stroke-opacity:1"
       id="rect71"
       width="0.84549689"
       height="3.5357144"
       x="16.871506"
       y="14.680901" />
    <ellipse
       style="fill:#d9810f;fill-opacity:1;stroke:#331708;stroke-width:0.608806;stroke-opacity:1"
       id="path68"
       cx="17.351429"
       cy="14.185507"
       rx="1.1821254"
       ry="1.2500638" />
    <ellipse
       style="fill:#d9810f;fill-opacity:1;stroke:#331708;stroke-width:0.608806;stroke-opacity:1"
       id="ellipse73"
       cx="35.030003"
       cy="13.685895"
       rx="1.1821254"
       ry="1.2500638" />
    <ellipse
       style="fill:#5d4927;fill-opacity:1;stroke:#292112;stroke-width:0.866;stroke-dasharray:none;stroke-opacity:1"
       id="path2"
       cx="26.038166"
       cy="10.888655"
       rx="8.662508"
       ry="9.3458481" />
    <path
       id="path16"
       style="fill:#aea810;fill-opacity:1;stroke:#1a0d1f;stroke-width:0.44289;stroke-dasharray:none;stroke-opacity:1"
       d="m 22.199993,6.7853801 c 0.915792,0.3453121 1.840052,1.2379063 1.535391,1.7941961 C 23.430721,9.1358661 22.01251,9.1451969 21.096718,8.7998842 20.180926,8.4545724 19.210745,7.5198614 19.515405,6.9635712 19.820068,6.407282 21.284201,6.4400677 22.199993,6.7853801 Z"
       sodipodi:nodetypes="sssss" />
    <path
       id="path19"
       style="fill:#4d285b;fill-opacity:1;stroke:#1a0d1f;stroke-width:0.272115;stroke-dasharray:none;stroke-opacity:1"
       d="m 22.409618,7.5268953 c 0.147056,0.3633371 0.04209,0.9926261 -0.31939,1.1956754 -0.361481,0.20305 -0.842593,-0.097029 -0.989648,-0.4603669 -0.147056,-0.3633367 -0.03792,-1.0228148 0.323565,-1.2258641 0.361481,-0.2030505 0.838418,0.1272181 0.985473,0.4905556 z"
       sodipodi:nodetypes="sssss" />
    <path
       id="path20"
       style="fill:#aea810;fill-opacity:1;stroke:none;stroke-width:0.0718084"
       d="m 22.665856,8.0319133 c -0.170447,0.1216037 -0.58403,0.083753 -0.825303,-0.154786 -0.241272,-0.2385374 -0.218872,-0.5874349 -0.04842,-0.7090387 0.170447,-0.1216039 0.603585,-0.082533 0.844858,0.1560062 0.241273,0.2385382 0.199316,0.5862145 0.02887,0.7078185 z"
       sodipodi:nodetypes="sssss" />
    <g
       id="g35"
       transform="matrix(0.84781356,-0.76889601,0.66626136,0.73464476,-14.121444,24.060081)">
      <path
         id="path34"
         style="fill:#5d4927;fill-opacity:1;stroke:#292112;stroke-width:1.07892;stroke-miterlimit:4;stroke-dasharray:none;stroke-opacity:1"
         d="m 19.527426,27.992359 c -0.364342,0.484767 -0.857699,0.78199 -1.293617,0.72739 l -5.294422,-0.61114 c -0.08793,0.01459 -0.906317,-0.08478 -0.988282,-0.131727 -0.147378,0.0058 -0.285214,-0.119184 -0.409435,-0.180409 L 6.259411,25.193341 C 5.7017535,24.918521 5.6681284,24.038571 6.1830386,23.220779 L 6.5718084,22.6015 c 0.5149067,-0.817796 1.3790855,-1.254194 1.9367404,-0.979367 l 4.7560472,2.50358 c 0.373059,0.05448 0.475466,0.03316 0.516255,0.05015 l 5.780761,0.594036 c 0.634064,0.07943 0.899447,0.872107 0.595527,1.77646 l -0.229777,0.684693 c -0.09496,0.282612 -0.234352,0.540952 -0.399994,0.761279 z"
         sodipodi:nodetypes="cccccccccccccccc" />
      <path
         id="path35"
         style="fill:#332b16;fill-opacity:1;stroke:none;stroke-width:0.777486;stroke-miterlimit:4;stroke-dasharray:none;stroke-opacity:1"
         d="m 19.805624,27.964099 c -0.37082,0.247335 -0.872949,0.398982 -1.316618,0.371124 l -5.388558,-0.311812 c -0.08949,0.0074 -0.922432,-0.04325 -1.005854,-0.06721 -0.149998,0.003 -0.290285,-0.0608 -0.416715,-0.09205 -3.7330127,-2.496442 -6.2806588,-2.512722 -4.9767011,-4.740037 0.5240619,-0.417251 1.3220801,1.449588 1.8896502,1.589809 l 4.8406109,1.27736 c 0.379692,0.0278 0.48392,0.01692 0.525434,0.02559 l 5.883545,0.303086 c 0.645337,0.04053 0.915439,0.444961 0.606115,0.906374 l -0.233862,0.34934 c -0.09665,0.144192 -0.238519,0.276001 -0.407106,0.388415 z"
         sodipodi:nodetypes="cccccccccccccc" />
    </g>
    <rect
       style="fill:#5d4927;fill-opacity:1;stroke:#292112;stroke-width:0.93;stroke-dasharray:none;stroke-opacity:1"
       id="rect63"
       width="4.3757286"
       height="13.875885"
       x="19.953802"
       y="38.628307"
       ry="1.806289" />
    <path
       id="rect10"
       style="fill:#292112;fill-opacity:1;stroke-width:0.44788"
       d="m 21.89305,44.80961 h 0.650522 c 0.946732,0 1.708903,0.200961 1.708903,0.450586 v 2.560221 c 0,0.604999 0.150362,0.450586 -1.708903,0.450586 H 21.89305 c -0.946732,0 -1.708903,-0.200961 -1.708903,-0.450586 v -2.560221 c 0,-0.249625 0.762171,-0.450586 1.708903,-0.450586 z"
       sodipodi:nodetypes="sssssssss" />
    <path
       id="path21"
       style="fill:#292112;fill-opacity:1;stroke-width:0.413483"
       d="m 29.774586,44.962928 h 0.554441 c 0.8069,0 1.456499,0.200961 1.456499,0.450586 v 2.560221 c 0,0.604999 0.128154,0.450586 -1.456499,0.450586 h -0.554441 c -0.8069,0 -1.456499,-0.200961 -1.456499,-0.450586 v -2.560221 c 0,-0.249625 0.649599,-0.450586 1.456499,-0.450586 z"
       sodipodi:nodetypes="sssssssss" />
    <g
       id="g31"
       transform="matrix(1.1271993,-0.19852111,0.17202189,0.97673722,-6.0922699,2.0204256)">
      <path
         id="path4"
         style="fill:#5d4927;fill-opacity:1;stroke:#292112;stroke-width:1.07892;stroke-miterlimit:4;stroke-dasharray:none;stroke-opacity:1"
         d="m 19.527426,27.992359 c -0.364342,0.484767 -0.857699,0.78199 -1.293617,0.72739 l -5.294422,-0.61114 c -0.08793,0.01459 -0.906317,-0.08478 -0.988282,-0.131727 -0.147378,0.0058 -0.285214,-0.119184 -0.409435,-0.180409 L 6.259411,25.193341 C 5.7017535,24.918521 5.6681284,24.038571 6.1830386,23.220779 L 6.5718084,22.6015 c 0.5149067,-0.817796 1.3790855,-1.254194 1.9367404,-0.979367 l 4.7560472,2.50358 c 0.373059,0.05448 0.475466,0.03316 0.516255,0.05015 l 5.780761,0.594036 c 0.634064,0.07943 0.899447,0.872107 0.595527,1.77646 l -0.229777,0.684693 c -0.09496,0.282612 -0.234352,0.540952 -0.399994,0.761279 z"
         sodipodi:nodetypes="cccccccccccccccc" />
      <path
         id="path31"
         style="fill:#332b16;fill-opacity:1;stroke:none;stroke-width:0.777486;stroke-miterlimit:4;stroke-dasharray:none;stroke-opacity:1"
         d="m 19.805624,27.964099 c -0.37082,0.247335 -0.872949,0.398982 -1.316618,0.371124 l -5.388558,-0.311812 c -0.08949,0.0074 -0.922432,-0.04325 -1.005854,-0.06721 -0.149998,0.003 -0.290285,-0.0608 -0.416715,-0.09205 -3.7330127,-2.496442 -6.2806588,-2.512722 -4.9767011,-4.740037 0.5240619,-0.417251 1.3220801,1.449588 1.8896502,1.589809 l 4.8406109,1.27736 c 0.379692,0.0278 0.48392,0.01692 0.525434,0.02559 l 5.883545,0.303086 c 0.645337,0.04053 0.915439,0.444961 0.606115,0.906374 l -0.233862,0.34934 c -0.09665,0.144192 -0.238519,0.276001 -0.407106,0.388415 z"
         sodipodi:nodetypes="cccccccccccccc" />
    </g>
    <rect
       style="fill:#310099;fill-opacity:1;stroke:#0f0916;stroke-width:0.572805;stroke-opacity:1"
       id="rect53"
       width="5.3778105"
       height="7.2159081"
       x="-38.360451"
       y="-3.9168961"
       transform="matrix(-0.50454527,-0.86338524,-0.9075183,0.42001255,0,0)" />
    <path
       id="rect52"
       style="fill:#310099;stroke:#0f0916;stroke-width:0.572805"
       transform="matrix(-0.14442921,-0.98951514,-0.99877314,0.04951979,0,0)"
       d="m -28.027069,-17.918119 5.37781,0 0.511293,7.005928 -6.269474,0.292193 z"
       sodipodi:nodetypes="ccccc" />
    <path
       id="rect55"
       style="fill:#310099;stroke:#0f0916;stroke-width:0.571501"
       d="m 31.270955,25.840422 0.260382,-4.47899 7.179879,-0.512279 -1.129992,6.653014 z"
       sodipodi:nodetypes="ccccc" />
    <path
       style="fill:none;fill-opacity:1;stroke:#292112;stroke-width:0.608806;stroke-opacity:1"
       d="m 21.491,24.705878 3.64149,0.815258 0.271753,0.923962"
       id="path74" />
    <path
       style="fill:none;fill-opacity:1;stroke:#292112;stroke-width:0.608806;stroke-opacity:1"
       d="m 30.854559,24.157246 -3.503846,1.283806 -0.148769,0.951537"
       id="path76" />
    <path
       style="fill:none;fill-opacity:1;stroke:#292112;stroke-width:0.608806;stroke-opacity:1"
       d="m 21.658715,31.230665 3.64149,-0.815258 0.271753,-0.923962"
       id="path77" />
    <path
       style="fill:none;fill-opacity:1;stroke:#292112;stroke-width:0.608806;stroke-opacity:1"
       d="m 30.879269,31.067614 -3.64149,-0.815258 -0.271753,-0.923962"
       id="path78" />
    <path
       id="rect56"
       style="fill:#310099;fill-opacity:1;stroke:#0f0916;stroke-width:0.859202;stroke-dasharray:none;stroke-opacity:1"
       d="m 19.414496,25.516732 c -0.518809,9.703979 -0.307454,21.431667 -0.307454,21.431667 10.225904,-0.605201 10.106934,2.035525 14.444356,-0.770548 -0.331653,0.110551 0.193543,-14.44875 -0.6157,-22.27525 -0.139964,-1.35365 -3.647496,-0.30627 -3.647496,-0.30627 -0.135497,0.319831 -0.208038,0.819153 -0.208143,1.086316 0,1.161992 -1.120232,8.370563 -2.881648,8.370579 -1.761416,-1.7e-5 -3.496976,-7.156457 -3.496976,-8.318448 -0.223651,-0.281481 -0.555453,-0.824767 -0.04171,-0.961195 0,0 -3.171063,0.35587 -3.245232,1.743149 z"
       sodipodi:nodetypes="sccscccccss"
       transform="matrix(0.99805037,0,0,1.0892233,0.05112508,-4.5192369)"
       inkscape:original-d="m 19.414496,25.516732 c -0.518809,9.703979 -0.307454,21.431667 -0.307454,21.431667 10.225904,-0.605201 10.106934,2.035525 14.444356,-0.770548 -0.331653,0.110551 0.193543,-14.44875 -0.6157,-22.27525 -0.139964,-1.35365 -3.647496,-0.30627 -3.647496,-0.30627 -0.135497,0.319831 -0.208038,0.819153 -0.208143,1.086316 0,1.161992 -1.120232,8.370563 -2.881648,8.370579 -1.761416,-1.7e-5 -3.496976,-7.156457 -3.496976,-8.318448 -0.223651,-0.281481 -0.555453,-0.824767 -0.04171,-0.961195 0,0 -3.171063,0.35587 -3.245232,1.743149 z"
       inkscape:path-effect="#path-effect66" />
    <path
       id="path15"
       style="fill:#aea810;fill-opacity:1;stroke:#1a0d1f;stroke-width:0.38824;stroke-dasharray:none;stroke-opacity:1"
       d="m 23.585712,16.186897 c 0.76152,0.405199 1.480198,1.290402 1.165324,1.743094 -0.314876,0.452691 -1.544063,0.301448 -2.305583,-0.103751 -0.76152,-0.405198 -1.516108,-1.332429 -1.201235,-1.785121 0.314875,-0.452691 1.579974,-0.259421 2.341494,0.145778 z"
       sodipodi:nodetypes="sssss" />
    <path
       id="path17"
       style="fill:#4d285b;fill-opacity:1;stroke:#1a0d1f;stroke-width:0.242666;stroke-dasharray:none;stroke-opacity:1"
       d="m 23.664755,16.849812 c 0.112819,0.330898 -0.01734,0.870311 -0.355876,1.013675 -0.338541,0.143363 -0.757271,-0.163614 -0.87009,-0.49451 -0.112818,-0.330897 0.0228,-0.896269 0.361343,-1.039632 0.338541,-0.143364 0.751804,0.189571 0.864623,0.520467 z"
       sodipodi:nodetypes="sssss" />
    <path
       id="path18"
       style="fill:#aea810;fill-opacity:1;stroke:none;stroke-width:0.0590531"
       d="m 23.85342,17.08044 c -0.08375,0.16552 -0.364039,0.261259 -0.577675,0.11823 -0.213636,-0.143029 -0.279717,-0.470666 -0.19597,-0.636185 0.08375,-0.165519 0.37716,-0.266309 0.590797,-0.123279 0.213636,0.143029 0.266594,0.475715 0.182848,0.641234 z"
       sodipodi:nodetypes="sssss" />
    <path
       id="path22"
       style="fill:#aea810;fill-opacity:1;stroke:#1a0d1f;stroke-width:0.413365;stroke-dasharray:none;stroke-opacity:1"
       d="m 29.000409,16.002142 c -0.764887,0.397882 -1.482139,1.33846 -1.160196,1.871005 0.321945,0.532545 1.561169,0.455395 2.326055,0.05751 0.764885,-0.39788 1.517997,-1.382981 1.196055,-1.915527 -0.321945,-0.532544 -1.597028,-0.410872 -2.361914,-0.01299 z"
       sodipodi:nodetypes="sssss" />
    <rect
       style="fill:#3e2178;fill-opacity:1;stroke:#0f0916;stroke-width:0.400016;stroke-opacity:1"
       id="rect39"
       width="2.5020978"
       height="7.5637355"
       x="7.6775823"
       y="43.926941"
       transform="matrix(0.9564372,-0.29193815,0.43538665,0.90024356,0,0)" />
    <rect
       style="fill:#3e2178;fill-opacity:1;stroke:#0f0916;stroke-width:0.599746;stroke-opacity:1"
       id="rect37"
       width="15.760584"
       height="2.6992772"
       x="17.468683"
       y="36.632214"
       transform="rotate(-1.6899118)" />
    <rect
       style="fill:#3e2178;fill-opacity:1;stroke:#0f0916;stroke-width:0.431319;stroke-opacity:1"
       id="rect40"
       width="2.8365757"
       height="7.7569027"
       x="-44.09803"
       y="29.836597"
       transform="matrix(-0.9665938,-0.25631316,-0.48640801,0.87373179,0,0)" />
    <rect
       style="fill:#3e2178;fill-opacity:1;stroke:#0f0916;stroke-width:0.313492;stroke-opacity:1"
       id="rect38"
       width="3.652102"
       height="3.1827052"
       x="24.971478"
       y="39.568428"
       transform="matrix(0.98866778,-0.15012001,0.00573244,0.99998357,0,0)" />
    <g
       id="g46"
       transform="matrix(0.71111855,0.07468853,-0.1047717,0.99754412,14.200519,-3.9965039)">
      <path
         id="rect45"
         style="fill:#5e5e5e;fill-opacity:1;stroke:#000000;stroke-width:0.637266;stroke-opacity:1"
         d="M 45.179578,1.4273455 C 45.931,3.4226832 46.682422,3.5558366 47.433844,4.0361743 L 46.618585,22.976073 44.690423,23.139125 Z"
         sodipodi:nodetypes="ccccc" />
      <rect
         style="fill:#5e5e5e;fill-opacity:1;stroke:#000000;stroke-width:0.608806;stroke-opacity:1"
         id="rect46"
         width="3.1251595"
         height="5.5437613"
         x="44.051163"
         y="21.876118" />
    </g>
    <g
       id="g47"
       transform="matrix(0.69239268,0.17849466,-0.25038904,0.97127581,18.869122,4.4149892)">
      <path
         id="path46"
         style="fill:#5e5e5e;fill-opacity:1;stroke:#000000;stroke-width:0.637266;stroke-opacity:1"
         d="M 45.179578,1.4273455 C 45.931,3.4226832 46.682422,3.5558366 47.433844,4.0361743 L 46.618585,22.976073 44.690423,23.139125 Z"
         sodipodi:nodetypes="ccccc" />
      <rect
         style="fill:#5e5e5e;fill-opacity:1;stroke:#000000;stroke-width:0.608806;stroke-opacity:1"
         id="rect47"
         width="3.1251595"
         height="5.5437613"
         x="44.051163"
         y="21.876118" />
    </g>
    <g
       id="g48"
       transform="matrix(-0.69239268,0.17849466,0.25038904,0.97127581,33.580209,-7.1145142)">
      <path
         id="path47"
         style="fill:#5e5e5e;fill-opacity:1;stroke:#000000;stroke-width:0.637266;stroke-opacity:1"
         d="M 45.179578,1.4273455 C 45.931,3.4226832 46.682422,3.5558366 47.433844,4.0361743 L 46.618585,22.976073 44.690423,23.139125 Z"
         sodipodi:nodetypes="ccccc" />
      <rect
         style="fill:#5e5e5e;fill-opacity:1;stroke:#000000;stroke-width:0.608806;stroke-opacity:1"
         id="rect48"
         width="3.1251595"
         height="5.5437613"
         x="44.051163"
         y="21.876118" />
    </g>
    <g
       id="g49"
       transform="matrix(-0.71198075,-0.06596501,-0.09253452,0.99875359,43.82113,14.485427)">
      <path
         id="path48"
         style="fill:#5e5e5e;fill-opacity:1;stroke:#000000;stroke-width:0.637266;stroke-opacity:1"
         d="M 45.179578,1.4273455 C 45.931,3.4226832 46.682422,3.5558366 47.433844,4.0361743 L 46.618585,22.976073 44.690423,23.139125 Z"
         sodipodi:nodetypes="ccccc" />
      <rect
         style="fill:#5e5e5e;fill-opacity:1;stroke:#000000;stroke-width:0.608806;stroke-opacity:1"
         id="rect49"
         width="3.1251595"
         height="5.5437613"
         x="44.051163"
         y="21.876118" />
    </g>
    <path
       id="path55"
       style="fill:#aea810;fill-opacity:1;stroke:#1a0d1f;stroke-width:0.562809;stroke-dasharray:none;stroke-opacity:1"
       d="m 29.83693,10.381769 c -1.081317,0.299689 -2.249157,1.367482 -1.983826,2.211867 0.265334,0.844385 1.863358,1.14561 2.944676,0.84592 1.081316,-0.299688 2.306866,-1.417396 2.041535,-2.261781 -0.265334,-0.844384 -1.921068,-1.095697 -3.002385,-0.796006 z"
       sodipodi:nodetypes="sssss" />
    <path
       id="path56"
       style="fill:#4d285b;fill-opacity:1;stroke:#1a0d1f;stroke-width:0.354514;stroke-dasharray:none;stroke-opacity:1"
       d="m 29.432209,11.99931 c 0.0036,0.575811 0.393492,1.309794 0.868636,1.306786 0.475146,-0.003 0.855664,-0.74187 0.852017,-1.317681 -0.0036,-0.57581 -0.411276,-1.345634 -0.88642,-1.342626 -0.475147,0.003 -0.83788,0.777711 -0.834233,1.353521 z"
       sodipodi:nodetypes="sssss" />
    <path
       id="path57"
       style="fill:#aea810;fill-opacity:1;stroke:none;stroke-width:0.0905423"
       d="m 29.252562,11.611285 c 0.08667,0.270433 0.507661,0.543158 0.890254,0.452934 0.382592,-0.09023 0.581903,-0.509234 0.495238,-0.779667 -0.08667,-0.270433 -0.527207,-0.556709 -0.9098,-0.466485 -0.382593,0.09023 -0.562358,0.522785 -0.475692,0.793218 z"
       sodipodi:nodetypes="sssss" />
    <path
       id="path62"
       style="fill:#aea810;fill-opacity:1;stroke:#1a0d1f;stroke-width:0.577;stroke-dasharray:none;stroke-opacity:1"
       d="m 22.603205,10.688452 c 1.042809,0.418323 2.189554,1.477859 1.840433,2.338231 -0.349123,0.860372 -1.965822,1.022832 -3.008631,0.604508 -1.042809,-0.418324 -2.145683,-1.708714 -1.796563,-2.569087 0.349122,-0.860371 1.921952,-0.791977 2.964761,-0.373652 z"
       sodipodi:nodetypes="sssss" />
    <path
       id="path63"
       style="fill:#4d285b;fill-opacity:1;stroke:#1a0d1f;stroke-width:0.354514;stroke-dasharray:none;stroke-opacity:1"
       d="m 22.934258,12.181693 c 0.04837,0.573787 -0.273599,1.339978 -0.747073,1.379891 -0.473477,0.03991 -0.919165,-0.661565 -0.967535,-1.235352 -0.04837,-0.573786 0.288074,-1.377278 0.76155,-1.417191 0.473476,-0.03991 0.904689,0.698866 0.953058,1.272652 z"
       sodipodi:nodetypes="sssss" />
    <path
       id="path64"
       style="fill:#aea810;fill-opacity:1;stroke:none;stroke-width:0.077598"
       d="m 23.206585,12.140666 c -0.09931,0.226029 -0.482181,0.430184 -0.797788,0.325427 -0.315604,-0.104756 -0.444437,-0.478756 -0.345123,-0.704785 0.09932,-0.22603 0.500043,-0.440427 0.815649,-0.33567 0.315606,0.104758 0.426577,0.488999 0.327262,0.715028 z"
       sodipodi:nodetypes="sssss" />
    <path
       id="path69"
       style="fill:#aea810;fill-opacity:1;stroke:#1a0d1f;stroke-width:0.435353;stroke-dasharray:none;stroke-opacity:1"
       d="m 29.928964,6.6470668 c -0.91738,0.3330823 -1.843243,1.1940637 -1.538053,1.7306515 0.305191,0.5365879 1.725861,0.5455883 2.643242,0.2125054 0.91738,-0.333082 1.889243,-1.2346885 1.584054,-1.7712768 -0.30519,-0.5365872 -1.771864,-0.5049627 -2.689243,-0.1718801 z"
       sodipodi:nodetypes="sssss" />
    <path
       id="path70"
       style="fill:#4d285b;fill-opacity:1;stroke:#1a0d1f;stroke-width:0.272115;stroke-dasharray:none;stroke-opacity:1"
       d="m 29.752226,7.4819925 c -0.06139,0.3871313 0.182688,0.9765782 0.580628,1.0929426 C 30.730795,8.6913 31.131906,8.2905184 31.193298,7.9033872 31.254691,7.5162569 30.99974,6.8983384 30.601801,6.7819739 30.203859,6.6656088 29.813619,7.0948622 29.752226,7.4819925 Z"
       sodipodi:nodetypes="sssss" />
    <path
       id="path71"
       style="fill:#aea810;fill-opacity:1;stroke:none;stroke-width:0.0718084"
       d="m 29.458315,7.8619865 c 0.168803,0.123877 0.582855,0.091572 0.827304,-0.1437122 0.244446,-0.2352829 0.226724,-0.5844492 0.05792,-0.7083262 -0.168802,-0.1238771 -0.602425,-0.090614 -0.846873,0.1446704 -0.244448,0.2352835 -0.207154,0.5834908 -0.03835,0.707368 z"
       sodipodi:nodetypes="sssss" />
    <rect
       style="fill:#d9810f;fill-opacity:1;stroke:#331708;stroke-width:0.732151;stroke-opacity:1"
       id="rect72"
       width="1.9135337"
       height="2.259419"
       x="16.279839"
       y="17.817106" />
    <rect
       style="fill:#d9810f;fill-opacity:1;stroke:#331708;stroke-width:0.732151;stroke-opacity:1"
       id="rect74"
       width="1.9135337"
       height="2.259419"
       x="33.958412"
       y="17.317495" />
    <path
       id="path79"
       style="fill:#4d285b;fill-opacity:1;stroke:#1a0d1f;stroke-width:0.242666;stroke-dasharray:none;stroke-opacity:1"
       d="m 30.217356,16.753733 c 0.112819,0.330898 -0.01734,0.870311 -0.355876,1.013675 -0.338541,0.143363 -0.757271,-0.163614 -0.87009,-0.49451 -0.112818,-0.330897 0.0228,-0.896269 0.361343,-1.039632 0.338541,-0.143364 0.751804,0.189571 0.864623,0.520467 z"
       sodipodi:nodetypes="sssss" />
    <path
       id="path80"
       style="fill:#aea810;fill-opacity:1;stroke:none;stroke-width:0.0551461"
       d="m 29.563099,16.919569 c -0.07805,0.15489 -0.339251,0.24448 -0.53834,0.110637 -0.199089,-0.133843 -0.26067,-0.440438 -0.182626,-0.595326 0.07805,-0.154889 0.351479,-0.249205 0.550569,-0.115361 0.199089,0.133843 0.248441,0.445162 0.170397,0.60005 z"
       sodipodi:nodetypes="sssss" />
  </g>
</svg>
