<?xml version="1.0" encoding="UTF-8" standalone="no"?>
<!-- Created with Inkscape (http://www.inkscape.org/) -->

<svg
   width="300"
   height="300"
   viewBox="0 0 79.375 79.374999"
   version="1.1"
   id="svg3527"
   inkscape:version="1.4.2 (ebf0e940d0, 2025-05-08)"
   sodipodi:docname="woody.svg"
   xml:space="preserve"
   xmlns:inkscape="http://www.inkscape.org/namespaces/inkscape"
   xmlns:sodipodi="http://sodipodi.sourceforge.net/DTD/sodipodi-0.dtd"
   xmlns="http://www.w3.org/2000/svg"
   xmlns:svg="http://www.w3.org/2000/svg"><sodipodi:namedview
     id="namedview3529"
     pagecolor="#505050"
     bordercolor="#ffffff"
     borderopacity="1"
     inkscape:pageshadow="0"
     inkscape:pageopacity="0"
     inkscape:pagecheckerboard="1"
     inkscape:document-units="px"
     showgrid="false"
     width="100mm"
     inkscape:zoom="1.2170212"
     inkscape:cx="167.21155"
     inkscape:cy="115.44581"
     inkscape:window-width="1366"
     inkscape:window-height="697"
     inkscape:window-x="0"
     inkscape:window-y="0"
     inkscape:window-maximized="1"
     inkscape:current-layer="layer1"
     inkscape:snap-global="false"
     inkscape:showpageshadow="0"
     inkscape:deskcolor="#505050"
     showguides="true"><sodipodi:guide
       position="49.169673,83.35102"
       orientation="0,-1"
       id="guide68"
       inkscape:locked="false" /></sodipodi:namedview><defs
     id="defs3524"><inkscape:path-effect
       effect="fillet_chamfer"
       id="path-effect68"
       is_visible="true"
       lpeversion="1"
       nodesatellites_param="F,0,0,1,0,0,0,1 @ F,0,0,1,0,0,0,1 @ F,0,0,1,0,0,0,1 @ F,0,0,1,0,0,0,1 @ F,0,0,1,0,0,0,1 @ F,0,0,1,0,0,0,1 @ F,0,0,1,0,0,0,1 @ F,0,0,1,0,0,0,1 @ F,0,0,1,0,0,0,1"
       radius="0"
       unit="px"
       method="auto"
       mode="F"
       chamfer_steps="1"
       flexible="false"
       use_knot_distance="true"
       apply_no_radius="true"
       apply_with_radius="true"
       only_selected="false"
       hide_knots="false" /><inkscape:path-effect
       effect="fillet_chamfer"
       id="path-effect66"
       is_visible="true"
       lpeversion="1"
       nodesatellites_param="F,0,0,1,0,0,0,1 @ F,0,0,1,0,0.44929322,0,1 @ F,0,0,1,0,0.44929322,0,1 @ F,0,0,1,0,0,0,1 @ F,0,0,1,0,0,0,1 @ F,0,0,1,0,0,0,1 @ F,0,0,1,0,0,0,1 @ F,0,0,1,0,0,0,1 @ F,0,0,1,0,0,0,1 @ F,0,0,1,0,0,0,1"
       radius="0"
       unit="px"
       method="auto"
       mode="F"
       chamfer_steps="1"
       flexible="false"
       use_knot_distance="true"
       apply_no_radius="true"
       apply_with_radius="true"
       only_selected="false"
       hide_knots="false" /><inkscape:path-effect
       effect="fillet_chamfer"
       id="path-effect68-6"
       is_visible="true"
       lpeversion="1"
       nodesatellites_param="F,0,0,1,0,0,0,1 @ F,0,0,1,0,0,0,1 @ F,0,0,1,0,0,0,1 @ F,0,0,1,0,0,0,1 @ F,0,0,1,0,0,0,1 @ F,0,0,1,0,0,0,1 @ F,0,0,1,0,0,0,1 @ F,0,0,1,0,0,0,1 @ F,0,0,1,0,0,0,1"
       radius="0"
       unit="px"
       method="auto"
       mode="F"
       chamfer_steps="1"
       flexible="false"
       use_knot_distance="true"
       apply_no_radius="true"
       apply_with_radius="true"
       only_selected="false"
       hide_knots="false" /><inkscape:path-effect
       effect="fillet_chamfer"
       id="path-effect66-7"
       is_visible="true"
       lpeversion="1"
       nodesatellites_param="F,0,0,1,0,0,0,1 @ F,0,0,1,0,0.44929322,0,1 @ F,0,0,1,0,0.44929322,0,1 @ F,0,0,1,0,0,0,1 @ F,0,0,1,0,0,0,1 @ F,0,0,1,0,0,0,1 @ F,0,0,1,0,0,0,1 @ F,0,0,1,0,0,0,1 @ F,0,0,1,0,0,0,1 @ F,0,0,1,0,0,0,1"
       radius="0"
       unit="px"
       method="auto"
       mode="F"
       chamfer_steps="1"
       flexible="false"
       use_knot_distance="true"
       apply_no_radius="true"
       apply_with_radius="true"
       only_selected="false"
       hide_knots="false" /><inkscape:path-effect
       effect="fillet_chamfer"
       id="path-effect68-7"
       is_visible="true"
       lpeversion="1"
       nodesatellites_param="F,0,0,1,0,0,0,1 @ F,0,0,1,0,0,0,1 @ F,0,0,1,0,0,0,1 @ F,0,0,1,0,0,0,1 @ F,0,0,1,0,0,0,1 @ F,0,0,1,0,0,0,1 @ F,0,0,1,0,0,0,1 @ F,0,0,1,0,0,0,1 @ F,0,0,1,0,0,0,1"
       radius="0"
       unit="px"
       method="auto"
       mode="F"
       chamfer_steps="1"
       flexible="false"
       use_knot_distance="true"
       apply_no_radius="true"
       apply_with_radius="true"
       only_selected="false"
       hide_knots="false" /><inkscape:path-effect
       effect="fillet_chamfer"
       id="path-effect66-5"
       is_visible="true"
       lpeversion="1"
       nodesatellites_param="F,0,0,1,0,0,0,1 @ F,0,0,1,0,0.44929322,0,1 @ F,0,0,1,0,0.44929322,0,1 @ F,0,0,1,0,0,0,1 @ F,0,0,1,0,0,0,1 @ F,0,0,1,0,0,0,1 @ F,0,0,1,0,0,0,1 @ F,0,0,1,0,0,0,1 @ F,0,0,1,0,0,0,1 @ F,0,0,1,0,0,0,1"
       radius="0"
       unit="px"
       method="auto"
       mode="F"
       chamfer_steps="1"
       flexible="false"
       use_knot_distance="true"
       apply_no_radius="true"
       apply_with_radius="true"
       only_selected="false"
       hide_knots="false" /><inkscape:path-effect
       effect="fillet_chamfer"
       id="path-effect68-3"
       is_visible="true"
       lpeversion="1"
       nodesatellites_param="F,0,0,1,0,0,0,1 @ F,0,0,1,0,0,0,1 @ F,0,0,1,0,0,0,1 @ F,0,0,1,0,0,0,1 @ F,0,0,1,0,0,0,1 @ F,0,0,1,0,0,0,1 @ F,0,0,1,0,0,0,1 @ F,0,0,1,0,0,0,1 @ F,0,0,1,0,0,0,1"
       radius="0"
       unit="px"
       method="auto"
       mode="F"
       chamfer_steps="1"
       flexible="false"
       use_knot_distance="true"
       apply_no_radius="true"
       apply_with_radius="true"
       only_selected="false"
       hide_knots="false" /><inkscape:path-effect
       effect="fillet_chamfer"
       id="path-effect66-6"
       is_visible="true"
       lpeversion="1"
       nodesatellites_param="F,0,0,1,0,0,0,1 @ F,0,0,1,0,0.44929322,0,1 @ F,0,0,1,0,0.44929322,0,1 @ F,0,0,1,0,0,0,1 @ F,0,0,1,0,0,0,1 @ F,0,0,1,0,0,0,1 @ F,0,0,1,0,0,0,1 @ F,0,0,1,0,0,0,1 @ F,0,0,1,0,0,0,1 @ F,0,0,1,0,0,0,1"
       radius="0"
       unit="px"
       method="auto"
       mode="F"
       chamfer_steps="1"
       flexible="false"
       use_knot_distance="true"
       apply_no_radius="true"
       apply_with_radius="true"
       only_selected="false"
       hide_knots="false" /><linearGradient
       id="linearGradient13895"
       inkscape:swatch="solid"><stop
         style="stop-color:#000000;stop-opacity:1;"
         offset="0"
         id="stop13893" /></linearGradient><filter
       style="color-interpolation-filters:sRGB;"
       inkscape:label="Clean Edges"
       id="filter14269"
       x="-0.31154084"
       y="-0.29580634"
       width="1.6230817"
       height="1.5916127"><feGaussianBlur
         stdDeviation="0.204612"
         result="blur"
         id="feGaussianBlur14263" /><feComposite
         in="SourceGraphic"
         in2="blur"
         operator="in"
         result="composite1"
         id="feComposite14265" /><feComposite
         in="composite1"
         in2="composite1"
         operator="in"
         result="composite2"
         id="feComposite14267" /></filter></defs><g
     inkscape:label="Camada 1"
     inkscape:groupmode="layer"
     id="layer1"><path
       id="path5"
       style="fill:#5e251a;fill-opacity:1;stroke:#250e0b;stroke-width:2.12404;stroke-dasharray:none;stroke-opacity:1"
       d="m 14.869599,3.2616525 15.849714,16.3779795 -4.398697,6.247164 -14.924154,-11.720215 1.323017,-1.858787 6.433694,2.063292 -4.46456,-5.4874345 z"
       sodipodi:nodetypes="cccccccc" /><rect
       style="fill:#ff0f7c;fill-opacity:1;stroke:#ffffff;stroke-width:1.45887;stroke-dasharray:none;stroke-opacity:1"
       id="rect19"
       width="3.2533581"
       height="10.030683"
       x="-35.902428"
       y="51.221397"
       transform="matrix(-0.87721392,0.48009972,0.44532922,0.8953669,0,0)" /><rect
       style="fill:#ff0f7c;fill-opacity:1;stroke:#ffffff;stroke-width:1.45887;stroke-dasharray:none;stroke-opacity:1"
       id="rect18"
       width="3.2533581"
       height="10.030683"
       x="35.861988"
       y="13.771146"
       transform="matrix(0.87721392,0.48009972,-0.44532922,0.8953669,0,0)" /><path
       id="rect11"
       style="fill:#5e251a;fill-opacity:1;stroke:#250e0b;stroke-width:2.12549;stroke-dasharray:none;stroke-opacity:1"
       d="m 51.506736,45.554261 -22.419158,3.095917 9e-6,7.640393 18.976131,-1.32e-4 -0.01165,-2.282127 -6.457188,-2.354088 6.81895,-1.560434 z"
       transform="matrix(0.7864738,-0.61762364,0.57571522,0.81765028,0,0)"
       sodipodi:nodetypes="cccccccc" /><rect
       style="fill:#5e251a;fill-opacity:1;stroke:#250e0b;stroke-width:1.95146;stroke-dasharray:none;stroke-opacity:1"
       id="rect44"
       width="17.533892"
       height="6.9704514"
       x="-3.6836717"
       y="48.101486"
       transform="matrix(0.96357242,-0.26744755,0.25799954,0.96614504,0,0)" /><rect
       style="fill:#a5422e;fill-opacity:1;stroke:none;stroke-width:1.09345;stroke-dasharray:none;stroke-opacity:1"
       id="rect30"
       width="12.726264"
       height="3.0152307"
       x="-16.616142"
       y="51.651321"
       transform="matrix(0.96512045,-0.26180625,0.57709517,0.8166769,0,0)" /><path
       id="path9"
       style="fill:#5e251a;stroke:#250e0b;stroke-width:1.56557"
       inkscape:transform-center-x="0.09851727"
       inkscape:transform-center-y="-2.6847986"
       d="M 40.5722 12.074198 C 35.45059 11.817277 30.02557 12.623161 24.076566 15.262117 L 24.076566 56.362968 L 1.2588379 77.858813 L 24.928194 68.191186 L 16.130281 78.266023 L 26.898616 73.146439 L 28.741398 69.838631 L 31.027047 71.183768 L 37.325887 68.189119 L 56.481823 77.296057 L 48.471976 66.302413 L 57.776318 70.552799 L 58.038834 67.169026 L 61.804496 71.486592 L 78.406066 78.227783 L 55.24624 58.806229 L 55.24624 15.262117 C 50.511587 13.650848 45.69381 12.33112 40.5722 12.074198 z " /><ellipse
       style="fill:#250e0b;fill-opacity:1;stroke:none;stroke-width:2.08378;stroke-dasharray:none;stroke-opacity:1"
       id="ellipse27"
       cx="47.578415"
       cy="36.279499"
       rx="8.0706511"
       ry="7.2251558" /><path
       style="fill:none;fill-opacity:1;stroke:#a13f2d;stroke-width:1.79466874;stroke-dasharray:21.53602552,1.79466879;stroke-opacity:1;stroke-linecap:butt;stroke-linejoin:miter;stroke-dashoffset:0"
       d="M 10.649446,71.677716 23.480487,64.80605 29.678534,56.968056 26.960093,22.394986"
       id="path31" /><ellipse
       style="fill:#250e0b;fill-opacity:1;stroke:none;stroke-width:1.99975;stroke-dasharray:none;stroke-opacity:1"
       id="path27"
       cx="31.129658"
       cy="36.740681"
       rx="7.7631984"
       ry="6.9177022" /><ellipse
       style="fill:#913a29;fill-opacity:1;stroke:#250e0b;stroke-width:1.99094;stroke-dasharray:none;stroke-opacity:1"
       id="ellipse8"
       cx="39.395756"
       cy="16.200153"
       rx="15.322746"
       ry="4.923821" /><path
       id="path13"
       style="fill:#ffffff;fill-opacity:1;stroke:#250e0b;stroke-width:1.14825;stroke-dasharray:none;stroke-opacity:1"
       d="M 53.330073,46.353245 A 17.30158,11.03738 0 0 1 39.350933,50.887325 17.30158,11.03738 0 0 1 25.924903,46.811712 13.784306,13.567576 0 0 0 39.602344,58.69454 13.784306,13.567576 0 0 0 53.330073,46.353245 Z" /><path
       id="path29"
       style="fill:#af9494;fill-opacity:1;stroke:none;stroke-width:0.766667;stroke-dasharray:none;stroke-opacity:1"
       d="m 51.869668,49.503298 c -2.918874,1.417213 -7.574563,4.863306 -12.528468,4.863329 -4.668327,1.6e-5 -9.241963,-3.609769 -12.186484,-4.892405 0.773559,3.376831 6.259056,6.645352 12.488667,6.645397 6.390125,-4.1e-5 11.648725,-3.139753 12.226285,-6.616321 z"
       sodipodi:nodetypes="csccc" /><path
       style="fill:#ffffff;fill-opacity:1;stroke:#250e0b;stroke-width:1.0626;stroke-dasharray:none;stroke-opacity:1"
       d="m 39.164165,50.792345 0.12659,7.691321"
       id="path14" /><path
       style="fill:#ffffff;fill-opacity:1;stroke:#250e0b;stroke-width:1.0626;stroke-dasharray:none;stroke-opacity:1"
       d="m 44.547826,50.146324 0.12659,7.691321"
       id="path15-0" /><path
       style="fill:#ffffff;fill-opacity:1;stroke:#250e0b;stroke-width:1.0626;stroke-dasharray:none;stroke-opacity:1"
       d="m 34.003099,49.986705 0.12659,7.691321"
       id="path16" /><path
       style="fill:#ffffff;fill-opacity:1;stroke:#250e0b;stroke-width:0.913377;stroke-dasharray:none;stroke-opacity:1"
       d="m 29.898392,49.500953 0.129062,5.573938"
       id="path18" /><path
       style="fill:#ffffff;fill-opacity:1;stroke:#250e0b;stroke-width:0.913377;stroke-dasharray:none;stroke-opacity:1"
       d="m 49.306669,49.099137 0.129063,5.573937"
       id="path21" /><rect
       style="fill:#250e0b;fill-opacity:1;stroke:none;stroke-width:1.5617;stroke-dasharray:none;stroke-opacity:1"
       id="rect27"
       width="8.3012428"
       height="5.1692953"
       x="35.094719"
       y="31.928665" /><rect
       style="fill:#ff0f7c;fill-opacity:1;stroke:#ffffff;stroke-width:1.35996;stroke-dasharray:none;stroke-opacity:1"
       id="rect17"
       width="8.3012428"
       height="3.9200313"
       x="35.203419"
       y="30.05357" /><path
       id="path17"
       style="fill:#ff0f7c;fill-opacity:1;stroke:#ffffff;stroke-width:1.52512;stroke-opacity:1"
       d="m 38.091026,30.3178 a 7.8387989,9.1155689 7.725968 0 1 -0.167301,3.909401 7.8387989,9.1155689 7.725968 0 1 -9.65489,6.827539 7.8387989,9.1155689 7.725968 0 1 -5.519474,-10.899555 7.8387989,9.1155689 7.725968 0 1 1.569304,-3.533177 z" /><path
       id="path22"
       style="fill:#f164ff;fill-opacity:1;stroke:none;stroke-width:1.43462;stroke-dasharray:none;stroke-opacity:1"
       d="m 29.553999,39.031123 c 1.516159,3.41e-4 2.921624,-0.784251 3.703609,-2.067518 -0.248256,0.04312 -0.499855,0.0647 -0.751919,0.0645 -3.448244,-1.83e-4 -7.017083,-3.654639 -5.345615,-6.39899 -5.113427,0.891939 -2.812263,8.401734 2.393925,8.402008 z"
       sodipodi:nodetypes="scccss" /><g
       id="g39"
       transform="matrix(0.90974893,-0.1778312,0.16425152,0.98496344,-84.339181,23.306013)"><path
         id="path39"
         style="fill:#2a8225;fill-opacity:1;stroke:#0a240f;stroke-width:1.72427;stroke-dasharray:none;stroke-opacity:1"
         d="m 117.47766,11.247332 c -1.77704,-4.8415959 -5.19517,-5.0354896 -5.19517,-5.0354896 0.1256,5.4270226 -2.88006,10.4815546 -8.85126,15.4795826 l 5.27185,3.41182 c 0.87976,0.362493 10.55162,-9.014318 8.77458,-13.855913 z"
         sodipodi:nodetypes="zcccz" /><path
         id="path32"
         style="fill:#ce634e;fill-opacity:1;stroke:#391d10;stroke-width:1.1986;stroke-dasharray:none;stroke-opacity:1"
         d="m 90.711298,37.215283 12.169452,12.345392 -2.0294,1.68315 -12.123732,-7.948641 0.75564,-1.036342 3.67459,1.150361 -2.54992,-3.059448 z"
         sodipodi:nodetypes="cccccccc" /><path
         id="path23"
         style="fill:#ce634e;fill-opacity:1;stroke:#391d10;stroke-width:1.1986;stroke-dasharray:none;stroke-opacity:1"
         d="m 114.73207,29.062693 -12.16946,12.345392 2.0294,1.68315 12.12374,-7.948641 -0.75564,-1.036342 -3.67459,1.150361 2.54992,-3.059448 z"
         sodipodi:nodetypes="cccccccc" /><path
         id="path15"
         style="fill:#2a8225;fill-opacity:1;stroke:#0a240f;stroke-width:1.72427;stroke-dasharray:none;stroke-opacity:1"
         d="m 92.196765,14.508368 c 1.77704,-4.8415959 5.195168,-5.0354896 5.195168,-5.0354896 -0.1256,5.4270226 2.880057,10.4815546 8.851257,15.4795826 l -5.27185,3.41182 c -0.87976,0.362493 -10.551616,-9.014318 -8.774575,-13.855913 z"
         sodipodi:nodetypes="zcccz" /><rect
         style="fill:#ce634e;fill-opacity:1;stroke:#391d10;stroke-width:1.37712;stroke-miterlimit:4;stroke-dasharray:none;stroke-opacity:1"
         id="rect2963"
         width="5.1073756"
         height="44.239719"
         x="103.15329"
         y="14.82361"
         ry="1.3937519"
         transform="matrix(0.99752491,0.07031403,-0.0622598,0.99805998,0,0)" /><rect
         style="fill:#ce634e;fill-opacity:1;stroke:#391d10;stroke-width:1.12396;stroke-dasharray:none;stroke-opacity:1"
         id="rect8"
         width="7.0000558"
         height="6.1902738"
         x="102.03762"
         y="59.969795"
         ry="0.94427896"
         transform="matrix(0.99968064,0.02527108,-0.0543993,0.99851926,0,0)" /><g
         id="g34"><path
           id="path4"
           style="fill:#24d92d;fill-opacity:1;stroke:#0a240f;stroke-width:0.826653;stroke-dasharray:none;stroke-opacity:1"
           d="m 99.919982,25.315515 c -0.537793,-1.710712 1.349658,-2.795834 1.349658,-2.795834 2.5216,3.011761 4.98723,5.395814 7.37454,6.900984 l -1.54307,1.960078 c 0,0 -6.64336,-4.354526 -7.181147,-6.065237 z"
           sodipodi:nodetypes="zcccz" /><path
           style="fill:#000000;fill-opacity:0;stroke:#0a240f;stroke-width:0.471752;stroke-linecap:round;stroke-linejoin:round;stroke-dasharray:none;stroke-dashoffset:0;stroke-opacity:1"
           d="m 101.1552,23.138547 0.60608,2.386882 4.46085,3.872126"
           id="path34" /><path
           id="path3"
           style="fill:#24d92d;fill-opacity:1;stroke:#0a240f;stroke-width:0.826653;stroke-dasharray:none;stroke-opacity:1"
           d="m 108.8467,26.127444 c 0.73078,-1.633041 -1.01857,-2.940836 -1.01857,-2.940836 -2.85025,2.682856 -5.57274,4.749251 -8.116375,5.952511 l 1.306755,2.134567 c 0,0 7.09745,-3.513207 7.82821,-5.146248 z"
           sodipodi:nodetypes="zcccz" /><path
           style="fill:#000000;fill-opacity:0;stroke:#0a240f;stroke-width:0.471752;stroke-linecap:round;stroke-linejoin:round;stroke-dasharray:none;stroke-dashoffset:0;stroke-opacity:1"
           d="m 107.95458,23.885287 -0.96079,2.267469 -4.99612,3.151397"
           id="path33" /></g><g
         id="g38"
         transform="matrix(0.93768784,0,0,-0.74231475,4.4273279,80.333935)"><path
           id="path35"
           style="fill:#24d92d;fill-opacity:1;stroke:#0a240f;stroke-width:0.826653;stroke-dasharray:none;stroke-opacity:1"
           d="m 99.919982,25.315515 c -0.537793,-1.710712 1.349658,-2.795834 1.349658,-2.795834 2.5216,3.011761 4.98723,5.395814 7.37454,6.900984 l -1.54307,1.960078 c 0,0 -6.64336,-4.354526 -7.181147,-6.065237 z"
           sodipodi:nodetypes="zcccz" /><path
           style="fill:#000000;fill-opacity:0;stroke:#0a240f;stroke-width:0.471752;stroke-linecap:round;stroke-linejoin:round;stroke-dasharray:none;stroke-dashoffset:0;stroke-opacity:1"
           d="m 101.1552,23.138547 0.60608,2.386882 4.46085,3.872126"
           id="path36" /><path
           id="path37"
           style="fill:#24d92d;fill-opacity:1;stroke:#0a240f;stroke-width:0.826653;stroke-dasharray:none;stroke-opacity:1"
           d="m 108.8467,26.127444 c 0.73078,-1.633041 -1.01857,-2.940836 -1.01857,-2.940836 -2.85025,2.682856 -5.57274,4.749251 -8.116375,5.952511 l 1.306755,2.134567 c 0,0 7.09745,-3.513207 7.82821,-5.146248 z"
           sodipodi:nodetypes="zcccz" /><path
           style="fill:#000000;fill-opacity:0;stroke:#0a240f;stroke-width:0.471752;stroke-linecap:round;stroke-linejoin:round;stroke-dasharray:none;stroke-dashoffset:0;stroke-opacity:1"
           d="m 107.95458,23.885287 -0.96079,2.267469 -4.99612,3.151397"
           id="path38" /></g><rect
         style="fill:#ce634e;fill-opacity:1;stroke:#391d10;stroke-width:1.2818;stroke-dasharray:none;stroke-opacity:1"
         id="rect38"
         width="9.3004913"
         height="6.0596428"
         x="102.36592"
         y="66.257484"
         ry="0.92435217"
         transform="matrix(0.99982708,0.01859571,-0.07384552,0.99726969,0,0)" /></g><path
       id="path1"
       style="fill:#5e251a;fill-opacity:1;stroke:#250e0b;stroke-width:2.14441;stroke-dasharray:none;stroke-opacity:1"
       d="m 18.473967,52.566105 c -0.08379,2.553094 -3.035005,5.615465 -6.833623,3.820289 -3.028943,-1.431425 -5.9012595,-2.874457 -5.3723924,-5.843758 0.5325116,-2.989739 1.0295899,-6.013668 7.0335304,-3.981401 3.207327,1.08564 5.243415,3.844274 5.172485,6.00487 z"
       sodipodi:nodetypes="sssss" /><path
       style="fill:none;fill-opacity:1;stroke:#250e0b;stroke-width:1.35996;stroke-dasharray:none;stroke-opacity:1"
       d="m 26.133541,47.809008 c 2.638975,2.126552 4.91058,4.584361 7.916925,6.149067 1.55145,0.80748 3.432965,0.756295 5.226709,0.691772 1.793744,-0.06452 3.777645,-0.367443 5.457298,-0.845498 1.679653,-0.478055 3.369552,-0.871186 4.458074,-2.113743 l 4.073757,-4.650231"
       id="path2"
       sodipodi:nodetypes="cszzsc" /><path
       id="path12"
       style="fill:#ff0f7c;fill-opacity:1;stroke:#ffffff;stroke-width:1.52512;stroke-opacity:1"
       d="m 40.335895,30.164074 a 9.1155689,7.8387989 82.274032 0 0 0.167301,3.909401 9.1155689,7.8387989 82.274032 0 0 9.65489,6.827539 9.1155689,7.8387989 82.274032 0 0 5.519474,-10.899555 9.1155689,7.8387989 82.274032 0 0 -1.569304,-3.533177 z" /><path
       id="path20"
       style="fill:#f164ff;fill-opacity:1;stroke:none;stroke-width:1.37781;stroke-dasharray:none;stroke-opacity:1"
       d="m 48.186931,38.686369 c 1.516159,3.14e-4 2.921624,-0.723374 3.703609,-1.907027 -0.248256,0.03977 -0.499855,0.05968 -0.751919,0.05949 -3.448244,-1.69e-4 -7.017083,-3.370948 -5.345615,-5.902268 -5.113427,0.822702 -2.812263,7.749548 2.393925,7.749802 z"
       sodipodi:nodetypes="scccss" /><ellipse
       style="fill:none;fill-opacity:1;stroke:#250e0b;stroke-width:1.89248;stroke-dasharray:none;stroke-opacity:1"
       id="path26"
       cx="40.161098"
       cy="16.717779"
       rx="11.293865"
       ry="1.8396715" /><path
       id="path24"
       style="fill:#e5b000;fill-opacity:1;stroke:#461c00;stroke-width:1.53267;stroke-dasharray:none;stroke-opacity:1"
       inkscape:transform-center-x="-0.091956415"
       inkscape:transform-center-y="-2.0390942"
       d="M 40.098582,4.4599127 35.130636,12.149388 28.084179,5.3047078 28.719374,16.47597 c 7.355657,1.659984 14.600698,1.410973 21.713411,-0.143635 L 51.223622,5.5762254 44.761103,12.526007 Z"
       sodipodi:nodetypes="cccccccc" /><path
       id="path28"
       style="fill:#ed7700;fill-opacity:1;stroke:none;stroke-width:1.3163;stroke-dasharray:none;stroke-opacity:1"
       inkscape:transform-center-x="-0.085044847"
       inkscape:transform-center-y="-1.626262"
       d="m 28.913025,6.981486 0.532245,8.909534 c 6.956514,1.419985 13.708139,1.084897 20.286242,-0.154968 l 0.0577,-1.91209 c -1.677717,1.410706 -4.007651,2.209583 -6.444568,2.209685 -3.250275,-4.8e-5 -8.085312,-3.496984 -8.085312,-3.496984 z"
       sodipodi:nodetypes="ccccccc" /><path
       id="path30"
       style="fill:#a13f2d;fill-opacity:1;stroke:none;stroke-width:1.14835;stroke-dasharray:none;stroke-opacity:1"
       d="m 17.452343,51.959139 c -0.209017,1.341993 -1.986013,2.765742 -3.904411,1.570532 -1.529694,-0.953029 -2.974781,-1.901969 -2.500712,-3.434594 0.477335,-1.543176 0.937896,-3.106706 4.021802,-1.642526 1.647434,0.782168 2.560212,2.370909 2.383321,3.506588 z"
       sodipodi:nodetypes="sssss" /></g></svg>
