<?xml version="1.0" encoding="UTF-8" standalone="no"?>
<!-- Created with Inkscape (http://www.inkscape.org/) -->

<svg
   width="300"
   height="300"
   viewBox="0 0 79.375 79.374999"
   version="1.1"
   id="svg3527"
   inkscape:version="1.4.2 (ebf0e940d0, 2025-05-08)"
   sodipodi:docname="woody.svg"
   xml:space="preserve"
   xmlns:inkscape="http://www.inkscape.org/namespaces/inkscape"
   xmlns:sodipodi="http://sodipodi.sourceforge.net/DTD/sodipodi-0.dtd"
   xmlns="http://www.w3.org/2000/svg"
   xmlns:svg="http://www.w3.org/2000/svg"><sodipodi:namedview
     id="namedview3529"
     pagecolor="#505050"
     bordercolor="#ffffff"
     borderopacity="1"
     inkscape:pageshadow="0"
     inkscape:pageopacity="0"
     inkscape:pagecheckerboard="1"
     inkscape:document-units="px"
     showgrid="false"
     width="100mm"
     inkscape:zoom="1.7211279"
     inkscape:cx="188.53916"
     inkscape:cy="180.98597"
     inkscape:window-width="1366"
     inkscape:window-height="697"
     inkscape:window-x="0"
     inkscape:window-y="0"
     inkscape:window-maximized="1"
     inkscape:current-layer="layer1"
     inkscape:snap-global="false"
     inkscape:showpageshadow="0"
     inkscape:deskcolor="#505050"
     showguides="true"><sodipodi:guide
       position="49.169673,83.35102"
       orientation="0,-1"
       id="guide68"
       inkscape:locked="false" /></sodipodi:namedview><defs
     id="defs3524"><inkscape:path-effect
       effect="fillet_chamfer"
       id="path-effect68"
       is_visible="true"
       lpeversion="1"
       nodesatellites_param="F,0,0,1,0,0,0,1 @ F,0,0,1,0,0,0,1 @ F,0,0,1,0,0,0,1 @ F,0,0,1,0,0,0,1 @ F,0,0,1,0,0,0,1 @ F,0,0,1,0,0,0,1 @ F,0,0,1,0,0,0,1 @ F,0,0,1,0,0,0,1 @ F,0,0,1,0,0,0,1"
       radius="0"
       unit="px"
       method="auto"
       mode="F"
       chamfer_steps="1"
       flexible="false"
       use_knot_distance="true"
       apply_no_radius="true"
       apply_with_radius="true"
       only_selected="false"
       hide_knots="false" /><inkscape:path-effect
       effect="fillet_chamfer"
       id="path-effect66"
       is_visible="true"
       lpeversion="1"
       nodesatellites_param="F,0,0,1,0,0,0,1 @ F,0,0,1,0,0.44929322,0,1 @ F,0,0,1,0,0.44929322,0,1 @ F,0,0,1,0,0,0,1 @ F,0,0,1,0,0,0,1 @ F,0,0,1,0,0,0,1 @ F,0,0,1,0,0,0,1 @ F,0,0,1,0,0,0,1 @ F,0,0,1,0,0,0,1 @ F,0,0,1,0,0,0,1"
       radius="0"
       unit="px"
       method="auto"
       mode="F"
       chamfer_steps="1"
       flexible="false"
       use_knot_distance="true"
       apply_no_radius="true"
       apply_with_radius="true"
       only_selected="false"
       hide_knots="false" /><inkscape:path-effect
       effect="fillet_chamfer"
       id="path-effect68-6"
       is_visible="true"
       lpeversion="1"
       nodesatellites_param="F,0,0,1,0,0,0,1 @ F,0,0,1,0,0,0,1 @ F,0,0,1,0,0,0,1 @ F,0,0,1,0,0,0,1 @ F,0,0,1,0,0,0,1 @ F,0,0,1,0,0,0,1 @ F,0,0,1,0,0,0,1 @ F,0,0,1,0,0,0,1 @ F,0,0,1,0,0,0,1"
       radius="0"
       unit="px"
       method="auto"
       mode="F"
       chamfer_steps="1"
       flexible="false"
       use_knot_distance="true"
       apply_no_radius="true"
       apply_with_radius="true"
       only_selected="false"
       hide_knots="false" /><inkscape:path-effect
       effect="fillet_chamfer"
       id="path-effect66-7"
       is_visible="true"
       lpeversion="1"
       nodesatellites_param="F,0,0,1,0,0,0,1 @ F,0,0,1,0,0.44929322,0,1 @ F,0,0,1,0,0.44929322,0,1 @ F,0,0,1,0,0,0,1 @ F,0,0,1,0,0,0,1 @ F,0,0,1,0,0,0,1 @ F,0,0,1,0,0,0,1 @ F,0,0,1,0,0,0,1 @ F,0,0,1,0,0,0,1 @ F,0,0,1,0,0,0,1"
       radius="0"
       unit="px"
       method="auto"
       mode="F"
       chamfer_steps="1"
       flexible="false"
       use_knot_distance="true"
       apply_no_radius="true"
       apply_with_radius="true"
       only_selected="false"
       hide_knots="false" /><inkscape:path-effect
       effect="fillet_chamfer"
       id="path-effect68-7"
       is_visible="true"
       lpeversion="1"
       nodesatellites_param="F,0,0,1,0,0,0,1 @ F,0,0,1,0,0,0,1 @ F,0,0,1,0,0,0,1 @ F,0,0,1,0,0,0,1 @ F,0,0,1,0,0,0,1 @ F,0,0,1,0,0,0,1 @ F,0,0,1,0,0,0,1 @ F,0,0,1,0,0,0,1 @ F,0,0,1,0,0,0,1"
       radius="0"
       unit="px"
       method="auto"
       mode="F"
       chamfer_steps="1"
       flexible="false"
       use_knot_distance="true"
       apply_no_radius="true"
       apply_with_radius="true"
       only_selected="false"
       hide_knots="false" /><inkscape:path-effect
       effect="fillet_chamfer"
       id="path-effect66-5"
       is_visible="true"
       lpeversion="1"
       nodesatellites_param="F,0,0,1,0,0,0,1 @ F,0,0,1,0,0.44929322,0,1 @ F,0,0,1,0,0.44929322,0,1 @ F,0,0,1,0,0,0,1 @ F,0,0,1,0,0,0,1 @ F,0,0,1,0,0,0,1 @ F,0,0,1,0,0,0,1 @ F,0,0,1,0,0,0,1 @ F,0,0,1,0,0,0,1 @ F,0,0,1,0,0,0,1"
       radius="0"
       unit="px"
       method="auto"
       mode="F"
       chamfer_steps="1"
       flexible="false"
       use_knot_distance="true"
       apply_no_radius="true"
       apply_with_radius="true"
       only_selected="false"
       hide_knots="false" /><inkscape:path-effect
       effect="fillet_chamfer"
       id="path-effect68-3"
       is_visible="true"
       lpeversion="1"
       nodesatellites_param="F,0,0,1,0,0,0,1 @ F,0,0,1,0,0,0,1 @ F,0,0,1,0,0,0,1 @ F,0,0,1,0,0,0,1 @ F,0,0,1,0,0,0,1 @ F,0,0,1,0,0,0,1 @ F,0,0,1,0,0,0,1 @ F,0,0,1,0,0,0,1 @ F,0,0,1,0,0,0,1"
       radius="0"
       unit="px"
       method="auto"
       mode="F"
       chamfer_steps="1"
       flexible="false"
       use_knot_distance="true"
       apply_no_radius="true"
       apply_with_radius="true"
       only_selected="false"
       hide_knots="false" /><inkscape:path-effect
       effect="fillet_chamfer"
       id="path-effect66-6"
       is_visible="true"
       lpeversion="1"
       nodesatellites_param="F,0,0,1,0,0,0,1 @ F,0,0,1,0,0.44929322,0,1 @ F,0,0,1,0,0.44929322,0,1 @ F,0,0,1,0,0,0,1 @ F,0,0,1,0,0,0,1 @ F,0,0,1,0,0,0,1 @ F,0,0,1,0,0,0,1 @ F,0,0,1,0,0,0,1 @ F,0,0,1,0,0,0,1 @ F,0,0,1,0,0,0,1"
       radius="0"
       unit="px"
       method="auto"
       mode="F"
       chamfer_steps="1"
       flexible="false"
       use_knot_distance="true"
       apply_no_radius="true"
       apply_with_radius="true"
       only_selected="false"
       hide_knots="false" /></defs><g
     inkscape:label="Camada 1"
     inkscape:groupmode="layer"
     id="layer1"><g
       id="g26"
       transform="matrix(1.2324341,0,0,1.4586723,9.6397795,-2.3812811)"><ellipse
         style="fill:#154b1f;fill-opacity:1;stroke:#0a240f;stroke-width:1.74978;stroke-dasharray:none;stroke-opacity:1"
         id="ellipse24"
         cx="28.208851"
         cy="16.448757"
         rx="13.681502"
         ry="13.450912" /><ellipse
         style="fill:#2a8225;fill-opacity:1;stroke:none;stroke-width:1.48315;stroke-dasharray:none;stroke-opacity:1"
         id="ellipse25"
         cx="27.929373"
         cy="15.794288"
         rx="11.805311"
         ry="11.19973" /><ellipse
         style="fill:#24d92d;fill-opacity:1;stroke:none;stroke-width:0.779876;stroke-dasharray:none;stroke-opacity:1"
         id="ellipse26"
         cx="26.172949"
         cy="1.0725951"
         rx="5.2791858"
         ry="6.9246778"
         transform="matrix(0.87844121,0.47785043,-0.46344093,0.88612781,0,0)" /></g><g
       id="g23"
       transform="translate(-5.2176578,-1.3044144)"><ellipse
         style="fill:#154b1f;fill-opacity:1;stroke:#0a240f;stroke-width:1.74978;stroke-dasharray:none;stroke-opacity:1"
         id="ellipse21"
         cx="28.208851"
         cy="16.448757"
         rx="13.681502"
         ry="13.450912" /><ellipse
         style="fill:#2a8225;fill-opacity:1;stroke:none;stroke-width:1.48315;stroke-dasharray:none;stroke-opacity:1"
         id="ellipse22"
         cx="27.929373"
         cy="15.794288"
         rx="11.805311"
         ry="11.19973" /><ellipse
         style="fill:#24d92d;fill-opacity:1;stroke:none;stroke-width:0.779876;stroke-dasharray:none;stroke-opacity:1"
         id="ellipse23"
         cx="26.172949"
         cy="1.0725951"
         rx="5.2791858"
         ry="6.9246778"
         transform="matrix(0.87844121,0.47785043,-0.46344093,0.88612781,0,0)" /></g><g
       id="g20"
       transform="translate(-10.544017,15.652973)"><ellipse
         style="fill:#154b1f;fill-opacity:1;stroke:#0a240f;stroke-width:1.74978;stroke-dasharray:none;stroke-opacity:1"
         id="ellipse18"
         cx="28.208851"
         cy="16.448757"
         rx="13.681502"
         ry="13.450912" /><ellipse
         style="fill:#2a8225;fill-opacity:1;stroke:none;stroke-width:1.48315;stroke-dasharray:none;stroke-opacity:1"
         id="ellipse19"
         cx="27.929373"
         cy="15.794288"
         rx="11.805311"
         ry="11.19973" /><ellipse
         style="fill:#24d92d;fill-opacity:1;stroke:none;stroke-width:0.779876;stroke-dasharray:none;stroke-opacity:1"
         id="ellipse20"
         cx="26.172949"
         cy="1.0725951"
         rx="5.2791858"
         ry="6.9246778"
         transform="matrix(0.87844121,0.47785043,-0.46344093,0.88612781,0,0)" /></g><rect
       style="fill:#5e251a;fill-opacity:1;stroke:#250e0b;stroke-width:1.95146;stroke-dasharray:none;stroke-opacity:1"
       id="rect44"
       width="17.533892"
       height="6.9704514"
       x="-3.6836717"
       y="48.101486"
       transform="matrix(0.96357242,-0.26744755,0.25799954,0.96614504,0,0)" /><g
       id="g29"
       transform="matrix(-1,0,0,1,85.549623,14.783363)"><ellipse
         style="fill:#154b1f;fill-opacity:1;stroke:#0a240f;stroke-width:1.74978;stroke-dasharray:none;stroke-opacity:1"
         id="ellipse27"
         cx="28.208851"
         cy="16.448757"
         rx="13.681502"
         ry="13.450912" /><ellipse
         style="fill:#2a8225;fill-opacity:1;stroke:none;stroke-width:1.48315;stroke-dasharray:none;stroke-opacity:1"
         id="ellipse28"
         cx="27.929373"
         cy="15.794288"
         rx="11.805311"
         ry="11.19973" /><ellipse
         style="fill:#24d92d;fill-opacity:1;stroke:none;stroke-width:0.779876;stroke-dasharray:none;stroke-opacity:1"
         id="ellipse29"
         cx="26.172949"
         cy="1.0725951"
         rx="5.2791858"
         ry="6.9246778"
         transform="matrix(0.87844121,0.47785043,-0.46344093,0.88612781,0,0)" /></g><path
       id="path9"
       style="fill:#5e251a;stroke:#250e0b;stroke-width:1.56557"
       inkscape:transform-center-x="0.09851727"
       inkscape:transform-center-y="-2.6847986"
       d="M 24.076318,15.262058 V 56.362763 L 1.2586681,77.858754 25.158688,68.22938 16.130148,78.26589 37.325792,68.189268 56.481783,77.296183 47.276466,67.063125 78.406245,78.227784 55.246414,58.806082 V 15.262058 Z" /><ellipse
       style="fill:#913a29;fill-opacity:1;stroke:none;stroke-width:2.1997;stroke-dasharray:none;stroke-opacity:1"
       id="ellipse8"
       cx="39.626339"
       cy="33.18618"
       rx="14.461463"
       ry="14.486928" /><ellipse
       style="fill:#cf7155;fill-opacity:1;stroke:none;stroke-width:1.35141;stroke-dasharray:none;stroke-opacity:1"
       id="ellipse7"
       cx="4.2981734"
       cy="53.266865"
       rx="7.8543463"
       ry="10.067425"
       transform="matrix(0.51588135,-0.85666004,0.79585293,0.60548998,0,0)" /><path
       id="path38"
       style="fill:#ffffff;stroke:#250e0b;stroke-width:1.48358;stroke-opacity:1"
       d="m 40.536539,29.694645 a 9.322464,7.252979 85.422739 0 0 0.154628,4.002538 9.322464,7.252979 85.422739 0 0 8.923515,6.990196 9.322464,7.252979 85.422739 0 0 5.101364,-11.159223 9.322464,7.252979 85.422739 0 0 -1.450426,-3.61735 z" /><path
       id="path5"
       style="fill:#000000;fill-opacity:1;stroke:none;stroke-width:1.52103;stroke-dasharray:none;stroke-opacity:1"
       d="m 51.062153,33.499494 c 0,2.09994 -1.944318,4.785625 -4.342743,4.785625 -2.398434,0 -4.342745,-2.685685 -4.342745,-4.785625 0,-2.09994 2.03294,-4.91674 4.431367,-4.91674 2.398434,0 4.254121,2.8168 4.254121,4.91674 z"
       sodipodi:nodetypes="sssss" /><path
       id="path6"
       style="fill:#ffffff;fill-opacity:0.401992;stroke:none;stroke-width:1.06676;stroke-dasharray:none;stroke-opacity:1"
       d="m 47.970498,33.831488 c 0,1.511271 -1.328895,3.444088 -2.968161,3.444088 -1.63927,0 -2.96816,-1.932817 -2.96816,-3.444088 0,-1.511272 1.389466,-3.53845 3.028732,-3.53845 1.639271,0 2.907589,2.027178 2.907589,3.53845 z"
       sodipodi:nodetypes="sssss" /><path
       id="path7"
       style="fill:#ffffff;fill-opacity:1;stroke:none;stroke-width:0.687334;stroke-dasharray:none;stroke-opacity:1"
       d="m 46.146691,33.71445 c 0,0.922604 -0.903693,2.102552 -2.018449,2.102552 -1.114759,0 -2.018447,-1.179948 -2.018447,-2.102552 0,-0.922604 0.944882,-2.160158 2.059638,-2.160158 1.114759,0 1.977258,1.237554 1.977258,2.160158 z"
       sodipodi:nodetypes="sssss" /><g
       id="g17"
       transform="matrix(0.82148193,0,0,0.79821826,28.841353,2.612501)"><ellipse
         style="fill:#154b1f;fill-opacity:1;stroke:#0a240f;stroke-width:1.74978;stroke-dasharray:none;stroke-opacity:1"
         id="ellipse15"
         cx="28.208851"
         cy="16.448757"
         rx="13.681502"
         ry="13.450912" /><ellipse
         style="fill:#2a8225;fill-opacity:1;stroke:none;stroke-width:1.48315;stroke-dasharray:none;stroke-opacity:1"
         id="ellipse16"
         cx="27.929373"
         cy="15.794288"
         rx="11.805311"
         ry="11.19973" /><ellipse
         style="fill:#24d92d;fill-opacity:1;stroke:none;stroke-width:0.779876;stroke-dasharray:none;stroke-opacity:1"
         id="ellipse17"
         cx="26.172949"
         cy="1.0725951"
         rx="5.2791858"
         ry="6.9246778"
         transform="matrix(0.87844121,0.47785043,-0.46344093,0.88612781,0,0)" /></g><path
       id="path40"
       style="fill:#ffffff;stroke:#250e0b;stroke-width:1.48358;stroke-opacity:1"
       d="m 39.194443,31.462501 a 7.252979,9.322464 4.577261 0 1 -0.154628,4.002538 7.252979,9.322464 4.577261 0 1 -8.923515,6.990196 7.252979,9.322464 4.577261 0 1 -5.101364,-11.159223 7.252979,9.322464 4.577261 0 1 1.450426,-3.61735 z" /><path
       id="path41"
       style="fill:#000000;fill-opacity:1;stroke:none;stroke-width:1.52103;stroke-dasharray:none;stroke-opacity:1"
       d="m 36.996159,35.421077 c 0,2.09994 -1.944318,4.785625 -4.342743,4.785625 -2.398434,0 -4.342745,-2.685685 -4.342745,-4.785625 0,-2.09994 2.03294,-4.91674 4.431367,-4.91674 2.398434,0 4.254121,2.8168 4.254121,4.91674 z"
       sodipodi:nodetypes="sssss" /><path
       id="path43"
       style="fill:#ffffff;fill-opacity:0.401992;stroke:none;stroke-width:1.06676;stroke-dasharray:none;stroke-opacity:1"
       d="m 37.403855,35.48518 c 0,1.511271 -1.328895,3.444088 -2.968161,3.444088 -1.63927,0 -2.96816,-1.932817 -2.96816,-3.444088 0,-1.511272 1.389466,-3.53845 3.028732,-3.53845 1.639271,0 2.907589,2.027178 2.907589,3.53845 z"
       sodipodi:nodetypes="sssss" /><path
       id="path44"
       style="fill:#ffffff;fill-opacity:1;stroke:none;stroke-width:0.687334;stroke-dasharray:none;stroke-opacity:1"
       d="m 37.190317,35.092527 c 0,0.922604 -0.903693,2.102552 -2.018449,2.102552 -1.114759,0 -2.018447,-1.179948 -2.018447,-2.102552 0,-0.922604 0.944882,-2.160158 2.059638,-2.160158 1.114759,0 1.977258,1.237554 1.977258,2.160158 z"
       sodipodi:nodetypes="sssss" /><g
       id="g14"
       transform="translate(0,2.6088288)"><ellipse
         style="fill:#154b1f;fill-opacity:1;stroke:#0a240f;stroke-width:1.74978;stroke-dasharray:none;stroke-opacity:1"
         id="path12"
         cx="28.208851"
         cy="16.448757"
         rx="13.681502"
         ry="13.450912" /><ellipse
         style="fill:#2a8225;fill-opacity:1;stroke:none;stroke-width:1.48315;stroke-dasharray:none;stroke-opacity:1"
         id="ellipse13"
         cx="27.929373"
         cy="15.794288"
         rx="11.805311"
         ry="11.19973" /><ellipse
         style="fill:#24d92d;fill-opacity:1;stroke:none;stroke-width:0.779876;stroke-dasharray:none;stroke-opacity:1"
         id="ellipse14"
         cx="26.172949"
         cy="1.0725951"
         rx="5.2791858"
         ry="6.9246778"
         transform="matrix(0.87844121,0.47785043,-0.46344093,0.88612781,0,0)" /></g><g
       id="g38"
       transform="matrix(1.0567731,0,0,1.1295568,85.216916,-11.044554)"
       style="stroke:#250e0b;stroke-opacity:1"><path
         id="path13"
         style="fill:#ffffff;fill-opacity:1;stroke:#250e0b;stroke-width:0.952078;stroke-dasharray:none;stroke-opacity:1"
         d="m -32.587252,48.445794 a 14.496517,9.0564575 0 0 1 -11.712736,3.720331 14.496517,9.0564575 0 0 1 -11.249301,-3.344147 11.54949,11.132549 0 0 0 11.459951,9.75017 11.54949,11.132549 0 0 0 11.502086,-10.126354 z" /><path
         style="fill:#ffffff;fill-opacity:1;stroke:#250e0b;stroke-width:0.881062;stroke-dasharray:none;stroke-opacity:1"
         d="m -44.456476,52.088191 0.106066,6.310929"
         id="path14" /><path
         style="fill:#ffffff;fill-opacity:1;stroke:#250e0b;stroke-width:0.881062;stroke-dasharray:none;stroke-opacity:1"
         d="m -41.493976,51.825691 0.106066,6.310929"
         id="path15-0" /><path
         style="fill:#ffffff;fill-opacity:1;stroke:#250e0b;stroke-width:0.881062;stroke-dasharray:none;stroke-opacity:1"
         d="m -47.381476,51.713191 0.106066,6.310929"
         id="path16" /><path
         style="fill:#ffffff;fill-opacity:1;stroke:#250e0b;stroke-width:0.850745;stroke-dasharray:none;stroke-opacity:1"
         d="m -49.744215,51.189795 0.106544,5.857721"
         id="path17" /><path
         style="fill:#ffffff;fill-opacity:1;stroke:#250e0b;stroke-width:0.75733;stroke-dasharray:none;stroke-opacity:1"
         d="m -52.220012,50.594375 0.108138,4.573561"
         id="path18" /><path
         style="fill:#ffffff;fill-opacity:1;stroke:#250e0b;stroke-width:0.66979;stroke-dasharray:none;stroke-opacity:1"
         d="m -53.645984,49.886556 0.110082,3.514199"
         id="path19-9" /><path
         style="fill:#ffffff;fill-opacity:1;stroke:#250e0b;stroke-width:0.732455;stroke-dasharray:none;stroke-opacity:1"
         d="m -35.082561,49.923221 0.108236,4.274203"
         id="path20" /><path
         style="fill:#ffffff;fill-opacity:1;stroke:#250e0b;stroke-width:0.75733;stroke-dasharray:none;stroke-opacity:1"
         d="m -36.732512,51.011042 0.108138,4.573561"
         id="path21" /><path
         style="fill:#ffffff;fill-opacity:1;stroke:#250e0b;stroke-width:0.850745;stroke-dasharray:none;stroke-opacity:1"
         d="m -38.794215,51.456462 0.106544,5.857721"
         id="path22" /></g><rect
       style="fill:#1f1f1f;fill-opacity:1;stroke:#000000;stroke-width:1.39116;stroke-dasharray:none;stroke-opacity:1"
       id="rect65"
       width="4.0762033"
       height="68.298309"
       x="13.621622"
       y="7.6609569" /><path
       id="path1"
       style="fill:#5e251a;fill-opacity:1;stroke:#250e0b;stroke-width:2.14441;stroke-dasharray:none;stroke-opacity:1"
       d="m 18.32024,52.258651 c -0.08379,2.553094 -3.035005,5.615465 -6.833623,3.820289 -3.0289427,-1.431425 -5.9012592,-2.874457 -5.3723921,-5.843758 0.5325116,-2.989739 1.0295899,-6.013668 7.0335301,-3.981401 3.207327,1.08564 5.243415,3.844274 5.172485,6.00487 z"
       sodipodi:nodetypes="sssss" /></g></svg>
