<?xml version="1.0" encoding="UTF-8" standalone="no"?>
<!-- Created with Inkscape (http://www.inkscape.org/) -->

<svg
   width="300"
   height="300"
   viewBox="0 0 79.375 79.374999"
   version="1.1"
   id="svg3527"
   inkscape:version="1.4.2 (ebf0e940d0, 2025-05-08)"
   sodipodi:docname="ciclop[2].svg"
   xmlns:inkscape="http://www.inkscape.org/namespaces/inkscape"
   xmlns:sodipodi="http://sodipodi.sourceforge.net/DTD/sodipodi-0.dtd"
   xmlns="http://www.w3.org/2000/svg"
   xmlns:svg="http://www.w3.org/2000/svg">
  <sodipodi:namedview
     id="namedview3529"
     pagecolor="#505050"
     bordercolor="#ffffff"
     borderopacity="1"
     inkscape:pageshadow="0"
     inkscape:pageopacity="0"
     inkscape:pagecheckerboard="1"
     inkscape:document-units="px"
     showgrid="false"
     width="100mm"
     inkscape:zoom="9.7361696"
     inkscape:cx="138.915"
     inkscape:cy="277.47052"
     inkscape:window-width="1366"
     inkscape:window-height="697"
     inkscape:window-x="0"
     inkscape:window-y="0"
     inkscape:window-maximized="1"
     inkscape:current-layer="layer1"
     inkscape:snap-global="false"
     inkscape:showpageshadow="0"
     inkscape:deskcolor="#505050"
     showguides="true">
    <sodipodi:guide
       position="13.220497,81.21972"
       orientation="0,-1"
       id="guide68"
       inkscape:locked="false" />
  </sodipodi:namedview>
  <defs
     id="defs3524">
    <inkscape:path-effect
       effect="fillet_chamfer"
       id="path-effect68"
       is_visible="true"
       lpeversion="1"
       nodesatellites_param="F,0,0,1,0,0,0,1 @ F,0,0,1,0,0,0,1 @ F,0,0,1,0,0,0,1 @ F,0,0,1,0,0,0,1 @ F,0,0,1,0,0,0,1 @ F,0,0,1,0,0,0,1 @ F,0,0,1,0,0,0,1 @ F,0,0,1,0,0,0,1 @ F,0,0,1,0,0,0,1"
       radius="0"
       unit="px"
       method="auto"
       mode="F"
       chamfer_steps="1"
       flexible="false"
       use_knot_distance="true"
       apply_no_radius="true"
       apply_with_radius="true"
       only_selected="false"
       hide_knots="false" />
    <inkscape:path-effect
       effect="fillet_chamfer"
       id="path-effect66"
       is_visible="true"
       lpeversion="1"
       nodesatellites_param="F,0,0,1,0,0,0,1 @ F,0,0,1,0,0.44929322,0,1 @ F,0,0,1,0,0.44929322,0,1 @ F,0,0,1,0,0,0,1 @ F,0,0,1,0,0,0,1 @ F,0,0,1,0,0,0,1 @ F,0,0,1,0,0,0,1 @ F,0,0,1,0,0,0,1 @ F,0,0,1,0,0,0,1 @ F,0,0,1,0,0,0,1"
       radius="0"
       unit="px"
       method="auto"
       mode="F"
       chamfer_steps="1"
       flexible="false"
       use_knot_distance="true"
       apply_no_radius="true"
       apply_with_radius="true"
       only_selected="false"
       hide_knots="false" />
  </defs>
  <g
     inkscape:label="Camada 1"
     inkscape:groupmode="layer"
     id="layer1">
    <ellipse
       style="fill:#332d00;fill-opacity:0.660817;stroke:none;stroke-width:0.960487;stroke-linecap:round;stroke-linejoin:round;stroke-dasharray:none"
       id="path9"
       cx="45.261139"
       cy="76.749176"
       rx="17.878422"
       ry="2.8689942" />
    <path
       id="path4"
       style="fill:#00954e;fill-opacity:1;stroke:#002011;stroke-width:2.07497;stroke-miterlimit:4;stroke-dasharray:none;stroke-opacity:1"
       d="m 32.388848,40.233191 c 0.08744,0.912492 -0.11257,1.75204 -0.570538,2.144067 l -5.51594,4.818713 c -0.06969,0.10731 -0.926658,0.846752 -1.04528,0.880026 -0.133346,0.159257 -0.373619,0.164469 -0.5446,0.225834 l -7.270414,2.609679 c -0.767555,0.275504 -1.57922,-0.659864 -1.82043,-2.095761 l -0.183737,-1.086152 c -0.241214,-1.435898 0.183824,-2.813601 0.951381,-3.089096 l 6.68778,-2.173543 c 0.398793,-0.326945 0.476103,-0.456696 0.529489,-0.480275 l 5.829498,-5.482825 c 0.666126,-0.570214 1.746365,0.169211 2.262536,1.481662 l 0.391104,0.993336 c 0.16132,0.410125 0.259376,0.839589 0.299073,1.254368 z"
       sodipodi:nodetypes="cccccccccccccccc" />
    <path
       id="path74"
       style="fill:#00312b;fill-opacity:1;stroke:none;stroke-width:1.17353;stroke-miterlimit:4;stroke-dasharray:none;stroke-opacity:1"
       d="m 32.495263,40.337862 c 0.200234,0.502731 0.108232,1.044959 -0.293763,1.401732 l -4.829869,4.353232 c -0.05521,0.08185 -0.806745,0.75285 -0.919413,0.80579 -0.111408,0.129966 -0.347395,0.201253 -0.508118,0.285307 -5.25885,1.887825 -6.815613,2.45537 -6.815613,2.45537 0,0 -1.656323,1.186444 -2.073465,0.424692 l -0.316794,-0.575771 c -0.417145,-0.761653 -0.170836,-1.678958 0.550657,-2.056322 l 6.454841,-1.628396 c 1.371916,-0.544967 2.195282,-1.049126 2.852855,-1.520299 l 3.290517,-6.555006 c 0,0 0.974746,0.894108 1.647251,1.506262 l 0.509418,0.46319 c 0.21017,0.191287 0.360455,0.411728 0.451425,0.64026 z"
       sodipodi:nodetypes="cccccccccccccccc" />
    <rect
       style="fill:#1f1f1f;fill-opacity:1;stroke:#000000;stroke-width:0.951237;stroke-dasharray:none;stroke-opacity:1"
       id="rect65"
       width="3.7256422"
       height="34.937237"
       x="13.788917"
       y="35.561611"
       transform="rotate(-0.89115008)" />
    <path
       id="rect66"
       style="fill:#747474;fill-opacity:1;stroke:#191919;stroke-width:1.2677;stroke-dasharray:none;stroke-opacity:1"
       d="M 19.965715,1.860702 9.8650805,7.5663993 10.447966,14.529525 a 3.9976986,3.9798599 89.10885 0 1 0.95617,-0.132795 3.9976986,3.9798599 89.10885 0 1 4.041755,3.935649 3.9976986,3.9798599 89.10885 0 1 -3.917405,4.058677 3.9976986,3.9798599 89.10885 0 1 -0.424111,-0.01592 l 1.693781,20.232349 5.571706,-0.08667 z" />
    <path
       style="fill:#000000;fill-opacity:1;stroke:none;stroke-width:2.37207;stroke-linecap:round;stroke-linejoin:round;stroke-dasharray:none;stroke-opacity:1"
       d="m 14.848868,51.248088 0.04886,3.088414 3.333895,1.205049 -0.0639,-4.038694 z"
       id="path6" />
    <rect
       style="fill:#1f1f1f;fill-opacity:1;stroke:#000000;stroke-width:0.741347;stroke-miterlimit:4;stroke-dasharray:none;stroke-opacity:1"
       id="rect32"
       width="8.0756197"
       height="1.992898"
       x="11.639073"
       y="70.000114"
       ry="0.93281889"
       transform="rotate(-0.89115008)" />
    <rect
       style="fill:#1f1f1f;fill-opacity:1;stroke:#000000;stroke-width:1.15057;stroke-miterlimit:4;stroke-dasharray:none;stroke-opacity:1"
       id="rect33"
       width="9.6685581"
       height="2.6248901"
       x="10.834445"
       y="72.039627"
       ry="1.2286364"
       transform="rotate(-0.89115008)" />
    <path
       id="path78"
       style="fill:#464646;fill-opacity:1;stroke:none;stroke-width:1.03459;stroke-dasharray:none;stroke-opacity:1"
       d="m 19.303723,2.9691706 -5.043438,2.8065066 c 1.177006,4.0585167 0.400357,6.3749928 -0.196784,8.8515278 0.916147,0.64959 1.935619,2.306877 1.957467,3.724339 0.02204,1.417186 -0.635052,2.829873 -1.530378,3.507513 2.060742,6.676195 1.596207,13.391671 0.49586,20.117035 l 3.24367,-0.05045 z"
       sodipodi:nodetypes="cccccccc" />
    <path
       id="path1"
       style="fill:#00954e;fill-opacity:1;stroke:#002011;stroke-width:1.66951;stroke-dasharray:none;stroke-opacity:1"
       d="m 21.450442,47.960944 c -0.002,1.958665 -2.256702,4.381965 -5.303174,3.104825 -2.429197,-1.018369 -4.734934,-2.049692 -4.391773,-4.338842 0.345525,-2.304907 0.662194,-4.635098 5.45707,-3.233465 2.561439,0.748755 4.239563,2.809934 4.237877,4.467482 z"
       sodipodi:nodetypes="sssss" />
    <path
       id="path3"
       style="fill:#01ff85;fill-opacity:1;stroke:none;stroke-width:1.21834;stroke-dasharray:none;stroke-opacity:1"
       d="m 20.467557,47.000981 c -0.01066,1.297825 -1.834154,2.91397 -4.276835,2.081865 -1.947746,-0.663504 -3.796201,-1.336165 -3.509767,-2.854553 0.288409,-1.52884 0.553742,-3.074299 4.401127,-2.167816 2.055286,0.484244 3.39452,1.842201 3.385475,2.940504 z"
       sodipodi:nodetypes="sssss" />
    <path
       style="fill:#191919;fill-opacity:1;stroke:none;stroke-width:1.88304;stroke-linecap:round;stroke-linejoin:round;stroke-dasharray:none;stroke-opacity:1"
       d="m 11.992299,30.913237 1.694387,0.598753 -1.778138,1.006087 z"
       id="path10" />
    <path
       style="fill:#191919;fill-opacity:1;stroke:none;stroke-width:3.30148;stroke-linecap:round;stroke-linejoin:round;stroke-dasharray:none;stroke-opacity:1"
       d="m 12.097644,31.808492 2.698933,1.165855 -2.823663,1.934444 z"
       id="path11" />
    <path
       sodipodi:type="spiral"
       style="fill:#00954e;fill-opacity:1;fill-rule:evenodd;stroke:#00312b;stroke-width:1.165;stroke-dasharray:none;stroke-opacity:1"
       id="path86"
       sodipodi:cx="7.3788824"
       sodipodi:cy="11.990684"
       sodipodi:expansion="1"
       sodipodi:revolution="3"
       sodipodi:radius="7.1775723"
       sodipodi:argument="-18.677364"
       sodipodi:t0="0"
       d="m 7.3788824,11.990684 c 0.3545501,0.06166 0.091804,0.508347 -0.1024849,0.589285 -0.5265123,0.219336 -1.0101602,-0.312416 -1.0760864,-0.794255 -0.1179264,-0.861898 0.6785411,-1.533067 1.4860261,-1.562887 1.1850166,-0.04376 2.0659185,1.047626 2.0496877,2.177796 -0.021633,1.506339 -1.4174993,2.602675 -2.8695671,2.536489 C 5.0391786,14.853823 3.7250753,13.149428 3.8431686,11.375774 3.9861954,9.2276413 6.0011989,7.6945659 8.0962768,7.8656841 10.565254,8.067341 12.31801,10.39416 12.093167,12.810563 11.833578,15.600395 9.1941789,17.573289 6.4565181,17.294254 3.345814,16.977198 1.1524728,14.024706 1.4860261,10.965834 1.8602224,7.5342424 5.1261684,5.1202316 8.5062165,5.5085416 12.258711,5.9396393 14.893555,9.5193049 14.45031,13.220503"
       transform="matrix(0.21030906,-0.6588067,0.57417187,0.38027529,44.01044,27.043857)" />
    <path
       sodipodi:type="spiral"
       style="fill:#00954e;fill-opacity:1;fill-rule:evenodd;stroke:#00312b;stroke-width:1.165;stroke-dasharray:none;stroke-opacity:1"
       id="path85"
       sodipodi:cx="7.3788824"
       sodipodi:cy="11.990684"
       sodipodi:expansion="1"
       sodipodi:revolution="3"
       sodipodi:radius="7.1775723"
       sodipodi:argument="-18.677364"
       sodipodi:t0="0"
       d="m 7.3788824,11.990684 c 0.3545501,0.06166 0.091804,0.508347 -0.1024849,0.589285 -0.5265123,0.219336 -1.0101602,-0.312416 -1.0760864,-0.794255 -0.1179264,-0.861898 0.6785411,-1.533067 1.4860261,-1.562887 1.1850166,-0.04376 2.0659185,1.047626 2.0496877,2.177796 -0.021633,1.506339 -1.4174993,2.602675 -2.8695671,2.536489 C 5.0391786,14.853823 3.7250753,13.149428 3.8431686,11.375774 3.9861954,9.2276413 6.0011989,7.6945659 8.0962768,7.8656841 10.565254,8.067341 12.31801,10.39416 12.093167,12.810563 11.833578,15.600395 9.1941789,17.573289 6.4565181,17.294254 3.345814,16.977198 1.1524728,14.024706 1.4860261,10.965834 1.8602224,7.5342424 5.1261684,5.1202316 8.5062165,5.5085416 12.258711,5.9396393 14.893555,9.5193049 14.45031,13.220503"
       transform="matrix(-0.21030906,-0.6588067,-0.57417187,0.38027529,35.514441,24.883958)" />
    <path
       sodipodi:type="spiral"
       style="fill:#00954e;fill-opacity:1;fill-rule:evenodd;stroke:#00312b;stroke-width:1.165;stroke-dasharray:none;stroke-opacity:1"
       id="path83"
       sodipodi:cx="7.3788824"
       sodipodi:cy="11.990684"
       sodipodi:expansion="1"
       sodipodi:revolution="3"
       sodipodi:radius="7.1775723"
       sodipodi:argument="-18.677364"
       sodipodi:t0="0"
       d="m 7.3788824,11.990684 c 0.3545501,0.06166 0.091804,0.508347 -0.1024849,0.589285 -0.5265123,0.219336 -1.0101602,-0.312416 -1.0760864,-0.794255 -0.1179264,-0.861898 0.6785411,-1.533067 1.4860261,-1.562887 1.1850166,-0.04376 2.0659185,1.047626 2.0496877,2.177796 -0.021633,1.506339 -1.4174993,2.602675 -2.8695671,2.536489 C 5.0391786,14.853823 3.7250753,13.149428 3.8431686,11.375774 3.9861954,9.2276413 6.0011989,7.6945659 8.0962768,7.8656841 10.565254,8.067341 12.31801,10.39416 12.093167,12.810563 11.833578,15.600395 9.1941789,17.573289 6.4565181,17.294254 3.345814,16.977198 1.1524728,14.024706 1.4860261,10.965834 1.8602224,7.5342424 5.1261684,5.1202316 8.5062165,5.5085416 12.258711,5.9396393 14.893555,9.5193049 14.45031,13.220503"
       transform="matrix(-0.51443136,0.55245752,-0.50062699,-0.71566052,60.665213,11.071387)" />
    <path
       sodipodi:type="spiral"
       style="fill:#00954e;fill-opacity:1;fill-rule:evenodd;stroke:#00312b;stroke-width:1.165;stroke-dasharray:none;stroke-opacity:1"
       id="path82"
       sodipodi:cx="7.3788824"
       sodipodi:cy="11.990684"
       sodipodi:expansion="1"
       sodipodi:revolution="3"
       sodipodi:radius="7.1775723"
       sodipodi:argument="-18.677364"
       sodipodi:t0="0"
       d="m 7.3788824,11.990684 c 0.3545501,0.06166 0.091804,0.508347 -0.1024849,0.589285 -0.5265123,0.219336 -1.0101602,-0.312416 -1.0760864,-0.794255 -0.1179264,-0.861898 0.6785411,-1.533067 1.4860261,-1.562887 1.1850166,-0.04376 2.0659185,1.047626 2.0496877,2.177796 -0.021633,1.506339 -1.4174993,2.602675 -2.8695671,2.536489 C 5.0391786,14.853823 3.7250753,13.149428 3.8431686,11.375774 3.9861954,9.2276413 6.0011989,7.6945659 8.0962768,7.8656841 10.565254,8.067341 12.31801,10.39416 12.093167,12.810563 11.833578,15.600395 9.1941789,17.573289 6.4565181,17.294254 3.345814,16.977198 1.1524728,14.024706 1.4860261,10.965834 1.8602224,7.5342424 5.1261684,5.1202316 8.5062165,5.5085416 12.258711,5.9396393 14.893555,9.5193049 14.45031,13.220503"
       transform="matrix(-0.29142518,0.73448135,-0.79562976,-0.42395608,56.142141,5.0883121)" />
    <path
       sodipodi:type="spiral"
       style="fill:#00954e;fill-opacity:1;fill-rule:evenodd;stroke:#00312b;stroke-width:1.165;stroke-dasharray:none;stroke-opacity:1"
       id="path81"
       sodipodi:cx="7.3788824"
       sodipodi:cy="11.990684"
       sodipodi:expansion="1"
       sodipodi:revolution="3"
       sodipodi:radius="7.1775723"
       sodipodi:argument="-18.677364"
       sodipodi:t0="0"
       d="m 7.3788824,11.990684 c 0.3545501,0.06166 0.091804,0.508347 -0.1024849,0.589285 -0.5265123,0.219336 -1.0101602,-0.312416 -1.0760864,-0.794255 -0.1179264,-0.861898 0.6785411,-1.533067 1.4860261,-1.562887 1.1850166,-0.04376 2.0659185,1.047626 2.0496877,2.177796 -0.021633,1.506339 -1.4174993,2.602675 -2.8695671,2.536489 C 5.0391786,14.853823 3.7250753,13.149428 3.8431686,11.375774 3.9861954,9.2276413 6.0011989,7.6945659 8.0962768,7.8656841 10.565254,8.067341 12.31801,10.39416 12.093167,12.810563 11.833578,15.600395 9.1941789,17.573289 6.4565181,17.294254 3.345814,16.977198 1.1524728,14.024706 1.4860261,10.965834 1.8602224,7.5342424 5.1261684,5.1202316 8.5062165,5.5085416 12.258711,5.9396393 14.893555,9.5193049 14.45031,13.220503"
       transform="matrix(-0.29142518,0.73448135,-0.79562976,-0.42395608,48.913511,5.3600651)" />
    <path
       sodipodi:type="spiral"
       style="fill:#00954e;fill-opacity:1;fill-rule:evenodd;stroke:#00312b;stroke-width:1.165;stroke-dasharray:none;stroke-opacity:1"
       id="path80"
       sodipodi:cx="7.3788824"
       sodipodi:cy="11.990684"
       sodipodi:expansion="1"
       sodipodi:revolution="3"
       sodipodi:radius="7.1775723"
       sodipodi:argument="-18.677364"
       sodipodi:t0="0"
       d="m 7.3788824,11.990684 c 0.3545501,0.06166 0.091804,0.508347 -0.1024849,0.589285 -0.5265123,0.219336 -1.0101602,-0.312416 -1.0760864,-0.794255 -0.1179264,-0.861898 0.6785411,-1.533067 1.4860261,-1.562887 1.1850166,-0.04376 2.0659185,1.047626 2.0496877,2.177796 -0.021633,1.506339 -1.4174993,2.602675 -2.8695671,2.536489 C 5.0391786,14.853823 3.7250753,13.149428 3.8431686,11.375774 3.9861954,9.2276413 6.0011989,7.6945659 8.0962768,7.8656841 10.565254,8.067341 12.31801,10.39416 12.093167,12.810563 11.833578,15.600395 9.1941789,17.573289 6.4565181,17.294254 3.345814,16.977198 1.1524728,14.024706 1.4860261,10.965834 1.8602224,7.5342424 5.1261684,5.1202316 8.5062165,5.5085416 12.258711,5.9396393 14.893555,9.5193049 14.45031,13.220503"
       transform="matrix(-0.29142518,0.73448135,-0.79562976,-0.42395608,42.44579,5.3057145)" />
    <path
       sodipodi:type="spiral"
       style="fill:#00954e;fill-opacity:1;fill-rule:evenodd;stroke:#00312b;stroke-width:1.165;stroke-dasharray:none;stroke-opacity:1"
       id="path7"
       sodipodi:cx="7.3788824"
       sodipodi:cy="11.990684"
       sodipodi:expansion="1"
       sodipodi:revolution="3"
       sodipodi:radius="7.1775723"
       sodipodi:argument="-18.677364"
       sodipodi:t0="0"
       d="m 7.3788824,11.990684 c 0.3545501,0.06166 0.091804,0.508347 -0.1024849,0.589285 -0.5265123,0.219336 -1.0101602,-0.312416 -1.0760864,-0.794255 -0.1179264,-0.861898 0.6785411,-1.533067 1.4860261,-1.562887 1.1850166,-0.04376 2.0659185,1.047626 2.0496877,2.177796 -0.021633,1.506339 -1.4174993,2.602675 -2.8695671,2.536489 C 5.0391786,14.853823 3.7250753,13.149428 3.8431686,11.375774 3.9861954,9.2276413 6.0011989,7.6945659 8.0962768,7.8656841 10.565254,8.067341 12.31801,10.39416 12.093167,12.810563 11.833578,15.600395 9.1941789,17.573289 6.4565181,17.294254 3.345814,16.977198 1.1524728,14.024706 1.4860261,10.965834 1.8602224,7.5342424 5.1261684,5.1202316 8.5062165,5.5085416 12.258711,5.9396393 14.893555,9.5193049 14.45031,13.220503"
       transform="matrix(-0.29169973,0.72016159,-0.79637931,-0.41569045,38.095092,7.91544)" />
    <path
       id="path39"
       style="fill:#774600;stroke:#5c1700;stroke-width:1.24354;stroke-opacity:1"
       d="m 50.401492,53.453814 0.05435,0.298928 v 3.831718 l 0.543506,-1.38594 z"
       sodipodi:nodetypes="ccccc" />
    <path
       id="rect39"
       style="fill:#774600;stroke:#5c1700;stroke-width:1.24354;stroke-opacity:1"
       d="m 28.914519,53.616866 -0.05435,0.298928 v 3.831718 l -0.543506,-1.38594 z"
       sodipodi:nodetypes="ccccc" />
    <g
       id="g21"
       transform="matrix(-1,0,0,1,78.645185,0.76863355)">
      <ellipse
         style="fill:#00954e;fill-opacity:1;stroke:#002011;stroke-width:1.82416;stroke-dasharray:none;stroke-opacity:1"
         id="ellipse18"
         cx="29.934484"
         cy="10.026855"
         rx="4.9577522"
         ry="7.5484438"
         transform="matrix(0.97570939,0.21906891,-0.26079045,0.96539543,0,0)" />
      <ellipse
         style="fill:#00312b;fill-opacity:1;stroke:none;stroke-width:0.854978;stroke-dasharray:none;stroke-opacity:1"
         id="ellipse19"
         cx="29.958776"
         cy="5.5897098"
         rx="3.3862095"
         ry="5.1364975"
         transform="matrix(0.91054053,0.41341981,-0.27194541,0.96231268,0,0)" />
      <ellipse
         style="fill:#00312b;fill-opacity:1;stroke:#050d0d;stroke-width:0.949448;stroke-dasharray:none;stroke-opacity:1"
         id="ellipse20"
         cx="32.170826"
         cy="10.096696"
         rx="4.4518371"
         ry="4.8180857"
         transform="matrix(0.97570939,0.21906891,-0.26079045,0.96539543,0,0)" />
      <ellipse
         style="fill:#081616;fill-opacity:1;stroke:none;stroke-width:0.433649;stroke-dasharray:none;stroke-opacity:1"
         id="ellipse21"
         cx="30.804125"
         cy="5.4019146"
         rx="1.741599"
         ry="2.5692153"
         transform="matrix(0.91610884,0.40092966,-0.28133932,0.95960835,0,0)" />
    </g>
    <rect
       style="fill:#00954e;fill-opacity:1;stroke:#002011;stroke-width:1.64082;stroke-dasharray:none;stroke-opacity:1"
       id="rect63"
       width="9.1903296"
       height="20.565563"
       x="30.215885"
       y="55.116634"
       ry="2.6771157" />
    <path
       id="path5"
       style="fill:#00954e;fill-opacity:1;stroke:#002011;stroke-width:1.72956;stroke-miterlimit:4;stroke-dasharray:none;stroke-opacity:1"
       d="m 46.848912,38.096992 c -0.47892,0.755069 -0.59236,1.636163 -0.220067,2.289852 l 4.444143,7.95974 c 0.03695,0.141929 0.731221,1.370378 0.855852,1.47886 0.08976,0.23054 0.367903,0.394851 0.542013,0.563162 l 7.403237,7.157025 c 0.78158,0.755576 2.114768,0.461386 2.989248,-0.657944 l 0.662971,-0.845841 c 0.874479,-1.119331 0.947731,-2.629531 0.166146,-3.385104 L 56.788733,46.27556 c -0.330161,-0.556371 -0.366755,-0.723369 -0.419292,-0.779859 l -4.743274,-8.719735 c -0.54153,-0.950807 -1.899411,-1.049915 -3.043652,-0.223317 l -0.866531,0.625334 c -0.357564,0.25832 -0.649364,0.575847 -0.866996,0.919104 z"
       sodipodi:nodetypes="cccccccccccccccc" />
    <path
       id="path79"
       style="fill:#00312b;fill-opacity:1;stroke:none;stroke-width:1.32281;stroke-miterlimit:4;stroke-dasharray:none;stroke-opacity:1"
       d="m 47.441035,37.063952 c -0.433925,0.384543 -0.591589,0.977611 -0.351215,1.565545 l 2.857212,7.130261 c 0.01785,0.113438 0.465369,1.216589 0.554466,1.334528 0.05225,0.193888 0.25716,0.401494 0.380318,0.578231 4.427935,4.924277 3.570111,5.081656 5.236534,7.515499 0.55284,0.793423 1.61952,1.015263 2.39162,0.498491 l 0.585117,-0.389767 c 0.772079,-0.516711 0.947426,-1.572528 0.394589,-2.365948 l -5.752997,-5.35849 c -1.130916,-1.336875 -1.727871,-2.315511 -2.172981,-3.165313 l -0.279442,-6.739047 c -0.349651,-0.855183 -1.404959,-1.366114 -2.365345,-1.146084 l -0.727251,0.166161 c -0.30013,0.06874 -0.553371,0.201178 -0.750572,0.376015 z"
       sodipodi:nodetypes="cccccccccccccccc" />
    <rect
       style="fill:#00954e;fill-opacity:1;stroke:#002011;stroke-width:1.52203;stroke-dasharray:none;stroke-opacity:1"
       id="rect9"
       width="7.8623667"
       height="20.684111"
       x="42.250404"
       y="57.944618"
       ry="2.6925476" />
    <rect
       style="fill:none;fill-opacity:1;stroke:#002011;stroke-width:4.511;stroke-dasharray:none;stroke-opacity:1"
       id="rect1"
       width="8.7918472"
       height="16.762125"
       x="35.101086"
       y="26.468765" />
    <rect
       style="fill:#00954e;fill-opacity:1;stroke:#002011;stroke-width:2.05966;stroke-opacity:1"
       id="rect2"
       width="19.661329"
       height="24.869091"
       x="30.205996"
       y="36.356693" />
    <path
       id="path75"
       style="fill:#00954e;fill-opacity:1;stroke-width:0.858754"
       d="m 38.748275,31.676383 h 1.251921 c 1.821976,0 4.861458,-0.11572 4.444599,0.495646 0,0 0.757925,3.548742 0.757925,5.178995 0,1.155722 -1.624389,0.937612 -5.202524,0.937612 h -1.251921 c -1.821974,0 -4.425649,0.03885 -4.425649,-0.438001 0,-1.630252 0.549495,-5.544095 0.549495,-5.544095 0,-0.476855 2.05418,-0.630157 3.876154,-0.630157 z"
       sodipodi:nodetypes="sssssssss" />
    <path
       id="ellipse24"
       style="fill:#00312b;stroke-width:0.808785"
       d="m 44.872166,32.934239 c 0,2.884842 -2.219949,2.804227 -5.063678,2.804227 -2.843729,10e-7 -5.234375,0.08062 -5.234375,-2.804227 0,-2.884842 2.305298,-5.223469 5.149027,-5.223469 2.843728,0 5.149026,2.338627 5.149026,5.223469 z"
       sodipodi:nodetypes="sssss" />
    <g
       id="g17">
      <ellipse
         style="fill:#00954e;fill-opacity:1;stroke:#002011;stroke-width:1.82416;stroke-dasharray:none;stroke-opacity:1"
         id="ellipse14"
         cx="29.934484"
         cy="10.026855"
         rx="4.9577522"
         ry="7.5484438"
         transform="matrix(0.97570939,0.21906891,-0.26079045,0.96539543,0,0)" />
      <ellipse
         style="fill:#00312b;fill-opacity:1;stroke:none;stroke-width:0.854978;stroke-dasharray:none;stroke-opacity:1"
         id="ellipse16"
         cx="29.958776"
         cy="5.5897098"
         rx="3.3862095"
         ry="5.1364975"
         transform="matrix(0.91054053,0.41341981,-0.27194541,0.96231268,0,0)" />
      <ellipse
         style="fill:#00312b;fill-opacity:1;stroke:#050d0d;stroke-width:0.949448;stroke-dasharray:none;stroke-opacity:1"
         id="ellipse15"
         cx="32.170826"
         cy="10.096696"
         rx="4.4518371"
         ry="4.8180857"
         transform="matrix(0.97570939,0.21906891,-0.26079045,0.96539543,0,0)" />
      <ellipse
         style="fill:#081616;fill-opacity:1;stroke:none;stroke-width:0.433649;stroke-dasharray:none;stroke-opacity:1"
         id="ellipse17"
         cx="30.804125"
         cy="5.4019146"
         rx="1.741599"
         ry="2.5692153"
         transform="matrix(0.91610884,0.40092966,-0.28133932,0.95960835,0,0)" />
    </g>
    <ellipse
       style="fill:#00473e;fill-opacity:1;stroke:#002011;stroke-width:2.089;stroke-dasharray:none;stroke-opacity:1"
       id="path2"
       cx="39.419746"
       cy="18.640125"
       rx="12.683779"
       ry="14.146383" />
    <ellipse
       style="fill:#00954e;fill-opacity:1;stroke:none;stroke-width:0.817883;stroke-dasharray:none;stroke-opacity:1"
       id="path66"
       cx="41.83997"
       cy="16.878059"
       rx="9.0887699"
       ry="11.370191" />
    <ellipse
       style="fill:#07ff86;fill-opacity:1;stroke:none;stroke-width:2.089;stroke-dasharray:none;stroke-opacity:1"
       id="path22"
       cx="33.964279"
       cy="32.17688"
       rx="5.4572983"
       ry="8.1090841"
       transform="rotate(-26.103605)" />
    <path
       id="path15"
       style="fill:#ffffff;stroke:#163333;stroke-width:0.988493;stroke-dasharray:none;stroke-opacity:1"
       d="m 48.533331,18.110808 c 0,2.822845 -2.313362,6.433079 -5.167039,6.433079 -2.853674,-1e-6 -5.167036,-3.610234 -5.167036,-6.433079 0,-2.822844 2.418813,-6.609325 5.272488,-6.609326 2.853675,0 5.061587,3.786482 5.061587,6.609326 z"
       sodipodi:nodetypes="sssss" />
    <path
       id="path19"
       style="fill:#17ffea;fill-opacity:1;stroke:#163333;stroke-width:1.2856;stroke-dasharray:none;stroke-opacity:1"
       d="m 47.710644,19.028504 c 0,1.954028 -1.492729,4.453103 -3.334093,4.453103 -1.841372,0 -3.334096,-2.499075 -3.334096,-4.453103 0,-1.954028 1.560768,-4.575108 3.402135,-4.575108 1.841371,0 3.266054,2.62108 3.266054,4.575108 z"
       sodipodi:nodetypes="sssss" />
    <path
       id="path20"
       style="fill:#ffffff;fill-opacity:0.767531;stroke:none;stroke-width:0.208472"
       d="m 47.366333,15.936884 c 0,0.7748 -0.617278,1.765718 -1.378727,1.765718 -0.761446,0 -1.378725,-0.990918 -1.378725,-1.765718 0,-0.774798 0.645413,-1.814092 1.406861,-1.814092 0.761449,0 1.350591,1.039294 1.350591,1.814092 z"
       sodipodi:nodetypes="sssss" />
    <path
       id="rect10"
       style="fill:#00312b;fill-opacity:1;stroke-width:0.857918"
       d="m 34.18466,66.875444 h 1.21897 c 1.774015,0 3.202195,0.393512 3.202195,0.882303 v 5.013198 c 0,1.18465 0.281752,0.882292 -3.202195,0.882292 h -1.21897 c -1.774015,0 -3.202195,-0.393502 -3.202195,-0.882292 v -5.013198 c 0,-0.488791 1.42818,-0.882303 3.202195,-0.882303 z"
       sodipodi:nodetypes="sssssssss" />
    <path
       id="path21"
       style="fill:#00473f;fill-opacity:1;stroke-width:0.715251"
       d="m 45.664728,70.800475 h 1.033766 c 1.504486,0 2.715677,0.322518 2.715677,0.723126 v 4.108758 c 0,0.970925 0.238947,0.723115 -2.715677,0.723115 h -1.033766 c -1.504484,0 -2.715677,-0.322508 -2.715677,-0.723115 v -4.108758 c 0,-0.400608 1.211193,-0.723126 2.715677,-0.723126 z"
       sodipodi:nodetypes="sssssssss" />
    <path
       sodipodi:type="spiral"
       style="fill:#07ff86;fill-opacity:1;fill-rule:evenodd;stroke:#006836;stroke-width:1.165;stroke-dasharray:none;stroke-opacity:1"
       id="path8"
       sodipodi:cx="7.3788824"
       sodipodi:cy="11.990684"
       sodipodi:expansion="1"
       sodipodi:revolution="3"
       sodipodi:radius="7.1775723"
       sodipodi:argument="-18.677364"
       sodipodi:t0="0"
       d="m 7.3788824,11.990684 c 0.3545501,0.06166 0.091804,0.508347 -0.1024849,0.589285 -0.5265123,0.219336 -1.0101602,-0.312416 -1.0760864,-0.794255 -0.1179264,-0.861898 0.6785411,-1.533067 1.4860261,-1.562887 1.1850166,-0.04376 2.0659185,1.047626 2.0496877,2.177796 -0.021633,1.506339 -1.4174993,2.602675 -2.8695671,2.536489 C 5.0391786,14.853823 3.7250753,13.149428 3.8431686,11.375774 3.9861954,9.2276413 6.0011989,7.6945659 8.0962768,7.8656841 10.565254,8.067341 12.31801,10.39416 12.093167,12.810563 11.833578,15.600395 9.1941789,17.573289 6.4565181,17.294254 3.345814,16.977198 1.1524728,14.024706 1.4860261,10.965834 1.8602224,7.5342424 5.1261684,5.1202316 8.5062165,5.5085416 12.258711,5.9396393 14.893555,9.5193049 14.45031,13.220503"
       transform="matrix(0.70129202,-0.00776254,-0.01830601,-0.7320009,20.787159,19.342022)" />
    <path
       id="path26"
       style="fill:#00473f;fill-opacity:1;stroke:none;stroke-width:1.89441;stroke-dasharray:none;stroke-opacity:1"
       d="m 31.426321,39.977386 c -0.0032,-0.105259 -0.15278,2.77278 -0.256476,2.849377 l -0.02775,13.92618 0.0066,0.01537 c 0,0 5.650118,-6.998276 5.723154,-11.752115 -0.955537,0.109495 -2.751682,0.973928 -3.711144,-0.300476 -1.054047,-1.400038 -1.598275,0.236665 -1.660019,-2.275569 z"
       sodipodi:nodetypes="sccccscs" />
    <path
       style="fill:none;fill-opacity:1;stroke:#002011;stroke-width:1.96102;stroke-linecap:round;stroke-linejoin:round;stroke-dasharray:none;stroke-opacity:1"
       d="m 30.337369,36.997853 c 0,0 -0.353001,4.942063 2.010482,6.302078 1.802606,1.037272 6.567951,0.630509 6.567951,0.630509"
       id="path23"
       sodipodi:nodetypes="csc" />
    <path
       id="path27"
       style="fill:#00473f;fill-opacity:1;stroke:none;stroke-width:1.58339;stroke-dasharray:none;stroke-opacity:1"
       d="m 48.820912,38.736902 c 0.08202,0.05515 0.163031,0.117691 0.242849,0.187494 l -0.23036,14.857542 -0.0053,0.01371 c 0,0 -3.964369,-5.556884 -3.962061,-9.82025 0.742969,0.108509 2.113337,0.724557 2.876596,-0.407768 0.838502,-1.243954 0.998918,-2.57878 1.078299,-4.830729 z m -4.333442,6.682277 c 0.02312,0.02311 0.04643,0.04558 0.06994,0.06739 l -0.08302,0.172138 c 0.0039,-0.07996 0.0082,-0.159819 0.01303,-0.239537 z"
       sodipodi:nodetypes="cccccscscccs" />
    <path
       style="fill:none;fill-opacity:1;stroke:#002011;stroke-width:1.55973;stroke-linecap:round;stroke-linejoin:round;stroke-dasharray:none;stroke-opacity:1"
       d="m 48.888154,36.636994 c 0,0 0.239296,5.15701 -1.362884,6.576175 -1.22197,1.082385 -4.452349,0.657932 -4.452349,0.657932"
       id="path24"
       sodipodi:nodetypes="csc" />
    <g
       id="g29"
       transform="matrix(1.217431,0,0,-0.93816907,-7.8599618,83.901082)">
      <ellipse
         style="fill:#002011;fill-opacity:1;stroke:none;stroke-width:1.6332;stroke-dasharray:none;stroke-opacity:1"
         id="path28"
         cx="35.288403"
         cy="41.778561"
         rx="1.6525621"
         ry="1.2682455" />
      <ellipse
         style="fill:#000f08;fill-opacity:1;stroke:none;stroke-width:1.24266;stroke-dasharray:none;stroke-opacity:1"
         id="ellipse28"
         cx="35.326832"
         cy="41.804771"
         rx="1.1913821"
         ry="1.0184395" />
      <ellipse
         style="fill:#002011;fill-opacity:1;stroke:none;stroke-width:0.946814;stroke-dasharray:none;stroke-opacity:1"
         id="ellipse29"
         cx="35.04314"
         cy="41.491093"
         rx="0.87090665"
         ry="0.80879658" />
    </g>
    <g
       id="g32"
       transform="matrix(-0.88347852,0,0,-1.0038641,77.87347,86.205891)">
      <ellipse
         style="fill:#002011;fill-opacity:1;stroke:none;stroke-width:1.6332;stroke-dasharray:none;stroke-opacity:1"
         id="ellipse30"
         cx="35.288403"
         cy="41.778561"
         rx="1.6525621"
         ry="1.2682455" />
      <ellipse
         style="fill:#000f08;fill-opacity:1;stroke:none;stroke-width:1.24266;stroke-dasharray:none;stroke-opacity:1"
         id="ellipse31"
         cx="35.326832"
         cy="41.804771"
         rx="1.1913821"
         ry="1.0184395" />
      <ellipse
         style="fill:#002011;fill-opacity:1;stroke:none;stroke-width:0.946814;stroke-dasharray:none;stroke-opacity:1"
         id="ellipse32"
         cx="35.04314"
         cy="41.491093"
         rx="0.87090665"
         ry="0.80879658" />
    </g>
    <g
       id="g35"
       transform="matrix(0.60465116,0,0,-1,20.393569,97.507707)">
      <ellipse
         style="fill:#002011;fill-opacity:1;stroke:none;stroke-width:1.6332;stroke-dasharray:none;stroke-opacity:1"
         id="ellipse33"
         cx="35.288403"
         cy="41.778561"
         rx="1.6525621"
         ry="1.2682455" />
      <ellipse
         style="fill:#000f08;fill-opacity:1;stroke:none;stroke-width:1.24266;stroke-dasharray:none;stroke-opacity:1"
         id="ellipse34"
         cx="35.326832"
         cy="41.804771"
         rx="1.1913821"
         ry="1.0184395" />
      <ellipse
         style="fill:#002011;fill-opacity:1;stroke:none;stroke-width:0.946814;stroke-dasharray:none;stroke-opacity:1"
         id="ellipse35"
         cx="35.04314"
         cy="41.491093"
         rx="0.87090665"
         ry="0.80879658" />
    </g>
    <path
       id="rect38"
       style="fill:#ff6b3c;fill-opacity:1;stroke:#5c1700;stroke-width:1.24354;stroke-dasharray:none;stroke-opacity:1"
       d="m 28.250989,59.466654 c 0,0 0.407968,7.055317 0.701249,10.156486 0.180295,1.906453 -0.999502,3.455244 3.246931,4.264545 0.787935,-0.437773 2.044827,-0.783741 2.666851,-0.783635 0.534772,0.0024 1.285407,0.497491 1.624338,1.115145 0.338675,-0.665211 1.572692,-1.082962 2.132311,-1.082925 0.687124,0.0018 1.149912,0.69922 2.072735,1.297751 0.260523,-0.211203 0.579259,-1.137795 0.875702,-1.13927 0.383153,0.0022 0.755728,0.187875 1.062984,0.529683 0.319912,-0.827239 0.911062,-1.336838 1.55081,-1.336869 0.478272,3.58e-4 0.202844,1.536421 0.539057,2.04433 0.815773,-0.217876 1.482437,-1.926902 1.920224,-1.929092 0.310247,3.92e-4 1.104259,1.479889 1.373856,1.709131 0.532115,-2.068568 1.303543,-2.409112 2.304013,-1.384378 0.273495,-0.273592 0.263954,-1.791669 0.334806,-2.107073 0.925106,-4.11823 0.277502,-11.353829 0.277502,-11.353829 z"
       sodipodi:nodetypes="csccccccccccccscc" />
    <path
       id="path40"
       style="fill:#dd3500;fill-opacity:1;stroke:none;stroke-width:1.54033;stroke-dasharray:none"
       d="m 28.794612,59.112166 c 7.485852,2.248922 14.756111,1.897244 21.711242,-0.0096 v 3.7771 c -12.038461,3.684217 -22.064526,2.390082 -21.44222,-0.115303 z"
       sodipodi:nodetypes="ccccc" />
    <path
       id="rect37"
       style="fill:#dd3500;stroke:#5c1700;stroke-width:1.46526249;stroke-dasharray:none;stroke-opacity:1;fill-opacity:1"
       d="m 28.393576,57.254637 c 7.787287,1.956283 15.230362,1.658725 22.465557,0 v 3.285608 c -7.403139,1.775808 -14.878328,2.053084 -22.465557,0 z"
       sodipodi:nodetypes="ccccc" />
    <path
       id="path41"
       style="fill:#ff6b3c;fill-opacity:1;stroke:none;stroke-width:1.33441;stroke-dasharray:none"
       d="m 29.196588,58.184106 -0.01291,2.0522 c 3.290887,0.626326 6.557927,1.441903 10.193196,1.382486 l -1.260793,-1.757709 c -3.40012,-0.109915 -5.418178,-1.231525 -8.919482,-1.676977 z"
       sodipodi:nodetypes="cccccc" />
    <rect
       style="fill:#dd3500;fill-opacity:1;stroke:#5c1700;stroke-width:1.44639;stroke-dasharray:none;stroke-opacity:1"
       id="rect41"
       width="2.0070887"
       height="5.4610248"
       x="45.07618"
       y="48.276203"
       ry="1.0922049"
       transform="matrix(0.97526259,0.22104948,-0.18092051,0.98349772,0,0)" />
    <path
       sodipodi:type="spiral"
       style="fill:#00954e;fill-opacity:1;fill-rule:evenodd;stroke:#00312b;stroke-width:1.165;stroke-dasharray:none;stroke-opacity:1"
       id="path84"
       sodipodi:cx="7.3788824"
       sodipodi:cy="11.990684"
       sodipodi:expansion="1"
       sodipodi:revolution="3"
       sodipodi:radius="7.1775723"
       sodipodi:argument="-18.677364"
       sodipodi:t0="0"
       d="m 7.3788824,11.990684 c 0.3545501,0.06166 0.091804,0.508347 -0.1024849,0.589285 -0.5265123,0.219336 -1.0101602,-0.312416 -1.0760864,-0.794255 -0.1179264,-0.861898 0.6785411,-1.533067 1.4860261,-1.562887 1.1850166,-0.04376 2.0659185,1.047626 2.0496877,2.177796 -0.021633,1.506339 -1.4174993,2.602675 -2.8695671,2.536489 C 5.0391786,14.853823 3.7250753,13.149428 3.8431686,11.375774 3.9861954,9.2276413 6.0011989,7.6945659 8.0962768,7.8656841 10.565254,8.067341 12.31801,10.39416 12.093167,12.810563 11.833578,15.600395 9.1941789,17.573289 6.4565181,17.294254 3.345814,16.977198 1.1524728,14.024706 1.4860261,10.965834 1.8602224,7.5342424 5.1261684,5.1202316 8.5062165,5.5085416 12.258711,5.9396393 14.893555,9.5193049 14.45031,13.220503"
       transform="matrix(-0.45502258,0.43213374,-0.4428124,-0.55979156,62.663003,12.205945)" />
    <path
       sodipodi:type="spiral"
       style="fill:#07ff86;fill-opacity:1;fill-rule:evenodd;stroke:#006836;stroke-width:1.165;stroke-dasharray:none;stroke-opacity:1"
       id="path60"
       sodipodi:cx="7.3788824"
       sodipodi:cy="11.990684"
       sodipodi:expansion="1"
       sodipodi:revolution="3"
       sodipodi:radius="7.1775723"
       sodipodi:argument="-18.677364"
       sodipodi:t0="0"
       d="m 7.3788824,11.990684 c 0.3545501,0.06166 0.091804,0.508347 -0.1024849,0.589285 -0.5265123,0.219336 -1.0101602,-0.312416 -1.0760864,-0.794255 -0.1179264,-0.861898 0.6785411,-1.533067 1.4860261,-1.562887 1.1850166,-0.04376 2.0659185,1.047626 2.0496877,2.177796 -0.021633,1.506339 -1.4174993,2.602675 -2.8695671,2.536489 C 5.0391786,14.853823 3.7250753,13.149428 3.8431686,11.375774 3.9861954,9.2276413 6.0011989,7.6945659 8.0962768,7.8656841 10.565254,8.067341 12.31801,10.39416 12.093167,12.810563 11.833578,15.600395 9.1941789,17.573289 6.4565181,17.294254 3.345814,16.977198 1.1524728,14.024706 1.4860261,10.965834 1.8602224,7.5342424 5.1261684,5.1202316 8.5062165,5.5085416 12.258711,5.9396393 14.893555,9.5193049 14.45031,13.220503"
       transform="matrix(-0.60400417,-0.22067304,0.27349361,-0.72877663,55.525316,23.267568)"
       inkscape:transform-center-x="0.92234406"
       inkscape:transform-center-y="-2.6133833" />
    <path
       style="fill:#07ff86;fill-opacity:1;stroke:#002011;stroke-width:1.53556;stroke-dasharray:none;stroke-opacity:1"
       d="m 38.214713,10.87503 2.567481,1.776196 4.546585,0.08074 3.423309,-2.179875"
       id="path94" />
    <path
       sodipodi:type="spiral"
       style="fill:#07ff86;fill-opacity:1;fill-rule:evenodd;stroke:#006836;stroke-width:1.165;stroke-dasharray:none;stroke-opacity:1"
       id="path61"
       sodipodi:cx="7.3788824"
       sodipodi:cy="11.990684"
       sodipodi:expansion="1"
       sodipodi:revolution="3"
       sodipodi:radius="7.1775723"
       sodipodi:argument="-18.677364"
       sodipodi:t0="0"
       d="m 7.3788824,11.990684 c 0.3545501,0.06166 0.091804,0.508347 -0.1024849,0.589285 -0.5265123,0.219336 -1.0101602,-0.312416 -1.0760864,-0.794255 -0.1179264,-0.861898 0.6785411,-1.533067 1.4860261,-1.562887 1.1850166,-0.04376 2.0659185,1.047626 2.0496877,2.177796 -0.021633,1.506339 -1.4174993,2.602675 -2.8695671,2.536489 C 5.0391786,14.853823 3.7250753,13.149428 3.8431686,11.375774 3.9861954,9.2276413 6.0011989,7.6945659 8.0962768,7.8656841 10.565254,8.067341 12.31801,10.39416 12.093167,12.810563 11.833578,15.600395 9.1941789,17.573289 6.4565181,17.294254 3.345814,16.977198 1.1524728,14.024706 1.4860261,10.965834 1.8602224,7.5342424 5.1261684,5.1202316 8.5062165,5.5085416 12.258711,5.9396393 14.893555,9.5193049 14.45031,13.220503"
       transform="matrix(0.41619984,-0.56448954,-0.5953537,-0.42627972,33.742799,19.346591)" />
    <path
       sodipodi:type="spiral"
       style="fill:#07ff86;fill-opacity:1;fill-rule:evenodd;stroke:#006836;stroke-width:1.165;stroke-dasharray:none;stroke-opacity:1"
       id="path72"
       sodipodi:cx="7.3788824"
       sodipodi:cy="11.990684"
       sodipodi:expansion="1"
       sodipodi:revolution="3"
       sodipodi:radius="7.1775723"
       sodipodi:argument="-18.677364"
       sodipodi:t0="0"
       d="m 7.3788824,11.990684 c 0.3545501,0.06166 0.091804,0.508347 -0.1024849,0.589285 -0.5265123,0.219336 -1.0101602,-0.312416 -1.0760864,-0.794255 -0.1179264,-0.861898 0.6785411,-1.533067 1.4860261,-1.562887 1.1850166,-0.04376 2.0659185,1.047626 2.0496877,2.177796 -0.021633,1.506339 -1.4174993,2.602675 -2.8695671,2.536489 C 5.0391786,14.853823 3.7250753,13.149428 3.8431686,11.375774 3.9861954,9.2276413 6.0011989,7.6945659 8.0962768,7.8656841 10.565254,8.067341 12.31801,10.39416 12.093167,12.810563 11.833578,15.600395 9.1941789,17.573289 6.4565181,17.294254 3.345814,16.977198 1.1524728,14.024706 1.4860261,10.965834 1.8602224,7.5342424 5.1261684,5.1202316 8.5062165,5.5085416 12.258711,5.9396393 14.893555,9.5193049 14.45031,13.220503"
       transform="matrix(0.61483457,-0.00675805,-0.01604919,-0.63727799,29.60105,14.134287)" />
    <path
       sodipodi:type="spiral"
       style="fill:#07ff86;fill-opacity:1;fill-rule:evenodd;stroke:#006836;stroke-width:1.165;stroke-dasharray:none;stroke-opacity:1"
       id="path77"
       sodipodi:cx="7.3788824"
       sodipodi:cy="11.990684"
       sodipodi:expansion="1"
       sodipodi:revolution="3"
       sodipodi:radius="7.1775723"
       sodipodi:argument="-18.677364"
       sodipodi:t0="0"
       d="m 7.3788824,11.990684 c 0.3545501,0.06166 0.091804,0.508347 -0.1024849,0.589285 -0.5265123,0.219336 -1.0101602,-0.312416 -1.0760864,-0.794255 -0.1179264,-0.861898 0.6785411,-1.533067 1.4860261,-1.562887 1.1850166,-0.04376 2.0659185,1.047626 2.0496877,2.177796 -0.021633,1.506339 -1.4174993,2.602675 -2.8695671,2.536489 C 5.0391786,14.853823 3.7250753,13.149428 3.8431686,11.375774 3.9861954,9.2276413 6.0011989,7.6945659 8.0962768,7.8656841 10.565254,8.067341 12.31801,10.39416 12.093167,12.810563 11.833578,15.600395 9.1941789,17.573289 6.4565181,17.294254 3.345814,16.977198 1.1524728,14.024706 1.4860261,10.965834 1.8602224,7.5342424 5.1261684,5.1202316 8.5062165,5.5085416 12.258711,5.9396393 14.893555,9.5193049 14.45031,13.220503"
       transform="matrix(-0.61483457,-0.00675805,0.01604919,-0.63727799,55.251887,17.110831)" />
    <path
       sodipodi:type="spiral"
       style="fill:#07ff86;fill-opacity:1;fill-rule:evenodd;stroke:#006836;stroke-width:1.165;stroke-dasharray:none;stroke-opacity:1"
       id="path76"
       sodipodi:cx="7.3788824"
       sodipodi:cy="11.990684"
       sodipodi:expansion="1"
       sodipodi:revolution="3"
       sodipodi:radius="7.1775723"
       sodipodi:argument="-18.677364"
       sodipodi:t0="0"
       d="m 7.3788824,11.990684 c 0.3545501,0.06166 0.091804,0.508347 -0.1024849,0.589285 -0.5265123,0.219336 -1.0101602,-0.312416 -1.0760864,-0.794255 -0.1179264,-0.861898 0.6785411,-1.533067 1.4860261,-1.562887 1.1850166,-0.04376 2.0659185,1.047626 2.0496877,2.177796 -0.021633,1.506339 -1.4174993,2.602675 -2.8695671,2.536489 C 5.0391786,14.853823 3.7250753,13.149428 3.8431686,11.375774 3.9861954,9.2276413 6.0011989,7.6945659 8.0962768,7.8656841 10.565254,8.067341 12.31801,10.39416 12.093167,12.810563 11.833578,15.600395 9.1941789,17.573289 6.4565181,17.294254 3.345814,16.977198 1.1524728,14.024706 1.4860261,10.965834 1.8602224,7.5342424 5.1261684,5.1202316 8.5062165,5.5085416 12.258711,5.9396393 14.893555,9.5193049 14.45031,13.220503"
       transform="matrix(-0.61483457,-0.00675805,0.01604919,-0.63727799,50.686437,14.121548)" />
    <path
       sodipodi:type="spiral"
       style="fill:#07ff86;fill-opacity:1;fill-rule:evenodd;stroke:#006836;stroke-width:1.165;stroke-dasharray:none;stroke-opacity:1"
       id="path73"
       sodipodi:cx="7.3788824"
       sodipodi:cy="11.990684"
       sodipodi:expansion="1"
       sodipodi:revolution="3"
       sodipodi:radius="7.1775723"
       sodipodi:argument="-18.677364"
       sodipodi:t0="0"
       d="m 7.3788824,11.990684 c 0.3545501,0.06166 0.091804,0.508347 -0.1024849,0.589285 -0.5265123,0.219336 -1.0101602,-0.312416 -1.0760864,-0.794255 -0.1179264,-0.861898 0.6785411,-1.533067 1.4860261,-1.562887 1.1850166,-0.04376 2.0659185,1.047626 2.0496877,2.177796 -0.021633,1.506339 -1.4174993,2.602675 -2.8695671,2.536489 C 5.0391786,14.853823 3.7250753,13.149428 3.8431686,11.375774 3.9861954,9.2276413 6.0011989,7.6945659 8.0962768,7.8656841 10.565254,8.067341 12.31801,10.39416 12.093167,12.810563 11.833578,15.600395 9.1941789,17.573289 6.4565181,17.294254 3.345814,16.977198 1.1524728,14.024706 1.4860261,10.965834 1.8602224,7.5342424 5.1261684,5.1202316 8.5062165,5.5085416 12.258711,5.9396393 14.893555,9.5193049 14.45031,13.220503"
       transform="matrix(-0.61483457,-0.00675805,0.01604919,-0.63727799,44.925273,13.306289)" />
    <path
       style="fill:none;fill-opacity:1;stroke:#00120a;stroke-width:1.0523;stroke-linecap:round;stroke-linejoin:round;stroke-dasharray:none;stroke-opacity:1"
       d="m 39.311471,28.19618 c 0,0 1.048434,-0.839799 1.973369,-1.085357 0.924936,-0.245558 2.449905,-0.291875 3.494512,-0.04933 1.044607,0.242542 2.63116,1.332027 2.63116,1.332027"
       id="path93"
       sodipodi:nodetypes="czzc" />
    <ellipse
       style="fill:#dd3500;fill-opacity:1;stroke:#5c1700;stroke-width:1.08603;stroke-dasharray:none;stroke-opacity:1"
       id="path95"
       cx="23.951895"
       cy="23.518221"
       rx="1.4449545"
       ry="1.4833863" />
    <ellipse
       style="fill:#dd3500;fill-opacity:1;stroke:#5c1700;stroke-width:0.78833;stroke-dasharray:none;stroke-opacity:1"
       id="ellipse95"
       cx="55.897877"
       cy="23.572571"
       rx="1.0638876"
       ry="1.0615563" />
    <path
       id="path12"
       style="fill:#9d2500;fill-opacity:1;stroke:none;stroke-width:0.943615;stroke-dasharray:none"
       d="m 50.196324,58.188424 -0.0096,1.729602 c -1.957661,0.498892 -3.902764,1.157483 -6.058984,1.075435 l 0.762754,-1.470218 c 2.018132,-0.06273 3.224814,-0.99021 5.305793,-1.334819 z"
       sodipodi:nodetypes="cccccc" />
    <rect
       style="fill:#dd3500;fill-opacity:1;stroke:#5c1700;stroke-width:1.18911;stroke-dasharray:none;stroke-opacity:1"
       id="rect3"
       width="1.3048404"
       height="5.6774859"
       x="-42.626255"
       y="72.081619"
       ry="1.1354972"
       transform="matrix(-0.93398651,0.35730826,0.10834672,0.99411317,0,0)" />
    <ellipse
       style="fill:#332d00;fill-opacity:0.660817;stroke:none;stroke-width:0.310025;stroke-linecap:round;stroke-linejoin:round;stroke-dasharray:none"
       id="ellipse1"
       cx="17.210814"
       cy="78.243675"
       rx="6.7332358"
       ry="0.79368353" />
    <g
       id="g1"
       transform="rotate(-8.3124924,36.882312,47.479568)">
      <ellipse
         style="fill:#147249;fill-opacity:1;stroke:#0c1b1b;stroke-width:1.88304;stroke-dasharray:none;stroke-opacity:1"
         id="ellipse62"
         cx="64.42041"
         cy="51.63932"
         rx="10.344237"
         ry="19.12809" />
      <path
         id="ellipse73"
         style="fill:#ffe42d;fill-opacity:1;stroke:none;stroke-width:1.27216;stroke-dasharray:none;stroke-opacity:1"
         d="M 56.491796,41.631498 A 9.388339,18.608883 0 0 0 55.073819,51.466012 9.388339,18.608883 0 0 0 64.462145,70.075413 9.388339,18.608883 0 0 0 70.90588,64.99991 13.401637,18.608883 0 0 1 69.426128,65.113933 13.401637,18.608883 0 0 1 56.02458,46.505309 13.401637,18.608883 0 0 1 56.491796,41.631492 Z" />
      <path
         id="path62"
         style="fill:#ffffff;stroke:#163333;stroke-width:1.75403;stroke-dasharray:none;stroke-opacity:1"
         d="m 76.588201,51.792632 c 0,3.609178 -1.898379,8.225079 -4.240151,8.225079 -2.341771,-3e-6 -4.24015,-4.615901 -4.24015,-8.225079 0,-3.609176 1.984914,-8.450419 4.326683,-8.450422 2.34177,0 4.153618,4.841246 4.153618,8.450422 z"
         sodipodi:nodetypes="sssss" />
      <path
         id="path63"
         style="fill:#17ffea;fill-opacity:1;stroke:#163333;stroke-width:1.15809;stroke-dasharray:none;stroke-opacity:1"
         d="m 76.448285,51.774509 c 0,1.980063 -1.195358,4.512437 -2.6699,4.512437 -1.474547,0 -2.669902,-2.532374 -2.669902,-4.512437 0,-1.980065 1.249844,-4.636067 2.724387,-4.636067 1.474547,0 2.615415,2.656002 2.615415,4.636067 z"
         sodipodi:nodetypes="sssss" />
      <path
         id="path64"
         style="fill:#ffffff;fill-opacity:1;stroke:none;stroke-width:0.257536"
         d="m 75.322819,48.391804 c 0.21405,1.14656 -0.13085,2.708917 -0.89401,2.827323 -0.763152,0.118407 -1.655573,-1.251977 -1.869621,-2.398535 -0.214053,-1.146555 0.145683,-2.784875 0.908842,-2.903281 0.763155,-0.118406 1.640737,1.327938 1.854789,2.474493 z"
         sodipodi:nodetypes="sssss" />
      <g
         id="g67"
         transform="matrix(1.6730398,-0.08026892,-0.88239998,-1.7726663,50.136838,71.333653)"
         style="stroke:#021212;stroke-opacity:1">
        <path
           sodipodi:type="spiral"
           style="fill:none;fill-opacity:1;fill-rule:evenodd;stroke:#021212;stroke-width:1.165;stroke-dasharray:none;stroke-opacity:1"
           id="path65"
           sodipodi:cx="7.3788824"
           sodipodi:cy="11.990684"
           sodipodi:expansion="1"
           sodipodi:revolution="3"
           sodipodi:radius="7.1775723"
           sodipodi:argument="-18.677364"
           sodipodi:t0="0"
           d="m 7.3788824,11.990684 c 0.3545501,0.06166 0.091804,0.508347 -0.1024849,0.589285 -0.5265123,0.219336 -1.0101602,-0.312416 -1.0760864,-0.794255 -0.1179264,-0.861898 0.6785411,-1.533067 1.4860261,-1.562887 1.1850166,-0.04376 2.0659185,1.047626 2.0496877,2.177796 -0.021633,1.506339 -1.4174993,2.602675 -2.8695671,2.536489 C 5.0391786,14.853823 3.7250753,13.149428 3.8431686,11.375774 3.9861954,9.2276413 6.0011989,7.6945659 8.0962768,7.8656841 10.565254,8.067341 12.31801,10.39416 12.093167,12.810563 11.833578,15.600395 9.1941789,17.573289 6.4565181,17.294254 3.345814,16.977198 1.1524728,14.024706 1.4860261,10.965834 1.8602224,7.5342424 5.1261684,5.1202316 8.5062165,5.5085416 12.258711,5.9396393 14.893555,9.5193049 14.45031,13.220503"
           transform="matrix(-0.12693299,-0.27940024,-0.24651116,0.18568287,23.532179,18.320999)" />
      </g>
      <g
         id="g68"
         transform="matrix(-1.6730398,-0.08026892,0.88239998,-1.7726663,83.685071,99.043061)"
         style="stroke:#021212;stroke-opacity:1">
        <path
           sodipodi:type="spiral"
           style="fill:none;fill-opacity:1;fill-rule:evenodd;stroke:#021212;stroke-width:1.165;stroke-dasharray:none;stroke-opacity:1"
           id="path67"
           sodipodi:cx="7.3788824"
           sodipodi:cy="11.990684"
           sodipodi:expansion="1"
           sodipodi:revolution="3"
           sodipodi:radius="7.1775723"
           sodipodi:argument="-18.677364"
           sodipodi:t0="0"
           d="m 7.3788824,11.990684 c 0.3545501,0.06166 0.091804,0.508347 -0.1024849,0.589285 -0.5265123,0.219336 -1.0101602,-0.312416 -1.0760864,-0.794255 -0.1179264,-0.861898 0.6785411,-1.533067 1.4860261,-1.562887 1.1850166,-0.04376 2.0659185,1.047626 2.0496877,2.177796 -0.021633,1.506339 -1.4174993,2.602675 -2.8695671,2.536489 C 5.0391786,14.853823 3.7250753,13.149428 3.8431686,11.375774 3.9861954,9.2276413 6.0011989,7.6945659 8.0962768,7.8656841 10.565254,8.067341 12.31801,10.39416 12.093167,12.810563 11.833578,15.600395 9.1941789,17.573289 6.4565181,17.294254 3.345814,16.977198 1.1524728,14.024706 1.4860261,10.965834 1.8602224,7.5342424 5.1261684,5.1202316 8.5062165,5.5085416 12.258711,5.9396393 14.893555,9.5193049 14.45031,13.220503"
           transform="matrix(-0.12693299,-0.27940024,-0.24651116,0.18568287,23.532179,18.320999)" />
      </g>
      <g
         id="g69"
         transform="matrix(1.3003611,-1.8773345,-2.0579881,-0.99817935,73.181834,106.2305)"
         style="stroke:#021212;stroke-opacity:1">
        <path
           sodipodi:type="spiral"
           style="fill:none;fill-opacity:1;fill-rule:evenodd;stroke:#021212;stroke-width:1.165;stroke-dasharray:none;stroke-opacity:1"
           id="path69"
           sodipodi:cx="7.3788824"
           sodipodi:cy="11.990684"
           sodipodi:expansion="1"
           sodipodi:revolution="3"
           sodipodi:radius="7.1775723"
           sodipodi:argument="-18.677364"
           sodipodi:t0="0"
           d="m 7.3788824,11.990684 c 0.3545501,0.06166 0.091804,0.508347 -0.1024849,0.589285 -0.5265123,0.219336 -1.0101602,-0.312416 -1.0760864,-0.794255 -0.1179264,-0.861898 0.6785411,-1.533067 1.4860261,-1.562887 1.1850166,-0.04376 2.0659185,1.047626 2.0496877,2.177796 -0.021633,1.506339 -1.4174993,2.602675 -2.8695671,2.536489 C 5.0391786,14.853823 3.7250753,13.149428 3.8431686,11.375774 3.9861954,9.2276413 6.0011989,7.6945659 8.0962768,7.8656841 10.565254,8.067341 12.31801,10.39416 12.093167,12.810563 11.833578,15.600395 9.1941789,17.573289 6.4565181,17.294254 3.345814,16.977198 1.1524728,14.024706 1.4860261,10.965834 1.8602224,7.5342424 5.1261684,5.1202316 8.5062165,5.5085416 12.258711,5.9396393 14.893555,9.5193049 14.45031,13.220503"
           transform="matrix(-0.12693299,-0.27940024,-0.24651116,0.18568287,23.532179,18.320999)" />
      </g>
      <g
         id="g70"
         transform="matrix(1.9139155,-0.23559403,-1.1758403,-1.8141946,46.410519,80.616503)"
         style="stroke:#021212;stroke-opacity:1">
        <path
           sodipodi:type="spiral"
           style="fill:none;fill-opacity:1;fill-rule:evenodd;stroke:#021212;stroke-width:1.165;stroke-dasharray:none;stroke-opacity:1"
           id="path70"
           sodipodi:cx="7.3788824"
           sodipodi:cy="11.990684"
           sodipodi:expansion="1"
           sodipodi:revolution="3"
           sodipodi:radius="7.1775723"
           sodipodi:argument="-18.677364"
           sodipodi:t0="0"
           d="m 7.3788824,11.990684 c 0.3545501,0.06166 0.091804,0.508347 -0.1024849,0.589285 -0.5265123,0.219336 -1.0101602,-0.312416 -1.0760864,-0.794255 -0.1179264,-0.861898 0.6785411,-1.533067 1.4860261,-1.562887 1.1850166,-0.04376 2.0659185,1.047626 2.0496877,2.177796 -0.021633,1.506339 -1.4174993,2.602675 -2.8695671,2.536489 C 5.0391786,14.853823 3.7250753,13.149428 3.8431686,11.375774 3.9861954,9.2276413 6.0011989,7.6945659 8.0962768,7.8656841 10.565254,8.067341 12.31801,10.39416 12.093167,12.810563 11.833578,15.600395 9.1941789,17.573289 6.4565181,17.294254 3.345814,16.977198 1.1524728,14.024706 1.4860261,10.965834 1.8602224,7.5342424 5.1261684,5.1202316 8.5062165,5.5085416 12.258711,5.9396393 14.893555,9.5193049 14.45031,13.220503"
           transform="matrix(-0.03138143,-0.26457186,-0.33973589,0.08157699,23.858253,19.394667)" />
      </g>
      <g
         id="g71"
         transform="matrix(-1.8841446,-0.57867297,1.5178889,-1.6934053,72.091663,102.47966)"
         style="stroke:#021212;stroke-opacity:1">
        <path
           sodipodi:type="spiral"
           style="fill:none;fill-opacity:1;fill-rule:evenodd;stroke:#021212;stroke-width:1.165;stroke-dasharray:none;stroke-opacity:1"
           id="path71"
           sodipodi:cx="7.3788824"
           sodipodi:cy="11.990684"
           sodipodi:expansion="1"
           sodipodi:revolution="3"
           sodipodi:radius="7.1775723"
           sodipodi:argument="-18.677364"
           sodipodi:t0="0"
           d="m 7.3788824,11.990684 c 0.3545501,0.06166 0.091804,0.508347 -0.1024849,0.589285 -0.5265123,0.219336 -1.0101602,-0.312416 -1.0760864,-0.794255 -0.1179264,-0.861898 0.6785411,-1.533067 1.4860261,-1.562887 1.1850166,-0.04376 2.0659185,1.047626 2.0496877,2.177796 -0.021633,1.506339 -1.4174993,2.602675 -2.8695671,2.536489 C 5.0391786,14.853823 3.7250753,13.149428 3.8431686,11.375774 3.9861954,9.2276413 6.0011989,7.6945659 8.0962768,7.8656841 10.565254,8.067341 12.31801,10.39416 12.093167,12.810563 11.833578,15.600395 9.1941789,17.573289 6.4565181,17.294254 3.345814,16.977198 1.1524728,14.024706 1.4860261,10.965834 1.8602224,7.5342424 5.1261684,5.1202316 8.5062165,5.5085416 12.258711,5.9396393 14.893555,9.5193049 14.45031,13.220503"
           transform="matrix(-0.12693299,-0.27940024,-0.24651116,0.18568287,23.532179,18.320999)" />
      </g>
    </g>
  </g>
</svg>
