<?xml version="1.0" encoding="UTF-8" standalone="no"?>
<!-- Created with Inkscape (http://www.inkscape.org/) -->

<svg
   width="300"
   height="300"
   viewBox="0 0 79.375 79.374999"
   version="1.1"
   id="svg3527"
   inkscape:version="1.4.2 (ebf0e940d0, 2025-05-08)"
   sodipodi:docname="ciclop[7].svg"
   xmlns:inkscape="http://www.inkscape.org/namespaces/inkscape"
   xmlns:sodipodi="http://sodipodi.sourceforge.net/DTD/sodipodi-0.dtd"
   xmlns="http://www.w3.org/2000/svg"
   xmlns:svg="http://www.w3.org/2000/svg">
  <sodipodi:namedview
     id="namedview3529"
     pagecolor="#505050"
     bordercolor="#ffffff"
     borderopacity="1"
     inkscape:pageshadow="0"
     inkscape:pageopacity="0"
     inkscape:pagecheckerboard="1"
     inkscape:document-units="px"
     showgrid="false"
     width="100mm"
     inkscape:zoom="1.7211279"
     inkscape:cx="180.40495"
     inkscape:cy="162.97452"
     inkscape:window-width="1366"
     inkscape:window-height="697"
     inkscape:window-x="0"
     inkscape:window-y="0"
     inkscape:window-maximized="1"
     inkscape:current-layer="layer1"
     inkscape:snap-global="false"
     inkscape:showpageshadow="0"
     inkscape:deskcolor="#505050"
     showguides="true">
    <sodipodi:guide
       position="13.220497,81.21972"
       orientation="0,-1"
       id="guide68"
       inkscape:locked="false" />
  </sodipodi:namedview>
  <defs
     id="defs3524">
    <inkscape:path-effect
       effect="fillet_chamfer"
       id="path-effect68"
       is_visible="true"
       lpeversion="1"
       nodesatellites_param="F,0,0,1,0,0,0,1 @ F,0,0,1,0,0,0,1 @ F,0,0,1,0,0,0,1 @ F,0,0,1,0,0,0,1 @ F,0,0,1,0,0,0,1 @ F,0,0,1,0,0,0,1 @ F,0,0,1,0,0,0,1 @ F,0,0,1,0,0,0,1 @ F,0,0,1,0,0,0,1"
       radius="0"
       unit="px"
       method="auto"
       mode="F"
       chamfer_steps="1"
       flexible="false"
       use_knot_distance="true"
       apply_no_radius="true"
       apply_with_radius="true"
       only_selected="false"
       hide_knots="false" />
    <inkscape:path-effect
       effect="fillet_chamfer"
       id="path-effect66"
       is_visible="true"
       lpeversion="1"
       nodesatellites_param="F,0,0,1,0,0,0,1 @ F,0,0,1,0,0.44929322,0,1 @ F,0,0,1,0,0.44929322,0,1 @ F,0,0,1,0,0,0,1 @ F,0,0,1,0,0,0,1 @ F,0,0,1,0,0,0,1 @ F,0,0,1,0,0,0,1 @ F,0,0,1,0,0,0,1 @ F,0,0,1,0,0,0,1 @ F,0,0,1,0,0,0,1"
       radius="0"
       unit="px"
       method="auto"
       mode="F"
       chamfer_steps="1"
       flexible="false"
       use_knot_distance="true"
       apply_no_radius="true"
       apply_with_radius="true"
       only_selected="false"
       hide_knots="false" />
  </defs>
  <g
     inkscape:label="Camada 1"
     inkscape:groupmode="layer"
     id="layer1">
    <path
       id="path4"
       style="fill:#00954e;fill-opacity:1;stroke:#002011;stroke-width:2.29534;stroke-miterlimit:4;stroke-dasharray:none;stroke-opacity:1"
       d="m 33.136083,40.39012 c 0.230624,0.921435 0.115934,1.821109 -0.362529,2.308669 l -5.749103,5.972014 c -0.06611,0.123141 -0.960578,1.041526 -1.094137,1.097667 -0.132949,0.188319 -0.412252,0.238126 -0.602873,0.332819 l -8.105525,4.026789 c -0.855718,0.425108 -1.933646,-0.385831 -2.417309,-1.816641 l -0.367348,-1.082062 c -0.483672,-1.430804 -0.182623,-2.925083 0.673101,-3.350188 l 7.487984,-3.470834 c 0.418675,-0.40974 0.490479,-0.557368 0.549374,-0.591474 l 3.88856,-6.996416 c 0.695936,-0.709168 4.19156,0.134729 4.978281,1.387809 l 0.595939,0.948324 c 0.245868,0.391568 0.420729,0.814714 0.5255,1.233571 z"
       sodipodi:nodetypes="cccccccccccccccc" />
    <path
       id="path74"
       style="fill:#00312b;fill-opacity:1;stroke:none;stroke-width:1.30224;stroke-miterlimit:4;stroke-dasharray:none;stroke-opacity:1"
       d="m 32.643965,39.888593 c 0.335799,0.462875 0.344494,1.042606 -0.04171,1.513292 l -4.626132,5.723554 c -0.04611,0.09832 -0.767292,0.982376 -0.885454,1.066077 -0.100479,0.162314 -0.356319,0.29704 -0.523081,0.425187 -5.638202,3.309077 -7.305429,4.297565 -7.305429,4.297565 0,0 -1.651046,1.64877 -2.290412,0.977132 L 16.486756,53.384141 C 15.84741,52.712599 15.936763,51.708163 16.685353,51.13287 l 7.06565,-3.355782 c 1.459818,-0.917041 2.298614,-1.648907 2.954061,-2.303629 l 2.395145,-7.577664 c 0,0 1.307286,0.661551 2.208228,1.113133 l 0.682355,0.341533 c 0.281559,0.141098 0.50052,0.327742 0.653108,0.53817 z"
       sodipodi:nodetypes="cccccccccccccccc" />
    <ellipse
       style="fill:#332d00;fill-opacity:0.660817;stroke:none;stroke-width:0.627494;stroke-linecap:round;stroke-linejoin:round;stroke-dasharray:none"
       id="ellipse1"
       cx="20.737009"
       cy="76.076248"
       rx="16.338699"
       ry="1.3399208" />
    <ellipse
       style="fill:#332d00;fill-opacity:0.660817;stroke:none;stroke-width:0.937645;stroke-linecap:round;stroke-linejoin:round;stroke-dasharray:none"
       id="path9"
       cx="49.992565"
       cy="76.194077"
       rx="21.414137"
       ry="2.2827253" />
    <g
       id="g1"
       transform="matrix(0.47317341,-0.78512777,0.809762,0.45853489,-64.166505,115.64055)">
      <rect
         style="fill:#1f1f1f;fill-opacity:1;stroke:#000000;stroke-width:1.03042;stroke-dasharray:none;stroke-opacity:1"
         id="rect65"
         width="4.0168734"
         height="38.023342"
         x="90.517464"
         y="-77.155014"
         transform="matrix(0.60932312,0.79292202,-0.81156997,0.58425524,0,0)" />
      <path
         id="rect66"
         style="fill:#747474;fill-opacity:1;stroke:#191919;stroke-width:1.37289;stroke-dasharray:none;stroke-opacity:1"
         d="M 151.30089,10.716946 139.7075,5.5347704 133.86173,10.37327 a 4.2465308,4.3942047 86.401705 0 1 0.73359,0.744127 4.2465308,4.3942047 86.401705 0 1 -0.91659,5.944774 4.2465308,4.3942047 86.401705 0 1 -6.14532,-0.860853 4.2465308,4.3942047 86.401705 0 1 -0.25856,-0.376628 l -16.98561,14.059053 3.6608,4.763851 z" />
      <rect
         style="fill:#1f1f1f;fill-opacity:1;stroke:#000000;stroke-width:0.803056;stroke-miterlimit:4;stroke-dasharray:none;stroke-opacity:1"
         id="rect32"
         width="8.7068853"
         height="2.1689365"
         x="88.19957"
         y="-39.67445"
         ry="1.0152175"
         transform="matrix(0.60932312,0.79292202,-0.81156997,0.58425524,0,0)" />
      <rect
         style="fill:#1f1f1f;fill-opacity:1;stroke:#000000;stroke-width:1.24634;stroke-miterlimit:4;stroke-dasharray:none;stroke-opacity:1"
         id="rect33"
         width="10.424343"
         height="2.8567543"
         x="87.332047"
         y="-37.454781"
         ry="1.3371655"
         transform="matrix(0.60932312,0.79292202,-0.81156997,0.58425524,0,0)" />
      <path
         id="path78"
         style="fill:#464646;fill-opacity:1;stroke:none;stroke-width:1.12043;stroke-dasharray:none;stroke-opacity:1"
         d="m 149.88486,10.834539 -5.75087,-2.6139865 c -2.86877,3.5441355 -5.43773,4.3145625 -8.03424,5.3398365 0.009,1.196548 -0.81602,3.109721 -2.06829,4.01097 -1.2519,0.901242 -2.93654,1.212448 -4.11775,0.860092 -4.63896,5.937776 -10.93712,9.716421 -17.65303,12.95144 l 2.1312,2.773364 z"
         sodipodi:nodetypes="cccccccc" />
      <path
         style="fill:#000000;fill-opacity:1;stroke:none;stroke-width:4.46608;stroke-linecap:round;stroke-linejoin:round;stroke-dasharray:none;stroke-opacity:1"
         d="m 100.26318,38.35471 -5.922855,5.620887 -0.340145,4.528038 10.08235,-5.661341 z"
         id="path6"
         sodipodi:nodetypes="ccccc" />
    </g>
    <path
       style="fill:#191919;fill-opacity:1;stroke:none;stroke-width:2.03929;stroke-linecap:round;stroke-linejoin:round;stroke-dasharray:none;stroke-opacity:1"
       d="m 38.909756,17.994111 0.554814,1.837838 -2.0424,-0.911258 z"
       id="path10" />
    <path
       style="fill:#191919;fill-opacity:1;stroke:none;stroke-width:3.57542;stroke-linecap:round;stroke-linejoin:round;stroke-dasharray:none;stroke-opacity:1"
       d="m 38.177709,18.64249 0.694244,3.059475 -3.544171,-1.237419 z"
       id="path11" />
    <path
       sodipodi:type="spiral"
       style="fill:#00954e;fill-opacity:1;fill-rule:evenodd;stroke:#00312b;stroke-width:1.165;stroke-dasharray:none;stroke-opacity:1"
       id="path86"
       sodipodi:cx="7.3788824"
       sodipodi:cy="11.990684"
       sodipodi:expansion="1"
       sodipodi:revolution="3"
       sodipodi:radius="7.1775723"
       sodipodi:argument="-18.677364"
       sodipodi:t0="0"
       d="m 7.3788824,11.990684 c 0.3545501,0.06166 0.091804,0.508347 -0.1024849,0.589285 -0.5265123,0.219336 -1.0101602,-0.312416 -1.0760864,-0.794255 -0.1179264,-0.861898 0.6785411,-1.533067 1.4860261,-1.562887 1.1850166,-0.04376 2.0659185,1.047626 2.0496877,2.177796 -0.021633,1.506339 -1.4174993,2.602675 -2.8695671,2.536489 C 5.0391786,14.853823 3.7250753,13.149428 3.8431686,11.375774 3.9861954,9.2276413 6.0011989,7.6945659 8.0962768,7.8656841 10.565254,8.067341 12.31801,10.39416 12.093167,12.810563 11.833578,15.600395 9.1941789,17.573289 6.4565181,17.294254 3.345814,16.977198 1.1524728,14.024706 1.4860261,10.965834 1.8602224,7.5342424 5.1261684,5.1202316 8.5062165,5.5085416 12.258711,5.9396393 14.893555,9.5193049 14.45031,13.220503"
       transform="matrix(0.21030906,-0.6588067,0.57417187,0.38027529,42.923429,27.883892)" />
    <path
       sodipodi:type="spiral"
       style="fill:#00954e;fill-opacity:1;fill-rule:evenodd;stroke:#00312b;stroke-width:1.165;stroke-dasharray:none;stroke-opacity:1"
       id="path85"
       sodipodi:cx="7.3788824"
       sodipodi:cy="11.990684"
       sodipodi:expansion="1"
       sodipodi:revolution="3"
       sodipodi:radius="7.1775723"
       sodipodi:argument="-18.677364"
       sodipodi:t0="0"
       d="m 7.3788824,11.990684 c 0.3545501,0.06166 0.091804,0.508347 -0.1024849,0.589285 -0.5265123,0.219336 -1.0101602,-0.312416 -1.0760864,-0.794255 -0.1179264,-0.861898 0.6785411,-1.533067 1.4860261,-1.562887 1.1850166,-0.04376 2.0659185,1.047626 2.0496877,2.177796 -0.021633,1.506339 -1.4174993,2.602675 -2.8695671,2.536489 C 5.0391786,14.853823 3.7250753,13.149428 3.8431686,11.375774 3.9861954,9.2276413 6.0011989,7.6945659 8.0962768,7.8656841 10.565254,8.067341 12.31801,10.39416 12.093167,12.810563 11.833578,15.600395 9.1941789,17.573289 6.4565181,17.294254 3.345814,16.977198 1.1524728,14.024706 1.4860261,10.965834 1.8602224,7.5342424 5.1261684,5.1202316 8.5062165,5.5085416 12.258711,5.9396393 14.893555,9.5193049 14.45031,13.220503"
       transform="matrix(-0.21030906,-0.6588067,-0.57417187,0.38027529,36.492752,25.941394)" />
    <path
       sodipodi:type="spiral"
       style="fill:#00954e;fill-opacity:1;fill-rule:evenodd;stroke:#00312b;stroke-width:1.165;stroke-dasharray:none;stroke-opacity:1"
       id="path83"
       sodipodi:cx="7.3788824"
       sodipodi:cy="11.990684"
       sodipodi:expansion="1"
       sodipodi:revolution="3"
       sodipodi:radius="7.1775723"
       sodipodi:argument="-18.677364"
       sodipodi:t0="0"
       d="m 7.3788824,11.990684 c 0.3545501,0.06166 0.091804,0.508347 -0.1024849,0.589285 -0.5265123,0.219336 -1.0101602,-0.312416 -1.0760864,-0.794255 -0.1179264,-0.861898 0.6785411,-1.533067 1.4860261,-1.562887 1.1850166,-0.04376 2.0659185,1.047626 2.0496877,2.177796 -0.021633,1.506339 -1.4174993,2.602675 -2.8695671,2.536489 C 5.0391786,14.853823 3.7250753,13.149428 3.8431686,11.375774 3.9861954,9.2276413 6.0011989,7.6945659 8.0962768,7.8656841 10.565254,8.067341 12.31801,10.39416 12.093167,12.810563 11.833578,15.600395 9.1941789,17.573289 6.4565181,17.294254 3.345814,16.977198 1.1524728,14.024706 1.4860261,10.965834 1.8602224,7.5342424 5.1261684,5.1202316 8.5062165,5.5085416 12.258711,5.9396393 14.893555,9.5193049 14.45031,13.220503"
       transform="matrix(-0.51443136,0.55245752,-0.50062699,-0.71566052,60.665213,11.071387)" />
    <path
       sodipodi:type="spiral"
       style="fill:#00954e;fill-opacity:1;fill-rule:evenodd;stroke:#00312b;stroke-width:1.165;stroke-dasharray:none;stroke-opacity:1"
       id="path82"
       sodipodi:cx="7.3788824"
       sodipodi:cy="11.990684"
       sodipodi:expansion="1"
       sodipodi:revolution="3"
       sodipodi:radius="7.1775723"
       sodipodi:argument="-18.677364"
       sodipodi:t0="0"
       d="m 7.3788824,11.990684 c 0.3545501,0.06166 0.091804,0.508347 -0.1024849,0.589285 -0.5265123,0.219336 -1.0101602,-0.312416 -1.0760864,-0.794255 -0.1179264,-0.861898 0.6785411,-1.533067 1.4860261,-1.562887 1.1850166,-0.04376 2.0659185,1.047626 2.0496877,2.177796 -0.021633,1.506339 -1.4174993,2.602675 -2.8695671,2.536489 C 5.0391786,14.853823 3.7250753,13.149428 3.8431686,11.375774 3.9861954,9.2276413 6.0011989,7.6945659 8.0962768,7.8656841 10.565254,8.067341 12.31801,10.39416 12.093167,12.810563 11.833578,15.600395 9.1941789,17.573289 6.4565181,17.294254 3.345814,16.977198 1.1524728,14.024706 1.4860261,10.965834 1.8602224,7.5342424 5.1261684,5.1202316 8.5062165,5.5085416 12.258711,5.9396393 14.893555,9.5193049 14.45031,13.220503"
       transform="matrix(-0.29142518,0.73448135,-0.79562976,-0.42395608,56.142141,5.0883121)" />
    <path
       sodipodi:type="spiral"
       style="fill:#00954e;fill-opacity:1;fill-rule:evenodd;stroke:#00312b;stroke-width:1.165;stroke-dasharray:none;stroke-opacity:1"
       id="path81"
       sodipodi:cx="7.3788824"
       sodipodi:cy="11.990684"
       sodipodi:expansion="1"
       sodipodi:revolution="3"
       sodipodi:radius="7.1775723"
       sodipodi:argument="-18.677364"
       sodipodi:t0="0"
       d="m 7.3788824,11.990684 c 0.3545501,0.06166 0.091804,0.508347 -0.1024849,0.589285 -0.5265123,0.219336 -1.0101602,-0.312416 -1.0760864,-0.794255 -0.1179264,-0.861898 0.6785411,-1.533067 1.4860261,-1.562887 1.1850166,-0.04376 2.0659185,1.047626 2.0496877,2.177796 -0.021633,1.506339 -1.4174993,2.602675 -2.8695671,2.536489 C 5.0391786,14.853823 3.7250753,13.149428 3.8431686,11.375774 3.9861954,9.2276413 6.0011989,7.6945659 8.0962768,7.8656841 10.565254,8.067341 12.31801,10.39416 12.093167,12.810563 11.833578,15.600395 9.1941789,17.573289 6.4565181,17.294254 3.345814,16.977198 1.1524728,14.024706 1.4860261,10.965834 1.8602224,7.5342424 5.1261684,5.1202316 8.5062165,5.5085416 12.258711,5.9396393 14.893555,9.5193049 14.45031,13.220503"
       transform="matrix(-0.29142518,0.73448135,-0.79562976,-0.42395608,48.913511,5.3600651)" />
    <path
       sodipodi:type="spiral"
       style="fill:#00954e;fill-opacity:1;fill-rule:evenodd;stroke:#00312b;stroke-width:1.165;stroke-dasharray:none;stroke-opacity:1"
       id="path80"
       sodipodi:cx="7.3788824"
       sodipodi:cy="11.990684"
       sodipodi:expansion="1"
       sodipodi:revolution="3"
       sodipodi:radius="7.1775723"
       sodipodi:argument="-18.677364"
       sodipodi:t0="0"
       d="m 7.3788824,11.990684 c 0.3545501,0.06166 0.091804,0.508347 -0.1024849,0.589285 -0.5265123,0.219336 -1.0101602,-0.312416 -1.0760864,-0.794255 -0.1179264,-0.861898 0.6785411,-1.533067 1.4860261,-1.562887 1.1850166,-0.04376 2.0659185,1.047626 2.0496877,2.177796 -0.021633,1.506339 -1.4174993,2.602675 -2.8695671,2.536489 C 5.0391786,14.853823 3.7250753,13.149428 3.8431686,11.375774 3.9861954,9.2276413 6.0011989,7.6945659 8.0962768,7.8656841 10.565254,8.067341 12.31801,10.39416 12.093167,12.810563 11.833578,15.600395 9.1941789,17.573289 6.4565181,17.294254 3.345814,16.977198 1.1524728,14.024706 1.4860261,10.965834 1.8602224,7.5342424 5.1261684,5.1202316 8.5062165,5.5085416 12.258711,5.9396393 14.893555,9.5193049 14.45031,13.220503"
       transform="matrix(-0.29142518,0.73448135,-0.79562976,-0.42395608,41.215976,5.9206214)" />
    <path
       sodipodi:type="spiral"
       style="fill:#00954e;fill-opacity:1;fill-rule:evenodd;stroke:#00312b;stroke-width:1.165;stroke-dasharray:none;stroke-opacity:1"
       id="path7"
       sodipodi:cx="7.3788824"
       sodipodi:cy="11.990684"
       sodipodi:expansion="1"
       sodipodi:revolution="3"
       sodipodi:radius="7.1775723"
       sodipodi:argument="-18.677364"
       sodipodi:t0="0"
       d="m 7.3788824,11.990684 c 0.3545501,0.06166 0.091804,0.508347 -0.1024849,0.589285 -0.5265123,0.219336 -1.0101602,-0.312416 -1.0760864,-0.794255 -0.1179264,-0.861898 0.6785411,-1.533067 1.4860261,-1.562887 1.1850166,-0.04376 2.0659185,1.047626 2.0496877,2.177796 -0.021633,1.506339 -1.4174993,2.602675 -2.8695671,2.536489 C 5.0391786,14.853823 3.7250753,13.149428 3.8431686,11.375774 3.9861954,9.2276413 6.0011989,7.6945659 8.0962768,7.8656841 10.565254,8.067341 12.31801,10.39416 12.093167,12.810563 11.833578,15.600395 9.1941789,17.573289 6.4565181,17.294254 3.345814,16.977198 1.1524728,14.024706 1.4860261,10.965834 1.8602224,7.5342424 5.1261684,5.1202316 8.5062165,5.5085416 12.258711,5.9396393 14.893555,9.5193049 14.45031,13.220503"
       transform="matrix(-0.29169973,0.72016159,-0.79637931,-0.41569045,36.865278,8.5303469)" />
    <path
       id="path39"
       style="fill:#774600;stroke:#5c1700;stroke-width:1.24354;stroke-opacity:1"
       d="m 50.401492,53.453814 0.05435,0.298928 v 3.831718 l 0.543506,-1.38594 z"
       sodipodi:nodetypes="ccccc" />
    <path
       id="rect39"
       style="fill:#774600;stroke:#5c1700;stroke-width:1.24354;stroke-opacity:1"
       d="m 28.914519,53.616866 -0.05435,0.298928 v 3.831718 l -0.543506,-1.38594 z"
       sodipodi:nodetypes="ccccc" />
    <g
       id="g21"
       transform="matrix(-1,0,0,1,78.645185,0.76863355)">
      <ellipse
         style="fill:#00954e;fill-opacity:1;stroke:#002011;stroke-width:1.82416;stroke-dasharray:none;stroke-opacity:1"
         id="ellipse18"
         cx="29.934484"
         cy="10.026855"
         rx="4.9577522"
         ry="7.5484438"
         transform="matrix(0.97570939,0.21906891,-0.26079045,0.96539543,0,0)" />
      <ellipse
         style="fill:#00312b;fill-opacity:1;stroke:none;stroke-width:0.854978;stroke-dasharray:none;stroke-opacity:1"
         id="ellipse19"
         cx="29.958776"
         cy="5.5897098"
         rx="3.3862095"
         ry="5.1364975"
         transform="matrix(0.91054053,0.41341981,-0.27194541,0.96231268,0,0)" />
      <ellipse
         style="fill:#00312b;fill-opacity:1;stroke:#050d0d;stroke-width:0.949448;stroke-dasharray:none;stroke-opacity:1"
         id="ellipse20"
         cx="32.170826"
         cy="10.096696"
         rx="4.4518371"
         ry="4.8180857"
         transform="matrix(0.97570939,0.21906891,-0.26079045,0.96539543,0,0)" />
      <ellipse
         style="fill:#081616;fill-opacity:1;stroke:none;stroke-width:0.433649;stroke-dasharray:none;stroke-opacity:1"
         id="ellipse21"
         cx="30.804125"
         cy="5.4019146"
         rx="1.741599"
         ry="2.5692153"
         transform="matrix(0.91610884,0.40092966,-0.28133932,0.95960835,0,0)" />
    </g>
    <rect
       style="fill:#00954e;fill-opacity:1;stroke:#002011;stroke-width:1.59283;stroke-dasharray:none;stroke-opacity:1"
       id="rect63"
       width="8.6404619"
       height="20.613552"
       x="29.295105"
       y="57.864525"
       ry="2.6833627" />
    <path
       id="path5"
       style="fill:#00954e;fill-opacity:1;stroke:#002011;stroke-width:1.72956;stroke-miterlimit:4;stroke-dasharray:none;stroke-opacity:1"
       d="m 47.31738,40.109662 c -0.0227,0.893856 0.332882,1.707955 0.98823,2.077319 l 7.903487,4.543428 c 0.104645,0.102755 1.331616,0.799638 1.494284,0.828631 0.195493,0.151616 0.518538,0.149592 0.7544,0.204473 l 10.029156,2.333874 c 1.0588,0.246384 2.051173,-0.691236 2.225945,-2.100871 l 0.133919,-1.066323 C 71.021572,45.520559 70.308152,44.187479 69.24935,43.9411 l -9.20189,-1.925121 c -0.569186,-0.307542 -0.686414,-0.431981 -0.760516,-0.453433 l -8.550722,-5.041585 c -0.953238,-0.537238 -2.168952,0.07571 -2.725587,1.372902 l -0.42187,0.981805 c -0.173935,0.405374 -0.261026,0.827732 -0.271271,1.234037 z"
       sodipodi:nodetypes="cccccccccccccccc" />
    <path
       id="path79"
       style="fill:#00312b;fill-opacity:1;stroke:none;stroke-width:1.32281;stroke-miterlimit:4;stroke-dasharray:none;stroke-opacity:1"
       d="m 47.294304,38.91918 c -0.174556,0.552896 -0.005,1.142662 0.503435,1.523429 l 6.115884,4.647607 c 0.07362,0.08813 1.024523,0.80437 1.16157,0.859739 0.144477,0.139459 0.426959,0.212214 0.623447,0.300512 6.329335,1.947983 5.674399,2.523908 8.354847,3.75507 0.882043,0.396422 1.911054,0.03843 2.307725,-0.801712 l 0.301562,-0.635092 c 0.396684,-0.840081 0.0044,-1.835875 -0.877643,-2.232297 L 58.095989,44.697083 C 56.438741,44.131631 55.423656,43.59901 54.605042,43.098852 L 50.90142,37.461829 c -0.739496,-0.55384 -1.907347,-0.449674 -2.618055,0.232711 l -0.538417,0.516343 c -0.222115,0.213233 -0.371267,0.457004 -0.450556,0.708341 z"
       sodipodi:nodetypes="cccccccccccccccc" />
    <rect
       style="fill:#00954e;fill-opacity:1;stroke:#002011;stroke-width:1.70145;stroke-dasharray:none;stroke-opacity:1"
       id="rect9"
       width="9.9113178"
       height="20.504688"
       x="40.11174"
       y="58.034332"
       ry="2.6691911" />
    <rect
       style="fill:none;fill-opacity:1;stroke:#002011;stroke-width:4.511;stroke-dasharray:none;stroke-opacity:1"
       id="rect1"
       width="8.7918472"
       height="16.762125"
       x="35.101086"
       y="26.468765" />
    <rect
       style="fill:#00954e;fill-opacity:1;stroke:#002011;stroke-width:2.05966;stroke-opacity:1"
       id="rect2"
       width="19.661329"
       height="24.869091"
       x="30.205996"
       y="36.356693" />
    <path
       id="path75"
       style="fill:#00954e;fill-opacity:1;stroke-width:0.858754"
       d="m 38.748275,31.676383 h 1.251921 c 1.821976,0 4.861458,-0.11572 4.444599,0.495646 0,0 0.757925,3.548742 0.757925,5.178995 0,1.155722 -1.624389,0.937612 -5.202524,0.937612 h -1.251921 c -1.821974,0 -4.425649,0.03885 -4.425649,-0.438001 0,-1.630252 0.549495,-5.544095 0.549495,-5.544095 0,-0.476855 2.05418,-0.630157 3.876154,-0.630157 z"
       sodipodi:nodetypes="sssssssss" />
    <path
       id="ellipse24"
       style="fill:#00312b;stroke-width:0.808785"
       d="m 44.872166,32.934239 c 0,2.884842 -2.219949,2.804227 -5.063678,2.804227 -2.843729,10e-7 -5.234375,0.08062 -5.234375,-2.804227 0,-2.884842 2.305298,-5.223469 5.149027,-5.223469 2.843728,0 5.149026,2.338627 5.149026,5.223469 z"
       sodipodi:nodetypes="sssss" />
    <g
       id="g17">
      <ellipse
         style="fill:#00954e;fill-opacity:1;stroke:#002011;stroke-width:1.82416;stroke-dasharray:none;stroke-opacity:1"
         id="ellipse14"
         cx="29.934484"
         cy="10.026855"
         rx="4.9577522"
         ry="7.5484438"
         transform="matrix(0.97570939,0.21906891,-0.26079045,0.96539543,0,0)" />
      <ellipse
         style="fill:#00312b;fill-opacity:1;stroke:none;stroke-width:0.854978;stroke-dasharray:none;stroke-opacity:1"
         id="ellipse16"
         cx="29.958776"
         cy="5.5897098"
         rx="3.3862095"
         ry="5.1364975"
         transform="matrix(0.91054053,0.41341981,-0.27194541,0.96231268,0,0)" />
      <ellipse
         style="fill:#00312b;fill-opacity:1;stroke:#050d0d;stroke-width:0.949448;stroke-dasharray:none;stroke-opacity:1"
         id="ellipse15"
         cx="32.170826"
         cy="10.096696"
         rx="4.4518371"
         ry="4.8180857"
         transform="matrix(0.97570939,0.21906891,-0.26079045,0.96539543,0,0)" />
      <ellipse
         style="fill:#081616;fill-opacity:1;stroke:none;stroke-width:0.433649;stroke-dasharray:none;stroke-opacity:1"
         id="ellipse17"
         cx="30.804125"
         cy="5.4019146"
         rx="1.741599"
         ry="2.5692153"
         transform="matrix(0.91610884,0.40092966,-0.28133932,0.95960835,0,0)" />
    </g>
    <ellipse
       style="fill:#00473e;fill-opacity:1;stroke:#002011;stroke-width:2.089;stroke-dasharray:none;stroke-opacity:1"
       id="path2"
       cx="39.419746"
       cy="18.640125"
       rx="12.683779"
       ry="14.146383" />
    <ellipse
       style="fill:#00954e;fill-opacity:1;stroke:none;stroke-width:0.885967;stroke-dasharray:none;stroke-opacity:1"
       id="path66"
       cx="40.263802"
       cy="16.878059"
       rx="10.664937"
       ry="11.370191" />
    <ellipse
       style="fill:#07ff86;fill-opacity:1;stroke:none;stroke-width:2.089;stroke-dasharray:none;stroke-opacity:1"
       id="path22"
       cx="33.964279"
       cy="32.17688"
       rx="5.4572983"
       ry="8.1090841"
       transform="rotate(-26.103605)" />
    <path
       id="path15"
       style="fill:#ffffff;stroke:#163333;stroke-width:0.988493;stroke-dasharray:none;stroke-opacity:1"
       d="m 44.582125,18.252478 c 0,2.822845 -2.313362,6.433079 -5.167039,6.433079 -2.853674,-1e-6 -5.167036,-3.610234 -5.167036,-6.433079 0,-2.822844 2.418813,-6.609325 5.272488,-6.609326 2.853675,0 5.061587,3.786482 5.061587,6.609326 z"
       sodipodi:nodetypes="sssss" />
    <path
       id="path19"
       style="fill:#17ffea;fill-opacity:1;stroke:#163333;stroke-width:1.2856;stroke-dasharray:none;stroke-opacity:1"
       d="m 41.890605,18.141376 c 0,1.954028 -1.492729,4.453103 -3.334093,4.453103 -1.841372,0 -3.334096,-2.499075 -3.334096,-4.453103 0,-1.954028 1.560768,-4.575108 3.402135,-4.575108 1.841371,0 3.266054,2.62108 3.266054,4.575108 z"
       sodipodi:nodetypes="sssss" />
    <path
       id="path20"
       style="fill:#ffffff;fill-opacity:0.767531;stroke:none;stroke-width:0.208472"
       d="m 38.727125,17.90359 c 0,0.7748 -0.617278,1.765718 -1.378727,1.765718 -0.761446,0 -1.378725,-0.990918 -1.378725,-1.765718 0,-0.774798 0.645413,-1.814092 1.406861,-1.814092 0.761449,0 1.350591,1.039294 1.350591,1.814092 z"
       sodipodi:nodetypes="sssss" />
    <path
       id="rect10"
       style="fill:#00312b;fill-opacity:1;stroke-width:0.828635"
       d="m 33.031209,69.649189 h 1.135743 c 1.652892,0 2.98356,0.39401 2.98356,0.883418 v 5.019535 c 0,1.186147 0.262515,0.883407 -2.98356,0.883407 h -1.135743 c -1.652891,0 -2.983558,-0.393999 -2.983558,-0.883407 v -5.019535 c 0,-0.489408 1.330667,-0.883418 2.983558,-0.883418 z"
       sodipodi:nodetypes="sssssssss" />
    <path
       id="path21"
       style="fill:#00473f;fill-opacity:1;stroke-width:0.811659"
       d="m 44.453251,70.791128 h 1.336196 c 1.944623,0 3.51015,0.321319 3.51015,0.720437 v 4.093481 c 0,0.967314 0.30885,0.720426 -3.51015,0.720426 h -1.336196 c -1.944621,0 -3.51015,-0.321309 -3.51015,-0.720426 v -4.093481 c 0,-0.399118 1.565529,-0.720437 3.51015,-0.720437 z"
       sodipodi:nodetypes="sssssssss" />
    <path
       sodipodi:type="spiral"
       style="fill:#07ff86;fill-opacity:1;fill-rule:evenodd;stroke:#006836;stroke-width:1.165;stroke-dasharray:none;stroke-opacity:1"
       id="path8"
       sodipodi:cx="7.3788824"
       sodipodi:cy="11.990684"
       sodipodi:expansion="1"
       sodipodi:revolution="3"
       sodipodi:radius="7.1775723"
       sodipodi:argument="-18.677364"
       sodipodi:t0="0"
       d="m 7.3788824,11.990684 c 0.3545501,0.06166 0.091804,0.508347 -0.1024849,0.589285 -0.5265123,0.219336 -1.0101602,-0.312416 -1.0760864,-0.794255 -0.1179264,-0.861898 0.6785411,-1.533067 1.4860261,-1.562887 1.1850166,-0.04376 2.0659185,1.047626 2.0496877,2.177796 -0.021633,1.506339 -1.4174993,2.602675 -2.8695671,2.536489 C 5.0391786,14.853823 3.7250753,13.149428 3.8431686,11.375774 3.9861954,9.2276413 6.0011989,7.6945659 8.0962768,7.8656841 10.565254,8.067341 12.31801,10.39416 12.093167,12.810563 11.833578,15.600395 9.1941789,17.573289 6.4565181,17.294254 3.345814,16.977198 1.1524728,14.024706 1.4860261,10.965834 1.8602224,7.5342424 5.1261684,5.1202316 8.5062165,5.5085416 12.258711,5.9396393 14.893555,9.5193049 14.45031,13.220503"
       transform="matrix(0.70129202,-0.00776254,-0.01830601,-0.7320009,19.666046,20.609136)" />
    <path
       id="path26"
       style="fill:#00473f;fill-opacity:1;stroke:none;stroke-width:1.53589;stroke-dasharray:none;stroke-opacity:1"
       d="m 31.349838,39.977102 c -0.0023,-0.09466 -0.0186,2.629461 -0.09439,2.698345 l -0.113357,12.38805 0.0048,0.01382 c 0,0 3.791488,-5.517013 3.844871,-9.792179 -0.698413,0.09847 -1.747444,0.425372 -2.448726,-0.72071 -0.770415,-1.259065 -1.093741,-0.113269 -1.13887,-2.372541 z m 3.97826,6.761075 c -0.02199,0.02285 -0.04415,0.04506 -0.06649,0.0666 l 0.07564,0.173769 c -0.0026,-0.08024 -0.0056,-0.160374 -0.0091,-0.24038 z"
       sodipodi:nodetypes="sccccscscccsc" />
    <path
       style="fill:none;fill-opacity:1;stroke:#002011;stroke-width:1.68175;stroke-linecap:round;stroke-linejoin:round;stroke-dasharray:none;stroke-opacity:1"
       d="m 30.173963,36.875463 c 0,0 -0.251144,5.108837 1.430365,6.514745 1.282473,1.072274 4.672797,0.651786 4.672797,0.651786"
       id="path23"
       sodipodi:nodetypes="csc" />
    <path
       id="path27"
       style="fill:#00473f;fill-opacity:1;stroke:none;stroke-width:1.7524;stroke-dasharray:none;stroke-opacity:1"
       d="m 48.565605,38.749897 c 0.102097,0.05364 0.203068,0.114625 0.302694,0.182842 l -0.02961,14.757455 -0.0063,0.01369 c 0,0 -4.984066,-5.463586 -5.05424,-9.697352 0.918093,0.09751 2.618594,0.690374 3.540458,-0.444609 1.012742,-1.246872 1.187706,-2.574633 1.247029,-4.812025 z m -5.229586,6.6956 c 0.02891,0.02263 0.05804,0.04462 0.0874,0.06596 l -0.09943,0.172086 c 0.0034,-0.07946 0.0074,-0.158821 0.01202,-0.238052 z"
       sodipodi:nodetypes="cccccscscccs" />
    <path
       style="fill:none;fill-opacity:1;stroke:#002011;stroke-width:1.8146;stroke-linecap:round;stroke-linejoin:round;stroke-dasharray:none;stroke-opacity:1"
       d="m 48.73119,36.73691 c 0,0 0.330139,5.059363 -1.880273,6.451656 -1.685863,1.06189 -6.142582,0.645474 -6.142582,0.645474"
       id="path24"
       sodipodi:nodetypes="csc" />
    <g
       id="g29"
       transform="matrix(0.82889632,0,0,-1.0067323,4.3760621,87.104558)">
      <ellipse
         style="fill:#002011;fill-opacity:1;stroke:none;stroke-width:1.6332;stroke-dasharray:none;stroke-opacity:1"
         id="path28"
         cx="35.288403"
         cy="41.778561"
         rx="1.6525621"
         ry="1.2682455" />
      <ellipse
         style="fill:#000f08;fill-opacity:1;stroke:none;stroke-width:1.24266;stroke-dasharray:none;stroke-opacity:1"
         id="ellipse28"
         cx="35.326832"
         cy="41.804771"
         rx="1.1913821"
         ry="1.0184395" />
      <ellipse
         style="fill:#002011;fill-opacity:1;stroke:none;stroke-width:0.946814;stroke-dasharray:none;stroke-opacity:1"
         id="ellipse29"
         cx="35.04314"
         cy="41.491093"
         rx="0.87090665"
         ry="0.80879658" />
    </g>
    <g
       id="g32"
       transform="matrix(-1.089618,0,0,-0.99698309,84.525619,85.921847)">
      <ellipse
         style="fill:#002011;fill-opacity:1;stroke:none;stroke-width:1.6332;stroke-dasharray:none;stroke-opacity:1"
         id="ellipse30"
         cx="35.288403"
         cy="41.778561"
         rx="1.6525621"
         ry="1.2682455" />
      <ellipse
         style="fill:#000f08;fill-opacity:1;stroke:none;stroke-width:1.24266;stroke-dasharray:none;stroke-opacity:1"
         id="ellipse31"
         cx="35.326832"
         cy="41.804771"
         rx="1.1913821"
         ry="1.0184395" />
      <ellipse
         style="fill:#002011;fill-opacity:1;stroke:none;stroke-width:0.946814;stroke-dasharray:none;stroke-opacity:1"
         id="ellipse32"
         cx="35.04314"
         cy="41.491093"
         rx="0.87090665"
         ry="0.80879658" />
    </g>
    <g
       id="g35"
       transform="matrix(0.57244706,0,0,-1,18.863427,97.58457)">
      <ellipse
         style="fill:#002011;fill-opacity:1;stroke:none;stroke-width:1.6332;stroke-dasharray:none;stroke-opacity:1"
         id="ellipse33"
         cx="35.288403"
         cy="41.778561"
         rx="1.6525621"
         ry="1.2682455" />
      <ellipse
         style="fill:#000f08;fill-opacity:1;stroke:none;stroke-width:1.24266;stroke-dasharray:none;stroke-opacity:1"
         id="ellipse34"
         cx="35.326832"
         cy="41.804771"
         rx="1.1913821"
         ry="1.0184395" />
      <ellipse
         style="fill:#002011;fill-opacity:1;stroke:none;stroke-width:0.946814;stroke-dasharray:none;stroke-opacity:1"
         id="ellipse35"
         cx="35.04314"
         cy="41.491093"
         rx="0.87090665"
         ry="0.80879658" />
    </g>
    <path
       id="rect38"
       style="fill:#ff6b3c;fill-opacity:1;stroke:#5c1700;stroke-width:1.24354;stroke-dasharray:none;stroke-opacity:1"
       d="m 28.250989,59.466654 c 0,0 0.407968,7.055317 0.701249,10.156486 0.180295,1.906453 -0.999502,3.455244 3.246931,4.264545 0.787935,-0.437773 2.044827,-0.783741 2.666851,-0.783635 0.534772,0.0024 1.285407,0.497491 1.624338,1.115145 0.338675,-0.665211 1.572692,-1.082962 2.132311,-1.082925 0.687124,0.0018 1.149912,0.69922 2.072735,1.297751 0.260523,-0.211203 0.579259,-1.137795 0.875702,-1.13927 0.383153,0.0022 0.755728,0.187875 1.062984,0.529683 0.319912,-0.827239 0.911062,-1.336838 1.55081,-1.336869 0.478272,3.58e-4 0.202844,1.536421 0.539057,2.04433 0.815773,-0.217876 1.482437,-1.926902 1.920224,-1.929092 0.310247,3.92e-4 1.104259,1.479889 1.373856,1.709131 0.532115,-2.068568 1.303543,-2.409112 2.304013,-1.384378 0.273495,-0.273592 0.263954,-1.791669 0.334806,-2.107073 0.925106,-4.11823 0.277502,-11.353829 0.277502,-11.353829 z"
       sodipodi:nodetypes="csccccccccccccscc" />
    <path
       id="path40"
       style="fill:#dd3500;fill-opacity:1;stroke:none;stroke-width:1.54033;stroke-dasharray:none"
       d="m 28.794612,59.112166 c 7.485852,2.248922 14.756111,1.897244 21.711242,-0.0096 v 3.7771 C 43.894505,66.942008 36.39723,65.2848 29.063634,62.764363 Z"
       sodipodi:nodetypes="ccccc" />
    <path
       id="rect37"
       style="fill:#dd3500;stroke:#5c1700;stroke-width:1.46526249;stroke-dasharray:none;stroke-opacity:1;fill-opacity:1"
       d="m 28.393576,57.254637 c 7.787287,1.956283 15.230362,1.658725 22.465557,0 v 3.285608 c -7.403139,1.775808 -14.878328,2.053084 -22.465557,0 z"
       sodipodi:nodetypes="ccccc" />
    <path
       id="path41"
       style="fill:#ff6b3c;fill-opacity:1;stroke:none;stroke-width:1.07074;stroke-dasharray:none"
       d="m 29.116415,58.184106 -0.0096,1.776894 c 2.447162,0.542304 4.876591,1.24847 7.579842,1.197024 l -0.937548,-1.52191 c -2.52839,-0.09517 -4.029054,-1.066314 -6.632686,-1.452008 z"
       sodipodi:nodetypes="cccccc" />
    <rect
       style="fill:#dd3500;fill-opacity:1;stroke:#5c1700;stroke-width:1.44639;stroke-dasharray:none;stroke-opacity:1"
       id="rect41"
       width="2.0070887"
       height="5.4610248"
       x="40.652306"
       y="48.645279"
       ry="1.0922049"
       transform="matrix(0.97526259,0.22104948,-0.18092051,0.98349772,0,0)" />
    <path
       sodipodi:type="spiral"
       style="fill:#00954e;fill-opacity:1;fill-rule:evenodd;stroke:#00312b;stroke-width:1.165;stroke-dasharray:none;stroke-opacity:1"
       id="path84"
       sodipodi:cx="7.3788824"
       sodipodi:cy="11.990684"
       sodipodi:expansion="1"
       sodipodi:revolution="3"
       sodipodi:radius="7.1775723"
       sodipodi:argument="-18.677364"
       sodipodi:t0="0"
       d="m 7.3788824,11.990684 c 0.3545501,0.06166 0.091804,0.508347 -0.1024849,0.589285 -0.5265123,0.219336 -1.0101602,-0.312416 -1.0760864,-0.794255 -0.1179264,-0.861898 0.6785411,-1.533067 1.4860261,-1.562887 1.1850166,-0.04376 2.0659185,1.047626 2.0496877,2.177796 -0.021633,1.506339 -1.4174993,2.602675 -2.8695671,2.536489 C 5.0391786,14.853823 3.7250753,13.149428 3.8431686,11.375774 3.9861954,9.2276413 6.0011989,7.6945659 8.0962768,7.8656841 10.565254,8.067341 12.31801,10.39416 12.093167,12.810563 11.833578,15.600395 9.1941789,17.573289 6.4565181,17.294254 3.345814,16.977198 1.1524728,14.024706 1.4860261,10.965834 1.8602224,7.5342424 5.1261684,5.1202316 8.5062165,5.5085416 12.258711,5.9396393 14.893555,9.5193049 14.45031,13.220503"
       transform="matrix(-0.45502258,0.43213374,-0.4428124,-0.55979156,62.663003,12.205945)" />
    <path
       sodipodi:type="spiral"
       style="fill:#07ff86;fill-opacity:1;fill-rule:evenodd;stroke:#006836;stroke-width:1.165;stroke-dasharray:none;stroke-opacity:1"
       id="path60"
       sodipodi:cx="7.3788824"
       sodipodi:cy="11.990684"
       sodipodi:expansion="1"
       sodipodi:revolution="3"
       sodipodi:radius="7.1775723"
       sodipodi:argument="-18.677364"
       sodipodi:t0="0"
       d="m 7.3788824,11.990684 c 0.3545501,0.06166 0.091804,0.508347 -0.1024849,0.589285 -0.5265123,0.219336 -1.0101602,-0.312416 -1.0760864,-0.794255 -0.1179264,-0.861898 0.6785411,-1.533067 1.4860261,-1.562887 1.1850166,-0.04376 2.0659185,1.047626 2.0496877,2.177796 -0.021633,1.506339 -1.4174993,2.602675 -2.8695671,2.536489 C 5.0391786,14.853823 3.7250753,13.149428 3.8431686,11.375774 3.9861954,9.2276413 6.0011989,7.6945659 8.0962768,7.8656841 10.565254,8.067341 12.31801,10.39416 12.093167,12.810563 11.833578,15.600395 9.1941789,17.573289 6.4565181,17.294254 3.345814,16.977198 1.1524728,14.024706 1.4860261,10.965834 1.8602224,7.5342424 5.1261684,5.1202316 8.5062165,5.5085416 12.258711,5.9396393 14.893555,9.5193049 14.45031,13.220503"
       transform="matrix(-0.60400417,-0.22067304,0.27349361,-0.72877663,55.557154,25.457042)"
       inkscape:transform-center-x="0.92234406"
       inkscape:transform-center-y="-2.6133833" />
    <path
       style="fill:#07ff86;fill-opacity:1;stroke:#002011;stroke-width:1.53556;stroke-dasharray:none;stroke-opacity:1"
       d="m 33.937404,11.234103 2.567481,1.776196 4.546585,0.08074 3.423309,-2.179875"
       id="path94" />
    <path
       sodipodi:type="spiral"
       style="fill:#07ff86;fill-opacity:1;fill-rule:evenodd;stroke:#006836;stroke-width:1.165;stroke-dasharray:none;stroke-opacity:1"
       id="path61"
       sodipodi:cx="7.3788824"
       sodipodi:cy="11.990684"
       sodipodi:expansion="1"
       sodipodi:revolution="3"
       sodipodi:radius="7.1775723"
       sodipodi:argument="-18.677364"
       sodipodi:t0="0"
       d="m 7.3788824,11.990684 c 0.3545501,0.06166 0.091804,0.508347 -0.1024849,0.589285 -0.5265123,0.219336 -1.0101602,-0.312416 -1.0760864,-0.794255 -0.1179264,-0.861898 0.6785411,-1.533067 1.4860261,-1.562887 1.1850166,-0.04376 2.0659185,1.047626 2.0496877,2.177796 -0.021633,1.506339 -1.4174993,2.602675 -2.8695671,2.536489 C 5.0391786,14.853823 3.7250753,13.149428 3.8431686,11.375774 3.9861954,9.2276413 6.0011989,7.6945659 8.0962768,7.8656841 10.565254,8.067341 12.31801,10.39416 12.093167,12.810563 11.833578,15.600395 9.1941789,17.573289 6.4565181,17.294254 3.345814,16.977198 1.1524728,14.024706 1.4860261,10.965834 1.8602224,7.5342424 5.1261684,5.1202316 8.5062165,5.5085416 12.258711,5.9396393 14.893555,9.5193049 14.45031,13.220503"
       transform="matrix(0.41619984,-0.56448954,-0.5953537,-0.42627972,32.621686,20.613705)" />
    <path
       sodipodi:type="spiral"
       style="fill:#07ff86;fill-opacity:1;fill-rule:evenodd;stroke:#006836;stroke-width:1.165;stroke-dasharray:none;stroke-opacity:1"
       id="path72"
       sodipodi:cx="7.3788824"
       sodipodi:cy="11.990684"
       sodipodi:expansion="1"
       sodipodi:revolution="3"
       sodipodi:radius="7.1775723"
       sodipodi:argument="-18.677364"
       sodipodi:t0="0"
       d="m 7.3788824,11.990684 c 0.3545501,0.06166 0.091804,0.508347 -0.1024849,0.589285 -0.5265123,0.219336 -1.0101602,-0.312416 -1.0760864,-0.794255 -0.1179264,-0.861898 0.6785411,-1.533067 1.4860261,-1.562887 1.1850166,-0.04376 2.0659185,1.047626 2.0496877,2.177796 -0.021633,1.506339 -1.4174993,2.602675 -2.8695671,2.536489 C 5.0391786,14.853823 3.7250753,13.149428 3.8431686,11.375774 3.9861954,9.2276413 6.0011989,7.6945659 8.0962768,7.8656841 10.565254,8.067341 12.31801,10.39416 12.093167,12.810563 11.833578,15.600395 9.1941789,17.573289 6.4565181,17.294254 3.345814,16.977198 1.1524728,14.024706 1.4860261,10.965834 1.8602224,7.5342424 5.1261684,5.1202316 8.5062165,5.5085416 12.258711,5.9396393 14.893555,9.5193049 14.45031,13.220503"
       transform="matrix(0.61483457,-0.00675805,-0.01604919,-0.63727799,28.479937,15.401401)" />
    <path
       sodipodi:type="spiral"
       style="fill:#07ff86;fill-opacity:1;fill-rule:evenodd;stroke:#006836;stroke-width:1.165;stroke-dasharray:none;stroke-opacity:1"
       id="path77"
       sodipodi:cx="7.3788824"
       sodipodi:cy="11.990684"
       sodipodi:expansion="1"
       sodipodi:revolution="3"
       sodipodi:radius="7.1775723"
       sodipodi:argument="-18.677364"
       sodipodi:t0="0"
       d="m 7.3788824,11.990684 c 0.3545501,0.06166 0.091804,0.508347 -0.1024849,0.589285 -0.5265123,0.219336 -1.0101602,-0.312416 -1.0760864,-0.794255 -0.1179264,-0.861898 0.6785411,-1.533067 1.4860261,-1.562887 1.1850166,-0.04376 2.0659185,1.047626 2.0496877,2.177796 -0.021633,1.506339 -1.4174993,2.602675 -2.8695671,2.536489 C 5.0391786,14.853823 3.7250753,13.149428 3.8431686,11.375774 3.9861954,9.2276413 6.0011989,7.6945659 8.0962768,7.8656841 10.565254,8.067341 12.31801,10.39416 12.093167,12.810563 11.833578,15.600395 9.1941789,17.573289 6.4565181,17.294254 3.345814,16.977198 1.1524728,14.024706 1.4860261,10.965834 1.8602224,7.5342424 5.1261684,5.1202316 8.5062165,5.5085416 12.258711,5.9396393 14.893555,9.5193049 14.45031,13.220503"
       transform="matrix(-0.61483457,-0.00675805,0.01604919,-0.63727799,55.360588,17.763038)" />
    <path
       sodipodi:type="spiral"
       style="fill:#07ff86;fill-opacity:1;fill-rule:evenodd;stroke:#006836;stroke-width:1.165;stroke-dasharray:none;stroke-opacity:1"
       id="path76"
       sodipodi:cx="7.3788824"
       sodipodi:cy="11.990684"
       sodipodi:expansion="1"
       sodipodi:revolution="3"
       sodipodi:radius="7.1775723"
       sodipodi:argument="-18.677364"
       sodipodi:t0="0"
       d="m 7.3788824,11.990684 c 0.3545501,0.06166 0.091804,0.508347 -0.1024849,0.589285 -0.5265123,0.219336 -1.0101602,-0.312416 -1.0760864,-0.794255 -0.1179264,-0.861898 0.6785411,-1.533067 1.4860261,-1.562887 1.1850166,-0.04376 2.0659185,1.047626 2.0496877,2.177796 -0.021633,1.506339 -1.4174993,2.602675 -2.8695671,2.536489 C 5.0391786,14.853823 3.7250753,13.149428 3.8431686,11.375774 3.9861954,9.2276413 6.0011989,7.6945659 8.0962768,7.8656841 10.565254,8.067341 12.31801,10.39416 12.093167,12.810563 11.833578,15.600395 9.1941789,17.573289 6.4565181,17.294254 3.345814,16.977198 1.1524728,14.024706 1.4860261,10.965834 1.8602224,7.5342424 5.1261684,5.1202316 8.5062165,5.5085416 12.258711,5.9396393 14.893555,9.5193049 14.45031,13.220503"
       transform="matrix(-0.61483457,-0.00675805,0.01604919,-0.63727799,50.795138,14.773755)" />
    <path
       sodipodi:type="spiral"
       style="fill:#07ff86;fill-opacity:1;fill-rule:evenodd;stroke:#006836;stroke-width:1.165;stroke-dasharray:none;stroke-opacity:1"
       id="path73"
       sodipodi:cx="7.3788824"
       sodipodi:cy="11.990684"
       sodipodi:expansion="1"
       sodipodi:revolution="3"
       sodipodi:radius="7.1775723"
       sodipodi:argument="-18.677364"
       sodipodi:t0="0"
       d="m 7.3788824,11.990684 c 0.3545501,0.06166 0.091804,0.508347 -0.1024849,0.589285 -0.5265123,0.219336 -1.0101602,-0.312416 -1.0760864,-0.794255 -0.1179264,-0.861898 0.6785411,-1.533067 1.4860261,-1.562887 1.1850166,-0.04376 2.0659185,1.047626 2.0496877,2.177796 -0.021633,1.506339 -1.4174993,2.602675 -2.8695671,2.536489 C 5.0391786,14.853823 3.7250753,13.149428 3.8431686,11.375774 3.9861954,9.2276413 6.0011989,7.6945659 8.0962768,7.8656841 10.565254,8.067341 12.31801,10.39416 12.093167,12.810563 11.833578,15.600395 9.1941789,17.573289 6.4565181,17.294254 3.345814,16.977198 1.1524728,14.024706 1.4860261,10.965834 1.8602224,7.5342424 5.1261684,5.1202316 8.5062165,5.5085416 12.258711,5.9396393 14.893555,9.5193049 14.45031,13.220503"
       transform="matrix(-0.61483457,-0.00675805,0.01604919,-0.63727799,45.033974,13.958496)" />
    <path
       style="fill:none;fill-opacity:1;stroke:#00120a;stroke-width:1.2446;stroke-linecap:round;stroke-linejoin:round;stroke-dasharray:none;stroke-opacity:1"
       d="m 35.378393,29.283106 c 0,0 1.162769,-1.092621 2.244035,-1.483899 1.081265,-0.391277 2.904127,-0.621878 4.183501,-0.462758 1.279375,0.159122 3.303239,1.234476 3.303239,1.234476"
       id="path93"
       sodipodi:nodetypes="czzc" />
    <ellipse
       style="fill:#dd3500;fill-opacity:1;stroke:#5c1700;stroke-width:0.968387;stroke-dasharray:none;stroke-opacity:1"
       id="path95"
       cx="23.755405"
       cy="24.095829"
       rx="1.2863752"
       ry="1.3248069" />
    <ellipse
       style="fill:#dd3500;fill-opacity:1;stroke:#5c1700;stroke-width:0.968387;stroke-dasharray:none;stroke-opacity:1"
       id="ellipse95"
       cx="55.884289"
       cy="22.866014"
       rx="1.2863752"
       ry="1.3248069" />
    <path
       id="path12"
       style="fill:#9d2500;fill-opacity:1;stroke:none;stroke-width:1.15406;stroke-dasharray:none"
       d="m 50.138676,58.188424 -0.01393,1.776879 c -2.850298,0.512528 -5.68231,1.189121 -8.821702,1.104831 l 1.110546,-1.510405 c 2.938342,-0.06444 4.695234,-1.017277 7.725078,-1.371305 z"
       sodipodi:nodetypes="cccccc" />
    <rect
       style="fill:#dd3500;fill-opacity:1;stroke:#5c1700;stroke-width:1.44639;stroke-dasharray:none;stroke-opacity:1"
       id="rect3"
       width="2.0070887"
       height="5.4610248"
       x="-33.742977"
       y="65.185883"
       ry="1.0922049"
       transform="matrix(-0.97526259,0.22104948,0.18092051,0.98349772,0,0)" />
    <path
       id="path1"
       style="fill:#00954e;fill-opacity:1;stroke:#002011;stroke-width:1.73973;stroke-dasharray:none;stroke-opacity:1"
       d="m 21.949421,46.443577 c 1.610087,1.267835 2.19646,4.704773 -0.755512,6.406298 -2.353844,1.356773 -4.641297,2.602741 -6.310326,0.838241 -1.680518,-1.776656 -3.399842,-3.545719 0.74573,-6.617124 2.214578,-1.640762 4.957558,-1.700346 6.320108,-0.627415 z"
       sodipodi:nodetypes="sssss" />
    <path
       id="path3"
       style="fill:#01ff85;fill-opacity:1;stroke:none;stroke-width:1.26958;stroke-dasharray:none;stroke-opacity:1"
       d="m 20.404209,46.697071 c 1.061017,0.847839 1.25251,3.405256 -0.95652,4.893616 -1.761437,1.186789 -3.468438,2.285298 -4.538795,1.06611 -1.077722,-1.227577 -2.183517,-2.446754 0.963382,-5.052282 1.681082,-1.391883 3.634044,-1.624955 4.531933,-0.907444 z"
       sodipodi:nodetypes="sssss" />
    <ellipse
       style="fill:#147249;fill-opacity:1;stroke:#0c1b1b;stroke-width:1.88304;stroke-dasharray:none;stroke-opacity:1"
       id="ellipse62"
       cx="57.768932"
       cy="50.745949"
       rx="10.344237"
       ry="19.12809"
       transform="rotate(-10.116972)" />
    <path
       id="ellipse73"
       style="fill:#ffe42d;fill-opacity:1;stroke:none;stroke-width:1.27216;stroke-dasharray:none;stroke-opacity:1"
       d="m 56.221353,31.349829 a 18.608883,9.388339 79.883028 0 0 0.331586,9.930678 18.608883,9.388339 79.883028 0 0 12.511244,16.670909 18.608883,9.388339 79.883028 0 0 5.451988,-6.12848 18.608883,13.401637 79.883028 0 1 -1.436714,0.37218 18.608883,13.401637 79.883028 0 1 -16.46193,-15.965188 18.608883,13.401637 79.883028 0 1 -0.396175,-4.880105 z" />
    <path
       id="path62"
       style="fill:#ffffff;stroke:#163333;stroke-width:1.75403;stroke-dasharray:none;stroke-opacity:1"
       d="m 77.79017,37.822868 c 0.633983,3.55306 -0.424057,8.430655 -2.729417,8.842007 -2.30536,0.411348 -4.985043,-3.799312 -5.619025,-7.352371 -0.633981,-3.553058 0.469664,-6.400223 2.775021,-6.811577 2.305359,-0.411352 4.93944,1.768883 5.573421,5.321941 z"
       sodipodi:nodetypes="sssss" />
    <path
       id="path63"
       style="fill:#17ffea;fill-opacity:1;stroke:#163333;stroke-width:1.15809;stroke-dasharray:none;stroke-opacity:1"
       d="m 74.876506,38.379561 c 0.347815,1.949276 -0.384124,4.652249 -1.835739,4.911264 -1.451619,0.259017 -3.07322,-2.024007 -3.421034,-3.973283 -0.347816,-1.949278 0.416046,-4.783527 1.867661,-5.042543 1.45162,-0.259016 3.041298,2.155285 3.389112,4.104562 z"
       sodipodi:nodetypes="sssss" />
    <path
       id="path64"
       style="fill:#ffffff;fill-opacity:1;stroke:none;stroke-width:0.239165"
       d="m 74.957865,35.721263 c 0.419136,0.909663 0.342742,2.245647 -0.412755,2.458549 -0.755488,0.212902 -1.903987,-0.777903 -2.323123,-1.687564 -0.419139,-0.909657 -0.340996,-2.310305 0.4145,-2.523207 0.755491,-0.212901 1.90224,0.842565 2.321378,1.752222 z"
       sodipodi:nodetypes="sssss" />
    <g
       id="g67"
       transform="matrix(1.6329262,-0.37290423,-1.1800634,-1.5901026,55.182639,61.706452)"
       style="stroke:#021212;stroke-opacity:1">
      <path
         sodipodi:type="spiral"
         style="fill:none;fill-opacity:1;fill-rule:evenodd;stroke:#021212;stroke-width:1.165;stroke-dasharray:none;stroke-opacity:1"
         id="path65"
         sodipodi:cx="7.3788824"
         sodipodi:cy="11.990684"
         sodipodi:expansion="1"
         sodipodi:revolution="3"
         sodipodi:radius="7.1775723"
         sodipodi:argument="-18.677364"
         sodipodi:t0="0"
         d="m 7.3788824,11.990684 c 0.3545501,0.06166 0.091804,0.508347 -0.1024849,0.589285 -0.5265123,0.219336 -1.0101602,-0.312416 -1.0760864,-0.794255 -0.1179264,-0.861898 0.6785411,-1.533067 1.4860261,-1.562887 1.1850166,-0.04376 2.0659185,1.047626 2.0496877,2.177796 -0.021633,1.506339 -1.4174993,2.602675 -2.8695671,2.536489 C 5.0391786,14.853823 3.7250753,13.149428 3.8431686,11.375774 3.9861954,9.2276413 6.0011989,7.6945659 8.0962768,7.8656841 10.565254,8.067341 12.31801,10.39416 12.093167,12.810563 11.833578,15.600395 9.1941789,17.573289 6.4565181,17.294254 3.345814,16.977198 1.1524728,14.024706 1.4860261,10.965834 1.8602224,7.5342424 5.1261684,5.1202316 8.5062165,5.5085416 12.258711,5.9396393 14.893555,9.5193049 14.45031,13.220503"
         transform="matrix(-0.12693299,-0.27940024,-0.24651116,0.18568287,23.532179,18.320999)" />
    </g>
    <g
       id="g68"
       transform="matrix(-1.6611259,0.21486257,0.55729609,-1.9001044,93.076625,83.091984)"
       style="stroke:#021212;stroke-opacity:1">
      <path
         sodipodi:type="spiral"
         style="fill:none;fill-opacity:1;fill-rule:evenodd;stroke:#021212;stroke-width:1.165;stroke-dasharray:none;stroke-opacity:1"
         id="path67"
         sodipodi:cx="7.3788824"
         sodipodi:cy="11.990684"
         sodipodi:expansion="1"
         sodipodi:revolution="3"
         sodipodi:radius="7.1775723"
         sodipodi:argument="-18.677364"
         sodipodi:t0="0"
         d="m 7.3788824,11.990684 c 0.3545501,0.06166 0.091804,0.508347 -0.1024849,0.589285 -0.5265123,0.219336 -1.0101602,-0.312416 -1.0760864,-0.794255 -0.1179264,-0.861898 0.6785411,-1.533067 1.4860261,-1.562887 1.1850166,-0.04376 2.0659185,1.047626 2.0496877,2.177796 -0.021633,1.506339 -1.4174993,2.602675 -2.8695671,2.536489 C 5.0391786,14.853823 3.7250753,13.149428 3.8431686,11.375774 3.9861954,9.2276413 6.0011989,7.6945659 8.0962768,7.8656841 10.565254,8.067341 12.31801,10.39416 12.093167,12.810563 11.833578,15.600395 9.1941789,17.573289 6.4565181,17.294254 3.345814,16.977198 1.1524728,14.024706 1.4860261,10.965834 1.8602224,7.5342424 5.1261684,5.1202316 8.5062165,5.5085416 12.258711,5.9396393 14.893555,9.5193049 14.45031,13.220503"
         transform="matrix(-0.12693299,-0.27940024,-0.24651116,0.18568287,23.532179,18.320999)" />
    </g>
    <g
       id="g69"
       transform="matrix(0.95037254,-2.0765635,-2.2013273,-0.62115608,83.999234,92.012644)"
       style="stroke:#021212;stroke-opacity:1">
      <path
         sodipodi:type="spiral"
         style="fill:none;fill-opacity:1;fill-rule:evenodd;stroke:#021212;stroke-width:1.165;stroke-dasharray:none;stroke-opacity:1"
         id="path69"
         sodipodi:cx="7.3788824"
         sodipodi:cy="11.990684"
         sodipodi:expansion="1"
         sodipodi:revolution="3"
         sodipodi:radius="7.1775723"
         sodipodi:argument="-18.677364"
         sodipodi:t0="0"
         d="m 7.3788824,11.990684 c 0.3545501,0.06166 0.091804,0.508347 -0.1024849,0.589285 -0.5265123,0.219336 -1.0101602,-0.312416 -1.0760864,-0.794255 -0.1179264,-0.861898 0.6785411,-1.533067 1.4860261,-1.562887 1.1850166,-0.04376 2.0659185,1.047626 2.0496877,2.177796 -0.021633,1.506339 -1.4174993,2.602675 -2.8695671,2.536489 C 5.0391786,14.853823 3.7250753,13.149428 3.8431686,11.375774 3.9861954,9.2276413 6.0011989,7.6945659 8.0962768,7.8656841 10.565254,8.067341 12.31801,10.39416 12.093167,12.810563 11.833578,15.600395 9.1941789,17.573289 6.4565181,17.294254 3.345814,16.977198 1.1524728,14.024706 1.4860261,10.965834 1.8602224,7.5342424 5.1261684,5.1202316 8.5062165,5.5085416 12.258711,5.9396393 14.893555,9.5193049 14.45031,13.220503"
         transform="matrix(-0.12693299,-0.27940024,-0.24651116,0.18568287,23.532179,18.320999)" />
    </g>
    <g
       id="g70"
       transform="matrix(1.8427723,-0.56812605,-1.4762358,-1.5794399,53.144869,71.499524)"
       style="stroke:#021212;stroke-opacity:1">
      <path
         sodipodi:type="spiral"
         style="fill:none;fill-opacity:1;fill-rule:evenodd;stroke:#021212;stroke-width:1.165;stroke-dasharray:none;stroke-opacity:1"
         id="path70"
         sodipodi:cx="7.3788824"
         sodipodi:cy="11.990684"
         sodipodi:expansion="1"
         sodipodi:revolution="3"
         sodipodi:radius="7.1775723"
         sodipodi:argument="-18.677364"
         sodipodi:t0="0"
         d="m 7.3788824,11.990684 c 0.3545501,0.06166 0.091804,0.508347 -0.1024849,0.589285 -0.5265123,0.219336 -1.0101602,-0.312416 -1.0760864,-0.794255 -0.1179264,-0.861898 0.6785411,-1.533067 1.4860261,-1.562887 1.1850166,-0.04376 2.0659185,1.047626 2.0496877,2.177796 -0.021633,1.506339 -1.4174993,2.602675 -2.8695671,2.536489 C 5.0391786,14.853823 3.7250753,13.149428 3.8431686,11.375774 3.9861954,9.2276413 6.0011989,7.6945659 8.0962768,7.8656841 10.565254,8.067341 12.31801,10.39416 12.093167,12.810563 11.833578,15.600395 9.1941789,17.573289 6.4565181,17.294254 3.345814,16.977198 1.1524728,14.024706 1.4860261,10.965834 1.8602224,7.5342424 5.1261684,5.1202316 8.5062165,5.5085416 12.258711,5.9396393 14.893555,9.5193049 14.45031,13.220503"
         transform="matrix(-0.03138143,-0.26457186,-0.33973589,0.08157699,23.858253,19.394667)" />
    </g>
    <g
       id="g71"
       transform="matrix(-1.9564971,-0.23870958,1.1968268,-1.9337047,82.267148,88.511627)"
       style="stroke:#021212;stroke-opacity:1">
      <path
         sodipodi:type="spiral"
         style="fill:none;fill-opacity:1;fill-rule:evenodd;stroke:#021212;stroke-width:1.165;stroke-dasharray:none;stroke-opacity:1"
         id="path71"
         sodipodi:cx="7.3788824"
         sodipodi:cy="11.990684"
         sodipodi:expansion="1"
         sodipodi:revolution="3"
         sodipodi:radius="7.1775723"
         sodipodi:argument="-18.677364"
         sodipodi:t0="0"
         d="m 7.3788824,11.990684 c 0.3545501,0.06166 0.091804,0.508347 -0.1024849,0.589285 -0.5265123,0.219336 -1.0101602,-0.312416 -1.0760864,-0.794255 -0.1179264,-0.861898 0.6785411,-1.533067 1.4860261,-1.562887 1.1850166,-0.04376 2.0659185,1.047626 2.0496877,2.177796 -0.021633,1.506339 -1.4174993,2.602675 -2.8695671,2.536489 C 5.0391786,14.853823 3.7250753,13.149428 3.8431686,11.375774 3.9861954,9.2276413 6.0011989,7.6945659 8.0962768,7.8656841 10.565254,8.067341 12.31801,10.39416 12.093167,12.810563 11.833578,15.600395 9.1941789,17.573289 6.4565181,17.294254 3.345814,16.977198 1.1524728,14.024706 1.4860261,10.965834 1.8602224,7.5342424 5.1261684,5.1202316 8.5062165,5.5085416 12.258711,5.9396393 14.893555,9.5193049 14.45031,13.220503"
         transform="matrix(-0.12693299,-0.27940024,-0.24651116,0.18568287,23.532179,18.320999)" />
    </g>
  </g>
</svg>
