<?xml version="1.0" encoding="UTF-8" standalone="no"?>
<!-- Created with Inkscape (http://www.inkscape.org/) -->

<svg
   width="300"
   height="300"
   viewBox="0 0 79.375 79.374999"
   version="1.1"
   id="svg3527"
   inkscape:version="1.4.2 (ebf0e940d0, 2025-05-08)"
   sodipodi:docname="ciclop[4].svg"
   xmlns:inkscape="http://www.inkscape.org/namespaces/inkscape"
   xmlns:sodipodi="http://sodipodi.sourceforge.net/DTD/sodipodi-0.dtd"
   xmlns="http://www.w3.org/2000/svg"
   xmlns:svg="http://www.w3.org/2000/svg">
  <sodipodi:namedview
     id="namedview3529"
     pagecolor="#505050"
     bordercolor="#ffffff"
     borderopacity="1"
     inkscape:pageshadow="0"
     inkscape:pageopacity="0"
     inkscape:pagecheckerboard="1"
     inkscape:document-units="px"
     showgrid="false"
     width="100mm"
     inkscape:zoom="6.8845115"
     inkscape:cx="161.88512"
     inkscape:cy="269.95379"
     inkscape:window-width="1366"
     inkscape:window-height="697"
     inkscape:window-x="0"
     inkscape:window-y="0"
     inkscape:window-maximized="1"
     inkscape:current-layer="layer1"
     inkscape:snap-global="false"
     inkscape:showpageshadow="0"
     inkscape:deskcolor="#505050"
     showguides="true">
    <sodipodi:guide
       position="13.220497,81.21972"
       orientation="0,-1"
       id="guide68"
       inkscape:locked="false" />
  </sodipodi:namedview>
  <defs
     id="defs3524">
    <inkscape:path-effect
       effect="fillet_chamfer"
       id="path-effect68"
       is_visible="true"
       lpeversion="1"
       nodesatellites_param="F,0,0,1,0,0,0,1 @ F,0,0,1,0,0,0,1 @ F,0,0,1,0,0,0,1 @ F,0,0,1,0,0,0,1 @ F,0,0,1,0,0,0,1 @ F,0,0,1,0,0,0,1 @ F,0,0,1,0,0,0,1 @ F,0,0,1,0,0,0,1 @ F,0,0,1,0,0,0,1"
       radius="0"
       unit="px"
       method="auto"
       mode="F"
       chamfer_steps="1"
       flexible="false"
       use_knot_distance="true"
       apply_no_radius="true"
       apply_with_radius="true"
       only_selected="false"
       hide_knots="false" />
    <inkscape:path-effect
       effect="fillet_chamfer"
       id="path-effect66"
       is_visible="true"
       lpeversion="1"
       nodesatellites_param="F,0,0,1,0,0,0,1 @ F,0,0,1,0,0.44929322,0,1 @ F,0,0,1,0,0.44929322,0,1 @ F,0,0,1,0,0,0,1 @ F,0,0,1,0,0,0,1 @ F,0,0,1,0,0,0,1 @ F,0,0,1,0,0,0,1 @ F,0,0,1,0,0,0,1 @ F,0,0,1,0,0,0,1 @ F,0,0,1,0,0,0,1"
       radius="0"
       unit="px"
       method="auto"
       mode="F"
       chamfer_steps="1"
       flexible="false"
       use_knot_distance="true"
       apply_no_radius="true"
       apply_with_radius="true"
       only_selected="false"
       hide_knots="false" />
  </defs>
  <g
     inkscape:label="Camada 1"
     inkscape:groupmode="layer"
     id="layer1">
    <ellipse
       style="fill:#332d00;fill-opacity:0.660817;stroke:none;stroke-width:0.65776;stroke-linecap:round;stroke-linejoin:round;stroke-dasharray:none"
       id="ellipse1"
       cx="19.122879"
       cy="76.076248"
       rx="17.952829"
       ry="1.3399208" />
    <ellipse
       style="fill:#332d00;fill-opacity:0.660817;stroke:none;stroke-width:1.0316;stroke-linecap:round;stroke-linejoin:round;stroke-dasharray:none"
       id="path9"
       cx="49.992565"
       cy="76.674469"
       rx="21.414137"
       ry="2.7631214" />
    <path
       id="path4"
       style="fill:#00954e;fill-opacity:1;stroke:#002011;stroke-width:2.29534;stroke-miterlimit:4;stroke-dasharray:none;stroke-opacity:1"
       d="m 33.628029,43.794268 c -0.72339,0.615578 -1.58052,0.912049 -2.22977,0.699645 l -7.90305,-2.501788 c -0.13969,-0.0046 -1.35963,-0.398611 -1.46921,-0.493386 -0.22776,-0.03557 -0.39634,-0.263761 -0.56579,-0.392563 l -7.20557,-5.476707 c -0.7607,-0.578192 -0.51234,-1.904038 0.55523,-2.972421 l 0.80666,-0.809384 c 1.06756,-1.068388 2.54024,-1.461725 3.30094,-0.883526 l 6.43331,5.170021 c 0.55298,0.193361 0.71714,0.192194 0.77384,0.229837 l 7.9954,0.379881 c 0.94435,0.308946 1.73936,3.816012 0.96555,5.077106 l -0.58537,0.954884 c -0.24179,0.394099 -0.54339,0.738579 -0.87225,1.018346 z"
       sodipodi:nodetypes="cccccccccccccccc" />
    <path
       id="path74"
       style="fill:#00312b;fill-opacity:1;stroke:none;stroke-width:1.30224;stroke-miterlimit:4;stroke-dasharray:none;stroke-opacity:1"
       d="m 33.474489,43.713577 c -0.29881,0.487573 -0.83093,0.717815 -1.4137,0.54152 l -7.05961,-2.07896 c -0.10848,-0.0049 -1.20145,-0.332143 -1.32405,-0.409198 -0.18843,-0.03059 -0.41093,-0.215249 -0.59321,-0.320155 -5.21747,-3.939203 -6.76951,-5.100205 -6.76951,-5.100205 0,0 -2.15569,-0.892969 -1.78042,-1.740942 l 0.28262,-0.642379 c 0.37519,-0.847918 1.33716,-1.150391 2.15545,-0.679486 l 5.80775,5.239725 c 1.40655,0.99682 2.40403,1.491026 3.25998,1.845457 l 7.91697,-0.692314 c 0,0 -0.10994,1.461013 -0.1817,2.466236 l -0.0539,0.761149 c -0.0224,0.314137 -0.11086,0.587916 -0.24673,0.809507 z"
       sodipodi:nodetypes="cccccccccccccccc" />
    <rect
       style="fill:#1f1f1f;fill-opacity:1;stroke:#000000;stroke-width:1.03042;stroke-dasharray:none;stroke-opacity:1"
       id="rect65"
       width="4.0168734"
       height="38.023342"
       x="39.811932"
       y="-15.037826"
       transform="matrix(0.60932312,0.79292202,-0.81156997,0.58425524,0,0)" />
    <path
       id="rect66"
       style="fill:#747474;fill-opacity:1;stroke:#191919;stroke-width:1.37289;stroke-dasharray:none;stroke-opacity:1"
       d="M 69.992387,6.8037028 58.399002,1.6215271 52.55323,6.4600267 a 4.2465308,4.3942047 86.401705 0 1 0.733592,0.744127 4.2465308,4.3942047 86.401705 0 1 -0.916591,5.9447743 4.2465308,4.3942047 86.401705 0 1 -6.145324,-0.860853 4.2465308,4.3942047 86.401705 0 1 -0.258552,-0.376628 L 28.98074,25.9705 l 3.660798,4.763851 z" />
    <rect
       style="fill:#1f1f1f;fill-opacity:1;stroke:#000000;stroke-width:0.803056;stroke-miterlimit:4;stroke-dasharray:none;stroke-opacity:1"
       id="rect32"
       width="8.7068853"
       height="2.1689365"
       x="37.494038"
       y="22.442738"
       ry="1.0152175"
       transform="matrix(0.60932312,0.79292202,-0.81156997,0.58425524,0,0)" />
    <rect
       style="fill:#1f1f1f;fill-opacity:1;stroke:#000000;stroke-width:1.24634;stroke-miterlimit:4;stroke-dasharray:none;stroke-opacity:1"
       id="rect33"
       width="10.424343"
       height="2.8567543"
       x="36.626514"
       y="24.662405"
       ry="1.3371655"
       transform="matrix(0.60932312,0.79292202,-0.81156997,0.58425524,0,0)" />
    <path
       id="path78"
       style="fill:#464646;fill-opacity:1;stroke:none;stroke-width:1.12043;stroke-dasharray:none;stroke-opacity:1"
       d="M 68.576364,6.921296 62.825492,4.3073092 c -2.868772,3.5441357 -5.437731,4.3145623 -8.034245,5.3398362 0.0094,1.1965486 -0.81602,3.1097216 -2.068285,4.0109706 -1.251899,0.901242 -2.936543,1.212448 -4.117746,0.860092 -4.638967,5.937776 -10.937122,9.716421 -17.653033,12.95144 l 2.131199,2.773364 z"
       sodipodi:nodetypes="cccccccc" />
    <path
       style="fill:#000000;fill-opacity:1;stroke:none;stroke-width:4.46608;stroke-linecap:round;stroke-linejoin:round;stroke-dasharray:none;stroke-opacity:1"
       d="m 18.954685,34.441467 -5.922859,5.620887 -0.340145,4.528038 10.082346,-5.661341 z"
       id="path6"
       sodipodi:nodetypes="ccccc" />
    <path
       style="fill:#191919;fill-opacity:1;stroke:none;stroke-width:2.03929;stroke-linecap:round;stroke-linejoin:round;stroke-dasharray:none;stroke-opacity:1"
       d="m 38.909756,17.994111 0.554814,1.837838 -2.0424,-0.911258 z"
       id="path10" />
    <path
       style="fill:#191919;fill-opacity:1;stroke:none;stroke-width:3.57542;stroke-linecap:round;stroke-linejoin:round;stroke-dasharray:none;stroke-opacity:1"
       d="m 38.177709,18.64249 0.694244,3.059475 -3.544171,-1.237419 z"
       id="path11" />
    <path
       sodipodi:type="spiral"
       style="fill:#00954e;fill-opacity:1;fill-rule:evenodd;stroke:#00312b;stroke-width:1.165;stroke-dasharray:none;stroke-opacity:1"
       id="path86"
       sodipodi:cx="7.3788824"
       sodipodi:cy="11.990684"
       sodipodi:expansion="1"
       sodipodi:revolution="3"
       sodipodi:radius="7.1775723"
       sodipodi:argument="-18.677364"
       sodipodi:t0="0"
       d="m 7.3788824,11.990684 c 0.3545501,0.06166 0.091804,0.508347 -0.1024849,0.589285 -0.5265123,0.219336 -1.0101602,-0.312416 -1.0760864,-0.794255 -0.1179264,-0.861898 0.6785411,-1.533067 1.4860261,-1.562887 1.1850166,-0.04376 2.0659185,1.047626 2.0496877,2.177796 -0.021633,1.506339 -1.4174993,2.602675 -2.8695671,2.536489 C 5.0391786,14.853823 3.7250753,13.149428 3.8431686,11.375774 3.9861954,9.2276413 6.0011989,7.6945659 8.0962768,7.8656841 10.565254,8.067341 12.31801,10.39416 12.093167,12.810563 11.833578,15.600395 9.1941789,17.573289 6.4565181,17.294254 3.345814,16.977198 1.1524728,14.024706 1.4860261,10.965834 1.8602224,7.5342424 5.1261684,5.1202316 8.5062165,5.5085416 12.258711,5.9396393 14.893555,9.5193049 14.45031,13.220503"
       transform="matrix(0.21030906,-0.6588067,0.57417187,0.38027529,43.575636,27.804766)" />
    <path
       sodipodi:type="spiral"
       style="fill:#00954e;fill-opacity:1;fill-rule:evenodd;stroke:#00312b;stroke-width:1.165;stroke-dasharray:none;stroke-opacity:1"
       id="path85"
       sodipodi:cx="7.3788824"
       sodipodi:cy="11.990684"
       sodipodi:expansion="1"
       sodipodi:revolution="3"
       sodipodi:radius="7.1775723"
       sodipodi:argument="-18.677364"
       sodipodi:t0="0"
       d="m 7.3788824,11.990684 c 0.3545501,0.06166 0.091804,0.508347 -0.1024849,0.589285 -0.5265123,0.219336 -1.0101602,-0.312416 -1.0760864,-0.794255 -0.1179264,-0.861898 0.6785411,-1.533067 1.4860261,-1.562887 1.1850166,-0.04376 2.0659185,1.047626 2.0496877,2.177796 -0.021633,1.506339 -1.4174993,2.602675 -2.8695671,2.536489 C 5.0391786,14.853823 3.7250753,13.149428 3.8431686,11.375774 3.9861954,9.2276413 6.0011989,7.6945659 8.0962768,7.8656841 10.565254,8.067341 12.31801,10.39416 12.093167,12.810563 11.833578,15.600395 9.1941789,17.573289 6.4565181,17.294254 3.345814,16.977198 1.1524728,14.024706 1.4860261,10.965834 1.8602224,7.5342424 5.1261684,5.1202316 8.5062165,5.5085416 12.258711,5.9396393 14.893555,9.5193049 14.45031,13.220503"
       transform="matrix(-0.21030906,-0.6588067,-0.57417187,0.38027529,34.970935,24.883958)" />
    <path
       sodipodi:type="spiral"
       style="fill:#00954e;fill-opacity:1;fill-rule:evenodd;stroke:#00312b;stroke-width:1.165;stroke-dasharray:none;stroke-opacity:1"
       id="path83"
       sodipodi:cx="7.3788824"
       sodipodi:cy="11.990684"
       sodipodi:expansion="1"
       sodipodi:revolution="3"
       sodipodi:radius="7.1775723"
       sodipodi:argument="-18.677364"
       sodipodi:t0="0"
       d="m 7.3788824,11.990684 c 0.3545501,0.06166 0.091804,0.508347 -0.1024849,0.589285 -0.5265123,0.219336 -1.0101602,-0.312416 -1.0760864,-0.794255 -0.1179264,-0.861898 0.6785411,-1.533067 1.4860261,-1.562887 1.1850166,-0.04376 2.0659185,1.047626 2.0496877,2.177796 -0.021633,1.506339 -1.4174993,2.602675 -2.8695671,2.536489 C 5.0391786,14.853823 3.7250753,13.149428 3.8431686,11.375774 3.9861954,9.2276413 6.0011989,7.6945659 8.0962768,7.8656841 10.565254,8.067341 12.31801,10.39416 12.093167,12.810563 11.833578,15.600395 9.1941789,17.573289 6.4565181,17.294254 3.345814,16.977198 1.1524728,14.024706 1.4860261,10.965834 1.8602224,7.5342424 5.1261684,5.1202316 8.5062165,5.5085416 12.258711,5.9396393 14.893555,9.5193049 14.45031,13.220503"
       transform="matrix(-0.51443136,0.55245752,-0.50062699,-0.71566052,60.665213,11.071387)" />
    <path
       sodipodi:type="spiral"
       style="fill:#00954e;fill-opacity:1;fill-rule:evenodd;stroke:#00312b;stroke-width:1.165;stroke-dasharray:none;stroke-opacity:1"
       id="path82"
       sodipodi:cx="7.3788824"
       sodipodi:cy="11.990684"
       sodipodi:expansion="1"
       sodipodi:revolution="3"
       sodipodi:radius="7.1775723"
       sodipodi:argument="-18.677364"
       sodipodi:t0="0"
       d="m 7.3788824,11.990684 c 0.3545501,0.06166 0.091804,0.508347 -0.1024849,0.589285 -0.5265123,0.219336 -1.0101602,-0.312416 -1.0760864,-0.794255 -0.1179264,-0.861898 0.6785411,-1.533067 1.4860261,-1.562887 1.1850166,-0.04376 2.0659185,1.047626 2.0496877,2.177796 -0.021633,1.506339 -1.4174993,2.602675 -2.8695671,2.536489 C 5.0391786,14.853823 3.7250753,13.149428 3.8431686,11.375774 3.9861954,9.2276413 6.0011989,7.6945659 8.0962768,7.8656841 10.565254,8.067341 12.31801,10.39416 12.093167,12.810563 11.833578,15.600395 9.1941789,17.573289 6.4565181,17.294254 3.345814,16.977198 1.1524728,14.024706 1.4860261,10.965834 1.8602224,7.5342424 5.1261684,5.1202316 8.5062165,5.5085416 12.258711,5.9396393 14.893555,9.5193049 14.45031,13.220503"
       transform="matrix(-0.29142518,0.73448135,-0.79562976,-0.42395608,56.142141,5.0883121)" />
    <path
       sodipodi:type="spiral"
       style="fill:#00954e;fill-opacity:1;fill-rule:evenodd;stroke:#00312b;stroke-width:1.165;stroke-dasharray:none;stroke-opacity:1"
       id="path81"
       sodipodi:cx="7.3788824"
       sodipodi:cy="11.990684"
       sodipodi:expansion="1"
       sodipodi:revolution="3"
       sodipodi:radius="7.1775723"
       sodipodi:argument="-18.677364"
       sodipodi:t0="0"
       d="m 7.3788824,11.990684 c 0.3545501,0.06166 0.091804,0.508347 -0.1024849,0.589285 -0.5265123,0.219336 -1.0101602,-0.312416 -1.0760864,-0.794255 -0.1179264,-0.861898 0.6785411,-1.533067 1.4860261,-1.562887 1.1850166,-0.04376 2.0659185,1.047626 2.0496877,2.177796 -0.021633,1.506339 -1.4174993,2.602675 -2.8695671,2.536489 C 5.0391786,14.853823 3.7250753,13.149428 3.8431686,11.375774 3.9861954,9.2276413 6.0011989,7.6945659 8.0962768,7.8656841 10.565254,8.067341 12.31801,10.39416 12.093167,12.810563 11.833578,15.600395 9.1941789,17.573289 6.4565181,17.294254 3.345814,16.977198 1.1524728,14.024706 1.4860261,10.965834 1.8602224,7.5342424 5.1261684,5.1202316 8.5062165,5.5085416 12.258711,5.9396393 14.893555,9.5193049 14.45031,13.220503"
       transform="matrix(-0.29142518,0.73448135,-0.79562976,-0.42395608,48.913511,5.3600651)" />
    <path
       sodipodi:type="spiral"
       style="fill:#00954e;fill-opacity:1;fill-rule:evenodd;stroke:#00312b;stroke-width:1.165;stroke-dasharray:none;stroke-opacity:1"
       id="path80"
       sodipodi:cx="7.3788824"
       sodipodi:cy="11.990684"
       sodipodi:expansion="1"
       sodipodi:revolution="3"
       sodipodi:radius="7.1775723"
       sodipodi:argument="-18.677364"
       sodipodi:t0="0"
       d="m 7.3788824,11.990684 c 0.3545501,0.06166 0.091804,0.508347 -0.1024849,0.589285 -0.5265123,0.219336 -1.0101602,-0.312416 -1.0760864,-0.794255 -0.1179264,-0.861898 0.6785411,-1.533067 1.4860261,-1.562887 1.1850166,-0.04376 2.0659185,1.047626 2.0496877,2.177796 -0.021633,1.506339 -1.4174993,2.602675 -2.8695671,2.536489 C 5.0391786,14.853823 3.7250753,13.149428 3.8431686,11.375774 3.9861954,9.2276413 6.0011989,7.6945659 8.0962768,7.8656841 10.565254,8.067341 12.31801,10.39416 12.093167,12.810563 11.833578,15.600395 9.1941789,17.573289 6.4565181,17.294254 3.345814,16.977198 1.1524728,14.024706 1.4860261,10.965834 1.8602224,7.5342424 5.1261684,5.1202316 8.5062165,5.5085416 12.258711,5.9396393 14.893555,9.5193049 14.45031,13.220503"
       transform="matrix(-0.29142518,0.73448135,-0.79562976,-0.42395608,42.44579,5.3057145)" />
    <path
       sodipodi:type="spiral"
       style="fill:#00954e;fill-opacity:1;fill-rule:evenodd;stroke:#00312b;stroke-width:1.165;stroke-dasharray:none;stroke-opacity:1"
       id="path7"
       sodipodi:cx="7.3788824"
       sodipodi:cy="11.990684"
       sodipodi:expansion="1"
       sodipodi:revolution="3"
       sodipodi:radius="7.1775723"
       sodipodi:argument="-18.677364"
       sodipodi:t0="0"
       d="m 7.3788824,11.990684 c 0.3545501,0.06166 0.091804,0.508347 -0.1024849,0.589285 -0.5265123,0.219336 -1.0101602,-0.312416 -1.0760864,-0.794255 -0.1179264,-0.861898 0.6785411,-1.533067 1.4860261,-1.562887 1.1850166,-0.04376 2.0659185,1.047626 2.0496877,2.177796 -0.021633,1.506339 -1.4174993,2.602675 -2.8695671,2.536489 C 5.0391786,14.853823 3.7250753,13.149428 3.8431686,11.375774 3.9861954,9.2276413 6.0011989,7.6945659 8.0962768,7.8656841 10.565254,8.067341 12.31801,10.39416 12.093167,12.810563 11.833578,15.600395 9.1941789,17.573289 6.4565181,17.294254 3.345814,16.977198 1.1524728,14.024706 1.4860261,10.965834 1.8602224,7.5342424 5.1261684,5.1202316 8.5062165,5.5085416 12.258711,5.9396393 14.893555,9.5193049 14.45031,13.220503"
       transform="matrix(-0.29169973,0.72016159,-0.79637931,-0.41569045,38.095092,7.91544)" />
    <path
       id="path39"
       style="fill:#774600;stroke:#5c1700;stroke-width:1.24354;stroke-opacity:1"
       d="m 50.401492,53.453814 0.05435,0.298928 v 3.831718 l 0.543506,-1.38594 z"
       sodipodi:nodetypes="ccccc" />
    <path
       id="rect39"
       style="fill:#774600;stroke:#5c1700;stroke-width:1.24354;stroke-opacity:1"
       d="m 28.914519,53.616866 -0.05435,0.298928 v 3.831718 l -0.543506,-1.38594 z"
       sodipodi:nodetypes="ccccc" />
    <g
       id="g21"
       transform="matrix(-1,0,0,1,78.645185,0.76863355)">
      <ellipse
         style="fill:#00954e;fill-opacity:1;stroke:#002011;stroke-width:1.82416;stroke-dasharray:none;stroke-opacity:1"
         id="ellipse18"
         cx="29.934484"
         cy="10.026855"
         rx="4.9577522"
         ry="7.5484438"
         transform="matrix(0.97570939,0.21906891,-0.26079045,0.96539543,0,0)" />
      <ellipse
         style="fill:#00312b;fill-opacity:1;stroke:none;stroke-width:0.854978;stroke-dasharray:none;stroke-opacity:1"
         id="ellipse19"
         cx="29.958776"
         cy="5.5897098"
         rx="3.3862095"
         ry="5.1364975"
         transform="matrix(0.91054053,0.41341981,-0.27194541,0.96231268,0,0)" />
      <ellipse
         style="fill:#00312b;fill-opacity:1;stroke:#050d0d;stroke-width:0.949448;stroke-dasharray:none;stroke-opacity:1"
         id="ellipse20"
         cx="32.170826"
         cy="10.096696"
         rx="4.4518371"
         ry="4.8180857"
         transform="matrix(0.97570939,0.21906891,-0.26079045,0.96539543,0,0)" />
      <ellipse
         style="fill:#081616;fill-opacity:1;stroke:none;stroke-width:0.433649;stroke-dasharray:none;stroke-opacity:1"
         id="ellipse21"
         cx="30.804125"
         cy="5.4019146"
         rx="1.741599"
         ry="2.5692153"
         transform="matrix(0.91610884,0.40092966,-0.28133932,0.95960835,0,0)" />
    </g>
    <rect
       style="fill:#00954e;fill-opacity:1;stroke:#002011;stroke-width:1.55698;stroke-dasharray:none;stroke-opacity:1"
       id="rect63"
       width="8.2415113"
       height="20.649406"
       x="29.277178"
       y="57.846596"
       ry="2.68803" />
    <path
       id="path5"
       style="fill:#00954e;fill-opacity:1;stroke:#002011;stroke-width:1.72956;stroke-miterlimit:4;stroke-dasharray:none;stroke-opacity:1"
       d="m 46.848912,38.096992 c -0.47892,0.755069 -0.59236,1.636163 -0.220067,2.289852 l 4.444143,7.95974 c 0.03695,0.141929 0.731221,1.370378 0.855852,1.47886 0.08976,0.23054 0.367903,0.394851 0.542013,0.563162 l 7.403237,7.157025 c 0.78158,0.755576 2.114768,0.461386 2.989248,-0.657944 l 0.662971,-0.845841 c 0.874479,-1.119331 0.947731,-2.629531 0.166146,-3.385104 L 56.788733,46.27556 c -0.330161,-0.556371 -0.366755,-0.723369 -0.419292,-0.779859 l -4.743274,-8.719735 c -0.54153,-0.950807 -1.899411,-1.049915 -3.043652,-0.223317 l -0.866531,0.625334 c -0.357564,0.25832 -0.649364,0.575847 -0.866996,0.919104 z"
       sodipodi:nodetypes="cccccccccccccccc" />
    <path
       id="path79"
       style="fill:#00312b;fill-opacity:1;stroke:none;stroke-width:1.32281;stroke-miterlimit:4;stroke-dasharray:none;stroke-opacity:1"
       d="m 47.441035,37.063952 c -0.433925,0.384543 -0.591589,0.977611 -0.351215,1.565545 l 2.857212,7.130261 c 0.01785,0.113438 0.465369,1.216589 0.554466,1.334528 0.05225,0.193888 0.25716,0.401494 0.380318,0.578231 4.427935,4.924277 3.570111,5.081656 5.236534,7.515499 0.55284,0.793423 1.61952,1.015263 2.39162,0.498491 l 0.585117,-0.389767 c 0.772079,-0.516711 0.947426,-1.572528 0.394589,-2.365948 l -5.752997,-5.35849 c -1.130916,-1.336875 -1.727871,-2.315511 -2.172981,-3.165313 l -0.279442,-6.739047 c -0.349651,-0.855183 -1.404959,-1.366114 -2.365345,-1.146084 l -0.727251,0.166161 c -0.30013,0.06874 -0.553371,0.201178 -0.750572,0.376015 z"
       sodipodi:nodetypes="cccccccccccccccc" />
    <rect
       style="fill:#00954e;fill-opacity:1;stroke:#002011;stroke-width:1.70145;stroke-dasharray:none;stroke-opacity:1"
       id="rect9"
       width="9.9113178"
       height="20.504688"
       x="40.342331"
       y="56.650791"
       ry="2.6691911" />
    <rect
       style="fill:none;fill-opacity:1;stroke:#002011;stroke-width:4.511;stroke-dasharray:none;stroke-opacity:1"
       id="rect1"
       width="8.7918472"
       height="16.762125"
       x="35.101086"
       y="26.468765" />
    <rect
       style="fill:#00954e;fill-opacity:1;stroke:#002011;stroke-width:2.05966;stroke-opacity:1"
       id="rect2"
       width="19.661329"
       height="24.869091"
       x="30.205996"
       y="36.356693" />
    <path
       id="path75"
       style="fill:#00954e;fill-opacity:1;stroke-width:0.858754"
       d="m 38.748275,31.676383 h 1.251921 c 1.821976,0 4.861458,-0.11572 4.444599,0.495646 0,0 0.757925,3.548742 0.757925,5.178995 0,1.155722 -1.624389,0.937612 -5.202524,0.937612 h -1.251921 c -1.821974,0 -4.425649,0.03885 -4.425649,-0.438001 0,-1.630252 0.549495,-5.544095 0.549495,-5.544095 0,-0.476855 2.05418,-0.630157 3.876154,-0.630157 z"
       sodipodi:nodetypes="sssssssss" />
    <path
       id="ellipse24"
       style="fill:#00312b;stroke-width:0.808785"
       d="m 44.872166,32.934239 c 0,2.884842 -2.219949,2.804227 -5.063678,2.804227 -2.843729,10e-7 -5.234375,0.08062 -5.234375,-2.804227 0,-2.884842 2.305298,-5.223469 5.149027,-5.223469 2.843728,0 5.149026,2.338627 5.149026,5.223469 z"
       sodipodi:nodetypes="sssss" />
    <g
       id="g17">
      <ellipse
         style="fill:#00954e;fill-opacity:1;stroke:#002011;stroke-width:1.82416;stroke-dasharray:none;stroke-opacity:1"
         id="ellipse14"
         cx="29.934484"
         cy="10.026855"
         rx="4.9577522"
         ry="7.5484438"
         transform="matrix(0.97570939,0.21906891,-0.26079045,0.96539543,0,0)" />
      <ellipse
         style="fill:#00312b;fill-opacity:1;stroke:none;stroke-width:0.854978;stroke-dasharray:none;stroke-opacity:1"
         id="ellipse16"
         cx="29.958776"
         cy="5.5897098"
         rx="3.3862095"
         ry="5.1364975"
         transform="matrix(0.91054053,0.41341981,-0.27194541,0.96231268,0,0)" />
      <ellipse
         style="fill:#00312b;fill-opacity:1;stroke:#050d0d;stroke-width:0.949448;stroke-dasharray:none;stroke-opacity:1"
         id="ellipse15"
         cx="32.170826"
         cy="10.096696"
         rx="4.4518371"
         ry="4.8180857"
         transform="matrix(0.97570939,0.21906891,-0.26079045,0.96539543,0,0)" />
      <ellipse
         style="fill:#081616;fill-opacity:1;stroke:none;stroke-width:0.433649;stroke-dasharray:none;stroke-opacity:1"
         id="ellipse17"
         cx="30.804125"
         cy="5.4019146"
         rx="1.741599"
         ry="2.5692153"
         transform="matrix(0.91610884,0.40092966,-0.28133932,0.95960835,0,0)" />
    </g>
    <ellipse
       style="fill:#00473e;fill-opacity:1;stroke:#002011;stroke-width:2.089;stroke-dasharray:none;stroke-opacity:1"
       id="path2"
       cx="39.419746"
       cy="18.640125"
       rx="12.683779"
       ry="14.146383" />
    <ellipse
       style="fill:#00954e;fill-opacity:1;stroke:none;stroke-width:0.885967;stroke-dasharray:none;stroke-opacity:1"
       id="path66"
       cx="40.263802"
       cy="16.878059"
       rx="10.664937"
       ry="11.370191" />
    <ellipse
       style="fill:#07ff86;fill-opacity:1;stroke:none;stroke-width:2.089;stroke-dasharray:none;stroke-opacity:1"
       id="path22"
       cx="33.964279"
       cy="32.17688"
       rx="5.4572983"
       ry="8.1090841"
       transform="rotate(-26.103605)" />
    <path
       id="path15"
       style="fill:#ffffff;stroke:#163333;stroke-width:0.988493;stroke-dasharray:none;stroke-opacity:1"
       d="m 41.430727,17.791298 c 0,2.822845 -2.313362,6.433079 -5.167039,6.433079 -2.853674,-1e-6 -5.167036,-3.610234 -5.167036,-6.433079 0,-2.822844 2.418813,-6.609325 5.272488,-6.609326 2.853675,0 5.061587,3.786482 5.061587,6.609326 z"
       sodipodi:nodetypes="sssss" />
    <path
       id="path19"
       style="fill:#17ffea;fill-opacity:1;stroke:#163333;stroke-width:1.2856;stroke-dasharray:none;stroke-opacity:1"
       d="m 38.739207,17.680196 c 0,1.954028 -1.492729,4.453103 -3.334093,4.453103 -1.841372,0 -3.334096,-2.499075 -3.334096,-4.453103 0,-1.954028 1.560768,-4.575108 3.402135,-4.575108 1.841371,0 3.266054,2.62108 3.266054,4.575108 z"
       sodipodi:nodetypes="sssss" />
    <path
       id="path20"
       style="fill:#ffffff;fill-opacity:0.767531;stroke:none;stroke-width:0.208472"
       d="m 35.575727,17.44241 c 0,0.7748 -0.617278,1.765718 -1.378727,1.765718 -0.761446,0 -1.378725,-0.990918 -1.378725,-1.765718 0,-0.774798 0.645413,-1.814092 1.406861,-1.814092 0.761449,0 1.350591,1.039294 1.350591,1.814092 z"
       sodipodi:nodetypes="sssss" />
    <path
       id="rect10"
       style="fill:#00312b;fill-opacity:1;stroke-width:0.806154"
       d="m 32.871514,69.649189 h 1.074952 c 1.56442,0 2.823864,0.39401 2.823864,0.883418 v 5.019535 c 0,1.186147 0.248464,0.883407 -2.823864,0.883407 h -1.074952 c -1.56442,0 -2.823863,-0.393999 -2.823863,-0.883407 v -5.019535 c 0,-0.489408 1.259443,-0.883418 2.823863,-0.883418 z"
       sodipodi:nodetypes="sssssssss" />
    <path
       id="path21"
       style="fill:#00473f;fill-opacity:1;stroke-width:0.811659"
       d="m 44.683841,69.407588 h 1.336196 c 1.944623,0 3.51015,0.321319 3.51015,0.720437 v 4.093481 c 0,0.967314 0.30885,0.720426 -3.51015,0.720426 h -1.336196 c -1.944621,0 -3.51015,-0.321309 -3.51015,-0.720426 v -4.093481 c 0,-0.399118 1.565529,-0.720437 3.51015,-0.720437 z"
       sodipodi:nodetypes="sssssssss" />
    <ellipse
       style="fill:#147249;fill-opacity:1;stroke:#0c1b1b;stroke-width:1.88303957;stroke-dasharray:none;stroke-opacity:1"
       id="ellipse62"
       cx="64.42041"
       cy="51.63932"
       rx="10.344237"
       ry="19.12809" />
    <path
       id="ellipse73"
       style="fill:#ffe42d;fill-opacity:1;stroke:none;stroke-width:1.27216;stroke-dasharray:none;stroke-opacity:1"
       d="M 56.491796,41.631498 A 9.388339,18.608883 0 0 0 55.073819,51.466012 9.388339,18.608883 0 0 0 64.462145,70.075413 9.388339,18.608883 0 0 0 70.90588,64.99991 13.401637,18.608883 0 0 1 69.426128,65.113933 13.401637,18.608883 0 0 1 56.02458,46.505309 13.401637,18.608883 0 0 1 56.491796,41.631492 Z" />
    <path
       id="path62"
       style="fill:#ffffff;stroke:#163333;stroke-width:1.75403;stroke-dasharray:none;stroke-opacity:1"
       d="m 76.588201,51.792632 c 0,3.609178 -1.898379,8.225079 -4.240151,8.225079 -2.341771,-3e-6 -4.24015,-4.615901 -4.24015,-8.225079 0,-3.609176 1.984914,-8.450419 4.326683,-8.450422 2.34177,0 4.153618,4.841246 4.153618,8.450422 z"
       sodipodi:nodetypes="sssss" />
    <path
       id="path63"
       style="fill:#17ffea;fill-opacity:1;stroke:#163333;stroke-width:1.15809;stroke-dasharray:none;stroke-opacity:1"
       d="m 73.622053,51.82886 c 0,1.980063 -1.195358,4.512437 -2.6699,4.512437 -1.474547,0 -2.669902,-2.532374 -2.669902,-4.512437 0,-1.980065 1.249844,-4.636067 2.724387,-4.636067 1.474547,0 2.615415,2.656002 2.615415,4.636067 z"
       sodipodi:nodetypes="sssss" />
    <path
       id="path64"
       style="fill:#ffffff;fill-opacity:1;stroke:none;stroke-width:0.261786"
       d="m 74.255674,48.740986 c 0.221173,1.14656 -0.135204,2.708917 -0.923761,2.827323 -0.788548,0.118407 -1.710666,-1.251977 -1.931838,-2.398535 -0.221176,-1.146555 0.150531,-2.784875 0.939087,-2.903281 0.788551,-0.118406 1.695337,1.327938 1.916512,2.474493 z"
       sodipodi:nodetypes="sssss" />
    <g
       id="g67"
       transform="matrix(1.6730398,-0.08026892,-0.88239998,-1.7726663,50.136838,71.333653)"
       style="stroke:#021212;stroke-opacity:1">
      <path
         sodipodi:type="spiral"
         style="fill:none;fill-opacity:1;fill-rule:evenodd;stroke:#021212;stroke-width:1.165;stroke-dasharray:none;stroke-opacity:1"
         id="path65"
         sodipodi:cx="7.3788824"
         sodipodi:cy="11.990684"
         sodipodi:expansion="1"
         sodipodi:revolution="3"
         sodipodi:radius="7.1775723"
         sodipodi:argument="-18.677364"
         sodipodi:t0="0"
         d="m 7.3788824,11.990684 c 0.3545501,0.06166 0.091804,0.508347 -0.1024849,0.589285 -0.5265123,0.219336 -1.0101602,-0.312416 -1.0760864,-0.794255 -0.1179264,-0.861898 0.6785411,-1.533067 1.4860261,-1.562887 1.1850166,-0.04376 2.0659185,1.047626 2.0496877,2.177796 -0.021633,1.506339 -1.4174993,2.602675 -2.8695671,2.536489 C 5.0391786,14.853823 3.7250753,13.149428 3.8431686,11.375774 3.9861954,9.2276413 6.0011989,7.6945659 8.0962768,7.8656841 10.565254,8.067341 12.31801,10.39416 12.093167,12.810563 11.833578,15.600395 9.1941789,17.573289 6.4565181,17.294254 3.345814,16.977198 1.1524728,14.024706 1.4860261,10.965834 1.8602224,7.5342424 5.1261684,5.1202316 8.5062165,5.5085416 12.258711,5.9396393 14.893555,9.5193049 14.45031,13.220503"
         transform="matrix(-0.12693299,-0.27940024,-0.24651116,0.18568287,23.532179,18.320999)" />
    </g>
    <g
       id="g68"
       transform="matrix(-1.6730398,-0.08026892,0.88239998,-1.7726663,83.685071,99.043061)"
       style="stroke:#021212;stroke-opacity:1">
      <path
         sodipodi:type="spiral"
         style="fill:none;fill-opacity:1;fill-rule:evenodd;stroke:#021212;stroke-width:1.165;stroke-dasharray:none;stroke-opacity:1"
         id="path67"
         sodipodi:cx="7.3788824"
         sodipodi:cy="11.990684"
         sodipodi:expansion="1"
         sodipodi:revolution="3"
         sodipodi:radius="7.1775723"
         sodipodi:argument="-18.677364"
         sodipodi:t0="0"
         d="m 7.3788824,11.990684 c 0.3545501,0.06166 0.091804,0.508347 -0.1024849,0.589285 -0.5265123,0.219336 -1.0101602,-0.312416 -1.0760864,-0.794255 -0.1179264,-0.861898 0.6785411,-1.533067 1.4860261,-1.562887 1.1850166,-0.04376 2.0659185,1.047626 2.0496877,2.177796 -0.021633,1.506339 -1.4174993,2.602675 -2.8695671,2.536489 C 5.0391786,14.853823 3.7250753,13.149428 3.8431686,11.375774 3.9861954,9.2276413 6.0011989,7.6945659 8.0962768,7.8656841 10.565254,8.067341 12.31801,10.39416 12.093167,12.810563 11.833578,15.600395 9.1941789,17.573289 6.4565181,17.294254 3.345814,16.977198 1.1524728,14.024706 1.4860261,10.965834 1.8602224,7.5342424 5.1261684,5.1202316 8.5062165,5.5085416 12.258711,5.9396393 14.893555,9.5193049 14.45031,13.220503"
         transform="matrix(-0.12693299,-0.27940024,-0.24651116,0.18568287,23.532179,18.320999)" />
    </g>
    <g
       id="g69"
       transform="matrix(1.3003611,-1.8773345,-2.0579881,-0.99817935,73.181834,106.2305)"
       style="stroke:#021212;stroke-opacity:1">
      <path
         sodipodi:type="spiral"
         style="fill:none;fill-opacity:1;fill-rule:evenodd;stroke:#021212;stroke-width:1.165;stroke-dasharray:none;stroke-opacity:1"
         id="path69"
         sodipodi:cx="7.3788824"
         sodipodi:cy="11.990684"
         sodipodi:expansion="1"
         sodipodi:revolution="3"
         sodipodi:radius="7.1775723"
         sodipodi:argument="-18.677364"
         sodipodi:t0="0"
         d="m 7.3788824,11.990684 c 0.3545501,0.06166 0.091804,0.508347 -0.1024849,0.589285 -0.5265123,0.219336 -1.0101602,-0.312416 -1.0760864,-0.794255 -0.1179264,-0.861898 0.6785411,-1.533067 1.4860261,-1.562887 1.1850166,-0.04376 2.0659185,1.047626 2.0496877,2.177796 -0.021633,1.506339 -1.4174993,2.602675 -2.8695671,2.536489 C 5.0391786,14.853823 3.7250753,13.149428 3.8431686,11.375774 3.9861954,9.2276413 6.0011989,7.6945659 8.0962768,7.8656841 10.565254,8.067341 12.31801,10.39416 12.093167,12.810563 11.833578,15.600395 9.1941789,17.573289 6.4565181,17.294254 3.345814,16.977198 1.1524728,14.024706 1.4860261,10.965834 1.8602224,7.5342424 5.1261684,5.1202316 8.5062165,5.5085416 12.258711,5.9396393 14.893555,9.5193049 14.45031,13.220503"
         transform="matrix(-0.12693299,-0.27940024,-0.24651116,0.18568287,23.532179,18.320999)" />
    </g>
    <g
       id="g70"
       transform="matrix(1.9139155,-0.23559403,-1.1758403,-1.8141946,46.410519,80.616503)"
       style="stroke:#021212;stroke-opacity:1">
      <path
         sodipodi:type="spiral"
         style="fill:none;fill-opacity:1;fill-rule:evenodd;stroke:#021212;stroke-width:1.165;stroke-dasharray:none;stroke-opacity:1"
         id="path70"
         sodipodi:cx="7.3788824"
         sodipodi:cy="11.990684"
         sodipodi:expansion="1"
         sodipodi:revolution="3"
         sodipodi:radius="7.1775723"
         sodipodi:argument="-18.677364"
         sodipodi:t0="0"
         d="m 7.3788824,11.990684 c 0.3545501,0.06166 0.091804,0.508347 -0.1024849,0.589285 -0.5265123,0.219336 -1.0101602,-0.312416 -1.0760864,-0.794255 -0.1179264,-0.861898 0.6785411,-1.533067 1.4860261,-1.562887 1.1850166,-0.04376 2.0659185,1.047626 2.0496877,2.177796 -0.021633,1.506339 -1.4174993,2.602675 -2.8695671,2.536489 C 5.0391786,14.853823 3.7250753,13.149428 3.8431686,11.375774 3.9861954,9.2276413 6.0011989,7.6945659 8.0962768,7.8656841 10.565254,8.067341 12.31801,10.39416 12.093167,12.810563 11.833578,15.600395 9.1941789,17.573289 6.4565181,17.294254 3.345814,16.977198 1.1524728,14.024706 1.4860261,10.965834 1.8602224,7.5342424 5.1261684,5.1202316 8.5062165,5.5085416 12.258711,5.9396393 14.893555,9.5193049 14.45031,13.220503"
         transform="matrix(-0.03138143,-0.26457186,-0.33973589,0.08157699,23.858253,19.394667)" />
    </g>
    <g
       id="g71"
       transform="matrix(-1.8841446,-0.57867297,1.5178889,-1.6934053,72.091663,102.47966)"
       style="stroke:#021212;stroke-opacity:1">
      <path
         sodipodi:type="spiral"
         style="fill:none;fill-opacity:1;fill-rule:evenodd;stroke:#021212;stroke-width:1.165;stroke-dasharray:none;stroke-opacity:1"
         id="path71"
         sodipodi:cx="7.3788824"
         sodipodi:cy="11.990684"
         sodipodi:expansion="1"
         sodipodi:revolution="3"
         sodipodi:radius="7.1775723"
         sodipodi:argument="-18.677364"
         sodipodi:t0="0"
         d="m 7.3788824,11.990684 c 0.3545501,0.06166 0.091804,0.508347 -0.1024849,0.589285 -0.5265123,0.219336 -1.0101602,-0.312416 -1.0760864,-0.794255 -0.1179264,-0.861898 0.6785411,-1.533067 1.4860261,-1.562887 1.1850166,-0.04376 2.0659185,1.047626 2.0496877,2.177796 -0.021633,1.506339 -1.4174993,2.602675 -2.8695671,2.536489 C 5.0391786,14.853823 3.7250753,13.149428 3.8431686,11.375774 3.9861954,9.2276413 6.0011989,7.6945659 8.0962768,7.8656841 10.565254,8.067341 12.31801,10.39416 12.093167,12.810563 11.833578,15.600395 9.1941789,17.573289 6.4565181,17.294254 3.345814,16.977198 1.1524728,14.024706 1.4860261,10.965834 1.8602224,7.5342424 5.1261684,5.1202316 8.5062165,5.5085416 12.258711,5.9396393 14.893555,9.5193049 14.45031,13.220503"
         transform="matrix(-0.12693299,-0.27940024,-0.24651116,0.18568287,23.532179,18.320999)" />
    </g>
    <path
       sodipodi:type="spiral"
       style="fill:#07ff86;fill-opacity:1;fill-rule:evenodd;stroke:#006836;stroke-width:1.165;stroke-dasharray:none;stroke-opacity:1"
       id="path8"
       sodipodi:cx="7.3788824"
       sodipodi:cy="11.990684"
       sodipodi:expansion="1"
       sodipodi:revolution="3"
       sodipodi:radius="7.1775723"
       sodipodi:argument="-18.677364"
       sodipodi:t0="0"
       d="m 7.3788824,11.990684 c 0.3545501,0.06166 0.091804,0.508347 -0.1024849,0.589285 -0.5265123,0.219336 -1.0101602,-0.312416 -1.0760864,-0.794255 -0.1179264,-0.861898 0.6785411,-1.533067 1.4860261,-1.562887 1.1850166,-0.04376 2.0659185,1.047626 2.0496877,2.177796 -0.021633,1.506339 -1.4174993,2.602675 -2.8695671,2.536489 C 5.0391786,14.853823 3.7250753,13.149428 3.8431686,11.375774 3.9861954,9.2276413 6.0011989,7.6945659 8.0962768,7.8656841 10.565254,8.067341 12.31801,10.39416 12.093167,12.810563 11.833578,15.600395 9.1941789,17.573289 6.4565181,17.294254 3.345814,16.977198 1.1524728,14.024706 1.4860261,10.965834 1.8602224,7.5342424 5.1261684,5.1202316 8.5062165,5.5085416 12.258711,5.9396393 14.893555,9.5193049 14.45031,13.220503"
       transform="matrix(0.70129202,-0.00776254,-0.01830601,-0.7320009,20.972723,18.456962)" />
    <path
       id="path26"
       style="fill:#00473f;fill-opacity:1;stroke:none;stroke-width:1.53589;stroke-dasharray:none;stroke-opacity:1"
       d="m 31.349838,39.977102 c -0.0023,-0.09466 -0.0186,2.629461 -0.09439,2.698345 l -0.113357,12.38805 0.0048,0.01382 c 0,0 3.791488,-5.517013 3.844871,-9.792179 -0.698413,0.09847 -1.747444,0.425372 -2.448726,-0.72071 -0.770415,-1.259065 -1.093741,-0.113269 -1.13887,-2.372541 z m 3.97826,6.761075 c -0.02199,0.02285 -0.04415,0.04506 -0.06649,0.0666 l 0.07564,0.173769 c -0.0026,-0.08024 -0.0056,-0.160374 -0.0091,-0.24038 z"
       sodipodi:nodetypes="sccccscscccsc" />
    <path
       style="fill:none;fill-opacity:1;stroke:#002011;stroke-width:1.68175;stroke-linecap:round;stroke-linejoin:round;stroke-dasharray:none;stroke-opacity:1"
       d="m 30.173963,36.875463 c 0,0 -0.251144,5.108837 1.430365,6.514745 1.282473,1.072274 4.672797,0.651786 4.672797,0.651786"
       id="path23"
       sodipodi:nodetypes="csc" />
    <path
       id="path27"
       style="fill:#00473f;fill-opacity:1;stroke:none;stroke-width:1.7524;stroke-dasharray:none;stroke-opacity:1"
       d="m 48.565605,38.749897 c 0.102097,0.05364 0.203068,0.114625 0.302694,0.182842 l -0.02961,14.757455 -0.0063,0.01369 c 0,0 -4.984066,-5.463586 -5.05424,-9.697352 0.918093,0.09751 2.618594,0.690374 3.540458,-0.444609 1.012742,-1.246872 1.187706,-2.574633 1.247029,-4.812025 z m -5.229586,6.6956 c 0.02891,0.02263 0.05804,0.04462 0.0874,0.06596 l -0.09943,0.172086 c 0.0034,-0.07946 0.0074,-0.158821 0.01202,-0.238052 z"
       sodipodi:nodetypes="cccccscscccs" />
    <path
       style="fill:none;fill-opacity:1;stroke:#002011;stroke-width:1.8146;stroke-linecap:round;stroke-linejoin:round;stroke-dasharray:none;stroke-opacity:1"
       d="m 48.73119,36.73691 c 0,0 0.330139,5.059363 -1.880273,6.451656 -1.685863,1.06189 -6.142582,0.645474 -6.142582,0.645474"
       id="path24"
       sodipodi:nodetypes="csc" />
    <g
       id="g29"
       transform="matrix(0.82889632,0,0,-1.0067323,4.3760621,87.104558)">
      <ellipse
         style="fill:#002011;fill-opacity:1;stroke:none;stroke-width:1.6332;stroke-dasharray:none;stroke-opacity:1"
         id="path28"
         cx="35.288403"
         cy="41.778561"
         rx="1.6525621"
         ry="1.2682455" />
      <ellipse
         style="fill:#000f08;fill-opacity:1;stroke:none;stroke-width:1.24266;stroke-dasharray:none;stroke-opacity:1"
         id="ellipse28"
         cx="35.326832"
         cy="41.804771"
         rx="1.1913821"
         ry="1.0184395" />
      <ellipse
         style="fill:#002011;fill-opacity:1;stroke:none;stroke-width:0.946814;stroke-dasharray:none;stroke-opacity:1"
         id="ellipse29"
         cx="35.04314"
         cy="41.491093"
         rx="0.87090665"
         ry="0.80879658" />
    </g>
    <g
       id="g32"
       transform="matrix(-1.089618,0,0,-0.99698309,84.525619,85.921847)">
      <ellipse
         style="fill:#002011;fill-opacity:1;stroke:none;stroke-width:1.6332;stroke-dasharray:none;stroke-opacity:1"
         id="ellipse30"
         cx="35.288403"
         cy="41.778561"
         rx="1.6525621"
         ry="1.2682455" />
      <ellipse
         style="fill:#000f08;fill-opacity:1;stroke:none;stroke-width:1.24266;stroke-dasharray:none;stroke-opacity:1"
         id="ellipse31"
         cx="35.326832"
         cy="41.804771"
         rx="1.1913821"
         ry="1.0184395" />
      <ellipse
         style="fill:#002011;fill-opacity:1;stroke:none;stroke-width:0.946814;stroke-dasharray:none;stroke-opacity:1"
         id="ellipse32"
         cx="35.04314"
         cy="41.491093"
         rx="0.87090665"
         ry="0.80879658" />
    </g>
    <g
       id="g35"
       transform="matrix(0.57244706,0,0,-1,18.863427,97.58457)">
      <ellipse
         style="fill:#002011;fill-opacity:1;stroke:none;stroke-width:1.6332;stroke-dasharray:none;stroke-opacity:1"
         id="ellipse33"
         cx="35.288403"
         cy="41.778561"
         rx="1.6525621"
         ry="1.2682455" />
      <ellipse
         style="fill:#000f08;fill-opacity:1;stroke:none;stroke-width:1.24266;stroke-dasharray:none;stroke-opacity:1"
         id="ellipse34"
         cx="35.326832"
         cy="41.804771"
         rx="1.1913821"
         ry="1.0184395" />
      <ellipse
         style="fill:#002011;fill-opacity:1;stroke:none;stroke-width:0.946814;stroke-dasharray:none;stroke-opacity:1"
         id="ellipse35"
         cx="35.04314"
         cy="41.491093"
         rx="0.87090665"
         ry="0.80879658" />
    </g>
    <path
       id="rect38"
       style="fill:#ff6b3c;fill-opacity:1;stroke:#5c1700;stroke-width:1.24354;stroke-dasharray:none;stroke-opacity:1"
       d="m 28.250989,59.466654 c 0,0 0.407968,7.055317 0.701249,10.156486 0.180295,1.906453 -0.999502,3.455244 3.246931,4.264545 0.787935,-0.437773 2.044827,-0.783741 2.666851,-0.783635 0.534772,0.0024 1.285407,0.497491 1.624338,1.115145 0.338675,-0.665211 1.572692,-1.082962 2.132311,-1.082925 0.687124,0.0018 1.149912,0.69922 2.072735,1.297751 0.260523,-0.211203 0.579259,-1.137795 0.875702,-1.13927 0.383153,0.0022 0.755728,0.187875 1.062984,0.529683 0.319912,-0.827239 0.911062,-1.336838 1.55081,-1.336869 0.478272,3.58e-4 0.202844,1.536421 0.539057,2.04433 0.815773,-0.217876 1.482437,-1.926902 1.920224,-1.929092 0.310247,3.92e-4 1.104259,1.479889 1.373856,1.709131 0.532115,-2.068568 1.303543,-2.409112 2.304013,-1.384378 0.273495,-0.273592 0.263954,-1.791669 0.334806,-2.107073 0.925106,-4.11823 0.277502,-11.353829 0.277502,-11.353829 z"
       sodipodi:nodetypes="csccccccccccccscc" />
    <path
       id="path40"
       style="fill:#dd3500;fill-opacity:1;stroke:none;stroke-width:1.54033;stroke-dasharray:none"
       d="m 28.794612,59.112166 c 7.485852,2.248922 14.756111,1.897244 21.711242,-0.0096 v 3.7771 C 43.894505,66.942008 36.39723,65.2848 29.063634,62.764363 Z"
       sodipodi:nodetypes="ccccc" />
    <path
       id="rect37"
       style="fill:#dd3500;stroke:#5c1700;stroke-width:1.46526249;stroke-dasharray:none;stroke-opacity:1;fill-opacity:1"
       d="m 28.393576,57.254637 c 7.787287,1.956283 15.230362,1.658725 22.465557,0 v 3.285608 c -7.403139,1.775808 -14.878328,2.053084 -22.465557,0 z"
       sodipodi:nodetypes="ccccc" />
    <path
       id="path41"
       style="fill:#ff6b3c;fill-opacity:1;stroke:none;stroke-width:1.07074;stroke-dasharray:none"
       d="m 29.116415,58.184106 -0.0096,1.776894 c 2.447162,0.542304 4.876591,1.24847 7.579842,1.197024 l -0.937548,-1.52191 c -2.52839,-0.09517 -4.029054,-1.066314 -6.632686,-1.452008 z"
       sodipodi:nodetypes="cccccc" />
    <rect
       style="fill:#dd3500;fill-opacity:1;stroke:#5c1700;stroke-width:1.44639;stroke-dasharray:none;stroke-opacity:1"
       id="rect41"
       width="2.0070887"
       height="5.4610248"
       x="40.652306"
       y="48.645279"
       ry="1.0922049"
       transform="matrix(0.97526259,0.22104948,-0.18092051,0.98349772,0,0)" />
    <path
       sodipodi:type="spiral"
       style="fill:#00954e;fill-opacity:1;fill-rule:evenodd;stroke:#00312b;stroke-width:1.165;stroke-dasharray:none;stroke-opacity:1"
       id="path84"
       sodipodi:cx="7.3788824"
       sodipodi:cy="11.990684"
       sodipodi:expansion="1"
       sodipodi:revolution="3"
       sodipodi:radius="7.1775723"
       sodipodi:argument="-18.677364"
       sodipodi:t0="0"
       d="m 7.3788824,11.990684 c 0.3545501,0.06166 0.091804,0.508347 -0.1024849,0.589285 -0.5265123,0.219336 -1.0101602,-0.312416 -1.0760864,-0.794255 -0.1179264,-0.861898 0.6785411,-1.533067 1.4860261,-1.562887 1.1850166,-0.04376 2.0659185,1.047626 2.0496877,2.177796 -0.021633,1.506339 -1.4174993,2.602675 -2.8695671,2.536489 C 5.0391786,14.853823 3.7250753,13.149428 3.8431686,11.375774 3.9861954,9.2276413 6.0011989,7.6945659 8.0962768,7.8656841 10.565254,8.067341 12.31801,10.39416 12.093167,12.810563 11.833578,15.600395 9.1941789,17.573289 6.4565181,17.294254 3.345814,16.977198 1.1524728,14.024706 1.4860261,10.965834 1.8602224,7.5342424 5.1261684,5.1202316 8.5062165,5.5085416 12.258711,5.9396393 14.893555,9.5193049 14.45031,13.220503"
       transform="matrix(-0.45502258,0.43213374,-0.4428124,-0.55979156,62.663003,12.205945)" />
    <path
       sodipodi:type="spiral"
       style="fill:#07ff86;fill-opacity:1;fill-rule:evenodd;stroke:#006836;stroke-width:1.165;stroke-dasharray:none;stroke-opacity:1"
       id="path60"
       sodipodi:cx="7.3788824"
       sodipodi:cy="11.990684"
       sodipodi:expansion="1"
       sodipodi:revolution="3"
       sodipodi:radius="7.1775723"
       sodipodi:argument="-18.677364"
       sodipodi:t0="0"
       d="m 7.3788824,11.990684 c 0.3545501,0.06166 0.091804,0.508347 -0.1024849,0.589285 -0.5265123,0.219336 -1.0101602,-0.312416 -1.0760864,-0.794255 -0.1179264,-0.861898 0.6785411,-1.533067 1.4860261,-1.562887 1.1850166,-0.04376 2.0659185,1.047626 2.0496877,2.177796 -0.021633,1.506339 -1.4174993,2.602675 -2.8695671,2.536489 C 5.0391786,14.853823 3.7250753,13.149428 3.8431686,11.375774 3.9861954,9.2276413 6.0011989,7.6945659 8.0962768,7.8656841 10.565254,8.067341 12.31801,10.39416 12.093167,12.810563 11.833578,15.600395 9.1941789,17.573289 6.4565181,17.294254 3.345814,16.977198 1.1524728,14.024706 1.4860261,10.965834 1.8602224,7.5342424 5.1261684,5.1202316 8.5062165,5.5085416 12.258711,5.9396393 14.893555,9.5193049 14.45031,13.220503"
       transform="matrix(-0.60400417,-0.22067304,0.27349361,-0.72877663,55.634017,23.919775)"
       inkscape:transform-center-x="0.92234406"
       inkscape:transform-center-y="-2.6133833" />
    <path
       style="fill:#07ff86;fill-opacity:1;stroke:#002011;stroke-width:1.53556;stroke-dasharray:none;stroke-opacity:1"
       d="m 30.786006,10.772923 2.567481,1.776196 4.546585,0.08074 3.423309,-2.179875"
       id="path94" />
    <path
       sodipodi:type="spiral"
       style="fill:#07ff86;fill-opacity:1;fill-rule:evenodd;stroke:#006836;stroke-width:1.165;stroke-dasharray:none;stroke-opacity:1"
       id="path61"
       sodipodi:cx="7.3788824"
       sodipodi:cy="11.990684"
       sodipodi:expansion="1"
       sodipodi:revolution="3"
       sodipodi:radius="7.1775723"
       sodipodi:argument="-18.677364"
       sodipodi:t0="0"
       d="m 7.3788824,11.990684 c 0.3545501,0.06166 0.091804,0.508347 -0.1024849,0.589285 -0.5265123,0.219336 -1.0101602,-0.312416 -1.0760864,-0.794255 -0.1179264,-0.861898 0.6785411,-1.533067 1.4860261,-1.562887 1.1850166,-0.04376 2.0659185,1.047626 2.0496877,2.177796 -0.021633,1.506339 -1.4174993,2.602675 -2.8695671,2.536489 C 5.0391786,14.853823 3.7250753,13.149428 3.8431686,11.375774 3.9861954,9.2276413 6.0011989,7.6945659 8.0962768,7.8656841 10.565254,8.067341 12.31801,10.39416 12.093167,12.810563 11.833578,15.600395 9.1941789,17.573289 6.4565181,17.294254 3.345814,16.977198 1.1524728,14.024706 1.4860261,10.965834 1.8602224,7.5342424 5.1261684,5.1202316 8.5062165,5.5085416 12.258711,5.9396393 14.893555,9.5193049 14.45031,13.220503"
       transform="matrix(0.41619984,-0.56448954,-0.5953537,-0.42627972,33.928363,18.461531)" />
    <path
       sodipodi:type="spiral"
       style="fill:#07ff86;fill-opacity:1;fill-rule:evenodd;stroke:#006836;stroke-width:1.165;stroke-dasharray:none;stroke-opacity:1"
       id="path72"
       sodipodi:cx="7.3788824"
       sodipodi:cy="11.990684"
       sodipodi:expansion="1"
       sodipodi:revolution="3"
       sodipodi:radius="7.1775723"
       sodipodi:argument="-18.677364"
       sodipodi:t0="0"
       d="m 7.3788824,11.990684 c 0.3545501,0.06166 0.091804,0.508347 -0.1024849,0.589285 -0.5265123,0.219336 -1.0101602,-0.312416 -1.0760864,-0.794255 -0.1179264,-0.861898 0.6785411,-1.533067 1.4860261,-1.562887 1.1850166,-0.04376 2.0659185,1.047626 2.0496877,2.177796 -0.021633,1.506339 -1.4174993,2.602675 -2.8695671,2.536489 C 5.0391786,14.853823 3.7250753,13.149428 3.8431686,11.375774 3.9861954,9.2276413 6.0011989,7.6945659 8.0962768,7.8656841 10.565254,8.067341 12.31801,10.39416 12.093167,12.810563 11.833578,15.600395 9.1941789,17.573289 6.4565181,17.294254 3.345814,16.977198 1.1524728,14.024706 1.4860261,10.965834 1.8602224,7.5342424 5.1261684,5.1202316 8.5062165,5.5085416 12.258711,5.9396393 14.893555,9.5193049 14.45031,13.220503"
       transform="matrix(0.61483457,-0.00675805,-0.01604919,-0.63727799,29.786614,13.249227)" />
    <path
       sodipodi:type="spiral"
       style="fill:#07ff86;fill-opacity:1;fill-rule:evenodd;stroke:#006836;stroke-width:1.165;stroke-dasharray:none;stroke-opacity:1"
       id="path77"
       sodipodi:cx="7.3788824"
       sodipodi:cy="11.990684"
       sodipodi:expansion="1"
       sodipodi:revolution="3"
       sodipodi:radius="7.1775723"
       sodipodi:argument="-18.677364"
       sodipodi:t0="0"
       d="m 7.3788824,11.990684 c 0.3545501,0.06166 0.091804,0.508347 -0.1024849,0.589285 -0.5265123,0.219336 -1.0101602,-0.312416 -1.0760864,-0.794255 -0.1179264,-0.861898 0.6785411,-1.533067 1.4860261,-1.562887 1.1850166,-0.04376 2.0659185,1.047626 2.0496877,2.177796 -0.021633,1.506339 -1.4174993,2.602675 -2.8695671,2.536489 C 5.0391786,14.853823 3.7250753,13.149428 3.8431686,11.375774 3.9861954,9.2276413 6.0011989,7.6945659 8.0962768,7.8656841 10.565254,8.067341 12.31801,10.39416 12.093167,12.810563 11.833578,15.600395 9.1941789,17.573289 6.4565181,17.294254 3.345814,16.977198 1.1524728,14.024706 1.4860261,10.965834 1.8602224,7.5342424 5.1261684,5.1202316 8.5062165,5.5085416 12.258711,5.9396393 14.893555,9.5193049 14.45031,13.220503"
       transform="matrix(-0.61483457,-0.00675805,0.01604919,-0.63727799,55.437451,16.225771)" />
    <path
       sodipodi:type="spiral"
       style="fill:#07ff86;fill-opacity:1;fill-rule:evenodd;stroke:#006836;stroke-width:1.165;stroke-dasharray:none;stroke-opacity:1"
       id="path76"
       sodipodi:cx="7.3788824"
       sodipodi:cy="11.990684"
       sodipodi:expansion="1"
       sodipodi:revolution="3"
       sodipodi:radius="7.1775723"
       sodipodi:argument="-18.677364"
       sodipodi:t0="0"
       d="m 7.3788824,11.990684 c 0.3545501,0.06166 0.091804,0.508347 -0.1024849,0.589285 -0.5265123,0.219336 -1.0101602,-0.312416 -1.0760864,-0.794255 -0.1179264,-0.861898 0.6785411,-1.533067 1.4860261,-1.562887 1.1850166,-0.04376 2.0659185,1.047626 2.0496877,2.177796 -0.021633,1.506339 -1.4174993,2.602675 -2.8695671,2.536489 C 5.0391786,14.853823 3.7250753,13.149428 3.8431686,11.375774 3.9861954,9.2276413 6.0011989,7.6945659 8.0962768,7.8656841 10.565254,8.067341 12.31801,10.39416 12.093167,12.810563 11.833578,15.600395 9.1941789,17.573289 6.4565181,17.294254 3.345814,16.977198 1.1524728,14.024706 1.4860261,10.965834 1.8602224,7.5342424 5.1261684,5.1202316 8.5062165,5.5085416 12.258711,5.9396393 14.893555,9.5193049 14.45031,13.220503"
       transform="matrix(-0.61483457,-0.00675805,0.01604919,-0.63727799,50.872001,13.236488)" />
    <path
       sodipodi:type="spiral"
       style="fill:#07ff86;fill-opacity:1;fill-rule:evenodd;stroke:#006836;stroke-width:1.165;stroke-dasharray:none;stroke-opacity:1"
       id="path73"
       sodipodi:cx="7.3788824"
       sodipodi:cy="11.990684"
       sodipodi:expansion="1"
       sodipodi:revolution="3"
       sodipodi:radius="7.1775723"
       sodipodi:argument="-18.677364"
       sodipodi:t0="0"
       d="m 7.3788824,11.990684 c 0.3545501,0.06166 0.091804,0.508347 -0.1024849,0.589285 -0.5265123,0.219336 -1.0101602,-0.312416 -1.0760864,-0.794255 -0.1179264,-0.861898 0.6785411,-1.533067 1.4860261,-1.562887 1.1850166,-0.04376 2.0659185,1.047626 2.0496877,2.177796 -0.021633,1.506339 -1.4174993,2.602675 -2.8695671,2.536489 C 5.0391786,14.853823 3.7250753,13.149428 3.8431686,11.375774 3.9861954,9.2276413 6.0011989,7.6945659 8.0962768,7.8656841 10.565254,8.067341 12.31801,10.39416 12.093167,12.810563 11.833578,15.600395 9.1941789,17.573289 6.4565181,17.294254 3.345814,16.977198 1.1524728,14.024706 1.4860261,10.965834 1.8602224,7.5342424 5.1261684,5.1202316 8.5062165,5.5085416 12.258711,5.9396393 14.893555,9.5193049 14.45031,13.220503"
       transform="matrix(-0.61483457,-0.00675805,0.01604919,-0.63727799,45.110837,12.421229)" />
    <path
       style="fill:none;fill-opacity:1;stroke:#00120a;stroke-width:1.2446;stroke-linecap:round;stroke-linejoin:round;stroke-dasharray:none;stroke-opacity:1"
       d="m 33.26628,28.557443 c 0,0 1.262685,-0.975437 2.376635,-1.260655 1.11395,-0.285218 2.950552,-0.339016 4.208628,-0.0573 1.258076,0.281716 3.168846,1.547167 3.168846,1.547167"
       id="path93"
       sodipodi:nodetypes="czzc" />
    <ellipse
       style="fill:#dd3500;fill-opacity:1;stroke:#5c1700;stroke-width:0.968387;stroke-dasharray:none;stroke-opacity:1"
       id="path95"
       cx="22.756182"
       cy="22.866014"
       rx="1.2863752"
       ry="1.3248069" />
    <ellipse
       style="fill:#dd3500;fill-opacity:1;stroke:#5c1700;stroke-width:0.968387;stroke-dasharray:none;stroke-opacity:1"
       id="ellipse95"
       cx="55.884289"
       cy="22.866014"
       rx="1.2863752"
       ry="1.3248069" />
    <path
       id="path12"
       style="fill:#9d2500;fill-opacity:1;stroke:none;stroke-width:1.15406;stroke-dasharray:none"
       d="m 50.138676,58.188424 -0.01393,1.776879 c -2.850298,0.512528 -5.68231,1.189121 -8.821702,1.104831 l 1.110546,-1.510405 c 2.938342,-0.06444 4.695234,-1.017277 7.725078,-1.371305 z"
       sodipodi:nodetypes="cccccc" />
    <rect
       style="fill:#dd3500;fill-opacity:1;stroke:#5c1700;stroke-width:1.44639;stroke-dasharray:none;stroke-opacity:1"
       id="rect3"
       width="2.0070887"
       height="5.4610248"
       x="-33.742977"
       y="65.185883"
       ry="1.0922049"
       transform="matrix(-0.97526259,0.22104948,0.18092051,0.98349772,0,0)" />
    <path
       id="path1"
       style="fill:#00954e;fill-opacity:1;stroke:#002011;stroke-width:1.73973;stroke-dasharray:none;stroke-opacity:1"
       d="m 22.87615,37.281931 c -0.553854,1.973077 -3.503533,3.832047 -6.206596,1.757732 -2.155378,-1.654013 -4.182966,-3.289177 -3.192973,-5.507066 0.996817,-2.23316 1.971746,-4.499252 6.39757,-1.847577 2.364296,1.41653 3.470717,3.927172 3.001999,5.596911 z"
       sodipodi:nodetypes="sssss" />
    <path
       id="path3"
       style="fill:#01ff85;fill-opacity:1;stroke:none;stroke-width:1.26958;stroke-dasharray:none;stroke-opacity:1"
       d="m 22.049736,35.951902 c -0.376395,1.304957 -2.665086,2.462085 -4.886494,0.992263 -1.771307,-1.172007 -3.440211,-2.327573 -2.724409,-3.783496 0.720727,-1.465941 1.422935,-2.954591 5.035671,-1.046743 1.929937,1.019177 2.89378,2.733642 2.575232,3.837976 z"
       sodipodi:nodetypes="sssss" />
    <path
       style="fill:#ffffff;fill-opacity:0.39846453;stroke-width:1.2446;stroke-linecap:round;stroke-linejoin:round"
       d="M 7.8264866,40.871653 11.957132,52.720083 24.022965,59.568259 41.306456,58.263845 26.088288,55.981118 13.805052,50.654759 Z"
       id="path13" />
  </g>
</svg>
