<?xml version="1.0" encoding="UTF-8" standalone="no"?>
<!-- Created with Inkscape (http://www.inkscape.org/) -->

<svg
   width="377.95276"
   height="377.95276"
   viewBox="0 0 100 100"
   version="1.1"
   id="svg1"
   inkscape:version="1.4.2 (ebf0e940d0, 2025-05-08)"
   sodipodi:docname="bancada-treino.svg"
   xml:space="preserve"
   xmlns:inkscape="http://www.inkscape.org/namespaces/inkscape"
   xmlns:sodipodi="http://sodipodi.sourceforge.net/DTD/sodipodi-0.dtd"
   xmlns="http://www.w3.org/2000/svg"
   xmlns:svg="http://www.w3.org/2000/svg"><sodipodi:namedview
     id="namedview1"
     pagecolor="#505050"
     bordercolor="#eeeeee"
     borderopacity="1"
     inkscape:showpageshadow="0"
     inkscape:pageopacity="0"
     inkscape:pagecheckerboard="0"
     inkscape:deskcolor="#505050"
     inkscape:document-units="px"
     inkscape:zoom="1.2472578"
     inkscape:cx="162.35617"
     inkscape:cy="224.89336"
     inkscape:window-width="1366"
     inkscape:window-height="697"
     inkscape:window-x="0"
     inkscape:window-y="0"
     inkscape:window-maximized="1"
     inkscape:current-layer="layer1" /><defs
     id="defs1"><linearGradient
       id="linearGradient13895"
       inkscape:swatch="solid"><stop
         style="stop-color:#000000;stop-opacity:1;"
         offset="0"
         id="stop13893" /></linearGradient><filter
       style="color-interpolation-filters:sRGB;"
       inkscape:label="Clean Edges"
       id="filter14269"
       x="-0.31154084"
       y="-0.29580634"
       width="1.6230817"
       height="1.5916127"><feGaussianBlur
         stdDeviation="0.204612"
         result="blur"
         id="feGaussianBlur14263" /><feComposite
         in="SourceGraphic"
         in2="blur"
         operator="in"
         result="composite1"
         id="feComposite14265" /><feComposite
         in="composite1"
         in2="composite1"
         operator="in"
         result="composite2"
         id="feComposite14267" /></filter><filter
       style="color-interpolation-filters:sRGB;"
       inkscape:label="Clean Edges"
       id="filter14269-3"
       x="-0.31154084"
       y="-0.29580634"
       width="1.6230817"
       height="1.5916127"><feGaussianBlur
         stdDeviation="0.204612"
         result="blur"
         id="feGaussianBlur14263-5" /><feComposite
         in="SourceGraphic"
         in2="blur"
         operator="in"
         result="composite1"
         id="feComposite14265-6" /><feComposite
         in="composite1"
         in2="composite1"
         operator="in"
         result="composite2"
         id="feComposite14267-2" /></filter><inkscape:path-effect
       effect="fillet_chamfer"
       id="path-effect68"
       is_visible="true"
       lpeversion="1"
       nodesatellites_param="F,0,0,1,0,0,0,1 @ F,0,0,1,0,0,0,1 @ F,0,0,1,0,0,0,1 @ F,0,0,1,0,0,0,1 @ F,0,0,1,0,0,0,1 @ F,0,0,1,0,0,0,1 @ F,0,0,1,0,0,0,1 @ F,0,0,1,0,0,0,1 @ F,0,0,1,0,0,0,1"
       radius="0"
       unit="px"
       method="auto"
       mode="F"
       chamfer_steps="1"
       flexible="false"
       use_knot_distance="true"
       apply_no_radius="true"
       apply_with_radius="true"
       only_selected="false"
       hide_knots="false" /><inkscape:path-effect
       effect="fillet_chamfer"
       id="path-effect66"
       is_visible="true"
       lpeversion="1"
       nodesatellites_param="F,0,0,1,0,0,0,1 @ F,0,0,1,0,0.44929322,0,1 @ F,0,0,1,0,0.44929322,0,1 @ F,0,0,1,0,0,0,1 @ F,0,0,1,0,0,0,1 @ F,0,0,1,0,0,0,1 @ F,0,0,1,0,0,0,1 @ F,0,0,1,0,0,0,1 @ F,0,0,1,0,0,0,1 @ F,0,0,1,0,0,0,1"
       radius="0"
       unit="px"
       method="auto"
       mode="F"
       chamfer_steps="1"
       flexible="false"
       use_knot_distance="true"
       apply_no_radius="true"
       apply_with_radius="true"
       only_selected="false"
       hide_knots="false" /><inkscape:path-effect
       effect="fillet_chamfer"
       id="path-effect68-6"
       is_visible="true"
       lpeversion="1"
       nodesatellites_param="F,0,0,1,0,0,0,1 @ F,0,0,1,0,0,0,1 @ F,0,0,1,0,0,0,1 @ F,0,0,1,0,0,0,1 @ F,0,0,1,0,0,0,1 @ F,0,0,1,0,0,0,1 @ F,0,0,1,0,0,0,1 @ F,0,0,1,0,0,0,1 @ F,0,0,1,0,0,0,1"
       radius="0"
       unit="px"
       method="auto"
       mode="F"
       chamfer_steps="1"
       flexible="false"
       use_knot_distance="true"
       apply_no_radius="true"
       apply_with_radius="true"
       only_selected="false"
       hide_knots="false" /><inkscape:path-effect
       effect="fillet_chamfer"
       id="path-effect66-7"
       is_visible="true"
       lpeversion="1"
       nodesatellites_param="F,0,0,1,0,0,0,1 @ F,0,0,1,0,0.44929322,0,1 @ F,0,0,1,0,0.44929322,0,1 @ F,0,0,1,0,0,0,1 @ F,0,0,1,0,0,0,1 @ F,0,0,1,0,0,0,1 @ F,0,0,1,0,0,0,1 @ F,0,0,1,0,0,0,1 @ F,0,0,1,0,0,0,1 @ F,0,0,1,0,0,0,1"
       radius="0"
       unit="px"
       method="auto"
       mode="F"
       chamfer_steps="1"
       flexible="false"
       use_knot_distance="true"
       apply_no_radius="true"
       apply_with_radius="true"
       only_selected="false"
       hide_knots="false" /><inkscape:path-effect
       effect="fillet_chamfer"
       id="path-effect68-7"
       is_visible="true"
       lpeversion="1"
       nodesatellites_param="F,0,0,1,0,0,0,1 @ F,0,0,1,0,0,0,1 @ F,0,0,1,0,0,0,1 @ F,0,0,1,0,0,0,1 @ F,0,0,1,0,0,0,1 @ F,0,0,1,0,0,0,1 @ F,0,0,1,0,0,0,1 @ F,0,0,1,0,0,0,1 @ F,0,0,1,0,0,0,1"
       radius="0"
       unit="px"
       method="auto"
       mode="F"
       chamfer_steps="1"
       flexible="false"
       use_knot_distance="true"
       apply_no_radius="true"
       apply_with_radius="true"
       only_selected="false"
       hide_knots="false" /><inkscape:path-effect
       effect="fillet_chamfer"
       id="path-effect66-5"
       is_visible="true"
       lpeversion="1"
       nodesatellites_param="F,0,0,1,0,0,0,1 @ F,0,0,1,0,0.44929322,0,1 @ F,0,0,1,0,0.44929322,0,1 @ F,0,0,1,0,0,0,1 @ F,0,0,1,0,0,0,1 @ F,0,0,1,0,0,0,1 @ F,0,0,1,0,0,0,1 @ F,0,0,1,0,0,0,1 @ F,0,0,1,0,0,0,1 @ F,0,0,1,0,0,0,1"
       radius="0"
       unit="px"
       method="auto"
       mode="F"
       chamfer_steps="1"
       flexible="false"
       use_knot_distance="true"
       apply_no_radius="true"
       apply_with_radius="true"
       only_selected="false"
       hide_knots="false" /><inkscape:path-effect
       effect="fillet_chamfer"
       id="path-effect68-3"
       is_visible="true"
       lpeversion="1"
       nodesatellites_param="F,0,0,1,0,0,0,1 @ F,0,0,1,0,0,0,1 @ F,0,0,1,0,0,0,1 @ F,0,0,1,0,0,0,1 @ F,0,0,1,0,0,0,1 @ F,0,0,1,0,0,0,1 @ F,0,0,1,0,0,0,1 @ F,0,0,1,0,0,0,1 @ F,0,0,1,0,0,0,1"
       radius="0"
       unit="px"
       method="auto"
       mode="F"
       chamfer_steps="1"
       flexible="false"
       use_knot_distance="true"
       apply_no_radius="true"
       apply_with_radius="true"
       only_selected="false"
       hide_knots="false" /><inkscape:path-effect
       effect="fillet_chamfer"
       id="path-effect66-6"
       is_visible="true"
       lpeversion="1"
       nodesatellites_param="F,0,0,1,0,0,0,1 @ F,0,0,1,0,0.44929322,0,1 @ F,0,0,1,0,0.44929322,0,1 @ F,0,0,1,0,0,0,1 @ F,0,0,1,0,0,0,1 @ F,0,0,1,0,0,0,1 @ F,0,0,1,0,0,0,1 @ F,0,0,1,0,0,0,1 @ F,0,0,1,0,0,0,1 @ F,0,0,1,0,0,0,1"
       radius="0"
       unit="px"
       method="auto"
       mode="F"
       chamfer_steps="1"
       flexible="false"
       use_knot_distance="true"
       apply_no_radius="true"
       apply_with_radius="true"
       only_selected="false"
       hide_knots="false" /><filter
       style="color-interpolation-filters:sRGB;"
       inkscape:label="Clean Edges"
       id="filter14269-5"
       x="-0.31154084"
       y="-0.29580634"
       width="1.6230817"
       height="1.5916127"><feGaussianBlur
         stdDeviation="0.204612"
         result="blur"
         id="feGaussianBlur14263-6" /><feComposite
         in="SourceGraphic"
         in2="blur"
         operator="in"
         result="composite1"
         id="feComposite14265-2" /><feComposite
         in="composite1"
         in2="composite1"
         operator="in"
         result="composite2"
         id="feComposite14267-9" /></filter></defs><g
     inkscape:label="Camada 1"
     inkscape:groupmode="layer"
     id="layer1"><rect
       style="fill:#572918;fill-opacity:1;stroke:#1b0907;stroke-width:3.58655;stroke-linecap:round;stroke-dasharray:none;stroke-opacity:1"
       id="rect6"
       width="59.589764"
       height="36.322231"
       x="37.61565"
       y="5.650754" /><g
       id="g48"
       transform="matrix(1.1026837,0,0,2.2203228,-86.755175,-125.8369)"><path
         id="path38"
         style="fill:#1b0907;fill-opacity:1;stroke-width:0.930025;stroke-linecap:round"
         d="m 157.1267,73.43786 c -0.21415,-0.165272 -6.0962,-1.37321 -8.24639,-1.357567 -2.15019,0.01565 -6.83061,0.428786 -7.12523,0.734997 0.60193,0.133038 5.13338,1.161546 7.28357,1.145899 2.1502,-0.01564 7.78271,-0.344474 8.08805,-0.523329 z"
         sodipodi:nodetypes="cscsc" /><path
         id="path39"
         style="fill:#783821;fill-opacity:1;stroke-width:0.769433;stroke-linecap:round"
         d="m 125.9184,73.099054 c 0.20547,-0.106203 5.86414,-0.654335 7.93478,-0.529611 2.07064,0.124724 6.57964,0.665757 6.86477,0.899051 -0.57904,0.06279 -4.93794,0.554698 -7.00859,0.429974 -2.07064,-0.124724 -7.4961,-0.65611 -7.79096,-0.799414 z"
         sodipodi:nodetypes="cscsc" /><path
         id="path40"
         style="fill:#1b0907;fill-opacity:1;stroke-width:0.601179;stroke-linecap:round"
         d="m 132.45667,70.485402 c 0.14069,-0.0963 4.1417,-0.716064 5.62306,-0.664668 1.48137,0.0514 4.72151,0.393731 4.93699,0.585622 -0.40906,0.06916 -3.48736,0.606145 -4.96872,0.554749 -1.48137,-0.0514 -5.3737,-0.361022 -5.59133,-0.475703 z"
         sodipodi:nodetypes="cscsc" /><path
         id="path41"
         style="fill:#1b0907;fill-opacity:1;stroke-width:0.930025;stroke-linecap:round"
         d="m 128.14707,69.201658 c 0.21095,-0.157261 6.07114,-1.143976 8.22246,-1.047293 2.15131,0.0967 6.84171,0.686368 7.14254,1.00379 -0.59952,0.110408 -5.11218,0.968525 -7.26349,0.871837 -2.15132,-0.09667 -7.79249,-0.637912 -8.10151,-0.828334 z"
         sodipodi:nodetypes="cscsc" /><path
         id="path42"
         style="fill:#1b0907;fill-opacity:1;stroke-width:0.717044;stroke-linecap:round"
         d="m 116.24256,63.506492 c 0.23499,-0.07809 6.97887,-0.5143 9.48386,-0.439283 2.505,0.07502 7.9907,0.432721 8.36038,0.598937 -0.68932,0.04947 -5.8762,0.435747 -8.38119,0.36073 -2.505,-0.07502 -9.09197,-0.419147 -9.46305,-0.520384 z"
         sodipodi:nodetypes="cscsc" /><path
         id="path43"
         style="fill:#783821;fill-opacity:1;stroke-width:0.717044;stroke-linecap:round"
         d="m 119.69295,65.672051 c 0.23499,-0.07808 6.97887,-0.514296 9.48387,-0.439279 2.505,0.07502 7.99069,0.432722 8.36037,0.598937 -0.68932,0.04947 -5.87619,0.435747 -8.38119,0.360729 -2.50499,-0.07502 -9.09196,-0.419151 -9.46305,-0.520387 z"
         sodipodi:nodetypes="cscsc" /><path
         id="path44"
         style="fill:#1b0907;fill-opacity:1;stroke-width:0.793994;stroke-linecap:round"
         d="m 138.17793,63.914158 c 0.18664,-0.126821 5.51302,-0.960024 7.48755,-0.900893 1.97452,0.05913 6.29533,0.489406 6.58414,0.739391 -0.54451,0.09277 -4.642,0.812553 -6.61652,0.753421 -1.97453,-0.05913 -7.16417,-0.443012 -7.45517,-0.591919 z"
         sodipodi:nodetypes="cscsc" /><path
         id="path45"
         style="fill:#1b0907;fill-opacity:1;stroke-width:0.513247;stroke-linecap:round"
         d="m 136.37567,62.917781 c 0.12878,-0.07602 3.79667,-0.553865 5.15545,-0.507585 1.35878,0.04628 4.3314,0.330226 4.52953,0.483514 -0.37498,0.05346 -3.19683,0.468913 -4.5556,0.422632 -1.35878,-0.04628 -4.92947,-0.306625 -5.12938,-0.398561 z"
         sodipodi:nodetypes="cscsc" /><path
         id="path46"
         style="fill:#783821;fill-opacity:1;stroke-width:0.488799;stroke-linecap:round"
         d="m 125.22002,71.483228 c 0.1243,-0.07146 3.67716,-0.528757 4.99503,-0.48929 1.31786,0.03947 4.20237,0.296696 4.39565,0.439523 -0.36319,0.05106 -3.09618,0.447602 -4.41404,0.408136 -1.31787,-0.03947 -4.78211,-0.272939 -4.97664,-0.358369 z"
         sodipodi:nodetypes="cscsc" /><path
         id="path47"
         style="fill:#1b0907;fill-opacity:1;stroke-width:0.601179;stroke-linecap:round"
         d="m 163.17311,71.187901 c -0.15274,-0.0964 -4.23146,-0.718948 -5.70646,-0.668568 -1.475,0.05038 -4.67245,0.3905 -4.86393,0.582252 0.41773,0.06944 3.56333,0.60857 5.03833,0.558194 1.47501,-0.05038 5.32877,-0.357343 5.53206,-0.471878 z"
         sodipodi:nodetypes="cscsc" /><path
         id="path48"
         style="fill:#1b0907;fill-opacity:1;stroke-width:1.01568;stroke-linecap:round"
         d="m 165.90965,67.793858 c -0.28877,-0.141413 -8.32198,-1.128626 -11.27256,-1.091947 -2.95058,0.03667 -9.38487,0.446149 -9.7985,0.715565 0.8218,0.109222 7.00747,0.954912 9.95805,0.918228 2.95058,-0.03667 10.68858,-0.383057 11.11301,-0.541846 z"
         sodipodi:nodetypes="cscsc" /></g><rect
       style="fill:#1b0907;fill-opacity:1;stroke:none;stroke-width:1.3774;stroke-linecap:round;stroke-dasharray:none;stroke-opacity:1"
       id="rect29"
       width="4.8754845"
       height="17.379677"
       x="68.54393"
       y="20.462355" /><rect
       style="fill:#1b0907;fill-opacity:1;stroke:none;stroke-width:1.99204;stroke-linecap:round;stroke-dasharray:none;stroke-opacity:1"
       id="rect31"
       width="51.675484"
       height="3.429677"
       x="40.723095"
       y="19.483187" /><rect
       style="fill:#ffffff;fill-opacity:1;stroke:#2b2a29;stroke-width:3.24376;stroke-linecap:round;stroke-dasharray:none;stroke-opacity:1"
       id="rect9"
       width="8.2946386"
       height="74.321213"
       x="60.868347"
       y="18.440346"
       ry="0"
       rx="0" /><rect
       style="fill:#1b0907;fill-opacity:1;stroke:none;stroke-width:1.3774;stroke-linecap:round;stroke-dasharray:none;stroke-opacity:1"
       id="rect30"
       width="4.8754845"
       height="17.379677"
       x="85.193932"
       y="20.691523" /><rect
       style="fill:#780a0a;fill-opacity:1;stroke:#2a0404;stroke-width:3.22466;stroke-linecap:round;stroke-dasharray:none;stroke-opacity:1"
       id="rect8"
       width="8.3038216"
       height="73.367531"
       x="77.511887"
       y="17.911633"
       ry="0"
       rx="0" /><path
       id="path2"
       style="fill:#572918;stroke:#1b0907;stroke-width:3.52162;stroke-linecap:round;fill-opacity:1;stroke-opacity:1"
       d="M 80.220032,68.465929 67.848411,67.617401 73.151712,98.232379 88.068917,98.020247 Z"
       sodipodi:nodetypes="ccccc" /><path
       id="rect2"
       style="fill:#572918;stroke:#1b0907;stroke-width:3.52162;stroke-linecap:round;fill-opacity:1;stroke-opacity:1"
       d="M 20.386584,68.465929 32.758205,67.617401 27.454904,98.232379 12.537699,98.020247 Z"
       sodipodi:nodetypes="ccccc" /><rect
       style="fill:#1b0907;fill-opacity:1;stroke:none;stroke-width:1.98499;stroke-linecap:round;stroke-dasharray:none;stroke-opacity:1"
       id="rect15"
       width="10.125484"
       height="17.379677"
       x="46.04393"
       y="20.691523" /><rect
       style="fill:#000000;fill-opacity:1;stroke:#000000;stroke-width:3.24376;stroke-linecap:round;stroke-dasharray:none;stroke-opacity:1"
       id="rect10"
       width="8.2946386"
       height="74.321213"
       x="43.37727"
       y="18.697191"
       ry="0"
       rx="0" /><rect
       style="fill:#572918;fill-opacity:1;stroke:#1b0907;stroke-width:5.2601;stroke-linecap:round;stroke-dasharray:none;stroke-opacity:1"
       id="rect1"
       width="91.377464"
       height="20.101101"
       x="4.2181873"
       y="59.510025" /><rect
       style="fill:#ffffff;fill-opacity:1;stroke:#2b2a29;stroke-width:3.45837;stroke-linecap:round;stroke-dasharray:none;stroke-opacity:1"
       id="rect3"
       width="46.199997"
       height="8.6999998"
       x="7.7999997"
       y="46.658337"
       ry="4.3499999" /><rect
       style="fill:#233131;fill-opacity:1;stroke:none;stroke-width:2.57794;stroke-linecap:round;stroke-linejoin:round;stroke-opacity:1"
       id="rect49"
       width="42.85067"
       height="4.1365747"
       x="9.5459414"
       y="47.570606" /><rect
       style="fill:#ffffff;fill-opacity:1;stroke:#2b2a29;stroke-width:3.45837;stroke-linecap:round;stroke-dasharray:none;stroke-opacity:1"
       id="rect4"
       width="46.199997"
       height="8.6999998"
       x="7.7291665"
       y="37.587505"
       ry="4.3499999" /><rect
       style="fill:#233131;fill-opacity:1;stroke:none;stroke-width:2.57794;stroke-linecap:round;stroke-linejoin:round;stroke-opacity:1"
       id="rect48"
       width="42.85067"
       height="4.1365747"
       x="9.4398756"
       y="37.653435" /><rect
       style="fill:#ffffff;fill-opacity:1;stroke:#2b2a29;stroke-width:3.45837;stroke-linecap:round;stroke-dasharray:none;stroke-opacity:1"
       id="rect5"
       width="46.199997"
       height="8.6999998"
       x="6.4646821"
       y="30.692743"
       ry="4.3499999"
       transform="rotate(-0.88720176)" /><ellipse
       style="fill:#1b0907;fill-opacity:1;stroke:none;stroke-width:13.6386;stroke-linecap:round;stroke-dasharray:none;stroke-opacity:1"
       id="path6"
       cx="44.623829"
       cy="10.905688"
       rx="2.5338204"
       ry="2.3902543" /><ellipse
       style="fill:#1b0907;fill-opacity:1;stroke:none;stroke-width:13.6386;stroke-linecap:round;stroke-dasharray:none;stroke-opacity:1"
       id="ellipse6"
       cx="88.323029"
       cy="10.905688"
       rx="2.5338204"
       ry="2.3902543" /><rect
       style="fill:#572918;fill-opacity:1;stroke:#1b0907;stroke-width:2.08147707;stroke-linecap:round;stroke-dasharray:none;stroke-opacity:1"
       id="rect11"
       width="49.875484"
       height="3.8796761"
       x="41.393932"
       y="16.041523" /><rect
       style="fill:#1b0907;fill-opacity:1;stroke:none;stroke-width:2.08918;stroke-linecap:round;stroke-dasharray:none;stroke-opacity:1"
       id="rect32"
       width="48.375481"
       height="4.0296769"
       x="7.7939305"
       y="60.291523"
       ry="2.0148385" /><g
       id="g27"
       transform="translate(-108.71896,2.6698484)"><path
         id="path1"
         style="fill:#1b0907;fill-opacity:1;stroke-width:0.930025;stroke-linecap:round"
         d="m 157.1267,73.43786 c -0.21415,-0.165272 -6.0962,-1.37321 -8.24639,-1.357567 -2.15019,0.01565 -6.83061,0.428786 -7.12523,0.734997 0.60193,0.133038 5.13338,1.161546 7.28357,1.145899 2.1502,-0.01564 7.78271,-0.344474 8.08805,-0.523329 z"
         sodipodi:nodetypes="cscsc" /><path
         id="path3"
         style="fill:#783821;fill-opacity:1;stroke-width:0.769433;stroke-linecap:round"
         d="m 125.9184,73.099054 c 0.20547,-0.106203 5.86414,-0.654335 7.93478,-0.529611 2.07064,0.124724 6.57964,0.665757 6.86477,0.899051 -0.57904,0.06279 -4.93794,0.554698 -7.00859,0.429974 -2.07064,-0.124724 -7.4961,-0.65611 -7.79096,-0.799414 z"
         sodipodi:nodetypes="cscsc" /><path
         id="path4"
         style="fill:#1b0907;fill-opacity:1;stroke-width:0.601179;stroke-linecap:round"
         d="m 132.45667,70.485402 c 0.14069,-0.0963 4.1417,-0.716064 5.62306,-0.664668 1.48137,0.0514 4.72151,0.393731 4.93699,0.585622 -0.40906,0.06916 -3.48736,0.606145 -4.96872,0.554749 -1.48137,-0.0514 -5.3737,-0.361022 -5.59133,-0.475703 z"
         sodipodi:nodetypes="cscsc" /><path
         id="path8"
         style="fill:#1b0907;fill-opacity:1;stroke-width:0.930025;stroke-linecap:round"
         d="m 128.14707,69.201658 c 0.21095,-0.157261 6.07114,-1.143976 8.22246,-1.047293 2.15131,0.0967 6.84171,0.686368 7.14254,1.00379 -0.59952,0.110408 -5.11218,0.968525 -7.26349,0.871837 -2.15132,-0.09667 -7.79249,-0.637912 -8.10151,-0.828334 z"
         sodipodi:nodetypes="cscsc" /><path
         id="path16"
         style="fill:#1b0907;fill-opacity:1;stroke-width:0.717044;stroke-linecap:round"
         d="m 116.24256,63.506492 c 0.23499,-0.07809 6.97887,-0.5143 9.48386,-0.439283 2.505,0.07502 7.9907,0.432721 8.36038,0.598937 -0.68932,0.04947 -5.8762,0.435747 -8.38119,0.36073 -2.505,-0.07502 -9.09197,-0.419147 -9.46305,-0.520384 z"
         sodipodi:nodetypes="cscsc" /><path
         id="path20"
         style="fill:#783821;fill-opacity:1;stroke-width:0.717044;stroke-linecap:round"
         d="m 119.69295,65.672051 c 0.23499,-0.07808 6.97887,-0.514296 9.48387,-0.439279 2.505,0.07502 7.99069,0.432722 8.36037,0.598937 -0.68932,0.04947 -5.87619,0.435747 -8.38119,0.360729 -2.50499,-0.07502 -9.09196,-0.419151 -9.46305,-0.520387 z"
         sodipodi:nodetypes="cscsc" /><path
         id="path21"
         style="fill:#1b0907;fill-opacity:1;stroke-width:0.793994;stroke-linecap:round"
         d="m 138.17793,63.914158 c 0.18664,-0.126821 5.51302,-0.960024 7.48755,-0.900893 1.97452,0.05913 6.29533,0.489406 6.58414,0.739391 -0.54451,0.09277 -4.642,0.812553 -6.61652,0.753421 -1.97453,-0.05913 -7.16417,-0.443012 -7.45517,-0.591919 z"
         sodipodi:nodetypes="cscsc" /><path
         id="path22"
         style="fill:#1b0907;fill-opacity:1;stroke-width:0.513247;stroke-linecap:round"
         d="m 136.37567,62.917781 c 0.12878,-0.07602 3.79667,-0.553865 5.15545,-0.507585 1.35878,0.04628 4.3314,0.330226 4.52953,0.483514 -0.37498,0.05346 -3.19683,0.468913 -4.5556,0.422632 -1.35878,-0.04628 -4.92947,-0.306625 -5.12938,-0.398561 z"
         sodipodi:nodetypes="cscsc" /><path
         id="path23"
         style="fill:#783821;fill-opacity:1;stroke-width:0.488799;stroke-linecap:round"
         d="m 125.22002,71.483228 c 0.1243,-0.07146 3.67716,-0.528757 4.99503,-0.48929 1.31786,0.03947 4.20237,0.296696 4.39565,0.439523 -0.36319,0.05106 -3.09618,0.447602 -4.41404,0.408136 -1.31787,-0.03947 -4.78211,-0.272939 -4.97664,-0.358369 z"
         sodipodi:nodetypes="cscsc" /><path
         id="path24"
         style="fill:#1b0907;fill-opacity:1;stroke-width:0.601179;stroke-linecap:round"
         d="m 163.17311,71.187901 c -0.15274,-0.0964 -4.23146,-0.718948 -5.70646,-0.668568 -1.475,0.05038 -4.67245,0.3905 -4.86393,0.582252 0.41773,0.06944 3.56333,0.60857 5.03833,0.558194 1.47501,-0.05038 5.32877,-0.357343 5.53206,-0.471878 z"
         sodipodi:nodetypes="cscsc" /><path
         id="path25"
         style="fill:#1b0907;fill-opacity:1;stroke-width:1.01568;stroke-linecap:round"
         d="m 165.90965,67.793858 c -0.28877,-0.141413 -8.32198,-1.128626 -11.27256,-1.091947 -2.95058,0.03667 -9.38487,0.446149 -9.7985,0.715565 0.8218,0.109222 7.00747,0.954912 9.95805,0.918228 2.95058,-0.03667 10.68858,-0.383057 11.11301,-0.541846 z"
         sodipodi:nodetypes="cscsc" /></g><g
       id="g37"
       transform="translate(-70.01896,2.5198484)"><path
         id="path27"
         style="fill:#1b0907;fill-opacity:1;stroke-width:0.930025;stroke-linecap:round"
         d="m 157.1267,73.43786 c -0.21415,-0.165272 -6.0962,-1.37321 -8.24639,-1.357567 -2.15019,0.01565 -6.83061,0.428786 -7.12523,0.734997 0.60193,0.133038 5.13338,1.161546 7.28357,1.145899 2.1502,-0.01564 7.78271,-0.344474 8.08805,-0.523329 z"
         sodipodi:nodetypes="cscsc" /><path
         id="path28"
         style="fill:#783821;fill-opacity:1;stroke-width:0.769433;stroke-linecap:round"
         d="m 125.9184,73.099054 c 0.20547,-0.106203 5.86414,-0.654335 7.93478,-0.529611 2.07064,0.124724 6.57964,0.665757 6.86477,0.899051 -0.57904,0.06279 -4.93794,0.554698 -7.00859,0.429974 -2.07064,-0.124724 -7.4961,-0.65611 -7.79096,-0.799414 z"
         sodipodi:nodetypes="cscsc" /><path
         id="path29"
         style="fill:#1b0907;fill-opacity:1;stroke-width:0.601179;stroke-linecap:round"
         d="m 132.45667,70.485402 c 0.14069,-0.0963 4.1417,-0.716064 5.62306,-0.664668 1.48137,0.0514 4.72151,0.393731 4.93699,0.585622 -0.40906,0.06916 -3.48736,0.606145 -4.96872,0.554749 -1.48137,-0.0514 -5.3737,-0.361022 -5.59133,-0.475703 z"
         sodipodi:nodetypes="cscsc" /><path
         id="path30"
         style="fill:#1b0907;fill-opacity:1;stroke-width:0.930025;stroke-linecap:round"
         d="m 128.14707,69.201658 c 0.21095,-0.157261 6.07114,-1.143976 8.22246,-1.047293 2.15131,0.0967 6.84171,0.686368 7.14254,1.00379 -0.59952,0.110408 -5.11218,0.968525 -7.26349,0.871837 -2.15132,-0.09667 -7.79249,-0.637912 -8.10151,-0.828334 z"
         sodipodi:nodetypes="cscsc" /><path
         id="path31"
         style="fill:#1b0907;fill-opacity:1;stroke-width:0.717044;stroke-linecap:round"
         d="m 116.24256,63.506492 c 0.23499,-0.07809 6.97887,-0.5143 9.48386,-0.439283 2.505,0.07502 7.9907,0.432721 8.36038,0.598937 -0.68932,0.04947 -5.8762,0.435747 -8.38119,0.36073 -2.505,-0.07502 -9.09197,-0.419147 -9.46305,-0.520384 z"
         sodipodi:nodetypes="cscsc" /><path
         id="path32"
         style="fill:#783821;fill-opacity:1;stroke-width:0.717044;stroke-linecap:round"
         d="m 119.69295,65.672051 c 0.23499,-0.07808 6.97887,-0.514296 9.48387,-0.439279 2.505,0.07502 7.99069,0.432722 8.36037,0.598937 -0.68932,0.04947 -5.87619,0.435747 -8.38119,0.360729 -2.50499,-0.07502 -9.09196,-0.419151 -9.46305,-0.520387 z"
         sodipodi:nodetypes="cscsc" /><path
         id="path33"
         style="fill:#1b0907;fill-opacity:1;stroke-width:0.793994;stroke-linecap:round"
         d="m 138.17793,63.914158 c 0.18664,-0.126821 5.51302,-0.960024 7.48755,-0.900893 1.97452,0.05913 6.29533,0.489406 6.58414,0.739391 -0.54451,0.09277 -4.642,0.812553 -6.61652,0.753421 -1.97453,-0.05913 -7.16417,-0.443012 -7.45517,-0.591919 z"
         sodipodi:nodetypes="cscsc" /><path
         id="path34"
         style="fill:#1b0907;fill-opacity:1;stroke-width:0.513247;stroke-linecap:round"
         d="m 136.37567,62.917781 c 0.12878,-0.07602 3.79667,-0.553865 5.15545,-0.507585 1.35878,0.04628 4.3314,0.330226 4.52953,0.483514 -0.37498,0.05346 -3.19683,0.468913 -4.5556,0.422632 -1.35878,-0.04628 -4.92947,-0.306625 -5.12938,-0.398561 z"
         sodipodi:nodetypes="cscsc" /><path
         id="path35"
         style="fill:#783821;fill-opacity:1;stroke-width:0.488799;stroke-linecap:round"
         d="m 125.22002,71.483228 c 0.1243,-0.07146 3.67716,-0.528757 4.99503,-0.48929 1.31786,0.03947 4.20237,0.296696 4.39565,0.439523 -0.36319,0.05106 -3.09618,0.447602 -4.41404,0.408136 -1.31787,-0.03947 -4.78211,-0.272939 -4.97664,-0.358369 z"
         sodipodi:nodetypes="cscsc" /><path
         id="path36"
         style="fill:#1b0907;fill-opacity:1;stroke-width:0.601179;stroke-linecap:round"
         d="m 163.17311,71.187901 c -0.15274,-0.0964 -4.23146,-0.718948 -5.70646,-0.668568 -1.475,0.05038 -4.67245,0.3905 -4.86393,0.582252 0.41773,0.06944 3.56333,0.60857 5.03833,0.558194 1.47501,-0.05038 5.32877,-0.357343 5.53206,-0.471878 z"
         sodipodi:nodetypes="cscsc" /><path
         id="path37"
         style="fill:#1b0907;fill-opacity:1;stroke-width:1.01568;stroke-linecap:round"
         d="m 165.90965,67.793858 c -0.28877,-0.141413 -8.32198,-1.128626 -11.27256,-1.091947 -2.95058,0.03667 -9.38487,0.446149 -9.7985,0.715565 0.8218,0.109222 7.00747,0.954912 9.95805,0.918228 2.95058,-0.03667 10.68858,-0.383057 11.11301,-0.541846 z"
         sodipodi:nodetypes="cscsc" /></g><path
       id="path11"
       style="fill:#3a1b10;fill-opacity:1;stroke-width:1.07234;stroke-linecap:round"
       d="m 324.71495,-42.229491 c -0.20434,0.216776 -6.08326,1.811811 -8.2689,1.796641 -2.18565,-0.01517 -6.97358,-0.544206 -7.2974,-0.944136 0.60087,-0.175563 5.12207,-1.532486 7.30771,-1.517317 2.18565,0.01517 7.93407,0.431544 8.25859,0.664812 z"
       sodipodi:nodetypes="cscsc" /><path
       id="path12"
       style="fill:#3a1b10;fill-opacity:1;stroke-width:0.838771;stroke-linecap:round"
       d="m 342.32191,-40.985971 c -0.20434,0.132627 -6.08326,1.108494 -8.2689,1.099213 -2.18565,-0.0093 -6.97358,-0.332953 -7.2974,-0.577637 0.60087,-0.107418 5.12207,-0.937599 7.30771,-0.928318 2.18565,0.0093 7.93407,0.264024 8.25859,0.406742 z"
       sodipodi:nodetypes="cscsc" /></g></svg>
