<?xml version="1.0" encoding="UTF-8" standalone="no"?>
<!-- Created with Inkscape (http://www.inkscape.org/) -->

<svg
   width="377.95276"
   height="377.95276"
   viewBox="0 0 100 100"
   version="1.1"
   id="svg1"
   inkscape:version="1.4.2 (ebf0e940d0, 2025-05-08)"
   sodipodi:docname="book-shelf-hover.svg"
   xml:space="preserve"
   xmlns:inkscape="http://www.inkscape.org/namespaces/inkscape"
   xmlns:sodipodi="http://sodipodi.sourceforge.net/DTD/sodipodi-0.dtd"
   xmlns="http://www.w3.org/2000/svg"
   xmlns:svg="http://www.w3.org/2000/svg"><sodipodi:namedview
     id="namedview1"
     pagecolor="#505050"
     bordercolor="#eeeeee"
     borderopacity="1"
     inkscape:showpageshadow="0"
     inkscape:pageopacity="0"
     inkscape:pagecheckerboard="0"
     inkscape:deskcolor="#505050"
     inkscape:document-units="px"
     inkscape:zoom="0.6236289"
     inkscape:cx="60.131915"
     inkscape:cy="340.74752"
     inkscape:window-width="1366"
     inkscape:window-height="697"
     inkscape:window-x="0"
     inkscape:window-y="0"
     inkscape:window-maximized="1"
     inkscape:current-layer="layer1" /><defs
     id="defs1" /><g
     inkscape:label="Camada 1"
     inkscape:groupmode="layer"
     id="layer1"><g
       id="g1"
       transform="matrix(-1,0,0,1,102.06226,0)"><path
         id="rect2-3"
         style="fill:#144a44;fill-opacity:1;stroke:#ffffff;stroke-width:3.58772;stroke-opacity:1"
         d="M 9.752518,5.5779168 81.491506,2.0094477 94.360145,14.04386 C 64.833925,41.417577 45.52407,118.18081 6.896161,94.587859 Z"
         sodipodi:nodetypes="ccccc" /><path
         id="rect19-5"
         style="fill:#081e1c;fill-opacity:1;stroke:#081e1c;stroke-width:1.73523;stroke-opacity:1"
         d="M 15.680546,10.987922 82.990019,6.7999762 92.322761,15.052013 21.273796,31.565977 Z"
         sodipodi:nodetypes="ccccc" /><path
         id="rect6-6"
         style="fill:#081e1c;fill-opacity:1;stroke:#081e1c;stroke-width:2.17495;stroke-opacity:1"
         d="m 10.887571,55.914192 8.62293,21.313901 2.33085,19.963761 -12.44795,-3.302662 z"
         sodipodi:nodetypes="ccccc" /><rect
         style="fill:#144a44;fill-opacity:1;stroke:#ffffff;stroke-width:3.09352;stroke-dasharray:none;stroke-opacity:1"
         id="rect1-2"
         width="77.540588"
         height="82.989151"
         x="17.595928"
         y="16.207033" /><path
         style="fill:#5a361e;fill-opacity:1;stroke:#ffffff;stroke-width:2.70259;stroke-dasharray:none;stroke-opacity:1"
         d="M 9.957348,5.2957038 17.781046,16.680139"
         id="path2-9"
         sodipodi:nodetypes="cc" /><path
         id="rect3-1"
         style="fill:#081e1c;fill-opacity:1;stroke:#ffffff;stroke-width:3.07452;stroke-dasharray:none;stroke-opacity:1"
         d="m 28.747225,23.195886 56.124917,0.236281 3.144533,31.931192 H 25.406159 Z"
         sodipodi:nodetypes="ccccc" /><path
         id="path4-2"
         style="fill:#144a44;fill-opacity:1;stroke:#144a44;stroke-width:0.782362;stroke-opacity:1"
         d="m 28.997554,47.974 55.850388,0.04853 3.129151,6.557635 H 25.67283 Z"
         sodipodi:nodetypes="ccccc" /><rect
         style="fill:#b30808;fill-opacity:1;stroke:#ffffff;stroke-width:1.73215;stroke-dasharray:none;stroke-opacity:1"
         id="rect7-7"
         width="6.5026088"
         height="25.065754"
         x="32.28783"
         y="27.195881" /><rect
         style="fill:#125d1e;fill-opacity:1;stroke:#ffffff;stroke-width:1.73239;stroke-dasharray:none;stroke-opacity:1"
         id="rect8-0"
         width="6.5164404"
         height="25.019783"
         x="35.08997"
         y="34.2258"
         transform="matrix(0.98468315,-0.17435334,0.15062609,0.98859081,0,0)" /><rect
         style="fill:#b30808;fill-opacity:1;stroke:#ffffff;stroke-width:1.73214;stroke-dasharray:none;stroke-opacity:1"
         id="rect9-9"
         width="6.5026088"
         height="25.065754"
         x="51.20451"
         y="26.663664" /><rect
         style="fill:#b30808;fill-opacity:1;stroke:#ffffff;stroke-width:1.73233;stroke-dasharray:none;stroke-opacity:1"
         id="rect10-3"
         width="6.5126901"
         height="25.032265"
         x="79.868263"
         y="14.740265"
         transform="matrix(0.98884986,0.14891592,-0.12851222,0.99170793,0,0)" /><rect
         style="fill:#084cb3;fill-opacity:1;stroke:#ffffff;stroke-width:1.73237;stroke-dasharray:none;stroke-opacity:1"
         id="rect11-6"
         width="6.5152383"
         height="25.023787"
         x="72.476723"
         y="14.344806"
         transform="matrix(0.98602005,0.16662673,-0.14390139,0.98959203,0,0)" /><rect
         style="fill:#b30808;fill-opacity:1;stroke:#ffffff;stroke-width:1.73222;stroke-dasharray:none;stroke-opacity:1"
         id="rect12-0"
         width="6.5065427"
         height="25.052698"
         x="62.041084"
         y="20.806776"
         transform="matrix(0.99565785,0.0930884,-0.08019261,0.99677939,0,0)" /><path
         id="rect16-6"
         style="fill:#2e0202;stroke-width:1.79599"
         d="m 51.97176,34.366764 4.834835,0.05303 v 2.55 l -4.834835,-0.05303 z"
         sodipodi:nodetypes="ccccc" /><path
         id="rect17"
         style="fill:#2e0202;stroke-width:1.4095"
         d="m 52.198322,32.279632 h 4.765811 l -0.05303,1.412132 -4.818844,0.159099 z"
         sodipodi:nodetypes="ccccc" /><rect
         style="fill:#2e0202;fill-opacity:1;stroke:none;stroke-width:1.75593;stroke-opacity:1"
         id="rect18"
         width="4.875"
         height="2.55"
         x="51.971756"
         y="-47.416763"
         transform="scale(1,-1)" /><rect
         style="fill:#2e0202;fill-opacity:1;stroke:#ffffff;stroke-width:1.4095;stroke-opacity:1"
         id="rect20"
         width="6.6749997"
         height="1.1999999"
         x="51.071758"
         y="-49.291763"
         transform="scale(1,-1)" /><path
         id="rect21"
         style="fill:#2e0202;stroke-width:3.56952"
         transform="matrix(0.9746843,0.22358557,-0.02864712,0.99958959,0,0)"
         d="m 62.416489,21.696363 4.851736,0.01455 -0.486496,8.526607 -4.847088,0.143576 z"
         sodipodi:nodetypes="ccccc" /><path
         id="rect22"
         style="fill:#ffffff;stroke:none;stroke-width:1.79599;stroke-opacity:1"
         d="m 69.709262,30.241763 4.687499,0.4875 -0.3,2.5125 -4.837499,0.0375 z"
         sodipodi:nodetypes="ccccc" /><path
         id="path22"
         style="fill:#ffffff;stroke:none;stroke-width:1.33865;stroke-opacity:1"
         d="m 69.371762,33.804263 4.687499,0.270833 -0.3,1.395834 -4.837499,0.02083 z"
         sodipodi:nodetypes="ccccc" /><rect
         style="fill:#07250c;fill-opacity:1;stroke:none;stroke-width:1.99085;stroke-opacity:1"
         id="rect23"
         width="6.266726"
         height="2.55"
         x="33.297932"
         y="42.277622"
         transform="rotate(-11.344093)" /><rect
         style="fill:#07250c;fill-opacity:1;stroke:none;stroke-width:1.75442;stroke-opacity:1"
         id="rect24"
         width="6.2176824"
         height="1.9959106"
         x="27.431179"
         y="46.445496"
         transform="matrix(0.97605709,-0.21751449,0.31409717,0.94939084,0,0)" /><rect
         style="fill:#2e0202;fill-opacity:1;stroke:none;stroke-width:1.62065;stroke-opacity:1"
         id="rect25"
         width="4.1528091"
         height="2.55"
         x="33.62373"
         y="36.387348" /><rect
         style="fill:#2e0202;fill-opacity:1;stroke:none;stroke-width:1.18588;stroke-opacity:1"
         id="rect26"
         width="4.7249994"
         height="1.1999999"
         x="33.146763"
         y="31.741764" /><rect
         style="fill:#2e0202;fill-opacity:1;stroke:none;stroke-width:1.60442;stroke-opacity:1"
         id="rect27"
         width="4.0700297"
         height="2.55"
         x="33.655041"
         y="-42.795353"
         transform="scale(1,-1)" /><rect
         style="fill:#2e0202;fill-opacity:1;stroke:none;stroke-width:1.17643;stroke-opacity:1"
         id="rect28"
         width="4.6500001"
         height="1.1999999"
         x="33.22176"
         y="-48.541763"
         transform="scale(1,-1)" /><path
         id="path28"
         style="fill:#081e1c;fill-opacity:1;stroke:#ffffff;stroke-width:3.07452;stroke-dasharray:none;stroke-opacity:1"
         d="M 84.873975,92.585522 28.749058,92.349241 25.604525,60.418049 h 62.610516 z"
         sodipodi:nodetypes="ccccc" /><path
         id="path29"
         style="fill:#144a44;fill-opacity:1;stroke:none;stroke-width:0.755255;stroke-opacity:1"
         d="m 82.728724,85.384295 -52.047227,0.04853 -2.91607,6.557635 h 58.061622 z"
         sodipodi:nodetypes="ccccc" /><rect
         style="fill:#b30808;fill-opacity:1;stroke:#ffffff;stroke-width:1.73215;stroke-dasharray:none;stroke-opacity:1"
         id="rect29"
         width="6.5026088"
         height="25.065754"
         x="-81.333366"
         y="-88.585526"
         transform="scale(-1)" /><rect
         style="fill:#125d1e;fill-opacity:1;stroke:#ffffff;stroke-width:1.73239;stroke-dasharray:none;stroke-opacity:1"
         id="rect30"
         width="6.5164404"
         height="25.019783"
         x="-59.822643"
         y="-99.631157"
         transform="matrix(-0.98468315,0.17435334,-0.15062609,-0.98859081,0,0)" /><rect
         style="fill:#b30808;fill-opacity:1;stroke:#ffffff;stroke-width:1.73214;stroke-dasharray:none;stroke-opacity:1"
         id="rect31"
         width="6.5026088"
         height="25.065754"
         x="-62.416687"
         y="-89.117744"
         transform="scale(-1)" /><rect
         style="fill:#b30808;fill-opacity:1;stroke:#ffffff;stroke-width:1.73233;stroke-dasharray:none;stroke-opacity:1"
         id="rect32"
         width="6.5126901"
         height="25.032265"
         x="-47.717197"
         y="-82.850868"
         transform="matrix(-0.98884986,-0.14891592,0.12851222,-0.99170793,0,0)" /><rect
         style="fill:#084cb3;fill-opacity:1;stroke:#ffffff;stroke-width:1.73237;stroke-dasharray:none;stroke-opacity:1"
         id="rect33"
         width="6.5152383"
         height="25.023787"
         x="-56.657192"
         y="-80.910851"
         transform="matrix(-0.98602005,-0.16662673,0.14390139,-0.98959203,0,0)" /><rect
         style="fill:#b30808;fill-opacity:1;stroke:#ffffff;stroke-width:1.73222;stroke-dasharray:none;stroke-opacity:1"
         id="rect34"
         width="6.5065427"
         height="25.052698"
         x="-60.509266"
         y="-83.903854"
         transform="matrix(-0.99565785,-0.0930884,0.08019261,-0.99677939,0,0)" /><rect
         style="fill:#2e0202;fill-opacity:1;stroke:none;stroke-width:1.73555;stroke-opacity:1"
         id="rect35"
         width="4.7624998"
         height="2.55"
         x="-61.536938"
         y="-81.414642"
         transform="scale(-1)" /><rect
         style="fill:#2e0202;fill-opacity:1;stroke:none;stroke-width:1.19526;stroke-opacity:1"
         id="rect36"
         width="4.7999997"
         height="1.1999999"
         x="-61.574436"
         y="-83.289642"
         transform="scale(-1)" /><rect
         style="fill:#2e0202;fill-opacity:1;stroke:none;stroke-width:1.74237;stroke-opacity:1"
         id="rect37"
         width="4.7999997"
         height="2.55"
         x="-61.57444"
         y="68.364639"
         transform="scale(-1,1)" /><rect
         style="fill:#2e0202;fill-opacity:1;stroke:#ffffff;stroke-width:1.4095;stroke-opacity:1"
         id="rect38"
         width="6.6749997"
         height="1.1999999"
         x="-62.549438"
         y="66.489639"
         transform="scale(-1,1)" /><path
         id="rect39"
         style="fill:#2e0202;stroke-width:3.56952"
         transform="matrix(-0.9746843,-0.22358557,0.02864712,-0.99958959,0,0)"
         d="m -56.79662,-67.107692 4.791127,-0.11929 -0.42045,8.511834 -4.796604,-0.06706 z"
         sodipodi:nodetypes="ccccc" /><path
         id="path39"
         style="fill:#ffffff;stroke:none;stroke-width:1.79599;stroke-opacity:1"
         d="m 43.911938,85.539645 -4.687499,-0.4875 0.3,-2.5125 4.837499,-0.0375 z"
         sodipodi:nodetypes="ccccc" /><path
         id="path40"
         style="fill:#ffffff;stroke:none;stroke-width:1.33865;stroke-opacity:1"
         d="m 44.249438,81.977145 -4.687499,-0.270833 0.3,-1.395834 4.837499,-0.02083 z"
         sodipodi:nodetypes="ccccc" /><rect
         style="fill:#07250c;fill-opacity:1;stroke:none;stroke-width:1.99085;stroke-opacity:1"
         id="rect40"
         width="6.266726"
         height="2.55"
         x="-55.329224"
         y="-93.591209"
         transform="rotate(168.65591)" /><rect
         style="fill:#07250c;fill-opacity:1;stroke:none;stroke-width:1.75442;stroke-opacity:1"
         id="rect41"
         width="6.2176824"
         height="1.9959106"
         x="-44.433872"
         y="-91.972824"
         transform="matrix(-0.97605709,0.21751449,-0.31409717,-0.94939084,0,0)" /><rect
         style="fill:#2e0202;fill-opacity:1;stroke:none;stroke-width:1.72183;stroke-opacity:1"
         id="rect42"
         width="4.6875"
         height="2.55"
         x="-80.436943"
         y="-79.619057"
         transform="scale(-1)" /><rect
         style="fill:#2e0202;fill-opacity:1;stroke:none;stroke-width:1.4095;stroke-opacity:1"
         id="rect43"
         width="6.6749997"
         height="1.1999999"
         x="-81.374435"
         y="-84.039642"
         transform="scale(-1)" /><rect
         style="fill:#2e0202;fill-opacity:1;stroke:none;stroke-width:1.72732;stroke-opacity:1"
         id="rect44"
         width="4.7174621"
         height="2.55"
         x="-80.452469"
         y="72.986053"
         transform="scale(-1,1)" /><rect
         style="fill:#2e0202;fill-opacity:1;stroke:none;stroke-width:1.19992;stroke-opacity:1"
         id="rect45"
         width="4.8374996"
         height="1.1999999"
         x="-80.549438"
         y="67.239639"
         transform="scale(-1,1)" /></g></g></svg>
