<?xml version="1.0" encoding="UTF-8" standalone="no"?>
<!-- Created with Inkscape (http://www.inkscape.org/) -->

<svg
   width="377.95276"
   height="377.95276"
   viewBox="0 0 100 100"
   version="1.1"
   id="svg1"
   inkscape:version="1.4.2 (ebf0e940d0, 2025-05-08)"
   sodipodi:docname="cama-deitado.svg"
   xml:space="preserve"
   xmlns:inkscape="http://www.inkscape.org/namespaces/inkscape"
   xmlns:sodipodi="http://sodipodi.sourceforge.net/DTD/sodipodi-0.dtd"
   xmlns="http://www.w3.org/2000/svg"
   xmlns:svg="http://www.w3.org/2000/svg"><sodipodi:namedview
     id="namedview1"
     pagecolor="#505050"
     bordercolor="#eeeeee"
     borderopacity="1"
     inkscape:showpageshadow="0"
     inkscape:pageopacity="0"
     inkscape:pagecheckerboard="0"
     inkscape:deskcolor="#505050"
     inkscape:document-units="px"
     inkscape:zoom="0.88194445"
     inkscape:cx="157.03937"
     inkscape:cy="227.33858"
     inkscape:window-width="1366"
     inkscape:window-height="697"
     inkscape:window-x="0"
     inkscape:window-y="0"
     inkscape:window-maximized="1"
     inkscape:current-layer="layer1" /><defs
     id="defs1"><linearGradient
       id="linearGradient13895"
       inkscape:swatch="solid"><stop
         style="stop-color:#000000;stop-opacity:1;"
         offset="0"
         id="stop13893" /></linearGradient><filter
       style="color-interpolation-filters:sRGB;"
       inkscape:label="Clean Edges"
       id="filter14269"
       x="-0.31154084"
       y="-0.29580634"
       width="1.6230817"
       height="1.5916127"><feGaussianBlur
         stdDeviation="0.204612"
         result="blur"
         id="feGaussianBlur14263" /><feComposite
         in="SourceGraphic"
         in2="blur"
         operator="in"
         result="composite1"
         id="feComposite14265" /><feComposite
         in="composite1"
         in2="composite1"
         operator="in"
         result="composite2"
         id="feComposite14267" /></filter><filter
       style="color-interpolation-filters:sRGB;"
       inkscape:label="Clean Edges"
       id="filter14269-3"
       x="-0.31154084"
       y="-0.29580634"
       width="1.6230817"
       height="1.5916127"><feGaussianBlur
         stdDeviation="0.204612"
         result="blur"
         id="feGaussianBlur14263-5" /><feComposite
         in="SourceGraphic"
         in2="blur"
         operator="in"
         result="composite1"
         id="feComposite14265-6" /><feComposite
         in="composite1"
         in2="composite1"
         operator="in"
         result="composite2"
         id="feComposite14267-2" /></filter><inkscape:path-effect
       effect="fillet_chamfer"
       id="path-effect68"
       is_visible="true"
       lpeversion="1"
       nodesatellites_param="F,0,0,1,0,0,0,1 @ F,0,0,1,0,0,0,1 @ F,0,0,1,0,0,0,1 @ F,0,0,1,0,0,0,1 @ F,0,0,1,0,0,0,1 @ F,0,0,1,0,0,0,1 @ F,0,0,1,0,0,0,1 @ F,0,0,1,0,0,0,1 @ F,0,0,1,0,0,0,1"
       radius="0"
       unit="px"
       method="auto"
       mode="F"
       chamfer_steps="1"
       flexible="false"
       use_knot_distance="true"
       apply_no_radius="true"
       apply_with_radius="true"
       only_selected="false"
       hide_knots="false" /><inkscape:path-effect
       effect="fillet_chamfer"
       id="path-effect66"
       is_visible="true"
       lpeversion="1"
       nodesatellites_param="F,0,0,1,0,0,0,1 @ F,0,0,1,0,0.44929322,0,1 @ F,0,0,1,0,0.44929322,0,1 @ F,0,0,1,0,0,0,1 @ F,0,0,1,0,0,0,1 @ F,0,0,1,0,0,0,1 @ F,0,0,1,0,0,0,1 @ F,0,0,1,0,0,0,1 @ F,0,0,1,0,0,0,1 @ F,0,0,1,0,0,0,1"
       radius="0"
       unit="px"
       method="auto"
       mode="F"
       chamfer_steps="1"
       flexible="false"
       use_knot_distance="true"
       apply_no_radius="true"
       apply_with_radius="true"
       only_selected="false"
       hide_knots="false" /><inkscape:path-effect
       effect="fillet_chamfer"
       id="path-effect68-6"
       is_visible="true"
       lpeversion="1"
       nodesatellites_param="F,0,0,1,0,0,0,1 @ F,0,0,1,0,0,0,1 @ F,0,0,1,0,0,0,1 @ F,0,0,1,0,0,0,1 @ F,0,0,1,0,0,0,1 @ F,0,0,1,0,0,0,1 @ F,0,0,1,0,0,0,1 @ F,0,0,1,0,0,0,1 @ F,0,0,1,0,0,0,1"
       radius="0"
       unit="px"
       method="auto"
       mode="F"
       chamfer_steps="1"
       flexible="false"
       use_knot_distance="true"
       apply_no_radius="true"
       apply_with_radius="true"
       only_selected="false"
       hide_knots="false" /><inkscape:path-effect
       effect="fillet_chamfer"
       id="path-effect66-7"
       is_visible="true"
       lpeversion="1"
       nodesatellites_param="F,0,0,1,0,0,0,1 @ F,0,0,1,0,0.44929322,0,1 @ F,0,0,1,0,0.44929322,0,1 @ F,0,0,1,0,0,0,1 @ F,0,0,1,0,0,0,1 @ F,0,0,1,0,0,0,1 @ F,0,0,1,0,0,0,1 @ F,0,0,1,0,0,0,1 @ F,0,0,1,0,0,0,1 @ F,0,0,1,0,0,0,1"
       radius="0"
       unit="px"
       method="auto"
       mode="F"
       chamfer_steps="1"
       flexible="false"
       use_knot_distance="true"
       apply_no_radius="true"
       apply_with_radius="true"
       only_selected="false"
       hide_knots="false" /><inkscape:path-effect
       effect="fillet_chamfer"
       id="path-effect68-7"
       is_visible="true"
       lpeversion="1"
       nodesatellites_param="F,0,0,1,0,0,0,1 @ F,0,0,1,0,0,0,1 @ F,0,0,1,0,0,0,1 @ F,0,0,1,0,0,0,1 @ F,0,0,1,0,0,0,1 @ F,0,0,1,0,0,0,1 @ F,0,0,1,0,0,0,1 @ F,0,0,1,0,0,0,1 @ F,0,0,1,0,0,0,1"
       radius="0"
       unit="px"
       method="auto"
       mode="F"
       chamfer_steps="1"
       flexible="false"
       use_knot_distance="true"
       apply_no_radius="true"
       apply_with_radius="true"
       only_selected="false"
       hide_knots="false" /><inkscape:path-effect
       effect="fillet_chamfer"
       id="path-effect66-5"
       is_visible="true"
       lpeversion="1"
       nodesatellites_param="F,0,0,1,0,0,0,1 @ F,0,0,1,0,0.44929322,0,1 @ F,0,0,1,0,0.44929322,0,1 @ F,0,0,1,0,0,0,1 @ F,0,0,1,0,0,0,1 @ F,0,0,1,0,0,0,1 @ F,0,0,1,0,0,0,1 @ F,0,0,1,0,0,0,1 @ F,0,0,1,0,0,0,1 @ F,0,0,1,0,0,0,1"
       radius="0"
       unit="px"
       method="auto"
       mode="F"
       chamfer_steps="1"
       flexible="false"
       use_knot_distance="true"
       apply_no_radius="true"
       apply_with_radius="true"
       only_selected="false"
       hide_knots="false" /><inkscape:path-effect
       effect="fillet_chamfer"
       id="path-effect68-3"
       is_visible="true"
       lpeversion="1"
       nodesatellites_param="F,0,0,1,0,0,0,1 @ F,0,0,1,0,0,0,1 @ F,0,0,1,0,0,0,1 @ F,0,0,1,0,0,0,1 @ F,0,0,1,0,0,0,1 @ F,0,0,1,0,0,0,1 @ F,0,0,1,0,0,0,1 @ F,0,0,1,0,0,0,1 @ F,0,0,1,0,0,0,1"
       radius="0"
       unit="px"
       method="auto"
       mode="F"
       chamfer_steps="1"
       flexible="false"
       use_knot_distance="true"
       apply_no_radius="true"
       apply_with_radius="true"
       only_selected="false"
       hide_knots="false" /><inkscape:path-effect
       effect="fillet_chamfer"
       id="path-effect66-6"
       is_visible="true"
       lpeversion="1"
       nodesatellites_param="F,0,0,1,0,0,0,1 @ F,0,0,1,0,0.44929322,0,1 @ F,0,0,1,0,0.44929322,0,1 @ F,0,0,1,0,0,0,1 @ F,0,0,1,0,0,0,1 @ F,0,0,1,0,0,0,1 @ F,0,0,1,0,0,0,1 @ F,0,0,1,0,0,0,1 @ F,0,0,1,0,0,0,1 @ F,0,0,1,0,0,0,1"
       radius="0"
       unit="px"
       method="auto"
       mode="F"
       chamfer_steps="1"
       flexible="false"
       use_knot_distance="true"
       apply_no_radius="true"
       apply_with_radius="true"
       only_selected="false"
       hide_knots="false" /><filter
       style="color-interpolation-filters:sRGB;"
       inkscape:label="Clean Edges"
       id="filter14269-5"
       x="-0.31154084"
       y="-0.29580634"
       width="1.6230817"
       height="1.5916127"><feGaussianBlur
         stdDeviation="0.204612"
         result="blur"
         id="feGaussianBlur14263-6" /><feComposite
         in="SourceGraphic"
         in2="blur"
         operator="in"
         result="composite1"
         id="feComposite14265-2" /><feComposite
         in="composite1"
         in2="composite1"
         operator="in"
         result="composite2"
         id="feComposite14267-9" /></filter><filter
       style="color-interpolation-filters:sRGB;"
       inkscape:label="Clean Edges"
       id="filter14269-6"
       x="-0.31154084"
       y="-0.29580634"
       width="1.6230817"
       height="1.5916127"><feGaussianBlur
         stdDeviation="0.204612"
         result="blur"
         id="feGaussianBlur14263-7" /><feComposite
         in="SourceGraphic"
         in2="blur"
         operator="in"
         result="composite1"
         id="feComposite14265-5" /><feComposite
         in="composite1"
         in2="composite1"
         operator="in"
         result="composite2"
         id="feComposite14267-3" /></filter></defs><g
     inkscape:label="Camada 1"
     inkscape:groupmode="layer"
     id="layer1"><ellipse
       style="fill:#000000;fill-opacity:0.592841;stroke:none;stroke-width:1.56355;stroke-linecap:round;stroke-linejoin:round;stroke-opacity:1"
       id="ellipse50"
       cx="59.602009"
       cy="87.817833"
       rx="18.578901"
       ry="1.5119531" /><g
       id="g12"
       transform="matrix(3.5077887,0.25040166,-0.21139085,3.431789,-81.13572,-8.9944354)"><path
         id="path15-6"
         style="fill:#ffffff;fill-opacity:1;stroke:#191414;stroke-width:0.444;stroke-dasharray:none"
         d="M 35.414568,3.0001364 36.619809,1.3389155 37.945571,6.67603 36.860855,7.771729 Z"
         sodipodi:nodetypes="ccccc" /><rect
         style="fill:#ffffff;stroke:#191414;stroke-width:0.549;stroke-miterlimit:4;stroke-dasharray:none;stroke-opacity:1"
         id="rect2963"
         width="2.00069"
         height="17.948395"
         x="37.498688"
         y="7.6114192"
         ry="0.56545579" /><path
         id="path7-0"
         style="fill:#ffffff;fill-opacity:1;stroke:#191414;stroke-width:0.444;stroke-dasharray:none"
         d="M 41.827767,2.8848413 40.622526,1.2236204 39.296764,6.5607349 40.38148,7.6564339 Z"
         sodipodi:nodetypes="ccccc" /><g
         id="g6"
         transform="matrix(-1.7902656,0,0,-1.7323616,90.68463,20.999998)"
         style="stroke-width:0.283917;stroke-dasharray:none"><rect
           style="fill:#ffffff;stroke:#191414;stroke-width:0.283917;stroke-miterlimit:4;stroke-dasharray:none;stroke-opacity:1"
           id="rect5-6"
           width="2.418293"
           height="0.53468895"
           x="27.855507"
           y="7.3858442"
           ry="0.25027269" /><rect
           style="fill:#ffffff;stroke:#191414;stroke-width:0.283917;stroke-miterlimit:4;stroke-dasharray:none;stroke-opacity:1"
           id="rect6"
           width="2.895308"
           height="0.70425063"
           x="27.631411"
           y="7.8246946"
           ry="0.3296397" /></g><g
         id="g22"
         transform="matrix(1.7884929,0.07707202,-0.07964813,1.7306462,-12.882346,5.0543937)"><path
           id="path17-2"
           style="fill:#861414;fill-opacity:1;stroke:#191414;stroke-width:0.192"
           d="m 29.179479,1.3621619 c 0,0.1894821 -0.12582,0.6505412 -0.328434,0.6505415 -0.202615,2e-7 -0.405299,-0.461059 -0.405299,-0.6505415 0,-0.1894825 0.164252,-0.3430884 0.366867,-0.3430882 0.202615,3e-7 0.366866,0.153606 0.366866,0.3430882 z"
           sodipodi:nodetypes="sssss" /><path
           id="path18-6"
           style="fill:#4d4d4d;stroke:#191414;stroke-width:0.192"
           d="m 28.357427,0.89338797 c 0,0.18948213 0.220065,0.48720663 0.01745,0.48720693 -0.202615,2e-7 -0.751184,-0.2977244 -0.751184,-0.48720693 0,-0.18948251 0.164252,-0.34308838 0.366867,-0.34308815 0.202615,2.9e-7 0.366866,0.153606 0.366867,0.34308815 z"
           sodipodi:nodetypes="sssss" /><path
           id="path19-1"
           style="fill:#4d4d4d;stroke:#191414;stroke-width:0.192"
           d="m 29.960769,0.80506825 c 0,0.18948215 -0.471705,0.48720665 -0.674319,0.48720695 -0.202615,2e-7 -0.05941,-0.29772444 -0.05941,-0.48720695 0,-0.18948251 0.164252,-0.34308838 0.366867,-0.34308815 0.202615,2.9e-7 0.366866,0.153606 0.366866,0.34308815 z"
           sodipodi:nodetypes="sssss" /><path
           id="path20-8"
           style="fill:#df2e2e;fill-opacity:1;stroke:none;stroke-width:0.0965249"
           d="m 29.044968,1.3211899 c 0,0.097872 -0.06157,0.3360203 -0.160706,0.3360204 -0.09914,1e-7 -0.198318,-0.2381481 -0.198318,-0.3360204 0,-0.097872 0.08037,-0.1772134 0.179512,-0.1772133 0.09915,2e-7 0.179512,0.079341 0.179512,0.1772133 z"
           sodipodi:nodetypes="sssss" /><path
           id="path21-7"
           style="fill:#7f7f7f;fill-opacity:1;stroke:none;stroke-width:0.0784491"
           d="m 28.149614,0.69865723 c 0.05242,0.0598357 0.142334,0.23840606 0.08174,0.29149337 -0.0606,0.053093 -0.248779,-0.0393931 -0.301199,-0.099229 -0.05242,-0.0598357 -0.04579,-0.15137913 0.01482,-0.2044742 0.06061,-0.053099 0.152226,-0.0476261 0.204647,0.0122098 z"
           sodipodi:nodetypes="sssss" /><path
           id="path22-9"
           style="fill:#7f7f7f;fill-opacity:1;stroke:none;stroke-width:0.0784491"
           d="m 29.428341,0.62179387 c -0.05242,0.0598357 -0.142334,0.23840606 -0.08174,0.29149337 0.0606,0.053093 0.248779,-0.0393931 0.301199,-0.099229 0.05242,-0.0598357 0.04579,-0.15137913 -0.01482,-0.2044742 -0.06061,-0.053099 -0.152226,-0.0476261 -0.204647,0.0122098 z"
           sodipodi:nodetypes="sssss" /></g><rect
         style="fill:#ffffff;stroke:#191414;stroke-width:0.421;stroke-miterlimit:4;stroke-dasharray:none;stroke-opacity:1"
         id="rect4"
         width="4.2497587"
         height="0.9376806"
         x="36.37653"
         y="22.523273"
         ry="0.43890166" /><rect
         style="fill:#ffffff;stroke:#191414;stroke-width:0.478;stroke-miterlimit:4;stroke-dasharray:none;stroke-opacity:1"
         id="rect3-2"
         width="5.0880356"
         height="1.2350399"
         x="35.982716"
         y="23.292883"
         ry="0.57808709" /><g
         id="g28"
         transform="matrix(1.7555982,-0.07802106,-0.07818321,-1.7519572,-12.018157,25.578561)"><path
           id="path23-0"
           style="fill:#861414;fill-opacity:1;stroke:#191414;stroke-width:0.192"
           d="m 29.179479,1.3621619 c 0,0.1894821 -0.12582,0.6505412 -0.328434,0.6505415 -0.202615,2e-7 -0.405299,-0.461059 -0.405299,-0.6505415 0,-0.1894825 0.164252,-0.3430884 0.366867,-0.3430882 0.202615,3e-7 0.366866,0.153606 0.366866,0.3430882 z"
           sodipodi:nodetypes="sssss" /><path
           id="path24-2"
           style="fill:#4d4d4d;stroke:#191414;stroke-width:0.192"
           d="m 28.357427,0.89338797 c 0,0.18948213 0.220065,0.48720663 0.01745,0.48720693 -0.202615,2e-7 -0.751184,-0.2977244 -0.751184,-0.48720693 0,-0.18948251 0.164252,-0.34308838 0.366867,-0.34308815 0.202615,2.9e-7 0.366866,0.153606 0.366867,0.34308815 z"
           sodipodi:nodetypes="sssss" /><path
           id="path25-3"
           style="fill:#4d4d4d;stroke:#191414;stroke-width:0.192"
           d="m 29.960769,0.80506825 c 0,0.18948215 -0.471705,0.48720665 -0.674319,0.48720695 -0.202615,2e-7 -0.05941,-0.29772444 -0.05941,-0.48720695 0,-0.18948251 0.164252,-0.34308838 0.366867,-0.34308815 0.202615,2.9e-7 0.366866,0.153606 0.366866,0.34308815 z"
           sodipodi:nodetypes="sssss" /><path
           id="path26-7"
           style="fill:#df2e2e;fill-opacity:1;stroke:none;stroke-width:0.0965249"
           d="m 29.044968,1.3211899 c 0,0.097872 -0.06157,0.3360203 -0.160706,0.3360204 -0.09914,1e-7 -0.198318,-0.2381481 -0.198318,-0.3360204 0,-0.097872 0.08037,-0.1772134 0.179512,-0.1772133 0.09915,2e-7 0.179512,0.079341 0.179512,0.1772133 z"
           sodipodi:nodetypes="sssss" /><path
           id="path27-5"
           style="fill:#7f7f7f;fill-opacity:1;stroke:none;stroke-width:0.0784491"
           d="m 28.149614,0.69865723 c 0.05242,0.0598357 0.142334,0.23840606 0.08174,0.29149337 -0.0606,0.053093 -0.248779,-0.0393931 -0.301199,-0.099229 -0.05242,-0.0598357 -0.04579,-0.15137913 0.01482,-0.2044742 0.06061,-0.053099 0.152226,-0.0476261 0.204647,0.0122098 z"
           sodipodi:nodetypes="sssss" /><path
           id="path28-9"
           style="fill:#7f7f7f;fill-opacity:1;stroke:none;stroke-width:0.0784491"
           d="m 29.428341,0.62179387 c -0.05242,0.0598357 -0.142334,0.23840606 -0.08174,0.29149337 0.0606,0.053093 0.248779,-0.0393931 0.301199,-0.099229 0.05242,-0.0598357 0.04579,-0.15137913 -0.01482,-0.2044742 -0.06061,-0.053099 -0.152226,-0.0476261 -0.204647,0.0122098 z"
           sodipodi:nodetypes="sssss" /></g></g><ellipse
       style="fill:#000000;fill-opacity:0.592841;stroke:none;stroke-width:4.386;stroke-linecap:round;stroke-linejoin:round;stroke-opacity:1"
       id="path40"
       cx="49.950001"
       cy="94.499992"
       rx="46.049999"
       ry="4.7999997" /><path
       id="path7"
       style="fill:#572918;stroke:#1b0907;stroke-width:4.79449;stroke-linecap:round"
       d="M 52.459957,59.661392 H 3.4262083 L 4.5030588,28.924003 50.135536,29.626338 Z"
       sodipodi:nodetypes="ccccc" /><g
       id="g39"
       transform="matrix(0.83769902,0,0,1,-90.276939,-28.089296)"><path
         id="path9"
         style="fill:#1b0907;fill-opacity:1;stroke-width:0.930025;stroke-linecap:round"
         d="m 157.1267,73.43786 c -0.21415,-0.165272 -6.0962,-1.37321 -8.24639,-1.357567 -2.15019,0.01565 -6.83061,0.428786 -7.12523,0.734997 0.60193,0.133038 5.13338,1.161546 7.28357,1.145899 2.1502,-0.01564 7.78271,-0.344474 8.08805,-0.523329 z"
         sodipodi:nodetypes="cscsc" /><path
         id="path10"
         style="fill:#783821;fill-opacity:1;stroke-width:0.769433;stroke-linecap:round"
         d="m 125.9184,73.099054 c 0.20547,-0.106203 5.86414,-0.654335 7.93478,-0.529611 2.07064,0.124724 6.57964,0.665757 6.86477,0.899051 -0.57904,0.06279 -4.93794,0.554698 -7.00859,0.429974 -2.07064,-0.124724 -7.4961,-0.65611 -7.79096,-0.799414 z"
         sodipodi:nodetypes="cscsc" /><path
         id="path13"
         style="fill:#1b0907;fill-opacity:1;stroke-width:0.601179;stroke-linecap:round"
         d="m 132.45667,70.485402 c 0.14069,-0.0963 4.1417,-0.716064 5.62306,-0.664668 1.48137,0.0514 4.72151,0.393731 4.93699,0.585622 -0.40906,0.06916 -3.48736,0.606145 -4.96872,0.554749 -1.48137,-0.0514 -5.3737,-0.361022 -5.59133,-0.475703 z"
         sodipodi:nodetypes="cscsc" /><path
         id="path14"
         style="fill:#1b0907;fill-opacity:1;stroke-width:0.930025;stroke-linecap:round"
         d="m 128.14707,69.201658 c 0.21095,-0.157261 6.07114,-1.143976 8.22246,-1.047293 2.15131,0.0967 6.84171,0.686368 7.14254,1.00379 -0.59952,0.110408 -5.11218,0.968525 -7.26349,0.871837 -2.15132,-0.09667 -7.79249,-0.637912 -8.10151,-0.828334 z"
         sodipodi:nodetypes="cscsc" /><path
         id="path15"
         style="fill:#1b0907;fill-opacity:1;stroke-width:0.717044;stroke-linecap:round"
         d="m 116.24256,63.506492 c 0.23499,-0.07809 6.97887,-0.5143 9.48386,-0.439283 2.505,0.07502 7.9907,0.432721 8.36038,0.598937 -0.68932,0.04947 -5.8762,0.435747 -8.38119,0.36073 -2.505,-0.07502 -9.09197,-0.419147 -9.46305,-0.520384 z"
         sodipodi:nodetypes="cscsc" /><path
         id="path17"
         style="fill:#783821;fill-opacity:1;stroke-width:0.717044;stroke-linecap:round"
         d="m 119.69295,65.672051 c 0.23499,-0.07808 6.97887,-0.514296 9.48387,-0.439279 2.505,0.07502 7.99069,0.432722 8.36037,0.598937 -0.68932,0.04947 -5.87619,0.435747 -8.38119,0.360729 -2.50499,-0.07502 -9.09196,-0.419151 -9.46305,-0.520387 z"
         sodipodi:nodetypes="cscsc" /><path
         id="path18"
         style="fill:#1b0907;fill-opacity:1;stroke-width:0.793994;stroke-linecap:round"
         d="m 138.17793,63.914158 c 0.18664,-0.126821 5.51302,-0.960024 7.48755,-0.900893 1.97452,0.05913 6.29533,0.489406 6.58414,0.739391 -0.54451,0.09277 -4.642,0.812553 -6.61652,0.753421 -1.97453,-0.05913 -7.16417,-0.443012 -7.45517,-0.591919 z"
         sodipodi:nodetypes="cscsc" /><path
         id="path19"
         style="fill:#1b0907;fill-opacity:1;stroke-width:0.513247;stroke-linecap:round"
         d="m 136.37567,62.917781 c 0.12878,-0.07602 3.79667,-0.553865 5.15545,-0.507585 1.35878,0.04628 4.3314,0.330226 4.52953,0.483514 -0.37498,0.05346 -3.19683,0.468913 -4.5556,0.422632 -1.35878,-0.04628 -4.92947,-0.306625 -5.12938,-0.398561 z"
         sodipodi:nodetypes="cscsc" /><path
         id="path26"
         style="fill:#783821;fill-opacity:1;stroke-width:0.488799;stroke-linecap:round"
         d="m 125.22002,71.483228 c 0.1243,-0.07146 3.67716,-0.528757 4.99503,-0.48929 1.31786,0.03947 4.20237,0.296696 4.39565,0.439523 -0.36319,0.05106 -3.09618,0.447602 -4.41404,0.408136 -1.31787,-0.03947 -4.78211,-0.272939 -4.97664,-0.358369 z"
         sodipodi:nodetypes="cscsc" /><path
         id="path38"
         style="fill:#1b0907;fill-opacity:1;stroke-width:0.601179;stroke-linecap:round"
         d="m 163.17311,71.187901 c -0.15274,-0.0964 -4.23146,-0.718948 -5.70646,-0.668568 -1.475,0.05038 -4.67245,0.3905 -4.86393,0.582252 0.41773,0.06944 3.56333,0.60857 5.03833,0.558194 1.47501,-0.05038 5.32877,-0.357343 5.53206,-0.471878 z"
         sodipodi:nodetypes="cscsc" /><path
         id="path39"
         style="fill:#1b0907;fill-opacity:1;stroke-width:1.01568;stroke-linecap:round"
         d="m 165.90965,67.793858 c -0.28877,-0.141413 -8.32198,-1.128626 -11.27256,-1.091947 -2.95058,0.03667 -9.38487,0.446149 -9.7985,0.715565 0.8218,0.109222 7.00747,0.954912 9.95805,0.918228 2.95058,-0.03667 10.68858,-0.383057 11.11301,-0.541846 z"
         sodipodi:nodetypes="cscsc" /></g><path
       id="path6"
       style="fill:#572918;fill-opacity:1;stroke:#1b0907;stroke-width:2.49087;stroke-linecap:round;stroke-opacity:1"
       d="m 92.47283,70.369313 -8.573819,-0.612542 3.67531,22.100585 10.337968,-0.153135 z"
       sodipodi:nodetypes="ccccc" /><path
       id="path5"
       style="fill:#572918;fill-opacity:1;stroke:#1b0907;stroke-width:2.49087;stroke-linecap:round;stroke-opacity:1"
       d="m 33.831165,71.269313 -8.573819,-0.612542 3.67531,22.100585 10.337968,-0.153135 z"
       sodipodi:nodetypes="ccccc" /><path
       id="path2"
       style="fill:#572918;fill-opacity:1;stroke:#1b0907;stroke-width:3.52162;stroke-linecap:round;stroke-opacity:1"
       d="M 72.260273,68.465929 84.631894,67.617401 79.328593,98.232379 64.411388,98.020247 Z"
       sodipodi:nodetypes="ccccc" /><path
       id="rect2"
       style="fill:#572918;fill-opacity:1;stroke:#1b0907;stroke-width:3.52162;stroke-linecap:round;stroke-opacity:1"
       d="M 12.286584,68.165929 24.658205,67.317401 19.354904,97.932379 4.4376991,97.720247 Z"
       sodipodi:nodetypes="ccccc" /><path
       id="rect1"
       style="fill:#572918;stroke:#1b0907;stroke-width:4.87416;stroke-linecap:round"
       d="M 4.0252175,62.617054 H 95.788622 L 93.773368,79.591962 8.3752174,79.204094 Z"
       sodipodi:nodetypes="ccccc" /><rect
       style="fill:#1b0907;fill-opacity:1;stroke:none;stroke-width:2.08918;stroke-linecap:round;stroke-dasharray:none;stroke-opacity:1"
       id="rect32"
       width="48.375481"
       height="4.0296769"
       x="7.7939305"
       y="60.291523"
       ry="2.0148385" /><g
       id="g27"
       transform="translate(-108.71896,2.6698484)"><path
         id="path1"
         style="fill:#1b0907;fill-opacity:1;stroke-width:0.930025;stroke-linecap:round"
         d="m 157.1267,73.43786 c -0.21415,-0.165272 -6.0962,-1.37321 -8.24639,-1.357567 -2.15019,0.01565 -6.83061,0.428786 -7.12523,0.734997 0.60193,0.133038 5.13338,1.161546 7.28357,1.145899 2.1502,-0.01564 7.78271,-0.344474 8.08805,-0.523329 z"
         sodipodi:nodetypes="cscsc" /><path
         id="path3"
         style="fill:#783821;fill-opacity:1;stroke-width:0.769433;stroke-linecap:round"
         d="m 125.9184,73.099054 c 0.20547,-0.106203 5.86414,-0.654335 7.93478,-0.529611 2.07064,0.124724 6.57964,0.665757 6.86477,0.899051 -0.57904,0.06279 -4.93794,0.554698 -7.00859,0.429974 -2.07064,-0.124724 -7.4961,-0.65611 -7.79096,-0.799414 z"
         sodipodi:nodetypes="cscsc" /><path
         id="path4"
         style="fill:#1b0907;fill-opacity:1;stroke-width:0.601179;stroke-linecap:round"
         d="m 132.45667,70.485402 c 0.14069,-0.0963 4.1417,-0.716064 5.62306,-0.664668 1.48137,0.0514 4.72151,0.393731 4.93699,0.585622 -0.40906,0.06916 -3.48736,0.606145 -4.96872,0.554749 -1.48137,-0.0514 -5.3737,-0.361022 -5.59133,-0.475703 z"
         sodipodi:nodetypes="cscsc" /><path
         id="path8"
         style="fill:#1b0907;fill-opacity:1;stroke-width:0.930025;stroke-linecap:round"
         d="m 128.14707,69.201658 c 0.21095,-0.157261 6.07114,-1.143976 8.22246,-1.047293 2.15131,0.0967 6.84171,0.686368 7.14254,1.00379 -0.59952,0.110408 -5.11218,0.968525 -7.26349,0.871837 -2.15132,-0.09667 -7.79249,-0.637912 -8.10151,-0.828334 z"
         sodipodi:nodetypes="cscsc" /><path
         id="path16"
         style="fill:#1b0907;fill-opacity:1;stroke-width:0.717044;stroke-linecap:round"
         d="m 116.24256,63.506492 c 0.23499,-0.07809 6.97887,-0.5143 9.48386,-0.439283 2.505,0.07502 7.9907,0.432721 8.36038,0.598937 -0.68932,0.04947 -5.8762,0.435747 -8.38119,0.36073 -2.505,-0.07502 -9.09197,-0.419147 -9.46305,-0.520384 z"
         sodipodi:nodetypes="cscsc" /><path
         id="path20"
         style="fill:#783821;fill-opacity:1;stroke-width:0.717044;stroke-linecap:round"
         d="m 119.69295,65.672051 c 0.23499,-0.07808 6.97887,-0.514296 9.48387,-0.439279 2.505,0.07502 7.99069,0.432722 8.36037,0.598937 -0.68932,0.04947 -5.87619,0.435747 -8.38119,0.360729 -2.50499,-0.07502 -9.09196,-0.419151 -9.46305,-0.520387 z"
         sodipodi:nodetypes="cscsc" /><path
         id="path21"
         style="fill:#1b0907;fill-opacity:1;stroke-width:0.793994;stroke-linecap:round"
         d="m 138.17793,63.914158 c 0.18664,-0.126821 5.51302,-0.960024 7.48755,-0.900893 1.97452,0.05913 6.29533,0.489406 6.58414,0.739391 -0.54451,0.09277 -4.642,0.812553 -6.61652,0.753421 -1.97453,-0.05913 -7.16417,-0.443012 -7.45517,-0.591919 z"
         sodipodi:nodetypes="cscsc" /><path
         id="path22"
         style="fill:#1b0907;fill-opacity:1;stroke-width:0.513247;stroke-linecap:round"
         d="m 136.37567,62.917781 c 0.12878,-0.07602 3.79667,-0.553865 5.15545,-0.507585 1.35878,0.04628 4.3314,0.330226 4.52953,0.483514 -0.37498,0.05346 -3.19683,0.468913 -4.5556,0.422632 -1.35878,-0.04628 -4.92947,-0.306625 -5.12938,-0.398561 z"
         sodipodi:nodetypes="cscsc" /><path
         id="path23"
         style="fill:#783821;fill-opacity:1;stroke-width:0.488799;stroke-linecap:round"
         d="m 125.22002,71.483228 c 0.1243,-0.07146 3.67716,-0.528757 4.99503,-0.48929 1.31786,0.03947 4.20237,0.296696 4.39565,0.439523 -0.36319,0.05106 -3.09618,0.447602 -4.41404,0.408136 -1.31787,-0.03947 -4.78211,-0.272939 -4.97664,-0.358369 z"
         sodipodi:nodetypes="cscsc" /><path
         id="path24"
         style="fill:#1b0907;fill-opacity:1;stroke-width:0.601179;stroke-linecap:round"
         d="m 163.17311,71.187901 c -0.15274,-0.0964 -4.23146,-0.718948 -5.70646,-0.668568 -1.475,0.05038 -4.67245,0.3905 -4.86393,0.582252 0.41773,0.06944 3.56333,0.60857 5.03833,0.558194 1.47501,-0.05038 5.32877,-0.357343 5.53206,-0.471878 z"
         sodipodi:nodetypes="cscsc" /><path
         id="path25"
         style="fill:#1b0907;fill-opacity:1;stroke-width:1.01568;stroke-linecap:round"
         d="m 165.90965,67.793858 c -0.28877,-0.141413 -8.32198,-1.128626 -11.27256,-1.091947 -2.95058,0.03667 -9.38487,0.446149 -9.7985,0.715565 0.8218,0.109222 7.00747,0.954912 9.95805,0.918228 2.95058,-0.03667 10.68858,-0.383057 11.11301,-0.541846 z"
         sodipodi:nodetypes="cscsc" /></g><g
       id="g37"
       transform="translate(-70.01896,2.5198484)"><path
         id="path27"
         style="fill:#1b0907;fill-opacity:1;stroke-width:0.930025;stroke-linecap:round"
         d="m 157.1267,73.43786 c -0.21415,-0.165272 -6.0962,-1.37321 -8.24639,-1.357567 -2.15019,0.01565 -6.83061,0.428786 -7.12523,0.734997 0.60193,0.133038 5.13338,1.161546 7.28357,1.145899 2.1502,-0.01564 7.78271,-0.344474 8.08805,-0.523329 z"
         sodipodi:nodetypes="cscsc" /><path
         id="path28"
         style="fill:#783821;fill-opacity:1;stroke-width:0.769433;stroke-linecap:round"
         d="m 125.9184,73.099054 c 0.20547,-0.106203 5.86414,-0.654335 7.93478,-0.529611 2.07064,0.124724 6.57964,0.665757 6.86477,0.899051 -0.57904,0.06279 -4.93794,0.554698 -7.00859,0.429974 -2.07064,-0.124724 -7.4961,-0.65611 -7.79096,-0.799414 z"
         sodipodi:nodetypes="cscsc" /><path
         id="path29"
         style="fill:#1b0907;fill-opacity:1;stroke-width:0.601179;stroke-linecap:round"
         d="m 132.45667,70.485402 c 0.14069,-0.0963 4.1417,-0.716064 5.62306,-0.664668 1.48137,0.0514 4.72151,0.393731 4.93699,0.585622 -0.40906,0.06916 -3.48736,0.606145 -4.96872,0.554749 -1.48137,-0.0514 -5.3737,-0.361022 -5.59133,-0.475703 z"
         sodipodi:nodetypes="cscsc" /><path
         id="path30"
         style="fill:#1b0907;fill-opacity:1;stroke-width:0.930025;stroke-linecap:round"
         d="m 128.14707,69.201658 c 0.21095,-0.157261 6.07114,-1.143976 8.22246,-1.047293 2.15131,0.0967 6.84171,0.686368 7.14254,1.00379 -0.59952,0.110408 -5.11218,0.968525 -7.26349,0.871837 -2.15132,-0.09667 -7.79249,-0.637912 -8.10151,-0.828334 z"
         sodipodi:nodetypes="cscsc" /><path
         id="path31"
         style="fill:#1b0907;fill-opacity:1;stroke-width:0.717044;stroke-linecap:round"
         d="m 116.24256,63.506492 c 0.23499,-0.07809 6.97887,-0.5143 9.48386,-0.439283 2.505,0.07502 7.9907,0.432721 8.36038,0.598937 -0.68932,0.04947 -5.8762,0.435747 -8.38119,0.36073 -2.505,-0.07502 -9.09197,-0.419147 -9.46305,-0.520384 z"
         sodipodi:nodetypes="cscsc" /><path
         id="path32"
         style="fill:#783821;fill-opacity:1;stroke-width:0.717044;stroke-linecap:round"
         d="m 119.69295,65.672051 c 0.23499,-0.07808 6.97887,-0.514296 9.48387,-0.439279 2.505,0.07502 7.99069,0.432722 8.36037,0.598937 -0.68932,0.04947 -5.87619,0.435747 -8.38119,0.360729 -2.50499,-0.07502 -9.09196,-0.419151 -9.46305,-0.520387 z"
         sodipodi:nodetypes="cscsc" /><path
         id="path33"
         style="fill:#1b0907;fill-opacity:1;stroke-width:0.793994;stroke-linecap:round"
         d="m 138.17793,63.914158 c 0.18664,-0.126821 5.51302,-0.960024 7.48755,-0.900893 1.97452,0.05913 6.29533,0.489406 6.58414,0.739391 -0.54451,0.09277 -4.642,0.812553 -6.61652,0.753421 -1.97453,-0.05913 -7.16417,-0.443012 -7.45517,-0.591919 z"
         sodipodi:nodetypes="cscsc" /><path
         id="path34"
         style="fill:#1b0907;fill-opacity:1;stroke-width:0.513247;stroke-linecap:round"
         d="m 136.37567,62.917781 c 0.12878,-0.07602 3.79667,-0.553865 5.15545,-0.507585 1.35878,0.04628 4.3314,0.330226 4.52953,0.483514 -0.37498,0.05346 -3.19683,0.468913 -4.5556,0.422632 -1.35878,-0.04628 -4.92947,-0.306625 -5.12938,-0.398561 z"
         sodipodi:nodetypes="cscsc" /><path
         id="path35"
         style="fill:#783821;fill-opacity:1;stroke-width:0.488799;stroke-linecap:round"
         d="m 125.22002,71.483228 c 0.1243,-0.07146 3.67716,-0.528757 4.99503,-0.48929 1.31786,0.03947 4.20237,0.296696 4.39565,0.439523 -0.36319,0.05106 -3.09618,0.447602 -4.41404,0.408136 -1.31787,-0.03947 -4.78211,-0.272939 -4.97664,-0.358369 z"
         sodipodi:nodetypes="cscsc" /><path
         id="path36"
         style="fill:#1b0907;fill-opacity:1;stroke-width:0.601179;stroke-linecap:round"
         d="m 163.17311,71.187901 c -0.15274,-0.0964 -4.23146,-0.718948 -5.70646,-0.668568 -1.475,0.05038 -4.67245,0.3905 -4.86393,0.582252 0.41773,0.06944 3.56333,0.60857 5.03833,0.558194 1.47501,-0.05038 5.32877,-0.357343 5.53206,-0.471878 z"
         sodipodi:nodetypes="cscsc" /><path
         id="path37"
         style="fill:#1b0907;fill-opacity:1;stroke-width:1.01568;stroke-linecap:round"
         d="m 165.90965,67.793858 c -0.28877,-0.141413 -8.32198,-1.128626 -11.27256,-1.091947 -2.95058,0.03667 -9.38487,0.446149 -9.7985,0.715565 0.8218,0.109222 7.00747,0.954912 9.95805,0.918228 2.95058,-0.03667 10.68858,-0.383057 11.11301,-0.541846 z"
         sodipodi:nodetypes="cscsc" /></g><path
       id="path11"
       style="fill:#3a1b10;fill-opacity:1;stroke-width:1.07234;stroke-linecap:round"
       d="m 324.71495,-42.229491 c -0.20434,0.216776 -6.08326,1.811811 -8.2689,1.796641 -2.18565,-0.01517 -6.97358,-0.544206 -7.2974,-0.944136 0.60087,-0.175563 5.12207,-1.532486 7.30771,-1.517317 2.18565,0.01517 7.93407,0.431544 8.25859,0.664812 z"
       sodipodi:nodetypes="cscsc" /><path
       id="path12"
       style="fill:#3a1b10;fill-opacity:1;stroke-width:0.838771;stroke-linecap:round"
       d="m 342.32191,-40.985971 c -0.20434,0.132627 -6.08326,1.108494 -8.2689,1.099213 -2.18565,-0.0093 -6.97358,-0.332953 -7.2974,-0.577637 0.60087,-0.107418 5.12207,-0.937599 7.30771,-0.928318 2.18565,0.0093 7.93407,0.264024 8.25859,0.406742 z"
       sodipodi:nodetypes="cscsc" /><rect
       style="fill:#ffffff;fill-opacity:1;stroke:#504e4c;stroke-width:4.09597;stroke-linecap:round;stroke-dasharray:none;stroke-opacity:1"
       id="rect3"
       width="46.623055"
       height="12.092909"
       x="8.9974804"
       y="43.343323"
       ry="6.0464544" /><g
       id="g45"
       transform="matrix(0.0286801,-0.95310734,0.83107344,0.03289145,3.3182766,-27.126804)"><path
         id="path41"
         style="fill:#0053ce;fill-opacity:1;stroke:#110077;stroke-width:2.98049;stroke-miterlimit:4;stroke-dasharray:none;stroke-opacity:1"
         d="m -59.371187,61.268609 c 1.334631,0.165249 2.474328,0.827702 2.891683,1.802047 l 5.748859,13.421504 c 0.333402,0.530796 0.330135,1.08651 0.500126,1.640501 l 1.448742,14.184443 c -0.5313,1.813435 -2.830071,3.299896 -4.842848,3.236489 -2.148261,-0.0076 -4.590325,-0.943197 -4.471876,-3.54461 l -1.331928,-13.043956 c -2.079038,-4.552659 -3.99788,-9.210642 -5.973006,-13.820728 -0.607052,-1.417217 0.55048,-2.940516 2.59307,-3.415494 l 1.546087,-0.360423 c 0.638317,-0.148442 1.284396,-0.174716 1.89106,-0.09973 z"
         sodipodi:nodetypes="ccccccccccccc" /><path
         id="path42"
         style="fill:#002766;fill-opacity:1;stroke-width:2.05487"
         d="m -59.258397,76.514612 -2.858479,-6.551046 0.773917,-7.693405 7.179594,15.457735 z"
         sodipodi:nodetypes="ccccc" /><path
         id="path43"
         style="fill:#002766;fill-opacity:1;stroke-width:2.05487"
         d="m -59.635903,75.550335 1.318543,3.626577 1.517905,13.488679 2.649379,-15.096127 z"
         sodipodi:nodetypes="ccccc" /><rect
         style="fill:#0053ce;fill-opacity:1;stroke:#110077;stroke-width:2.02619;stroke-opacity:1"
         id="rect2199"
         width="10.711306"
         height="24.913012"
         x="-84.541901"
         y="88.957893"
         ry="4.3837142" /><rect
         style="fill:#0053ce;fill-opacity:1;stroke:#110077;stroke-width:2.05902;stroke-opacity:1"
         id="rect2303"
         width="11.192314"
         height="24.620983"
         x="-71.017769"
         y="89.042526"
         ry="4.3323288" /><path
         id="rect9714"
         style="fill:#0053ce;fill-opacity:1;stroke:#110077;stroke-width:2.98049;stroke-miterlimit:4;stroke-dasharray:none;stroke-opacity:1"
         d="m -86.436716,61.692873 c -1.334631,0.165249 -2.474328,0.827702 -2.891683,1.802047 l -5.748859,13.421504 c -0.333402,0.530796 -0.330135,1.08651 -0.500126,1.640501 l -1.448742,14.184443 c 0.5313,1.813435 2.830071,3.299896 4.842848,3.236489 2.148261,-0.0076 4.590325,-0.943197 4.471876,-3.54461 l 1.331928,-13.043956 c 2.079038,-4.552659 3.99788,-9.210642 5.973006,-13.820728 0.607052,-1.417217 -0.55048,-2.940516 -2.59307,-3.415494 l -1.546087,-0.360423 c -0.638317,-0.148442 -1.284396,-0.174716 -1.89106,-0.09973 z"
         sodipodi:nodetypes="ccccccccccccc" /><path
         id="path13-6"
         style="fill:#002766;fill-opacity:1;stroke-width:2.05487"
         d="m -86.549506,76.938876 2.858479,-6.551046 -0.773917,-7.693405 -7.179594,15.457735 z"
         sodipodi:nodetypes="ccccc" /><path
         id="rect10"
         style="fill:#002766;stroke-width:1.6641"
         d="m -80.608442,92.392691 h 2.643941 c 1.77904,0 3.211265,1.559489 3.211265,3.496613 v 12.878316 c 0,1.93712 -1.279125,2.11065 -3.021471,2.50207 l -3.047253,0.68455 c -1.742345,0.39142 -2.997747,-1.2495 -2.997747,-3.18662 V 95.889304 c 0,-1.937124 1.432224,-3.496613 3.211265,-3.496613 z"
         sodipodi:nodetypes="sssssssss" /><path
         id="path10-2"
         style="fill:#002766;stroke-width:1.68643"
         d="m -66.80542,92.70268 h 2.715365 c 1.827104,0 3.298019,1.559488 3.298019,3.496613 v 12.878317 c 0,1.93712 -1.313679,2.11065 -3.103098,2.50207 l -3.129575,0.68455 c -1.789415,0.39142 -3.07873,-1.2495 -3.07873,-3.18662 V 96.199293 c 0,-1.937125 1.470915,-3.496613 3.298019,-3.496613 z"
         sodipodi:nodetypes="sssssssss" /><path
         id="rect9738"
         style="fill:#313131;fill-opacity:1;stroke:#000000;stroke-width:1.97846;stroke-miterlimit:4;stroke-dasharray:none;stroke-opacity:1"
         d="m -84.986507,62.467513 -0.738817,44.211457 c 0,0 2.574097,2.7446 4.234677,2.85538 4.163352,0.27772 10.670235,-6.03098 10.670235,-6.03098 0,0 3.145744,5.69926 5.847406,5.97792 2.554861,0.2635 6.463375,-4.41608 6.463375,-4.41608 -1.246286,-14.069698 -1.071908,-27.39023 -0.87335,-40.698014 z"
         sodipodi:nodetypes="ccscsccc" /><path
         id="rect9"
         style="fill:#101010;fill-opacity:1;stroke-width:2.22834"
         d="m -80.972424,74.054243 8.799545,-0.560797 -1.61604,28.110544 c -0.117566,2.04491 -5.964715,1.96837 -8.963215,-0.58698 z"
         sodipodi:nodetypes="ccscc" /><path
         id="path34-9"
         style="fill:#101010;fill-opacity:1;stroke:none;stroke-width:1.52128;stroke-dasharray:none;stroke-opacity:1"
         d="m -84.863114,106.3449 2.936918,2.2064 4.906868,-43.257995 -7.698416,-1.301185 z"
         sodipodi:nodetypes="ccccc" /><path
         id="path9-1"
         style="fill:#101010;fill-opacity:1;stroke:none;stroke-width:1.93481;stroke-dasharray:none"
         d="m -60.411252,70.247015 c -0.0292,6.330675 -4.635513,7.395242 -12.010699,6.84676 -6.962651,-0.5178 -10.771341,-3.195484 -11.770515,-6.82649 -1.735565,-6.307059 4.790579,-6.524134 11.770515,-6.524134 6.979948,0 12.042263,-0.305098 12.010699,6.503864 z"
         sodipodi:nodetypes="sssss" /><g
         id="g15"
         transform="matrix(3.5816158,0.43452554,-0.41200242,3.7774136,-109.06042,10.897003)"><path
           id="rect2-2"
           style="fill:#800000;fill-opacity:1;stroke:#330000;stroke-width:0.428;stroke-dasharray:none;stroke-opacity:1"
           d="m 9.4570037,14.797702 h 1.7663953 l 0.652207,7.255805 -2.9621083,-0.02717 z"
           sodipodi:nodetypes="ccccc" /><path
           id="path35-7"
           style="fill:#ff0000;fill-opacity:1;stroke:none;stroke-width:0.428;stroke-dasharray:none;stroke-opacity:1"
           d="m 9.7068097,14.095592 0.7095243,-0.01922 0.0373,6.083639 -1.2903304,1.164212 z"
           sodipodi:nodetypes="ccccc" /></g><path
         id="ellipse1"
         style="fill:#ff0000;stroke:#4e0600;stroke-width:2.15113;stroke-dasharray:none"
         d="m -59.018131,66.085276 c -1.013688,4.085692 -5.448728,7.041174 -13.134483,7.041174 -7.685746,0 -11.860532,-3.587265 -12.960741,-7.663447 -1.911063,-7.080326 5.274998,-7.324017 12.960741,-7.324017 7.685755,0 15.045549,0.243691 13.134483,7.94629 z"
         sodipodi:nodetypes="sssss" /><path
         id="path6-9"
         style="fill:#690006;fill-opacity:1;stroke:none;stroke-width:1.56552;stroke-dasharray:none"
         d="m -66.429556,65.637317 c -0.694127,3.160195 -3.731036,5.446197 -8.99389,5.446197 -5.262839,0 -8.121543,-2.774673 -8.874915,-5.927511 -1.308607,-5.476479 3.612076,-5.664975 8.874915,-5.664975 5.262854,0 10.302496,0.188481 8.99389,6.146289 z"
         sodipodi:nodetypes="sssss" /><path
         id="path2-3"
         style="fill:#ff2c2a;fill-opacity:1;stroke:none;stroke-width:1.46565;stroke-dasharray:none"
         d="m -60.122916,65.013085 c -0.686238,2.80167 -3.688642,4.828328 -8.891698,4.828328 -5.203043,0 -8.029266,-2.459887 -8.774078,-5.255036 -1.293739,-4.855172 3.571035,-5.022284 8.774078,-5.022284 5.203056,0 10.185437,0.167112 8.891698,5.448992 z"
         sodipodi:nodetypes="sssss" /><ellipse
         style="fill:#0053ce;fill-opacity:1;stroke:#110077;stroke-width:1.11267;stroke-miterlimit:4;stroke-dasharray:none;stroke-opacity:1"
         id="path11105"
         cx="-71.899055"
         cy="60.858307"
         rx="8.9145126"
         ry="7.2919149" /><path
         id="ellipse2"
         style="fill:#002766;stroke-width:0.984375"
         d="m -63.234612,59.417335 c 0.301614,4.911332 -5.597729,6.11546 -10.712753,6.634104 -4.651562,0.471648 -6.45218,-2.619071 -6.45218,-5.939986 0,-3.320916 3.857499,-6.159183 8.530508,-6.159183 4.673008,0 8.43092,2.151092 8.634425,5.465065 z"
         sodipodi:nodetypes="sssss" /><path
         id="rect8"
         style="fill:#002766;fill-opacity:1;stroke-width:2.05487"
         d="m -86.172,75.974599 -1.318543,3.626577 -1.517905,13.488679 -2.649379,-15.096127 z"
         sodipodi:nodetypes="ccccc" /><ellipse
         style="fill:#002766;fill-opacity:1;stroke:#110077;stroke-width:3.2952;stroke-miterlimit:4;stroke-dasharray:none;stroke-opacity:1"
         id="path9279"
         cx="-71.591866"
         cy="38.979645"
         rx="21.598875"
         ry="22.636869" /><ellipse
         style="fill:#0053ce;fill-opacity:1;stroke:none;stroke-width:1.05919;stroke-miterlimit:4;stroke-dasharray:none;stroke-opacity:1"
         id="ellipse9379"
         cx="-69.318466"
         cy="36.681229"
         rx="17.097099"
         ry="18.334259" /><ellipse
         style="fill:#1e78ff;fill-opacity:1;stroke:none;stroke-width:2.15278;stroke-dasharray:none;stroke-opacity:1"
         id="path11-8"
         cx="-67.216331"
         cy="-23.717701"
         rx="7.7758842"
         ry="10.454595"
         transform="matrix(0.69662298,-0.7174374,0.66283148,0.74876861,0,0)" /><path
         id="path9421"
         style="fill:#0053ce;fill-opacity:1;stroke:#002865;stroke-width:1.82159;stroke-miterlimit:4;stroke-dasharray:none;stroke-opacity:1"
         d="m -81.713534,34.41899 c -0.704393,1.539041 -1.080216,3.346511 -1.080235,5.195236 3.14e-4,5.178515 2.887354,9.376307 6.448618,9.376368 3.561264,-6.2e-5 6.448303,-4.197853 6.448617,-9.376368 -1.8e-5,-1.848725 -0.375842,-3.656195 -1.080233,-5.195236 -3.74241,-0.869935 -7.341151,-1.004552 -10.736767,0 z"
         sodipodi:nodetypes="cccccc" /><path
         id="path3-9"
         style="fill:#0053ce;fill-opacity:1;stroke:#002865;stroke-width:1.82159;stroke-miterlimit:4;stroke-dasharray:none;stroke-opacity:1"
         d="m -66.291718,34.114882 c -0.70439,1.539041 -1.080214,3.346511 -1.080232,5.195236 3.13e-4,5.178514 2.887353,9.376305 6.448615,9.376368 3.561261,-6.3e-5 6.448301,-4.197854 6.448615,-9.376368 -1.9e-5,-1.848725 -0.375843,-3.656195 -1.080233,-5.195236 -6.527419,-1.762155 -7.817065,-0.393982 -10.736765,0 z"
         sodipodi:nodetypes="cccccc" /><path
         style="fill:#002766;fill-opacity:1;stroke:#002865;stroke-width:2.18678;stroke-linecap:round;stroke-linejoin:round;stroke-dasharray:none;stroke-opacity:1"
         d="m -82.003844,40.820602 c 4.016175,0.902989 7.891729,1.243492 11.484757,0.453891"
         id="path44"
         sodipodi:nodetypes="cc" /><path
         style="fill:#002766;fill-opacity:1;stroke:#002865;stroke-width:2.18678;stroke-linecap:round;stroke-linejoin:round;stroke-dasharray:none;stroke-opacity:1"
         d="m -66.836404,40.237239 c 4.016175,0.902989 7.891729,1.243492 11.484757,0.453891"
         id="path45"
         sodipodi:nodetypes="cc" /></g><rect
       style="fill:#f794fb;fill-opacity:1;stroke:#f026f7;stroke-width:5.27382;stroke-linecap:round;stroke-dasharray:none;stroke-opacity:1"
       id="rect5"
       width="87.841331"
       height="10.640728"
       x="8.1044226"
       y="56.628796"
       ry="5.320364"
       transform="matrix(0.99995041,-0.00995872,0.02407231,0.99971022,0,0)" /><g
       id="g47"><rect
         style="fill:none;fill-opacity:1;stroke:#ffffff;stroke-width:2.21641;stroke-linecap:round;stroke-linejoin:round;stroke-dasharray:none;stroke-opacity:1"
         id="rect45"
         width="6.1518288"
         height="1.2727921"
         x="71.27636"
         y="18.667618" /><rect
         style="fill:none;fill-opacity:1;stroke:#ffffff;stroke-width:2.21641;stroke-linecap:round;stroke-linejoin:round;stroke-dasharray:none;stroke-opacity:1"
         id="rect46"
         width="6.1518288"
         height="1.2727921"
         x="71.70063"
         y="24.713379" /><rect
         style="fill:none;fill-opacity:1;stroke:#ffffff;stroke-width:2.21641;stroke-linecap:round;stroke-linejoin:round;stroke-dasharray:none;stroke-opacity:1"
         id="rect47"
         width="6.1518288"
         height="1.2727921"
         x="29.507765"
         y="70.033829"
         transform="rotate(-48.615229)" /></g><g
       id="g50"
       transform="matrix(1.4700771,0,0,1.3789103,-24.126218,-18.058866)"><rect
         style="fill:none;fill-opacity:1;stroke:#ffffff;stroke-width:2.21641;stroke-linecap:round;stroke-linejoin:round;stroke-dasharray:none;stroke-opacity:1"
         id="rect48"
         width="6.1518288"
         height="1.2727921"
         x="71.27636"
         y="18.667618" /><rect
         style="fill:none;fill-opacity:1;stroke:#ffffff;stroke-width:2.21641;stroke-linecap:round;stroke-linejoin:round;stroke-dasharray:none;stroke-opacity:1"
         id="rect49"
         width="6.1518288"
         height="1.2727921"
         x="71.70063"
         y="24.713379" /><rect
         style="fill:none;fill-opacity:1;stroke:#ffffff;stroke-width:2.21641;stroke-linecap:round;stroke-linejoin:round;stroke-dasharray:none;stroke-opacity:1"
         id="rect50"
         width="6.1518288"
         height="1.2727921"
         x="29.507765"
         y="70.033829"
         transform="rotate(-48.615229)" /></g></g></svg>
