<?xml version="1.0" encoding="UTF-8" standalone="no"?>
<!-- Created with Inkscape (http://www.inkscape.org/) -->

<svg
   width="377.95276"
   height="377.95276"
   viewBox="0 0 100 100"
   version="1.1"
   id="svg1"
   inkscape:version="1.4.2 (ebf0e940d0, 2025-05-08)"
   sodipodi:docname="door.svg"
   xml:space="preserve"
   xmlns:inkscape="http://www.inkscape.org/namespaces/inkscape"
   xmlns:sodipodi="http://sodipodi.sourceforge.net/DTD/sodipodi-0.dtd"
   xmlns="http://www.w3.org/2000/svg"
   xmlns:svg="http://www.w3.org/2000/svg"><sodipodi:namedview
     id="namedview1"
     pagecolor="#505050"
     bordercolor="#eeeeee"
     borderopacity="1"
     inkscape:showpageshadow="0"
     inkscape:pageopacity="0"
     inkscape:pagecheckerboard="0"
     inkscape:deskcolor="#505050"
     inkscape:document-units="px"
     inkscape:zoom="0.88194445"
     inkscape:cx="149.10236"
     inkscape:cy="226.20472"
     inkscape:window-width="1366"
     inkscape:window-height="697"
     inkscape:window-x="0"
     inkscape:window-y="0"
     inkscape:window-maximized="1"
     inkscape:current-layer="layer1" /><defs
     id="defs1"><linearGradient
       id="linearGradient13895"
       inkscape:swatch="solid"><stop
         style="stop-color:#000000;stop-opacity:1;"
         offset="0"
         id="stop13893" /></linearGradient><filter
       style="color-interpolation-filters:sRGB;"
       inkscape:label="Clean Edges"
       id="filter14269"
       x="-0.31154084"
       y="-0.29580634"
       width="1.6230817"
       height="1.5916127"><feGaussianBlur
         stdDeviation="0.204612"
         result="blur"
         id="feGaussianBlur14263" /><feComposite
         in="SourceGraphic"
         in2="blur"
         operator="in"
         result="composite1"
         id="feComposite14265" /><feComposite
         in="composite1"
         in2="composite1"
         operator="in"
         result="composite2"
         id="feComposite14267" /></filter><inkscape:path-effect
       effect="fillet_chamfer"
       id="path-effect68"
       is_visible="true"
       lpeversion="1"
       nodesatellites_param="F,0,0,1,0,0,0,1 @ F,0,0,1,0,0,0,1 @ F,0,0,1,0,0,0,1 @ F,0,0,1,0,0,0,1 @ F,0,0,1,0,0,0,1 @ F,0,0,1,0,0,0,1 @ F,0,0,1,0,0,0,1 @ F,0,0,1,0,0,0,1 @ F,0,0,1,0,0,0,1"
       radius="0"
       unit="px"
       method="auto"
       mode="F"
       chamfer_steps="1"
       flexible="false"
       use_knot_distance="true"
       apply_no_radius="true"
       apply_with_radius="true"
       only_selected="false"
       hide_knots="false" /><inkscape:path-effect
       effect="fillet_chamfer"
       id="path-effect66"
       is_visible="true"
       lpeversion="1"
       nodesatellites_param="F,0,0,1,0,0,0,1 @ F,0,0,1,0,0.44929322,0,1 @ F,0,0,1,0,0.44929322,0,1 @ F,0,0,1,0,0,0,1 @ F,0,0,1,0,0,0,1 @ F,0,0,1,0,0,0,1 @ F,0,0,1,0,0,0,1 @ F,0,0,1,0,0,0,1 @ F,0,0,1,0,0,0,1 @ F,0,0,1,0,0,0,1"
       radius="0"
       unit="px"
       method="auto"
       mode="F"
       chamfer_steps="1"
       flexible="false"
       use_knot_distance="true"
       apply_no_radius="true"
       apply_with_radius="true"
       only_selected="false"
       hide_knots="false" /><inkscape:path-effect
       effect="fillet_chamfer"
       id="path-effect68-6"
       is_visible="true"
       lpeversion="1"
       nodesatellites_param="F,0,0,1,0,0,0,1 @ F,0,0,1,0,0,0,1 @ F,0,0,1,0,0,0,1 @ F,0,0,1,0,0,0,1 @ F,0,0,1,0,0,0,1 @ F,0,0,1,0,0,0,1 @ F,0,0,1,0,0,0,1 @ F,0,0,1,0,0,0,1 @ F,0,0,1,0,0,0,1"
       radius="0"
       unit="px"
       method="auto"
       mode="F"
       chamfer_steps="1"
       flexible="false"
       use_knot_distance="true"
       apply_no_radius="true"
       apply_with_radius="true"
       only_selected="false"
       hide_knots="false" /><inkscape:path-effect
       effect="fillet_chamfer"
       id="path-effect66-7"
       is_visible="true"
       lpeversion="1"
       nodesatellites_param="F,0,0,1,0,0,0,1 @ F,0,0,1,0,0.44929322,0,1 @ F,0,0,1,0,0.44929322,0,1 @ F,0,0,1,0,0,0,1 @ F,0,0,1,0,0,0,1 @ F,0,0,1,0,0,0,1 @ F,0,0,1,0,0,0,1 @ F,0,0,1,0,0,0,1 @ F,0,0,1,0,0,0,1 @ F,0,0,1,0,0,0,1"
       radius="0"
       unit="px"
       method="auto"
       mode="F"
       chamfer_steps="1"
       flexible="false"
       use_knot_distance="true"
       apply_no_radius="true"
       apply_with_radius="true"
       only_selected="false"
       hide_knots="false" /><inkscape:path-effect
       effect="fillet_chamfer"
       id="path-effect68-7"
       is_visible="true"
       lpeversion="1"
       nodesatellites_param="F,0,0,1,0,0,0,1 @ F,0,0,1,0,0,0,1 @ F,0,0,1,0,0,0,1 @ F,0,0,1,0,0,0,1 @ F,0,0,1,0,0,0,1 @ F,0,0,1,0,0,0,1 @ F,0,0,1,0,0,0,1 @ F,0,0,1,0,0,0,1 @ F,0,0,1,0,0,0,1"
       radius="0"
       unit="px"
       method="auto"
       mode="F"
       chamfer_steps="1"
       flexible="false"
       use_knot_distance="true"
       apply_no_radius="true"
       apply_with_radius="true"
       only_selected="false"
       hide_knots="false" /><inkscape:path-effect
       effect="fillet_chamfer"
       id="path-effect66-5"
       is_visible="true"
       lpeversion="1"
       nodesatellites_param="F,0,0,1,0,0,0,1 @ F,0,0,1,0,0.44929322,0,1 @ F,0,0,1,0,0.44929322,0,1 @ F,0,0,1,0,0,0,1 @ F,0,0,1,0,0,0,1 @ F,0,0,1,0,0,0,1 @ F,0,0,1,0,0,0,1 @ F,0,0,1,0,0,0,1 @ F,0,0,1,0,0,0,1 @ F,0,0,1,0,0,0,1"
       radius="0"
       unit="px"
       method="auto"
       mode="F"
       chamfer_steps="1"
       flexible="false"
       use_knot_distance="true"
       apply_no_radius="true"
       apply_with_radius="true"
       only_selected="false"
       hide_knots="false" /><inkscape:path-effect
       effect="fillet_chamfer"
       id="path-effect68-3"
       is_visible="true"
       lpeversion="1"
       nodesatellites_param="F,0,0,1,0,0,0,1 @ F,0,0,1,0,0,0,1 @ F,0,0,1,0,0,0,1 @ F,0,0,1,0,0,0,1 @ F,0,0,1,0,0,0,1 @ F,0,0,1,0,0,0,1 @ F,0,0,1,0,0,0,1 @ F,0,0,1,0,0,0,1 @ F,0,0,1,0,0,0,1"
       radius="0"
       unit="px"
       method="auto"
       mode="F"
       chamfer_steps="1"
       flexible="false"
       use_knot_distance="true"
       apply_no_radius="true"
       apply_with_radius="true"
       only_selected="false"
       hide_knots="false" /><inkscape:path-effect
       effect="fillet_chamfer"
       id="path-effect66-6"
       is_visible="true"
       lpeversion="1"
       nodesatellites_param="F,0,0,1,0,0,0,1 @ F,0,0,1,0,0.44929322,0,1 @ F,0,0,1,0,0.44929322,0,1 @ F,0,0,1,0,0,0,1 @ F,0,0,1,0,0,0,1 @ F,0,0,1,0,0,0,1 @ F,0,0,1,0,0,0,1 @ F,0,0,1,0,0,0,1 @ F,0,0,1,0,0,0,1 @ F,0,0,1,0,0,0,1"
       radius="0"
       unit="px"
       method="auto"
       mode="F"
       chamfer_steps="1"
       flexible="false"
       use_knot_distance="true"
       apply_no_radius="true"
       apply_with_radius="true"
       only_selected="false"
       hide_knots="false" /><filter
       style="color-interpolation-filters:sRGB;"
       inkscape:label="Clean Edges"
       id="filter14269-5"
       x="-0.31154084"
       y="-0.29580634"
       width="1.6230817"
       height="1.5916127"><feGaussianBlur
         stdDeviation="0.204612"
         result="blur"
         id="feGaussianBlur14263-6" /><feComposite
         in="SourceGraphic"
         in2="blur"
         operator="in"
         result="composite1"
         id="feComposite14265-2" /><feComposite
         in="composite1"
         in2="composite1"
         operator="in"
         result="composite2"
         id="feComposite14267-9" /></filter></defs><g
     inkscape:label="Camada 1"
     inkscape:groupmode="layer"
     id="layer1"><ellipse
       style="fill:#000000;fill-opacity:0.60832882;stroke:none;stroke-width:1.76265;stroke-dasharray:none;stroke-opacity:1"
       id="path28"
       cx="50.399998"
       cy="96"
       rx="47.400002"
       ry="3" /><rect
       style="fill:#3a1b10;fill-opacity:1;stroke:none;stroke-width:1.76265;stroke-dasharray:none;stroke-opacity:1"
       id="rect40"
       width="2.7"
       height="15.900001"
       x="44.760639"
       y="63.585659" /><path
       id="rect1"
       style="fill:#572918;fill-opacity:1;stroke:#1b0907;stroke-width:3.29724;stroke-dasharray:none;stroke-opacity:1"
       d="M 49.887393,2.7460854 C 36.582722,3.06559 23.468819,7.3308502 15.257982,15.541686 c -18.7128951,18.712899 0,79.392052 0,79.392052 h 34.629411 z" /><g
       id="g25"
       transform="matrix(-1.0933587,0,0,-1.0487611,62.627593,106.80298)"><path
         id="path1"
         style="fill:#3a1b10;fill-opacity:1;stroke-width:1.63354;stroke-linecap:round"
         d="m 34.126168,27.45115 c -0.304711,0.349991 -2.283815,9.846604 -2.130297,13.302175 0.153525,3.455561 1.214836,10.96422 1.819112,11.427105 0.220609,-0.972162 1.933123,-8.29164 1.779599,-11.7472 -0.153518,-3.455571 -1.107807,-12.497521 -1.468414,-12.98208 z"
         sodipodi:nodetypes="cscsc" /><path
         id="path3"
         style="fill:#783821;fill-opacity:1;stroke-width:1.35147;stroke-linecap:round"
         d="M 35.26898,77.625606 C 35.053467,77.29904 33.677028,68.222702 33.797322,64.890107 33.917616,61.557513 34.69638,54.291113 35.12749,53.824679 c 0.153709,0.928526 1.347633,7.917658 1.227338,11.250252 -0.120294,3.332595 -0.82791,12.071727 -1.085848,12.550675 z"
         sodipodi:nodetypes="cscsc" /><path
         id="path4"
         style="fill:#3a1b10;fill-opacity:1;stroke-width:1.05594;stroke-linecap:round"
         d="m 29.880077,67.207451 c -0.192805,-0.222778 -1.611415,-6.632186 -1.597924,-9.015048 0.0135,-2.382873 0.484011,-7.602844 0.839706,-7.955885 0.156154,0.65509 1.362989,5.584263 1.349498,7.967125 -0.0135,2.382874 -0.383809,8.650005 -0.59128,9.003808 z"
         sodipodi:nodetypes="cscsc" /><path
         id="path8"
         style="fill:#3a1b10;fill-opacity:1;stroke-width:1.63354;stroke-linecap:round"
         d="m 27.665241,74.179244 c -0.313764,-0.333585 -2.543039,-9.718565 -2.481165,-13.17985 0.06191,-3.461274 0.923539,-11.020943 1.515115,-11.515551 0.246215,0.959779 2.151415,8.183291 2.089532,11.644565 -0.06185,3.461285 -0.775978,12.547492 -1.123482,13.050836 z"
         sodipodi:nodetypes="cscsc" /><path
         id="path16"
         style="fill:#3a1b10;fill-opacity:1;stroke-width:1.25945;stroke-linecap:round"
         d="m 17.42499,93.512522 c -0.163279,-0.375 -1.38738,-11.19955 -1.38738,-15.22857 0,-4.02902 0.37101,-12.85892 0.668598,-13.45892 0.134491,1.10625 1.173364,9.4299 1.173364,13.45892 0,4.02902 -0.281713,14.62857 -0.454582,15.22857 z"
         sodipodi:nodetypes="cscsc" /><path
         id="path20"
         style="fill:#783821;fill-opacity:1;stroke-width:1.25945;stroke-linecap:round"
         d="m 21.380618,87.891032 c -0.163272,-0.375 -1.387373,-11.19956 -1.387373,-15.22858 0,-4.02902 0.37101,-12.858917 0.668598,-13.458917 0.134491,1.10625 1.173363,9.429897 1.173363,13.458917 0,4.02902 -0.281721,14.62858 -0.454588,15.22858 z"
         sodipodi:nodetypes="cscsc" /><path
         id="path21"
         style="fill:#3a1b10;fill-opacity:1;stroke-width:1.39461;stroke-linecap:round"
         d="m 16.946923,58.240509 c -0.253981,-0.29558 -2.158136,-8.82788 -2.158136,-12.0037 0,-3.17581 0.577125,-10.13585 1.040039,-10.60879 0.209215,0.87198 1.825231,7.43298 1.825231,10.60879 0,3.17582 -0.438227,11.53076 -0.707134,12.0037 z"
         sodipodi:nodetypes="cscsc" /><path
         id="path22"
         style="fill:#3a1b10;fill-opacity:1;stroke-width:0.901492;stroke-linecap:round"
         d="m 15.139267,61.172099 c -0.153207,-0.20434 -1.280477,-6.08325 -1.269757,-8.2689 0.01071,-2.18565 0.384609,-6.97358 0.667254,-7.2974 0.124082,0.60087 1.083072,5.12207 1.07235,7.30771 -0.01071,2.18565 -0.304986,7.93407 -0.469847,8.25859 z"
         sodipodi:nodetypes="cscsc" /><path
         id="path23"
         style="fill:#783821;fill-opacity:1;stroke-width:0.85855;stroke-linecap:round"
         d="m 32.209731,78.804472 c -0.144218,-0.197289 -1.225451,-5.892036 -1.225451,-8.011683 0,-2.119647 0.327708,-6.76502 0.590566,-7.080676 0.118795,0.581989 1.036412,4.961029 1.036412,7.080676 0,2.119647 -0.248837,7.696027 -0.401527,8.011683 z"
         sodipodi:nodetypes="cscsc" /><path
         id="path24"
         style="fill:#3a1b10;fill-opacity:1;stroke-width:1.05594;stroke-linecap:round"
         d="m 29.46313,17.810912 c -0.176127,0.248872 -1.135972,6.826499 -0.954608,9.195579 0.181371,2.369091 1.017429,7.496654 1.396234,7.797745 0.109197,-0.673857 0.962629,-5.748745 0.781273,-8.117827 -0.18137,-2.36909 -0.991528,-8.552731 -1.222899,-8.875497 z"
         sodipodi:nodetypes="cscsc" /><path
         id="path25"
         style="fill:#3a1b10;fill-opacity:1;stroke-width:1.78399;stroke-linecap:round"
         d="m 22.795714,13.530688 c -0.25466,0.469073 -1.686817,13.415665 -1.446972,18.156997 0.239832,4.741343 1.394864,15.069214 1.935399,15.724658 0.162296,-1.324715 1.42912,-11.296734 1.189266,-16.038065 -0.239832,-4.741343 -1.348734,-17.166929 -1.677693,-17.84359 z"
         sodipodi:nodetypes="cscsc" /></g><ellipse
       style="fill:#572918;fill-opacity:1;stroke:#1b0907;stroke-width:1.76265;stroke-dasharray:none;stroke-opacity:1"
       id="ellipse14"
       cx="42.36639"
       cy="57.812958"
       rx="4.6138716"
       ry="4.3487062" /><ellipse
       style="fill:#572918;fill-opacity:1;stroke:#1b0907;stroke-width:1.76265;stroke-dasharray:none;stroke-opacity:1"
       id="path2"
       cx="41.943291"
       cy="56.647396"
       rx="4.6138716"
       ry="4.3487062" /><path
       id="path14"
       style="fill:#572918;fill-opacity:1;stroke:#1b0907;stroke-width:3.29724;stroke-dasharray:none;stroke-opacity:1"
       d="m 52.610508,2.9044187 c 13.304671,0.3195046 26.418574,4.5847648 34.629411,12.7956013 18.712891,18.712899 0,79.392052 0,79.392052 H 52.610508 Z" /><g
       id="g37"
       transform="matrix(1.0933587,0,0,-1.0487611,40.792669,105.90298)"><path
         id="path26"
         style="fill:#3a1b10;fill-opacity:1;stroke-width:1.63354;stroke-linecap:round"
         d="m 34.126168,27.45115 c -0.304711,0.349991 -2.283815,9.846604 -2.130297,13.302175 0.153525,3.455561 1.214836,10.96422 1.819112,11.427105 0.220609,-0.972162 1.933123,-8.29164 1.779599,-11.7472 -0.153518,-3.455571 -1.107807,-12.497521 -1.468414,-12.98208 z"
         sodipodi:nodetypes="cscsc" /><path
         id="path27"
         style="fill:#783821;fill-opacity:1;stroke-width:1.35147;stroke-linecap:round"
         d="M 35.26898,77.625606 C 35.053467,77.29904 33.677028,68.222702 33.797322,64.890107 33.917616,61.557513 34.69638,54.291113 35.12749,53.824679 c 0.153709,0.928526 1.347633,7.917658 1.227338,11.250252 -0.120294,3.332595 -0.82791,12.071727 -1.085848,12.550675 z"
         sodipodi:nodetypes="cscsc" /><path
         id="path29"
         style="fill:#3a1b10;fill-opacity:1;stroke-width:1.05594;stroke-linecap:round"
         d="m 29.880077,67.207451 c -0.192805,-0.222778 -1.611415,-6.632186 -1.597924,-9.015048 0.0135,-2.382873 0.484011,-7.602844 0.839706,-7.955885 0.156154,0.65509 1.362989,5.584263 1.349498,7.967125 -0.0135,2.382874 -0.383809,8.650005 -0.59128,9.003808 z"
         sodipodi:nodetypes="cscsc" /><path
         id="path30"
         style="fill:#3a1b10;fill-opacity:1;stroke-width:1.63354;stroke-linecap:round"
         d="m 27.665241,74.179244 c -0.313764,-0.333585 -2.543039,-9.718565 -2.481165,-13.17985 0.06191,-3.461274 0.923539,-11.020943 1.515115,-11.515551 0.246215,0.959779 2.151415,8.183291 2.089532,11.644565 -0.06185,3.461285 -0.775978,12.547492 -1.123482,13.050836 z"
         sodipodi:nodetypes="cscsc" /><path
         id="path31"
         style="fill:#3a1b10;fill-opacity:1;stroke-width:1.25945;stroke-linecap:round"
         d="m 17.42499,93.512522 c -0.163279,-0.375 -1.38738,-11.19955 -1.38738,-15.22857 0,-4.02902 0.37101,-12.85892 0.668598,-13.45892 0.134491,1.10625 1.173364,9.4299 1.173364,13.45892 0,4.02902 -0.281713,14.62857 -0.454582,15.22857 z"
         sodipodi:nodetypes="cscsc" /><path
         id="path32"
         style="fill:#783821;fill-opacity:1;stroke-width:1.25945;stroke-linecap:round"
         d="m 21.380618,87.891032 c -0.163272,-0.375 -1.387373,-11.19956 -1.387373,-15.22858 0,-4.02902 0.37101,-12.858917 0.668598,-13.458917 0.134491,1.10625 1.173363,9.429897 1.173363,13.458917 0,4.02902 -0.281721,14.62858 -0.454588,15.22858 z"
         sodipodi:nodetypes="cscsc" /><path
         id="path33"
         style="fill:#3a1b10;fill-opacity:1;stroke-width:1.39461;stroke-linecap:round"
         d="m 16.946923,58.240509 c -0.253981,-0.29558 -2.158136,-8.82788 -2.158136,-12.0037 0,-3.17581 0.577125,-10.13585 1.040039,-10.60879 0.209215,0.87198 1.825231,7.43298 1.825231,10.60879 0,3.17582 -0.438227,11.53076 -0.707134,12.0037 z"
         sodipodi:nodetypes="cscsc" /><path
         id="path34"
         style="fill:#3a1b10;fill-opacity:1;stroke-width:0.901492;stroke-linecap:round"
         d="m 15.139267,61.172099 c -0.153207,-0.20434 -1.280477,-6.08325 -1.269757,-8.2689 0.01071,-2.18565 0.384609,-6.97358 0.667254,-7.2974 0.124082,0.60087 1.083072,5.12207 1.07235,7.30771 -0.01071,2.18565 -0.304986,7.93407 -0.469847,8.25859 z"
         sodipodi:nodetypes="cscsc" /><path
         id="path35"
         style="fill:#783821;fill-opacity:1;stroke-width:0.85855;stroke-linecap:round"
         d="m 32.209731,78.804472 c -0.144218,-0.197289 -1.225451,-5.892036 -1.225451,-8.011683 0,-2.119647 0.327708,-6.76502 0.590566,-7.080676 0.118795,0.581989 1.036412,4.961029 1.036412,7.080676 0,2.119647 -0.248837,7.696027 -0.401527,8.011683 z"
         sodipodi:nodetypes="cscsc" /><path
         id="path36"
         style="fill:#3a1b10;fill-opacity:1;stroke-width:1.05594;stroke-linecap:round"
         d="m 29.46313,17.810912 c -0.176127,0.248872 -1.135972,6.826499 -0.954608,9.195579 0.181371,2.369091 1.017429,7.496654 1.396234,7.797745 0.109197,-0.673857 0.962629,-5.748745 0.781273,-8.117827 -0.18137,-2.36909 -0.991528,-8.552731 -1.222899,-8.875497 z"
         sodipodi:nodetypes="cscsc" /><path
         id="path37"
         style="fill:#3a1b10;fill-opacity:1;stroke-width:1.78399;stroke-linecap:round"
         d="m 22.795714,13.530688 c -0.25466,0.469073 -1.686817,13.415665 -1.446972,18.156997 0.239832,4.741343 1.394864,15.069214 1.935399,15.724658 0.162296,-1.324715 1.42912,-11.296734 1.189266,-16.038065 -0.239832,-4.741343 -1.348734,-17.166929 -1.677693,-17.84359 z"
         sodipodi:nodetypes="cscsc" /></g><ellipse
       style="fill:#572918;fill-opacity:1;stroke:#1b0907;stroke-width:1.76265;stroke-dasharray:none;stroke-opacity:1"
       id="ellipse15"
       cx="-60.131512"
       cy="57.971291"
       rx="4.6138716"
       ry="4.3487062"
       transform="scale(-1,1)" /><g
       id="g48"
       transform="matrix(-1,0,0,0.97749489,103.42027,1.2045097)"><path
         id="path38"
         style="fill:#3a1b10;fill-opacity:1;stroke-width:1.63354;stroke-linecap:round"
         d="m 34.126168,27.45115 c -0.304711,0.349991 -2.283815,9.846604 -2.130297,13.302175 0.153525,3.455561 1.214836,10.96422 1.819112,11.427105 0.220609,-0.972162 1.933123,-8.29164 1.779599,-11.7472 -0.153518,-3.455571 -1.107807,-12.497521 -1.468414,-12.98208 z"
         sodipodi:nodetypes="cscsc" /><path
         id="path39"
         style="fill:#783821;fill-opacity:1;stroke-width:1.35147;stroke-linecap:round"
         d="M 35.26898,77.625606 C 35.053467,77.29904 33.677028,68.222702 33.797322,64.890107 33.917616,61.557513 34.69638,54.291113 35.12749,53.824679 c 0.153709,0.928526 1.347633,7.917658 1.227338,11.250252 -0.120294,3.332595 -0.82791,12.071727 -1.085848,12.550675 z"
         sodipodi:nodetypes="cscsc" /><path
         id="path40"
         style="fill:#3a1b10;fill-opacity:1;stroke-width:1.05594;stroke-linecap:round"
         d="m 29.880077,67.207451 c -0.192805,-0.222778 -1.611415,-6.632186 -1.597924,-9.015048 0.0135,-2.382873 0.484011,-7.602844 0.839706,-7.955885 0.156154,0.65509 1.362989,5.584263 1.349498,7.967125 -0.0135,2.382874 -0.383809,8.650005 -0.59128,9.003808 z"
         sodipodi:nodetypes="cscsc" /><path
         id="path41"
         style="fill:#3a1b10;fill-opacity:1;stroke-width:1.63354;stroke-linecap:round"
         d="m 27.665241,74.179244 c -0.313764,-0.333585 -2.543039,-9.718565 -2.481165,-13.17985 0.06191,-3.461274 0.923539,-11.020943 1.515115,-11.515551 0.246215,0.959779 2.151415,8.183291 2.089532,11.644565 -0.06185,3.461285 -0.775978,12.547492 -1.123482,13.050836 z"
         sodipodi:nodetypes="cscsc" /><path
         id="path42"
         style="fill:#3a1b10;fill-opacity:1;stroke-width:1.25945;stroke-linecap:round"
         d="m 17.42499,93.512522 c -0.163279,-0.375 -1.38738,-11.19955 -1.38738,-15.22857 0,-4.02902 0.37101,-12.85892 0.668598,-13.45892 0.134491,1.10625 1.173364,9.4299 1.173364,13.45892 0,4.02902 -0.281713,14.62857 -0.454582,15.22857 z"
         sodipodi:nodetypes="cscsc" /><path
         id="path43"
         style="fill:#783821;fill-opacity:1;stroke-width:1.25945;stroke-linecap:round"
         d="m 21.380618,87.891032 c -0.163272,-0.375 -1.387373,-11.19956 -1.387373,-15.22858 0,-4.02902 0.37101,-12.858917 0.668598,-13.458917 0.134491,1.10625 1.173363,9.429897 1.173363,13.458917 0,4.02902 -0.281721,14.62858 -0.454588,15.22858 z"
         sodipodi:nodetypes="cscsc" /><path
         id="path44"
         style="fill:#3a1b10;fill-opacity:1;stroke-width:1.39461;stroke-linecap:round"
         d="m 16.946923,58.240509 c -0.253981,-0.29558 -2.158136,-8.82788 -2.158136,-12.0037 0,-3.17581 0.577125,-10.13585 1.040039,-10.60879 0.209215,0.87198 1.825231,7.43298 1.825231,10.60879 0,3.17582 -0.438227,11.53076 -0.707134,12.0037 z"
         sodipodi:nodetypes="cscsc" /><path
         id="path45"
         style="fill:#3a1b10;fill-opacity:1;stroke-width:0.901492;stroke-linecap:round"
         d="m 15.139267,61.172099 c -0.153207,-0.20434 -1.280477,-6.08325 -1.269757,-8.2689 0.01071,-2.18565 0.384609,-6.97358 0.667254,-7.2974 0.124082,0.60087 1.083072,5.12207 1.07235,7.30771 -0.01071,2.18565 -0.304986,7.93407 -0.469847,8.25859 z"
         sodipodi:nodetypes="cscsc" /><path
         id="path46"
         style="fill:#783821;fill-opacity:1;stroke-width:0.85855;stroke-linecap:round"
         d="m 32.209731,78.804472 c -0.144218,-0.197289 -1.225451,-5.892036 -1.225451,-8.011683 0,-2.119647 0.327708,-6.76502 0.590566,-7.080676 0.118795,0.581989 1.036412,4.961029 1.036412,7.080676 0,2.119647 -0.248837,7.696027 -0.401527,8.011683 z"
         sodipodi:nodetypes="cscsc" /><path
         id="path47"
         style="fill:#3a1b10;fill-opacity:1;stroke-width:1.05594;stroke-linecap:round"
         d="m 29.46313,17.810912 c -0.176127,0.248872 -1.135972,6.826499 -0.954608,9.195579 0.181371,2.369091 1.017429,7.496654 1.396234,7.797745 0.109197,-0.673857 0.962629,-5.748745 0.781273,-8.117827 -0.18137,-2.36909 -0.991528,-8.552731 -1.222899,-8.875497 z"
         sodipodi:nodetypes="cscsc" /><path
         id="path48"
         style="fill:#3a1b10;fill-opacity:1;stroke-width:1.78399;stroke-linecap:round"
         d="m 22.795714,13.530688 c -0.25466,0.469073 -1.686817,13.415665 -1.446972,18.156997 0.239832,4.741343 1.394864,15.069214 1.935399,15.724658 0.162296,-1.324715 1.42912,-11.296734 1.189266,-16.038065 -0.239832,-4.741343 -1.348734,-17.166929 -1.677693,-17.84359 z"
         sodipodi:nodetypes="cscsc" /></g><ellipse
       style="fill:#572918;fill-opacity:1;stroke:#1b0907;stroke-width:1.76265;stroke-dasharray:none;stroke-opacity:1"
       id="ellipse16"
       cx="-60.554611"
       cy="56.805729"
       rx="4.6138716"
       ry="4.3487062"
       transform="scale(-1,1)" /><path
       id="path11"
       style="fill:#3a1b10;fill-opacity:1;stroke-width:1.07234;stroke-linecap:round"
       d="m 192.12141,-40.378919 c -0.20434,0.216776 -6.08326,1.811811 -8.2689,1.796641 -2.18565,-0.01517 -6.97358,-0.544206 -7.2974,-0.944136 0.60087,-0.175563 5.12207,-1.532486 7.30771,-1.517317 2.18565,0.01517 7.93407,0.431544 8.25859,0.664812 z"
       sodipodi:nodetypes="cscsc" /><path
       id="path12"
       style="fill:#3a1b10;fill-opacity:1;stroke-width:0.838771;stroke-linecap:round"
       d="m 209.72837,-39.135399 c -0.20434,0.132627 -6.08326,1.108494 -8.2689,1.099213 -2.18565,-0.0093 -6.97358,-0.332953 -7.2974,-0.577637 0.60087,-0.107418 5.12207,-0.937599 7.30771,-0.928318 2.18565,0.0093 7.93407,0.264024 8.25859,0.406742 z"
       sodipodi:nodetypes="cscsc" /><g
       id="g1"
       transform="matrix(1,0,0,0.97749489,0,2.1045096)"><path
         id="path15"
         style="fill:#3a1b10;fill-opacity:1;stroke-width:1.63354;stroke-linecap:round"
         d="m 34.126168,27.45115 c -0.304711,0.349991 -2.283815,9.846604 -2.130297,13.302175 0.153525,3.455561 1.214836,10.96422 1.819112,11.427105 0.220609,-0.972162 1.933123,-8.29164 1.779599,-11.7472 -0.153518,-3.455571 -1.107807,-12.497521 -1.468414,-12.98208 z"
         sodipodi:nodetypes="cscsc" /><path
         id="path10"
         style="fill:#783821;fill-opacity:1;stroke-width:1.35147;stroke-linecap:round"
         d="M 35.26898,77.625606 C 35.053467,77.29904 33.677028,68.222702 33.797322,64.890107 33.917616,61.557513 34.69638,54.291113 35.12749,53.824679 c 0.153709,0.928526 1.347633,7.917658 1.227338,11.250252 -0.120294,3.332595 -0.82791,12.071727 -1.085848,12.550675 z"
         sodipodi:nodetypes="cscsc" /><path
         id="path14-5"
         style="fill:#3a1b10;fill-opacity:1;stroke-width:1.05594;stroke-linecap:round"
         d="m 29.880077,67.207451 c -0.192805,-0.222778 -1.611415,-6.632186 -1.597924,-9.015048 0.0135,-2.382873 0.484011,-7.602844 0.839706,-7.955885 0.156154,0.65509 1.362989,5.584263 1.349498,7.967125 -0.0135,2.382874 -0.383809,8.650005 -0.59128,9.003808 z"
         sodipodi:nodetypes="cscsc" /><path
         id="path13"
         style="fill:#3a1b10;fill-opacity:1;stroke-width:1.63354;stroke-linecap:round"
         d="m 27.665241,74.179244 c -0.313764,-0.333585 -2.543039,-9.718565 -2.481165,-13.17985 0.06191,-3.461274 0.923539,-11.020943 1.515115,-11.515551 0.246215,0.959779 2.151415,8.183291 2.089532,11.644565 -0.06185,3.461285 -0.775978,12.547492 -1.123482,13.050836 z"
         sodipodi:nodetypes="cscsc" /><path
         id="path5"
         style="fill:#3a1b10;fill-opacity:1;stroke-width:1.25945;stroke-linecap:round"
         d="m 17.42499,93.512522 c -0.163279,-0.375 -1.38738,-11.19955 -1.38738,-15.22857 0,-4.02902 0.37101,-12.85892 0.668598,-13.45892 0.134491,1.10625 1.173364,9.4299 1.173364,13.45892 0,4.02902 -0.281713,14.62857 -0.454582,15.22857 z"
         sodipodi:nodetypes="cscsc" /><path
         id="path6"
         style="fill:#783821;fill-opacity:1;stroke-width:1.25945;stroke-linecap:round"
         d="m 21.380618,87.891032 c -0.163272,-0.375 -1.387373,-11.19956 -1.387373,-15.22858 0,-4.02902 0.37101,-12.858917 0.668598,-13.458917 0.134491,1.10625 1.173363,9.429897 1.173363,13.458917 0,4.02902 -0.281721,14.62858 -0.454588,15.22858 z"
         sodipodi:nodetypes="cscsc" /><path
         id="path7"
         style="fill:#3a1b10;fill-opacity:1;stroke-width:1.39461;stroke-linecap:round"
         d="m 16.946923,58.240509 c -0.253981,-0.29558 -2.158136,-8.82788 -2.158136,-12.0037 0,-3.17581 0.577125,-10.13585 1.040039,-10.60879 0.209215,0.87198 1.825231,7.43298 1.825231,10.60879 0,3.17582 -0.438227,11.53076 -0.707134,12.0037 z"
         sodipodi:nodetypes="cscsc" /><path
         id="path9"
         style="fill:#3a1b10;fill-opacity:1;stroke-width:0.901492;stroke-linecap:round"
         d="m 15.139267,61.172099 c -0.153207,-0.20434 -1.280477,-6.08325 -1.269757,-8.2689 0.01071,-2.18565 0.384609,-6.97358 0.667254,-7.2974 0.124082,0.60087 1.083072,5.12207 1.07235,7.30771 -0.01071,2.18565 -0.304986,7.93407 -0.469847,8.25859 z"
         sodipodi:nodetypes="cscsc" /><path
         id="path17"
         style="fill:#783821;fill-opacity:1;stroke-width:0.85855;stroke-linecap:round"
         d="m 32.209731,78.804472 c -0.144218,-0.197289 -1.225451,-5.892036 -1.225451,-8.011683 0,-2.119647 0.327708,-6.76502 0.590566,-7.080676 0.118795,0.581989 1.036412,4.961029 1.036412,7.080676 0,2.119647 -0.248837,7.696027 -0.401527,8.011683 z"
         sodipodi:nodetypes="cscsc" /><path
         id="path18"
         style="fill:#3a1b10;fill-opacity:1;stroke-width:1.05594;stroke-linecap:round"
         d="m 29.46313,17.810912 c -0.176127,0.248872 -1.135972,6.826499 -0.954608,9.195579 0.181371,2.369091 1.017429,7.496654 1.396234,7.797745 0.109197,-0.673857 0.962629,-5.748745 0.781273,-8.117827 -0.18137,-2.36909 -0.991528,-8.552731 -1.222899,-8.875497 z"
         sodipodi:nodetypes="cscsc" /><path
         id="path19"
         style="fill:#3a1b10;fill-opacity:1;stroke-width:1.78399;stroke-linecap:round"
         d="m 22.795714,13.530688 c -0.25466,0.469073 -1.686817,13.415665 -1.446972,18.156997 0.239832,4.741343 1.394864,15.069214 1.935399,15.724658 0.162296,-1.324715 1.42912,-11.296734 1.189266,-16.038065 -0.239832,-4.741343 -1.348734,-17.166929 -1.677693,-17.84359 z"
         sodipodi:nodetypes="cscsc" /></g></g></svg>
