<?xml version="1.0" encoding="UTF-8" standalone="no"?>
<!-- Created with Inkscape (http://www.inkscape.org/) -->

<svg
   width="377.95276"
   height="377.95276"
   viewBox="0 0 100 100"
   version="1.1"
   id="svg1"
   inkscape:version="1.4.2 (ebf0e940d0, 2025-05-08)"
   sodipodi:docname="forja_fantasma-hover.svg"
   xml:space="preserve"
   xmlns:inkscape="http://www.inkscape.org/namespaces/inkscape"
   xmlns:sodipodi="http://sodipodi.sourceforge.net/DTD/sodipodi-0.dtd"
   xmlns="http://www.w3.org/2000/svg"
   xmlns:svg="http://www.w3.org/2000/svg"><sodipodi:namedview
     id="namedview1"
     pagecolor="#505050"
     bordercolor="#eeeeee"
     borderopacity="1"
     inkscape:showpageshadow="0"
     inkscape:pageopacity="0"
     inkscape:pagecheckerboard="0"
     inkscape:deskcolor="#505050"
     inkscape:document-units="px"
     inkscape:zoom="0.88194445"
     inkscape:cx="141.16535"
     inkscape:cy="219.40157"
     inkscape:window-width="1366"
     inkscape:window-height="697"
     inkscape:window-x="0"
     inkscape:window-y="0"
     inkscape:window-maximized="1"
     inkscape:current-layer="layer1" /><defs
     id="defs1"><filter
       inkscape:label="Blur Double"
       inkscape:menu="Blurs"
       inkscape:menu-tooltip="Overlays two copies with different blur amounts and modifiable blend and composite"
       style="color-interpolation-filters:sRGB;"
       id="filter6"
       x="-0.71930275"
       y="-0.45810527"
       width="2.4386055"
       height="1.9162105"><feGaussianBlur
         stdDeviation="5"
         result="fbSourceGraphic"
         id="feGaussianBlur5" /><feGaussianBlur
         stdDeviation="0.01"
         in="SourceGraphic"
         result="result1"
         id="feGaussianBlur6" /><feComposite
         in2="result1"
         operator="arithmetic"
         in="fbSourceGraphic"
         k2="0.5"
         k3="0.5"
         result="result2"
         id="feComposite6" /><feBlend
         in2="fbSourceGraphic"
         mode="normal"
         result="result3"
         id="feBlend6" /></filter><linearGradient
       id="linearGradient13895"
       inkscape:swatch="solid"><stop
         style="stop-color:#000000;stop-opacity:1;"
         offset="0"
         id="stop13893" /></linearGradient><filter
       style="color-interpolation-filters:sRGB;"
       inkscape:label="Clean Edges"
       id="filter14269"
       x="-0.31154084"
       y="-0.29580634"
       width="1.6230817"
       height="1.5916127"><feGaussianBlur
         stdDeviation="0.204612"
         result="blur"
         id="feGaussianBlur14263" /><feComposite
         in="SourceGraphic"
         in2="blur"
         operator="in"
         result="composite1"
         id="feComposite14265" /><feComposite
         in="composite1"
         in2="composite1"
         operator="in"
         result="composite2"
         id="feComposite14267" /></filter><filter
       inkscape:label="Blur Double"
       inkscape:menu="Blurs"
       inkscape:menu-tooltip="Overlays two copies with different blur amounts and modifiable blend and composite"
       style="color-interpolation-filters:sRGB;"
       id="filter6-3"
       x="-0.71930275"
       y="-0.45810527"
       width="2.4386055"
       height="1.9162105"><feGaussianBlur
         stdDeviation="5"
         result="fbSourceGraphic"
         id="feGaussianBlur5-6" /><feGaussianBlur
         stdDeviation="0.01"
         in="SourceGraphic"
         result="result1"
         id="feGaussianBlur6-7" /><feComposite
         in2="result1"
         operator="arithmetic"
         in="fbSourceGraphic"
         k2="0.5"
         k3="0.5"
         result="result2"
         id="feComposite6-5" /><feBlend
         in2="fbSourceGraphic"
         mode="normal"
         result="result3"
         id="feBlend6-3" /></filter><filter
       style="color-interpolation-filters:sRGB;"
       inkscape:label="Clean Edges"
       id="filter14269-3"
       x="-0.31154084"
       y="-0.29580634"
       width="1.6230817"
       height="1.5916127"><feGaussianBlur
         stdDeviation="0.204612"
         result="blur"
         id="feGaussianBlur14263-5" /><feComposite
         in="SourceGraphic"
         in2="blur"
         operator="in"
         result="composite1"
         id="feComposite14265-6" /><feComposite
         in="composite1"
         in2="composite1"
         operator="in"
         result="composite2"
         id="feComposite14267-2" /></filter><filter
       style="color-interpolation-filters:sRGB"
       inkscape:label="Clean Edges"
       id="filter14269-35"
       x="-0.31154084"
       y="-0.29580635"
       width="1.6230817"
       height="1.5916127"><feGaussianBlur
         stdDeviation="0.204612"
         result="blur"
         id="feGaussianBlur14263-6" /><feComposite
         in="SourceGraphic"
         in2="blur"
         operator="in"
         result="composite1"
         id="feComposite14265-2" /><feComposite
         in="composite1"
         in2="composite1"
         operator="in"
         result="composite2"
         id="feComposite14267-9" /></filter><filter
       style="color-interpolation-filters:sRGB"
       inkscape:label="Clean Edges"
       id="filter14269-3-1"
       x="-0.31154084"
       y="-0.29580635"
       width="1.6230817"
       height="1.5916127"><feGaussianBlur
         stdDeviation="0.204612"
         result="blur"
         id="feGaussianBlur14263-5-2" /><feComposite
         in="SourceGraphic"
         in2="blur"
         operator="in"
         result="composite1"
         id="feComposite14265-6-7" /><feComposite
         in="composite1"
         in2="composite1"
         operator="in"
         result="composite2"
         id="feComposite14267-2-0" /></filter><filter
       inkscape:label="Blur Double"
       inkscape:menu="Blurs"
       inkscape:menu-tooltip="Overlays two copies with different blur amounts and modifiable blend and composite"
       style="color-interpolation-filters:sRGB;"
       id="filter6-36"
       x="-0.71930275"
       y="-0.45810527"
       width="2.4386055"
       height="1.9162105"><feGaussianBlur
         stdDeviation="5"
         result="fbSourceGraphic"
         id="feGaussianBlur5-7" /><feGaussianBlur
         stdDeviation="0.01"
         in="SourceGraphic"
         result="result1"
         id="feGaussianBlur6-5" /><feComposite
         in2="result1"
         operator="arithmetic"
         in="fbSourceGraphic"
         k2="0.5"
         k3="0.5"
         result="result2"
         id="feComposite6-3" /><feBlend
         in2="fbSourceGraphic"
         mode="normal"
         result="result3"
         id="feBlend6-5" /></filter><filter
       style="color-interpolation-filters:sRGB;"
       inkscape:label="Clean Edges"
       id="filter14269-29"
       x="-0.31154084"
       y="-0.29580634"
       width="1.6230817"
       height="1.5916127"><feGaussianBlur
         stdDeviation="0.204612"
         result="blur"
         id="feGaussianBlur14263-1" /><feComposite
         in="SourceGraphic"
         in2="blur"
         operator="in"
         result="composite1"
         id="feComposite14265-27" /><feComposite
         in="composite1"
         in2="composite1"
         operator="in"
         result="composite2"
         id="feComposite14267-0" /></filter><filter
       style="color-interpolation-filters:sRGB;"
       inkscape:label="Clean Edges"
       id="filter14269-2"
       x="-0.31154084"
       y="-0.29580634"
       width="1.6230817"
       height="1.5916127"><feGaussianBlur
         stdDeviation="0.204612"
         result="blur"
         id="feGaussianBlur14263-0" /><feComposite
         in="SourceGraphic"
         in2="blur"
         operator="in"
         result="composite1"
         id="feComposite14265-2-9" /><feComposite
         in="composite1"
         in2="composite1"
         operator="in"
         result="composite2"
         id="feComposite14267-3" /></filter><filter
       style="color-interpolation-filters:sRGB;"
       inkscape:label="Clean Edges"
       id="filter14269-6"
       x="-0.31154084"
       y="-0.29580634"
       width="1.6230817"
       height="1.5916127"><feGaussianBlur
         stdDeviation="0.204612"
         result="blur"
         id="feGaussianBlur14263-18" /><feComposite
         in="SourceGraphic"
         in2="blur"
         operator="in"
         result="composite1"
         id="feComposite14265-7" /><feComposite
         in="composite1"
         in2="composite1"
         operator="in"
         result="composite2"
         id="feComposite14267-92" /></filter></defs><g
     inkscape:label="Camada 1"
     inkscape:groupmode="layer"
     id="layer1"><g
       id="g3"
       transform="matrix(1.867933,0,0,1.670868,-22.94646,-13.817036)"><path
         id="path3"
         style="fill:#734bff;fill-opacity:0.770965;stroke:#3202da;stroke-width:1.00765;stroke-linecap:round;stroke-linejoin:round"
         d="m 19.9711,12.579598 c 0,1.844676 -0.878,3.340079 -1.96108,3.340079 -1.08307,0 -1.96108,-1.495403 -1.96108,-3.340079 0,-1.844675 0.84827,-2.516551 1.93135,-2.516551 1.08307,0 1.99081,0.671876 1.99081,2.516551 z"
         sodipodi:nodetypes="sssss" /><path
         id="path11-3"
         style="fill:#734bff;fill-opacity:0.57017;stroke:#3202da;stroke-width:0.575543;stroke-linecap:round;stroke-linejoin:round"
         d="m 17.63716,20.174593 c 0,1.083106 -0.48785,1.961137 -1.08964,1.961137 -0.60179,0 -1.08963,-0.878031 -1.08963,-1.961137 0,-1.083107 0.47132,-1.477601 1.07311,-1.477601 0.60179,0 1.10616,0.394494 1.10616,1.477601 z"
         sodipodi:nodetypes="sssss" /><path
         id="path12"
         style="fill:#734bff;fill-opacity:0.57017;stroke:#3202da;stroke-width:0.384848;stroke-linecap:round;stroke-linejoin:round"
         d="m 17.7325,30.456101 c 0,0.717957 -0.32906,1.299976 -0.73498,1.299976 -0.40592,0 -0.73498,-0.582019 -0.73498,-1.299976 0,-0.717959 0.31792,-0.979456 0.72384,-0.979456 0.40592,0 0.74612,0.261497 0.74612,0.979456 z"
         sodipodi:nodetypes="sssss" /><path
         id="path13-7"
         style="fill:#734bff;fill-opacity:0.57017;stroke:#3202da;stroke-width:0.384848;stroke-linecap:round;stroke-linejoin:round"
         d="m 21.4825,22.656101 c 0,0.717957 -0.32906,1.299976 -0.73498,1.299976 -0.40592,0 -0.73498,-0.582019 -0.73498,-1.299976 0,-0.717959 0.31792,-0.979456 0.72384,-0.979456 0.40592,0 0.74612,0.261497 0.74612,0.979456 z"
         sodipodi:nodetypes="sssss" /><ellipse
         style="fill:#ffffff;fill-opacity:1;stroke:none;stroke-width:0.144481;stroke-dasharray:none;stroke-opacity:1"
         id="ellipse14"
         cx="17.407093"
         cy="11.985137"
         rx="0.38294792"
         ry="0.77669799" /><ellipse
         style="fill:#ffffff;fill-opacity:1;stroke:none;stroke-width:0.0795021;stroke-dasharray:none;stroke-opacity:1"
         id="ellipse15"
         cx="16.188343"
         cy="19.541386"
         rx="0.21419792"
         ry="0.42044801" /><ellipse
         style="fill:#ffffff;fill-opacity:0.758046;stroke:none;stroke-width:0.107421;stroke-dasharray:none;stroke-opacity:1"
         id="ellipse20"
         cx="20.557079"
         cy="22.578886"
         rx="0.27044794"
         ry="0.60794806" /><ellipse
         style="fill:#ffffff;fill-opacity:0.758046;stroke:none;stroke-width:0.107421;stroke-dasharray:none;stroke-opacity:1"
         id="ellipse21"
         cx="22.282085"
         cy="31.203886"
         rx="0.27044794"
         ry="0.60794806" /><ellipse
         style="fill:#ffffff;fill-opacity:0.758046;stroke:none;stroke-width:0.0640895;stroke-dasharray:none;stroke-opacity:1"
         id="ellipse22"
         cx="16.713329"
         cy="30.228886"
         rx="0.13919795"
         ry="0.42044806" /></g><ellipse
       style="fill:#000000;fill-opacity:0.3713637;stroke:none;stroke-width:4.03357;stroke-linecap:round;stroke-opacity:1"
       id="path11"
       cx="49.851025"
       cy="96.307945"
       rx="49.426762"
       ry="4.0305085" /><rect
       style="fill:#235c5c;stroke:#ffffff;stroke-width:4.03357;stroke-linecap:round;fill-opacity:1;stroke-opacity:1"
       id="rect1"
       width="25.5"
       height="42.599998"
       x="34.799999"
       y="46.199997"
       ry="0.48236156" /><path
       id="rect45"
       style="fill:#235c5c;fill-opacity:1;stroke:#ffffff;stroke-width:4.02072;stroke-dasharray:none;stroke-opacity:1"
       d="M 3.9714515,32.591263 19.790398,60.279089 77.284928,59.539912 78.246191,49.295504 93.737672,37.351606 69.488009,36.918046 64.938244,31.003621 Z"
       sodipodi:nodetypes="cccccccc" /><path
       id="rect2"
       style="fill:#235c5c;stroke:#ffffff;stroke-width:4.08487;stroke-linecap:round;fill-opacity:1;stroke-opacity:1"
       d="m 21.232294,78.606847 51.876042,-0.137132 4.348707,19.426306 H 15.733766 Z"
       sodipodi:nodetypes="ccccc" /><rect
       style="fill:#2800b8;fill-opacity:1;stroke:#ffffff;stroke-width:1.72661;stroke-dasharray:none;stroke-opacity:1"
       id="rect7"
       width="44.24905"
       height="6.3883963"
       x="50.952831"
       y="80.550949"
       transform="matrix(0.01435131,0.99989701,0.99950466,0.03147127,0,0)"
       ry="3.1941981" /><rect
       style="fill:#2800b8;fill-opacity:1;stroke:#ffffff;stroke-width:0.985927;stroke-dasharray:none;stroke-opacity:1"
       id="rect8"
       width="7.2074547"
       height="10.407162"
       x="-93.167236"
       y="75.750381"
       transform="matrix(-0.0492059,-0.99878866,0.99781064,-0.06613567,0,0)"
       ry="1.5635483" /><rect
       style="fill:#2800b8;fill-opacity:1;stroke:#ffffff;stroke-width:1.92194;stroke-dasharray:none;stroke-opacity:1"
       id="rect10"
       width="13.711856"
       height="20.787598"
       x="-100.28526"
       y="76.581215"
       transform="matrix(0.01941359,-0.99981154,0.99965371,-0.02631473,0,0)"
       ry="3.1230814" /><path
       id="rect6"
       style="fill:#3500f2;fill-opacity:1;stroke:#ffffff;stroke-width:2.1506;stroke-linecap:round;stroke-linejoin:round;stroke-opacity:1"
       d="m 65.737616,28.479703 -19.340274,0.179905 1.478746,-5.911087 18.450018,-0.386984 z"
       sodipodi:nodetypes="ccccc" /><path
       id="rect4"
       style="fill:#3500f2;fill-opacity:1;stroke:#ffffff;stroke-width:2.42123;stroke-linecap:round;stroke-linejoin:round;stroke-dasharray:none;stroke-opacity:1"
       d="m 3.5503334,26.123896 11.8310016,4.227812 34.561338,-1.910391 0.126076,-5.370771 -33.710399,-1.47336 0.0115,-0.08576 z"
       sodipodi:nodetypes="ccccccc" /><path
       style="fill:none;fill-opacity:1;stroke:#ffffff;stroke-width:2.15913;stroke-dasharray:none;stroke-opacity:1"
       d="M 5.4365409,25.847418 38.655529,25.78857"
       id="path9"
       sodipodi:nodetypes="cc" /><path
       id="rect5"
       style="fill:#2800b8;fill-opacity:1;stroke:#ffffff;stroke-width:1.77348;stroke-linecap:round;stroke-linejoin:round;stroke-opacity:1"
       d="m 46.451146,37.595873 1.121615,-23.688028 9.488054,3.928899 -0.819596,14.166142 z"
       sodipodi:nodetypes="ccccc" /><path
       style="fill:#0f034c;fill-opacity:1;stroke:none;stroke-width:2.15913;stroke-linecap:round;stroke-linejoin:round;stroke-dasharray:none;stroke-opacity:0.514698"
       d="m 57.249393,27.691602 7.508457,-0.0072 -6.997056,-4.381748 z"
       id="path13"
       sodipodi:nodetypes="cccc" /><path
       style="fill:#0f034c;fill-opacity:1;stroke:none;stroke-width:2.15913;stroke-linecap:round;stroke-linejoin:round;stroke-dasharray:none;stroke-opacity:0.514698"
       d="M 55.213258,31.61453 51.627316,28.59698 48.61564,15.26489 47.617593,35.896492 Z"
       id="path14" /><path
       style="fill:#0d2222;fill-opacity:1;stroke:none;stroke-width:4.03357;stroke-linecap:round;stroke-opacity:1"
       d="M 36.80625,62.006249 36.75,76.574998 58.349998,61.949999 Z"
       id="path10"
       sodipodi:nodetypes="cccc" /><g
       id="g1"
       transform="matrix(0.50122277,0.23715475,-0.22614905,0.4779624,23.381995,-35.409077)"><path
         id="rect3"
         style="fill:#5728ff;fill-opacity:1;stroke:#ffffff;stroke-width:1.65314;stroke-dasharray:none;stroke-opacity:1"
         d="m 148.7311,8.9745452 c -4.63662,-7.2e-6 -8.39531,2.5772118 -8.39516,5.7563068 0.0751,5.653837 -2.06547,12.786072 1.10653,18.117588 1.70343,1.022585 4.68728,-5.744137 4.77871,-5.160442 1.49329,9.533483 4.49866,3.57083 5.9437,-0.259114 0.0338,-0.08957 2.27811,6.841706 3.73702,5.412762 2.71096,-5.525937 1.01159,-12.198603 1.22437,-18.110794 1.5e-4,-3.179095 -3.75854,-5.7563137 -8.39517,-5.7563068 z"
         sodipodi:nodetypes="ccsccscc" /><ellipse
         style="fill:#ffffff;fill-opacity:1;stroke:none;stroke-width:0.664633;stroke-dasharray:none;stroke-opacity:1"
         id="path7"
         cx="146.1106"
         cy="16.28808"
         rx="2.0531249"
         ry="3.065625" /><ellipse
         style="fill:#ffffff;fill-opacity:1;stroke:none;stroke-width:0.691092;stroke-dasharray:none;stroke-opacity:1"
         id="ellipse5"
         cx="151.58559"
         cy="15.91308"
         rx="2.0531249"
         ry="3.065625" /><path
         id="ellipse6"
         style="fill:#ffffff;fill-opacity:1;stroke:none;stroke-width:1.22266"
         d="m 152.52478,24.129574 c 0,-1.433136 -1.67621,-2.594924 -3.74392,-2.594924 -2.06772,0 -3.74393,1.161788 -3.74393,2.594924 0,1.433137 1.74688,-0.695466 3.81459,-0.695466 2.06771,0 3.67326,2.128603 3.67326,0.695466 z"
         sodipodi:nodetypes="sssss" /></g><g
       id="g2"
       transform="matrix(-0.58554423,0.16910972,0.15805774,0.54727661,91.607923,16.626037)"><path
         id="path1"
         style="fill:#5728ff;fill-opacity:1;stroke:#ffffff;stroke-width:1.65314;stroke-dasharray:none;stroke-opacity:1"
         d="m 148.7311,8.9745452 c -4.63662,-7.2e-6 -8.39531,2.5772118 -8.39516,5.7563068 0.0751,5.653837 -2.06547,12.786072 1.10653,18.117588 1.70343,1.022585 4.68728,-5.744137 4.77871,-5.160442 1.49329,9.533483 4.49866,3.57083 5.9437,-0.259114 0.0338,-0.08957 2.27811,6.841706 3.73702,5.412762 2.71096,-5.525937 1.01159,-12.198603 1.22437,-18.110794 1.5e-4,-3.179095 -3.75854,-5.7563137 -8.39517,-5.7563068 z"
         sodipodi:nodetypes="ccsccscc" /><ellipse
         style="fill:#ffffff;fill-opacity:1;stroke:none;stroke-width:0.664633;stroke-dasharray:none;stroke-opacity:1"
         id="ellipse1"
         cx="146.1106"
         cy="16.28808"
         rx="2.0531249"
         ry="3.065625" /><ellipse
         style="fill:#ffffff;fill-opacity:1;stroke:none;stroke-width:0.691092;stroke-dasharray:none;stroke-opacity:1"
         id="ellipse2"
         cx="151.58559"
         cy="15.91308"
         rx="2.0531249"
         ry="3.065625" /><path
         id="path2"
         style="fill:#ffffff;fill-opacity:1;stroke:none;stroke-width:1.22266"
         d="m 152.52478,24.129574 c 0,-1.433136 -1.67621,-2.594924 -3.74392,-2.594924 -2.06772,0 -3.74393,1.161788 -3.74393,2.594924 0,1.433137 1.74688,-0.695466 3.81459,-0.695466 2.06771,0 3.67326,2.128603 3.67326,0.695466 z"
         sodipodi:nodetypes="sssss" /></g><g
       id="g12"
       transform="matrix(1.867933,0,0,1.670868,43.450866,2.5171304)"><path
         id="path4"
         style="fill:#734bff;fill-opacity:0.770965;stroke:#3202da;stroke-width:1.00765;stroke-linecap:round;stroke-linejoin:round"
         d="m 19.9711,12.579598 c 0,1.844676 -0.878,3.340079 -1.96108,3.340079 -1.08307,0 -1.96108,-1.495403 -1.96108,-3.340079 0,-1.844675 0.84827,-2.516551 1.93135,-2.516551 1.08307,0 1.99081,0.671876 1.99081,2.516551 z"
         sodipodi:nodetypes="sssss" /><path
         id="path5"
         style="fill:#734bff;fill-opacity:0.57017;stroke:#3202da;stroke-width:0.575543;stroke-linecap:round;stroke-linejoin:round"
         d="m 17.63716,20.174593 c 0,1.083106 -0.48785,1.961137 -1.08964,1.961137 -0.60179,0 -1.08963,-0.878031 -1.08963,-1.961137 0,-1.083107 0.47132,-1.477601 1.07311,-1.477601 0.60179,0 1.10616,0.394494 1.10616,1.477601 z"
         sodipodi:nodetypes="sssss" /><path
         id="path6"
         style="fill:#734bff;fill-opacity:0.57017;stroke:#3202da;stroke-width:0.384848;stroke-linecap:round;stroke-linejoin:round"
         d="m 17.7325,30.456101 c 0,0.717957 -0.32906,1.299976 -0.73498,1.299976 -0.40592,0 -0.73498,-0.582019 -0.73498,-1.299976 0,-0.717959 0.31792,-0.979456 0.72384,-0.979456 0.40592,0 0.74612,0.261497 0.74612,0.979456 z"
         sodipodi:nodetypes="sssss" /><path
         id="path8"
         style="fill:#734bff;fill-opacity:0.57017;stroke:#3202da;stroke-width:0.384848;stroke-linecap:round;stroke-linejoin:round"
         d="m 21.4825,22.656101 c 0,0.717957 -0.32906,1.299976 -0.73498,1.299976 -0.40592,0 -0.73498,-0.582019 -0.73498,-1.299976 0,-0.717959 0.31792,-0.979456 0.72384,-0.979456 0.40592,0 0.74612,0.261497 0.74612,0.979456 z"
         sodipodi:nodetypes="sssss" /><ellipse
         style="fill:#ffffff;fill-opacity:1;stroke:none;stroke-width:0.144481;stroke-dasharray:none;stroke-opacity:1"
         id="ellipse8"
         cx="17.407093"
         cy="11.985137"
         rx="0.38294792"
         ry="0.77669799" /><ellipse
         style="fill:#ffffff;fill-opacity:1;stroke:none;stroke-width:0.0795021;stroke-dasharray:none;stroke-opacity:1"
         id="ellipse9"
         cx="16.188343"
         cy="19.541386"
         rx="0.21419792"
         ry="0.42044801" /><ellipse
         style="fill:#ffffff;fill-opacity:0.758046;stroke:none;stroke-width:0.107421;stroke-dasharray:none;stroke-opacity:1"
         id="ellipse10"
         cx="20.557079"
         cy="22.578886"
         rx="0.27044794"
         ry="0.60794806" /><ellipse
         style="fill:#ffffff;fill-opacity:0.758046;stroke:none;stroke-width:0.107421;stroke-dasharray:none;stroke-opacity:1"
         id="ellipse11"
         cx="22.282085"
         cy="31.203886"
         rx="0.27044794"
         ry="0.60794806" /><ellipse
         style="fill:#ffffff;fill-opacity:0.758046;stroke:none;stroke-width:0.0640895;stroke-dasharray:none;stroke-opacity:1"
         id="ellipse12"
         cx="16.713329"
         cy="30.228886"
         rx="0.13919795"
         ry="0.42044806" /></g></g></svg>
