<?xml version="1.0" encoding="UTF-8" standalone="no"?>
<!-- Created with Inkscape (http://www.inkscape.org/) -->

<svg
   width="377.95276"
   height="377.95276"
   viewBox="0 0 100 100"
   version="1.1"
   id="svg1"
   inkscape:version="1.4.2 (ebf0e940d0, 2025-05-08)"
   sodipodi:docname="globe.svg"
   xml:space="preserve"
   xmlns:inkscape="http://www.inkscape.org/namespaces/inkscape"
   xmlns:sodipodi="http://sodipodi.sourceforge.net/DTD/sodipodi-0.dtd"
   xmlns="http://www.w3.org/2000/svg"
   xmlns:svg="http://www.w3.org/2000/svg"><sodipodi:namedview
     id="namedview1"
     pagecolor="#505050"
     bordercolor="#eeeeee"
     borderopacity="1"
     inkscape:showpageshadow="0"
     inkscape:pageopacity="0"
     inkscape:pagecheckerboard="0"
     inkscape:deskcolor="#505050"
     inkscape:document-units="px"
     inkscape:zoom="1.2472578"
     inkscape:cx="281.41736"
     inkscape:cy="205.65115"
     inkscape:window-width="1477"
     inkscape:window-height="697"
     inkscape:window-x="0"
     inkscape:window-y="0"
     inkscape:window-maximized="0"
     inkscape:current-layer="layer1" /><defs
     id="defs1"><filter
       inkscape:label="Blur Double"
       inkscape:menu="Blurs"
       inkscape:menu-tooltip="Overlays two copies with different blur amounts and modifiable blend and composite"
       style="color-interpolation-filters:sRGB;"
       id="filter6"
       x="-0.71930275"
       y="-0.45810527"
       width="2.4386055"
       height="1.9162105"><feGaussianBlur
         stdDeviation="5"
         result="fbSourceGraphic"
         id="feGaussianBlur5" /><feGaussianBlur
         stdDeviation="0.01"
         in="SourceGraphic"
         result="result1"
         id="feGaussianBlur6" /><feComposite
         in2="result1"
         operator="arithmetic"
         in="fbSourceGraphic"
         k2="0.5"
         k3="0.5"
         result="result2"
         id="feComposite6" /><feBlend
         in2="fbSourceGraphic"
         mode="normal"
         result="result3"
         id="feBlend6" /></filter><linearGradient
       id="linearGradient13895"
       inkscape:swatch="solid"><stop
         style="stop-color:#000000;stop-opacity:1;"
         offset="0"
         id="stop13893" /></linearGradient><filter
       style="color-interpolation-filters:sRGB;"
       inkscape:label="Clean Edges"
       id="filter14269"
       x="-0.31154084"
       y="-0.29580634"
       width="1.6230817"
       height="1.5916127"><feGaussianBlur
         stdDeviation="0.204612"
         result="blur"
         id="feGaussianBlur14263" /><feComposite
         in="SourceGraphic"
         in2="blur"
         operator="in"
         result="composite1"
         id="feComposite14265" /><feComposite
         in="composite1"
         in2="composite1"
         operator="in"
         result="composite2"
         id="feComposite14267" /></filter><filter
       inkscape:label="Blur Double"
       inkscape:menu="Blurs"
       inkscape:menu-tooltip="Overlays two copies with different blur amounts and modifiable blend and composite"
       style="color-interpolation-filters:sRGB;"
       id="filter6-3"
       x="-0.71930275"
       y="-0.45810527"
       width="2.4386055"
       height="1.9162105"><feGaussianBlur
         stdDeviation="5"
         result="fbSourceGraphic"
         id="feGaussianBlur5-6" /><feGaussianBlur
         stdDeviation="0.01"
         in="SourceGraphic"
         result="result1"
         id="feGaussianBlur6-7" /><feComposite
         in2="result1"
         operator="arithmetic"
         in="fbSourceGraphic"
         k2="0.5"
         k3="0.5"
         result="result2"
         id="feComposite6-5" /><feBlend
         in2="fbSourceGraphic"
         mode="normal"
         result="result3"
         id="feBlend6-3" /></filter></defs><g
     inkscape:label="Camada 1"
     inkscape:groupmode="layer"
     id="layer1"><path
       style="fill:#ffd019;fill-opacity:1;stroke:#302600;stroke-width:1.76292;stroke-dasharray:none;stroke-opacity:1"
       d="m 81.256539,92.549998 -10.8,-2.550001 -3.45,-4.049998 -11.999999,1.049999 4.649999,4.650002 7.05,4.349998 z"
       id="path13" /><path
       style="fill:#ffd019;fill-opacity:1;stroke:#302600;stroke-width:1.76292;stroke-dasharray:none;stroke-opacity:1"
       d="M 6.9,94.049998 17.7,91.499997 21.15,87.449999 33.149999,88.499998 28.5,93.15 21.45,97.499998 Z"
       id="path12" /><rect
       style="fill:#806600;stroke:#0f0c00;stroke-width:2.57148;stroke-dasharray:none"
       id="rect4"
       width="6.3381133"
       height="65.43811"
       x="44.638298"
       y="5.8373175" /><rect
       style="fill:#806600;fill-opacity:1;stroke:#0f0c00;stroke-width:1.89899;stroke-dasharray:none;stroke-opacity:1"
       id="rect48"
       width="6.268549"
       height="19.468548"
       x="43.393917"
       y="73.52211" /><rect
       style="fill:#806600;fill-opacity:1;stroke:#0f0c00;stroke-width:1.15399;stroke-dasharray:none;stroke-opacity:1"
       id="rect49"
       width="22.398264"
       height="10.490926"
       x="39.116375"
       y="68.971397" /><rect
       style="fill:#2b2200;fill-opacity:1;stroke:#0f0c00;stroke-width:1.93422;stroke-dasharray:none;stroke-opacity:1"
       id="rect47"
       width="26.100521"
       height="7.136559"
       x="33.6408"
       y="67.243614" /><rect
       style="fill:#806600;fill-opacity:1;stroke:#0f0c00;stroke-width:2.54398;stroke-dasharray:none;stroke-opacity:1"
       id="rect50"
       width="30.920837"
       height="5.2708373"
       x="30.926105"
       y="92.925133" /><ellipse
       style="fill:#1585ff;fill-opacity:1;stroke:#524200;stroke-width:2.37053;stroke-dasharray:none;stroke-opacity:1"
       id="ellipse2"
       cx="44.565975"
       cy="45.018097"
       rx="24.151922"
       ry="23.847834"
       transform="matrix(0.99440353,-0.10564854,0.10419809,0.99455656,0,0)" /><path
       id="ellipse1"
       style="fill:#806600;stroke:#0f0c00;stroke-width:3.60021;stroke-dasharray:none"
       d="m 41.355575,4.8663825 2.470032,6.7369045 A 30.192481,28.742008 55.634419 0 1 78.818793,31.361746 30.192481,28.742008 55.634419 0 1 64.450998,67.858132 l 2.750469,7.501782 A 37.725674,35.215281 60.130358 0 0 85.215031,29.622818 37.725674,35.215281 60.130358 0 0 41.355575,4.8663825 Z" /><ellipse
       style="fill:#806600;stroke:#0f0c00;stroke-width:2.60959;stroke-dasharray:none"
       id="ellipse3"
       cx="64.75737"
       cy="72.23555"
       rx="8.279995"
       ry="8.1299953" /><ellipse
       style="fill:#806600;stroke:#0f0c00;stroke-width:1.54969;stroke-dasharray:none"
       id="ellipse4"
       cx="64.75737"
       cy="72.160553"
       rx="4.9099431"
       ry="4.8349433" /><path
       style="fill:#806600;fill-opacity:1;stroke:#524200;stroke-width:2.00104;stroke-dasharray:none;stroke-opacity:1"
       d="m 47.525113,39.894734 c -0.212132,0.07071 -0.443251,0.09946 -0.636397,0.212133 -0.238519,0.139136 -0.410178,0.371977 -0.636397,0.530331 -0.621033,0.434723 -1.694876,0.952775 -2.33345,1.484923 -0.230468,0.192056 -0.379148,0.482047 -0.636397,0.636397 -0.09587,0.05752 -0.221126,0.05059 -0.318199,0.106066 -0.442161,0.252662 -0.777705,0.643377 -1.166725,0.954593 -0.321212,0.256969 -2.026624,-0.876562 -2.333453,-1.060659 -0.153633,-0.09218 -0.488082,0.09888 -0.636397,0 -0.0832,-0.05547 -0.115117,-0.18788 -0.21213,-0.212132 -0.06905,-0.01725 -0.77892,0.361617 -0.848529,0.424262 -0.06592,0.05933 -1.096073,1.096253 -1.166725,1.37886 -0.08588,0.343527 -0.204666,2.370794 -0.106066,2.863781 0.07314,0.365689 0.156085,0.287166 0.318196,0.530331 0.04385,0.06578 0.08107,0.137131 0.106066,0.212132 0.01119,0.03354 -0.03374,0.09552 0,0.106067 1.494845,0.467137 1.227259,0.424262 2.227387,0.424262 0.282842,0 0.568528,-0.04 0.848529,0 1.563425,0.223348 -1.657234,0.01574 1.484924,0.212132 0.211719,0.01323 0.427685,-0.03795 0.636397,0 1.311161,0.238395 0.07432,0.212132 0.74246,0.212132 1.173194,0 0.856372,0.956305 0.424265,1.697056 -0.170434,0.292172 -1.467377,1.520021 -1.272792,1.909189 0.07594,0.151889 0.979713,0.604017 1.060659,0.636397 1.179119,0.471648 2.749574,0.110138 3.818377,-0.424265 0.114017,-0.05701 0.201031,-0.161917 0.318199,-0.212132 0.404222,-0.173239 1.92015,-0.181211 2.333453,-0.106067 0.125417,0.02281 0.201027,0.161917 0.318195,0.212133 0.722998,0.309856 0.213091,-0.223065 1.060662,0.530331 0.132125,0.117443 0.205028,0.288459 0.318199,0.424264 0.484248,0.581099 0.971087,0.636395 1.697056,0.636395 0.427995,0 0.605168,0.07906 0.954592,-0.21213 0.526143,-0.438452 0.511641,-1.226063 0.742464,-1.803122 0.39978,-0.999451 0.815387,-1.150157 1.697056,-1.590993 0.521911,-0.260956 0.905525,-0.457904 1.484923,-0.530328 0.105249,-0.01315 0.219718,0.03939 0.318199,0 0.720479,-0.288192 1.231101,-0.782489 1.803122,-1.272794 0.317145,-0.271838 0.492681,-0.222239 0.530331,-0.636394 0.05112,-0.562359 0.120049,-1.684705 -0.106066,-2.227387 -0.189447,-0.454676 -1.252636,-1.202124 -1.697056,-1.59099 -0.373111,-0.326469 -1.4273,-0.860226 -1.484924,-1.37886 -0.09062,-0.815544 0.330867,-1.304142 0.954593,-1.803122 0.123465,-0.09877 0.300797,-0.113358 0.424264,-0.21213 0.06173,-0.04939 0.04282,-0.164698 0.106067,-0.212132 0.08944,-0.06708 0.218196,-0.05607 0.318198,-0.106066 0.281625,-0.140814 0.662421,-0.600388 0.848527,-0.84853 0.269758,-0.359677 -0.04991,-0.0624 0.106066,-0.530331 0.075,-0.224999 0.250047,-0.409225 0.318198,-0.636394 0.04064,-0.135459 0,-0.282842 0,-0.424265 0,-0.02376 0.03614,-0.634058 0,-0.742463 -0.329419,-0.988258 -0.924282,-1.959689 -1.803122,-2.545582 -0.09357,-0.06238 -0.308689,0.02312 -0.424264,0 -0.176776,-0.03536 -0.380331,-0.206066 -0.530331,-0.106067 -0.0832,0.05547 -0.16741,0.12269 -0.21213,0.212133 -0.21504,0.430075 -0.426185,1.228402 -0.530331,1.697056 -0.110209,0.495935 0.106148,0.901435 -0.212132,1.378857 -0.05547,0.08321 -0.12269,0.16741 -0.212132,0.212133 -0.156859,0.07843 -1.35572,0.02315 -1.484924,-0.106067 -0.290579,-0.290578 -0.212132,-0.351906 -0.212132,-0.742463 0,-0.424262 0.07589,-0.855371 0,-1.272791 -0.02281,-0.125418 -0.187132,-0.193199 -0.212133,-0.318199 -0.133601,-0.668012 0,-1.750758 0,-2.439516 0,-0.353555 0.03905,-0.709271 0,-1.060662 -0.08504,-0.765355 -0.296156,-0.535567 0.318199,-1.272791 0.02262,-0.02716 0.07444,0.01582 0.106066,0 0.184391,-0.0922 0.337301,-0.245814 0.530331,-0.318199 0.313875,-0.117702 0.743783,-7.93e-4 1.060659,-0.212132 0.05623,-0.03749 0.793353,-0.668896 0.848529,-0.742463 0.18632,-0.248428 0.464127,-0.861814 0.742461,-0.954593 0.561837,-0.18728 1.092567,0.848529 1.378857,0.848529 0.07906,0 0.141423,-0.07071 0.212132,-0.106066 0.802,-0.401 0.631233,-1.386607 0.212133,-2.015254 -0.709867,-1.064801 -1.860003,-1.060661 -2.969848,-1.060661 -0.212132,0 -0.430598,-0.05145 -0.636397,0 -0.526179,0.131544 -0.694449,0.341224 -1.166725,0.636396 -0.271229,0.169516 -0.724604,0.432647 -0.848529,0.742461 -0.108278,0.270695 -0.167799,0.560371 -0.212132,0.848529 -0.05119,0.332732 0.133969,1.216988 0,1.484924 -0.09017,0.180348 -0.595472,0.412739 -0.742461,0.53033 -0.386276,0.309021 -0.588486,0.670595 -0.848529,1.060659 -0.03536,0.03536 -0.07071,0.07071 -0.106066,0.106067 -0.03535,0 -0.08107,-0.025 -0.106067,0 -0.025,0.025 0,0.07071 0,0.106066 -0.03535,0.03536 -0.06446,0.07833 -0.106066,0.106066 -0.325641,0.217096 -0.09862,-0.0049 -0.424262,0.212132 -0.275143,0.183428 -0.850386,1.066229 -0.954595,1.378858 -0.212133,0.636397 0.212132,1.484926 0,2.12132 -0.09837,0.29513 -0.546225,1.011143 -0.742463,1.272794 -0.06,0.08 -0.113136,0.197988 -0.21213,0.21213 -0.208613,0.0298 -1.895433,0.0753 -2.121321,0 -0.148963,-0.04965 -0.322066,-0.210195 -0.530331,-0.106063 -0.343614,0.171804 0.268399,0.543263 0.318199,0.74246 0.0343,0.1372 -0.04472,0.2901 0,0.424265 0.01582,0.04743 0.0837,0.06134 0.106066,0.106066 0.09041,0.180814 0,1.323885 0,1.378857 z"
       id="path6" /><path
       style="fill:#806600;fill-opacity:1;stroke:#524200;stroke-width:0.995627;stroke-dasharray:none;stroke-opacity:1"
       d="m 33.083995,37.750477 c -0.380778,0.452093 -0.885553,0.771683 -1.31226,1.174206 -0.04547,0.04289 -0.06616,0.109137 -0.115109,0.148005 -0.02937,0.02331 -0.07427,0.01435 -0.108536,0.02961 -0.116449,0.05186 -0.234666,0.102339 -0.342046,0.171037 -0.249614,0.159705 -0.41338,0.428397 -0.651196,0.60519 -0.08088,0.06013 -0.187056,0.07513 -0.279557,0.115123 -0.217532,0.09408 -0.516962,0.263148 -0.776189,0.289456 -0.05653,0.0058 -0.14355,-0.01984 -0.200627,-0.02302 -0.06358,-0.0035 -0.261418,0.07131 -0.289424,0.07894 -0.108536,0.0296 -0.232005,0.0264 -0.325608,0.08881 -0.125069,0.08338 -0.317896,0.480212 -0.414388,0.61834 -0.175554,0.251298 -0.458698,0.383338 -0.595282,0.667681 -0.06502,0.135366 -0.284039,0.83572 -0.325575,0.943945 -0.019,0.04951 -0.06365,0.08736 -0.07893,0.138137 -0.06177,0.205266 0.01824,0.521368 0.03291,0.690681 0.01,0.114815 -0.0049,0.232095 0.01646,0.345341 0.03708,0.196535 0.105261,0.385905 0.15789,0.578854 0.01974,0.07236 0.0062,0.16404 0.05921,0.217069 0.0566,0.0566 0.12937,0.09428 0.194055,0.141421 0.101961,0.0888 0.214135,0.16708 0.305882,0.266396 0.148133,0.160352 0.276466,0.337964 0.411139,0.509775 0.135845,0.173314 0.0019,0.01871 0.105255,0.243381 0.04389,0.09536 0.11458,0.09186 0.177612,0.223642 0.136316,0.285014 0.303429,0.834559 0.503245,0.989963 0.02207,0.01716 0.05482,0.01096 0.08223,0.01644 0.0307,0.01754 0.06543,0.0294 0.09209,0.05262 0.307533,0.267832 0.586818,0.549077 0.943958,0.753142 0.193797,0.110732 0.385297,0.138412 0.578867,0.269675 0.06033,0.04091 0.09897,0.108359 0.157877,0.151286 0.11056,0.08058 0.237308,0.114309 0.332194,0.22035 0.0083,0.0093 0.0066,0.02412 0.0099,0.03618 0.03728,0.04166 0.07077,0.08704 0.111829,0.124977 0.148735,0.13743 0.42441,0.268016 0.624914,0.295987 0.09905,0.01381 0.192952,-0.05263 0.289427,-0.07895 0.468528,-0.127797 0.436592,-0.236407 0.779467,-0.56244 0.04878,-0.04638 0.116946,-0.07093 0.161156,-0.121697 0.28923,-0.332103 0.8058,-1.071982 0.868235,-1.519533 0.01221,-0.08754 -0.04017,-0.175029 -0.0329,-0.263117 0.0069,-0.08356 0.04467,-0.162949 0.04932,-0.246673 0.0086,-0.15438 -0.02327,-0.309708 -0.0099,-0.463745 0.0087,-0.100396 0.05127,-0.194931 0.07564,-0.292719 0.09072,-0.364076 0.205602,-0.722189 0.286102,-1.088658 0.01757,-0.07998 0.100567,-0.893 0.15126,-1.013008 0.128879,-0.3051 0.208157,-0.288837 0.279542,-0.54269 0.133932,-0.47626 0.188246,-0.982016 0.342005,-1.453735 0.113932,-0.349535 0.277101,-0.682573 0.378195,-1.036035 0.07447,-0.260354 -0.08359,-0.660709 0.154555,-0.858427 0.746901,-0.620112 0.403338,-0.398617 1.075465,-0.759789 0.168437,-0.0905 0.322676,-0.274215 0.513072,-0.256555 0.313519,0.02908 0.589889,0.183204 0.888031,0.263088 0.850441,0.227864 -0.539253,-0.236447 0.420991,0.118388 0.153086,0.05657 0.0089,-0.0309 0.200627,0.02302 0.119821,0.0337 0.05469,0.07161 0.174318,0.06906 0.02501,-4.99e-4 0.04824,-0.01316 0.07236,-0.01974 0.05153,-0.0011 0.103121,-0.0062 0.154582,-0.0033 0.06721,0.0037 0.133389,0.02622 0.200627,0.02302 0.187705,-0.0089 0.36672,-0.0839 0.552545,-0.111844 0.544932,-0.0819 0.628626,-0.06067 1.147837,-0.351958 0.179443,-0.100669 0.828536,-0.379601 0.868265,-0.664402 0.05597,-0.401232 -0.163021,-0.879365 -0.226981,-1.259665 -0.01061,-0.06284 -0.0042,-0.127664 -0.01316,-0.190762 -0.01414,-0.099 -0.06343,-0.190636 -0.07894,-0.289424 -0.03178,-0.202586 0.04489,-0.320253 -0.0658,-0.526235 -0.09704,-0.180584 -0.308748,-0.270189 -0.42758,-0.427551 -0.115463,-0.152894 -0.08076,-0.527893 -0.115137,-0.707123 -0.04142,-0.215997 -0.119498,-0.4381 -0.177626,-0.65121 -0.0099,-0.03618 0.006,-0.09668 -0.02961,-0.108536 -0.589219,-0.196384 -1.0455,0.08833 -1.585273,0.315794 -0.196161,0.08266 -0.409146,0.120929 -0.605161,0.203936 -0.350073,0.148256 -0.685937,0.328674 -1.036009,0.476935 -0.182698,0.07737 -0.395384,0.08234 -0.578854,0.15789 -0.339654,0.13987 -0.595111,0.437363 -0.924178,0.601912 -0.28151,0.14077 -0.588952,0.223624 -0.874855,0.355236 -0.08266,0.03807 -0.152535,0.09991 -0.233513,0.141434 -0.135318,0.06938 -0.276266,0.127181 -0.414402,0.190773 -0.150195,0.06688 -0.304124,0.125939 -0.450582,0.200642 -0.12696,0.06476 -0.244062,0.147348 -0.368358,0.217086 -0.0218,0.01227 -0.05594,8.91e-4 -0.07236,0.01974 -0.161181,0.185067 -0.05079,0.463032 -0.167716,0.667664 -0.0235,0.04112 -0.09545,0.04938 -0.134845,0.07565 -0.056,0.03735 -0.110992,0.07681 -0.161154,0.121697 -0.01318,0.01178 -0.01089,0.03739 -0.02631,0.04605 -0.04361,0.02446 -0.103113,0.01173 -0.144714,0.03947 -0.124943,0.0833 -0.14711,0.234579 -0.210479,0.368372 z"
       id="path11" /><path
       style="fill:none;fill-opacity:1;stroke:#524200;stroke-width:2.60959;stroke-dasharray:none;stroke-opacity:1"
       d="M 26.516505,32.773236 C 42.116902,49.387918 57.83511,47.522888 72.337023,46.561819"
       id="path4"
       sodipodi:nodetypes="cc" /><path
       style="fill:#806600;fill-opacity:1;stroke:#524200;stroke-width:1.15438;stroke-dasharray:none;stroke-opacity:1"
       d="m 30.654286,32.592824 c -0.09404,-0.248561 -0.265893,-0.48042 -0.282114,-0.745678 -0.01534,-0.250779 0.122407,-0.487456 0.191929,-0.728894 0.04844,-0.168163 0.09139,-0.343098 0.183538,-0.491872 0.147001,-0.237345 1.168125,0.03667 1.378088,-0.04614 0.232566,-0.09172 0.453855,-0.228779 0.631364,-0.404819 0.155766,-0.154487 0.257581,-0.690305 0.340856,-0.913478 0.03426,-0.09183 0.555236,-1.277876 0.550615,-1.475619 -0.0041,-0.175722 -0.149653,-0.290905 0.01678,-0.474043 0.215322,-0.236934 0.549559,-0.328614 0.824337,-0.492919 0.154255,-0.09224 0.340946,-0.34004 0.534876,-0.360773 0.07211,-0.0077 0.761586,0.248786 0.84321,0.314636 0.01669,0.01348 0.551037,0.668581 0.545358,0.683801 -0.198616,0.532281 -0.534066,0.624163 -0.867341,1.03723 -0.221391,0.274398 -0.481891,1.00453 -0.542222,1.238595 -0.157778,0.612111 0.153039,0.800456 0.212891,1.36026 0.07107,0.664758 -0.119295,0.79801 -0.287373,1.41374 -0.08718,0.319369 0.0021,0.752809 -0.226542,1.036187 -0.238281,0.295333 -0.22318,0.226252 -0.578924,0.264287 -0.119417,0.01277 -0.573252,0.122096 -0.763507,0.115359 -0.308891,-0.01094 -0.938028,-0.350017 -1.264814,-0.471955 -0.155217,-0.05792 -0.950706,-0.282403 -1.054013,-0.393296 -0.13739,-0.147476 -0.257995,-0.309739 -0.386994,-0.464609 z"
       id="path9" /><path
       style="fill:none;fill-opacity:1;stroke:#524200;stroke-width:2.55474;stroke-dasharray:none;stroke-opacity:1"
       d="M 46.262547,16.090954 C 30.334608,31.711945 23.880714,44.918274 37.413495,61.058318"
       id="path5"
       sodipodi:nodetypes="cc" /><path
       style="fill:#806600;fill-opacity:1;stroke:#524200;stroke-width:1.15438;stroke-dasharray:none;stroke-opacity:1"
       d="m 62.432358,31.281375 c -0.175001,0.200001 -0.417068,0.35715 -0.524999,0.6 -0.102042,0.229593 -0.05573,0.499491 -0.075,0.749999 -0.01341,0.174485 -0.03432,0.353399 0,0.524999 0.05475,0.27376 1.107237,0.374015 1.275001,0.525003 0.185825,0.16724 0.345236,0.373009 0.450001,0.599998 0.09193,0.199194 0,0.736796 0,0.975 0,0.09801 0.07346,1.391351 0,1.575001 -0.06528,0.163198 -0.241909,0.220231 -0.150001,0.449998 0.118904,0.297259 0.4,0.500002 0.599999,0.750001 0.112276,0.140343 0.200556,0.437777 0.375001,0.525 0.06486,0.03243 0.800505,0.03316 0.899999,0 0.02035,-0.0068 0.750001,-0.433753 0.750001,-0.449998 0,-0.56813 -0.282162,-0.771486 -0.45,-1.275001 -0.111493,-0.334481 -0.100304,-1.109612 -0.075,-1.349999 0.06617,-0.628645 0.423219,-0.696445 0.675,-1.200002 0.298981,-0.597966 0.167214,-0.789361 0.224999,-1.424998 0.02997,-0.329695 0.265141,-0.704575 0.15,-1.050002 -0.119999,-0.36 -0.130001,-0.289999 -0.450001,-0.450001 -0.107418,-0.05371 -0.494395,-0.314798 -0.675,-0.374999 -0.293224,-0.09774 -1.001204,0 -1.349999,0 -0.165671,0 -0.989444,-0.06778 -1.125,0 -0.180278,0.09014 -0.35,0.200001 -0.525001,0.300001 z"
       id="path7" /><path
       style="fill:#806600;fill-opacity:1;stroke:#524200;stroke-width:1.02582;stroke-dasharray:none;stroke-opacity:1"
       d="m 44.552059,61.661604 c -0.493829,0.04458 -0.886321,-0.02559 -1.35897,-0.11767 -0.401704,-0.07826 -0.806272,-0.15708 -1.207974,-0.235338 -0.365185,-0.07114 -0.80801,-0.06677 -1.132475,-0.23534 -0.31883,-0.16564 -0.30605,-0.359331 -0.452991,-0.588348 -0.0945,-0.147277 -0.323463,-0.302265 -0.377491,-0.470676 -0.0122,-0.03805 0,-0.07845 0,-0.11767 -0.05033,-0.05884 -0.115254,-0.111511 -0.150997,-0.176505 -0.05055,-0.09191 -0.01811,-0.204731 -0.0755,-0.294173 -0.01593,-0.0248 -0.05033,-0.03922 -0.0755,-0.05883 0,-0.03922 0.01593,-0.08046 0,-0.11767 -0.03376,-0.07894 -0.167271,-0.107273 -0.226497,-0.176505 -0.01395,-0.01632 0.01779,-0.04497 0,-0.05884 -0.01779,-0.01386 -0.06424,0.01754 -0.0755,0 -0.107517,-0.167572 0.01116,-0.732105 0.0755,-0.882521 0.05776,-0.135023 0.257446,-0.14532 0.377494,-0.176503 0.06753,-0.01754 0.08078,-0.108552 0.150997,-0.11767 1.115627,-0.144898 2.012907,0.618722 2.944434,0.941355 1.270174,0.439923 -0.05983,-0.02637 0.679487,0.117669 0.131477,0.02561 0.248923,0.08427 0.377492,0.11767 0.27118,0.07044 0.628046,-0.05414 0.905979,0 0.204355,-0.09999 0.195223,0.08993 0.301994,0.117669 0.04774,0.01241 0.103246,-0.01241 0.150997,0 0.24318,0.06317 0.869367,0.361027 1.056976,0.470679 0.436883,0.255339 -0.254034,-0.03641 0.452991,0.294172 0.138696,0.06485 0.817271,-0.114238 0.830482,-0.117669 0.0998,-0.02593 0.205759,-0.139006 0.301993,-0.176503 0.218379,-0.08509 1.224063,0.04456 1.509968,0 1.084715,-0.169061 1.530232,-0.886469 2.415948,-1.059027 0.238211,-0.04641 2.727896,-0.03182 3.095433,0 0.152142,0.01318 0.305801,0.02606 0.452988,0.05884 0.06844,0.01523 0.08734,0.09286 0.150998,0.11767 0.179474,0.06993 0.482595,0.09293 0.679484,0.05883 0.379236,-0.06567 0.413408,-0.131663 0.679486,-0.235339 0.497821,-0.193971 1.214884,-0.05345 1.585466,0.235339 0.01779,0.01386 -0.01779,0.04497 0,0.05884 0.05607,0.04369 0.282849,0.04308 0.301994,0.117669 0.01497,0.05828 0.01907,0.455816 0,0.470677 -0.05493,0.0428 -0.226512,0.03924 -0.301994,0.11767 -0.292328,0.303743 -0.508927,0.532789 -0.905979,0.764851 -0.07259,0.04242 -0.0755,0.137281 -0.150997,0.176503 -0.0497,0.02582 -0.772994,0.03811 -0.905981,0.05884 -0.09121,0.01421 -0.641207,0.105737 -0.679485,0.11767 -0.135318,0.04218 -0.230921,0.147947 -0.377491,0.176503 -0.333812,0.06503 -0.328543,-0.04849 -0.754985,0.11767 -0.693247,0.270119 0.517674,-0.04369 -0.377492,0.235338 -0.04673,0.01457 -0.103246,-0.01241 -0.150996,0 -0.101293,0.02631 -0.137656,0.13035 -0.226495,0.176504 -0.01393,0.0072 -0.284763,0.05436 -0.301993,0.05883 -0.348934,0.09064 -0.599873,-0.128794 -0.905982,-0.176505 -0.1836,-0.02862 -1.029343,-0.0464 -1.207973,0 -0.154371,0.0401 -0.784184,0.329281 -0.905982,0.353009 -0.19751,0.03848 -0.409196,-0.01706 -0.603985,0.05883 -0.09777,0.03809 -0.293935,0.07426 -0.377491,0.117668 -0.137536,0.07146 -0.170941,0.125441 -0.301994,0.176505 -0.265287,0.103367 -1.517039,-0.07171 -1.81196,-0.117669 -0.192414,-0.02999 -0.413892,0.03703 -0.603988,0 -0.181976,-0.03545 -0.374423,-0.05764 -0.528489,-0.11767 -0.136665,-0.05325 -0.447067,0 -0.603988,0 -0.463577,0 -0.895293,-0.0072 -1.358969,-0.05883 z"
       id="path8" /><path
       style="fill:#806600;fill-opacity:1;stroke:#524200;stroke-width:0.995627;stroke-dasharray:none;stroke-opacity:1"
       d="m 43.907358,24.906374 c -0.124452,0.405301 -0.493641,0.687285 -0.675,1.050002 -0.04472,0.08944 0,0.199998 0,0.299998 0,0.331144 -0.0748,0.787598 0.300001,0.975 0.06708,0.03354 0.152238,-0.0182 0.224999,0 0.252867,0.06322 0.47195,0.229444 0.750001,0.15 0.382,-0.109143 0.664361,-0.435814 0.899998,-0.749999 0.07553,-0.100708 0.01712,-0.405709 0.150001,-0.45 0.462878,-0.154292 1.555316,0.221014 1.95,-0.075 0.389522,-0.292139 -0.707774,-0.782772 -0.750001,-0.824999 -0.0559,-0.0559 0.05,-0.149999 0.075,-0.224999 0.04031,-0.120934 0.01799,-0.260983 0.075,-0.375 0.19938,-0.398757 0.69583,-0.3 1.050002,-0.3 0.15,0 0.32794,-0.08719 0.45,0 0.03497,0.02498 0.632709,0.54813 0.675,0.675 0.04413,0.132409 0,0.484256 0,0.6 0,0.153067 0.05902,0.931953 0,1.049999 -0.157461,0.314921 -0.461462,0.622922 -0.600001,0.900002 -0.03536,0.07071 -0.02561,0.163266 -0.075,0.224999 -0.05631,0.07039 -0.152889,0.09592 -0.225001,0.15 -0.075,0.05625 -0.15,0.187499 -0.224999,0.224999 -0.04472,0.02236 -0.101494,-0.01212 -0.150001,0 -0.46541,0.116353 -0.45,0.536842 -0.45,0.900001 0,0.380886 -0.156425,0.972857 0.3,1.125001 0.214371,0.07146 0.739053,0.153646 0.975,0.075 0.216377,-0.07212 0.216273,-0.291271 0.375,-0.45 0.113194,-0.113192 0.276722,-0.173641 0.374999,-0.300001 0.252883,-0.325133 0.443082,-0.777121 0.675002,-1.124997 0.075,-0.112501 0.149998,-0.075 0.224999,-0.225002 0.02236,-0.04472 -0.01437,-0.102108 0,-0.15 0.150643,-0.502148 0.358683,-1.001051 0.525,-1.5 0.05089,-0.152683 0.179813,-0.314439 0.224999,-0.450001 0.108654,-0.325956 -0.03309,-1.132739 -0.149998,-1.424998 -0.03348,-0.08369 -0.116525,-0.141309 -0.15,-0.225 -0.125055,-0.312638 0.270595,-0.523508 0.15,-0.825 -0.152278,-0.380694 -0.3,-0.431602 -0.3,-0.9 0,-0.330987 -0.0046,-0.234498 0.3,-0.6 0.07267,-0.08721 0.215562,-0.243709 0.299998,-0.3 0.07886,-0.05257 1.046954,-3.44e-4 1.050002,0 0.05556,0.0062 0.09697,0.05732 0.15,0.075 0.369956,0.123319 0.449998,-0.291234 0.449998,-0.525 0,-0.2 0,-0.4 0,-0.6 0,-0.05 0.02572,-0.107126 0,-0.15 -0.226864,-0.378107 -0.647962,-0.45 -1.049999,-0.45 -0.275828,0 -2.043745,-0.09688 -2.250001,0.075 -0.409826,0.341522 -1.07029,1.542572 -1.499999,1.65 -0.01897,0.0047 -0.501053,0.08298 -0.525,0.075 -0.03354,-0.01118 -0.04146,-0.06382 -0.075,-0.075 -0.297307,-0.0991 -0.878311,-0.257231 -1.200002,-0.15 -0.118583,0.03953 -0.20239,0.146913 -0.3,0.225 -0.106236,0.08499 -0.416444,0.735516 -0.449998,0.825 -0.02633,0.07022 0,0.15 0,0.225 -0.05,0.125 -0.08979,0.254584 -0.15,0.375 -0.08411,0.168212 -0.281615,0.656613 -0.375,0.75 -0.294108,0.294107 -0.696764,0.54815 -1.050001,0.749999 z"
       id="path10" /><path
       style="fill:#ffd019;fill-opacity:1;stroke:#302600;stroke-width:1.76292;stroke-dasharray:none;stroke-opacity:1"
       d="m 97.668688,95.964027 -10.301012,-4.126944 -2.809702,-4.517805 -12.02277,-0.745296 3.907189,5.289507 6.325122,5.349562 z"
       id="path14" /></g></svg>
