<?xml version="1.0" encoding="UTF-8" standalone="no"?>
<!-- Created with Inkscape (http://www.inkscape.org/) -->

<svg
   width="377.95276"
   height="377.95276"
   viewBox="0 0 100 100"
   version="1.1"
   id="svg1"
   inkscape:version="1.4.2 (ebf0e940d0, 2025-05-08)"
   sodipodi:docname="globe-hover.svg"
   xml:space="preserve"
   xmlns:inkscape="http://www.inkscape.org/namespaces/inkscape"
   xmlns:sodipodi="http://sodipodi.sourceforge.net/DTD/sodipodi-0.dtd"
   xmlns="http://www.w3.org/2000/svg"
   xmlns:svg="http://www.w3.org/2000/svg"><sodipodi:namedview
     id="namedview1"
     pagecolor="#505050"
     bordercolor="#eeeeee"
     borderopacity="1"
     inkscape:showpageshadow="0"
     inkscape:pageopacity="0"
     inkscape:pagecheckerboard="0"
     inkscape:deskcolor="#505050"
     inkscape:document-units="px"
     inkscape:zoom="0.6236289"
     inkscape:cx="69.753021"
     inkscape:cy="148.32539"
     inkscape:window-width="1366"
     inkscape:window-height="697"
     inkscape:window-x="0"
     inkscape:window-y="0"
     inkscape:window-maximized="1"
     inkscape:current-layer="layer1" /><defs
     id="defs1"><filter
       inkscape:label="Blur Double"
       inkscape:menu="Blurs"
       inkscape:menu-tooltip="Overlays two copies with different blur amounts and modifiable blend and composite"
       style="color-interpolation-filters:sRGB;"
       id="filter6"
       x="-0.71930275"
       y="-0.45810527"
       width="2.4386055"
       height="1.9162105"><feGaussianBlur
         stdDeviation="5"
         result="fbSourceGraphic"
         id="feGaussianBlur5" /><feGaussianBlur
         stdDeviation="0.01"
         in="SourceGraphic"
         result="result1"
         id="feGaussianBlur6" /><feComposite
         in2="result1"
         operator="arithmetic"
         in="fbSourceGraphic"
         k2="0.5"
         k3="0.5"
         result="result2"
         id="feComposite6" /><feBlend
         in2="fbSourceGraphic"
         mode="normal"
         result="result3"
         id="feBlend6" /></filter><linearGradient
       id="linearGradient13895"
       inkscape:swatch="solid"><stop
         style="stop-color:#000000;stop-opacity:1;"
         offset="0"
         id="stop13893" /></linearGradient><filter
       style="color-interpolation-filters:sRGB;"
       inkscape:label="Clean Edges"
       id="filter14269"
       x="-0.31154084"
       y="-0.29580634"
       width="1.6230817"
       height="1.5916127"><feGaussianBlur
         stdDeviation="0.204612"
         result="blur"
         id="feGaussianBlur14263" /><feComposite
         in="SourceGraphic"
         in2="blur"
         operator="in"
         result="composite1"
         id="feComposite14265" /><feComposite
         in="composite1"
         in2="composite1"
         operator="in"
         result="composite2"
         id="feComposite14267" /></filter><filter
       inkscape:label="Blur Double"
       inkscape:menu="Blurs"
       inkscape:menu-tooltip="Overlays two copies with different blur amounts and modifiable blend and composite"
       style="color-interpolation-filters:sRGB;"
       id="filter6-3"
       x="-0.71930275"
       y="-0.45810527"
       width="2.4386055"
       height="1.9162105"><feGaussianBlur
         stdDeviation="5"
         result="fbSourceGraphic"
         id="feGaussianBlur5-6" /><feGaussianBlur
         stdDeviation="0.01"
         in="SourceGraphic"
         result="result1"
         id="feGaussianBlur6-7" /><feComposite
         in2="result1"
         operator="arithmetic"
         in="fbSourceGraphic"
         k2="0.5"
         k3="0.5"
         result="result2"
         id="feComposite6-5" /><feBlend
         in2="fbSourceGraphic"
         mode="normal"
         result="result3"
         id="feBlend6-3" /></filter></defs><g
     inkscape:label="Camada 1"
     inkscape:groupmode="layer"
     id="layer1"><path
       style="fill:#081e1c;fill-opacity:1;stroke:#ffffff;stroke-width:1.76292;stroke-dasharray:none;stroke-opacity:1"
       d="m 81.256539,92.549998 -10.8,-2.550001 -3.45,-4.049998 -11.999999,1.049999 4.649999,4.650002 7.05,4.349998 z"
       id="path13" /><path
       style="fill:#081e1c;fill-opacity:1;stroke:#ffffff;stroke-width:1.76292;stroke-dasharray:none;stroke-opacity:1"
       d="M 6.9,94.049998 17.7,91.499997 21.15,87.449999 33.149999,88.499998 28.5,93.15 21.45,97.499998 Z"
       id="path12" /><rect
       style="fill:#144a44;stroke:#ffffff;stroke-width:2.57148;stroke-dasharray:none;stroke-opacity:1;fill-opacity:1"
       id="rect4"
       width="6.3381133"
       height="65.43811"
       x="44.638298"
       y="5.8373175" /><rect
       style="fill:#144a44;fill-opacity:1;stroke:#ffffff;stroke-width:1.89899;stroke-dasharray:none;stroke-opacity:1"
       id="rect48"
       width="6.268549"
       height="19.468548"
       x="43.393917"
       y="73.52211" /><rect
       style="fill:#144a44;fill-opacity:1;stroke:#ffffff;stroke-width:1.15399;stroke-dasharray:none;stroke-opacity:1"
       id="rect49"
       width="22.398264"
       height="10.490926"
       x="39.116375"
       y="68.971397" /><rect
       style="fill:#081e1c;fill-opacity:1;stroke:#ffffff;stroke-width:1.93422;stroke-dasharray:none;stroke-opacity:1"
       id="rect47"
       width="26.100521"
       height="7.136559"
       x="33.6408"
       y="67.243614" /><rect
       style="fill:#144a44;fill-opacity:1;stroke:#ffffff;stroke-width:2.54398;stroke-dasharray:none;stroke-opacity:1"
       id="rect50"
       width="30.920837"
       height="5.2708373"
       x="30.926105"
       y="92.925133" /><ellipse
       style="fill:#1585ff;fill-opacity:1;stroke:#ffffff;stroke-width:2.37053;stroke-dasharray:none;stroke-opacity:1"
       id="ellipse2"
       cx="44.565975"
       cy="45.018097"
       rx="24.151922"
       ry="23.847834"
       transform="matrix(0.99440353,-0.10564854,0.10419809,0.99455656,0,0)" /><path
       id="ellipse1"
       style="fill:#144a44;stroke:#ffffff;stroke-width:3.60021;stroke-dasharray:none;stroke-opacity:1;fill-opacity:1"
       d="m 41.355575,4.8663825 2.470032,6.7369045 A 30.192481,28.742008 55.634419 0 1 78.818793,31.361746 30.192481,28.742008 55.634419 0 1 64.450998,67.858132 l 2.750469,7.501782 A 37.725674,35.215281 60.130358 0 0 85.215031,29.622818 37.725674,35.215281 60.130358 0 0 41.355575,4.8663825 Z" /><ellipse
       style="fill:#144a44;stroke:#ffffff;stroke-width:2.60959;stroke-dasharray:none;stroke-opacity:1;fill-opacity:1"
       id="ellipse3"
       cx="64.75737"
       cy="72.23555"
       rx="8.279995"
       ry="8.1299953" /><ellipse
       style="fill:#144a44;stroke:#ffffff;stroke-width:1.54969;stroke-dasharray:none;stroke-opacity:1;fill-opacity:1"
       id="ellipse4"
       cx="64.75737"
       cy="72.160553"
       rx="4.9099431"
       ry="4.8349433" /><path
       style="fill:#806600;fill-opacity:1;stroke:#524200;stroke-width:1.66462;stroke-dasharray:none;stroke-opacity:1"
       d="m 58.326913,40.114033 c -0.145025,0.07158 -0.30303,0.100678 -0.435074,0.21473 -0.163065,0.140838 -0.28042,0.376529 -0.435075,0.536821 -0.424571,0.440043 -1.158706,0.964436 -1.595269,1.503096 -0.15756,0.194407 -0.259206,0.487947 -0.435074,0.644186 -0.06554,0.05822 -0.151174,0.05121 -0.217538,0.107364 -0.302285,0.255754 -0.53168,0.651251 -0.797635,0.966276 -0.219597,0.260113 -1.385506,-0.88729 -1.595271,-1.07364 -0.105031,-0.09331 -0.333678,0.10009 -0.435074,0 -0.05688,-0.05615 -0.0787,-0.19018 -0.145023,-0.214728 -0.04721,-0.01746 -0.532511,0.366042 -0.580099,0.429454 -0.04507,0.06006 -0.749334,1.109669 -0.797635,1.395735 -0.05871,0.347731 -0.13992,2.399809 -0.07251,2.898829 0.05,0.370165 0.106708,0.290681 0.217535,0.536822 0.02998,0.06658 0.05542,0.138809 0.07251,0.214728 0.0077,0.03395 -0.02307,0.09669 0,0.107365 1.021954,0.472854 0.839018,0.429454 1.522758,0.429454 0.193366,0 0.388676,-0.04049 0.580099,0 1.06884,0.226082 -1.132972,0.01593 1.015173,0.214728 0.144742,0.01339 0.292387,-0.03841 0.435074,0 0.896379,0.241313 0.05081,0.214729 0.507585,0.214729 0.802057,0 0.585461,0.968008 0.29005,1.717825 -0.116518,0.295748 -1.003177,1.538624 -0.870148,1.932554 0.05192,0.153748 0.669783,0.61141 0.725122,0.644186 0.806108,0.47742 1.879754,0.111486 2.610444,-0.429458 0.07795,-0.05771 0.137435,-0.163898 0.217537,-0.214728 0.276348,-0.175359 1.312716,-0.183428 1.595271,-0.107365 0.08574,0.02309 0.137433,0.163899 0.217535,0.214729 0.49428,0.313649 0.14568,-0.225795 0.725124,0.536822 0.09033,0.11888 0.140168,0.291989 0.217538,0.429456 0.331057,0.588211 0.663886,0.644184 1.160197,0.644184 0.2926,0 0.413724,0.08003 0.652609,-0.214726 0.359699,-0.443818 0.349785,-1.241069 0.507587,-1.82519 0.273311,-1.011683 0.557442,-1.164233 1.160197,-1.610464 0.356806,-0.26415 0.619065,-0.463508 1.015172,-0.536819 0.07195,-0.01331 0.15021,0.03987 0.217537,0 0.492557,-0.291719 0.841646,-0.792065 1.232709,-1.288371 0.216817,-0.275164 0.336823,-0.224958 0.362562,-0.644182 0.03495,-0.569241 0.08207,-1.705323 -0.07251,-2.254647 -0.129516,-0.46024 -0.856368,-1.216836 -1.160197,-1.610461 -0.255078,-0.330465 -0.975777,-0.870754 -1.015172,-1.395735 -0.06195,-0.825525 0.226198,-1.320103 0.65261,-1.82519 0.08441,-0.09998 0.205641,-0.114745 0.290049,-0.214726 0.0422,-0.04999 0.02927,-0.166713 0.07251,-0.214728 0.06115,-0.0679 0.149171,-0.05676 0.217537,-0.107364 0.192534,-0.142537 0.452866,-0.607736 0.580098,-0.858915 0.184421,-0.364079 -0.03412,-0.06316 0.07251,-0.536821 0.05127,-0.227753 0.170945,-0.414233 0.217537,-0.644183 0.02778,-0.137116 0,-0.286303 0,-0.429457 0,-0.02405 0.02471,-0.641818 0,-0.751549 -0.225208,-1.000353 -0.631888,-1.983673 -1.232709,-2.576736 -0.06397,-0.06314 -0.211036,0.0234 -0.290049,0 -0.120854,-0.03579 -0.260014,-0.208588 -0.362562,-0.107366 -0.05688,0.05615 -0.114451,0.124192 -0.145024,0.21473 -0.147012,0.435338 -0.291362,1.243435 -0.362562,1.717825 -0.07534,0.502004 0.07257,0.912467 -0.145024,1.395732 -0.03792,0.08423 -0.08388,0.169459 -0.145025,0.214729 -0.107237,0.07939 -0.926841,0.02343 -1.015172,-0.107365 -0.198655,-0.294134 -0.145025,-0.356213 -0.145025,-0.751549 0,-0.429455 0.05188,-0.86584 0,-1.288368 -0.01559,-0.126953 -0.127933,-0.195564 -0.145025,-0.322094 -0.09134,-0.676187 0,-1.772184 0,-2.469372 0,-0.357882 0.0267,-0.717951 0,-1.073642 -0.05814,-0.774722 -0.202468,-0.542122 0.217538,-1.288368 0.01546,-0.02749 0.05089,0.01601 0.07251,0 0.126059,-0.09333 0.230597,-0.248823 0.362562,-0.322094 0.214582,-0.119142 0.508489,-8.02e-4 0.725122,-0.214728 0.03844,-0.03795 0.542378,-0.677082 0.580099,-0.751549 0.127379,-0.251469 0.317302,-0.872362 0.507586,-0.966276 0.384101,-0.189572 0.746936,0.858914 0.942659,0.858914 0.05405,0 0.09668,-0.07158 0.145025,-0.107365 0.548289,-0.405907 0.431544,-1.403576 0.145025,-2.039917 -0.485303,-1.077833 -1.271596,-1.073642 -2.030344,-1.073642 -0.145025,0 -0.29438,-0.05208 -0.435075,0 -0.359723,0.133154 -0.474762,0.3454 -0.797634,0.644185 -0.185427,0.17159 -0.495378,0.437941 -0.580099,0.751547 -0.07402,0.274008 -0.114717,0.567229 -0.145025,0.858914 -0.035,0.336804 0.09159,1.231882 0,1.503097 -0.06164,0.182555 -0.407096,0.41779 -0.507585,0.53682 -0.264079,0.312803 -0.40232,0.678802 -0.580099,1.07364 -0.02417,0.03579 -0.04834,0.07158 -0.07251,0.107365 -0.02417,0 -0.05542,-0.02531 -0.07251,0 -0.01709,0.02531 0,0.07158 0,0.107364 -0.02417,0.03579 -0.04407,0.07929 -0.07251,0.107364 -0.222625,0.219753 -0.06742,-0.005 -0.290048,0.214729 -0.188102,0.185672 -0.581368,1.079278 -0.652611,1.395733 -0.145025,0.644185 0.145024,1.503099 0,2.147281 -0.06725,0.298742 -0.373428,1.023518 -0.507587,1.288371 -0.04102,0.08098 -0.07735,0.200411 -0.145023,0.214726 -0.142619,0.03016 -1.295818,0.07622 -1.450247,0 -0.101839,-0.05026 -0.220181,-0.212767 -0.362562,-0.107361 -0.234912,0.173907 0.183492,0.549912 0.217538,0.751547 0.02345,0.138879 -0.03057,0.29365 0,0.429457 0.01082,0.04801 0.05722,0.06209 0.07251,0.107364 0.06181,0.183027 0,1.340088 0,1.395732 z"
       id="path6" /><path
       style="fill:#806600;fill-opacity:1;stroke:#524200;stroke-width:0.674143;stroke-dasharray:none;stroke-opacity:1"
       d="m 31.302272,29.702229 c -0.140062,0.362499 -0.392954,0.668394 -0.574926,1.009622 -0.01939,0.03636 -0.01699,0.08208 -0.03962,0.116661 -0.01359,0.02075 -0.04506,0.0246 -0.06378,0.04136 -0.06359,0.05692 -0.128682,0.11334 -0.18231,0.178857 -0.124661,0.152306 -0.167046,0.354575 -0.279892,0.515065 -0.03838,0.05459 -0.104125,0.08632 -0.154932,0.130779 -0.119478,0.104572 -0.274423,0.27322 -0.437422,0.344262 -0.03553,0.01554 -0.09854,0.01786 -0.136579,0.0279 -0.04238,0.01121 -0.153614,0.0996 -0.170074,0.110267 -0.06378,0.04135 -0.145195,0.06536 -0.191336,0.124052 -0.06165,0.07842 -0.09227,0.366798 -0.12205,0.473383 -0.0543,0.193886 -0.207478,0.335989 -0.228349,0.542302 -0.0099,0.09822 0.01534,0.581647 0.01422,0.657972 -4.84e-4,0.03492 -0.02056,0.06796 -0.01837,0.102875 0.009,0.141177 0.137225,0.321687 0.187502,0.424311 0.03413,0.06958 0.05258,0.145946 0.09375,0.212154 0.07146,0.114897 0.161506,0.218773 0.242258,0.328156 0.03029,0.04102 0.04348,0.101115 0.09085,0.123059 0.05057,0.02341 0.107165,0.0316 0.160736,0.04745 0.08794,0.03396 0.180028,0.0592 0.263824,0.101887 0.135297,0.06892 0.261812,0.152772 0.391074,0.231668 0.130386,0.0796 0.0058,0.01132 0.127247,0.129786 0.05158,0.05029 0.09692,0.03321 0.169766,0.102214 0.157542,0.149236 0.39878,0.45715 0.566648,0.512081 0.01855,0.006 0.03844,-0.0047 0.05767,-0.0071 0.02427,0.0045 0.0498,0.0046 0.0728,0.01347 0.265251,0.102427 0.515269,0.219196 0.797593,0.271365 0.153197,0.02832 0.284937,0.0052 0.442923,0.04642 0.04925,0.01278 0.09069,0.0468 0.139483,0.0612 0.09158,0.02702 0.18248,0.02137 0.26994,0.06761 0.0077,0.0041 0.01011,0.01367 0.01516,0.0205 0.03437,0.01812 0.06715,0.03944 0.103083,0.05447 0.130183,0.05447 0.34163,0.07795 0.479323,0.05315 0.06801,-0.01225 0.113387,-0.07352 0.170073,-0.110274 0.275318,-0.178505 0.228354,-0.23959 0.373952,-0.515397 0.02071,-0.03924 0.05934,-0.06892 0.07601,-0.109938 0.109099,-0.268294 0.268688,-0.839091 0.201899,-1.131686 -0.01307,-0.05723 -0.06831,-0.100816 -0.08473,-0.157351 -0.01558,-0.05362 -0.01,-0.111154 -0.02707,-0.164408 -0.03149,-0.0982 -0.08964,-0.188471 -0.117926,-0.287465 -0.01845,-0.06452 -0.01336,-0.132512 -0.02094,-0.198702 -0.02825,-0.246433 -0.03928,-0.494234 -0.07478,-0.740009 -0.0077,-0.05364 -0.148944,-0.578757 -0.144676,-0.664367 0.01085,-0.217648 0.06655,-0.224197 0.05216,-0.397738 -0.02699,-0.325583 -0.113068,-0.652808 -0.126013,-0.979733 -0.0096,-0.242245 0.01695,-0.484562 -0.002,-0.726555 -0.01394,-0.17825 -0.213399,-0.394919 -0.105369,-0.568545 0.338818,-0.544545 0.167643,-0.333865 0.51986,-0.700981 0.08827,-0.09199 0.14486,-0.239195 0.273467,-0.268284 0.211774,-0.0479 0.429337,-0.0099 0.643278,-0.02283 0.61026,-0.03691 -0.409059,-0.03402 0.303439,-0.01478 0.11359,0.0031 -0.0016,-0.02117 0.136579,-0.0279 0.08636,-0.0042 0.05293,0.03319 0.13046,0.0064 0.0162,-0.0055 0.02835,-0.01839 0.04253,-0.02757 0.0334,-0.01154 0.06586,-0.0256 0.10018,-0.03462 0.04479,-0.01186 0.09343,-0.01173 0.136579,-0.0279 0.120466,-0.0451 0.21937,-0.129649 0.334031,-0.186248 0.336256,-0.165946 0.396025,-0.170324 0.665155,-0.461589 0.09301,-0.100663 0.449947,-0.411576 0.407446,-0.597769 -0.05988,-0.262312 -0.317838,-0.514707 -0.45102,-0.738681 -0.02204,-0.037 -0.03343,-0.07882 -0.05444,-0.116334 -0.03303,-0.05883 -0.08725,-0.105668 -0.121125,-0.164077 -0.06945,-0.119794 -0.04765,-0.209417 -0.16946,-0.314706 -0.106788,-0.0923 -0.266608,-0.103649 -0.382049,-0.176866 -0.112167,-0.07114 -0.179629,-0.312588 -0.245162,-0.417252 -0.07897,-0.126137 -0.183351,-0.248363 -0.27254,-0.369175 -0.01516,-0.0205 -0.01931,-0.06163 -0.04543,-0.06153 -0.432069,0.0015 -0.661671,0.275425 -0.959571,0.531171 -0.108265,0.09294 -0.238182,0.161708 -0.346264,0.254833 -0.193029,0.166324 -0.369047,0.349735 -0.562072,0.516061 -0.100735,0.0868 -0.238468,0.134714 -0.340149,0.220541 -0.188238,0.158892 -0.283595,0.398461 -0.458987,0.570532 -0.150043,0.147204 -0.330944,0.26371 -0.486059,0.406122 -0.04483,0.04118 -0.07561,0.09452 -0.118531,0.137507 -0.07171,0.07183 -0.149884,0.137614 -0.224828,0.206422 -0.08203,0.0734 -0.168379,0.14271 -0.246087,0.220209 -0.06737,0.06719 -0.124006,0.143421 -0.188429,0.213152 -0.0113,0.01225 -0.03633,0.01234 -0.04252,0.02757 -0.0608,0.149511 0.07811,0.299807 0.05092,0.452209 -0.0054,0.03063 -0.05048,0.05094 -0.06989,0.07564 -0.02761,0.03511 -0.05403,0.07134 -0.07602,0.109937 -0.0058,0.01014 0.0019,0.02565 -0.0061,0.0343 -0.02261,0.02446 -0.06453,0.02904 -0.08504,0.05513 -0.06159,0.07834 -0.03966,0.177471 -0.04894,0.274347 z"
       id="path1" /><path
       style="fill:#806600;fill-opacity:1;stroke:#524200;stroke-width:0.995627;stroke-dasharray:none;stroke-opacity:1"
       d="m 39.814504,40.446061 c -0.380778,0.452093 -0.885553,0.771683 -1.31226,1.174206 -0.04547,0.04289 -0.06616,0.109137 -0.115109,0.148005 -0.02937,0.02331 -0.07427,0.01435 -0.108536,0.02961 -0.116449,0.05186 -0.234666,0.102339 -0.342046,0.171037 -0.249614,0.159705 -0.41338,0.428397 -0.651196,0.60519 -0.08088,0.06013 -0.187056,0.07513 -0.279557,0.115123 -0.217532,0.09408 -0.516962,0.263148 -0.776189,0.289456 -0.05653,0.0058 -0.14355,-0.01984 -0.200627,-0.02302 -0.06358,-0.0035 -0.261418,0.07131 -0.289424,0.07894 -0.108536,0.0296 -0.232005,0.0264 -0.325608,0.08881 -0.125069,0.08338 -0.317896,0.480212 -0.414388,0.61834 -0.175554,0.251298 -0.458698,0.383338 -0.595282,0.667681 -0.06502,0.135366 -0.284039,0.83572 -0.325575,0.943945 -0.019,0.04951 -0.06365,0.08736 -0.07893,0.138137 -0.06177,0.205266 0.01824,0.521368 0.03291,0.690681 0.01,0.114815 -0.0049,0.232095 0.01646,0.345341 0.03708,0.196535 0.105261,0.385905 0.15789,0.578854 0.01974,0.07236 0.0062,0.16404 0.05921,0.217069 0.0566,0.0566 0.12937,0.09428 0.194055,0.141421 0.101961,0.0888 0.214135,0.16708 0.305882,0.266396 0.148133,0.160352 0.276466,0.337964 0.411139,0.509775 0.135845,0.173314 0.0019,0.01871 0.105255,0.243381 0.04389,0.09536 0.11458,0.09186 0.177612,0.223642 0.136316,0.285014 0.303429,0.834559 0.503245,0.989963 0.02207,0.01716 0.05482,0.01096 0.08223,0.01644 0.0307,0.01754 0.06543,0.0294 0.09209,0.05262 0.307533,0.267832 0.586818,0.549077 0.943958,0.753142 0.193797,0.110732 0.385297,0.138412 0.578867,0.269675 0.06033,0.04091 0.09897,0.108359 0.157877,0.151286 0.11056,0.08058 0.237308,0.114309 0.332194,0.22035 0.0083,0.0093 0.0066,0.02412 0.0099,0.03618 0.03728,0.04166 0.07077,0.08704 0.111829,0.124977 0.148735,0.13743 0.42441,0.268016 0.624914,0.295987 0.09905,0.01381 0.192952,-0.05263 0.289427,-0.07895 0.468528,-0.127797 0.436592,-0.236407 0.779467,-0.56244 0.04878,-0.04638 0.116946,-0.07093 0.161156,-0.121697 0.28923,-0.332103 0.8058,-1.071982 0.868235,-1.519533 0.01221,-0.08754 -0.04017,-0.175029 -0.0329,-0.263117 0.0069,-0.08356 0.04467,-0.162949 0.04932,-0.246673 0.0086,-0.15438 -0.02327,-0.309708 -0.0099,-0.463745 0.0087,-0.100396 0.05127,-0.194931 0.07564,-0.292719 0.09072,-0.364076 0.205602,-0.722189 0.286102,-1.088658 0.01757,-0.07998 0.100567,-0.893 0.15126,-1.013008 0.128879,-0.3051 0.208157,-0.288837 0.279542,-0.54269 0.133932,-0.47626 0.188246,-0.982016 0.342005,-1.453735 0.113932,-0.349535 0.277101,-0.682573 0.378195,-1.036035 0.07447,-0.260354 -0.08359,-0.660709 0.154555,-0.858427 0.746901,-0.620112 0.403338,-0.398617 1.075465,-0.759789 0.168437,-0.0905 0.322676,-0.274215 0.513072,-0.256555 0.313519,0.02908 0.589889,0.183204 0.888031,0.263088 0.850441,0.227864 -0.539253,-0.236447 0.420991,0.118388 0.153086,0.05657 0.0089,-0.0309 0.200627,0.02302 0.119821,0.0337 0.05469,0.07161 0.174318,0.06906 0.02501,-4.99e-4 0.04824,-0.01316 0.07236,-0.01974 0.05153,-0.0011 0.103121,-0.0062 0.154582,-0.0033 0.06721,0.0037 0.133389,0.02622 0.200627,0.02302 0.187705,-0.0089 0.36672,-0.0839 0.552545,-0.111844 0.544932,-0.0819 0.628626,-0.06067 1.147837,-0.351958 0.179443,-0.100669 0.828536,-0.379601 0.868265,-0.664402 0.05597,-0.401232 -0.163021,-0.879365 -0.226981,-1.259665 -0.01061,-0.06284 -0.0042,-0.127664 -0.01316,-0.190762 -0.01414,-0.099 -0.06343,-0.190636 -0.07894,-0.289424 -0.03178,-0.202586 0.04489,-0.320253 -0.0658,-0.526235 -0.09704,-0.180584 -0.308748,-0.270189 -0.42758,-0.427551 -0.115463,-0.152894 -0.08076,-0.527893 -0.115137,-0.707123 -0.04142,-0.215997 -0.119498,-0.4381 -0.177626,-0.65121 -0.0099,-0.03618 0.006,-0.09668 -0.02961,-0.108536 -0.589219,-0.196384 -1.0455,0.08833 -1.585273,0.315794 -0.196161,0.08266 -0.409146,0.120929 -0.605161,0.203936 -0.350073,0.148256 -0.685937,0.328674 -1.036009,0.476935 -0.182698,0.07737 -0.395384,0.08234 -0.578854,0.15789 -0.339654,0.13987 -0.595111,0.437363 -0.924178,0.601912 -0.28151,0.14077 -0.588952,0.223624 -0.874855,0.355236 -0.08266,0.03807 -0.152535,0.09991 -0.233513,0.141434 -0.135318,0.06938 -0.276266,0.127181 -0.414402,0.190773 -0.150195,0.06688 -0.304124,0.125939 -0.450582,0.200642 -0.12696,0.06476 -0.244062,0.147348 -0.368358,0.217086 -0.0218,0.01227 -0.05594,8.91e-4 -0.07236,0.01974 -0.161181,0.185067 -0.05079,0.463032 -0.167716,0.667664 -0.0235,0.04112 -0.09545,0.04938 -0.134845,0.07565 -0.056,0.03735 -0.110992,0.07681 -0.161154,0.121697 -0.01318,0.01178 -0.01089,0.03739 -0.02631,0.04605 -0.04361,0.02446 -0.103113,0.01173 -0.144714,0.03947 -0.124943,0.0833 -0.14711,0.234579 -0.210479,0.368372 z"
       id="path11" /><path
       style="fill:none;fill-opacity:1;stroke:#ffffff;stroke-width:2.60959;stroke-dasharray:none;stroke-opacity:1"
       d="M 26.516505,32.773236 C 42.116902,49.387918 57.83511,47.522888 72.337023,46.561819"
       id="path4"
       sodipodi:nodetypes="cc" /><path
       style="fill:#806600;fill-opacity:1;stroke:#524200;stroke-width:1.15438;stroke-dasharray:none;stroke-opacity:1"
       d="m 38.339389,34.227748 c -0.09404,-0.248561 -0.265893,-0.48042 -0.282114,-0.745678 -0.01534,-0.250779 0.122407,-0.487456 0.191929,-0.728894 0.04844,-0.168163 0.09139,-0.343098 0.183538,-0.491872 0.147001,-0.237345 1.168125,0.03667 1.378088,-0.04614 0.232566,-0.09172 0.453855,-0.228779 0.631364,-0.404819 0.155766,-0.154487 0.257581,-0.690305 0.340856,-0.913478 0.03426,-0.09183 0.555236,-1.277876 0.550615,-1.475619 -0.0041,-0.175722 -0.149653,-0.290905 0.01678,-0.474043 0.215322,-0.236934 0.549559,-0.328614 0.824337,-0.492919 0.154255,-0.09224 0.340946,-0.34004 0.534876,-0.360773 0.07211,-0.0077 0.761586,0.248786 0.84321,0.314636 0.01669,0.01348 0.551037,0.668581 0.545358,0.683801 -0.198616,0.532281 -0.534066,0.624163 -0.867341,1.03723 -0.221391,0.274398 -0.481891,1.00453 -0.542222,1.238595 -0.157778,0.612111 0.153039,0.800456 0.212891,1.36026 0.07107,0.664758 -0.119295,0.79801 -0.287373,1.41374 -0.08718,0.319369 0.0021,0.752809 -0.226542,1.036187 -0.238281,0.295333 -0.22318,0.226252 -0.578924,0.264287 -0.119417,0.01277 -0.573252,0.122096 -0.763507,0.115359 -0.308891,-0.01094 -0.938028,-0.350017 -1.264814,-0.471955 -0.155217,-0.05792 -0.950706,-0.282403 -1.054013,-0.393296 -0.13739,-0.147476 -0.257995,-0.309739 -0.386994,-0.464609 z"
       id="path9" /><path
       style="fill:none;fill-opacity:1;stroke:#ffffff;stroke-width:2.55474;stroke-dasharray:none;stroke-opacity:1"
       d="M 48.962547,16.090954 C 38.885398,32.162103 31.626638,46.467459 37.413495,61.058318"
       id="path5"
       sodipodi:nodetypes="cc" /><path
       style="fill:#806600;fill-opacity:1;stroke:#524200;stroke-width:0.966853;stroke-dasharray:none;stroke-opacity:1"
       d="m 51.651248,61.782124 c -0.429349,0.07385 -0.775883,0.02555 -1.193568,-0.04028 -0.354991,-0.05596 -0.712513,-0.112312 -1.067501,-0.168265 -0.322718,-0.05086 -0.709506,-0.02071 -1.001519,-0.172651 -0.28694,-0.149297 -0.285476,-0.346274 -0.42537,-0.569764 -0.08997,-0.143723 -0.297836,-0.287447 -0.353491,-0.454932 -0.01257,-0.03784 -0.0039,-0.07948 -0.0059,-0.119215 -0.04694,-0.05669 -0.106312,-0.106282 -0.140807,-0.170053 -0.04878,-0.09018 -0.02609,-0.206368 -0.08072,-0.293651 -0.01516,-0.0242 -0.04595,-0.03681 -0.06893,-0.05521 -0.0019,-0.03974 0.0099,-0.08244 -0.0059,-0.119216 -0.03346,-0.07802 -0.151562,-0.09896 -0.206792,-0.165666 -0.01301,-0.01573 0.0133,-0.0466 -0.003,-0.05961 -0.01624,-0.01301 -0.05526,0.0215 -0.06599,0.0044 -0.102361,-0.163527 -0.02693,-0.742369 0.02176,-0.898498 0.04372,-0.140152 0.217713,-0.162182 0.321067,-0.200747 0.05814,-0.0217 0.06516,-0.11467 0.126068,-0.127987 0.967742,-0.211601 1.790181,0.50993 2.620455,0.782693 1.132111,0.371923 -0.05361,-0.02324 0.599734,0.07974 0.116187,0.01831 0.221768,0.07091 0.335805,0.09729 0.240527,0.05561 0.546167,-0.09133 0.79178,-0.05263 0.173586,-0.113172 0.175121,0.07977 0.269824,0.101673 0.04234,0.0098 0.08961,-0.01857 0.131963,-0.0087 0.215693,0.04988 0.777873,0.315273 0.947328,0.415468 0.394608,0.233316 -0.223837,-0.02213 0.410631,0.271724 0.124463,0.05764 0.70853,-0.16321 0.719904,-0.167453 0.08592,-0.03207 0.172859,-0.152783 0.255084,-0.196362 0.186588,-0.09889 1.072002,-0.02596 1.319636,-0.08771 0.939516,-0.234287 1.29293,-0.986996 2.058356,-1.213266 0.205859,-0.06086 2.382451,-0.190687 2.705254,-0.179797 0.133625,0.0045 0.268561,0.0086 0.398837,0.0333 0.06058,0.01146 0.08098,0.08901 0.13786,0.110446 0.160356,0.06042 0.426421,0.06611 0.596784,0.02013 0.328142,-0.08856 0.354701,-0.157405 0.582045,-0.277898 0.425352,-0.225434 1.059069,-0.124717 1.39741,0.146339 0.01624,0.01301 -0.0133,0.04659 0.003,0.05961 0.05119,0.04101 0.249355,0.02722 0.269824,0.101674 0.016,0.05818 0.03951,0.460695 0.02358,0.47686 -0.04586,0.04655 -0.195995,0.05291 -0.258032,0.136756 -0.240261,0.324712 -0.418082,0.569347 -0.753457,0.82752 -0.06131,0.04719 -0.05911,0.14347 -0.123121,0.187592 -0.04214,0.02904 -0.673649,0.08351 -0.788834,0.112236 -0.079,0.0197 -0.555085,0.14437 -0.58794,0.158683 -0.116148,0.0506 -0.194401,0.163303 -0.321065,0.200748 -0.288477,0.08527 -0.289559,-0.03005 -0.653924,0.163068 -0.592328,0.313934 0.450233,-0.07433 -0.318117,0.260356 -0.04011,0.01747 -0.09085,-0.0066 -0.131963,0.0087 -0.08721,0.03253 -0.113774,0.140057 -0.189101,0.191978 -0.01181,0.0081 -0.246146,0.07162 -0.26098,0.07715 -0.300409,0.112099 -0.530712,-0.09564 -0.800626,-0.126199 -0.161892,-0.01833 -0.90192,0.01278 -1.055709,0.07016 -0.132904,0.04959 -0.668839,0.379154 -0.774095,0.410269 -0.170686,0.05046 -0.358472,0.0065 -0.524906,0.09468 -0.08354,0.04427 -0.253163,0.09231 -0.324012,0.141141 -0.116619,0.08038 -0.143109,0.137018 -0.255084,0.196364 -0.226669,0.120134 -1.329409,0.01547 -1.589459,-0.01396 -0.169663,-0.01921 -0.359865,0.06156 -0.527855,0.03508 -0.160814,-0.02535 -0.330115,-0.03664 -0.467769,-0.08852 -0.122106,-0.04601 -0.390714,0.02597 -0.527855,0.03508 -0.405144,0.02692 -0.782802,0.04471 -1.190619,0.01933 z"
       id="path8" /><path
       style="fill:#806600;fill-opacity:1;stroke:#524200;stroke-width:0.884283;stroke-dasharray:none;stroke-opacity:1"
       d="m 52.338762,26.431469 c -0.09711,0.409748 -0.385178,0.694825 -0.526689,1.061521 -0.03489,0.09042 0,0.202192 0,0.303289 0,0.334777 -0.05836,0.796238 0.234085,0.985696 0.05234,0.03391 0.118788,-0.0184 0.175562,0 0.197307,0.06391 0.368253,0.231961 0.585211,0.151646 0.298067,-0.110341 0.518388,-0.440595 0.70225,-0.758227 0.05894,-0.101813 0.01336,-0.41016 0.117043,-0.454937 0.361175,-0.155984 1.213582,0.223439 1.521546,-0.07582 0.303936,-0.295344 -0.552262,-0.79136 -0.585211,-0.83405 -0.04362,-0.05651 0.03901,-0.151644 0.05852,-0.227467 0.03145,-0.122261 0.01404,-0.263846 0.05852,-0.379114 0.155572,-0.403131 0.542942,-0.303291 0.819296,-0.303291 0.117042,0 0.255885,-0.08815 0.351126,0 0.02729,0.02525 0.49369,0.554143 0.526689,0.682405 0.03443,0.133862 0,0.489568 0,0.606582 0,0.154746 0.04605,0.942177 0,1.061518 -0.122864,0.318376 -0.36007,0.629755 -0.468169,0.909875 -0.02759,0.07149 -0.01998,0.165057 -0.05852,0.227467 -0.04394,0.07116 -0.119296,0.09697 -0.175564,0.151646 -0.05852,0.05687 -0.117042,0.189556 -0.175562,0.227467 -0.03489,0.0226 -0.07919,-0.01225 -0.117043,0 -0.36315,0.11763 -0.351126,0.542731 -0.351126,0.909874 0,0.385065 -0.122055,0.98353 0.234084,1.137343 0.16727,0.07224 0.576668,0.155331 0.760773,0.07582 0.168835,-0.07291 0.168754,-0.294467 0.292605,-0.454937 0.08832,-0.114434 0.215921,-0.175546 0.292604,-0.303292 0.19732,-0.3287 0.345728,-0.785646 0.526691,-1.137338 0.05852,-0.113736 0.11704,-0.07582 0.175562,-0.227471 0.01745,-0.04521 -0.01121,-0.103228 0,-0.151645 0.117544,-0.507657 0.279873,-1.012033 0.409647,-1.516456 0.03971,-0.154358 0.140304,-0.317888 0.175562,-0.454937 0.08478,-0.329532 -0.02582,-1.145166 -0.11704,-1.440631 -0.02612,-0.08461 -0.09092,-0.142859 -0.117042,-0.227468 -0.09758,-0.316068 0.211139,-0.529251 0.117042,-0.834051 -0.11882,-0.38487 -0.234084,-0.436336 -0.234084,-0.909873 0,-0.334618 -0.0036,-0.23707 0.234084,-0.606582 0.0567,-0.08817 0.168198,-0.246382 0.234082,-0.303291 0.06153,-0.05315 0.816917,-3.48e-4 0.819295,0 0.04335,0.0063 0.07566,0.05795 0.117042,0.07582 0.28867,0.124672 0.351125,-0.294429 0.351125,-0.53076 0,-0.202194 0,-0.404388 0,-0.606582 0,-0.05055 0.02007,-0.108301 0,-0.151645 -0.177018,-0.382255 -0.505592,-0.454937 -0.819293,-0.454937 -0.215223,0 -1.594693,-0.09794 -1.755631,0.07582 -0.319779,0.345268 -0.835126,1.559494 -1.170419,1.668101 -0.0148,0.0048 -0.390961,0.08389 -0.409647,0.07582 -0.02617,-0.0113 -0.03235,-0.06452 -0.05852,-0.07582 -0.231982,-0.100187 -0.685328,-0.260053 -0.936337,-0.151646 -0.09253,0.03996 -0.157921,0.148525 -0.234084,0.227469 -0.08289,0.08592 -0.324943,0.743584 -0.351125,0.83405 -0.02054,0.07099 0,0.151645 0,0.227468 -0.03901,0.126372 -0.07006,0.257377 -0.117042,0.379114 -0.06563,0.170057 -0.219738,0.663816 -0.292605,0.758228 -0.229486,0.297333 -0.54367,0.554163 -0.819294,0.758226 z"
       id="path10" /><path
       style="fill:#081e1c;fill-opacity:1;stroke:#ffffff;stroke-width:1.76292;stroke-dasharray:none;stroke-opacity:1"
       d="m 97.668688,95.964027 -10.301012,-4.126944 -2.809702,-4.517805 -12.02277,-0.745296 3.907189,5.289507 6.325122,5.349562 z"
       id="path14" /><path
       style="fill:#806600;fill-opacity:1;stroke:#524200;stroke-width:0.430715;stroke-dasharray:none;stroke-opacity:1"
       d="m 30.410103,43.509845 c 0.07272,0.28501 0.204016,0.525516 0.298493,0.793802 0.01007,0.02859 0.0088,0.06453 0.02057,0.09172 0.0071,0.01631 0.0234,0.01934 0.03311,0.03252 0.03301,0.04475 0.06681,0.08911 0.09465,0.140624 0.06472,0.119748 0.08673,0.27878 0.145315,0.404963 0.01993,0.04292 0.05406,0.06787 0.08044,0.102823 0.06203,0.08222 0.142476,0.214815 0.227103,0.270671 0.01845,0.01222 0.05116,0.01404 0.07091,0.02194 0.022,0.0088 0.07976,0.07831 0.0883,0.0867 0.03311,0.03251 0.07538,0.05139 0.09934,0.09753 0.03201,0.06166 0.04791,0.288391 0.06337,0.372192 0.02819,0.15244 0.107719,0.264166 0.118555,0.426377 0.0051,0.07722 -0.008,0.457312 -0.0074,0.517322 2.52e-4,0.02746 0.01067,0.05343 0.0095,0.08088 -0.0047,0.110999 -0.07124,0.252922 -0.09735,0.333609 -0.01772,0.05471 -0.0273,0.114748 -0.04867,0.166803 -0.0371,0.09034 -0.08385,0.172007 -0.125777,0.258008 -0.01573,0.03225 -0.02257,0.0795 -0.04717,0.09675 -0.02626,0.01841 -0.05564,0.02484 -0.08345,0.03731 -0.04566,0.0267 -0.09347,0.04655 -0.136973,0.08011 -0.07024,0.05419 -0.135929,0.120115 -0.20304,0.182146 -0.06769,0.06258 -0.003,0.0089 -0.06607,0.102042 -0.02678,0.03954 -0.05032,0.02611 -0.08814,0.08037 -0.08179,0.117335 -0.207041,0.359428 -0.294196,0.402617 -0.0096,0.0047 -0.01996,-0.0037 -0.02994,-0.0056 -0.0126,0.0035 -0.02585,0.0036 -0.0378,0.01059 -0.137714,0.08053 -0.26752,0.17234 -0.414098,0.213357 -0.07954,0.02227 -0.147935,0.0041 -0.229959,0.0365 -0.02557,0.01005 -0.04708,0.0368 -0.07242,0.04812 -0.04755,0.02124 -0.09474,0.0168 -0.140148,0.05316 -0.004,0.0032 -0.0052,0.01075 -0.0079,0.01612 -0.01784,0.01425 -0.03486,0.03101 -0.05352,0.04283 -0.06759,0.04283 -0.17737,0.06129 -0.248858,0.04179 -0.03531,-0.0096 -0.05887,-0.0578 -0.0883,-0.0867 -0.142941,-0.140348 -0.118558,-0.188375 -0.19415,-0.405224 -0.01075,-0.03085 -0.03081,-0.05419 -0.03946,-0.08644 -0.05664,-0.210942 -0.139498,-0.659724 -0.104823,-0.889773 0.0068,-0.045 0.03547,-0.07926 0.04399,-0.123715 0.0081,-0.04216 0.0052,-0.08739 0.01405,-0.129263 0.01635,-0.07721 0.04654,-0.148183 0.06123,-0.226016 0.0096,-0.05073 0.0069,-0.104186 0.01087,-0.156227 0.01467,-0.193754 0.02039,-0.388585 0.03882,-0.581822 0.004,-0.04217 0.07733,-0.45504 0.07511,-0.52235 -0.0056,-0.171122 -0.03455,-0.176271 -0.02708,-0.312716 0.01401,-0.255985 0.0587,-0.513261 0.06542,-0.770302 0.005,-0.190462 -0.0088,-0.38098 0.001,-0.571244 0.0072,-0.140147 0.110793,-0.3105 0.05471,-0.447011 -0.17591,-0.428141 -0.08704,-0.262497 -0.269904,-0.551137 -0.04583,-0.07233 -0.07521,-0.188064 -0.14198,-0.210934 -0.10995,-0.03766 -0.222905,-0.0078 -0.33398,-0.01795 -0.316838,-0.02902 0.212377,-0.02675 -0.157541,-0.01162 -0.05897,0.0024 8.3e-4,-0.01664 -0.07091,-0.02194 -0.04484,-0.0033 -0.02748,0.02609 -0.06773,0.005 -0.0084,-0.0043 -0.01472,-0.01446 -0.02208,-0.02168 -0.01734,-0.0091 -0.03419,-0.02013 -0.05201,-0.02722 -0.02325,-0.0093 -0.04851,-0.0092 -0.07091,-0.02194 -0.06254,-0.03546 -0.113893,-0.101935 -0.173423,-0.146435 -0.17458,-0.130473 -0.205611,-0.133915 -0.345339,-0.362918 -0.04829,-0.07914 -0.233606,-0.323596 -0.21154,-0.469988 0.03109,-0.206239 0.165017,-0.404682 0.234163,-0.580778 0.01144,-0.02909 0.01736,-0.06197 0.02826,-0.09147 0.01715,-0.04625 0.0453,-0.08308 0.06289,-0.129003 0.03606,-0.09419 0.02474,-0.164652 0.08798,-0.247434 0.05544,-0.07257 0.138419,-0.08149 0.198354,-0.139058 0.05823,-0.05593 0.09326,-0.245769 0.127284,-0.328059 0.041,-0.09917 0.09519,-0.195272 0.141499,-0.290259 0.0079,-0.01612 0.01003,-0.04846 0.02359,-0.04838 0.224323,0.0012 0.343529,0.216549 0.498195,0.417626 0.05621,0.07307 0.12366,0.127141 0.179775,0.200359 0.100217,0.13077 0.191603,0.274974 0.291819,0.405746 0.0523,0.06825 0.123809,0.105917 0.1766,0.173397 0.09773,0.124927 0.147239,0.313285 0.238299,0.448574 0.0779,0.115737 0.171822,0.207338 0.252355,0.319308 0.02328,0.03238 0.03926,0.07431 0.06154,0.108113 0.03723,0.05647 0.07782,0.108197 0.116727,0.162296 0.04259,0.05771 0.08742,0.112204 0.127765,0.173136 0.03498,0.05283 0.06438,0.112763 0.09783,0.167588 0.0059,0.0096 0.01886,0.0097 0.02208,0.02168 0.03157,0.117551 -0.04055,0.235719 -0.02644,0.355543 0.0028,0.02408 0.02621,0.04005 0.03629,0.05947 0.01433,0.02761 0.02805,0.05609 0.03947,0.08644 0.003,0.008 -9.86e-4,0.02017 0.0032,0.02697 0.01174,0.01923 0.0335,0.02283 0.04415,0.04335 0.03198,0.06159 0.02059,0.139534 0.02541,0.215701 z"
       id="path2" /></g></svg>
