<?xml version="1.0" encoding="UTF-8" standalone="no"?>
<!-- Created with Inkscape (http://www.inkscape.org/) -->

<svg
   width="377.95276"
   height="377.95276"
   viewBox="0 0 100 100"
   version="1.1"
   id="svg1"
   inkscape:version="1.4.2 (ebf0e940d0, 2025-05-08)"
   sodipodi:docname="portal.svg"
   xmlns:inkscape="http://www.inkscape.org/namespaces/inkscape"
   xmlns:sodipodi="http://sodipodi.sourceforge.net/DTD/sodipodi-0.dtd"
   xmlns="http://www.w3.org/2000/svg"
   xmlns:svg="http://www.w3.org/2000/svg">
  <sodipodi:namedview
     id="namedview1"
     pagecolor="#505050"
     bordercolor="#eeeeee"
     borderopacity="1"
     inkscape:showpageshadow="0"
     inkscape:pageopacity="0"
     inkscape:pagecheckerboard="0"
     inkscape:deskcolor="#505050"
     inkscape:document-units="px"
     inkscape:zoom="1.7638889"
     inkscape:cx="216.85039"
     inkscape:cy="135.77953"
     inkscape:window-width="1366"
     inkscape:window-height="697"
     inkscape:window-x="0"
     inkscape:window-y="0"
     inkscape:window-maximized="1"
     inkscape:current-layer="layer1" />
  <defs
     id="defs1">
    <filter
       style="color-interpolation-filters:sRGB;"
       inkscape:label="Blur"
       id="filter25"
       x="-0.32316606"
       y="-0.26186036"
       width="1.6463321"
       height="1.5237207">
      <feGaussianBlur
         stdDeviation="4.88923 3.846"
         result="blur"
         id="feGaussianBlur25" />
    </filter>
  </defs>
  <g
     inkscape:label="Camada 1"
     inkscape:groupmode="layer"
     id="layer1">
    <path
       sodipodi:type="star"
       style="fill:#ffc903;fill-opacity:1;stroke:#ab5f00;stroke-width:3.32343;stroke-linecap:round;stroke-linejoin:round;stroke-dasharray:none;stroke-opacity:1"
       id="path17"
       inkscape:flatsided="true"
       sodipodi:sides="3"
       sodipodi:cx="1.5"
       sodipodi:cy="9.8999996"
       sodipodi:r1="15.358711"
       sodipodi:r2="7.6793551"
       sodipodi:arg1="-0.2165503"
       sodipodi:arg2="0.83064725"
       inkscape:rounded="0"
       inkscape:randomized="0"
       d="M 16.5,6.5999996 -3.1421163,24.540381 -8.857884,-1.4403818 Z"
       inkscape:transform-center-x="2.7333904"
       inkscape:transform-center-y="1.9896026"
       transform="matrix(-1.1776481,0,0,1.2058196,87.604148,64.222791)" />
    <path
       sodipodi:type="star"
       style="fill:#ffc903;fill-opacity:1;stroke:#ab5f00;stroke-width:3.32343;stroke-linecap:round;stroke-linejoin:round;stroke-dasharray:none;stroke-opacity:1"
       id="path16"
       inkscape:flatsided="true"
       sodipodi:sides="3"
       sodipodi:cx="1.5"
       sodipodi:cy="9.8999996"
       sodipodi:r1="15.358711"
       sodipodi:r2="7.6793551"
       sodipodi:arg1="-0.2165503"
       sodipodi:arg2="0.83064725"
       inkscape:rounded="0"
       inkscape:randomized="0"
       d="M 16.5,6.5999996 -3.1421163,24.540381 -8.857884,-1.4403818 Z"
       inkscape:transform-center-x="-2.7333904"
       inkscape:transform-center-y="1.9896026"
       transform="matrix(1.1776481,0,0,1.2058196,12.442039,63.022791)" />
    <path
       sodipodi:type="star"
       style="fill:#e47f00;fill-opacity:1;stroke:none;stroke-width:3.32343;stroke-linecap:round;stroke-linejoin:round;stroke-dasharray:none;stroke-opacity:1"
       id="path4"
       inkscape:flatsided="true"
       sodipodi:sides="3"
       sodipodi:cx="1.5"
       sodipodi:cy="9.8999996"
       sodipodi:r1="15.358711"
       sodipodi:r2="7.6793551"
       sodipodi:arg1="-0.2165503"
       sodipodi:arg2="0.83064725"
       inkscape:rounded="0"
       inkscape:randomized="0"
       d="M 16.5,6.5999996 -3.1421163,24.540381 -8.857884,-1.4403818 Z"
       inkscape:transform-center-x="-1.4484754"
       inkscape:transform-center-y="1.1864099"
       transform="matrix(0.62405806,0,0,0.71903649,20.032311,68.045118)" />
    <path
       id="path5"
       style="fill:#e47f00;stroke-width:3.32343;stroke-linecap:round;stroke-linejoin:round"
       inkscape:transform-center-x="1.4484749"
       inkscape:transform-center-y="1.1864099"
       transform="matrix(-0.62405806,0,0,0.71903649,82.054484,68.495118)"
       d="M 10.7213,4.6085969 -3.1421163,24.540381 -9.8776547,-1.0716035 Z"
       sodipodi:nodetypes="cccc" />
    <path
       id="rect15"
       style="fill:#ffc903;stroke:#ab5f00;stroke-width:3.32343;stroke-linecap:round;stroke-linejoin:round"
       d="m 6.5752593,83.105417 87.9858727,-0.636396 3.18198,15.574102 H 2.7568827 Z"
       sodipodi:nodetypes="ccccc" />
    <path
       id="path15"
       style="fill:#ffc903;fill-opacity:1;stroke:#ab5f00;stroke-width:2.9634;stroke-linecap:round;stroke-linejoin:round;stroke-dasharray:none;stroke-opacity:1"
       d="M 50.628988,4.920137 A 38.580003,37.398808 0 0 0 12.049304,42.318629 38.580003,37.398808 0 0 0 24.903433,70.188956 l -6.170053,11.909188 17.55396,-0.07739 -3.854066,-6.72398 A 38.580003,37.398808 0 0 0 50.628988,79.717575 38.580003,37.398808 0 0 0 68.500942,75.46287 L 65.335641,81.5727 82.889601,81.49531 76.39091,70.157729 A 38.580003,37.398808 0 0 0 89.209115,42.318629 38.580003,37.398808 0 0 0 50.628988,4.920137 Z m 0.257677,10.864182 A 26.90375,27.060091 0 0 1 77.790614,42.844074 26.90375,27.060091 0 0 1 50.886665,69.904283 26.90375,27.060091 0 0 1 23.982715,42.844074 26.90375,27.060091 0 0 1 50.886665,15.784319 Z" />
    <path
       id="path19"
       style="fill:#ffc903;stroke:#ab5f00;stroke-width:2.25832;stroke-linecap:round;stroke-linejoin:round"
       d="m 47.186653,14.631593 c -0.09374,3.511479 -8.884286,0.180049 -14.055152,0.04201 -5.170867,-0.13804 -9.286689,-3.09656 -9.192948,-6.6080381 0.09374,-3.5114788 4.361548,-6.2461914 9.532415,-6.1081517 5.170866,0.1380394 13.809427,9.1627008 13.715685,12.6741798 z"
       sodipodi:nodetypes="sssss" />
    <path
       id="path20"
       style="fill:#ffc903;stroke:#ab5f00;stroke-width:2.25832;stroke-linecap:round;stroke-linejoin:round"
       d="m 55.438006,14.331593 c 0.09374,3.511479 8.884286,0.180049 14.055152,0.04201 5.170867,-0.13804 9.286689,-3.09656 9.192948,-6.6080381 C 78.592366,4.2540861 74.324558,1.5193735 69.153691,1.6574132 63.982825,1.7954526 55.344264,10.820114 55.438006,14.331593 Z"
       sodipodi:nodetypes="sssss" />
    <g
       id="g9"
       transform="rotate(24.664787,27.398062,31.109494)">
      <path
         id="path21"
         style="fill:#ffc903;stroke:#ab5f00;stroke-width:2.18745;stroke-linecap:round;stroke-linejoin:round"
         d="m 31.08817,31.717401 c 0.738866,3.441171 -7.981436,2.420534 -12.683772,3.593012 -4.702337,1.172476 -9.1133008,-0.666664 -9.8521658,-4.107835 -0.7388663,-3.441169 2.4741618,-7.181268 7.1764988,-8.353746 4.702336,-1.172476 14.620575,5.427399 15.359439,8.868569 z"
         sodipodi:nodetypes="sssss" />
      <path
         id="path3"
         style="fill:#aa6000;fill-opacity:1;stroke:none;stroke-width:1.03319;stroke-linecap:round;stroke-linejoin:round"
         d="m 24.596416,28.573244 c 0.388254,1.460972 -4.194028,1.027653 -6.664977,1.525436 -2.47095,0.497783 -4.788792,-0.283036 -5.177046,-1.744008 -0.388253,-1.46097 1.300105,-3.048853 3.771056,-3.546636 2.47095,-0.497782 7.682714,2.304237 8.070967,3.765208 z"
         sodipodi:nodetypes="sssss" />
    </g>
    <g
       id="g10"
       transform="rotate(-16.964683,68.417373,34.486749)">
      <path
         id="path22"
         style="fill:#ffc903;stroke:#ab5f00;stroke-width:2.18745;stroke-linecap:round;stroke-linejoin:round"
         d="m 70.888706,30.853797 c -0.738866,3.441171 7.981436,2.420534 12.683772,3.593012 4.702337,1.172476 9.113301,-0.666664 9.852166,-4.107835 0.738866,-3.441169 -2.474162,-7.181268 -7.176499,-8.353746 -4.702336,-1.172476 -14.620575,5.427399 -15.359439,8.868569 z"
         sodipodi:nodetypes="sssss" />
      <path
         id="path2"
         style="fill:#aa6000;fill-opacity:1;stroke:none;stroke-width:1.03319;stroke-linecap:round;stroke-linejoin:round"
         d="m 78.051196,28.044077 c -0.388254,1.460972 4.194028,1.027653 6.664977,1.525436 2.47095,0.497783 4.788792,-0.283036 5.177046,-1.744008 0.388253,-1.46097 -1.300105,-3.048853 -3.771056,-3.546636 -2.47095,-0.497782 -7.682714,2.304237 -8.070967,3.765208 z"
         sodipodi:nodetypes="sssss" />
    </g>
    <g
       id="g6"
       transform="matrix(-1.1907781,0,0,0.98591468,40.684634,12.563117)">
      <path
         id="path1"
         style="fill:#ffc903;stroke:#ab5f00;stroke-width:2.18745;stroke-linecap:round;stroke-linejoin:round"
         d="m 30.48817,42.517401 c 0.738866,3.441171 -7.981436,2.420534 -12.683772,3.593012 -4.702337,1.172476 -9.1133008,-0.666664 -9.8521658,-4.107835 -0.7388663,-3.441169 2.4741618,-7.181268 7.1764988,-8.353746 4.702336,-1.172476 14.620575,5.427399 15.359439,8.868569 z"
         sodipodi:nodetypes="sssss" />
      <path
         id="path6"
         style="fill:#aa6000;fill-opacity:1;stroke:none;stroke-width:1.03319;stroke-linecap:round;stroke-linejoin:round"
         d="m 23.996416,39.373244 c 0.388254,1.460972 -4.194028,1.027653 -6.664977,1.525436 -2.47095,0.497783 -4.788792,-0.283036 -5.177046,-1.744008 -0.388253,-1.46097 1.300105,-3.048853 3.771056,-3.546636 2.47095,-0.497782 7.682714,2.304237 8.070967,3.765208 z"
         sodipodi:nodetypes="sssss" />
    </g>
    <g
       id="g8"
       transform="matrix(1.1907781,0,0,0.98591468,60.989521,11.963117)">
      <path
         id="path7"
         style="fill:#ffc903;stroke:#ab5f00;stroke-width:2.18745;stroke-linecap:round;stroke-linejoin:round"
         d="m 30.48817,42.517401 c 0.738866,3.441171 -7.981436,2.420534 -12.683772,3.593012 -4.702337,1.172476 -9.1133008,-0.666664 -9.8521658,-4.107835 -0.7388663,-3.441169 2.4741618,-7.181268 7.1764988,-8.353746 4.702336,-1.172476 14.620575,5.427399 15.359439,8.868569 z"
         sodipodi:nodetypes="sssss" />
      <path
         id="path8"
         style="fill:#aa6000;fill-opacity:1;stroke:none;stroke-width:1.03319;stroke-linecap:round;stroke-linejoin:round"
         d="m 23.996416,39.373244 c 0.388254,1.460972 -4.194028,1.027653 -6.664977,1.525436 -2.47095,0.497783 -4.788792,-0.283036 -5.177046,-1.744008 -0.388253,-1.46097 1.300105,-3.048853 3.771056,-3.546636 2.47095,-0.497782 7.682714,2.304237 8.070967,3.765208 z"
         sodipodi:nodetypes="sssss" />
    </g>
    <g
       id="g25"
       transform="translate(-87.186265,-1.5727922)">
      <ellipse
         style="fill:#00fc5f;fill-opacity:0.695197;stroke:none;stroke-width:3.28803;stroke-linecap:round;stroke-linejoin:round;stroke-dasharray:none;stroke-opacity:1;filter:url(#filter25)"
         id="ellipse25"
         cx="49.744957"
         cy="41.790009"
         rx="18.154987"
         ry="17.62466"
         transform="matrix(1.5538592,0,0,1.48908,60.695223,-18.317337)" />
      <ellipse
         style="fill:#00fc5f;fill-opacity:1;stroke:#ffffff;stroke-width:3.28803;stroke-linecap:round;stroke-linejoin:round;stroke-dasharray:none;stroke-opacity:1"
         id="path23"
         cx="138.41615"
         cy="43.911331"
         rx="18.154987"
         ry="17.62466" />
    </g>
    <ellipse
       style="fill:#00fc5f;fill-opacity:1;stroke:#ab5f00;stroke-width:1.59544;stroke-linecap:round;stroke-linejoin:round;stroke-dasharray:none;stroke-opacity:1"
       id="ellipse28"
       cx="27.683231"
       cy="78.700981"
       rx="2.6516504"
       ry="2.5455842" />
    <ellipse
       style="fill:#00fc5f;fill-opacity:1;stroke:#ab5f00;stroke-width:1.59544;stroke-linecap:round;stroke-linejoin:round;stroke-dasharray:none;stroke-opacity:1"
       id="ellipse29"
       cx="74.776543"
       cy="79.125244"
       rx="2.6516504"
       ry="2.5455842" />
    <ellipse
       style="fill:#d61300;fill-opacity:1;stroke:#ab5f00;stroke-width:1.59544;stroke-linecap:round;stroke-linejoin:round;stroke-dasharray:none;stroke-opacity:1"
       id="ellipse30"
       cx="34.68359"
       cy="8.4852791"
       rx="2.6516504"
       ry="2.5455842" />
    <ellipse
       style="fill:#d61300;fill-opacity:1;stroke:#ab5f00;stroke-width:1.59544;stroke-linecap:round;stroke-linejoin:round;stroke-dasharray:none;stroke-opacity:1"
       id="ellipse31"
       cx="70.958168"
       cy="7.6367512"
       rx="2.6516504"
       ry="2.5455842" />
  </g>
</svg>
