<?xml version="1.0" encoding="UTF-8" standalone="no"?>
<!-- Created with Inkscape (http://www.inkscape.org/) -->

<svg
   width="377.95276"
   height="377.95276"
   viewBox="0 0 100 100"
   version="1.1"
   id="svg1"
   inkscape:version="1.4.2 (ebf0e940d0, 2025-05-08)"
   sodipodi:docname="mission-bank.svg"
   xml:space="preserve"
   xmlns:inkscape="http://www.inkscape.org/namespaces/inkscape"
   xmlns:sodipodi="http://sodipodi.sourceforge.net/DTD/sodipodi-0.dtd"
   xmlns="http://www.w3.org/2000/svg"
   xmlns:svg="http://www.w3.org/2000/svg"><sodipodi:namedview
     id="namedview1"
     pagecolor="#505050"
     bordercolor="#eeeeee"
     borderopacity="1"
     inkscape:showpageshadow="0"
     inkscape:pageopacity="0"
     inkscape:pagecheckerboard="0"
     inkscape:deskcolor="#505050"
     inkscape:document-units="px"
     inkscape:zoom="1.7638889"
     inkscape:cx="198.14173"
     inkscape:cy="78.519685"
     inkscape:window-width="1366"
     inkscape:window-height="697"
     inkscape:window-x="0"
     inkscape:window-y="0"
     inkscape:window-maximized="1"
     inkscape:current-layer="layer1" /><defs
     id="defs1"><filter
       inkscape:label="Blur Double"
       inkscape:menu="Blurs"
       inkscape:menu-tooltip="Overlays two copies with different blur amounts and modifiable blend and composite"
       style="color-interpolation-filters:sRGB;"
       id="filter6"
       x="-0.71930275"
       y="-0.45810527"
       width="2.4386055"
       height="1.9162105"><feGaussianBlur
         stdDeviation="5"
         result="fbSourceGraphic"
         id="feGaussianBlur5" /><feGaussianBlur
         stdDeviation="0.01"
         in="SourceGraphic"
         result="result1"
         id="feGaussianBlur6" /><feComposite
         in2="result1"
         operator="arithmetic"
         in="fbSourceGraphic"
         k2="0.5"
         k3="0.5"
         result="result2"
         id="feComposite6" /><feBlend
         in2="fbSourceGraphic"
         mode="normal"
         result="result3"
         id="feBlend6" /></filter><linearGradient
       id="linearGradient13895"
       inkscape:swatch="solid"><stop
         style="stop-color:#000000;stop-opacity:1;"
         offset="0"
         id="stop13893" /></linearGradient><filter
       style="color-interpolation-filters:sRGB;"
       inkscape:label="Clean Edges"
       id="filter14269"
       x="-0.31154084"
       y="-0.29580634"
       width="1.6230817"
       height="1.5916127"><feGaussianBlur
         stdDeviation="0.204612"
         result="blur"
         id="feGaussianBlur14263" /><feComposite
         in="SourceGraphic"
         in2="blur"
         operator="in"
         result="composite1"
         id="feComposite14265" /><feComposite
         in="composite1"
         in2="composite1"
         operator="in"
         result="composite2"
         id="feComposite14267" /></filter><filter
       inkscape:label="Blur Double"
       inkscape:menu="Blurs"
       inkscape:menu-tooltip="Overlays two copies with different blur amounts and modifiable blend and composite"
       style="color-interpolation-filters:sRGB;"
       id="filter6-3"
       x="-0.71930275"
       y="-0.45810527"
       width="2.4386055"
       height="1.9162105"><feGaussianBlur
         stdDeviation="5"
         result="fbSourceGraphic"
         id="feGaussianBlur5-6" /><feGaussianBlur
         stdDeviation="0.01"
         in="SourceGraphic"
         result="result1"
         id="feGaussianBlur6-7" /><feComposite
         in2="result1"
         operator="arithmetic"
         in="fbSourceGraphic"
         k2="0.5"
         k3="0.5"
         result="result2"
         id="feComposite6-5" /><feBlend
         in2="fbSourceGraphic"
         mode="normal"
         result="result3"
         id="feBlend6-3" /></filter></defs><g
     inkscape:label="Camada 1"
     inkscape:groupmode="layer"
     id="layer1"><rect
       style="fill:#806600;fill-opacity:1;stroke:#0f0c00;stroke-width:2.75061;stroke-dasharray:none;stroke-opacity:1"
       id="rect1"
       width="5.416935"
       height="47.266933"
       x="62.462364"
       y="44.541538" /><rect
       style="fill:#806600;fill-opacity:1;stroke:#0f0c00;stroke-width:2.92539;stroke-dasharray:none;stroke-opacity:1"
       id="rect44"
       width="4.3207717"
       height="46.395302"
       x="-92.719246"
       y="55.8489"
       transform="matrix(-0.99859164,0.05305402,0.04556815,0.99896123,0,0)" /><rect
       style="fill:#806600;fill-opacity:1;stroke:#0f0c00;stroke-width:2.75061;stroke-dasharray:none;stroke-opacity:1"
       id="rect48"
       width="5.416935"
       height="47.266933"
       x="36.962364"
       y="51.741539" /><rect
       style="fill:#806600;fill-opacity:1;stroke:#0f0c00;stroke-width:2.87346;stroke-dasharray:none;stroke-opacity:1"
       id="rect45"
       width="95.0839"
       height="8.2338991"
       x="-97.700279"
       y="43.133049"
       transform="scale(-1,1)" /><rect
       style="fill:#806600;fill-opacity:1;stroke:#0f0c00;stroke-width:2.85036;stroke-dasharray:none;stroke-opacity:1"
       id="rect42"
       width="4.3727174"
       height="43.522717"
       x="6.6042757"
       y="52.122868"
       transform="rotate(2.275626)" /><rect
       style="fill:#2b2200;fill-opacity:1;stroke:#0f0c00;stroke-width:1.97468;stroke-dasharray:none;stroke-opacity:1"
       id="rect47"
       width="95.972534"
       height="7.183568"
       x="2.1425374"
       y="38.121094" /><g
       id="g20"
       transform="matrix(0.6102569,0,0,0.76295624,-5.6194465,6.7106562)"><path
         id="path17"
         style="fill:#71ffe2;fill-opacity:1;stroke:#00362b;stroke-width:2.1245;stroke-dasharray:none;stroke-opacity:1"
         d="M 76.785679,7.7084899 V 18.506089 a 12.976591,13.300125 0 0 0 -8.914962,12.632423 12.976591,13.300125 0 0 0 4.682382,10.22836 H 89.141724 A 12.976591,13.300125 0 0 0 93.824107,31.138512 12.976591,13.300125 0 0 0 85.898999,18.887409 V 7.7084899 Z" /><rect
         style="fill:#71ffe2;fill-opacity:1;stroke:#00362b;stroke-width:1.64442;stroke-dasharray:none;stroke-opacity:1"
         id="rect17"
         width="18.443953"
         height="5.6832929"
         x="72.709091"
         y="4.1848249" /><ellipse
         style="fill:#0040eb;fill-opacity:1;stroke:none;stroke-width:2.69375;stroke-dasharray:none;stroke-opacity:1"
         id="ellipse17"
         cx="81.193527"
         cy="30.865211"
         rx="10.023238"
         ry="7.9549513" /><path
         id="path18"
         style="fill:#ffffff;stroke:none;stroke-width:0.759708"
         d="m 77.623695,25.431189 a 2.4143003,2.1774049 0 0 0 -2.414229,2.177217 2.4143003,2.1774049 0 0 0 2.414229,2.177464 2.4143003,2.1774049 0 0 0 2.414489,-2.177464 2.4143003,2.1774049 0 0 0 -2.414489,-2.177217 z m -0.638842,0.630591 a 0.91504587,1.1086985 41.530806 0 1 0.474952,0.121382 0.91504587,1.1086985 41.530806 0 1 0.147942,1.391692 0.91504587,1.1086985 41.530806 0 1 -1.413353,0.42064 0.91504587,1.1086985 41.530806 0 1 -0.147691,-1.391692 0.91504587,1.1086985 41.530806 0 1 0.93815,-0.542022 z" /><path
         id="path19"
         style="fill:#ffffff;stroke:none;stroke-width:0.56054"
         d="m 82.118018,30.487255 a 1.8143149,1.5773872 0 0 0 -1.814261,1.577251 1.8143149,1.5773872 0 0 0 1.814261,1.57743 1.8143149,1.5773872 0 0 0 1.814457,-1.57743 1.8143149,1.5773872 0 0 0 -1.814457,-1.577251 z m -0.480081,0.456822 a 0.67545415,0.8176754 47.088078 0 1 0.35692,0.08793 0.67545415,0.8176754 47.088078 0 1 0.111177,1.00819 0.67545415,0.8176754 47.088078 0 1 -1.062117,0.304726 0.67545415,0.8176754 47.088078 0 1 -0.110987,-1.00819 0.67545415,0.8176754 47.088078 0 1 0.705007,-0.392659 z" /><rect
         style="fill:#00362b;fill-opacity:1;stroke:#00362b;stroke-width:0.656309;stroke-dasharray:none;stroke-opacity:1"
         id="rect19"
         width="12.696872"
         height="1.3150699"
         x="75.556114"
         y="6.2893863" /><path
         id="path20"
         style="fill:#ffffff;stroke:none;stroke-width:0.447106"
         d="m 75.368034,30.187255 a 1.5143222,1.2023761 0 0 0 -1.514277,1.202272 1.5143222,1.2023761 0 0 0 1.514277,1.202409 1.5143222,1.2023761 0 0 0 1.514441,-1.202409 1.5143222,1.2023761 0 0 0 -1.514441,-1.202272 z m -0.400701,0.348216 a 0.53165746,0.66092554 59.533771 0 1 0.297905,0.06703 0.53165746,0.66092554 59.533771 0 1 0.09279,0.768501 0.53165746,0.66092554 59.533771 0 1 -0.886499,0.232279 0.53165746,0.66092554 59.533771 0 1 -0.09263,-0.768501 0.53165746,0.66092554 59.533771 0 1 0.588435,-0.299307 z" /></g><rect
       style="fill:#ffffff;fill-opacity:1;stroke:#242424;stroke-width:2.7319;stroke-dasharray:none;stroke-opacity:1"
       id="rect2"
       width="32.854122"
       height="31.793461"
       x="7.8620567"
       y="7.6499262" /><path
       style="fill:#ffffff;fill-opacity:1;stroke:#242424;stroke-width:2.23837504;stroke-dasharray:none;stroke-opacity:1"
       d="M 12.091526,13.152186 36.910973,12.727922 Z"
       id="path2" /><path
       style="fill:#ffffff;fill-opacity:1;stroke:#242424;stroke-width:2.23837;stroke-dasharray:none;stroke-opacity:1"
       d="M 10.39447,17.394827 35.213917,16.970563 Z"
       id="path3" /><path
       style="fill:#ffffff;fill-opacity:1;stroke:#242424;stroke-width:2.23837;stroke-dasharray:none;stroke-opacity:1"
       d="M 13.364318,21.213204 38.183765,20.78894 Z"
       id="path4" /><path
       style="fill:#ffffff;fill-opacity:1;stroke:#242424;stroke-width:2.23837;stroke-dasharray:none;stroke-opacity:1"
       d="M 10.818734,26.092241 35.638181,25.667977 Z"
       id="path5" /><path
       style="fill:#ffffff;fill-opacity:1;stroke:#242424;stroke-width:2.23837;stroke-dasharray:none;stroke-opacity:1"
       d="M 13.364318,30.334882 38.183765,29.910618 Z"
       id="path7" /><path
       style="fill:#ffffff;fill-opacity:1;stroke:#242424;stroke-width:2.23837;stroke-dasharray:none;stroke-opacity:1"
       d="M 10.606602,35.001787 35.426049,34.577523 Z"
       id="path8" /><path
       id="path13"
       style="fill:#71ffe2;fill-opacity:1;stroke:#00362b;stroke-width:1.33978;stroke-dasharray:none;stroke-opacity:1"
       d="m 62.542488,16.041436 v 7.485992 a 7.443732,9.2209963 0 0 0 -5.113869,8.758077 7.443732,9.2209963 0 0 0 2.685944,7.091338 h 9.515695 a 7.443732,9.2209963 0 0 0 2.685945,-7.091338 7.443732,9.2209963 0 0 0 -4.546062,-8.493707 v -7.750362 z" /><ellipse
       style="fill:#0040eb;fill-opacity:1;stroke:none;stroke-width:1.69877;stroke-dasharray:none;stroke-opacity:1"
       id="ellipse13"
       cx="65.070953"
       cy="32.096027"
       rx="5.7496071"
       ry="5.5151796" /><path
       id="path14"
       style="fill:#ffffff;stroke:none;stroke-width:0.479096"
       d="m 63.023198,28.32861 a 1.3849095,1.509598 0 0 0 -1.384869,1.509468 1.3849095,1.509598 0 0 0 1.384869,1.509639 1.3849095,1.509598 0 0 0 1.385017,-1.509639 1.3849095,1.509598 0 0 0 -1.385017,-1.509468 z M 62.65674,28.7658 a 0.5504676,0.73295415 20.672839 0 1 0.272446,0.08415 0.5504676,0.73295415 20.672839 0 1 0.08486,0.964862 0.5504676,0.73295415 20.672839 0 1 -0.810738,0.29163 0.5504676,0.73295415 20.672839 0 1 -0.08472,-0.964862 0.5504676,0.73295415 20.672839 0 1 0.538149,-0.375784 z" /><path
       id="path15"
       style="fill:#ffffff;stroke:none;stroke-width:0.353495"
       d="m 65.601266,31.833988 a 1.0407413,1.0936049 0 0 0 -1.040711,1.09351 1.0407413,1.0936049 0 0 0 1.040711,1.093635 1.0407413,1.0936049 0 0 0 1.040823,-1.093635 1.0407413,1.0936049 0 0 0 -1.040823,-1.09351 z m -0.275388,0.316715 a 0.41154421,0.53371886 23.415248 0 1 0.204739,0.06096 0.41154421,0.53371886 23.415248 0 1 0.06377,0.69898 0.41154421,0.53371886 23.415248 0 1 -0.609259,0.211267 0.41154421,0.53371886 23.415248 0 1 -0.06367,-0.69898 0.41154421,0.53371886 23.415248 0 1 0.404412,-0.272231 z" /><rect
       style="fill:#00362b;fill-opacity:1;stroke:#00362b;stroke-width:0.862165;stroke-dasharray:none;stroke-opacity:1"
       id="rect15"
       width="5.6350017"
       height="5.1134644"
       x="62.361313"
       y="13.331709" /><path
       id="path16"
       style="fill:#ffffff;stroke:none;stroke-width:0.281959"
       d="m 61.729288,31.625998 a 0.86865716,0.83360913 0 0 0 -0.868631,0.833537 0.86865716,0.83360913 0 0 0 0.868631,0.833631 0.86865716,0.83360913 0 0 0 0.868725,-0.833631 0.86865716,0.83360913 0 0 0 -0.868725,-0.833537 z m -0.229853,0.241418 a 0.33675131,0.41498022 32.839282 0 1 0.170886,0.04647 0.33675131,0.41498022 32.839282 0 1 0.05323,0.532803 0.33675131,0.41498022 32.839282 0 1 -0.50852,0.161039 0.33675131,0.41498022 32.839282 0 1 -0.05313,-0.532802 0.33675131,0.41498022 32.839282 0 1 0.337542,-0.20751 z" /><g
       id="g12"><path
         id="path9"
         style="fill:#71ffe2;fill-opacity:1;stroke:#00362b;stroke-width:2.1245;stroke-dasharray:none;stroke-opacity:1"
         d="M 76.785679,7.7084899 V 18.506089 a 12.976591,13.300125 0 0 0 -8.914962,12.632423 12.976591,13.300125 0 0 0 4.682382,10.22836 H 89.141724 A 12.976591,13.300125 0 0 0 93.824107,31.138512 12.976591,13.300125 0 0 0 85.898999,18.887409 V 7.7084899 Z" /><rect
         style="fill:#71ffe2;fill-opacity:1;stroke:#00362b;stroke-width:1.64442;stroke-dasharray:none;stroke-opacity:1"
         id="rect9"
         width="18.443953"
         height="5.6832929"
         x="72.709091"
         y="4.1848249" /><ellipse
         style="fill:#0040eb;fill-opacity:1;stroke:none;stroke-width:2.69375;stroke-dasharray:none;stroke-opacity:1"
         id="path10"
         cx="81.193527"
         cy="30.865211"
         rx="10.023238"
         ry="7.9549513" /><path
         id="path6"
         style="fill:#ffffff;stroke:none;stroke-width:0.759708"
         d="m 77.623695,25.431189 a 2.4143003,2.1774049 0 0 0 -2.414229,2.177217 2.4143003,2.1774049 0 0 0 2.414229,2.177464 2.4143003,2.1774049 0 0 0 2.414489,-2.177464 2.4143003,2.1774049 0 0 0 -2.414489,-2.177217 z m -0.638842,0.630591 a 0.91504587,1.1086985 41.530806 0 1 0.474952,0.121382 0.91504587,1.1086985 41.530806 0 1 0.147942,1.391692 0.91504587,1.1086985 41.530806 0 1 -1.413353,0.42064 0.91504587,1.1086985 41.530806 0 1 -0.147691,-1.391692 0.91504587,1.1086985 41.530806 0 1 0.93815,-0.542022 z" /><path
         id="path11"
         style="fill:#ffffff;stroke:none;stroke-width:0.56054"
         d="m 82.118018,30.487255 a 1.8143149,1.5773872 0 0 0 -1.814261,1.577251 1.8143149,1.5773872 0 0 0 1.814261,1.57743 1.8143149,1.5773872 0 0 0 1.814457,-1.57743 1.8143149,1.5773872 0 0 0 -1.814457,-1.577251 z m -0.480081,0.456822 a 0.67545415,0.8176754 47.088078 0 1 0.35692,0.08793 0.67545415,0.8176754 47.088078 0 1 0.111177,1.00819 0.67545415,0.8176754 47.088078 0 1 -1.062117,0.304726 0.67545415,0.8176754 47.088078 0 1 -0.110987,-1.00819 0.67545415,0.8176754 47.088078 0 1 0.705007,-0.392659 z" /><rect
         style="fill:#00362b;fill-opacity:1;stroke:#00362b;stroke-width:0.656309;stroke-dasharray:none;stroke-opacity:1"
         id="rect11"
         width="12.696872"
         height="1.3150699"
         x="75.556114"
         y="6.2893863" /><path
         id="path12"
         style="fill:#ffffff;stroke:none;stroke-width:0.447106"
         d="m 75.368034,30.187255 a 1.5143222,1.2023761 0 0 0 -1.514277,1.202272 1.5143222,1.2023761 0 0 0 1.514277,1.202409 1.5143222,1.2023761 0 0 0 1.514441,-1.202409 1.5143222,1.2023761 0 0 0 -1.514441,-1.202272 z m -0.400701,0.348216 a 0.53165746,0.66092554 59.533771 0 1 0.297905,0.06703 0.53165746,0.66092554 59.533771 0 1 0.09279,0.768501 0.53165746,0.66092554 59.533771 0 1 -0.886499,0.232279 0.53165746,0.66092554 59.533771 0 1 -0.09263,-0.768501 0.53165746,0.66092554 59.533771 0 1 0.588435,-0.299307 z" /></g></g></svg>
