<?xml version="1.0" encoding="UTF-8" standalone="no"?>
<!-- Created with Inkscape (http://www.inkscape.org/) -->

<svg
   width="377.95276"
   height="377.95276"
   viewBox="0 0 100 100"
   version="1.1"
   id="svg1"
   inkscape:version="1.4.2 (ebf0e940d0, 2025-05-08)"
   sodipodi:docname="scientific-machine.svg"
   xml:space="preserve"
   xmlns:inkscape="http://www.inkscape.org/namespaces/inkscape"
   xmlns:sodipodi="http://sodipodi.sourceforge.net/DTD/sodipodi-0.dtd"
   xmlns="http://www.w3.org/2000/svg"
   xmlns:svg="http://www.w3.org/2000/svg"><sodipodi:namedview
     id="namedview1"
     pagecolor="#505050"
     bordercolor="#eeeeee"
     borderopacity="1"
     inkscape:showpageshadow="0"
     inkscape:pageopacity="0"
     inkscape:pagecheckerboard="0"
     inkscape:deskcolor="#505050"
     inkscape:document-units="px"
     inkscape:zoom="2.4945156"
     inkscape:cx="94.807987"
     inkscape:cy="300.05826"
     inkscape:window-width="1366"
     inkscape:window-height="697"
     inkscape:window-x="0"
     inkscape:window-y="0"
     inkscape:window-maximized="1"
     inkscape:current-layer="layer1" /><defs
     id="defs1"><filter
       inkscape:label="Blur Double"
       inkscape:menu="Blurs"
       inkscape:menu-tooltip="Overlays two copies with different blur amounts and modifiable blend and composite"
       style="color-interpolation-filters:sRGB;"
       id="filter6"
       x="-0.71930275"
       y="-0.45810527"
       width="2.4386055"
       height="1.9162105"><feGaussianBlur
         stdDeviation="5"
         result="fbSourceGraphic"
         id="feGaussianBlur5" /><feGaussianBlur
         stdDeviation="0.01"
         in="SourceGraphic"
         result="result1"
         id="feGaussianBlur6" /><feComposite
         in2="result1"
         operator="arithmetic"
         in="fbSourceGraphic"
         k2="0.5"
         k3="0.5"
         result="result2"
         id="feComposite6" /><feBlend
         in2="fbSourceGraphic"
         mode="normal"
         result="result3"
         id="feBlend6" /></filter><linearGradient
       id="linearGradient13895"
       inkscape:swatch="solid"><stop
         style="stop-color:#000000;stop-opacity:1;"
         offset="0"
         id="stop13893" /></linearGradient><filter
       style="color-interpolation-filters:sRGB;"
       inkscape:label="Clean Edges"
       id="filter14269"
       x="-0.31154084"
       y="-0.29580634"
       width="1.6230817"
       height="1.5916127"><feGaussianBlur
         stdDeviation="0.204612"
         result="blur"
         id="feGaussianBlur14263" /><feComposite
         in="SourceGraphic"
         in2="blur"
         operator="in"
         result="composite1"
         id="feComposite14265" /><feComposite
         in="composite1"
         in2="composite1"
         operator="in"
         result="composite2"
         id="feComposite14267" /></filter><filter
       inkscape:label="Blur Double"
       inkscape:menu="Blurs"
       inkscape:menu-tooltip="Overlays two copies with different blur amounts and modifiable blend and composite"
       style="color-interpolation-filters:sRGB;"
       id="filter6-3"
       x="-0.71930275"
       y="-0.45810527"
       width="2.4386055"
       height="1.9162105"><feGaussianBlur
         stdDeviation="5"
         result="fbSourceGraphic"
         id="feGaussianBlur5-6" /><feGaussianBlur
         stdDeviation="0.01"
         in="SourceGraphic"
         result="result1"
         id="feGaussianBlur6-7" /><feComposite
         in2="result1"
         operator="arithmetic"
         in="fbSourceGraphic"
         k2="0.5"
         k3="0.5"
         result="result2"
         id="feComposite6-5" /><feBlend
         in2="fbSourceGraphic"
         mode="normal"
         result="result3"
         id="feBlend6-3" /></filter></defs><g
     inkscape:label="Camada 1"
     inkscape:groupmode="layer"
     id="layer1"><rect
       style="fill:#806600;fill-opacity:1;stroke:#0f0c00;stroke-width:2.92539;stroke-dasharray:none;stroke-opacity:1"
       id="rect44"
       width="4.3207717"
       height="46.395302"
       x="-92.719246"
       y="55.8489"
       transform="matrix(-0.99859164,0.05305402,0.04556815,0.99896123,0,0)" /><rect
       style="fill:#806600;fill-opacity:1;stroke:#0f0c00;stroke-width:4.55356;stroke-dasharray:none;stroke-opacity:1"
       id="rect45"
       width="21.524948"
       height="11.474946"
       x="-95.420799"
       y="43.912529"
       transform="scale(-1,1)" /><rect
       style="fill:#2b2200;fill-opacity:1;stroke:#0f0c00;stroke-width:1.2814;stroke-dasharray:none;stroke-opacity:1"
       id="rect46"
       width="18.163771"
       height="23.263771"
       x="-87.290215"
       y="37.343124"
       transform="scale(-1,1)" /><rect
       style="fill:#806600;fill-opacity:1;stroke:#0f0c00;stroke-width:2.85036;stroke-dasharray:none;stroke-opacity:1"
       id="rect42"
       width="4.3727174"
       height="43.522717"
       x="6.6042757"
       y="52.122868"
       transform="rotate(2.275626)" /><rect
       style="fill:#806600;fill-opacity:1;stroke:#140e00;stroke-width:4.55356;stroke-dasharray:none;stroke-opacity:1"
       id="rect41"
       width="21.524948"
       height="11.474946"
       x="4.4625273"
       y="45.412529" /><path
       id="path41"
       style="fill:#806600;fill-opacity:1;stroke:#0f0c00;stroke-width:3.65636;stroke-dasharray:none;stroke-opacity:1"
       d="M 96.906349,98.126293 H 2.5885421 L 18.095147,67.348198 82.208034,63.979066 Z"
       sodipodi:nodetypes="ccccc" /><rect
       style="fill:#2b2200;fill-opacity:1;stroke:#0f0c00;stroke-width:1.2814;stroke-dasharray:none;stroke-opacity:1"
       id="rect43"
       width="18.163771"
       height="23.263771"
       x="12.593115"
       y="38.843124" /><path
       id="rect2"
       style="fill:#3bc5ce;fill-opacity:1;stroke:#0c2427;stroke-width:3.1992;stroke-opacity:1"
       d="m 24.459429,13.598295 c 12.137273,-12.78282008 39.356814,-12.78282008 51.494087,0 15.059617,15.86059 6.185639,67.091223 6.185639,67.091223 -19.566967,4.175575 -39.030015,8.683694 -62.490778,0.399122 0,0 -10.2485588,-51.629755 4.811052,-67.490345 z"
       sodipodi:nodetypes="ssccs" /><path
       id="path4"
       style="fill:#76d5dd;fill-opacity:1;stroke-width:4.07498"
       d="M 58.148106,9.2137105 C 62.717741,13.205818 56.084852,22.071599 46.696146,30.804078 37.307439,39.536556 28.718233,44.828922 24.148597,40.836814 19.578962,36.844708 20.214072,25.49401 29.602777,16.761531 38.991481,8.0290512 53.57847,5.2216033 58.148106,9.2137105 Z"
       sodipodi:nodetypes="sssss" /><path
       id="path5"
       style="fill:#a2e3e8;fill-opacity:1;stroke-width:2.706"
       d="m 49.96775,11.838981 c 2.97262,2.70612 -1.34218,8.715945 -7.449682,14.63541 -6.107504,5.919464 -11.694919,9.506987 -14.66754,6.800867 -2.97262,-2.706121 -2.559471,-10.40039 3.548031,-16.319855 6.107501,-5.919465 15.59657,-7.822543 18.569191,-5.116422 z"
       sodipodi:nodetypes="sssss" /><rect
       style="fill:#2b2200;fill-opacity:1;stroke:#0f0c00;stroke-width:1.83833;stroke-dasharray:none;stroke-opacity:1"
       id="rect47"
       width="25.083893"
       height="23.819931"
       x="38.745186"
       y="36.552914" /><rect
       style="fill:#806600;fill-opacity:1;stroke:#0f0c00;stroke-width:1.17105;stroke-dasharray:none;stroke-opacity:1"
       id="rect49"
       width="16.440506"
       height="14.747865"
       x="42.735817"
       y="41.231411" /><rect
       style="fill:#806600;fill-opacity:1;stroke:#0f0c00;stroke-width:2.75060831;stroke-dasharray:none;stroke-opacity:1"
       id="rect48"
       width="5.416935"
       height="47.266933"
       x="48.062366"
       y="46.041538" /><rect
       style="fill:#806600;fill-opacity:1;stroke:#0f0c00;stroke-width:1.15482;stroke-dasharray:none;stroke-opacity:1"
       id="rect50"
       width="30.404909"
       height="7.7549086"
       x="34.826714"
       y="91.526718" /><ellipse
       style="fill:#0f0c00;fill-opacity:1;stroke:#130f00;stroke-width:1.54596;stroke-dasharray:none;stroke-opacity:1"
       id="path50"
       cx="72.337502"
       cy="88.837494"
       rx="2.9625001"
       ry="3.0375001" /><ellipse
       style="fill:#0f0c00;fill-opacity:1;stroke:#130f00;stroke-width:1.54596;stroke-dasharray:none;stroke-opacity:1"
       id="ellipse50"
       cx="81.1875"
       cy="88.612495"
       rx="2.9625001"
       ry="3.0375001" /><path
       id="path1"
       style="fill:#ffffff;stroke:none;stroke-width:0.918864"
       d="m 64.303651,20.152775 a 2.7855223,2.7607853 0 0 0 -2.785443,2.760547 2.7855223,2.7607853 0 0 0 2.785443,2.76086 2.7855223,2.7607853 0 0 0 2.785745,-2.76086 2.7855223,2.7607853 0 0 0 -2.785745,-2.760547 z m -0.737074,0.799542 a 1.0890841,1.3627108 29.014003 0 1 0.54798,0.153903 1.0890841,1.3627108 29.014003 0 1 0.170698,1.76456 1.0890841,1.3627108 29.014003 0 1 -1.630673,0.533341 1.0890841,1.3627108 29.014003 0 1 -0.170396,-1.764561 1.0890841,1.3627108 29.014003 0 1 1.082391,-0.687243 z" /><path
       id="path2"
       style="fill:#ffffff;stroke:none;stroke-width:0.527466"
       d="m 58.678716,25.852775 a 1.5855532,1.5982509 0 0 0 -1.585508,1.598113 1.5855532,1.5982509 0 0 0 1.585508,1.598294 1.5855532,1.5982509 0 0 0 1.58568,-1.598294 1.5855532,1.5982509 0 0 0 -1.58568,-1.598113 z m -0.419551,0.462864 a 0.62224966,0.78593555 27.224601 0 1 0.311916,0.0891 0.62224966,0.78593555 27.224601 0 1 0.09716,1.021525 0.62224966,0.78593555 27.224601 0 1 -0.928199,0.308757 0.62224966,0.78593555 27.224601 0 1 -0.09699,-1.021525 0.62224966,0.78593555 27.224601 0 1 0.616111,-0.397853 z" /><path
       id="path3"
       style="fill:#ffffff;stroke:none;stroke-width:0.527466"
       d="m 70.603716,32.602775 a 1.5855532,1.5982509 0 0 0 -1.585508,1.598113 1.5855532,1.5982509 0 0 0 1.585508,1.598294 1.5855532,1.5982509 0 0 0 1.58568,-1.598294 1.5855532,1.5982509 0 0 0 -1.58568,-1.598113 z m -0.419551,0.462864 a 0.62224966,0.78593555 27.224601 0 1 0.311916,0.0891 0.62224966,0.78593555 27.224601 0 1 0.09716,1.021525 0.62224966,0.78593555 27.224601 0 1 -0.928199,0.308757 0.62224966,0.78593555 27.224601 0 1 -0.09699,-1.021525 0.62224966,0.78593555 27.224601 0 1 0.616111,-0.397853 z" /><path
       id="path6"
       style="fill:#ffffff;stroke:none;stroke-width:0.918864"
       d="m 40.332731,66.397558 a 2.7855223,2.7607853 0 0 0 -2.785443,2.760547 2.7855223,2.7607853 0 0 0 2.785443,2.76086 2.7855223,2.7607853 0 0 0 2.785745,-2.76086 2.7855223,2.7607853 0 0 0 -2.785745,-2.760547 z M 39.595657,67.1971 a 1.0890841,1.3627108 29.014003 0 1 0.54798,0.153903 1.0890841,1.3627108 29.014003 0 1 0.170698,1.76456 1.0890841,1.3627108 29.014003 0 1 -1.630673,0.533341 1.0890841,1.3627108 29.014003 0 1 -0.170396,-1.764561 1.0890841,1.3627108 29.014003 0 1 1.082391,-0.687243 z" /><path
       id="path7"
       style="fill:#ffffff;stroke:none;stroke-width:0.527466"
       d="m 26.434647,65.733597 a 1.5855532,1.5982509 0 0 0 -1.585508,1.598113 1.5855532,1.5982509 0 0 0 1.585508,1.598294 1.5855532,1.5982509 0 0 0 1.58568,-1.598294 1.5855532,1.5982509 0 0 0 -1.58568,-1.598113 z m -0.419551,0.462864 a 0.62224966,0.78593555 27.224601 0 1 0.311916,0.0891 0.62224966,0.78593555 27.224601 0 1 0.09716,1.021525 0.62224966,0.78593555 27.224601 0 1 -0.928199,0.308757 0.62224966,0.78593555 27.224601 0 1 -0.09699,-1.021525 0.62224966,0.78593555 27.224601 0 1 0.616111,-0.397853 z" /><path
       id="path8"
       style="fill:#ffffff;stroke:none;stroke-width:0.527466"
       d="m 31.783554,47.027753 a 1.5855532,1.5982509 0 0 0 -1.585508,1.598113 1.5855532,1.5982509 0 0 0 1.585508,1.598294 1.5855532,1.5982509 0 0 0 1.58568,-1.598294 1.5855532,1.5982509 0 0 0 -1.58568,-1.598113 z m -0.419551,0.462864 a 0.62224966,0.78593555 27.224601 0 1 0.311916,0.0891 0.62224966,0.78593555 27.224601 0 1 0.09716,1.021525 0.62224966,0.78593555 27.224601 0 1 -0.928199,0.308757 0.62224966,0.78593555 27.224601 0 1 -0.09699,-1.021525 0.62224966,0.78593555 27.224601 0 1 0.616111,-0.397853 z" /><path
       style="fill:none;fill-opacity:1;stroke:#0f0c00;stroke-width:0.584994;stroke-dasharray:none;stroke-opacity:1"
       d="m 14.519803,82.918861 -1.002237,2.691399 1.453246,1.003572 -0.10023,1.140423 -4.008952,0.04562 0.952128,1.368506 2.9566,0.09123 -0.10023,2.007146 -2.605818,4.287986 h 2.104701 l 1.753914,-3.512498 1.503357,-0.09123 0.350784,3.421269 1.703803,-0.09123 -1.102462,-3.877437 v -2.326462 l 2.856379,-0.09123 0.851902,-1.277274 -4.309622,-0.273702 0.100229,-1.231656 1.553467,-1.368509 -2.204922,-3.603736 -1.05235,1.277274 1.453246,0.957954"
       id="path19" /></g></svg>
