<?xml version="1.0" encoding="UTF-8" standalone="no"?>
<!-- Created with Inkscape (http://www.inkscape.org/) -->

<svg
   width="377.95276"
   height="377.95276"
   viewBox="0 0 100 100"
   version="1.1"
   id="svg1"
   inkscape:version="1.4.2 (ebf0e940d0, 2025-05-08)"
   sodipodi:docname="sino.svg"
   xml:space="preserve"
   xmlns:inkscape="http://www.inkscape.org/namespaces/inkscape"
   xmlns:sodipodi="http://sodipodi.sourceforge.net/DTD/sodipodi-0.dtd"
   xmlns="http://www.w3.org/2000/svg"
   xmlns:svg="http://www.w3.org/2000/svg"><sodipodi:namedview
     id="namedview1"
     pagecolor="#505050"
     bordercolor="#eeeeee"
     borderopacity="1"
     inkscape:showpageshadow="0"
     inkscape:pageopacity="0"
     inkscape:pagecheckerboard="0"
     inkscape:deskcolor="#505050"
     inkscape:document-units="px"
     inkscape:zoom="0.88194445"
     inkscape:cx="-185.38583"
     inkscape:cy="164.97638"
     inkscape:window-width="1366"
     inkscape:window-height="697"
     inkscape:window-x="0"
     inkscape:window-y="0"
     inkscape:window-maximized="1"
     inkscape:current-layer="layer1" /><defs
     id="defs1"><linearGradient
       id="linearGradient13895"
       inkscape:swatch="solid"><stop
         style="stop-color:#000000;stop-opacity:1;"
         offset="0"
         id="stop13893" /></linearGradient><filter
       style="color-interpolation-filters:sRGB;"
       inkscape:label="Clean Edges"
       id="filter14269"
       x="-0.31154084"
       y="-0.29580634"
       width="1.6230817"
       height="1.5916127"><feGaussianBlur
         stdDeviation="0.204612"
         result="blur"
         id="feGaussianBlur14263" /><feComposite
         in="SourceGraphic"
         in2="blur"
         operator="in"
         result="composite1"
         id="feComposite14265" /><feComposite
         in="composite1"
         in2="composite1"
         operator="in"
         result="composite2"
         id="feComposite14267" /></filter><inkscape:path-effect
       effect="fillet_chamfer"
       id="path-effect68"
       is_visible="true"
       lpeversion="1"
       nodesatellites_param="F,0,0,1,0,0,0,1 @ F,0,0,1,0,0,0,1 @ F,0,0,1,0,0,0,1 @ F,0,0,1,0,0,0,1 @ F,0,0,1,0,0,0,1 @ F,0,0,1,0,0,0,1 @ F,0,0,1,0,0,0,1 @ F,0,0,1,0,0,0,1 @ F,0,0,1,0,0,0,1"
       radius="0"
       unit="px"
       method="auto"
       mode="F"
       chamfer_steps="1"
       flexible="false"
       use_knot_distance="true"
       apply_no_radius="true"
       apply_with_radius="true"
       only_selected="false"
       hide_knots="false" /><inkscape:path-effect
       effect="fillet_chamfer"
       id="path-effect66"
       is_visible="true"
       lpeversion="1"
       nodesatellites_param="F,0,0,1,0,0,0,1 @ F,0,0,1,0,0.44929322,0,1 @ F,0,0,1,0,0.44929322,0,1 @ F,0,0,1,0,0,0,1 @ F,0,0,1,0,0,0,1 @ F,0,0,1,0,0,0,1 @ F,0,0,1,0,0,0,1 @ F,0,0,1,0,0,0,1 @ F,0,0,1,0,0,0,1 @ F,0,0,1,0,0,0,1"
       radius="0"
       unit="px"
       method="auto"
       mode="F"
       chamfer_steps="1"
       flexible="false"
       use_knot_distance="true"
       apply_no_radius="true"
       apply_with_radius="true"
       only_selected="false"
       hide_knots="false" /><inkscape:path-effect
       effect="fillet_chamfer"
       id="path-effect68-6"
       is_visible="true"
       lpeversion="1"
       nodesatellites_param="F,0,0,1,0,0,0,1 @ F,0,0,1,0,0,0,1 @ F,0,0,1,0,0,0,1 @ F,0,0,1,0,0,0,1 @ F,0,0,1,0,0,0,1 @ F,0,0,1,0,0,0,1 @ F,0,0,1,0,0,0,1 @ F,0,0,1,0,0,0,1 @ F,0,0,1,0,0,0,1"
       radius="0"
       unit="px"
       method="auto"
       mode="F"
       chamfer_steps="1"
       flexible="false"
       use_knot_distance="true"
       apply_no_radius="true"
       apply_with_radius="true"
       only_selected="false"
       hide_knots="false" /><inkscape:path-effect
       effect="fillet_chamfer"
       id="path-effect66-7"
       is_visible="true"
       lpeversion="1"
       nodesatellites_param="F,0,0,1,0,0,0,1 @ F,0,0,1,0,0.44929322,0,1 @ F,0,0,1,0,0.44929322,0,1 @ F,0,0,1,0,0,0,1 @ F,0,0,1,0,0,0,1 @ F,0,0,1,0,0,0,1 @ F,0,0,1,0,0,0,1 @ F,0,0,1,0,0,0,1 @ F,0,0,1,0,0,0,1 @ F,0,0,1,0,0,0,1"
       radius="0"
       unit="px"
       method="auto"
       mode="F"
       chamfer_steps="1"
       flexible="false"
       use_knot_distance="true"
       apply_no_radius="true"
       apply_with_radius="true"
       only_selected="false"
       hide_knots="false" /><inkscape:path-effect
       effect="fillet_chamfer"
       id="path-effect68-7"
       is_visible="true"
       lpeversion="1"
       nodesatellites_param="F,0,0,1,0,0,0,1 @ F,0,0,1,0,0,0,1 @ F,0,0,1,0,0,0,1 @ F,0,0,1,0,0,0,1 @ F,0,0,1,0,0,0,1 @ F,0,0,1,0,0,0,1 @ F,0,0,1,0,0,0,1 @ F,0,0,1,0,0,0,1 @ F,0,0,1,0,0,0,1"
       radius="0"
       unit="px"
       method="auto"
       mode="F"
       chamfer_steps="1"
       flexible="false"
       use_knot_distance="true"
       apply_no_radius="true"
       apply_with_radius="true"
       only_selected="false"
       hide_knots="false" /><inkscape:path-effect
       effect="fillet_chamfer"
       id="path-effect66-5"
       is_visible="true"
       lpeversion="1"
       nodesatellites_param="F,0,0,1,0,0,0,1 @ F,0,0,1,0,0.44929322,0,1 @ F,0,0,1,0,0.44929322,0,1 @ F,0,0,1,0,0,0,1 @ F,0,0,1,0,0,0,1 @ F,0,0,1,0,0,0,1 @ F,0,0,1,0,0,0,1 @ F,0,0,1,0,0,0,1 @ F,0,0,1,0,0,0,1 @ F,0,0,1,0,0,0,1"
       radius="0"
       unit="px"
       method="auto"
       mode="F"
       chamfer_steps="1"
       flexible="false"
       use_knot_distance="true"
       apply_no_radius="true"
       apply_with_radius="true"
       only_selected="false"
       hide_knots="false" /><inkscape:path-effect
       effect="fillet_chamfer"
       id="path-effect68-3"
       is_visible="true"
       lpeversion="1"
       nodesatellites_param="F,0,0,1,0,0,0,1 @ F,0,0,1,0,0,0,1 @ F,0,0,1,0,0,0,1 @ F,0,0,1,0,0,0,1 @ F,0,0,1,0,0,0,1 @ F,0,0,1,0,0,0,1 @ F,0,0,1,0,0,0,1 @ F,0,0,1,0,0,0,1 @ F,0,0,1,0,0,0,1"
       radius="0"
       unit="px"
       method="auto"
       mode="F"
       chamfer_steps="1"
       flexible="false"
       use_knot_distance="true"
       apply_no_radius="true"
       apply_with_radius="true"
       only_selected="false"
       hide_knots="false" /><inkscape:path-effect
       effect="fillet_chamfer"
       id="path-effect66-6"
       is_visible="true"
       lpeversion="1"
       nodesatellites_param="F,0,0,1,0,0,0,1 @ F,0,0,1,0,0.44929322,0,1 @ F,0,0,1,0,0.44929322,0,1 @ F,0,0,1,0,0,0,1 @ F,0,0,1,0,0,0,1 @ F,0,0,1,0,0,0,1 @ F,0,0,1,0,0,0,1 @ F,0,0,1,0,0,0,1 @ F,0,0,1,0,0,0,1 @ F,0,0,1,0,0,0,1"
       radius="0"
       unit="px"
       method="auto"
       mode="F"
       chamfer_steps="1"
       flexible="false"
       use_knot_distance="true"
       apply_no_radius="true"
       apply_with_radius="true"
       only_selected="false"
       hide_knots="false" /><filter
       style="color-interpolation-filters:sRGB;"
       inkscape:label="Clean Edges"
       id="filter14269-5"
       x="-0.31154084"
       y="-0.29580634"
       width="1.6230817"
       height="1.5916127"><feGaussianBlur
         stdDeviation="0.204612"
         result="blur"
         id="feGaussianBlur14263-6" /><feComposite
         in="SourceGraphic"
         in2="blur"
         operator="in"
         result="composite1"
         id="feComposite14265-2" /><feComposite
         in="composite1"
         in2="composite1"
         operator="in"
         result="composite2"
         id="feComposite14267-9" /></filter></defs><g
     inkscape:label="Camada 1"
     inkscape:groupmode="layer"
     id="layer1"><ellipse
       style="fill:#000000;fill-opacity:0.394032;stroke:none;stroke-width:3.14498;stroke-linecap:round;stroke-linejoin:round;stroke-dasharray:none;stroke-opacity:1"
       id="ellipse1"
       cx="71.250008"
       cy="96.449997"
       rx="22.35"
       ry="3.3" /><rect
       style="fill:#5a2c19;fill-opacity:1;stroke:#211309;stroke-width:2.58444998;stroke-linecap:round;stroke-linejoin:round;stroke-opacity:1;stroke-dasharray:none"
       id="rect7"
       width="50.037399"
       height="10.337492"
       x="40.215622"
       y="-22.148563"
       transform="rotate(38.462215)" /><path
       id="rect15"
       style="fill:#3b1411;fill-opacity:1;stroke:none;stroke-width:1.33942;stroke-linecap:round;stroke-linejoin:round"
       transform="matrix(0.80145694,0.59805248,-0.64570475,0.76358718,0,0)"
       d="m 49.636562,-19.648606 17.913612,0.659999 -12.293636,7.542244 -12.235392,0.07639 z"
       sodipodi:nodetypes="ccccc" /><path
       id="path7"
       style="fill:#f2a400;fill-opacity:1;stroke:#7e5600;stroke-width:2.55322915;stroke-linecap:round;stroke-linejoin:round;stroke-opacity:1;stroke-dasharray:none"
       d="m 26.619434,24.707472 a 7.6499996,7.5 0 0 0 -7.649662,7.500318 7.6499996,7.5 0 0 0 7.649662,7.4998 7.6499996,7.5 0 0 0 7.650179,-7.4998 7.6499996,7.5 0 0 0 -7.650179,-7.500318 z m 0.106453,3.728455 a 4.6644082,4.6735077 0 0 1 4.664315,4.673099 4.6644082,4.6735077 0 0 1 -4.664315,4.673617 4.6644082,4.6735077 0 0 1 -4.664315,-4.673617 4.6644082,4.6735077 0 0 1 4.664315,-4.673099 z" /><rect
       style="fill:#5a2c19;fill-opacity:1;stroke:#211309;stroke-width:3.34777;stroke-linecap:round;stroke-linejoin:round;stroke-dasharray:none;stroke-opacity:1"
       id="rect6"
       width="69.04744"
       height="11.347533"
       x="12.042378"
       y="6.3813653" /><rect
       style="fill:#5a2c19;stroke:#211309;stroke-width:3.47397914;stroke-linecap:round;stroke-linejoin:round;stroke-opacity:1;fill-opacity:1;stroke-dasharray:none"
       id="rect5"
       width="13.13092"
       height="83.983025"
       x="73.832573"
       y="5.9503288" /><path
       id="path4"
       style="fill:#5a2c19;fill-opacity:1;stroke:#211309;stroke-width:3.65847;stroke-linecap:round;stroke-linejoin:round;stroke-dasharray:none;stroke-opacity:1"
       d="m 68.425548,80.459085 23.670273,0.534938 2.65636,16.917992 -29.769378,-0.120469 z"
       sodipodi:nodetypes="ccccc" /><path
       id="path6"
       style="fill:#f2a400;fill-opacity:1;stroke:#7e5600;stroke-width:2.55322915;stroke-linecap:round;stroke-linejoin:round;stroke-opacity:1;stroke-dasharray:none"
       d="m 26.937912,32.754333 c -8.3673,1.2e-5 -15.150253,6.783197 -15.149979,15.150497 1.01e-4,10.064381 -4.940784,-2.298493 -4.940784,17.690393 21.315762,8.3085 29.141559,2.64525 39.881287,0 0,-20.015992 -4.640645,-7.598912 -4.640544,-17.690393 2.74e-4,-8.3673 -6.78268,-15.150486 -15.14998,-15.150497 z"
       sodipodi:nodetypes="cccccc" /><path
       style="fill:none;fill-opacity:1;stroke:#ffffff;stroke-width:2.00017;stroke-linecap:round;stroke-linejoin:round;stroke-dasharray:none;stroke-opacity:1"
       d="M 26.627665,15.175249 V 29.85361"
       id="path9" /><g
       id="g5"
       transform="matrix(1.1673203,0,0,0.50026491,-22.478038,3.0419477)"
       style="fill:#211309;fill-opacity:1"><path
         id="path5"
         style="fill:#211309;fill-opacity:1;stroke-width:1.49814;stroke-linecap:round"
         d="m 59.869484,11.284221 c -0.375,0.231027 -11.199555,1.963065 -15.228575,1.963065 -4.029021,0 -12.858924,-0.524962 -13.458924,-0.94603 1.106251,-0.190304 9.429904,-1.660251 13.458924,-1.660251 4.02902,0 14.628574,0.398615 15.228575,0.643216 z"
         sodipodi:nodetypes="cscsc" /><path
         id="path7-2"
         style="fill:#211309;fill-opacity:1;stroke-width:1.65891;stroke-linecap:round"
         d="m 55.144484,21.294463 c -0.295588,0.359376 -8.827884,3.053657 -12.0037,3.053657 -3.175817,0 -10.135858,-0.816608 -10.608799,-1.471604 0.871986,-0.296027 7.432983,-2.582612 10.608799,-2.582612 3.175816,0 11.530758,0.620068 12.0037,1.000559 z"
         sodipodi:nodetypes="cscsc" /><path
         id="path9-7"
         style="fill:#211309;fill-opacity:1;stroke-width:1.07234;stroke-linecap:round"
         d="m 58.076069,23.852208 c -0.204342,0.216776 -6.083255,1.811811 -8.2689,1.796641 -2.185647,-0.01517 -6.973578,-0.544206 -7.297397,-0.944136 0.600868,-0.175563 5.122065,-1.532486 7.307709,-1.517317 2.185647,0.01517 7.93407,0.431544 8.258588,0.664812 z"
         sodipodi:nodetypes="cscsc" /></g><ellipse
       style="fill:#3a312b;fill-opacity:1;stroke:#130c07;stroke-width:1.9394;stroke-linecap:round;stroke-linejoin:round;stroke-dasharray:none;stroke-opacity:1"
       id="path8"
       cx="26.550001"
       cy="12.15"
       rx="2.8499999"
       ry="2.7" /><path
       id="path10"
       style="fill:#805700;stroke:#7e5600;stroke-width:2.23337;stroke-linecap:round;stroke-linejoin:round;fill-opacity:1;stroke-opacity:1"
       d="m 45.003016,65.099998 c 3e-6,1.65852 -8.021314,4.540974 -18.04695,4.540974 -10.025635,0 -18.2590835,-2.882454 -18.2590808,-4.540974 7e-7,-1.65852 8.1273818,-3.003016 18.1530148,-3.003016 10.025633,0 18.153015,1.344496 18.153016,3.003016 z"
       sodipodi:nodetypes="sssss" /><ellipse
       style="fill:#513700;fill-opacity:1;stroke:none;stroke-width:2.95796;stroke-linecap:round;stroke-linejoin:round;stroke-dasharray:none;stroke-opacity:1"
       id="path12"
       cx="26.62257"
       cy="66.556427"
       rx="16.440233"
       ry="3.0228815" /><path
       style="fill:none;fill-opacity:1;stroke:#7e5600;stroke-width:4.18491;stroke-linecap:round;stroke-linejoin:round;stroke-dasharray:none;stroke-opacity:1"
       d="M 27.014429,73.951946 V 64.025991"
       id="path11" /><ellipse
       style="fill:#f2a400;fill-opacity:1;stroke:#7e5600;stroke-width:3.3777;stroke-linecap:round;stroke-linejoin:round;stroke-dasharray:none;stroke-opacity:1"
       id="ellipse11"
       cx="27.236765"
       cy="-78.340897"
       rx="4.2683492"
       ry="5.4683495"
       transform="scale(1,-1)" /><path
       id="path14"
       style="fill:#ffffff;fill-opacity:1;stroke:none;stroke-width:2.1299;stroke-linecap:round;stroke-linejoin:round;stroke-opacity:1"
       d="M 21.319112 35.907369 C 16.648008 38.488062 13.484778 43.463668 13.484965 49.177876 C 13.485048 57.489468 10.11531 50.504861 8.941573 59.078564 L 13.678235 59.078564 A 14.775 17.924999 0 0 1 13.649813 57.974755 A 14.775 17.924999 0 0 1 21.319112 42.259436 L 21.319112 35.907369 z " /><ellipse
       style="fill:#000000;fill-opacity:0.394032;stroke:none;stroke-width:1.92256;stroke-linecap:round;stroke-linejoin:round;stroke-dasharray:none;stroke-opacity:1"
       id="path1"
       cx="28.200003"
       cy="96.004166"
       rx="14.700001"
       ry="1.875" /><path
       style="fill:#3b1411;fill-opacity:1;stroke:#130c07;stroke-width:1.44065624;stroke-linecap:round;stroke-opacity:1;stroke-dasharray:none"
       d="m 24.448216,10.553569 c 0.106067,0.132582 4.269159,3.341079 4.269159,3.341079"
       id="path2" /><path
       id="rect2"
       style="fill:#3f1b13;fill-opacity:1;stroke:none;stroke-width:2.79233;stroke-linecap:round;stroke-linejoin:round;stroke-dasharray:none;stroke-opacity:1"
       d="M 75.587605,7.6990682 V 79.082055 h 9.980982 V 74.118712 A 18.614249,43.509016 0 0 1 79.215875,41.383482 18.614249,43.509016 0 0 1 85.568587,8.6482528 V 7.6990682 Z" /><g
       id="g23"
       transform="translate(-22.5,-5.0999999)"><path
         id="path10-0"
         style="fill:#783821;fill-opacity:1;stroke-width:0.820241;stroke-linecap:round"
         d="m 106.94004,28.280741 c -0.1486,-0.174771 -1.26263,-5.219605 -1.26263,-7.097347 0,-1.877743 0.33765,-5.992954 0.60848,-6.272589 0.1224,0.515571 1.06786,4.394846 1.06786,6.272589 0,1.877742 -0.25639,6.817712 -0.41371,7.097347 z"
         sodipodi:nodetypes="cscsc" /><path
         id="path13"
         style="fill:#26120b;fill-opacity:1;stroke-width:0.991436;stroke-linecap:round"
         d="m 100.85456,28.7907 c -0.20923,-0.181342 -1.777852,-5.415825 -1.777852,-7.364161 0,-1.948331 0.475433,-6.218259 0.856774,-6.508403 0.172348,0.534958 1.503608,4.560072 1.503608,6.508403 0,1.948336 -0.36101,7.074016 -0.58253,7.364161 z"
         sodipodi:nodetypes="cscsc" /><path
         id="path14-6"
         style="fill:#26120b;fill-opacity:1;stroke-width:0.640876;stroke-linecap:round"
         d="m 102.16001,24.883738 c -0.12621,-0.125361 -1.05484,-3.732025 -1.04601,-5.072895 0.009,-1.340877 0.31684,-4.278228 0.54968,-4.476889 0.10221,0.368628 0.89222,3.142344 0.88339,4.483214 -0.009,1.340876 -0.25125,4.86748 -0.38706,5.06657 z"
         sodipodi:nodetypes="cscsc" /><path
         id="path17"
         style="fill:#783821;fill-opacity:1;stroke-width:0.521073;stroke-linecap:round"
         d="m 103.68501,31.409545 c -0.0944,-0.111017 -0.80218,-3.315532 -0.80218,-4.508287 0,-1.192755 0.21452,-3.806773 0.38658,-3.984397 0.0778,0.327494 0.67845,2.791642 0.67845,3.984397 0,1.192755 -0.16289,4.330663 -0.26285,4.508287 z"
         sodipodi:nodetypes="cscsc" /></g><g
       id="g22"
       transform="matrix(1.1673203,0,0,0.50026491,4.0384659,4.951136)"
       style="fill:#211309;fill-opacity:1"><path
         id="path20"
         style="fill:#211309;fill-opacity:1;stroke-width:1.49814;stroke-linecap:round"
         d="m 59.869484,11.284221 c -0.375,0.231027 -11.199555,1.963065 -15.228575,1.963065 -4.029021,0 -12.858924,-0.524962 -13.458924,-0.94603 1.106251,-0.190304 9.429904,-1.660251 13.458924,-1.660251 4.02902,0 14.628574,0.398615 15.228575,0.643216 z"
         sodipodi:nodetypes="cscsc" /><path
         id="path21"
         style="fill:#211309;fill-opacity:1;stroke-width:1.65891;stroke-linecap:round"
         d="m 55.144484,21.294463 c -0.295588,0.359376 -8.827884,3.053657 -12.0037,3.053657 -3.175817,0 -10.135858,-0.816608 -10.608799,-1.471604 0.871986,-0.296027 7.432983,-2.582612 10.608799,-2.582612 3.175816,0 11.530758,0.620068 12.0037,1.000559 z"
         sodipodi:nodetypes="cscsc" /><path
         id="path22"
         style="fill:#211309;fill-opacity:1;stroke-width:1.07234;stroke-linecap:round"
         d="m 58.076069,23.852208 c -0.204342,0.216776 -6.083255,1.811811 -8.2689,1.796641 -2.185647,-0.01517 -6.973578,-0.544206 -7.297397,-0.944136 0.600868,-0.175563 5.122065,-1.532486 7.307709,-1.517317 2.185647,0.01517 7.93407,0.431544 8.258588,0.664812 z"
         sodipodi:nodetypes="cscsc" /></g><g
       id="g26"
       transform="matrix(-0.9993099,0.04954885,0.03714453,1.333027,182.84896,1.2140581)"><path
         id="path23"
         style="fill:#783821;fill-opacity:1;stroke-width:0.820241;stroke-linecap:round"
         d="m 106.94004,28.280741 c -0.1486,-0.174771 -1.26263,-5.219605 -1.26263,-7.097347 0,-1.877743 0.33765,-5.992954 0.60848,-6.272589 0.1224,0.515571 1.06786,4.394846 1.06786,6.272589 0,1.877742 -0.25639,6.817712 -0.41371,7.097347 z"
         sodipodi:nodetypes="cscsc" /><path
         id="path24"
         style="fill:#26120b;fill-opacity:1;stroke-width:0.991436;stroke-linecap:round"
         d="m 100.85456,28.7907 c -0.20923,-0.181342 -1.777852,-5.415825 -1.777852,-7.364161 0,-1.948331 0.475433,-6.218259 0.856774,-6.508403 0.172348,0.534958 1.503608,4.560072 1.503608,6.508403 0,1.948336 -0.36101,7.074016 -0.58253,7.364161 z"
         sodipodi:nodetypes="cscsc" /><path
         id="path25"
         style="fill:#26120b;fill-opacity:1;stroke-width:0.640876;stroke-linecap:round"
         d="m 102.16001,24.883738 c -0.12621,-0.125361 -1.05484,-3.732025 -1.04601,-5.072895 0.009,-1.340877 0.31684,-4.278228 0.54968,-4.476889 0.10221,0.368628 0.89222,3.142344 0.88339,4.483214 -0.009,1.340876 -0.25125,4.86748 -0.38706,5.06657 z"
         sodipodi:nodetypes="cscsc" /><path
         id="path26"
         style="fill:#783821;fill-opacity:1;stroke-width:0.521073;stroke-linecap:round"
         d="m 103.68501,31.409545 c -0.0944,-0.111017 -0.80218,-3.315532 -0.80218,-4.508287 0,-1.192755 0.21452,-3.806773 0.38658,-3.984397 0.0778,0.327494 0.67845,2.791642 0.67845,3.984397 0,1.192755 -0.16289,4.330663 -0.26285,4.508287 z"
         sodipodi:nodetypes="cscsc" /></g><g
       id="g30"
       transform="translate(-22.8,36.599999)"><path
         id="path27"
         style="fill:#783821;fill-opacity:1;stroke-width:0.820241;stroke-linecap:round"
         d="m 106.94004,28.280741 c -0.1486,-0.174771 -1.26263,-5.219605 -1.26263,-7.097347 0,-1.877743 0.33765,-5.992954 0.60848,-6.272589 0.1224,0.515571 1.06786,4.394846 1.06786,6.272589 0,1.877742 -0.25639,6.817712 -0.41371,7.097347 z"
         sodipodi:nodetypes="cscsc" /><path
         id="path28"
         style="fill:#26120b;fill-opacity:1;stroke-width:0.991436;stroke-linecap:round"
         d="m 100.85456,28.7907 c -0.20923,-0.181342 -1.777852,-5.415825 -1.777852,-7.364161 0,-1.948331 0.475433,-6.218259 0.856774,-6.508403 0.172348,0.534958 1.503608,4.560072 1.503608,6.508403 0,1.948336 -0.36101,7.074016 -0.58253,7.364161 z"
         sodipodi:nodetypes="cscsc" /><path
         id="path29"
         style="fill:#26120b;fill-opacity:1;stroke-width:0.640876;stroke-linecap:round"
         d="m 102.16001,24.883738 c -0.12621,-0.125361 -1.05484,-3.732025 -1.04601,-5.072895 0.009,-1.340877 0.31684,-4.278228 0.54968,-4.476889 0.10221,0.368628 0.89222,3.142344 0.88339,4.483214 -0.009,1.340876 -0.25125,4.86748 -0.38706,5.06657 z"
         sodipodi:nodetypes="cscsc" /><path
         id="path30"
         style="fill:#783821;fill-opacity:1;stroke-width:0.521073;stroke-linecap:round"
         d="m 103.68501,31.409545 c -0.0944,-0.111017 -0.80218,-3.315532 -0.80218,-4.508287 0,-1.192755 0.21452,-3.806773 0.38658,-3.984397 0.0778,0.327494 0.67845,2.791642 0.67845,3.984397 0,1.192755 -0.16289,4.330663 -0.26285,4.508287 z"
         sodipodi:nodetypes="cscsc" /></g></g></svg>
