<?xml version="1.0" encoding="UTF-8" standalone="no"?>
<!-- Created with Inkscape (http://www.inkscape.org/) -->

<svg
   width="377.95276"
   height="377.95276"
   viewBox="0 0 100 100"
   version="1.1"
   id="svg1"
   inkscape:version="1.4.2 (ebf0e940d0, 2025-05-08)"
   sodipodi:docname="sino-hover.svg"
   xml:space="preserve"
   xmlns:inkscape="http://www.inkscape.org/namespaces/inkscape"
   xmlns:sodipodi="http://sodipodi.sourceforge.net/DTD/sodipodi-0.dtd"
   xmlns="http://www.w3.org/2000/svg"
   xmlns:svg="http://www.w3.org/2000/svg"><sodipodi:namedview
     id="namedview1"
     pagecolor="#505050"
     bordercolor="#eeeeee"
     borderopacity="1"
     inkscape:showpageshadow="0"
     inkscape:pageopacity="0"
     inkscape:pagecheckerboard="0"
     inkscape:deskcolor="#505050"
     inkscape:document-units="px"
     inkscape:zoom="2.4945156"
     inkscape:cx="194.62696"
     inkscape:cy="109.23965"
     inkscape:window-width="1366"
     inkscape:window-height="697"
     inkscape:window-x="0"
     inkscape:window-y="0"
     inkscape:window-maximized="1"
     inkscape:current-layer="layer1" /><defs
     id="defs1"><linearGradient
       id="linearGradient13895"
       inkscape:swatch="solid"><stop
         style="stop-color:#000000;stop-opacity:1;"
         offset="0"
         id="stop13893" /></linearGradient><filter
       style="color-interpolation-filters:sRGB;"
       inkscape:label="Clean Edges"
       id="filter14269"
       x="-0.31154084"
       y="-0.29580634"
       width="1.6230817"
       height="1.5916127"><feGaussianBlur
         stdDeviation="0.204612"
         result="blur"
         id="feGaussianBlur14263" /><feComposite
         in="SourceGraphic"
         in2="blur"
         operator="in"
         result="composite1"
         id="feComposite14265" /><feComposite
         in="composite1"
         in2="composite1"
         operator="in"
         result="composite2"
         id="feComposite14267" /></filter><inkscape:path-effect
       effect="fillet_chamfer"
       id="path-effect68"
       is_visible="true"
       lpeversion="1"
       nodesatellites_param="F,0,0,1,0,0,0,1 @ F,0,0,1,0,0,0,1 @ F,0,0,1,0,0,0,1 @ F,0,0,1,0,0,0,1 @ F,0,0,1,0,0,0,1 @ F,0,0,1,0,0,0,1 @ F,0,0,1,0,0,0,1 @ F,0,0,1,0,0,0,1 @ F,0,0,1,0,0,0,1"
       radius="0"
       unit="px"
       method="auto"
       mode="F"
       chamfer_steps="1"
       flexible="false"
       use_knot_distance="true"
       apply_no_radius="true"
       apply_with_radius="true"
       only_selected="false"
       hide_knots="false" /><inkscape:path-effect
       effect="fillet_chamfer"
       id="path-effect66"
       is_visible="true"
       lpeversion="1"
       nodesatellites_param="F,0,0,1,0,0,0,1 @ F,0,0,1,0,0.44929322,0,1 @ F,0,0,1,0,0.44929322,0,1 @ F,0,0,1,0,0,0,1 @ F,0,0,1,0,0,0,1 @ F,0,0,1,0,0,0,1 @ F,0,0,1,0,0,0,1 @ F,0,0,1,0,0,0,1 @ F,0,0,1,0,0,0,1 @ F,0,0,1,0,0,0,1"
       radius="0"
       unit="px"
       method="auto"
       mode="F"
       chamfer_steps="1"
       flexible="false"
       use_knot_distance="true"
       apply_no_radius="true"
       apply_with_radius="true"
       only_selected="false"
       hide_knots="false" /><inkscape:path-effect
       effect="fillet_chamfer"
       id="path-effect68-6"
       is_visible="true"
       lpeversion="1"
       nodesatellites_param="F,0,0,1,0,0,0,1 @ F,0,0,1,0,0,0,1 @ F,0,0,1,0,0,0,1 @ F,0,0,1,0,0,0,1 @ F,0,0,1,0,0,0,1 @ F,0,0,1,0,0,0,1 @ F,0,0,1,0,0,0,1 @ F,0,0,1,0,0,0,1 @ F,0,0,1,0,0,0,1"
       radius="0"
       unit="px"
       method="auto"
       mode="F"
       chamfer_steps="1"
       flexible="false"
       use_knot_distance="true"
       apply_no_radius="true"
       apply_with_radius="true"
       only_selected="false"
       hide_knots="false" /><inkscape:path-effect
       effect="fillet_chamfer"
       id="path-effect66-7"
       is_visible="true"
       lpeversion="1"
       nodesatellites_param="F,0,0,1,0,0,0,1 @ F,0,0,1,0,0.44929322,0,1 @ F,0,0,1,0,0.44929322,0,1 @ F,0,0,1,0,0,0,1 @ F,0,0,1,0,0,0,1 @ F,0,0,1,0,0,0,1 @ F,0,0,1,0,0,0,1 @ F,0,0,1,0,0,0,1 @ F,0,0,1,0,0,0,1 @ F,0,0,1,0,0,0,1"
       radius="0"
       unit="px"
       method="auto"
       mode="F"
       chamfer_steps="1"
       flexible="false"
       use_knot_distance="true"
       apply_no_radius="true"
       apply_with_radius="true"
       only_selected="false"
       hide_knots="false" /><inkscape:path-effect
       effect="fillet_chamfer"
       id="path-effect68-7"
       is_visible="true"
       lpeversion="1"
       nodesatellites_param="F,0,0,1,0,0,0,1 @ F,0,0,1,0,0,0,1 @ F,0,0,1,0,0,0,1 @ F,0,0,1,0,0,0,1 @ F,0,0,1,0,0,0,1 @ F,0,0,1,0,0,0,1 @ F,0,0,1,0,0,0,1 @ F,0,0,1,0,0,0,1 @ F,0,0,1,0,0,0,1"
       radius="0"
       unit="px"
       method="auto"
       mode="F"
       chamfer_steps="1"
       flexible="false"
       use_knot_distance="true"
       apply_no_radius="true"
       apply_with_radius="true"
       only_selected="false"
       hide_knots="false" /><inkscape:path-effect
       effect="fillet_chamfer"
       id="path-effect66-5"
       is_visible="true"
       lpeversion="1"
       nodesatellites_param="F,0,0,1,0,0,0,1 @ F,0,0,1,0,0.44929322,0,1 @ F,0,0,1,0,0.44929322,0,1 @ F,0,0,1,0,0,0,1 @ F,0,0,1,0,0,0,1 @ F,0,0,1,0,0,0,1 @ F,0,0,1,0,0,0,1 @ F,0,0,1,0,0,0,1 @ F,0,0,1,0,0,0,1 @ F,0,0,1,0,0,0,1"
       radius="0"
       unit="px"
       method="auto"
       mode="F"
       chamfer_steps="1"
       flexible="false"
       use_knot_distance="true"
       apply_no_radius="true"
       apply_with_radius="true"
       only_selected="false"
       hide_knots="false" /><inkscape:path-effect
       effect="fillet_chamfer"
       id="path-effect68-3"
       is_visible="true"
       lpeversion="1"
       nodesatellites_param="F,0,0,1,0,0,0,1 @ F,0,0,1,0,0,0,1 @ F,0,0,1,0,0,0,1 @ F,0,0,1,0,0,0,1 @ F,0,0,1,0,0,0,1 @ F,0,0,1,0,0,0,1 @ F,0,0,1,0,0,0,1 @ F,0,0,1,0,0,0,1 @ F,0,0,1,0,0,0,1"
       radius="0"
       unit="px"
       method="auto"
       mode="F"
       chamfer_steps="1"
       flexible="false"
       use_knot_distance="true"
       apply_no_radius="true"
       apply_with_radius="true"
       only_selected="false"
       hide_knots="false" /><inkscape:path-effect
       effect="fillet_chamfer"
       id="path-effect66-6"
       is_visible="true"
       lpeversion="1"
       nodesatellites_param="F,0,0,1,0,0,0,1 @ F,0,0,1,0,0.44929322,0,1 @ F,0,0,1,0,0.44929322,0,1 @ F,0,0,1,0,0,0,1 @ F,0,0,1,0,0,0,1 @ F,0,0,1,0,0,0,1 @ F,0,0,1,0,0,0,1 @ F,0,0,1,0,0,0,1 @ F,0,0,1,0,0,0,1 @ F,0,0,1,0,0,0,1"
       radius="0"
       unit="px"
       method="auto"
       mode="F"
       chamfer_steps="1"
       flexible="false"
       use_knot_distance="true"
       apply_no_radius="true"
       apply_with_radius="true"
       only_selected="false"
       hide_knots="false" /><filter
       style="color-interpolation-filters:sRGB;"
       inkscape:label="Clean Edges"
       id="filter14269-5"
       x="-0.31154084"
       y="-0.29580634"
       width="1.6230817"
       height="1.5916127"><feGaussianBlur
         stdDeviation="0.204612"
         result="blur"
         id="feGaussianBlur14263-6" /><feComposite
         in="SourceGraphic"
         in2="blur"
         operator="in"
         result="composite1"
         id="feComposite14265-2" /><feComposite
         in="composite1"
         in2="composite1"
         operator="in"
         result="composite2"
         id="feComposite14267-9" /></filter></defs><g
     inkscape:label="Camada 1"
     inkscape:groupmode="layer"
     id="layer1"><path
       id="ellipse1"
       style="fill:#000000;fill-opacity:0.394032;stroke:none;stroke-width:3.14498;stroke-linecap:round;stroke-linejoin:round;stroke-dasharray:none;stroke-opacity:1"
       d="M 71.249914 93.149869 A 22.35 3.3 0 0 0 50.296671 95.301676 A 14.700001 1.875 0 0 0 36.666495 94.129137 A 14.700001 1.875 0 0 0 21.966618 96.003958 A 14.700001 1.875 0 0 0 36.666495 97.879296 A 14.700001 1.875 0 0 0 49.195446 96.984777 A 22.35 3.3 0 0 0 71.249914 99.749983 A 22.35 3.3 0 0 0 93.599971 96.449926 A 22.35 3.3 0 0 0 71.249914 93.149869 z " /><rect
       style="fill:#5a2c19;fill-opacity:1;stroke:#ffffff;stroke-width:2.58444998;stroke-linecap:round;stroke-linejoin:round;stroke-opacity:1;stroke-dasharray:none"
       id="rect7"
       width="50.037399"
       height="10.337492"
       x="40.215622"
       y="-22.148563"
       transform="rotate(38.462215)" /><path
       id="rect15"
       style="fill:#3b1411;fill-opacity:1;stroke:none;stroke-width:1.33942;stroke-linecap:round;stroke-linejoin:round"
       transform="matrix(0.80145694,0.59805248,-0.64570475,0.76358718,0,0)"
       d="m 49.636562,-19.648606 17.913612,0.659999 -12.293636,7.542244 -12.235392,0.07639 z"
       sodipodi:nodetypes="ccccc" /><path
       id="path7"
       style="fill:#f2a400;fill-opacity:1;stroke:#ffffff;stroke-width:2.55323;stroke-linecap:round;stroke-linejoin:round;stroke-dasharray:none;stroke-opacity:1"
       d="m 29.325113,25.507482 a 7.5,7.6499996 79.920831 0 0 -6.218983,8.723323 7.5,7.6499996 79.920831 0 0 8.844135,6.045296 7.5,7.6499996 79.920831 0 0 6.219582,-8.722903 7.5,7.6499996 79.920831 0 0 -8.844734,-6.045716 z m 0.757322,3.652283 a 4.6735077,4.6644082 79.920831 0 1 5.410163,3.784683 4.6735077,4.6644082 79.920831 0 1 -3.774406,5.417784 4.6735077,4.6644082 79.920831 0 1 -5.410254,-3.785192 4.6735077,4.6644082 79.920831 0 1 3.774497,-5.417275 z" /><path
       id="path6"
       style="fill:#f2a400;fill-opacity:1;stroke:#ffffff;stroke-width:2.55323;stroke-linecap:round;stroke-linejoin:round;stroke-dasharray:none;stroke-opacity:1"
       d="m 31.046947,33.374418 c -8.238165,1.464363 -13.729318,9.329939 -12.264698,17.568057 1.761455,9.909039 -5.266788,-1.398339 -1.768558,18.282056 22.440854,4.449828 29.154756,-2.495603 39.265794,-6.979576 -3.502974,-19.707082 -5.898901,-6.669483 -7.6649,-16.605239 -1.464081,-8.238214 -9.32947,-13.729638 -17.567638,-12.265298 z"
       sodipodi:nodetypes="cccccc" /><path
       id="path10"
       style="fill:#805700;fill-opacity:1;stroke:#ffffff;stroke-width:2.23337;stroke-linecap:round;stroke-linejoin:round;stroke-opacity:1"
       d="m 54.494025,62.059337 c 0.290259,1.632923 -7.10281,5.874693 -16.973719,7.629267 -9.870908,1.754574 -18.481743,0.357531 -18.771996,-1.275393 -0.290255,-1.632924 7.476397,-4.379033 17.347303,-6.133607 9.870906,-1.754574 18.108156,-1.853191 18.398412,-0.220267 z"
       sodipodi:nodetypes="sssss" /><ellipse
       style="fill:#513700;fill-opacity:1;stroke:none;stroke-width:2.95796;stroke-linecap:round;stroke-linejoin:round;stroke-dasharray:none;stroke-opacity:1"
       id="path12"
       cx="24.492832"
       cy="71.032082"
       rx="16.440233"
       ry="3.0228815"
       transform="rotate(-10.079169)" /><path
       style="fill:none;fill-opacity:1;stroke:#ffffff;stroke-width:4.5931;stroke-linecap:round;stroke-linejoin:round;stroke-dasharray:none;stroke-opacity:1"
       d="m 46.496841,69.78205 -8.94468,-6.58237"
       id="path11" /><ellipse
       style="fill:#513700;fill-opacity:1;stroke:#ffffff;stroke-width:3.3777;stroke-linecap:round;stroke-linejoin:round;stroke-dasharray:none;stroke-opacity:1"
       id="ellipse11"
       cx="-3.9450524"
       cy="-90.359787"
       rx="4.2683492"
       ry="5.4683495"
       transform="matrix(0.80058879,-0.59921415,-0.59921415,-0.80058879,0,0)" /><path
       id="path14"
       style="fill:#ffffff;fill-opacity:1;stroke:none;stroke-width:2.1299;stroke-linecap:round;stroke-linejoin:round;stroke-opacity:1"
       d="m 26.066671,37.462133 c -4.14737,3.358349 -6.391007,8.810758 -5.390786,14.436746 1.454683,8.183303 -3.085417,1.896224 -2.740566,10.543023 l 4.663561,-0.828958 a 17.924999,14.775 79.920831 0 1 -0.221158,-1.0818 17.924999,14.775 79.920831 0 1 4.800619,-16.814977 z" /><rect
       style="fill:#5a2c19;fill-opacity:1;stroke:#ffffff;stroke-width:3.34777;stroke-linecap:round;stroke-linejoin:round;stroke-dasharray:none;stroke-opacity:1"
       id="rect6"
       width="69.04744"
       height="11.347533"
       x="12.042378"
       y="6.3813653" /><rect
       style="fill:#5a2c19;stroke:#ffffff;stroke-width:3.47397914;stroke-linecap:round;stroke-linejoin:round;stroke-opacity:1;fill-opacity:1;stroke-dasharray:none"
       id="rect5"
       width="13.13092"
       height="83.983025"
       x="73.832573"
       y="5.9503288" /><path
       id="path4"
       style="fill:#5a2c19;fill-opacity:1;stroke:#ffffff;stroke-width:3.65847;stroke-linecap:round;stroke-linejoin:round;stroke-dasharray:none;stroke-opacity:1"
       d="m 68.425548,80.459085 23.670273,0.534938 2.65636,16.917992 -29.769378,-0.120469 z"
       sodipodi:nodetypes="ccccc" /><g
       id="g5"
       transform="matrix(1.1673203,0,0,0.50026491,-22.478038,3.0419477)"
       style="fill:#211309;fill-opacity:1"><path
         id="path5"
         style="fill:#211309;fill-opacity:1;stroke-width:1.49814;stroke-linecap:round"
         d="m 59.869484,11.284221 c -0.375,0.231027 -11.199555,1.963065 -15.228575,1.963065 -4.029021,0 -12.858924,-0.524962 -13.458924,-0.94603 1.106251,-0.190304 9.429904,-1.660251 13.458924,-1.660251 4.02902,0 14.628574,0.398615 15.228575,0.643216 z"
         sodipodi:nodetypes="cscsc" /><path
         id="path7-2"
         style="fill:#211309;fill-opacity:1;stroke-width:1.65891;stroke-linecap:round"
         d="m 55.144484,21.294463 c -0.295588,0.359376 -8.827884,3.053657 -12.0037,3.053657 -3.175817,0 -10.135858,-0.816608 -10.608799,-1.471604 0.871986,-0.296027 7.432983,-2.582612 10.608799,-2.582612 3.175816,0 11.530758,0.620068 12.0037,1.000559 z"
         sodipodi:nodetypes="cscsc" /><path
         id="path9-7"
         style="fill:#211309;fill-opacity:1;stroke-width:1.07234;stroke-linecap:round"
         d="m 58.076069,23.852208 c -0.204342,0.216776 -6.083255,1.811811 -8.2689,1.796641 -2.185647,-0.01517 -6.973578,-0.544206 -7.297397,-0.944136 0.600868,-0.175563 5.122065,-1.532486 7.307709,-1.517317 2.185647,0.01517 7.93407,0.431544 8.258588,0.664812 z"
         sodipodi:nodetypes="cscsc" /></g><path
       style="fill:none;fill-opacity:1;stroke:#ffffff;stroke-width:2.05343;stroke-linecap:round;stroke-linejoin:round;stroke-dasharray:none;stroke-opacity:1"
       d="m 26.785142,15.197304 3.435046,15.084251"
       id="path9" /><ellipse
       style="fill:#3a312b;fill-opacity:1;stroke:#ffffff;stroke-width:1.9394;stroke-linecap:round;stroke-linejoin:round;stroke-dasharray:none;stroke-opacity:1"
       id="path8"
       cx="26.550001"
       cy="12.15"
       rx="2.8499999"
       ry="2.7" /><path
       style="fill:#3b1411;fill-opacity:1;stroke:#ffffff;stroke-width:1.44065624;stroke-linecap:round;stroke-opacity:1;stroke-dasharray:none"
       d="m 24.448216,10.553569 c 0.106067,0.132582 4.269159,3.341079 4.269159,3.341079"
       id="path2" /><path
       id="rect2"
       style="fill:#3f1b13;fill-opacity:1;stroke:none;stroke-width:2.79233;stroke-linecap:round;stroke-linejoin:round;stroke-dasharray:none;stroke-opacity:1"
       d="M 75.587605,7.6990682 V 79.082055 h 9.980982 V 74.118712 A 18.614249,43.509016 0 0 1 79.215875,41.383482 18.614249,43.509016 0 0 1 85.568587,8.6482528 V 7.6990682 Z" /><g
       id="g23"
       transform="translate(-22.5,-5.0999999)"><path
         id="path10-0"
         style="fill:#783821;fill-opacity:1;stroke-width:0.820241;stroke-linecap:round"
         d="m 106.94004,28.280741 c -0.1486,-0.174771 -1.26263,-5.219605 -1.26263,-7.097347 0,-1.877743 0.33765,-5.992954 0.60848,-6.272589 0.1224,0.515571 1.06786,4.394846 1.06786,6.272589 0,1.877742 -0.25639,6.817712 -0.41371,7.097347 z"
         sodipodi:nodetypes="cscsc" /><path
         id="path13"
         style="fill:#26120b;fill-opacity:1;stroke-width:0.991436;stroke-linecap:round"
         d="m 100.85456,28.7907 c -0.20923,-0.181342 -1.777852,-5.415825 -1.777852,-7.364161 0,-1.948331 0.475433,-6.218259 0.856774,-6.508403 0.172348,0.534958 1.503608,4.560072 1.503608,6.508403 0,1.948336 -0.36101,7.074016 -0.58253,7.364161 z"
         sodipodi:nodetypes="cscsc" /><path
         id="path14-6"
         style="fill:#26120b;fill-opacity:1;stroke-width:0.640876;stroke-linecap:round"
         d="m 102.16001,24.883738 c -0.12621,-0.125361 -1.05484,-3.732025 -1.04601,-5.072895 0.009,-1.340877 0.31684,-4.278228 0.54968,-4.476889 0.10221,0.368628 0.89222,3.142344 0.88339,4.483214 -0.009,1.340876 -0.25125,4.86748 -0.38706,5.06657 z"
         sodipodi:nodetypes="cscsc" /><path
         id="path17"
         style="fill:#783821;fill-opacity:1;stroke-width:0.521073;stroke-linecap:round"
         d="m 103.68501,31.409545 c -0.0944,-0.111017 -0.80218,-3.315532 -0.80218,-4.508287 0,-1.192755 0.21452,-3.806773 0.38658,-3.984397 0.0778,0.327494 0.67845,2.791642 0.67845,3.984397 0,1.192755 -0.16289,4.330663 -0.26285,4.508287 z"
         sodipodi:nodetypes="cscsc" /></g><g
       id="g22"
       transform="matrix(1.1673203,0,0,0.50026491,4.0384659,4.951136)"
       style="fill:#211309;fill-opacity:1"><path
         id="path20"
         style="fill:#211309;fill-opacity:1;stroke-width:1.49814;stroke-linecap:round"
         d="m 59.869484,11.284221 c -0.375,0.231027 -11.199555,1.963065 -15.228575,1.963065 -4.029021,0 -12.858924,-0.524962 -13.458924,-0.94603 1.106251,-0.190304 9.429904,-1.660251 13.458924,-1.660251 4.02902,0 14.628574,0.398615 15.228575,0.643216 z"
         sodipodi:nodetypes="cscsc" /><path
         id="path21"
         style="fill:#211309;fill-opacity:1;stroke-width:1.65891;stroke-linecap:round"
         d="m 55.144484,21.294463 c -0.295588,0.359376 -8.827884,3.053657 -12.0037,3.053657 -3.175817,0 -10.135858,-0.816608 -10.608799,-1.471604 0.871986,-0.296027 7.432983,-2.582612 10.608799,-2.582612 3.175816,0 11.530758,0.620068 12.0037,1.000559 z"
         sodipodi:nodetypes="cscsc" /><path
         id="path22"
         style="fill:#211309;fill-opacity:1;stroke-width:1.07234;stroke-linecap:round"
         d="m 58.076069,23.852208 c -0.204342,0.216776 -6.083255,1.811811 -8.2689,1.796641 -2.185647,-0.01517 -6.973578,-0.544206 -7.297397,-0.944136 0.600868,-0.175563 5.122065,-1.532486 7.307709,-1.517317 2.185647,0.01517 7.93407,0.431544 8.258588,0.664812 z"
         sodipodi:nodetypes="cscsc" /></g><g
       id="g26"
       transform="matrix(-0.9993099,0.04954885,0.03714453,1.333027,182.84896,1.2140581)"><path
         id="path23"
         style="fill:#783821;fill-opacity:1;stroke-width:0.820241;stroke-linecap:round"
         d="m 106.94004,28.280741 c -0.1486,-0.174771 -1.26263,-5.219605 -1.26263,-7.097347 0,-1.877743 0.33765,-5.992954 0.60848,-6.272589 0.1224,0.515571 1.06786,4.394846 1.06786,6.272589 0,1.877742 -0.25639,6.817712 -0.41371,7.097347 z"
         sodipodi:nodetypes="cscsc" /><path
         id="path24"
         style="fill:#26120b;fill-opacity:1;stroke-width:0.991436;stroke-linecap:round"
         d="m 100.85456,28.7907 c -0.20923,-0.181342 -1.777852,-5.415825 -1.777852,-7.364161 0,-1.948331 0.475433,-6.218259 0.856774,-6.508403 0.172348,0.534958 1.503608,4.560072 1.503608,6.508403 0,1.948336 -0.36101,7.074016 -0.58253,7.364161 z"
         sodipodi:nodetypes="cscsc" /><path
         id="path25"
         style="fill:#26120b;fill-opacity:1;stroke-width:0.640876;stroke-linecap:round"
         d="m 102.16001,24.883738 c -0.12621,-0.125361 -1.05484,-3.732025 -1.04601,-5.072895 0.009,-1.340877 0.31684,-4.278228 0.54968,-4.476889 0.10221,0.368628 0.89222,3.142344 0.88339,4.483214 -0.009,1.340876 -0.25125,4.86748 -0.38706,5.06657 z"
         sodipodi:nodetypes="cscsc" /><path
         id="path26"
         style="fill:#783821;fill-opacity:1;stroke-width:0.521073;stroke-linecap:round"
         d="m 103.68501,31.409545 c -0.0944,-0.111017 -0.80218,-3.315532 -0.80218,-4.508287 0,-1.192755 0.21452,-3.806773 0.38658,-3.984397 0.0778,0.327494 0.67845,2.791642 0.67845,3.984397 0,1.192755 -0.16289,4.330663 -0.26285,4.508287 z"
         sodipodi:nodetypes="cscsc" /></g><g
       id="g30"
       transform="translate(-22.8,36.599999)"><path
         id="path27"
         style="fill:#783821;fill-opacity:1;stroke-width:0.820241;stroke-linecap:round"
         d="m 106.94004,28.280741 c -0.1486,-0.174771 -1.26263,-5.219605 -1.26263,-7.097347 0,-1.877743 0.33765,-5.992954 0.60848,-6.272589 0.1224,0.515571 1.06786,4.394846 1.06786,6.272589 0,1.877742 -0.25639,6.817712 -0.41371,7.097347 z"
         sodipodi:nodetypes="cscsc" /><path
         id="path28"
         style="fill:#26120b;fill-opacity:1;stroke-width:0.991436;stroke-linecap:round"
         d="m 100.85456,28.7907 c -0.20923,-0.181342 -1.777852,-5.415825 -1.777852,-7.364161 0,-1.948331 0.475433,-6.218259 0.856774,-6.508403 0.172348,0.534958 1.503608,4.560072 1.503608,6.508403 0,1.948336 -0.36101,7.074016 -0.58253,7.364161 z"
         sodipodi:nodetypes="cscsc" /><path
         id="path29"
         style="fill:#26120b;fill-opacity:1;stroke-width:0.640876;stroke-linecap:round"
         d="m 102.16001,24.883738 c -0.12621,-0.125361 -1.05484,-3.732025 -1.04601,-5.072895 0.009,-1.340877 0.31684,-4.278228 0.54968,-4.476889 0.10221,0.368628 0.89222,3.142344 0.88339,4.483214 -0.009,1.340876 -0.25125,4.86748 -0.38706,5.06657 z"
         sodipodi:nodetypes="cscsc" /><path
         id="path30"
         style="fill:#783821;fill-opacity:1;stroke-width:0.521073;stroke-linecap:round"
         d="m 103.68501,31.409545 c -0.0944,-0.111017 -0.80218,-3.315532 -0.80218,-4.508287 0,-1.192755 0.21452,-3.806773 0.38658,-3.984397 0.0778,0.327494 0.67845,2.791642 0.67845,3.984397 0,1.192755 -0.16289,4.330663 -0.26285,4.508287 z"
         sodipodi:nodetypes="cscsc" /></g><path
       style="fill:none;fill-opacity:1;stroke:#ffffff;stroke-width:1.44066;stroke-linecap:round;stroke-opacity:1"
       d="M 13.95,41.399999 C 6.6594022,47.553859 7.049243,55.499822 8.0999998,63.599998"
       id="path1"
       sodipodi:nodetypes="cc" /><path
       style="fill:none;fill-opacity:1;stroke:#ffffff;stroke-width:1.6002;stroke-linecap:round;stroke-opacity:1"
       d="M 8.7790155,38.509864 C 1.6694351,46.295422 2.0495966,56.34826 3.0742643,66.5962"
       id="path3"
       sodipodi:nodetypes="cc" /><path
       style="fill:#ffffff;fill-opacity:1;stroke:#ffffff;stroke-width:1.44066;stroke-linecap:round;stroke-opacity:1"
       d="m 40.835415,16.970562 32.031937,0.106067"
       id="path15" /></g></svg>
