<?xml version="1.0" encoding="UTF-8" standalone="no"?>
<!-- Created with Inkscape (http://www.inkscape.org/) -->

<svg
   width="377.95276"
   height="377.95276"
   viewBox="0 0 100 100"
   version="1.1"
   id="svg1"
   inkscape:version="1.4.2 (ebf0e940d0, 2025-05-08)"
   sodipodi:docname="sino.svg"
   xml:space="preserve"
   xmlns:inkscape="http://www.inkscape.org/namespaces/inkscape"
   xmlns:sodipodi="http://sodipodi.sourceforge.net/DTD/sodipodi-0.dtd"
   xmlns="http://www.w3.org/2000/svg"
   xmlns:svg="http://www.w3.org/2000/svg"><sodipodi:namedview
     id="namedview1"
     pagecolor="#505050"
     bordercolor="#eeeeee"
     borderopacity="1"
     inkscape:showpageshadow="0"
     inkscape:pageopacity="0"
     inkscape:pagecheckerboard="0"
     inkscape:deskcolor="#505050"
     inkscape:document-units="px"
     inkscape:zoom="3.5277778"
     inkscape:cx="148.3937"
     inkscape:cy="286.44094"
     inkscape:window-width="1366"
     inkscape:window-height="697"
     inkscape:window-x="0"
     inkscape:window-y="0"
     inkscape:window-maximized="1"
     inkscape:current-layer="layer1" /><defs
     id="defs1" /><g
     inkscape:label="Camada 1"
     inkscape:groupmode="layer"
     id="layer1"><rect
       style="fill:#4f2d16;fill-opacity:1;stroke:#211309;stroke-width:2.58444998;stroke-linecap:round;stroke-linejoin:round;stroke-opacity:1;stroke-dasharray:none"
       id="rect7"
       width="50.037399"
       height="10.337492"
       x="40.215622"
       y="-22.148563"
       transform="rotate(38.462215)" /><path
       id="rect15"
       style="fill:#211309;stroke:#211309;stroke-width:1.33942;stroke-linecap:round;stroke-linejoin:round"
       transform="matrix(0.80145694,0.59805248,-0.64570475,0.76358718,0,0)"
       d="m 50.473025,-20.581545 17.742076,0.447086 -15.41453,10.1696524 -9.779425,-1.4051624 z"
       sodipodi:nodetypes="ccccc" /><path
       id="path7"
       style="fill:#f2a400;fill-opacity:1;stroke:#211309;stroke-width:2.1299;stroke-linecap:round;stroke-linejoin:round;stroke-opacity:1"
       d="m 26.619434,24.707472 a 7.6499996,7.5 0 0 0 -7.649662,7.500318 7.6499996,7.5 0 0 0 7.649662,7.4998 7.6499996,7.5 0 0 0 7.650179,-7.4998 7.6499996,7.5 0 0 0 -7.650179,-7.500318 z m 0.106453,3.728455 a 4.6644082,4.6735077 0 0 1 4.664315,4.673099 4.6644082,4.6735077 0 0 1 -4.664315,4.673617 4.6644082,4.6735077 0 0 1 -4.664315,-4.673617 4.6644082,4.6735077 0 0 1 4.664315,-4.673099 z" /><rect
       style="fill:#4f2d16;fill-opacity:1;stroke:#211309;stroke-width:3.34777;stroke-linecap:round;stroke-linejoin:round;stroke-dasharray:none;stroke-opacity:1"
       id="rect6"
       width="69.04744"
       height="11.347533"
       x="12.042378"
       y="6.3813653" /><rect
       style="fill:#4f2d16;stroke:#211309;stroke-width:3.47397914;stroke-linecap:round;stroke-linejoin:round;stroke-opacity:1;fill-opacity:1;stroke-dasharray:none"
       id="rect5"
       width="13.13092"
       height="83.983025"
       x="73.832573"
       y="5.9503288" /><path
       id="path4"
       style="fill:#4f2d16;fill-opacity:1;stroke:#211309;stroke-width:3.65847;stroke-linecap:round;stroke-linejoin:round;stroke-dasharray:none;stroke-opacity:1"
       d="m 68.425548,80.459085 23.670273,0.534938 2.65636,16.917992 -29.769378,-0.120469 z"
       sodipodi:nodetypes="ccccc" /><path
       id="path6"
       style="fill:#f2a400;fill-opacity:1;stroke:#211309;stroke-width:2.1299;stroke-linecap:round;stroke-linejoin:round;stroke-opacity:1"
       d="m 26.937912,32.754333 c -8.3673,1.2e-5 -15.150253,6.783197 -15.149979,15.150497 1.01e-4,10.064381 -4.940784,-2.298493 -4.940784,17.690393 21.315762,8.3085 29.141559,2.64525 39.881287,0 0,-20.015992 -4.640645,-7.598912 -4.640544,-17.690393 2.74e-4,-8.3673 -6.78268,-15.150486 -15.14998,-15.150497 z"
       sodipodi:nodetypes="cccccc" /><path
       style="fill:none;fill-opacity:1;stroke:#ffffff;stroke-width:2.00017;stroke-linecap:round;stroke-linejoin:round;stroke-dasharray:none;stroke-opacity:1"
       d="M 26.627665,15.175249 V 29.85361"
       id="path9" /><ellipse
       style="fill:#3a312b;fill-opacity:1;stroke:#211309;stroke-width:1.9394;stroke-linecap:round;stroke-linejoin:round;stroke-dasharray:none;stroke-opacity:1"
       id="path8"
       cx="26.550001"
       cy="12.15"
       rx="2.8499999"
       ry="2.7" /><path
       id="path10"
       style="fill:#805700;stroke:#211309;stroke-width:2.23337;stroke-linecap:round;stroke-linejoin:round;fill-opacity:1"
       d="m 45.003016,65.099998 c 3e-6,1.65852 -8.021314,4.540974 -18.04695,4.540974 -10.025635,0 -18.2590835,-2.882454 -18.2590808,-4.540974 7e-7,-1.65852 8.1273818,-3.003016 18.1530148,-3.003016 10.025633,0 18.153015,1.344496 18.153016,3.003016 z"
       sodipodi:nodetypes="sssss" /><ellipse
       style="fill:#513700;fill-opacity:1;stroke:none;stroke-width:2.31851;stroke-linecap:round;stroke-linejoin:round;stroke-dasharray:none;stroke-opacity:1"
       id="path12"
       cx="26.62257"
       cy="66.079124"
       rx="12.51579"
       ry="2.4395185" /><path
       style="fill:none;fill-opacity:1;stroke:#211309;stroke-width:4.18491;stroke-linecap:round;stroke-linejoin:round;stroke-dasharray:none;stroke-opacity:1"
       d="M 27.014429,73.951946 V 64.025991"
       id="path11" /><ellipse
       style="fill:#805700;fill-opacity:1;stroke:#211309;stroke-width:2.45051;stroke-linecap:round;stroke-linejoin:round;stroke-dasharray:none;stroke-opacity:1"
       id="ellipse11"
       cx="27.049265"
       cy="-77.178398"
       rx="2.8944454"
       ry="4.2444458"
       transform="scale(1,-1)" /><path
       id="path14"
       style="fill:#ffffff;fill-opacity:1;stroke:none;stroke-width:2.1299;stroke-linecap:round;stroke-linejoin:round;stroke-opacity:1"
       d="M 21.319112 35.907369 C 16.648008 38.488062 13.484778 43.463668 13.484965 49.177876 C 13.485048 57.489468 10.11531 50.504861 8.941573 59.078564 L 13.678235 59.078564 A 14.775 17.924999 0 0 1 13.649813 57.974755 A 14.775 17.924999 0 0 1 21.319112 42.259436 L 21.319112 35.907369 z " /></g></svg>
