<?xml version="1.0" encoding="UTF-8" standalone="no"?>
<!-- Created with Inkscape (http://www.inkscape.org/) -->

<svg
   width="100"
   height="100"
   viewBox="0 0 26.458333 26.458334"
   version="1.1"
   id="svg5"
   inkscape:version="1.4.2 (ebf0e940d0, 2025-05-08)"
   sodipodi:docname="statue.svg"
   xml:space="preserve"
   xmlns:inkscape="http://www.inkscape.org/namespaces/inkscape"
   xmlns:sodipodi="http://sodipodi.sourceforge.net/DTD/sodipodi-0.dtd"
   xmlns="http://www.w3.org/2000/svg"
   xmlns:svg="http://www.w3.org/2000/svg"><sodipodi:namedview
     id="namedview7"
     pagecolor="#505050"
     bordercolor="#ffffff"
     borderopacity="1"
     inkscape:pageshadow="0"
     inkscape:pageopacity="0"
     inkscape:pagecheckerboard="1"
     inkscape:document-units="px"
     showgrid="false"
     units="px"
     width="100px"
     inkscape:snap-global="false"
     inkscape:zoom="4.868085"
     inkscape:cx="27.012676"
     inkscape:cy="54.74432"
     inkscape:window-width="1366"
     inkscape:window-height="697"
     inkscape:window-x="0"
     inkscape:window-y="0"
     inkscape:window-maximized="1"
     inkscape:current-layer="layer1"
     inkscape:showpageshadow="0"
     inkscape:deskcolor="#505050" /><defs
     id="defs2"><linearGradient
       id="linearGradient13895"
       inkscape:swatch="solid"><stop
         style="stop-color:#000000;stop-opacity:1;"
         offset="0"
         id="stop13893" /></linearGradient><filter
       style="color-interpolation-filters:sRGB;"
       inkscape:label="Clean Edges"
       id="filter14269"
       x="-0.31154084"
       y="-0.29580634"
       width="1.6230817"
       height="1.5916127"><feGaussianBlur
         stdDeviation="0.204612"
         result="blur"
         id="feGaussianBlur14263" /><feComposite
         in="SourceGraphic"
         in2="blur"
         operator="in"
         result="composite1"
         id="feComposite14265" /><feComposite
         in="composite1"
         in2="composite1"
         operator="in"
         result="composite2"
         id="feComposite14267" /></filter><inkscape:path-effect
       effect="fillet_chamfer"
       id="path-effect68"
       is_visible="true"
       lpeversion="1"
       nodesatellites_param="F,0,0,1,0,0,0,1 @ F,0,0,1,0,0,0,1 @ F,0,0,1,0,0,0,1 @ F,0,0,1,0,0,0,1 @ F,0,0,1,0,0,0,1 @ F,0,0,1,0,0,0,1 @ F,0,0,1,0,0,0,1 @ F,0,0,1,0,0,0,1 @ F,0,0,1,0,0,0,1"
       radius="0"
       unit="px"
       method="auto"
       mode="F"
       chamfer_steps="1"
       flexible="false"
       use_knot_distance="true"
       apply_no_radius="true"
       apply_with_radius="true"
       only_selected="false"
       hide_knots="false" /><inkscape:path-effect
       effect="fillet_chamfer"
       id="path-effect66"
       is_visible="true"
       lpeversion="1"
       nodesatellites_param="F,0,0,1,0,0,0,1 @ F,0,0,1,0,0.44929322,0,1 @ F,0,0,1,0,0.44929322,0,1 @ F,0,0,1,0,0,0,1 @ F,0,0,1,0,0,0,1 @ F,0,0,1,0,0,0,1 @ F,0,0,1,0,0,0,1 @ F,0,0,1,0,0,0,1 @ F,0,0,1,0,0,0,1 @ F,0,0,1,0,0,0,1"
       radius="0"
       unit="px"
       method="auto"
       mode="F"
       chamfer_steps="1"
       flexible="false"
       use_knot_distance="true"
       apply_no_radius="true"
       apply_with_radius="true"
       only_selected="false"
       hide_knots="false" /><inkscape:path-effect
       effect="fillet_chamfer"
       id="path-effect68-3"
       is_visible="true"
       lpeversion="1"
       nodesatellites_param="F,0,0,1,0,0,0,1 @ F,0,0,1,0,0,0,1 @ F,0,0,1,0,0,0,1 @ F,0,0,1,0,0,0,1 @ F,0,0,1,0,0,0,1 @ F,0,0,1,0,0,0,1 @ F,0,0,1,0,0,0,1 @ F,0,0,1,0,0,0,1 @ F,0,0,1,0,0,0,1"
       radius="0"
       unit="px"
       method="auto"
       mode="F"
       chamfer_steps="1"
       flexible="false"
       use_knot_distance="true"
       apply_no_radius="true"
       apply_with_radius="true"
       only_selected="false"
       hide_knots="false" /><inkscape:path-effect
       effect="fillet_chamfer"
       id="path-effect66-6"
       is_visible="true"
       lpeversion="1"
       nodesatellites_param="F,0,0,1,0,0,0,1 @ F,0,0,1,0,0.44929322,0,1 @ F,0,0,1,0,0.44929322,0,1 @ F,0,0,1,0,0,0,1 @ F,0,0,1,0,0,0,1 @ F,0,0,1,0,0,0,1 @ F,0,0,1,0,0,0,1 @ F,0,0,1,0,0,0,1 @ F,0,0,1,0,0,0,1 @ F,0,0,1,0,0,0,1"
       radius="0"
       unit="px"
       method="auto"
       mode="F"
       chamfer_steps="1"
       flexible="false"
       use_knot_distance="true"
       apply_no_radius="true"
       apply_with_radius="true"
       only_selected="false"
       hide_knots="false" /></defs><g
     inkscape:label="Camada 1"
     inkscape:groupmode="layer"
     id="layer1"><rect
       style="fill:none;fill-opacity:1;stroke:#191919;stroke-width:1.35683;stroke-dasharray:none;stroke-opacity:1"
       id="rect1"
       width="2.9518666"
       height="4.5166821"
       x="9.2979298"
       y="10.894769" /><path
       id="rect2"
       style="fill:#ffffff;stroke:#191919;stroke-width:0.619511"
       d="m 7.3963323,13.57468 h 6.8593687 l 0.01922,5.782488 -6.8785847,0.903144 z"
       sodipodi:nodetypes="ccccc" /><path
       id="path26"
       style="fill:#989898;fill-opacity:1;stroke:none;stroke-width:0.431011;stroke-opacity:1"
       d="m 9.902107,13.631441 c -0.8126798,0.169178 -1.0908568,0.301075 -0.8238095,0.952543 0.2670454,0.651463 1.1423325,1.042433 1.9550105,0.873252 0.812679,-0.169177 1.255004,-0.834439 0.98796,-1.485903 -0.267042,-0.651462 -1.306479,-0.509067 -2.1191578,-0.339889 z"
       sodipodi:nodetypes="sssss" /><path
       id="ellipse25"
       style="fill:#989898;fill-opacity:1;stroke:none;stroke-width:0.428835;stroke-opacity:1"
       d="m 9.8931783,14.514529 c 0.5165707,0.646495 0.6369087,0.912324 -0.07261,1.125502 -0.7095188,0.213178 -1.7034617,-0.138094 -2.2200331,-0.784588 -0.516572,-0.646494 -0.3601567,-1.343396 0.3493625,-1.556574 0.709519,-0.213178 1.4267102,0.569167 1.9432816,1.21566 z"
       sodipodi:nodetypes="sssss" /><path
       id="path75"
       style="fill:#ffffff;fill-opacity:1;stroke-width:0.258299;stroke:#191919;stroke-opacity:1"
       d="m 10.522475,12.298001 h 0.420333 c 0.611729,0 1.632237,-0.03118 1.492276,0.133556 0,0 0.254474,0.956236 0.254474,1.39552 0,0.311418 -0.54539,0.252646 -1.74675,0.252646 h -0.420333 c -0.6117287,0 -1.4859138,0.01047 -1.4859138,-0.118022 0,-0.439284 0.1844932,-1.493899 0.1844932,-1.493899 0,-0.128492 0.6896919,-0.169801 1.3014206,-0.169801 z"
       sodipodi:nodetypes="sssssssss" /><path
       id="ellipse24"
       style="fill:#ffffff;stroke-width:0.243269;stroke:#191919;stroke-opacity:1;fill-opacity:1"
       d="m 12.578574,12.63694 c 0,0.777343 -0.745349,0.755621 -1.700132,0.755621 -0.9547834,0 -1.7574439,0.02172 -1.7574439,-0.755621 0,-0.777342 0.7740048,-1.407503 1.7287879,-1.407503 0.954783,0 1.728788,0.630161 1.728788,1.407503 z"
       sodipodi:nodetypes="sssss" /><path
       id="path26-0"
       style="fill:#989898;fill-opacity:1;stroke:none;stroke-width:0.505716;stroke-dasharray:none;stroke-opacity:1"
       d="m 7.7850244,14.281937 c -0.03146,0.0145 -0.062572,0.03098 -0.093271,0.04942 l 0.00912,3.988542 0.00195,0.0037 c 0,0 1.5357698,-1.47666 1.5573928,-2.620933 -0.2828973,0.02636 -0.8068828,0.18659 -1.0909421,-0.120165 C 7.8572117,15.245502 7.8032989,14.886644 7.7850193,14.281937 Z m 1.6114231,1.80964 c -0.00891,0.0061 -0.017885,0.01206 -0.026931,0.01783 l 0.030637,0.04651 c -0.00104,-0.02148 -0.00228,-0.04293 -0.0037,-0.06434 z"
       sodipodi:nodetypes="cccccscscccs" /><path
       style="fill:none;fill-opacity:1;stroke:#191919;stroke-width:0.553742;stroke-dasharray:none;stroke-opacity:1"
       d="m 7.6789658,13.713616 c 0,0 -0.1017277,1.367409 0.5793796,1.743709 0.5194748,0.287 1.8927506,0.174454 1.8927506,0.174454"
       id="path23-9"
       sodipodi:nodetypes="csc" /><path
       id="path25-3"
       style="fill:#989898;fill-opacity:1;stroke:none;stroke-width:0.387266;stroke-opacity:1"
       d="m 11.74442,14.451378 c -0.421279,0.646494 -0.519417,0.912324 0.05922,1.125502 0.578633,0.213176 1.389221,-0.138094 1.810498,-0.784589 0.421279,-0.646493 0.293718,-1.343395 -0.284915,-1.556573 -0.578631,-0.213178 -1.163521,0.569166 -1.584799,1.21566 z"
       sodipodi:nodetypes="sssss" /><path
       id="path27-6"
       style="fill:#989898;fill-opacity:1;stroke:none;stroke-width:0.505716;stroke-dasharray:none;stroke-opacity:1"
       d="m 13.840427,14.199091 c 0.03146,0.0145 0.06257,0.03098 0.09327,0.04942 l -0.0091,3.988541 -0.0019,0.0037 c 0,0 -1.53577,-1.47666 -1.557393,-2.620932 0.282898,0.02635 0.806883,0.186589 1.090943,-0.120166 0.312062,-0.336996 0.365975,-0.695854 0.384254,-1.300561 z m -1.611423,1.80964 c 0.0089,0.0061 0.01788,0.01206 0.02693,0.01783 l -0.03064,0.04651 c 10e-4,-0.02148 0.0023,-0.04293 0.0037,-0.06434 z"
       sodipodi:nodetypes="cccccscscccs" /><path
       style="fill:none;fill-opacity:1;stroke:#191919;stroke-width:0.523664;stroke-dasharray:none;stroke-opacity:1"
       d="m 13.89145,13.655035 c 0,0 0.101728,1.36741 -0.57938,1.743709 -0.519475,0.287 -1.89275,0.174454 -1.89275,0.174454"
       id="path24-0"
       sodipodi:nodetypes="csc" /><g
       id="g29"
       transform="matrix(0.33575044,0,0,-0.26945762,-2.7706603,27.157718)"
       style="stroke:#191919;stroke-opacity:1;fill:#989898;fill-opacity:1"><ellipse
         style="fill:#989898;fill-opacity:1;stroke:#191919;stroke-width:1.6332;stroke-dasharray:none;stroke-opacity:1"
         id="path28"
         cx="35.288403"
         cy="41.778561"
         rx="1.6525621"
         ry="1.2682455" /><ellipse
         style="fill:#989898;fill-opacity:1;stroke:#191919;stroke-width:1.24266;stroke-dasharray:none;stroke-opacity:1"
         id="ellipse28"
         cx="35.326832"
         cy="41.804771"
         rx="1.1913821"
         ry="1.0184395" /><ellipse
         style="fill:#989898;fill-opacity:1;stroke:#191919;stroke-width:0.946814;stroke-dasharray:none;stroke-opacity:1"
         id="ellipse29"
         cx="35.04314"
         cy="41.491093"
         rx="0.87090665"
         ry="0.80879658" /></g><g
       id="g32"
       transform="matrix(-0.33575044,0,0,-0.26945762,24.920999,26.948396)"
       style="stroke:#191919;stroke-opacity:1;fill:#989898;fill-opacity:1"><ellipse
         style="fill:#989898;fill-opacity:1;stroke:#191919;stroke-width:1.6332;stroke-dasharray:none;stroke-opacity:1"
         id="ellipse30"
         cx="35.288403"
         cy="41.778561"
         rx="1.6525621"
         ry="1.2682455" /><ellipse
         style="fill:#989898;fill-opacity:1;stroke:#191919;stroke-width:1.24266;stroke-dasharray:none;stroke-opacity:1"
         id="ellipse31-6"
         cx="35.326832"
         cy="41.804771"
         rx="1.1913821"
         ry="1.0184395" /><ellipse
         style="fill:#989898;fill-opacity:1;stroke:#191919;stroke-width:0.946814;stroke-dasharray:none;stroke-opacity:1"
         id="ellipse32"
         cx="35.04314"
         cy="41.491093"
         rx="0.87090665"
         ry="0.80879658" /></g><rect
       style="fill:#ffffff;fill-opacity:1;stroke:#191919;stroke-width:0.547255;stroke-opacity:1"
       id="rect46"
       width="2.9710424"
       height="6.5520492"
       x="7.2798419"
       y="19.447174"
       ry="1.1529039" /><rect
       style="fill:#ffffff;fill-opacity:1;stroke:#191919;stroke-width:0.56382709;stroke-opacity:1;stroke-dasharray:none"
       id="rect47"
       width="2.9168906"
       height="3.1939251"
       x="10.96154"
       y="22.897167"
       ry="0.5620057" /><path
       id="rect9714"
       style="fill:#ffffff;fill-opacity:1;stroke:#191919;stroke-width:0.766134;stroke-miterlimit:4;stroke-dasharray:none;stroke-opacity:1"
       d="m 6.5044379,12.254104 c -0.3870497,0.09432 -0.6994405,0.325535 -0.788394,0.621668 l -1.2252824,4.079189 c -0.2047124,1.525373 -0.048131,3.101269 -0.023338,4.641138 0.00706,0.43808 0.5165435,0.714082 1.1418267,0.619342 l 0.4731803,-0.071 c 0.6252848,-0.09473 1.1227571,-0.524348 1.1156959,-0.96243 0.130821,-1.284236 -0.2825242,-2.682244 -0.010122,-3.938228 l 1.2259531,-4.080105 c 0.1293851,-0.430735 -0.2642531,-0.830546 -0.881923,-0.89653 l -0.4675598,-0.0502 c -0.1930253,-0.02062 -0.3840884,-0.0056 -0.560025,0.03718 z"
       sodipodi:nodetypes="ccccccccccccc" /><path
       id="path11551"
       style="fill:#ffffff;fill-opacity:1;stroke:#191919;stroke-width:0.728343;stroke-miterlimit:4;stroke-dasharray:none;stroke-opacity:1"
       d="m 21.469169,16.196319 c -0.314996,0.284505 -0.687294,0.431414 -0.968336,0.350743 l -3.871281,-1.111256 c -0.0656,-0.01882 -0.09453,-0.150132 -0.141838,-0.189631 -0.09868,-0.01119 -0.215314,0.05935 -0.288502,0.0061 l -3.112267,-2.265689 c -0.328569,-0.239192 -0.217977,-0.826469 0.247244,-1.316579 l 0.351531,-0.37126 c 0.465217,-0.490115 1.104619,-0.691565 1.433184,-0.452364 l 2.861971,2.08357 c 1.337888,0.345794 2.667691,0.750174 3.997673,1.131804 0.408782,0.117342 0.465168,0.670344 0.126898,1.239393 l -0.255896,0.430872 c -0.105698,0.177837 -0.237224,0.33503 -0.380427,0.464329 z"
       sodipodi:nodetypes="ccccccccscccccc" /><rect
       style="fill:#989898;fill-opacity:1;stroke:#191919;stroke-width:0.656976;stroke-opacity:1"
       id="rect14"
       width="3.2862883"
       height="1.5470691"
       x="3.9413798"
       y="18.39864"
       ry="0.40183571"
       rx="1.6431441" /><path
       id="rect9738"
       style="fill:#ffffff;fill-opacity:1;stroke:#191919;stroke-width:0.672306;stroke-miterlimit:4;stroke-dasharray:none;stroke-opacity:1"
       d="m 7.3443583,19.258513 -0.5028319,5.307668 1.925148,0.55538 2.0274486,-0.816763 1.550181,0.816763 2.319113,-0.769959 -1.432781,-2.600896 0.849945,-2.45143 z"
       sodipodi:nodetypes="ccccccccc" /><ellipse
       style="fill:#ffffff;fill-opacity:1;stroke:#191919;stroke-width:0.2544;stroke-miterlimit:4;stroke-dasharray:none;stroke-opacity:1"
       id="ellipse49"
       cx="10.786791"
       cy="12.450456"
       rx="2.1500163"
       ry="1.5804987" /><ellipse
       style="fill:#ffffff;fill-opacity:1;stroke:#191919;stroke-width:0.870035;stroke-miterlimit:4;stroke-dasharray:none;stroke-opacity:1"
       id="ellipse3"
       cx="10.74763"
       cy="6.7346692"
       rx="5.7156181"
       ry="5.9634132" /><ellipse
       style="fill:#989898;fill-opacity:1;stroke:none;stroke-width:0.317771;stroke-miterlimit:4;stroke-dasharray:none;stroke-opacity:1"
       id="ellipse4"
       cx="10.729134"
       cy="6.7055364"
       rx="5.2586293"
       ry="5.3653626" /><ellipse
       style="fill:#ffffff;fill-opacity:1;stroke:none;stroke-width:0.915377;stroke-dasharray:none;stroke-opacity:1"
       id="ellipse8"
       cx="4.1098084"
       cy="11.560025"
       rx="3.3188555"
       ry="4.4286542"
       transform="matrix(0.75276069,-0.65829427,0.72166593,0.69224149,0,0)" /><path
       id="path12"
       style="fill:#ffffff;fill-opacity:1;stroke:#191919;stroke-width:0.511748;stroke-miterlimit:4;stroke-dasharray:none;stroke-opacity:1"
       d="M 6.554692,4.5579581 C 6.3309677,4.940395 6.1804833,5.55643 6.1804776,6.0158204 6.1805772,7.3026315 7.0975412,8.3457423 8.2286475,8.3457574 9.3597557,8.3457421 10.276721,7.3026315 10.27682,6.0158204 10.276814,5.5564301 10.157448,4.9917477 9.9337219,4.6093107 8.893919,4.3081204 7.7496625,4.3355703 6.554692,4.5579581 Z"
       sodipodi:nodetypes="cccccc" /><path
       id="path42"
       style="fill:#ffffff;fill-opacity:1;stroke:#191919;stroke-width:0.512848;stroke-miterlimit:4;stroke-dasharray:none;stroke-opacity:1"
       d="m 11.300088,4.4063429 c -0.223664,0.384187 -0.374108,1.0030411 -0.374114,1.4645337 10e-5,1.2926998 0.916817,2.340584 2.04762,2.3405992 1.130804,-1.53e-5 2.047521,-1.0478994 2.047621,-2.3405992 -7e-6,-0.4614925 -0.119341,-1.0287589 -0.343005,-1.412946 -1.039524,-0.3025687 -2.183473,-0.2749931 -3.378122,-0.051588 z"
       sodipodi:nodetypes="cccccc" /><path
       sodipodi:type="spiral"
       style="fill:#ffffff;fill-opacity:1;fill-rule:evenodd;stroke:#191919;stroke-width:1.165;stroke-dasharray:none;stroke-opacity:1"
       id="path8"
       sodipodi:cx="7.3788824"
       sodipodi:cy="11.990684"
       sodipodi:expansion="1"
       sodipodi:revolution="3"
       sodipodi:radius="7.1775723"
       sodipodi:argument="-18.677364"
       sodipodi:t0="0"
       d="m 7.3788824,11.990684 c 0.3545501,0.06166 0.091804,0.508347 -0.1024849,0.589285 -0.5265123,0.219336 -1.0101602,-0.312416 -1.0760864,-0.794255 -0.1179264,-0.861898 0.6785411,-1.533067 1.4860261,-1.562887 1.1850166,-0.04376 2.0659185,1.047626 2.0496877,2.177796 -0.021633,1.506339 -1.4174993,2.602675 -2.8695671,2.536489 C 5.0391786,14.853823 3.7250753,13.149428 3.8431686,11.375774 3.9861954,9.2276413 6.0011989,7.6945659 8.0962768,7.8656841 10.565254,8.067341 12.31801,10.39416 12.093167,12.810563 11.833578,15.600395 9.1941789,17.573289 6.4565181,17.294254 3.345814,16.977198 1.1524728,14.024706 1.4860261,10.965834 1.8602224,7.5342424 5.1261684,5.1202316 8.5062165,5.5085416 12.258711,5.9396393 14.893555,9.5193049 14.45031,13.220503"
       transform="matrix(0.22255245,-0.00237003,-0.00580934,-0.22349189,5.1139423,12.807575)" /><path
       sodipodi:type="spiral"
       style="fill:#ffffff;fill-opacity:1;fill-rule:evenodd;stroke:#191919;stroke-width:1.165;stroke-dasharray:none;stroke-opacity:1"
       id="path3"
       sodipodi:cx="7.3788824"
       sodipodi:cy="11.990684"
       sodipodi:expansion="1"
       sodipodi:revolution="3"
       sodipodi:radius="7.1775723"
       sodipodi:argument="-18.677364"
       sodipodi:t0="0"
       d="m 7.3788824,11.990684 c 0.3545501,0.06166 0.091804,0.508347 -0.1024849,0.589285 -0.5265123,0.219336 -1.0101602,-0.312416 -1.0760864,-0.794255 -0.1179264,-0.861898 0.6785411,-1.533067 1.4860261,-1.562887 1.1850166,-0.04376 2.0659185,1.047626 2.0496877,2.177796 -0.021633,1.506339 -1.4174993,2.602675 -2.8695671,2.536489 C 5.0391786,14.853823 3.7250753,13.149428 3.8431686,11.375774 3.9861954,9.2276413 6.0011989,7.6945659 8.0962768,7.8656841 10.565254,8.067341 12.31801,10.39416 12.093167,12.810563 11.833578,15.600395 9.1941789,17.573289 6.4565181,17.294254 3.345814,16.977198 1.1524728,14.024706 1.4860261,10.965834 1.8602224,7.5342424 5.1261684,5.1202316 8.5062165,5.5085416 12.258711,5.9396393 14.893555,9.5193049 14.45031,13.220503"
       transform="matrix(0.0974374,-0.20010288,-0.20248163,-0.09478166,8.8763414,14.387478)" /><path
       sodipodi:type="spiral"
       style="fill:#ffffff;fill-opacity:1;fill-rule:evenodd;stroke:#191919;stroke-width:1.165;stroke-dasharray:none;stroke-opacity:1"
       id="path4"
       sodipodi:cx="7.3788824"
       sodipodi:cy="11.990684"
       sodipodi:expansion="1"
       sodipodi:revolution="3"
       sodipodi:radius="7.1775723"
       sodipodi:argument="-18.677364"
       sodipodi:t0="0"
       d="m 7.3788824,11.990684 c 0.3545501,0.06166 0.091804,0.508347 -0.1024849,0.589285 -0.5265123,0.219336 -1.0101602,-0.312416 -1.0760864,-0.794255 -0.1179264,-0.861898 0.6785411,-1.533067 1.4860261,-1.562887 1.1850166,-0.04376 2.0659185,1.047626 2.0496877,2.177796 -0.021633,1.506339 -1.4174993,2.602675 -2.8695671,2.536489 C 5.0391786,14.853823 3.7250753,13.149428 3.8431686,11.375774 3.9861954,9.2276413 6.0011989,7.6945659 8.0962768,7.8656841 10.565254,8.067341 12.31801,10.39416 12.093167,12.810563 11.833578,15.600395 9.1941789,17.573289 6.4565181,17.294254 3.345814,16.977198 1.1524728,14.024706 1.4860261,10.965834 1.8602224,7.5342424 5.1261684,5.1202316 8.5062165,5.5085416 12.258711,5.9396393 14.893555,9.5193049 14.45031,13.220503"
       transform="matrix(0.0974374,-0.20010288,-0.20248163,-0.09478166,10.721062,15.11768)" /><path
       sodipodi:type="spiral"
       style="fill:#ffffff;fill-opacity:1;fill-rule:evenodd;stroke:#191919;stroke-width:1.165;stroke-dasharray:none;stroke-opacity:1"
       id="path7"
       sodipodi:cx="7.3788824"
       sodipodi:cy="11.990684"
       sodipodi:expansion="1"
       sodipodi:revolution="3"
       sodipodi:radius="7.1775723"
       sodipodi:argument="-18.677364"
       sodipodi:t0="0"
       d="m 7.3788824,11.990684 c 0.3545501,0.06166 0.091804,0.508347 -0.1024849,0.589285 -0.5265123,0.219336 -1.0101602,-0.312416 -1.0760864,-0.794255 -0.1179264,-0.861898 0.6785411,-1.533067 1.4860261,-1.562887 1.1850166,-0.04376 2.0659185,1.047626 2.0496877,2.177796 -0.021633,1.506339 -1.4174993,2.602675 -2.8695671,2.536489 C 5.0391786,14.853823 3.7250753,13.149428 3.8431686,11.375774 3.9861954,9.2276413 6.0011989,7.6945659 8.0962768,7.8656841 10.565254,8.067341 12.31801,10.39416 12.093167,12.810563 11.833578,15.600395 9.1941789,17.573289 6.4565181,17.294254 3.345814,16.977198 1.1524728,14.024706 1.4860261,10.965834 1.8602224,7.5342424 5.1261684,5.1202316 8.5062165,5.5085416 12.258711,5.9396393 14.893555,9.5193049 14.45031,13.220503"
       transform="matrix(-0.05412097,0.14530961,-0.15041299,-0.08272549,8.9847069,10.372108)" /><path
       sodipodi:type="spiral"
       style="fill:#ffffff;fill-opacity:1;fill-rule:evenodd;stroke:#191919;stroke-width:1.165;stroke-dasharray:none;stroke-opacity:1"
       id="path5"
       sodipodi:cx="7.3788824"
       sodipodi:cy="11.990684"
       sodipodi:expansion="1"
       sodipodi:revolution="3"
       sodipodi:radius="7.1775723"
       sodipodi:argument="-18.677364"
       sodipodi:t0="0"
       d="m 7.3788824,11.990684 c 0.3545501,0.06166 0.091804,0.508347 -0.1024849,0.589285 -0.5265123,0.219336 -1.0101602,-0.312416 -1.0760864,-0.794255 -0.1179264,-0.861898 0.6785411,-1.533067 1.4860261,-1.562887 1.1850166,-0.04376 2.0659185,1.047626 2.0496877,2.177796 -0.021633,1.506339 -1.4174993,2.602675 -2.8695671,2.536489 C 5.0391786,14.853823 3.7250753,13.149428 3.8431686,11.375774 3.9861954,9.2276413 6.0011989,7.6945659 8.0962768,7.8656841 10.565254,8.067341 12.31801,10.39416 12.093167,12.810563 11.833578,15.600395 9.1941789,17.573289 6.4565181,17.294254 3.345814,16.977198 1.1524728,14.024706 1.4860261,10.965834 1.8602224,7.5342424 5.1261684,5.1202316 8.5062165,5.5085416 12.258711,5.9396393 14.893555,9.5193049 14.45031,13.220503"
       transform="matrix(-0.0974374,-0.20010288,0.20248163,-0.09478166,9.992395,15.386701)"
       inkscape:transform-center-x="1.3115505e-05"
       inkscape:transform-center-y="-0.041890314" /><path
       sodipodi:type="spiral"
       style="fill:#ffffff;fill-opacity:1;fill-rule:evenodd;stroke:#191919;stroke-width:1.165;stroke-dasharray:none;stroke-opacity:1"
       id="path6"
       sodipodi:cx="7.3788824"
       sodipodi:cy="11.990684"
       sodipodi:expansion="1"
       sodipodi:revolution="3"
       sodipodi:radius="7.1775723"
       sodipodi:argument="-18.677364"
       sodipodi:t0="0"
       d="m 7.3788824,11.990684 c 0.3545501,0.06166 0.091804,0.508347 -0.1024849,0.589285 -0.5265123,0.219336 -1.0101602,-0.312416 -1.0760864,-0.794255 -0.1179264,-0.861898 0.6785411,-1.533067 1.4860261,-1.562887 1.1850166,-0.04376 2.0659185,1.047626 2.0496877,2.177796 -0.021633,1.506339 -1.4174993,2.602675 -2.8695671,2.536489 C 5.0391786,14.853823 3.7250753,13.149428 3.8431686,11.375774 3.9861954,9.2276413 6.0011989,7.6945659 8.0962768,7.8656841 10.565254,8.067341 12.31801,10.39416 12.093167,12.810563 11.833578,15.600395 9.1941789,17.573289 6.4565181,17.294254 3.345814,16.977198 1.1524728,14.024706 1.4860261,10.965834 1.8602224,7.5342424 5.1261684,5.1202316 8.5062165,5.5085416 12.258711,5.9396393 14.893555,9.5193049 14.45031,13.220503"
       transform="matrix(-0.0974374,-0.20010288,0.20248163,-0.09478166,12.336727,14.541204)"
       inkscape:transform-center-x="1.3115505e-05"
       inkscape:transform-center-y="-0.041890314" /><path
       sodipodi:type="spiral"
       style="fill:#ffffff;fill-opacity:1;fill-rule:evenodd;stroke:#191919;stroke-width:1.165;stroke-dasharray:none;stroke-opacity:1"
       id="path9"
       sodipodi:cx="7.3788824"
       sodipodi:cy="11.990684"
       sodipodi:expansion="1"
       sodipodi:revolution="3"
       sodipodi:radius="7.1775723"
       sodipodi:argument="-18.677364"
       sodipodi:t0="0"
       d="m 7.3788824,11.990684 c 0.3545501,0.06166 0.091804,0.508347 -0.1024849,0.589285 -0.5265123,0.219336 -1.0101602,-0.312416 -1.0760864,-0.794255 -0.1179264,-0.861898 0.6785411,-1.533067 1.4860261,-1.562887 1.1850166,-0.04376 2.0659185,1.047626 2.0496877,2.177796 -0.021633,1.506339 -1.4174993,2.602675 -2.8695671,2.536489 C 5.0391786,14.853823 3.7250753,13.149428 3.8431686,11.375774 3.9861954,9.2276413 6.0011989,7.6945659 8.0962768,7.8656841 10.565254,8.067341 12.31801,10.39416 12.093167,12.810563 11.833578,15.600395 9.1941789,17.573289 6.4565181,17.294254 3.345814,16.977198 1.1524728,14.024706 1.4860261,10.965834 1.8602224,7.5342424 5.1261684,5.1202316 8.5062165,5.5085416 12.258711,5.9396393 14.893555,9.5193049 14.45031,13.220503"
       transform="matrix(-0.11005302,-0.19345165,-0.19260438,0.11351619,18.919975,10.39248)"
       inkscape:transform-center-x="-0.09709561"
       inkscape:transform-center-y="0.0051554904" /><path
       sodipodi:type="spiral"
       style="fill:#ffffff;fill-opacity:1;fill-rule:evenodd;stroke:#191919;stroke-width:1.165;stroke-dasharray:none;stroke-opacity:1"
       id="path10"
       sodipodi:cx="7.3788824"
       sodipodi:cy="11.990684"
       sodipodi:expansion="1"
       sodipodi:revolution="3"
       sodipodi:radius="7.1775723"
       sodipodi:argument="-18.677364"
       sodipodi:t0="0"
       d="m 7.3788824,11.990684 c 0.3545501,0.06166 0.091804,0.508347 -0.1024849,0.589285 -0.5265123,0.219336 -1.0101602,-0.312416 -1.0760864,-0.794255 -0.1179264,-0.861898 0.6785411,-1.533067 1.4860261,-1.562887 1.1850166,-0.04376 2.0659185,1.047626 2.0496877,2.177796 -0.021633,1.506339 -1.4174993,2.602675 -2.8695671,2.536489 C 5.0391786,14.853823 3.7250753,13.149428 3.8431686,11.375774 3.9861954,9.2276413 6.0011989,7.6945659 8.0962768,7.8656841 10.565254,8.067341 12.31801,10.39416 12.093167,12.810563 11.833578,15.600395 9.1941789,17.573289 6.4565181,17.294254 3.345814,16.977198 1.1524728,14.024706 1.4860261,10.965834 1.8602224,7.5342424 5.1261684,5.1202316 8.5062165,5.5085416 12.258711,5.9396393 14.893555,9.5193049 14.45031,13.220503"
       transform="matrix(-0.06405928,0.14121038,0.1649958,0.04737046,11.042961,10.206654)" /><path
       sodipodi:type="spiral"
       style="fill:#ffffff;fill-opacity:1;fill-rule:evenodd;stroke:#191919;stroke-width:1.165;stroke-dasharray:none;stroke-opacity:1"
       id="path11"
       sodipodi:cx="7.3788824"
       sodipodi:cy="11.990684"
       sodipodi:expansion="1"
       sodipodi:revolution="3"
       sodipodi:radius="7.1775723"
       sodipodi:argument="-18.677364"
       sodipodi:t0="0"
       d="m 7.3788824,11.990684 c 0.3545501,0.06166 0.091804,0.508347 -0.1024849,0.589285 -0.5265123,0.219336 -1.0101602,-0.312416 -1.0760864,-0.794255 -0.1179264,-0.861898 0.6785411,-1.533067 1.4860261,-1.562887 1.1850166,-0.04376 2.0659185,1.047626 2.0496877,2.177796 -0.021633,1.506339 -1.4174993,2.602675 -2.8695671,2.536489 C 5.0391786,14.853823 3.7250753,13.149428 3.8431686,11.375774 3.9861954,9.2276413 6.0011989,7.6945659 8.0962768,7.8656841 10.565254,8.067341 12.31801,10.39416 12.093167,12.810563 11.833578,15.600395 9.1941789,17.573289 6.4565181,17.294254 3.345814,16.977198 1.1524728,14.024706 1.4860261,10.965834 1.8602224,7.5342424 5.1261684,5.1202316 8.5062165,5.5085416 12.258711,5.9396393 14.893555,9.5193049 14.45031,13.220503"
       transform="matrix(0.05412097,0.14530961,0.15041299,-0.08272549,12.493936,9.9493595)" /><path
       sodipodi:type="spiral"
       style="fill:#ffffff;fill-opacity:1;fill-rule:evenodd;stroke:#191919;stroke-width:1.165;stroke-dasharray:none;stroke-opacity:1"
       id="path24"
       sodipodi:cx="7.3788824"
       sodipodi:cy="11.990684"
       sodipodi:expansion="1"
       sodipodi:revolution="3"
       sodipodi:radius="7.1775723"
       sodipodi:argument="-18.677364"
       sodipodi:t0="0"
       d="m 7.3788824,11.990684 c 0.3545501,0.06166 0.091804,0.508347 -0.1024849,0.589285 -0.5265123,0.219336 -1.0101602,-0.312416 -1.0760864,-0.794255 -0.1179264,-0.861898 0.6785411,-1.533067 1.4860261,-1.562887 1.1850166,-0.04376 2.0659185,1.047626 2.0496877,2.177796 -0.021633,1.506339 -1.4174993,2.602675 -2.8695671,2.536489 C 5.0391786,14.853823 3.7250753,13.149428 3.8431686,11.375774 3.9861954,9.2276413 6.0011989,7.6945659 8.0962768,7.8656841 10.565254,8.067341 12.31801,10.39416 12.093167,12.810563 11.833578,15.600395 9.1941789,17.573289 6.4565181,17.294254 3.345814,16.977198 1.1524728,14.024706 1.4860261,10.965834 1.8602224,7.5342424 5.1261684,5.1202316 8.5062165,5.5085416 12.258711,5.9396393 14.893555,9.5193049 14.45031,13.220503"
       transform="matrix(-0.05412097,-0.14530961,-0.15041299,0.08272549,10.452173,10.490451)" /><path
       sodipodi:type="spiral"
       style="fill:#ffffff;fill-opacity:1;fill-rule:evenodd;stroke:#191919;stroke-width:1.165;stroke-dasharray:none;stroke-opacity:1"
       id="path14"
       sodipodi:cx="7.3788824"
       sodipodi:cy="11.990684"
       sodipodi:expansion="1"
       sodipodi:revolution="3"
       sodipodi:radius="7.1775723"
       sodipodi:argument="-18.677364"
       sodipodi:t0="0"
       d="m 7.3788824,11.990684 c 0.3545501,0.06166 0.091804,0.508347 -0.1024849,0.589285 -0.5265123,0.219336 -1.0101602,-0.312416 -1.0760864,-0.794255 -0.1179264,-0.861898 0.6785411,-1.533067 1.4860261,-1.562887 1.1850166,-0.04376 2.0659185,1.047626 2.0496877,2.177796 -0.021633,1.506339 -1.4174993,2.602675 -2.8695671,2.536489 C 5.0391786,14.853823 3.7250753,13.149428 3.8431686,11.375774 3.9861954,9.2276413 6.0011989,7.6945659 8.0962768,7.8656841 10.565254,8.067341 12.31801,10.39416 12.093167,12.810563 11.833578,15.600395 9.1941789,17.573289 6.4565181,17.294254 3.345814,16.977198 1.1524728,14.024706 1.4860261,10.965834 1.8602224,7.5342424 5.1261684,5.1202316 8.5062165,5.5085416 12.258711,5.9396393 14.893555,9.5193049 14.45031,13.220503"
       transform="matrix(0.06405928,0.14121038,-0.1649958,0.04737046,10.384397,10.052927)" /><rect
       style="fill:#989898;fill-opacity:1;stroke:#191919;stroke-width:0.607645;stroke-opacity:1"
       id="rect15"
       width="1.243121"
       height="3.4986708"
       x="20.529909"
       y="4.9611382"
       ry="1.0316592"
       transform="rotate(21.907055)" /><path
       sodipodi:type="spiral"
       style="fill:#ffffff;fill-opacity:1;fill-rule:evenodd;stroke:#191919;stroke-width:1.165;stroke-dasharray:none;stroke-opacity:1"
       id="path13"
       sodipodi:cx="7.3788824"
       sodipodi:cy="11.990684"
       sodipodi:expansion="1"
       sodipodi:revolution="3"
       sodipodi:radius="7.1775723"
       sodipodi:argument="-18.677364"
       sodipodi:t0="0"
       d="m 7.3788824,11.990684 c 0.3545501,0.06166 0.091804,0.508347 -0.1024849,0.589285 -0.5265123,0.219336 -1.0101602,-0.312416 -1.0760864,-0.794255 -0.1179264,-0.861898 0.6785411,-1.533067 1.4860261,-1.562887 1.1850166,-0.04376 2.0659185,1.047626 2.0496877,2.177796 -0.021633,1.506339 -1.4174993,2.602675 -2.8695671,2.536489 C 5.0391786,14.853823 3.7250753,13.149428 3.8431686,11.375774 3.9861954,9.2276413 6.0011989,7.6945659 8.0962768,7.8656841 10.565254,8.067341 12.31801,10.39416 12.093167,12.810563 11.833578,15.600395 9.1941789,17.573289 6.4565181,17.294254 3.345814,16.977198 1.1524728,14.024706 1.4860261,10.965834 1.8602224,7.5342424 5.1261684,5.1202316 8.5062165,5.5085416 12.258711,5.9396393 14.893555,9.5193049 14.45031,13.220503"
       transform="matrix(0.22255245,0.00237003,-0.00580934,0.22349189,3.9590607,1.5713434)" /><path
       sodipodi:type="spiral"
       style="fill:#ffffff;fill-opacity:1;fill-rule:evenodd;stroke:#191919;stroke-width:1.165;stroke-dasharray:none;stroke-opacity:1"
       id="path15"
       sodipodi:cx="7.3788824"
       sodipodi:cy="11.990684"
       sodipodi:expansion="1"
       sodipodi:revolution="3"
       sodipodi:radius="7.1775723"
       sodipodi:argument="-18.677364"
       sodipodi:t0="0"
       d="m 7.3788824,11.990684 c 0.3545501,0.06166 0.091804,0.508347 -0.1024849,0.589285 -0.5265123,0.219336 -1.0101602,-0.312416 -1.0760864,-0.794255 -0.1179264,-0.861898 0.6785411,-1.533067 1.4860261,-1.562887 1.1850166,-0.04376 2.0659185,1.047626 2.0496877,2.177796 -0.021633,1.506339 -1.4174993,2.602675 -2.8695671,2.536489 C 5.0391786,14.853823 3.7250753,13.149428 3.8431686,11.375774 3.9861954,9.2276413 6.0011989,7.6945659 8.0962768,7.8656841 10.565254,8.067341 12.31801,10.39416 12.093167,12.810563 11.833578,15.600395 9.1941789,17.573289 6.4565181,17.294254 3.345814,16.977198 1.1524728,14.024706 1.4860261,10.965834 1.8602224,7.5342424 5.1261684,5.1202316 8.5062165,5.5085416 12.258711,5.9396393 14.893555,9.5193049 14.45031,13.220503"
       transform="matrix(0.0974374,0.20010288,-0.20248163,0.09478166,9.0393932,-0.07416656)" /><path
       sodipodi:type="spiral"
       style="fill:#ffffff;fill-opacity:1;fill-rule:evenodd;stroke:#191919;stroke-width:1.165;stroke-dasharray:none;stroke-opacity:1"
       id="path16"
       sodipodi:cx="7.3788824"
       sodipodi:cy="11.990684"
       sodipodi:expansion="1"
       sodipodi:revolution="3"
       sodipodi:radius="7.1775723"
       sodipodi:argument="-18.677364"
       sodipodi:t0="0"
       d="m 7.3788824,11.990684 c 0.3545501,0.06166 0.091804,0.508347 -0.1024849,0.589285 -0.5265123,0.219336 -1.0101602,-0.312416 -1.0760864,-0.794255 -0.1179264,-0.861898 0.6785411,-1.533067 1.4860261,-1.562887 1.1850166,-0.04376 2.0659185,1.047626 2.0496877,2.177796 -0.021633,1.506339 -1.4174993,2.602675 -2.8695671,2.536489 C 5.0391786,14.853823 3.7250753,13.149428 3.8431686,11.375774 3.9861954,9.2276413 6.0011989,7.6945659 8.0962768,7.8656841 10.565254,8.067341 12.31801,10.39416 12.093167,12.810563 11.833578,15.600395 9.1941789,17.573289 6.4565181,17.294254 3.345814,16.977198 1.1524728,14.024706 1.4860261,10.965834 1.8602224,7.5342424 5.1261684,5.1202316 8.5062165,5.5085416 12.258711,5.9396393 14.893555,9.5193049 14.45031,13.220503"
       transform="matrix(0.0974374,0.20010288,-0.20248163,0.09478166,10.884114,-0.80436855)" /><path
       sodipodi:type="spiral"
       style="fill:#ffffff;fill-opacity:1;fill-rule:evenodd;stroke:#191919;stroke-width:1.165;stroke-dasharray:none;stroke-opacity:1"
       id="path17"
       sodipodi:cx="7.3788824"
       sodipodi:cy="11.990684"
       sodipodi:expansion="1"
       sodipodi:revolution="3"
       sodipodi:radius="7.1775723"
       sodipodi:argument="-18.677364"
       sodipodi:t0="0"
       d="m 7.3788824,11.990684 c 0.3545501,0.06166 0.091804,0.508347 -0.1024849,0.589285 -0.5265123,0.219336 -1.0101602,-0.312416 -1.0760864,-0.794255 -0.1179264,-0.861898 0.6785411,-1.533067 1.4860261,-1.562887 1.1850166,-0.04376 2.0659185,1.047626 2.0496877,2.177796 -0.021633,1.506339 -1.4174993,2.602675 -2.8695671,2.536489 C 5.0391786,14.853823 3.7250753,13.149428 3.8431686,11.375774 3.9861954,9.2276413 6.0011989,7.6945659 8.0962768,7.8656841 10.565254,8.067341 12.31801,10.39416 12.093167,12.810563 11.833578,15.600395 9.1941789,17.573289 6.4565181,17.294254 3.345814,16.977198 1.1524728,14.024706 1.4860261,10.965834 1.8602224,7.5342424 5.1261684,5.1202316 8.5062165,5.5085416 12.258711,5.9396393 14.893555,9.5193049 14.45031,13.220503"
       transform="matrix(-0.05412097,-0.14530961,-0.15041299,0.08272549,9.1477587,3.9412034)" /><path
       sodipodi:type="spiral"
       style="fill:#ffffff;fill-opacity:1;fill-rule:evenodd;stroke:#191919;stroke-width:1.165;stroke-dasharray:none;stroke-opacity:1"
       id="path18"
       sodipodi:cx="7.3788824"
       sodipodi:cy="11.990684"
       sodipodi:expansion="1"
       sodipodi:revolution="3"
       sodipodi:radius="7.1775723"
       sodipodi:argument="-18.677364"
       sodipodi:t0="0"
       d="m 7.3788824,11.990684 c 0.3545501,0.06166 0.091804,0.508347 -0.1024849,0.589285 -0.5265123,0.219336 -1.0101602,-0.312416 -1.0760864,-0.794255 -0.1179264,-0.861898 0.6785411,-1.533067 1.4860261,-1.562887 1.1850166,-0.04376 2.0659185,1.047626 2.0496877,2.177796 -0.021633,1.506339 -1.4174993,2.602675 -2.8695671,2.536489 C 5.0391786,14.853823 3.7250753,13.149428 3.8431686,11.375774 3.9861954,9.2276413 6.0011989,7.6945659 8.0962768,7.8656841 10.565254,8.067341 12.31801,10.39416 12.093167,12.810563 11.833578,15.600395 9.1941789,17.573289 6.4565181,17.294254 3.345814,16.977198 1.1524728,14.024706 1.4860261,10.965834 1.8602224,7.5342424 5.1261684,5.1202316 8.5062165,5.5085416 12.258711,5.9396393 14.893555,9.5193049 14.45031,13.220503"
       transform="matrix(-0.0974374,0.20010288,0.20248163,0.09478166,10.155447,-1.0733896)"
       inkscape:transform-center-x="1.3115505e-05"
       inkscape:transform-center-y="0.041890312" /><path
       sodipodi:type="spiral"
       style="fill:#ffffff;fill-opacity:1;fill-rule:evenodd;stroke:#191919;stroke-width:1.165;stroke-dasharray:none;stroke-opacity:1"
       id="path19"
       sodipodi:cx="7.3788824"
       sodipodi:cy="11.990684"
       sodipodi:expansion="1"
       sodipodi:revolution="3"
       sodipodi:radius="7.1775723"
       sodipodi:argument="-18.677364"
       sodipodi:t0="0"
       d="m 7.3788824,11.990684 c 0.3545501,0.06166 0.091804,0.508347 -0.1024849,0.589285 -0.5265123,0.219336 -1.0101602,-0.312416 -1.0760864,-0.794255 -0.1179264,-0.861898 0.6785411,-1.533067 1.4860261,-1.562887 1.1850166,-0.04376 2.0659185,1.047626 2.0496877,2.177796 -0.021633,1.506339 -1.4174993,2.602675 -2.8695671,2.536489 C 5.0391786,14.853823 3.7250753,13.149428 3.8431686,11.375774 3.9861954,9.2276413 6.0011989,7.6945659 8.0962768,7.8656841 10.565254,8.067341 12.31801,10.39416 12.093167,12.810563 11.833578,15.600395 9.1941789,17.573289 6.4565181,17.294254 3.345814,16.977198 1.1524728,14.024706 1.4860261,10.965834 1.8602224,7.5342424 5.1261684,5.1202316 8.5062165,5.5085416 12.258711,5.9396393 14.893555,9.5193049 14.45031,13.220503"
       transform="matrix(-0.0974374,0.20010288,0.20248163,0.09478166,12.499778,-0.22789256)"
       inkscape:transform-center-x="1.3115505e-05"
       inkscape:transform-center-y="0.041890302" /><path
       sodipodi:type="spiral"
       style="fill:#ffffff;fill-opacity:1;fill-rule:evenodd;stroke:#191919;stroke-width:1.165;stroke-dasharray:none;stroke-opacity:1"
       id="path20"
       sodipodi:cx="7.3788824"
       sodipodi:cy="11.990684"
       sodipodi:expansion="1"
       sodipodi:revolution="3"
       sodipodi:radius="7.1775723"
       sodipodi:argument="-18.677364"
       sodipodi:t0="0"
       d="m 7.3788824,11.990684 c 0.3545501,0.06166 0.091804,0.508347 -0.1024849,0.589285 -0.5265123,0.219336 -1.0101602,-0.312416 -1.0760864,-0.794255 -0.1179264,-0.861898 0.6785411,-1.533067 1.4860261,-1.562887 1.1850166,-0.04376 2.0659185,1.047626 2.0496877,2.177796 -0.021633,1.506339 -1.4174993,2.602675 -2.8695671,2.536489 C 5.0391786,14.853823 3.7250753,13.149428 3.8431686,11.375774 3.9861954,9.2276413 6.0011989,7.6945659 8.0962768,7.8656841 10.565254,8.067341 12.31801,10.39416 12.093167,12.810563 11.833578,15.600395 9.1941789,17.573289 6.4565181,17.294254 3.345814,16.977198 1.1524728,14.024706 1.4860261,10.965834 1.8602224,7.5342424 5.1261684,5.1202316 8.5062165,5.5085416 12.258711,5.9396393 14.893555,9.5193049 14.45031,13.220503"
       transform="matrix(-0.11005302,0.19345165,-0.19260438,-0.11351619,19.083026,3.9208314)"
       inkscape:transform-center-x="-0.09709561"
       inkscape:transform-center-y="-0.005155502" /><path
       sodipodi:type="spiral"
       style="fill:#ffffff;fill-opacity:1;fill-rule:evenodd;stroke:#191919;stroke-width:1.165;stroke-dasharray:none;stroke-opacity:1"
       id="path21"
       sodipodi:cx="7.3788824"
       sodipodi:cy="11.990684"
       sodipodi:expansion="1"
       sodipodi:revolution="3"
       sodipodi:radius="7.1775723"
       sodipodi:argument="-18.677364"
       sodipodi:t0="0"
       d="m 7.3788824,11.990684 c 0.3545501,0.06166 0.091804,0.508347 -0.1024849,0.589285 -0.5265123,0.219336 -1.0101602,-0.312416 -1.0760864,-0.794255 -0.1179264,-0.861898 0.6785411,-1.533067 1.4860261,-1.562887 1.1850166,-0.04376 2.0659185,1.047626 2.0496877,2.177796 -0.021633,1.506339 -1.4174993,2.602675 -2.8695671,2.536489 C 5.0391786,14.853823 3.7250753,13.149428 3.8431686,11.375774 3.9861954,9.2276413 6.0011989,7.6945659 8.0962768,7.8656841 10.565254,8.067341 12.31801,10.39416 12.093167,12.810563 11.833578,15.600395 9.1941789,17.573289 6.4565181,17.294254 3.345814,16.977198 1.1524728,14.024706 1.4860261,10.965834 1.8602224,7.5342424 5.1261684,5.1202316 8.5062165,5.5085416 12.258711,5.9396393 14.893555,9.5193049 14.45031,13.220503"
       transform="matrix(-0.06405928,-0.14121038,0.1649958,-0.04737046,11.206012,4.1066574)" /><path
       sodipodi:type="spiral"
       style="fill:#ffffff;fill-opacity:1;fill-rule:evenodd;stroke:#191919;stroke-width:1.165;stroke-dasharray:none;stroke-opacity:1"
       id="path22"
       sodipodi:cx="7.3788824"
       sodipodi:cy="11.990684"
       sodipodi:expansion="1"
       sodipodi:revolution="3"
       sodipodi:radius="7.1775723"
       sodipodi:argument="-18.677364"
       sodipodi:t0="0"
       d="m 7.3788824,11.990684 c 0.3545501,0.06166 0.091804,0.508347 -0.1024849,0.589285 -0.5265123,0.219336 -1.0101602,-0.312416 -1.0760864,-0.794255 -0.1179264,-0.861898 0.6785411,-1.533067 1.4860261,-1.562887 1.1850166,-0.04376 2.0659185,1.047626 2.0496877,2.177796 -0.021633,1.506339 -1.4174993,2.602675 -2.8695671,2.536489 C 5.0391786,14.853823 3.7250753,13.149428 3.8431686,11.375774 3.9861954,9.2276413 6.0011989,7.6945659 8.0962768,7.8656841 10.565254,8.067341 12.31801,10.39416 12.093167,12.810563 11.833578,15.600395 9.1941789,17.573289 6.4565181,17.294254 3.345814,16.977198 1.1524728,14.024706 1.4860261,10.965834 1.8602224,7.5342424 5.1261684,5.1202316 8.5062165,5.5085416 12.258711,5.9396393 14.893555,9.5193049 14.45031,13.220503"
       transform="matrix(0.05412097,-0.14530961,0.15041299,0.08272549,12.656987,4.3639519)" /><path
       sodipodi:type="spiral"
       style="fill:#ffffff;fill-opacity:1;fill-rule:evenodd;stroke:#191919;stroke-width:1.165;stroke-dasharray:none;stroke-opacity:1"
       id="path23"
       sodipodi:cx="7.3788824"
       sodipodi:cy="11.990684"
       sodipodi:expansion="1"
       sodipodi:revolution="3"
       sodipodi:radius="7.1775723"
       sodipodi:argument="-18.677364"
       sodipodi:t0="0"
       d="m 7.3788824,11.990684 c 0.3545501,0.06166 0.091804,0.508347 -0.1024849,0.589285 -0.5265123,0.219336 -1.0101602,-0.312416 -1.0760864,-0.794255 -0.1179264,-0.861898 0.6785411,-1.533067 1.4860261,-1.562887 1.1850166,-0.04376 2.0659185,1.047626 2.0496877,2.177796 -0.021633,1.506339 -1.4174993,2.602675 -2.8695671,2.536489 C 5.0391786,14.853823 3.7250753,13.149428 3.8431686,11.375774 3.9861954,9.2276413 6.0011989,7.6945659 8.0962768,7.8656841 10.565254,8.067341 12.31801,10.39416 12.093167,12.810563 11.833578,15.600395 9.1941789,17.573289 6.4565181,17.294254 3.345814,16.977198 1.1524728,14.024706 1.4860261,10.965834 1.8602224,7.5342424 5.1261684,5.1202316 8.5062165,5.5085416 12.258711,5.9396393 14.893555,9.5193049 14.45031,13.220503"
       transform="matrix(0.06405928,-0.14121038,-0.1649958,-0.04737046,10.547449,4.2603844)" /><path
       sodipodi:type="spiral"
       style="fill:#ffffff;fill-opacity:1;fill-rule:evenodd;stroke:#191919;stroke-width:1.165;stroke-dasharray:none;stroke-opacity:1"
       id="path25"
       sodipodi:cx="7.3788824"
       sodipodi:cy="11.990684"
       sodipodi:expansion="1"
       sodipodi:revolution="3"
       sodipodi:radius="7.1775723"
       sodipodi:argument="-18.677364"
       sodipodi:t0="0"
       d="m 7.3788824,11.990684 c 0.3545501,0.06166 0.091804,0.508347 -0.1024849,0.589285 -0.5265123,0.219336 -1.0101602,-0.312416 -1.0760864,-0.794255 -0.1179264,-0.861898 0.6785411,-1.533067 1.4860261,-1.562887 1.1850166,-0.04376 2.0659185,1.047626 2.0496877,2.177796 -0.021633,1.506339 -1.4174993,2.602675 -2.8695671,2.536489 C 5.0391786,14.853823 3.7250753,13.149428 3.8431686,11.375774 3.9861954,9.2276413 6.0011989,7.6945659 8.0962768,7.8656841 10.565254,8.067341 12.31801,10.39416 12.093167,12.810563 11.833578,15.600395 9.1941789,17.573289 6.4565181,17.294254 3.345814,16.977198 1.1524728,14.024706 1.4860261,10.965834 1.8602224,7.5342424 5.1261684,5.1202316 8.5062165,5.5085416 12.258711,5.9396393 14.893555,9.5193049 14.45031,13.220503"
       transform="matrix(0.13827298,-0.07017511,0.05454274,0.16276567,11.075057,8.797057)" /><rect
       style="fill:#ffffff;fill-opacity:1;stroke:#191919;stroke-width:0.55715266;stroke-dasharray:none;stroke-opacity:1"
       id="rect65"
       width="1.2078911"
       height="14.207889"
       x="-24.863651"
       y="5.3516927"
       transform="matrix(-0.96188474,-0.2734552,-0.23638693,0.971659,0,0)" /><path
       id="rect66"
       style="fill:#ffffff;fill-opacity:1;stroke:#191919;stroke-width:0.759883;stroke-dasharray:none;stroke-opacity:1"
       d="m 22.808423,1.1732701 2.95724,2.1657613 -0.607837,1.9058432 a 1.3226011,1.1354532 3.551911 0 0 -0.304365,-0.091585 1.3226011,1.1354532 3.551911 0 0 -1.556153,0.8652124 1.3226011,1.1354532 3.551911 0 0 1.036272,1.35399 1.3226011,1.1354532 3.551911 0 0 0.139486,0.019789 L 22.70687,12.92997 20.892109,12.587657 Z" /><rect
       style="fill:#ffffff;fill-opacity:1;stroke:#191919;stroke-width:0.3559954;stroke-miterlimit:4;stroke-dasharray:none;stroke-opacity:1"
       id="rect32"
       width="2.6837664"
       height="0.65858144"
       x="-25.648785"
       y="18.231581"
       ry="0.30826324"
       transform="matrix(-0.96188474,-0.2734552,-0.23638693,0.971659,0,0)" /><rect
       style="fill:#ffffff;fill-opacity:1;stroke:#191919;stroke-width:0.441223;stroke-miterlimit:4;stroke-dasharray:none;stroke-opacity:1"
       id="rect33"
       width="3.2131467"
       height="0.86743224"
       x="-25.79751"
       y="18.869749"
       ry="0.40602034"
       transform="matrix(-0.96188474,-0.2734552,-0.23638693,0.971659,0,0)" /><path
       id="path68"
       style="fill:#ffffff;fill-opacity:1;stroke:#191919;stroke-width:0.697416;stroke-dasharray:none;stroke-opacity:1"
       d="m 19.475538,14.153607 c -0.495379,0.705867 -0.423922,2.158058 0.825133,2.481127 0.995974,0.257611 1.957715,0.478823 2.433111,-0.433751 0.478661,-0.91886 0.972506,-1.839401 -0.839319,-2.567009 -0.967883,-0.388691 -1.999708,-0.07772 -2.418925,0.519633 z"
       sodipodi:nodetypes="sssss" /><path
       id="path1"
       style="fill:#989898;fill-opacity:1;stroke:none;stroke-width:0.449489;stroke-miterlimit:4;stroke-dasharray:none;stroke-opacity:1"
       d="M 7.5248355,4.6909564 C 7.2602424,4.7165466 6.9916,4.7556576 6.7202334,4.8061949 6.5237956,5.1422208 6.3920931,5.6836131 6.3920881,6.0872537 6.3921755,7.2179025 7.1972773,8.134144 8.1904279,8.1341572 8.6341498,8.1341511 9.0400348,7.9516591 9.3536644,7.6483987 A 2.1853387,1.9310868 0 0 1 7.1904889,5.7172504 2.1853387,1.9310868 0 0 1 7.5248355,4.6909564 Z" /><path
       id="path2"
       style="fill:#989898;fill-opacity:1;stroke:none;stroke-width:0.449489;stroke-miterlimit:4;stroke-dasharray:none;stroke-opacity:1"
       d="m 12.290363,4.5180139 c -0.264593,0.02559 -0.533235,0.064701 -0.804602,0.1152385 -0.196437,0.3360259 -0.32814,0.8774182 -0.328145,1.2810588 8.7e-5,1.1306488 0.805189,2.0468903 1.79834,2.0469035 0.443722,-6.1e-6 0.849607,-0.1824981 1.163236,-0.4857585 a 2.1853387,1.9310868 0 0 1 -2.163175,-1.9311483 2.1853387,1.9310868 0 0 1 0.334346,-1.026294 z" /></g></svg>
