<?xml version="1.0" encoding="UTF-8" standalone="no"?>
<!-- Created with Inkscape (http://www.inkscape.org/) -->

<svg
   width="100"
   height="100"
   viewBox="0 0 26.458333 26.458334"
   version="1.1"
   id="svg5"
   inkscape:version="1.4.2 (ebf0e940d0, 2025-05-08)"
   sodipodi:docname="statue.svg"
   xml:space="preserve"
   xmlns:inkscape="http://www.inkscape.org/namespaces/inkscape"
   xmlns:sodipodi="http://sodipodi.sourceforge.net/DTD/sodipodi-0.dtd"
   xmlns="http://www.w3.org/2000/svg"
   xmlns:svg="http://www.w3.org/2000/svg"><sodipodi:namedview
     id="namedview7"
     pagecolor="#505050"
     bordercolor="#ffffff"
     borderopacity="1"
     inkscape:pageshadow="0"
     inkscape:pageopacity="0"
     inkscape:pagecheckerboard="1"
     inkscape:document-units="px"
     showgrid="false"
     units="px"
     width="100px"
     inkscape:snap-global="false"
     inkscape:zoom="13.769024"
     inkscape:cx="42.159852"
     inkscape:cy="88.568371"
     inkscape:window-width="1366"
     inkscape:window-height="697"
     inkscape:window-x="0"
     inkscape:window-y="0"
     inkscape:window-maximized="1"
     inkscape:current-layer="layer1"
     inkscape:showpageshadow="0"
     inkscape:deskcolor="#505050" /><defs
     id="defs2"><linearGradient
       id="linearGradient13895"
       inkscape:swatch="solid"><stop
         style="stop-color:#000000;stop-opacity:1;"
         offset="0"
         id="stop13893" /></linearGradient><filter
       style="color-interpolation-filters:sRGB;"
       inkscape:label="Clean Edges"
       id="filter14269"
       x="-0.31154084"
       y="-0.29580634"
       width="1.6230817"
       height="1.5916127"><feGaussianBlur
         stdDeviation="0.204612"
         result="blur"
         id="feGaussianBlur14263" /><feComposite
         in="SourceGraphic"
         in2="blur"
         operator="in"
         result="composite1"
         id="feComposite14265" /><feComposite
         in="composite1"
         in2="composite1"
         operator="in"
         result="composite2"
         id="feComposite14267" /></filter><inkscape:path-effect
       effect="fillet_chamfer"
       id="path-effect68"
       is_visible="true"
       lpeversion="1"
       nodesatellites_param="F,0,0,1,0,0,0,1 @ F,0,0,1,0,0,0,1 @ F,0,0,1,0,0,0,1 @ F,0,0,1,0,0,0,1 @ F,0,0,1,0,0,0,1 @ F,0,0,1,0,0,0,1 @ F,0,0,1,0,0,0,1 @ F,0,0,1,0,0,0,1 @ F,0,0,1,0,0,0,1"
       radius="0"
       unit="px"
       method="auto"
       mode="F"
       chamfer_steps="1"
       flexible="false"
       use_knot_distance="true"
       apply_no_radius="true"
       apply_with_radius="true"
       only_selected="false"
       hide_knots="false" /><inkscape:path-effect
       effect="fillet_chamfer"
       id="path-effect66"
       is_visible="true"
       lpeversion="1"
       nodesatellites_param="F,0,0,1,0,0,0,1 @ F,0,0,1,0,0.44929322,0,1 @ F,0,0,1,0,0.44929322,0,1 @ F,0,0,1,0,0,0,1 @ F,0,0,1,0,0,0,1 @ F,0,0,1,0,0,0,1 @ F,0,0,1,0,0,0,1 @ F,0,0,1,0,0,0,1 @ F,0,0,1,0,0,0,1 @ F,0,0,1,0,0,0,1"
       radius="0"
       unit="px"
       method="auto"
       mode="F"
       chamfer_steps="1"
       flexible="false"
       use_knot_distance="true"
       apply_no_radius="true"
       apply_with_radius="true"
       only_selected="false"
       hide_knots="false" /><inkscape:path-effect
       effect="fillet_chamfer"
       id="path-effect68-3"
       is_visible="true"
       lpeversion="1"
       nodesatellites_param="F,0,0,1,0,0,0,1 @ F,0,0,1,0,0,0,1 @ F,0,0,1,0,0,0,1 @ F,0,0,1,0,0,0,1 @ F,0,0,1,0,0,0,1 @ F,0,0,1,0,0,0,1 @ F,0,0,1,0,0,0,1 @ F,0,0,1,0,0,0,1 @ F,0,0,1,0,0,0,1"
       radius="0"
       unit="px"
       method="auto"
       mode="F"
       chamfer_steps="1"
       flexible="false"
       use_knot_distance="true"
       apply_no_radius="true"
       apply_with_radius="true"
       only_selected="false"
       hide_knots="false" /><inkscape:path-effect
       effect="fillet_chamfer"
       id="path-effect66-6"
       is_visible="true"
       lpeversion="1"
       nodesatellites_param="F,0,0,1,0,0,0,1 @ F,0,0,1,0,0.44929322,0,1 @ F,0,0,1,0,0.44929322,0,1 @ F,0,0,1,0,0,0,1 @ F,0,0,1,0,0,0,1 @ F,0,0,1,0,0,0,1 @ F,0,0,1,0,0,0,1 @ F,0,0,1,0,0,0,1 @ F,0,0,1,0,0,0,1 @ F,0,0,1,0,0,0,1"
       radius="0"
       unit="px"
       method="auto"
       mode="F"
       chamfer_steps="1"
       flexible="false"
       use_knot_distance="true"
       apply_no_radius="true"
       apply_with_radius="true"
       only_selected="false"
       hide_knots="false" /></defs><g
     inkscape:label="Camada 1"
     inkscape:groupmode="layer"
     id="layer1"><ellipse
       style="fill:#ffffff;fill-opacity:1;stroke:#4c4813;stroke-width:0.761963;stroke-linecap:round;stroke-linejoin:round;stroke-dasharray:none;stroke-opacity:1"
       id="ellipse27"
       cx="13.234369"
       cy="25.042725"
       rx="12.741619"
       ry="1.016161" /><ellipse
       style="fill:#ffffff;fill-opacity:1;stroke:#191919;stroke-width:0.590303;stroke-linecap:round;stroke-linejoin:round;stroke-dasharray:none;stroke-opacity:1"
       id="path27"
       cx="12.989792"
       cy="24.791552"
       rx="9.7566404"
       ry="0.79646891" /><rect
       style="fill:none;fill-opacity:1;stroke:#191919;stroke-width:1.33425;stroke-dasharray:none;stroke-opacity:1"
       id="rect1"
       width="2.9530501"
       height="4.3658729"
       x="9.2956791"
       y="10.537515" /><path
       id="rect2"
       style="fill:#ffffff;stroke:#191919;stroke-width:0.609203"
       d="m 7.3933191,13.127946 h 6.8621189 l 0.01923,5.589414 -6.8813419,0.872989 z"
       sodipodi:nodetypes="ccccc" /><path
       id="path26"
       style="fill:#989898;fill-opacity:1;stroke:none;stroke-width:0.423839;stroke-opacity:1"
       d="m 9.9000984,13.182811 c -0.8130056,0.16353 -1.0912941,0.291023 -0.8241398,0.920739 0.2671525,0.629711 1.1427904,1.007626 1.9557944,0.844094 0.813005,-0.163528 1.255507,-0.806577 0.988356,-1.436289 -0.267149,-0.62971 -1.307003,-0.49207 -2.1200074,-0.328541 z"
       sodipodi:nodetypes="sssss" /><path
       id="ellipse25"
       style="fill:#989898;fill-opacity:1;stroke:none;stroke-width:0.421699;stroke-opacity:1"
       d="M 9.8911661,14.036414 C 10.407944,14.661323 10.52833,14.918276 9.8185271,15.124336 9.1087239,15.330396 8.1143825,14.990853 7.597604,14.365945 7.0808249,13.741037 7.2373029,13.067404 7.9471066,12.861344 8.65691,12.655284 9.3743887,13.411507 9.8911672,14.036414 Z"
       sodipodi:nodetypes="sssss" /><path
       id="path75"
       style="fill:#ffffff;fill-opacity:1;stroke:#191919;stroke-width:0.254001;stroke-opacity:1"
       d="m 10.520715,11.893894 h 0.420502 c 0.611974,0 1.632891,-0.03014 1.492874,0.129097 0,0 0.254576,0.924308 0.254576,1.348924 0,0.30102 -0.545609,0.244211 -1.74745,0.244211 h -0.420502 c -0.6119738,0 -1.4865094,0.01012 -1.4865094,-0.114082 0,-0.424616 0.1845672,-1.444018 0.1845672,-1.444018 0,-0.124202 0.6899684,-0.164132 1.3019422,-0.164132 z"
       sodipodi:nodetypes="sssssssss" /><path
       id="ellipse24"
       style="fill:#ffffff;fill-opacity:1;stroke:#191919;stroke-width:0.239221;stroke-opacity:1"
       d="m 12.577638,12.221516 c 0,0.751388 -0.745647,0.730392 -1.700813,0.730392 -0.9551664,0 -1.7581486,0.02099 -1.7581486,-0.730392 0,-0.751387 0.7743151,-1.360507 1.7294806,-1.360507 0.955166,0 1.729481,0.60912 1.729481,1.360507 z"
       sodipodi:nodetypes="sssss" /><path
       id="path26-0"
       style="fill:#989898;fill-opacity:1;stroke:none;stroke-width:0.497301;stroke-dasharray:none;stroke-opacity:1"
       d="m 7.7821671,13.811588 c -0.031473,0.01402 -0.062597,0.02994 -0.093308,0.04777 l 0.00912,3.855367 0.00195,0.0036 c 0,0 1.5363855,-1.427355 1.5580172,-2.533421 C 8.9749396,15.210359 8.450744,15.365239 8.1665708,15.068727 7.8543833,14.74298 7.8004489,14.396104 7.782162,13.811588 Z m 1.6120691,1.749217 c -0.00891,0.0059 -0.017892,0.01166 -0.026942,0.01723 l 0.030649,0.04496 c -0.00104,-0.02076 -0.00228,-0.0415 -0.0037,-0.06219 z"
       sodipodi:nodetypes="cccccscscccs" /><path
       style="fill:none;fill-opacity:1;stroke:#191919;stroke-width:0.544528;stroke-dasharray:none;stroke-opacity:1"
       d="m 7.6760659,13.262243 c 0,0 -0.1017684,1.321752 0.5796119,1.685487 0.5196831,0.277418 1.8935092,0.168629 1.8935092,0.168629"
       id="path23-9"
       sodipodi:nodetypes="csc" /><path
       id="path25-3"
       style="fill:#989898;fill-opacity:1;stroke:none;stroke-width:0.380822;stroke-opacity:1"
       d="m 11.74315,13.975371 c -0.421448,0.624908 -0.519625,0.881862 0.05924,1.087922 0.578865,0.206059 1.389778,-0.133483 1.811224,-0.758392 0.421447,-0.624907 0.293835,-1.298539 -0.28503,-1.5046 -0.578863,-0.20606 -1.163987,0.550162 -1.585434,1.17507 z"
       sodipodi:nodetypes="sssss" /><path
       id="path27-6"
       style="fill:#989898;fill-opacity:1;stroke:none;stroke-width:0.497301;stroke-dasharray:none;stroke-opacity:1"
       d="m 13.839997,13.731508 c 0.03147,0.01402 0.06259,0.02995 0.09331,0.04777 l -0.0091,3.855366 -0.0019,0.0036 c 0,0 -1.536385,-1.427355 -1.558017,-2.53342 0.283011,0.02547 0.807206,0.180359 1.09138,-0.116154 0.312187,-0.325744 0.366122,-0.67262 0.384408,-1.257136 z m -1.612069,1.749217 c 0.0089,0.0059 0.01789,0.01166 0.02694,0.01724 l -0.03065,0.04496 c 10e-4,-0.02076 0.0023,-0.0415 0.0037,-0.06219 z"
       sodipodi:nodetypes="cccccscscccs" /><path
       style="fill:none;fill-opacity:1;stroke:#191919;stroke-width:0.514951;stroke-dasharray:none;stroke-opacity:1"
       d="m 13.891041,13.205618 c 0,0 0.101769,1.321753 -0.579613,1.685487 -0.519683,0.277418 -1.893508,0.168629 -1.893508,0.168629"
       id="path24-0"
       sodipodi:nodetypes="csc" /><g
       id="g29"
       transform="matrix(0.33588504,0,0,-0.2604606,-2.7777494,26.257455)"
       style="fill:#989898;fill-opacity:1;stroke:#191919;stroke-opacity:1"><ellipse
         style="fill:#989898;fill-opacity:1;stroke:#191919;stroke-width:1.6332;stroke-dasharray:none;stroke-opacity:1"
         id="path28"
         cx="35.288403"
         cy="41.778561"
         rx="1.6525621"
         ry="1.2682455" /><ellipse
         style="fill:#989898;fill-opacity:1;stroke:#191919;stroke-width:1.24266;stroke-dasharray:none;stroke-opacity:1"
         id="ellipse28"
         cx="35.326832"
         cy="41.804771"
         rx="1.1913821"
         ry="1.0184395" /><ellipse
         style="fill:#989898;fill-opacity:1;stroke:#191919;stroke-width:0.946814;stroke-dasharray:none;stroke-opacity:1"
         id="ellipse29"
         cx="35.04314"
         cy="41.491093"
         rx="0.87090665"
         ry="0.80879658" /></g><g
       id="g32"
       transform="matrix(-0.33588504,0,0,-0.2604606,24.925011,26.055122)"
       style="fill:#989898;fill-opacity:1;stroke:#191919;stroke-opacity:1"><ellipse
         style="fill:#989898;fill-opacity:1;stroke:#191919;stroke-width:1.6332;stroke-dasharray:none;stroke-opacity:1"
         id="ellipse30"
         cx="35.288403"
         cy="41.778561"
         rx="1.6525621"
         ry="1.2682455" /><ellipse
         style="fill:#989898;fill-opacity:1;stroke:#191919;stroke-width:1.24266;stroke-dasharray:none;stroke-opacity:1"
         id="ellipse31-6"
         cx="35.326832"
         cy="41.804771"
         rx="1.1913821"
         ry="1.0184395" /><ellipse
         style="fill:#989898;fill-opacity:1;stroke:#191919;stroke-width:0.946814;stroke-dasharray:none;stroke-opacity:1"
         id="ellipse32"
         cx="35.04314"
         cy="41.491093"
         rx="0.87090665"
         ry="0.80879658" /></g><rect
       style="fill:#ffffff;fill-opacity:1;stroke:#191919;stroke-width:0.538149;stroke-opacity:1"
       id="rect46"
       width="2.9722335"
       height="6.3332806"
       x="7.276782"
       y="18.804361"
       ry="1.1144092" /><rect
       style="fill:#ffffff;fill-opacity:1;stroke:#191919;stroke-width:0.554445;stroke-dasharray:none;stroke-opacity:1"
       id="rect47"
       width="2.9180601"
       height="3.0872819"
       x="10.959956"
       y="22.13916"
       ry="0.54324067" /><path
       id="rect9714"
       style="fill:#ffffff;fill-opacity:1;stroke:#191919;stroke-width:0.753386;stroke-miterlimit:4;stroke-dasharray:none;stroke-opacity:1"
       d="m 6.5010672,11.851463 c -0.3872049,0.09117 -0.6997209,0.314665 -0.7887101,0.600911 l -1.2257736,3.942987 c -0.2047945,1.474442 -0.04815,2.99772 -0.023347,4.486174 0.00706,0.423452 0.5167506,0.690239 1.1422845,0.598662 l 0.47337,-0.06863 c 0.6255351,-0.09157 1.1232068,-0.50684 1.1161428,-0.930294 0.1308734,-1.241356 -0.2826375,-2.592686 -0.010126,-3.806733 l 1.2264446,-3.943873 c 0.129437,-0.416353 -0.264359,-0.802815 -0.8822766,-0.866596 l -0.4677472,-0.04852 c -0.1931027,-0.01993 -0.3842424,-0.0054 -0.5602495,0.03594 z"
       sodipodi:nodetypes="ccccccccccccc" /><path
       id="path11551"
       style="fill:#ffffff;fill-opacity:1;stroke:#191919;stroke-width:0.716224;stroke-miterlimit:4;stroke-dasharray:none;stroke-opacity:1"
       d="m 21.471798,15.66205 c -0.315123,0.275005 -0.68757,0.417009 -0.968725,0.339032 L 16.63024,14.92693 c -0.06563,-0.01819 -0.09457,-0.145119 -0.141894,-0.183299 -0.09872,-0.01082 -0.215401,0.05737 -0.288618,0.0059 l -3.113515,-2.190039 c -0.328701,-0.231206 -0.218064,-0.798874 0.247343,-1.272619 l 0.351672,-0.358864 c 0.465404,-0.473751 1.105062,-0.668474 1.433759,-0.43726 l 2.863118,2.014001 c 1.338425,0.334248 2.668761,0.725126 3.999276,1.094013 0.408946,0.113425 0.465354,0.647962 0.126949,1.198011 l -0.255999,0.416485 c -0.10574,0.1719 -0.237319,0.323844 -0.380579,0.448826 z"
       sodipodi:nodetypes="ccccccccscccccc" /><rect
       style="fill:#989898;fill-opacity:1;stroke:#191919;stroke-width:0.646044;stroke-opacity:1"
       id="rect14"
       width="3.2876058"
       height="1.4954134"
       x="3.9369814"
       y="17.790836"
       ry="0.38841867"
       rx="1.6438029" /><path
       id="rect9738"
       style="fill:#ffffff;fill-opacity:1;stroke:#191919;stroke-width:0.661119;stroke-miterlimit:4;stroke-dasharray:none;stroke-opacity:1"
       d="m 7.3413243,18.621999 -0.5030335,5.130448 1.9259198,0.536837 2.0282614,-0.789492 1.550802,0.789492 2.320043,-0.744251 -1.433355,-2.514054 0.850286,-2.369578 z"
       sodipodi:nodetypes="ccccccccc" /><ellipse
       style="fill:#ffffff;fill-opacity:1;stroke:#191919;stroke-width:0.250167;stroke-miterlimit:4;stroke-dasharray:none;stroke-opacity:1"
       id="ellipse49"
       cx="10.785137"
       cy="12.041259"
       rx="2.1508782"
       ry="1.5277269" /><ellipse
       style="fill:#ffffff;fill-opacity:1;stroke:#191919;stroke-width:0.855558;stroke-miterlimit:4;stroke-dasharray:none;stroke-opacity:1"
       id="ellipse3"
       cx="10.74596"
       cy="6.5163183"
       rx="5.7179093"
       ry="5.7642984" /><ellipse
       style="fill:#989898;fill-opacity:1;stroke:none;stroke-width:0.312483;stroke-miterlimit:4;stroke-dasharray:none;stroke-opacity:1"
       id="ellipse4"
       cx="10.727456"
       cy="6.4881582"
       rx="5.2607374"
       ry="5.1862164" /><ellipse
       style="fill:#ffffff;fill-opacity:1;stroke:none;stroke-width:0.901762;stroke-dasharray:none;stroke-opacity:1"
       id="ellipse8"
       cx="4.0429516"
       cy="11.380277"
       rx="3.2720599"
       ry="4.3593607"
       transform="matrix(0.76383247,-0.64541456,0.73343094,0.67976397,0,0)" /><path
       id="path12"
       style="fill:#ffffff;fill-opacity:1;stroke:#191919;stroke-width:0.60907084;stroke-miterlimit:4;stroke-dasharray:none;stroke-opacity:1"
       d="M 6.5513414,4.4122864 C 6.3275274,4.781954 6.1769827,5.37742 6.176977,5.8214716 6.1770766,7.0653169 7.0944083,8.0735989 8.225968,8.0736135 9.3575297,8.0735987 10.274863,7.0653169 10.274962,5.8214716 10.274956,5.3774201 10.155542,4.8315921 9.931726,4.4619244 8.8915062,4.1707907 7.746791,4.197324 6.5513414,4.4122864 Z"
       sodipodi:nodetypes="cccccc" /><path
       id="path42"
       style="fill:#ffffff;fill-opacity:1;stroke:#191919;stroke-width:0.53075417;stroke-miterlimit:4;stroke-dasharray:none;stroke-opacity:1"
       d="m 11.29864,4.2657336 c -0.223754,0.3713592 -0.374258,0.9695502 -0.374264,1.4156338 10e-5,1.2495374 0.917184,2.2624334 2.048441,2.2624481 1.131257,-1.48e-5 2.048342,-1.0129107 2.048442,-2.2624481 C 15.021252,5.2352839 14.90187,4.6869581 14.678116,4.3155988 13.638175,4.0231327 12.493768,4.0497875 11.29864,4.2657336 Z"
       sodipodi:nodetypes="cccccc" /><path
       sodipodi:type="spiral"
       style="fill:#ffffff;fill-opacity:1;fill-rule:evenodd;stroke:#191919;stroke-width:1.165;stroke-dasharray:none;stroke-opacity:1"
       id="path8"
       sodipodi:cx="7.3788824"
       sodipodi:cy="11.990684"
       sodipodi:expansion="1"
       sodipodi:revolution="3"
       sodipodi:radius="7.1775723"
       sodipodi:argument="-18.677364"
       sodipodi:t0="0"
       d="m 7.3788824,11.990684 c 0.3545501,0.06166 0.091804,0.508347 -0.1024849,0.589285 -0.5265123,0.219336 -1.0101602,-0.312416 -1.0760864,-0.794255 -0.1179264,-0.861898 0.6785411,-1.533067 1.4860261,-1.562887 1.1850166,-0.04376 2.0659185,1.047626 2.0496877,2.177796 -0.021633,1.506339 -1.4174993,2.602675 -2.8695671,2.536489 C 5.0391786,14.853823 3.7250753,13.149428 3.8431686,11.375774 3.9861954,9.2276413 6.0011989,7.6945659 8.0962768,7.8656841 10.565254,8.067341 12.31801,10.39416 12.093167,12.810563 11.833578,15.600395 9.1941789,17.573289 6.4565181,17.294254 3.345814,16.977198 1.1524728,14.024706 1.4860261,10.965834 1.8602224,7.5342424 5.1261684,5.1202316 8.5062165,5.5085416 12.258711,5.9396393 14.893555,9.5193049 14.45031,13.220503"
       transform="matrix(0.22264167,-0.0022909,-0.00581167,-0.21602964,5.1100141,12.386454)" /><path
       sodipodi:type="spiral"
       style="fill:#ffffff;fill-opacity:1;fill-rule:evenodd;stroke:#191919;stroke-width:1.165;stroke-dasharray:none;stroke-opacity:1"
       id="path3"
       sodipodi:cx="7.3788824"
       sodipodi:cy="11.990684"
       sodipodi:expansion="1"
       sodipodi:revolution="3"
       sodipodi:radius="7.1775723"
       sodipodi:argument="-18.677364"
       sodipodi:t0="0"
       d="m 7.3788824,11.990684 c 0.3545501,0.06166 0.091804,0.508347 -0.1024849,0.589285 -0.5265123,0.219336 -1.0101602,-0.312416 -1.0760864,-0.794255 -0.1179264,-0.861898 0.6785411,-1.533067 1.4860261,-1.562887 1.1850166,-0.04376 2.0659185,1.047626 2.0496877,2.177796 -0.021633,1.506339 -1.4174993,2.602675 -2.8695671,2.536489 C 5.0391786,14.853823 3.7250753,13.149428 3.8431686,11.375774 3.9861954,9.2276413 6.0011989,7.6945659 8.0962768,7.8656841 10.565254,8.067341 12.31801,10.39416 12.093167,12.810563 11.833578,15.600395 9.1941789,17.573289 6.4565181,17.294254 3.345814,16.977198 1.1524728,14.024706 1.4860261,10.965834 1.8602224,7.5342424 5.1261684,5.1202316 8.5062165,5.5085416 12.258711,5.9396393 14.893555,9.5193049 14.45031,13.220503"
       transform="matrix(0.09747646,-0.19342157,-0.2025628,-0.09161696,8.8739216,13.913605)" /><path
       sodipodi:type="spiral"
       style="fill:#ffffff;fill-opacity:1;fill-rule:evenodd;stroke:#191919;stroke-width:1.165;stroke-dasharray:none;stroke-opacity:1"
       id="path4"
       sodipodi:cx="7.3788824"
       sodipodi:cy="11.990684"
       sodipodi:expansion="1"
       sodipodi:revolution="3"
       sodipodi:radius="7.1775723"
       sodipodi:argument="-18.677364"
       sodipodi:t0="0"
       d="m 7.3788824,11.990684 c 0.3545501,0.06166 0.091804,0.508347 -0.1024849,0.589285 -0.5265123,0.219336 -1.0101602,-0.312416 -1.0760864,-0.794255 -0.1179264,-0.861898 0.6785411,-1.533067 1.4860261,-1.562887 1.1850166,-0.04376 2.0659185,1.047626 2.0496877,2.177796 -0.021633,1.506339 -1.4174993,2.602675 -2.8695671,2.536489 C 5.0391786,14.853823 3.7250753,13.149428 3.8431686,11.375774 3.9861954,9.2276413 6.0011989,7.6945659 8.0962768,7.8656841 10.565254,8.067341 12.31801,10.39416 12.093167,12.810563 11.833578,15.600395 9.1941789,17.573289 6.4565181,17.294254 3.345814,16.977198 1.1524728,14.024706 1.4860261,10.965834 1.8602224,7.5342424 5.1261684,5.1202316 8.5062165,5.5085416 12.258711,5.9396393 14.893555,9.5193049 14.45031,13.220503"
       transform="matrix(0.09747646,-0.19342157,-0.2025628,-0.09161696,10.719382,14.619426)" /><path
       sodipodi:type="spiral"
       style="fill:#ffffff;fill-opacity:1;fill-rule:evenodd;stroke:#191919;stroke-width:1.165;stroke-dasharray:none;stroke-opacity:1"
       id="path7"
       sodipodi:cx="7.3788824"
       sodipodi:cy="11.990684"
       sodipodi:expansion="1"
       sodipodi:revolution="3"
       sodipodi:radius="7.1775723"
       sodipodi:argument="-18.677364"
       sodipodi:t0="0"
       d="m 7.3788824,11.990684 c 0.3545501,0.06166 0.091804,0.508347 -0.1024849,0.589285 -0.5265123,0.219336 -1.0101602,-0.312416 -1.0760864,-0.794255 -0.1179264,-0.861898 0.6785411,-1.533067 1.4860261,-1.562887 1.1850166,-0.04376 2.0659185,1.047626 2.0496877,2.177796 -0.021633,1.506339 -1.4174993,2.602675 -2.8695671,2.536489 C 5.0391786,14.853823 3.7250753,13.149428 3.8431686,11.375774 3.9861954,9.2276413 6.0011989,7.6945659 8.0962768,7.8656841 10.565254,8.067341 12.31801,10.39416 12.093167,12.810563 11.833578,15.600395 9.1941789,17.573289 6.4565181,17.294254 3.345814,16.977198 1.1524728,14.024706 1.4860261,10.965834 1.8602224,7.5342424 5.1261684,5.1202316 8.5062165,5.5085416 12.258711,5.9396393 14.893555,9.5193049 14.45031,13.220503"
       transform="matrix(-0.05414267,0.14045781,-0.15047329,-0.07996334,8.9823305,10.032306)" /><path
       sodipodi:type="spiral"
       style="fill:#ffffff;fill-opacity:1;fill-rule:evenodd;stroke:#191919;stroke-width:1.165;stroke-dasharray:none;stroke-opacity:1"
       id="path5"
       sodipodi:cx="7.3788824"
       sodipodi:cy="11.990684"
       sodipodi:expansion="1"
       sodipodi:revolution="3"
       sodipodi:radius="7.1775723"
       sodipodi:argument="-18.677364"
       sodipodi:t0="0"
       d="m 7.3788824,11.990684 c 0.3545501,0.06166 0.091804,0.508347 -0.1024849,0.589285 -0.5265123,0.219336 -1.0101602,-0.312416 -1.0760864,-0.794255 -0.1179264,-0.861898 0.6785411,-1.533067 1.4860261,-1.562887 1.1850166,-0.04376 2.0659185,1.047626 2.0496877,2.177796 -0.021633,1.506339 -1.4174993,2.602675 -2.8695671,2.536489 C 5.0391786,14.853823 3.7250753,13.149428 3.8431686,11.375774 3.9861954,9.2276413 6.0011989,7.6945659 8.0962768,7.8656841 10.565254,8.067341 12.31801,10.39416 12.093167,12.810563 11.833578,15.600395 9.1941789,17.573289 6.4565181,17.294254 3.345814,16.977198 1.1524728,14.024706 1.4860261,10.965834 1.8602224,7.5342424 5.1261684,5.1202316 8.5062165,5.5085416 12.258711,5.9396393 14.893555,9.5193049 14.45031,13.220503"
       transform="matrix(-0.09747646,-0.19342157,0.2025628,-0.09161696,9.9904226,14.879464)"
       inkscape:transform-center-x="1.3115505e-05"
       inkscape:transform-center-y="-0.041890314" /><path
       sodipodi:type="spiral"
       style="fill:#ffffff;fill-opacity:1;fill-rule:evenodd;stroke:#191919;stroke-width:1.165;stroke-dasharray:none;stroke-opacity:1"
       id="path6"
       sodipodi:cx="7.3788824"
       sodipodi:cy="11.990684"
       sodipodi:expansion="1"
       sodipodi:revolution="3"
       sodipodi:radius="7.1775723"
       sodipodi:argument="-18.677364"
       sodipodi:t0="0"
       d="m 7.3788824,11.990684 c 0.3545501,0.06166 0.091804,0.508347 -0.1024849,0.589285 -0.5265123,0.219336 -1.0101602,-0.312416 -1.0760864,-0.794255 -0.1179264,-0.861898 0.6785411,-1.533067 1.4860261,-1.562887 1.1850166,-0.04376 2.0659185,1.047626 2.0496877,2.177796 -0.021633,1.506339 -1.4174993,2.602675 -2.8695671,2.536489 C 5.0391786,14.853823 3.7250753,13.149428 3.8431686,11.375774 3.9861954,9.2276413 6.0011989,7.6945659 8.0962768,7.8656841 10.565254,8.067341 12.31801,10.39416 12.093167,12.810563 11.833578,15.600395 9.1941789,17.573289 6.4565181,17.294254 3.345814,16.977198 1.1524728,14.024706 1.4860261,10.965834 1.8602224,7.5342424 5.1261684,5.1202316 8.5062165,5.5085416 12.258711,5.9396393 14.893555,9.5193049 14.45031,13.220503"
       transform="matrix(-0.09747646,-0.19342157,0.2025628,-0.09161696,12.335694,14.062198)"
       inkscape:transform-center-x="1.3115505e-05"
       inkscape:transform-center-y="-0.041890314" /><path
       sodipodi:type="spiral"
       style="fill:#ffffff;fill-opacity:1;fill-rule:evenodd;stroke:#191919;stroke-width:1.165;stroke-dasharray:none;stroke-opacity:1"
       id="path9"
       sodipodi:cx="7.3788824"
       sodipodi:cy="11.990684"
       sodipodi:expansion="1"
       sodipodi:revolution="3"
       sodipodi:radius="7.1775723"
       sodipodi:argument="-18.677364"
       sodipodi:t0="0"
       d="m 7.3788824,11.990684 c 0.3545501,0.06166 0.091804,0.508347 -0.1024849,0.589285 -0.5265123,0.219336 -1.0101602,-0.312416 -1.0760864,-0.794255 -0.1179264,-0.861898 0.6785411,-1.533067 1.4860261,-1.562887 1.1850166,-0.04376 2.0659185,1.047626 2.0496877,2.177796 -0.021633,1.506339 -1.4174993,2.602675 -2.8695671,2.536489 C 5.0391786,14.853823 3.7250753,13.149428 3.8431686,11.375774 3.9861954,9.2276413 6.0011989,7.6945659 8.0962768,7.8656841 10.565254,8.067341 12.31801,10.39416 12.093167,12.810563 11.833578,15.600395 9.1941789,17.573289 6.4565181,17.294254 3.345814,16.977198 1.1524728,14.024706 1.4860261,10.965834 1.8602224,7.5342424 5.1261684,5.1202316 8.5062165,5.5085416 12.258711,5.9396393 14.893555,9.5193049 14.45031,13.220503"
       transform="matrix(-0.11009714,-0.18699242,-0.1926816,0.10972596,18.921582,10.051997)"
       inkscape:transform-center-x="-0.09709561"
       inkscape:transform-center-y="0.0051554904" /><path
       sodipodi:type="spiral"
       style="fill:#ffffff;fill-opacity:1;fill-rule:evenodd;stroke:#191919;stroke-width:1.165;stroke-dasharray:none;stroke-opacity:1"
       id="path10"
       sodipodi:cx="7.3788824"
       sodipodi:cy="11.990684"
       sodipodi:expansion="1"
       sodipodi:revolution="3"
       sodipodi:radius="7.1775723"
       sodipodi:argument="-18.677364"
       sodipodi:t0="0"
       d="m 7.3788824,11.990684 c 0.3545501,0.06166 0.091804,0.508347 -0.1024849,0.589285 -0.5265123,0.219336 -1.0101602,-0.312416 -1.0760864,-0.794255 -0.1179264,-0.861898 0.6785411,-1.533067 1.4860261,-1.562887 1.1850166,-0.04376 2.0659185,1.047626 2.0496877,2.177796 -0.021633,1.506339 -1.4174993,2.602675 -2.8695671,2.536489 C 5.0391786,14.853823 3.7250753,13.149428 3.8431686,11.375774 3.9861954,9.2276413 6.0011989,7.6945659 8.0962768,7.8656841 10.565254,8.067341 12.31801,10.39416 12.093167,12.810563 11.833578,15.600395 9.1941789,17.573289 6.4565181,17.294254 3.345814,16.977198 1.1524728,14.024706 1.4860261,10.965834 1.8602224,7.5342424 5.1261684,5.1202316 8.5062165,5.5085416 12.258711,5.9396393 14.893555,9.5193049 14.45031,13.220503"
       transform="matrix(-0.06408496,0.13649545,0.16506195,0.04578879,11.04141,9.8723759)" /><path
       sodipodi:type="spiral"
       style="fill:#ffffff;fill-opacity:1;fill-rule:evenodd;stroke:#191919;stroke-width:1.165;stroke-dasharray:none;stroke-opacity:1"
       id="path11"
       sodipodi:cx="7.3788824"
       sodipodi:cy="11.990684"
       sodipodi:expansion="1"
       sodipodi:revolution="3"
       sodipodi:radius="7.1775723"
       sodipodi:argument="-18.677364"
       sodipodi:t0="0"
       d="m 7.3788824,11.990684 c 0.3545501,0.06166 0.091804,0.508347 -0.1024849,0.589285 -0.5265123,0.219336 -1.0101602,-0.312416 -1.0760864,-0.794255 -0.1179264,-0.861898 0.6785411,-1.533067 1.4860261,-1.562887 1.1850166,-0.04376 2.0659185,1.047626 2.0496877,2.177796 -0.021633,1.506339 -1.4174993,2.602675 -2.8695671,2.536489 C 5.0391786,14.853823 3.7250753,13.149428 3.8431686,11.375774 3.9861954,9.2276413 6.0011989,7.6945659 8.0962768,7.8656841 10.565254,8.067341 12.31801,10.39416 12.093167,12.810563 11.833578,15.600395 9.1941789,17.573289 6.4565181,17.294254 3.345814,16.977198 1.1524728,14.024706 1.4860261,10.965834 1.8602224,7.5342424 5.1261684,5.1202316 8.5062165,5.5085416 12.258711,5.9396393 14.893555,9.5193049 14.45031,13.220503"
       transform="matrix(0.05414267,0.14045781,0.15047329,-0.07996334,12.492966,9.6236723)" /><path
       sodipodi:type="spiral"
       style="fill:#ffffff;fill-opacity:1;fill-rule:evenodd;stroke:#191919;stroke-width:1.165;stroke-dasharray:none;stroke-opacity:1"
       id="path24"
       sodipodi:cx="7.3788824"
       sodipodi:cy="11.990684"
       sodipodi:expansion="1"
       sodipodi:revolution="3"
       sodipodi:radius="7.1775723"
       sodipodi:argument="-18.677364"
       sodipodi:t0="0"
       d="m 7.3788824,11.990684 c 0.3545501,0.06166 0.091804,0.508347 -0.1024849,0.589285 -0.5265123,0.219336 -1.0101602,-0.312416 -1.0760864,-0.794255 -0.1179264,-0.861898 0.6785411,-1.533067 1.4860261,-1.562887 1.1850166,-0.04376 2.0659185,1.047626 2.0496877,2.177796 -0.021633,1.506339 -1.4174993,2.602675 -2.8695671,2.536489 C 5.0391786,14.853823 3.7250753,13.149428 3.8431686,11.375774 3.9861954,9.2276413 6.0011989,7.6945659 8.0962768,7.8656841 10.565254,8.067341 12.31801,10.39416 12.093167,12.810563 11.833578,15.600395 9.1941789,17.573289 6.4565181,17.294254 3.345814,16.977198 1.1524728,14.024706 1.4860261,10.965834 1.8602224,7.5342424 5.1261684,5.1202316 8.5062165,5.5085416 12.258711,5.9396393 14.893555,9.5193049 14.45031,13.220503"
       transform="matrix(-0.05414267,-0.14045781,-0.15047329,0.07996334,10.450385,10.146697)" /><path
       sodipodi:type="spiral"
       style="fill:#ffffff;fill-opacity:1;fill-rule:evenodd;stroke:#191919;stroke-width:1.165;stroke-dasharray:none;stroke-opacity:1"
       id="path14"
       sodipodi:cx="7.3788824"
       sodipodi:cy="11.990684"
       sodipodi:expansion="1"
       sodipodi:revolution="3"
       sodipodi:radius="7.1775723"
       sodipodi:argument="-18.677364"
       sodipodi:t0="0"
       d="m 7.3788824,11.990684 c 0.3545501,0.06166 0.091804,0.508347 -0.1024849,0.589285 -0.5265123,0.219336 -1.0101602,-0.312416 -1.0760864,-0.794255 -0.1179264,-0.861898 0.6785411,-1.533067 1.4860261,-1.562887 1.1850166,-0.04376 2.0659185,1.047626 2.0496877,2.177796 -0.021633,1.506339 -1.4174993,2.602675 -2.8695671,2.536489 C 5.0391786,14.853823 3.7250753,13.149428 3.8431686,11.375774 3.9861954,9.2276413 6.0011989,7.6945659 8.0962768,7.8656841 10.565254,8.067341 12.31801,10.39416 12.093167,12.810563 11.833578,15.600395 9.1941789,17.573289 6.4565181,17.294254 3.345814,16.977198 1.1524728,14.024706 1.4860261,10.965834 1.8602224,7.5342424 5.1261684,5.1202316 8.5062165,5.5085416 12.258711,5.9396393 14.893555,9.5193049 14.45031,13.220503"
       transform="matrix(0.06408496,0.13649545,-0.16506195,0.04578879,10.382582,9.7237818)" /><rect
       style="fill:#989898;fill-opacity:1;stroke:#191919;stroke-width:0.597619;stroke-opacity:1"
       id="rect15"
       width="1.2378575"
       height="3.3985558"
       x="20.439966"
       y="4.8274155"
       ry="1.0021381"
       transform="matrix(0.93210898,0.36217792,-0.38424689,0.92323038,0,0)" /><path
       sodipodi:type="spiral"
       style="fill:#ffffff;fill-opacity:1;fill-rule:evenodd;stroke:#191919;stroke-width:1.165;stroke-dasharray:none;stroke-opacity:1"
       id="path13"
       sodipodi:cx="7.3788824"
       sodipodi:cy="11.990684"
       sodipodi:expansion="1"
       sodipodi:revolution="3"
       sodipodi:radius="7.1775723"
       sodipodi:argument="-18.677364"
       sodipodi:t0="0"
       d="m 7.3788824,11.990684 c 0.3545501,0.06166 0.091804,0.508347 -0.1024849,0.589285 -0.5265123,0.219336 -1.0101602,-0.312416 -1.0760864,-0.794255 -0.1179264,-0.861898 0.6785411,-1.533067 1.4860261,-1.562887 1.1850166,-0.04376 2.0659185,1.047626 2.0496877,2.177796 -0.021633,1.506339 -1.4174993,2.602675 -2.8695671,2.536489 C 5.0391786,14.853823 3.7250753,13.149428 3.8431686,11.375774 3.9861954,9.2276413 6.0011989,7.6945659 8.0962768,7.8656841 10.565254,8.067341 12.31801,10.39416 12.093167,12.810563 11.833578,15.600395 9.1941789,17.573289 6.4565181,17.294254 3.345814,16.977198 1.1524728,14.024706 1.4860261,10.965834 1.8602224,7.5342424 5.1261684,5.1202316 8.5062165,5.5085416 12.258711,5.9396393 14.893555,9.5193049 14.45031,13.220503"
       transform="matrix(0.22264167,0.0022909,-0.00581167,0.21602964,3.9546695,1.5253929)" /><path
       sodipodi:type="spiral"
       style="fill:#ffffff;fill-opacity:1;fill-rule:evenodd;stroke:#191919;stroke-width:1.165;stroke-dasharray:none;stroke-opacity:1"
       id="path15"
       sodipodi:cx="7.3788824"
       sodipodi:cy="11.990684"
       sodipodi:expansion="1"
       sodipodi:revolution="3"
       sodipodi:radius="7.1775723"
       sodipodi:argument="-18.677364"
       sodipodi:t0="0"
       d="m 7.3788824,11.990684 c 0.3545501,0.06166 0.091804,0.508347 -0.1024849,0.589285 -0.5265123,0.219336 -1.0101602,-0.312416 -1.0760864,-0.794255 -0.1179264,-0.861898 0.6785411,-1.533067 1.4860261,-1.562887 1.1850166,-0.04376 2.0659185,1.047626 2.0496877,2.177796 -0.021633,1.506339 -1.4174993,2.602675 -2.8695671,2.536489 C 5.0391786,14.853823 3.7250753,13.149428 3.8431686,11.375774 3.9861954,9.2276413 6.0011989,7.6945659 8.0962768,7.8656841 10.565254,8.067341 12.31801,10.39416 12.093167,12.810563 11.833578,15.600395 9.1941789,17.573289 6.4565181,17.294254 3.345814,16.977198 1.1524728,14.024706 1.4860261,10.965834 1.8602224,7.5342424 5.1261684,5.1202316 8.5062165,5.5085416 12.258711,5.9396393 14.893555,9.5193049 14.45031,13.220503"
       transform="matrix(0.09747646,0.19342157,-0.2025628,0.09161696,9.0370387,-0.0651745)" /><path
       sodipodi:type="spiral"
       style="fill:#ffffff;fill-opacity:1;fill-rule:evenodd;stroke:#191919;stroke-width:1.165;stroke-dasharray:none;stroke-opacity:1"
       id="path16"
       sodipodi:cx="7.3788824"
       sodipodi:cy="11.990684"
       sodipodi:expansion="1"
       sodipodi:revolution="3"
       sodipodi:radius="7.1775723"
       sodipodi:argument="-18.677364"
       sodipodi:t0="0"
       d="m 7.3788824,11.990684 c 0.3545501,0.06166 0.091804,0.508347 -0.1024849,0.589285 -0.5265123,0.219336 -1.0101602,-0.312416 -1.0760864,-0.794255 -0.1179264,-0.861898 0.6785411,-1.533067 1.4860261,-1.562887 1.1850166,-0.04376 2.0659185,1.047626 2.0496877,2.177796 -0.021633,1.506339 -1.4174993,2.602675 -2.8695671,2.536489 C 5.0391786,14.853823 3.7250753,13.149428 3.8431686,11.375774 3.9861954,9.2276413 6.0011989,7.6945659 8.0962768,7.8656841 10.565254,8.067341 12.31801,10.39416 12.093167,12.810563 11.833578,15.600395 9.1941789,17.573289 6.4565181,17.294254 3.345814,16.977198 1.1524728,14.024706 1.4860261,10.965834 1.8602224,7.5342424 5.1261684,5.1202316 8.5062165,5.5085416 12.258711,5.9396393 14.893555,9.5193049 14.45031,13.220503"
       transform="matrix(0.09747646,0.19342157,-0.2025628,0.09161696,10.882499,-0.7709955)" /><path
       sodipodi:type="spiral"
       style="fill:#ffffff;fill-opacity:1;fill-rule:evenodd;stroke:#191919;stroke-width:1.165;stroke-dasharray:none;stroke-opacity:1"
       id="path17"
       sodipodi:cx="7.3788824"
       sodipodi:cy="11.990684"
       sodipodi:expansion="1"
       sodipodi:revolution="3"
       sodipodi:radius="7.1775723"
       sodipodi:argument="-18.677364"
       sodipodi:t0="0"
       d="m 7.3788824,11.990684 c 0.3545501,0.06166 0.091804,0.508347 -0.1024849,0.589285 -0.5265123,0.219336 -1.0101602,-0.312416 -1.0760864,-0.794255 -0.1179264,-0.861898 0.6785411,-1.533067 1.4860261,-1.562887 1.1850166,-0.04376 2.0659185,1.047626 2.0496877,2.177796 -0.021633,1.506339 -1.4174993,2.602675 -2.8695671,2.536489 C 5.0391786,14.853823 3.7250753,13.149428 3.8431686,11.375774 3.9861954,9.2276413 6.0011989,7.6945659 8.0962768,7.8656841 10.565254,8.067341 12.31801,10.39416 12.093167,12.810563 11.833578,15.600395 9.1941789,17.573289 6.4565181,17.294254 3.345814,16.977198 1.1524728,14.024706 1.4860261,10.965834 1.8602224,7.5342424 5.1261684,5.1202316 8.5062165,5.5085416 12.258711,5.9396393 14.893555,9.5193049 14.45031,13.220503"
       transform="matrix(-0.05414267,-0.14045781,-0.15047329,0.07996334,9.1454477,3.8161248)" /><path
       sodipodi:type="spiral"
       style="fill:#ffffff;fill-opacity:1;fill-rule:evenodd;stroke:#191919;stroke-width:1.165;stroke-dasharray:none;stroke-opacity:1"
       id="path18"
       sodipodi:cx="7.3788824"
       sodipodi:cy="11.990684"
       sodipodi:expansion="1"
       sodipodi:revolution="3"
       sodipodi:radius="7.1775723"
       sodipodi:argument="-18.677364"
       sodipodi:t0="0"
       d="m 7.3788824,11.990684 c 0.3545501,0.06166 0.091804,0.508347 -0.1024849,0.589285 -0.5265123,0.219336 -1.0101602,-0.312416 -1.0760864,-0.794255 -0.1179264,-0.861898 0.6785411,-1.533067 1.4860261,-1.562887 1.1850166,-0.04376 2.0659185,1.047626 2.0496877,2.177796 -0.021633,1.506339 -1.4174993,2.602675 -2.8695671,2.536489 C 5.0391786,14.853823 3.7250753,13.149428 3.8431686,11.375774 3.9861954,9.2276413 6.0011989,7.6945659 8.0962768,7.8656841 10.565254,8.067341 12.31801,10.39416 12.093167,12.810563 11.833578,15.600395 9.1941789,17.573289 6.4565181,17.294254 3.345814,16.977198 1.1524728,14.024706 1.4860261,10.965834 1.8602224,7.5342424 5.1261684,5.1202316 8.5062165,5.5085416 12.258711,5.9396393 14.893555,9.5193049 14.45031,13.220503"
       transform="matrix(-0.09747646,0.19342157,0.2025628,0.09161696,10.15354,-1.0310341)"
       inkscape:transform-center-x="1.3115505e-05"
       inkscape:transform-center-y="0.041890312" /><path
       sodipodi:type="spiral"
       style="fill:#ffffff;fill-opacity:1;fill-rule:evenodd;stroke:#191919;stroke-width:1.165;stroke-dasharray:none;stroke-opacity:1"
       id="path19"
       sodipodi:cx="7.3788824"
       sodipodi:cy="11.990684"
       sodipodi:expansion="1"
       sodipodi:revolution="3"
       sodipodi:radius="7.1775723"
       sodipodi:argument="-18.677364"
       sodipodi:t0="0"
       d="m 7.3788824,11.990684 c 0.3545501,0.06166 0.091804,0.508347 -0.1024849,0.589285 -0.5265123,0.219336 -1.0101602,-0.312416 -1.0760864,-0.794255 -0.1179264,-0.861898 0.6785411,-1.533067 1.4860261,-1.562887 1.1850166,-0.04376 2.0659185,1.047626 2.0496877,2.177796 -0.021633,1.506339 -1.4174993,2.602675 -2.8695671,2.536489 C 5.0391786,14.853823 3.7250753,13.149428 3.8431686,11.375774 3.9861954,9.2276413 6.0011989,7.6945659 8.0962768,7.8656841 10.565254,8.067341 12.31801,10.39416 12.093167,12.810563 11.833578,15.600395 9.1941789,17.573289 6.4565181,17.294254 3.345814,16.977198 1.1524728,14.024706 1.4860261,10.965834 1.8602224,7.5342424 5.1261684,5.1202316 8.5062165,5.5085416 12.258711,5.9396393 14.893555,9.5193049 14.45031,13.220503"
       transform="matrix(-0.09747646,0.19342157,0.2025628,0.09161696,12.498811,-0.21376768)"
       inkscape:transform-center-x="1.3115505e-05"
       inkscape:transform-center-y="0.041890302" /><path
       sodipodi:type="spiral"
       style="fill:#ffffff;fill-opacity:1;fill-rule:evenodd;stroke:#191919;stroke-width:1.165;stroke-dasharray:none;stroke-opacity:1"
       id="path20"
       sodipodi:cx="7.3788824"
       sodipodi:cy="11.990684"
       sodipodi:expansion="1"
       sodipodi:revolution="3"
       sodipodi:radius="7.1775723"
       sodipodi:argument="-18.677364"
       sodipodi:t0="0"
       d="m 7.3788824,11.990684 c 0.3545501,0.06166 0.091804,0.508347 -0.1024849,0.589285 -0.5265123,0.219336 -1.0101602,-0.312416 -1.0760864,-0.794255 -0.1179264,-0.861898 0.6785411,-1.533067 1.4860261,-1.562887 1.1850166,-0.04376 2.0659185,1.047626 2.0496877,2.177796 -0.021633,1.506339 -1.4174993,2.602675 -2.8695671,2.536489 C 5.0391786,14.853823 3.7250753,13.149428 3.8431686,11.375774 3.9861954,9.2276413 6.0011989,7.6945659 8.0962768,7.8656841 10.565254,8.067341 12.31801,10.39416 12.093167,12.810563 11.833578,15.600395 9.1941789,17.573289 6.4565181,17.294254 3.345814,16.977198 1.1524728,14.024706 1.4860261,10.965834 1.8602224,7.5342424 5.1261684,5.1202316 8.5062165,5.5085416 12.258711,5.9396393 14.893555,9.5193049 14.45031,13.220503"
       transform="matrix(-0.11009714,0.18699242,-0.1926816,-0.10972596,19.084698,3.796433)"
       inkscape:transform-center-x="-0.09709561"
       inkscape:transform-center-y="-0.005155502" /><path
       sodipodi:type="spiral"
       style="fill:#ffffff;fill-opacity:1;fill-rule:evenodd;stroke:#191919;stroke-width:1.165;stroke-dasharray:none;stroke-opacity:1"
       id="path21"
       sodipodi:cx="7.3788824"
       sodipodi:cy="11.990684"
       sodipodi:expansion="1"
       sodipodi:revolution="3"
       sodipodi:radius="7.1775723"
       sodipodi:argument="-18.677364"
       sodipodi:t0="0"
       d="m 7.3788824,11.990684 c 0.3545501,0.06166 0.091804,0.508347 -0.1024849,0.589285 -0.5265123,0.219336 -1.0101602,-0.312416 -1.0760864,-0.794255 -0.1179264,-0.861898 0.6785411,-1.533067 1.4860261,-1.562887 1.1850166,-0.04376 2.0659185,1.047626 2.0496877,2.177796 -0.021633,1.506339 -1.4174993,2.602675 -2.8695671,2.536489 C 5.0391786,14.853823 3.7250753,13.149428 3.8431686,11.375774 3.9861954,9.2276413 6.0011989,7.6945659 8.0962768,7.8656841 10.565254,8.067341 12.31801,10.39416 12.093167,12.810563 11.833578,15.600395 9.1941789,17.573289 6.4565181,17.294254 3.345814,16.977198 1.1524728,14.024706 1.4860261,10.965834 1.8602224,7.5342424 5.1261684,5.1202316 8.5062165,5.5085416 12.258711,5.9396393 14.893555,9.5193049 14.45031,13.220503"
       transform="matrix(-0.06408496,-0.13649545,0.16506195,-0.04578879,11.204526,3.9760544)" /><path
       sodipodi:type="spiral"
       style="fill:#ffffff;fill-opacity:1;fill-rule:evenodd;stroke:#191919;stroke-width:1.165;stroke-dasharray:none;stroke-opacity:1"
       id="path22"
       sodipodi:cx="7.3788824"
       sodipodi:cy="11.990684"
       sodipodi:expansion="1"
       sodipodi:revolution="3"
       sodipodi:radius="7.1775723"
       sodipodi:argument="-18.677364"
       sodipodi:t0="0"
       d="m 7.3788824,11.990684 c 0.3545501,0.06166 0.091804,0.508347 -0.1024849,0.589285 -0.5265123,0.219336 -1.0101602,-0.312416 -1.0760864,-0.794255 -0.1179264,-0.861898 0.6785411,-1.533067 1.4860261,-1.562887 1.1850166,-0.04376 2.0659185,1.047626 2.0496877,2.177796 -0.021633,1.506339 -1.4174993,2.602675 -2.8695671,2.536489 C 5.0391786,14.853823 3.7250753,13.149428 3.8431686,11.375774 3.9861954,9.2276413 6.0011989,7.6945659 8.0962768,7.8656841 10.565254,8.067341 12.31801,10.39416 12.093167,12.810563 11.833578,15.600395 9.1941789,17.573289 6.4565181,17.294254 3.345814,16.977198 1.1524728,14.024706 1.4860261,10.965834 1.8602224,7.5342424 5.1261684,5.1202316 8.5062165,5.5085416 12.258711,5.9396393 14.893555,9.5193049 14.45031,13.220503"
       transform="matrix(0.05414267,-0.14045781,0.15047329,0.07996334,12.656083,4.224758)" /><path
       sodipodi:type="spiral"
       style="fill:#ffffff;fill-opacity:1;fill-rule:evenodd;stroke:#191919;stroke-width:1.165;stroke-dasharray:none;stroke-opacity:1"
       id="path23"
       sodipodi:cx="7.3788824"
       sodipodi:cy="11.990684"
       sodipodi:expansion="1"
       sodipodi:revolution="3"
       sodipodi:radius="7.1775723"
       sodipodi:argument="-18.677364"
       sodipodi:t0="0"
       d="m 7.3788824,11.990684 c 0.3545501,0.06166 0.091804,0.508347 -0.1024849,0.589285 -0.5265123,0.219336 -1.0101602,-0.312416 -1.0760864,-0.794255 -0.1179264,-0.861898 0.6785411,-1.533067 1.4860261,-1.562887 1.1850166,-0.04376 2.0659185,1.047626 2.0496877,2.177796 -0.021633,1.506339 -1.4174993,2.602675 -2.8695671,2.536489 C 5.0391786,14.853823 3.7250753,13.149428 3.8431686,11.375774 3.9861954,9.2276413 6.0011989,7.6945659 8.0962768,7.8656841 10.565254,8.067341 12.31801,10.39416 12.093167,12.810563 11.833578,15.600395 9.1941789,17.573289 6.4565181,17.294254 3.345814,16.977198 1.1524728,14.024706 1.4860261,10.965834 1.8602224,7.5342424 5.1261684,5.1202316 8.5062165,5.5085416 12.258711,5.9396393 14.893555,9.5193049 14.45031,13.220503"
       transform="matrix(0.06408496,-0.13649545,-0.16506195,-0.04578879,10.545699,4.1246485)" /><path
       sodipodi:type="spiral"
       style="fill:#ffffff;fill-opacity:1;fill-rule:evenodd;stroke:#191919;stroke-width:1.165;stroke-dasharray:none;stroke-opacity:1"
       id="path25"
       sodipodi:cx="7.3788824"
       sodipodi:cy="11.990684"
       sodipodi:expansion="1"
       sodipodi:revolution="3"
       sodipodi:radius="7.1775723"
       sodipodi:argument="-18.677364"
       sodipodi:t0="0"
       d="m 7.3788824,11.990684 c 0.3545501,0.06166 0.091804,0.508347 -0.1024849,0.589285 -0.5265123,0.219336 -1.0101602,-0.312416 -1.0760864,-0.794255 -0.1179264,-0.861898 0.6785411,-1.533067 1.4860261,-1.562887 1.1850166,-0.04376 2.0659185,1.047626 2.0496877,2.177796 -0.021633,1.506339 -1.4174993,2.602675 -2.8695671,2.536489 C 5.0391786,14.853823 3.7250753,13.149428 3.8431686,11.375774 3.9861954,9.2276413 6.0011989,7.6945659 8.0962768,7.8656841 10.565254,8.067341 12.31801,10.39416 12.093167,12.810563 11.833578,15.600395 9.1941789,17.573289 6.4565181,17.294254 3.345814,16.977198 1.1524728,14.024706 1.4860261,10.965834 1.8602224,7.5342424 5.1261684,5.1202316 8.5062165,5.5085416 12.258711,5.9396393 14.893555,9.5193049 14.45031,13.220503"
       transform="matrix(0.13832841,-0.06783201,0.05456461,0.15733103,11.073519,8.5098445)" /><rect
       style="fill:#ffffff;fill-opacity:1;stroke:#191919;stroke-width:0.547744;stroke-dasharray:none;stroke-opacity:1"
       id="rect65"
       width="1.2053711"
       height="13.760765"
       x="-24.807571"
       y="5.1911426"
       transform="matrix(-0.96428212,-0.26487731,-0.24416562,0.96973355,0,0)" /><path
       id="rect66"
       style="fill:#ffffff;fill-opacity:1;stroke:#191919;stroke-width:0.747239;stroke-dasharray:none;stroke-opacity:1"
       d="m 22.811589,1.140611 2.958425,2.0934479 -0.608081,1.8422083 a 1.3229891,1.0976591 2.8942721 0 0 -0.304487,-0.088527 1.3229891,1.0976591 2.8942721 0 0 -1.556776,0.8363235 1.3229891,1.0976591 2.8942721 0 0 1.036687,1.3087811 1.3229891,1.0976591 2.8942721 0 0 0.139542,0.019128 l -1.766904,5.3527892 -1.815489,-0.330883 z" /><rect
       style="fill:#ffffff;fill-opacity:1;stroke:#191919;stroke-width:0.349983;stroke-miterlimit:4;stroke-dasharray:none;stroke-opacity:1"
       id="rect32"
       width="2.6781673"
       height="0.63785583"
       x="-25.591066"
       y="17.665699"
       ry="0.29856217"
       transform="matrix(-0.96428212,-0.26487731,-0.24416562,0.96973355,0,0)" /><rect
       style="fill:#ffffff;fill-opacity:1;stroke:#191919;stroke-width:0.433772;stroke-miterlimit:4;stroke-dasharray:none;stroke-opacity:1"
       id="rect33"
       width="3.2064431"
       height="0.84013402"
       x="-25.739481"
       y="18.283785"
       ry="0.39324284"
       transform="matrix(-0.96428212,-0.26487731,-0.24416562,0.96973355,0,0)" /><path
       id="path68"
       style="fill:#ffffff;fill-opacity:1;stroke:#191919;stroke-width:0.685811;stroke-dasharray:none;stroke-opacity:1"
       d="m 19.477367,13.687543 c -0.495577,0.682298 -0.424092,2.086001 0.825464,2.398283 0.996373,0.24901 1.9585,0.462836 2.434087,-0.419268 0.478853,-0.88818 0.972896,-1.777984 -0.839656,-2.481298 -0.968271,-0.375713 -2.00051,-0.07512 -2.419895,0.502283 z"
       sodipodi:nodetypes="sssss" /><path
       id="path1"
       style="fill:#989898;fill-opacity:1;stroke:none;stroke-width:0.44201;stroke-miterlimit:4;stroke-dasharray:none;stroke-opacity:1"
       d="M 7.5218739,4.540844 C 7.2571747,4.5655798 6.9884246,4.6033849 6.7169492,4.6522348 6.5204326,4.977041 6.3886773,5.5003565 6.3886723,5.8905198 6.3887598,6.983417 7.1941843,7.8690657 8.1877331,7.8690785 8.6316329,7.8690726 9.0376806,7.6926739 9.3514359,7.3995392 A 2.1862148,1.866609 0 0 1 7.1873932,5.5328707 2.1862148,1.866609 0 0 1 7.5218739,4.540844 Z" /><path
       id="path2"
       style="fill:#989898;fill-opacity:1;stroke:none;stroke-width:0.44201;stroke-miterlimit:4;stroke-dasharray:none;stroke-opacity:1"
       d="m 12.289312,4.373676 c -0.264699,0.024736 -0.533449,0.062541 -0.804925,0.1113907 -0.196515,0.3248062 -0.328271,0.8481218 -0.328276,1.2382851 8.7e-5,1.0928971 0.805512,1.9785459 1.799061,1.9785586 0.4439,-5.8e-6 0.849947,-0.1764046 1.163702,-0.4695393 A 2.1862148,1.866609 0 0 1 11.954832,5.3657026 2.1862148,1.866609 0 0 1 12.289312,4.373676 Z" /></g></svg>
