<?xml version="1.0" encoding="UTF-8" standalone="no"?>
<!-- Created with Inkscape (http://www.inkscape.org/) -->

<svg
   width="100mm"
   height="100mm"
   viewBox="0 0 100 100"
   version="1.1"
   id="svg3527"
   inkscape:version="1.4.2 (ebf0e940d0, 2025-05-08)"
   sodipodi:docname="tocha.svg"
   xmlns:inkscape="http://www.inkscape.org/namespaces/inkscape"
   xmlns:sodipodi="http://sodipodi.sourceforge.net/DTD/sodipodi-0.dtd"
   xmlns="http://www.w3.org/2000/svg"
   xmlns:svg="http://www.w3.org/2000/svg">
  <sodipodi:namedview
     id="namedview3529"
     pagecolor="#505050"
     bordercolor="#ffffff"
     borderopacity="1"
     inkscape:pageshadow="0"
     inkscape:pageopacity="0"
     inkscape:pagecheckerboard="1"
     inkscape:document-units="mm"
     showgrid="false"
     width="100mm"
     inkscape:zoom="2.4340424"
     inkscape:cx="175.63375"
     inkscape:cy="200.2841"
     inkscape:window-width="1366"
     inkscape:window-height="697"
     inkscape:window-x="0"
     inkscape:window-y="0"
     inkscape:window-maximized="1"
     inkscape:current-layer="layer1"
     inkscape:snap-global="false"
     inkscape:showpageshadow="0"
     inkscape:deskcolor="#505050" />
  <defs
     id="defs3524">
    <filter
       inkscape:label="Blur Double"
       inkscape:menu="Blurs"
       inkscape:menu-tooltip="Overlays two copies with different blur amounts and modifiable blend and composite"
       style="color-interpolation-filters:sRGB;"
       id="filter6"
       x="-0.71930275"
       y="-0.45810527"
       width="2.4386055"
       height="1.9162105">
      <feGaussianBlur
         stdDeviation="5"
         result="fbSourceGraphic"
         id="feGaussianBlur5" />
      <feGaussianBlur
         stdDeviation="0.01"
         in="SourceGraphic"
         result="result1"
         id="feGaussianBlur6" />
      <feComposite
         in2="result1"
         operator="arithmetic"
         in="fbSourceGraphic"
         k2="0.5"
         k3="0.5"
         result="result2"
         id="feComposite6" />
      <feBlend
         in2="fbSourceGraphic"
         mode="normal"
         result="result3"
         id="feBlend6" />
    </filter>
  </defs>
  <g
     inkscape:label="Camada 1"
     inkscape:groupmode="layer"
     id="layer1">
    <path
       id="rect3"
       style="fill:#463700;fill-opacity:1;stroke:#0f0c00;stroke-width:3.51462;stroke-dasharray:none;stroke-opacity:1"
       d="M 33.456956,22.706123 H 65.406205 L 56.779907,97.778624 39.527313,98.080121 Z"
       sodipodi:nodetypes="ccccc" />
    <path
       id="rect4"
       style="fill:#2b2200;stroke:#0f0c00;stroke-width:1.7585;stroke-dasharray:none;stroke-opacity:1"
       d="M 33.643724,22.730754 64.900559,22.891281 55.332141,35.572913 41.457932,35.412385 Z"
       sodipodi:nodetypes="ccccc" />
    <path
       id="path3"
       style="fill:#ffcc00;stroke:none;stroke-width:0.590117;stroke-opacity:1;filter:url(#filter6)"
       d="m 60.498078,23.243517 c 0,4.716593 -3.742046,8.540147 -8.358095,8.540147 -4.616047,-1e-6 -8.358093,-3.823554 -8.358093,-8.540147 0,-4.716593 3.587265,-17.7070952 8.203314,-17.7070952 4.616049,0 8.512874,12.9905012 8.512874,17.7070952 z"
       sodipodi:nodetypes="sssss"
       transform="matrix(0.9865267,0,0,0.9676355,-2.6069356,-0.00845662)" />
    <path
       style="fill:#806600;fill-opacity:1;stroke:#0f0c00;stroke-width:2.24;stroke-dasharray:none;stroke-opacity:1"
       d="M 41.138983,34.562166 39.70372,98.451906 H 56.448452 L 55.651084,34.722692 Z"
       id="path4" />
    <path
       id="path6"
       style="fill:#ff6600;stroke:none;stroke-width:0.590117;stroke-opacity:1;filter:url(#filter6)"
       d="m 60.498078,23.243517 c 0,4.716593 -3.742046,8.540147 -8.358095,8.540147 -4.616047,-1e-6 -8.358093,-3.823554 -8.358093,-8.540147 0,-4.716593 3.587265,-17.7070952 8.203314,-17.7070952 4.616049,0 8.512874,12.9905012 8.512874,17.7070952 z"
       sodipodi:nodetypes="sssss"
       transform="matrix(0.71267962,0,0,0.69314987,11.511973,8.9661047)" />
    <path
       id="path7"
       style="fill:#ffffff;stroke:none;stroke-width:0.590117;stroke-opacity:1;filter:url(#filter6)"
       d="m 60.498078,23.243517 c 0,4.716593 -3.742046,8.540147 -8.358095,8.540147 -4.616047,-1e-6 -8.358093,-3.823554 -8.358093,-8.540147 0,-4.716593 3.587265,-17.7070952 8.203314,-17.7070952 4.616049,0 8.512874,12.9905012 8.512874,17.7070952 z"
       sodipodi:nodetypes="sssss"
       transform="matrix(0.28626057,0,0,0.25588787,33.825191,22.824139)" />
    <path
       style="fill:none;fill-opacity:1;stroke:#2b2200;stroke-width:0.992;stroke-dasharray:none;stroke-opacity:1"
       d="m 44.168983,37.5795 -0.159475,3.130276 h 9.329207 l -0.239209,7.063187 -8.930523,-0.401316 3.667893,-4.253965 h 3.667894 l -0.07974,1.123688"
       id="path8" />
    <path
       style="fill:none;fill-opacity:1;stroke:#2b2200;stroke-width:0.784598;stroke-dasharray:none;stroke-opacity:1"
       d="m 43.209154,49.776046 h 10.451347 l 0.07977,1.341733 -5.265563,-0.157851 -0.159564,1.973135 5.345345,-0.236776 -0.159562,3.078092 H 43.368713 v -3.867345 h 1.436064 l 0.07977,3.157017 h 7.658999 v -1.104956 l -5.584689,-0.07892 0.159565,-2.92024 -2.154097,-0.07892"
       id="path9" />
    <path
       style="fill:none;fill-opacity:1;stroke:#2b2200;stroke-width:0.59099915;stroke-dasharray:none;stroke-opacity:1"
       d="m 43.052669,58.04669 -0.159476,4.815811 2.551579,-5.056599 h 7.654735 l -0.239211,5.136863 -3.26921,-0.08026 0.159475,-2.407907 2.392102,-0.08026 v -0.561844 l -2.392102,-0.08026 0.07973,-1.364479 h 2.312365"
       id="path10" />
    <path
       style="fill:none;fill-opacity:1;stroke:#2b2200;stroke-width:0.988;stroke-dasharray:none;stroke-opacity:1"
       d="m 42.972932,64.22698 9.967102,5.377654 0.159473,-5.217128 -2.790789,0.160528 -4.066579,4.494755 -2.631314,0.08026 0.159473,-2.889487 h -0.717629"
       id="path11" />
    <path
       style="fill:none;fill-opacity:1;stroke:#2b2200;stroke-width:0.59099915;stroke-dasharray:none;stroke-opacity:1"
       d="m 47.956483,57.926296 -0.398686,6.702002"
       id="path12" />
    <path
       style="fill:none;fill-opacity:1;stroke:#2b2200;stroke-width:0.50099855;stroke-dasharray:none;stroke-opacity:1"
       d="m 45.186693,62.733305 3.944841,0.09786"
       id="path13" />
    <path
       style="fill:none;fill-opacity:1;stroke:#2b2200;stroke-width:0.44706061;stroke-dasharray:none;stroke-opacity:1"
       d="m 45.745649,63.51886 3.345219,0.09189"
       id="path14" />
    <path
       style="fill:none;fill-opacity:1;stroke:#2b2200;stroke-width:0.80341104;stroke-dasharray:none;stroke-opacity:1"
       d="m 41.596496,57.798397 2.639678,0.376108"
       id="path15" />
    <path
       style="fill:none;fill-opacity:1;stroke:#2b2200;stroke-width:0.711358;stroke-dasharray:none;stroke-opacity:1"
       d="m 49.785689,66.703084 2.386672,1.012064"
       id="path16" />
    <path
       style="fill:none;fill-opacity:1;stroke:#2b2200;stroke-width:0.952112;stroke-dasharray:none;stroke-opacity:1"
       d="m 45.435045,38.852768 8.560483,0.0385"
       id="path17" />
    <path
       style="fill:none;fill-opacity:1;stroke:#2b2200;stroke-width:0.953793;stroke-dasharray:none;stroke-opacity:1"
       d="m 42.458415,71.04792 h 11.361683 l 0.08673,1.447231 -5.724206,-0.170264 -0.173461,2.128277 5.810938,-0.255394 -0.173461,3.320111 H 42.631878 V 73.34646 h 1.561148 l 0.08672,3.405243 h 8.326116 v -1.191835 l -6.071129,-0.08512 0.173464,-3.14985 -2.341724,-0.08513"
       id="path18" />
    <path
       style="fill:none;fill-opacity:1;stroke:#2b2200;stroke-width:1.092;stroke-dasharray:none;stroke-opacity:1"
       d="m 46.123923,80.857231 -1.127648,3.348537 1.635091,1.248607 -0.112765,1.418872 -4.510597,0.05676 1.071269,1.702644 3.326563,0.11351 -0.112765,2.497216 -2.931887,5.334957 h 2.368064 l 1.973383,-4.370125 1.691475,-0.11351 0.394678,4.256615 1.917002,-0.113511 -1.240414,-4.824164 v -2.894498 l 3.2138,-0.113507 0.958501,-1.589137 -4.848889,-0.34053 0.112764,-1.532381 1.747854,-1.702647 -2.480826,-4.483634 -1.184032,1.589136 1.635093,1.191851"
       id="path19" />
  </g>
</svg>
