<?xml version="1.0" encoding="UTF-8" standalone="no"?>
<!-- Created with Inkscape (http://www.inkscape.org/) -->

<svg
   width="377.95276"
   height="377.95276"
   viewBox="0 0 100 100"
   version="1.1"
   id="svg1"
   inkscape:version="1.4.2 (ebf0e940d0, 2025-05-08)"
   sodipodi:docname="troca-fichas.svg"
   xml:space="preserve"
   xmlns:inkscape="http://www.inkscape.org/namespaces/inkscape"
   xmlns:sodipodi="http://sodipodi.sourceforge.net/DTD/sodipodi-0.dtd"
   xmlns="http://www.w3.org/2000/svg"
   xmlns:svg="http://www.w3.org/2000/svg"><sodipodi:namedview
     id="namedview1"
     pagecolor="#505050"
     bordercolor="#eeeeee"
     borderopacity="1"
     inkscape:showpageshadow="0"
     inkscape:pageopacity="0"
     inkscape:pagecheckerboard="0"
     inkscape:deskcolor="#505050"
     inkscape:document-units="px"
     inkscape:zoom="1.2472578"
     inkscape:cx="230.50567"
     inkscape:cy="232.91095"
     inkscape:window-width="1366"
     inkscape:window-height="697"
     inkscape:window-x="0"
     inkscape:window-y="0"
     inkscape:window-maximized="1"
     inkscape:current-layer="layer1"
     showguides="false" /><defs
     id="defs1"><linearGradient
       id="linearGradient13895"
       inkscape:swatch="solid"><stop
         style="stop-color:#000000;stop-opacity:1;"
         offset="0"
         id="stop13893" /></linearGradient><filter
       style="color-interpolation-filters:sRGB;"
       inkscape:label="Clean Edges"
       id="filter14269"
       x="-0.31154084"
       y="-0.29580634"
       width="1.6230817"
       height="1.5916127"><feGaussianBlur
         stdDeviation="0.204612"
         result="blur"
         id="feGaussianBlur14263" /><feComposite
         in="SourceGraphic"
         in2="blur"
         operator="in"
         result="composite1"
         id="feComposite14265" /><feComposite
         in="composite1"
         in2="composite1"
         operator="in"
         result="composite2"
         id="feComposite14267" /></filter><filter
       style="color-interpolation-filters:sRGB;"
       inkscape:label="Clean Edges"
       id="filter14269-6"
       x="-0.31154084"
       y="-0.29580634"
       width="1.6230817"
       height="1.5916127"><feGaussianBlur
         stdDeviation="0.204612"
         result="blur"
         id="feGaussianBlur14263-7" /><feComposite
         in="SourceGraphic"
         in2="blur"
         operator="in"
         result="composite1"
         id="feComposite14265-5" /><feComposite
         in="composite1"
         in2="composite1"
         operator="in"
         result="composite2"
         id="feComposite14267-3" /></filter><filter
       style="color-interpolation-filters:sRGB;"
       inkscape:label="Clean Edges"
       id="filter14269-3"
       x="-0.31154084"
       y="-0.29580634"
       width="1.6230817"
       height="1.5916127"><feGaussianBlur
         stdDeviation="0.204612"
         result="blur"
         id="feGaussianBlur14263-5" /><feComposite
         in="SourceGraphic"
         in2="blur"
         operator="in"
         result="composite1"
         id="feComposite14265-6" /><feComposite
         in="composite1"
         in2="composite1"
         operator="in"
         result="composite2"
         id="feComposite14267-2" /></filter></defs><g
     inkscape:label="Camada 1"
     inkscape:groupmode="layer"
     id="layer1"><ellipse
       style="fill:#000000;fill-opacity:0.468946;stroke:none;stroke-width:3.29425;stroke-linecap:round;stroke-dasharray:none;stroke-opacity:1"
       id="path33"
       cx="52.39661"
       cy="92.701698"
       rx="46.244781"
       ry="3.1819804" /><rect
       style="fill:#ffffff;fill-opacity:1;stroke:#1d1d1d;stroke-width:2.23088;stroke-linecap:round;stroke-linejoin:round;stroke-dasharray:none;stroke-opacity:1"
       id="rect32"
       width="12.132607"
       height="19.912844"
       x="50.120552"
       y="33.873322"
       transform="matrix(0.97764631,0.21025624,-0.21343465,0.97695734,0,0)"
       ry="4.6529703" /><path
       id="path1"
       style="fill:#0053ce;fill-opacity:1;stroke:#110077;stroke-width:3.74062;stroke-miterlimit:4;stroke-dasharray:none;stroke-opacity:1"
       d="m 79.924894,44.446924 c 1.362384,0.325849 2.461985,1.124595 2.775095,2.147617 l 4.312902,14.091995 c 0.09065,0.578498 0.222414,1.119838 0.317329,1.698039 l -0.235163,14.335267 c -0.02502,1.513395 -1.818193,2.466873 -4.019143,2.139583 L 81.410349,78.614158 C 79.20939,78.286893 77.458322,76.80274 77.483182,75.289339 l 0.216626,-13.182613 c -0.07526,-0.136237 -0.136266,-0.276271 -0.180983,-0.422413 L 73.20357,47.589155 c -0.455432,-1.488022 0.930144,-2.869212 3.104298,-3.097158 l 1.645778,-0.173421 c 0.679434,-0.07123 1.351969,-0.01934 1.971248,0.128434 z"
       sodipodi:nodetypes="ccccccccccccccc" /><rect
       style="fill:#ffffff;fill-opacity:1;stroke:#1d1d1d;stroke-width:2.23088;stroke-linecap:round;stroke-linejoin:round;stroke-dasharray:none;stroke-opacity:1"
       id="rect2-2"
       width="12.132607"
       height="19.912844"
       x="-73.673683"
       y="58.160736"
       transform="matrix(-0.97764631,0.21025624,0.21343465,0.97695734,0,0)"
       ry="4.6529703" /><rect
       style="fill:#0053ce;fill-opacity:1;stroke:#110077;stroke-width:1.90834;stroke-opacity:1"
       id="rect46"
       width="10.457855"
       height="22.634752"
       x="49.660908"
       y="69.030632"
       ry="3.9828296" /><rect
       style="fill:#0053ce;fill-opacity:1;stroke:#110077;stroke-width:1.93925;stroke-opacity:1"
       id="rect47"
       width="10.927482"
       height="22.369429"
       x="62.865032"
       y="69.107521"
       ry="3.9361434" /><path
       id="path47"
       style="fill:#002766;stroke-width:1.56731"
       d="m 53.501284,72.151316 h 2.581383 c 1.73694,0 3.135285,1.416876 3.135285,3.176854 v 11.700612 c 0,1.759978 -1.248864,1.917637 -2.949983,2.273258 l -2.97515,0.621955 C 51.591701,90.279613 50.36601,88.78876 50.36601,87.028782 V 75.32817 c 0,-1.759978 1.398334,-3.176854 3.135274,-3.176854 z"
       sodipodi:nodetypes="sssssssss" /><path
       id="path4"
       style="fill:#0053ce;fill-opacity:1;stroke:#110077;stroke-width:3.05997;stroke-miterlimit:4;stroke-dasharray:none;stroke-opacity:1"
       d="m 43.822251,58.832049 c -1.431278,0.207557 -2.586484,0.716341 -2.915427,1.367983 l -4.531,8.976283 c -0.09523,0.368491 -0.233661,0.713312 -0.333376,1.081613 l 0.247055,9.131242 c 0.02629,0.963999 1.910136,1.571343 4.222385,1.362867 l 1.749791,-0.15623 c 2.312259,-0.20846 4.151875,-1.153832 4.125758,-2.117835 l -0.227581,-8.397028 c 0.07907,-0.08678 0.143157,-0.175978 0.190135,-0.269067 l 4.533471,-8.978298 c 0.478463,-0.947837 -0.97718,-1.827624 -3.261277,-1.972821 l -1.729003,-0.110464 c -0.713792,-0.04537 -1.420336,-0.01232 -2.070931,0.08181 z"
       sodipodi:nodetypes="ccccccccccccccc" /><path
       id="path48"
       style="fill:#002766;stroke-width:1.58834"
       d="m 66.977699,72.432956 h 2.651109 c 1.783871,0 3.219983,1.416876 3.219983,3.176854 v 11.700612 c 0,1.759978 -1.28259,1.917637 -3.029667,2.273258 l -3.05553,0.621955 C 65.016518,90.561256 63.757716,89.0704 63.757716,87.310422 V 75.60981 c 0,-1.759978 1.436112,-3.176854 3.219983,-3.176854 z"
       sodipodi:nodetypes="sssssssss" /><path
       id="path8"
       style="fill:#000000;fill-opacity:1;stroke:#1d1d1d;stroke-width:2.50266;stroke-miterlimit:4;stroke-dasharray:none;stroke-opacity:1"
       d="m 48.760938,62.851205 -0.706817,19.68134 5.813885,2.541316 6.32717,2.315414 5.503219,-0.18844 6.104964,-1.681167 3.617264,-1.144509 -0.182343,-21.523957 z"
       sodipodi:nodetypes="ccccccccc" /><path
       id="rect9738"
       style="fill:#ffffff;fill-opacity:1;stroke:#1d1d1d;stroke-width:2.28329;stroke-miterlimit:4;stroke-dasharray:none;stroke-opacity:1"
       d="m 49.276456,44.895231 -1.08593,22.481243 c 12.145007,8.37721 20.280412,4.948853 27.899415,0 L 75.084043,44.895231 Z"
       sodipodi:nodetypes="ccccc" /><ellipse
       style="fill:#0053ce;fill-opacity:1;stroke:#110077;stroke-width:1.77495;stroke-miterlimit:4;stroke-dasharray:none;stroke-opacity:1"
       id="path11105"
       cx="62.095455"
       cy="45.446461"
       rx="8.4012785"
       ry="7.2671909" /><ellipse
       style="fill:#002766;fill-opacity:1;stroke:none;stroke-width:0.887124;stroke-miterlimit:4;stroke-dasharray:none;stroke-opacity:1"
       id="ellipse49"
       cx="62.005119"
       cy="44.859711"
       rx="7.5679021"
       ry="5.4600015" /><ellipse
       style="fill:#0047b0;fill-opacity:1;stroke:#110077;stroke-width:3.10353;stroke-miterlimit:4;stroke-dasharray:none;stroke-opacity:1"
       id="ellipse3"
       cx="61.628128"
       cy="25.113916"
       rx="21.087803"
       ry="20.566761" /><ellipse
       style="fill:#005ade;fill-opacity:1;stroke:none;stroke-width:1.09312;stroke-miterlimit:4;stroke-dasharray:none;stroke-opacity:1"
       id="ellipse4"
       cx="62.580647"
       cy="23.949923"
       rx="18.905865"
       ry="17.659626" /><path
       id="path12"
       style="fill:#ffffff;fill-opacity:1;stroke:#110077;stroke-width:1.93866;stroke-miterlimit:4;stroke-dasharray:none;stroke-opacity:1"
       d="m 47.458501,19.265129 c -0.835945,1.468902 -1.398225,3.835033 -1.398245,5.599506 3.77e-4,4.942517 3.426581,8.949004 7.652918,8.949063 4.226347,-5.9e-5 7.652551,-4.006546 7.652929,-8.949063 -2e-5,-1.764472 -0.44603,-3.933363 -1.281975,-5.402266 -4.159976,-3.279475 -8.447462,-3.2667 -12.625627,-0.19724 z"
       sodipodi:nodetypes="cccccc" /><ellipse
       style="fill:#080039;fill-opacity:1;stroke:none;stroke-width:5.03323"
       id="ellipse31"
       cx="53.433113"
       cy="25.505564"
       rx="5.284162"
       ry="5.4920702" /><ellipse
       style="fill:#ffffff;fill-opacity:1;stroke:none;stroke-width:2.12164"
       id="ellipse36"
       cx="50.657089"
       cy="23.236938"
       rx="2.0444314"
       ry="2.5221975" /><path
       id="path43"
       style="fill:#002766;fill-opacity:1;stroke:none;stroke-width:5.03323"
       d="m 56.584187,21.080001 a 5.2841609,5.4920702 0 0 1 2.153125,4.425599 5.2841609,5.4920702 0 0 1 -5.284508,5.491798 5.2841609,5.4920702 0 0 1 -4.453715,-2.538101 5.2841609,5.4920702 0 0 0 3.12891,1.0662 5.2841609,5.4920702 0 0 0 5.284497,-5.491799 5.2841609,5.4920702 0 0 0 -0.828309,-2.953697 z" /><path
       style="fill:none;stroke:#110077;stroke-width:2.79317;stroke-linecap:round;stroke-dasharray:none;stroke-opacity:1"
       d="m 64.830074,25.03966 c 3.747946,-3.716815 9.863176,-2.442473 13.177158,0.143797"
       id="path3"
       sodipodi:nodetypes="cc" /><rect
       style="fill:#ffffff;fill-opacity:1;stroke:#512800;stroke-width:2.25451;stroke-linecap:round;stroke-dasharray:none;stroke-opacity:1"
       id="rect21"
       width="22.910259"
       height="28.425694"
       x="3.3941121"
       y="8.061017"
       ry="0.48236156" /><path
       id="path2"
       style="fill:#f57c00;stroke:#914700;stroke-width:3.52162;stroke-linecap:round;fill-opacity:1;stroke-opacity:1"
       d="M 80.220032,68.465929 67.848411,67.617401 73.151712,98.232379 88.068917,98.020247 Z"
       sodipodi:nodetypes="ccccc" /><path
       id="rect2"
       style="fill:#f57c00;stroke:#914700;stroke-width:3.52162;stroke-linecap:round;fill-opacity:1;stroke-opacity:1"
       d="M 20.386584,68.465929 32.758205,67.617401 27.454904,98.232379 12.537699,98.020247 Z"
       sodipodi:nodetypes="ccccc" /><rect
       style="fill:#ffffff;fill-opacity:1;stroke:#512800;stroke-width:1.10749;stroke-linecap:round;stroke-dasharray:none;stroke-opacity:1"
       id="rect6"
       width="8.428874"
       height="4.7731776"
       x="76.148926"
       y="52.226288"
       ry="2.3865888" /><rect
       style="fill:#ffffff;fill-opacity:1;stroke:#512800;stroke-width:1.10749;stroke-linecap:round;stroke-dasharray:none;stroke-opacity:1"
       id="rect15"
       width="8.428874"
       height="4.7731776"
       x="64.574188"
       y="53.279713"
       ry="2.3865888" /><rect
       style="fill:#f57c00;fill-opacity:1;stroke:#512800;stroke-width:2.07158;stroke-linecap:round;stroke-dasharray:none;stroke-opacity:1"
       id="rect3"
       width="16.873543"
       height="8.3423872"
       x="16.289202"
       y="48.882267"
       ry="4.1711936" /><path
       id="rect1"
       style="fill:#f57c00;stroke:#914700;stroke-width:5.32231;stroke-linecap:round;stroke-opacity:1"
       d="m 7.5493918,58.664302 83.8152532,0.152791 4.197629,20.765563 H 3.6515936 Z"
       sodipodi:nodetypes="ccccc" /><rect
       style="fill:#f57c00;fill-opacity:1;stroke:#512800;stroke-width:2.07157;stroke-linecap:round;stroke-dasharray:none;stroke-opacity:1"
       id="rect4"
       width="16.873543"
       height="8.3423872"
       x="16.199419"
       y="41.81863"
       ry="4.1711936" /><rect
       style="fill:#f57c00;fill-opacity:1;stroke:#512800;stroke-width:2.07157;stroke-linecap:round;stroke-dasharray:none;stroke-opacity:1"
       id="rect5"
       width="16.873543"
       height="8.3423872"
       x="15.578736"
       y="35.182812"
       ry="4.1711936" /><rect
       style="fill:#ffffff;fill-opacity:1;stroke:#512800;stroke-width:1.10749;stroke-linecap:round;stroke-dasharray:none;stroke-opacity:1"
       id="rect7"
       width="8.428874"
       height="4.7731776"
       x="76.104073"
       y="49.772263"
       ry="2.3865888" /><rect
       style="fill:#ffffff;fill-opacity:1;stroke:#512800;stroke-width:1.10749;stroke-linecap:round;stroke-dasharray:none;stroke-opacity:1"
       id="rect8"
       width="8.428874"
       height="4.7731776"
       x="75.794022"
       y="47.563015"
       ry="2.3865888" /><rect
       style="fill:#ffffff;fill-opacity:1;stroke:#512800;stroke-width:1.10749;stroke-linecap:round;stroke-dasharray:none;stroke-opacity:1"
       id="rect9"
       width="8.428874"
       height="4.7731776"
       x="75.619759"
       y="45.109398"
       ry="2.3865888" /><rect
       style="fill:#ffffff;fill-opacity:1;stroke:#512800;stroke-width:1.10749;stroke-linecap:round;stroke-dasharray:none;stroke-opacity:1"
       id="rect10"
       width="8.428874"
       height="4.7731776"
       x="75.574905"
       y="42.655373"
       ry="2.3865888" /><rect
       style="fill:#ffffff;fill-opacity:1;stroke:#512800;stroke-width:1.10749;stroke-linecap:round;stroke-dasharray:none;stroke-opacity:1"
       id="rect11"
       width="8.428874"
       height="4.7731776"
       x="75.264854"
       y="40.446125"
       ry="2.3865888" /><rect
       style="fill:#ffffff;fill-opacity:1;stroke:#512800;stroke-width:1.10749;stroke-linecap:round;stroke-dasharray:none;stroke-opacity:1"
       id="rect12"
       width="8.428874"
       height="4.7731776"
       x="75.619759"
       y="38.311871"
       ry="2.3865888" /><rect
       style="fill:#ffffff;fill-opacity:1;stroke:#512800;stroke-width:1.10749;stroke-linecap:round;stroke-dasharray:none;stroke-opacity:1"
       id="rect13"
       width="8.428874"
       height="4.7731776"
       x="75.574905"
       y="35.857845"
       ry="2.3865888" /><rect
       style="fill:#ffffff;fill-opacity:1;stroke:#512800;stroke-width:1.10749;stroke-linecap:round;stroke-dasharray:none;stroke-opacity:1"
       id="rect14"
       width="8.428874"
       height="4.7731776"
       x="75.794022"
       y="33.119431"
       ry="2.3865888" /><rect
       style="fill:#ffffff;fill-opacity:1;stroke:#512800;stroke-width:1.10749;stroke-linecap:round;stroke-dasharray:none;stroke-opacity:1"
       id="rect16"
       width="8.428874"
       height="4.7731776"
       x="64.529335"
       y="50.825687"
       ry="2.3865888" /><rect
       style="fill:#ffffff;fill-opacity:1;stroke:#512800;stroke-width:1.10749;stroke-linecap:round;stroke-dasharray:none;stroke-opacity:1"
       id="rect17"
       width="8.428874"
       height="4.7731776"
       x="64.748451"
       y="48.61644"
       ry="2.3865888" /><rect
       style="fill:#ffffff;fill-opacity:1;stroke:#512800;stroke-width:1.10749;stroke-linecap:round;stroke-dasharray:none;stroke-opacity:1"
       id="rect18"
       width="8.428874"
       height="4.7731776"
       x="64.783989"
       y="46.482185"
       ry="2.3865888" /><rect
       style="fill:#ffffff;fill-opacity:1;stroke:#512800;stroke-width:1.10749;stroke-linecap:round;stroke-dasharray:none;stroke-opacity:1"
       id="rect19"
       width="8.428874"
       height="4.7731776"
       x="64.739136"
       y="44.02816"
       ry="2.3865888" /><rect
       style="fill:#ffffff;fill-opacity:1;stroke:#512800;stroke-width:1.10749;stroke-linecap:round;stroke-dasharray:none;stroke-opacity:1"
       id="rect20"
       width="8.428874"
       height="4.7731776"
       x="64.579086"
       y="41.889748"
       ry="2.3865888" /><circle
       style="fill:#ffffff;fill-opacity:1;stroke:#512800;stroke-width:2.25451;stroke-linecap:round;stroke-dasharray:none;stroke-opacity:1"
       id="path21"
       cx="7.4511375"
       cy="12.171075"
       r="0.82201159" /><circle
       style="fill:#ffffff;fill-opacity:1;stroke:#512800;stroke-width:2.25451;stroke-linecap:round;stroke-dasharray:none;stroke-opacity:1"
       id="circle21"
       cx="22.459478"
       cy="12.171075"
       r="0.82201159" /><rect
       style="fill:#f57c00;fill-opacity:1;stroke:#512800;stroke-width:0.693485;stroke-linecap:round;stroke-dasharray:none;stroke-opacity:1"
       id="rect22"
       width="4.4635677"
       height="3.5341749"
       x="6.3396926"
       y="18.14377"
       ry="1.7670875" /><rect
       style="fill:#ffffff;fill-opacity:1;stroke:#512800;stroke-width:0.663301;stroke-linecap:round;stroke-dasharray:none;stroke-opacity:1"
       id="rect23"
       width="4.223063"
       height="3.4173665"
       x="19.356987"
       y="17.959316"
       ry="1.7086833" /><rect
       style="fill:#ffffff;fill-opacity:1;stroke:#512800;stroke-width:0.663301;stroke-linecap:round;stroke-dasharray:none;stroke-opacity:1"
       id="rect24"
       width="4.223063"
       height="3.4173665"
       x="6.1569872"
       y="26.959316"
       ry="1.7086833" /><rect
       style="fill:#f57c00;fill-opacity:1;stroke:#512800;stroke-width:0.693485;stroke-linecap:round;stroke-dasharray:none;stroke-opacity:1"
       id="rect25"
       width="4.4635677"
       height="3.5341749"
       x="19.089693"
       y="27.14377"
       ry="1.7670875" /><rect
       style="fill:none;fill-opacity:1;stroke:#512800;stroke-width:1.19618;stroke-linecap:round;stroke-dasharray:none;stroke-opacity:1"
       id="rect26"
       width="2.9168153"
       height="0.37123105"
       x="13.152185"
       y="19.648729"
       ry="0.18561552" /><rect
       style="fill:none;fill-opacity:1;stroke:#512800;stroke-width:1.19618;stroke-linecap:round;stroke-dasharray:none;stroke-opacity:1"
       id="rect27"
       width="2.9168153"
       height="0.37123105"
       x="13.072636"
       y="28.929506"
       ry="0.18561552" /><rect
       style="fill:none;fill-opacity:1;stroke:#512800;stroke-width:1.19618;stroke-linecap:round;stroke-dasharray:none;stroke-opacity:1"
       id="rect28"
       width="2.9168153"
       height="0.37123105"
       x="19.887377"
       y="22.830709"
       ry="0.18561552" /><rect
       style="fill:none;fill-opacity:1;stroke:#512800;stroke-width:1.19618;stroke-linecap:round;stroke-dasharray:none;stroke-opacity:1"
       id="rect29"
       width="2.9168153"
       height="0.37123105"
       x="7.0799055"
       y="23.44059"
       ry="0.18561552" /><rect
       style="fill:none;fill-opacity:1;stroke:#914700;stroke-width:1.19618;stroke-linecap:round;stroke-dasharray:none;stroke-opacity:1"
       id="rect30"
       width="2.9168153"
       height="0.37123105"
       x="20.092405"
       y="32.028091"
       ry="0.18561552" /><rect
       style="fill:none;fill-opacity:1;stroke:#512800;stroke-width:1.19618;stroke-linecap:round;stroke-dasharray:none;stroke-opacity:1"
       id="rect31"
       width="2.9168153"
       height="0.37123105"
       x="6.8549056"
       y="31.840591"
       ry="0.18561552" /><path
       style="fill:none;stroke:#110077;stroke-width:2.79317;stroke-linecap:round;stroke-dasharray:none;stroke-opacity:1"
       d="m 57.855074,37.113341 c 3.747946,3.716815 9.863176,2.442473 13.177158,-0.143797"
       id="path32"
       sodipodi:nodetypes="cc" /></g></svg>
