<?xml version="1.0" encoding="UTF-8" standalone="no"?>
<!-- Created with Inkscape (http://www.inkscape.org/) -->

<svg
   width="377.95276"
   height="377.95276"
   viewBox="0 0 100 100"
   version="1.1"
   id="svg1"
   inkscape:version="1.4.2 (ebf0e940d0, 2025-05-08)"
   sodipodi:docname="tronco.svg"
   xml:space="preserve"
   xmlns:inkscape="http://www.inkscape.org/namespaces/inkscape"
   xmlns:sodipodi="http://sodipodi.sourceforge.net/DTD/sodipodi-0.dtd"
   xmlns="http://www.w3.org/2000/svg"
   xmlns:svg="http://www.w3.org/2000/svg"><sodipodi:namedview
     id="namedview1"
     pagecolor="#505050"
     bordercolor="#eeeeee"
     borderopacity="1"
     inkscape:showpageshadow="0"
     inkscape:pageopacity="0"
     inkscape:pagecheckerboard="0"
     inkscape:deskcolor="#505050"
     inkscape:document-units="px"
     inkscape:zoom="0.88194445"
     inkscape:cx="180.85039"
     inkscape:cy="284.03149"
     inkscape:window-width="1366"
     inkscape:window-height="697"
     inkscape:window-x="0"
     inkscape:window-y="0"
     inkscape:window-maximized="1"
     inkscape:current-layer="layer1" /><defs
     id="defs1"><linearGradient
       id="linearGradient13895"
       inkscape:swatch="solid"><stop
         style="stop-color:#000000;stop-opacity:1;"
         offset="0"
         id="stop13893" /></linearGradient><filter
       style="color-interpolation-filters:sRGB;"
       inkscape:label="Clean Edges"
       id="filter14269"
       x="-0.31154084"
       y="-0.29580634"
       width="1.6230817"
       height="1.5916127"><feGaussianBlur
         stdDeviation="0.204612"
         result="blur"
         id="feGaussianBlur14263" /><feComposite
         in="SourceGraphic"
         in2="blur"
         operator="in"
         result="composite1"
         id="feComposite14265" /><feComposite
         in="composite1"
         in2="composite1"
         operator="in"
         result="composite2"
         id="feComposite14267" /></filter><inkscape:path-effect
       effect="fillet_chamfer"
       id="path-effect68"
       is_visible="true"
       lpeversion="1"
       nodesatellites_param="F,0,0,1,0,0,0,1 @ F,0,0,1,0,0,0,1 @ F,0,0,1,0,0,0,1 @ F,0,0,1,0,0,0,1 @ F,0,0,1,0,0,0,1 @ F,0,0,1,0,0,0,1 @ F,0,0,1,0,0,0,1 @ F,0,0,1,0,0,0,1 @ F,0,0,1,0,0,0,1"
       radius="0"
       unit="px"
       method="auto"
       mode="F"
       chamfer_steps="1"
       flexible="false"
       use_knot_distance="true"
       apply_no_radius="true"
       apply_with_radius="true"
       only_selected="false"
       hide_knots="false" /><inkscape:path-effect
       effect="fillet_chamfer"
       id="path-effect66"
       is_visible="true"
       lpeversion="1"
       nodesatellites_param="F,0,0,1,0,0,0,1 @ F,0,0,1,0,0.44929322,0,1 @ F,0,0,1,0,0.44929322,0,1 @ F,0,0,1,0,0,0,1 @ F,0,0,1,0,0,0,1 @ F,0,0,1,0,0,0,1 @ F,0,0,1,0,0,0,1 @ F,0,0,1,0,0,0,1 @ F,0,0,1,0,0,0,1 @ F,0,0,1,0,0,0,1"
       radius="0"
       unit="px"
       method="auto"
       mode="F"
       chamfer_steps="1"
       flexible="false"
       use_knot_distance="true"
       apply_no_radius="true"
       apply_with_radius="true"
       only_selected="false"
       hide_knots="false" /><inkscape:path-effect
       effect="fillet_chamfer"
       id="path-effect68-6"
       is_visible="true"
       lpeversion="1"
       nodesatellites_param="F,0,0,1,0,0,0,1 @ F,0,0,1,0,0,0,1 @ F,0,0,1,0,0,0,1 @ F,0,0,1,0,0,0,1 @ F,0,0,1,0,0,0,1 @ F,0,0,1,0,0,0,1 @ F,0,0,1,0,0,0,1 @ F,0,0,1,0,0,0,1 @ F,0,0,1,0,0,0,1"
       radius="0"
       unit="px"
       method="auto"
       mode="F"
       chamfer_steps="1"
       flexible="false"
       use_knot_distance="true"
       apply_no_radius="true"
       apply_with_radius="true"
       only_selected="false"
       hide_knots="false" /><inkscape:path-effect
       effect="fillet_chamfer"
       id="path-effect66-7"
       is_visible="true"
       lpeversion="1"
       nodesatellites_param="F,0,0,1,0,0,0,1 @ F,0,0,1,0,0.44929322,0,1 @ F,0,0,1,0,0.44929322,0,1 @ F,0,0,1,0,0,0,1 @ F,0,0,1,0,0,0,1 @ F,0,0,1,0,0,0,1 @ F,0,0,1,0,0,0,1 @ F,0,0,1,0,0,0,1 @ F,0,0,1,0,0,0,1 @ F,0,0,1,0,0,0,1"
       radius="0"
       unit="px"
       method="auto"
       mode="F"
       chamfer_steps="1"
       flexible="false"
       use_knot_distance="true"
       apply_no_radius="true"
       apply_with_radius="true"
       only_selected="false"
       hide_knots="false" /><inkscape:path-effect
       effect="fillet_chamfer"
       id="path-effect68-7"
       is_visible="true"
       lpeversion="1"
       nodesatellites_param="F,0,0,1,0,0,0,1 @ F,0,0,1,0,0,0,1 @ F,0,0,1,0,0,0,1 @ F,0,0,1,0,0,0,1 @ F,0,0,1,0,0,0,1 @ F,0,0,1,0,0,0,1 @ F,0,0,1,0,0,0,1 @ F,0,0,1,0,0,0,1 @ F,0,0,1,0,0,0,1"
       radius="0"
       unit="px"
       method="auto"
       mode="F"
       chamfer_steps="1"
       flexible="false"
       use_knot_distance="true"
       apply_no_radius="true"
       apply_with_radius="true"
       only_selected="false"
       hide_knots="false" /><inkscape:path-effect
       effect="fillet_chamfer"
       id="path-effect66-5"
       is_visible="true"
       lpeversion="1"
       nodesatellites_param="F,0,0,1,0,0,0,1 @ F,0,0,1,0,0.44929322,0,1 @ F,0,0,1,0,0.44929322,0,1 @ F,0,0,1,0,0,0,1 @ F,0,0,1,0,0,0,1 @ F,0,0,1,0,0,0,1 @ F,0,0,1,0,0,0,1 @ F,0,0,1,0,0,0,1 @ F,0,0,1,0,0,0,1 @ F,0,0,1,0,0,0,1"
       radius="0"
       unit="px"
       method="auto"
       mode="F"
       chamfer_steps="1"
       flexible="false"
       use_knot_distance="true"
       apply_no_radius="true"
       apply_with_radius="true"
       only_selected="false"
       hide_knots="false" /><inkscape:path-effect
       effect="fillet_chamfer"
       id="path-effect68-3"
       is_visible="true"
       lpeversion="1"
       nodesatellites_param="F,0,0,1,0,0,0,1 @ F,0,0,1,0,0,0,1 @ F,0,0,1,0,0,0,1 @ F,0,0,1,0,0,0,1 @ F,0,0,1,0,0,0,1 @ F,0,0,1,0,0,0,1 @ F,0,0,1,0,0,0,1 @ F,0,0,1,0,0,0,1 @ F,0,0,1,0,0,0,1"
       radius="0"
       unit="px"
       method="auto"
       mode="F"
       chamfer_steps="1"
       flexible="false"
       use_knot_distance="true"
       apply_no_radius="true"
       apply_with_radius="true"
       only_selected="false"
       hide_knots="false" /><inkscape:path-effect
       effect="fillet_chamfer"
       id="path-effect66-6"
       is_visible="true"
       lpeversion="1"
       nodesatellites_param="F,0,0,1,0,0,0,1 @ F,0,0,1,0,0.44929322,0,1 @ F,0,0,1,0,0.44929322,0,1 @ F,0,0,1,0,0,0,1 @ F,0,0,1,0,0,0,1 @ F,0,0,1,0,0,0,1 @ F,0,0,1,0,0,0,1 @ F,0,0,1,0,0,0,1 @ F,0,0,1,0,0,0,1 @ F,0,0,1,0,0,0,1"
       radius="0"
       unit="px"
       method="auto"
       mode="F"
       chamfer_steps="1"
       flexible="false"
       use_knot_distance="true"
       apply_no_radius="true"
       apply_with_radius="true"
       only_selected="false"
       hide_knots="false" /><filter
       style="color-interpolation-filters:sRGB;"
       inkscape:label="Clean Edges"
       id="filter14269-5"
       x="-0.31154084"
       y="-0.29580634"
       width="1.6230817"
       height="1.5916127"><feGaussianBlur
         stdDeviation="0.204612"
         result="blur"
         id="feGaussianBlur14263-6" /><feComposite
         in="SourceGraphic"
         in2="blur"
         operator="in"
         result="composite1"
         id="feComposite14265-2" /><feComposite
         in="composite1"
         in2="composite1"
         operator="in"
         result="composite2"
         id="feComposite14267-9" /></filter></defs><g
     inkscape:label="Camada 1"
     inkscape:groupmode="layer"
     id="layer1"><path
       id="path4"
       style="fill:#5e251a;fill-opacity:1;stroke:#1b0907;stroke-width:1.72265;stroke-dasharray:none;stroke-opacity:1"
       d="m 64.546948,9.4909987 16.391105,10.4169553 -4.54894,3.97341 -15.433941,-7.454458 1.368212,-1.182252 6.653452,1.312324 -4.617061,-3.490196 z"
       sodipodi:nodetypes="cccccccc" /><path
       id="path3"
       style="fill:#5e251a;fill-opacity:1;stroke:#1b0907;stroke-width:1.72265;stroke-dasharray:none;stroke-opacity:1"
       d="m 86.559152,11.824451 -16.391105,10.416956 4.54894,3.97341 15.433941,-7.454458 -1.368212,-1.182252 -6.653452,1.312324 4.617061,-3.490196 z"
       sodipodi:nodetypes="cccccccc" /><path
       id="path2"
       style="fill:#5e251a;fill-opacity:1;stroke:#1b0907;stroke-width:2.12404;stroke-dasharray:none;stroke-opacity:1"
       d="M 5.8053919,88.060341 21.655102,71.682362 17.256412,65.435198 2.3322523,77.155413 l 1.32302,1.858786 6.4336907,-2.063291 -4.4645611,5.487434 z"
       sodipodi:nodetypes="cccccccc" /><ellipse
       style="fill:#0c0503;fill-opacity:0.568084;stroke:none;stroke-width:2.94931;stroke-linecap:round;stroke-dasharray:none;stroke-opacity:1"
       id="ellipse2"
       cx="17.333582"
       cy="-70.362816"
       rx="5.0999999"
       ry="4.7999997"
       transform="scale(1,-1)" /><ellipse
       style="fill:#0c0503;fill-opacity:0.568084;stroke-width:2.94931;stroke-linecap:round"
       id="path1"
       cx="51.972347"
       cy="95.883675"
       rx="45.608387"
       ry="4.2426405" /><path
       id="rect11"
       style="fill:#5e251a;fill-opacity:1;stroke:#1b0907;stroke-width:2.12404;stroke-dasharray:none;stroke-opacity:1"
       d="M 8.3509763,7.0524769 24.200687,23.430456 19.801997,29.67762 4.8778367,17.957405 6.2008567,16.098619 12.634547,18.16191 8.1699863,12.674476 Z"
       sodipodi:nodetypes="cccccccc" /><ellipse
       style="fill:#0c0503;fill-opacity:0.568084;stroke:none;stroke-width:2.94931;stroke-linecap:round;stroke-dasharray:none;stroke-opacity:1"
       id="path55"
       cx="19.879168"
       cy="24.749998"
       rx="5.0999999"
       ry="4.7999997" /><path
       id="rect15"
       style="fill:#572918;stroke:#1b0907;stroke-width:4.3152;stroke-linecap:round"
       d="m 91.103308,19.438048 c 11.935802,48.626089 3.617042,58.124408 -0.375,75.160294 -19.17515,2.296339 -39.278853,0.55249 -59.092722,0.55249 -0.308651,0 -0.557132,-0.24641 -0.557132,-0.55249 V 19.738048 c 0,-0.913877 59.798654,-1.221531 60.024854,-0.3 z"
       sodipodi:nodetypes="ssssss" /><ellipse
       style="fill:#572918;fill-opacity:1;stroke:#1b0907;stroke-width:3.88182;stroke-linecap:round;stroke-linejoin:round;stroke-dasharray:none;stroke-opacity:1"
       id="path8"
       cx="34.129169"
       cy="57.150002"
       rx="29.845501"
       ry="38.3955" /><ellipse
       style="fill:#32170e;fill-opacity:1;stroke:none;stroke-width:2.94931;stroke-linecap:round;stroke-linejoin:round;stroke-dasharray:none;stroke-opacity:1"
       id="ellipse8"
       cx="33.492477"
       cy="57.360214"
       rx="22.604227"
       ry="29.262178" /><ellipse
       style="fill:#230f09;fill-opacity:1;stroke:none;stroke-width:2.02634;stroke-linecap:round;stroke-linejoin:round;stroke-dasharray:none;stroke-opacity:1"
       id="ellipse17"
       cx="33.174278"
       cy="57.890545"
       rx="15.922068"
       ry="19.610172" /><ellipse
       style="fill:#0c0503;fill-opacity:0.568084;stroke:none;stroke-width:1.18152;stroke-linecap:round;stroke-linejoin:round;stroke-dasharray:none;stroke-opacity:1"
       id="ellipse18"
       cx="33.068214"
       cy="57.572346"
       rx="9.4520407"
       ry="11.230957" /><path
       id="path5"
       style="fill:#3a1b10;fill-opacity:1;stroke-width:1.49814;stroke-linecap:round"
       d="m 92.007165,35.129754 c -0.375,0.231027 -11.199555,1.963065 -15.228575,1.963065 -4.029021,0 -12.858924,-0.524962 -13.458924,-0.94603 1.106251,-0.190304 9.429904,-1.660251 13.458924,-1.660251 4.02902,0 14.628574,0.398615 15.228575,0.643216 z"
       sodipodi:nodetypes="cscsc" /><path
       id="path6"
       style="fill:#783821;fill-opacity:1;stroke-width:1.49814;stroke-linecap:round"
       d="m 86.385666,29.532737 c -0.375,0.231027 -11.199555,1.963065 -15.228575,1.963065 -4.029021,0 -12.858924,-0.524962 -13.458924,-0.946031 1.106251,-0.190303 9.429904,-1.660251 13.458924,-1.660251 4.02902,0 14.628574,0.398616 15.228575,0.643217 z"
       sodipodi:nodetypes="cscsc" /><path
       id="path7"
       style="fill:#3a1b10;fill-opacity:1;stroke-width:1.65891;stroke-linecap:round"
       d="m 87.282165,45.139996 c -0.295588,0.359376 -8.827884,3.053657 -12.0037,3.053657 -3.175817,0 -10.135858,-0.816608 -10.608799,-1.471604 0.871986,-0.296027 7.432983,-2.582612 10.608799,-2.582612 3.175816,0 11.530758,0.620068 12.0037,1.000559 z"
       sodipodi:nodetypes="cscsc" /><path
       id="path9"
       style="fill:#3a1b10;fill-opacity:1;stroke-width:1.07234;stroke-linecap:round"
       d="m 90.21375,47.697741 c -0.204342,0.216776 -6.083255,1.811811 -8.2689,1.796641 -2.185647,-0.01517 -6.973578,-0.544206 -7.297397,-0.944136 0.600868,-0.175563 5.122065,-1.532486 7.307709,-1.517317 2.185647,0.01517 7.93407,0.431544 8.258588,0.664812 z"
       sodipodi:nodetypes="cscsc" /><path
       id="path10"
       style="fill:#783821;fill-opacity:1;stroke-width:1.37246;stroke-linecap:round"
       d="m 88.40092,55.537513 c -0.284879,0.255229 -8.508035,2.168709 -11.568785,2.168709 -3.060751,0 -9.768617,-0.579955 -10.224423,-1.045134 0.840392,-0.210238 7.163673,-1.834173 10.224423,-1.834173 3.06075,0 11.112979,0.440373 11.568785,0.710598 z"
       sodipodi:nodetypes="cscsc" /><path
       id="path11"
       style="fill:#3a1b10;fill-opacity:1;stroke-width:1.07234;stroke-linecap:round"
       d="m 71.333999,23.398497 c -0.204342,0.216776 -6.083255,1.811811 -8.2689,1.796641 -2.185647,-0.01517 -6.973578,-0.544206 -7.297397,-0.944136 0.600868,-0.175563 5.122065,-1.532486 7.307709,-1.517317 2.185647,0.01517 7.93407,0.431544 8.258588,0.664812 z"
       sodipodi:nodetypes="cscsc" /><path
       id="path12"
       style="fill:#3a1b10;fill-opacity:1;stroke-width:0.838771;stroke-linecap:round"
       d="m 88.940958,24.642017 c -0.204342,0.132627 -6.083255,1.108494 -8.2689,1.099213 -2.185647,-0.0093 -6.973578,-0.332953 -7.297397,-0.577637 0.600868,-0.107418 5.122065,-0.937599 7.307709,-0.928318 2.185647,0.0093 7.93407,0.264024 8.258588,0.406742 z"
       sodipodi:nodetypes="cscsc" /><path
       id="path13"
       style="fill:#3a1b10;fill-opacity:1;stroke-width:1.65891;stroke-linecap:round"
       d="m 89.232165,65.989996 c -0.295588,0.359376 -8.827884,3.053657 -12.0037,3.053657 -3.175817,0 -10.135858,-0.816608 -10.608799,-1.471604 0.871986,-0.296027 7.432983,-2.582612 10.608799,-2.582612 3.175816,0 11.530758,0.620068 12.0037,1.000559 z"
       sodipodi:nodetypes="cscsc" /><path
       id="path14"
       style="fill:#3a1b10;fill-opacity:1;stroke-width:1.07234;stroke-linecap:round"
       d="m 82.86375,63.747741 c -0.204342,0.216776 -6.083255,1.811811 -8.2689,1.796641 -2.185647,-0.01517 -6.973578,-0.544206 -7.297397,-0.944136 0.600868,-0.175563 5.122065,-1.532486 7.307709,-1.517317 2.185647,0.01517 7.93407,0.431544 8.258588,0.664812 z"
       sodipodi:nodetypes="cscsc" /><path
       id="path15"
       style="fill:#3a1b10;fill-opacity:1;stroke-width:1.65891;stroke-linecap:round"
       d="m 70.219666,75.139996 c 0.295588,0.359376 8.827884,3.053657 12.0037,3.053657 3.175817,0 10.135858,-0.816608 10.608799,-1.471604 -0.871986,-0.296027 -7.432983,-2.582612 -10.608799,-2.582612 -3.175816,0 -11.530758,0.620068 -12.0037,1.000559 z"
       sodipodi:nodetypes="cscsc" /><path
       id="path16"
       style="fill:#3a1b10;fill-opacity:1;stroke-width:1.07234;stroke-linecap:round"
       d="m 76.588081,72.897741 c 0.204342,0.216776 6.083255,1.811811 8.2689,1.796641 2.185647,-0.01517 6.973578,-0.544206 7.297397,-0.944136 -0.600868,-0.175563 -5.122065,-1.532486 -7.307709,-1.517317 -2.185647,0.01517 -7.93407,0.431544 -8.258588,0.664812 z"
       sodipodi:nodetypes="cscsc" /><path
       id="path17"
       style="fill:#783821;fill-opacity:1;stroke-width:0.871881;stroke-linecap:round"
       d="m 93.50092,61.128379 c -0.180957,0.162154 -5.404367,1.377843 -7.348579,1.377843 -1.944211,0 -6.205098,-0.368462 -6.494629,-0.664004 0.533823,-0.13357 4.550419,-1.165303 6.494629,-1.165303 1.944212,0 7.059048,0.279782 7.348579,0.451464 z"
       sodipodi:nodetypes="cscsc" /><path
       id="path18"
       style="fill:#3a1b10;fill-opacity:1;stroke-width:1.07234;stroke-linecap:round"
       d="m 61.420641,80.322362 c 0.204342,0.216776 6.083255,1.811811 8.2689,1.796641 2.185647,-0.01517 6.973578,-0.544206 7.297397,-0.944136 -0.600868,-0.175563 -5.122065,-1.532486 -7.307709,-1.517317 -2.185647,0.01517 -7.93407,0.431544 -8.258588,0.664812 z"
       sodipodi:nodetypes="cscsc" /><path
       id="path19"
       style="fill:#3a1b10;fill-opacity:1;stroke-width:1.81169;stroke-linecap:round"
       d="m 57.496198,87.609219 c 0.407625,0.310178 12.134989,2.592461 16.494954,2.570755 4.359968,-0.02171 13.911021,-0.778687 14.556981,-1.350933 -1.198622,-0.251208 -10.217589,-2.192784 -14.577552,-2.17108 -4.359969,0.02171 -15.827029,0.617483 -16.474383,0.951258 z"
       sodipodi:nodetypes="cscsc" /></g></svg>
