<?xml version="1.0" encoding="UTF-8" standalone="no"?>
<!-- Created with Inkscape (http://www.inkscape.org/) -->

<svg
   width="377.95276"
   height="377.95276"
   viewBox="0 0 100 100"
   version="1.1"
   id="svg1"
   inkscape:version="1.4.2 (ebf0e940d0, 2025-05-08)"
   sodipodi:docname="wishing-well.svg"
   xml:space="preserve"
   xmlns:inkscape="http://www.inkscape.org/namespaces/inkscape"
   xmlns:sodipodi="http://sodipodi.sourceforge.net/DTD/sodipodi-0.dtd"
   xmlns="http://www.w3.org/2000/svg"
   xmlns:svg="http://www.w3.org/2000/svg"><sodipodi:namedview
     id="namedview1"
     pagecolor="#505050"
     bordercolor="#eeeeee"
     borderopacity="1"
     inkscape:showpageshadow="0"
     inkscape:pageopacity="0"
     inkscape:pagecheckerboard="0"
     inkscape:deskcolor="#505050"
     inkscape:document-units="px"
     inkscape:zoom="1.7638889"
     inkscape:cx="162.99213"
     inkscape:cy="253.70079"
     inkscape:window-width="1366"
     inkscape:window-height="697"
     inkscape:window-x="0"
     inkscape:window-y="0"
     inkscape:window-maximized="1"
     inkscape:current-layer="layer1" /><defs
     id="defs1"><filter
       inkscape:label="Blur Double"
       inkscape:menu="Blurs"
       inkscape:menu-tooltip="Overlays two copies with different blur amounts and modifiable blend and composite"
       style="color-interpolation-filters:sRGB;"
       id="filter6"
       x="-0.71930275"
       y="-0.45810527"
       width="2.4386055"
       height="1.9162105"><feGaussianBlur
         stdDeviation="5"
         result="fbSourceGraphic"
         id="feGaussianBlur5" /><feGaussianBlur
         stdDeviation="0.01"
         in="SourceGraphic"
         result="result1"
         id="feGaussianBlur6" /><feComposite
         in2="result1"
         operator="arithmetic"
         in="fbSourceGraphic"
         k2="0.5"
         k3="0.5"
         result="result2"
         id="feComposite6" /><feBlend
         in2="fbSourceGraphic"
         mode="normal"
         result="result3"
         id="feBlend6" /></filter><linearGradient
       id="linearGradient13895"
       inkscape:swatch="solid"><stop
         style="stop-color:#000000;stop-opacity:1;"
         offset="0"
         id="stop13893" /></linearGradient><filter
       style="color-interpolation-filters:sRGB;"
       inkscape:label="Clean Edges"
       id="filter14269"
       x="-0.31154084"
       y="-0.29580634"
       width="1.6230817"
       height="1.5916127"><feGaussianBlur
         stdDeviation="0.204612"
         result="blur"
         id="feGaussianBlur14263" /><feComposite
         in="SourceGraphic"
         in2="blur"
         operator="in"
         result="composite1"
         id="feComposite14265" /><feComposite
         in="composite1"
         in2="composite1"
         operator="in"
         result="composite2"
         id="feComposite14267" /></filter><filter
       inkscape:label="Blur Double"
       inkscape:menu="Blurs"
       inkscape:menu-tooltip="Overlays two copies with different blur amounts and modifiable blend and composite"
       style="color-interpolation-filters:sRGB;"
       id="filter6-3"
       x="-0.71930275"
       y="-0.45810527"
       width="2.4386055"
       height="1.9162105"><feGaussianBlur
         stdDeviation="5"
         result="fbSourceGraphic"
         id="feGaussianBlur5-6" /><feGaussianBlur
         stdDeviation="0.01"
         in="SourceGraphic"
         result="result1"
         id="feGaussianBlur6-7" /><feComposite
         in2="result1"
         operator="arithmetic"
         in="fbSourceGraphic"
         k2="0.5"
         k3="0.5"
         result="result2"
         id="feComposite6-5" /><feBlend
         in2="fbSourceGraphic"
         mode="normal"
         result="result3"
         id="feBlend6-3" /></filter><filter
       style="color-interpolation-filters:sRGB;"
       inkscape:label="Clean Edges"
       id="filter14269-6"
       x="-0.31154084"
       y="-0.29580634"
       width="1.6230817"
       height="1.5916127"><feGaussianBlur
         stdDeviation="0.204612"
         result="blur"
         id="feGaussianBlur14263-7" /><feComposite
         in="SourceGraphic"
         in2="blur"
         operator="in"
         result="composite1"
         id="feComposite14265-5" /><feComposite
         in="composite1"
         in2="composite1"
         operator="in"
         result="composite2"
         id="feComposite14267-3" /></filter></defs><g
     inkscape:label="Camada 1"
     inkscape:groupmode="layer"
     id="layer1"><ellipse
       style="fill:#806600;fill-opacity:1;stroke:#0f0c00;stroke-width:4.06241;stroke-linecap:round;stroke-linejoin:round;stroke-dasharray:none;stroke-opacity:1"
       id="path9"
       cx="51.017757"
       cy="62.366814"
       rx="40.543716"
       ry="16.890993" /><ellipse
       style="fill:#005de6;fill-opacity:1;stroke:none;stroke-width:3.80096;stroke-linecap:round;stroke-linejoin:round;stroke-dasharray:none;stroke-opacity:1"
       id="ellipse9"
       cx="51.44202"
       cy="66.821587"
       rx="37.068199"
       ry="16.173191" /><path
       id="rect50"
       style="fill:#806600;stroke:#0f0c00;stroke-width:2.28639"
       d="M 37.069843,62.790367 66.26209,63.214631 73.156381,80.032696 31.872608,76.21432 Z"
       sodipodi:nodetypes="ccccc" /><path
       id="path41"
       style="fill:#806600;fill-opacity:1;stroke:#0f0c00;stroke-width:3.65636;stroke-dasharray:none;stroke-opacity:1"
       d="M 97.754877,98.338425 2.5885421,98.126293 10.458394,60.984237 c 38.256467,27.604854 59.311813,12.661249 81.083449,0.237113 z"
       sodipodi:nodetypes="ccccc" /><rect
       style="fill:#2b2200;fill-opacity:1;stroke:#0f0c00;stroke-width:1.14145;stroke-dasharray:none;stroke-opacity:1"
       id="rect43"
       width="28.061792"
       height="11.948589"
       x="37.978989"
       y="82.04808" /><path
       id="path6"
       style="fill:#ffffff;stroke:none;stroke-width:0.316067"
       d="m 70.518715,64.36429 a 0.9855693,0.92322855 0 0 0 -0.985544,0.923147 0.9855693,0.92322855 0 0 0 0.985544,0.923253 0.9855693,0.92322855 0 0 0 0.985646,-0.923253 0.9855693,0.92322855 0 0 0 -0.985646,-0.923147 z m -0.260793,0.267373 a 0.37913611,0.46315578 36.04128 0 1 0.193886,0.05146 0.37913611,0.46315578 36.04128 0 1 0.0604,0.590083 0.37913611,0.46315578 36.04128 0 1 -0.576961,0.178353 0.37913611,0.46315578 36.04128 0 1 -0.06029,-0.590083 0.37913611,0.46315578 36.04128 0 1 0.382969,-0.229818 z" /><path
       style="fill:none;fill-opacity:1;stroke:#ffffff;stroke-width:0.429544;stroke-dasharray:none;stroke-opacity:1"
       d="m 51.104367,85.55419 -1.061294,1.370318 1.538884,0.510965 -0.106137,0.580646 -4.24521,0.02322 1.008242,0.696768 3.130842,0.04643 -0.106137,1.021935 -2.75939,2.183212 h 2.228737 l 1.857274,-1.788374 1.591958,-0.04643 0.371463,1.741924 1.80421,-0.04643 -1.167431,-1.974182 v -1.18451 l 3.024716,-0.04643 0.902105,-0.650323 -4.5636,-0.139354 0.106126,-0.627096 1.645021,-0.696771 -2.334863,-1.834831 -1.114368,0.65032 1.538894,0.48774"
       id="path19" /><ellipse
       style="fill:#584500;fill-opacity:1;stroke:none;stroke-width:1.01992;stroke-miterlimit:4;stroke-dasharray:none;stroke-opacity:1"
       id="ellipse1"
       cx="51.13158"
       cy="68.367188"
       rx="12.594764"
       ry="4.3365593" /><rect
       style="fill:#806600;fill-opacity:1;stroke:#0f0c00;stroke-width:1.47679;stroke-opacity:1"
       id="rect46-6"
       width="8.1832085"
       height="17.322882"
       x="41.763748"
       y="51.592026"
       ry="3.0481484" /><rect
       style="fill:#806600;fill-opacity:1;stroke:#0f0c00;stroke-width:1.50072;stroke-opacity:1"
       id="rect47-2"
       width="8.5506887"
       height="17.119825"
       x="52.095894"
       y="51.650879"
       ry="3.0124187" /><path
       id="path47"
       style="fill:#584500;fill-opacity:1;stroke-width:1.21288"
       d="m 44.768827,53.980368 h 2.019911 c 1.359148,0 2.453338,1.084367 2.453338,2.431317 v 8.954739 c 0,1.34695 -0.977225,1.467612 -2.30834,1.739776 l -2.328034,0.475995 c -1.331115,0.272164 -2.290214,-0.868821 -2.290214,-2.215771 v -8.954739 c 0,-1.34695 1.094188,-2.431317 2.453339,-2.431317 z"
       sodipodi:nodetypes="sssssssss" /><path
       id="path48"
       style="fill:#584500;fill-opacity:1;stroke-width:1.22915"
       d="m 55.314039,54.195913 h 2.074481 c 1.395869,0 2.519615,1.084368 2.519615,2.431318 v 8.954739 c 0,1.34695 -1.003622,1.467612 -2.3707,1.739776 l -2.390927,0.475994 c -1.367076,0.272165 -2.352085,-0.86882 -2.352085,-2.21577 v -8.954739 c 0,-1.34695 1.123747,-2.431318 2.519616,-2.431318 z"
       sodipodi:nodetypes="sssssssss" /><path
       id="rect9714"
       style="fill:#806600;fill-opacity:1;stroke:#0f0c00;stroke-width:2.06744;stroke-miterlimit:4;stroke-dasharray:none;stroke-opacity:1"
       d="m 45.837603,39.534868 c -0.644116,0.885315 -1.541785,1.44049 -2.358396,1.361922 L 32.230545,39.814436 c -0.4355,-0.106719 -0.8573,-0.172747 -1.29388,-0.27632 L 20.899695,35.104365 C 19.840083,34.636277 19.713162,33.0597 20.613339,31.570236 l 0.679514,-1.12786 c 0.900154,-1.489478 2.47927,-2.310465 3.538883,-1.842366 l 9.229826,4.077495 c 0.118964,-0.01373 0.236242,-0.01605 0.352908,-0.0048 l 11.25161,1.081593 c 1.187787,0.114279 1.740328,1.524092 1.239827,3.159398 l -0.378252,1.238142 c -0.156407,0.511043 -0.397535,0.980481 -0.690099,1.383005 z"
       sodipodi:nodetypes="ccccccccccccccc" /><path
       id="path11551"
       style="fill:#806600;fill-opacity:1;stroke:#0f0c00;stroke-width:1.96546;stroke-miterlimit:4;stroke-dasharray:none;stroke-opacity:1"
       d="m 80.931336,28.124892 c 0.08109,1.123461 -0.231205,2.152855 -0.879895,2.628004 L 71.115833,37.2979 c -0.15141,0.11093 -0.312476,0.184985 -0.477543,0.224128 -0.190829,0.193835 -0.406679,0.335905 -0.645188,0.408771 l -10.141723,3.098914 c -1.070685,0.327151 -2.149741,-0.835437 -2.420234,-2.604888 l -0.206382,-1.338482 c -0.270505,-1.76945 0.375486,-3.457233 1.446175,-3.784371 l 9.326309,-2.849544 c 0.07875,-0.0891 0.163411,-0.168069 0.256145,-0.235946 l 8.937279,-6.547542 c 0.943546,-0.69111 2.23082,0.05963 2.885942,1.681422 l 0.496434,1.227489 c 0.204735,0.50681 0.321391,1.036421 0.358178,1.547094 z" /><rect
       style="fill:#806600;fill-opacity:1;stroke:#0f0c00;stroke-width:1.14876;stroke-linecap:round;stroke-linejoin:round;stroke-dasharray:none;stroke-opacity:1"
       id="rect9"
       width="18.710035"
       height="27.466335"
       x="42.021664"
       y="31.812593"
       ry="1.6486405" /><path
       id="path23"
       style="fill:#ffffff;stroke:none;stroke-width:0.316067"
       d="m 63.168715,58.81429 a 0.9855693,0.92322855 0 0 0 -0.985544,0.923147 0.9855693,0.92322855 0 0 0 0.985544,0.923253 0.9855693,0.92322855 0 0 0 0.985646,-0.923253 0.9855693,0.92322855 0 0 0 -0.985646,-0.923147 z m -0.260793,0.267373 a 0.37913611,0.46315578 36.04128 0 1 0.193886,0.05146 0.37913611,0.46315578 36.04128 0 1 0.0604,0.590083 0.37913611,0.46315578 36.04128 0 1 -0.576961,0.178353 0.37913611,0.46315578 36.04128 0 1 -0.06029,-0.590083 0.37913611,0.46315578 36.04128 0 1 0.382969,-0.229818 z" /><path
       id="rect9738"
       style="fill:#bf9900;fill-opacity:1;stroke:#0f0c00;stroke-width:1.19359;stroke-miterlimit:4;stroke-dasharray:none;stroke-opacity:1"
       d="m 42.157546,50.468092 -1.382588,14.591609 5.293391,1.526829 5.574674,-2.245409 4.262382,2.245409 6.376639,-2.116739 -1.228966,-14.001699 z"
       sodipodi:nodetypes="cccccccc" /><ellipse
       style="fill:#584500;fill-opacity:1;stroke:none;stroke-width:0.743726;stroke-miterlimit:4;stroke-dasharray:none;stroke-opacity:1"
       id="ellipse49"
       cx="51.281578"
       cy="32.667183"
       rx="7.1947637"
       ry="4.0365591" /><ellipse
       style="fill:#806600;fill-opacity:1;stroke:#0f0c00;stroke-width:2.4017;stroke-miterlimit:4;stroke-dasharray:none;stroke-opacity:1"
       id="ellipse3"
       cx="51.128029"
       cy="17.981594"
       rx="16.50108"
       ry="15.740202" /><ellipse
       style="fill:#bf9900;fill-opacity:1;stroke:none;stroke-width:0.834524;stroke-miterlimit:4;stroke-dasharray:none;stroke-opacity:1"
       id="ellipse4"
       cx="51.26421"
       cy="17.293858"
       rx="14.184562"
       ry="13.718401" /><ellipse
       style="fill:#ffd634;fill-opacity:1;stroke:none;stroke-width:2.47563;stroke-dasharray:none;stroke-opacity:1"
       id="ellipse8"
       cx="25.824104"
       cy="45.446312"
       rx="8.9842033"
       ry="11.966071"
       transform="matrix(0.76591481,-0.64294206,0.73564987,0.677362,0,0)" /><path
       id="path12"
       style="fill:none;fill-opacity:1;stroke:#0f0c00;stroke-width:1.51351;stroke-miterlimit:4;stroke-dasharray:none;stroke-opacity:1"
       d="m 39.971435,22.566409 c -0.608821,-1.22926 -1.018334,-3.209369 -1.018349,-4.685979 2.71e-4,-4.136173 2.495602,-7.489024 5.573677,-7.489073 3.078081,4.9e-5 5.573413,3.3529 5.573682,7.489073 -1.6e-5,1.47661 -0.324847,3.291657 -0.933669,4.520917 -2.829612,0.96811 -5.943473,0.879879 -9.195341,0.165062 z"
       sodipodi:nodetypes="cccccc" /><ellipse
       style="fill:#0f0c00;fill-opacity:1;stroke:none;stroke-width:3.89502"
       id="ellipse31"
       cx="44.365883"
       cy="17.167282"
       rx="4.1348248"
       ry="4.2032042" /><ellipse
       style="fill:#ffd634;fill-opacity:1;stroke:none;stroke-width:1.64185"
       id="ellipse36"
       cx="44.230885"
       cy="13.383199"
       rx="1.5997554"
       ry="1.930294" /><path
       style="fill:none;fill-opacity:1;stroke:#0f0c00;stroke-width:2.67841;stroke-linecap:round;stroke-linejoin:round;stroke-dasharray:none;stroke-opacity:1"
       d="M 48.322451,3.4101505 C 52.817539,16.226228 58.887146,18.759754 64.338677,25.329686"
       id="path10"
       sodipodi:nodetypes="cc" /><path
       id="path11"
       style="fill:#0f0c00;fill-opacity:1;stroke:none;stroke-width:1.18657;stroke-miterlimit:4;stroke-dasharray:none;stroke-opacity:1"
       d="m 54.393019,21.343347 c -0.479158,-0.959994 -0.801454,-2.506368 -0.801467,-3.65953 2.13e-4,-3.230157 1.964102,-5.848578 4.386625,-5.848616 2.422527,3.8e-5 4.386416,2.618459 4.386628,5.848616 -1.2e-5,1.153162 -0.255663,2.57063 -0.734821,3.530624 -2.226976,0.756049 -4.677663,0.687145 -7.236965,0.128906 z"
       sodipodi:nodetypes="cccccc" /><ellipse
       style="fill:none;fill-opacity:1;stroke:#0f0c00;stroke-width:0.87921;stroke-linecap:round;stroke-linejoin:round;stroke-dasharray:none;stroke-opacity:1"
       id="path13"
       cx="46.249619"
       cy="39.613003"
       rx="0.54363489"
       ry="0.40409192" /><ellipse
       style="fill:none;fill-opacity:1;stroke:#0f0c00;stroke-width:0.87921;stroke-linecap:round;stroke-linejoin:round;stroke-dasharray:none;stroke-opacity:1"
       id="ellipse13"
       cx="57.214481"
       cy="39.722099"
       rx="0.54363489"
       ry="0.40409192" /><path
       style="fill:#584500;fill-opacity:1;stroke:#0f0c00;stroke-width:1.18931;stroke-linecap:round;stroke-linejoin:round;stroke-dasharray:none;stroke-opacity:1"
       d="m 42.379098,37.882543 c 2.289102,1.021887 4.581194,2.007724 7.000734,1.456979"
       id="path14"
       sodipodi:nodetypes="cc" /><path
       style="fill:#584500;fill-opacity:1;stroke:#0f0c00;stroke-width:1.18931;stroke-linecap:round;stroke-linejoin:round;stroke-dasharray:none;stroke-opacity:1"
       d="m 60.394869,37.125802 c -2.135532,1.315353 -4.278745,2.595362 -6.749349,2.368959"
       id="path15"
       sodipodi:nodetypes="cc" /><path
       id="rect15"
       style="fill:#005de6;stroke:#ffffff;stroke-width:1.59566;stroke-linecap:round;stroke-linejoin:round;stroke-opacity:0.393979"
       d="m 75.269596,28.12718 h 1.463293 c 0.890461,0 0.856088,1.340223 0.912315,2.228908 l 1.875,29.634747 c 0.05623,0.888684 -0.71687,1.607331 -1.607331,1.607331 H 74.85859 c -0.890462,0 -1.634155,-0.717274 -1.607331,-1.607331 l 0.90494,-30.027164 c 0.02682,-0.890058 0.222935,-1.836491 1.113397,-1.836491 z"
       sodipodi:nodetypes="sssssssss" /><path
       id="rect16"
       style="fill:#ffffff;fill-opacity:1;stroke:#ffffff;stroke-width:0.520403;stroke-linecap:round;stroke-linejoin:round;stroke-opacity:0.393979"
       d="m 73.605297,59.165409 c 2.078472,3.446334 5.375628,0.141631 5.375628,0.141631 0.09838,0.0026 0.431616,0.961527 0.527946,0.979489 l 2.276852,0.424534 c 0.09633,0.01796 -2.660733,3.190129 -2.454514,2.735704 0.20622,-0.454426 -6.040647,-0.598868 -6.426482,0 -0.385836,0.598868 -1.99088,-2.637915 -1.897243,-2.664888 l 1.71958,-0.49535 c 0.09364,-0.02698 0.831704,-1.19827 0.878233,-1.12112 z"
       sodipodi:nodetypes="sssszzsss" /><path
       id="path18"
       style="fill:#005de6;stroke:#ffffff;stroke-width:1.59566;stroke-linecap:round;stroke-linejoin:round;stroke-opacity:0.393979"
       d="m 24.269597,30.52718 h 1.463293 c 0.890461,0 0.856088,1.340223 0.912315,2.228908 l 1.875,29.634747 c 0.05623,0.888684 -0.71687,1.607331 -1.607331,1.607331 h -3.054283 c -0.890462,0 -1.634155,-0.717274 -1.607331,-1.607331 L 23.1562,32.363671 c 0.02682,-0.890058 0.222935,-1.836491 1.113397,-1.836491 z"
       sodipodi:nodetypes="sssssssss" /><path
       id="path20"
       style="fill:#ffffff;fill-opacity:1;stroke:#ffffff;stroke-width:0.520403;stroke-linecap:round;stroke-linejoin:round;stroke-opacity:0.393979"
       d="m 22.605298,61.565409 c 2.078472,3.446334 5.375628,0.141631 5.375628,0.141631 0.09838,0.0026 0.431616,0.961527 0.527946,0.979489 l 2.276852,0.424534 c 0.09633,0.01796 -2.660733,3.190129 -2.454514,2.735704 0.20622,-0.454426 -6.040647,-0.598868 -6.426482,0 -0.385836,0.598868 -1.99088,-2.637915 -1.897243,-2.664888 l 1.71958,-0.49535 c 0.09364,-0.02698 0.831704,-1.19827 0.878233,-1.12112 z"
       sodipodi:nodetypes="sssszzsss" /><path
       id="path21"
       style="fill:#ffffff;stroke:none;stroke-width:0.316067"
       d="m 70.518715,64.36429 a 0.9855693,0.92322855 0 0 0 -0.985544,0.923147 0.9855693,0.92322855 0 0 0 0.985544,0.923253 0.9855693,0.92322855 0 0 0 0.985646,-0.923253 0.9855693,0.92322855 0 0 0 -0.985646,-0.923147 z m -0.260793,0.267373 a 0.37913611,0.46315578 36.04128 0 1 0.193886,0.05146 0.37913611,0.46315578 36.04128 0 1 0.0604,0.590083 0.37913611,0.46315578 36.04128 0 1 -0.576961,0.178353 0.37913611,0.46315578 36.04128 0 1 -0.06029,-0.590083 0.37913611,0.46315578 36.04128 0 1 0.382969,-0.229818 z" /><path
       id="path22"
       style="fill:#ffffff;stroke:none;stroke-width:0.316067"
       d="m 63.693715,52.28929 a 0.9855693,0.92322855 0 0 0 -0.985544,0.923147 0.9855693,0.92322855 0 0 0 0.985544,0.923253 0.9855693,0.92322855 0 0 0 0.985646,-0.923253 0.9855693,0.92322855 0 0 0 -0.985646,-0.923147 z m -0.260793,0.267373 a 0.37913611,0.46315578 36.04128 0 1 0.193886,0.05146 0.37913611,0.46315578 36.04128 0 1 0.0604,0.590083 0.37913611,0.46315578 36.04128 0 1 -0.576961,0.178353 0.37913611,0.46315578 36.04128 0 1 -0.06029,-0.590083 0.37913611,0.46315578 36.04128 0 1 0.382969,-0.229818 z" /><path
       id="path24"
       style="fill:#ffffff;stroke:none;stroke-width:0.316067"
       d="m 36.018715,54.61429 a 0.9855693,0.92322855 0 0 0 -0.985544,0.923147 0.9855693,0.92322855 0 0 0 0.985544,0.923253 0.9855693,0.92322855 0 0 0 0.985646,-0.923253 0.9855693,0.92322855 0 0 0 -0.985646,-0.923147 z m -0.260793,0.267373 a 0.37913611,0.46315578 36.04128 0 1 0.193886,0.05146 0.37913611,0.46315578 36.04128 0 1 0.0604,0.590083 0.37913611,0.46315578 36.04128 0 1 -0.576961,0.178353 0.37913611,0.46315578 36.04128 0 1 -0.06029,-0.590083 0.37913611,0.46315578 36.04128 0 1 0.382969,-0.229818 z" /><path
       id="path25"
       style="fill:#ffffff;stroke:none;stroke-width:0.316067"
       d="m 31.968715,65.71429 a 0.9855693,0.92322855 0 0 0 -0.985544,0.923147 0.9855693,0.92322855 0 0 0 0.985544,0.923253 0.9855693,0.92322855 0 0 0 0.985646,-0.923253 0.9855693,0.92322855 0 0 0 -0.985646,-0.923147 z m -0.260793,0.267373 a 0.37913611,0.46315578 36.04128 0 1 0.193886,0.05146 0.37913611,0.46315578 36.04128 0 1 0.0604,0.590083 0.37913611,0.46315578 36.04128 0 1 -0.576961,0.178353 0.37913611,0.46315578 36.04128 0 1 -0.06029,-0.590083 0.37913611,0.46315578 36.04128 0 1 0.382969,-0.229818 z" /><path
       id="path26"
       style="fill:#ffffff;stroke:none;stroke-width:0.316067"
       d="m 18.816529,60.092791 a 0.9855693,0.92322855 0 0 0 -0.985544,0.923147 0.9855693,0.92322855 0 0 0 0.985544,0.923253 0.9855693,0.92322855 0 0 0 0.985646,-0.923253 0.9855693,0.92322855 0 0 0 -0.985646,-0.923147 z m -0.260793,0.267373 a 0.37913611,0.46315578 36.04128 0 1 0.193886,0.05146 0.37913611,0.46315578 36.04128 0 1 0.0604,0.590083 0.37913611,0.46315578 36.04128 0 1 -0.576961,0.178353 0.37913611,0.46315578 36.04128 0 1 -0.06029,-0.590083 0.37913611,0.46315578 36.04128 0 1 0.382969,-0.229818 z" /><path
       id="path27"
       style="fill:#ffffff;stroke:none;stroke-width:0.316067"
       d="m 31.120187,55.425886 a 0.9855693,0.92322855 0 0 0 -0.985544,0.923147 0.9855693,0.92322855 0 0 0 0.985544,0.923253 0.9855693,0.92322855 0 0 0 0.985646,-0.923253 0.9855693,0.92322855 0 0 0 -0.985646,-0.923147 z m -0.260793,0.267373 a 0.37913611,0.46315578 36.04128 0 1 0.193886,0.05146 0.37913611,0.46315578 36.04128 0 1 0.0604,0.590083 0.37913611,0.46315578 36.04128 0 1 -0.576961,0.178353 0.37913611,0.46315578 36.04128 0 1 -0.06029,-0.590083 0.37913611,0.46315578 36.04128 0 1 0.382969,-0.229818 z" /><path
       id="rect27"
       style="fill:#ffd634;fill-opacity:1;stroke-width:1.22454;stroke-linecap:round;stroke-linejoin:round;stroke-opacity:0.393979"
       d="m 53.749731,51.742017 h 5.939697 l 0.848528,11.751633 -4.666905,1.506619 z"
       sodipodi:nodetypes="ccccc" /></g></svg>
