<?xml version="1.0" encoding="UTF-8" standalone="no"?>
<!-- Created with Inkscape (http://www.inkscape.org/) -->

<svg
   width="100"
   height="100"
   viewBox="0 0 26.458333 26.458333"
   version="1.1"
   id="svg1"
   inkscape:version="1.4.2 (ebf0e940d0, 2025-05-08)"
   sodipodi:docname="Flow.svg"
   xml:space="preserve"
   xmlns:inkscape="http://www.inkscape.org/namespaces/inkscape"
   xmlns:sodipodi="http://sodipodi.sourceforge.net/DTD/sodipodi-0.dtd"
   xmlns="http://www.w3.org/2000/svg"
   xmlns:svg="http://www.w3.org/2000/svg"><sodipodi:namedview
     id="namedview1"
     pagecolor="#505050"
     bordercolor="#eeeeee"
     borderopacity="1"
     inkscape:showpageshadow="0"
     inkscape:pageopacity="0"
     inkscape:pagecheckerboard="0"
     inkscape:deskcolor="#505050"
     inkscape:document-units="px"
     inkscape:zoom="4.9890311"
     inkscape:cx="27.760901"
     inkscape:cy="67.247526"
     inkscape:window-width="1366"
     inkscape:window-height="697"
     inkscape:window-x="0"
     inkscape:window-y="0"
     inkscape:window-maximized="1"
     inkscape:current-layer="layer1" /><defs
     id="defs1"><linearGradient
       id="linearGradient13895"
       inkscape:swatch="solid"><stop
         style="stop-color:#000000;stop-opacity:1;"
         offset="0"
         id="stop13893" /></linearGradient><filter
       style="color-interpolation-filters:sRGB;"
       inkscape:label="Clean Edges"
       id="filter14269"
       x="-0.31154084"
       y="-0.29580634"
       width="1.6230817"
       height="1.5916127"><feGaussianBlur
         stdDeviation="0.204612"
         result="blur"
         id="feGaussianBlur14263" /><feComposite
         in="SourceGraphic"
         in2="blur"
         operator="in"
         result="composite1"
         id="feComposite14265" /><feComposite
         in="composite1"
         in2="composite1"
         operator="in"
         result="composite2"
         id="feComposite14267" /></filter><inkscape:path-effect
       effect="fillet_chamfer"
       id="path-effect68"
       is_visible="true"
       lpeversion="1"
       nodesatellites_param="F,0,0,1,0,0,0,1 @ F,0,0,1,0,0,0,1 @ F,0,0,1,0,0,0,1 @ F,0,0,1,0,0,0,1 @ F,0,0,1,0,0,0,1 @ F,0,0,1,0,0,0,1 @ F,0,0,1,0,0,0,1 @ F,0,0,1,0,0,0,1 @ F,0,0,1,0,0,0,1"
       radius="0"
       unit="px"
       method="auto"
       mode="F"
       chamfer_steps="1"
       flexible="false"
       use_knot_distance="true"
       apply_no_radius="true"
       apply_with_radius="true"
       only_selected="false"
       hide_knots="false" /><inkscape:path-effect
       effect="fillet_chamfer"
       id="path-effect66"
       is_visible="true"
       lpeversion="1"
       nodesatellites_param="F,0,0,1,0,0,0,1 @ F,0,0,1,0,0.44929322,0,1 @ F,0,0,1,0,0.44929322,0,1 @ F,0,0,1,0,0,0,1 @ F,0,0,1,0,0,0,1 @ F,0,0,1,0,0,0,1 @ F,0,0,1,0,0,0,1 @ F,0,0,1,0,0,0,1 @ F,0,0,1,0,0,0,1 @ F,0,0,1,0,0,0,1"
       radius="0"
       unit="px"
       method="auto"
       mode="F"
       chamfer_steps="1"
       flexible="false"
       use_knot_distance="true"
       apply_no_radius="true"
       apply_with_radius="true"
       only_selected="false"
       hide_knots="false" /><inkscape:path-effect
       effect="fillet_chamfer"
       id="path-effect68-7"
       is_visible="true"
       lpeversion="1"
       nodesatellites_param="F,0,0,1,0,0,0,1 @ F,0,0,1,0,0,0,1 @ F,0,0,1,0,0,0,1 @ F,0,0,1,0,0,0,1 @ F,0,0,1,0,0,0,1 @ F,0,0,1,0,0,0,1 @ F,0,0,1,0,0,0,1 @ F,0,0,1,0,0,0,1 @ F,0,0,1,0,0,0,1"
       radius="0"
       unit="px"
       method="auto"
       mode="F"
       chamfer_steps="1"
       flexible="false"
       use_knot_distance="true"
       apply_no_radius="true"
       apply_with_radius="true"
       only_selected="false"
       hide_knots="false" /><inkscape:path-effect
       effect="fillet_chamfer"
       id="path-effect66-5"
       is_visible="true"
       lpeversion="1"
       nodesatellites_param="F,0,0,1,0,0,0,1 @ F,0,0,1,0,0.44929322,0,1 @ F,0,0,1,0,0.44929322,0,1 @ F,0,0,1,0,0,0,1 @ F,0,0,1,0,0,0,1 @ F,0,0,1,0,0,0,1 @ F,0,0,1,0,0,0,1 @ F,0,0,1,0,0,0,1 @ F,0,0,1,0,0,0,1 @ F,0,0,1,0,0,0,1"
       radius="0"
       unit="px"
       method="auto"
       mode="F"
       chamfer_steps="1"
       flexible="false"
       use_knot_distance="true"
       apply_no_radius="true"
       apply_with_radius="true"
       only_selected="false"
       hide_knots="false" /><inkscape:path-effect
       effect="fillet_chamfer"
       id="path-effect68-3"
       is_visible="true"
       lpeversion="1"
       nodesatellites_param="F,0,0,1,0,0,0,1 @ F,0,0,1,0,0,0,1 @ F,0,0,1,0,0,0,1 @ F,0,0,1,0,0,0,1 @ F,0,0,1,0,0,0,1 @ F,0,0,1,0,0,0,1 @ F,0,0,1,0,0,0,1 @ F,0,0,1,0,0,0,1 @ F,0,0,1,0,0,0,1"
       radius="0"
       unit="px"
       method="auto"
       mode="F"
       chamfer_steps="1"
       flexible="false"
       use_knot_distance="true"
       apply_no_radius="true"
       apply_with_radius="true"
       only_selected="false"
       hide_knots="false" /><inkscape:path-effect
       effect="fillet_chamfer"
       id="path-effect66-6"
       is_visible="true"
       lpeversion="1"
       nodesatellites_param="F,0,0,1,0,0,0,1 @ F,0,0,1,0,0.44929322,0,1 @ F,0,0,1,0,0.44929322,0,1 @ F,0,0,1,0,0,0,1 @ F,0,0,1,0,0,0,1 @ F,0,0,1,0,0,0,1 @ F,0,0,1,0,0,0,1 @ F,0,0,1,0,0,0,1 @ F,0,0,1,0,0,0,1 @ F,0,0,1,0,0,0,1"
       radius="0"
       unit="px"
       method="auto"
       mode="F"
       chamfer_steps="1"
       flexible="false"
       use_knot_distance="true"
       apply_no_radius="true"
       apply_with_radius="true"
       only_selected="false"
       hide_knots="false" /><filter
       style="color-interpolation-filters:sRGB;"
       inkscape:label="Clean Edges"
       id="filter14269-5"
       x="-0.31154084"
       y="-0.29580634"
       width="1.6230817"
       height="1.5916127"><feGaussianBlur
         stdDeviation="0.204612"
         result="blur"
         id="feGaussianBlur14263-6" /><feComposite
         in="SourceGraphic"
         in2="blur"
         operator="in"
         result="composite1"
         id="feComposite14265-2" /><feComposite
         in="composite1"
         in2="composite1"
         operator="in"
         result="composite2"
         id="feComposite14267-9" /></filter></defs><g
     inkscape:label="Camada 1"
     inkscape:groupmode="layer"
     id="layer1"><ellipse
       style="fill:#ffffff;fill-opacity:1;stroke:#4e4a47;stroke-width:0.719853;stroke-dasharray:none;stroke-opacity:1"
       id="ellipse2"
       cx="20.384892"
       cy="11.090398"
       rx="5.4269242"
       ry="4.3783736" /><ellipse
       style="fill:#ffffff;fill-opacity:1;stroke:#4e4a47;stroke-width:0.719853;stroke-dasharray:none;stroke-opacity:1"
       id="path4"
       cx="5.9848905"
       cy="11.390398"
       rx="5.4269242"
       ry="4.3783736" /><path
       id="path19"
       style="fill:#a5a28c;fill-opacity:1;stroke:none;stroke-width:0.613482;stroke-dasharray:none;stroke-opacity:1"
       d="m 22.657786,8.446856 c -0.282269,-0.6029659 1.502388,-0.6746659 2.146974,0.7592758 -1.753468,0.1156669 -1.5938,1.4973442 -1.898622,2.4798132 0.172497,0.958578 0.244423,1.481437 1.458384,1.888824 -1.490605,1.436085 -1.831363,0.738598 -2.47013,0.809304 -0.308356,-0.960415 -1.221383,-1.954869 -2.508442,-2.732155 -0.08011,-0.04825 -0.16141,-0.09551 -0.243816,-0.141727 0.381069,-0.16681 0.747967,-0.35642 1.09345,-0.565084 1.178943,-0.711858 2.048622,-1.6088421 2.422202,-2.498251 z"
       sodipodi:nodetypes="ccccccccc" /><ellipse
       style="fill:#ffffff;fill-opacity:1;stroke:#4e4a47;stroke-width:0.748365;stroke-dasharray:none;stroke-opacity:1"
       id="ellipse8"
       cx="-24.361322"
       cy="-1.9385781"
       rx="5.9468083"
       ry="3.9917655"
       transform="matrix(-0.71408912,-0.70005481,-0.60338199,0.7974523,0,0)" /><ellipse
       style="fill:#ffffff;fill-opacity:1;stroke:#4e4a47;stroke-width:0.721396;stroke-dasharray:none;stroke-opacity:1"
       id="ellipse7"
       cx="-6.1861043"
       cy="-13.512349"
       rx="5.3136792"
       ry="4.49088"
       transform="matrix(0.02754617,-0.99962053,-0.9998602,-0.01672091,0,0)" /><ellipse
       style="fill:#a5a28c;fill-opacity:1;stroke:none;stroke-width:0.579458;stroke-dasharray:none;stroke-opacity:1"
       id="ellipse14"
       cx="-6.1605606"
       cy="-13.720072"
       rx="4.003201"
       ry="3.8460598"
       transform="matrix(0.03131465,-0.99950958,-0.99989184,-0.01470751,0,0)" /><path
       id="ellipse17"
       style="fill:#a5a28c;fill-opacity:1;stroke:none;stroke-width:0.685737;stroke-dasharray:none;stroke-opacity:1"
       d="m 4.2847253,8.1828732 c 0.3046997,-0.697903 -1.9509545,-0.059641 -2.3175918,0.878824 1.8928136,0.1338786 2.5934803,1.3341108 2.5933546,2.8395678 -1.516e-4,1.140198 -0.3354074,2.175063 -1.6458407,2.646593 0.5070483,0.572648 1.5046088,0.425209 2.194136,0.507048 0.3328611,-1.111632 1.3184455,-2.262664 2.707784,-3.162333 C 7.9030429,11.83672 7.990805,11.78202 8.0797602,11.728531 7.668408,11.535456 7.2723527,11.315992 6.8994147,11.074474 5.6267827,10.250534 4.6879916,9.2123197 4.2847253,8.1828732 Z"
       sodipodi:nodetypes="ccccccccc" /><ellipse
       style="fill:#ffffff;fill-opacity:1;stroke:#4e4a47;stroke-width:0.706855;stroke-dasharray:none;stroke-opacity:1"
       id="ellipse1"
       cx="-2.5764263"
       cy="17.210745"
       rx="5.6128249"
       ry="3.7731273"
       transform="matrix(0.71054534,-0.70365141,0.59950503,0.80037099,0,0)" /><ellipse
       style="fill:#ffffff;fill-opacity:1;stroke:#4e4a47;stroke-width:0.7278;stroke-dasharray:none;stroke-opacity:1"
       id="ellipse4"
       cx="-11.416211"
       cy="0.10833033"
       rx="5.8284183"
       ry="3.8520768"
       transform="matrix(-0.74984229,-0.66161661,-0.64349727,0.76544841,0,0)" /><ellipse
       style="fill:#ffffff;fill-opacity:1;stroke:#4e4a47;stroke-width:0.724039;stroke-dasharray:none;stroke-opacity:1"
       id="ellipse3"
       cx="8.9044161"
       cy="17.775089"
       rx="5.8029881"
       ry="3.8290792"
       transform="matrix(0.75340643,-0.65755513,0.64760122,0.76197944,0,0)" /><ellipse
       style="fill:#a5a28c;fill-opacity:1;stroke:none;stroke-width:0.622858;stroke-dasharray:none;stroke-opacity:1"
       id="ellipse16"
       cx="8.8380661"
       cy="18.427776"
       rx="4.9355884"
       ry="3.3316629"
       transform="matrix(0.70039545,-0.71375501,0.58849421,0.80850143,0,0)" /><ellipse
       style="fill:#a5a28c;fill-opacity:1;stroke:none;stroke-width:0.55108;stroke-linecap:round;stroke-linejoin:round;stroke-dasharray:none;stroke-opacity:1"
       id="path20"
       cx="7.7151399"
       cy="17.235727"
       rx="3.526695"
       ry="2.3334522" /><path
       id="rect22"
       style="fill:#33d233;fill-opacity:1;stroke:#042401;stroke-width:0.663704;stroke-linejoin:round;stroke-dasharray:none;stroke-opacity:1"
       d="m 11.656076,13.541446 c 0,0 2.578875,-6.7293154 2.69625,0 0.117375,6.729315 0.08748,9.733877 1.458424,12.240516 -1.661626,0.505512 -4.38294,0.174678 -5.386818,-0.02733 0.423154,-3.35342 2.699219,-2.824699 1.232144,-12.213183 z"
       sodipodi:nodetypes="czcccc" /><path
       id="path28"
       style="fill:#197319;stroke-width:0.562014;stroke-linecap:round;stroke-linejoin:round"
       d="m 14.145304,18.351451 c 1e-6,0.883124 0.14257,1.18405 -0.857764,1.605051 -0.514018,0.216329 -0.860178,-0.702655 -0.860178,-1.585778 0,-0.883123 0.319214,-1.612293 0.860178,-1.612293 0.540964,0 0.857764,0.709898 0.857764,1.59302 z"
       sodipodi:nodetypes="sssss" /><ellipse
       style="fill:#a5a28c;fill-opacity:1;stroke:none;stroke-width:0.622858;stroke-dasharray:none;stroke-opacity:1"
       id="ellipse15"
       cx="-12.891857"
       cy="-0.8868553"
       rx="4.9355884"
       ry="3.3316629"
       transform="matrix(-0.70039545,-0.71375501,-0.58849421,0.80850143,0,0)" /><path
       style="fill:none;stroke:#4e4a47;stroke-width:0.503237;stroke-linecap:round;stroke-linejoin:round;stroke-dasharray:none;stroke-opacity:1"
       d="M 10.085799,9.2216981 C 8.8590059,8.7449497 7.6318072,8.2692178 6.989787,6.3281673"
       id="path22"
       sodipodi:nodetypes="cc" /><path
       style="fill:none;stroke:#4e4a47;stroke-width:0.503237;stroke-linecap:round;stroke-linejoin:round;stroke-dasharray:none;stroke-opacity:1"
       d="M 17.018953,8.9966981 C 18.245746,8.5199497 19.472945,8.0442178 20.114965,6.1031673"
       id="path23"
       sodipodi:nodetypes="cc" /><path
       style="fill:none;stroke:#4e4a47;stroke-width:0.503237;stroke-linecap:round;stroke-linejoin:round;stroke-dasharray:none;stroke-opacity:1"
       d="m 2.6999999,11.779167 c 1.217439,-0.500154 2.434471,-1.001323 4.2375,-0.0375"
       id="path24"
       sodipodi:nodetypes="cc" /><path
       style="fill:none;stroke:#4e4a47;stroke-width:0.503237;stroke-linecap:round;stroke-linejoin:round;stroke-dasharray:none;stroke-opacity:1"
       d="m 5.6314536,17.767531 c 1.2267933,-0.476748 2.453992,-0.95248 3.0960122,-2.89353"
       id="path26"
       sodipodi:nodetypes="cc" /><path
       style="fill:none;stroke:#4e4a47;stroke-width:0.503237;stroke-linecap:round;stroke-linejoin:round;stroke-dasharray:none;stroke-opacity:1"
       d="m 18.681454,13.749001 c 1.226793,0.476748 2.453992,0.95248 3.096012,2.89353"
       id="path27"
       sodipodi:nodetypes="cc" /><path
       id="ellipse20"
       style="fill:#78745f;stroke-width:0.419036;fill-opacity:1"
       d="m 15.849309,16.263002 c -0.269422,1.157151 0.834168,2.764691 2.603714,3.590542 1.769547,0.825851 3.363303,0.545496 4.198132,-0.299873 0.513172,-0.519652 0.947082,-4.002193 -0.578715,-4.134293 -1.945496,-0.168437 -5.953708,-0.313528 -6.223131,0.843624 z"
       sodipodi:nodetypes="sssss" /><ellipse
       style="fill:#f4bb12;fill-opacity:1;stroke:#954800;stroke-width:0.985;stroke-dasharray:none;stroke-opacity:1"
       id="path3"
       cx="13.401209"
       cy="11.126051"
       rx="6.1324"
       ry="6.2593389" /><ellipse
       style="fill:#f6ec35;fill-opacity:1;stroke:none;stroke-width:0.668408;stroke-linecap:round;stroke-linejoin:round;stroke-dasharray:none;stroke-opacity:1"
       id="path30"
       cx="0.75019187"
       cy="15.609129"
       rx="4.7867455"
       ry="3.4335697"
       transform="matrix(0.56247211,-0.82681626,0.71023827,0.70396136,0,0)" /><g
       id="g1"
       transform="matrix(1.0149818,-0.05073107,0.05753995,1.1512077,-16.185478,11.654757)"><path
         id="path13"
         style="fill:#ffffff;fill-opacity:1;stroke:#512800;stroke-width:0.503236;stroke-dasharray:none;stroke-opacity:1"
         d="M 33.816453,1.348863 A 3.5019681,5.920428 84.739757 0 1 29.184965,3.2199408 3.5019681,5.920428 84.739757 0 1 24.491507,2.3534652 4.3047551,4.7168519 84.739762 0 0 29.497732,5.6787145 4.3047551,4.7168519 84.739762 0 0 33.816453,1.348863 Z" /><path
         style="fill:#ffffff;fill-opacity:1;stroke:#512800;stroke-width:0.503236;stroke-dasharray:none;stroke-opacity:1"
         d="m 29.118561,3.1957913 0.266863,2.4260733"
         id="path14" /><path
         style="fill:#ffffff;fill-opacity:1;stroke:#512800;stroke-width:0.503236;stroke-dasharray:none;stroke-opacity:1"
         d="m 30.80461,2.8512095 0.266863,2.4260733"
         id="path15" /><path
         style="fill:#ffffff;fill-opacity:1;stroke:#512800;stroke-width:0.503236;stroke-dasharray:none;stroke-opacity:1"
         d="m 27.571003,3.160915 0.266863,2.4260733"
         id="path16" /><path
         style="fill:#ffffff;fill-opacity:1;stroke:#512800;stroke-width:0.503236;stroke-dasharray:none;stroke-opacity:1"
         d="m 25.908302,2.9112769 0.206114,1.7570163"
         id="path18" /><path
         style="fill:#ffffff;fill-opacity:1;stroke:#512800;stroke-width:0.503236;stroke-dasharray:none;stroke-opacity:1"
         d="m 32.221584,2.4918285 0.206115,1.7570163"
         id="path21" /></g><path
       id="path77"
       style="fill:#33d233;stroke:#042401;stroke-width:0.717176"
       d="m 11.506272,20.830268 c 0.62396,0.837381 -0.418233,0.08178 -4.7959445,0.0507 -2.3511583,-0.01667 -3.417713,-2.497682 -2.9040996,-3.543706 0.5136135,-1.046023 2.6536942,-1.112056 4.7800028,-0.147489 2.1263083,0.964567 2.2193463,2.700131 2.9200413,3.640495 z"
       sodipodi:nodetypes="sssss" /><path
       id="path29"
       style="fill:#197319;stroke-width:0.468259;stroke-linecap:round;stroke-linejoin:round"
       transform="matrix(0.98043987,0.19681887,-0.2645851,0.96436234,0,0)"
       d="m 14.805341,17.65896 c 2.811559,0.818755 -0.761757,0.809096 -2.458936,1.007316 -1.511871,0.176576 -3.0972794,-0.384643 -3.0972793,-1.007316 -1e-7,-0.622673 1.2438013,-1.127449 2.7781073,-1.127449 1.534307,0 2.168775,0.950005 2.778108,1.127449 z"
       sodipodi:nodetypes="sssss" /><path
       style="fill:none;fill-opacity:1;stroke:#042401;stroke-width:0.542553;stroke-dasharray:none;stroke-opacity:1"
       d="m 5.1161715,18.17783 c 2.7801893,0.0776 4.5597703,1.196024 5.9947525,2.672893"
       id="path78"
       sodipodi:nodetypes="cc" /><path
       style="fill:none;stroke:#4e4a47;stroke-width:0.503237;stroke-linecap:round;stroke-linejoin:round;stroke-dasharray:none;stroke-opacity:1"
       d="m 11.325,3.4541666 c 1.217439,-0.5001532 2.434471,-1.0013224 4.2375,-0.0375"
       id="path5"
       sodipodi:nodetypes="cc" /><path
       id="path6"
       style="fill:#33d233;stroke:#042401;stroke-width:0.717176"
       d="m 15.211795,18.795893 c -0.62396,0.837381 0.366671,0.09115 4.744382,0.06007 2.351158,-0.01667 3.417713,-2.497682 2.904099,-3.543706 -0.513613,-1.046023 -2.653694,-1.112056 -4.780002,-0.147489 -2.126309,0.964567 -2.167784,2.690756 -2.868479,3.631121 z"
       sodipodi:nodetypes="sssss" /><path
       id="ellipse29"
       style="fill:#197319;stroke-width:0.429282;stroke-linecap:round;stroke-linejoin:round"
       transform="matrix(-0.9295042,0.36881153,0.49412925,0.86938846,0,0)"
       d="m -4.7683643,23.419723 c -1e-6,0.533326 -0.8259252,3.19e-4 -3.4446989,0.903913 -1.3659974,0.47133 -2.7260168,-0.432346 -2.7260178,-0.965672 -1e-6,-0.533326 1.2204793,-0.965673 2.7260178,-0.965673 1.5055386,0 3.4446995,0.494105 3.4446989,1.027432 z"
       sodipodi:nodetypes="sssss" /><path
       style="fill:none;fill-opacity:1;stroke:#042401;stroke-width:0.542553;stroke-dasharray:none;stroke-opacity:1"
       d="m 21.550333,16.15283 c -2.78019,0.0776 -4.55977,1.196024 -5.994753,2.672893"
       id="path7"
       sodipodi:nodetypes="cc" /><path
       id="path9421"
       style="fill:#ffffff;fill-opacity:1;stroke:#512800;stroke-width:0.60146;stroke-miterlimit:4;stroke-dasharray:none;stroke-opacity:1"
       d="M 9.9660904,7.1281042 C 9.5898832,7.5289741 9.0950818,8.350575 8.9166289,8.9180909 8.4168772,10.507812 8.9447505,12.089828 10.095709,12.45175 11.246681,12.813634 12.584933,11.818392 13.084887,10.228735 13.263329,9.6612156 13.316331,9.0681703 13.237234,8.524137 11.916619,8.2669242 10.978213,7.5426003 9.9660904,7.1281042 Z"
       sodipodi:nodetypes="cccccc" /><g
       id="g12"
       transform="translate(-0.39375,0.225)"><ellipse
         style="fill:#512800;fill-opacity:1;stroke:none;stroke-width:1.33846"
         id="path4-8"
         cx="13.700733"
         cy="5.7382927"
         rx="1.4049872"
         ry="1.4606799"
         transform="rotate(17.454944)" /><path
         id="ellipse6"
         style="fill:#954800;fill-opacity:1;stroke:none;stroke-width:1.33846"
         d="m 10.907692,8.2113418 a 1.4049871,1.4606797 17.454949 0 0 -0.899185,0.9511198 1.4049871,1.4606797 17.454949 0 0 0.902259,1.8148114 1.4049871,1.4606797 17.454949 0 0 1.332139,-0.288751 1.4049871,1.4606797 17.454949 0 1 -0.878687,0.02097 1.4049871,1.4606797 17.454949 0 1 -0.902258,-1.8148114 1.4049871,1.4606797 17.454949 0 1 0.445732,-0.6833358 z" /><ellipse
         style="fill:#ffffff;fill-opacity:1;stroke:none;stroke-width:0.531597"
         id="ellipse5"
         cx="13.208241"
         cy="4.8522134"
         rx="0.56705737"
         ry="0.57088196"
         transform="rotate(17.454944)" /></g><path
       id="path10"
       style="fill:#ffffff;fill-opacity:1;stroke:#512800;stroke-width:0.60146;stroke-miterlimit:4;stroke-dasharray:none;stroke-opacity:1"
       d="m 16.991701,6.6280515 c 0.379035,0.3981965 0.864229,1.2044313 1.046695,1.7706696 0.510994,1.5861434 -0.0057,3.1718569 -1.154035,3.5419179 -1.148381,0.370023 -2.493645,-0.61572 -3.00484,-2.2017983 -0.182455,-0.5662419 -0.239654,-1.158897 -0.16441,-1.7034766 1.335516,-0.3334342 2.127066,-1.2952942 3.27659,-1.4073126 z"
       sodipodi:nodetypes="cccccc" /><g
       id="g13"
       transform="translate(4.5375001)"><ellipse
         style="fill:#512800;fill-opacity:1;stroke:none;stroke-width:1.33846"
         id="ellipse12"
         cx="13.700733"
         cy="5.7382927"
         rx="1.4049872"
         ry="1.4606799"
         transform="rotate(17.454944)" /><path
         id="path12"
         style="fill:#954800;fill-opacity:1;stroke:none;stroke-width:1.33846"
         d="m 10.907692,8.2113418 a 1.4049871,1.4606797 17.454949 0 0 -0.899185,0.9511198 1.4049871,1.4606797 17.454949 0 0 0.902259,1.8148114 1.4049871,1.4606797 17.454949 0 0 1.332139,-0.288751 1.4049871,1.4606797 17.454949 0 1 -0.878687,0.02097 1.4049871,1.4606797 17.454949 0 1 -0.902258,-1.8148114 1.4049871,1.4606797 17.454949 0 1 0.445732,-0.6833358 z" /><ellipse
         style="fill:#ffffff;fill-opacity:1;stroke:none;stroke-width:0.531597"
         id="ellipse13"
         cx="13.208241"
         cy="4.8522134"
         rx="0.56705737"
         ry="0.57088196"
         transform="rotate(17.454944)" /></g><path
       style="fill:none;stroke:#4e4a47;stroke-width:0.464041;stroke-linecap:round;stroke-linejoin:round;stroke-dasharray:none;stroke-opacity:1"
       d="m 20.455121,11.64844 c 0.970291,-0.533602 1.940256,-1.068288 3.377258,-0.04001"
       id="path25"
       sodipodi:nodetypes="cc" /><path
       style="fill:none;stroke:#042401;stroke-width:0.476596;stroke-linecap:round;stroke-linejoin:round;stroke-dasharray:none;stroke-opacity:1"
       d="m 11.576832,24.45095 c 0.837594,0.652036 1.674909,1.305397 2.915388,0.04889"
       id="path31"
       sodipodi:nodetypes="cc" /></g></svg>
