<?xml version="1.0" encoding="UTF-8" standalone="no"?>
<!-- Created with Inkscape (http://www.inkscape.org/) -->

<svg
   width="100"
   height="100"
   viewBox="0 0 26.458333 26.458333"
   version="1.1"
   id="svg1"
   inkscape:version="1.4.2 (ebf0e940d0, 2025-05-08)"
   sodipodi:docname="flowy[0][1].svg"
   xml:space="preserve"
   xmlns:inkscape="http://www.inkscape.org/namespaces/inkscape"
   xmlns:sodipodi="http://sodipodi.sourceforge.net/DTD/sodipodi-0.dtd"
   xmlns="http://www.w3.org/2000/svg"
   xmlns:svg="http://www.w3.org/2000/svg"><sodipodi:namedview
     id="namedview1"
     pagecolor="#505050"
     bordercolor="#eeeeee"
     borderopacity="1"
     inkscape:showpageshadow="0"
     inkscape:pageopacity="0"
     inkscape:pagecheckerboard="0"
     inkscape:deskcolor="#505050"
     inkscape:document-units="px"
     inkscape:zoom="7.0555554"
     inkscape:cx="46.559056"
     inkscape:cy="97.157482"
     inkscape:window-width="1366"
     inkscape:window-height="697"
     inkscape:window-x="0"
     inkscape:window-y="0"
     inkscape:window-maximized="1"
     inkscape:current-layer="layer1" /><defs
     id="defs1"><linearGradient
       id="linearGradient13895"
       inkscape:swatch="solid"><stop
         style="stop-color:#000000;stop-opacity:1;"
         offset="0"
         id="stop13893" /></linearGradient><filter
       style="color-interpolation-filters:sRGB;"
       inkscape:label="Clean Edges"
       id="filter14269"
       x="-0.31154084"
       y="-0.29580634"
       width="1.6230817"
       height="1.5916127"><feGaussianBlur
         stdDeviation="0.204612"
         result="blur"
         id="feGaussianBlur14263" /><feComposite
         in="SourceGraphic"
         in2="blur"
         operator="in"
         result="composite1"
         id="feComposite14265" /><feComposite
         in="composite1"
         in2="composite1"
         operator="in"
         result="composite2"
         id="feComposite14267" /></filter><inkscape:path-effect
       effect="fillet_chamfer"
       id="path-effect68"
       is_visible="true"
       lpeversion="1"
       nodesatellites_param="F,0,0,1,0,0,0,1 @ F,0,0,1,0,0,0,1 @ F,0,0,1,0,0,0,1 @ F,0,0,1,0,0,0,1 @ F,0,0,1,0,0,0,1 @ F,0,0,1,0,0,0,1 @ F,0,0,1,0,0,0,1 @ F,0,0,1,0,0,0,1 @ F,0,0,1,0,0,0,1"
       radius="0"
       unit="px"
       method="auto"
       mode="F"
       chamfer_steps="1"
       flexible="false"
       use_knot_distance="true"
       apply_no_radius="true"
       apply_with_radius="true"
       only_selected="false"
       hide_knots="false" /><inkscape:path-effect
       effect="fillet_chamfer"
       id="path-effect66"
       is_visible="true"
       lpeversion="1"
       nodesatellites_param="F,0,0,1,0,0,0,1 @ F,0,0,1,0,0.44929322,0,1 @ F,0,0,1,0,0.44929322,0,1 @ F,0,0,1,0,0,0,1 @ F,0,0,1,0,0,0,1 @ F,0,0,1,0,0,0,1 @ F,0,0,1,0,0,0,1 @ F,0,0,1,0,0,0,1 @ F,0,0,1,0,0,0,1 @ F,0,0,1,0,0,0,1"
       radius="0"
       unit="px"
       method="auto"
       mode="F"
       chamfer_steps="1"
       flexible="false"
       use_knot_distance="true"
       apply_no_radius="true"
       apply_with_radius="true"
       only_selected="false"
       hide_knots="false" /><inkscape:path-effect
       effect="fillet_chamfer"
       id="path-effect68-7"
       is_visible="true"
       lpeversion="1"
       nodesatellites_param="F,0,0,1,0,0,0,1 @ F,0,0,1,0,0,0,1 @ F,0,0,1,0,0,0,1 @ F,0,0,1,0,0,0,1 @ F,0,0,1,0,0,0,1 @ F,0,0,1,0,0,0,1 @ F,0,0,1,0,0,0,1 @ F,0,0,1,0,0,0,1 @ F,0,0,1,0,0,0,1"
       radius="0"
       unit="px"
       method="auto"
       mode="F"
       chamfer_steps="1"
       flexible="false"
       use_knot_distance="true"
       apply_no_radius="true"
       apply_with_radius="true"
       only_selected="false"
       hide_knots="false" /><inkscape:path-effect
       effect="fillet_chamfer"
       id="path-effect66-5"
       is_visible="true"
       lpeversion="1"
       nodesatellites_param="F,0,0,1,0,0,0,1 @ F,0,0,1,0,0.44929322,0,1 @ F,0,0,1,0,0.44929322,0,1 @ F,0,0,1,0,0,0,1 @ F,0,0,1,0,0,0,1 @ F,0,0,1,0,0,0,1 @ F,0,0,1,0,0,0,1 @ F,0,0,1,0,0,0,1 @ F,0,0,1,0,0,0,1 @ F,0,0,1,0,0,0,1"
       radius="0"
       unit="px"
       method="auto"
       mode="F"
       chamfer_steps="1"
       flexible="false"
       use_knot_distance="true"
       apply_no_radius="true"
       apply_with_radius="true"
       only_selected="false"
       hide_knots="false" /><inkscape:path-effect
       effect="fillet_chamfer"
       id="path-effect68-3"
       is_visible="true"
       lpeversion="1"
       nodesatellites_param="F,0,0,1,0,0,0,1 @ F,0,0,1,0,0,0,1 @ F,0,0,1,0,0,0,1 @ F,0,0,1,0,0,0,1 @ F,0,0,1,0,0,0,1 @ F,0,0,1,0,0,0,1 @ F,0,0,1,0,0,0,1 @ F,0,0,1,0,0,0,1 @ F,0,0,1,0,0,0,1"
       radius="0"
       unit="px"
       method="auto"
       mode="F"
       chamfer_steps="1"
       flexible="false"
       use_knot_distance="true"
       apply_no_radius="true"
       apply_with_radius="true"
       only_selected="false"
       hide_knots="false" /><inkscape:path-effect
       effect="fillet_chamfer"
       id="path-effect66-6"
       is_visible="true"
       lpeversion="1"
       nodesatellites_param="F,0,0,1,0,0,0,1 @ F,0,0,1,0,0.44929322,0,1 @ F,0,0,1,0,0.44929322,0,1 @ F,0,0,1,0,0,0,1 @ F,0,0,1,0,0,0,1 @ F,0,0,1,0,0,0,1 @ F,0,0,1,0,0,0,1 @ F,0,0,1,0,0,0,1 @ F,0,0,1,0,0,0,1 @ F,0,0,1,0,0,0,1"
       radius="0"
       unit="px"
       method="auto"
       mode="F"
       chamfer_steps="1"
       flexible="false"
       use_knot_distance="true"
       apply_no_radius="true"
       apply_with_radius="true"
       only_selected="false"
       hide_knots="false" /><filter
       style="color-interpolation-filters:sRGB;"
       inkscape:label="Clean Edges"
       id="filter14269-5"
       x="-0.31154084"
       y="-0.29580634"
       width="1.6230817"
       height="1.5916127"><feGaussianBlur
         stdDeviation="0.204612"
         result="blur"
         id="feGaussianBlur14263-6" /><feComposite
         in="SourceGraphic"
         in2="blur"
         operator="in"
         result="composite1"
         id="feComposite14265-2" /><feComposite
         in="composite1"
         in2="composite1"
         operator="in"
         result="composite2"
         id="feComposite14267-9" /></filter></defs><g
     inkscape:label="Camada 1"
     inkscape:groupmode="layer"
     id="layer1"><path
       id="rect22"
       style="fill:#1c7e1c;fill-opacity:1;stroke:#042401;stroke-width:0.663704;stroke-linejoin:round;stroke-dasharray:none;stroke-opacity:1"
       d="m 11.656076,13.541446 c 0,0 5.124459,-6.2520183 5.241834,0.477297 0.117375,6.729315 -2.458104,9.25658 -1.08716,11.763219 -1.661626,0.505512 -4.38294,0.174678 -5.386818,-0.02733 0.423154,-3.35342 4.926605,-2.6656 3.45953,-12.054084 z"
       sodipodi:nodetypes="czcccc" /><path
       id="path28"
       style="fill:#042401;fill-opacity:1;stroke-width:0.815093;stroke-linecap:round;stroke-linejoin:round"
       d="m 16.637469,17.524607 c 1e-6,1.202114 0.220304,1.611736 -1.325453,2.184806 -0.79428,0.294468 -0.996495,-0.98668 -1.134769,-2.185088 -0.155529,-1.347953 0.29885,-2.168147 1.134769,-2.168147 0.83592,0 1.325453,0.966318 1.325453,2.168429 z"
       sodipodi:nodetypes="sssss" /><path
       style="fill:none;stroke:#042401;stroke-width:0.476596;stroke-linecap:round;stroke-linejoin:round;stroke-dasharray:none;stroke-opacity:1"
       d="m 11.576832,24.45095 c 0.837594,0.652036 1.674909,1.305397 2.915388,0.04889"
       id="path31"
       sodipodi:nodetypes="cc" /><path
       sodipodi:type="star"
       style="fill:#042401;fill-opacity:1;stroke:none;stroke-width:0.518583;stroke-linecap:round;stroke-linejoin:round;stroke-dasharray:none;stroke-opacity:1"
       id="path8"
       inkscape:flatsided="true"
       sodipodi:sides="3"
       sodipodi:cx="18.15"
       sodipodi:cy="17.775"
       sodipodi:r1="1.9814767"
       sodipodi:r2="0.99073833"
       sodipodi:arg1="0.51445131"
       sodipodi:arg2="1.5616489"
       inkscape:rounded="0"
       inkscape:randomized="0"
       d="m 19.875,18.75 -3.431875,0.03139 1.688749,-2.987787 z"
       inkscape:transform-center-x="-0.40549683"
       inkscape:transform-center-y="-0.2499949"
       transform="matrix(-0.15053427,0.65658482,-1.0611542,-0.25834865,39.145177,11.171807)" /><path
       sodipodi:type="star"
       style="fill:#042401;fill-opacity:1;stroke:none;stroke-width:0.518583;stroke-linecap:round;stroke-linejoin:round;stroke-dasharray:none;stroke-opacity:1"
       id="path9"
       inkscape:flatsided="true"
       sodipodi:sides="3"
       sodipodi:cx="18.15"
       sodipodi:cy="17.775"
       sodipodi:r1="1.9814767"
       sodipodi:r2="0.99073833"
       sodipodi:arg1="0.51445131"
       sodipodi:arg2="1.5616489"
       inkscape:rounded="0"
       inkscape:randomized="0"
       d="m 19.875,18.75 -3.431875,0.03139 1.688749,-2.987787 z"
       inkscape:transform-center-x="0.049562476"
       inkscape:transform-center-y="0.063563535"
       transform="matrix(-0.37865187,0.43932677,0.771589,0.61879231,3.5322503,4.4061979)" /><g
       id="g1"
       transform="rotate(15.716451,14.393097,23.860033)"><path
         id="ellipse1"
         style="fill:#ff3333;fill-opacity:1;stroke:#6a0000;stroke-width:1.20377;stroke-opacity:1"
         d="m 6.2903679,8.2044936 c 0.4117748,4.7625704 3.0671062,8.0940274 7.3947251,8.0626054 3.924349,-0.0285 6.685084,-4.675443 6.848425,-9.4539958 C 20.694923,2.0911831 18.715327,1.09555 13.846166,1.0132212 7.227834,0.90131716 5.8601137,3.2281916 6.2903679,8.2044936 Z"
         sodipodi:nodetypes="sssss" /><path
         id="ellipse4"
         style="fill:#ff1515;fill-opacity:1;stroke:#6a0000;stroke-width:1.27896"
         transform="matrix(-0.99920919,0.0397616,0.1161412,0.99323271,0,0)"
         d="m -6.3017535,4.4048038 c 0,1.717425 -3.0420426,0.5464233 -6.6327895,1.2899842 -3.582938,0.7419436 -6.846673,0.4274407 -6.846673,-1.2899842 0,-1.717425 3.01748,-3.109673 6.739731,-3.1096731 3.722251,-1e-7 6.7397316,1.3922481 6.7397315,3.1096731 z"
         sodipodi:nodetypes="sssss" /><g
         id="g2"
         transform="matrix(1.0361081,-0.07149458,0.07266722,1.0193884,-1.772048,0.36846299)"><path
           id="path10"
           style="fill:#ffffff;fill-opacity:1;stroke:#6a0000;stroke-width:0.60146;stroke-miterlimit:4;stroke-dasharray:none;stroke-opacity:1"
           d="m 18.344457,7.6657806 c 0.240152,0.4945245 0.457487,1.4100536 0.459311,2.004962 0.005,1.6664164 -0.969017,3.0202174 -2.175501,3.0239334 -1.206517,0.0037 -2.18874,-1.34417 -2.193937,-3.010584 -0.0018,-0.5949088 0.123736,-1.1769305 0.360864,-1.6729142 1.373691,0.088044 2.420037,-0.5878899 3.549263,-0.3453972 z"
           sodipodi:nodetypes="cccccc" /><ellipse
           style="fill:#6a0000;fill-opacity:1;stroke:none;stroke-width:1.33846"
           id="ellipse12"
           cx="19.245239"
           cy="-1.1389633"
           rx="1.4049872"
           ry="1.4606799"
           transform="rotate(35.140464)" /><path
           id="path12"
           style="fill:#ff2169;fill-opacity:1;stroke:none;stroke-width:1.33846"
           d="m 16.390047,8.7044239 a 1.4049871,1.4606797 35.140469 0 0 -1.145631,0.6330028 1.4049871,1.4606797 35.140469 0 0 0.308291,2.0031393 1.4049871,1.4606797 35.140469 0 0 1.3569,0.12959 1.4049871,1.4606797 35.140469 0 1 -0.843529,-0.24696 1.4049871,1.4606797 35.140469 0 1 -0.30829,-2.003139 1.4049871,1.4606797 35.140469 0 1 0.632258,-0.5156303 z" /><ellipse
           style="fill:#ffffff;fill-opacity:1;stroke:none;stroke-width:0.531597"
           id="ellipse13"
           cx="18.752747"
           cy="-2.0250428"
           rx="0.56705737"
           ry="0.57088196"
           transform="rotate(35.140464)" /></g><path
         id="path2"
         style="fill:#ffffff;fill-opacity:1;stroke:#6a0000;stroke-width:0.623745;stroke-miterlimit:4;stroke-dasharray:none;stroke-opacity:1"
         d="M 9.08577,6.832748 C 8.7766496,7.3093492 8.4405258,8.2186008 8.3669689,8.8259329 c -0.205929,1.7012301 0.643132,3.1991021 1.8963871,3.3457261 1.253291,0.146611 2.436317,-1.113617 2.64245,-2.8148211 0.07353,-0.607335 0.01319,-1.216584 -0.173471,-1.7511777 C 11.294276,7.5329515 10.288401,6.7187857 9.08577,6.832748 Z"
         sodipodi:nodetypes="cccccc" /><ellipse
         style="fill:#6a0000;fill-opacity:1;stroke:none;stroke-width:1.38813"
         id="ellipse2"
         cx="-4.8191595"
         cy="13.561691"
         rx="1.4640177"
         ry="1.5077442"
         transform="matrix(-0.88202302,0.47120631,0.48401058,0.87506215,0,0)" /><path
         id="path3"
         style="fill:#ff2169;fill-opacity:1;stroke:none;stroke-width:1.38805"
         d="M 10.505883,8.1810799 A 1.4614444,1.5102383 41.706916 0 0 9.391665,8.9631562 1.4614444,1.5102383 41.706916 0 0 9.953316,10.972358 1.4614444,1.5102383 41.706916 0 0 11.378932,10.944068 1.4614444,1.5102383 41.706916 0 1 10.472641,10.791721 1.4614444,1.5102383 41.706916 0 1 9.910991,8.7825197 1.4614444,1.5102383 41.706916 0 1 10.505882,8.1810848 Z" /><ellipse
         style="fill:#ffffff;fill-opacity:1;stroke:none;stroke-width:0.551323"
         id="ellipse3"
         cx="-5.3323445"
         cy="12.647062"
         rx="0.5908823"
         ry="0.58927625"
         transform="matrix(-0.88202302,0.47120631,0.48401058,0.87506215,0,0)" /><path
         id="path4"
         style="fill:#ff1515;fill-opacity:1;stroke:#6a0000;stroke-width:0.659119;stroke-linecap:round;stroke-linejoin:round;stroke-dasharray:none;stroke-opacity:1"
         d="m 16.470499,13.928678 c -0.157219,-0.735982 -1.384292,-1.165508 -2.740747,-0.959375 -1.356455,0.206133 -2.328627,0.969866 -2.171408,1.705848 0.157219,0.73598 1.362189,0.564825 2.718643,0.358692 1.356455,-0.206133 2.350725,-0.369214 2.193512,-1.105165 z"
         sodipodi:nodetypes="sssss" /><path
         style="fill:#ff1515;fill-opacity:1;stroke:#6a0000;stroke-width:0.410582;stroke-linecap:round;stroke-linejoin:round;stroke-dasharray:none;stroke-opacity:1"
         d="m 11.911021,14.685211 c 1.143922,-0.507974 2.2873,-1.016544 4.217063,-0.665898"
         id="path5"
         sodipodi:nodetypes="cc" /><path
         style="fill:#ff1515;fill-opacity:1;stroke:#6a0000;stroke-width:0.518583;stroke-linecap:round;stroke-linejoin:round;stroke-dasharray:none;stroke-opacity:1"
         d="m 8.6974133,3.7388271 c 0,0 3.6042067,-1.0286336 4.8260037,-0.8750446 1.221797,0.153589 1.785013,0.9447 2.757717,0.9545942 0.631681,0.00643 1.786335,0.048128 1.803122,-0.5833632 0.03019,-1.1355179 -2.166872,-0.3744131 -3.208497,-0.9545942 -1.066615,-0.5941012 -3.632761,-0.106066 -3.632761,-0.106066"
         id="path6"
         sodipodi:nodetypes="czsssc" /><path
         style="fill:none;stroke:#2f0000;stroke-width:0.429858;stroke-linecap:round;stroke-linejoin:round;stroke-dasharray:none;stroke-opacity:1"
         d="M 9.5689483,4.5303552 C 8.9090729,5.2036305 8.2478566,5.8766814 9.5194703,6.8738036"
         id="path11"
         sodipodi:nodetypes="cc" /><path
         style="fill:none;stroke:#2f0000;stroke-width:0.429858;stroke-linecap:round;stroke-linejoin:round;stroke-dasharray:none;stroke-opacity:1"
         d="M 10.637698,4.8303552 C 9.9778233,5.5036305 9.3166066,6.1766814 10.58822,7.1738036"
         id="path13"
         sodipodi:nodetypes="cc" /><path
         style="fill:none;stroke:#2f0000;stroke-width:0.429858;stroke-linecap:round;stroke-linejoin:round;stroke-dasharray:none;stroke-opacity:1"
         d="M 11.837698,5.1303552 C 11.177823,5.8036305 10.516606,6.4766814 11.78822,7.4738036"
         id="path14"
         sodipodi:nodetypes="cc" /><path
         style="fill:none;stroke:#2f0000;stroke-width:0.382975;stroke-linecap:round;stroke-linejoin:round;stroke-dasharray:none;stroke-opacity:1"
         d="m 17.475988,5.0650633 c 0.670038,0.5263148 1.341437,1.0524542 0.05024,1.8319275"
         id="path15"
         sodipodi:nodetypes="cc" /><path
         style="fill:none;stroke:#2f0000;stroke-width:0.382975;stroke-linecap:round;stroke-linejoin:round;stroke-dasharray:none;stroke-opacity:1"
         d="m 16.390779,5.2995802 c 0.670037,0.5263148 1.341437,1.0524542 0.05024,1.8319275"
         id="path16"
         sodipodi:nodetypes="cc" /><path
         style="fill:none;stroke:#2f0000;stroke-width:0.382975;stroke-linecap:round;stroke-linejoin:round;stroke-dasharray:none;stroke-opacity:1"
         d="m 15.172298,5.5340971 c 0.670037,0.5263148 1.341437,1.0524541 0.05024,1.8319275"
         id="path17"
         sodipodi:nodetypes="cc" /></g><g
       id="g3"
       transform="rotate(-27.351675,10.723126,17.739351)"><path
         id="path77"
         style="fill:#1c7e1c;fill-opacity:1;stroke:#042401;stroke-width:0.717176"
         d="m 13.362427,19.027146 c 0.62396,0.837381 -0.418233,0.08178 -4.7959442,0.0507 -2.3511583,-0.01667 -3.417713,-2.497682 -2.9040996,-3.543706 0.5136135,-1.046023 2.6536942,-1.112056 4.7800028,-0.147489 2.126308,0.964567 2.219346,2.700131 2.920041,3.640495 z"
         sodipodi:nodetypes="sssss" /><path
         id="path29"
         style="fill:#4ad84a;fill-opacity:1;stroke-width:0.467691;stroke-linecap:round;stroke-linejoin:round"
         d="m 11.699604,18.140484 c 2.539934,1.342945 -0.960931,0.630334 -2.6773595,0.487453 -1.529018,-0.127282 -2.9349254,-0.980538 -2.7701753,-1.581021 0.1647499,-0.600482 1.5177786,-0.842466 3.0220734,-0.540485 1.5042954,0.30198 1.8749964,1.343005 2.4254614,1.634053 z"
         sodipodi:nodetypes="sssss" /><path
         style="fill:none;fill-opacity:1;stroke:#042401;stroke-width:0.542553;stroke-dasharray:none;stroke-opacity:1"
         d="m 6.9723268,16.374708 c 2.7801893,0.0776 4.5597702,1.196024 5.9947522,2.672893"
         id="path78"
         sodipodi:nodetypes="cc" /></g></g></svg>
