<?xml version="1.0" encoding="UTF-8" standalone="no"?>
<!-- Created with Inkscape (http://www.inkscape.org/) -->

<svg
   width="100"
   height="100"
   viewBox="0 0 26.458333 26.458333"
   version="1.1"
   id="svg1"
   inkscape:version="1.4.2 (ebf0e940d0, 2025-05-08)"
   sodipodi:docname="flow[0][2].svg"
   xml:space="preserve"
   xmlns:inkscape="http://www.inkscape.org/namespaces/inkscape"
   xmlns:sodipodi="http://sodipodi.sourceforge.net/DTD/sodipodi-0.dtd"
   xmlns="http://www.w3.org/2000/svg"
   xmlns:svg="http://www.w3.org/2000/svg"><sodipodi:namedview
     id="namedview1"
     pagecolor="#505050"
     bordercolor="#eeeeee"
     borderopacity="1"
     inkscape:showpageshadow="0"
     inkscape:pageopacity="0"
     inkscape:pagecheckerboard="0"
     inkscape:deskcolor="#505050"
     inkscape:document-units="px"
     inkscape:zoom="9.9780623"
     inkscape:cx="65.493678"
     inkscape:cy="69.903352"
     inkscape:window-width="1366"
     inkscape:window-height="697"
     inkscape:window-x="0"
     inkscape:window-y="0"
     inkscape:window-maximized="1"
     inkscape:current-layer="layer1" /><defs
     id="defs1"><linearGradient
       id="linearGradient13895"
       inkscape:swatch="solid"><stop
         style="stop-color:#000000;stop-opacity:1;"
         offset="0"
         id="stop13893" /></linearGradient><filter
       style="color-interpolation-filters:sRGB;"
       inkscape:label="Clean Edges"
       id="filter14269"
       x="-0.31154084"
       y="-0.29580634"
       width="1.6230817"
       height="1.5916127"><feGaussianBlur
         stdDeviation="0.204612"
         result="blur"
         id="feGaussianBlur14263" /><feComposite
         in="SourceGraphic"
         in2="blur"
         operator="in"
         result="composite1"
         id="feComposite14265" /><feComposite
         in="composite1"
         in2="composite1"
         operator="in"
         result="composite2"
         id="feComposite14267" /></filter><inkscape:path-effect
       effect="fillet_chamfer"
       id="path-effect68"
       is_visible="true"
       lpeversion="1"
       nodesatellites_param="F,0,0,1,0,0,0,1 @ F,0,0,1,0,0,0,1 @ F,0,0,1,0,0,0,1 @ F,0,0,1,0,0,0,1 @ F,0,0,1,0,0,0,1 @ F,0,0,1,0,0,0,1 @ F,0,0,1,0,0,0,1 @ F,0,0,1,0,0,0,1 @ F,0,0,1,0,0,0,1"
       radius="0"
       unit="px"
       method="auto"
       mode="F"
       chamfer_steps="1"
       flexible="false"
       use_knot_distance="true"
       apply_no_radius="true"
       apply_with_radius="true"
       only_selected="false"
       hide_knots="false" /><inkscape:path-effect
       effect="fillet_chamfer"
       id="path-effect66"
       is_visible="true"
       lpeversion="1"
       nodesatellites_param="F,0,0,1,0,0,0,1 @ F,0,0,1,0,0.44929322,0,1 @ F,0,0,1,0,0.44929322,0,1 @ F,0,0,1,0,0,0,1 @ F,0,0,1,0,0,0,1 @ F,0,0,1,0,0,0,1 @ F,0,0,1,0,0,0,1 @ F,0,0,1,0,0,0,1 @ F,0,0,1,0,0,0,1 @ F,0,0,1,0,0,0,1"
       radius="0"
       unit="px"
       method="auto"
       mode="F"
       chamfer_steps="1"
       flexible="false"
       use_knot_distance="true"
       apply_no_radius="true"
       apply_with_radius="true"
       only_selected="false"
       hide_knots="false" /><inkscape:path-effect
       effect="fillet_chamfer"
       id="path-effect68-7"
       is_visible="true"
       lpeversion="1"
       nodesatellites_param="F,0,0,1,0,0,0,1 @ F,0,0,1,0,0,0,1 @ F,0,0,1,0,0,0,1 @ F,0,0,1,0,0,0,1 @ F,0,0,1,0,0,0,1 @ F,0,0,1,0,0,0,1 @ F,0,0,1,0,0,0,1 @ F,0,0,1,0,0,0,1 @ F,0,0,1,0,0,0,1"
       radius="0"
       unit="px"
       method="auto"
       mode="F"
       chamfer_steps="1"
       flexible="false"
       use_knot_distance="true"
       apply_no_radius="true"
       apply_with_radius="true"
       only_selected="false"
       hide_knots="false" /><inkscape:path-effect
       effect="fillet_chamfer"
       id="path-effect66-5"
       is_visible="true"
       lpeversion="1"
       nodesatellites_param="F,0,0,1,0,0,0,1 @ F,0,0,1,0,0.44929322,0,1 @ F,0,0,1,0,0.44929322,0,1 @ F,0,0,1,0,0,0,1 @ F,0,0,1,0,0,0,1 @ F,0,0,1,0,0,0,1 @ F,0,0,1,0,0,0,1 @ F,0,0,1,0,0,0,1 @ F,0,0,1,0,0,0,1 @ F,0,0,1,0,0,0,1"
       radius="0"
       unit="px"
       method="auto"
       mode="F"
       chamfer_steps="1"
       flexible="false"
       use_knot_distance="true"
       apply_no_radius="true"
       apply_with_radius="true"
       only_selected="false"
       hide_knots="false" /><inkscape:path-effect
       effect="fillet_chamfer"
       id="path-effect68-3"
       is_visible="true"
       lpeversion="1"
       nodesatellites_param="F,0,0,1,0,0,0,1 @ F,0,0,1,0,0,0,1 @ F,0,0,1,0,0,0,1 @ F,0,0,1,0,0,0,1 @ F,0,0,1,0,0,0,1 @ F,0,0,1,0,0,0,1 @ F,0,0,1,0,0,0,1 @ F,0,0,1,0,0,0,1 @ F,0,0,1,0,0,0,1"
       radius="0"
       unit="px"
       method="auto"
       mode="F"
       chamfer_steps="1"
       flexible="false"
       use_knot_distance="true"
       apply_no_radius="true"
       apply_with_radius="true"
       only_selected="false"
       hide_knots="false" /><inkscape:path-effect
       effect="fillet_chamfer"
       id="path-effect66-6"
       is_visible="true"
       lpeversion="1"
       nodesatellites_param="F,0,0,1,0,0,0,1 @ F,0,0,1,0,0.44929322,0,1 @ F,0,0,1,0,0.44929322,0,1 @ F,0,0,1,0,0,0,1 @ F,0,0,1,0,0,0,1 @ F,0,0,1,0,0,0,1 @ F,0,0,1,0,0,0,1 @ F,0,0,1,0,0,0,1 @ F,0,0,1,0,0,0,1 @ F,0,0,1,0,0,0,1"
       radius="0"
       unit="px"
       method="auto"
       mode="F"
       chamfer_steps="1"
       flexible="false"
       use_knot_distance="true"
       apply_no_radius="true"
       apply_with_radius="true"
       only_selected="false"
       hide_knots="false" /><filter
       style="color-interpolation-filters:sRGB;"
       inkscape:label="Clean Edges"
       id="filter14269-5"
       x="-0.31154084"
       y="-0.29580634"
       width="1.6230817"
       height="1.5916127"><feGaussianBlur
         stdDeviation="0.204612"
         result="blur"
         id="feGaussianBlur14263-6" /><feComposite
         in="SourceGraphic"
         in2="blur"
         operator="in"
         result="composite1"
         id="feComposite14265-2" /><feComposite
         in="composite1"
         in2="composite1"
         operator="in"
         result="composite2"
         id="feComposite14267-9" /></filter></defs><g
     inkscape:label="Camada 1"
     inkscape:groupmode="layer"
     id="layer1"><ellipse
       style="fill:#ffffff;fill-opacity:1;stroke:#4e4a47;stroke-width:0.719853;stroke-dasharray:none;stroke-opacity:1"
       id="ellipse2"
       cx="-4.1923866"
       cy="12.784375"
       rx="5.4269242"
       ry="4.3783736"
       transform="matrix(-0.99166234,0.12886351,0.12886351,0.99166234,0,0)" /><ellipse
       style="fill:#ffffff;fill-opacity:1;stroke:#4e4a47;stroke-width:0.719853;stroke-dasharray:none;stroke-opacity:1"
       id="path4"
       cx="-17.959846"
       cy="12.158596"
       rx="5.4269242"
       ry="4.3783736"
       transform="scale(-1,1)" /><path
       id="path19"
       style="fill:#a5a28c;fill-opacity:1;stroke:none;stroke-width:0.613482;stroke-dasharray:none;stroke-opacity:1"
       d="M 3.210271,9.8089302 C 3.412487,9.1746174 1.63347,9.3334924 1.179041,10.838542 c 1.753754,-0.111256 1.773465,1.279477 2.20235,2.214474 -0.04753,0.972815 -0.05148,1.500583 -1.202824,2.061008 1.663235,1.232027 1.911272,0.496444 2.553824,0.484247 0.182023,-0.992143 0.959288,-2.095962 2.135453,-3.032622 0.07322,-0.05817 0.147756,-0.115513 0.223519,-0.171964 -0.399387,-0.116313 -0.78766,-0.257063 -1.157152,-0.419467 -1.260846,-0.554 -2.238862,-1.331435 -2.72394,-2.1652878 z"
       sodipodi:nodetypes="ccccccccc" /><ellipse
       style="fill:#ffffff;fill-opacity:1;stroke:#4e4a47;stroke-width:0.748365;stroke-dasharray:none;stroke-opacity:1"
       id="ellipse8"
       cx="-5.631629"
       cy="16.627785"
       rx="5.9468083"
       ry="3.9917655"
       transform="matrix(0.61792376,-0.78623802,0.7011137,0.71304949,0,0)" /><ellipse
       style="fill:#ffffff;fill-opacity:1;stroke:#4e4a47;stroke-width:0.721396;stroke-dasharray:none;stroke-opacity:1"
       id="ellipse7"
       cx="-7.0737152"
       cy="12.638979"
       rx="5.3136792"
       ry="4.49088"
       transform="matrix(-0.02754617,-0.99962053,0.9998602,-0.01672091,0,0)" /><ellipse
       style="fill:#a5a28c;fill-opacity:1;stroke:none;stroke-width:0.579458;stroke-dasharray:none;stroke-opacity:1"
       id="ellipse14"
       cx="-6.3606992"
       cy="12.554691"
       rx="4.003201"
       ry="3.8460598"
       transform="matrix(-0.03131465,-0.99950958,0.99989184,-0.01470751,0,0)" /><path
       id="ellipse17"
       style="fill:#a5a28c;fill-opacity:1;stroke:none;stroke-width:0.685737;stroke-dasharray:none;stroke-opacity:1"
       d="m 19.766078,8.9510712 c -0.3047,-0.697903 1.950954,-0.059641 2.317591,0.878824 -1.892813,0.1338786 -2.59348,1.3341108 -2.593354,2.8395678 1.51e-4,1.140198 0.335407,2.175063 1.64584,2.646593 -0.507048,0.572648 -1.504608,0.425209 -2.194136,0.507048 -0.332861,-1.111632 -1.318445,-2.262664 -2.707784,-3.162333 -0.08648,-0.05585 -0.174237,-0.110553 -0.263192,-0.164042 0.411352,-0.193075 0.807407,-0.412539 1.180345,-0.654057 1.272632,-0.82394 2.211423,-1.8621543 2.61469,-2.8916008 z"
       sodipodi:nodetypes="ccccccccc" /><ellipse
       style="fill:#ffffff;fill-opacity:1;stroke:#4e4a47;stroke-width:0.706855;stroke-dasharray:none;stroke-opacity:1"
       id="ellipse1"
       cx="-22.474718"
       cy="0.67683291"
       rx="5.6128249"
       ry="3.7731273"
       transform="matrix(-0.71054534,-0.70365141,-0.59950503,0.80037099,0,0)" /><ellipse
       style="fill:#ffffff;fill-opacity:1;stroke:#4e4a47;stroke-width:0.7278;stroke-dasharray:none;stroke-opacity:1"
       id="ellipse4"
       cx="6.5042281"
       cy="16.601484"
       rx="5.8284183"
       ry="3.8520768"
       transform="matrix(0.74984229,-0.66161661,0.64349727,0.76544841,0,0)" /><ellipse
       style="fill:#ffffff;fill-opacity:1;stroke:#4e4a47;stroke-width:0.724039;stroke-dasharray:none;stroke-opacity:1"
       id="ellipse3"
       cx="-10.921697"
       cy="2.889142"
       rx="5.8029881"
       ry="3.8290792"
       transform="matrix(-0.83185965,-0.55498606,-0.54401039,0.83907848,0,0)" /><ellipse
       style="fill:#a5a28c;fill-opacity:1;stroke:none;stroke-width:0.622858;stroke-dasharray:none;stroke-opacity:1"
       id="ellipse16"
       cx="-12.319208"
       cy="1.8450814"
       rx="4.9355884"
       ry="3.3316629"
       transform="matrix(-0.78653277,-0.61754854,-0.47940121,0.87759585,0,0)" /><ellipse
       style="fill:#a5a28c;fill-opacity:1;stroke:none;stroke-width:0.525866;stroke-linecap:round;stroke-linejoin:round;stroke-dasharray:none;stroke-opacity:1"
       id="path20"
       cx="-16.972057"
       cy="17.645952"
       rx="2.7842326"
       ry="2.6914251"
       transform="scale(-1,1)" /><path
       id="ellipse20"
       style="fill:#78745f;fill-opacity:1;stroke-width:0.419036"
       d="m 10.969198,16.682544 c 0.41629,1.112784 -0.470945,2.849133 -2.119316,3.896129 -1.648371,1.046995 -3.264966,0.974354 -4.201772,0.243613 -0.575857,-0.44919 -1.454922,-3.84678 0.04113,-4.174398 1.907569,-0.417736 5.863665,-1.07813 6.279957,0.03466 z"
       sodipodi:nodetypes="sssss" /><path
       id="rect22"
       style="fill:#33d233;fill-opacity:1;stroke:#042401;stroke-width:0.663704;stroke-linejoin:round;stroke-dasharray:none;stroke-opacity:1"
       d="m 15.152443,13.991446 c 0,0 -5.018393,-5.4034902 -5.135768,1.325825 -0.117375,6.729315 2.352038,8.408052 0.981094,10.914691 1.661626,0.505512 4.38294,0.174678 5.386818,-0.02733 -0.423154,-3.35342 -4.820539,-1.498874 -3.353464,-10.887358 z"
       sodipodi:nodetypes="czcccc" /><path
       id="path28"
       style="fill:#197319;stroke-width:0.70696;stroke-linecap:round;stroke-linejoin:round"
       d="m 10.785718,20.339805 c 0.273229,1.301952 0.52181,1.806922 1.649559,2.080067 0.579488,0.140353 0.147928,-2.032652 -0.05514,-3.221715 -0.244832,-1.433595 -0.690698,-1.556417 -1.232273,-1.368042 -0.541576,0.188375 -0.73017,0.756022 -0.362144,2.50969 z"
       sodipodi:nodetypes="sssss" /><ellipse
       style="fill:#a5a28c;fill-opacity:1;stroke:none;stroke-width:0.622858;stroke-dasharray:none;stroke-opacity:1"
       id="ellipse15"
       cx="6.3647671"
       cy="17.06328"
       rx="4.9355884"
       ry="3.3316629"
       transform="matrix(0.70039545,-0.71375501,0.58849421,0.80850143,0,0)" /><path
       style="fill:none;stroke:#4e4a47;stroke-width:0.503237;stroke-linecap:round;stroke-linejoin:round;stroke-dasharray:none;stroke-opacity:1"
       d="M 13.965004,9.9898961 C 15.191797,9.5131477 16.418996,9.0374158 17.061016,7.0963653"
       id="path22"
       sodipodi:nodetypes="cc" /><path
       style="fill:none;stroke:#4e4a47;stroke-width:0.503237;stroke-linecap:round;stroke-linejoin:round;stroke-dasharray:none;stroke-opacity:1"
       d="M 8.872944,9.6275481 C 7.594944,9.3128635 6.316673,8.9992393 5.429875,7.1571055"
       id="path23"
       sodipodi:nodetypes="cc" /><path
       style="fill:none;stroke:#4e4a47;stroke-width:0.503237;stroke-linecap:round;stroke-linejoin:round;stroke-dasharray:none;stroke-opacity:1"
       d="m 21.350803,12.547365 c -1.217439,-0.500154 -2.434471,-1.001323 -4.2375,-0.0375"
       id="path24"
       sodipodi:nodetypes="cc" /><path
       style="fill:none;stroke:#4e4a47;stroke-width:0.503237;stroke-linecap:round;stroke-linejoin:round;stroke-dasharray:none;stroke-opacity:1"
       d="m 8.127065,14.199001 c -1.226793,0.476748 -2.453992,0.95248 -3.096012,2.89353"
       id="path27"
       sodipodi:nodetypes="cc" /><path
       style="fill:none;stroke:#4e4a47;stroke-width:0.464041;stroke-linecap:round;stroke-linejoin:round;stroke-dasharray:none;stroke-opacity:1"
       d="M 5.807139,12.699977 C 4.776176,12.295859 3.745397,11.890625 2.452883,13.095506"
       id="path25"
       sodipodi:nodetypes="cc" /><ellipse
       style="fill:#f4bb12;fill-opacity:1;stroke:#954800;stroke-width:0.985;stroke-dasharray:none;stroke-opacity:1"
       id="path3"
       cx="-11.869353"
       cy="12.530644"
       rx="6.1324"
       ry="6.2593389"
       transform="scale(-1,1)" /><ellipse
       style="fill:#f6ec35;fill-opacity:1;stroke:none;stroke-width:0.668408;stroke-linecap:round;stroke-linejoin:round;stroke-dasharray:none;stroke-opacity:1"
       id="path30"
       cx="-18.358013"
       cy="-4.8385568"
       rx="4.7867455"
       ry="3.4335697"
       transform="matrix(-0.56247211,-0.82681626,-0.71023827,0.70396136,0,0)" /><g
       id="g1"
       transform="matrix(-1.0149818,-0.05073107,-0.05753995,1.1512077,41.45604,13.059351)"><path
         id="path13"
         style="fill:#ffffff;fill-opacity:1;stroke:#512800;stroke-width:0.503236;stroke-dasharray:none;stroke-opacity:1"
         d="M 33.816453,1.348863 A 3.5019681,5.920428 84.739757 0 1 29.184965,3.2199408 3.5019681,5.920428 84.739757 0 1 24.491507,2.3534652 4.3047551,4.7168519 84.739762 0 0 29.497732,5.6787145 4.3047551,4.7168519 84.739762 0 0 33.816453,1.348863 Z" /><path
         style="fill:#ffffff;fill-opacity:1;stroke:#512800;stroke-width:0.503236;stroke-dasharray:none;stroke-opacity:1"
         d="m 29.118561,3.1957913 0.266863,2.4260733"
         id="path14" /><path
         style="fill:#ffffff;fill-opacity:1;stroke:#512800;stroke-width:0.503236;stroke-dasharray:none;stroke-opacity:1"
         d="m 30.80461,2.8512095 0.266863,2.4260733"
         id="path15" /><path
         style="fill:#ffffff;fill-opacity:1;stroke:#512800;stroke-width:0.503236;stroke-dasharray:none;stroke-opacity:1"
         d="m 27.571003,3.160915 0.266863,2.4260733"
         id="path16" /><path
         style="fill:#ffffff;fill-opacity:1;stroke:#512800;stroke-width:0.503236;stroke-dasharray:none;stroke-opacity:1"
         d="m 25.908302,2.9112769 0.206114,1.7570163"
         id="path18" /><path
         style="fill:#ffffff;fill-opacity:1;stroke:#512800;stroke-width:0.503236;stroke-dasharray:none;stroke-opacity:1"
         d="m 32.221584,2.4918285 0.206115,1.7570163"
         id="path21" /></g><path
       id="path77"
       style="fill:#33d233;stroke:#042401;stroke-width:0.717176"
       d="m 13.155762,19.543184 c -0.83366,0.628924 0.378546,0.195729 4.589487,1.392929 2.261585,0.643007 3.980793,-1.439607 3.780959,-2.587662 -0.199834,-1.148055 -2.235621,-1.811287 -4.547056,-1.481371 -2.311435,0.329917 -2.887207,1.969833 -3.82339,2.676104 z"
       sodipodi:nodetypes="sssss" /><path
       id="path29"
       style="fill:#197319;stroke-width:0.482191;stroke-linecap:round;stroke-linejoin:round"
       d="m 14.992012,19.222714 c -2.791866,0.618517 0.739728,0.937014 2.413807,1.305587 1.491294,0.328327 3.067208,-0.127091 3.07729,-0.794258 0.01008,-0.667167 -1.210969,-1.322476 -2.727294,-1.463676 -1.516324,-0.141198 -2.158739,0.8183 -2.763803,0.952347 z"
       sodipodi:nodetypes="sssss" /><path
       style="fill:none;fill-opacity:1;stroke:#042401;stroke-width:0.542553;stroke-dasharray:none;stroke-opacity:1"
       d="m 20.03317,18.788158 c -2.690496,-0.704773 -4.712227,-0.129982 -6.503641,0.885474"
       id="path78"
       sodipodi:nodetypes="cc" /><path
       style="fill:none;stroke:#4e4a47;stroke-width:0.503237;stroke-linecap:round;stroke-linejoin:round;stroke-dasharray:none;stroke-opacity:1"
       d="m 14.953189,3.9041666 c -1.217439,-0.5001532 -2.434471,-1.0013224 -4.2375,-0.0375"
       id="path5"
       sodipodi:nodetypes="cc" /><g
       id="g2"
       transform="matrix(-1.0752147,0.20051706,0.19169867,1.0279286,22.598001,-2.5877526)"><path
         id="path6"
         style="fill:#33d233;stroke:#042401;stroke-width:0.717176"
         d="m 15.211795,18.795893 c -0.62396,0.837381 0.366671,0.09115 4.744382,0.06007 2.351158,-0.01667 3.417713,-2.497682 2.904099,-3.543706 -0.513613,-1.046023 -2.653694,-1.112056 -4.780002,-0.147489 -2.126309,0.964567 -2.167784,2.690756 -2.868479,3.631121 z"
         sodipodi:nodetypes="sssss" /><path
         id="ellipse29"
         style="fill:#197319;stroke-width:0.429282;stroke-linecap:round;stroke-linejoin:round"
         d="m -4.7683643,23.419723 c -1e-6,0.533326 -0.8259252,3.19e-4 -3.4446989,0.903913 -1.3659974,0.47133 -2.7260168,-0.432346 -2.7260178,-0.965672 -1e-6,-0.533326 1.2204793,-0.965673 2.7260178,-0.965673 1.5055386,0 3.4446995,0.494105 3.4446989,1.027432 z"
         sodipodi:nodetypes="sssss"
         transform="matrix(-0.9295042,0.36881153,0.49412925,0.86938846,0,0)" /><path
         style="fill:none;fill-opacity:1;stroke:#042401;stroke-width:0.542553;stroke-dasharray:none;stroke-opacity:1"
         d="m 21.550333,16.15283 c -2.78019,0.0776 -4.55977,1.196024 -5.994753,2.672893"
         id="path7"
         sodipodi:nodetypes="cc" /></g><path
       style="fill:none;stroke:#042401;stroke-width:0.476596;stroke-linecap:round;stroke-linejoin:round;stroke-dasharray:none;stroke-opacity:1"
       d="m 14.489225,24.847917 c -0.837594,0.652036 -0.932447,1.35843 -2.172926,0.101923"
       id="path31"
       sodipodi:nodetypes="cc" /><path
       id="path58"
       style="fill:#ffffff;fill-opacity:1;stroke:#512800;stroke-width:0.60146;stroke-miterlimit:4;stroke-dasharray:none;stroke-opacity:1"
       d="m 9.3735826,8.7372926 c -0.376208,0.40087 -0.871009,1.222471 -1.049462,1.7899874 -0.499752,1.589721 0.02812,3.171737 1.17908,3.533659 1.1509724,0.361884 2.4892244,-0.633358 2.9891784,-2.223015 0.178442,-0.567519 0.231444,-1.160565 0.152347,-1.704598 C 11.324111,9.8761126 10.385705,9.1517886 9.3735826,8.7372926 Z"
       sodipodi:nodetypes="cccccc" /><g
       id="g59"
       transform="translate(-0.98625836,1.8341883)"><ellipse
         style="fill:#512800;fill-opacity:1;stroke:none;stroke-width:1.33846"
         id="ellipse58"
         cx="13.700733"
         cy="5.7382927"
         rx="1.4049872"
         ry="1.4606799"
         transform="rotate(17.454944)" /><path
         id="path59"
         style="fill:#954800;fill-opacity:1;stroke:none;stroke-width:1.33846"
         d="m 10.907692,8.2113418 a 1.4049871,1.4606797 17.454949 0 0 -0.899185,0.9511198 1.4049871,1.4606797 17.454949 0 0 0.902259,1.8148114 1.4049871,1.4606797 17.454949 0 0 1.332139,-0.288751 1.4049871,1.4606797 17.454949 0 1 -0.878687,0.02097 1.4049871,1.4606797 17.454949 0 1 -0.902258,-1.8148114 1.4049871,1.4606797 17.454949 0 1 0.445732,-0.6833358 z" /><ellipse
         style="fill:#ffffff;fill-opacity:1;stroke:none;stroke-width:0.531597"
         id="ellipse59"
         cx="13.208241"
         cy="4.8522134"
         rx="0.56705737"
         ry="0.57088196"
         transform="rotate(17.454944)" /></g><path
       id="path60"
       style="fill:#ffffff;fill-opacity:1;stroke:#512800;stroke-width:0.60146;stroke-miterlimit:4;stroke-dasharray:none;stroke-opacity:1"
       d="m 16.399193,8.2372396 c 0.379035,0.398197 0.864229,1.204431 1.046695,1.7706704 0.510994,1.586144 -0.0057,3.171857 -1.154035,3.541918 -1.148381,0.370023 -2.493645,-0.61572 -3.00484,-2.201798 -0.182455,-0.566242 -0.239654,-1.158898 -0.16441,-1.7034774 1.335516,-0.333434 2.127066,-1.295294 3.27659,-1.407313 z"
       sodipodi:nodetypes="cccccc" /><g
       id="g61"
       transform="translate(3.9449916,1.6091883)"><ellipse
         style="fill:#512800;fill-opacity:1;stroke:none;stroke-width:1.33846"
         id="ellipse60"
         cx="13.700733"
         cy="5.7382927"
         rx="1.4049872"
         ry="1.4606799"
         transform="rotate(17.454944)" /><path
         id="path61"
         style="fill:#954800;fill-opacity:1;stroke:none;stroke-width:1.33846"
         d="m 10.907692,8.2113418 a 1.4049871,1.4606797 17.454949 0 0 -0.899185,0.9511198 1.4049871,1.4606797 17.454949 0 0 0.902259,1.8148114 1.4049871,1.4606797 17.454949 0 0 1.332139,-0.288751 1.4049871,1.4606797 17.454949 0 1 -0.878687,0.02097 1.4049871,1.4606797 17.454949 0 1 -0.902258,-1.8148114 1.4049871,1.4606797 17.454949 0 1 0.445732,-0.6833358 z" /><ellipse
         style="fill:#ffffff;fill-opacity:1;stroke:none;stroke-width:0.531597"
         id="ellipse61"
         cx="13.208241"
         cy="4.8522134"
         rx="0.56705737"
         ry="0.57088196"
         transform="rotate(17.454944)" /></g></g></svg>
