<?xml version="1.0" encoding="UTF-8" standalone="no"?>
<!-- Created with Inkscape (http://www.inkscape.org/) -->

<svg
   width="100"
   height="100"
   viewBox="0 0 26.458333 26.458333"
   version="1.1"
   id="svg1"
   inkscape:version="1.4.2 (ebf0e940d0, 2025-05-08)"
   sodipodi:docname="flow[0][1].svg"
   xml:space="preserve"
   xmlns:inkscape="http://www.inkscape.org/namespaces/inkscape"
   xmlns:sodipodi="http://sodipodi.sourceforge.net/DTD/sodipodi-0.dtd"
   xmlns="http://www.w3.org/2000/svg"
   xmlns:svg="http://www.w3.org/2000/svg"><sodipodi:namedview
     id="namedview1"
     pagecolor="#505050"
     bordercolor="#eeeeee"
     borderopacity="1"
     inkscape:showpageshadow="0"
     inkscape:pageopacity="0"
     inkscape:pagecheckerboard="0"
     inkscape:deskcolor="#505050"
     inkscape:document-units="px"
     inkscape:zoom="7.0555555"
     inkscape:cx="51.519685"
     inkscape:cy="75.188977"
     inkscape:window-width="1366"
     inkscape:window-height="697"
     inkscape:window-x="0"
     inkscape:window-y="0"
     inkscape:window-maximized="1"
     inkscape:current-layer="layer1" /><defs
     id="defs1"><linearGradient
       id="linearGradient13895"
       inkscape:swatch="solid"><stop
         style="stop-color:#000000;stop-opacity:1;"
         offset="0"
         id="stop13893" /></linearGradient><filter
       style="color-interpolation-filters:sRGB;"
       inkscape:label="Clean Edges"
       id="filter14269"
       x="-0.31154084"
       y="-0.29580634"
       width="1.6230817"
       height="1.5916127"><feGaussianBlur
         stdDeviation="0.204612"
         result="blur"
         id="feGaussianBlur14263" /><feComposite
         in="SourceGraphic"
         in2="blur"
         operator="in"
         result="composite1"
         id="feComposite14265" /><feComposite
         in="composite1"
         in2="composite1"
         operator="in"
         result="composite2"
         id="feComposite14267" /></filter><inkscape:path-effect
       effect="fillet_chamfer"
       id="path-effect68"
       is_visible="true"
       lpeversion="1"
       nodesatellites_param="F,0,0,1,0,0,0,1 @ F,0,0,1,0,0,0,1 @ F,0,0,1,0,0,0,1 @ F,0,0,1,0,0,0,1 @ F,0,0,1,0,0,0,1 @ F,0,0,1,0,0,0,1 @ F,0,0,1,0,0,0,1 @ F,0,0,1,0,0,0,1 @ F,0,0,1,0,0,0,1"
       radius="0"
       unit="px"
       method="auto"
       mode="F"
       chamfer_steps="1"
       flexible="false"
       use_knot_distance="true"
       apply_no_radius="true"
       apply_with_radius="true"
       only_selected="false"
       hide_knots="false" /><inkscape:path-effect
       effect="fillet_chamfer"
       id="path-effect66"
       is_visible="true"
       lpeversion="1"
       nodesatellites_param="F,0,0,1,0,0,0,1 @ F,0,0,1,0,0.44929322,0,1 @ F,0,0,1,0,0.44929322,0,1 @ F,0,0,1,0,0,0,1 @ F,0,0,1,0,0,0,1 @ F,0,0,1,0,0,0,1 @ F,0,0,1,0,0,0,1 @ F,0,0,1,0,0,0,1 @ F,0,0,1,0,0,0,1 @ F,0,0,1,0,0,0,1"
       radius="0"
       unit="px"
       method="auto"
       mode="F"
       chamfer_steps="1"
       flexible="false"
       use_knot_distance="true"
       apply_no_radius="true"
       apply_with_radius="true"
       only_selected="false"
       hide_knots="false" /><inkscape:path-effect
       effect="fillet_chamfer"
       id="path-effect68-7"
       is_visible="true"
       lpeversion="1"
       nodesatellites_param="F,0,0,1,0,0,0,1 @ F,0,0,1,0,0,0,1 @ F,0,0,1,0,0,0,1 @ F,0,0,1,0,0,0,1 @ F,0,0,1,0,0,0,1 @ F,0,0,1,0,0,0,1 @ F,0,0,1,0,0,0,1 @ F,0,0,1,0,0,0,1 @ F,0,0,1,0,0,0,1"
       radius="0"
       unit="px"
       method="auto"
       mode="F"
       chamfer_steps="1"
       flexible="false"
       use_knot_distance="true"
       apply_no_radius="true"
       apply_with_radius="true"
       only_selected="false"
       hide_knots="false" /><inkscape:path-effect
       effect="fillet_chamfer"
       id="path-effect66-5"
       is_visible="true"
       lpeversion="1"
       nodesatellites_param="F,0,0,1,0,0,0,1 @ F,0,0,1,0,0.44929322,0,1 @ F,0,0,1,0,0.44929322,0,1 @ F,0,0,1,0,0,0,1 @ F,0,0,1,0,0,0,1 @ F,0,0,1,0,0,0,1 @ F,0,0,1,0,0,0,1 @ F,0,0,1,0,0,0,1 @ F,0,0,1,0,0,0,1 @ F,0,0,1,0,0,0,1"
       radius="0"
       unit="px"
       method="auto"
       mode="F"
       chamfer_steps="1"
       flexible="false"
       use_knot_distance="true"
       apply_no_radius="true"
       apply_with_radius="true"
       only_selected="false"
       hide_knots="false" /><inkscape:path-effect
       effect="fillet_chamfer"
       id="path-effect68-3"
       is_visible="true"
       lpeversion="1"
       nodesatellites_param="F,0,0,1,0,0,0,1 @ F,0,0,1,0,0,0,1 @ F,0,0,1,0,0,0,1 @ F,0,0,1,0,0,0,1 @ F,0,0,1,0,0,0,1 @ F,0,0,1,0,0,0,1 @ F,0,0,1,0,0,0,1 @ F,0,0,1,0,0,0,1 @ F,0,0,1,0,0,0,1"
       radius="0"
       unit="px"
       method="auto"
       mode="F"
       chamfer_steps="1"
       flexible="false"
       use_knot_distance="true"
       apply_no_radius="true"
       apply_with_radius="true"
       only_selected="false"
       hide_knots="false" /><inkscape:path-effect
       effect="fillet_chamfer"
       id="path-effect66-6"
       is_visible="true"
       lpeversion="1"
       nodesatellites_param="F,0,0,1,0,0,0,1 @ F,0,0,1,0,0.44929322,0,1 @ F,0,0,1,0,0.44929322,0,1 @ F,0,0,1,0,0,0,1 @ F,0,0,1,0,0,0,1 @ F,0,0,1,0,0,0,1 @ F,0,0,1,0,0,0,1 @ F,0,0,1,0,0,0,1 @ F,0,0,1,0,0,0,1 @ F,0,0,1,0,0,0,1"
       radius="0"
       unit="px"
       method="auto"
       mode="F"
       chamfer_steps="1"
       flexible="false"
       use_knot_distance="true"
       apply_no_radius="true"
       apply_with_radius="true"
       only_selected="false"
       hide_knots="false" /><filter
       style="color-interpolation-filters:sRGB;"
       inkscape:label="Clean Edges"
       id="filter14269-5"
       x="-0.31154084"
       y="-0.29580634"
       width="1.6230817"
       height="1.5916127"><feGaussianBlur
         stdDeviation="0.204612"
         result="blur"
         id="feGaussianBlur14263-6" /><feComposite
         in="SourceGraphic"
         in2="blur"
         operator="in"
         result="composite1"
         id="feComposite14265-2" /><feComposite
         in="composite1"
         in2="composite1"
         operator="in"
         result="composite2"
         id="feComposite14267-9" /></filter></defs><g
     inkscape:label="Camada 1"
     inkscape:groupmode="layer"
     id="layer1"><ellipse
       style="fill:#ffffff;fill-opacity:1;stroke:#4e4a47;stroke-width:0.719853;stroke-dasharray:none;stroke-opacity:1"
       id="ellipse2"
       cx="22.334623"
       cy="8.8834877"
       rx="5.4269242"
       ry="4.3783736"
       transform="rotate(7.4039241)" /><ellipse
       style="fill:#ffffff;fill-opacity:1;stroke:#4e4a47;stroke-width:0.719853;stroke-dasharray:none;stroke-opacity:1"
       id="path4"
       cx="7.4698148"
       cy="11.708596"
       rx="5.4269242"
       ry="4.3783736" /><path
       id="path19"
       style="fill:#a5a28c;fill-opacity:1;stroke:none;stroke-width:0.613482;stroke-dasharray:none;stroke-opacity:1"
       d="m 23.598248,9.3589302 c -0.202216,-0.6343128 1.576801,-0.4754378 2.03123,1.0296118 -1.753754,-0.111256 -1.773465,1.279477 -2.20235,2.214474 0.04753,0.972815 0.05148,1.500583 1.202824,2.061008 -1.663235,1.232027 -1.911272,0.496444 -2.553824,0.484247 -0.182023,-0.992143 -0.959288,-2.095962 -2.135453,-3.032622 -0.07322,-0.05817 -0.147756,-0.115513 -0.223519,-0.171964 0.399387,-0.116313 0.78766,-0.257063 1.157152,-0.419467 1.260846,-0.554 2.238862,-1.331435 2.72394,-2.1652878 z"
       sodipodi:nodetypes="ccccccccc" /><ellipse
       style="fill:#ffffff;fill-opacity:1;stroke:#4e4a47;stroke-width:0.748365;stroke-dasharray:none;stroke-opacity:1"
       id="ellipse8"
       cx="-24.586363"
       cy="-4.9035854"
       rx="5.9468083"
       ry="3.9917655"
       transform="matrix(-0.61792376,-0.78623802,-0.7011137,0.71304949,0,0)" /><ellipse
       style="fill:#ffffff;fill-opacity:1;stroke:#4e4a47;stroke-width:0.721396;stroke-dasharray:none;stroke-opacity:1"
       id="ellipse7"
       cx="-6.1754627"
       cy="-14.148541"
       rx="5.3136792"
       ry="4.49088"
       transform="matrix(0.02754617,-0.99962053,-0.9998602,-0.01672091,0,0)" /><ellipse
       style="fill:#a5a28c;fill-opacity:1;stroke:none;stroke-width:0.579458;stroke-dasharray:none;stroke-opacity:1"
       id="ellipse14"
       cx="-5.5163445"
       cy="-14.230284"
       rx="4.003201"
       ry="3.8460598"
       transform="matrix(0.03131465,-0.99950958,-0.99989184,-0.01470751,0,0)" /><path
       id="ellipse17"
       style="fill:#a5a28c;fill-opacity:1;stroke:none;stroke-width:0.685737;stroke-dasharray:none;stroke-opacity:1"
       d="M 5.6635835,8.5010712 C 5.9682832,7.8031682 3.712629,8.4414302 3.3459917,9.3798952 5.2388053,9.5137738 5.939472,10.714006 5.9393463,12.219463 c -1.516e-4,1.140198 -0.3354074,2.175063 -1.6458407,2.646593 0.5070483,0.572648 1.5046088,0.425209 2.194136,0.507048 0.3328611,-1.111632 1.3184455,-2.262664 2.707784,-3.162333 0.086476,-0.05585 0.1742376,-0.110553 0.2631928,-0.164042 C 9.0472662,11.853654 8.6512109,11.63419 8.2782729,11.392672 7.0056409,10.568732 6.0668498,9.5305177 5.6635835,8.5010712 Z"
       sodipodi:nodetypes="ccccccccc" /><ellipse
       style="fill:#ffffff;fill-opacity:1;stroke:#4e4a47;stroke-width:0.706855;stroke-dasharray:none;stroke-opacity:1"
       id="ellipse1"
       cx="-1.6548738"
       cy="18.418497"
       rx="5.6128249"
       ry="3.7731273"
       transform="matrix(0.71054534,-0.70365141,0.59950503,0.80037099,0,0)" /><ellipse
       style="fill:#ffffff;fill-opacity:1;stroke:#4e4a47;stroke-width:0.7278;stroke-dasharray:none;stroke-opacity:1"
       id="ellipse4"
       cx="-12.676776"
       cy="-0.56553948"
       rx="5.8284183"
       ry="3.8520768"
       transform="matrix(-0.74984229,-0.66161661,-0.64349727,0.76544841,0,0)" /><ellipse
       style="fill:#ffffff;fill-opacity:1;stroke:#4e4a47;stroke-width:0.724039;stroke-dasharray:none;stroke-opacity:1"
       id="ellipse3"
       cx="11.819522"
       cy="17.394411"
       rx="5.8029881"
       ry="3.8290792"
       transform="matrix(0.83185965,-0.55498606,0.54401039,0.83907848,0,0)" /><ellipse
       style="fill:#a5a28c;fill-opacity:1;stroke:none;stroke-width:0.622858;stroke-dasharray:none;stroke-opacity:1"
       id="ellipse16"
       cx="11.753083"
       cy="18.271559"
       rx="4.9355884"
       ry="3.3316629"
       transform="matrix(0.78653277,-0.61754854,0.47940121,0.87759585,0,0)" /><ellipse
       style="fill:#a5a28c;fill-opacity:1;stroke:none;stroke-width:0.55108;stroke-linecap:round;stroke-linejoin:round;stroke-dasharray:none;stroke-opacity:1"
       id="path20"
       cx="9.093998"
       cy="17.553925"
       rx="3.526695"
       ry="2.3334522" /><path
       id="ellipse20"
       style="fill:#78745f;fill-opacity:1;stroke-width:0.419036"
       d="m 15.839321,16.232544 c -0.41629,1.112784 0.470945,2.849133 2.119316,3.896129 1.648371,1.046995 3.264966,0.974354 4.201772,0.243613 0.575857,-0.44919 1.454922,-3.84678 -0.04113,-4.174398 -1.907569,-0.417736 -5.863665,-1.07813 -6.279957,0.03466 z"
       sodipodi:nodetypes="sssss" /><path
       id="rect22"
       style="fill:#33d233;fill-opacity:1;stroke:#042401;stroke-width:0.663704;stroke-linejoin:round;stroke-dasharray:none;stroke-opacity:1"
       d="m 11.656076,13.541446 c 0,0 5.018393,-5.4034902 5.135768,1.325825 0.117375,6.729315 -2.352038,8.408052 -0.981094,10.914691 -1.661626,0.505512 -4.38294,0.174678 -5.386818,-0.02733 0.423154,-3.35342 4.820539,-1.498874 3.353464,-10.887358 z"
       sodipodi:nodetypes="czcccc" /><path
       id="path28"
       style="fill:#197319;stroke-width:0.573586;stroke-linecap:round;stroke-linejoin:round"
       d="m 16.167376,18.959085 c -0.163393,0.869081 -0.07293,1.190546 -1.176206,1.427165 -0.566914,0.121585 -0.751715,-0.844273 -0.588321,-1.713352 0.163394,-0.86908 0.625511,-1.529953 1.180021,-1.433863 0.55451,0.09609 0.7479,0.850972 0.584506,1.72005 z"
       sodipodi:nodetypes="sssss" /><ellipse
       style="fill:#a5a28c;fill-opacity:1;stroke:none;stroke-width:0.622858;stroke-dasharray:none;stroke-opacity:1"
       id="ellipse15"
       cx="-14.211994"
       cy="-1.6587236"
       rx="4.9355884"
       ry="3.3316629"
       transform="matrix(-0.70039545,-0.71375501,-0.58849421,0.80850143,0,0)" /><path
       style="fill:none;stroke:#4e4a47;stroke-width:0.503237;stroke-linecap:round;stroke-linejoin:round;stroke-dasharray:none;stroke-opacity:1"
       d="M 11.464657,9.5398961 C 10.237864,9.0631477 9.0106654,8.5874158 8.3686452,6.6463653"
       id="path22"
       sodipodi:nodetypes="cc" /><path
       style="fill:none;stroke:#4e4a47;stroke-width:0.503237;stroke-linecap:round;stroke-linejoin:round;stroke-dasharray:none;stroke-opacity:1"
       d="m 17.935575,9.1775481 c 1.278,-0.3146846 2.556271,-0.6283088 3.443069,-2.4704426"
       id="path23"
       sodipodi:nodetypes="cc" /><path
       style="fill:none;stroke:#4e4a47;stroke-width:0.503237;stroke-linecap:round;stroke-linejoin:round;stroke-dasharray:none;stroke-opacity:1"
       d="m 4.0788581,12.097365 c 1.217439,-0.500154 2.434471,-1.001323 4.2375,-0.0375"
       id="path24"
       sodipodi:nodetypes="cc" /><path
       style="fill:none;stroke:#4e4a47;stroke-width:0.503237;stroke-linecap:round;stroke-linejoin:round;stroke-dasharray:none;stroke-opacity:1"
       d="m 5.6314536,17.767531 c 1.2267933,-0.476748 2.453992,-0.95248 3.0960122,-2.89353"
       id="path26"
       sodipodi:nodetypes="cc" /><path
       style="fill:none;stroke:#4e4a47;stroke-width:0.503237;stroke-linecap:round;stroke-linejoin:round;stroke-dasharray:none;stroke-opacity:1"
       d="m 18.681454,13.749001 c 1.226793,0.476748 2.453992,0.95248 3.096012,2.89353"
       id="path27"
       sodipodi:nodetypes="cc" /><path
       style="fill:none;stroke:#4e4a47;stroke-width:0.464041;stroke-linecap:round;stroke-linejoin:round;stroke-dasharray:none;stroke-opacity:1"
       d="m 21.00138,12.249977 c 1.030963,-0.404118 2.061742,-0.809352 3.354256,0.395529"
       id="path25"
       sodipodi:nodetypes="cc" /><ellipse
       style="fill:#f4bb12;fill-opacity:1;stroke:#954800;stroke-width:0.985;stroke-dasharray:none;stroke-opacity:1"
       id="path3"
       cx="14.939166"
       cy="12.080645"
       rx="6.1324"
       ry="6.2593389" /><ellipse
       style="fill:#f6ec35;fill-opacity:1;stroke:none;stroke-width:0.668408;stroke-linecap:round;stroke-linejoin:round;stroke-dasharray:none;stroke-opacity:1"
       id="path30"
       cx="1.1617818"
       cy="17.448582"
       rx="4.7867455"
       ry="3.4335697"
       transform="matrix(0.56247211,-0.82681626,0.71023827,0.70396136,0,0)" /><g
       id="g1"
       transform="matrix(1.0149818,-0.05073107,0.05753995,1.1512077,-14.647521,12.609351)"><path
         id="path13"
         style="fill:#ffffff;fill-opacity:1;stroke:#512800;stroke-width:0.503236;stroke-dasharray:none;stroke-opacity:1"
         d="M 33.816453,1.348863 A 3.5019681,5.920428 84.739757 0 1 29.184965,3.2199408 3.5019681,5.920428 84.739757 0 1 24.491507,2.3534652 4.3047551,4.7168519 84.739762 0 0 29.497732,5.6787145 4.3047551,4.7168519 84.739762 0 0 33.816453,1.348863 Z" /><path
         style="fill:#ffffff;fill-opacity:1;stroke:#512800;stroke-width:0.503236;stroke-dasharray:none;stroke-opacity:1"
         d="m 29.118561,3.1957913 0.266863,2.4260733"
         id="path14" /><path
         style="fill:#ffffff;fill-opacity:1;stroke:#512800;stroke-width:0.503236;stroke-dasharray:none;stroke-opacity:1"
         d="m 30.80461,2.8512095 0.266863,2.4260733"
         id="path15" /><path
         style="fill:#ffffff;fill-opacity:1;stroke:#512800;stroke-width:0.503236;stroke-dasharray:none;stroke-opacity:1"
         d="m 27.571003,3.160915 0.266863,2.4260733"
         id="path16" /><path
         style="fill:#ffffff;fill-opacity:1;stroke:#512800;stroke-width:0.503236;stroke-dasharray:none;stroke-opacity:1"
         d="m 25.908302,2.9112769 0.206114,1.7570163"
         id="path18" /><path
         style="fill:#ffffff;fill-opacity:1;stroke:#512800;stroke-width:0.503236;stroke-dasharray:none;stroke-opacity:1"
         d="m 32.221584,2.4918285 0.206115,1.7570163"
         id="path21" /></g><path
       id="path77"
       style="fill:#33d233;stroke:#042401;stroke-width:0.717176"
       d="m 13.452211,19.804575 c 0.713899,0.762157 -0.406429,0.128149 -4.7600308,0.588011 -2.3382072,0.247002 -3.6761632,-2.09881 -3.2830475,-3.195817 0.3931159,-1.097006 2.5123049,-1.402528 4.7333403,-0.682403 2.221034,0.720126 2.508044,2.434321 3.309738,3.290209 z"
       sodipodi:nodetypes="sssss" /><path
       id="path29"
       style="fill:#197319;stroke-width:0.467691;stroke-linecap:round;stroke-linejoin:round"
       d="m 11.700474,19.109906 c 2.674469,1.049751 -0.884213,0.734082 -2.6058401,0.784515 -1.5336487,0.04492 -3.0263453,-0.645349 -2.9299484,-1.260516 0.096397,-0.615165 1.4137706,-1.007299 2.9424358,-0.875855 1.5286657,0.131444 2.0137297,1.12435 2.5933527,1.351856 z"
       sodipodi:nodetypes="sssss" /><path
       style="fill:none;fill-opacity:1;stroke:#042401;stroke-width:0.542553;stroke-dasharray:none;stroke-opacity:1"
       d="m 6.805048,17.885193 c 2.7713643,-0.234551 4.665105,0.67733 6.2566,1.984027"
       id="path78"
       sodipodi:nodetypes="cc" /><path
       style="fill:none;stroke:#4e4a47;stroke-width:0.503237;stroke-linecap:round;stroke-linejoin:round;stroke-dasharray:none;stroke-opacity:1"
       d="m 11.85533,3.4541666 c 1.217439,-0.5001532 2.434471,-1.0013224 4.2375,-0.0375"
       id="path5"
       sodipodi:nodetypes="cc" /><g
       id="g2"
       transform="matrix(1.0721872,-0.10743868,0.11065474,1.0410253,-1.5981384,0.75185641)"><path
         id="path6"
         style="fill:#33d233;stroke:#042401;stroke-width:0.717176"
         d="m 15.211795,18.795893 c -0.62396,0.837381 0.366671,0.09115 4.744382,0.06007 2.351158,-0.01667 3.417713,-2.497682 2.904099,-3.543706 -0.513613,-1.046023 -2.653694,-1.112056 -4.780002,-0.147489 -2.126309,0.964567 -2.167784,2.690756 -2.868479,3.631121 z"
         sodipodi:nodetypes="sssss" /><path
         id="ellipse29"
         style="fill:#197319;stroke-width:0.429282;stroke-linecap:round;stroke-linejoin:round"
         d="m -4.7683643,23.419723 c -1e-6,0.533326 -0.8259252,3.19e-4 -3.4446989,0.903913 -1.3659974,0.47133 -2.7260168,-0.432346 -2.7260178,-0.965672 -1e-6,-0.533326 1.2204793,-0.965673 2.7260178,-0.965673 1.5055386,0 3.4446995,0.494105 3.4446989,1.027432 z"
         sodipodi:nodetypes="sssss"
         transform="matrix(-0.9295042,0.36881153,0.49412925,0.86938846,0,0)" /><path
         style="fill:none;fill-opacity:1;stroke:#042401;stroke-width:0.542553;stroke-dasharray:none;stroke-opacity:1"
         d="m 21.550333,16.15283 c -2.78019,0.0776 -4.55977,1.196024 -5.994753,2.672893"
         id="path7"
         sodipodi:nodetypes="cc" /></g><path
       id="path9421"
       style="fill:#ffffff;fill-opacity:1;stroke:#512800;stroke-width:0.60146;stroke-miterlimit:4;stroke-dasharray:none;stroke-opacity:1"
       d="m 11.504048,8.0826983 c -0.376208,0.4008699 -0.871009,1.2224708 -1.049462,1.7899867 -0.4997516,1.589721 0.02812,3.171737 1.17908,3.533659 1.150972,0.361884 2.489224,-0.633358 2.989178,-2.223015 0.178442,-0.567519 0.231444,-1.160565 0.152347,-1.7045979 C 13.454576,9.2215183 12.51617,8.4971944 11.504048,8.0826983 Z"
       sodipodi:nodetypes="cccccc" /><g
       id="g12"
       transform="translate(1.1442072,1.1795941)"><ellipse
         style="fill:#512800;fill-opacity:1;stroke:none;stroke-width:1.33846"
         id="path4-8"
         cx="13.700733"
         cy="5.7382927"
         rx="1.4049872"
         ry="1.4606799"
         transform="rotate(17.454944)" /><path
         id="ellipse6"
         style="fill:#954800;fill-opacity:1;stroke:none;stroke-width:1.33846"
         d="m 10.907692,8.2113418 a 1.4049871,1.4606797 17.454949 0 0 -0.899185,0.9511198 1.4049871,1.4606797 17.454949 0 0 0.902259,1.8148114 1.4049871,1.4606797 17.454949 0 0 1.332139,-0.288751 1.4049871,1.4606797 17.454949 0 1 -0.878687,0.02097 1.4049871,1.4606797 17.454949 0 1 -0.902258,-1.8148114 1.4049871,1.4606797 17.454949 0 1 0.445732,-0.6833358 z" /><ellipse
         style="fill:#ffffff;fill-opacity:1;stroke:none;stroke-width:0.531597"
         id="ellipse5"
         cx="13.208241"
         cy="4.8522134"
         rx="0.56705737"
         ry="0.57088196"
         transform="rotate(17.454944)" /></g><path
       id="path10"
       style="fill:#ffffff;fill-opacity:1;stroke:#512800;stroke-width:0.60146;stroke-miterlimit:4;stroke-dasharray:none;stroke-opacity:1"
       d="m 18.529658,7.5826456 c 0.379035,0.3981965 0.864229,1.2044313 1.046695,1.7706696 0.510994,1.5861438 -0.0057,3.1718568 -1.154035,3.5419178 -1.148381,0.370023 -2.493645,-0.61572 -3.00484,-2.201798 -0.182455,-0.566242 -0.239654,-1.1588972 -0.16441,-1.7034768 1.335516,-0.3334342 2.127066,-1.2952942 3.27659,-1.4073126 z"
       sodipodi:nodetypes="cccccc" /><g
       id="g13"
       transform="translate(6.0754573,0.95459416)"><ellipse
         style="fill:#512800;fill-opacity:1;stroke:none;stroke-width:1.33846"
         id="ellipse12"
         cx="13.700733"
         cy="5.7382927"
         rx="1.4049872"
         ry="1.4606799"
         transform="rotate(17.454944)" /><path
         id="path12"
         style="fill:#954800;fill-opacity:1;stroke:none;stroke-width:1.33846"
         d="m 10.907692,8.2113418 a 1.4049871,1.4606797 17.454949 0 0 -0.899185,0.9511198 1.4049871,1.4606797 17.454949 0 0 0.902259,1.8148114 1.4049871,1.4606797 17.454949 0 0 1.332139,-0.288751 1.4049871,1.4606797 17.454949 0 1 -0.878687,0.02097 1.4049871,1.4606797 17.454949 0 1 -0.902258,-1.8148114 1.4049871,1.4606797 17.454949 0 1 0.445732,-0.6833358 z" /><ellipse
         style="fill:#ffffff;fill-opacity:1;stroke:none;stroke-width:0.531597"
         id="ellipse13"
         cx="13.208241"
         cy="4.8522134"
         rx="0.56705737"
         ry="0.57088196"
         transform="rotate(17.454944)" /></g><path
       style="fill:none;stroke:#042401;stroke-width:0.476596;stroke-linecap:round;stroke-linejoin:round;stroke-dasharray:none;stroke-opacity:1"
       d="m 12.319294,24.397917 c 0.837594,0.652036 0.932447,1.35843 2.172926,0.101923"
       id="path31"
       sodipodi:nodetypes="cc" /></g></svg>
