<?xml version="1.0" encoding="UTF-8" standalone="no"?>
<!-- Created with Inkscape (http://www.inkscape.org/) -->

<svg
   width="100"
   height="100"
   viewBox="0 0 26.458333 26.458333"
   version="1.1"
   id="svg1"
   inkscape:version="1.4.2 (ebf0e940d0, 2025-05-08)"
   sodipodi:docname="giant_frog[0][1].svg"
   xml:space="preserve"
   xmlns:inkscape="http://www.inkscape.org/namespaces/inkscape"
   xmlns:sodipodi="http://sodipodi.sourceforge.net/DTD/sodipodi-0.dtd"
   xmlns="http://www.w3.org/2000/svg"
   xmlns:svg="http://www.w3.org/2000/svg"><sodipodi:namedview
     id="namedview1"
     pagecolor="#505050"
     bordercolor="#eeeeee"
     borderopacity="1"
     inkscape:showpageshadow="0"
     inkscape:pageopacity="0"
     inkscape:pagecheckerboard="0"
     inkscape:deskcolor="#505050"
     inkscape:document-units="px"
     inkscape:zoom="7.0555554"
     inkscape:cx="60.023623"
     inkscape:cy="33.377953"
     inkscape:window-width="1366"
     inkscape:window-height="697"
     inkscape:window-x="0"
     inkscape:window-y="0"
     inkscape:window-maximized="1"
     inkscape:current-layer="layer1" /><defs
     id="defs1"><linearGradient
       id="linearGradient13895"
       inkscape:swatch="solid"><stop
         style="stop-color:#000000;stop-opacity:1;"
         offset="0"
         id="stop13893" /></linearGradient><filter
       style="color-interpolation-filters:sRGB;"
       inkscape:label="Clean Edges"
       id="filter14269"
       x="-0.31154084"
       y="-0.29580634"
       width="1.6230817"
       height="1.5916127"><feGaussianBlur
         stdDeviation="0.204612"
         result="blur"
         id="feGaussianBlur14263" /><feComposite
         in="SourceGraphic"
         in2="blur"
         operator="in"
         result="composite1"
         id="feComposite14265" /><feComposite
         in="composite1"
         in2="composite1"
         operator="in"
         result="composite2"
         id="feComposite14267" /></filter></defs><g
     inkscape:label="Camada 1"
     inkscape:groupmode="layer"
     id="layer1"><path
       id="path13"
       style="fill:#002aa3;fill-opacity:1;stroke:#000f3d;stroke-width:0.868786;stroke-dasharray:none;stroke-opacity:1"
       d="m 15.479402,25.475963 c 0.210835,0.213058 0.488441,0.317571 0.757725,0.435629 1.967462,0.752498 3.748079,-5.276703 4.054791,-6.600142 l 0.01362,-0.328984 c 0.02779,-0.684701 -0.517873,-1.333083 -1.223275,-1.453701 l -6.491359,-1.110124 c -0.705405,-0.120618 -1.295607,0.334035 -1.323394,1.018735 l -0.01327,0.328631 c -0.02779,0.684702 0.517873,1.333082 1.223274,1.453702 l 4.587702,0.724004 -1.914257,4.178757 c -0.18418,0.46426 -0.03819,0.993748 0.328443,1.353493 z"
       sodipodi:nodetypes="cccccccccccc" /><path
       id="path11"
       style="fill:#002aa3;fill-opacity:1;stroke:#000f3d;stroke-width:0.921373;stroke-dasharray:none;stroke-opacity:1"
       d="m 10.925223,25.37787 c -0.221837,0.227746 -0.513929,0.339465 -0.797265,0.465662 -2.0701293,0.804376 -3.9436635,-5.640485 -4.2663805,-7.055163 l -0.01433,-0.351665 c -0.029237,-0.731905 0.5448973,-1.424987 1.2871091,-1.55392 l 6.8300954,-1.186657 c 0.742214,-0.128934 1.363215,0.357063 1.392452,1.088967 l 0.01396,0.351287 c 0.02924,0.731906 -0.544897,1.424987 -1.287108,1.553922 l -4.8271007,0.773918 2.0141487,4.466845 c 0.193791,0.496266 0.04018,1.062258 -0.345583,1.446804 z"
       sodipodi:nodetypes="cccccccccccc" /><path
       id="rect1"
       style="fill:#003df7;fill-opacity:1;stroke:#000f3d;stroke-width:0.828219;stroke-dasharray:none;stroke-opacity:1"
       d="M 6.9974826,25.277948 C 6.8364029,25.517619 6.5803812,25.689181 6.3361961,25.869247 4.5246458,27.094795 1.2104454,22.71386 0.56846881,21.726142 L 0.47252323,21.461199 C 0.27340387,20.909613 0.66609079,20.209983 1.3528244,19.892636 l 6.3195247,-2.920475 c 0.6867351,-0.317349 1.3999731,-0.128319 1.5990925,0.423266 l 0.095494,0.264764 c 0.1991274,0.551584 -0.1935672,1.251215 -0.8802991,1.568565 l -4.4813752,2.014464 2.9881876,2.825534 c 0.3030311,0.32275 0.2868216,0.801215 0.00403,1.209196 z"
       sodipodi:nodetypes="cccccccccccc" /><g
       id="g23"
       transform="matrix(-1,0,0,1,49.508141,-5.5684659)"><path
         id="path19"
         style="fill:#003df7;fill-opacity:1;stroke:#000f3d;stroke-width:0.828219;stroke-dasharray:none;stroke-opacity:1"
         d="m 30.22594,30.793381 c -0.161079,0.239671 -0.417101,0.411233 -0.661286,0.591299 -1.81155,1.225548 -5.125751,-3.155387 -5.767727,-4.143105 l -0.09595,-0.264943 c -0.199119,-0.551586 0.193568,-1.251216 0.880301,-1.568563 l 6.319525,-2.920475 c 0.686735,-0.317349 1.399973,-0.128319 1.599092,0.423266 l 0.09549,0.264764 c 0.199128,0.551584 -0.193567,1.251215 -0.880299,1.568565 l -4.481375,2.014464 2.988188,2.825534 c 0.303031,0.32275 0.286821,0.801215 0.004,1.209196 z"
         sodipodi:nodetypes="cccccccccccc" /><ellipse
         style="fill:#ffb91e;fill-opacity:1;stroke:none;stroke-width:0.226024;stroke-linecap:round;stroke-opacity:1"
         id="ellipse21"
         cx="10.015144"
         cy="35.620018"
         rx="0.89595848"
         ry="0.4584361"
         transform="rotate(-31.0236)" /><ellipse
         style="fill:#ffb91e;fill-opacity:1;stroke:none;stroke-width:0.226024;stroke-linecap:round;stroke-opacity:1"
         id="ellipse22"
         cx="37.303375"
         cy="-8.0005989"
         rx="0.89595848"
         ry="0.4584361"
         transform="rotate(59.118816)" /><ellipse
         style="fill:#ffb91e;fill-opacity:1;stroke:none;stroke-width:0.286388;stroke-linecap:round;stroke-opacity:1"
         id="ellipse23"
         cx="34.778713"
         cy="-23.063629"
         rx="0.91488773"
         ry="0.72077268"
         transform="matrix(0.16823715,0.98574655,-0.98311729,0.18297646,0,0)" /></g><ellipse
       style="fill:#003df7;fill-opacity:1;stroke:#000f3d;stroke-width:1.10468;stroke-dasharray:none;stroke-opacity:1"
       id="path1"
       cx="13.01317"
       cy="15.273562"
       rx="7.2050362"
       ry="6.2080684" /><ellipse
       style="fill:#ffb91e;fill-opacity:1;stroke:none;stroke-width:0.391149;stroke-linecap:round;stroke-opacity:1"
       id="ellipse2"
       cx="16.788784"
       cy="18.460819"
       rx="1.3334808"
       ry="0.92247492" /><path
       style="fill:none;fill-opacity:1;stroke:#000f3d;stroke-width:1.28857;stroke-linecap:round;stroke-linejoin:round;stroke-opacity:1"
       d="m 8.826693,17.625071 c 3.776897,-0.925524 6.677164,-0.517986 9.300251,0.31105"
       id="path14"
       sodipodi:nodetypes="cc" /><g
       id="g24"
       transform="matrix(1.002046,0,0,0.84283744,-0.02707444,2.1937375)"><path
         id="ellipse3"
         style="fill:#ffffff;stroke:#000f3d;stroke-width:0.791267;stroke-opacity:1"
         d="M 12.757319,9.6002884 C 12.412816,11.729762 10.521629,12.955881 8.7378961,12.713802 6.954163,12.471723 5.9533469,10.853118 6.2978499,8.7236439 6.642353,6.5941704 8.3676288,5.0641342 10.151362,5.3062127 c 1.783733,0.2420788 2.95046,2.1646019 2.605957,4.2940757 z"
         sodipodi:nodetypes="sssss" /><ellipse
         style="fill:#001e7d;fill-opacity:1;stroke:none;stroke-width:0.71809;stroke-linecap:round;stroke-opacity:1"
         id="ellipse6"
         cx="-19.919407"
         cy="5.5767007"
         rx="2.7013383"
         ry="1.5347381"
         transform="matrix(-0.92990143,-0.36780883,-0.4353357,0.9002682,0,0)" /><path
         id="ellipse1"
         style="fill:#ffffff;stroke:#000f3d;stroke-width:0.791267;stroke-opacity:1"
         d="m 13.885054,10.093638 c 0.344503,2.129474 2.318643,3.304939 4.102376,3.06286 1.783734,-0.242079 2.701595,-1.810031 2.357092,-3.9395044 -0.344502,-2.1294739 -2.069778,-3.65951 -3.853513,-3.4174313 -1.783733,0.2420788 -2.950459,2.164602 -2.605955,4.2940757 z"
         sodipodi:nodetypes="sssss" /><ellipse
         style="fill:#001e7d;fill-opacity:1;stroke:none;stroke-width:0.656924;stroke-linecap:round;stroke-opacity:1"
         id="ellipse5"
         cx="7.4365005"
         cy="14.170984"
         rx="2.3975618"
         ry="1.4471592"
         transform="matrix(0.9793077,-0.20237694,0.21700844,0.97616973,0,0)" /><ellipse
         style="fill:#001e7d;fill-opacity:1;stroke:none;stroke-width:0.825032;stroke-opacity:1"
         id="path7"
         cx="9.4938889"
         cy="8.8918734"
         rx="1.7005787"
         ry="2.1654129" /><ellipse
         style="fill:#001e7d;fill-opacity:1;stroke:none;stroke-width:0.825032;stroke-opacity:1"
         id="ellipse7"
         cx="17.273838"
         cy="9.0080156"
         rx="1.7005787"
         ry="2.1654129" /><path
         id="path8"
         style="fill:#ffffff;stroke:none;stroke-width:0.187814;stroke-opacity:1"
         d="m 11.86918,7.9929251 c -0.08709,0.474593 -0.565158,0.7478564 -1.016065,0.6939047 -0.450908,-0.053951 -0.703903,-0.4146883 -0.616817,-0.8892813 0.08709,-0.474593 0.523217,-0.81559 0.974126,-0.7616383 0.450907,0.053952 0.745842,0.4824219 0.658756,0.9570149 z"
         sodipodi:nodetypes="sssss" /><path
         id="path9"
         style="fill:#ffffff;stroke:none;stroke-width:0.187814;stroke-opacity:1"
         d="m 19.28121,8.1995679 c -0.08709,0.474593 -0.565158,0.7478564 -1.016065,0.6939046 -0.450908,-0.053951 -0.703903,-0.4146882 -0.616817,-0.8892812 0.08708,-0.474593 0.523217,-0.8155901 0.974126,-0.7616383 0.450906,0.053951 0.745842,0.4824219 0.658756,0.9570149 z"
         sodipodi:nodetypes="sssss" /><path
         id="ellipse14"
         style="fill:#ffb91e;fill-opacity:1;stroke:#734d00;stroke-width:0.4511;stroke-dasharray:none;stroke-opacity:1"
         d="m 5.909812,10.973657 a 3.2333558,2.3068097 0 0 0 3.2199989,2.097441 3.2333558,2.3068097 0 0 0 3.2199981,-2.097441 z" /><path
         id="path16"
         style="fill:#ffb91e;fill-opacity:1;stroke:#734d00;stroke-width:0.427851;stroke-dasharray:none;stroke-opacity:1"
         d="M 9.5127269,4.2989674 C 8.0261616,4.2988953 6.7847539,5.2191952 6.6498525,6.4213185 L 7.511734,6.3275685 C 7.4779169,6.3957779 7.3054701,6.6196287 7.3386994,6.6378427 7.1928075,7.1519709 7.4351455,7.3052626 7.7668222,7.3052763 8.0984989,7.3052626 8.3607243,7.1055671 8.3606732,6.8102 8.3607568,6.7356384 8.4825423,6.496157 8.4487252,6.4279476 l 3.9268758,-0.00663 C 12.2407,5.2191953 10.999292,4.2988955 9.5127269,4.2989674 Z"
         sodipodi:nodetypes="ccccccccc" /><path
         id="path17"
         style="fill:#ffb91e;fill-opacity:1;stroke:#734d00;stroke-width:0.4511;stroke-dasharray:none;stroke-opacity:1"
         d="m 13.917796,11.344888 a 3.2333558,2.3068097 0 0 0 3.219999,2.097441 3.2333558,2.3068097 0 0 0 3.219998,-2.097441 z" /><path
         id="path18"
         style="fill:#ffb91e;fill-opacity:1;stroke:#734d00;stroke-width:0.410187;stroke-dasharray:none;stroke-opacity:1"
         d="m 14.435438,6.5369048 a 2.6188142,2.3549225 0 0 1 2.607996,-2.1411873 2.6188142,2.3549225 0 0 1 2.607995,2.1411873 z" /></g><ellipse
       style="fill:#ffb91e;fill-opacity:1;stroke:none;stroke-width:0.267786;stroke-linecap:round;stroke-opacity:1"
       id="path2"
       cx="8.9890947"
       cy="14.756435"
       rx="0.97550797"
       ry="0.59101862" /><ellipse
       style="fill:#ffb91e;fill-opacity:1;stroke:none;stroke-width:0.155433;stroke-linecap:round;stroke-opacity:1"
       id="ellipse4"
       cx="18.164829"
       cy="14.367787"
       rx="0.5512439"
       ry="0.35237008" /><ellipse
       style="fill:#ffb91e;fill-opacity:1;stroke:none;stroke-width:0.226024;stroke-linecap:round;stroke-opacity:1"
       id="ellipse8"
       cx="-7.047996"
       cy="18.921799"
       rx="0.89595848"
       ry="0.4584361"
       transform="rotate(-31.0236)" /><ellipse
       style="fill:#ffb91e;fill-opacity:1;stroke:none;stroke-width:0.226024;stroke-linecap:round;stroke-opacity:1"
       id="ellipse10"
       cx="20.647619"
       cy="9.1039944"
       rx="0.89595848"
       ry="0.4584361"
       transform="rotate(59.118816)" /><ellipse
       style="fill:#ffb91e;fill-opacity:1;stroke:none;stroke-width:0.286388;stroke-linecap:round;stroke-opacity:1"
       id="ellipse11"
       cx="25.105049"
       cy="-1.0916957"
       rx="0.91488773"
       ry="0.72077268"
       transform="matrix(0.16823715,0.98574655,-0.98311729,0.18297646,0,0)" /><ellipse
       style="fill:#001e7d;fill-opacity:1;stroke:none;stroke-width:0.30239;stroke-linecap:round;stroke-opacity:1"
       id="ellipse17"
       cx="26.017992"
       cy="2.7243998"
       rx="1.1383181"
       ry="0.64584428"
       transform="matrix(0.46310349,0.88630421,-0.95894395,0.28359565,0,0)" /><ellipse
       style="fill:#000f3d;fill-opacity:1;stroke:none;stroke-width:0.374757;stroke-linecap:round;stroke-opacity:1"
       id="ellipse19"
       cx="15.072162"
       cy="-13.003078"
       rx="0.97186255"
       ry="1.1618515"
       transform="matrix(-0.2552955,0.96686308,-0.87463032,-0.48479047,0,0)" /><ellipse
       style="fill:#001e7d;fill-opacity:1;stroke:none;stroke-width:0.30239;stroke-linecap:round;stroke-opacity:1"
       id="ellipse20"
       cx="16.557295"
       cy="26.869886"
       rx="1.1383181"
       ry="0.64584428"
       transform="matrix(-0.46310349,0.88630421,0.95894395,0.28359565,0,0)" /><ellipse
       style="fill:#000f3d;fill-opacity:1;stroke:none;stroke-width:0.339823;stroke-linecap:round;stroke-opacity:1"
       id="ellipse18"
       cx="28.052427"
       cy="13.503001"
       rx="0.8820141"
       ry="1.0526555"
       transform="matrix(0.25471863,0.96701521,0.87413219,-0.48568808,0,0)" /></g></svg>
