<?xml version="1.0" encoding="UTF-8" standalone="no"?>
<!-- Created with Inkscape (http://www.inkscape.org/) -->

<svg
   width="100"
   height="100"
   viewBox="0 0 26.458333 26.458333"
   version="1.1"
   id="svg1"
   inkscape:version="1.4.2 (ebf0e940d0, 2025-05-08)"
   sodipodi:docname="giant_frog[0][2].svg"
   xml:space="preserve"
   xmlns:inkscape="http://www.inkscape.org/namespaces/inkscape"
   xmlns:sodipodi="http://sodipodi.sourceforge.net/DTD/sodipodi-0.dtd"
   xmlns="http://www.w3.org/2000/svg"
   xmlns:svg="http://www.w3.org/2000/svg"><sodipodi:namedview
     id="namedview1"
     pagecolor="#505050"
     bordercolor="#eeeeee"
     borderopacity="1"
     inkscape:showpageshadow="0"
     inkscape:pageopacity="0"
     inkscape:pagecheckerboard="0"
     inkscape:deskcolor="#505050"
     inkscape:document-units="px"
     inkscape:zoom="7.0555554"
     inkscape:cx="62.858269"
     inkscape:cy="79.157482"
     inkscape:window-width="1366"
     inkscape:window-height="697"
     inkscape:window-x="0"
     inkscape:window-y="0"
     inkscape:window-maximized="1"
     inkscape:current-layer="layer1" /><defs
     id="defs1"><linearGradient
       id="linearGradient13895"
       inkscape:swatch="solid"><stop
         style="stop-color:#000000;stop-opacity:1;"
         offset="0"
         id="stop13893" /></linearGradient><filter
       style="color-interpolation-filters:sRGB;"
       inkscape:label="Clean Edges"
       id="filter14269"
       x="-0.31154084"
       y="-0.29580634"
       width="1.6230817"
       height="1.5916127"><feGaussianBlur
         stdDeviation="0.204612"
         result="blur"
         id="feGaussianBlur14263" /><feComposite
         in="SourceGraphic"
         in2="blur"
         operator="in"
         result="composite1"
         id="feComposite14265" /><feComposite
         in="composite1"
         in2="composite1"
         operator="in"
         result="composite2"
         id="feComposite14267" /></filter></defs><g
     inkscape:label="Camada 1"
     inkscape:groupmode="layer"
     id="layer1"><rect
       style="fill:#002aa3;fill-opacity:1;stroke:#000f3d;stroke-width:0.967811;stroke-linecap:round;stroke-dasharray:none"
       id="rect24"
       width="3.4772539"
       height="10.10664"
       x="-9.7196264"
       y="17.668583"
       ry="1.7730947"
       transform="matrix(-0.88295468,0.46945824,0.44505983,0.89550084,0,0)" /><rect
       style="fill:#002aa3;fill-opacity:1;stroke:#000f3d;stroke-width:0.967811;stroke-linecap:round;stroke-dasharray:none"
       id="rect23"
       width="3.4772539"
       height="10.10664"
       x="12.952939"
       y="5.1845269"
       ry="1.7730947"
       transform="matrix(0.88295468,0.46945824,-0.44505983,0.89550084,0,0)" /><g
       id="g23"
       transform="matrix(-0.49172787,0.84716671,0.58201741,0.53442907,24.750364,-25.952749)"><path
         id="path3"
         style="fill:#003df7;fill-opacity:1;stroke:#000f3d;stroke-width:0.921373;stroke-dasharray:none;stroke-opacity:1"
         d="m 31.437723,26.84037 c -0.221837,0.227746 -0.513929,0.339465 -0.797265,0.465662 -2.070129,0.804376 -3.943663,-5.640485 -4.26638,-7.055163 l -0.01433,-0.351665 c -0.02924,-0.731905 0.544897,-1.424987 1.287109,-1.55392 l 6.830095,-1.186657 c 0.742214,-0.128934 1.363215,0.357063 1.392452,1.088967 l 0.01396,0.351287 c 0.02924,0.731906 -0.544897,1.424987 -1.287108,1.553922 l -4.827101,0.773918 2.014149,4.466845 c 0.193791,0.496266 0.04018,1.062258 -0.345583,1.446804 z"
         sodipodi:nodetypes="cccccccccccc" /><ellipse
         style="fill:#ffb91e;fill-opacity:1;stroke:none;stroke-width:0.226024;stroke-linecap:round;stroke-opacity:1"
         id="ellipse18"
         cx="29.106245"
         cy="19.477802"
         rx="0.89595848"
         ry="0.4584361" /><ellipse
         style="fill:#ffb91e;fill-opacity:1;stroke:none;stroke-width:0.226024;stroke-linecap:round;stroke-opacity:1"
         id="ellipse22"
         cx="33.359234"
         cy="-12.975228"
         rx="0.89595848"
         ry="0.4584361"
         transform="rotate(59.118816)" /><ellipse
         style="fill:#ffb91e;fill-opacity:1;stroke:none;stroke-width:0.286388;stroke-linecap:round;stroke-opacity:1"
         id="ellipse23"
         cx="30.50708"
         cy="-25.4039"
         rx="0.91488773"
         ry="0.72077268"
         transform="matrix(0.16823715,0.98574655,-0.98311729,0.18297646,0,0)" /></g><g
       id="g3"
       transform="matrix(0.49172787,0.84716671,-0.58201741,0.53442907,2.1295486,-24.827749)"><path
         id="rect1"
         style="fill:#003df7;fill-opacity:1;stroke:#000f3d;stroke-width:0.921373;stroke-dasharray:none;stroke-opacity:1"
         d="m 31.437723,26.84037 c -0.221837,0.227746 -0.513929,0.339465 -0.797265,0.465662 -2.070129,0.804376 -3.943663,-5.640485 -4.26638,-7.055163 l -0.01433,-0.351665 c -0.02924,-0.731905 0.544897,-1.424987 1.287109,-1.55392 l 6.830095,-1.186657 c 0.742214,-0.128934 1.363215,0.357063 1.392452,1.088967 l 0.01396,0.351287 c 0.02924,0.731906 -0.544897,1.424987 -1.287108,1.553922 l -4.827101,0.773918 2.014149,4.466845 c 0.193791,0.496266 0.04018,1.062258 -0.345583,1.446804 z"
         sodipodi:nodetypes="cccccccccccc" /><ellipse
         style="fill:#ffb91e;fill-opacity:1;stroke:none;stroke-width:0.226024;stroke-linecap:round;stroke-opacity:1"
         id="ellipse8"
         cx="29.106245"
         cy="19.477802"
         rx="0.89595848"
         ry="0.4584361" /><ellipse
         style="fill:#ffb91e;fill-opacity:1;stroke:none;stroke-width:0.226024;stroke-linecap:round;stroke-opacity:1"
         id="ellipse10"
         cx="33.359234"
         cy="-12.975228"
         rx="0.89595848"
         ry="0.4584361"
         transform="rotate(59.118816)" /><ellipse
         style="fill:#ffb91e;fill-opacity:1;stroke:none;stroke-width:0.286388;stroke-linecap:round;stroke-opacity:1"
         id="ellipse11"
         cx="30.50708"
         cy="-25.4039"
         rx="0.91488773"
         ry="0.72077268"
         transform="matrix(0.16823715,0.98574655,-0.98311729,0.18297646,0,0)" /></g><ellipse
       style="fill:#003df7;fill-opacity:1;stroke:#000f3d;stroke-width:1.02789;stroke-dasharray:none;stroke-opacity:1"
       id="path1"
       cx="12.960137"
       cy="11.987078"
       rx="7.243432"
       ry="5.3464646" /><path
       id="ellipse3"
       style="fill:#ffffff;stroke:#000f3d;stroke-width:0.791267;stroke-opacity:1"
       d="M 12.59822,5.3576477 C 12.253717,7.4871216 10.36253,8.7132403 8.5787971,8.4711616 6.795064,8.2290826 5.7942479,6.610477 6.1387509,4.4810032 6.483254,2.3515297 8.2085298,0.82149353 9.992263,1.063572 c 1.783733,0.2420788 2.95046,2.1646019 2.605957,4.2940757 z"
       sodipodi:nodetypes="sssss" /><ellipse
       style="fill:#001e7d;fill-opacity:1;stroke:none;stroke-width:0.71809;stroke-linecap:round;stroke-opacity:1"
       id="ellipse6"
       cx="-17.923777"
       cy="1.6793845"
       rx="2.7013383"
       ry="1.5347381"
       transform="matrix(-0.92990143,-0.36780883,-0.4353357,0.9002682,0,0)" /><path
       id="ellipse1"
       style="fill:#ffffff;stroke:#000f3d;stroke-width:0.791267;stroke-opacity:1"
       d="m 13.725955,5.8509974 c 0.344503,2.1294738 2.318643,3.3049387 4.102376,3.06286 1.783734,-0.2420788 2.701595,-1.8100307 2.357092,-3.9395045 -0.344502,-2.1294739 -2.069778,-3.65951 -3.853513,-3.4174313 -1.783733,0.2420788 -2.950459,2.164602 -2.605955,4.2940758 z"
       sodipodi:nodetypes="sssss" /><ellipse
       style="fill:#001e7d;fill-opacity:1;stroke:none;stroke-width:0.656924;stroke-linecap:round;stroke-opacity:1"
       id="ellipse5"
       cx="8.2019672"
       cy="9.9834661"
       rx="2.3975618"
       ry="1.4471592"
       transform="matrix(0.9793077,-0.20237694,0.21700844,0.97616973,0,0)" /><ellipse
       style="fill:#001e7d;fill-opacity:1;stroke:none;stroke-width:0.825032;stroke-opacity:1"
       id="path7"
       cx="9.3347902"
       cy="4.6492324"
       rx="1.7005787"
       ry="2.1654129" /><ellipse
       style="fill:#001e7d;fill-opacity:1;stroke:none;stroke-width:0.825032;stroke-opacity:1"
       id="ellipse7"
       cx="17.114738"
       cy="4.7653747"
       rx="1.7005787"
       ry="2.1654129" /><path
       id="path8"
       style="fill:#ffffff;stroke:none;stroke-width:0.187814;stroke-opacity:1"
       d="m 11.841331,4.2565344 c -0.08709,0.474593 -0.565158,0.7478564 -1.016065,0.6939047 -0.450908,-0.053951 -0.703903,-0.4146883 -0.616817,-0.8892813 0.08709,-0.474593 0.523217,-0.81559 0.974126,-0.7616383 0.450907,0.053952 0.745842,0.4824219 0.658756,0.9570149 z"
       sodipodi:nodetypes="sssss" /><path
       id="path9"
       style="fill:#ffffff;stroke:none;stroke-width:0.187814;stroke-opacity:1"
       d="m 19.272111,4.4819272 c -0.08709,0.474593 -0.565158,0.7478564 -1.016065,0.6939046 -0.450908,-0.053951 -0.703903,-0.4146882 -0.616817,-0.8892812 0.08708,-0.474593 0.523217,-0.8155901 0.974126,-0.7616383 0.450906,0.053951 0.745842,0.4824219 0.658756,0.9570149 z"
       sodipodi:nodetypes="sssss" /><ellipse
       style="fill:#ffb91e;fill-opacity:1;stroke:none;stroke-width:0.391149;stroke-linecap:round;stroke-opacity:1"
       id="ellipse2"
       cx="17.192184"
       cy="13.093178"
       rx="1.3334808"
       ry="0.92247492" /><ellipse
       style="fill:#ffb91e;fill-opacity:1;stroke:none;stroke-width:0.267786;stroke-linecap:round;stroke-opacity:1"
       id="path2"
       cx="8.8299961"
       cy="10.513795"
       rx="0.97550797"
       ry="0.59101862" /><path
       style="fill:none;fill-opacity:1;stroke:#000f3d;stroke-width:1.28857;stroke-linecap:round;stroke-linejoin:round;stroke-opacity:1"
       d="m 8.292594,11.73243 c 3.776897,-0.925524 6.677164,-0.517986 9.300251,0.31105"
       id="path14"
       sodipodi:nodetypes="cc" /><path
       id="ellipse14"
       style="fill:#ffb91e;fill-opacity:1;stroke:#734d00;stroke-width:0.544643;stroke-dasharray:none;stroke-opacity:1"
       d="M 5.933608,5.8468349 A 3.3958466,3.2018085 0 0 0 9.3154265,8.7580437 3.3958466,3.2018085 0 0 0 12.697245,5.8468349 Z" /><path
       id="path16"
       style="fill:#ffb91e;fill-opacity:1;stroke:#734d00;stroke-width:0.585047;stroke-dasharray:none;stroke-opacity:1"
       d="M 9.5525014,0.60939053 A 3.4951445,3.5895134 0 0 0 6.0715695,3.8731663 H 6.9713338 A 0.73014992,0.82237332 0 0 0 6.9091296,4.2061396 0.73014992,0.82237332 0 0 0 7.6392456,5.0286398 0.73014992,0.82237332 0 0 0 8.3693617,4.2061396 0.73014992,0.82237332 0 0 0 8.3071573,3.8731663 H 13.033433 A 3.4951445,3.5895134 0 0 0 9.5525014,0.60939053 Z" /><path
       id="path18"
       style="fill:#ffb91e;fill-opacity:1;stroke:#734d00;stroke-width:0.61119;stroke-dasharray:none;stroke-opacity:1"
       d="M 13.458682,4.1302461 A 3.7194405,3.6812284 0 0 1 17.162758,0.78312973 3.7194405,3.6812284 0 0 1 20.866832,4.1302461 Z" /><ellipse
       style="fill:#ffb91e;fill-opacity:1;stroke:none;stroke-width:0.155433;stroke-linecap:round;stroke-opacity:1"
       id="ellipse4"
       cx="18.00573"
       cy="10.125147"
       rx="0.5512439"
       ry="0.35237008" /><path
       id="path24"
       style="fill:#ffb91e;fill-opacity:1;stroke:#734d00;stroke-width:0.602785;stroke-dasharray:none;stroke-opacity:1"
       d="m 13.522076,5.8486357 a 3.5774653,3.7227886 0 0 0 3.562686,3.3849042 3.5774653,3.7227886 0 0 0 3.562687,-3.3849042 z" /></g></svg>
