<?xml version="1.0" encoding="UTF-8" standalone="no"?>
<!-- Created with Inkscape (http://www.inkscape.org/) -->

<svg
   width="100"
   height="100"
   viewBox="0 0 26.458333 26.458333"
   version="1.1"
   id="svg1"
   inkscape:version="1.4.2 (ebf0e940d0, 2025-05-08)"
   sodipodi:docname="giant_frog.svg"
   xml:space="preserve"
   xmlns:inkscape="http://www.inkscape.org/namespaces/inkscape"
   xmlns:sodipodi="http://sodipodi.sourceforge.net/DTD/sodipodi-0.dtd"
   xmlns="http://www.w3.org/2000/svg"
   xmlns:svg="http://www.w3.org/2000/svg"><sodipodi:namedview
     id="namedview1"
     pagecolor="#505050"
     bordercolor="#eeeeee"
     borderopacity="1"
     inkscape:showpageshadow="0"
     inkscape:pageopacity="0"
     inkscape:pagecheckerboard="0"
     inkscape:deskcolor="#505050"
     inkscape:document-units="px"
     inkscape:zoom="4.9890311"
     inkscape:cx="76.267314"
     inkscape:cy="21.74771"
     inkscape:window-width="1366"
     inkscape:window-height="697"
     inkscape:window-x="0"
     inkscape:window-y="0"
     inkscape:window-maximized="1"
     inkscape:current-layer="layer1" /><defs
     id="defs1"><linearGradient
       id="linearGradient13895"
       inkscape:swatch="solid"><stop
         style="stop-color:#000000;stop-opacity:1;"
         offset="0"
         id="stop13893" /></linearGradient><filter
       style="color-interpolation-filters:sRGB;"
       inkscape:label="Clean Edges"
       id="filter14269"
       x="-0.31154084"
       y="-0.29580634"
       width="1.6230817"
       height="1.5916127"><feGaussianBlur
         stdDeviation="0.204612"
         result="blur"
         id="feGaussianBlur14263" /><feComposite
         in="SourceGraphic"
         in2="blur"
         operator="in"
         result="composite1"
         id="feComposite14265" /><feComposite
         in="composite1"
         in2="composite1"
         operator="in"
         result="composite2"
         id="feComposite14267" /></filter></defs><g
     inkscape:label="Camada 1"
     inkscape:groupmode="layer"
     id="layer1"><path
       id="path13"
       style="fill:#002aa3;fill-opacity:1;stroke:#000f3d;stroke-width:0.921373;stroke-dasharray:none;stroke-opacity:1"
       d="m 15.801222,25.19037 c 0.221837,0.227746 0.513929,0.339465 0.797265,0.465662 2.070129,0.804376 3.943663,-5.640485 4.26638,-7.055163 l 0.01433,-0.351665 c 0.02924,-0.731905 -0.544897,-1.424987 -1.287109,-1.55392 l -6.830095,-1.186657 c -0.742214,-0.128934 -1.363215,0.357063 -1.392452,1.088967 l -0.01396,0.351287 c -0.02924,0.731906 0.544897,1.424987 1.287108,1.553922 l 4.8271,0.773918 -2.014148,4.466845 c -0.193791,0.496266 -0.04018,1.062258 0.345583,1.446804 z"
       sodipodi:nodetypes="cccccccccccc" /><path
       id="path11"
       style="fill:#002aa3;fill-opacity:1;stroke:#000f3d;stroke-width:0.921373;stroke-dasharray:none;stroke-opacity:1"
       d="m 10.887723,25.19037 c -0.221837,0.227746 -0.513929,0.339465 -0.797265,0.465662 -2.0701293,0.804376 -3.9436635,-5.640485 -4.2663805,-7.055163 l -0.01433,-0.351665 c -0.029237,-0.731905 0.5448973,-1.424987 1.2871091,-1.55392 l 6.8300954,-1.186657 c 0.742214,-0.128934 1.363215,0.357063 1.392452,1.088967 l 0.01396,0.351287 c 0.02924,0.731906 -0.544897,1.424987 -1.287108,1.553922 l -4.8271007,0.773918 2.0141487,4.466845 c 0.193791,0.496266 0.04018,1.062258 -0.345583,1.446804 z"
       sodipodi:nodetypes="cccccccccccc" /><path
       id="path10"
       style="fill:#003df7;fill-opacity:1;stroke:#000f3d;stroke-width:0.921373;stroke-dasharray:none;stroke-opacity:1"
       d="m 20.905389,25.19037 c 0.221837,0.227746 0.513929,0.339465 0.797265,0.465662 2.070129,0.804376 3.943663,-5.640485 4.26638,-7.055163 l 0.01433,-0.351665 c 0.02924,-0.731905 -0.544897,-1.424987 -1.287109,-1.55392 L 17.86616,15.508627 c -0.742214,-0.128934 -1.363215,0.357063 -1.392452,1.088967 l -0.01396,0.351287 c -0.02924,0.731906 0.544897,1.424987 1.287108,1.553922 l 4.827101,0.773918 -2.014149,4.466845 c -0.193791,0.496266 -0.04018,1.062258 0.345583,1.446804 z"
       sodipodi:nodetypes="cccccccccccc" /><path
       id="rect1"
       style="fill:#003df7;fill-opacity:1;stroke:#000f3d;stroke-width:0.921373;stroke-dasharray:none;stroke-opacity:1"
       d="M 5.9377229,25.11537 C 5.7158856,25.343116 5.4237939,25.454835 5.1404576,25.581032 3.0703287,26.385408 1.1967945,19.940547 0.87407749,18.525869 l -0.01433,-0.351665 c -0.029237,-0.731905 0.54489731,-1.424987 1.28710911,-1.55392 l 6.8300957,-1.186657 c 0.742214,-0.128934 1.3632147,0.357063 1.3924517,1.088967 l 0.01396,0.351287 c 0.02924,0.731906 -0.5448967,1.424987 -1.2871077,1.553922 l -4.827101,0.773918 2.0141489,4.466845 c 0.1937903,0.496266 0.040183,1.062258 -0.345583,1.446804 z"
       sodipodi:nodetypes="cccccccccccc" /><ellipse
       style="fill:#003df7;fill-opacity:1;stroke:#000f3d;stroke-width:1.10468;stroke-dasharray:none;stroke-opacity:1"
       id="path1"
       cx="13.01317"
       cy="13.311341"
       rx="7.2050362"
       ry="6.2080684" /><path
       id="ellipse3"
       style="fill:#ffffff;stroke:#000f3d;stroke-width:0.791267;stroke-opacity:1"
       d="M 12.651253,5.7819118 C 12.30675,7.9113857 10.415563,9.1375044 8.6318301,8.8954257 6.848097,8.6533467 5.8472809,7.0347411 6.1917839,4.9052673 6.536287,2.7757938 8.2615628,1.2457576 10.045296,1.4878361 c 1.783733,0.2420788 2.95046,2.1646019 2.605957,4.2940757 z"
       sodipodi:nodetypes="sssss" /><ellipse
       style="fill:#001e7d;fill-opacity:1;stroke:none;stroke-width:0.71809;stroke-linecap:round;stroke-opacity:1"
       id="ellipse6"
       cx="-18.156851"
       cy="2.0554247"
       rx="2.7013383"
       ry="1.5347381"
       transform="matrix(-0.92990143,-0.36780883,-0.4353357,0.9002682,0,0)" /><path
       id="ellipse1"
       style="fill:#ffffff;stroke:#000f3d;stroke-width:0.791267;stroke-opacity:1"
       d="m 13.778988,6.2752615 c 0.344503,2.1294738 2.318643,3.3049387 4.102376,3.06286 C 19.665098,9.0960427 20.582959,7.5280908 20.238456,5.398617 19.893954,3.2691431 18.168678,1.739107 16.384943,1.9811857 14.60121,2.2232645 13.434484,4.1457877 13.778988,6.2752615 Z"
       sodipodi:nodetypes="sssss" /><ellipse
       style="fill:#001e7d;fill-opacity:1;stroke:none;stroke-width:0.656924;stroke-linecap:round;stroke-opacity:1"
       id="ellipse5"
       cx="8.1616631"
       cy="10.409732"
       rx="2.3975618"
       ry="1.4471592"
       transform="matrix(0.9793077,-0.20237694,0.21700844,0.97616973,0,0)" /><ellipse
       style="fill:#001e7d;fill-opacity:1;stroke:none;stroke-width:0.825032;stroke-opacity:1"
       id="path7"
       cx="9.3878231"
       cy="5.0734963"
       rx="1.7005787"
       ry="2.1654129" /><ellipse
       style="fill:#001e7d;fill-opacity:1;stroke:none;stroke-width:0.825032;stroke-opacity:1"
       id="ellipse7"
       cx="17.167772"
       cy="5.1896386"
       rx="1.7005787"
       ry="2.1654129" /><path
       id="path8"
       style="fill:#ffffff;stroke:none;stroke-width:0.187814;stroke-opacity:1"
       d="m 11.894364,4.6807985 c -0.08709,0.474593 -0.565158,0.7478564 -1.016065,0.6939047 -0.450908,-0.053951 -0.703903,-0.4146883 -0.616817,-0.8892813 0.08709,-0.474593 0.523217,-0.81559 0.974126,-0.7616383 0.450907,0.053952 0.745842,0.4824219 0.658756,0.9570149 z"
       sodipodi:nodetypes="sssss" /><path
       id="path9"
       style="fill:#ffffff;stroke:none;stroke-width:0.187814;stroke-opacity:1"
       d="m 19.325144,4.9061913 c -0.08709,0.474593 -0.565158,0.7478564 -1.016065,0.6939046 -0.450908,-0.053951 -0.703903,-0.4146882 -0.616817,-0.8892812 0.08708,-0.474593 0.523217,-0.8155901 0.974126,-0.7616383 0.450906,0.053951 0.745842,0.4824219 0.658756,0.9570149 z"
       sodipodi:nodetypes="sssss" /><ellipse
       style="fill:#ffb91e;fill-opacity:1;stroke:none;stroke-width:0.391149;stroke-linecap:round;stroke-opacity:1"
       id="ellipse2"
       cx="17.620218"
       cy="15.167441"
       rx="1.3334808"
       ry="0.92247492" /><path
       style="fill:none;fill-opacity:1;stroke:#000f3d;stroke-width:1.28857;stroke-linecap:round;stroke-linejoin:round;stroke-opacity:1"
       d="m 8.720627,13.806694 c 3.776897,-0.925524 6.677164,-0.517986 9.300251,0.31105"
       id="path14"
       sodipodi:nodetypes="cc" /><path
       id="ellipse14"
       style="fill:#ffb91e;fill-opacity:1;stroke:#734d00;stroke-width:0.4511;stroke-dasharray:none;stroke-opacity:1"
       d="M 5.803746,7.1552799 A 3.2333558,2.3068097 0 0 0 9.0237449,9.2527211 3.2333558,2.3068097 0 0 0 12.243743,7.1552799 Z" /><path
       id="path16"
       style="fill:#ffb91e;fill-opacity:1;stroke:#734d00;stroke-width:0.427851;stroke-dasharray:none;stroke-opacity:1"
       d="M 9.4066609 0.48059081 A 2.8745633 2.3341701 0 0 0 6.5437865 2.6029419 L 7.283793 2.6029419 A 0.60050797 0.53476864 0 0 0 7.2326334 2.8194661 A 0.60050797 0.53476864 0 0 0 7.8331135 3.3543172 A 0.60050797 0.53476864 0 0 0 8.4335936 2.8194661 A 0.60050797 0.53476864 0 0 0 8.382434 2.6029419 L 12.269535 2.6029419 A 2.8745633 2.3341701 0 0 0 9.4066609 0.48059081 z " /><path
       id="path17"
       style="fill:#ffb91e;fill-opacity:1;stroke:#734d00;stroke-width:0.4511;stroke-dasharray:none;stroke-opacity:1"
       d="M 13.81173,7.526511 A 3.2333558,2.3068097 0 0 0 17.031729,9.6239522 3.2333558,2.3068097 0 0 0 20.251727,7.526511 Z" /><path
       id="path18"
       style="fill:#ffb91e;fill-opacity:1;stroke:#734d00;stroke-width:0.410187;stroke-dasharray:none;stroke-opacity:1"
       d="M 14.329372,2.7185282 A 2.6188142,2.3549225 0 0 1 16.937368,0.57734086 2.6188142,2.3549225 0 0 1 19.545363,2.7185282 Z" /><ellipse
       style="fill:#ffb91e;fill-opacity:1;stroke:none;stroke-width:0.267786;stroke-linecap:round;stroke-opacity:1"
       id="path2"
       cx="8.883029"
       cy="10.938059"
       rx="0.97550797"
       ry="0.59101862" /><ellipse
       style="fill:#ffb91e;fill-opacity:1;stroke:none;stroke-width:0.155433;stroke-linecap:round;stroke-opacity:1"
       id="ellipse4"
       cx="18.058764"
       cy="10.549411"
       rx="0.5512439"
       ry="0.35237008" /><ellipse
       style="fill:#ffb91e;fill-opacity:1;stroke:none;stroke-width:0.226024;stroke-linecap:round;stroke-opacity:1"
       id="ellipse8"
       cx="3.6062446"
       cy="17.752802"
       rx="0.89595848"
       ry="0.4584361" /><ellipse
       style="fill:#ffb91e;fill-opacity:1;stroke:none;stroke-width:0.226024;stroke-linecap:round;stroke-opacity:1"
       id="ellipse9"
       cx="18.790665"
       cy="8.024354"
       rx="0.89595848"
       ry="0.4584361"
       transform="rotate(59.118816)" /><ellipse
       style="fill:#ffb91e;fill-opacity:1;stroke:none;stroke-width:0.226024;stroke-linecap:round;stroke-opacity:1"
       id="ellipse10"
       cx="18.790665"
       cy="8.024354"
       rx="0.89595848"
       ry="0.4584361"
       transform="rotate(59.118816)" /><ellipse
       style="fill:#ffb91e;fill-opacity:1;stroke:none;stroke-width:0.286388;stroke-linecap:round;stroke-opacity:1"
       id="ellipse11"
       cx="24.14459"
       cy="-0.5547871"
       rx="0.91488773"
       ry="0.72077268"
       transform="matrix(0.16823715,0.98574655,-0.9831173,0.18297646,0,0)" /><ellipse
       style="fill:#ffb91e;fill-opacity:1;stroke:none;stroke-width:0.226024;stroke-linecap:round;stroke-opacity:1"
       id="ellipse12"
       cx="-23.341951"
       cy="17.752802"
       rx="0.89595848"
       ry="0.4584361"
       transform="scale(-1,1)" /><ellipse
       style="fill:#ffb91e;fill-opacity:1;stroke:none;stroke-width:0.226024;stroke-linecap:round;stroke-opacity:1"
       id="ellipse13"
       cx="4.9592505"
       cy="31.152197"
       rx="0.89595848"
       ry="0.4584361"
       transform="matrix(-0.51325943,0.85823351,0.85823351,0.51325943,0,0)" /><ellipse
       style="fill:#ffb91e;fill-opacity:1;stroke:none;stroke-width:0.226024;stroke-linecap:round;stroke-opacity:1"
       id="ellipse15"
       cx="4.9592505"
       cy="31.152197"
       rx="0.89595848"
       ry="0.4584361"
       transform="matrix(-0.51325943,0.85823351,0.85823351,0.51325943,0,0)" /><ellipse
       style="fill:#ffb91e;fill-opacity:1;stroke:none;stroke-width:0.286388;stroke-linecap:round;stroke-opacity:1"
       id="ellipse16"
       cx="19.213152"
       cy="26.012281"
       rx="0.91488773"
       ry="0.72077268"
       transform="matrix(-0.16823715,0.98574655,0.98311729,0.18297646,0,0)" /><ellipse
       style="fill:#001e7d;fill-opacity:1;stroke:none;stroke-width:0.30239;stroke-linecap:round;stroke-opacity:1"
       id="ellipse17"
       cx="26.017992"
       cy="2.7243998"
       rx="1.1383181"
       ry="0.64584428"
       transform="matrix(0.46310349,0.88630421,-0.95894395,0.28359565,0,0)" /><ellipse
       style="fill:#000f3d;fill-opacity:1;stroke:none;stroke-width:0.450036;stroke-linecap:round;stroke-opacity:1"
       id="ellipse19"
       cx="19.562069"
       cy="-4.4401069"
       rx="1.1512917"
       ry="1.4143794"
       transform="matrix(0.16803047,0.9857818,-0.9985858,-0.05316389,0,0)" /><ellipse
       style="fill:#001e7d;fill-opacity:1;stroke:none;stroke-width:0.30239;stroke-linecap:round;stroke-opacity:1"
       id="ellipse20"
       cx="15.9792"
       cy="26.82534"
       rx="1.1383181"
       ry="0.64584428"
       transform="matrix(-0.46310349,0.88630421,0.95894395,0.28359565,0,0)" /><ellipse
       style="fill:#000f3d;fill-opacity:1;stroke:none;stroke-width:0.450036;stroke-linecap:round;stroke-opacity:1"
       id="ellipse21"
       cx="18.938705"
       cy="-15.998697"
       rx="1.1512917"
       ry="1.4143794"
       transform="matrix(0.16803047,0.9857818,-0.9985858,-0.05316389,0,0)" /></g></svg>
