<?xml version="1.0" encoding="UTF-8" standalone="no"?>
<!-- Created with Inkscape (http://www.inkscape.org/) -->

<svg
   width="100"
   height="100"
   viewBox="0 0 26.458333 26.458333"
   version="1.1"
   id="svg1"
   inkscape:version="1.4.2 (ebf0e940d0, 2025-05-08)"
   sodipodi:docname="sad_flower.svg"
   xml:space="preserve"
   xmlns:inkscape="http://www.inkscape.org/namespaces/inkscape"
   xmlns:sodipodi="http://sodipodi.sourceforge.net/DTD/sodipodi-0.dtd"
   xmlns="http://www.w3.org/2000/svg"
   xmlns:svg="http://www.w3.org/2000/svg"><sodipodi:namedview
     id="namedview1"
     pagecolor="#505050"
     bordercolor="#eeeeee"
     borderopacity="1"
     inkscape:showpageshadow="0"
     inkscape:pageopacity="0"
     inkscape:pagecheckerboard="0"
     inkscape:deskcolor="#505050"
     inkscape:document-units="px"
     inkscape:zoom="7.0555554"
     inkscape:cx="60.023623"
     inkscape:cy="53.64567"
     inkscape:window-width="1366"
     inkscape:window-height="697"
     inkscape:window-x="0"
     inkscape:window-y="0"
     inkscape:window-maximized="1"
     inkscape:current-layer="layer1" /><defs
     id="defs1"><linearGradient
       id="linearGradient13895"
       inkscape:swatch="solid"><stop
         style="stop-color:#000000;stop-opacity:1;"
         offset="0"
         id="stop13893" /></linearGradient><filter
       style="color-interpolation-filters:sRGB;"
       inkscape:label="Clean Edges"
       id="filter14269"
       x="-0.31154084"
       y="-0.29580634"
       width="1.6230817"
       height="1.5916127"><feGaussianBlur
         stdDeviation="0.204612"
         result="blur"
         id="feGaussianBlur14263" /><feComposite
         in="SourceGraphic"
         in2="blur"
         operator="in"
         result="composite1"
         id="feComposite14265" /><feComposite
         in="composite1"
         in2="composite1"
         operator="in"
         result="composite2"
         id="feComposite14267" /></filter><inkscape:path-effect
       effect="fillet_chamfer"
       id="path-effect68"
       is_visible="true"
       lpeversion="1"
       nodesatellites_param="F,0,0,1,0,0,0,1 @ F,0,0,1,0,0,0,1 @ F,0,0,1,0,0,0,1 @ F,0,0,1,0,0,0,1 @ F,0,0,1,0,0,0,1 @ F,0,0,1,0,0,0,1 @ F,0,0,1,0,0,0,1 @ F,0,0,1,0,0,0,1 @ F,0,0,1,0,0,0,1"
       radius="0"
       unit="px"
       method="auto"
       mode="F"
       chamfer_steps="1"
       flexible="false"
       use_knot_distance="true"
       apply_no_radius="true"
       apply_with_radius="true"
       only_selected="false"
       hide_knots="false" /><inkscape:path-effect
       effect="fillet_chamfer"
       id="path-effect66"
       is_visible="true"
       lpeversion="1"
       nodesatellites_param="F,0,0,1,0,0,0,1 @ F,0,0,1,0,0.44929322,0,1 @ F,0,0,1,0,0.44929322,0,1 @ F,0,0,1,0,0,0,1 @ F,0,0,1,0,0,0,1 @ F,0,0,1,0,0,0,1 @ F,0,0,1,0,0,0,1 @ F,0,0,1,0,0,0,1 @ F,0,0,1,0,0,0,1 @ F,0,0,1,0,0,0,1"
       radius="0"
       unit="px"
       method="auto"
       mode="F"
       chamfer_steps="1"
       flexible="false"
       use_knot_distance="true"
       apply_no_radius="true"
       apply_with_radius="true"
       only_selected="false"
       hide_knots="false" /><inkscape:path-effect
       effect="fillet_chamfer"
       id="path-effect68-7"
       is_visible="true"
       lpeversion="1"
       nodesatellites_param="F,0,0,1,0,0,0,1 @ F,0,0,1,0,0,0,1 @ F,0,0,1,0,0,0,1 @ F,0,0,1,0,0,0,1 @ F,0,0,1,0,0,0,1 @ F,0,0,1,0,0,0,1 @ F,0,0,1,0,0,0,1 @ F,0,0,1,0,0,0,1 @ F,0,0,1,0,0,0,1"
       radius="0"
       unit="px"
       method="auto"
       mode="F"
       chamfer_steps="1"
       flexible="false"
       use_knot_distance="true"
       apply_no_radius="true"
       apply_with_radius="true"
       only_selected="false"
       hide_knots="false" /><inkscape:path-effect
       effect="fillet_chamfer"
       id="path-effect66-5"
       is_visible="true"
       lpeversion="1"
       nodesatellites_param="F,0,0,1,0,0,0,1 @ F,0,0,1,0,0.44929322,0,1 @ F,0,0,1,0,0.44929322,0,1 @ F,0,0,1,0,0,0,1 @ F,0,0,1,0,0,0,1 @ F,0,0,1,0,0,0,1 @ F,0,0,1,0,0,0,1 @ F,0,0,1,0,0,0,1 @ F,0,0,1,0,0,0,1 @ F,0,0,1,0,0,0,1"
       radius="0"
       unit="px"
       method="auto"
       mode="F"
       chamfer_steps="1"
       flexible="false"
       use_knot_distance="true"
       apply_no_radius="true"
       apply_with_radius="true"
       only_selected="false"
       hide_knots="false" /><inkscape:path-effect
       effect="fillet_chamfer"
       id="path-effect68-3"
       is_visible="true"
       lpeversion="1"
       nodesatellites_param="F,0,0,1,0,0,0,1 @ F,0,0,1,0,0,0,1 @ F,0,0,1,0,0,0,1 @ F,0,0,1,0,0,0,1 @ F,0,0,1,0,0,0,1 @ F,0,0,1,0,0,0,1 @ F,0,0,1,0,0,0,1 @ F,0,0,1,0,0,0,1 @ F,0,0,1,0,0,0,1"
       radius="0"
       unit="px"
       method="auto"
       mode="F"
       chamfer_steps="1"
       flexible="false"
       use_knot_distance="true"
       apply_no_radius="true"
       apply_with_radius="true"
       only_selected="false"
       hide_knots="false" /><inkscape:path-effect
       effect="fillet_chamfer"
       id="path-effect66-6"
       is_visible="true"
       lpeversion="1"
       nodesatellites_param="F,0,0,1,0,0,0,1 @ F,0,0,1,0,0.44929322,0,1 @ F,0,0,1,0,0.44929322,0,1 @ F,0,0,1,0,0,0,1 @ F,0,0,1,0,0,0,1 @ F,0,0,1,0,0,0,1 @ F,0,0,1,0,0,0,1 @ F,0,0,1,0,0,0,1 @ F,0,0,1,0,0,0,1 @ F,0,0,1,0,0,0,1"
       radius="0"
       unit="px"
       method="auto"
       mode="F"
       chamfer_steps="1"
       flexible="false"
       use_knot_distance="true"
       apply_no_radius="true"
       apply_with_radius="true"
       only_selected="false"
       hide_knots="false" /><filter
       style="color-interpolation-filters:sRGB;"
       inkscape:label="Clean Edges"
       id="filter14269-5"
       x="-0.31154084"
       y="-0.29580634"
       width="1.6230817"
       height="1.5916127"><feGaussianBlur
         stdDeviation="0.204612"
         result="blur"
         id="feGaussianBlur14263-6" /><feComposite
         in="SourceGraphic"
         in2="blur"
         operator="in"
         result="composite1"
         id="feComposite14265-2" /><feComposite
         in="composite1"
         in2="composite1"
         operator="in"
         result="composite2"
         id="feComposite14267-9" /></filter></defs><g
     inkscape:label="Camada 1"
     inkscape:groupmode="layer"
     id="layer1"><ellipse
       style="fill:#8e0eff;fill-opacity:1;stroke:#2b0052;stroke-width:0.719853;stroke-dasharray:none;stroke-opacity:1"
       id="ellipse2"
       cx="20.384892"
       cy="11.090398"
       rx="5.4269242"
       ry="4.3783736" /><ellipse
       style="fill:#8e0eff;fill-opacity:1;stroke:#2b0052;stroke-width:0.719853;stroke-dasharray:none;stroke-opacity:1"
       id="path4"
       cx="5.9848905"
       cy="11.390398"
       rx="5.4269242"
       ry="4.3783736" /><path
       id="path19"
       style="fill:#f4bb12;fill-opacity:1;stroke:none;stroke-width:0.613482;stroke-dasharray:none;stroke-opacity:1"
       d="m 22.657786,8.446856 c -0.282269,-0.6029659 1.502388,-0.6746659 2.146974,0.7592758 -1.753468,0.1156669 -1.5938,1.4973442 -1.898622,2.4798132 0.172497,0.958578 0.244423,1.481437 1.458384,1.888824 -1.490605,1.436085 -1.831363,0.738598 -2.47013,0.809304 -0.308356,-0.960415 -1.221383,-1.954869 -2.508442,-2.732155 -0.08011,-0.04825 -0.16141,-0.09551 -0.243816,-0.141727 0.381069,-0.16681 0.747967,-0.35642 1.09345,-0.565084 1.178943,-0.711858 2.048622,-1.6088421 2.422202,-2.498251 z"
       sodipodi:nodetypes="ccccccccc" /><ellipse
       style="fill:#8e0eff;fill-opacity:1;stroke:#2b0052;stroke-width:0.748365;stroke-dasharray:none;stroke-opacity:1"
       id="ellipse8"
       cx="-24.361322"
       cy="-1.9385781"
       rx="5.9468083"
       ry="3.9917655"
       transform="matrix(-0.71408912,-0.70005481,-0.60338199,0.7974523,0,0)" /><ellipse
       style="fill:#f4bb12;fill-opacity:1;stroke:none;stroke-width:0.548535;stroke-dasharray:none;stroke-opacity:1"
       id="ellipse10"
       cx="-23.347599"
       cy="-1.5648899"
       rx="4.366992"
       ry="2.9204361"
       transform="matrix(-0.72292791,-0.69092346,-0.61312731,0.78998411,0,0)" /><ellipse
       style="fill:#8e0eff;fill-opacity:1;stroke:#2b0052;stroke-width:0.721396;stroke-dasharray:none;stroke-opacity:1"
       id="ellipse7"
       cx="-6.1861043"
       cy="-13.512349"
       rx="5.3136792"
       ry="4.49088"
       transform="matrix(0.02754617,-0.99962053,-0.9998602,-0.01672091,0,0)" /><ellipse
       style="fill:#f4bb12;fill-opacity:1;stroke:none;stroke-width:0.579458;stroke-dasharray:none;stroke-opacity:1"
       id="ellipse14"
       cx="-6.1605606"
       cy="-13.720072"
       rx="4.003201"
       ry="3.8460598"
       transform="matrix(0.03131465,-0.99950958,-0.99989184,-0.01470751,0,0)" /><path
       id="ellipse17"
       style="fill:#f4bb12;fill-opacity:1;stroke:none;stroke-width:0.685737;stroke-dasharray:none;stroke-opacity:1"
       d="m 4.2847253,8.1828732 c 0.3046997,-0.697903 -1.9509545,-0.059641 -2.3175918,0.878824 1.8928136,0.1338786 2.5934803,1.3341108 2.5933546,2.8395678 -1.516e-4,1.140198 -0.3354074,2.175063 -1.6458407,2.646593 0.5070483,0.572648 1.5046088,0.425209 2.194136,0.507048 0.3328611,-1.111632 1.3184455,-2.262664 2.707784,-3.162333 C 7.9030429,11.83672 7.990805,11.78202 8.0797602,11.728531 7.668408,11.535456 7.2723527,11.315992 6.8994147,11.074474 5.6267827,10.250534 4.6879916,9.2123197 4.2847253,8.1828732 Z"
       sodipodi:nodetypes="ccccccccc" /><ellipse
       style="fill:#8e0eff;fill-opacity:1;stroke:#2b0052;stroke-width:0.706855;stroke-dasharray:none;stroke-opacity:1"
       id="ellipse1"
       cx="-2.5764263"
       cy="17.210745"
       rx="5.6128249"
       ry="3.7731273"
       transform="matrix(0.71054534,-0.70365141,0.59950503,0.80037099,0,0)" /><ellipse
       style="fill:#8e0eff;fill-opacity:1;stroke:#2b0052;stroke-width:0.7278;stroke-dasharray:none;stroke-opacity:1"
       id="ellipse4"
       cx="-11.416211"
       cy="0.10833033"
       rx="5.8284183"
       ry="3.8520768"
       transform="matrix(-0.74984229,-0.66161661,-0.64349727,0.76544841,0,0)" /><ellipse
       style="fill:#8e0eff;fill-opacity:1;stroke:#2b0052;stroke-width:0.724039;stroke-dasharray:none;stroke-opacity:1"
       id="ellipse3"
       cx="8.9044161"
       cy="17.775089"
       rx="5.8029881"
       ry="3.8290792"
       transform="matrix(0.75340643,-0.65755513,0.64760122,0.76197944,0,0)" /><ellipse
       style="fill:#f4bb12;fill-opacity:1;stroke:none;stroke-width:0.622858;stroke-dasharray:none;stroke-opacity:1"
       id="ellipse16"
       cx="8.8380661"
       cy="18.427776"
       rx="4.9355884"
       ry="3.3316629"
       transform="matrix(0.70039545,-0.71375501,0.58849421,0.80850143,0,0)" /><path
       id="rect22"
       style="fill:#6f31ff;fill-opacity:1;stroke:#2b0052;stroke-width:0.663704;stroke-linejoin:round;stroke-dasharray:none;stroke-opacity:1"
       d="m 11.656076,13.541446 c 0,0 2.578875,-6.7293154 2.69625,0 0.117375,6.729315 0.08748,9.733877 1.458424,12.240516 -1.661626,0.505512 -4.38294,0.174678 -5.386818,-0.02733 0.423154,-3.35342 2.699219,-2.824699 1.232144,-12.213183 z"
       sodipodi:nodetypes="czcccc" /><path
       id="path28"
       style="fill:#2b0052;fill-opacity:1;stroke-width:0.638838;stroke-linecap:round;stroke-linejoin:round"
       d="m 14.434937,18.245385 c 1e-6,0.883124 0.184211,1.18405 -1.108294,1.605051 -0.664149,0.216329 -1.111413,-0.702655 -1.111413,-1.585778 0,-0.883123 0.412448,-1.612293 1.111413,-1.612293 0.698964,0 1.108294,0.709898 1.108294,1.59302 z"
       sodipodi:nodetypes="sssss" /><ellipse
       style="fill:#f4bb12;fill-opacity:1;stroke:none;stroke-width:0.622858;stroke-dasharray:none;stroke-opacity:1"
       id="ellipse15"
       cx="-12.640295"
       cy="-0.80391961"
       rx="4.9355884"
       ry="3.3316629"
       transform="matrix(-0.70039545,-0.71375501,-0.58849421,0.80850143,0,0)" /><path
       style="fill:none;stroke:#954800;stroke-width:0.503237;stroke-linecap:round;stroke-linejoin:round;stroke-dasharray:none;stroke-opacity:1"
       d="M 10.085799,9.2216981 C 8.8590059,8.7449497 7.6318072,8.2692178 6.989787,6.3281673"
       id="path22"
       sodipodi:nodetypes="cc" /><path
       style="fill:none;stroke:#954800;stroke-width:0.503237;stroke-linecap:round;stroke-linejoin:round;stroke-dasharray:none;stroke-opacity:1"
       d="M 17.018953,8.9966981 C 18.245746,8.5199497 19.472945,8.0442178 20.114965,6.1031673"
       id="path23"
       sodipodi:nodetypes="cc" /><path
       style="fill:none;stroke:#2b0052;stroke-width:0.503237;stroke-linecap:round;stroke-linejoin:round;stroke-dasharray:none;stroke-opacity:0.98431373"
       d="m 2.6999999,11.779167 c 1.217439,-0.500154 2.434471,-1.001323 4.2375,-0.0375"
       id="path24"
       sodipodi:nodetypes="cc" /><ellipse
       style="fill:#f4bb12;fill-opacity:1;stroke:none;stroke-width:0.622858;stroke-dasharray:none;stroke-opacity:1"
       id="ellipse9"
       cx="-1.3846378"
       cy="17.135206"
       rx="4.9355884"
       ry="3.3316629"
       transform="matrix(0.70039545,-0.71375501,0.58849421,0.80850143,0,0)" /><path
       style="fill:none;stroke:#954800;stroke-width:0.503237;stroke-linecap:round;stroke-linejoin:round;stroke-dasharray:none;stroke-opacity:1"
       d="m 5.7905526,18.138762 c 1.2267933,-0.476748 2.453992,-0.95248 3.0960122,-2.89353"
       id="path26"
       sodipodi:nodetypes="cc" /><path
       style="fill:none;stroke:#954800;stroke-width:0.503237;stroke-linecap:round;stroke-linejoin:round;stroke-dasharray:none;stroke-opacity:1"
       d="m 20.557707,17.809257 c -1.226793,-0.476748 -2.453992,-0.95248 -3.096012,-2.89353"
       id="path27"
       sodipodi:nodetypes="cc" /><ellipse
       style="fill:#6f31ff;fill-opacity:1;stroke:#2b0052;stroke-width:0.910477;stroke-dasharray:none;stroke-opacity:1"
       id="path3"
       cx="12.838708"
       cy="11.351051"
       rx="5.7571621"
       ry="5.6966004" /><path
       style="fill:none;stroke:#954800;stroke-width:0.503237;stroke-linecap:round;stroke-linejoin:round;stroke-dasharray:none;stroke-opacity:1"
       d="m 11.325,3.4541666 c 1.217439,-0.5001532 2.434471,-1.0013224 4.2375,-0.0375"
       id="path5"
       sodipodi:nodetypes="cc" /><path
       id="path9421"
       style="fill:#ffffff;fill-opacity:1;stroke:#2b0052;stroke-width:0.60146;stroke-miterlimit:4;stroke-dasharray:none;stroke-opacity:1"
       d="m 8.905741,8.9143237 c -0.901682,2.0317953 -0.10715,4.0302803 1.6922,3.9738803 1.776514,-0.05574 2.744402,-2.07756 1.745882,-3.9937825 -1.239419,0.00152 -2.27593,-0.0065 -3.438082,0.019902 z"
       sodipodi:nodetypes="cccc" /><ellipse
       style="fill:#2b0052;fill-opacity:1;stroke:none;stroke-width:1.33846"
       id="path4-8"
       cx="-10.975967"
       cy="10.573831"
       rx="1.4049872"
       ry="1.4606799"
       transform="matrix(-0.99950861,-0.03134561,-0.03134561,0.99950861,0,0)" /><path
       id="ellipse6"
       style="fill:#5300e4;fill-opacity:1;stroke:none;stroke-width:1.33846"
       d="M 9.727996,9.7889831 A 1.4606797,1.4049871 88.20374 0 0 9.192685,10.983389 1.4606797,1.4049871 88.20374 0 0 10.642854,12.399236 1.4606797,1.4049871 88.20374 0 0 11.805299,11.687411 1.4606797,1.4049871 88.20374 0 1 10.98266,11.99692 1.4606797,1.4049871 88.20374 0 1 9.532492,10.581074 1.4606797,1.4049871 88.20374 0 1 9.727997,9.788986 Z" /><ellipse
       style="fill:#ffffff;fill-opacity:1;stroke:none;stroke-width:0.531597"
       id="ellipse5"
       cx="-11.038586"
       cy="9.5155249"
       rx="0.56705737"
       ry="0.57088196"
       transform="matrix(-0.99950861,-0.03134561,-0.03134561,0.99950861,0,0)" /><path
       style="fill:none;stroke:#2b0052;stroke-width:0.464041;stroke-linecap:round;stroke-linejoin:round;stroke-dasharray:none;stroke-opacity:1"
       d="m 20.455121,11.383275 c 0.970291,-0.533602 1.940256,-1.068288 3.377258,-0.04001"
       id="path25"
       sodipodi:nodetypes="cc" /><path
       style="fill:none;stroke:#2b0052;stroke-width:0.476596;stroke-linecap:round;stroke-linejoin:round;stroke-dasharray:none;stroke-opacity:1"
       d="m 11.576832,24.45095 c 0.837594,0.652036 1.674909,1.305397 2.915388,0.04889"
       id="path31"
       sodipodi:nodetypes="cc" /><path
       id="path10"
       style="fill:#ffffff;fill-opacity:1;stroke:#2b0052;stroke-width:0.60146;stroke-miterlimit:4;stroke-dasharray:none;stroke-opacity:1"
       d="m 13.625679,8.7552247 c -0.901682,2.0317953 -0.03215,4.7802803 1.7672,4.7238803 1.776514,-0.05574 2.669402,-2.82756 1.670882,-4.7437825 -1.239419,0.00152 -2.27593,-0.0065 -3.438082,0.019902 z"
       sodipodi:nodetypes="cccc" /><ellipse
       style="fill:#2b0052;fill-opacity:1;stroke:none;stroke-width:1.33846"
       id="ellipse11"
       cx="-15.688599"
       cy="10.26686"
       rx="1.4049872"
       ry="1.4606799"
       transform="matrix(-0.99950861,-0.03134561,-0.03134561,0.99950861,0,0)" /><path
       id="path11"
       style="fill:#5300e4;fill-opacity:1;stroke:none;stroke-width:1.33846"
       d="m 14.447934,9.6298841 a 1.4606797,1.4049871 88.20374 0 0 -0.535311,1.1944059 1.4606797,1.4049871 88.20374 0 0 1.450169,1.415847 1.4606797,1.4049871 88.20374 0 0 1.162445,-0.711825 1.4606797,1.4049871 88.20374 0 1 -0.822639,0.309509 1.4606797,1.4049871 88.20374 0 1 -1.450168,-1.415846 1.4606797,1.4049871 88.20374 0 1 0.195505,-0.792088 z" /><ellipse
       style="fill:#ffffff;fill-opacity:1;stroke:none;stroke-width:0.531597"
       id="ellipse12"
       cx="-15.751217"
       cy="9.2085543"
       rx="0.56705737"
       ry="0.57088196"
       transform="matrix(-0.99950861,-0.03134561,-0.03134561,0.99950861,0,0)" /><path
       style="fill:none;stroke:#2b0052;stroke-width:0.522936;stroke-linecap:round;stroke-linejoin:round;stroke-dasharray:none;stroke-opacity:1"
       d="m 11.865273,15.802598 c 1.159421,-0.5671 2.318456,-1.135354 4.035562,-0.04252"
       id="path12"
       sodipodi:nodetypes="cc" /></g></svg>
