<?xml version="1.0" encoding="UTF-8" standalone="no"?>
<!-- Created with Inkscape (http://www.inkscape.org/) -->

<svg
   width="100"
   height="100"
   viewBox="0 0 26.458333 26.458333"
   version="1.1"
   id="svg1"
   inkscape:version="1.4.2 (ebf0e940d0, 2025-05-08)"
   sodipodi:docname="sad_flower[0][1].svg"
   xml:space="preserve"
   xmlns:inkscape="http://www.inkscape.org/namespaces/inkscape"
   xmlns:sodipodi="http://sodipodi.sourceforge.net/DTD/sodipodi-0.dtd"
   xmlns="http://www.w3.org/2000/svg"
   xmlns:svg="http://www.w3.org/2000/svg"><sodipodi:namedview
     id="namedview1"
     pagecolor="#505050"
     bordercolor="#eeeeee"
     borderopacity="1"
     inkscape:showpageshadow="0"
     inkscape:pageopacity="0"
     inkscape:pagecheckerboard="0"
     inkscape:deskcolor="#505050"
     inkscape:document-units="px"
     inkscape:zoom="14.111111"
     inkscape:cx="68.704726"
     inkscape:cy="56.940946"
     inkscape:window-width="1366"
     inkscape:window-height="697"
     inkscape:window-x="0"
     inkscape:window-y="0"
     inkscape:window-maximized="1"
     inkscape:current-layer="layer1" /><defs
     id="defs1"><linearGradient
       id="linearGradient13895"
       inkscape:swatch="solid"><stop
         style="stop-color:#000000;stop-opacity:1;"
         offset="0"
         id="stop13893" /></linearGradient><filter
       style="color-interpolation-filters:sRGB;"
       inkscape:label="Clean Edges"
       id="filter14269"
       x="-0.31154084"
       y="-0.29580634"
       width="1.6230817"
       height="1.5916127"><feGaussianBlur
         stdDeviation="0.204612"
         result="blur"
         id="feGaussianBlur14263" /><feComposite
         in="SourceGraphic"
         in2="blur"
         operator="in"
         result="composite1"
         id="feComposite14265" /><feComposite
         in="composite1"
         in2="composite1"
         operator="in"
         result="composite2"
         id="feComposite14267" /></filter><inkscape:path-effect
       effect="fillet_chamfer"
       id="path-effect68"
       is_visible="true"
       lpeversion="1"
       nodesatellites_param="F,0,0,1,0,0,0,1 @ F,0,0,1,0,0,0,1 @ F,0,0,1,0,0,0,1 @ F,0,0,1,0,0,0,1 @ F,0,0,1,0,0,0,1 @ F,0,0,1,0,0,0,1 @ F,0,0,1,0,0,0,1 @ F,0,0,1,0,0,0,1 @ F,0,0,1,0,0,0,1"
       radius="0"
       unit="px"
       method="auto"
       mode="F"
       chamfer_steps="1"
       flexible="false"
       use_knot_distance="true"
       apply_no_radius="true"
       apply_with_radius="true"
       only_selected="false"
       hide_knots="false" /><inkscape:path-effect
       effect="fillet_chamfer"
       id="path-effect66"
       is_visible="true"
       lpeversion="1"
       nodesatellites_param="F,0,0,1,0,0,0,1 @ F,0,0,1,0,0.44929322,0,1 @ F,0,0,1,0,0.44929322,0,1 @ F,0,0,1,0,0,0,1 @ F,0,0,1,0,0,0,1 @ F,0,0,1,0,0,0,1 @ F,0,0,1,0,0,0,1 @ F,0,0,1,0,0,0,1 @ F,0,0,1,0,0,0,1 @ F,0,0,1,0,0,0,1"
       radius="0"
       unit="px"
       method="auto"
       mode="F"
       chamfer_steps="1"
       flexible="false"
       use_knot_distance="true"
       apply_no_radius="true"
       apply_with_radius="true"
       only_selected="false"
       hide_knots="false" /><inkscape:path-effect
       effect="fillet_chamfer"
       id="path-effect68-7"
       is_visible="true"
       lpeversion="1"
       nodesatellites_param="F,0,0,1,0,0,0,1 @ F,0,0,1,0,0,0,1 @ F,0,0,1,0,0,0,1 @ F,0,0,1,0,0,0,1 @ F,0,0,1,0,0,0,1 @ F,0,0,1,0,0,0,1 @ F,0,0,1,0,0,0,1 @ F,0,0,1,0,0,0,1 @ F,0,0,1,0,0,0,1"
       radius="0"
       unit="px"
       method="auto"
       mode="F"
       chamfer_steps="1"
       flexible="false"
       use_knot_distance="true"
       apply_no_radius="true"
       apply_with_radius="true"
       only_selected="false"
       hide_knots="false" /><inkscape:path-effect
       effect="fillet_chamfer"
       id="path-effect66-5"
       is_visible="true"
       lpeversion="1"
       nodesatellites_param="F,0,0,1,0,0,0,1 @ F,0,0,1,0,0.44929322,0,1 @ F,0,0,1,0,0.44929322,0,1 @ F,0,0,1,0,0,0,1 @ F,0,0,1,0,0,0,1 @ F,0,0,1,0,0,0,1 @ F,0,0,1,0,0,0,1 @ F,0,0,1,0,0,0,1 @ F,0,0,1,0,0,0,1 @ F,0,0,1,0,0,0,1"
       radius="0"
       unit="px"
       method="auto"
       mode="F"
       chamfer_steps="1"
       flexible="false"
       use_knot_distance="true"
       apply_no_radius="true"
       apply_with_radius="true"
       only_selected="false"
       hide_knots="false" /><inkscape:path-effect
       effect="fillet_chamfer"
       id="path-effect68-3"
       is_visible="true"
       lpeversion="1"
       nodesatellites_param="F,0,0,1,0,0,0,1 @ F,0,0,1,0,0,0,1 @ F,0,0,1,0,0,0,1 @ F,0,0,1,0,0,0,1 @ F,0,0,1,0,0,0,1 @ F,0,0,1,0,0,0,1 @ F,0,0,1,0,0,0,1 @ F,0,0,1,0,0,0,1 @ F,0,0,1,0,0,0,1"
       radius="0"
       unit="px"
       method="auto"
       mode="F"
       chamfer_steps="1"
       flexible="false"
       use_knot_distance="true"
       apply_no_radius="true"
       apply_with_radius="true"
       only_selected="false"
       hide_knots="false" /><inkscape:path-effect
       effect="fillet_chamfer"
       id="path-effect66-6"
       is_visible="true"
       lpeversion="1"
       nodesatellites_param="F,0,0,1,0,0,0,1 @ F,0,0,1,0,0.44929322,0,1 @ F,0,0,1,0,0.44929322,0,1 @ F,0,0,1,0,0,0,1 @ F,0,0,1,0,0,0,1 @ F,0,0,1,0,0,0,1 @ F,0,0,1,0,0,0,1 @ F,0,0,1,0,0,0,1 @ F,0,0,1,0,0,0,1 @ F,0,0,1,0,0,0,1"
       radius="0"
       unit="px"
       method="auto"
       mode="F"
       chamfer_steps="1"
       flexible="false"
       use_knot_distance="true"
       apply_no_radius="true"
       apply_with_radius="true"
       only_selected="false"
       hide_knots="false" /><filter
       style="color-interpolation-filters:sRGB;"
       inkscape:label="Clean Edges"
       id="filter14269-5"
       x="-0.31154084"
       y="-0.29580634"
       width="1.6230817"
       height="1.5916127"><feGaussianBlur
         stdDeviation="0.204612"
         result="blur"
         id="feGaussianBlur14263-6" /><feComposite
         in="SourceGraphic"
         in2="blur"
         operator="in"
         result="composite1"
         id="feComposite14265-2" /><feComposite
         in="composite1"
         in2="composite1"
         operator="in"
         result="composite2"
         id="feComposite14267-9" /></filter></defs><g
     inkscape:label="Camada 1"
     inkscape:groupmode="layer"
     id="layer1"><path
       id="rect22"
       style="fill:#6f31ff;fill-opacity:1;stroke:#2b0052;stroke-width:0.663704;stroke-linejoin:round;stroke-dasharray:none;stroke-opacity:1"
       d="m 11.656076,13.541446 c 0,0 2.578875,-6.7293154 2.69625,0 0.117375,6.729315 0.08748,9.733877 1.458424,12.240516 -1.661626,0.505512 -4.38294,0.174678 -5.386818,-0.02733 0.423154,-3.35342 2.699219,-2.824699 1.232144,-12.213183 z"
       sodipodi:nodetypes="czcccc" /><path
       style="fill:none;stroke:#2b0052;stroke-width:0.476596;stroke-linecap:round;stroke-linejoin:round;stroke-dasharray:none;stroke-opacity:1"
       d="m 11.576832,24.45095 c 0.837594,0.652036 1.674909,1.305397 2.915388,0.04889"
       id="path31"
       sodipodi:nodetypes="cc" /><ellipse
       style="fill:#8e0eff;fill-opacity:1;stroke:#2b0052;stroke-width:0.699643;stroke-dasharray:none;stroke-opacity:1"
       id="ellipse2"
       cx="20.390806"
       cy="12.694528"
       rx="5.4313827"
       ry="4.1325788" /><ellipse
       style="fill:#8e0eff;fill-opacity:1;stroke:#2b0052;stroke-width:0.699643;stroke-dasharray:none;stroke-opacity:1"
       id="path4"
       cx="5.9789758"
       cy="12.977687"
       rx="5.4313827"
       ry="4.1325788" /><path
       id="path19"
       style="fill:#f4bb12;fill-opacity:1;stroke:none;stroke-width:0.596258;stroke-dasharray:none;stroke-opacity:1"
       d="m 22.665568,10.19939 c -0.282501,-0.5691161 1.503622,-0.636791 2.148738,0.716652 -1.754909,0.109173 -1.595109,1.413285 -1.900182,2.3406 0.172639,0.904765 0.244624,1.398271 1.459582,1.782788 -1.491829,1.355466 -1.832867,0.697135 -2.472159,0.763871 -0.308609,-0.906499 -1.222386,-1.845125 -2.510503,-2.578776 -0.08018,-0.04554 -0.161542,-0.09015 -0.244016,-0.133771 0.381382,-0.157445 0.748582,-0.336411 1.094348,-0.533361 1.179912,-0.671895 2.050305,-1.518524 2.424192,-2.358003 z"
       sodipodi:nodetypes="ccccccccc" /><ellipse
       style="fill:#8e0eff;fill-opacity:1;stroke:#2b0052;stroke-width:0.725276;stroke-dasharray:none;stroke-opacity:1"
       id="ellipse8"
       cx="-24.230793"
       cy="-0.28523082"
       rx="5.7881675"
       ry="3.8520069"
       transform="matrix(-0.73426342,-0.67886467,-0.62578759,0.77999352,0,0)" /><ellipse
       style="fill:#f4bb12;fill-opacity:1;stroke:none;stroke-width:0.531996;stroke-dasharray:none;stroke-opacity:1"
       id="ellipse10"
       cx="-24.149658"
       cy="0.15178205"
       rx="4.2536502"
       ry="2.820173"
       transform="matrix(-0.74280056,-0.66951275,-0.63544688,0.77214459,0,0)" /><ellipse
       style="fill:#8e0eff;fill-opacity:1;stroke:#2b0052;stroke-width:0.701154;stroke-dasharray:none;stroke-opacity:1"
       id="ellipse7"
       cx="-8.0659237"
       cy="-13.577456"
       rx="5.015614"
       ry="4.4944997"
       transform="matrix(0.02920714,-0.99957338,-0.99987565,-0.01576951,0,0)" /><ellipse
       style="fill:#f4bb12;fill-opacity:1;stroke:none;stroke-width:0.563203;stroke-dasharray:none;stroke-opacity:1"
       id="ellipse14"
       cx="-8.0421505"
       cy="-13.794298"
       rx="3.778698"
       ry="3.8491735"
       transform="matrix(0.03320239,-0.99944865,-0.9999038,-0.01387062,0,0)" /><path
       id="ellipse17"
       style="fill:#f4bb12;fill-opacity:1;stroke:none;stroke-width:0.666485;stroke-dasharray:none;stroke-opacity:1"
       d="m 4.2774141,9.950227 c 0.30495,-0.6587238 -1.9525573,-0.056293 -2.3194957,0.829488 1.8943685,0.126363 2.5956108,1.259216 2.595485,2.680159 -1.517e-4,1.076189 -0.3356829,2.052959 -1.6471928,2.498018 0.5074649,0.5405 1.5058449,0.401338 2.1959385,0.478583 0.3331346,-1.049227 1.3195286,-2.135642 2.7100085,-2.984805 0.086546,-0.05272 0.1743807,-0.104347 0.263409,-0.154833 C 7.6638764,13.114601 7.2674958,12.907457 6.8942514,12.679498 5.620574,11.901813 4.6810116,10.921882 4.2774141,9.950227 Z"
       sodipodi:nodetypes="ccccccccc" /><ellipse
       style="fill:#8e0eff;fill-opacity:1;stroke:#2b0052;stroke-width:0.68485;stroke-dasharray:none;stroke-opacity:1"
       id="ellipse1"
       cx="-3.9048007"
       cy="18.228741"
       rx="5.4614811"
       ry="3.6400135"
       transform="matrix(0.73083527,-0.68255389,0.62193919,0.78306554,0,0)" /><ellipse
       style="fill:#8e0eff;fill-opacity:1;stroke:#2b0052;stroke-width:0.70747;stroke-dasharray:none;stroke-opacity:1"
       id="ellipse4"
       cx="-12.856956"
       cy="1.8726178"
       rx="5.690268"
       ry="3.728251"
       transform="matrix(-0.76867818,-0.63963572,-0.66541584,0.74647288,0,0)" /><ellipse
       style="fill:#8e0eff;fill-opacity:1;stroke:#2b0052;stroke-width:0.704034;stroke-dasharray:none;stroke-opacity:1"
       id="ellipse3"
       cx="7.195828"
       cy="18.923168"
       rx="5.6672039"
       ry="3.7071533"
       transform="matrix(0.77209152,-0.63551135,0.66944988,0.74285722,0,0)" /><ellipse
       style="fill:#f4bb12;fill-opacity:1;stroke:none;stroke-width:0.60298;stroke-dasharray:none;stroke-opacity:1"
       id="ellipse16"
       cx="7.2154031"
       cy="19.371181"
       rx="4.7984805"
       ry="3.2116208"
       transform="matrix(0.72099979,-0.69293528,0.61099214,0.79163667,0,0)" /><path
       id="path28"
       style="fill:#2b0052;fill-opacity:1;stroke-width:0.620902;stroke-linecap:round;stroke-linejoin:round"
       d="m 14.435964,19.447845 c 10e-7,0.833547 0.184362,1.11758 -1.109204,1.514946 -0.664695,0.204185 -1.112326,-0.663209 -1.112326,-1.496755 0,-0.833546 0.412786,-1.521781 1.112326,-1.521781 0.699538,0 1.109204,0.670045 1.109204,1.50359 z"
       sodipodi:nodetypes="sssss" /><ellipse
       style="fill:#f4bb12;fill-opacity:1;stroke:none;stroke-width:0.60298;stroke-dasharray:none;stroke-opacity:1"
       id="ellipse15"
       cx="-13.649052"
       cy="0.84751636"
       rx="4.7984805"
       ry="3.2116208"
       transform="matrix(-0.72099979,-0.69293528,-0.61099214,0.79163667,0,0)" /><path
       style="fill:none;stroke:#954800;stroke-width:0.489108;stroke-linecap:round;stroke-linejoin:round;stroke-dasharray:none;stroke-opacity:1"
       d="M 10.083253,10.930734 C 8.8554524,10.480749 7.6272456,10.031724 6.984698,8.1996414"
       id="path22"
       sodipodi:nodetypes="cc" /><path
       style="fill:none;stroke:#954800;stroke-width:0.489108;stroke-linecap:round;stroke-linejoin:round;stroke-dasharray:none;stroke-opacity:1"
       d="m 17.022103,10.718365 c 1.227801,-0.449984 2.456008,-0.8990095 3.098555,-2.7310925"
       id="path23"
       sodipodi:nodetypes="cc" /><path
       style="fill:none;stroke:#2b0052;stroke-width:0.489108;stroke-linecap:round;stroke-linejoin:round;stroke-dasharray:none;stroke-opacity:0.984314"
       d="M 2.6913868,13.344631 C 3.9098259,12.872554 5.1278577,12.39952 6.9323679,13.309236"
       id="path24"
       sodipodi:nodetypes="cc" /><ellipse
       style="fill:#f4bb12;fill-opacity:1;stroke:none;stroke-width:0.60298;stroke-dasharray:none;stroke-opacity:1"
       id="ellipse9"
       cx="-2.7233198"
       cy="18.125183"
       rx="4.7984805"
       ry="3.2116208"
       transform="matrix(0.72099979,-0.69293528,0.61099214,0.79163667,0,0)" /><path
       style="fill:none;stroke:#954800;stroke-width:0.489108;stroke-linecap:round;stroke-linejoin:round;stroke-dasharray:none;stroke-opacity:1"
       d="M 5.7844784,19.347208 C 7.0122795,18.897224 8.2404863,18.448199 8.883034,16.616116"
       id="path26"
       sodipodi:nodetypes="cc" /><path
       style="fill:none;stroke:#954800;stroke-width:0.489108;stroke-linecap:round;stroke-linejoin:round;stroke-dasharray:none;stroke-opacity:1"
       d="M 20.563764,19.036201 C 19.335963,18.586217 18.107756,18.137192 17.465209,16.305109"
       id="path27"
       sodipodi:nodetypes="cc" /><ellipse
       style="fill:#6f31ff;fill-opacity:1;stroke:#2b0052;stroke-width:0.884915;stroke-dasharray:none;stroke-opacity:1"
       id="path3"
       cx="12.838424"
       cy="12.940549"
       rx="5.7618914"
       ry="5.3768024" /><path
       style="fill:none;stroke:#954800;stroke-width:0.489108;stroke-linecap:round;stroke-linejoin:round;stroke-dasharray:none;stroke-opacity:1"
       d="m 11.323472,5.4869825 c 1.218439,-0.4720753 2.436471,-0.9451097 4.240981,-0.035395"
       id="path5"
       sodipodi:nodetypes="cc" /><path
       id="path9421"
       style="fill:#ffffff;fill-opacity:1;stroke:#2b0052;stroke-width:0.566518;stroke-miterlimit:4;stroke-dasharray:none;stroke-opacity:1"
       d="m 8.8948004,10.630359 c -0.9062877,1.793414 -0.1076972,3.557425 1.7008436,3.507641 1.785588,-0.0492 2.758421,-1.833808 1.7548,-3.525208 -1.24575,0.0013 -2.287555,-0.0057 -3.4556436,0.01757 z"
       sodipodi:nodetypes="cccc" /><ellipse
       style="fill:#2b0052;fill-opacity:1;stroke:none;stroke-width:1.30089"
       id="path4-8"
       cx="-11.047568"
       cy="12.206931"
       rx="1.406065"
       ry="1.3787638"
       transform="matrix(-0.99956291,-0.02956324,-0.03323522,0.99944756,0,0)" /><path
       id="ellipse6"
       style="fill:#5300e4;fill-opacity:1;stroke:none;stroke-width:1.30088"
       d="m 9.7251564,11.466172 a 1.4063001,1.3785238 3.5074067 0 0 -0.5357508,1.127354 1.4063001,1.3785238 3.5074067 0 0 1.4513604,1.336364 1.4063001,1.3785238 3.5074067 0 0 1.1634,-0.671864 1.4063001,1.3785238 3.5074067 0 1 -0.823315,0.292133 1.4063001,1.3785238 3.5074067 0 1 -1.4513592,-1.336362 1.4063001,1.3785238 3.5074067 0 1 0.1956656,-0.747622 z" /><ellipse
       style="fill:#ffffff;fill-opacity:1;stroke:none;stroke-width:0.516674"
       id="ellipse5"
       cx="-11.110234"
       cy="11.207976"
       rx="0.56749237"
       ry="0.53886646"
       transform="matrix(-0.99956291,-0.02956324,-0.03323522,0.99944756,0,0)" /><path
       style="fill:none;stroke:#2b0052;stroke-width:0.451013;stroke-linecap:round;stroke-linejoin:round;stroke-dasharray:none;stroke-opacity:1"
       d="m 20.461094,12.970963 c 0.971088,-0.503646 1.94185,-1.008316 3.380032,-0.03776"
       id="path25"
       sodipodi:nodetypes="cc" /><path
       id="path10"
       style="fill:#ffffff;fill-opacity:1;stroke:#2b0052;stroke-width:0.584574;stroke-miterlimit:4;stroke-dasharray:none;stroke-opacity:1"
       d="m 13.626041,10.490448 c -0.902422,1.917733 -0.03218,4.511923 1.768652,4.458689 1.777974,-0.05261 2.671595,-2.668826 1.672255,-4.477474 -1.240437,0.0014 -2.2778,-0.0061 -3.440907,0.01879 z"
       sodipodi:nodetypes="cccc" /><ellipse
       style="fill:#2b0052;fill-opacity:1;stroke:none;stroke-width:1.30089"
       id="ellipse11"
       cx="-15.763815"
       cy="11.917176"
       rx="1.406065"
       ry="1.3787638"
       transform="matrix(-0.99956291,-0.02956324,-0.03323522,0.99944756,0,0)" /><path
       id="path11"
       style="fill:#5300e4;fill-opacity:1;stroke:none;stroke-width:1.30088"
       d="m 14.448972,11.316005 a 1.4063001,1.3785238 3.5074067 0 0 -0.535751,1.127354 1.4063001,1.3785238 3.5074067 0 0 1.45136,1.336363 1.4063001,1.3785238 3.5074067 0 0 1.1634,-0.671864 1.4063001,1.3785238 3.5074067 0 1 -0.823314,0.292134 1.4063001,1.3785238 3.5074067 0 1 -1.45136,-1.336363 1.4063001,1.3785238 3.5074067 0 1 0.195666,-0.747621 z" /><ellipse
       style="fill:#ffffff;fill-opacity:1;stroke:none;stroke-width:0.516674"
       id="ellipse12"
       cx="-15.826481"
       cy="10.918221"
       rx="0.56749237"
       ry="0.53886646"
       transform="matrix(-0.99956291,-0.02956324,-0.03323522,0.99944756,0,0)" /><path
       style="fill:none;stroke:#2b0052;stroke-width:0.508254;stroke-linecap:round;stroke-linejoin:round;stroke-dasharray:none;stroke-opacity:1"
       d="m 11.535788,16.249179 c 1.160374,-0.535264 2.320361,-1.071618 4.038877,-0.04013"
       id="path12"
       sodipodi:nodetypes="cc" /></g></svg>
