<?xml version="1.0" encoding="UTF-8" standalone="no"?>
<!-- Created with Inkscape (http://www.inkscape.org/) -->

<svg
   width="100"
   height="100"
   viewBox="0 0 26.458333 26.458333"
   version="1.1"
   id="svg1"
   inkscape:version="1.4.2 (ebf0e940d0, 2025-05-08)"
   sodipodi:docname="bossWoody_2.svg"
   xml:space="preserve"
   xmlns:inkscape="http://www.inkscape.org/namespaces/inkscape"
   xmlns:sodipodi="http://sodipodi.sourceforge.net/DTD/sodipodi-0.dtd"
   xmlns="http://www.w3.org/2000/svg"
   xmlns:svg="http://www.w3.org/2000/svg"><sodipodi:namedview
     id="namedview1"
     pagecolor="#505050"
     bordercolor="#eeeeee"
     borderopacity="1"
     inkscape:showpageshadow="0"
     inkscape:pageopacity="0"
     inkscape:pagecheckerboard="0"
     inkscape:deskcolor="#505050"
     inkscape:document-units="px"
     inkscape:zoom="4.9890312"
     inkscape:cx="33.774092"
     inkscape:cy="77.67039"
     inkscape:window-width="1366"
     inkscape:window-height="697"
     inkscape:window-x="0"
     inkscape:window-y="0"
     inkscape:window-maximized="1"
     inkscape:current-layer="layer1" /><defs
     id="defs1"><filter
       inkscape:label="Glowing Bubble"
       inkscape:menu="Ridges"
       inkscape:menu-tooltip="Bubble effect with refraction and glow"
       x="-2.8985506"
       y="-2.8985509"
       width="6.7971012"
       height="6.7971018"
       style="color-interpolation-filters:sRGB;"
       id="filter14"><feGaussianBlur
         stdDeviation="1"
         result="result1"
         id="feGaussianBlur9" /><feGaussianBlur
         stdDeviation="10"
         result="result6"
         in="result1"
         id="feGaussianBlur10" /><feComposite
         operator="atop"
         in="result6"
         in2="result1"
         result="result8"
         id="feComposite10" /><feComposite
         operator="xor"
         result="fbSourceGraphic"
         in="result6"
         in2="result8"
         id="feComposite11" /><feColorMatrix
         result="fbSourceGraphicAlpha"
         in="fbSourceGraphic"
         values="0 0 0 -1 0 0 0 0 -1 0 0 0 0 -1 0 0 0 0 2 0 "
         id="feColorMatrix11" /><feGaussianBlur
         result="result0"
         in="fbSourceGraphicAlpha"
         stdDeviation="1"
         id="feGaussianBlur11" /><feSpecularLighting
         specularExponent="35"
         specularConstant="1.5"
         surfaceScale="-2"
         lighting-color="rgb(255,255,255)"
         result="result1"
         in="result0"
         id="feSpecularLighting11"><feDistantLight
           azimuth="230"
           elevation="60"
           id="feDistantLight11" /></feSpecularLighting><feComposite
         operator="in"
         result="result2"
         in="result1"
         in2="fbSourceGraphicAlpha"
         id="feComposite12" /><feComposite
         k3="1.2"
         k2="1.1"
         operator="arithmetic"
         result="result4"
         in="fbSourceGraphic"
         in2="result2"
         id="feComposite13" /><feGaussianBlur
         result="result80"
         in="result4"
         stdDeviation="0.5"
         id="feGaussianBlur13" /><feComposite
         operator="atop"
         in="result9"
         in2="result80"
         result="result91"
         id="feComposite14" /><feBlend
         mode="multiply"
         in2="result91"
         id="feBlend14" /></filter><linearGradient
       id="linearGradient13895"
       inkscape:swatch="solid"><stop
         style="stop-color:#000000;stop-opacity:1;"
         offset="0"
         id="stop13893" /></linearGradient><filter
       style="color-interpolation-filters:sRGB;"
       inkscape:label="Clean Edges"
       id="filter14269"
       x="-0.31154084"
       y="-0.29580634"
       width="1.6230817"
       height="1.5916127"><feGaussianBlur
         stdDeviation="0.204612"
         result="blur"
         id="feGaussianBlur14263" /><feComposite
         in="SourceGraphic"
         in2="blur"
         operator="in"
         result="composite1"
         id="feComposite14265" /><feComposite
         in="composite1"
         in2="composite1"
         operator="in"
         result="composite2"
         id="feComposite14267" /></filter><inkscape:path-effect
       effect="fillet_chamfer"
       id="path-effect68"
       is_visible="true"
       lpeversion="1"
       nodesatellites_param="F,0,0,1,0,0,0,1 @ F,0,0,1,0,0,0,1 @ F,0,0,1,0,0,0,1 @ F,0,0,1,0,0,0,1 @ F,0,0,1,0,0,0,1 @ F,0,0,1,0,0,0,1 @ F,0,0,1,0,0,0,1 @ F,0,0,1,0,0,0,1 @ F,0,0,1,0,0,0,1"
       radius="0"
       unit="px"
       method="auto"
       mode="F"
       chamfer_steps="1"
       flexible="false"
       use_knot_distance="true"
       apply_no_radius="true"
       apply_with_radius="true"
       only_selected="false"
       hide_knots="false" /><inkscape:path-effect
       effect="fillet_chamfer"
       id="path-effect66"
       is_visible="true"
       lpeversion="1"
       nodesatellites_param="F,0,0,1,0,0,0,1 @ F,0,0,1,0,0.44929322,0,1 @ F,0,0,1,0,0.44929322,0,1 @ F,0,0,1,0,0,0,1 @ F,0,0,1,0,0,0,1 @ F,0,0,1,0,0,0,1 @ F,0,0,1,0,0,0,1 @ F,0,0,1,0,0,0,1 @ F,0,0,1,0,0,0,1 @ F,0,0,1,0,0,0,1"
       radius="0"
       unit="px"
       method="auto"
       mode="F"
       chamfer_steps="1"
       flexible="false"
       use_knot_distance="true"
       apply_no_radius="true"
       apply_with_radius="true"
       only_selected="false"
       hide_knots="false" /><inkscape:path-effect
       effect="fillet_chamfer"
       id="path-effect68-7"
       is_visible="true"
       lpeversion="1"
       nodesatellites_param="F,0,0,1,0,0,0,1 @ F,0,0,1,0,0,0,1 @ F,0,0,1,0,0,0,1 @ F,0,0,1,0,0,0,1 @ F,0,0,1,0,0,0,1 @ F,0,0,1,0,0,0,1 @ F,0,0,1,0,0,0,1 @ F,0,0,1,0,0,0,1 @ F,0,0,1,0,0,0,1"
       radius="0"
       unit="px"
       method="auto"
       mode="F"
       chamfer_steps="1"
       flexible="false"
       use_knot_distance="true"
       apply_no_radius="true"
       apply_with_radius="true"
       only_selected="false"
       hide_knots="false" /><inkscape:path-effect
       effect="fillet_chamfer"
       id="path-effect66-5"
       is_visible="true"
       lpeversion="1"
       nodesatellites_param="F,0,0,1,0,0,0,1 @ F,0,0,1,0,0.44929322,0,1 @ F,0,0,1,0,0.44929322,0,1 @ F,0,0,1,0,0,0,1 @ F,0,0,1,0,0,0,1 @ F,0,0,1,0,0,0,1 @ F,0,0,1,0,0,0,1 @ F,0,0,1,0,0,0,1 @ F,0,0,1,0,0,0,1 @ F,0,0,1,0,0,0,1"
       radius="0"
       unit="px"
       method="auto"
       mode="F"
       chamfer_steps="1"
       flexible="false"
       use_knot_distance="true"
       apply_no_radius="true"
       apply_with_radius="true"
       only_selected="false"
       hide_knots="false" /><inkscape:path-effect
       effect="fillet_chamfer"
       id="path-effect68-3"
       is_visible="true"
       lpeversion="1"
       nodesatellites_param="F,0,0,1,0,0,0,1 @ F,0,0,1,0,0,0,1 @ F,0,0,1,0,0,0,1 @ F,0,0,1,0,0,0,1 @ F,0,0,1,0,0,0,1 @ F,0,0,1,0,0,0,1 @ F,0,0,1,0,0,0,1 @ F,0,0,1,0,0,0,1 @ F,0,0,1,0,0,0,1"
       radius="0"
       unit="px"
       method="auto"
       mode="F"
       chamfer_steps="1"
       flexible="false"
       use_knot_distance="true"
       apply_no_radius="true"
       apply_with_radius="true"
       only_selected="false"
       hide_knots="false" /><inkscape:path-effect
       effect="fillet_chamfer"
       id="path-effect66-6"
       is_visible="true"
       lpeversion="1"
       nodesatellites_param="F,0,0,1,0,0,0,1 @ F,0,0,1,0,0.44929322,0,1 @ F,0,0,1,0,0.44929322,0,1 @ F,0,0,1,0,0,0,1 @ F,0,0,1,0,0,0,1 @ F,0,0,1,0,0,0,1 @ F,0,0,1,0,0,0,1 @ F,0,0,1,0,0,0,1 @ F,0,0,1,0,0,0,1 @ F,0,0,1,0,0,0,1"
       radius="0"
       unit="px"
       method="auto"
       mode="F"
       chamfer_steps="1"
       flexible="false"
       use_knot_distance="true"
       apply_no_radius="true"
       apply_with_radius="true"
       only_selected="false"
       hide_knots="false" /><filter
       style="color-interpolation-filters:sRGB;"
       inkscape:label="Clean Edges"
       id="filter14269-5"
       x="-0.31154084"
       y="-0.29580634"
       width="1.6230817"
       height="1.5916127"><feGaussianBlur
         stdDeviation="0.204612"
         result="blur"
         id="feGaussianBlur14263-6" /><feComposite
         in="SourceGraphic"
         in2="blur"
         operator="in"
         result="composite1"
         id="feComposite14265-2" /><feComposite
         in="composite1"
         in2="composite1"
         operator="in"
         result="composite2"
         id="feComposite14267-9" /></filter></defs><g
     inkscape:label="Camada 1"
     inkscape:groupmode="layer"
     id="layer1"><rect
       style="fill:#0d4c26;fill-opacity:1;stroke:none;stroke-width:2.28824;stroke-dasharray:none;stroke-opacity:1"
       id="rect1"
       width="27.130461"
       height="27.236526"
       x="-0.34442738"
       y="-0.23719694"
       ry="0" /><path
       id="path63"
       style="fill:#19121e;fill-opacity:0.31701;stroke-width:0.412008;stroke-linecap:round"
       d="m 20.25633,19.985941 c -0.154,0.521439 -3.361739,-1.033363 -6.412443,-0.86155 -3.630285,0.204462 -6.0379161,-2.241395 -5.8950375,-2.76779 0.1428795,-0.526395 3.0138275,-0.140664 6.4124455,0.861549 3.398615,1.002214 6.049403,2.245106 5.895035,2.767791 z"
       sodipodi:nodetypes="sssss" /><path
       id="path13"
       style="fill:#19121e;fill-opacity:0.31701;stroke-width:0.412008;stroke-linecap:round"
       d="m 0.46163071,16.698561 c 0.0595721,0.540432 3.49133279,-0.423935 6.46384799,0.283508 3.5372383,0.841853 6.3386833,-1.140774 6.2909343,-1.684121 -0.04775,-0.543347 -2.941712,-0.670276 -6.4638484,-0.283509 -3.5221352,0.386769 -6.35064645,1.1424 -6.29093389,1.684122 z"
       sodipodi:nodetypes="sssss" /><g
       id="g49"
       transform="matrix(-0.40854736,0,0,0.45069313,20.315948,-7.0775251)"><ellipse
         style="fill:#103923;fill-opacity:1;stroke:none;stroke-width:0.628972;stroke-linecap:round;stroke-linejoin:round;stroke-opacity:1"
         id="ellipse43"
         cx="-8.6084337"
         cy="21.262144"
         rx="3.796875"
         ry="0.46875" /><g
         id="g45"
         transform="matrix(-0.83989831,0,0,0.67033753,7.875698,4.909889)"><path
           id="path43"
           style="fill:#719471;fill-opacity:1;stroke:#1c251c;stroke-width:0.717176;stroke-opacity:1"
           d="m 23.916373,20.076695 c 0.62396,-0.837381 -0.418233,-0.08178 -4.795945,-0.0507 -2.351158,0.01667 -3.417713,2.497682 -2.904099,3.543706 0.513613,1.046023 2.653694,1.112056 4.780003,0.147489 2.126308,-0.964567 2.219346,-2.700131 2.920041,-3.640495 z"
           sodipodi:nodetypes="sssss" /><path
           id="path44"
           style="fill:#3a4c3a;fill-opacity:1;stroke-width:0.487749;stroke-linecap:round;stroke-linejoin:round"
           d="m 22.061883,21.829631 c 2.539934,-1.460607 -0.960932,-0.68556 -2.67736,-0.53016 -1.529018,0.138432 -2.934925,1.066448 -2.770175,1.719541 0.16475,0.653095 1.517778,0.916279 3.022073,0.587841 1.504296,-0.328439 1.874997,-1.460673 2.425462,-1.777222 z"
           sodipodi:nodetypes="sssss" /><path
           style="fill:none;fill-opacity:1;stroke:#1c251c;stroke-width:0.542553;stroke-dasharray:none;stroke-opacity:1"
           d="m 17.751272,22.541633 c 2.78019,-0.0776 4.559771,-1.196024 5.994753,-2.672893"
           id="path45"
           sodipodi:nodetypes="cc" /></g><ellipse
         style="fill:#103923;fill-opacity:1;stroke:none;stroke-width:0.628972;stroke-linecap:round;stroke-linejoin:round;stroke-opacity:1"
         id="ellipse45"
         cx="4.6931314"
         cy="21.937143"
         rx="3.796875"
         ry="0.46875"
         transform="scale(-1,1)" /><g
         id="g48"
         transform="matrix(0.83989831,0,0,0.67033753,-21.177264,5.584889)"><path
           id="path46"
           style="fill:#719471;fill-opacity:1;stroke:#1c251c;stroke-width:0.717176;stroke-opacity:1"
           d="m 23.916373,20.076695 c 0.62396,-0.837381 -0.418233,-0.08178 -4.795945,-0.0507 -2.351158,0.01667 -3.417713,2.497682 -2.904099,3.543706 0.513613,1.046023 2.653694,1.112056 4.780003,0.147489 2.126308,-0.964567 2.219346,-2.700131 2.920041,-3.640495 z"
           sodipodi:nodetypes="sssss" /><path
           id="path47"
           style="fill:#3a4c3a;fill-opacity:1;stroke-width:0.487749;stroke-linecap:round;stroke-linejoin:round"
           d="m 22.061883,21.829631 c 2.539934,-1.460607 -0.960932,-0.68556 -2.67736,-0.53016 -1.529018,0.138432 -2.934925,1.066448 -2.770175,1.719541 0.16475,0.653095 1.517778,0.916279 3.022073,0.587841 1.504296,-0.328439 1.874997,-1.460673 2.425462,-1.777222 z"
           sodipodi:nodetypes="sssss" /><path
           style="fill:none;fill-opacity:1;stroke:#1c251c;stroke-width:0.542553;stroke-dasharray:none;stroke-opacity:1"
           d="m 17.751272,22.541633 c 2.78019,-0.0776 4.559771,-1.196024 5.994753,-2.672893"
           id="path48"
           sodipodi:nodetypes="cc" /></g></g><g
       id="g29"
       transform="matrix(-0.74800424,-0.01559341,-0.01556941,0.74915686,26.311224,-1.5251542)"><path
         id="path14"
         style="fill:#19121e;fill-opacity:0.31701;stroke-width:0.422673;stroke-linecap:round"
         d="M 18.337131,13.942898 C 18.304716,14.346496 13.368708,13.723519 9.2407353,14.331377 4.3285262,15.054724 0.18484694,13.65707 0.2003,13.251629 c 0.0154529,-0.405441 4.088048,-0.579368 9.0963955,-0.38848 5.0083475,0.190889 9.0729295,0.675188 9.0404355,1.079749 z"
         sodipodi:nodetypes="sssss" /><g
         id="g28"
         transform="matrix(1.0995471,0,0,1.1343321,-1.4152142,-0.84865567)"><path
           style="fill:#3b6149;fill-opacity:1;stroke:#1c2c21;stroke-width:0.443971;stroke-linecap:round;stroke-dasharray:none;stroke-opacity:1"
           d="m 14.60662,12.738346 c 1.334012,-0.388532 2.328963,-0.374429 3.097812,-0.09183 0,0 -0.05338,-3.8234153 -0.816316,-5.1424699 C 16.125187,6.1849926 14.704764,6.1772049 13.6793,5.2869224 12.653838,4.39664 10.889148,3.9795561 9.5203487,4.4966209 8.1515489,5.0136857 7.075331,4.8557107 6.180782,5.4780816 5.2862329,6.1004526 4.8006922,6.8763307 4.3088941,7.9055611 3.8170959,8.9347915 3.2162047,11.481337 3.2162047,11.481337 l -0.5500949,0.952586 c 0.836406,-0.202861 1.1137679,-0.163704 1.7947393,0.1875 L 4.376105,11.811174 5.8202197,7.7363054 7.0617992,7.8081644 c 0,0 0.6571281,1.050029 0.754829,1.7694374 C 7.914329,10.29701 7.6383988,11.804809 7.6383988,11.804809 l -0.873608,0.839263 C 7.607194,12.412756 8.1199003,12.411028 9.197949,12.610472 L 8.5862577,11.785336 c 0,0 0.6335203,-1.434203 0.5180198,-2.223971 C 8.9887771,8.7715963 8.4095749,7.1984943 8.4095749,7.1984943 c 0,0 0.055429,0.021592 0.8279077,-0.5591362 0.7724784,-0.580727 4.1757374,-0.2759015 4.0329364,0.5381488 0,0 1.308088,1.0071746 1.608307,1.5432854 0.300219,0.5361108 0.1934,0.778259 0.175379,1.4574407 -0.01802,0.679182 -0.447485,2.560113 -0.447485,2.560113 z"
           id="path15"
           sodipodi:nodetypes="cczzzzzcccccczcccczczczzc" /><ellipse
           style="fill:#538b69;fill-opacity:1;stroke:none;stroke-width:0.914047;stroke-linecap:round;stroke-opacity:1"
           id="ellipse15"
           cx="2.0819643"
           cy="9.1904678"
           rx="1.0286582"
           ry="0.55581933"
           transform="matrix(0.77910975,-0.62688754,0.53500916,0.84484626,0,0)" /><ellipse
           style="fill:#6ea885;fill-opacity:1;stroke:none;stroke-width:0.63637;stroke-linecap:round;stroke-opacity:1"
           id="ellipse16"
           cx="2.018873"
           cy="9.0200634"
           rx="0.71681857"
           ry="0.38661438"
           transform="matrix(0.78084931,-0.62471943,0.5371847,0.84346464,0,0)" /><g
           id="g18"
           transform="matrix(1.4928744,-0.55021034,0.82585935,0.99459424,-10.495546,6.1078272)"><ellipse
             style="fill:#538b69;fill-opacity:1;stroke:none;stroke-width:0.914047;stroke-linecap:round;stroke-opacity:1"
             id="ellipse17"
             cx="-12.793516"
             cy="-3.0086319"
             rx="1.0286582"
             ry="0.55581933"
             transform="matrix(-0.77910975,-0.62688754,-0.53500916,0.84484626,0,0)" /><ellipse
             style="fill:#6ea885;fill-opacity:1;stroke:none;stroke-width:0.63637;stroke-linecap:round;stroke-opacity:1"
             id="ellipse18"
             cx="-12.820457"
             cy="-3.1340065"
             rx="0.71681857"
             ry="0.38661438"
             transform="matrix(-0.78084931,-0.62471943,-0.5371847,0.84346464,0,0)" /></g><ellipse
           style="fill:#a2c7b1;fill-opacity:1;stroke:none;stroke-width:0.386299;stroke-linecap:round;stroke-dasharray:none;stroke-opacity:1"
           id="ellipse19"
           cx="12.056788"
           cy="3.4509876"
           rx="0.69142407"
           ry="0.25393024"
           transform="matrix(0.99305236,0.11767332,-0.17024056,0.98540253,0,0)" /><g
           id="g21"
           transform="matrix(0.48097818,-0.11913204,0.1697837,0.68547687,-0.02885035,4.1912044)"><ellipse
             style="fill:#263a2c;fill-opacity:1;stroke:none;stroke-width:0.914047;stroke-linecap:round;stroke-opacity:1"
             id="ellipse20"
             cx="-1.5877917"
             cy="10.994909"
             rx="1.0286582"
             ry="0.55581933"
             transform="matrix(0.77910975,-0.62688754,0.53500916,0.84484626,0,0)" /><ellipse
             style="fill:#1c2c21;fill-opacity:1;stroke:none;stroke-width:0.63637;stroke-linecap:round;stroke-opacity:1"
             id="ellipse21"
             cx="-1.6544436"
             cy="10.834256"
             rx="0.71681857"
             ry="0.38661438"
             transform="matrix(0.78084931,-0.62471943,0.5371847,0.84346464,0,0)" /></g><g
           id="g23"
           transform="matrix(-0.56009083,-0.22253019,-0.40121083,0.63097131,15.207688,4.1445768)"><ellipse
             style="fill:#263a2c;fill-opacity:1;stroke:none;stroke-width:0.914047;stroke-linecap:round;stroke-opacity:1"
             id="ellipse22"
             cx="-1.5877917"
             cy="10.994909"
             rx="1.0286582"
             ry="0.55581933"
             transform="matrix(0.77910975,-0.62688754,0.53500916,0.84484626,0,0)" /><ellipse
             style="fill:#1c2c21;fill-opacity:1;stroke:none;stroke-width:0.63637;stroke-linecap:round;stroke-opacity:1"
             id="ellipse23"
             cx="-1.6544436"
             cy="10.834256"
             rx="0.71681857"
             ry="0.38661438"
             transform="matrix(0.78084931,-0.62471943,0.5371847,0.84346464,0,0)" /></g><g
           id="g25"
           transform="matrix(-0.65870133,0.3107459,0.25206292,1.0371971,15.359752,-4.4416856)"><ellipse
             style="fill:#263a2c;fill-opacity:1;stroke:none;stroke-width:0.914047;stroke-linecap:round;stroke-opacity:1"
             id="ellipse24"
             cx="-1.5877917"
             cy="10.994909"
             rx="1.0286582"
             ry="0.55581933"
             transform="matrix(0.77910975,-0.62688754,0.53500916,0.84484626,0,0)" /><ellipse
             style="fill:#1c2c21;fill-opacity:1;stroke:none;stroke-width:0.63637;stroke-linecap:round;stroke-opacity:1"
             id="ellipse25"
             cx="-1.6544436"
             cy="10.834256"
             rx="0.71681857"
             ry="0.38661438"
             transform="matrix(0.78084931,-0.62471943,0.5371847,0.84346464,0,0)" /></g><g
           id="g27"
           transform="matrix(0.73321505,-0.07488502,0.29638233,1.385858,9.1916741,-2.7366434)"><ellipse
             style="fill:#263a2c;fill-opacity:1;stroke:none;stroke-width:0.914047;stroke-linecap:round;stroke-opacity:1"
             id="ellipse26"
             cx="-1.5877917"
             cy="10.994909"
             rx="1.0286582"
             ry="0.55581933"
             transform="matrix(0.77910975,-0.62688754,0.53500916,0.84484626,0,0)" /><ellipse
             style="fill:#1c2c21;fill-opacity:1;stroke:none;stroke-width:0.63637;stroke-linecap:round;stroke-opacity:1"
             id="ellipse27"
             cx="-1.6544436"
             cy="10.834256"
             rx="0.71681857"
             ry="0.38661438"
             transform="matrix(0.78084931,-0.62471943,0.5371847,0.84346464,0,0)" /></g></g></g><g
       id="g43"
       transform="matrix(-0.40854736,0,0,0.45069313,20.554013,1.4662837)"><ellipse
         style="fill:#103923;fill-opacity:1;stroke:none;stroke-width:0.628972;stroke-linecap:round;stroke-linejoin:round;stroke-opacity:1"
         id="ellipse37"
         cx="-8.6084337"
         cy="21.262144"
         rx="3.796875"
         ry="0.46875" /><g
         id="g39"
         transform="matrix(-0.83989831,0,0,0.67033753,7.875698,4.909889)"><path
           id="path37"
           style="fill:#719471;fill-opacity:1;stroke:#1c251c;stroke-width:0.717176;stroke-opacity:1"
           d="m 23.916373,20.076695 c 0.62396,-0.837381 -0.418233,-0.08178 -4.795945,-0.0507 -2.351158,0.01667 -3.417713,2.497682 -2.904099,3.543706 0.513613,1.046023 2.653694,1.112056 4.780003,0.147489 2.126308,-0.964567 2.219346,-2.700131 2.920041,-3.640495 z"
           sodipodi:nodetypes="sssss" /><path
           id="path38"
           style="fill:#3a4c3a;fill-opacity:1;stroke-width:0.487749;stroke-linecap:round;stroke-linejoin:round"
           d="m 22.061883,21.829631 c 2.539934,-1.460607 -0.960932,-0.68556 -2.67736,-0.53016 -1.529018,0.138432 -2.934925,1.066448 -2.770175,1.719541 0.16475,0.653095 1.517778,0.916279 3.022073,0.587841 1.504296,-0.328439 1.874997,-1.460673 2.425462,-1.777222 z"
           sodipodi:nodetypes="sssss" /><path
           style="fill:none;fill-opacity:1;stroke:#1c251c;stroke-width:0.542553;stroke-dasharray:none;stroke-opacity:1"
           d="m 17.751272,22.541633 c 2.78019,-0.0776 4.559771,-1.196024 5.994753,-2.672893"
           id="path39"
           sodipodi:nodetypes="cc" /></g><ellipse
         style="fill:#103923;fill-opacity:1;stroke:none;stroke-width:0.628972;stroke-linecap:round;stroke-linejoin:round;stroke-opacity:1"
         id="ellipse39"
         cx="4.6931314"
         cy="21.937143"
         rx="3.796875"
         ry="0.46875"
         transform="scale(-1,1)" /><g
         id="g42"
         transform="matrix(0.83989831,0,0,0.67033753,-21.177264,5.584889)"><path
           id="path40"
           style="fill:#719471;fill-opacity:1;stroke:#1c251c;stroke-width:0.717176;stroke-opacity:1"
           d="m 23.916373,20.076695 c 0.62396,-0.837381 -0.418233,-0.08178 -4.795945,-0.0507 -2.351158,0.01667 -3.417713,2.497682 -2.904099,3.543706 0.513613,1.046023 2.653694,1.112056 4.780003,0.147489 2.126308,-0.964567 2.219346,-2.700131 2.920041,-3.640495 z"
           sodipodi:nodetypes="sssss" /><path
           id="path41"
           style="fill:#3a4c3a;fill-opacity:1;stroke-width:0.487749;stroke-linecap:round;stroke-linejoin:round"
           d="m 22.061883,21.829631 c 2.539934,-1.460607 -0.960932,-0.68556 -2.67736,-0.53016 -1.529018,0.138432 -2.934925,1.066448 -2.770175,1.719541 0.16475,0.653095 1.517778,0.916279 3.022073,0.587841 1.504296,-0.328439 1.874997,-1.460673 2.425462,-1.777222 z"
           sodipodi:nodetypes="sssss" /><path
           style="fill:none;fill-opacity:1;stroke:#1c251c;stroke-width:0.542553;stroke-dasharray:none;stroke-opacity:1"
           d="m 17.751272,22.541633 c 2.78019,-0.0776 4.559771,-1.196024 5.994753,-2.672893"
           id="path42"
           sodipodi:nodetypes="cc" /></g></g><g
       id="g58"
       transform="matrix(-0.87105399,0,0,0.59691355,27.324988,9.8196459)"><ellipse
         style="fill:#103923;fill-opacity:1;stroke:none;stroke-width:0.360463;stroke-linecap:round;stroke-linejoin:round;stroke-opacity:1"
         id="ellipse55"
         cx="20.063414"
         cy="3.7521265"
         rx="2.0733404"
         ry="0.28193915" /><g
         id="g57"
         transform="matrix(-0.45863902,0,0,0.40318805,29.064821,-6.0832674)"><path
           id="path55"
           style="fill:#719471;fill-opacity:1;stroke:#1c251c;stroke-width:0.717176;stroke-opacity:1"
           d="m 23.916373,20.076695 c 0.62396,-0.837381 -0.418233,-0.08178 -4.795945,-0.0507 -2.351158,0.01667 -3.417713,2.497682 -2.904099,3.543706 0.513613,1.046023 2.653694,1.112056 4.780003,0.147489 2.126308,-0.964567 2.219346,-2.700131 2.920041,-3.640495 z"
           sodipodi:nodetypes="sssss" /><path
           id="path56"
           style="fill:#3a4c3a;fill-opacity:1;stroke-width:0.487749;stroke-linecap:round;stroke-linejoin:round"
           d="m 22.061883,21.829631 c 2.539934,-1.460607 -0.960932,-0.68556 -2.67736,-0.53016 -1.529018,0.138432 -2.934925,1.066448 -2.770175,1.719541 0.16475,0.653095 1.517778,0.916279 3.022073,0.587841 1.504296,-0.328439 1.874997,-1.460673 2.425462,-1.777222 z"
           sodipodi:nodetypes="sssss" /><path
           style="fill:none;fill-opacity:1;stroke:#1c251c;stroke-width:0.542553;stroke-dasharray:none;stroke-opacity:1"
           d="m 17.751272,22.541633 c 2.78019,-0.0776 4.559771,-1.196024 5.994753,-2.672893"
           id="path57"
           sodipodi:nodetypes="cc" /></g></g><g
       id="g61"
       transform="matrix(-0.85191642,0.18186579,0.1242453,0.583799,31.691923,3.635564)"><ellipse
         style="fill:#103923;fill-opacity:1;stroke:none;stroke-width:0.360463;stroke-linecap:round;stroke-linejoin:round;stroke-opacity:1"
         id="ellipse58"
         cx="20.063414"
         cy="3.7521265"
         rx="2.0733404"
         ry="0.28193915" /><g
         id="g60"
         transform="matrix(-0.45863902,0,0,0.40318805,29.064821,-6.0832674)"><path
           id="path58"
           style="fill:#719471;fill-opacity:1;stroke:#1c251c;stroke-width:0.717176;stroke-opacity:1"
           d="m 23.916373,20.076695 c 0.62396,-0.837381 -0.418233,-0.08178 -4.795945,-0.0507 -2.351158,0.01667 -3.417713,2.497682 -2.904099,3.543706 0.513613,1.046023 2.653694,1.112056 4.780003,0.147489 2.126308,-0.964567 2.219346,-2.700131 2.920041,-3.640495 z"
           sodipodi:nodetypes="sssss" /><path
           id="path59"
           style="fill:#3a4c3a;fill-opacity:1;stroke-width:0.487749;stroke-linecap:round;stroke-linejoin:round"
           d="m 22.061883,21.829631 c 2.539934,-1.460607 -0.960932,-0.68556 -2.67736,-0.53016 -1.529018,0.138432 -2.934925,1.066448 -2.770175,1.719541 0.16475,0.653095 1.517778,0.916279 3.022073,0.587841 1.504296,-0.328439 1.874997,-1.460673 2.425462,-1.777222 z"
           sodipodi:nodetypes="sssss" /><path
           style="fill:none;fill-opacity:1;stroke:#1c251c;stroke-width:0.542553;stroke-dasharray:none;stroke-opacity:1"
           d="m 17.751272,22.541633 c 2.78019,-0.0776 4.559771,-1.196024 5.994753,-2.672893"
           id="path60"
           sodipodi:nodetypes="cc" /></g></g><g
       id="g46"><path
         style="fill:#603025;fill-opacity:1;stroke:#2f1919;stroke-width:0.32145;stroke-linecap:round;stroke-dasharray:none;stroke-opacity:1"
         d="m 10.375388,13.756906 c 0.899501,-0.556135 1.631989,-0.772756 2.253105,-0.762972 0,0 -0.814323,-2.481148 -1.641234,-3.1681519 C 10.160348,9.1387791 9.117129,9.4560843 8.1846245,9.1082702 7.252122,8.7604555 5.8734578,8.8889932 4.9745054,9.5368404 4.0755539,10.184687 3.254301,10.325933 2.7244815,10.934813 2.1946624,11.543694 1.9959047,12.159847 1.8439239,12.942632 1.6919429,13.725417 1.7675871,15.52241 1.7675871,15.52241 l -0.7604885,0.659857 c 0.5722341,-0.32212 2.0762507,-0.114258 2.646833,-0.03979 l -0.9688807,-0.668232 0.23286,-2.984999 0.9250588,-0.234933 c 0,0 0.6947795,0.535584 0.9122821,0.982539 0.2175065,0.446953 0.3958514,1.558447 0.3958514,1.558447 l -1.0892393,0.520564 c 0.5239882,-0.03266 2.0902469,0.08422 2.9212493,-0.0304 L 5.7672503,14.501844 c 0,0 0.1738039,-1.079035 -0.071017,-1.567831 -0.2448198,-0.488798 -0.9885046,-1.383166 -0.9885046,-1.383166 0,0 0.045022,0.0015 0.493769,-0.552519 0.4487436,-0.554019 3.0062626,-1.1276555 3.0665854,-0.564399 0,0 1.1634609,0.359894 1.4923144,0.641356 0.3288525,0.281461 0.2996135,0.463611 0.4240975,0.910598 0.12449,0.446986 0.190893,1.771022 0.190893,1.771023 z"
         id="path3"
         sodipodi:nodetypes="cczzzzzcccccczcccczczczzc" /><ellipse
         style="fill:#8b4636;fill-opacity:1;stroke:none;stroke-width:0.659686;stroke-linecap:round;stroke-opacity:1"
         id="ellipse13"
         cx="-7.2105236"
         cy="9.484724"
         rx="0.75612539"
         ry="0.39386585"
         transform="matrix(0.6043699,-0.79670385,0.79538375,0.60610618,0,0)" /><ellipse
         style="fill:#b85c47;fill-opacity:1;stroke:none;stroke-width:0.459418;stroke-linecap:round;stroke-opacity:1"
         id="ellipse14"
         cx="-7.2644787"
         cy="9.3893871"
         rx="0.52706766"
         ry="0.2740421"
         transform="matrix(0.60651569,-0.79507151,0.79701112,0.60396462,0,0)" /><ellipse
         style="fill:#8b4636;fill-opacity:1;stroke:none;stroke-width:0.91865;stroke-linecap:round;stroke-opacity:1"
         id="ellipse28"
         cx="-4.3786445"
         cy="10.654939"
         rx="1.3344829"
         ry="0.43276772"
         transform="matrix(-0.98057771,0.19613095,0.20034735,0.97972493,0,0)" /><ellipse
         style="fill:#b85c47;fill-opacity:1;stroke:none;stroke-width:0.639762;stroke-linecap:round;stroke-opacity:1"
         id="ellipse29"
         cx="-4.4748201"
         cy="10.536102"
         rx="0.93021643"
         ry="0.30110696"
         transform="matrix(-0.98024712,0.19777658,0.19611272,0.98058136,0,0)" /><ellipse
         style="fill:#d39b8e;fill-opacity:1;stroke:none;stroke-width:0.280009;stroke-linecap:round;stroke-dasharray:none;stroke-opacity:1"
         id="ellipse32"
         cx="5.3803625"
         cy="10.436037"
         rx="0.53007597"
         ry="0.17402677"
         transform="matrix(0.9810216,-0.1938985,0.10935061,0.99400324,0,0)" /><ellipse
         style="fill:#3f1f18;fill-opacity:1;stroke:none;stroke-width:0.401155;stroke-linecap:round;stroke-opacity:1"
         id="ellipse34"
         cx="-12.166154"
         cy="5.6698527"
         rx="0.42357975"
         ry="0.25998995"
         transform="matrix(0.22053563,-0.97537892,0.85169297,0.52404111,0,0)" /><ellipse
         style="fill:#25120e;fill-opacity:1;stroke:none;stroke-width:0.279127;stroke-linecap:round;stroke-opacity:1"
         id="ellipse35"
         cx="-12.182628"
         cy="5.6286049"
         rx="0.29496086"
         ry="0.1807619"
         transform="matrix(0.22346988,-0.97471084,0.85282379,0.5221988,0,0)" /><ellipse
         style="fill:#4c261d;fill-opacity:1;stroke:none;stroke-width:0.442197;stroke-linecap:round;stroke-opacity:1"
         id="ellipse36"
         cx="-12.942945"
         cy="3.8289521"
         rx="0.42564952"
         ry="0.31437388"
         transform="matrix(-0.6063642,-0.79518706,-0.67958624,0.73359563,0,0)" /><ellipse
         style="fill:#25120e;fill-opacity:1;stroke:none;stroke-width:0.307805;stroke-linecap:round;stroke-opacity:1"
         id="ellipse38"
         cx="-12.957897"
         cy="3.7855842"
         rx="0.29651338"
         ry="0.21866338"
         transform="matrix(-0.60935673,-0.7928962,-0.68095656,0.73232381,0,0)" /><ellipse
         style="fill:#3f1f18;fill-opacity:1;stroke:none;stroke-width:0.593698;stroke-linecap:round;stroke-opacity:1"
         id="ellipse40"
         cx="-8.3729153"
         cy="8.8631411"
         rx="0.602911"
         ry="0.40007949"
         transform="matrix(-0.98097562,-0.19413097,0.15156583,0.98844717,0,0)" /><ellipse
         style="fill:#25120e;fill-opacity:1;stroke:none;stroke-width:0.413075;stroke-linecap:round;stroke-opacity:1"
         id="ellipse41"
         cx="-8.404542"
         cy="8.7690334"
         rx="0.41977897"
         ry="0.27816641"
         transform="matrix(-0.98159813,-0.19095842,0.14960189,0.98874631,0,0)" /><ellipse
         style="fill:#3f1f18;fill-opacity:1;stroke:none;stroke-width:0.731495;stroke-linecap:round;stroke-opacity:1"
         id="ellipse42"
         cx="-3.0417817"
         cy="14.699726"
         rx="0.71853077"
         ry="0.50961834"
         transform="matrix(0.13557289,-0.99076737,0.7640611,0.64514388,0,0)" /><ellipse
         style="fill:#25120e;fill-opacity:1;stroke:none;stroke-width:0.508659;stroke-linecap:round;stroke-opacity:1"
         id="ellipse44"
         cx="-3.0917614"
         cy="14.547042"
         rx="0.49988055"
         ry="0.35420594"
         transform="matrix(0.13864969,-0.99034149,0.7651374,0.64386703,0,0)" /></g><g
       id="g63"
       transform="matrix(-1,0,0,1,21.124918,2.8637825)"><path
         style="fill:#603025;fill-opacity:1;stroke:#2f1919;stroke-width:0.32145;stroke-linecap:round;stroke-dasharray:none;stroke-opacity:1"
         d="m 10.375388,13.756906 c 0.899501,-0.556135 1.631989,-0.772756 2.253105,-0.762972 0,0 -0.814323,-2.481148 -1.641234,-3.1681519 C 10.160348,9.1387791 9.117129,9.4560843 8.1846245,9.1082702 7.252122,8.7604555 5.8734578,8.8889932 4.9745054,9.5368404 4.0755539,10.184687 3.254301,10.325933 2.7244815,10.934813 2.1946624,11.543694 1.9959047,12.159847 1.8439239,12.942632 1.6919429,13.725417 1.7675871,15.52241 1.7675871,15.52241 l -0.7604885,0.659857 c 0.5722341,-0.32212 2.0762507,-0.114258 2.646833,-0.03979 l -0.9688807,-0.668232 0.23286,-2.984999 0.9250588,-0.234933 c 0,0 0.6947795,0.535584 0.9122821,0.982539 0.2175065,0.446953 0.3958514,1.558447 0.3958514,1.558447 l -1.0892393,0.520564 c 0.5239882,-0.03266 2.0902469,0.08422 2.9212493,-0.0304 L 5.7672503,14.501844 c 0,0 0.1738039,-1.079035 -0.071017,-1.567831 -0.2448198,-0.488798 -0.9885046,-1.383166 -0.9885046,-1.383166 0,0 0.045022,0.0015 0.493769,-0.552519 0.4487436,-0.554019 3.0062626,-1.1276555 3.0665854,-0.564399 0,0 1.1634609,0.359894 1.4923144,0.641356 0.3288525,0.281461 0.2996135,0.463611 0.4240975,0.910598 0.12449,0.446986 0.190893,1.771022 0.190893,1.771023 z"
         id="path49"
         sodipodi:nodetypes="cczzzzzcccccczcccczczczzc" /><ellipse
         style="fill:#8b4636;fill-opacity:1;stroke:none;stroke-width:0.659686;stroke-linecap:round;stroke-opacity:1"
         id="ellipse49"
         cx="-7.2105236"
         cy="9.484724"
         rx="0.75612539"
         ry="0.39386585"
         transform="matrix(0.6043699,-0.79670385,0.79538375,0.60610618,0,0)" /><ellipse
         style="fill:#b85c47;fill-opacity:1;stroke:none;stroke-width:0.459418;stroke-linecap:round;stroke-opacity:1"
         id="ellipse50"
         cx="-7.2644787"
         cy="9.3893871"
         rx="0.52706766"
         ry="0.2740421"
         transform="matrix(0.60651569,-0.79507151,0.79701112,0.60396462,0,0)" /><ellipse
         style="fill:#8b4636;fill-opacity:1;stroke:none;stroke-width:0.91865;stroke-linecap:round;stroke-opacity:1"
         id="ellipse51"
         cx="-4.3786445"
         cy="10.654939"
         rx="1.3344829"
         ry="0.43276772"
         transform="matrix(-0.98057771,0.19613095,0.20034735,0.97972493,0,0)" /><ellipse
         style="fill:#b85c47;fill-opacity:1;stroke:none;stroke-width:0.639762;stroke-linecap:round;stroke-opacity:1"
         id="ellipse52"
         cx="-4.4748201"
         cy="10.536102"
         rx="0.93021643"
         ry="0.30110696"
         transform="matrix(-0.98024712,0.19777658,0.19611272,0.98058136,0,0)" /><ellipse
         style="fill:#d39b8e;fill-opacity:1;stroke:none;stroke-width:0.280009;stroke-linecap:round;stroke-dasharray:none;stroke-opacity:1"
         id="ellipse53"
         cx="5.3803625"
         cy="10.436037"
         rx="0.53007597"
         ry="0.17402677"
         transform="matrix(0.9810216,-0.1938985,0.10935061,0.99400324,0,0)" /><ellipse
         style="fill:#3f1f18;fill-opacity:1;stroke:none;stroke-width:0.401155;stroke-linecap:round;stroke-opacity:1"
         id="ellipse54"
         cx="-12.166154"
         cy="5.6698527"
         rx="0.42357975"
         ry="0.25998995"
         transform="matrix(0.22053563,-0.97537892,0.85169297,0.52404111,0,0)" /><ellipse
         style="fill:#25120e;fill-opacity:1;stroke:none;stroke-width:0.279127;stroke-linecap:round;stroke-opacity:1"
         id="ellipse56"
         cx="-12.182628"
         cy="5.6286049"
         rx="0.29496086"
         ry="0.1807619"
         transform="matrix(0.22346988,-0.97471084,0.85282379,0.5221988,0,0)" /><ellipse
         style="fill:#4c261d;fill-opacity:1;stroke:none;stroke-width:0.442197;stroke-linecap:round;stroke-opacity:1"
         id="ellipse57"
         cx="-12.942945"
         cy="3.8289521"
         rx="0.42564952"
         ry="0.31437388"
         transform="matrix(-0.6063642,-0.79518706,-0.67958624,0.73359563,0,0)" /><ellipse
         style="fill:#25120e;fill-opacity:1;stroke:none;stroke-width:0.307805;stroke-linecap:round;stroke-opacity:1"
         id="ellipse59"
         cx="-12.957897"
         cy="3.7855842"
         rx="0.29651338"
         ry="0.21866338"
         transform="matrix(-0.60935673,-0.7928962,-0.68095656,0.73232381,0,0)" /><ellipse
         style="fill:#3f1f18;fill-opacity:1;stroke:none;stroke-width:0.593698;stroke-linecap:round;stroke-opacity:1"
         id="ellipse60"
         cx="-8.3729153"
         cy="8.8631411"
         rx="0.602911"
         ry="0.40007949"
         transform="matrix(-0.98097562,-0.19413097,0.15156583,0.98844717,0,0)" /><ellipse
         style="fill:#25120e;fill-opacity:1;stroke:none;stroke-width:0.413075;stroke-linecap:round;stroke-opacity:1"
         id="ellipse61"
         cx="-8.404542"
         cy="8.7690334"
         rx="0.41977897"
         ry="0.27816641"
         transform="matrix(-0.98159813,-0.19095842,0.14960189,0.98874631,0,0)" /><ellipse
         style="fill:#3f1f18;fill-opacity:1;stroke:none;stroke-width:0.731495;stroke-linecap:round;stroke-opacity:1"
         id="ellipse62"
         cx="-3.0417817"
         cy="14.699726"
         rx="0.71853077"
         ry="0.50961834"
         transform="matrix(0.13557289,-0.99076737,0.7640611,0.64514388,0,0)" /><ellipse
         style="fill:#25120e;fill-opacity:1;stroke:none;stroke-width:0.508659;stroke-linecap:round;stroke-opacity:1"
         id="ellipse63"
         cx="-3.0917614"
         cy="14.547042"
         rx="0.49988055"
         ry="0.35420594"
         transform="matrix(0.13864969,-0.99034149,0.7651374,0.64386703,0,0)" /></g><g
       id="g76"
       transform="matrix(1.4346459,0.22397032,-0.21575306,1.4590935,3.4976679,1.0126469)"><path
         style="fill:#603025;fill-opacity:1;stroke:#2f1919;stroke-width:0.32145;stroke-linecap:round;stroke-dasharray:none;stroke-opacity:1"
         d="m 10.375388,13.756906 c 0.899501,-0.556135 1.631989,-0.772756 2.253105,-0.762972 0,0 -0.814323,-2.481148 -1.641234,-3.1681519 C 10.160348,9.1387791 9.117129,9.4560843 8.1846245,9.1082702 7.252122,8.7604555 5.8734578,8.8889932 4.9745054,9.5368404 4.0755539,10.184687 3.254301,10.325933 2.7244815,10.934813 2.1946624,11.543694 1.9959047,12.159847 1.8439239,12.942632 1.6919429,13.725417 1.7675871,15.52241 1.7675871,15.52241 l -0.7604885,0.659857 c 0.5722341,-0.32212 2.0762507,-0.114258 2.646833,-0.03979 l -0.9688807,-0.668232 0.23286,-2.984999 0.9250588,-0.234933 c 0,0 0.6947795,0.535584 0.9122821,0.982539 0.2175065,0.446953 0.3958514,1.558447 0.3958514,1.558447 l -1.0892393,0.520564 c 0.5239882,-0.03266 2.0902469,0.08422 2.9212493,-0.0304 L 5.7672503,14.501844 c 0,0 0.1738039,-1.079035 -0.071017,-1.567831 -0.2448198,-0.488798 -0.9885046,-1.383166 -0.9885046,-1.383166 0,0 0.045022,0.0015 0.493769,-0.552519 0.4487436,-0.554019 3.0062626,-1.1276555 3.0665854,-0.564399 0,0 1.1634609,0.359894 1.4923144,0.641356 0.3288525,0.281461 0.2996135,0.463611 0.4240975,0.910598 0.12449,0.446986 0.190893,1.771022 0.190893,1.771023 z"
         id="path64"
         sodipodi:nodetypes="cczzzzzcccccczcccczczczzc" /><ellipse
         style="fill:#8b4636;fill-opacity:1;stroke:none;stroke-width:0.659686;stroke-linecap:round;stroke-opacity:1"
         id="ellipse64"
         cx="-7.2105236"
         cy="9.484724"
         rx="0.75612539"
         ry="0.39386585"
         transform="matrix(0.6043699,-0.79670385,0.79538375,0.60610618,0,0)" /><ellipse
         style="fill:#b85c47;fill-opacity:1;stroke:none;stroke-width:0.459418;stroke-linecap:round;stroke-opacity:1"
         id="ellipse65"
         cx="-7.2644787"
         cy="9.3893871"
         rx="0.52706766"
         ry="0.2740421"
         transform="matrix(0.60651569,-0.79507151,0.79701112,0.60396462,0,0)" /><ellipse
         style="fill:#8b4636;fill-opacity:1;stroke:none;stroke-width:0.91865;stroke-linecap:round;stroke-opacity:1"
         id="ellipse66"
         cx="-4.3786445"
         cy="10.654939"
         rx="1.3344829"
         ry="0.43276772"
         transform="matrix(-0.98057771,0.19613095,0.20034735,0.97972493,0,0)" /><ellipse
         style="fill:#b85c47;fill-opacity:1;stroke:none;stroke-width:0.639762;stroke-linecap:round;stroke-opacity:1"
         id="ellipse67"
         cx="-4.4748201"
         cy="10.536102"
         rx="0.93021643"
         ry="0.30110696"
         transform="matrix(-0.98024712,0.19777658,0.19611272,0.98058136,0,0)" /><ellipse
         style="fill:#d39b8e;fill-opacity:1;stroke:none;stroke-width:0.280009;stroke-linecap:round;stroke-dasharray:none;stroke-opacity:1"
         id="ellipse68"
         cx="5.3803625"
         cy="10.436037"
         rx="0.53007597"
         ry="0.17402677"
         transform="matrix(0.9810216,-0.1938985,0.10935061,0.99400324,0,0)" /><ellipse
         style="fill:#3f1f18;fill-opacity:1;stroke:none;stroke-width:0.401155;stroke-linecap:round;stroke-opacity:1"
         id="ellipse69"
         cx="-12.166154"
         cy="5.6698527"
         rx="0.42357975"
         ry="0.25998995"
         transform="matrix(0.22053563,-0.97537892,0.85169297,0.52404111,0,0)" /><ellipse
         style="fill:#25120e;fill-opacity:1;stroke:none;stroke-width:0.279127;stroke-linecap:round;stroke-opacity:1"
         id="ellipse70"
         cx="-12.182628"
         cy="5.6286049"
         rx="0.29496086"
         ry="0.1807619"
         transform="matrix(0.22346988,-0.97471084,0.85282379,0.5221988,0,0)" /><ellipse
         style="fill:#4c261d;fill-opacity:1;stroke:none;stroke-width:0.442197;stroke-linecap:round;stroke-opacity:1"
         id="ellipse71"
         cx="-12.942945"
         cy="3.8289521"
         rx="0.42564952"
         ry="0.31437388"
         transform="matrix(-0.6063642,-0.79518706,-0.67958624,0.73359563,0,0)" /><ellipse
         style="fill:#25120e;fill-opacity:1;stroke:none;stroke-width:0.307805;stroke-linecap:round;stroke-opacity:1"
         id="ellipse72"
         cx="-12.957897"
         cy="3.7855842"
         rx="0.29651338"
         ry="0.21866338"
         transform="matrix(-0.60935673,-0.7928962,-0.68095656,0.73232381,0,0)" /><ellipse
         style="fill:#3f1f18;fill-opacity:1;stroke:none;stroke-width:0.593698;stroke-linecap:round;stroke-opacity:1"
         id="ellipse73"
         cx="-8.3729153"
         cy="8.8631411"
         rx="0.602911"
         ry="0.40007949"
         transform="matrix(-0.98097562,-0.19413097,0.15156583,0.98844717,0,0)" /><ellipse
         style="fill:#25120e;fill-opacity:1;stroke:none;stroke-width:0.413075;stroke-linecap:round;stroke-opacity:1"
         id="ellipse74"
         cx="-8.404542"
         cy="8.7690334"
         rx="0.41977897"
         ry="0.27816641"
         transform="matrix(-0.98159813,-0.19095842,0.14960189,0.98874631,0,0)" /><ellipse
         style="fill:#3f1f18;fill-opacity:1;stroke:none;stroke-width:0.731495;stroke-linecap:round;stroke-opacity:1"
         id="ellipse75"
         cx="-3.0417817"
         cy="14.699726"
         rx="0.71853077"
         ry="0.50961834"
         transform="matrix(0.13557289,-0.99076737,0.7640611,0.64514388,0,0)" /><ellipse
         style="fill:#25120e;fill-opacity:1;stroke:none;stroke-width:0.508659;stroke-linecap:round;stroke-opacity:1"
         id="ellipse76"
         cx="-3.0917614"
         cy="14.547042"
         rx="0.49988055"
         ry="0.35420594"
         transform="matrix(0.13864969,-0.99034149,0.7651374,0.64386703,0,0)" /></g></g></svg>
