<?xml version="1.0" encoding="UTF-8" standalone="no"?>
<!-- Created with Inkscape (http://www.inkscape.org/) -->

<svg
   width="100mm"
   height="100mm"
   viewBox="0 0 100 100"
   version="1.1"
   id="svg3527"
   inkscape:version="1.4.2 (ebf0e940d0, 2025-05-08)"
   sodipodi:docname="bossCiclop_2.svg"
   xml:space="preserve"
   xmlns:inkscape="http://www.inkscape.org/namespaces/inkscape"
   xmlns:sodipodi="http://sodipodi.sourceforge.net/DTD/sodipodi-0.dtd"
   xmlns="http://www.w3.org/2000/svg"
   xmlns:svg="http://www.w3.org/2000/svg"><sodipodi:namedview
     id="namedview3529"
     pagecolor="#505050"
     bordercolor="#ffffff"
     borderopacity="1"
     inkscape:pageshadow="0"
     inkscape:pageopacity="0"
     inkscape:pagecheckerboard="1"
     inkscape:document-units="mm"
     showgrid="false"
     width="100mm"
     inkscape:zoom="1"
     inkscape:cx="205.49999"
     inkscape:cy="371.49999"
     inkscape:window-width="1366"
     inkscape:window-height="697"
     inkscape:window-x="0"
     inkscape:window-y="0"
     inkscape:window-maximized="1"
     inkscape:current-layer="layer1"
     inkscape:snap-global="false"
     inkscape:showpageshadow="0"
     inkscape:deskcolor="#505050" /><defs
     id="defs3524"><linearGradient
       id="linearGradient13895"
       inkscape:swatch="solid"><stop
         style="stop-color:#000000;stop-opacity:1;"
         offset="0"
         id="stop13893" /></linearGradient><filter
       style="color-interpolation-filters:sRGB;"
       inkscape:label="Clean Edges"
       id="filter14269"
       x="-0.31154084"
       y="-0.29580634"
       width="1.6230817"
       height="1.5916127"><feGaussianBlur
         stdDeviation="0.204612"
         result="blur"
         id="feGaussianBlur14263" /><feComposite
         in="SourceGraphic"
         in2="blur"
         operator="in"
         result="composite1"
         id="feComposite14265" /><feComposite
         in="composite1"
         in2="composite1"
         operator="in"
         result="composite2"
         id="feComposite14267" /></filter><inkscape:path-effect
       effect="fillet_chamfer"
       id="path-effect68"
       is_visible="true"
       lpeversion="1"
       nodesatellites_param="F,0,0,1,0,0,0,1 @ F,0,0,1,0,0,0,1 @ F,0,0,1,0,0,0,1 @ F,0,0,1,0,0,0,1 @ F,0,0,1,0,0,0,1 @ F,0,0,1,0,0,0,1 @ F,0,0,1,0,0,0,1 @ F,0,0,1,0,0,0,1 @ F,0,0,1,0,0,0,1"
       radius="0"
       unit="px"
       method="auto"
       mode="F"
       chamfer_steps="1"
       flexible="false"
       use_knot_distance="true"
       apply_no_radius="true"
       apply_with_radius="true"
       only_selected="false"
       hide_knots="false" /><inkscape:path-effect
       effect="fillet_chamfer"
       id="path-effect66"
       is_visible="true"
       lpeversion="1"
       nodesatellites_param="F,0,0,1,0,0,0,1 @ F,0,0,1,0,0.44929322,0,1 @ F,0,0,1,0,0.44929322,0,1 @ F,0,0,1,0,0,0,1 @ F,0,0,1,0,0,0,1 @ F,0,0,1,0,0,0,1 @ F,0,0,1,0,0,0,1 @ F,0,0,1,0,0,0,1 @ F,0,0,1,0,0,0,1 @ F,0,0,1,0,0,0,1"
       radius="0"
       unit="px"
       method="auto"
       mode="F"
       chamfer_steps="1"
       flexible="false"
       use_knot_distance="true"
       apply_no_radius="true"
       apply_with_radius="true"
       only_selected="false"
       hide_knots="false" /></defs><g
     inkscape:label="Camada 1"
     inkscape:groupmode="layer"
     id="layer1"><rect
       style="fill:#faae00;fill-opacity:1;stroke:none;stroke-width:0.328944"
       id="rect3553"
       width="105.90756"
       height="106.43306"
       x="-2.2978125"
       y="-102.57706"
       ry="1.1169149"
       transform="rotate(90)" /><path
       id="rect11"
       style="fill:#885c00;fill-opacity:1;stroke-width:5.46028"
       d="M 100.23391,-0.00281474 100.21013,100.3743 91.520089,92.844918 91.7999,7.3545982 Z"
       sodipodi:nodetypes="ccccc" /><path
       id="path15"
       style="fill:#885c00;fill-opacity:1;stroke-width:5.46463"
       d="M -0.79817643,0.15136016 -0.75974643,100.71131 7.7775496,91.164264 7.6266986,7.633959 Z"
       sodipodi:nodetypes="ccccc" /><path
       id="path16"
       style="fill:#ffc53f;fill-opacity:1;stroke-width:5.32556"
       d="M 99.924737,0.27603796 -1.5196164,-0.48487041 7.7199826,7.7329176 91.891238,7.2550181 Z"
       sodipodi:nodetypes="ccccc" /><path
       id="path17"
       style="fill:#ffc53f;fill-opacity:1;stroke-width:5.32556"
       d="M 100.09026,100.22647 -0.50810643,100.39361 7.7748786,91.192532 91.461075,92.786316 Z"
       sodipodi:nodetypes="ccccc" /><g
       id="g43"
       transform="matrix(0.78971408,0,0,0.80732571,-135.13069,9.6951874)" /><path
       id="path62"
       style="fill:#faae00;fill-opacity:1;stroke:#885c00;stroke-width:5.37476;stroke-dasharray:none;stroke-opacity:1"
       d="m 65.563628,52.237764 c 0,8.534998 -7.53756,19.450694 -16.835618,19.450694 -9.298056,-6e-6 -16.835614,-10.915696 -16.835614,-19.450694 0,-8.534991 7.881146,-19.98358 17.179195,-19.983585 9.298052,0 16.492037,11.448594 16.492037,19.983585 z"
       sodipodi:nodetypes="sssss" /><path
       id="path63"
       style="fill:#faae00;fill-opacity:1;stroke:#885c00;stroke-width:3.20754;stroke-dasharray:none;stroke-opacity:1"
       d="M 48.451823 40.932385 C 43.742832 40.932385 39.751062 47.312364 39.751062 52.068656 C 39.751062 56.824945 43.568669 62.907788 48.277673 62.907788 C 52.98666 62.907788 56.804285 56.824945 56.804285 52.068656 C 56.804285 51.358761 56.722912 50.61253 56.569157 49.856905 C 55.21544 50.5182 53.603705 50.646193 52.207666 49.823315 C 49.575988 48.27211 48.708065 43.92998 49.697742 41.518396 C 49.751578 41.387208 49.813234 41.257588 49.88171 41.129789 C 49.418531 41.001128 48.940876 40.932385 48.451823 40.932385 z " /><ellipse
       style="fill:#ffdc8a;fill-opacity:1;stroke:none;stroke-width:0.598932;stroke-linecap:round;stroke-linejoin:round;stroke-opacity:1"
       id="path12"
       cx="20.132826"
       cy="68.241692"
       rx="2.778125"
       ry="5.1924477"
       transform="rotate(-23.603626)" /><g
       id="g13"
       transform="matrix(2.1151702,-4.2547293,-3.347528,-2.2622409,37.547845,176.90016)"
       style="stroke:#885c00;stroke-opacity:1"><path
         sodipodi:type="spiral"
         style="fill:none;fill-opacity:1;fill-rule:evenodd;stroke:#885c00;stroke-width:1.165;stroke-dasharray:none;stroke-opacity:1"
         id="path13"
         sodipodi:cx="7.3788824"
         sodipodi:cy="11.990684"
         sodipodi:expansion="1"
         sodipodi:revolution="3"
         sodipodi:radius="7.1775723"
         sodipodi:argument="-18.677364"
         sodipodi:t0="0"
         d="m 7.3788824,11.990684 c 0.3545501,0.06166 0.091804,0.508347 -0.1024849,0.589285 -0.5265123,0.219336 -1.0101602,-0.312416 -1.0760864,-0.794255 -0.1179264,-0.861898 0.6785411,-1.533067 1.4860261,-1.562887 1.1850166,-0.04376 2.0659185,1.047626 2.0496877,2.177796 -0.021633,1.506339 -1.4174993,2.602675 -2.8695671,2.536489 C 5.0391786,14.853823 3.7250753,13.149428 3.8431686,11.375774 3.9861954,9.2276413 6.0011989,7.6945659 8.0962768,7.8656841 10.565254,8.067341 12.31801,10.39416 12.093167,12.810563 11.833578,15.600395 9.1941789,17.573289 6.4565181,17.294254 3.345814,16.977198 1.1524728,14.024706 1.4860261,10.965834 1.8602224,7.5342424 5.1261684,5.1202316 8.5062165,5.5085416 12.258711,5.9396393 14.893555,9.5193049 14.45031,13.220503"
         transform="matrix(-0.12693299,-0.27940024,-0.24651116,0.18568287,23.532179,18.320999)" /></g><g
       id="g14"
       transform="matrix(-2.1151702,-4.2547293,3.347528,-2.2622409,60.557654,178.08688)"
       style="stroke:#885c00;stroke-opacity:1"><path
         sodipodi:type="spiral"
         style="fill:none;fill-opacity:1;fill-rule:evenodd;stroke:#885c00;stroke-width:1.165;stroke-dasharray:none;stroke-opacity:1"
         id="path14"
         sodipodi:cx="7.3788824"
         sodipodi:cy="11.990684"
         sodipodi:expansion="1"
         sodipodi:revolution="3"
         sodipodi:radius="7.1775723"
         sodipodi:argument="-18.677364"
         sodipodi:t0="0"
         d="m 7.3788824,11.990684 c 0.3545501,0.06166 0.091804,0.508347 -0.1024849,0.589285 -0.5265123,0.219336 -1.0101602,-0.312416 -1.0760864,-0.794255 -0.1179264,-0.861898 0.6785411,-1.533067 1.4860261,-1.562887 1.1850166,-0.04376 2.0659185,1.047626 2.0496877,2.177796 -0.021633,1.506339 -1.4174993,2.602675 -2.8695671,2.536489 C 5.0391786,14.853823 3.7250753,13.149428 3.8431686,11.375774 3.9861954,9.2276413 6.0011989,7.6945659 8.0962768,7.8656841 10.565254,8.067341 12.31801,10.39416 12.093167,12.810563 11.833578,15.600395 9.1941789,17.573289 6.4565181,17.294254 3.345814,16.977198 1.1524728,14.024706 1.4860261,10.965834 1.8602224,7.5342424 5.1261684,5.1202316 8.5062165,5.5085416 12.258711,5.9396393 14.893555,9.5193049 14.45031,13.220503"
         transform="matrix(-0.12693299,-0.27940024,-0.24651116,0.18568287,23.532179,18.320999)" /></g></g></svg>
