<?xml version="1.0" encoding="UTF-8" standalone="no"?>
<!-- Created with Inkscape (http://www.inkscape.org/) -->

<svg
   width="100mm"
   height="100mm"
   viewBox="0 0 100 100"
   version="1.1"
   id="svg3527"
   inkscape:version="1.4.2 (ebf0e940d0, 2025-05-08)"
   sodipodi:docname="ceramica_2.svg"
   xmlns:inkscape="http://www.inkscape.org/namespaces/inkscape"
   xmlns:sodipodi="http://sodipodi.sourceforge.net/DTD/sodipodi-0.dtd"
   xmlns="http://www.w3.org/2000/svg"
   xmlns:svg="http://www.w3.org/2000/svg">
  <sodipodi:namedview
     id="namedview3529"
     pagecolor="#505050"
     bordercolor="#ffffff"
     borderopacity="1"
     inkscape:pageshadow="0"
     inkscape:pageopacity="0"
     inkscape:pagecheckerboard="1"
     inkscape:document-units="mm"
     showgrid="false"
     width="100mm"
     inkscape:zoom="0.86056394"
     inkscape:cx="2.9050717"
     inkscape:cy="191.15372"
     inkscape:window-width="1366"
     inkscape:window-height="697"
     inkscape:window-x="0"
     inkscape:window-y="0"
     inkscape:window-maximized="1"
     inkscape:current-layer="layer1"
     inkscape:snap-global="false"
     inkscape:showpageshadow="0"
     inkscape:deskcolor="#505050" />
  <defs
     id="defs3524" />
  <g
     inkscape:label="Camada 1"
     inkscape:groupmode="layer"
     id="layer1">
    <rect
       style="fill:#122d24;fill-opacity:1;stroke:none;stroke-width:0.328944"
       id="rect3553-6"
       width="105.90756"
       height="106.43306"
       x="-3.3919618"
       y="-2.28684"
       ry="1.1169149" />
    <path
       id="rect11"
       style="fill:#205141;fill-opacity:1;stroke-width:5.52641"
       d="M 0.12441581,-0.37848605 100.1079,-0.357789 92.770665,8.7605322 7.2611358,8.3951658 Z"
       sodipodi:nodetypes="ccccc" />
    <g
       id="g1"
       transform="matrix(0.95765342,0,0,0.95362938,129.97284,5.6790469)">
      <ellipse
         style="fill:#0d1f1f;fill-opacity:1;stroke-width:0.150725"
         id="ellipse1"
         cx="-50.07666"
         cy="52.738998"
         rx="6.1071997"
         ry="10.972374" />
      <ellipse
         style="fill:#0d1f1f;fill-opacity:1;stroke-width:0.636527"
         id="path2"
         cx="-84.017113"
         cy="53.496899"
         rx="34.097759"
         ry="35.04969" />
      <path
         sodipodi:type="spiral"
         style="fill:none;fill-rule:evenodd;stroke:#0d1f1f;stroke-width:1.165;stroke-dasharray:none;stroke-opacity:1"
         id="path3"
         sodipodi:cx="7.3788824"
         sodipodi:cy="11.990684"
         sodipodi:expansion="1"
         sodipodi:revolution="3"
         sodipodi:radius="7.1775723"
         sodipodi:argument="-18.677364"
         sodipodi:t0="0"
         d="m 7.3788824,11.990684 c 0.3545501,0.06166 0.091804,0.508347 -0.1024849,0.589285 -0.5265123,0.219336 -1.0101602,-0.312416 -1.0760864,-0.794255 -0.1179264,-0.861898 0.6785411,-1.533067 1.4860261,-1.562887 1.1850166,-0.04376 2.0659185,1.047626 2.0496877,2.177796 -0.021633,1.506339 -1.4174993,2.602675 -2.8695671,2.536489 C 5.0391786,14.853823 3.7250753,13.149428 3.8431686,11.375774 3.9861954,9.2276413 6.0011989,7.6945659 8.0962768,7.8656841 10.565254,8.067341 12.31801,10.39416 12.093167,12.810563 11.833578,15.600395 9.1941789,17.573289 6.4565181,17.294254 3.345814,16.977198 1.1524728,14.024706 1.4860261,10.965834 1.8602224,7.5342424 5.1261684,5.1202316 8.5062165,5.5085416 12.258711,5.9396393 14.893555,9.5193049 14.45031,13.220503"
         transform="matrix(1.3631831,0,0,1.4775689,-128.49138,17.310113)" />
      <path
         sodipodi:type="spiral"
         style="fill:none;fill-rule:evenodd;stroke:#0d1f1f;stroke-width:1.165;stroke-dasharray:none;stroke-opacity:1"
         id="path4"
         sodipodi:cx="7.3788824"
         sodipodi:cy="11.990684"
         sodipodi:expansion="1"
         sodipodi:revolution="3"
         sodipodi:radius="7.1775723"
         sodipodi:argument="-18.677364"
         sodipodi:t0="0"
         d="m 7.3788824,11.990684 c 0.3545501,0.06166 0.091804,0.508347 -0.1024849,0.589285 -0.5265123,0.219336 -1.0101602,-0.312416 -1.0760864,-0.794255 -0.1179264,-0.861898 0.6785411,-1.533067 1.4860261,-1.562887 1.1850166,-0.04376 2.0659185,1.047626 2.0496877,2.177796 -0.021633,1.506339 -1.4174993,2.602675 -2.8695671,2.536489 C 5.0391786,14.853823 3.7250753,13.149428 3.8431686,11.375774 3.9861954,9.2276413 6.0011989,7.6945659 8.0962768,7.8656841 10.565254,8.067341 12.31801,10.39416 12.093167,12.810563 11.833578,15.600395 9.1941789,17.573289 6.4565181,17.294254 3.345814,16.977198 1.1524728,14.024706 1.4860261,10.965834 1.8602224,7.5342424 5.1261684,5.1202316 8.5062165,5.5085416 12.258711,5.9396393 14.893555,9.5193049 14.45031,13.220503"
         transform="matrix(0.92988432,0.99678649,-1.0804277,1.0079117,-104.42382,2.4131554)" />
      <path
         sodipodi:type="spiral"
         style="fill:none;fill-rule:evenodd;stroke:#0d1f1f;stroke-width:1.165;stroke-dasharray:none;stroke-opacity:1"
         id="path5"
         sodipodi:cx="7.3788824"
         sodipodi:cy="11.990684"
         sodipodi:expansion="1"
         sodipodi:revolution="3"
         sodipodi:radius="7.1775723"
         sodipodi:argument="-18.677364"
         sodipodi:t0="0"
         d="m 7.3788824,11.990684 c 0.3545501,0.06166 0.091804,0.508347 -0.1024849,0.589285 -0.5265123,0.219336 -1.0101602,-0.312416 -1.0760864,-0.794255 -0.1179264,-0.861898 0.6785411,-1.533067 1.4860261,-1.562887 1.1850166,-0.04376 2.0659185,1.047626 2.0496877,2.177796 -0.021633,1.506339 -1.4174993,2.602675 -2.8695671,2.536489 C 5.0391786,14.853823 3.7250753,13.149428 3.8431686,11.375774 3.9861954,9.2276413 6.0011989,7.6945659 8.0962768,7.8656841 10.565254,8.067341 12.31801,10.39416 12.093167,12.810563 11.833578,15.600395 9.1941789,17.573289 6.4565181,17.294254 3.345814,16.977198 1.1524728,14.024706 1.4860261,10.965834 1.8602224,7.5342424 5.1261684,5.1202316 8.5062165,5.5085416 12.258711,5.9396393 14.893555,9.5193049 14.45031,13.220503"
         transform="matrix(0.03682859,1.3626855,-1.4770296,0.0399189,-81.104448,2.9852876)" />
      <path
         sodipodi:type="spiral"
         style="fill:none;fill-rule:evenodd;stroke:#0d1f1f;stroke-width:1.165;stroke-dasharray:none;stroke-opacity:1"
         id="path6"
         sodipodi:cx="7.3788824"
         sodipodi:cy="11.990684"
         sodipodi:expansion="1"
         sodipodi:revolution="3"
         sodipodi:radius="7.1775723"
         sodipodi:argument="-18.677364"
         sodipodi:t0="0"
         d="m 7.3788824,11.990684 c 0.3545501,0.06166 0.091804,0.508347 -0.1024849,0.589285 -0.5265123,0.219336 -1.0101602,-0.312416 -1.0760864,-0.794255 -0.1179264,-0.861898 0.6785411,-1.533067 1.4860261,-1.562887 1.1850166,-0.04376 2.0659185,1.047626 2.0496877,2.177796 -0.021633,1.506339 -1.4174993,2.602675 -2.8695671,2.536489 C 5.0391786,14.853823 3.7250753,13.149428 3.8431686,11.375774 3.9861954,9.2276413 6.0011989,7.6945659 8.0962768,7.8656841 10.565254,8.067341 12.31801,10.39416 12.093167,12.810563 11.833578,15.600395 9.1941789,17.573289 6.4565181,17.294254 3.345814,16.977198 1.1524728,14.024706 1.4860261,10.965834 1.8602224,7.5342424 5.1261684,5.1202316 8.5062165,5.5085416 12.258711,5.9396393 14.893555,9.5193049 14.45031,13.220503"
         transform="matrix(0.52261687,1.2590233,-1.364669,0.56647008,-69.343865,-3.0180603)" />
      <path
         sodipodi:type="spiral"
         style="fill:none;fill-rule:evenodd;stroke:#0d1f1f;stroke-width:1.165;stroke-dasharray:none;stroke-opacity:1"
         id="path7"
         sodipodi:cx="7.3788824"
         sodipodi:cy="11.990684"
         sodipodi:expansion="1"
         sodipodi:revolution="3"
         sodipodi:radius="7.1775723"
         sodipodi:argument="-18.677364"
         sodipodi:t0="0"
         d="m 7.3788824,11.990684 c 0.3545501,0.06166 0.091804,0.508347 -0.1024849,0.589285 -0.5265123,0.219336 -1.0101602,-0.312416 -1.0760864,-0.794255 -0.1179264,-0.861898 0.6785411,-1.533067 1.4860261,-1.562887 1.1850166,-0.04376 2.0659185,1.047626 2.0496877,2.177796 -0.021633,1.506339 -1.4174993,2.602675 -2.8695671,2.536489 C 5.0391786,14.853823 3.7250753,13.149428 3.8431686,11.375774 3.9861954,9.2276413 6.0011989,7.6945659 8.0962768,7.8656841 10.565254,8.067341 12.31801,10.39416 12.093167,12.810563 11.833578,15.600395 9.1941789,17.573289 6.4565181,17.294254 3.345814,16.977198 1.1524728,14.024706 1.4860261,10.965834 1.8602224,7.5342424 5.1261684,5.1202316 8.5062165,5.5085416 12.258711,5.9396393 14.893555,9.5193049 14.45031,13.220503"
         transform="matrix(-0.56412394,1.2409804,-1.3451121,-0.61146007,-48.629845,14.442294)" />
      <path
         sodipodi:type="spiral"
         style="fill:none;fill-rule:evenodd;stroke:#0d1f1f;stroke-width:1.165;stroke-dasharray:none;stroke-opacity:1"
         id="path8"
         sodipodi:cx="7.3788824"
         sodipodi:cy="11.990684"
         sodipodi:expansion="1"
         sodipodi:revolution="3"
         sodipodi:radius="7.1775723"
         sodipodi:argument="-18.677364"
         sodipodi:t0="0"
         d="m 7.3788824,11.990684 c 0.3545501,0.06166 0.091804,0.508347 -0.1024849,0.589285 -0.5265123,0.219336 -1.0101602,-0.312416 -1.0760864,-0.794255 -0.1179264,-0.861898 0.6785411,-1.533067 1.4860261,-1.562887 1.1850166,-0.04376 2.0659185,1.047626 2.0496877,2.177796 -0.021633,1.506339 -1.4174993,2.602675 -2.8695671,2.536489 C 5.0391786,14.853823 3.7250753,13.149428 3.8431686,11.375774 3.9861954,9.2276413 6.0011989,7.6945659 8.0962768,7.8656841 10.565254,8.067341 12.31801,10.39416 12.093167,12.810563 11.833578,15.600395 9.1941789,17.573289 6.4565181,17.294254 3.345814,16.977198 1.1524728,14.024706 1.4860261,10.965834 1.8602224,7.5342424 5.1261684,5.1202316 8.5062165,5.5085416 12.258711,5.9396393 14.893555,9.5193049 14.45031,13.220503"
         transform="matrix(-1.2444444,0.55644065,-0.60313205,-1.3488668,-38.210152,34.563844)" />
      <path
         sodipodi:type="spiral"
         style="fill:none;fill-rule:evenodd;stroke:#0d1f1f;stroke-width:1.165;stroke-dasharray:none;stroke-opacity:1"
         id="path9"
         sodipodi:cx="7.3788824"
         sodipodi:cy="11.990684"
         sodipodi:expansion="1"
         sodipodi:revolution="3"
         sodipodi:radius="7.1775723"
         sodipodi:argument="-18.677364"
         sodipodi:t0="0"
         d="m 7.3788824,11.990684 c 0.3545501,0.06166 0.091804,0.508347 -0.1024849,0.589285 -0.5265123,0.219336 -1.0101602,-0.312416 -1.0760864,-0.794255 -0.1179264,-0.861898 0.6785411,-1.533067 1.4860261,-1.562887 1.1850166,-0.04376 2.0659185,1.047626 2.0496877,2.177796 -0.021633,1.506339 -1.4174993,2.602675 -2.8695671,2.536489 C 5.0391786,14.853823 3.7250753,13.149428 3.8431686,11.375774 3.9861954,9.2276413 6.0011989,7.6945659 8.0962768,7.8656841 10.565254,8.067341 12.31801,10.39416 12.093167,12.810563 11.833578,15.600395 9.1941789,17.573289 6.4565181,17.294254 3.345814,16.977198 1.1524728,14.024706 1.4860261,10.965834 1.8602224,7.5342424 5.1261684,5.1202316 8.5062165,5.5085416 12.258711,5.9396393 14.893555,9.5193049 14.45031,13.220503"
         transform="matrix(-1.2444444,0.55644065,-0.60313205,-1.3488668,-33.069177,45.27448)" />
      <ellipse
         style="fill:#0d1f1f;fill-opacity:1;stroke-width:0.150725"
         id="ellipse9"
         cx="-117.44273"
         cy="53.225147"
         rx="6.1071997"
         ry="10.972374" />
      <path
         sodipodi:type="spiral"
         style="fill:none;fill-rule:evenodd;stroke:#050c0c;stroke-width:1.165;stroke-dasharray:none;stroke-opacity:1"
         id="path10"
         sodipodi:cx="7.3788824"
         sodipodi:cy="11.990684"
         sodipodi:expansion="1"
         sodipodi:revolution="3"
         sodipodi:radius="7.1775723"
         sodipodi:argument="-18.677364"
         sodipodi:t0="0"
         d="m 7.3788824,11.990684 c 0.3545501,0.06166 0.091804,0.508347 -0.1024849,0.589285 -0.5265123,0.219336 -1.0101602,-0.312416 -1.0760864,-0.794255 -0.1179264,-0.861898 0.6785411,-1.533067 1.4860261,-1.562887 1.1850166,-0.04376 2.0659185,1.047626 2.0496877,2.177796 -0.021633,1.506339 -1.4174993,2.602675 -2.8695671,2.536489 C 5.0391786,14.853823 3.7250753,13.149428 3.8431686,11.375774 3.9861954,9.2276413 6.0011989,7.6945659 8.0962768,7.8656841 10.565254,8.067341 12.31801,10.39416 12.093167,12.810563 11.833578,15.600395 9.1941789,17.573289 6.4565181,17.294254 3.345814,16.977198 1.1524728,14.024706 1.4860261,10.965834 1.8602224,7.5342424 5.1261684,5.1202316 8.5062165,5.5085416 12.258711,5.9396393 14.893555,9.5193049 14.45031,13.220503"
         transform="matrix(0.76479105,0.76078813,-0.88860669,0.76927934,-79.484172,68.458846)" />
      <path
         sodipodi:type="spiral"
         style="fill:none;fill-rule:evenodd;stroke:#050c0c;stroke-width:1.165;stroke-dasharray:none;stroke-opacity:1"
         id="path11"
         sodipodi:cx="7.3788824"
         sodipodi:cy="11.990684"
         sodipodi:expansion="1"
         sodipodi:revolution="3"
         sodipodi:radius="7.1775723"
         sodipodi:argument="-18.677364"
         sodipodi:t0="0"
         d="m 7.3788824,11.990684 c 0.3545501,0.06166 0.091804,0.508347 -0.1024849,0.589285 -0.5265123,0.219336 -1.0101602,-0.312416 -1.0760864,-0.794255 -0.1179264,-0.861898 0.6785411,-1.533067 1.4860261,-1.562887 1.1850166,-0.04376 2.0659185,1.047626 2.0496877,2.177796 -0.021633,1.506339 -1.4174993,2.602675 -2.8695671,2.536489 C 5.0391786,14.853823 3.7250753,13.149428 3.8431686,11.375774 3.9861954,9.2276413 6.0011989,7.6945659 8.0962768,7.8656841 10.565254,8.067341 12.31801,10.39416 12.093167,12.810563 11.833578,15.600395 9.1941789,17.573289 6.4565181,17.294254 3.345814,16.977198 1.1524728,14.024706 1.4860261,10.965834 1.8602224,7.5342424 5.1261684,5.1202316 8.5062165,5.5085416 12.258711,5.9396393 14.893555,9.5193049 14.45031,13.220503"
         transform="matrix(0.122581,-1.0717639,1.1545479,0.22007224,-111.60282,86.946522)" />
      <path
         sodipodi:type="spiral"
         style="fill:none;fill-rule:evenodd;stroke:#050c0c;stroke-width:1.165;stroke-dasharray:none;stroke-opacity:1"
         id="path12"
         sodipodi:cx="7.3788824"
         sodipodi:cy="11.990684"
         sodipodi:expansion="1"
         sodipodi:revolution="3"
         sodipodi:radius="7.1775723"
         sodipodi:argument="-18.677364"
         sodipodi:t0="0"
         d="m 7.3788824,11.990684 c 0.3545501,0.06166 0.091804,0.508347 -0.1024849,0.589285 -0.5265123,0.219336 -1.0101602,-0.312416 -1.0760864,-0.794255 -0.1179264,-0.861898 0.6785411,-1.533067 1.4860261,-1.562887 1.1850166,-0.04376 2.0659185,1.047626 2.0496877,2.177796 -0.021633,1.506339 -1.4174993,2.602675 -2.8695671,2.536489 C 5.0391786,14.853823 3.7250753,13.149428 3.8431686,11.375774 3.9861954,9.2276413 6.0011989,7.6945659 8.0962768,7.8656841 10.565254,8.067341 12.31801,10.39416 12.093167,12.810563 11.833578,15.600395 9.1941789,17.573289 6.4565181,17.294254 3.345814,16.977198 1.1524728,14.024706 1.4860261,10.965834 1.8602224,7.5342424 5.1261684,5.1202316 8.5062165,5.5085416 12.258711,5.9396393 14.893555,9.5193049 14.45031,13.220503"
         transform="matrix(0.49963943,-1.0478334,0.97032851,0.6963656,-125.63338,74.490119)" />
      <path
         sodipodi:type="spiral"
         style="fill:none;fill-rule:evenodd;stroke:#050c0c;stroke-width:1.165;stroke-dasharray:none;stroke-opacity:1"
         id="path13"
         sodipodi:cx="7.3788824"
         sodipodi:cy="11.990684"
         sodipodi:expansion="1"
         sodipodi:revolution="3"
         sodipodi:radius="7.1775723"
         sodipodi:argument="-18.677364"
         sodipodi:t0="0"
         d="m 7.3788824,11.990684 c 0.3545501,0.06166 0.091804,0.508347 -0.1024849,0.589285 -0.5265123,0.219336 -1.0101602,-0.312416 -1.0760864,-0.794255 -0.1179264,-0.861898 0.6785411,-1.533067 1.4860261,-1.562887 1.1850166,-0.04376 2.0659185,1.047626 2.0496877,2.177796 -0.021633,1.506339 -1.4174993,2.602675 -2.8695671,2.536489 C 5.0391786,14.853823 3.7250753,13.149428 3.8431686,11.375774 3.9861954,9.2276413 6.0011989,7.6945659 8.0962768,7.8656841 10.565254,8.067341 12.31801,10.39416 12.093167,12.810563 11.833578,15.600395 9.1941789,17.573289 6.4565181,17.294254 3.345814,16.977198 1.1524728,14.024706 1.4860261,10.965834 1.8602224,7.5342424 5.1261684,5.1202316 8.5062165,5.5085416 12.258711,5.9396393 14.893555,9.5193049 14.45031,13.220503"
         transform="matrix(-0.122581,-1.0717639,-1.1545479,0.22007224,-55.105364,85.73647)" />
      <path
         sodipodi:type="spiral"
         style="fill:none;fill-rule:evenodd;stroke:#050c0c;stroke-width:1.165;stroke-dasharray:none;stroke-opacity:1"
         id="path14"
         sodipodi:cx="7.3788824"
         sodipodi:cy="11.990684"
         sodipodi:expansion="1"
         sodipodi:revolution="3"
         sodipodi:radius="7.1775723"
         sodipodi:argument="-18.677364"
         sodipodi:t0="0"
         d="m 7.3788824,11.990684 c 0.3545501,0.06166 0.091804,0.508347 -0.1024849,0.589285 -0.5265123,0.219336 -1.0101602,-0.312416 -1.0760864,-0.794255 -0.1179264,-0.861898 0.6785411,-1.533067 1.4860261,-1.562887 1.1850166,-0.04376 2.0659185,1.047626 2.0496877,2.177796 -0.021633,1.506339 -1.4174993,2.602675 -2.8695671,2.536489 C 5.0391786,14.853823 3.7250753,13.149428 3.8431686,11.375774 3.9861954,9.2276413 6.0011989,7.6945659 8.0962768,7.8656841 10.565254,8.067341 12.31801,10.39416 12.093167,12.810563 11.833578,15.600395 9.1941789,17.573289 6.4565181,17.294254 3.345814,16.977198 1.1524728,14.024706 1.4860261,10.965834 1.8602224,7.5342424 5.1261684,5.1202316 8.5062165,5.5085416 12.258711,5.9396393 14.893555,9.5193049 14.45031,13.220503"
         transform="matrix(-0.49963943,-1.0478334,-0.97032851,0.6963656,-40.944837,72.533497)" />
      <path
         id="path15"
         style="fill:#050c0c;stroke-width:1.35936"
         d="m -74.354084,37.102814 c 0,5.22296 -3.893376,11.902782 -8.696098,11.902782 -4.802721,-10e-7 -8.696096,-6.679822 -8.696096,-11.902782 0,-5.222959 4.070847,-12.228884 8.873567,-12.228885 4.802722,0 8.518627,7.005926 8.518627,12.228885 z"
         sodipodi:nodetypes="sssss" />
      <path
         id="path16"
         style="fill:#081414;fill-opacity:1;stroke:none;stroke-width:1.06512"
         d="m -100.49335,42.596226 c 4.4221,0.07036 10.016408,2.982601 9.940841,6.46403 -0.07557,3.48143 -5.792393,6.213701 -10.214491,6.143342 -4.42209,-0.07036 -10.28971,-3.11564 -10.21414,-6.597069 0.0756,-3.481429 6.0657,-6.080662 10.48779,-6.010303 z"
         sodipodi:nodetypes="sssss" />
      <path
         id="path17"
         style="fill:#081414;fill-opacity:1;stroke:none;stroke-width:1.06512"
         d="m -65.056753,42.378824 c 4.422095,0.07036 10.016403,2.982601 9.940836,6.46403 -0.07557,3.48143 -5.792393,6.213701 -10.214488,6.143342 -4.422093,-0.07036 -10.289709,-3.11564 -10.214143,-6.597069 0.07557,-3.481429 6.065702,-6.080662 10.487795,-6.010303 z"
         sodipodi:nodetypes="sssss" />
      <path
         id="path18"
         style="fill:#205141;fill-opacity:1;stroke:none;stroke-width:0.69332"
         d="m -78.267327,35.933541 c 0,2.587954 -2.044023,5.897775 -4.565452,5.897775 -2.521429,0 -4.565451,-3.309821 -4.565451,-5.897775 0,-2.587952 2.137195,-6.059357 4.658623,-6.059357 2.521429,0 4.47228,3.471405 4.47228,6.059357 z"
         sodipodi:nodetypes="sssss" />
      <path
         id="path19"
         style="fill:#0f2222;fill-opacity:1;stroke:none;stroke-width:0.556635;stroke-opacity:1"
         d="m -79.26655,35.86213 c 0,2.147101 -1.588053,4.893099 -3.547011,4.893099 -1.958962,0 -3.547013,-2.745998 -3.547013,-4.893099 0,-2.147098 1.660439,-5.027154 3.619399,-5.027154 1.958961,0 3.474625,2.880056 3.474625,5.027154 z"
         sodipodi:nodetypes="sssss" />
      <path
         id="path20"
         style="fill:#205141;fill-opacity:1;stroke:none;stroke-width:0.411044"
         d="m -79.181961,34.325217 c 0,1.506614 -1.234097,3.433473 -2.756432,3.433473 -1.522335,0 -2.756431,-1.926859 -2.756431,-3.433473 0,-1.506613 1.29035,-3.527541 2.812684,-3.527541 1.522335,0 2.700179,2.020928 2.700179,3.527541 z"
         sodipodi:nodetypes="sssss" />
      <path
         id="path29"
         style="fill:#0d1f1f;fill-opacity:1;stroke:none;stroke-width:0.343456"
         d="m -100.41648,48.359727 c 4.422093,0.0073 10.016401,0.310128 9.940834,0.672122 -0.07557,0.361995 -5.792393,0.646094 -10.214484,0.638777 -4.4221,-0.0073 -10.28971,-0.32396 -10.21415,-0.685955 0.0756,-0.361994 6.0657,-0.632259 10.4878,-0.624944 z"
         sodipodi:nodetypes="sssss" />
      <path
         id="path30"
         style="fill:#0d1f1f;fill-opacity:1;stroke:none;stroke-width:0.343456"
         d="m -65.059338,47.74482 c 4.422095,0.0073 10.016403,0.310128 9.940836,0.672122 -0.07557,0.361995 -5.792393,0.646094 -10.214488,0.638777 -4.422093,-0.0073 -10.289709,-0.32396 -10.214143,-0.685955 0.07557,-0.361994 6.065702,-0.632259 10.487795,-0.624944 z"
         sodipodi:nodetypes="sssss" />
    </g>
    <path
       id="path15-7"
       style="fill:#205141;fill-opacity:1;stroke-width:5.32556"
       d="M 0.34613581,100.69203 H 100.21432 l -9.239605,-8.217784 -83.4918692,0.0703 z"
       sodipodi:nodetypes="ccccc" />
    <path
       id="path16-5"
       style="fill-opacity:1;stroke-width:5.32556;fill:#091511"
       d="M 0.24021581,0.36548816 -0.52068419,101.80984 7.6970958,92.570246 7.2191958,8.3989872 Z"
       sodipodi:nodetypes="ccccc" />
    <path
       id="path17-3"
       style="fill-opacity:1;stroke-width:5.32556;fill:#091511"
       d="M 100.19065,0.19996016 100.3578,100.79833 91.156715,92.515346 92.750495,8.8291502 Z"
       sodipodi:nodetypes="ccccc" />
    <path
       id="path1"
       style="fill:#000000;fill-opacity:0.348871;stroke-width:1.02289"
       inkscape:transform-center-x="-0.2222293"
       inkscape:transform-center-y="-13.528197"
       d="M 91.544136,92.284401 7.3908024,93.155586 7.1149306,8.8564934 Z"
       sodipodi:nodetypes="cccc" />
  </g>
</svg>
