<?xml version="1.0" encoding="UTF-8" standalone="no"?>
<!-- Created with Inkscape (http://www.inkscape.org/) -->

<svg
   width="100mm"
   height="100mm"
   viewBox="0 0 100 100"
   version="1.1"
   id="svg3527"
   inkscape:version="1.4.2 (ebf0e940d0, 2025-05-08)"
   sodipodi:docname="ceramica_2.svg"
   xml:space="preserve"
   xmlns:inkscape="http://www.inkscape.org/namespaces/inkscape"
   xmlns:sodipodi="http://sodipodi.sourceforge.net/DTD/sodipodi-0.dtd"
   xmlns="http://www.w3.org/2000/svg"
   xmlns:svg="http://www.w3.org/2000/svg"><sodipodi:namedview
     id="namedview3529"
     pagecolor="#505050"
     bordercolor="#ffffff"
     borderopacity="1"
     inkscape:pageshadow="0"
     inkscape:pageopacity="0"
     inkscape:pagecheckerboard="1"
     inkscape:document-units="mm"
     showgrid="false"
     width="100mm"
     inkscape:zoom="0.43028197"
     inkscape:cx="80.179981"
     inkscape:cy="433.43671"
     inkscape:window-width="1366"
     inkscape:window-height="697"
     inkscape:window-x="0"
     inkscape:window-y="0"
     inkscape:window-maximized="1"
     inkscape:current-layer="layer1"
     inkscape:snap-global="false"
     inkscape:showpageshadow="0"
     inkscape:deskcolor="#505050" /><defs
     id="defs3524"><linearGradient
       id="linearGradient13895"
       inkscape:swatch="solid"><stop
         style="stop-color:#000000;stop-opacity:1;"
         offset="0"
         id="stop13893" /></linearGradient><filter
       style="color-interpolation-filters:sRGB;"
       inkscape:label="Clean Edges"
       id="filter14269"
       x="-0.31154084"
       y="-0.29580634"
       width="1.6230817"
       height="1.5916127"><feGaussianBlur
         stdDeviation="0.204612"
         result="blur"
         id="feGaussianBlur14263" /><feComposite
         in="SourceGraphic"
         in2="blur"
         operator="in"
         result="composite1"
         id="feComposite14265" /><feComposite
         in="composite1"
         in2="composite1"
         operator="in"
         result="composite2"
         id="feComposite14267" /></filter></defs><g
     inkscape:label="Camada 1"
     inkscape:groupmode="layer"
     id="layer1"><rect
       style="fill:#122d2d;fill-opacity:1;stroke:none;stroke-width:0.328944"
       id="rect3553"
       width="105.90756"
       height="106.43306"
       x="-3.9380946"
       y="-2.0187292"
       ry="1.1169149" /><path
       id="rect11-3"
       style="fill:#1b4646;fill-opacity:1;stroke-width:5.46028"
       d="M -0.42171167,0.10702714 99.561772,0.12722747 92.224538,9.028639 6.715002,8.6719645 Z"
       sodipodi:nodetypes="ccccc" /><path
       id="path15-5"
       style="fill:#1b4646;fill-opacity:1;stroke-width:5.46463"
       d="m -0.4113727,101.35651 100.6176127,0.0576 -9.587424,-8.658218 -83.403471,0.0028 z"
       sodipodi:nodetypes="ccccc" /><path
       id="path16"
       style="fill-opacity:0.444782;stroke-width:5.32556"
       d="M -0.30591074,0.63359862 -1.0668191,102.07795 7.1509689,92.838353 6.6730694,8.6670976 Z"
       sodipodi:nodetypes="ccccc" /><path
       sodipodi:type="spiral"
       style="fill:none;fill-rule:evenodd;stroke:#0d1e1e;stroke-width:1.165;stroke-dasharray:none;stroke-opacity:1"
       id="path9"
       sodipodi:cx="7.3788824"
       sodipodi:cy="11.990684"
       sodipodi:expansion="1"
       sodipodi:revolution="3.0738251"
       sodipodi:radius="7.3541994"
       sodipodi:argument="-18.677364"
       sodipodi:t0="0"
       d="m 7.3788824,11.990684 c 0.3545501,0.06166 0.091804,0.508347 -0.1024849,0.589285 -0.5265122,0.219336 -1.01016,-0.312416 -1.0760862,-0.794255 -0.1179264,-0.861898 0.678541,-1.533067 1.4860258,-1.562887 1.1850164,-0.04376 2.0659182,1.047626 2.0496875,2.177796 -0.021633,1.506339 -1.4174991,2.602674 -2.8695667,2.536488 C 5.039179,14.853823 3.7250759,13.149428 3.8431692,11.375774 3.9861959,9.2276417 6.0011992,7.6945666 8.0962767,7.8656848 10.565253,8.0673416 12.31801,10.394161 12.093167,12.810563 11.833577,15.600395 9.1941786,17.573288 6.4565183,17.294253 3.3458146,16.977197 1.1524738,14.024706 1.486027,10.965835 1.8602233,7.5342431 5.1261687,5.1202327 8.5062163,5.5085426 12.25871,5.9396403 14.893554,9.5193053 14.450309,13.220502 c -0.133932,1.118359 -0.534194,2.199524 -1.155346,3.138733"
       transform="matrix(-1.5159614,0.6223464,0.57066374,1.5454898,56.72699,2.8567455)" /><path
       id="path17"
       style="fill-opacity:0.444782;stroke-width:5.32556"
       d="M 99.644529,0.46807068 99.811672,101.06644 90.610584,92.783457 92.204368,9.097261 Z"
       sodipodi:nodetypes="ccccc" /><g
       id="g43"
       transform="matrix(0.78971408,0,0,0.80732571,-135.47554,10.237019)" /><path
       sodipodi:type="spiral"
       style="fill:none;fill-rule:evenodd;stroke:#0d1e1e;stroke-width:1.165;stroke-dasharray:none;stroke-opacity:1"
       id="path2"
       sodipodi:cx="7.3788824"
       sodipodi:cy="11.990684"
       sodipodi:expansion="1"
       sodipodi:revolution="3.0738251"
       sodipodi:radius="7.3541994"
       sodipodi:argument="-18.677364"
       sodipodi:t0="0"
       d="m 7.3788824,11.990684 c 0.3545501,0.06166 0.091804,0.508347 -0.1024849,0.589285 -0.5265122,0.219336 -1.01016,-0.312416 -1.0760862,-0.794255 -0.1179264,-0.861898 0.678541,-1.533067 1.4860258,-1.562887 1.1850164,-0.04376 2.0659182,1.047626 2.0496875,2.177796 -0.021633,1.506339 -1.4174991,2.602674 -2.8695667,2.536488 C 5.039179,14.853823 3.7250759,13.149428 3.8431692,11.375774 3.9861959,9.2276417 6.0011992,7.6945666 8.0962767,7.8656848 10.565253,8.0673416 12.31801,10.394161 12.093167,12.810563 11.833577,15.600395 9.1941786,17.573288 6.4565183,17.294253 3.3458146,16.977197 1.1524738,14.024706 1.486027,10.965835 1.8602233,7.5342431 5.1261687,5.1202327 8.5062163,5.5085426 12.25871,5.9396403 14.893554,9.5193053 14.450309,13.220502 c -0.133932,1.118359 -0.534194,2.199524 -1.155346,3.138733"
       transform="matrix(1.5159614,-0.6223464,-0.57066374,-1.5454898,43.583865,94.513451)" /><path
       sodipodi:type="spiral"
       style="fill:none;fill-rule:evenodd;stroke:#0d1e1e;stroke-width:1.165;stroke-dasharray:none;stroke-opacity:1"
       id="path3"
       sodipodi:cx="7.3788824"
       sodipodi:cy="11.990684"
       sodipodi:expansion="1"
       sodipodi:revolution="3.0738251"
       sodipodi:radius="7.3541994"
       sodipodi:argument="-18.677364"
       sodipodi:t0="0"
       d="m 7.3788824,11.990684 c 0.3545501,0.06166 0.091804,0.508347 -0.1024849,0.589285 -0.5265122,0.219336 -1.01016,-0.312416 -1.0760862,-0.794255 -0.1179264,-0.861898 0.678541,-1.533067 1.4860258,-1.562887 1.1850164,-0.04376 2.0659182,1.047626 2.0496875,2.177796 -0.021633,1.506339 -1.4174991,2.602674 -2.8695667,2.536488 C 5.039179,14.853823 3.7250759,13.149428 3.8431692,11.375774 3.9861959,9.2276417 6.0011992,7.6945666 8.0962767,7.8656848 10.565253,8.0673416 12.31801,10.394161 12.093167,12.810563 11.833577,15.600395 9.1941786,17.573288 6.4565183,17.294253 3.3458146,16.977197 1.1524738,14.024706 1.486027,10.965835 1.8602233,7.5342431 5.1261687,5.1202327 8.5062163,5.5085426 12.25871,5.9396403 14.893554,9.5193053 14.450309,13.220502 c -0.133932,1.118359 -0.534194,2.199524 -1.155346,3.138733"
       transform="matrix(-1.0127913,-1.2882965,-1.33082,0.97114058,101.01862,50.628321)" /><path
       sodipodi:type="spiral"
       style="fill:none;fill-rule:evenodd;stroke:#0d1e1e;stroke-width:1.165;stroke-dasharray:none;stroke-opacity:1"
       id="path4"
       sodipodi:cx="7.3788824"
       sodipodi:cy="11.990684"
       sodipodi:expansion="1"
       sodipodi:revolution="3.0738251"
       sodipodi:radius="7.3541994"
       sodipodi:argument="-18.677364"
       sodipodi:t0="0"
       d="m 7.3788824,11.990684 c 0.3545501,0.06166 0.091804,0.508347 -0.1024849,0.589285 -0.5265122,0.219336 -1.01016,-0.312416 -1.0760862,-0.794255 -0.1179264,-0.861898 0.678541,-1.533067 1.4860258,-1.562887 1.1850164,-0.04376 2.0659182,1.047626 2.0496875,2.177796 -0.021633,1.506339 -1.4174991,2.602674 -2.8695667,2.536488 C 5.039179,14.853823 3.7250759,13.149428 3.8431692,11.375774 3.9861959,9.2276417 6.0011992,7.6945666 8.0962767,7.8656848 10.565253,8.0673416 12.31801,10.394161 12.093167,12.810563 11.833577,15.600395 9.1941786,17.573288 6.4565183,17.294253 3.3458146,16.977197 1.1524738,14.024706 1.486027,10.965835 1.8602233,7.5342431 5.1261687,5.1202327 8.5062163,5.5085426 12.25871,5.9396403 14.893554,9.5193053 14.450309,13.220502 c -0.133932,1.118359 -0.534194,2.199524 -1.155346,3.138733"
       transform="matrix(1.108782,1.2066717,1.2522696,-1.0705217,-2.1573303,52.262441)" /><path
       sodipodi:type="spiral"
       style="fill:none;fill-rule:evenodd;stroke:#0d1e1e;stroke-width:1.165;stroke-dasharray:none;stroke-opacity:1"
       id="path5"
       sodipodi:cx="7.3788824"
       sodipodi:cy="11.990684"
       sodipodi:expansion="1"
       sodipodi:revolution="3.0738251"
       sodipodi:radius="7.3541994"
       sodipodi:argument="-18.677364"
       sodipodi:t0="0"
       d="m 7.3788824,11.990684 c 0.3545501,0.06166 0.091804,0.508347 -0.1024849,0.589285 -0.5265122,0.219336 -1.01016,-0.312416 -1.0760862,-0.794255 -0.1179264,-0.861898 0.678541,-1.533067 1.4860258,-1.562887 1.1850164,-0.04376 2.0659182,1.047626 2.0496875,2.177796 -0.021633,1.506339 -1.4174991,2.602674 -2.8695667,2.536488 C 5.039179,14.853823 3.7250759,13.149428 3.8431692,11.375774 3.9861959,9.2276417 6.0011992,7.6945666 8.0962767,7.8656848 10.565253,8.0673416 12.31801,10.394161 12.093167,12.810563 11.833577,15.600395 9.1941786,17.573288 6.4565183,17.294253 3.3458146,16.977197 1.1524738,14.024706 1.486027,10.965835 1.8602233,7.5342431 5.1261687,5.1202327 8.5062163,5.5085426 12.25871,5.9396403 14.893554,9.5193053 14.450309,13.220502 c -0.133932,1.118359 -0.534194,2.199524 -1.155346,3.138733"
       transform="matrix(0.46445182,-1.5715402,-1.5621846,-0.52323529,90.875224,96.155283)" /><path
       sodipodi:type="spiral"
       style="fill:none;fill-rule:evenodd;stroke:#0d1e1e;stroke-width:1.165;stroke-dasharray:none;stroke-opacity:1"
       id="path6"
       sodipodi:cx="7.3788824"
       sodipodi:cy="11.990684"
       sodipodi:expansion="1"
       sodipodi:revolution="3.0738251"
       sodipodi:radius="7.3541994"
       sodipodi:argument="-18.677364"
       sodipodi:t0="0"
       d="m 7.3788824,11.990684 c 0.3545501,0.06166 0.091804,0.508347 -0.1024849,0.589285 -0.5265122,0.219336 -1.01016,-0.312416 -1.0760862,-0.794255 -0.1179264,-0.861898 0.678541,-1.533067 1.4860258,-1.562887 1.1850164,-0.04376 2.0659182,1.047626 2.0496875,2.177796 -0.021633,1.506339 -1.4174991,2.602674 -2.8695667,2.536488 C 5.039179,14.853823 3.7250759,13.149428 3.8431692,11.375774 3.9861959,9.2276417 6.0011992,7.6945666 8.0962767,7.8656848 10.565253,8.0673416 12.31801,10.394161 12.093167,12.810563 11.833577,15.600395 9.1941786,17.573288 6.4565183,17.294253 3.3458146,16.977197 1.1524738,14.024706 1.486027,10.965835 1.8602233,7.5342431 5.1261687,5.1202327 8.5062163,5.5085426 12.25871,5.9396403 14.893554,9.5193053 14.450309,13.220502 c -0.133932,1.118359 -0.534194,2.199524 -1.155346,3.138733"
       transform="matrix(-0.46445182,1.5715402,1.5621846,0.52323529,8.359539,4.1357226)" /><path
       sodipodi:type="spiral"
       style="fill:none;fill-rule:evenodd;stroke:#0d1e1e;stroke-width:1.165;stroke-dasharray:none;stroke-opacity:1"
       id="path7"
       sodipodi:cx="7.3788824"
       sodipodi:cy="11.990684"
       sodipodi:expansion="1"
       sodipodi:revolution="3.0738251"
       sodipodi:radius="7.3541994"
       sodipodi:argument="-18.677364"
       sodipodi:t0="0"
       d="m 7.3788824,11.990684 c 0.3545501,0.06166 0.091804,0.508347 -0.1024849,0.589285 -0.5265122,0.219336 -1.01016,-0.312416 -1.0760862,-0.794255 -0.1179264,-0.861898 0.678541,-1.533067 1.4860258,-1.562887 1.1850164,-0.04376 2.0659182,1.047626 2.0496875,2.177796 -0.021633,1.506339 -1.4174991,2.602674 -2.8695667,2.536488 C 5.039179,14.853823 3.7250759,13.149428 3.8431692,11.375774 3.9861959,9.2276417 6.0011992,7.6945666 8.0962767,7.8656848 10.565253,8.0673416 12.31801,10.394161 12.093167,12.810563 11.833577,15.600395 9.1941786,17.573288 6.4565183,17.294253 3.3458146,16.977197 1.1524738,14.024706 1.486027,10.965835 1.8602233,7.5342431 5.1261687,5.1202327 8.5062163,5.5085426 12.25871,5.9396403 14.893554,9.5193053 14.450309,13.220502 c -0.133932,1.118359 -0.534194,2.199524 -1.155346,3.138733"
       transform="matrix(-0.01907668,1.6386245,-1.6469995,0.03985448,97.931444,8.7204965)" /><path
       sodipodi:type="spiral"
       style="fill:none;fill-rule:evenodd;stroke:#0d1e1e;stroke-width:1.165;stroke-dasharray:none;stroke-opacity:1"
       id="path8"
       sodipodi:cx="7.3788824"
       sodipodi:cy="11.990684"
       sodipodi:expansion="1"
       sodipodi:revolution="3.0738251"
       sodipodi:radius="7.3541994"
       sodipodi:argument="-18.677364"
       sodipodi:t0="0"
       d="m 7.3788824,11.990684 c 0.3545501,0.06166 0.091804,0.508347 -0.1024849,0.589285 -0.5265122,0.219336 -1.01016,-0.312416 -1.0760862,-0.794255 -0.1179264,-0.861898 0.678541,-1.533067 1.4860258,-1.562887 1.1850164,-0.04376 2.0659182,1.047626 2.0496875,2.177796 -0.021633,1.506339 -1.4174991,2.602674 -2.8695667,2.536488 C 5.039179,14.853823 3.7250759,13.149428 3.8431692,11.375774 3.9861959,9.2276417 6.0011992,7.6945666 8.0962767,7.8656848 10.565253,8.0673416 12.31801,10.394161 12.093167,12.810563 11.833577,15.600395 9.1941786,17.573288 6.4565183,17.294253 3.3458146,16.977197 1.1524738,14.024706 1.486027,10.965835 1.8602233,7.5342431 5.1261687,5.1202327 8.5062163,5.5085426 12.25871,5.9396403 14.893554,9.5193053 14.450309,13.220502 c -0.133932,1.118359 -0.534194,2.199524 -1.155346,3.138733"
       transform="matrix(1.5297107,0.58774077,0.64559602,-1.5157182,2.0556805,92.007828)" /><g
       id="g10"
       transform="matrix(1.9372715,0,0,1.3772859,-51.632446,-17.818234)"><path
         id="path18"
         style="fill:#0d1e1e;fill-opacity:1;stroke:none;stroke-width:1.24924"
         d="m 61.1188,48.51223 c 0,4.240354 -4.0501,9.663486 -9.04614,9.663486 -4.99605,0 -9.04615,-5.423132 -9.04615,-9.663486 0,-4.240351 4.23472,-9.928237 9.23076,-9.928237 4.99605,0 8.86153,5.687886 8.86153,9.928237 z"
         sodipodi:nodetypes="sssss" /><path
         id="path19"
         style="fill:#122d2d;fill-opacity:1;stroke:none;stroke-width:1.00296;stroke-opacity:1"
         d="m 59.13891,48.395224 c 0,3.518017 -3.14663,8.017327 -7.02817,8.017327 -3.88156,0 -7.02818,-4.49931 -7.02818,-8.017327 0,-3.518013 3.29005,-8.236976 7.1716,-8.236976 3.88156,0 6.88475,4.718963 6.88475,8.236976 z"
         sodipodi:nodetypes="sssss" /><path
         id="path20"
         style="fill:#0d1e1e;fill-opacity:1;stroke:none;stroke-width:0.864236"
         d="m 57.132486,48.524017 c 0,3.69198 -2.226277,8.413774 -4.972534,8.413774 -2.746247,0 -4.972525,-4.721794 -4.972525,-8.413774 0,-3.691975 2.327755,-8.644286 5.074012,-8.644286 2.746247,0 4.871047,4.952311 4.871047,8.644286 z"
         sodipodi:nodetypes="sssss" /><path
         id="path10"
         style="fill:#122d2d;fill-opacity:1;stroke:none;stroke-width:0.408924"
         d="m 53.001841,45.24462 c 0,1.36282 -1.350268,3.105776 -3.015911,3.105776 -1.665637,0 -3.015905,-1.742956 -3.015905,-3.105776 0,-1.362819 1.411816,-3.190865 3.077458,-3.190865 1.665637,0 2.954358,1.828046 2.954358,3.190865 z"
         sodipodi:nodetypes="sssss" /></g><path
       id="path1"
       style="fill:#000000;fill-opacity:0.348871;stroke-width:1.02289"
       inkscape:transform-center-x="-0.2222293"
       inkscape:transform-center-y="13.528197"
       d="M 92.536785,9.2283169 6.6980205,8.6640201 7.1428562,92.87363 Z"
       sodipodi:nodetypes="cccc" /></g></svg>
