<?xml version="1.0" encoding="UTF-8" standalone="no"?>
<!-- Created with Inkscape (http://www.inkscape.org/) -->

<svg
   width="100mm"
   height="100mm"
   viewBox="0 0 100 100"
   version="1.1"
   id="svg3527"
   inkscape:version="1.4.2 (ebf0e940d0, 2025-05-08)"
   sodipodi:docname="ceramica_1.svg"
   xml:space="preserve"
   xmlns:inkscape="http://www.inkscape.org/namespaces/inkscape"
   xmlns:sodipodi="http://sodipodi.sourceforge.net/DTD/sodipodi-0.dtd"
   xmlns="http://www.w3.org/2000/svg"
   xmlns:svg="http://www.w3.org/2000/svg"><sodipodi:namedview
     id="namedview3529"
     pagecolor="#505050"
     bordercolor="#ffffff"
     borderopacity="1"
     inkscape:pageshadow="0"
     inkscape:pageopacity="0"
     inkscape:pagecheckerboard="1"
     inkscape:document-units="mm"
     showgrid="false"
     width="100mm"
     inkscape:zoom="0.86056394"
     inkscape:cx="61.006507"
     inkscape:cy="284.11602"
     inkscape:window-width="1366"
     inkscape:window-height="697"
     inkscape:window-x="0"
     inkscape:window-y="0"
     inkscape:window-maximized="1"
     inkscape:current-layer="layer1"
     inkscape:snap-global="false"
     inkscape:showpageshadow="0"
     inkscape:deskcolor="#505050" /><defs
     id="defs3524"><linearGradient
       id="linearGradient13895"
       inkscape:swatch="solid"><stop
         style="stop-color:#000000;stop-opacity:1;"
         offset="0"
         id="stop13893" /></linearGradient><filter
       style="color-interpolation-filters:sRGB;"
       inkscape:label="Clean Edges"
       id="filter14269"
       x="-0.31154084"
       y="-0.29580634"
       width="1.6230817"
       height="1.5916127"><feGaussianBlur
         stdDeviation="0.204612"
         result="blur"
         id="feGaussianBlur14263" /><feComposite
         in="SourceGraphic"
         in2="blur"
         operator="in"
         result="composite1"
         id="feComposite14265" /><feComposite
         in="composite1"
         in2="composite1"
         operator="in"
         result="composite2"
         id="feComposite14267" /></filter></defs><g
     inkscape:label="Camada 1"
     inkscape:groupmode="layer"
     id="layer1"><rect
       style="fill:#122d2d;fill-opacity:1;stroke:none;stroke-width:0.328944"
       id="rect3553"
       width="105.90756"
       height="106.43306"
       x="-3.5932462"
       y="-2.5605612"
       ry="1.1169149" /><g
       id="g31"
       transform="matrix(0.97955756,0,0,0.95621948,-134.86027,3.2320803)"
       style="fill:#102424;fill-opacity:1"><rect
         style="fill:#102424;fill-opacity:1;stroke-width:0.836913"
         id="rect5"
         width="71.329193"
         height="9.8385077"
         x="158.64597"
         y="66.93911"
         ry="0.065970369" /><rect
         style="fill:#102424;fill-opacity:1;stroke-width:0.682001"
         id="rect1"
         width="5.2267084"
         height="89.161491"
         x="145.42548"
         y="4.304348"
         ry="0.59785658" /><rect
         style="fill:#102424;fill-opacity:1;stroke-width:0.912832"
         id="rect3"
         width="84.857147"
         height="9.8385077"
         x="145.42548"
         y="83.849045"
         ry="0.065970369" /><rect
         style="fill:#102424;fill-opacity:1;stroke-width:0.529792"
         id="rect6"
         width="5.2267084"
         height="53.804348"
         x="158.64597"
         y="22.308126"
         ry="0.3607755" /><rect
         style="fill:#102424;fill-opacity:1;stroke-width:0.668448"
         id="rect9"
         width="45.503105"
         height="9.8385077"
         x="173.57521"
         y="49.328529"
         ry="0.065970369" /><rect
         style="fill:#102424;fill-opacity:1;stroke-width:0.912832"
         id="rect2"
         width="84.857147"
         height="9.8385077"
         x="145.42548"
         y="4.304348"
         ry="0.065970369" /><rect
         style="fill:#102424;fill-opacity:1;stroke-width:0.615237"
         id="rect4"
         width="5.2267084"
         height="72.559006"
         x="225.27762"
         y="4.304348"
         ry="0.48653153" /><rect
         style="fill:#102424;fill-opacity:1;stroke-width:0.76728"
         id="rect7"
         width="59.953415"
         height="9.8385077"
         x="158.81744"
         y="22.272625"
         ry="0.065970369" /><rect
         style="fill:#102424;fill-opacity:1;stroke-width:0.390345"
         id="rect8"
         width="5.2267084"
         height="29.208075"
         x="213.85161"
         y="22.61558"
         ry="0.19584955" /></g><path
       id="rect11"
       style="fill:#1b4646;fill-opacity:1;stroke-width:5.46028"
       d="M -0.07686335,-0.43480481 99.90662,-0.41460448 92.569386,8.486807 7.0598503,8.1301325 Z"
       sodipodi:nodetypes="ccccc" /><path
       id="path15"
       style="fill:#1b4646;fill-opacity:1;stroke-width:5.46463"
       d="M 0.14484985,100.85311 H 100.01304 L 90.773437,92.200522 7.2815636,92.27451 Z"
       sodipodi:nodetypes="ccccc" /><path
       id="path16"
       style="fill-opacity:0.444782;stroke-width:5.32556"
       d="M 0.03893758,0.09176667 -0.72197083,101.53612 7.4958172,92.296521 7.0179177,8.1252656 Z"
       sodipodi:nodetypes="ccccc" /><path
       id="path17"
       style="fill-opacity:0.444782;stroke-width:5.32556"
       d="M 99.989377,-0.07376127 100.15652,100.52461 90.955432,92.241625 92.549216,8.555429 Z"
       sodipodi:nodetypes="ccccc" /><path
       id="path31"
       style="fill:#050d0d;fill-opacity:1;stroke:none;stroke-width:5.61101;stroke-dasharray:none;stroke-opacity:1"
       d="m 49.834547,29.322545 a 15.165634,14.096555 1.554111 0 0 -14.831609,14.344798 15.165634,14.096555 1.554111 0 0 0.147034,1.690716 15.165634,14.096555 1.554111 0 1 1.628905,-0.107289 15.165634,14.096555 1.554111 0 1 11.700965,4.852693 15.165634,14.096555 1.554111 0 1 11.47052,-5.240786 15.165634,14.096555 1.554111 0 1 5.201338,0.763221 15.165634,14.096555 1.554111 0 0 0.17217,-2.469768 15.165634,14.096555 1.554111 0 0 -15.489826,-13.836961 z m 15.31749,16.306689 a 15.165634,14.096555 1.554111 0 1 -13.030114,11.771158 15.165634,14.096555 1.554111 0 1 0.147081,1.690716 15.165634,14.096555 1.554111 0 1 -3.360924,9.111705 15.165634,14.096555 1.554111 0 0 11.709206,4.85254 A 15.165634,14.096555 1.554111 0 0 75.440454,58.703013 15.165634,14.096555 1.554111 0 0 65.151985,45.629355 Z M 48.90811,68.202716 A 15.165634,14.096555 1.554111 0 1 45.119073,59.210755 15.165634,14.096555 1.554111 0 1 45.299826,56.748796 15.165634,14.096555 1.554111 0 1 35.150036,45.358214 15.165634,14.096555 1.554111 0 0 21.947593,59.599086 15.165634,14.096555 1.554111 0 0 37.445828,73.443563 15.165634,14.096555 1.554111 0 0 48.908115,68.202947 Z m -3.608298,-11.45417 a 15.165634,14.096555 1.554111 0 0 5.201332,0.763229 15.165634,14.096555 1.554111 0 0 1.62077,-0.110757 15.165634,14.096555 1.554111 0 0 -3.641741,-7.293637 15.165634,14.096555 1.554111 0 0 -3.180361,6.641805 z" /><path
       id="path55"
       style="fill:#081515;fill-opacity:1;stroke:none;stroke-width:5.61101;stroke-dasharray:none;stroke-opacity:1"
       d="m 49.834547,27.735044 a 15.165634,14.096555 1.554111 0 0 -14.831609,14.344798 15.165634,14.096555 1.554111 0 0 0.147034,1.690716 15.165634,14.096555 1.554111 0 1 1.628905,-0.107289 15.165634,14.096555 1.554111 0 1 11.700965,4.852693 15.165634,14.096555 1.554111 0 1 11.47052,-5.240786 15.165634,14.096555 1.554111 0 1 5.201338,0.763221 15.165634,14.096555 1.554111 0 0 0.17217,-2.469768 15.165634,14.096555 1.554111 0 0 -15.489826,-13.836961 z m 15.31749,16.306689 a 15.165634,14.096555 1.554111 0 1 -13.030114,11.771158 15.165634,14.096555 1.554111 0 1 0.147081,1.690716 15.165634,14.096555 1.554111 0 1 -3.360924,9.111705 15.165634,14.096555 1.554111 0 0 11.709206,4.85254 A 15.165634,14.096555 1.554111 0 0 75.440454,57.115512 15.165634,14.096555 1.554111 0 0 65.151985,44.041854 Z M 48.90811,66.615215 A 15.165634,14.096555 1.554111 0 1 45.119073,57.623254 15.165634,14.096555 1.554111 0 1 45.299826,55.161295 15.165634,14.096555 1.554111 0 1 35.150036,43.770713 15.165634,14.096555 1.554111 0 0 21.947593,58.011585 15.165634,14.096555 1.554111 0 0 37.445828,71.856062 15.165634,14.096555 1.554111 0 0 48.908115,66.615446 Z m -3.608298,-11.45417 a 15.165634,14.096555 1.554111 0 0 5.201332,0.763229 15.165634,14.096555 1.554111 0 0 1.62077,-0.110757 15.165634,14.096555 1.554111 0 0 -3.641741,-7.293637 15.165634,14.096555 1.554111 0 0 -3.180361,6.641805 z" /><path
       id="path1"
       style="fill:#000000;fill-opacity:0.244893;stroke-width:1.29031"
       inkscape:transform-center-x="0.28402999"
       inkscape:transform-center-y="-16.842599"
       d="M -4.6800724,102.75037 102.87601,103.83499 103.2286,-1.1173309 Z"
       sodipodi:nodetypes="cccc" /><g
       id="g43"
       transform="matrix(0.78971408,0,0,0.80732571,-135.13069,9.6951874)" /></g></svg>
