<?xml version="1.0" encoding="UTF-8" standalone="no"?>
<!-- Created with Inkscape (http://www.inkscape.org/) -->

<svg
   width="100mm"
   height="100mm"
   viewBox="0 0 100 100"
   version="1.1"
   id="svg3527"
   inkscape:version="1.4.2 (ebf0e940d0, 2025-05-08)"
   sodipodi:docname="ceramica_2.svg"
   xml:space="preserve"
   xmlns:inkscape="http://www.inkscape.org/namespaces/inkscape"
   xmlns:sodipodi="http://sodipodi.sourceforge.net/DTD/sodipodi-0.dtd"
   xmlns="http://www.w3.org/2000/svg"
   xmlns:svg="http://www.w3.org/2000/svg"><sodipodi:namedview
     id="namedview3529"
     pagecolor="#505050"
     bordercolor="#ffffff"
     borderopacity="1"
     inkscape:pageshadow="0"
     inkscape:pageopacity="0"
     inkscape:pagecheckerboard="1"
     inkscape:document-units="mm"
     showgrid="false"
     width="100mm"
     inkscape:zoom="1.2170212"
     inkscape:cx="110.51574"
     inkscape:cy="186.93183"
     inkscape:window-width="1366"
     inkscape:window-height="697"
     inkscape:window-x="0"
     inkscape:window-y="0"
     inkscape:window-maximized="1"
     inkscape:current-layer="layer1"
     inkscape:snap-global="false"
     inkscape:showpageshadow="0"
     inkscape:deskcolor="#505050" /><defs
     id="defs3524"><linearGradient
       id="linearGradient13895"
       inkscape:swatch="solid"><stop
         style="stop-color:#000000;stop-opacity:1;"
         offset="0"
         id="stop13893" /></linearGradient><filter
       style="color-interpolation-filters:sRGB;"
       inkscape:label="Clean Edges"
       id="filter14269"
       x="-0.31154084"
       y="-0.29580634"
       width="1.6230817"
       height="1.5916127"><feGaussianBlur
         stdDeviation="0.204612"
         result="blur"
         id="feGaussianBlur14263" /><feComposite
         in="SourceGraphic"
         in2="blur"
         operator="in"
         result="composite1"
         id="feComposite14265" /><feComposite
         in="composite1"
         in2="composite1"
         operator="in"
         result="composite2"
         id="feComposite14267" /></filter></defs><g
     inkscape:label="Camada 1"
     inkscape:groupmode="layer"
     id="layer1"><rect
       style="fill:#122d2d;fill-opacity:1;stroke:none;stroke-width:0.328944"
       id="rect3553"
       width="105.90756"
       height="106.43306"
       x="-3.9380946"
       y="-2.0187292"
       ry="1.1169149" /><path
       id="rect11-3"
       style="fill:#0a1919;fill-opacity:1;stroke-width:5.46028"
       d="M 0.02025263,0.04937962 100.04217,0.01193243 92.224538,9.028639 6.715002,8.6719645 Z"
       sodipodi:nodetypes="ccccc" /><path
       id="path15-5"
       style="fill:#0a1919;fill-opacity:1;stroke-width:5.46463"
       d="M -0.98784788,100.97219 100.91723,100.76077 90.618816,92.755892 7.215345,92.758692 Z"
       sodipodi:nodetypes="ccccc" /><path
       id="path16"
       style="fill-opacity:1;stroke-width:5.32556;fill:#1b4646"
       d="M -0.01767315,0.01869177 -1.3742725,101.42461 7.1509689,92.838353 6.6730694,8.6670976 Z"
       sodipodi:nodetypes="ccccc" /><path
       sodipodi:type="spiral"
       style="fill:none;fill-rule:evenodd;stroke:#0e2222;stroke-width:1.165;stroke-dasharray:none;stroke-opacity:1"
       id="path5"
       sodipodi:cx="7.3788824"
       sodipodi:cy="11.990684"
       sodipodi:expansion="1"
       sodipodi:revolution="3.0738251"
       sodipodi:radius="7.3541994"
       sodipodi:argument="-18.677364"
       sodipodi:t0="0"
       d="m 7.3788824,11.990684 c 0.3545501,0.06166 0.091804,0.508347 -0.1024849,0.589285 -0.5265122,0.219336 -1.01016,-0.312416 -1.0760862,-0.794255 -0.1179264,-0.861898 0.678541,-1.533067 1.4860258,-1.562887 1.1850164,-0.04376 2.0659182,1.047626 2.0496875,2.177796 -0.021633,1.506339 -1.4174991,2.602674 -2.8695667,2.536488 C 5.039179,14.853823 3.7250759,13.149428 3.8431692,11.375774 3.9861959,9.2276417 6.0011992,7.6945666 8.0962767,7.8656848 10.565253,8.0673416 12.31801,10.394161 12.093167,12.810563 11.833577,15.600395 9.1941786,17.573288 6.4565183,17.294253 3.3458146,16.977197 1.1524738,14.024706 1.486027,10.965835 1.8602233,7.5342431 5.1261687,5.1202327 8.5062163,5.5085426 12.25871,5.9396403 14.893554,9.5193053 14.450309,13.220502 c -0.133932,1.118359 -0.534194,2.199524 -1.155346,3.138733"
       transform="matrix(-0.71464021,-1.4747011,-1.5073602,0.66487669,95.874194,35.076311)" /><path
       sodipodi:type="spiral"
       style="fill:none;fill-rule:evenodd;stroke:#0e2222;stroke-width:1.165;stroke-dasharray:none;stroke-opacity:1"
       id="path7"
       sodipodi:cx="7.3788824"
       sodipodi:cy="11.990684"
       sodipodi:expansion="1"
       sodipodi:revolution="3.0738251"
       sodipodi:radius="7.3541994"
       sodipodi:argument="-18.677364"
       sodipodi:t0="0"
       d="m 7.3788824,11.990684 c 0.3545501,0.06166 0.091804,0.508347 -0.1024849,0.589285 -0.5265122,0.219336 -1.01016,-0.312416 -1.0760862,-0.794255 -0.1179264,-0.861898 0.678541,-1.533067 1.4860258,-1.562887 1.1850164,-0.04376 2.0659182,1.047626 2.0496875,2.177796 -0.021633,1.506339 -1.4174991,2.602674 -2.8695667,2.536488 C 5.039179,14.853823 3.7250759,13.149428 3.8431692,11.375774 3.9861959,9.2276417 6.0011992,7.6945666 8.0962767,7.8656848 10.565253,8.0673416 12.31801,10.394161 12.093167,12.810563 11.833577,15.600395 9.1941786,17.573288 6.4565183,17.294253 3.3458146,16.977197 1.1524738,14.024706 1.486027,10.965835 1.8602233,7.5342431 5.1261687,5.1202327 8.5062163,5.5085426 12.25871,5.9396403 14.893554,9.5193053 14.450309,13.220502 c -0.133932,1.118359 -0.534194,2.199524 -1.155346,3.138733"
       transform="matrix(0.71464021,-1.4747011,1.5073602,0.66487669,6.2516576,34.153951)" /><path
       sodipodi:type="spiral"
       style="fill:none;fill-rule:evenodd;stroke:#081515;stroke-width:1.165;stroke-dasharray:none;stroke-opacity:1"
       id="path9"
       sodipodi:cx="7.3788824"
       sodipodi:cy="11.990684"
       sodipodi:expansion="1"
       sodipodi:revolution="3.0738251"
       sodipodi:radius="7.3541994"
       sodipodi:argument="-18.677364"
       sodipodi:t0="0"
       d="m 7.3788824,11.990684 c 0.3545501,0.06166 0.091804,0.508347 -0.1024849,0.589285 -0.5265122,0.219336 -1.01016,-0.312416 -1.0760862,-0.794255 -0.1179264,-0.861898 0.678541,-1.533067 1.4860258,-1.562887 1.1850164,-0.04376 2.0659182,1.047626 2.0496875,2.177796 -0.021633,1.506339 -1.4174991,2.602674 -2.8695667,2.536488 C 5.039179,14.853823 3.7250759,13.149428 3.8431692,11.375774 3.9861959,9.2276417 6.0011992,7.6945666 8.0962767,7.8656848 10.565253,8.0673416 12.31801,10.394161 12.093167,12.810563 11.833577,15.600395 9.1941786,17.573288 6.4565183,17.294253 3.3458146,16.977197 1.1524738,14.024706 1.486027,10.965835 1.8602233,7.5342431 5.1261687,5.1202327 8.5062163,5.5085426 12.25871,5.9396403 14.893554,9.5193053 14.450309,13.220502 c -0.133932,1.118359 -0.534194,2.199524 -1.155346,3.138733"
       transform="matrix(-1.5159614,0.6223464,0.57066374,1.5454898,56.72699,2.8567455)" /><path
       id="path17"
       style="fill-opacity:1;stroke-width:5.32556;fill:#1b4646"
       d="M 99.990414,0.02610638 100.34972,100.33624 90.610584,92.783457 92.204368,9.097261 Z"
       sodipodi:nodetypes="ccccc" /><g
       id="g43"
       transform="matrix(0.78971408,0,0,0.80732571,-135.47554,10.237019)" /><path
       sodipodi:type="spiral"
       style="fill:none;fill-rule:evenodd;stroke:#0e2222;stroke-width:1.165;stroke-dasharray:none;stroke-opacity:1"
       id="path6"
       sodipodi:cx="7.3788824"
       sodipodi:cy="11.990684"
       sodipodi:expansion="1"
       sodipodi:revolution="3.0738251"
       sodipodi:radius="7.3541994"
       sodipodi:argument="-18.677364"
       sodipodi:t0="0"
       d="m 7.3788824,11.990684 c 0.3545501,0.06166 0.091804,0.508347 -0.1024849,0.589285 -0.5265122,0.219336 -1.01016,-0.312416 -1.0760862,-0.794255 -0.1179264,-0.861898 0.678541,-1.533067 1.4860258,-1.562887 1.1850164,-0.04376 2.0659182,1.047626 2.0496875,2.177796 -0.021633,1.506339 -1.4174991,2.602674 -2.8695667,2.536488 C 5.039179,14.853823 3.7250759,13.149428 3.8431692,11.375774 3.9861959,9.2276417 6.0011992,7.6945666 8.0962767,7.8656848 10.565253,8.0673416 12.31801,10.394161 12.093167,12.810563 11.833577,15.600395 9.1941786,17.573288 6.4565183,17.294253 3.3458146,16.977197 1.1524738,14.024706 1.486027,10.965835 1.8602233,7.5342431 5.1261687,5.1202327 8.5062163,5.5085426 12.25871,5.9396403 14.893554,9.5193053 14.450309,13.220502 c -0.133932,1.118359 -0.534194,2.199524 -1.155346,3.138733"
       transform="matrix(-0.71464021,1.4747011,-1.5073602,-0.66487669,92.492206,66.686483)" /><path
       sodipodi:type="spiral"
       style="fill:none;fill-rule:evenodd;stroke:#0e2222;stroke-width:1.165;stroke-dasharray:none;stroke-opacity:1"
       id="path8"
       sodipodi:cx="7.3788824"
       sodipodi:cy="11.990684"
       sodipodi:expansion="1"
       sodipodi:revolution="3.0738251"
       sodipodi:radius="7.3541994"
       sodipodi:argument="-18.677364"
       sodipodi:t0="0"
       d="m 7.3788824,11.990684 c 0.3545501,0.06166 0.091804,0.508347 -0.1024849,0.589285 -0.5265122,0.219336 -1.01016,-0.312416 -1.0760862,-0.794255 -0.1179264,-0.861898 0.678541,-1.533067 1.4860258,-1.562887 1.1850164,-0.04376 2.0659182,1.047626 2.0496875,2.177796 -0.021633,1.506339 -1.4174991,2.602674 -2.8695667,2.536488 C 5.039179,14.853823 3.7250759,13.149428 3.8431692,11.375774 3.9861959,9.2276417 6.0011992,7.6945666 8.0962767,7.8656848 10.565253,8.0673416 12.31801,10.394161 12.093167,12.810563 11.833577,15.600395 9.1941786,17.573288 6.4565183,17.294253 3.3458146,16.977197 1.1524738,14.024706 1.486027,10.965835 1.8602233,7.5342431 5.1261687,5.1202327 8.5062163,5.5085426 12.25871,5.9396403 14.893554,9.5193053 14.450309,13.220502 c -0.133932,1.118359 -0.534194,2.199524 -1.155346,3.138733"
       transform="matrix(0.71464021,1.4747011,1.5073602,-0.66487669,4.1852232,65.849863)" /><path
       sodipodi:type="spiral"
       style="fill:none;fill-rule:evenodd;stroke:#081515;stroke-width:1.165;stroke-dasharray:none;stroke-opacity:1"
       id="path2"
       sodipodi:cx="7.3788824"
       sodipodi:cy="11.990684"
       sodipodi:expansion="1"
       sodipodi:revolution="3.0738251"
       sodipodi:radius="7.3541994"
       sodipodi:argument="-18.677364"
       sodipodi:t0="0"
       d="m 7.3788824,11.990684 c 0.3545501,0.06166 0.091804,0.508347 -0.1024849,0.589285 -0.5265122,0.219336 -1.01016,-0.312416 -1.0760862,-0.794255 -0.1179264,-0.861898 0.678541,-1.533067 1.4860258,-1.562887 1.1850164,-0.04376 2.0659182,1.047626 2.0496875,2.177796 -0.021633,1.506339 -1.4174991,2.602674 -2.8695667,2.536488 C 5.039179,14.853823 3.7250759,13.149428 3.8431692,11.375774 3.9861959,9.2276417 6.0011992,7.6945666 8.0962767,7.8656848 10.565253,8.0673416 12.31801,10.394161 12.093167,12.810563 11.833577,15.600395 9.1941786,17.573288 6.4565183,17.294253 3.3458146,16.977197 1.1524738,14.024706 1.486027,10.965835 1.8602233,7.5342431 5.1261687,5.1202327 8.5062163,5.5085426 12.25871,5.9396403 14.893554,9.5193053 14.450309,13.220502 c -0.133932,1.118359 -0.534194,2.199524 -1.155346,3.138733"
       transform="matrix(1.5159614,-0.6223464,-0.57066374,-1.5454898,43.583865,94.513451)" /><path
       sodipodi:type="spiral"
       style="fill:none;fill-rule:evenodd;stroke:#081515;stroke-width:1.165;stroke-dasharray:none;stroke-opacity:1"
       id="path3"
       sodipodi:cx="7.3788824"
       sodipodi:cy="11.990684"
       sodipodi:expansion="1"
       sodipodi:revolution="3.0738251"
       sodipodi:radius="7.3541994"
       sodipodi:argument="-18.677364"
       sodipodi:t0="0"
       d="m 7.3788824,11.990684 c 0.3545501,0.06166 0.091804,0.508347 -0.1024849,0.589285 -0.5265122,0.219336 -1.01016,-0.312416 -1.0760862,-0.794255 -0.1179264,-0.861898 0.678541,-1.533067 1.4860258,-1.562887 1.1850164,-0.04376 2.0659182,1.047626 2.0496875,2.177796 -0.021633,1.506339 -1.4174991,2.602674 -2.8695667,2.536488 C 5.039179,14.853823 3.7250759,13.149428 3.8431692,11.375774 3.9861959,9.2276417 6.0011992,7.6945666 8.0962767,7.8656848 10.565253,8.0673416 12.31801,10.394161 12.093167,12.810563 11.833577,15.600395 9.1941786,17.573288 6.4565183,17.294253 3.3458146,16.977197 1.1524738,14.024706 1.486027,10.965835 1.8602233,7.5342431 5.1261687,5.1202327 8.5062163,5.5085426 12.25871,5.9396403 14.893554,9.5193053 14.450309,13.220502 c -0.133932,1.118359 -0.534194,2.199524 -1.155346,3.138733"
       transform="matrix(-1.0127913,-1.2882965,-1.33082,0.97114058,101.01862,50.628321)" /><path
       sodipodi:type="spiral"
       style="fill:none;fill-rule:evenodd;stroke:#081515;stroke-width:1.165;stroke-dasharray:none;stroke-opacity:1"
       id="path4"
       sodipodi:cx="7.3788824"
       sodipodi:cy="11.990684"
       sodipodi:expansion="1"
       sodipodi:revolution="3.0738251"
       sodipodi:radius="7.3541994"
       sodipodi:argument="-18.677364"
       sodipodi:t0="0"
       d="m 7.3788824,11.990684 c 0.3545501,0.06166 0.091804,0.508347 -0.1024849,0.589285 -0.5265122,0.219336 -1.01016,-0.312416 -1.0760862,-0.794255 -0.1179264,-0.861898 0.678541,-1.533067 1.4860258,-1.562887 1.1850164,-0.04376 2.0659182,1.047626 2.0496875,2.177796 -0.021633,1.506339 -1.4174991,2.602674 -2.8695667,2.536488 C 5.039179,14.853823 3.7250759,13.149428 3.8431692,11.375774 3.9861959,9.2276417 6.0011992,7.6945666 8.0962767,7.8656848 10.565253,8.0673416 12.31801,10.394161 12.093167,12.810563 11.833577,15.600395 9.1941786,17.573288 6.4565183,17.294253 3.3458146,16.977197 1.1524738,14.024706 1.486027,10.965835 1.8602233,7.5342431 5.1261687,5.1202327 8.5062163,5.5085426 12.25871,5.9396403 14.893554,9.5193053 14.450309,13.220502 c -0.133932,1.118359 -0.534194,2.199524 -1.155346,3.138733"
       transform="matrix(1.108782,1.2066717,1.2522696,-1.0705217,-2.1573303,52.262441)" /><path
       id="path18"
       style="fill:#081515;fill-opacity:1;stroke:none;stroke-width:2.04058"
       d="m 66.771263,48.996976 c 0,5.84018 -7.846143,13.309383 -17.524829,13.309383 -9.678705,0 -17.524848,-7.469203 -17.524848,-13.309383 0,-5.840175 8.203802,-13.67402 17.882488,-13.67402 9.678705,0 17.167189,7.833845 17.167189,13.67402 z"
       sodipodi:nodetypes="sssss" /><path
       id="path19"
       style="fill:#122d2d;fill-opacity:1;stroke:none;stroke-width:1.63829;stroke-opacity:1"
       d="m 62.935679,48.835826 c 0,4.845315 -6.095877,11.042151 -13.615474,11.042151 -7.519635,0 -13.615492,-6.196836 -13.615492,-11.042151 0,-4.84531 6.37372,-11.344671 13.893336,-11.344671 7.519635,0 13.33763,6.499361 13.33763,11.344671 z"
       sodipodi:nodetypes="sssss" /><path
       id="path20"
       style="fill:#081515;fill-opacity:1;stroke:none;stroke-width:1.41169"
       d="m 59.048691,49.01321 c 0,5.084912 -4.312903,11.588173 -9.633149,11.588173 -5.320226,0 -9.633131,-6.503261 -9.633131,-11.588173 0,-5.084905 4.509494,-11.905653 9.829739,-11.905653 5.320226,0 9.436541,6.820748 9.436541,11.905653 z"
       sodipodi:nodetypes="sssss" /><path
       id="path10"
       style="fill:#122d2d;fill-opacity:1;stroke:none;stroke-width:0.667959"
       d="m 51.04651,44.496543 c 0,1.876993 -2.615836,4.277542 -5.842638,4.277542 -3.226791,0 -5.842627,-2.400549 -5.842627,-4.277542 0,-1.876991 2.735071,-4.394733 5.961871,-4.394733 3.226792,0 5.723394,2.517742 5.723394,4.394733 z"
       sodipodi:nodetypes="sssss" /><path
       id="path1"
       style="fill:#000000;fill-opacity:0.348871;stroke-width:1.02289"
       inkscape:transform-center-x="-0.2222293"
       inkscape:transform-center-y="13.528197"
       d="M 92.116319,9.1739663 6.6036542,8.8814223 7.0484942,93.091031 Z"
       sodipodi:nodetypes="cccc" /><path
       sodipodi:type="spiral"
       style="fill:none;fill-rule:evenodd;stroke:#0f2626;stroke-width:1.165;stroke-dasharray:none;stroke-opacity:1"
       id="path11"
       sodipodi:cx="7.3788824"
       sodipodi:cy="11.990684"
       sodipodi:expansion="1"
       sodipodi:revolution="3.0738251"
       sodipodi:radius="7.3541994"
       sodipodi:argument="-18.677364"
       sodipodi:t0="0"
       d="m 7.3788824,11.990684 c 0.3545501,0.06166 0.091804,0.508347 -0.1024849,0.589285 -0.5265122,0.219336 -1.01016,-0.312416 -1.0760862,-0.794255 -0.1179264,-0.861898 0.678541,-1.533067 1.4860258,-1.562887 1.1850164,-0.04376 2.0659182,1.047626 2.0496875,2.177796 -0.021633,1.506339 -1.4174991,2.602674 -2.8695667,2.536488 C 5.039179,14.853823 3.7250759,13.149428 3.8431692,11.375774 3.9861959,9.2276417 6.0011992,7.6945666 8.0962767,7.8656848 10.565253,8.0673416 12.31801,10.394161 12.093167,12.810563 11.833577,15.600395 9.1941786,17.573288 6.4565183,17.294253 3.3458146,16.977197 1.1524738,14.024706 1.486027,10.965835 1.8602233,7.5342431 5.1261687,5.1202327 8.5062163,5.5085426 12.25871,5.9396403 14.893554,9.5193053 14.450309,13.220502 c -0.133932,1.118359 -0.534194,2.199524 -1.155346,3.138733"
       transform="matrix(0.30655973,-0.65628285,0.6466134,0.29588855,3.3189307,36.540074)" /><path
       sodipodi:type="spiral"
       style="fill:none;fill-rule:evenodd;stroke:#0f2626;stroke-width:1.165;stroke-dasharray:none;stroke-opacity:1"
       id="path12"
       sodipodi:cx="7.3788824"
       sodipodi:cy="11.990684"
       sodipodi:expansion="1"
       sodipodi:revolution="3.0738251"
       sodipodi:radius="7.3541994"
       sodipodi:argument="-18.677364"
       sodipodi:t0="0"
       d="m 7.3788824,11.990684 c 0.3545501,0.06166 0.091804,0.508347 -0.1024849,0.589285 -0.5265122,0.219336 -1.01016,-0.312416 -1.0760862,-0.794255 -0.1179264,-0.861898 0.678541,-1.533067 1.4860258,-1.562887 1.1850164,-0.04376 2.0659182,1.047626 2.0496875,2.177796 -0.021633,1.506339 -1.4174991,2.602674 -2.8695667,2.536488 C 5.039179,14.853823 3.7250759,13.149428 3.8431692,11.375774 3.9861959,9.2276417 6.0011992,7.6945666 8.0962767,7.8656848 10.565253,8.0673416 12.31801,10.394161 12.093167,12.810563 11.833577,15.600395 9.1941786,17.573288 6.4565183,17.294253 3.3458146,16.977197 1.1524738,14.024706 1.486027,10.965835 1.8602233,7.5342431 5.1261687,5.1202327 8.5062163,5.5085426 12.25871,5.9396403 14.893554,9.5193053 14.450309,13.220502 c -0.133932,1.118359 -0.534194,2.199524 -1.155346,3.138733"
       transform="matrix(0.68026675,0.24884371,-0.23904581,0.66971339,35.37125,5.595219)" /><path
       sodipodi:type="spiral"
       style="fill:none;fill-rule:evenodd;stroke:#0f2626;stroke-width:1.165;stroke-dasharray:none;stroke-opacity:1"
       id="path13"
       sodipodi:cx="7.3788824"
       sodipodi:cy="11.990684"
       sodipodi:expansion="1"
       sodipodi:revolution="3.0738251"
       sodipodi:radius="7.3541994"
       sodipodi:argument="-18.677364"
       sodipodi:t0="0"
       d="m 7.3788824,11.990684 c 0.3545501,0.06166 0.091804,0.508347 -0.1024849,0.589285 -0.5265122,0.219336 -1.01016,-0.312416 -1.0760862,-0.794255 -0.1179264,-0.861898 0.678541,-1.533067 1.4860258,-1.562887 1.1850164,-0.04376 2.0659182,1.047626 2.0496875,2.177796 -0.021633,1.506339 -1.4174991,2.602674 -2.8695667,2.536488 C 5.039179,14.853823 3.7250759,13.149428 3.8431692,11.375774 3.9861959,9.2276417 6.0011992,7.6945666 8.0962767,7.8656848 10.565253,8.0673416 12.31801,10.394161 12.093167,12.810563 11.833577,15.600395 9.1941786,17.573288 6.4565183,17.294253 3.3458146,16.977197 1.1524738,14.024706 1.486027,10.965835 1.8602233,7.5342431 5.1261687,5.1202327 8.5062163,5.5085426 12.25871,5.9396403 14.893554,9.5193053 14.450309,13.220502 c -0.133932,1.118359 -0.534194,2.199524 -1.155346,3.138733"
       transform="matrix(-0.68026675,0.24884371,0.23904581,0.66971339,68.360996,5.2020254)" /><path
       sodipodi:type="spiral"
       style="fill:none;fill-rule:evenodd;stroke:#0f2626;stroke-width:1.165;stroke-dasharray:none;stroke-opacity:1"
       id="path14"
       sodipodi:cx="7.3788824"
       sodipodi:cy="11.990684"
       sodipodi:expansion="1"
       sodipodi:revolution="3.0738251"
       sodipodi:radius="7.3541994"
       sodipodi:argument="-18.677364"
       sodipodi:t0="0"
       d="m 7.3788824,11.990684 c 0.3545501,0.06166 0.091804,0.508347 -0.1024849,0.589285 -0.5265122,0.219336 -1.01016,-0.312416 -1.0760862,-0.794255 -0.1179264,-0.861898 0.678541,-1.533067 1.4860258,-1.562887 1.1850164,-0.04376 2.0659182,1.047626 2.0496875,2.177796 -0.021633,1.506339 -1.4174991,2.602674 -2.8695667,2.536488 C 5.039179,14.853823 3.7250759,13.149428 3.8431692,11.375774 3.9861959,9.2276417 6.0011992,7.6945666 8.0962767,7.8656848 10.565253,8.0673416 12.31801,10.394161 12.093167,12.810563 11.833577,15.600395 9.1941786,17.573288 6.4565183,17.294253 3.3458146,16.977197 1.1524738,14.024706 1.486027,10.965835 1.8602233,7.5342431 5.1261687,5.1202327 8.5062163,5.5085426 12.25871,5.9396403 14.893554,9.5193053 14.450309,13.220502 c -0.133932,1.118359 -0.534194,2.199524 -1.155346,3.138733"
       transform="matrix(-0.30655973,-0.65628285,-0.6466134,0.29588855,96.768402,40.453317)" /><path
       sodipodi:type="spiral"
       style="fill:none;fill-rule:evenodd;stroke:#0f2626;stroke-width:1.165;stroke-dasharray:none;stroke-opacity:1"
       id="path15"
       sodipodi:cx="7.3788824"
       sodipodi:cy="11.990684"
       sodipodi:expansion="1"
       sodipodi:revolution="3.0738251"
       sodipodi:radius="7.3541994"
       sodipodi:argument="-18.677364"
       sodipodi:t0="0"
       d="m 7.3788824,11.990684 c 0.3545501,0.06166 0.091804,0.508347 -0.1024849,0.589285 -0.5265122,0.219336 -1.01016,-0.312416 -1.0760862,-0.794255 -0.1179264,-0.861898 0.678541,-1.533067 1.4860258,-1.562887 1.1850164,-0.04376 2.0659182,1.047626 2.0496875,2.177796 -0.021633,1.506339 -1.4174991,2.602674 -2.8695667,2.536488 C 5.039179,14.853823 3.7250759,13.149428 3.8431692,11.375774 3.9861959,9.2276417 6.0011992,7.6945666 8.0962767,7.8656848 10.565253,8.0673416 12.31801,10.394161 12.093167,12.810563 11.833577,15.600395 9.1941786,17.573288 6.4565183,17.294253 3.3458146,16.977197 1.1524738,14.024706 1.486027,10.965835 1.8602233,7.5342431 5.1261687,5.1202327 8.5062163,5.5085426 12.25871,5.9396403 14.893554,9.5193053 14.450309,13.220502 c -0.133932,1.118359 -0.534194,2.199524 -1.155346,3.138733"
       transform="matrix(0.68026675,-0.24884371,-0.23904581,-0.66971339,33.632031,94.757588)" /><path
       sodipodi:type="spiral"
       style="fill:none;fill-rule:evenodd;stroke:#0f2626;stroke-width:1.165;stroke-dasharray:none;stroke-opacity:1"
       id="path21"
       sodipodi:cx="7.3788824"
       sodipodi:cy="11.990684"
       sodipodi:expansion="1"
       sodipodi:revolution="3.0738251"
       sodipodi:radius="7.3541994"
       sodipodi:argument="-18.677364"
       sodipodi:t0="0"
       d="m 7.3788824,11.990684 c 0.3545501,0.06166 0.091804,0.508347 -0.1024849,0.589285 -0.5265122,0.219336 -1.01016,-0.312416 -1.0760862,-0.794255 -0.1179264,-0.861898 0.678541,-1.533067 1.4860258,-1.562887 1.1850164,-0.04376 2.0659182,1.047626 2.0496875,2.177796 -0.021633,1.506339 -1.4174991,2.602674 -2.8695667,2.536488 C 5.039179,14.853823 3.7250759,13.149428 3.8431692,11.375774 3.9861959,9.2276417 6.0011992,7.6945666 8.0962767,7.8656848 10.565253,8.0673416 12.31801,10.394161 12.093167,12.810563 11.833577,15.600395 9.1941786,17.573288 6.4565183,17.294253 3.3458146,16.977197 1.1524738,14.024706 1.486027,10.965835 1.8602233,7.5342431 5.1261687,5.1202327 8.5062163,5.5085426 12.25871,5.9396403 14.893554,9.5193053 14.450309,13.220502 c -0.133932,1.118359 -0.534194,2.199524 -1.155346,3.138733"
       transform="matrix(-0.68026675,-0.24884371,0.23904581,-0.66971339,63.360741,94.704837)" /><path
       sodipodi:type="spiral"
       style="fill:none;fill-rule:evenodd;stroke:#0f2626;stroke-width:1.165;stroke-dasharray:none;stroke-opacity:1"
       id="path22"
       sodipodi:cx="7.3788824"
       sodipodi:cy="11.990684"
       sodipodi:expansion="1"
       sodipodi:revolution="3.0738251"
       sodipodi:radius="7.3541994"
       sodipodi:argument="-18.677364"
       sodipodi:t0="0"
       d="m 7.3788824,11.990684 c 0.3545501,0.06166 0.091804,0.508347 -0.1024849,0.589285 -0.5265122,0.219336 -1.01016,-0.312416 -1.0760862,-0.794255 -0.1179264,-0.861898 0.678541,-1.533067 1.4860258,-1.562887 1.1850164,-0.04376 2.0659182,1.047626 2.0496875,2.177796 -0.021633,1.506339 -1.4174991,2.602674 -2.8695667,2.536488 C 5.039179,14.853823 3.7250759,13.149428 3.8431692,11.375774 3.9861959,9.2276417 6.0011992,7.6945666 8.0962767,7.8656848 10.565253,8.0673416 12.31801,10.394161 12.093167,12.810563 11.833577,15.600395 9.1941786,17.573288 6.4565183,17.294253 3.3458146,16.977197 1.1524738,14.024706 1.486027,10.965835 1.8602233,7.5342431 5.1261687,5.1202327 8.5062163,5.5085426 12.25871,5.9396403 14.893554,9.5193053 14.450309,13.220502 c -0.133932,1.118359 -0.534194,2.199524 -1.155346,3.138733"
       transform="matrix(0.30655973,0.65628285,0.6466134,-0.29588855,2.0145163,62.225761)" /><path
       sodipodi:type="spiral"
       style="fill:none;fill-rule:evenodd;stroke:#0f2626;stroke-width:1.165;stroke-dasharray:none;stroke-opacity:1"
       id="path23"
       sodipodi:cx="7.3788824"
       sodipodi:cy="11.990684"
       sodipodi:expansion="1"
       sodipodi:revolution="3.0738251"
       sodipodi:radius="7.3541994"
       sodipodi:argument="-18.677364"
       sodipodi:t0="0"
       d="m 7.3788824,11.990684 c 0.3545501,0.06166 0.091804,0.508347 -0.1024849,0.589285 -0.5265122,0.219336 -1.01016,-0.312416 -1.0760862,-0.794255 -0.1179264,-0.861898 0.678541,-1.533067 1.4860258,-1.562887 1.1850164,-0.04376 2.0659182,1.047626 2.0496875,2.177796 -0.021633,1.506339 -1.4174991,2.602674 -2.8695667,2.536488 C 5.039179,14.853823 3.7250759,13.149428 3.8431692,11.375774 3.9861959,9.2276417 6.0011992,7.6945666 8.0962767,7.8656848 10.565253,8.0673416 12.31801,10.394161 12.093167,12.810563 11.833577,15.600395 9.1941786,17.573288 6.4565183,17.294253 3.3458146,16.977197 1.1524738,14.024706 1.486027,10.965835 1.8602233,7.5342431 5.1261687,5.1202327 8.5062163,5.5085426 12.25871,5.9396403 14.893554,9.5193053 14.450309,13.220502 c -0.133932,1.118359 -0.534194,2.199524 -1.155346,3.138733"
       transform="matrix(-0.30655973,0.65628285,-0.6466134,-0.29588855,95.137883,65.269395)" /></g></svg>
