<?xml version="1.0" encoding="UTF-8" standalone="no"?>
<!-- Created with Inkscape (http://www.inkscape.org/) -->

<svg
   width="100mm"
   height="100mm"
   viewBox="0 0 100 100"
   version="1.1"
   id="svg3527"
   inkscape:version="1.4.2 (ebf0e940d0, 2025-05-08)"
   sodipodi:docname="helas_1.svg"
   xml:space="preserve"
   xmlns:inkscape="http://www.inkscape.org/namespaces/inkscape"
   xmlns:sodipodi="http://sodipodi.sourceforge.net/DTD/sodipodi-0.dtd"
   xmlns="http://www.w3.org/2000/svg"
   xmlns:svg="http://www.w3.org/2000/svg"><sodipodi:namedview
     id="namedview3529"
     pagecolor="#505050"
     bordercolor="#ffffff"
     borderopacity="1"
     inkscape:pageshadow="0"
     inkscape:pageopacity="0"
     inkscape:pagecheckerboard="1"
     inkscape:document-units="mm"
     showgrid="false"
     width="100mm"
     inkscape:zoom="0.70710678"
     inkscape:cx="143.54268"
     inkscape:cy="286.37825"
     inkscape:window-width="1366"
     inkscape:window-height="697"
     inkscape:window-x="0"
     inkscape:window-y="0"
     inkscape:window-maximized="1"
     inkscape:current-layer="layer1"
     inkscape:snap-global="false"
     inkscape:showpageshadow="0"
     inkscape:deskcolor="#505050" /><defs
     id="defs3524"><linearGradient
       id="linearGradient13895"
       inkscape:swatch="solid"><stop
         style="stop-color:#000000;stop-opacity:1;"
         offset="0"
         id="stop13893" /></linearGradient><filter
       style="color-interpolation-filters:sRGB;"
       inkscape:label="Clean Edges"
       id="filter14269"
       x="-0.31154084"
       y="-0.29580634"
       width="1.6230817"
       height="1.5916127"><feGaussianBlur
         stdDeviation="0.204612"
         result="blur"
         id="feGaussianBlur14263" /><feComposite
         in="SourceGraphic"
         in2="blur"
         operator="in"
         result="composite1"
         id="feComposite14265" /><feComposite
         in="composite1"
         in2="composite1"
         operator="in"
         result="composite2"
         id="feComposite14267" /></filter></defs><g
     inkscape:label="Camada 1"
     inkscape:groupmode="layer"
     id="layer1"><rect
       style="fill:#ffffff;fill-opacity:1;stroke:none;stroke-width:0.328944"
       id="rect3553"
       width="105.90756"
       height="106.43306"
       x="-3.5932462"
       y="-2.5605612"
       ry="1.1169149" /><path
       id="path1"
       style="fill:#666666;fill-opacity:1;stroke-width:0.67418"
       d="m 12.925827,15.978354 c -0.02569,0.0026 -0.04548,0.02424 -0.04548,0.05064 v 7.478614 60.706372 0.580843 c 0,0.02816 0.023,0.05064 0.05116,0.05064 H 84.227418 L 78.285661,77.265052 20.326409,77.917209 21.196123,23.77581 80.134644,23.558253 V 64.23639 l -48.335034,0.077 0.537952,-26.603544 38.173897,-0.307475 V 50.668226 C 59.234627,51.022984 45.69733,50.127101 34.478387,50.695476 l 2.110594,3.064027 h 1.828829 c 0.556014,0 1.003556,0.447542 1.003556,1.003556 v 0.06873 c 0,0.556014 -0.447542,1.003556 -1.003556,1.003556 h -1.828829 l -1.683798,2.502447 c 12.690924,0.103948 27.214312,-0.08916 39.957431,-0.08916 0.02816,0 0.05064,-0.023 0.05064,-0.05116 v -5.756755 -10e-4 -1.720825 c 0,-0.0018 1.72e-4,-0.0035 0,-0.0052 v -20.47627 c 0,-0.0836 -0.0673,-0.150895 -0.150896,-0.150895 h -0.108003 v -0.213423 c 0,-0.02816 -0.02248,-0.05116 -0.05064,-0.05116 H 24.210409 c -0.02816,0 -0.05064,0.023 -0.05064,0.05116 v 0.01033 c -0.0862,0.0471 -0.144694,0.138382 -0.144694,0.243913 v 34.160188 6.739124 0.73949 c 0,0.02816 0.023,0.05064 0.05116,0.05064 h 56.230159 c 0.06043,0.04169 0.134137,0.06615 0.213424,0.06615 h 3.651974 c 0.207672,0 0.37517,-0.166982 0.37517,-0.374655 v -55.15528 c 0,-0.139012 -0.07525,-0.259798 -0.187068,-0.324528 -3.1e-4,-0.02789 -0.02268,-0.05013 -0.05064,-0.05013 H 12.931511 c -0.0018,0 -0.004,-1.73e-4 -0.0057,0 z m 30.283939,36.713004 h 2.983797 c 0.618771,0 1.117245,0.497957 1.117245,1.116728 v 0.32091 c 0,0.618771 -0.498474,1.116728 -1.117245,1.116728 h -2.983797 c -0.618771,0 -1.116727,-0.497957 -1.116727,-1.116728 v -0.32091 c 0,-0.618771 0.497956,-1.116728 1.116727,-1.116728 z"
       sodipodi:nodetypes="ssccssccccccccccccssssccssccscsscsssscsccsscsssscsscssssssssss" /><path
       id="rect5"
       style="fill:#8d8d8d;fill-opacity:1;stroke-width:0.67418"
       d="m 11.867493,14.92002 c -0.02569,0.0026 -0.04548,0.02424 -0.04548,0.05064 v 7.478614 60.706372 0.580843 c 0,0.02816 0.023,0.05064 0.05116,0.05064 H 83.169084 L 77.227327,76.206718 19.268075,76.858875 20.137789,22.717476 79.07631,22.499919 v 40.678137 l -48.335034,0.077 0.537952,-26.603544 38.173897,-0.307475 V 49.609892 C 58.176293,49.96465 44.638996,49.068767 33.420053,49.637146 l 2.110594,3.064027 h 1.828829 c 0.556014,0 1.003556,0.447542 1.003556,1.003556 v 0.06873 c 0,0.556014 -0.447542,1.003556 -1.003556,1.003556 h -1.828829 l -1.683798,2.502447 c 12.690924,0.103948 27.214312,-0.08916 39.957431,-0.08916 0.02816,0 0.05064,-0.023 0.05064,-0.05116 v -5.756755 -0.001 -1.720825 c 0,-0.0018 1.72e-4,-0.0035 0,-0.0052 v -20.47627 c 0,-0.0836 -0.0673,-0.150895 -0.150896,-0.150895 h -0.108003 v -0.213423 c 0,-0.02816 -0.02248,-0.05116 -0.05064,-0.05116 H 23.152075 c -0.02816,0 -0.05064,0.023 -0.05064,0.05116 v 0.01033 c -0.0862,0.0471 -0.144694,0.138382 -0.144694,0.243913 v 34.160188 6.739124 0.73949 c 0,0.02816 0.023,0.05064 0.05116,0.05064 H 79.23806 c 0.06043,0.04169 0.134137,0.06615 0.213424,0.06615 h 3.651974 c 0.207672,0 0.37517,-0.166982 0.37517,-0.374655 v -55.15528 c 0,-0.139012 -0.07525,-0.259798 -0.187068,-0.324528 -3.1e-4,-0.02789 -0.02268,-0.05013 -0.05064,-0.05013 H 11.873177 c -0.0018,0 -0.004,-1.73e-4 -0.0057,0 z m 30.283939,36.713004 h 2.983797 c 0.618771,0 1.117245,0.497957 1.117245,1.116728 v 0.32091 c 0,0.618771 -0.498474,1.116728 -1.117245,1.116728 h -2.983797 c -0.618771,0 -1.116727,-0.497957 -1.116727,-1.116728 v -0.32091 c 0,-0.618771 0.497956,-1.116728 1.116727,-1.116728 z"
       sodipodi:nodetypes="ssccssccccccccccccssssccssccscsscsssscsccsscsssscsscssssssssss" /><path
       id="rect11"
       style="fill:#a6a6a6;fill-opacity:1;stroke-width:5.46028"
       d="M -0.23991515,-0.21740241 100.13721,-0.19362233 92.607818,8.4964149 7.1174978,8.2166038 Z"
       sodipodi:nodetypes="ccccc" /><path
       id="path15"
       style="fill:#a6a6a6;fill-opacity:1;stroke-width:5.46463"
       d="M -0.08574022,100.81468 100.47422,100.77625 90.927164,92.238954 7.3968586,92.389805 Z"
       sodipodi:nodetypes="ccccc" /><path
       id="path16"
       style="fill-opacity:1;stroke-width:5.32556;fill:#505050"
       d="M 0.03893758,0.09176667 -0.72197083,101.53612 7.4958172,92.296521 7.0179177,8.1252656 Z"
       sodipodi:nodetypes="ccccc" /><path
       id="path17"
       style="fill-opacity:1;stroke-width:5.32556;fill:#505050"
       d="M 99.989377,-0.07376127 100.15652,100.52461 90.955432,92.241625 92.549216,8.555429 Z"
       sodipodi:nodetypes="ccccc" /><g
       id="g43"
       transform="matrix(0.78971408,0,0,0.80732571,-135.13069,9.6951874)" /></g></svg>
