<?xml version="1.0" encoding="UTF-8" standalone="no"?>
<!-- Created with Inkscape (http://www.inkscape.org/) -->

<svg
   width="100"
   height="100"
   viewBox="0 0 26.458333 26.458333"
   version="1.1"
   id="svg1"
   inkscape:version="1.4.2 (ebf0e940d0, 2025-05-08)"
   sodipodi:docname="mirror_1.svg"
   xmlns:inkscape="http://www.inkscape.org/namespaces/inkscape"
   xmlns:sodipodi="http://sodipodi.sourceforge.net/DTD/sodipodi-0.dtd"
   xmlns="http://www.w3.org/2000/svg"
   xmlns:svg="http://www.w3.org/2000/svg">
  <sodipodi:namedview
     id="namedview1"
     pagecolor="#505050"
     bordercolor="#eeeeee"
     borderopacity="1"
     inkscape:showpageshadow="0"
     inkscape:pageopacity="0"
     inkscape:pagecheckerboard="0"
     inkscape:deskcolor="#505050"
     inkscape:document-units="px"
     inkscape:zoom="1.2472578"
     inkscape:cx="10.823745"
     inkscape:cy="95.008425"
     inkscape:window-width="1366"
     inkscape:window-height="697"
     inkscape:window-x="0"
     inkscape:window-y="0"
     inkscape:window-maximized="1"
     inkscape:current-layer="layer1" />
  <defs
     id="defs1">
    <filter
       inkscape:label="Glowing Bubble"
       inkscape:menu="Ridges"
       inkscape:menu-tooltip="Bubble effect with refraction and glow"
       x="-2.8985506"
       y="-2.8985509"
       width="6.7971012"
       height="6.7971018"
       style="color-interpolation-filters:sRGB;"
       id="filter14">
      <feGaussianBlur
         stdDeviation="1"
         result="result1"
         id="feGaussianBlur9" />
      <feGaussianBlur
         stdDeviation="10"
         result="result6"
         in="result1"
         id="feGaussianBlur10" />
      <feComposite
         operator="atop"
         in="result6"
         in2="result1"
         result="result8"
         id="feComposite10" />
      <feComposite
         operator="xor"
         result="fbSourceGraphic"
         in="result6"
         in2="result8"
         id="feComposite11" />
      <feColorMatrix
         result="fbSourceGraphicAlpha"
         in="fbSourceGraphic"
         values="0 0 0 -1 0 0 0 0 -1 0 0 0 0 -1 0 0 0 0 2 0 "
         id="feColorMatrix11" />
      <feGaussianBlur
         result="result0"
         in="fbSourceGraphicAlpha"
         stdDeviation="1"
         id="feGaussianBlur11" />
      <feSpecularLighting
         specularExponent="35"
         specularConstant="1.5"
         surfaceScale="-2"
         lighting-color="rgb(255,255,255)"
         result="result1"
         in="result0"
         id="feSpecularLighting11">
        <feDistantLight
           azimuth="230"
           elevation="60"
           id="feDistantLight11" />
      </feSpecularLighting>
      <feComposite
         operator="in"
         result="result2"
         in="result1"
         in2="fbSourceGraphicAlpha"
         id="feComposite12" />
      <feComposite
         k3="1.2"
         k2="1.1"
         operator="arithmetic"
         result="result4"
         in="fbSourceGraphic"
         in2="result2"
         id="feComposite13" />
      <feGaussianBlur
         result="result80"
         in="result4"
         stdDeviation="0.5"
         id="feGaussianBlur13" />
      <feComposite
         operator="atop"
         in="result9"
         in2="result80"
         result="result91"
         id="feComposite14" />
      <feBlend
         mode="multiply"
         in2="result91"
         id="feBlend14" />
    </filter>
  </defs>
  <g
     inkscape:label="Camada 1"
     inkscape:groupmode="layer"
     id="layer1">
    <rect
       style="fill:#ffffff;fill-opacity:0.576419;stroke:none;stroke-width:2.225;stroke-dasharray:none;stroke-opacity:1"
       id="rect1-2"
       width="26.432261"
       height="26.432261"
       x="-0.072979786"
       y="0.085318074"
       ry="0" />
    <path
       id="path4-7"
       style="fill:#b76000;fill-opacity:1;stroke:#713b00;stroke-width:0.531544;stroke-dasharray:none;stroke-opacity:1"
       d="M 0.12618857,0.22410627 V 26.233407 H 26.179425 V 0.22410627 Z M 2.0868196,2.0984603 h 1.256897 a 1.6478896,1.5129884 52.774056 0 0 -0.234757,0.81461 1.6478896,1.5129884 52.774056 0 0 -1.02214,0.01616 z m 3.762597,0 H 20.287818 a 1.5129884,1.6478896 37.225944 0 0 -0.06692,0.08943 1.5129884,1.6478896 37.225944 0 0 -0.0027,1.928231 1.5129884,1.6478896 37.225944 0 0 0.336755,2.143198 1.5129884,1.6478896 37.225944 0 0 0.749066,0.251063 1.5129884,1.6478896 37.225944 0 0 1.347022,-0.616344 1.5129884,1.6478896 37.225944 0 0 1.697271,-0.281773 V 21.110309 a 1.6478896,1.5129884 52.774056 0 0 -1.775523,-0.354507 1.6478896,1.5129884 52.774056 0 0 -1.347023,-0.615804 1.6478896,1.5129884 52.774056 0 0 -0.749066,0.250524 1.6478896,1.5129884 52.774056 0 0 -0.336755,2.143197 1.6478896,1.5129884 52.774056 0 0 -0.06476,1.825328 H 5.9713826 a 1.5129884,1.6478896 37.225944 0 0 0.101999,-0.131459 1.5129884,1.6478896 37.225944 0 0 0.0022,-1.928231 1.5129884,1.6478896 37.225944 0 0 -0.33622,-2.143197 1.5129884,1.6478896 37.225944 0 0 -0.749605,-0.251064 1.5129884,1.6478896 37.225944 0 0 -1.346483,0.616346 1.5129884,1.6478896 37.225944 0 0 -1.556416,0.171326 V 5.8213093 a 1.6478896,1.5129884 52.774056 0 0 1.399911,0.07273 1.6478896,1.5129884 52.774056 0 0 1.346483,0.616344 1.6478896,1.5129884 52.774056 0 0 0.749065,-0.251063 1.6478896,1.5129884 52.774056 0 0 0.336756,-2.143198 1.6478896,1.5129884 52.774056 0 0 -0.0027,-1.928231 1.6478896,1.5129884 52.774056 0 0 -0.06692,-0.08943 z m 16.9446424,0 h 1.554257 v 0.989168 a 1.5129884,1.6478896 37.225944 0 0 -0.007,-0.0048 1.5129884,1.6478896 37.225944 0 0 -1.31252,-0.169712 1.5129884,1.6478896 37.225944 0 0 -0.234757,-0.814609 z M 2.0868196,23.414601 a 1.5129884,1.6478896 37.225944 0 0 1.178645,0.08781 1.5129884,1.6478896 37.225944 0 0 0.262821,0.856633 h -1.441466 z m 22.2614964,0.08836 v 0.856094 h -1.528892 a 1.6478896,1.5129884 52.774056 0 0 0.130601,-0.622271 1.6478896,1.5129884 52.774056 0 0 1.313022,-0.16971 1.6478896,1.5129884 52.774056 0 0 0.08527,-0.06412 z" />
    <path
       id="path34"
       style="fill:#da7200;fill-opacity:1;stroke:#3e2100;stroke-width:0.318648;stroke-dasharray:none;stroke-opacity:1"
       d="M 1.9957769,12.575312 12.737478,24.258955 24.384837,14.257202 13.643136,2.5735587 Z m 1.6506182,0.0893 0.5619075,-0.482517 a 1.0100269,0.88710286 16.606225 0 0 0.2314795,0.456053 1.0100269,0.88710286 16.606225 0 0 -0.4502842,0.399654 z m 1.6821055,-1.44445 6.4548324,-5.5428551 a 0.98295452,0.91153532 68.289482 0 0 0.007,0.065861 0.98295452,0.91153532 68.289482 0 0 0.795157,0.8672047 0.98295452,0.91153532 68.289482 0 0 1.035677,0.8334673 0.98295452,0.91153532 68.289482 0 0 0.438566,-0.1747834 0.98295452,0.91153532 68.289482 0 0 0.347653,-0.7939858 0.98295452,0.91153532 68.289482 0 0 0.642411,-0.778152 l 6.400608,6.9618803 a 1.0100269,0.88710286 16.606225 0 0 -0.940174,0.522369 1.0100269,0.88710286 16.606225 0 0 -0.856524,0.240493 1.0100269,0.88710286 16.606225 0 0 -0.231412,0.400101 1.0100269,0.88710286 16.606225 0 0 0.734579,1.092025 1.0100269,0.88710286 16.606225 0 0 0.724897,0.844819 l -6.305262,5.414419 a 0.98295452,0.91153532 68.289482 0 0 -0.0087,-0.09821 0.98295452,0.91153532 68.289482 0 0 -0.795317,-0.867068 0.98295452,0.91153532 68.289482 0 0 -1.035464,-0.833653 0.98295452,0.91153532 68.289482 0 0 -0.438805,0.17499 0.98295452,0.91153532 68.289482 0 0 -0.347411,0.793779 0.98295452,0.91153532 68.289482 0 0 -0.625054,0.674465 L 5.1839491,14.33692 A 1.0100269,0.88710286 16.606225 0 0 5.839828,13.832168 1.0100269,0.88710286 16.606225 0 0 6.6963339,13.592125 1.0100269,0.88710286 16.606225 0 0 6.9275231,13.191781 1.0100269,0.88710286 16.606225 0 0 6.1929442,12.099755 1.0100269,0.88710286 16.606225 0 0 5.3954025,11.234598 1.0100269,0.88710286 16.606225 0 0 5.3285495,11.22011 Z m 7.5752724,-6.5049934 0.694845,-0.5966738 0.408521,0.4443443 a 0.98295452,0.91153532 68.289482 0 0 -0.0051,5.033e-4 0.98295452,0.91153532 68.289482 0 0 -0.656893,0.4276659 0.98295452,0.91153532 68.289482 0 0 -0.44138,-0.2758078 z M 12.449845,22.240038 a 0.98295452,0.91153532 68.289482 0 0 0.563188,-0.413035 0.98295452,0.91153532 68.289482 0 0 0.471281,0.283913 l -0.644421,0.553374 z m 9.988713,-8.506427 0.353561,0.384565 -0.683506,0.586938 a 1.0100269,0.88710286 16.606225 0 0 -0.198603,-0.329673 1.0100269,0.88710286 16.606225 0 0 0.516911,-0.5803 1.0100269,0.88710286 16.606225 0 0 0.01164,-0.06154 z" />
    <path
       id="path35"
       style="fill:#ff8a0b;fill-opacity:1;stroke:#3e2100;stroke-width:0.241028;stroke-dasharray:none;stroke-opacity:1"
       d="M 7.1809301,7.8080145 V 19.257834 H 19.349685 V 7.8080145 Z m 0.9157571,0.8251283 h 0.5870622 a 0.74894341,0.68449299 33.052381 0 0 -0.1096496,0.3586081 0.74894341,0.68449299 33.052381 0 0 -0.4774135,0.0071 z m 1.7574062,0 h 6.7437816 a 0.68449299,0.74894341 56.947619 0 0 -0.03125,0.039369 0.68449299,0.74894341 56.947619 0 0 -0.0013,0.8488465 0.68449299,0.74894341 56.947619 0 0 0.157288,0.9434807 0.68449299,0.74894341 56.947619 0 0 0.349869,0.110521 0.68449299,0.74894341 56.947619 0 0 0.629157,-0.271327 0.68449299,0.74894341 56.947619 0 0 0.792747,-0.12404 v 6.822552 a 0.74894341,0.68449299 33.052381 0 0 -0.829296,-0.156061 0.74894341,0.68449299 33.052381 0 0 -0.629158,-0.27109 0.74894341,0.68449299 33.052381 0 0 -0.34987,0.110288 0.74894341,0.68449299 33.052381 0 0 -0.157287,0.94348 0.74894341,0.68449299 33.052381 0 0 -0.03024,0.803548 H 9.9110605 a 0.68449299,0.74894341 56.947619 0 0 0.047649,-0.05786 0.68449299,0.74894341 56.947619 0 0 0.001,-0.848845 0.68449299,0.74894341 56.947619 0 0 -0.1570361,-0.943479 0.68449299,0.74894341 56.947619 0 0 -0.35012,-0.110521 0.68449299,0.74894341 56.947619 0 0 -0.6289052,0.271328 0.68449299,0.74894341 56.947619 0 0 -0.7269595,0.07542 v -6.546714 a 0.74894341,0.68449299 33.052381 0 0 0.6538602,0.03201 0.74894341,0.68449299 33.052381 0 0 0.6289056,0.271327 0.74894341,0.68449299 33.052381 0 0 0.3498675,-0.110521 0.74894341,0.68449299 33.052381 0 0 0.1572893,-0.9434792 0.74894341,0.68449299 33.052381 0 0 -0.0013,-0.8488471 0.74894341,0.68449299 33.052381 0 0 -0.031265,-0.039369 z m 7.9143776,0 h 0.72595 v 0.4354515 a 0.68449299,0.74894341 56.947619 0 0 -0.0032,-0.00209 A 0.68449299,0.74894341 56.947619 0 0 17.87818,8.9917923 0.68449299,0.74894341 56.947619 0 0 17.768524,8.6331606 Z M 8.0966872,18.016937 A 0.68449299,0.74894341 56.947619 0 0 8.6472,18.055598 0.68449299,0.74894341 56.947619 0 0 8.7699566,18.432706 H 8.0966872 Z m 10.3977338,0.03889 v 0.376871 H 17.78032 a 0.74894341,0.68449299 33.052381 0 0 0.06099,-0.273936 0.74894341,0.68449299 33.052381 0 0 0.613278,-0.0747 0.74894341,0.68449299 33.052381 0 0 0.03983,-0.02823 z" />
    <path
       id="path36"
       style="fill:#dd9900;fill-opacity:1;stroke:#3e2100;stroke-width:0.181027;stroke-dasharray:none;stroke-opacity:1"
       d="m 6.6969389,13.124775 6.0867731,6.654724 6.599963,-5.69676 -6.086773,-6.6547246 z m 0.935321,0.05086 0.3184043,-0.27483 a 0.57258069,0.50505198 17.254125 0 0 0.1311676,0.259757 0.57258069,0.50505198 17.254125 0 0 -0.2551531,0.227633 z M 8.5854231,12.352914 12.243047,9.1958354 a 0.55949504,0.5168643 69.572601 0 0 0.004,0.037513 0.55949504,0.5168643 69.572601 0 0 0.450575,0.4939391 0.55949504,0.5168643 69.572601 0 0 0.586865,0.4747235 0.55949504,0.5168643 69.572601 0 0 0.248513,-0.09955 0.55949504,0.5168643 69.572601 0 0 0.196998,-0.4522358 0.55949504,0.5168643 69.572601 0 0 0.364021,-0.4432169 l 3.626898,3.9653207 a 0.57258069,0.50505198 17.254125 0 0 -0.532749,0.29753 0.57258069,0.50505198 17.254125 0 0 -0.485348,0.136979 0.57258069,0.50505198 17.254125 0 0 -0.13113,0.227888 0.57258069,0.50505198 17.254125 0 0 0.416249,0.621991 0.57258069,0.50505198 17.254125 0 0 0.410762,0.481189 l -3.57287,3.083924 a 0.55949504,0.5168643 69.572601 0 0 -0.0049,-0.05594 0.55949504,0.5168643 69.572601 0 0 -0.450665,-0.493861 0.55949504,0.5168643 69.572601 0 0 -0.586745,-0.474829 0.55949504,0.5168643 69.572601 0 0 -0.248648,0.09967 0.55949504,0.5168643 69.572601 0 0 -0.196861,0.452118 0.55949504,0.5168643 69.572601 0 0 -0.354186,0.384159 l -3.4802828,-3.805 A 0.57258069,0.50505198 17.254125 0 0 8.8751662,13.84065 0.57258069,0.50505198 17.254125 0 0 9.3605044,13.703927 0.57258069,0.50505198 17.254125 0 0 9.4915075,13.475901 0.57258069,0.50505198 17.254125 0 0 9.0752591,12.853909 0.57258069,0.50505198 17.254125 0 0 8.623333,12.361136 a 0.57258069,0.50505198 17.254125 0 0 -0.037882,-0.0083 z m 4.2925199,-3.7050896 0.393733,-0.3398512 0.231488,0.2530879 a 0.55949504,0.5168643 69.572601 0 0 -0.0029,2.867e-4 0.55949504,0.5168643 69.572601 0 0 -0.372228,0.2435883 0.55949504,0.5168643 69.572601 0 0 -0.250107,-0.1570935 z m -0.257218,9.9817476 a 0.55949504,0.5168643 69.572601 0 0 0.31913,-0.235255 0.55949504,0.5168643 69.572601 0 0 0.267051,0.161711 l -0.365161,0.315188 z m 5.660093,-4.845058 0.200345,0.219039 -0.387308,0.334306 a 0.57258069,0.50505198 17.254125 0 0 -0.112538,-0.187774 0.57258069,0.50505198 17.254125 0 0 0.292907,-0.330525 0.57258069,0.50505198 17.254125 0 0 0.0066,-0.03505 z" />
    <path
       id="path37"
       style="fill:#ffb819;fill-opacity:1;stroke:#3e2100;stroke-width:0.133815;stroke-dasharray:none;stroke-opacity:1"
       d="m 9.7481564,10.379407 v 6.457034 h 6.6509686 v -6.457034 z m 0.5005176,0.465325 h 0.320865 a 0.41423667,0.38145435 43.235768 0 0 -0.05993,0.202234 0.41423667,0.38145435 43.235768 0 0 -0.260936,0.004 z m 0.96053,0 h 3.685889 a 0.38145435,0.41423667 46.764232 0 0 -0.01708,0.0222 0.38145435,0.41423667 46.764232 0 0 -7.1e-4,0.478699 0.38145435,0.41423667 46.764232 0 0 0.08597,0.532069 0.38145435,0.41423667 46.764232 0 0 0.191224,0.06232 0.38145435,0.41423667 46.764232 0 0 0.343873,-0.153012 0.38145435,0.41423667 46.764232 0 0 0.433284,-0.06995 v 3.847523 a 0.41423667,0.38145435 43.235768 0 0 -0.45326,-0.08801 0.41423667,0.38145435 43.235768 0 0 -0.343874,-0.15288 0.41423667,0.38145435 43.235768 0 0 -0.191225,0.0622 0.41423667,0.38145435 43.235768 0 0 -0.08597,0.532068 0.41423667,0.38145435 43.235768 0 0 -0.01653,0.453155 h -3.600458 a 0.38145435,0.41423667 46.764232 0 0 0.02604,-0.03263 0.38145435,0.41423667 46.764232 0 0 5.47e-4,-0.478699 0.38145435,0.41423667 46.764232 0 0 -0.08583,-0.532068 0.38145435,0.41423667 46.764232 0 0 -0.191363,-0.06232 0.38145435,0.41423667 46.764232 0 0 -0.343734,0.153013 0.38145435,0.41423667 46.764232 0 0 -0.397328,0.04253 v -3.691967 a 0.41423667,0.38145435 43.235768 0 0 0.357375,0.01805 0.41423667,0.38145435 43.235768 0 0 0.343734,0.153013 0.41423667,0.38145435 43.235768 0 0 0.191225,-0.06232 0.41423667,0.38145435 43.235768 0 0 0.08597,-0.532067 0.41423667,0.38145435 43.235768 0 0 -7.11e-4,-0.478701 0.41423667,0.38145435 43.235768 0 0 -0.01709,-0.0222 z m 4.325691,0 h 0.396775 v 0.245569 a 0.38145435,0.41423667 46.764232 0 0 -0.0017,-0.0011 0.38145435,0.41423667 46.764232 0 0 -0.335063,-0.04213 0.38145435,0.41423667 46.764232 0 0 -0.05994,-0.202247 z m -5.286221,5.291915 a 0.38145435,0.41423667 46.764232 0 0 0.300889,0.0218 0.38145435,0.41423667 46.764232 0 0 0.06709,0.212668 h -0.367979 z m 5.682996,0.02193 v 0.212533 h -0.3903 a 0.41423667,0.38145435 43.235768 0 0 0.03334,-0.154484 0.41423667,0.38145435 43.235768 0 0 0.335193,-0.04212 0.41423667,0.38145435 43.235768 0 0 0.02177,-0.01592 z" />
  </g>
</svg>
