<?xml version="1.0" encoding="UTF-8" standalone="no"?>
<!-- Created with Inkscape (http://www.inkscape.org/) -->

<svg
   width="100"
   height="100"
   viewBox="0 0 26.458333 26.458333"
   version="1.1"
   id="svg1"
   inkscape:version="1.4.2 (ebf0e940d0, 2025-05-08)"
   sodipodi:docname="mirror_2.svg"
   xmlns:inkscape="http://www.inkscape.org/namespaces/inkscape"
   xmlns:sodipodi="http://sodipodi.sourceforge.net/DTD/sodipodi-0.dtd"
   xmlns:xlink="http://www.w3.org/1999/xlink"
   xmlns="http://www.w3.org/2000/svg"
   xmlns:svg="http://www.w3.org/2000/svg">
  <sodipodi:namedview
     id="namedview1"
     pagecolor="#505050"
     bordercolor="#eeeeee"
     borderopacity="1"
     inkscape:showpageshadow="0"
     inkscape:pageopacity="0"
     inkscape:pagecheckerboard="0"
     inkscape:deskcolor="#505050"
     inkscape:document-units="px"
     inkscape:zoom="2.4945156"
     inkscape:cx="49.10773"
     inkscape:cy="75.966652"
     inkscape:window-width="1366"
     inkscape:window-height="697"
     inkscape:window-x="0"
     inkscape:window-y="0"
     inkscape:window-maximized="1"
     inkscape:current-layer="layer1" />
  <defs
     id="defs1">
    <pattern
       inkscape:collect="always"
       xlink:href="#pattern6-7"
       preserveAspectRatio="xMidYMid"
       id="pattern17"
       patternTransform="matrix(1.7169638,0,0,1.7674245,305.09578,635.02437)" />
    <pattern
       inkscape:collect="always"
       xlink:href="#pattern6-7"
       preserveAspectRatio="xMidYMid"
       id="pattern16"
       patternTransform="matrix(1.7169638,0,0,1.7674245,305.09578,635.02437)" />
    <pattern
       patternUnits="userSpaceOnUse"
       width="29"
       height="20"
       patternTransform="translate(190,350)"
       preserveAspectRatio="xMidYMid"
       style="fill:#000000"
       id="pattern6-7"
       inkscape:label=""
       inkscape:collect="always"
       inkscape:isstock="true">
      <path
         style="fill:none;stroke:#000000;stroke-width:10;stroke-linecap:butt;stroke-dasharray:none;paint-order:stroke markers fill;stop-color:#000000"
         d="M 0,5 C 19,5 10,15 29,15"
         id="path4-2"
         sodipodi:nodetypes="cc" />
    </pattern>
    <filter
       inkscape:label="Glowing Bubble"
       inkscape:menu="Ridges"
       inkscape:menu-tooltip="Bubble effect with refraction and glow"
       x="-2.8985506"
       y="-2.8985509"
       width="6.7971012"
       height="6.7971018"
       style="color-interpolation-filters:sRGB;"
       id="filter14">
      <feGaussianBlur
         stdDeviation="1"
         result="result1"
         id="feGaussianBlur9" />
      <feGaussianBlur
         stdDeviation="10"
         result="result6"
         in="result1"
         id="feGaussianBlur10" />
      <feComposite
         operator="atop"
         in="result6"
         in2="result1"
         result="result8"
         id="feComposite10" />
      <feComposite
         operator="xor"
         result="fbSourceGraphic"
         in="result6"
         in2="result8"
         id="feComposite11" />
      <feColorMatrix
         result="fbSourceGraphicAlpha"
         in="fbSourceGraphic"
         values="0 0 0 -1 0 0 0 0 -1 0 0 0 0 -1 0 0 0 0 2 0 "
         id="feColorMatrix11" />
      <feGaussianBlur
         result="result0"
         in="fbSourceGraphicAlpha"
         stdDeviation="1"
         id="feGaussianBlur11" />
      <feSpecularLighting
         specularExponent="35"
         specularConstant="1.5"
         surfaceScale="-2"
         lighting-color="rgb(255,255,255)"
         result="result1"
         in="result0"
         id="feSpecularLighting11">
        <feDistantLight
           azimuth="230"
           elevation="60"
           id="feDistantLight11" />
      </feSpecularLighting>
      <feComposite
         operator="in"
         result="result2"
         in="result1"
         in2="fbSourceGraphicAlpha"
         id="feComposite12" />
      <feComposite
         k3="1.2"
         k2="1.1"
         operator="arithmetic"
         result="result4"
         in="fbSourceGraphic"
         in2="result2"
         id="feComposite13" />
      <feGaussianBlur
         result="result80"
         in="result4"
         stdDeviation="0.5"
         id="feGaussianBlur13" />
      <feComposite
         operator="atop"
         in="result9"
         in2="result80"
         result="result91"
         id="feComposite14" />
      <feBlend
         mode="multiply"
         in2="result91"
         id="feBlend14" />
    </filter>
  </defs>
  <g
     inkscape:label="Camada 1"
     inkscape:groupmode="layer"
     id="layer1">
    <g
       id="g51">
      <path
         style="fill:#ffffff;fill-opacity:0.353832;stroke:none;stroke-width:0.455761;stroke-opacity:1"
         d="M 2.9088412,1.5258656 25.179413,1.5972483 V 25.29645"
         id="path1" />
      <rect
         style="fill:#ffffff;fill-opacity:0.65061116;stroke:#614100;stroke-width:2.09999789;stroke-opacity:1;stroke-dasharray:none"
         id="rect1"
         width="24.947336"
         height="24.947336"
         x="0.80133212"
         y="0.80133212"
         ry="0" />
      <path
         id="path2"
         style="fill:#614100;fill-opacity:1;stroke:#a26b00;stroke-width:0.408753;stroke-opacity:1"
         d="M 3.7492601,21.029028 A 1.4496482,1.5796407 36.682174 0 0 2.459665,21.619991 1.4496482,1.5796407 36.682174 0 0 0.557909,22.196913 1.4496482,1.5796407 36.682174 0 0 0.84076107,24.316338 1.4496482,1.5796407 36.682174 0 0 2.0980136,24.479075 1.4496482,1.5796407 36.682174 0 0 2.6878282,25.640578 1.4496482,1.5796407 36.682174 0 0 4.7865811,25.1747 1.4496482,1.5796407 36.682174 0 0 4.7889309,23.325231 1.4496482,1.5796407 36.682174 0 0 4.4666779,21.269626 1.4496482,1.5796407 36.682174 0 0 3.7492556,21.029028 Z" />
      <path
         id="path14"
         style="fill:#614100;fill-opacity:1;stroke:#a26b00;stroke-width:0.392333;stroke-opacity:1"
         d="M 5.2942087,3.5372367 A 1.557862,1.3541876 17.938941 0 0 4.7012503,2.3531695 1.557862,1.3541876 17.938941 0 0 4.1223803,0.60703481 1.557862,1.3541876 17.938941 0 0 1.9957991,0.86674104 1.557862,1.3541876 17.938941 0 0 1.8325126,2.0211122 1.557862,1.3541876 17.938941 0 0 0.66708782,2.5626621 1.557862,1.3541876 17.938941 0 0 1.1345388,4.4896734 1.557862,1.3541876 17.938941 0 0 2.9902526,4.4918311 1.557862,1.3541876 17.938941 0 0 5.0527983,4.1959481 1.557862,1.3541876 17.938941 0 0 5.2942087,3.5372327 Z" />
      <path
         id="path15"
         style="fill:#614100;fill-opacity:1;stroke:#a26b00;stroke-width:0.392333;stroke-opacity:1"
         d="m 21.018281,3.5902697 a 1.3541876,1.557862 72.061059 0 1 0.592958,-1.1840672 1.3541876,1.557862 72.061059 0 1 0.57887,-1.74613468 1.3541876,1.557862 72.061059 0 1 2.126581,0.2597062 1.3541876,1.557862 72.061059 0 1 0.163287,1.15437118 1.3541876,1.557862 72.061059 0 1 1.165425,0.5415499 1.3541876,1.557862 72.061059 0 1 -0.467451,1.9270113 1.3541876,1.557862 72.061059 0 1 -1.855714,0.00216 1.3541876,1.557862 72.061059 0 1 -2.062546,-0.295883 1.3541876,1.557862 72.061059 0 1 -0.24141,-0.6587154 z" />
      <path
         id="path16"
         style="fill:#614100;fill-opacity:1;stroke:#a26b00;stroke-width:0.408753;stroke-opacity:1"
         d="m 22.757266,20.921799 a 1.5796407,1.4496482 53.317826 0 1 1.289595,0.590963 1.5796407,1.4496482 53.317826 0 1 1.901756,0.576922 1.5796407,1.4496482 53.317826 0 1 -0.282852,2.119425 1.5796407,1.4496482 53.317826 0 1 -1.257252,0.162737 1.5796407,1.4496482 53.317826 0 1 -0.589815,1.161503 1.5796407,1.4496482 53.317826 0 1 -2.098753,-0.465878 1.5796407,1.4496482 53.317826 0 1 -0.0023,-1.849469 1.5796407,1.4496482 53.317826 0 1 0.322253,-2.055605 1.5796407,1.4496482 53.317826 0 1 0.717423,-0.240598 z" />
      <rect
         style="fill:none;fill-opacity:0.470899;stroke:#a26b00;stroke-width:0.631523;stroke-dasharray:none;stroke-opacity:1"
         id="rect12"
         width="23.546072"
         height="23.39607"
         x="1.4489301"
         y="1.5330303"
         ry="0" />
      <path
         style="fill:url(#pattern16);fill-opacity:1;stroke:#ffffff;stroke-width:1.16932;stroke-dasharray:none;stroke-opacity:1"
         d="M 3.9832496,9.532841 11.32327,3.567783"
         id="path12" />
      <path
         style="fill:url(#pattern17);fill-opacity:1;stroke:#ffffff;stroke-width:2.06017;stroke-dasharray:none;stroke-opacity:1"
         d="M 4.7716879,14.08119 17.488533,3.3938094"
         id="path13" />
    </g>
  </g>
</svg>
