<?xml version="1.0" encoding="UTF-8" standalone="no"?>
<!-- Created with Inkscape (http://www.inkscape.org/) -->

<svg
   width="100"
   height="100"
   viewBox="0 0 26.458333 26.458333"
   version="1.1"
   id="svg1"
   inkscape:version="1.4.2 (ebf0e940d0, 2025-05-08)"
   sodipodi:docname="mirror_2.svg"
   xmlns:inkscape="http://www.inkscape.org/namespaces/inkscape"
   xmlns:sodipodi="http://sodipodi.sourceforge.net/DTD/sodipodi-0.dtd"
   xmlns:xlink="http://www.w3.org/1999/xlink"
   xmlns="http://www.w3.org/2000/svg"
   xmlns:svg="http://www.w3.org/2000/svg">
  <sodipodi:namedview
     id="namedview1"
     pagecolor="#505050"
     bordercolor="#eeeeee"
     borderopacity="1"
     inkscape:showpageshadow="0"
     inkscape:pageopacity="0"
     inkscape:pagecheckerboard="0"
     inkscape:deskcolor="#505050"
     inkscape:document-units="px"
     inkscape:zoom="1.7638889"
     inkscape:cx="98.362204"
     inkscape:cy="98.929133"
     inkscape:window-width="1366"
     inkscape:window-height="697"
     inkscape:window-x="0"
     inkscape:window-y="0"
     inkscape:window-maximized="1"
     inkscape:current-layer="layer1" />
  <defs
     id="defs1">
    <pattern
       inkscape:collect="always"
       xlink:href="#pattern6-7"
       preserveAspectRatio="xMidYMid"
       id="pattern16"
       patternTransform="matrix(1.7169638,0,0,1.7674245,305.09578,635.02437)" />
    <pattern
       patternUnits="userSpaceOnUse"
       width="29"
       height="20"
       patternTransform="translate(190,350)"
       preserveAspectRatio="xMidYMid"
       style="fill:#000000"
       id="pattern6-7"
       inkscape:label=""
       inkscape:collect="always"
       inkscape:isstock="true">
      <path
         style="fill:none;stroke:#000000;stroke-width:10;stroke-linecap:butt;stroke-dasharray:none;paint-order:stroke markers fill;stop-color:#000000"
         d="M 0,5 C 19,5 10,15 29,15"
         id="path4-2"
         sodipodi:nodetypes="cc" />
    </pattern>
    <filter
       inkscape:label="Glowing Bubble"
       inkscape:menu="Ridges"
       inkscape:menu-tooltip="Bubble effect with refraction and glow"
       x="-2.8985506"
       y="-2.8985509"
       width="6.7971012"
       height="6.7971018"
       style="color-interpolation-filters:sRGB;"
       id="filter14">
      <feGaussianBlur
         stdDeviation="1"
         result="result1"
         id="feGaussianBlur9" />
      <feGaussianBlur
         stdDeviation="10"
         result="result6"
         in="result1"
         id="feGaussianBlur10" />
      <feComposite
         operator="atop"
         in="result6"
         in2="result1"
         result="result8"
         id="feComposite10" />
      <feComposite
         operator="xor"
         result="fbSourceGraphic"
         in="result6"
         in2="result8"
         id="feComposite11" />
      <feColorMatrix
         result="fbSourceGraphicAlpha"
         in="fbSourceGraphic"
         values="0 0 0 -1 0 0 0 0 -1 0 0 0 0 -1 0 0 0 0 2 0 "
         id="feColorMatrix11" />
      <feGaussianBlur
         result="result0"
         in="fbSourceGraphicAlpha"
         stdDeviation="1"
         id="feGaussianBlur11" />
      <feSpecularLighting
         specularExponent="35"
         specularConstant="1.5"
         surfaceScale="-2"
         lighting-color="rgb(255,255,255)"
         result="result1"
         in="result0"
         id="feSpecularLighting11">
        <feDistantLight
           azimuth="230"
           elevation="60"
           id="feDistantLight11" />
      </feSpecularLighting>
      <feComposite
         operator="in"
         result="result2"
         in="result1"
         in2="fbSourceGraphicAlpha"
         id="feComposite12" />
      <feComposite
         k3="1.2"
         k2="1.1"
         operator="arithmetic"
         result="result4"
         in="fbSourceGraphic"
         in2="result2"
         id="feComposite13" />
      <feGaussianBlur
         result="result80"
         in="result4"
         stdDeviation="0.5"
         id="feGaussianBlur13" />
      <feComposite
         operator="atop"
         in="result9"
         in2="result80"
         result="result91"
         id="feComposite14" />
      <feBlend
         mode="multiply"
         in2="result91"
         id="feBlend14" />
    </filter>
  </defs>
  <g
     inkscape:label="Camada 1"
     inkscape:groupmode="layer"
     id="layer1">
    <rect
       style="fill:#ffffff;fill-opacity:0.57641888;stroke:none;stroke-width:2.225;stroke-dasharray:none;stroke-opacity:1"
       id="rect1"
       width="26.432261"
       height="26.432261"
       x="0.05887001"
       y="0.05887001"
       ry="0" />
    <path
       style="fill:url(#pattern16);fill-opacity:1;stroke:#ffffff;stroke-width:1.16932;stroke-dasharray:none;stroke-opacity:1;stroke-linecap:round"
       d="M 3.9832496,9.532841 11.32327,3.567783"
       id="path12" />
    <path
       style="fill:#ffffff;fill-opacity:0.80354178;stroke:#ffffff;stroke-width:2.06004581;stroke-dasharray:none;stroke-opacity:1;stroke-linejoin:round;stroke-linecap:round"
       d="M 4.7716879,14.08119 17.488533,3.3938094"
       id="path13" />
    <path
       id="path4"
       style="fill:#b76000;fill-opacity:1;stroke:#3e2100;stroke-width:0.531544;stroke-dasharray:none;stroke-opacity:1"
       d="M 0.25803809,0.19765756 V 26.206959 H 26.311274 V 0.19765756 Z M 2.2186689,2.0720125 h 1.2568975 a 1.6478896,1.5129884 52.774056 0 0 -0.2347575,0.8146094 1.6478896,1.5129884 52.774056 0 0 -1.02214,0.016162 z m 3.7625975,0 H 20.419667 a 1.5129884,1.6478896 37.225944 0 0 -0.06692,0.089435 1.5129884,1.6478896 37.225944 0 0 -0.0027,1.9282308 1.5129884,1.6478896 37.225944 0 0 0.336755,2.143198 1.5129884,1.6478896 37.225944 0 0 0.749066,0.2510632 1.5129884,1.6478896 37.225944 0 0 1.347022,-0.616344 1.5129884,1.6478896 37.225944 0 0 1.697271,-0.2817731 V 21.083866 a 1.6478896,1.5129884 52.774056 0 0 -1.775523,-0.354507 1.6478896,1.5129884 52.774056 0 0 -1.347023,-0.615804 1.6478896,1.5129884 52.774056 0 0 -0.749066,0.250524 1.6478896,1.5129884 52.774056 0 0 -0.336755,2.143197 1.6478896,1.5129884 52.774056 0 0 -0.06476,1.825328 H 6.1032324 A 1.5129884,1.6478896 37.225944 0 0 6.2052311,24.201145 1.5129884,1.6478896 37.225944 0 0 6.2073929,22.272914 1.5129884,1.6478896 37.225944 0 0 5.8711733,20.129717 1.5129884,1.6478896 37.225944 0 0 5.1215679,19.878653 1.5129884,1.6478896 37.225944 0 0 3.7750847,20.494999 1.5129884,1.6478896 37.225944 0 0 2.2186689,20.666325 V 5.7948614 a 1.6478896,1.5129884 52.774056 0 0 1.3999107,0.072734 1.6478896,1.5129884 52.774056 0 0 1.3464833,0.616344 1.6478896,1.5129884 52.774056 0 0 0.7490656,-0.2510632 1.6478896,1.5129884 52.774056 0 0 0.3367556,-2.143198 1.6478896,1.5129884 52.774056 0 0 -0.00269,-1.9282308 1.6478896,1.5129884 52.774056 0 0 -0.06692,-0.089435 z m 16.9446416,0 h 1.554257 v 0.9891678 a 1.5129884,1.6478896 37.225944 0 0 -0.007,-0.00484 1.5129884,1.6478896 37.225944 0 0 -1.31252,-0.1697124 1.5129884,1.6478896 37.225944 0 0 -0.234757,-0.8146093 z M 2.2186689,23.388153 a 1.5129884,1.6478896 37.225944 0 0 1.1786449,0.08781 1.5129884,1.6478896 37.225944 0 0 0.2628207,0.856633 H 2.2186689 Z m 22.2614961,0.08836 v 0.856094 h -1.528892 a 1.6478896,1.5129884 52.774056 0 0 0.130601,-0.622271 1.6478896,1.5129884 52.774056 0 0 1.313022,-0.16971 1.6478896,1.5129884 52.774056 0 0 0.08527,-0.06412 z" />
    <path
       style="fill:#000000;fill-opacity:0.15654944;stroke:none;stroke-width:0.562898;stroke-opacity:1"
       d="M -0.99115874,-0.72413436 26.979413,-0.63743643 V 28.14645"
       id="path1" />
  </g>
</svg>
