<?xml version="1.0" encoding="UTF-8" standalone="no"?>
<!-- Created with Inkscape (http://www.inkscape.org/) -->

<svg
   width="100"
   height="100"
   viewBox="0 0 26.458333 26.458333"
   version="1.1"
   id="svg1"
   inkscape:version="1.4.2 (ebf0e940d0, 2025-05-08)"
   sodipodi:docname="pantano_1.svg"
   xml:space="preserve"
   xmlns:inkscape="http://www.inkscape.org/namespaces/inkscape"
   xmlns:sodipodi="http://sodipodi.sourceforge.net/DTD/sodipodi-0.dtd"
   xmlns="http://www.w3.org/2000/svg"
   xmlns:svg="http://www.w3.org/2000/svg"><sodipodi:namedview
     id="namedview1"
     pagecolor="#505050"
     bordercolor="#eeeeee"
     borderopacity="1"
     inkscape:showpageshadow="0"
     inkscape:pageopacity="0"
     inkscape:pagecheckerboard="0"
     inkscape:deskcolor="#505050"
     inkscape:document-units="px"
     inkscape:zoom="3.5277778"
     inkscape:cx="71.291338"
     inkscape:cy="42.094488"
     inkscape:window-width="1366"
     inkscape:window-height="697"
     inkscape:window-x="0"
     inkscape:window-y="0"
     inkscape:window-maximized="1"
     inkscape:current-layer="layer1" /><defs
     id="defs1"><filter
       inkscape:label="Glowing Bubble"
       inkscape:menu="Ridges"
       inkscape:menu-tooltip="Bubble effect with refraction and glow"
       x="-2.8985506"
       y="-2.8985509"
       width="6.7971012"
       height="6.7971018"
       style="color-interpolation-filters:sRGB;"
       id="filter14"><feGaussianBlur
         stdDeviation="1"
         result="result1"
         id="feGaussianBlur9" /><feGaussianBlur
         stdDeviation="10"
         result="result6"
         in="result1"
         id="feGaussianBlur10" /><feComposite
         operator="atop"
         in="result6"
         in2="result1"
         result="result8"
         id="feComposite10" /><feComposite
         operator="xor"
         result="fbSourceGraphic"
         in="result6"
         in2="result8"
         id="feComposite11" /><feColorMatrix
         result="fbSourceGraphicAlpha"
         in="fbSourceGraphic"
         values="0 0 0 -1 0 0 0 0 -1 0 0 0 0 -1 0 0 0 0 2 0 "
         id="feColorMatrix11" /><feGaussianBlur
         result="result0"
         in="fbSourceGraphicAlpha"
         stdDeviation="1"
         id="feGaussianBlur11" /><feSpecularLighting
         specularExponent="35"
         specularConstant="1.5"
         surfaceScale="-2"
         lighting-color="rgb(255,255,255)"
         result="result1"
         in="result0"
         id="feSpecularLighting11"><feDistantLight
           azimuth="230"
           elevation="60"
           id="feDistantLight11" /></feSpecularLighting><feComposite
         operator="in"
         result="result2"
         in="result1"
         in2="fbSourceGraphicAlpha"
         id="feComposite12" /><feComposite
         k3="1.2"
         k2="1.1"
         operator="arithmetic"
         result="result4"
         in="fbSourceGraphic"
         in2="result2"
         id="feComposite13" /><feGaussianBlur
         result="result80"
         in="result4"
         stdDeviation="0.5"
         id="feGaussianBlur13" /><feComposite
         operator="atop"
         in="result9"
         in2="result80"
         result="result91"
         id="feComposite14" /><feBlend
         mode="multiply"
         in2="result91"
         id="feBlend14" /></filter><linearGradient
       id="linearGradient13895"
       inkscape:swatch="solid"><stop
         style="stop-color:#000000;stop-opacity:1;"
         offset="0"
         id="stop13893" /></linearGradient><filter
       style="color-interpolation-filters:sRGB;"
       inkscape:label="Clean Edges"
       id="filter14269"
       x="-0.31154084"
       y="-0.29580634"
       width="1.6230817"
       height="1.5916127"><feGaussianBlur
         stdDeviation="0.204612"
         result="blur"
         id="feGaussianBlur14263" /><feComposite
         in="SourceGraphic"
         in2="blur"
         operator="in"
         result="composite1"
         id="feComposite14265" /><feComposite
         in="composite1"
         in2="composite1"
         operator="in"
         result="composite2"
         id="feComposite14267" /></filter><inkscape:path-effect
       effect="fillet_chamfer"
       id="path-effect68"
       is_visible="true"
       lpeversion="1"
       nodesatellites_param="F,0,0,1,0,0,0,1 @ F,0,0,1,0,0,0,1 @ F,0,0,1,0,0,0,1 @ F,0,0,1,0,0,0,1 @ F,0,0,1,0,0,0,1 @ F,0,0,1,0,0,0,1 @ F,0,0,1,0,0,0,1 @ F,0,0,1,0,0,0,1 @ F,0,0,1,0,0,0,1"
       radius="0"
       unit="px"
       method="auto"
       mode="F"
       chamfer_steps="1"
       flexible="false"
       use_knot_distance="true"
       apply_no_radius="true"
       apply_with_radius="true"
       only_selected="false"
       hide_knots="false" /><inkscape:path-effect
       effect="fillet_chamfer"
       id="path-effect66"
       is_visible="true"
       lpeversion="1"
       nodesatellites_param="F,0,0,1,0,0,0,1 @ F,0,0,1,0,0.44929322,0,1 @ F,0,0,1,0,0.44929322,0,1 @ F,0,0,1,0,0,0,1 @ F,0,0,1,0,0,0,1 @ F,0,0,1,0,0,0,1 @ F,0,0,1,0,0,0,1 @ F,0,0,1,0,0,0,1 @ F,0,0,1,0,0,0,1 @ F,0,0,1,0,0,0,1"
       radius="0"
       unit="px"
       method="auto"
       mode="F"
       chamfer_steps="1"
       flexible="false"
       use_knot_distance="true"
       apply_no_radius="true"
       apply_with_radius="true"
       only_selected="false"
       hide_knots="false" /><inkscape:path-effect
       effect="fillet_chamfer"
       id="path-effect68-7"
       is_visible="true"
       lpeversion="1"
       nodesatellites_param="F,0,0,1,0,0,0,1 @ F,0,0,1,0,0,0,1 @ F,0,0,1,0,0,0,1 @ F,0,0,1,0,0,0,1 @ F,0,0,1,0,0,0,1 @ F,0,0,1,0,0,0,1 @ F,0,0,1,0,0,0,1 @ F,0,0,1,0,0,0,1 @ F,0,0,1,0,0,0,1"
       radius="0"
       unit="px"
       method="auto"
       mode="F"
       chamfer_steps="1"
       flexible="false"
       use_knot_distance="true"
       apply_no_radius="true"
       apply_with_radius="true"
       only_selected="false"
       hide_knots="false" /><inkscape:path-effect
       effect="fillet_chamfer"
       id="path-effect66-5"
       is_visible="true"
       lpeversion="1"
       nodesatellites_param="F,0,0,1,0,0,0,1 @ F,0,0,1,0,0.44929322,0,1 @ F,0,0,1,0,0.44929322,0,1 @ F,0,0,1,0,0,0,1 @ F,0,0,1,0,0,0,1 @ F,0,0,1,0,0,0,1 @ F,0,0,1,0,0,0,1 @ F,0,0,1,0,0,0,1 @ F,0,0,1,0,0,0,1 @ F,0,0,1,0,0,0,1"
       radius="0"
       unit="px"
       method="auto"
       mode="F"
       chamfer_steps="1"
       flexible="false"
       use_knot_distance="true"
       apply_no_radius="true"
       apply_with_radius="true"
       only_selected="false"
       hide_knots="false" /><inkscape:path-effect
       effect="fillet_chamfer"
       id="path-effect68-3"
       is_visible="true"
       lpeversion="1"
       nodesatellites_param="F,0,0,1,0,0,0,1 @ F,0,0,1,0,0,0,1 @ F,0,0,1,0,0,0,1 @ F,0,0,1,0,0,0,1 @ F,0,0,1,0,0,0,1 @ F,0,0,1,0,0,0,1 @ F,0,0,1,0,0,0,1 @ F,0,0,1,0,0,0,1 @ F,0,0,1,0,0,0,1"
       radius="0"
       unit="px"
       method="auto"
       mode="F"
       chamfer_steps="1"
       flexible="false"
       use_knot_distance="true"
       apply_no_radius="true"
       apply_with_radius="true"
       only_selected="false"
       hide_knots="false" /><inkscape:path-effect
       effect="fillet_chamfer"
       id="path-effect66-6"
       is_visible="true"
       lpeversion="1"
       nodesatellites_param="F,0,0,1,0,0,0,1 @ F,0,0,1,0,0.44929322,0,1 @ F,0,0,1,0,0.44929322,0,1 @ F,0,0,1,0,0,0,1 @ F,0,0,1,0,0,0,1 @ F,0,0,1,0,0,0,1 @ F,0,0,1,0,0,0,1 @ F,0,0,1,0,0,0,1 @ F,0,0,1,0,0,0,1 @ F,0,0,1,0,0,0,1"
       radius="0"
       unit="px"
       method="auto"
       mode="F"
       chamfer_steps="1"
       flexible="false"
       use_knot_distance="true"
       apply_no_radius="true"
       apply_with_radius="true"
       only_selected="false"
       hide_knots="false" /><filter
       style="color-interpolation-filters:sRGB;"
       inkscape:label="Clean Edges"
       id="filter14269-5"
       x="-0.31154084"
       y="-0.29580634"
       width="1.6230817"
       height="1.5916127"><feGaussianBlur
         stdDeviation="0.204612"
         result="blur"
         id="feGaussianBlur14263-6" /><feComposite
         in="SourceGraphic"
         in2="blur"
         operator="in"
         result="composite1"
         id="feComposite14265-2" /><feComposite
         in="composite1"
         in2="composite1"
         operator="in"
         result="composite2"
         id="feComposite14267-9" /></filter></defs><g
     inkscape:label="Camada 1"
     inkscape:groupmode="layer"
     id="layer1"><rect
       style="fill:#12380e;fill-opacity:1;stroke:none;stroke-width:2.28824;stroke-dasharray:none;stroke-opacity:1"
       id="rect1"
       width="27.130461"
       height="27.236526"
       x="-0.29139438"
       y="-0.29022995"
       ry="0" /><ellipse
       style="fill:#042401;fill-opacity:1;stroke:#042401;stroke-width:0.746933;stroke-linecap:round;stroke-linejoin:round;stroke-opacity:1"
       id="ellipse36"
       cx="5.0581489"
       cy="22.91433"
       rx="3.7770331"
       ry="0.66453308" /><g
       id="g26"
       transform="matrix(-0.83989831,0,0,0.67033753,22.039154,6.5433225)"><path
         id="path24"
         style="fill:#33d233;stroke:#042401;stroke-width:0.717176"
         d="m 23.916373,20.076695 c 0.62396,-0.837381 -0.418233,-0.08178 -4.795945,-0.0507 -2.351158,0.01667 -3.417713,2.497682 -2.904099,3.543706 0.513613,1.046023 2.653694,1.112056 4.780003,0.147489 2.126308,-0.964567 2.219346,-2.700131 2.920041,-3.640495 z"
         sodipodi:nodetypes="sssss" /><path
         id="path25"
         style="fill:#197319;stroke-width:0.487749;stroke-linecap:round;stroke-linejoin:round"
         d="m 22.061883,21.829631 c 2.539934,-1.460607 -0.960932,-0.68556 -2.67736,-0.53016 -1.529018,0.138432 -2.934925,1.066448 -2.770175,1.719541 0.16475,0.653095 1.517778,0.916279 3.022073,0.587841 1.504296,-0.328439 1.874997,-1.460673 2.425462,-1.777222 z"
         sodipodi:nodetypes="sssss" /><path
         style="fill:none;fill-opacity:1;stroke:#042401;stroke-width:0.542553;stroke-dasharray:none;stroke-opacity:1"
         d="m 17.751272,22.541633 c 2.78019,-0.0776 4.559771,-1.196024 5.994753,-2.672893"
         id="path26"
         sodipodi:nodetypes="cc" /></g><g
       id="g24"
       transform="matrix(0.83989831,0,0,0.67033753,-8.2860168,7.541488)"><path
         id="path2"
         style="fill:#33d233;stroke:#042401;stroke-width:0.717176"
         d="m 23.916373,20.076695 c 0.62396,-0.837381 -0.418233,-0.08178 -4.795945,-0.0507 -2.351158,0.01667 -3.417713,2.497682 -2.904099,3.543706 0.513613,1.046023 2.653694,1.112056 4.780003,0.147489 2.126308,-0.964567 2.219346,-2.700131 2.920041,-3.640495 z"
         sodipodi:nodetypes="sssss" /><path
         id="path8"
         style="fill:#197319;stroke-width:0.487749;stroke-linecap:round;stroke-linejoin:round"
         d="m 22.061883,21.829631 c 2.539934,-1.460607 -0.960932,-0.68556 -2.67736,-0.53016 -1.529018,0.138432 -2.934925,1.066448 -2.770175,1.719541 0.16475,0.653095 1.517778,0.916279 3.022073,0.587841 1.504296,-0.328439 1.874997,-1.460673 2.425462,-1.777222 z"
         sodipodi:nodetypes="sssss" /><path
         style="fill:none;fill-opacity:1;stroke:#042401;stroke-width:0.542553;stroke-dasharray:none;stroke-opacity:1"
         d="m 17.751272,22.541633 c 2.78019,-0.0776 4.559771,-1.196024 5.994753,-2.672893"
         id="path9"
         sodipodi:nodetypes="cc" /></g><ellipse
       style="fill:none;fill-opacity:1;stroke:#042401;stroke-width:0.500999;stroke-linecap:round;stroke-linejoin:round;stroke-opacity:1"
       id="ellipse31"
       cx="13.812043"
       cy="18.705175"
       rx="0.39774758"
       ry="0.29168153" /><ellipse
       style="fill:none;fill-opacity:1;stroke:#042401;stroke-width:0.500999;stroke-linecap:round;stroke-linejoin:round;stroke-opacity:1"
       id="ellipse32"
       cx="9.9073572"
       cy="18.227879"
       rx="0.39774758"
       ry="0.29168153" /><ellipse
       style="fill:none;fill-opacity:1;stroke:#042401;stroke-width:0.500999;stroke-linecap:round;stroke-linejoin:round;stroke-opacity:1"
       id="ellipse33"
       cx="13.579885"
       cy="23.928524"
       rx="0.39774758"
       ry="0.29168153" /><g
       id="g12"><path
         id="path1"
         style="fill:#1e973e;stroke:#042401;stroke-width:1.11552;stroke-linecap:round;stroke-dasharray:none;stroke-opacity:1;fill-opacity:1"
         d="M 14.687942,3.6317115 A 10.630348,2.4776236 0 0 0 4.0571526,6.109296 10.630348,2.4776236 0 0 0 5.1199755,7.1892803 7.5081485,1.7930172 0 0 0 1.3071306,8.7499564 7.5081485,1.7930172 0 0 0 8.8150134,10.543341 7.5081485,1.7930172 0 0 0 15.29644,9.6551845 6.4302458,1.662616 0 0 0 17.549624,9.7607567 6.4302458,1.662616 0 0 0 23.97983,8.0981024 6.4302458,1.662616 0 0 0 23.527555,7.4857818 10.630348,2.4776236 0 0 0 25.318219,6.109296 10.630348,2.4776236 0 0 0 14.687942,3.6317115 Z" /><ellipse
         style="fill:#3ad863;fill-opacity:1;stroke:none;stroke-width:1.67717;stroke-linecap:round;stroke-dasharray:none;stroke-opacity:1"
         id="ellipse12"
         cx="11.118734"
         cy="6.1232333"
         rx="5.0779104"
         ry="1.260833" /><g
         id="g35"
         transform="matrix(-0.34356235,0,0,0.17100155,20.16401,1.8824961)"><path
           id="path33"
           style="fill:#33d233;stroke:#042401;stroke-width:0.717176"
           d="m 23.916373,20.076695 c 0.62396,-0.837381 -0.418233,-0.08178 -4.795945,-0.0507 -2.351158,0.01667 -3.417713,2.497682 -2.904099,3.543706 0.513613,1.046023 2.653694,1.112056 4.780003,0.147489 2.126308,-0.964567 2.219346,-2.700131 2.920041,-3.640495 z"
           sodipodi:nodetypes="sssss" /><path
           id="path34"
           style="fill:#197319;stroke-width:0.487749;stroke-linecap:round;stroke-linejoin:round"
           d="m 22.061883,21.829631 c 2.539934,-1.460607 -0.960932,-0.68556 -2.67736,-0.53016 -1.529018,0.138432 -2.934925,1.066448 -2.770175,1.719541 0.16475,0.653095 1.517778,0.916279 3.022073,0.587841 1.504296,-0.328439 1.874997,-1.460673 2.425462,-1.777222 z"
           sodipodi:nodetypes="sssss" /><path
           style="fill:none;fill-opacity:1;stroke:#042401;stroke-width:0.542553;stroke-dasharray:none;stroke-opacity:1"
           d="m 17.751272,22.541633 c 2.78019,-0.0776 4.559771,-1.196024 5.994753,-2.672893"
           id="path35"
           sodipodi:nodetypes="cc" /></g><g
         id="g11"
         transform="matrix(0.34356235,0,0,0.17100155,11.695731,4.2954979)"><path
           id="path7"
           style="fill:#33d233;stroke:#042401;stroke-width:0.717176"
           d="m 23.916373,20.076695 c 0.62396,-0.837381 -0.418233,-0.08178 -4.795945,-0.0507 -2.351158,0.01667 -3.417713,2.497682 -2.904099,3.543706 0.513613,1.046023 2.653694,1.112056 4.780003,0.147489 2.126308,-0.964567 2.219346,-2.700131 2.920041,-3.640495 z"
           sodipodi:nodetypes="sssss" /><path
           id="path10"
           style="fill:#197319;stroke-width:0.487749;stroke-linecap:round;stroke-linejoin:round"
           d="m 22.061883,21.829631 c 2.539934,-1.460607 -0.960932,-0.68556 -2.67736,-0.53016 -1.529018,0.138432 -2.934925,1.066448 -2.770175,1.719541 0.16475,0.653095 1.517778,0.916279 3.022073,0.587841 1.504296,-0.328439 1.874997,-1.460673 2.425462,-1.777222 z"
           sodipodi:nodetypes="sssss" /><path
           style="fill:none;fill-opacity:1;stroke:#042401;stroke-width:0.542553;stroke-dasharray:none;stroke-opacity:1"
           d="m 17.751272,22.541633 c 2.78019,-0.0776 4.559771,-1.196024 5.994753,-2.672893"
           id="path11"
           sodipodi:nodetypes="cc" /></g><ellipse
         style="fill:#3ad863;fill-opacity:1;stroke:none;stroke-width:1.6381;stroke-linecap:round;stroke-dasharray:none;stroke-opacity:1"
         id="path12"
         cx="9.4800138"
         cy="8.9506083"
         rx="5.7393851"
         ry="1.064157"
         transform="matrix(0.99801596,-0.06296147,0.03840968,0.99926208,0,0)" /></g><path
       id="path13"
       style="fill:#1e973e;fill-opacity:1;stroke:#042401;stroke-width:0.797812;stroke-linecap:round;stroke-dasharray:none;stroke-opacity:1"
       d="m 16.567127,14.122857 a 7.0188976,1.9193784 0 0 1 7.019189,1.919348 7.0188976,1.9193784 0 0 1 -0.70175,0.836648 4.9574036,1.3890239 0 0 1 2.517506,1.209033 4.9574036,1.3890239 0 0 1 -4.957228,1.389309 4.9574036,1.3890239 0 0 1 -4.27949,-0.688042 4.245697,1.2880041 0 0 1 -1.48771,0.08179 4.245697,1.2880041 0 0 1 -4.24567,-1.288034 4.245697,1.2880041 0 0 1 0.298623,-0.474355 7.0188976,1.9193784 0 0 1 -1.1823211,-1.066344 7.0188976,1.9193784 0 0 1 7.0188511,-1.919348 z" /><ellipse
       style="fill:#3ad863;fill-opacity:1;stroke:none;stroke-width:1.1995;stroke-linecap:round;stroke-dasharray:none;stroke-opacity:1"
       id="ellipse13"
       cx="-18.923767"
       cy="16.053003"
       rx="3.3527908"
       ry="0.9767487"
       transform="scale(-1,1)" /><ellipse
       style="fill:#3ad863;fill-opacity:1;stroke:none;stroke-width:1.17188;stroke-linecap:round;stroke-dasharray:none;stroke-opacity:1"
       id="ellipse19"
       cx="-20.379858"
       cy="16.280176"
       rx="3.7923703"
       ry="0.82422036"
       transform="matrix(-0.99727182,-0.07381672,-0.03274345,0.99946379,0,0)" /><ellipse
       style="fill:none;fill-opacity:1;stroke:#042401;stroke-width:0.362807;stroke-linecap:round;stroke-linejoin:round;stroke-opacity:1"
       id="ellipse20"
       cx="19.076107"
       cy="16.615379"
       rx="0.44809327"
       ry="0.13577724" /><ellipse
       style="fill:none;fill-opacity:1;stroke:#042401;stroke-width:0.362807;stroke-linecap:round;stroke-linejoin:round;stroke-opacity:1"
       id="ellipse21"
       cx="12.701107"
       cy="15.71538"
       rx="0.44809327"
       ry="0.13577724" /></g></svg>
