<?xml version="1.0" encoding="UTF-8" standalone="no"?>
<!-- Created with Inkscape (http://www.inkscape.org/) -->

<svg
   width="100mm"
   height="100mm"
   viewBox="0 0 100 100"
   version="1.1"
   id="svg3527"
   inkscape:version="1.4.2 (ebf0e940d0, 2025-05-08)"
   sodipodi:docname="temploFogo.svg"
   xml:space="preserve"
   xmlns:inkscape="http://www.inkscape.org/namespaces/inkscape"
   xmlns:sodipodi="http://sodipodi.sourceforge.net/DTD/sodipodi-0.dtd"
   xmlns="http://www.w3.org/2000/svg"
   xmlns:svg="http://www.w3.org/2000/svg"><sodipodi:namedview
     id="namedview3529"
     pagecolor="#505050"
     bordercolor="#ffffff"
     borderopacity="1"
     inkscape:pageshadow="0"
     inkscape:pageopacity="0"
     inkscape:pagecheckerboard="1"
     inkscape:document-units="mm"
     showgrid="false"
     width="100mm"
     inkscape:zoom="1.4142136"
     inkscape:cx="181.37288"
     inkscape:cy="220.26376"
     inkscape:window-width="1366"
     inkscape:window-height="697"
     inkscape:window-x="0"
     inkscape:window-y="0"
     inkscape:window-maximized="1"
     inkscape:current-layer="layer1"
     inkscape:snap-global="false"
     inkscape:showpageshadow="0"
     inkscape:deskcolor="#505050" /><defs
     id="defs3524"><linearGradient
       id="linearGradient13895"
       inkscape:swatch="solid"><stop
         style="stop-color:#000000;stop-opacity:1;"
         offset="0"
         id="stop13893" /></linearGradient><filter
       style="color-interpolation-filters:sRGB;"
       inkscape:label="Clean Edges"
       id="filter14269"
       x="-0.31154084"
       y="-0.29580634"
       width="1.6230817"
       height="1.5916127"><feGaussianBlur
         stdDeviation="0.204612"
         result="blur"
         id="feGaussianBlur14263" /><feComposite
         in="SourceGraphic"
         in2="blur"
         operator="in"
         result="composite1"
         id="feComposite14265" /><feComposite
         in="composite1"
         in2="composite1"
         operator="in"
         result="composite2"
         id="feComposite14267" /></filter></defs><g
     inkscape:label="Camada 1"
     inkscape:groupmode="layer"
     id="layer1"><rect
       style="fill:#e34a0b;fill-opacity:1;stroke:none;stroke-width:0.328944"
       id="rect3553"
       width="105.90756"
       height="106.43306"
       x="-3.5932462"
       y="-2.5605612"
       ry="1.1169149" /><path
       id="rect11"
       style="fill:#9b3308;fill-opacity:1;stroke-width:5.46028"
       d="M -0.23991515,-0.21740241 100.13721,-0.19362233 92.607818,8.4964149 7.1174978,8.2166038 Z"
       sodipodi:nodetypes="ccccc" /><path
       id="path15"
       style="fill:#9b3308;fill-opacity:1;stroke-width:5.46463"
       d="M -0.08574022,100.81468 100.47422,100.77625 90.927164,92.238954 7.3968586,92.389805 Z"
       sodipodi:nodetypes="ccccc" /><path
       id="path16"
       style="fill-opacity:1;stroke-width:5.32556;fill:#f35d1f"
       d="M 0.03893758,0.09176667 -0.72197083,101.53612 7.4958172,92.296521 7.0179177,8.1252656 Z"
       sodipodi:nodetypes="ccccc" /><path
       id="path17"
       style="fill-opacity:1;stroke-width:5.32556;fill:#f35d1f"
       d="M 99.989377,-0.07376127 100.15652,100.52461 90.955432,92.241625 92.549216,8.555429 Z"
       sodipodi:nodetypes="ccccc" /><g
       id="g43"
       transform="matrix(0.78971408,0,0,0.80732571,-135.13069,9.6951874)" /><rect
       style="fill:none;fill-opacity:1;stroke:#4a1e0c;stroke-width:3.54539;stroke-linecap:round;stroke-linejoin:round;stroke-dasharray:none;stroke-opacity:1"
       id="rect12"
       width="73.6092"
       height="72.021698"
       x="13.598526"
       y="14.127692"
       ry="6.2301121" /><path
       style="fill:#ff7234;fill-opacity:1;stroke:#4a1e0c;stroke-width:2.965;stroke-linecap:round;stroke-linejoin:round;stroke-dasharray:none;stroke-opacity:1"
       d="m 34.660415,24.209373 3.96875,0.132292 3.968751,-3.704167 -1.984376,3.704167 h 3.439584 l 3.704167,-5.556248 -1.719792,5.291664 h 1.190625 l 1.455208,-2.778125 2.645834,0.132292 -0.396875,6.217708 1.322916,-4.365625 3.571875,0.264584 3.042708,-4.101042 -1.455208,3.96875 2.910417,-3.571875 v 3.307292 l 0.529166,6.085416 1.852084,-6.482291 2.248958,-3.836456 0.793747,3.968747 1.719792,0.264584"
       id="path13" /><path
       style="fill:#ff7234;fill-opacity:1;stroke:#4a1e0c;stroke-width:2.965;stroke-linecap:round;stroke-linejoin:round;stroke-dasharray:none;stroke-opacity:1"
       d="m 34.660415,76.464745 3.96875,-0.132292 3.968751,3.704167 -1.984376,-3.704167 h 3.439584 l 3.704167,5.556248 -1.719792,-5.291664 h 1.190625 l 1.455208,2.778125 2.645834,-0.132292 -0.396875,-6.217708 1.322916,4.365625 3.571875,-0.264584 3.042708,4.101042 -1.455208,-3.96875 2.910417,3.571875 v -3.307292 l 0.529166,-6.085416 1.852084,6.482291 2.248958,3.836456 0.793747,-3.968747 1.719792,-0.264584"
       id="path14" /><path
       style="fill:#ff7234;fill-opacity:1;stroke:#4a1e0c;stroke-width:2.965;stroke-linecap:round;stroke-linejoin:round;stroke-dasharray:none;stroke-opacity:1"
       d="m 22.952519,32.477685 0.132292,3.96875 -3.704167,3.968751 3.704167,-1.984376 v 3.439584 l -5.556248,3.704167 5.291664,-1.719792 v 1.190625 l -2.778125,1.455208 0.132292,2.645834 6.217708,-0.396875 -4.365625,1.322916 0.264584,3.571875 -4.101042,3.042708 3.96875,-1.455208 -3.571875,2.910417 h 3.307292 l 6.085416,0.529166 -6.482291,1.852084 -3.836456,2.248958 3.968747,0.793747 0.264584,1.719792"
       id="path18" /><path
       style="fill:#ff7234;fill-opacity:1;stroke:#4a1e0c;stroke-width:2.965;stroke-linecap:round;stroke-linejoin:round;stroke-dasharray:none;stroke-opacity:1"
       d="m 77.324558,33.271435 -0.132292,3.96875 3.704167,3.968751 -3.704167,-1.984376 v 3.439584 l 5.556248,3.704167 -5.291664,-1.719792 v 1.190625 l 2.778125,1.455208 -0.132292,2.645834 -6.217708,-0.396875 4.365625,1.322916 -0.264584,3.571875 4.101042,3.042708 -3.96875,-1.455208 3.571875,2.910417 h -3.307292 l -6.085416,0.529166 6.482291,1.852084 3.836456,2.248958 -3.968747,0.793747 -0.264584,1.719792"
       id="path19" /><rect
       style="fill:none;fill-opacity:1;stroke:#4a1e0c;stroke-width:3.2252;stroke-linecap:round;stroke-linejoin:round;stroke-dasharray:none;stroke-opacity:1"
       id="rect19"
       width="41.526951"
       height="40.468613"
       x="29.507359"
       y="30.301109"
       ry="3.5006673" /><rect
       style="fill:none;fill-opacity:1;stroke:#4a1e0c;stroke-width:2.26945;stroke-linecap:round;stroke-linejoin:round;stroke-dasharray:none;stroke-opacity:1"
       id="rect20"
       width="29.182556"
       height="28.513872"
       x="-18.121986"
       y="57.258396"
       ry="2.466543"
       transform="matrix(0.74234758,-0.67001497,0.734038,0.6791084,0,0)" /><rect
       style="fill:none;fill-opacity:1;stroke:#4a1e0c;stroke-width:1.51163;stroke-linecap:round;stroke-linejoin:round;stroke-dasharray:none;stroke-opacity:1"
       id="rect21"
       width="19.431347"
       height="18.99876"
       x="-11.043499"
       y="61.818508"
       ry="1.6434547"
       transform="matrix(0.72400339,-0.68979641,0.71542214,0.69869246,0,0)" /></g></svg>
