<?xml version="1.0" encoding="UTF-8" standalone="no"?>
<!-- Created with Inkscape (http://www.inkscape.org/) -->

<svg
   width="100"
   height="100"
   viewBox="0 0 26.458333 26.458333"
   version="1.1"
   id="svg1"
   inkscape:version="1.4.2 (ebf0e940d0, 2025-05-08)"
   sodipodi:docname="coin.svg"
   xmlns:inkscape="http://www.inkscape.org/namespaces/inkscape"
   xmlns:sodipodi="http://sodipodi.sourceforge.net/DTD/sodipodi-0.dtd"
   xmlns="http://www.w3.org/2000/svg"
   xmlns:svg="http://www.w3.org/2000/svg">
  <sodipodi:namedview
     id="namedview1"
     pagecolor="#505050"
     bordercolor="#eeeeee"
     borderopacity="1"
     inkscape:showpageshadow="0"
     inkscape:pageopacity="0"
     inkscape:pagecheckerboard="0"
     inkscape:deskcolor="#505050"
     inkscape:document-units="px"
     inkscape:zoom="2.4945156"
     inkscape:cx="99.21766"
     inkscape:cy="71.156099"
     inkscape:window-width="1366"
     inkscape:window-height="697"
     inkscape:window-x="0"
     inkscape:window-y="0"
     inkscape:window-maximized="1"
     inkscape:current-layer="layer1" />
  <defs
     id="defs1" />
  <g
     inkscape:label="Camada 1"
     inkscape:groupmode="layer"
     id="layer1">
    <g
       id="g56"
       transform="translate(-32.456201,-3.2880465)">
      <ellipse
         style="fill:#db9b00;fill-opacity:1;stroke:#9f6b03;stroke-width:1.33535;stroke-dasharray:none;stroke-opacity:1"
         id="ellipse50"
         cx="46.793423"
         cy="17.202047"
         rx="11.4"
         ry="11.625" />
      <g
         id="g55"
         transform="matrix(0.69051829,0.36327247,-0.36181359,0.70856594,56.038178,-9.5712722)"
         style="stroke:#9f6b03;stroke-opacity:1">
        <path
           style="fill:#882104;fill-opacity:1;stroke:#9f6b03;stroke-width:0.630237;stroke-opacity:1"
           d="m 7.2911796,23.417741 0.6750001,-1.9875"
           id="path50" />
        <path
           style="fill:#882104;fill-opacity:1;stroke:#9f6b03;stroke-width:0.630237;stroke-opacity:1"
           d="m 6.2786796,23.117741 0.6749999,-1.9875"
           id="path51" />
        <path
           style="fill:#882104;fill-opacity:1;stroke:#9f6b03;stroke-width:0.578997;stroke-opacity:1"
           d="M 5.2507991,22.783678 5.91906,21.089304"
           id="path52" />
        <path
           style="fill:#882104;fill-opacity:1;stroke:#9f6b03;stroke-width:0.714284;stroke-opacity:1"
           d="m 8.2982777,23.708969 0.723304,-2.382456"
           id="path53" />
        <path
           style="fill:#882104;fill-opacity:1;stroke:#9f6b03;stroke-width:0.578997;stroke-opacity:1"
           d="m 9.2632987,23.721178 0.668261,-1.694374"
           id="path54" />
        <path
           style="fill:#882104;fill-opacity:1;stroke:#9f6b03;stroke-width:0.630237;stroke-opacity:1"
           d="m 10.29118,23.792741 0.675,-1.9875"
           id="path55" />
      </g>
    </g>
    <g
       id="g50"
       transform="translate(-30.547012,1.0606602)">
      <ellipse
         style="fill:#fff801;fill-opacity:1;stroke:#322201;stroke-width:1.33535;stroke-dasharray:none;stroke-opacity:1"
         id="ellipse18"
         cx="42.550781"
         cy="11.262351"
         rx="11.4"
         ry="11.625" />
      <g
         id="g32"
         transform="matrix(0.69051829,0.36327247,-0.36181359,0.70856594,51.795538,-15.510969)"
         style="stroke:#322201;stroke-opacity:1">
        <path
           style="fill:#882104;fill-opacity:1;stroke:#322201;stroke-width:0.630237;stroke-opacity:1"
           d="m 7.2911796,23.417741 0.6750001,-1.9875"
           id="path27" />
        <path
           style="fill:#882104;fill-opacity:1;stroke:#322201;stroke-width:0.630237;stroke-opacity:1"
           d="m 6.2786796,23.117741 0.6749999,-1.9875"
           id="path28" />
        <path
           style="fill:#882104;fill-opacity:1;stroke:#322201;stroke-width:0.578997;stroke-opacity:1"
           d="M 5.2507991,22.783678 5.91906,21.089304"
           id="path29" />
        <path
           style="fill:#882104;fill-opacity:1;stroke:#322201;stroke-width:0.714284;stroke-opacity:1"
           d="m 8.2982777,23.708969 0.723304,-2.382456"
           id="path30" />
        <path
           style="fill:#882104;fill-opacity:1;stroke:#322201;stroke-width:0.578997;stroke-opacity:1"
           d="m 9.2632987,23.721178 0.668261,-1.694374"
           id="path31" />
        <path
           style="fill:#882104;fill-opacity:1;stroke:#322201;stroke-width:0.630237;stroke-opacity:1"
           d="m 10.29118,23.792741 0.675,-1.9875"
           id="path32" />
      </g>
    </g>
    <g
       id="g18"
       transform="translate(0,0.52916666)">
      <ellipse
         style="fill:#fff801;fill-opacity:1;stroke:#513602;stroke-width:1.33535;stroke-dasharray:none;stroke-opacity:1"
         id="path1"
         cx="12.375"
         cy="13.650001"
         rx="11.4"
         ry="11.625" />
      <path
         id="path13"
         style="fill:#db9b00;fill-opacity:1;stroke:none;stroke-width:2.11242;stroke-dasharray:none;stroke-opacity:1"
         d="m 8.1984576,4.187683 a 10.48268,10.462242 0 0 0 -6.1244884,9.497495 10.48268,10.462242 0 0 0 10.4823558,10.462018 10.48268,10.462242 0 0 0 9.10798,-5.295813 10.48268,10.462242 0 0 1 -4.35478,0.964522 A 10.48268,10.462242 0 0 1 6.8271653,9.3538887 10.48268,10.462242 0 0 1 8.1984576,4.187683 Z" />
      <ellipse
         style="fill:#fff801;fill-opacity:1;stroke:#513602;stroke-width:1.12289;stroke-dasharray:none;stroke-opacity:1"
         id="ellipse1"
         cx="12.187501"
         cy="13.612501"
         rx="8.3452263"
         ry="8.3452272" />
      <g
         id="g1"
         transform="rotate(16.008608,8.8655781,15.411344)"
         style="stroke:#513602;stroke-opacity:1">
        <path
           style="fill:#882104;fill-opacity:1;stroke:#513602;stroke-width:0.630237;stroke-opacity:1"
           d="m 7.2911796,23.417741 0.6750001,-1.9875"
           id="path2" />
        <path
           style="fill:#882104;fill-opacity:1;stroke:#513602;stroke-width:0.630237;stroke-opacity:1"
           d="m 6.2786796,23.117741 0.6749999,-1.9875"
           id="path4" />
        <path
           style="fill:#882104;fill-opacity:1;stroke:#513602;stroke-width:0.578997;stroke-opacity:1"
           d="M 5.2507991,22.783678 5.91906,21.089304"
           id="path5" />
        <path
           style="fill:#882104;fill-opacity:1;stroke:#513602;stroke-width:0.714284;stroke-opacity:1"
           d="m 8.2982777,23.708969 0.723304,-2.382456"
           id="path6" />
        <path
           style="fill:#882104;fill-opacity:1;stroke:#513602;stroke-width:0.578997;stroke-opacity:1"
           d="m 9.2632987,23.721178 0.668261,-1.694374"
           id="path7" />
        <path
           style="fill:#882104;fill-opacity:1;stroke:#513602;stroke-width:0.630237;stroke-opacity:1"
           d="m 10.29118,23.792741 0.675,-1.9875"
           id="path8" />
      </g>
      <path
         id="path12"
         style="fill:#db9b00;fill-opacity:1;stroke:none;stroke-width:1.55967;stroke-dasharray:none;stroke-opacity:1"
         d="m 9.0134487,6.662683 a 7.8339626,7.6317063 0 0 0 -4.5769795,6.927969 7.8339626,7.6317063 0 0 0 7.8337208,7.631544 7.8339626,7.6317063 0 0 0 6.806615,-3.863042 7.8339626,7.6317063 0 0 1 -3.254433,0.703572 7.8339626,7.6317063 0 0 1 -7.8337234,-7.631543 7.8339626,7.6317063 0 0 1 1.0248001,-3.7685 z" />
      <ellipse
         style="fill:#fff801;fill-opacity:1;stroke:#513602;stroke-width:1.03214;stroke-dasharray:none;stroke-opacity:1"
         id="ellipse8"
         cx="8.9790049"
         cy="12.604874"
         rx="2.901232"
         ry="3.1398814" />
      <path
         id="ellipse10"
         style="fill:#db9b00;fill-opacity:1;stroke:none;stroke-width:0.506488;stroke-dasharray:none;stroke-opacity:1"
         d="M 7.9855898,10.243933 A 2.4161313,2.609472 0 0 0 6.5739689,12.61278 2.4161313,2.609472 0 0 0 8.990026,15.222196 2.4161313,2.609472 0 0 0 11.089305,13.901325 2.4161313,2.609472 0 0 1 10.085581,14.141894 2.4161313,2.609472 0 0 1 7.6695232,11.532477 2.4161313,2.609472 0 0 1 7.9855898,10.243933 Z" />
      <g
         id="g16"
         transform="matrix(0.69051829,0.36327247,-0.36181359,0.70856594,21.619757,-13.12332)"
         style="stroke:#513602;stroke-opacity:1">
        <path
           style="fill:#882104;fill-opacity:1;stroke:#513602;stroke-width:0.630237;stroke-opacity:1"
           d="m 7.2911796,23.417741 0.6750001,-1.9875"
           id="path3" />
        <path
           style="fill:#882104;fill-opacity:1;stroke:#513602;stroke-width:0.630237;stroke-opacity:1"
           d="m 6.2786796,23.117741 0.6749999,-1.9875"
           id="path9" />
        <path
           style="fill:#882104;fill-opacity:1;stroke:#513602;stroke-width:0.578997;stroke-opacity:1"
           d="M 5.2507991,22.783678 5.91906,21.089304"
           id="path10" />
        <path
           style="fill:#882104;fill-opacity:1;stroke:#513602;stroke-width:0.714284;stroke-opacity:1"
           d="m 8.2982777,23.708969 0.723304,-2.382456"
           id="path14" />
        <path
           style="fill:#882104;fill-opacity:1;stroke:#513602;stroke-width:0.578997;stroke-opacity:1"
           d="m 9.2632987,23.721178 0.668261,-1.694374"
           id="path15" />
        <path
           style="fill:#882104;fill-opacity:1;stroke:#513602;stroke-width:0.630237;stroke-opacity:1"
           d="m 10.29118,23.792741 0.675,-1.9875"
           id="path16" />
      </g>
      <ellipse
         style="fill:#fff801;fill-opacity:1;stroke:#513602;stroke-width:1.03214;stroke-dasharray:none;stroke-opacity:1"
         id="ellipse17"
         cx="15.555098"
         cy="12.710939"
         rx="2.901232"
         ry="3.1398814" />
      <path
         id="path17"
         style="fill:#db9b00;fill-opacity:1;stroke:none;stroke-width:0.506488;stroke-dasharray:none;stroke-opacity:1"
         d="m 14.561683,10.349999 a 2.4161313,2.609472 0 0 0 -1.411621,2.368847 2.4161313,2.609472 0 0 0 2.416057,2.609416 2.4161313,2.609472 0 0 0 2.099279,-1.320871 2.4161313,2.609472 0 0 1 -1.003724,0.240569 2.4161313,2.609472 0 0 1 -2.416058,-2.609417 2.4161313,2.609472 0 0 1 0.316067,-1.288544 z" />
    </g>
  </g>
</svg>
