<?xml version="1.0" encoding="UTF-8" standalone="no"?>
<!-- Created with Inkscape (http://www.inkscape.org/) -->

<svg
   width="100"
   height="100"
   viewBox="0 0 26.458333 26.458333"
   version="1.1"
   id="svg1"
   inkscape:version="1.4.2 (ebf0e940d0, 2025-05-08)"
   sodipodi:docname="coin.svg"
   xmlns:inkscape="http://www.inkscape.org/namespaces/inkscape"
   xmlns:sodipodi="http://sodipodi.sourceforge.net/DTD/sodipodi-0.dtd"
   xmlns="http://www.w3.org/2000/svg"
   xmlns:svg="http://www.w3.org/2000/svg">
  <sodipodi:namedview
     id="namedview1"
     pagecolor="#505050"
     bordercolor="#eeeeee"
     borderopacity="1"
     inkscape:showpageshadow="0"
     inkscape:pageopacity="0"
     inkscape:pagecheckerboard="0"
     inkscape:deskcolor="#505050"
     inkscape:document-units="px"
     inkscape:zoom="3.5277778"
     inkscape:cx="44.07874"
     inkscape:cy="58.535433"
     inkscape:window-width="1366"
     inkscape:window-height="697"
     inkscape:window-x="0"
     inkscape:window-y="0"
     inkscape:window-maximized="1"
     inkscape:current-layer="layer1" />
  <defs
     id="defs1" />
  <g
     inkscape:label="Camada 1"
     inkscape:groupmode="layer"
     id="layer1">
    <ellipse
       style="fill:#fff801;fill-opacity:1;stroke:#882104;stroke-width:0.964999;stroke-opacity:1"
       id="ellipse19"
       cx="14.400001"
       cy="12.154167"
       rx="11.4"
       ry="11.625" />
    <path
       id="path20"
       style="fill:#db9b00;fill-opacity:1;stroke:none;stroke-width:2.04462;stroke-dasharray:none;stroke-opacity:1"
       d="M 18.562329,22.037683 A 9.9044182,10.373643 0 0 0 24.348968,12.620618 9.9044182,10.373643 0 0 0 14.444856,2.2471967 9.9044182,10.373643 0 0 0 5.8393053,7.4981612 9.9044182,10.373643 0 0 1 9.953859,6.5418079 9.9044182,10.373643 0 0 1 19.857976,16.915227 9.9044182,10.373643 0 0 1 18.562329,22.037683 Z" />
    <ellipse
       style="fill:#fff801;stroke:#882104;stroke-width:0.964999;stroke-opacity:1;fill-opacity:1"
       id="path1"
       cx="12.225"
       cy="14.1"
       rx="11.4"
       ry="11.625" />
    <path
       id="path13"
       style="fill:#db9b00;fill-opacity:1;stroke:none;stroke-width:2.11242;stroke-dasharray:none;stroke-opacity:1"
       d="m 8.0484576,4.637683 a 10.48268,10.462242 0 0 0 -6.1244884,9.497495 10.48268,10.462242 0 0 0 10.4823558,10.462018 10.48268,10.462242 0 0 0 9.10798,-5.295813 10.48268,10.462242 0 0 1 -4.35478,0.964522 A 10.48268,10.462242 0 0 1 6.6771653,9.8038887 10.48268,10.462242 0 0 1 8.0484576,4.637683 Z" />
    <ellipse
       style="fill:#fff801;stroke:#882104;stroke-width:0.80539166;stroke-opacity:1;fill-opacity:1;stroke-dasharray:none"
       id="ellipse1"
       cx="12.037501"
       cy="14.062501"
       rx="8.3452263"
       ry="8.3452272" />
    <path
       style="fill:#882104;fill-opacity:1;stroke:#882104;stroke-width:0.630237;stroke-opacity:1"
       d="M 9.2624999,25.0875 9.9374998,23.1"
       id="path2" />
    <path
       style="fill:#882104;fill-opacity:1;stroke:#882104;stroke-width:0.630237;stroke-opacity:1"
       d="M 8.2499999,24.7875 8.9249998,22.8"
       id="path4" />
    <path
       style="fill:#882104;fill-opacity:1;stroke:#882104;stroke-width:0.578997;stroke-opacity:1"
       d="M 7.2221194,24.453437 7.8903803,22.759063"
       id="path5" />
    <path
       style="fill:#882104;fill-opacity:1;stroke:#882104;stroke-width:0.714284;stroke-opacity:1"
       d="m 10.269598,25.378728 0.723304,-2.382456"
       id="path6" />
    <path
       style="fill:#882104;fill-opacity:1;stroke:#882104;stroke-width:0.578997;stroke-opacity:1"
       d="M 11.234619,25.390937 11.90288,23.696563"
       id="path7" />
    <path
       style="fill:#882104;fill-opacity:1;stroke:#882104;stroke-width:0.630237;stroke-opacity:1"
       d="m 12.2625,25.4625 0.675,-1.9875"
       id="path8" />
    <path
       id="path12"
       style="fill:#db9b00;fill-opacity:1;stroke:none;stroke-width:1.58772;stroke-dasharray:none;stroke-opacity:1"
       d="m 8.8962901,6.887683 a 7.9543588,7.7889583 0 0 0 -4.6473209,7.070721 7.9543588,7.7889583 0 0 0 7.9541128,7.788792 7.9543588,7.7889583 0 0 0 6.911223,-3.942641 7.9543588,7.7889583 0 0 1 -3.304449,0.71807 7.9543588,7.7889583 0 0 1 -7.9541157,-7.788791 7.9543588,7.7889583 0 0 1 1.0405498,-3.846151 z" />
    <ellipse
       style="fill:#fff801;fill-opacity:1;stroke:#882104;stroke-width:0.608806;stroke-dasharray:none;stroke-opacity:1"
       id="ellipse8"
       cx="8.8290052"
       cy="13.054873"
       rx="2.901232"
       ry="3.1398814" />
    <ellipse
       style="fill:#fff801;fill-opacity:1;stroke:#882104;stroke-width:0.608806;stroke-dasharray:none;stroke-opacity:1"
       id="ellipse9"
       cx="15.033867"
       cy="13.054873"
       rx="2.901232"
       ry="3.1398814" />
    <path
       id="ellipse10"
       style="fill:#db9b00;fill-opacity:1;stroke:none;stroke-width:0.540964;stroke-dasharray:none;stroke-opacity:1"
       d="M 7.7184311,10.562683 A 2.5365275,2.8355217 0 0 0 6.2364689,13.136735 2.5365275,2.8355217 0 0 0 8.7729186,15.972196 2.5365275,2.8355217 0 0 0 10.976805,14.536902 2.5365275,2.8355217 0 0 1 9.9230651,14.798311 2.5365275,2.8355217 0 0 1 7.3866149,11.96285 2.5365275,2.8355217 0 0 1 7.7184311,10.562683 Z" />
    <path
       id="path11"
       style="fill:#db9b00;fill-opacity:1;stroke:none;stroke-width:0.540964;stroke-dasharray:none;stroke-opacity:1"
       d="m 13.980931,10.487683 a 2.5365275,2.8355217 0 0 0 -1.481962,2.574052 2.5365275,2.8355217 0 0 0 2.536449,2.835461 2.5365275,2.8355217 0 0 0 2.203887,-1.435294 2.5365275,2.8355217 0 0 1 -1.05374,0.261409 2.5365275,2.8355217 0 0 1 -2.53645,-2.835461 2.5365275,2.8355217 0 0 1 0.331816,-1.400167 z" />
    <path
       style="fill:#882104;fill-opacity:1;stroke:#882104;stroke-width:0.630237;stroke-opacity:1"
       d="m 13.8375,4.9125004 0.675,-1.9875"
       id="path14" />
    <path
       style="fill:#882104;fill-opacity:1;stroke:#882104;stroke-width:0.630237;stroke-opacity:1"
       d="m 12.825,4.6125004 0.675,-1.9875"
       id="path15" />
    <path
       style="fill:#882104;fill-opacity:1;stroke:#882104;stroke-width:0.578997;stroke-opacity:1"
       d="M 11.797119,4.2784374 12.46538,2.5840634"
       id="path16" />
    <path
       style="fill:#882104;fill-opacity:1;stroke:#882104;stroke-width:0.714284;stroke-opacity:1"
       d="m 14.844598,5.2037284 0.723304,-2.382456"
       id="path17" />
    <path
       style="fill:#882104;fill-opacity:1;stroke:#882104;stroke-width:0.578997;stroke-opacity:1"
       d="M 15.809619,5.2159374 16.47788,3.5215634"
       id="path18" />
    <path
       style="fill:#882104;fill-opacity:1;stroke:#882104;stroke-width:0.630237;stroke-opacity:1"
       d="m 16.8375,5.2875004 0.675,-1.9875"
       id="path19" />
  </g>
</svg>
