<?xml version="1.0" encoding="UTF-8" standalone="no"?>
<!-- Created with Inkscape (http://www.inkscape.org/) -->

<svg
   width="100"
   height="100"
   viewBox="0 0 26.458333 26.458333"
   version="1.1"
   id="svg1"
   inkscape:version="1.4.2 (ebf0e940d0, 2025-05-08)"
   sodipodi:docname="ectoplasma.svg"
   xml:space="preserve"
   xmlns:inkscape="http://www.inkscape.org/namespaces/inkscape"
   xmlns:sodipodi="http://sodipodi.sourceforge.net/DTD/sodipodi-0.dtd"
   xmlns="http://www.w3.org/2000/svg"
   xmlns:svg="http://www.w3.org/2000/svg"><sodipodi:namedview
     id="namedview1"
     pagecolor="#505050"
     bordercolor="#eeeeee"
     borderopacity="1"
     inkscape:showpageshadow="0"
     inkscape:pageopacity="0"
     inkscape:pagecheckerboard="0"
     inkscape:deskcolor="#505050"
     inkscape:document-units="px"
     inkscape:zoom="3.5277778"
     inkscape:cx="72.992126"
     inkscape:cy="46.913386"
     inkscape:window-width="1366"
     inkscape:window-height="697"
     inkscape:window-x="0"
     inkscape:window-y="0"
     inkscape:window-maximized="1"
     inkscape:current-layer="layer1" /><defs
     id="defs1"><linearGradient
       id="linearGradient13895"
       inkscape:swatch="solid"><stop
         style="stop-color:#000000;stop-opacity:1;"
         offset="0"
         id="stop13893" /></linearGradient><filter
       style="color-interpolation-filters:sRGB;"
       inkscape:label="Clean Edges"
       id="filter14269"
       x="-0.31154084"
       y="-0.29580634"
       width="1.6230817"
       height="1.5916127"><feGaussianBlur
         stdDeviation="0.204612"
         result="blur"
         id="feGaussianBlur14263" /><feComposite
         in="SourceGraphic"
         in2="blur"
         operator="in"
         result="composite1"
         id="feComposite14265" /><feComposite
         in="composite1"
         in2="composite1"
         operator="in"
         result="composite2"
         id="feComposite14267" /></filter></defs><g
     inkscape:label="Camada 1"
     inkscape:groupmode="layer"
     id="layer1"><path
       id="rect3"
       style="fill:#5728ff;fill-opacity:1;stroke:#3202da;stroke-width:1.65314;stroke-dasharray:none;stroke-opacity:1"
       d="M 12.880371,1.1245339 C 8.2437462,1.1245267 4.4850559,3.7017456 4.485207,6.8808405 5.2497421,12.74681 2.4197398,19.666913 5.5917448,24.998429 c 1.7034284,1.022585 4.6872802,-5.744137 4.7787082,-5.160442 1.493287,9.533483 4.498657,3.57083 5.943702,-0.259114 0.03379,-0.08957 2.27811,6.841706 3.73702,5.412762 2.71096,-5.525937 1.011588,-12.198603 1.224361,-18.1107945 1.51e-4,-3.1790948 -3.758539,-5.7563135 -8.395165,-5.7563066 z"
       sodipodi:nodetypes="ccsccscc" /><ellipse
       style="fill:#12014c;fill-opacity:1;stroke:none;stroke-width:1.07862;stroke-opacity:1"
       id="path7"
       cx="10.259859"
       cy="8.4380693"
       rx="2.0531249"
       ry="3.065625" /><path
       id="path38"
       style="fill:#5728ff;stroke:#3202da;stroke-width:0.570349;stroke-linecap:round;stroke-linejoin:round"
       d="m 25.511282,15.319934 c 0,1.061119 -0.489008,1.921325 -1.092231,1.921325 -0.603222,0 -1.09223,-0.860206 -1.09223,-1.921325 -10e-7,-1.061119 0.472447,-1.447605 1.07567,-1.447605 0.603223,0 1.108791,0.386486 1.108791,1.447605 z"
       sodipodi:nodetypes="sssss" /><path
       id="path1"
       style="fill:#5728ff;stroke:#3202da;stroke-width:0.920089;stroke-linecap:round;stroke-linejoin:round"
       d="m 23.761412,20.586332 c 0,1.659648 -0.81366,3.005057 -1.817361,3.005057 -1.0037,0 -1.81736,-1.345409 -1.81736,-3.005057 -2e-6,-1.659648 0.786104,-2.264133 1.789805,-2.264133 1.003702,0 1.844916,0.604485 1.844916,2.264133 z"
       sodipodi:nodetypes="sssss" /><path
       id="path3"
       style="fill:#734bff;stroke:#3202da;stroke-width:0.570349;stroke-linecap:round;stroke-linejoin:round;fill-opacity:1"
       d="m 3.9112824,5.8699342 c 0,1.061119 -0.489008,1.921325 -1.092231,1.921325 -0.603222,0 -1.09223,-0.860206 -1.09223,-1.921325 -10e-7,-1.061119 0.472447,-1.447605 1.07567,-1.447605 0.603223,0 1.108791,0.386486 1.108791,1.447605 z"
       sodipodi:nodetypes="sssss" /><path
       id="path4"
       style="fill:#734bff;stroke:#3202da;stroke-width:0.570349;stroke-linecap:round;stroke-linejoin:round;fill-opacity:1"
       d="m 7.8112823,10.894934 c 0,1.061119 -0.489008,1.921325 -1.092231,1.921325 -0.603222,0 -1.09223,-0.860206 -1.09223,-1.921325 -10e-7,-1.0611189 0.472447,-1.4476049 1.07567,-1.4476049 0.603223,0 1.108791,0.386486 1.108791,1.4476049 z"
       sodipodi:nodetypes="sssss" /><path
       id="path5"
       style="fill:#734bff;stroke:#3202da;stroke-width:0.920089;stroke-linecap:round;stroke-linejoin:round;fill-opacity:1"
       d="m 4.5614123,17.886332 c 0,1.659648 -0.81366,3.005057 -1.817361,3.005057 -1.0037,0 -1.81735998,-1.345409 -1.81735998,-3.005057 -2e-6,-1.659648 0.78610398,-2.264133 1.78980498,-2.264133 1.003702,0 1.844916,0.604485 1.844916,2.264133 z"
       sodipodi:nodetypes="sssss" /><ellipse
       style="fill:#12014c;fill-opacity:1;stroke:none;stroke-width:1.07862;stroke-opacity:1"
       id="ellipse5"
       cx="15.734859"
       cy="8.0630693"
       rx="2.0531249"
       ry="3.065625" /><ellipse
       style="fill:#12014c;fill-opacity:1;stroke:none;stroke-width:0.736282;stroke-opacity:1"
       id="ellipse6"
       cx="12.884859"
       cy="14.925569"
       rx="2.128125"
       ry="1.378125" /></g></svg>
