<?xml version="1.0" encoding="UTF-8" standalone="no"?>
<!-- Created with Inkscape (http://www.inkscape.org/) -->

<svg
   width="100"
   height="100"
   viewBox="0 0 26.458333 26.458333"
   version="1.1"
   id="svg1"
   inkscape:version="1.4.2 (ebf0e940d0, 2025-05-08)"
   sodipodi:docname="ectoplasma.svg"
   xml:space="preserve"
   xmlns:inkscape="http://www.inkscape.org/namespaces/inkscape"
   xmlns:sodipodi="http://sodipodi.sourceforge.net/DTD/sodipodi-0.dtd"
   xmlns="http://www.w3.org/2000/svg"
   xmlns:svg="http://www.w3.org/2000/svg"><sodipodi:namedview
     id="namedview1"
     pagecolor="#505050"
     bordercolor="#eeeeee"
     borderopacity="1"
     inkscape:showpageshadow="0"
     inkscape:pageopacity="0"
     inkscape:pagecheckerboard="0"
     inkscape:deskcolor="#505050"
     inkscape:document-units="px"
     inkscape:zoom="4.9890312"
     inkscape:cx="76.066872"
     inkscape:cy="46.201355"
     inkscape:window-width="1366"
     inkscape:window-height="697"
     inkscape:window-x="0"
     inkscape:window-y="0"
     inkscape:window-maximized="1"
     inkscape:current-layer="layer1" /><defs
     id="defs1"><linearGradient
       id="linearGradient13895"
       inkscape:swatch="solid"><stop
         style="stop-color:#000000;stop-opacity:1;"
         offset="0"
         id="stop13893" /></linearGradient><filter
       style="color-interpolation-filters:sRGB;"
       inkscape:label="Clean Edges"
       id="filter14269"
       x="-0.31154084"
       y="-0.29580634"
       width="1.6230817"
       height="1.5916127"><feGaussianBlur
         stdDeviation="0.204612"
         result="blur"
         id="feGaussianBlur14263" /><feComposite
         in="SourceGraphic"
         in2="blur"
         operator="in"
         result="composite1"
         id="feComposite14265" /><feComposite
         in="composite1"
         in2="composite1"
         operator="in"
         result="composite2"
         id="feComposite14267" /></filter></defs><g
     inkscape:label="Camada 1"
     inkscape:groupmode="layer"
     id="layer1"><path
       id="rect3"
       style="fill:#5728ff;fill-opacity:1;stroke:#12014c;stroke-width:1.65314;stroke-dasharray:none;stroke-opacity:1"
       d="M 12.880371,1.1245339 C 8.2437462,1.1245267 4.4850559,3.7017456 4.485207,6.8808405 4.560313,12.534678 2.4197398,19.666913 5.5917448,24.998429 c 1.7034284,1.022585 4.6872802,-5.744137 4.7787082,-5.160442 1.493287,9.533483 4.498657,3.57083 5.943702,-0.259114 0.03379,-0.08957 2.27811,6.841706 3.73702,5.412762 2.71096,-5.525937 1.011588,-12.198603 1.224361,-18.1107945 1.51e-4,-3.1790948 -3.758539,-5.7563135 -8.395165,-5.7563066 z"
       sodipodi:nodetypes="ccsccscc" /><ellipse
       style="fill:#12014c;fill-opacity:1;stroke:none;stroke-width:0.6646333;stroke-opacity:1;stroke-dasharray:none"
       id="path7"
       cx="10.259859"
       cy="8.4380693"
       rx="2.0531249"
       ry="3.065625" /><path
       id="path3"
       style="fill:#734bff;fill-opacity:0.7709654;stroke:#3202da;stroke-width:1.00765;stroke-linecap:round;stroke-linejoin:round"
       d="m 5.8676325,4.232531 c 0,1.8446752 -0.8780053,3.3400783 -1.9610815,3.3400783 -1.0830745,0 -1.9610797,-1.4954031 -1.9610797,-3.3400783 -1.8e-6,-1.8446752 0.8482702,-2.5165519 1.9313465,-2.5165519 1.0830763,0 1.9908147,0.6718767 1.9908147,2.5165519 z"
       sodipodi:nodetypes="sssss" /><ellipse
       style="fill:#12014c;fill-opacity:1;stroke:none;stroke-width:0.69109167;stroke-opacity:1;stroke-dasharray:none"
       id="ellipse5"
       cx="15.734859"
       cy="8.0630693"
       rx="2.0531249"
       ry="3.065625" /><path
       id="ellipse6"
       style="fill:#12014c;fill-opacity:1;stroke:none;stroke-width:1.22266"
       d="m 16.674049,16.279563 c 0,-1.433136 -1.676212,-2.594924 -3.743923,-2.594924 -2.067712,0 -3.7439241,1.161788 -3.7439241,2.594924 0,1.433137 1.7468771,-0.695466 3.8145891,-0.695466 2.067711,0 3.673258,2.128603 3.673258,0.695466 z"
       sodipodi:nodetypes="sssss" /><path
       id="path4"
       style="fill:#734bff;fill-opacity:0.57017;stroke:#3202da;stroke-width:1.00765;stroke-linecap:round;stroke-linejoin:round"
       d="m 24.242632,21.707531 c 0,1.844675 -0.878005,3.340078 -1.961081,3.340078 -1.083075,0 -1.96108,-1.495403 -1.96108,-3.340078 -2e-6,-1.844676 0.84827,-2.516552 1.931346,-2.516552 1.083077,0 1.990815,0.671876 1.990815,2.516552 z"
       sodipodi:nodetypes="sssss" /><path
       id="path5"
       style="fill:#734bff;fill-opacity:0.57017;stroke:#3202da;stroke-width:0.543762;stroke-linecap:round;stroke-linejoin:round"
       d="m 21.399576,14.203611 c 0,1.022247 -0.461381,1.850942 -1.030525,1.850942 -0.569143,0 -1.030524,-0.828695 -1.030524,-1.850942 -10e-7,-1.022248 0.445756,-1.394576 1.014899,-1.394576 0.569144,0 1.04615,0.372328 1.04615,1.394576 z"
       sodipodi:nodetypes="sssss" /><path
       id="path6"
       style="fill:#734bff;fill-opacity:0.57017;stroke:#3202da;stroke-width:0.543762;stroke-linecap:round;stroke-linejoin:round"
       d="m 25.824576,2.4286112 c 0,1.022247 -0.461381,1.850942 -1.030525,1.850942 -0.569143,0 -1.030524,-0.828695 -1.030524,-1.850942 -1e-6,-1.022248 0.445756,-1.394576 1.014899,-1.394576 0.569144,0 1.04615,0.372328 1.04615,1.394576 z"
       sodipodi:nodetypes="sssss" /><path
       id="path9"
       style="fill:#734bff;fill-opacity:0.57017;stroke:#3202da;stroke-width:0.575543;stroke-linecap:round;stroke-linejoin:round"
       d="m 9.6086863,23.152526 c 0,1.083106 -0.487846,1.961137 -1.089635,1.961137 -0.601788,0 -1.089634,-0.878031 -1.089634,-1.961137 -1e-6,-1.083107 0.471324,-1.477601 1.073113,-1.477601 0.601789,0 1.106156,0.394494 1.106156,1.477601 z"
       sodipodi:nodetypes="sssss" /><path
       id="path11"
       style="fill:#734bff;fill-opacity:0.57017;stroke:#3202da;stroke-width:0.575543;stroke-linecap:round;stroke-linejoin:round"
       d="m 3.5336864,11.827526 c 0,1.083106 -0.487846,1.961137 -1.089635,1.961137 -0.601788,0 -1.089634,-0.878031 -1.089634,-1.961137 -10e-7,-1.083107 0.471324,-1.477601 1.073113,-1.477601 0.601789,0 1.106156,0.394494 1.106156,1.477601 z"
       sodipodi:nodetypes="sssss" /><path
       id="path12"
       style="fill:#734bff;fill-opacity:0.57017;stroke:#3202da;stroke-width:0.384848;stroke-linecap:round;stroke-linejoin:round"
       d="m 3.6290338,22.109034 c 0,0.717957 -0.3290626,1.299976 -0.7349822,1.299976 -0.405919,0 -0.7349816,-0.582019 -0.7349816,-1.299976 -7e-7,-0.717959 0.3179182,-0.979456 0.7238378,-0.979456 0.4059196,0 0.746126,0.261497 0.746126,0.979456 z"
       sodipodi:nodetypes="sssss" /><path
       id="path13"
       style="fill:#734bff;fill-opacity:0.57017;stroke:#3202da;stroke-width:0.384848;stroke-linecap:round;stroke-linejoin:round"
       d="m 7.3790337,14.309034 c 0,0.717957 -0.3290626,1.299976 -0.7349822,1.299976 -0.405919,0 -0.7349816,-0.582019 -0.7349816,-1.299976 -6e-7,-0.717959 0.3179182,-0.979456 0.7238378,-0.979456 0.4059196,0 0.746126,0.261497 0.746126,0.979456 z"
       sodipodi:nodetypes="sssss" /><path
       id="path14"
       style="fill:#734bff;fill-opacity:0.57017;stroke:#3202da;stroke-width:0.384848;stroke-linecap:round;stroke-linejoin:round"
       d="m 24.404033,7.8590341 c 0,0.717957 -0.329062,1.299976 -0.734982,1.299976 -0.405919,0 -0.734981,-0.582019 -0.734981,-1.299976 -10e-7,-0.717959 0.317918,-0.979456 0.723837,-0.979456 0.40592,0 0.746126,0.261497 0.746126,0.979456 z"
       sodipodi:nodetypes="sssss" /><ellipse
       style="fill:#ffffff;fill-opacity:1;stroke:none;stroke-width:0.144481;stroke-dasharray:none;stroke-opacity:1"
       id="ellipse14"
       cx="3.3036089"
       cy="3.6380694"
       rx="0.38294792"
       ry="0.77669799" /><ellipse
       style="fill:#ffffff;fill-opacity:1;stroke:none;stroke-width:0.0795021;stroke-dasharray:none;stroke-opacity:1"
       id="ellipse15"
       cx="2.0848589"
       cy="11.19432"
       rx="0.21419792"
       ry="0.42044801" /><ellipse
       style="fill:#ffffff;fill-opacity:0.75804597;stroke:none;stroke-width:0.228779;stroke-dasharray:none;stroke-opacity:1"
       id="ellipse16"
       cx="21.791109"
       cy="21.225571"
       rx="0.60794795"
       ry="1.226698" /><ellipse
       style="fill:#ffffff;fill-opacity:1;stroke:none;stroke-width:0.144481;stroke-dasharray:none;stroke-opacity:1"
       id="ellipse17"
       cx="20.168106"
       cy="14.032538"
       rx="0.38294792"
       ry="0.77669799" /><ellipse
       style="fill:#ffffff;fill-opacity:1;stroke:none;stroke-width:0.144481;stroke-dasharray:none;stroke-opacity:1"
       id="ellipse18"
       cx="24.569845"
       cy="2.2592108"
       rx="0.38294792"
       ry="0.77669799" /><ellipse
       style="fill:#ffffff;fill-opacity:1;stroke:none;stroke-width:0.0891499;stroke-dasharray:none;stroke-opacity:1"
       id="ellipse19"
       cx="23.446777"
       cy="7.6870518"
       rx="0.24232292"
       ry="0.46732301" /><ellipse
       style="fill:#ffffff;fill-opacity:0.758046;stroke:none;stroke-width:0.107421;stroke-dasharray:none;stroke-opacity:1"
       id="ellipse20"
       cx="6.4536095"
       cy="14.23182"
       rx="0.27044794"
       ry="0.60794806" /><ellipse
       style="fill:#ffffff;fill-opacity:0.758046;stroke:none;stroke-width:0.107421;stroke-dasharray:none;stroke-opacity:1"
       id="ellipse21"
       cx="8.1786098"
       cy="22.856819"
       rx="0.27044794"
       ry="0.60794806" /><ellipse
       style="fill:#ffffff;fill-opacity:0.758046;stroke:none;stroke-width:0.0640895;stroke-dasharray:none;stroke-opacity:1"
       id="ellipse22"
       cx="2.6098599"
       cy="21.881819"
       rx="0.13919795"
       ry="0.42044806" /></g></svg>
