<?xml version="1.0" encoding="UTF-8" standalone="no"?>
<!-- Created with Inkscape (http://www.inkscape.org/) -->

<svg
   width="100"
   height="100"
   viewBox="0 0 26.458333 26.458333"
   version="1.1"
   id="svg1"
   inkscape:version="1.4.2 (ebf0e940d0, 2025-05-08)"
   sodipodi:docname="energy_berry.svg"
   xmlns:inkscape="http://www.inkscape.org/namespaces/inkscape"
   xmlns:sodipodi="http://sodipodi.sourceforge.net/DTD/sodipodi-0.dtd"
   xmlns="http://www.w3.org/2000/svg"
   xmlns:svg="http://www.w3.org/2000/svg">
  <sodipodi:namedview
     id="namedview1"
     pagecolor="#505050"
     bordercolor="#eeeeee"
     borderopacity="1"
     inkscape:showpageshadow="0"
     inkscape:pageopacity="0"
     inkscape:pagecheckerboard="0"
     inkscape:deskcolor="#505050"
     inkscape:document-units="px"
     inkscape:zoom="2.4945156"
     inkscape:cx="87.592156"
     inkscape:cy="55.120922"
     inkscape:window-width="1366"
     inkscape:window-height="697"
     inkscape:window-x="0"
     inkscape:window-y="0"
     inkscape:window-maximized="1"
     inkscape:current-layer="layer1" />
  <defs
     id="defs1">
    <inkscape:perspective
       sodipodi:type="inkscape:persp3d"
       inkscape:vp_x="4.5 : 12.929166 : 1"
       inkscape:vp_y="0 : 1000 : 0"
       inkscape:vp_z="30.958333 : 12.929166 : 1"
       inkscape:persp3d-origin="17.729166 : 8.5194443 : 1"
       id="perspective1" />
  </defs>
  <g
     inkscape:label="Camada 1"
     inkscape:groupmode="layer"
     id="layer1">
    <path
       id="rect35"
       style="fill:#106800;stroke:#072c00;stroke-width:0.88132712;stroke-dasharray:none;fill-opacity:1"
       d="m 17.025976,6.7803874 c 1.58464,-1.2491273 1.636944,1.318306 5.607596,-5.87361579 0.37935,-0.68710477 1.509523,-0.62946112 2.134634,-0.1021035 l 0.535969,0.45215649 c 0.625111,0.5273576 0.929872,2.2749707 0.122084,2.0059215 C 23.93464,2.7659341 22.070281,4.6923399 19.818662,9.1363617 19.465098,9.834191 18.309138,9.765822 17.684028,9.2384643 L 17.148059,8.7863076 C 16.522948,8.2589499 16.381115,7.288712 17.025976,6.7803874 Z"
       sodipodi:nodetypes="sssssssss" />
    <ellipse
       style="fill:#072c00;fill-opacity:1;stroke:#072c00;stroke-width:1.07453;stroke-dasharray:none;stroke-opacity:1"
       id="ellipse34"
       cx="14.990964"
       cy="22.229517"
       rx="3.2341752"
       ry="2.8744254" />
    <ellipse
       style="fill:#4aff0d;fill-opacity:1;stroke:#072c00;stroke-width:1.12667;stroke-dasharray:none;stroke-opacity:1"
       id="ellipse12"
       cx="4.8659635"
       cy="11.850351"
       rx="3.2081032"
       ry="3.1858535" />
    <path
       id="ellipse22"
       style="fill:#106800;fill-opacity:1;stroke:none;stroke-width:0.822416;stroke-dasharray:none;stroke-opacity:1"
       d="M 3.5223024,9.9111449 A 2.3279998,2.339274 0 0 0 2.4640625,11.872112 2.3279998,2.339274 0 0 0 4.7920402,14.211385 2.3279998,2.339274 0 0 0 6.8781452,12.910271 2.3279998,2.339274 0 0 1 5.6084074,13.288957 2.3279998,2.339274 0 0 1 3.2804297,10.949684 2.3279998,2.339274 0 0 1 3.5223024,9.9111449 Z" />
    <ellipse
       style="fill:#106800;fill-opacity:1;stroke:none;stroke-width:0.939197;stroke-dasharray:none"
       id="ellipse13"
       cx="-3.631058"
       cy="11.738873"
       rx="0.71594566"
       ry="1.4451494"
       transform="rotate(-44.831207)" />
    <g
       id="g24"
       transform="translate(6.2999999,-2.5541667)">
      <ellipse
         style="fill:#4aff0d;fill-opacity:1;stroke:#072c00;stroke-width:1.12667;stroke-dasharray:none;stroke-opacity:1"
         id="ellipse23"
         cx="4.2659636"
         cy="10.800351"
         rx="3.2081032"
         ry="3.1858535" />
      <path
         id="path23"
         style="fill:#106800;fill-opacity:1;stroke:none;stroke-width:0.822416;stroke-dasharray:none;stroke-opacity:1"
         d="M 2.9223024,8.8611449 A 2.3279998,2.339274 0 0 0 1.8640625,10.822112 2.3279998,2.339274 0 0 0 4.1920402,13.161385 2.3279998,2.339274 0 0 0 6.2781452,11.860271 2.3279998,2.339274 0 0 1 5.0084074,12.238957 2.3279998,2.339274 0 0 1 2.6804297,9.8996835 2.3279998,2.339274 0 0 1 2.9223024,8.8611449 Z" />
    </g>
    <g
       id="g25"
       transform="translate(4.7249999,2.6208332)">
      <ellipse
         style="fill:#4aff0d;fill-opacity:1;stroke:#072c00;stroke-width:1.12667;stroke-dasharray:none;stroke-opacity:1"
         id="ellipse24"
         cx="4.2659636"
         cy="10.800351"
         rx="3.2081032"
         ry="3.1858535" />
      <path
         id="path24"
         style="fill:#106800;fill-opacity:1;stroke:none;stroke-width:0.822416;stroke-dasharray:none;stroke-opacity:1"
         d="M 2.9223024,8.8611449 A 2.3279998,2.339274 0 0 0 1.8640625,10.822112 2.3279998,2.339274 0 0 0 4.1920402,13.161385 2.3279998,2.339274 0 0 0 6.2781452,11.860271 2.3279998,2.339274 0 0 1 5.0084074,12.238957 2.3279998,2.339274 0 0 1 2.6804297,9.8996835 2.3279998,2.339274 0 0 1 2.9223024,8.8611449 Z" />
    </g>
    <g
       id="g26"
       transform="translate(0.14999995,6.9708332)">
      <ellipse
         style="fill:#4aff0d;fill-opacity:1;stroke:#072c00;stroke-width:1.12667;stroke-dasharray:none;stroke-opacity:1"
         id="ellipse25"
         cx="4.2659636"
         cy="10.800351"
         rx="3.2081032"
         ry="3.1858535" />
      <path
         id="path25"
         style="fill:#106800;fill-opacity:1;stroke:none;stroke-width:0.822416;stroke-dasharray:none;stroke-opacity:1"
         d="M 2.9223024,8.8611449 A 2.3279998,2.339274 0 0 0 1.8640625,10.822112 2.3279998,2.339274 0 0 0 4.1920402,13.161385 2.3279998,2.339274 0 0 0 6.2781452,11.860271 2.3279998,2.339274 0 0 1 5.0084074,12.238957 2.3279998,2.339274 0 0 1 2.6804297,9.8996835 2.3279998,2.339274 0 0 1 2.9223024,8.8611449 Z" />
    </g>
    <ellipse
       style="fill:#106800;fill-opacity:1;stroke:#072c00;stroke-width:1.12667;stroke-dasharray:none;stroke-opacity:1"
       id="ellipse26"
       cx="8.3909636"
       cy="22.346184"
       rx="3.2081032"
       ry="3.1858535" />
    <g
       id="g28"
       transform="translate(6.9749999,7.570833)">
      <ellipse
         style="fill:#4aff0d;fill-opacity:1;stroke:#072c00;stroke-width:1.12667;stroke-dasharray:none;stroke-opacity:1"
         id="ellipse27"
         cx="4.2659636"
         cy="10.800351"
         rx="3.2081032"
         ry="3.1858535" />
      <path
         id="path27"
         style="fill:#106800;fill-opacity:1;stroke:none;stroke-width:0.822416;stroke-dasharray:none;stroke-opacity:1"
         d="M 2.9223024,8.8611449 A 2.3279998,2.339274 0 0 0 1.8640625,10.822112 2.3279998,2.339274 0 0 0 4.1920402,13.161385 2.3279998,2.339274 0 0 0 6.2781452,11.860271 2.3279998,2.339274 0 0 1 5.0084074,12.238957 2.3279998,2.339274 0 0 1 2.6804297,9.8996835 2.3279998,2.339274 0 0 1 2.9223024,8.8611449 Z" />
    </g>
    <ellipse
       style="fill:#ffffff;fill-opacity:1;stroke:none;stroke-width:0.939197;stroke-dasharray:none"
       id="ellipse9"
       cx="-3.6793225"
       cy="20.814054"
       rx="0.71594566"
       ry="1.4451494"
       transform="rotate(-44.831207)" />
    <ellipse
       style="fill:#106800;fill-opacity:1;stroke:none;stroke-width:0.939197;stroke-dasharray:none"
       id="ellipse11"
       cx="-1.5560833"
       cy="15.97028"
       rx="0.71594566"
       ry="1.4451494"
       transform="rotate(-44.831207)" />
    <ellipse
       style="fill:#106800;fill-opacity:1;stroke:#072c00;stroke-width:1.12667;stroke-dasharray:none;stroke-opacity:1"
       id="ellipse28"
       cx="14.990964"
       cy="13.121184"
       rx="3.2081032"
       ry="3.1858535" />
    <path
       id="path13"
       style="fill:#072c00;fill-opacity:1;stroke:none;stroke-width:0.822416;stroke-dasharray:none;stroke-opacity:1"
       d="m 13.637099,11.114784 a 2.3279998,2.339274 0 0 0 -1.058239,1.960967 2.3279998,2.339274 0 0 0 2.327977,2.339273 2.3279998,2.339274 0 0 0 2.086105,-1.301114 2.3279998,2.339274 0 0 1 -1.269738,0.378686 2.3279998,2.339274 0 0 1 -2.327977,-2.339274 2.3279998,2.339274 0 0 1 0.241872,-1.038538 z" />
    <path
       id="path1"
       style="fill:#0a4300;fill-opacity:1;stroke:none;stroke-width:0.811731;stroke-dasharray:none"
       d="M 24.039435,0.88839199 C 23.842519,2.2132287 23.130287,3.3306681 22.158614,4.4118989 c -1.380692,1.5364893 -2.47422,3.0321335 -4.2693,2.9928514 -0.673517,1.5364864 1.372237,2.553334 2.020396,1.263953 2.065666,-4.1092342 3.883984,-6.3359402 5.219171,-5.7873794 0.790414,0.3247411 0.64104,-1.2386917 -1.089446,-1.99293191 z"
       sodipodi:nodetypes="ccccsc" />
    <ellipse
       style="fill:#106800;fill-opacity:1;stroke:none;stroke-width:0.939197;stroke-dasharray:none"
       id="ellipse8"
       cx="2.9350598"
       cy="12.957037"
       rx="0.71594566"
       ry="1.4451494"
       transform="rotate(-44.831207)" />
    <ellipse
       style="fill:#4aff0d;fill-opacity:1;stroke:#072c00;stroke-width:1.12667;stroke-dasharray:none;stroke-opacity:1"
       id="ellipse29"
       cx="14.503464"
       cy="8.5461845"
       rx="3.2081032"
       ry="3.1858535" />
    <path
       id="path29"
       style="fill:#106800;fill-opacity:1;stroke:none;stroke-width:0.822416;stroke-dasharray:none;stroke-opacity:1"
       d="M 13.159802,6.6069781 A 2.3279998,2.339274 0 0 0 12.101563,8.5679452 2.3279998,2.339274 0 0 0 14.42954,10.907218 2.3279998,2.339274 0 0 0 16.515645,9.6061042 2.3279998,2.339274 0 0 1 15.245907,9.9847902 2.3279998,2.339274 0 0 1 12.91793,7.6455167 2.3279998,2.339274 0 0 1 13.159802,6.6069781 Z" />
    <g
       id="g31"
       transform="translate(17.1,0.22083315)">
      <ellipse
         style="fill:#4aff0d;fill-opacity:1;stroke:#072c00;stroke-width:1.12667;stroke-dasharray:none;stroke-opacity:1"
         id="ellipse30"
         cx="4.2659636"
         cy="10.800351"
         rx="3.2081032"
         ry="3.1858535" />
      <path
         id="path30"
         style="fill:#106800;fill-opacity:1;stroke:none;stroke-width:0.822416;stroke-dasharray:none;stroke-opacity:1"
         d="M 2.9223024,8.8611449 A 2.3279998,2.339274 0 0 0 1.8640625,10.822112 2.3279998,2.339274 0 0 0 4.1920402,13.161385 2.3279998,2.339274 0 0 0 6.2781452,11.860271 2.3279998,2.339274 0 0 1 5.0084074,12.238957 2.3279998,2.339274 0 0 1 2.6804297,9.8996835 2.3279998,2.339274 0 0 1 2.9223024,8.8611449 Z" />
    </g>
    <ellipse
       style="fill:#106800;fill-opacity:1;stroke:#072c00;stroke-width:1.12667;stroke-dasharray:none;stroke-opacity:1"
       id="ellipse33"
       cx="18.778463"
       cy="21.183683"
       rx="3.2081032"
       ry="3.1858535" />
    <ellipse
       style="fill:#4aff0d;fill-opacity:1;stroke:#072c00;stroke-width:1.12667;stroke-dasharray:none;stroke-opacity:1"
       id="ellipse31"
       cx="20.015965"
       cy="17.096184"
       rx="3.2081032"
       ry="3.1858535" />
    <path
       id="path31"
       style="fill:#106800;fill-opacity:1;stroke:none;stroke-width:0.822416;stroke-dasharray:none;stroke-opacity:1"
       d="m 18.672302,15.156978 a 2.3279998,2.339274 0 0 0 -1.05824,1.960967 2.3279998,2.339274 0 0 0 2.327978,2.339273 2.3279998,2.339274 0 0 0 2.086105,-1.301114 2.3279998,2.339274 0 0 1 -1.269738,0.378686 2.3279998,2.339274 0 0 1 -2.327977,-2.339273 2.3279998,2.339274 0 0 1 0.241872,-1.038539 z" />
    <path
       id="path15"
       style="fill:#072c00;fill-opacity:1;stroke:none;stroke-width:0.822416;stroke-dasharray:none;stroke-opacity:1"
       d="m 17.667608,19.175801 a 2.3279998,2.339274 0 0 0 -1.058239,1.960967 2.3279998,2.339274 0 0 0 2.327977,2.339273 2.3279998,2.339274 0 0 0 2.086105,-1.301114 2.3279998,2.339274 0 0 1 -1.269738,0.378686 2.3279998,2.339274 0 0 1 -2.327977,-2.339274 2.3279998,2.339274 0 0 1 0.241872,-1.038538 z" />
    <g
       id="g33"
       transform="translate(11.325,9.2208331)">
      <ellipse
         style="fill:#4aff0d;fill-opacity:1;stroke:#072c00;stroke-width:1.12667;stroke-dasharray:none;stroke-opacity:1"
         id="ellipse32"
         cx="4.2659636"
         cy="10.800351"
         rx="3.2081032"
         ry="3.1858535" />
      <path
         id="path32"
         style="fill:#106800;fill-opacity:1;stroke:none;stroke-width:0.822416;stroke-dasharray:none;stroke-opacity:1"
         d="M 2.9223024,8.8611449 A 2.3279998,2.339274 0 0 0 1.8640625,10.822112 2.3279998,2.339274 0 0 0 4.1920402,13.161385 2.3279998,2.339274 0 0 0 6.2781452,11.860271 2.3279998,2.339274 0 0 1 5.0084074,12.238957 2.3279998,2.339274 0 0 1 2.6804297,9.8996835 2.3279998,2.339274 0 0 1 2.9223024,8.8611449 Z" />
    </g>
    <ellipse
       style="fill:#ffffff;fill-opacity:1;stroke:none;stroke-width:0.939197;stroke-dasharray:none"
       id="path4"
       cx="5.719769"
       cy="16.248846"
       rx="0.71594566"
       ry="1.4451494"
       transform="rotate(-44.831207)" />
    <ellipse
       style="fill:#ffffff;fill-opacity:1;stroke:none;stroke-width:0.939197;stroke-dasharray:none"
       id="ellipse5"
       cx="-1.8665154"
       cy="25.158733"
       rx="0.71594566"
       ry="1.4451494"
       transform="rotate(-44.831207)" />
    <ellipse
       style="fill:#ffffff;fill-opacity:1;stroke:none;stroke-width:0.939197;stroke-dasharray:none"
       id="ellipse6"
       cx="3.386776"
       cy="26.268263"
       rx="0.71594566"
       ry="1.4451494"
       transform="rotate(-44.831207)" />
    <ellipse
       style="fill:#ffffff;fill-opacity:1;stroke:none;stroke-width:0.939197;stroke-dasharray:none"
       id="ellipse7"
       cx="8.8520308"
       cy="22.952148"
       rx="0.71594566"
       ry="1.4451494"
       transform="rotate(-44.831207)" />
    <ellipse
       style="fill:#ffffff;fill-opacity:1;stroke:none;stroke-width:0.939197;stroke-dasharray:none"
       id="ellipse10"
       cx="-7.9317183"
       cy="15.764061"
       rx="0.71594566"
       ry="1.4451494"
       transform="rotate(-44.831207)" />
    <path
       id="path14"
       style="fill:#072c00;fill-opacity:1;stroke:none;stroke-width:0.822416;stroke-dasharray:none;stroke-opacity:1"
       d="m 7.1670721,20.236461 a 2.3279998,2.339274 0 0 0 -1.058239,1.960967 2.3279998,2.339274 0 0 0 2.327977,2.339273 2.3279998,2.339274 0 0 0 2.0861049,-1.301114 2.3279998,2.339274 0 0 1 -1.2697379,0.378686 2.3279998,2.339274 0 0 1 -2.327977,-2.339274 2.3279998,2.339274 0 0 1 0.241872,-1.038538 z" />
  </g>
</svg>
