<?xml version="1.0" encoding="UTF-8" standalone="no"?>
<!-- Created with Inkscape (http://www.inkscape.org/) -->

<svg
   width="100"
   height="100"
   viewBox="0 0 26.458333 26.458333"
   version="1.1"
   id="svg1"
   inkscape:version="1.4.2 (ebf0e940d0, 2025-05-08)"
   sodipodi:docname="health_fruit.svg"
   xmlns:inkscape="http://www.inkscape.org/namespaces/inkscape"
   xmlns:sodipodi="http://sodipodi.sourceforge.net/DTD/sodipodi-0.dtd"
   xmlns="http://www.w3.org/2000/svg"
   xmlns:svg="http://www.w3.org/2000/svg">
  <sodipodi:namedview
     id="namedview1"
     pagecolor="#505050"
     bordercolor="#eeeeee"
     borderopacity="1"
     inkscape:showpageshadow="0"
     inkscape:pageopacity="0"
     inkscape:pagecheckerboard="0"
     inkscape:deskcolor="#505050"
     inkscape:document-units="px"
     inkscape:zoom="3.5277778"
     inkscape:cx="27.92126"
     inkscape:cy="43.795276"
     inkscape:window-width="1366"
     inkscape:window-height="697"
     inkscape:window-x="0"
     inkscape:window-y="0"
     inkscape:window-maximized="1"
     inkscape:current-layer="layer1" />
  <defs
     id="defs1">
    <inkscape:perspective
       sodipodi:type="inkscape:persp3d"
       inkscape:vp_x="4.5 : 12.929166 : 1"
       inkscape:vp_y="0 : 1000 : 0"
       inkscape:vp_z="30.958333 : 12.929166 : 1"
       inkscape:persp3d-origin="17.729166 : 8.5194443 : 1"
       id="perspective1" />
  </defs>
  <g
     inkscape:label="Camada 1"
     inkscape:groupmode="layer"
     id="layer1">
    <rect
       style="fill:#fff503;fill-opacity:1;stroke:#072c00;stroke-width:0.561957;stroke-dasharray:none;stroke-opacity:1"
       id="rect35"
       width="9.3119669"
       height="3.0434761"
       x="5.4211841"
       y="17.496805"
       ry="1.2296873"
       transform="matrix(0.64603537,-0.76330747,0.72441369,0.6893655,0,0)" />
    <g
       id="g35"
       transform="matrix(1.0081269,0,0,0.90224659,10.690331,12.484937)">
      <ellipse
         style="fill:#4aff0d;fill-opacity:1;stroke:#072c00;stroke-width:1.12667;stroke-dasharray:none;stroke-opacity:1"
         id="ellipse34"
         cx="4.2659636"
         cy="10.800351"
         rx="3.2081032"
         ry="3.1858535" />
      <path
         id="path34"
         style="fill:#106800;fill-opacity:1;stroke:none;stroke-width:0.822416;stroke-dasharray:none;stroke-opacity:1"
         d="M 2.9223024,8.8611449 A 2.3279998,2.339274 0 0 0 1.8640625,10.822112 2.3279998,2.339274 0 0 0 4.1920402,13.161385 2.3279998,2.339274 0 0 0 6.2781452,11.860271 2.3279998,2.339274 0 0 1 5.0084074,12.238957 2.3279998,2.339274 0 0 1 2.6804297,9.8996835 2.3279998,2.339274 0 0 1 2.9223024,8.8611449 Z" />
    </g>
    <g
       id="g23"
       transform="translate(0.59999999,1.05)">
      <ellipse
         style="fill:#4aff0d;fill-opacity:1;stroke:#072c00;stroke-width:1.12667;stroke-dasharray:none;stroke-opacity:1"
         id="ellipse12"
         cx="4.2659636"
         cy="10.800351"
         rx="3.2081032"
         ry="3.1858535" />
      <path
         id="ellipse22"
         style="fill:#106800;fill-opacity:1;stroke:none;stroke-width:0.822416;stroke-dasharray:none;stroke-opacity:1"
         d="M 2.9223024,8.8611449 A 2.3279998,2.339274 0 0 0 1.8640625,10.822112 2.3279998,2.339274 0 0 0 4.1920402,13.161385 2.3279998,2.339274 0 0 0 6.2781452,11.860271 2.3279998,2.339274 0 0 1 5.0084074,12.238957 2.3279998,2.339274 0 0 1 2.6804297,9.8996835 2.3279998,2.339274 0 0 1 2.9223024,8.8611449 Z" />
    </g>
    <g
       id="g24"
       transform="translate(6.2999999,-2.5541667)">
      <ellipse
         style="fill:#4aff0d;fill-opacity:1;stroke:#072c00;stroke-width:1.12667;stroke-dasharray:none;stroke-opacity:1"
         id="ellipse23"
         cx="4.2659636"
         cy="10.800351"
         rx="3.2081032"
         ry="3.1858535" />
      <path
         id="path23"
         style="fill:#106800;fill-opacity:1;stroke:none;stroke-width:0.822416;stroke-dasharray:none;stroke-opacity:1"
         d="M 2.9223024,8.8611449 A 2.3279998,2.339274 0 0 0 1.8640625,10.822112 2.3279998,2.339274 0 0 0 4.1920402,13.161385 2.3279998,2.339274 0 0 0 6.2781452,11.860271 2.3279998,2.339274 0 0 1 5.0084074,12.238957 2.3279998,2.339274 0 0 1 2.6804297,9.8996835 2.3279998,2.339274 0 0 1 2.9223024,8.8611449 Z" />
    </g>
    <g
       id="g25"
       transform="translate(4.7249999,2.6208332)">
      <ellipse
         style="fill:#4aff0d;fill-opacity:1;stroke:#072c00;stroke-width:1.12667;stroke-dasharray:none;stroke-opacity:1"
         id="ellipse24"
         cx="4.2659636"
         cy="10.800351"
         rx="3.2081032"
         ry="3.1858535" />
      <path
         id="path24"
         style="fill:#106800;fill-opacity:1;stroke:none;stroke-width:0.822416;stroke-dasharray:none;stroke-opacity:1"
         d="M 2.9223024,8.8611449 A 2.3279998,2.339274 0 0 0 1.8640625,10.822112 2.3279998,2.339274 0 0 0 4.1920402,13.161385 2.3279998,2.339274 0 0 0 6.2781452,11.860271 2.3279998,2.339274 0 0 1 5.0084074,12.238957 2.3279998,2.339274 0 0 1 2.6804297,9.8996835 2.3279998,2.339274 0 0 1 2.9223024,8.8611449 Z" />
    </g>
    <g
       id="g26"
       transform="translate(0.14999995,6.9708332)">
      <ellipse
         style="fill:#4aff0d;fill-opacity:1;stroke:#072c00;stroke-width:1.12667;stroke-dasharray:none;stroke-opacity:1"
         id="ellipse25"
         cx="4.2659636"
         cy="10.800351"
         rx="3.2081032"
         ry="3.1858535" />
      <path
         id="path25"
         style="fill:#106800;fill-opacity:1;stroke:none;stroke-width:0.822416;stroke-dasharray:none;stroke-opacity:1"
         d="M 2.9223024,8.8611449 A 2.3279998,2.339274 0 0 0 1.8640625,10.822112 2.3279998,2.339274 0 0 0 4.1920402,13.161385 2.3279998,2.339274 0 0 0 6.2781452,11.860271 2.3279998,2.339274 0 0 1 5.0084074,12.238957 2.3279998,2.339274 0 0 1 2.6804297,9.8996835 2.3279998,2.339274 0 0 1 2.9223024,8.8611449 Z" />
    </g>
    <g
       id="g27"
       transform="translate(4.1249999,11.545833)">
      <ellipse
         style="fill:#4aff0d;fill-opacity:1;stroke:#072c00;stroke-width:1.12667;stroke-dasharray:none;stroke-opacity:1"
         id="ellipse26"
         cx="4.2659636"
         cy="10.800351"
         rx="3.2081032"
         ry="3.1858535" />
      <path
         id="path26"
         style="fill:#106800;fill-opacity:1;stroke:none;stroke-width:0.822416;stroke-dasharray:none;stroke-opacity:1"
         d="M 2.9223024,8.8611449 A 2.3279998,2.339274 0 0 0 1.8640625,10.822112 2.3279998,2.339274 0 0 0 4.1920402,13.161385 2.3279998,2.339274 0 0 0 6.2781452,11.860271 2.3279998,2.339274 0 0 1 5.0084074,12.238957 2.3279998,2.339274 0 0 1 2.6804297,9.8996835 2.3279998,2.339274 0 0 1 2.9223024,8.8611449 Z" />
    </g>
    <g
       id="g28"
       transform="translate(6.9749999,7.570833)">
      <ellipse
         style="fill:#4aff0d;fill-opacity:1;stroke:#072c00;stroke-width:1.12667;stroke-dasharray:none;stroke-opacity:1"
         id="ellipse27"
         cx="4.2659636"
         cy="10.800351"
         rx="3.2081032"
         ry="3.1858535" />
      <path
         id="path27"
         style="fill:#106800;fill-opacity:1;stroke:none;stroke-width:0.822416;stroke-dasharray:none;stroke-opacity:1"
         d="M 2.9223024,8.8611449 A 2.3279998,2.339274 0 0 0 1.8640625,10.822112 2.3279998,2.339274 0 0 0 4.1920402,13.161385 2.3279998,2.339274 0 0 0 6.2781452,11.860271 2.3279998,2.339274 0 0 1 5.0084074,12.238957 2.3279998,2.339274 0 0 1 2.6804297,9.8996835 2.3279998,2.339274 0 0 1 2.9223024,8.8611449 Z" />
    </g>
    <g
       id="g29"
       transform="translate(10.725,2.3208331)">
      <ellipse
         style="fill:#4aff0d;fill-opacity:1;stroke:#072c00;stroke-width:1.12667;stroke-dasharray:none;stroke-opacity:1"
         id="ellipse28"
         cx="4.2659636"
         cy="10.800351"
         rx="3.2081032"
         ry="3.1858535" />
      <path
         id="path28"
         style="fill:#106800;fill-opacity:1;stroke:none;stroke-width:0.822416;stroke-dasharray:none;stroke-opacity:1"
         d="M 2.9223024,8.8611449 A 2.3279998,2.339274 0 0 0 1.8640625,10.822112 2.3279998,2.339274 0 0 0 4.1920402,13.161385 2.3279998,2.339274 0 0 0 6.2781452,11.860271 2.3279998,2.339274 0 0 1 5.0084074,12.238957 2.3279998,2.339274 0 0 1 2.6804297,9.8996835 2.3279998,2.339274 0 0 1 2.9223024,8.8611449 Z" />
    </g>
    <g
       id="g30"
       transform="translate(10.2375,-2.2541668)">
      <ellipse
         style="fill:#4aff0d;fill-opacity:1;stroke:#072c00;stroke-width:1.12667;stroke-dasharray:none;stroke-opacity:1"
         id="ellipse29"
         cx="4.2659636"
         cy="10.800351"
         rx="3.2081032"
         ry="3.1858535" />
      <path
         id="path29"
         style="fill:#106800;fill-opacity:1;stroke:none;stroke-width:0.822416;stroke-dasharray:none;stroke-opacity:1"
         d="M 2.9223024,8.8611449 A 2.3279998,2.339274 0 0 0 1.8640625,10.822112 2.3279998,2.339274 0 0 0 4.1920402,13.161385 2.3279998,2.339274 0 0 0 6.2781452,11.860271 2.3279998,2.339274 0 0 1 5.0084074,12.238957 2.3279998,2.339274 0 0 1 2.6804297,9.8996835 2.3279998,2.339274 0 0 1 2.9223024,8.8611449 Z" />
    </g>
    <g
       id="g31"
       transform="translate(17.1,0.22083315)">
      <ellipse
         style="fill:#4aff0d;fill-opacity:1;stroke:#072c00;stroke-width:1.12667;stroke-dasharray:none;stroke-opacity:1"
         id="ellipse30"
         cx="4.2659636"
         cy="10.800351"
         rx="3.2081032"
         ry="3.1858535" />
      <path
         id="path30"
         style="fill:#106800;fill-opacity:1;stroke:none;stroke-width:0.822416;stroke-dasharray:none;stroke-opacity:1"
         d="M 2.9223024,8.8611449 A 2.3279998,2.339274 0 0 0 1.8640625,10.822112 2.3279998,2.339274 0 0 0 4.1920402,13.161385 2.3279998,2.339274 0 0 0 6.2781452,11.860271 2.3279998,2.339274 0 0 1 5.0084074,12.238957 2.3279998,2.339274 0 0 1 2.6804297,9.8996835 2.3279998,2.339274 0 0 1 2.9223024,8.8611449 Z" />
    </g>
    <g
       id="g34"
       transform="translate(15.45,11.695833)">
      <ellipse
         style="fill:#4aff0d;fill-opacity:1;stroke:#072c00;stroke-width:1.12667;stroke-dasharray:none;stroke-opacity:1"
         id="ellipse33"
         cx="4.2659636"
         cy="10.800351"
         rx="3.2081032"
         ry="3.1858535" />
      <path
         id="path33"
         style="fill:#106800;fill-opacity:1;stroke:none;stroke-width:0.822416;stroke-dasharray:none;stroke-opacity:1"
         d="M 2.9223024,8.8611449 A 2.3279998,2.339274 0 0 0 1.8640625,10.822112 2.3279998,2.339274 0 0 0 4.1920402,13.161385 2.3279998,2.339274 0 0 0 6.2781452,11.860271 2.3279998,2.339274 0 0 1 5.0084074,12.238957 2.3279998,2.339274 0 0 1 2.6804297,9.8996835 2.3279998,2.339274 0 0 1 2.9223024,8.8611449 Z" />
    </g>
    <g
       id="g32"
       transform="translate(15.75,6.2958331)">
      <ellipse
         style="fill:#4aff0d;fill-opacity:1;stroke:#072c00;stroke-width:1.12667;stroke-dasharray:none;stroke-opacity:1"
         id="ellipse31"
         cx="4.2659636"
         cy="10.800351"
         rx="3.2081032"
         ry="3.1858535" />
      <path
         id="path31"
         style="fill:#106800;fill-opacity:1;stroke:none;stroke-width:0.822416;stroke-dasharray:none;stroke-opacity:1"
         d="M 2.9223024,8.8611449 A 2.3279998,2.339274 0 0 0 1.8640625,10.822112 2.3279998,2.339274 0 0 0 4.1920402,13.161385 2.3279998,2.339274 0 0 0 6.2781452,11.860271 2.3279998,2.339274 0 0 1 5.0084074,12.238957 2.3279998,2.339274 0 0 1 2.6804297,9.8996835 2.3279998,2.339274 0 0 1 2.9223024,8.8611449 Z" />
    </g>
    <g
       id="g33"
       transform="translate(11.325,9.2208331)">
      <ellipse
         style="fill:#4aff0d;fill-opacity:1;stroke:#072c00;stroke-width:1.12667;stroke-dasharray:none;stroke-opacity:1"
         id="ellipse32"
         cx="4.2659636"
         cy="10.800351"
         rx="3.2081032"
         ry="3.1858535" />
      <path
         id="path32"
         style="fill:#106800;fill-opacity:1;stroke:none;stroke-width:0.822416;stroke-dasharray:none;stroke-opacity:1"
         d="M 2.9223024,8.8611449 A 2.3279998,2.339274 0 0 0 1.8640625,10.822112 2.3279998,2.339274 0 0 0 4.1920402,13.161385 2.3279998,2.339274 0 0 0 6.2781452,11.860271 2.3279998,2.339274 0 0 1 5.0084074,12.238957 2.3279998,2.339274 0 0 1 2.6804297,9.8996835 2.3279998,2.339274 0 0 1 2.9223024,8.8611449 Z" />
    </g>
  </g>
</svg>
