<?xml version="1.0" encoding="UTF-8" standalone="no"?>
<!-- Created with Inkscape (http://www.inkscape.org/) -->

<svg
   width="100"
   height="100"
   viewBox="0 0 26.458333 26.458333"
   version="1.1"
   id="svg1"
   inkscape:version="1.4.2 (ebf0e940d0, 2025-05-08)"
   sodipodi:docname="escudo_fantasma.svg"
   xml:space="preserve"
   xmlns:inkscape="http://www.inkscape.org/namespaces/inkscape"
   xmlns:sodipodi="http://sodipodi.sourceforge.net/DTD/sodipodi-0.dtd"
   xmlns:xlink="http://www.w3.org/1999/xlink"
   xmlns="http://www.w3.org/2000/svg"
   xmlns:svg="http://www.w3.org/2000/svg"><sodipodi:namedview
     id="namedview1"
     pagecolor="#505050"
     bordercolor="#eeeeee"
     borderopacity="1"
     inkscape:showpageshadow="0"
     inkscape:pageopacity="0"
     inkscape:pagecheckerboard="0"
     inkscape:deskcolor="#505050"
     inkscape:document-units="px"
     inkscape:zoom="7.0555556"
     inkscape:cx="57.472441"
     inkscape:cy="68.811023"
     inkscape:window-width="1366"
     inkscape:window-height="697"
     inkscape:window-x="0"
     inkscape:window-y="0"
     inkscape:window-maximized="1"
     inkscape:current-layer="layer1" /><defs
     id="defs1"><linearGradient
       id="linearGradient3"
       inkscape:collect="always"><stop
         style="stop-color:#2800b8;stop-opacity:1;"
         offset="0"
         id="stop4" /><stop
         style="stop-color:#9109ff;stop-opacity:1;"
         offset="1"
         id="stop5" /></linearGradient><linearGradient
       id="linearGradient13895"
       inkscape:swatch="solid"><stop
         style="stop-color:#000000;stop-opacity:1;"
         offset="0"
         id="stop13893" /></linearGradient><filter
       style="color-interpolation-filters:sRGB"
       inkscape:label="Clean Edges"
       id="filter14269"
       x="-0.31154084"
       y="-0.29580635"
       width="1.6230817"
       height="1.5916127"><feGaussianBlur
         stdDeviation="0.204612"
         result="blur"
         id="feGaussianBlur14263" /><feComposite
         in="SourceGraphic"
         in2="blur"
         operator="in"
         result="composite1"
         id="feComposite14265" /><feComposite
         in="composite1"
         in2="composite1"
         operator="in"
         result="composite2"
         id="feComposite14267" /></filter><filter
       style="color-interpolation-filters:sRGB"
       inkscape:label="Clean Edges"
       id="filter14269-3"
       x="-0.31154084"
       y="-0.29580635"
       width="1.6230817"
       height="1.5916127"><feGaussianBlur
         stdDeviation="0.204612"
         result="blur"
         id="feGaussianBlur14263-5" /><feComposite
         in="SourceGraphic"
         in2="blur"
         operator="in"
         result="composite1"
         id="feComposite14265-6" /><feComposite
         in="composite1"
         in2="composite1"
         operator="in"
         result="composite2"
         id="feComposite14267-2" /></filter><filter
       style="color-interpolation-filters:sRGB"
       inkscape:label="Clean Edges"
       id="filter14269-35"
       x="-0.31154084"
       y="-0.29580635"
       width="1.6230817"
       height="1.5916127"><feGaussianBlur
         stdDeviation="0.204612"
         result="blur"
         id="feGaussianBlur14263-6" /><feComposite
         in="SourceGraphic"
         in2="blur"
         operator="in"
         result="composite1"
         id="feComposite14265-2" /><feComposite
         in="composite1"
         in2="composite1"
         operator="in"
         result="composite2"
         id="feComposite14267-9" /></filter><filter
       style="color-interpolation-filters:sRGB"
       inkscape:label="Clean Edges"
       id="filter14269-3-1"
       x="-0.31154084"
       y="-0.29580635"
       width="1.6230817"
       height="1.5916127"><feGaussianBlur
         stdDeviation="0.204612"
         result="blur"
         id="feGaussianBlur14263-5-2" /><feComposite
         in="SourceGraphic"
         in2="blur"
         operator="in"
         result="composite1"
         id="feComposite14265-6-7" /><feComposite
         in="composite1"
         in2="composite1"
         operator="in"
         result="composite2"
         id="feComposite14267-2-0" /></filter><filter
       style="color-interpolation-filters:sRGB;"
       inkscape:label="Clean Edges"
       id="filter14269-2"
       x="-0.31154084"
       y="-0.29580634"
       width="1.6230817"
       height="1.5916127"><feGaussianBlur
         stdDeviation="0.204612"
         result="blur"
         id="feGaussianBlur14263-61" /><feComposite
         in="SourceGraphic"
         in2="blur"
         operator="in"
         result="composite1"
         id="feComposite14265-8" /><feComposite
         in="composite1"
         in2="composite1"
         operator="in"
         result="composite2"
         id="feComposite14267-7" /></filter><filter
       style="color-interpolation-filters:sRGB"
       inkscape:label="Clean Edges"
       id="filter14269-356"
       x="-0.31154084"
       y="-0.29580635"
       width="1.6230817"
       height="1.5916127"><feGaussianBlur
         stdDeviation="0.204612"
         result="blur"
         id="feGaussianBlur14263-2" /><feComposite
         in="SourceGraphic"
         in2="blur"
         operator="in"
         result="composite1"
         id="feComposite14265-9" /><feComposite
         in="composite1"
         in2="composite1"
         operator="in"
         result="composite2"
         id="feComposite14267-1" /></filter><filter
       style="color-interpolation-filters:sRGB"
       inkscape:label="Clean Edges"
       id="filter14269-3-2"
       x="-0.31154084"
       y="-0.29580635"
       width="1.6230817"
       height="1.5916127"><feGaussianBlur
         stdDeviation="0.204612"
         result="blur"
         id="feGaussianBlur14263-5-7" /><feComposite
         in="SourceGraphic"
         in2="blur"
         operator="in"
         result="composite1"
         id="feComposite14265-6-0" /><feComposite
         in="composite1"
         in2="composite1"
         operator="in"
         result="composite2"
         id="feComposite14267-2-9" /></filter><filter
       style="color-interpolation-filters:sRGB;"
       inkscape:label="Drop Shadow"
       id="filter11"
       x="0"
       y="0"
       width="1.1476577"
       height="1.172567"><feFlood
         result="flood"
         in="SourceGraphic"
         flood-opacity="0.498039"
         flood-color="rgb(0,0,0)"
         id="feFlood10" /><feGaussianBlur
         result="blur"
         in="SourceGraphic"
         stdDeviation="0.000000"
         id="feGaussianBlur10" /><feOffset
         result="offset"
         in="blur"
         dx="3.344354"
         dy="4.172646"
         id="feOffset10" /><feComposite
         result="comp1"
         operator="in"
         in="flood"
         in2="offset"
         id="feComposite10" /><feComposite
         result="comp2"
         operator="atop"
         in="comp1"
         in2="comp1"
         id="feComposite11" /></filter><filter
       style="color-interpolation-filters:sRGB;"
       inkscape:label="Blur"
       id="filter22"
       x="-0.0071896148"
       y="-0.083828243"
       width="1.0143792"
       height="1.1676565"><feGaussianBlur
         stdDeviation="0.0756545 0.91519"
         result="blur"
         id="feGaussianBlur22" /></filter><filter
       style="color-interpolation-filters:sRGB;"
       inkscape:label="Clean Edges"
       id="filter14269-35-3"
       x="-0.31154084"
       y="-0.29580634"
       width="1.6230817"
       height="1.5916127"><feGaussianBlur
         stdDeviation="0.204612"
         result="blur"
         id="feGaussianBlur14263-6-6" /><feComposite
         in="SourceGraphic"
         in2="blur"
         operator="in"
         result="composite1"
         id="feComposite14265-2-0" /><feComposite
         in="composite1"
         in2="composite1"
         operator="in"
         result="composite2"
         id="feComposite14267-9-6" /></filter><linearGradient
       inkscape:collect="always"
       xlink:href="#linearGradient3"
       id="linearGradient5"
       x1="4.78161"
       y1="21.505907"
       x2="23.260338"
       y2="7.0309072"
       gradientUnits="userSpaceOnUse" /></defs><g
     inkscape:label="Camada 1"
     inkscape:groupmode="layer"
     id="layer1"><path
       id="path3"
       style="fill:url(#linearGradient5);fill-opacity:1;stroke:#12014c;stroke-width:1.34846;stroke-dasharray:none;stroke-opacity:1"
       d="M 2.45584,2.7607341 V 10.845665 C 2.5803808,18.116622 2.8249478,24.756985 13.254005,25.526456 23.743344,24.78672 23.919408,18.126667 24.161108,10.845665 V 2.7607341 c -7.23509,1.2405249 -14.4701788,1.2559883 -21.705268,0 z"
       sodipodi:nodetypes="cccccc" /><path
       id="rect1"
       style="fill:#dcb0ff;fill-opacity:0.198945;stroke:none;stroke-width:2.71235;stroke-opacity:1"
       d="M 22.971506,3.9436019 C 18.421038,4.9197056 13.930991,4.8561637 9.3443364,4.6102278 9.222597,5.3776992 9.0943791,6.5946867 9.117576,7.3743244 9.303372,13.642145 14.058319,18.586813 19.73829,18.418798 c 1.07321,-0.03165 1.834189,-0.341917 2.84471,-0.736025 0.309893,-1.927095 0.608925,-3.98313 0.611944,-6.193583 z"
       sodipodi:nodetypes="ccccccc" /><path
       id="path7"
       style="fill:#12014c;stroke-width:0.664633"
       d="m 12.380112,11.862199 c 0,1.693098 -0.919215,3.065625 -2.053125,3.065625 -1.1339095,0 -2.0531246,-1.372527 -2.0531246,-3.065625 -1e-7,-4.0085863 4.1062496,-4.0085873 4.1062496,0 z"
       sodipodi:nodetypes="ssss" /><ellipse
       style="fill:#12014c;fill-opacity:1;stroke:none;stroke-width:0.691092;stroke-dasharray:none;stroke-opacity:1"
       id="ellipse5"
       cx="15.908053"
       cy="11.646297"
       rx="2.0531249"
       ry="3.065625" /><path
       id="path3-2"
       style="fill:#734bff;fill-opacity:0.770965;stroke:#6d00c5;stroke-width:0.886118;stroke-linecap:round;stroke-linejoin:round;stroke-opacity:1"
       d="m 6.729135,8.5407644 c 0,1.4954266 -0.8375589,2.7077076 -1.8707419,2.7077076 -1.0331821,0 -1.870741,-1.212281 -1.870741,-2.7077076 -1e-6,-1.4954264 0.8091946,-2.0400979 1.8423776,-2.0400979 1.0331831,0 1.8991053,0.5446715 1.8991053,2.0400979 z"
       sodipodi:nodetypes="sssss" /><path
       id="path4"
       style="fill:#734bff;fill-opacity:0.57017;stroke:#3202da;stroke-width:0.886118;stroke-linecap:round;stroke-linejoin:round"
       d="m 24.257673,22.707256 c 0,1.495427 -0.837559,2.707708 -1.870742,2.707708 -1.033182,0 -1.870741,-1.212281 -1.870741,-2.707708 -2e-6,-1.495427 0.809194,-2.040098 1.842377,-2.040098 1.033184,0 1.899106,0.544671 1.899106,2.040098 z"
       sodipodi:nodetypes="sssss" /><path
       id="path5"
       style="fill:#734bff;fill-opacity:0.57017;stroke:#6d00c5;stroke-width:0.478179;stroke-linecap:round;stroke-linejoin:round;stroke-opacity:1"
       d="m 21.545585,16.624039 c 0,0.828707 -0.440127,1.500507 -0.983053,1.500507 -0.542925,0 -0.983052,-0.6718 -0.983052,-1.500507 -1e-6,-0.828708 0.425222,-1.130544 0.968147,-1.130544 0.542926,0 0.997958,0.301836 0.997958,1.130544 z"
       sodipodi:nodetypes="sssss" /><path
       id="path6"
       style="fill:#734bff;fill-opacity:0.57017;stroke:#6d00c5;stroke-width:0.478179;stroke-linecap:round;stroke-linejoin:round;stroke-opacity:1"
       d="m 25.766743,7.0783773 c 0,0.8287069 -0.440127,1.5005067 -0.983053,1.5005067 -0.542925,0 -0.983052,-0.6717998 -0.983052,-1.5005067 -1e-6,-0.8287078 0.425222,-1.1305436 0.968147,-1.1305436 0.542926,0 0.997958,0.3018358 0.997958,1.1305436 z"
       sodipodi:nodetypes="sssss" /><path
       id="path9"
       style="fill:#734bff;fill-opacity:0.57017;stroke:#3202da;stroke-width:0.506127;stroke-linecap:round;stroke-linejoin:round"
       d="m 10.297854,23.878673 c 0,0.878044 -0.4653732,1.589839 -1.0394402,1.589839 -0.574066,0 -1.0394389,-0.711795 -1.0394389,-1.589839 -10e-7,-0.878044 0.449612,-1.197849 1.023679,-1.197849 0.574067,0 1.0552001,0.319805 1.0552001,1.197849 z"
       sodipodi:nodetypes="sssss" /><path
       id="path11"
       style="fill:#734bff;fill-opacity:0.57017;stroke:#6d00c5;stroke-width:0.506127;stroke-linecap:round;stroke-linejoin:round;stroke-opacity:1"
       d="m 4.5027045,14.697814 c 0,0.878043 -0.465373,1.589838 -1.03944,1.589838 -0.574066,0 -1.0394389,-0.711795 -1.0394389,-1.589838 -10e-7,-0.878045 0.449612,-1.19785 1.023679,-1.19785 0.574067,0 1.0551999,0.319805 1.0551999,1.19785 z"
       sodipodi:nodetypes="sssss" /><path
       id="path12"
       style="fill:#734bff;fill-opacity:0.57017;stroke:#3202da;stroke-width:0.338432;stroke-linecap:round;stroke-linejoin:round"
       d="m 4.5936602,23.032744 c 0,0.582027 -0.3139044,1.053854 -0.7011244,1.053854 -0.3872199,0 -0.7011243,-0.471827 -0.7011243,-1.053854 -1e-6,-0.58203 0.3032728,-0.794018 0.6904937,-0.794018 0.3872199,0 0.711755,0.211988 0.711755,0.794018 z"
       sodipodi:nodetypes="sssss" /><path
       id="path13"
       style="fill:#734bff;fill-opacity:0.57017;stroke:#3202da;stroke-width:0.338432;stroke-linecap:round;stroke-linejoin:round"
       d="m 8.1709128,16.709503 c 0,0.582027 -0.3139044,1.053854 -0.7011253,1.053854 -0.3872199,0 -0.7011234,-0.471827 -0.7011234,-1.053854 -9e-7,-0.58203 0.3032728,-0.794018 0.6904937,-0.794018 0.38722,0 0.711755,0.211988 0.711755,0.794018 z"
       sodipodi:nodetypes="sssss" /><path
       id="path14"
       style="fill:#734bff;fill-opacity:0.57017;stroke:#6d00c5;stroke-width:0.338432;stroke-linecap:round;stroke-linejoin:round;stroke-opacity:1"
       d="m 24.411639,11.480669 c 0,0.582027 -0.313904,1.053854 -0.701124,1.053854 -0.38722,0 -0.701124,-0.471827 -0.701124,-1.053854 -1e-6,-0.58203 0.303273,-0.794018 0.690493,-0.794018 0.387221,0 0.711755,0.211988 0.711755,0.794018 z"
       sodipodi:nodetypes="sssss" /><ellipse
       style="fill:#ffffff;fill-opacity:1;stroke:none;stroke-width:0.127055;stroke-dasharray:none;stroke-opacity:1"
       id="ellipse14"
       cx="4.2832246"
       cy="8.0588512"
       rx="0.36530706"
       ry="0.62964725" /><ellipse
       style="fill:#ffffff;fill-opacity:1;stroke:none;stroke-width:0.0699134;stroke-dasharray:none;stroke-opacity:1"
       id="ellipse15"
       cx="3.1206176"
       cy="14.184491"
       rx="0.20433068"
       ry="0.34084541" /><ellipse
       style="fill:#ffffff;fill-opacity:0.758046;stroke:none;stroke-width:0.201186;stroke-dasharray:none;stroke-opacity:1"
       id="ellipse16"
       cx="21.919081"
       cy="22.316544"
       rx="0.57994223"
       ry="0.99444968" /><ellipse
       style="fill:#ffffff;fill-opacity:1;stroke:none;stroke-width:0.127055;stroke-dasharray:none;stroke-opacity:1"
       id="ellipse17"
       cx="20.370844"
       cy="16.485355"
       rx="0.36530706"
       ry="0.62964725" /><ellipse
       style="fill:#ffffff;fill-opacity:1;stroke:none;stroke-width:0.127055;stroke-dasharray:none;stroke-opacity:1"
       id="ellipse18"
       cx="24.569813"
       cy="6.9410491"
       rx="0.36530706"
       ry="0.62964725" /><ellipse
       style="fill:#ffffff;fill-opacity:1;stroke:none;stroke-width:0.0783976;stroke-dasharray:none;stroke-opacity:1"
       id="ellipse19"
       cx="23.49848"
       cy="11.341248"
       rx="0.23116009"
       ry="0.37884563" /><ellipse
       style="fill:#ffffff;fill-opacity:0.758046;stroke:none;stroke-width:0.094465;stroke-dasharray:none;stroke-opacity:1"
       id="ellipse20"
       cx="7.2881184"
       cy="16.646908"
       rx="0.2579895"
       ry="0.49284643" /><ellipse
       style="fill:#ffffff;fill-opacity:0.758046;stroke:none;stroke-width:0.094465;stroke-dasharray:none;stroke-opacity:1"
       id="ellipse21"
       cx="8.9336548"
       cy="23.638952"
       rx="0.2579895"
       ry="0.49284643" /><ellipse
       style="fill:#ffffff;fill-opacity:0.758046;stroke:none;stroke-width:0.0563597;stroke-dasharray:none;stroke-opacity:1"
       id="ellipse22"
       cx="3.6214345"
       cy="22.848547"
       rx="0.13278566"
       ry="0.34084544" /><path
       id="path1"
       style="fill:#12014c;stroke-width:0.556859"
       d="m 15.009795,20.772096 c 0,1.641432 -0.665586,2.972076 -1.486628,2.972076 -0.821041,0 -1.486626,-1.330644 -1.486626,-2.972076 0,-3.886263 2.973254,-3.886264 2.973254,0 z"
       sodipodi:nodetypes="ssss" /><g
       inkscape:label="Camada 1"
       id="layer1-2"
       transform="translate(31.732929,0.10542336)" /></g></svg>
