<?xml version="1.0" encoding="UTF-8" standalone="no"?>
<!-- Created with Inkscape (http://www.inkscape.org/) -->

<svg
   width="100"
   height="100"
   viewBox="0 0 26.458333 26.458333"
   version="1.1"
   id="svg1"
   inkscape:version="1.4.2 (ebf0e940d0, 2025-05-08)"
   sodipodi:docname="escudo_fantasma.svg"
   xml:space="preserve"
   xmlns:inkscape="http://www.inkscape.org/namespaces/inkscape"
   xmlns:sodipodi="http://sodipodi.sourceforge.net/DTD/sodipodi-0.dtd"
   xmlns="http://www.w3.org/2000/svg"
   xmlns:svg="http://www.w3.org/2000/svg"><sodipodi:namedview
     id="namedview1"
     pagecolor="#505050"
     bordercolor="#eeeeee"
     borderopacity="1"
     inkscape:showpageshadow="0"
     inkscape:pageopacity="0"
     inkscape:pagecheckerboard="0"
     inkscape:deskcolor="#505050"
     inkscape:document-units="px"
     inkscape:zoom="1.7638889"
     inkscape:cx="63.779527"
     inkscape:cy="47.338582"
     inkscape:window-width="1366"
     inkscape:window-height="697"
     inkscape:window-x="0"
     inkscape:window-y="0"
     inkscape:window-maximized="1"
     inkscape:current-layer="layer1" /><defs
     id="defs1"><linearGradient
       id="linearGradient13895"
       inkscape:swatch="solid"><stop
         style="stop-color:#000000;stop-opacity:1;"
         offset="0"
         id="stop13893" /></linearGradient><filter
       style="color-interpolation-filters:sRGB"
       inkscape:label="Clean Edges"
       id="filter14269"
       x="-0.31154084"
       y="-0.29580635"
       width="1.6230817"
       height="1.5916127"><feGaussianBlur
         stdDeviation="0.204612"
         result="blur"
         id="feGaussianBlur14263" /><feComposite
         in="SourceGraphic"
         in2="blur"
         operator="in"
         result="composite1"
         id="feComposite14265" /><feComposite
         in="composite1"
         in2="composite1"
         operator="in"
         result="composite2"
         id="feComposite14267" /></filter><filter
       style="color-interpolation-filters:sRGB"
       inkscape:label="Clean Edges"
       id="filter14269-3"
       x="-0.31154084"
       y="-0.29580635"
       width="1.6230817"
       height="1.5916127"><feGaussianBlur
         stdDeviation="0.204612"
         result="blur"
         id="feGaussianBlur14263-5" /><feComposite
         in="SourceGraphic"
         in2="blur"
         operator="in"
         result="composite1"
         id="feComposite14265-6" /><feComposite
         in="composite1"
         in2="composite1"
         operator="in"
         result="composite2"
         id="feComposite14267-2" /></filter><filter
       style="color-interpolation-filters:sRGB"
       inkscape:label="Clean Edges"
       id="filter14269-35"
       x="-0.31154084"
       y="-0.29580635"
       width="1.6230817"
       height="1.5916127"><feGaussianBlur
         stdDeviation="0.204612"
         result="blur"
         id="feGaussianBlur14263-6" /><feComposite
         in="SourceGraphic"
         in2="blur"
         operator="in"
         result="composite1"
         id="feComposite14265-2" /><feComposite
         in="composite1"
         in2="composite1"
         operator="in"
         result="composite2"
         id="feComposite14267-9" /></filter><filter
       style="color-interpolation-filters:sRGB"
       inkscape:label="Clean Edges"
       id="filter14269-3-1"
       x="-0.31154084"
       y="-0.29580635"
       width="1.6230817"
       height="1.5916127"><feGaussianBlur
         stdDeviation="0.204612"
         result="blur"
         id="feGaussianBlur14263-5-2" /><feComposite
         in="SourceGraphic"
         in2="blur"
         operator="in"
         result="composite1"
         id="feComposite14265-6-7" /><feComposite
         in="composite1"
         in2="composite1"
         operator="in"
         result="composite2"
         id="feComposite14267-2-0" /></filter><filter
       style="color-interpolation-filters:sRGB;"
       inkscape:label="Clean Edges"
       id="filter14269-2"
       x="-0.31154084"
       y="-0.29580634"
       width="1.6230817"
       height="1.5916127"><feGaussianBlur
         stdDeviation="0.204612"
         result="blur"
         id="feGaussianBlur14263-61" /><feComposite
         in="SourceGraphic"
         in2="blur"
         operator="in"
         result="composite1"
         id="feComposite14265-8" /><feComposite
         in="composite1"
         in2="composite1"
         operator="in"
         result="composite2"
         id="feComposite14267-7" /></filter></defs><g
     inkscape:label="Camada 1"
     inkscape:groupmode="layer"
     id="layer1"><path
       id="path3"
       style="fill:#2800b8;fill-opacity:1;stroke:#12014c;stroke-width:1.34846;stroke-dasharray:none;stroke-opacity:1"
       d="M 2.45584,2.7607341 V 10.845665 C 2.5803808,18.116622 2.8249478,24.756985 13.254005,25.526456 23.743344,24.78672 23.919408,18.126667 24.161108,10.845665 V 2.7607341 c -7.23509,1.2405249 -14.4701788,1.2559883 -21.705268,0 z"
       sodipodi:nodetypes="cccccc" /><path
       id="rect1"
       style="fill:#5728ff;fill-opacity:1;stroke:none;stroke-width:2.71235;stroke-opacity:1"
       d="M 22.737276,4.4468957 C 18.15991,5.2878835 13.673711,5.0914697 9.0963454,4.7098822 8.9519431,5.473414 8.7877601,6.6860732 8.7878705,7.4660559 8.7880654,13.73663 13.394573,18.819872 19.077028,18.82005 c 1.073677,1.27e-4 1.843506,-0.287477 2.865249,-0.651502 0.366797,-1.917078 0.726554,-3.963362 0.794999,-6.172757 z"
       sodipodi:nodetypes="ccccccc" /><path
       id="path7"
       style="fill:#12014c;stroke-width:0.664633"
       d="m 12.380112,11.862199 c 0,1.693098 -0.919215,3.065625 -2.053125,3.065625 -1.1339095,0 -2.0531246,-1.372527 -2.0531246,-3.065625 -1e-7,-4.0085863 4.1062496,-4.0085873 4.1062496,0 z"
       sodipodi:nodetypes="ssss" /><ellipse
       style="fill:#2c00c9;fill-opacity:1;stroke:none;stroke-width:0.691092;stroke-dasharray:none;stroke-opacity:1"
       id="ellipse5"
       cx="15.908053"
       cy="11.646297"
       rx="2.0531249"
       ry="3.065625" /><g
       id="g1"
       transform="matrix(0.95393404,0,0,0.81067192,36.278399,5.6011457)"><path
         id="path3-2"
         style="fill:#734bff;fill-opacity:0.770965;stroke:#3202da;stroke-width:1.00765;stroke-linecap:round;stroke-linejoin:round"
         d="m -30.976213,3.6261509 c 0,1.8446752 -0.878005,3.3400783 -1.961081,3.3400783 -1.083075,0 -1.96108,-1.4954031 -1.96108,-3.3400783 -1e-6,-1.8446752 0.848271,-2.5165519 1.931347,-2.5165519 1.083076,0 1.990814,0.6718767 1.990814,2.5165519 z"
         sodipodi:nodetypes="sssss" /><path
         id="path4"
         style="fill:#734bff;fill-opacity:0.57017;stroke:#3202da;stroke-width:1.00765;stroke-linecap:round;stroke-linejoin:round"
         d="m -12.601213,21.101151 c 0,1.844675 -0.878005,3.340078 -1.961081,3.340078 -1.083075,0 -1.96108,-1.495403 -1.96108,-3.340078 -2e-6,-1.844676 0.84827,-2.516552 1.931346,-2.516552 1.083077,0 1.990815,0.671876 1.990815,2.516552 z"
         sodipodi:nodetypes="sssss" /><path
         id="path5"
         style="fill:#734bff;fill-opacity:0.57017;stroke:#3202da;stroke-width:0.543762;stroke-linecap:round;stroke-linejoin:round"
         d="m -15.444269,13.597231 c 0,1.022247 -0.461381,1.850942 -1.030525,1.850942 -0.569143,0 -1.030524,-0.828695 -1.030524,-1.850942 -1e-6,-1.022248 0.445756,-1.394576 1.014899,-1.394576 0.569144,0 1.04615,0.372328 1.04615,1.394576 z"
         sodipodi:nodetypes="sssss" /><path
         id="path6"
         style="fill:#734bff;fill-opacity:0.57017;stroke:#3202da;stroke-width:0.543762;stroke-linecap:round;stroke-linejoin:round"
         d="m -11.019269,1.8222311 c 0,1.022247 -0.461381,1.850942 -1.030525,1.850942 -0.569143,0 -1.030524,-0.828695 -1.030524,-1.850942 -10e-7,-1.02224803 0.445756,-1.39457603 1.014899,-1.39457603 0.569144,0 1.04615,0.372328 1.04615,1.39457603 z"
         sodipodi:nodetypes="sssss" /><path
         id="path9"
         style="fill:#734bff;fill-opacity:0.57017;stroke:#3202da;stroke-width:0.575543;stroke-linecap:round;stroke-linejoin:round"
         d="m -27.235159,22.546146 c 0,1.083106 -0.487846,1.961137 -1.089635,1.961137 -0.601788,0 -1.089634,-0.878031 -1.089634,-1.961137 -10e-7,-1.083107 0.471324,-1.477601 1.073113,-1.477601 0.601789,0 1.106156,0.394494 1.106156,1.477601 z"
         sodipodi:nodetypes="sssss" /><path
         id="path11"
         style="fill:#734bff;fill-opacity:0.57017;stroke:#3202da;stroke-width:0.575543;stroke-linecap:round;stroke-linejoin:round"
         d="m -33.310159,11.221146 c 0,1.083106 -0.487846,1.961137 -1.089635,1.961137 -0.601788,0 -1.089634,-0.878031 -1.089634,-1.961137 -1e-6,-1.083107 0.471324,-1.4776011 1.073113,-1.4776011 0.601789,0 1.106156,0.3944941 1.106156,1.4776011 z"
         sodipodi:nodetypes="sssss" /><path
         id="path12"
         style="fill:#734bff;fill-opacity:0.57017;stroke:#3202da;stroke-width:0.384848;stroke-linecap:round;stroke-linejoin:round"
         d="m -33.214811,21.502654 c 0,0.717957 -0.329063,1.299976 -0.734982,1.299976 -0.405919,0 -0.734982,-0.582019 -0.734982,-1.299976 -10e-7,-0.717959 0.317918,-0.979456 0.723838,-0.979456 0.405919,0 0.746126,0.261497 0.746126,0.979456 z"
         sodipodi:nodetypes="sssss" /><path
         id="path13"
         style="fill:#734bff;fill-opacity:0.57017;stroke:#3202da;stroke-width:0.384848;stroke-linecap:round;stroke-linejoin:round"
         d="m -29.464811,13.702654 c 0,0.717957 -0.329063,1.299976 -0.734983,1.299976 -0.405919,0 -0.734981,-0.582019 -0.734981,-1.299976 -1e-6,-0.717959 0.317918,-0.979456 0.723838,-0.979456 0.405919,0 0.746126,0.261497 0.746126,0.979456 z"
         sodipodi:nodetypes="sssss" /><path
         id="path14"
         style="fill:#734bff;fill-opacity:0.57017;stroke:#3202da;stroke-width:0.384848;stroke-linecap:round;stroke-linejoin:round"
         d="m -12.439812,7.252654 c 0,0.717957 -0.329062,1.299976 -0.734982,1.299976 -0.405919,0 -0.734981,-0.582019 -0.734981,-1.299976 -1e-6,-0.717959 0.317918,-0.979456 0.723837,-0.979456 0.40592,0 0.746126,0.261497 0.746126,0.979456 z"
         sodipodi:nodetypes="sssss" /><ellipse
         style="fill:#ffffff;fill-opacity:1;stroke:none;stroke-width:0.144481;stroke-dasharray:none;stroke-opacity:1"
         id="ellipse14"
         cx="-33.540237"
         cy="3.0316892"
         rx="0.38294792"
         ry="0.77669799" /><ellipse
         style="fill:#ffffff;fill-opacity:1;stroke:none;stroke-width:0.0795021;stroke-dasharray:none;stroke-opacity:1"
         id="ellipse15"
         cx="-34.758987"
         cy="10.587939"
         rx="0.21419792"
         ry="0.42044801" /><ellipse
         style="fill:#ffffff;fill-opacity:0.758046;stroke:none;stroke-width:0.228779;stroke-dasharray:none;stroke-opacity:1"
         id="ellipse16"
         cx="-15.052736"
         cy="20.61919"
         rx="0.60794795"
         ry="1.226698" /><ellipse
         style="fill:#ffffff;fill-opacity:1;stroke:none;stroke-width:0.144481;stroke-dasharray:none;stroke-opacity:1"
         id="ellipse17"
         cx="-16.675739"
         cy="13.426158"
         rx="0.38294792"
         ry="0.77669799" /><ellipse
         style="fill:#ffffff;fill-opacity:1;stroke:none;stroke-width:0.144481;stroke-dasharray:none;stroke-opacity:1"
         id="ellipse18"
         cx="-12.274"
         cy="1.6528307"
         rx="0.38294792"
         ry="0.77669799" /><ellipse
         style="fill:#ffffff;fill-opacity:1;stroke:none;stroke-width:0.0891499;stroke-dasharray:none;stroke-opacity:1"
         id="ellipse19"
         cx="-13.397068"
         cy="7.0806718"
         rx="0.24232292"
         ry="0.46732301" /><ellipse
         style="fill:#ffffff;fill-opacity:0.758046;stroke:none;stroke-width:0.107421;stroke-dasharray:none;stroke-opacity:1"
         id="ellipse20"
         cx="-30.390236"
         cy="13.62544"
         rx="0.27044794"
         ry="0.60794806" /><ellipse
         style="fill:#ffffff;fill-opacity:0.758046;stroke:none;stroke-width:0.107421;stroke-dasharray:none;stroke-opacity:1"
         id="ellipse21"
         cx="-28.665236"
         cy="22.250439"
         rx="0.27044794"
         ry="0.60794806" /><ellipse
         style="fill:#ffffff;fill-opacity:0.758046;stroke:none;stroke-width:0.0640895;stroke-dasharray:none;stroke-opacity:1"
         id="ellipse22"
         cx="-34.233986"
         cy="21.275438"
         rx="0.13919795"
         ry="0.42044806" /></g><path
       id="path1"
       style="fill:#12014c;stroke-width:0.530569"
       d="m 15.084795,21.096146 c 0,1.3382 -0.741138,2.423026 -1.655378,2.423026 -0.914239,0 -1.655376,-1.084826 -1.655376,-2.423026 0,-3.16833 3.310754,-3.168331 3.310754,0 z"
       sodipodi:nodetypes="ssss" /></g></svg>
