<?xml version="1.0" encoding="UTF-8" standalone="no"?>
<!-- Created with Inkscape (http://www.inkscape.org/) -->

<svg
   width="100"
   height="100"
   viewBox="0 0 26.458333 26.458334"
   version="1.1"
   id="svg5"
   inkscape:version="1.4.2 (ebf0e940d0, 2025-05-08)"
   sodipodi:docname="escudo_escudeiro.svg"
   xml:space="preserve"
   xmlns:inkscape="http://www.inkscape.org/namespaces/inkscape"
   xmlns:sodipodi="http://sodipodi.sourceforge.net/DTD/sodipodi-0.dtd"
   xmlns="http://www.w3.org/2000/svg"
   xmlns:svg="http://www.w3.org/2000/svg"><sodipodi:namedview
     id="namedview7"
     pagecolor="#505050"
     bordercolor="#ffffff"
     borderopacity="1"
     inkscape:pageshadow="0"
     inkscape:pageopacity="0"
     inkscape:pagecheckerboard="1"
     inkscape:document-units="px"
     showgrid="false"
     units="px"
     width="100px"
     inkscape:snap-global="false"
     inkscape:zoom="4"
     inkscape:cx="15.375"
     inkscape:cy="54.875"
     inkscape:window-width="1366"
     inkscape:window-height="697"
     inkscape:window-x="0"
     inkscape:window-y="0"
     inkscape:window-maximized="1"
     inkscape:current-layer="layer1"
     inkscape:showpageshadow="0"
     inkscape:deskcolor="#505050" /><defs
     id="defs2"><linearGradient
       id="linearGradient13895"
       inkscape:swatch="solid"><stop
         style="stop-color:#000000;stop-opacity:1;"
         offset="0"
         id="stop13893" /></linearGradient><filter
       style="color-interpolation-filters:sRGB;"
       inkscape:label="Clean Edges"
       id="filter14269"
       x="-0.31154084"
       y="-0.29580634"
       width="1.6230817"
       height="1.5916127"><feGaussianBlur
         stdDeviation="0.204612"
         result="blur"
         id="feGaussianBlur14263" /><feComposite
         in="SourceGraphic"
         in2="blur"
         operator="in"
         result="composite1"
         id="feComposite14265" /><feComposite
         in="composite1"
         in2="composite1"
         operator="in"
         result="composite2"
         id="feComposite14267" /></filter><inkscape:path-effect
       effect="fillet_chamfer"
       id="path-effect68"
       is_visible="true"
       lpeversion="1"
       nodesatellites_param="F,0,0,1,0,0,0,1 @ F,0,0,1,0,0,0,1 @ F,0,0,1,0,0,0,1 @ F,0,0,1,0,0,0,1 @ F,0,0,1,0,0,0,1 @ F,0,0,1,0,0,0,1 @ F,0,0,1,0,0,0,1 @ F,0,0,1,0,0,0,1 @ F,0,0,1,0,0,0,1"
       radius="0"
       unit="px"
       method="auto"
       mode="F"
       chamfer_steps="1"
       flexible="false"
       use_knot_distance="true"
       apply_no_radius="true"
       apply_with_radius="true"
       only_selected="false"
       hide_knots="false" /><inkscape:path-effect
       effect="fillet_chamfer"
       id="path-effect66"
       is_visible="true"
       lpeversion="1"
       nodesatellites_param="F,0,0,1,0,0,0,1 @ F,0,0,1,0,0.44929322,0,1 @ F,0,0,1,0,0.44929322,0,1 @ F,0,0,1,0,0,0,1 @ F,0,0,1,0,0,0,1 @ F,0,0,1,0,0,0,1 @ F,0,0,1,0,0,0,1 @ F,0,0,1,0,0,0,1 @ F,0,0,1,0,0,0,1 @ F,0,0,1,0,0,0,1"
       radius="0"
       unit="px"
       method="auto"
       mode="F"
       chamfer_steps="1"
       flexible="false"
       use_knot_distance="true"
       apply_no_radius="true"
       apply_with_radius="true"
       only_selected="false"
       hide_knots="false" /><filter
       style="color-interpolation-filters:sRGB;"
       inkscape:label="Clean Edges"
       id="filter14269-35"
       x="-0.31154084"
       y="-0.29580634"
       width="1.6230817"
       height="1.5916127"><feGaussianBlur
         stdDeviation="0.204612"
         result="blur"
         id="feGaussianBlur14263-6" /><feComposite
         in="SourceGraphic"
         in2="blur"
         operator="in"
         result="composite1"
         id="feComposite14265-2" /><feComposite
         in="composite1"
         in2="composite1"
         operator="in"
         result="composite2"
         id="feComposite14267-9" /></filter><filter
       style="color-interpolation-filters:sRGB;"
       inkscape:label="Clean Edges"
       id="filter14269-3"
       x="-0.31154084"
       y="-0.29580634"
       width="1.6230817"
       height="1.5916127"><feGaussianBlur
         stdDeviation="0.204612"
         result="blur"
         id="feGaussianBlur14263-5" /><feComposite
         in="SourceGraphic"
         in2="blur"
         operator="in"
         result="composite1"
         id="feComposite14265-6" /><feComposite
         in="composite1"
         in2="composite1"
         operator="in"
         result="composite2"
         id="feComposite14267-2" /></filter><filter
       style="color-interpolation-filters:sRGB;"
       inkscape:label="Clean Edges"
       id="filter14269-8"
       x="-0.31154084"
       y="-0.29580634"
       width="1.6230817"
       height="1.5916127"><feGaussianBlur
         stdDeviation="0.204612"
         result="blur"
         id="feGaussianBlur14263-9" /><feComposite
         in="SourceGraphic"
         in2="blur"
         operator="in"
         result="composite1"
         id="feComposite14265-7" /><feComposite
         in="composite1"
         in2="composite1"
         operator="in"
         result="composite2"
         id="feComposite14267-3" /></filter><filter
       style="color-interpolation-filters:sRGB"
       inkscape:label="Clean Edges"
       id="filter14269-6"
       x="-0.31154084"
       y="-0.29580635"
       width="1.6230817"
       height="1.5916127"><feGaussianBlur
         stdDeviation="0.204612"
         result="blur"
         id="feGaussianBlur14263-7" /><feComposite
         in="SourceGraphic"
         in2="blur"
         operator="in"
         result="composite1"
         id="feComposite14265-5" /><feComposite
         in="composite1"
         in2="composite1"
         operator="in"
         result="composite2"
         id="feComposite14267-35" /></filter><filter
       style="color-interpolation-filters:sRGB"
       inkscape:label="Clean Edges"
       id="filter14269-3-6"
       x="-0.31154084"
       y="-0.29580635"
       width="1.6230817"
       height="1.5916127"><feGaussianBlur
         stdDeviation="0.204612"
         result="blur"
         id="feGaussianBlur14263-5-2" /><feComposite
         in="SourceGraphic"
         in2="blur"
         operator="in"
         result="composite1"
         id="feComposite14265-6-9" /><feComposite
         in="composite1"
         in2="composite1"
         operator="in"
         result="composite2"
         id="feComposite14267-2-1" /></filter></defs><g
     inkscape:label="Camada 1"
     inkscape:groupmode="layer"
     id="layer1"><g
       id="g43"
       transform="matrix(0.78971408,0,0,0.80732571,-239.3645,-34.947894)" /><rect
       style="fill:#e69c00;fill-opacity:1;stroke:#372600;stroke-width:1.0307;stroke-linecap:round;stroke-linejoin:round;stroke-opacity:1"
       id="rect1"
       width="16.862959"
       height="25.255314"
       x="4.7158747"
       y="0.65267503"
       ry="3.8757834"
       transform="matrix(0.99999057,0.00434387,-0.00832027,0.99996539,0,0)" /><rect
       style="fill:#3a2900;fill-opacity:1;stroke:#201600;stroke-width:0.782293;stroke-linecap:round;stroke-linejoin:round;stroke-opacity:1"
       id="rect2"
       width="11.701577"
       height="20.965832"
       x="7.2279658"
       y="2.9802217"
       ry="3.2175024"
       transform="matrix(0.99998913,0.00466312,-0.00775065,0.99996996,0,0)" /><path
       id="rect16"
       style="fill:#5b4000;fill-opacity:1;stroke:none;stroke-width:0.734689;stroke-linecap:round;stroke-linejoin:round;stroke-opacity:1"
       d="m 14.794176,3.4898542 c 2.087614,0.00974 3.757362,1.4041898 3.744009,3.1267338 l -0.108835,14.0418 c -0.01336,1.722544 -1.704594,3.101327 -3.792208,3.091591 l -3.143564,-0.01465 C 9.4059642,23.725585 7.7362172,22.331131 7.7495684,20.608586 L 7.7672194,18.33124 A 9.1148686,9.8730074 89.245922 0 0 16.903941,9.2889019 9.1148686,9.8730074 89.245922 0 0 14.701619,3.4894225 Z" /><path
       id="path4"
       style="fill:#201600;fill-opacity:1;stroke-width:0.0824591"
       d="m 8.3167909,9.8888803 c -0.00344,2.81e-4 -0.00603,0.0028 -0.00606,0.0057 l -0.00661,0.8521157 -0.053612,6.916908 -5.129e-4,0.06618 c -2.49e-5,0.0032 0.00288,0.0057 0.00682,0.0057 l 9.360437,0.04365 -0.7734,-0.867352 -7.6100418,0.03882 0.162013,-6.168358 7.7382268,0.01129 -0.03593,4.634883 -6.345969,-0.02081 0.09413,-3.030887 5.01212,-0.01166 -0.01172,1.511517 c -1.480848,0.03352 -3.257367,-0.07685 -4.730803,-0.019 l 0.274392,0.350407 0.240109,0.0011 c 0.073,3.41e-4 0.131363,0.05161 0.130872,0.114969 l -6.1e-5,0.0079 c -4.9e-4,0.06336 -0.05964,0.114079 -0.132645,0.113739 l -0.240108,-0.0011 -0.223273,0.2841 c 1.666095,0.01962 3.573041,0.0065 5.246085,0.01434 0.0037,1.7e-5 0.0065,-0.0026 0.0065,-0.0058 l 0.0051,-0.655926 2e-6,-1.15e-4 0.0015,-0.196071 c 1e-6,-2.07e-4 2.6e-5,-3.99e-4 4e-6,-5.93e-4 l 0.01808,-2.333075 c 7.4e-5,-0.0095 -0.0086,-0.01724 -0.01974,-0.01729 l -0.01408,-6.6e-5 1.88e-4,-0.02431 c 2.5e-5,-0.0032 -0.0028,-0.0058 -0.0064,-0.0058 l -6.6161848,-0.03085 c -0.0037,-1.7e-5 -0.0068,0.0026 -0.0068,0.0058 l -9e-6,0.0012 c -0.01137,0.0052 -0.01921,0.01571 -0.0193,0.0277 l -0.03016,3.892224 -0.006,0.767859 -6.52e-4,0.08425 c -2.5e-5,0.0032 0.0028,0.0057 0.0068,0.0057 l 7.3824548,0.03443 c 0.0079,0.0047 0.01762,0.0076 0.02794,0.0076 l 0.479468,0.0022 c 0.02727,1.27e-4 0.04941,-0.01879 0.0496,-0.04245 l 0.04871,-6.2844137 c 1.23e-4,-0.0158 -0.0097,-0.02966 -0.02427,-0.03709 -1.5e-5,-0.0032 -0.0028,-0.0057 -0.0064,-0.0058 l -9.3698445,-0.04369 c -2.369e-4,-10e-7 -5.252e-4,-2.1e-5 -7.502e-4,-3e-6 z m 3.9435571,4.2016357 0.391739,0.0018 c 0.08124,3.8e-4 0.146252,0.05743 0.145706,0.12794 l -2.83e-4,0.03656 c -5.47e-4,0.07052 -0.06642,0.12695 -0.147679,0.126571 l -0.391739,-0.0018 c -0.08124,-3.78e-4 -0.146166,-0.05743 -0.14562,-0.127938 l 2.84e-4,-0.03656 c 5.46e-4,-0.07051 0.06637,-0.12695 0.147592,-0.126572 z"
       sodipodi:nodetypes="ssccssccccccccccccssssccssccscsscsssscsccsscsssscsscssssssssss" /><path
       id="path2"
       style="fill:#af7700;fill-opacity:1;stroke-width:0.0824591"
       d="m 8.2613863,9.7124819 c -0.00344,2.809e-4 -0.00603,0.00277 -0.00606,0.0057 l -0.00661,0.8521151 -0.053612,6.916908 -5.131e-4,0.06618 c -2.48e-5,0.0032 0.00288,0.0057 0.00682,0.0057 l 9.3604378,0.04365 -0.773401,-0.867353 -7.6100408,0.03882 0.162013,-6.168358 7.7382268,0.01129 -0.03593,4.634882 -6.345969,-0.02081 0.09413,-3.030888 5.01212,-0.01166 -0.01172,1.511517 c -1.480848,0.03352 -3.257367,-0.07685 -4.730803,-0.019 l 0.274391,0.350408 0.240109,0.0011 c 0.07301,3.4e-4 0.131363,0.05161 0.130873,0.114968 l -6.1e-5,0.0079 c -4.92e-4,0.06336 -0.05964,0.11408 -0.132645,0.11374 l -0.240109,-0.0011 -0.223273,0.284099 c 1.666096,0.01962 3.573042,0.0065 5.246086,0.01434 0.0037,1.7e-5 0.0065,-0.0026 0.0065,-0.0058 l 0.0051,-0.655927 10e-7,-1.14e-4 0.0015,-0.196072 c 1e-6,-2.06e-4 2.4e-5,-3.98e-4 4e-6,-5.93e-4 l 0.01808,-2.333075 c 7.3e-5,-0.0095 -0.0086,-0.01724 -0.01974,-0.01729 l -0.01408,-6.5e-5 1.89e-4,-0.02431 c 2.5e-5,-0.0032 -0.0028,-0.0058 -0.0064,-0.0058 l -6.6161868,-0.03085 c -0.0037,-1.7e-5 -0.0068,0.0026 -0.0068,0.0058 l -10e-6,0.0012 c -0.01137,0.0052 -0.01921,0.01571 -0.0193,0.0277 l -0.03017,3.892225 -0.006,0.767859 -6.53e-4,0.08425 c -2.5e-5,0.0032 0.0028,0.0057 0.0068,0.0057 l 7.3824548,0.03443 c 0.0079,0.0047 0.01762,0.0076 0.02794,0.0076 l 0.479468,0.0022 c 0.02727,1.27e-4 0.04941,-0.01879 0.0496,-0.04245 l 0.04871,-6.2844144 c 1.23e-4,-0.015804 -0.0097,-0.029657 -0.02427,-0.037087 -1.5e-5,-0.00319 -0.0028,-0.00574 -0.0064,-0.00575 L 8.2623028,9.7122772 c -2.369e-4,-1.1e-6 -5.251e-4,-2.11e-5 -7.502e-4,-3.5e-6 z m 3.9435577,4.2016361 0.391739,0.0018 c 0.08124,3.79e-4 0.146252,0.05743 0.145706,0.127939 l -2.85e-4,0.03656 c -5.46e-4,0.07051 -0.06642,0.12695 -0.147677,0.126571 l -0.391739,-0.0018 c -0.08124,-3.79e-4 -0.146167,-0.05743 -0.145621,-0.127939 l 2.83e-4,-0.03656 c 5.48e-4,-0.07052 0.06637,-0.12695 0.147594,-0.126571 z"
       sodipodi:nodetypes="ssccssccccccccccccssssccssccscsscsssscsccsscsssscsscssssssssss" /><path
       style="fill:#ffb81f;fill-opacity:1;stroke:none;stroke-width:0.888373;stroke-linecap:round;stroke-linejoin:round;stroke-opacity:1"
       d="m 10.685749,15.22663 -0.42893,0.405323 7.010961,0.04374 -0.223835,-0.419376 z"
       id="path5" /><path
       style="fill:#ffb81f;fill-opacity:1;stroke:none;stroke-width:0.685043;stroke-linecap:round;stroke-linejoin:round;stroke-opacity:1"
       d="m 11.10772,11.857488 -0.306726,0.337684 5.007411,0.03254 -0.159493,-0.349024 z"
       id="path7" /><path
       style="fill:#ffb81f;fill-opacity:1;stroke:none;stroke-width:0.634578;stroke-linecap:round;stroke-linejoin:round;stroke-opacity:1"
       d="m 11.342384,14.271727 -0.328748,0.26937 5.378741,0.0324 -0.17206,-0.279029 z"
       id="path9" /><path
       style="fill:#ffb81f;fill-opacity:1;stroke:none;stroke-width:0.852829;stroke-linecap:round;stroke-linejoin:round;stroke-opacity:1"
       d="m 9.8395882,10.266321 -0.473932,0.336904 7.7607358,0.04537 -0.248672,-0.349439 z"
       id="path13" /><path
       style="fill:#ffb81f;fill-opacity:1;stroke:none;stroke-width:0.93183;stroke-linecap:round;stroke-linejoin:round;stroke-opacity:1"
       d="m 8.798401,17.218976 -0.5652913,0.336478 9.2651303,0.0524 -0.297398,-0.349667 z"
       id="path16" /></g></svg>
