<?xml version="1.0" encoding="UTF-8" standalone="no"?>
<!-- Created with Inkscape (http://www.inkscape.org/) -->

<svg
   width="100"
   height="100"
   viewBox="0 0 26.458333 26.458333"
   version="1.1"
   id="svg1"
   inkscape:version="1.4.2 (ebf0e940d0, 2025-05-08)"
   sodipodi:docname="espada_hydra.svg"
   xml:space="preserve"
   xmlns:inkscape="http://www.inkscape.org/namespaces/inkscape"
   xmlns:sodipodi="http://sodipodi.sourceforge.net/DTD/sodipodi-0.dtd"
   xmlns="http://www.w3.org/2000/svg"
   xmlns:svg="http://www.w3.org/2000/svg"><sodipodi:namedview
     id="namedview1"
     pagecolor="#505050"
     bordercolor="#eeeeee"
     borderopacity="1"
     inkscape:showpageshadow="0"
     inkscape:pageopacity="0"
     inkscape:pagecheckerboard="0"
     inkscape:deskcolor="#505050"
     inkscape:document-units="px"
     inkscape:zoom="4.9890312"
     inkscape:cx="63.038291"
     inkscape:cy="69.652801"
     inkscape:window-width="1366"
     inkscape:window-height="697"
     inkscape:window-x="0"
     inkscape:window-y="0"
     inkscape:window-maximized="1"
     inkscape:current-layer="layer1" /><defs
     id="defs1"><inkscape:path-effect
       effect="fillet_chamfer"
       id="path-effect68"
       is_visible="true"
       lpeversion="1"
       nodesatellites_param="F,0,0,1,0,0,0,1 @ F,0,0,1,0,0,0,1 @ F,0,0,1,0,0,0,1 @ F,0,0,1,0,0,0,1 @ F,0,0,1,0,0,0,1 @ F,0,0,1,0,0,0,1 @ F,0,0,1,0,0,0,1 @ F,0,0,1,0,0,0,1 @ F,0,0,1,0,0,0,1"
       radius="0"
       unit="px"
       method="auto"
       mode="F"
       chamfer_steps="1"
       flexible="false"
       use_knot_distance="true"
       apply_no_radius="true"
       apply_with_radius="true"
       only_selected="false"
       hide_knots="false" /><inkscape:path-effect
       effect="fillet_chamfer"
       id="path-effect66"
       is_visible="true"
       lpeversion="1"
       nodesatellites_param="F,0,0,1,0,0,0,1 @ F,0,0,1,0,0.44929322,0,1 @ F,0,0,1,0,0.44929322,0,1 @ F,0,0,1,0,0,0,1 @ F,0,0,1,0,0,0,1 @ F,0,0,1,0,0,0,1 @ F,0,0,1,0,0,0,1 @ F,0,0,1,0,0,0,1 @ F,0,0,1,0,0,0,1 @ F,0,0,1,0,0,0,1"
       radius="0"
       unit="px"
       method="auto"
       mode="F"
       chamfer_steps="1"
       flexible="false"
       use_knot_distance="true"
       apply_no_radius="true"
       apply_with_radius="true"
       only_selected="false"
       hide_knots="false" /><linearGradient
       id="linearGradient13895"
       inkscape:swatch="solid"><stop
         style="stop-color:#000000;stop-opacity:1;"
         offset="0"
         id="stop13893" /></linearGradient><filter
       style="color-interpolation-filters:sRGB"
       inkscape:label="Clean Edges"
       id="filter14269"
       x="-0.31154084"
       y="-0.29580635"
       width="1.6230817"
       height="1.5916127"><feGaussianBlur
         stdDeviation="0.204612"
         result="blur"
         id="feGaussianBlur14263" /><feComposite
         in="SourceGraphic"
         in2="blur"
         operator="in"
         result="composite1"
         id="feComposite14265" /><feComposite
         in="composite1"
         in2="composite1"
         operator="in"
         result="composite2"
         id="feComposite14267" /></filter><filter
       style="color-interpolation-filters:sRGB"
       inkscape:label="Clean Edges"
       id="filter14269-3"
       x="-0.31154084"
       y="-0.29580635"
       width="1.6230817"
       height="1.5916127"><feGaussianBlur
         stdDeviation="0.204612"
         result="blur"
         id="feGaussianBlur14263-5" /><feComposite
         in="SourceGraphic"
         in2="blur"
         operator="in"
         result="composite1"
         id="feComposite14265-6" /><feComposite
         in="composite1"
         in2="composite1"
         operator="in"
         result="composite2"
         id="feComposite14267-2" /></filter></defs><g
     inkscape:label="Camada 1"
     inkscape:groupmode="layer"
     id="layer1"><path
       id="path2"
       style="fill:#0f2222;fill-opacity:1;stroke:#060e0e;stroke-width:1.50911;stroke-linecap:round;stroke-linejoin:round;stroke-opacity:1"
       inkscape:transform-center-x="0.55843021"
       inkscape:transform-center-y="-0.39269722"
       d="m 10.55744,22.840202 7.447933,1.33209 -2.062002,-4.099959 z"
       sodipodi:nodetypes="cccc" /><path
       id="path1"
       style="fill:#0f2222;stroke:#060e0e;stroke-width:1.06945;stroke-linecap:round;stroke-linejoin:round;fill-opacity:1;stroke-opacity:1"
       inkscape:transform-center-x="-0.55842979"
       inkscape:transform-center-y="-0.39269722"
       transform="matrix(1.3310419,0,0,1.4959905,1.7648142,-2.7765696)"
       d="M 4.2,9.7499994 0.59659545,11.278541 0.1535981,7.8998079 Z"
       sodipodi:nodetypes="cccc" /><path
       id="rect4"
       style="fill:#b19999;fill-opacity:1;stroke:#373737;stroke-width:1.42743;stroke-linecap:round;stroke-linejoin:round;stroke-dasharray:none;stroke-opacity:1"
       d="M 25.06202,1.3009563 18.602822,3.6476555 7.6088439,16.720646 10.530668,19.10693 23.09652,7.8106043 23.139866,7.85207 Z"
       sodipodi:nodetypes="ccccccc" /><path
       style="fill:none;fill-opacity:1;stroke:#373737;stroke-width:1.27291;stroke-dasharray:none;stroke-opacity:1"
       d="M 24.557116,2.0895091 13.008678,13.879835"
       id="path9"
       sodipodi:nodetypes="cc" /><path
       id="rect3"
       style="fill:#0d7d4e;fill-opacity:1;stroke:#031b10;stroke-width:1.06944582;stroke-opacity:1;stroke-dasharray:none"
       d="M 11.515186,17.835647 3.9553657,25.583815 0.75375148,22.120049 8.2760731,15.121885 Z"
       sodipodi:nodetypes="ccccc" /><path
       id="path15"
       style="fill:#063823;fill-opacity:1;stroke:none;stroke-width:0.528534;stroke-opacity:1"
       d="M 7.4994668,21.348578 C 4.93986,20.206295 3.7247939,21.753094 2.6409047,23.562247 L 1.3059284,22.175846 6.0284488,17.670067 Z"
       sodipodi:nodetypes="ccccc" /><path
       id="rect2"
       style="fill:#0d7d4e;fill-opacity:1;stroke:#031b10;stroke-width:1.10596;stroke-dasharray:none;stroke-opacity:1"
       d="m 6.1139568,4.4888852 c -0.04202,5.1568718 -1.149013,8.9714418 -5.033284,9.2867718 l 4.334102,6.012036 c 0.226182,0.314969 0.204085,0.250353 0.384989,0.403076 l 5.7867272,5.272546 c 0.759926,-3.822239 4.676561,-4.483871 9.804053,-3.932576 L 9.6594768,16.86074 C 9.5511818,16.974749 6.1139568,4.4888852 6.1139568,4.4888852 Z"
       sodipodi:nodetypes="cccccccc" /><path
       id="path4"
       style="fill:#063823;fill-opacity:1;stroke:none;stroke-width:0.792868;stroke-opacity:1"
       d="m 6.4086658,6.0727783 c -3.185e-4,0.03837 -4.685e-4,0.076629 -9.216e-4,0.1148295 0.0083,-0.0097 0.016625,-0.019379 0.024967,-0.029048 -0.015756,-0.056108 -0.024045,-0.085781 -0.024045,-0.085781 z M 3.8995553,13.16584 c -0.5725336,0.401997 -1.2565518,0.800227 -2.040405,0.926239 l 3.9239486,5.417586 c 0.2023679,0.276636 0.1825977,0.219885 0.3444548,0.35402 l 5.1774553,4.630858 c 0.214642,-0.737219 0.713832,-1.424948 1.204649,-1.937002 C 7.9865611,21.406096 4.3088471,17.464933 3.8995553,13.16584 Z"
       sodipodi:nodetypes="ccccccccccc" /><g
       id="g5"
       transform="matrix(0.93459117,0,0,0.90240243,19.291147,1.4490588)"><path
         id="path15-5"
         style="fill:#ffffff;stroke:#060e0e;stroke-width:0.964671;stroke-dasharray:none;stroke-opacity:1"
         d="m -13.587849,16.04917 c 1.102484,-1.433789 3.5882443,-2.526323 4.915257,-1.612019 1.3270114,0.914306 0.9927652,3.489217 -0.1097141,4.923006 -1.1024821,1.43379 -3.7061149,2.582057 -5.0331279,1.667754 -1.327011,-0.914302 -0.874893,-3.544951 0.22759,-4.978741 z"
         sodipodi:nodetypes="sssss" /><path
         id="path19"
         style="fill:#0f2222;fill-opacity:1;stroke:#060e0e;stroke-width:0.679611;stroke-dasharray:none;stroke-opacity:1"
         d="m -12.590794,16.66409 c 0.604845,-0.786604 2.055775,-1.325914 2.8913536,-0.750204 0.8355832,0.575712 0.7394003,2.048433 0.1345559,2.835037 -0.6048435,0.786606 -2.1244125,1.353755 -2.9599925,0.778045 -0.835584,-0.575711 -0.67076,-2.076272 -0.06591,-2.862878 z"
         sodipodi:nodetypes="sssss" /><path
         id="path20"
         style="fill:#ffffff;fill-opacity:1;stroke:none;stroke-width:0.153626"
         d="m -10.332971,16.026342 c 0.3552701,-0.462034 1.1770919,-0.799771 1.6303664,-0.487468 0.4532731,0.312302 0.3663573,1.156386 0.011031,1.618419 -0.3552702,0.462032 -1.2160219,0.817078 -1.6692964,0.504775 -0.453273,-0.312303 -0.327428,-1.173693 0.02785,-1.635726 z"
         sodipodi:nodetypes="sssss" /></g></g></svg>
