<?xml version="1.0" encoding="UTF-8" standalone="no"?>
<!-- Created with Inkscape (http://www.inkscape.org/) -->

<svg
   width="100"
   height="100"
   viewBox="0 0 26.458333 26.458333"
   version="1.1"
   id="svg1"
   inkscape:version="1.4.2 (ebf0e940d0, 2025-05-08)"
   sodipodi:docname="espada_hydra.svg"
   xml:space="preserve"
   xmlns:inkscape="http://www.inkscape.org/namespaces/inkscape"
   xmlns:sodipodi="http://sodipodi.sourceforge.net/DTD/sodipodi-0.dtd"
   xmlns="http://www.w3.org/2000/svg"
   xmlns:svg="http://www.w3.org/2000/svg"><sodipodi:namedview
     id="namedview1"
     pagecolor="#505050"
     bordercolor="#eeeeee"
     borderopacity="1"
     inkscape:showpageshadow="0"
     inkscape:pageopacity="0"
     inkscape:pagecheckerboard="0"
     inkscape:deskcolor="#505050"
     inkscape:document-units="px"
     inkscape:zoom="14.111111"
     inkscape:cx="36.248031"
     inkscape:cy="69.767716"
     inkscape:window-width="1366"
     inkscape:window-height="697"
     inkscape:window-x="0"
     inkscape:window-y="0"
     inkscape:window-maximized="1"
     inkscape:current-layer="layer1" /><defs
     id="defs1"><inkscape:path-effect
       effect="fillet_chamfer"
       id="path-effect68"
       is_visible="true"
       lpeversion="1"
       nodesatellites_param="F,0,0,1,0,0,0,1 @ F,0,0,1,0,0,0,1 @ F,0,0,1,0,0,0,1 @ F,0,0,1,0,0,0,1 @ F,0,0,1,0,0,0,1 @ F,0,0,1,0,0,0,1 @ F,0,0,1,0,0,0,1 @ F,0,0,1,0,0,0,1 @ F,0,0,1,0,0,0,1"
       radius="0"
       unit="px"
       method="auto"
       mode="F"
       chamfer_steps="1"
       flexible="false"
       use_knot_distance="true"
       apply_no_radius="true"
       apply_with_radius="true"
       only_selected="false"
       hide_knots="false" /><inkscape:path-effect
       effect="fillet_chamfer"
       id="path-effect66"
       is_visible="true"
       lpeversion="1"
       nodesatellites_param="F,0,0,1,0,0,0,1 @ F,0,0,1,0,0.44929322,0,1 @ F,0,0,1,0,0.44929322,0,1 @ F,0,0,1,0,0,0,1 @ F,0,0,1,0,0,0,1 @ F,0,0,1,0,0,0,1 @ F,0,0,1,0,0,0,1 @ F,0,0,1,0,0,0,1 @ F,0,0,1,0,0,0,1 @ F,0,0,1,0,0,0,1"
       radius="0"
       unit="px"
       method="auto"
       mode="F"
       chamfer_steps="1"
       flexible="false"
       use_knot_distance="true"
       apply_no_radius="true"
       apply_with_radius="true"
       only_selected="false"
       hide_knots="false" /><linearGradient
       id="linearGradient13895"
       inkscape:swatch="solid"><stop
         style="stop-color:#000000;stop-opacity:1;"
         offset="0"
         id="stop13893" /></linearGradient><filter
       style="color-interpolation-filters:sRGB"
       inkscape:label="Clean Edges"
       id="filter14269"
       x="-0.31154084"
       y="-0.29580635"
       width="1.6230817"
       height="1.5916127"><feGaussianBlur
         stdDeviation="0.204612"
         result="blur"
         id="feGaussianBlur14263" /><feComposite
         in="SourceGraphic"
         in2="blur"
         operator="in"
         result="composite1"
         id="feComposite14265" /><feComposite
         in="composite1"
         in2="composite1"
         operator="in"
         result="composite2"
         id="feComposite14267" /></filter><filter
       style="color-interpolation-filters:sRGB"
       inkscape:label="Clean Edges"
       id="filter14269-3"
       x="-0.31154084"
       y="-0.29580635"
       width="1.6230817"
       height="1.5916127"><feGaussianBlur
         stdDeviation="0.204612"
         result="blur"
         id="feGaussianBlur14263-5" /><feComposite
         in="SourceGraphic"
         in2="blur"
         operator="in"
         result="composite1"
         id="feComposite14265-6" /><feComposite
         in="composite1"
         in2="composite1"
         operator="in"
         result="composite2"
         id="feComposite14267-2" /></filter><filter
       style="color-interpolation-filters:sRGB;"
       inkscape:label="Clean Edges"
       id="filter14269-6"
       x="-0.31154084"
       y="-0.29580634"
       width="1.6230817"
       height="1.5916127"><feGaussianBlur
         stdDeviation="0.204612"
         result="blur"
         id="feGaussianBlur14263-7" /><feComposite
         in="SourceGraphic"
         in2="blur"
         operator="in"
         result="composite1"
         id="feComposite14265-5" /><feComposite
         in="composite1"
         in2="composite1"
         operator="in"
         result="composite2"
         id="feComposite14267-3" /></filter></defs><g
     inkscape:label="Camada 1"
     inkscape:groupmode="layer"
     id="layer1"><path
       id="path2"
       style="fill:#41927b;fill-opacity:1;stroke:#031b10;stroke-width:1.50911;stroke-linecap:round;stroke-linejoin:round;stroke-opacity:1"
       inkscape:transform-center-x="0.55843021"
       inkscape:transform-center-y="-0.39269722"
       d="m 10.55744,22.840202 7.447933,1.33209 -2.062002,-4.099959 z"
       sodipodi:nodetypes="cccc" /><path
       id="path1"
       style="fill:#41927b;stroke:#031b10;stroke-width:1.06945;stroke-linecap:round;stroke-linejoin:round;fill-opacity:1;stroke-opacity:1"
       inkscape:transform-center-x="-0.55842979"
       inkscape:transform-center-y="-0.39269722"
       transform="matrix(1.3310419,0,0,1.4959905,1.7648142,-2.7765696)"
       d="M 4.2,9.7499994 0.59659545,11.278541 0.1535981,7.8998079 Z"
       sodipodi:nodetypes="cccc" /><path
       id="rect4"
       style="fill:#727272;fill-opacity:1;stroke:#141414;stroke-width:1.42743;stroke-linecap:round;stroke-linejoin:round;stroke-dasharray:none;stroke-opacity:1"
       d="M 25.13169,0.82898932 18.672492,3.1756885 7.6785138,16.248679 10.600338,18.634963 23.16619,7.3386373 l 0.04335,0.041466 z"
       sodipodi:nodetypes="ccccccc" /><path
       style="fill:none;fill-opacity:1;stroke:#141414;stroke-width:1.27291;stroke-linecap:round;stroke-dasharray:none;stroke-opacity:1"
       d="M 24.176786,2.0300421 12.778348,14.082868"
       id="path9"
       sodipodi:nodetypes="cc" /><path
       id="rect3"
       style="fill:#0f8e58;fill-opacity:1;stroke:#031b10;stroke-width:1.06944582;stroke-opacity:1;stroke-dasharray:none"
       d="M 11.515186,17.835647 3.9553657,25.583815 0.75375148,22.120049 8.2760731,15.121885 Z"
       sodipodi:nodetypes="ccccc" /><path
       id="path15"
       style="fill:#063823;fill-opacity:1;stroke:none;stroke-width:0.528534;stroke-opacity:1"
       d="M 7.4994668,21.348578 C 4.93986,20.206295 3.8185439,21.668719 2.7346547,23.477872 L 1.5028034,22.152409 6.0284488,17.670067 Z"
       sodipodi:nodetypes="ccccc" /><path
       id="rect2"
       style="fill:#0f8e58;fill-opacity:1;stroke:#031b10;stroke-width:1.10596;stroke-dasharray:none;stroke-opacity:1"
       d="m 6.1139568,4.4888852 c -0.04202,5.1568718 -1.149013,8.9714418 -5.033284,9.2867718 l 4.334102,6.012036 c 0.226182,0.314969 0.204085,0.250353 0.384989,0.403076 l 5.7867272,5.272546 c 0.759926,-3.822239 4.676561,-4.483871 9.804053,-3.932576 L 9.6594768,16.86074 C 9.5511818,16.974749 6.1139568,4.4888852 6.1139568,4.4888852 Z"
       sodipodi:nodetypes="cccccccc" /><path
       id="path4"
       style="fill:#063823;fill-opacity:1;stroke:none;stroke-width:0.792868;stroke-opacity:1"
       d="m 6.4086658,6.0727783 c -3.185e-4,0.03837 -4.685e-4,0.076629 -9.216e-4,0.1148295 0.0083,-0.0097 0.016625,-0.019379 0.024967,-0.029048 -0.015756,-0.056108 -0.024045,-0.085781 -0.024045,-0.085781 z M 3.9393301,13.285164 c -0.5725336,0.401997 -1.2963266,0.680903 -2.0801798,0.806915 l 3.9239486,5.417586 c 0.2023679,0.276636 0.1825977,0.219885 0.3444548,0.35402 l 5.1774553,4.630858 C 11.519651,23.757324 12.042043,23.069595 12.53286,22.557541 8.009763,21.406096 4.3486219,17.584257 3.9393301,13.285164 Z"
       sodipodi:nodetypes="ccccccccccc" /><path
       id="path15-5"
       style="fill:#26bd13;fill-opacity:1;stroke:#031d11;stroke-width:0.959378;stroke-dasharray:none;stroke-opacity:1"
       d="m 6.1233309,16.119884 c 1.1127871,-1.40497 3.6217778,-2.475543 4.9611921,-1.579617 1.339412,0.895928 1.002043,3.419083 -0.11074,4.824052 -1.112785,1.40497 -3.7407496,2.530156 -5.080164,1.634231 -1.3394125,-0.895925 -0.8830692,-3.473696 0.2297169,-4.878666 z"
       sodipodi:nodetypes="sssss" /><path
       id="path1-6"
       style="fill:#135b09;fill-opacity:1;stroke-width:0.0319519"
       d="m 8.5088005,15.569154 c -9.12e-4,-7.23e-4 -0.00233,-6.06e-4 -0.0033,3e-4 l -0.2730106,0.256817 -2.2161171,2.084667 -0.021204,0.01995 c -0.00103,9.67e-4 -0.00112,0.0025 -2.208e-4,0.0034 L 8.261606,20.188874 8.349431,19.740665 6.4829681,17.930219 8.4870775,16.098498 10.368808,17.954836 8.8838323,19.351729 7.3443414,17.825878 8.3326201,16.92932 9.557479,18.125931 9.0732022,18.581483 C 8.7017403,18.237013 8.3040637,17.778159 7.9266394,17.442901 l -0.044753,0.171963 0.058143,0.05783 c 0.017677,0.01758 0.015567,0.0471 -0.00473,0.0662 l -0.00251,0.0024 c -0.020298,0.01909 -0.050864,0.02031 -0.068541,0.0027 l -0.058143,-0.05783 -0.1448849,0.03269 c 0.3996785,0.404894 0.8684594,0.857535 1.2735919,1.26051 8.953e-4,8.9e-4 0.00245,8.11e-4 0.00348,-1.56e-4 l 0.2101533,-0.197688 3.65e-5,-3.4e-5 0.06282,-0.05909 c 6.57e-5,-6.2e-5 1.332e-4,-1.15e-4 1.898e-4,-1.79e-4 l 0.7474967,-0.703158 c 0.00305,-0.0029 0.00337,-0.0073 7.111e-4,-0.01 l -0.00343,-0.0034 0.00779,-0.0073 c 0.00103,-9.67e-4 0.00115,-0.0025 2.577e-4,-0.0034 L 8.3621961,16.401398 c -8.965e-4,-8.92e-4 -0.00245,-8.11e-4 -0.00348,1.56e-4 l -3.771e-4,3.55e-4 c -0.00446,-0.0011 -0.00965,1.76e-4 -0.013504,0.0038 l -1.2470351,1.173066 -0.2460152,0.231423 -0.026995,0.02539 c -0.00103,9.67e-4 -0.00112,0.0025 -2.209e-4,0.0034 l 1.787684,1.778163 c 3.993e-4,0.0033 0.00185,0.0065 0.00437,0.009 l 0.1161045,0.115486 c 0.0066,0.0066 0.018023,0.0061 0.025605,-0.001 l 2.0134717,-1.894041 c 0.0051,-0.0048 0.0071,-0.0113 0.0059,-0.01706 10e-4,-9.68e-4 0.0011,-0.0024 2.2e-4,-0.0033 L 8.5089845,15.569337 c -6.35e-5,-6.3e-5 -1.208e-4,-1.33e-4 -1.907e-4,-1.9e-4 z m -0.3774322,2.218398 0.094862,0.09436 c 0.019672,0.01957 0.017342,0.05243 -0.00525,0.07368 l -0.011715,0.01102 c -0.022588,0.02125 -0.056614,0.02259 -0.076287,0.003 l -0.094862,-0.09436 c -0.019672,-0.01957 -0.017325,-0.05241 0.00526,-0.07366 l 0.011715,-0.01102 c 0.022589,-0.02125 0.056598,-0.0226 0.07627,-0.003 z"
       sodipodi:nodetypes="ssccssccccccccccccssssccssccscsscsssscsccsscsssscsscssssssssss" /><path
       id="rect5"
       style="fill:#31e81a;fill-opacity:1;stroke-width:0.0319519"
       d="m 8.5137885,15.499343 c -9.12e-4,-7.23e-4 -0.00233,-6.06e-4 -0.0033,3e-4 l -0.2730106,0.256817 -2.2161171,2.084667 -0.021204,0.01995 c -0.00103,9.67e-4 -0.00112,0.0025 -2.208e-4,0.0034 l 2.2666582,2.254586 0.087825,-0.448209 -1.8664631,-1.810446 2.0041097,-1.831721 1.8817302,1.856338 -1.4849755,1.396893 -1.5394909,-1.525851 0.9882786,-0.896558 1.224859,1.196611 -0.4842768,0.455552 C 8.7067285,18.167202 8.3090519,17.708348 7.9316276,17.37309 l -0.044753,0.171963 0.058143,0.05783 c 0.017677,0.01758 0.015568,0.0471 -0.00473,0.0662 l -0.00251,0.0024 c -0.020298,0.01909 -0.050864,0.02031 -0.068541,0.0027 l -0.058143,-0.05783 -0.1448849,0.03269 c 0.3996785,0.404894 0.8684593,0.857535 1.2735919,1.26051 8.953e-4,8.9e-4 0.00245,8.11e-4 0.00348,-1.56e-4 l 0.2101533,-0.197688 3.65e-5,-3.4e-5 0.06282,-0.05909 c 6.57e-5,-6.2e-5 1.332e-4,-1.15e-4 1.898e-4,-1.79e-4 l 0.7474967,-0.703158 c 0.00305,-0.0029 0.00337,-0.0073 7.111e-4,-0.01 l -0.00343,-0.0034 0.00779,-0.0073 c 0.00103,-9.67e-4 0.00115,-0.0025 2.576e-4,-0.0034 L 8.367184,16.331586 c -8.966e-4,-8.91e-4 -0.00245,-8.1e-4 -0.00348,1.57e-4 l -3.771e-4,3.55e-4 c -0.00446,-0.0011 -0.00965,1.76e-4 -0.013504,0.0038 l -1.2470351,1.173067 -0.2460152,0.231422 -0.026995,0.0254 c -0.00103,9.67e-4 -0.00112,0.0025 -2.209e-4,0.0034 l 1.7876839,1.778162 c 3.992e-4,0.0033 0.00185,0.0065 0.00437,0.009 l 0.1161046,0.115486 c 0.0066,0.0066 0.018023,0.0061 0.025604,-0.001 l 2.0134718,-1.894041 c 0.0051,-0.0048 0.0071,-0.0113 0.0059,-0.01706 10e-4,-9.68e-4 0.0011,-0.0024 2.2e-4,-0.0033 L 8.5139727,15.499526 c -6.36e-5,-6.3e-5 -1.208e-4,-1.32e-4 -1.907e-4,-1.9e-4 z m -0.377432,2.218398 0.094862,0.09436 c 0.019672,0.01957 0.017341,0.05243 -0.00525,0.07368 l -0.011715,0.01102 c -0.022589,0.02125 -0.056614,0.02259 -0.076287,0.003 l -0.094862,-0.09436 c -0.019672,-0.01957 -0.017325,-0.05241 0.00526,-0.07366 l 0.011715,-0.01102 c 0.022589,-0.02125 0.056598,-0.0226 0.07627,-0.003 z"
       sodipodi:nodetypes="ssccssccccccccccccssssccssccscsscsssscsccsscsssscsscssssssssss" /><path
       id="path3"
       style="fill:#a0f396;fill-opacity:0.53107345;stroke:none;stroke-width:0.407335;stroke-dasharray:none;stroke-opacity:1"
       d="m 8.138322,15.354346 c 0.6189615,-0.457643 1.7196087,-0.591737 2.100824,-0.03515 0.381215,0.556584 -0.10136,1.593079 -0.7203165,2.050722 -0.6189608,0.457642 -1.7723407,0.599743 -2.1535565,0.04316 -0.381215,-0.55659 0.1540918,-1.601091 0.773053,-2.058734 z"
       sodipodi:nodetypes="sssss" /><path
       style="fill:#c2c2c2;fill-opacity:1;stroke:none;stroke-width:1.27291;stroke-linecap:round;stroke-linejoin:round;stroke-dasharray:none;stroke-opacity:1"
       d="m 19.06342,3.8030329 3.9375,-1.4249999 -6.814797,7.1655552 -1.968131,0.024565 z"
       id="path5"
       sodipodi:nodetypes="ccccc" /><path
       style="fill:#c2c2c2;fill-opacity:1;stroke:none;stroke-width:1.27291;stroke-linecap:round;stroke-linejoin:round;stroke-dasharray:none;stroke-opacity:1"
       d="m 13.04612,10.951316 -1.392116,1.683798 1.537957,0.02652 1.789864,-1.842897 z"
       id="path6" /><g
       id="g43"
       transform="matrix(0.78971408,0,0,0.80732571,-264.06633,-5.9344666)" /></g></svg>
