<?xml version="1.0" encoding="UTF-8" standalone="no"?>
<!-- Created with Inkscape (http://www.inkscape.org/) -->

<svg
   width="100"
   height="100"
   viewBox="0 0 26.458333 26.458333"
   version="1.1"
   id="svg1"
   inkscape:version="1.4.2 (ebf0e940d0, 2025-05-08)"
   sodipodi:docname="espada_fantasma.svg"
   xml:space="preserve"
   xmlns:inkscape="http://www.inkscape.org/namespaces/inkscape"
   xmlns:sodipodi="http://sodipodi.sourceforge.net/DTD/sodipodi-0.dtd"
   xmlns:xlink="http://www.w3.org/1999/xlink"
   xmlns="http://www.w3.org/2000/svg"
   xmlns:svg="http://www.w3.org/2000/svg"><sodipodi:namedview
     id="namedview1"
     pagecolor="#505050"
     bordercolor="#eeeeee"
     borderopacity="1"
     inkscape:showpageshadow="0"
     inkscape:pageopacity="0"
     inkscape:pagecheckerboard="0"
     inkscape:deskcolor="#505050"
     inkscape:document-units="px"
     inkscape:zoom="2.4945156"
     inkscape:cx="103.62733"
     inkscape:cy="46.702454"
     inkscape:window-width="1366"
     inkscape:window-height="697"
     inkscape:window-x="0"
     inkscape:window-y="0"
     inkscape:window-maximized="1"
     inkscape:current-layer="layer1" /><defs
     id="defs1"><linearGradient
       id="linearGradient1"
       inkscape:collect="always"><stop
         style="stop-color:#ffffff;stop-opacity:1;"
         offset="0"
         id="stop1" /><stop
         style="stop-color:#7c1fff;stop-opacity:1;"
         offset="0.63020957"
         id="stop3" /><stop
         style="stop-color:#0d0139;stop-opacity:1;"
         offset="1"
         id="stop2" /></linearGradient><linearGradient
       id="linearGradient13895"
       inkscape:swatch="solid"><stop
         style="stop-color:#000000;stop-opacity:1;"
         offset="0"
         id="stop13893" /></linearGradient><filter
       style="color-interpolation-filters:sRGB"
       inkscape:label="Clean Edges"
       id="filter14269"
       x="-0.31154084"
       y="-0.29580635"
       width="1.6230817"
       height="1.5916127"><feGaussianBlur
         stdDeviation="0.204612"
         result="blur"
         id="feGaussianBlur14263" /><feComposite
         in="SourceGraphic"
         in2="blur"
         operator="in"
         result="composite1"
         id="feComposite14265" /><feComposite
         in="composite1"
         in2="composite1"
         operator="in"
         result="composite2"
         id="feComposite14267" /></filter><filter
       style="color-interpolation-filters:sRGB"
       inkscape:label="Clean Edges"
       id="filter14269-3"
       x="-0.31154084"
       y="-0.29580635"
       width="1.6230817"
       height="1.5916127"><feGaussianBlur
         stdDeviation="0.204612"
         result="blur"
         id="feGaussianBlur14263-5" /><feComposite
         in="SourceGraphic"
         in2="blur"
         operator="in"
         result="composite1"
         id="feComposite14265-6" /><feComposite
         in="composite1"
         in2="composite1"
         operator="in"
         result="composite2"
         id="feComposite14267-2" /></filter><linearGradient
       inkscape:collect="always"
       xlink:href="#linearGradient1"
       id="linearGradient2"
       x1="12.229319"
       y1="16.40505"
       x2="19.495222"
       y2="6.6707735"
       gradientUnits="userSpaceOnUse" /><filter
       style="color-interpolation-filters:sRGB;"
       inkscape:label="Drop Shadow"
       id="filter11"
       x="0"
       y="0"
       width="1.1476577"
       height="1.172567"><feFlood
         result="flood"
         in="SourceGraphic"
         flood-opacity="0.498039"
         flood-color="rgb(0,0,0)"
         id="feFlood10" /><feGaussianBlur
         result="blur"
         in="SourceGraphic"
         stdDeviation="0.000000"
         id="feGaussianBlur10" /><feOffset
         result="offset"
         in="blur"
         dx="3.344354"
         dy="4.172646"
         id="feOffset10" /><feComposite
         result="comp1"
         operator="in"
         in="flood"
         in2="offset"
         id="feComposite10" /><feComposite
         result="comp2"
         operator="atop"
         in="comp1"
         in2="comp1"
         id="feComposite11" /></filter><filter
       style="color-interpolation-filters:sRGB;"
       inkscape:label="Blur"
       id="filter22"
       x="-0.0071896148"
       y="-0.083828243"
       width="1.0143792"
       height="1.1676565"><feGaussianBlur
         stdDeviation="0.0756545 0.91519"
         result="blur"
         id="feGaussianBlur22" /></filter><filter
       style="color-interpolation-filters:sRGB;"
       inkscape:label="Clean Edges"
       id="filter14269-35"
       x="-0.31154084"
       y="-0.29580634"
       width="1.6230817"
       height="1.5916127"><feGaussianBlur
         stdDeviation="0.204612"
         result="blur"
         id="feGaussianBlur14263-6" /><feComposite
         in="SourceGraphic"
         in2="blur"
         operator="in"
         result="composite1"
         id="feComposite14265-2" /><feComposite
         in="composite1"
         in2="composite1"
         operator="in"
         result="composite2"
         id="feComposite14267-9" /></filter></defs><g
     inkscape:label="Camada 1"
     inkscape:groupmode="layer"
     id="layer1"><g
       id="g22"
       transform="matrix(0.69073773,0,0,0.61308333,-20.613552,3.0870331)"><path
         id="path3"
         style="fill:#734bff;fill-opacity:0.770965;stroke:#3202da;stroke-width:1.00765;stroke-linecap:round;stroke-linejoin:round"
         d="m 42.451914,0.549073 c 0,1.8446752 -0.878005,3.3400783 -1.961081,3.3400783 -1.083075,0 -1.96108,-1.4954031 -1.96108,-3.3400783 -10e-7,-1.8446752 0.848271,-2.5165519 1.931347,-2.5165519 1.083076,0 1.990814,0.6718767 1.990814,2.5165519 z"
         sodipodi:nodetypes="sssss" /><path
         id="path9-2"
         style="fill:#734bff;fill-opacity:0.57017;stroke:#3202da;stroke-width:0.575543;stroke-linecap:round;stroke-linejoin:round"
         d="m 46.192968,19.469068 c 0,1.083106 -0.487846,1.961137 -1.089635,1.961137 -0.601788,0 -1.089634,-0.878031 -1.089634,-1.961137 -1e-6,-1.083107 0.471324,-1.477601 1.073113,-1.477601 0.601789,0 1.106156,0.394494 1.106156,1.477601 z"
         sodipodi:nodetypes="sssss" /><path
         id="path11"
         style="fill:#734bff;fill-opacity:0.57017;stroke:#3202da;stroke-width:0.575543;stroke-linecap:round;stroke-linejoin:round"
         d="m 40.117968,8.144068 c 0,1.083106 -0.487846,1.961137 -1.089635,1.961137 -0.601788,0 -1.089634,-0.878031 -1.089634,-1.961137 -10e-7,-1.083107 0.471324,-1.477601 1.073113,-1.477601 0.601789,0 1.106156,0.394494 1.106156,1.477601 z"
         sodipodi:nodetypes="sssss" /><path
         id="path12"
         style="fill:#734bff;fill-opacity:0.57017;stroke:#3202da;stroke-width:0.384848;stroke-linecap:round;stroke-linejoin:round"
         d="m 40.213316,18.425576 c 0,0.717957 -0.329063,1.299976 -0.734982,1.299976 -0.405919,0 -0.734982,-0.582019 -0.734982,-1.299976 -1e-6,-0.717959 0.317918,-0.979456 0.723838,-0.979456 0.405919,0 0.746126,0.261497 0.746126,0.979456 z"
         sodipodi:nodetypes="sssss" /><path
         id="path13-7"
         style="fill:#734bff;fill-opacity:0.57017;stroke:#3202da;stroke-width:0.384848;stroke-linecap:round;stroke-linejoin:round"
         d="m 43.963316,10.625576 c 0,0.717957 -0.329063,1.299976 -0.734982,1.299976 -0.40592,0 -0.734982,-0.582019 -0.734982,-1.299976 -1e-6,-0.717959 0.317918,-0.979456 0.723838,-0.979456 0.405919,0 0.746126,0.261497 0.746126,0.979456 z"
         sodipodi:nodetypes="sssss" /><ellipse
         style="fill:#ffffff;fill-opacity:1;stroke:none;stroke-width:0.144481;stroke-dasharray:none;stroke-opacity:1"
         id="ellipse14"
         cx="39.88789"
         cy="-0.045388609"
         rx="0.38294792"
         ry="0.77669799" /><ellipse
         style="fill:#ffffff;fill-opacity:1;stroke:none;stroke-width:0.0795021;stroke-dasharray:none;stroke-opacity:1"
         id="ellipse15"
         cx="38.66914"
         cy="7.5108619"
         rx="0.21419792"
         ry="0.42044801" /><ellipse
         style="fill:#ffffff;fill-opacity:0.758046;stroke:none;stroke-width:0.107421;stroke-dasharray:none;stroke-opacity:1"
         id="ellipse20"
         cx="43.037891"
         cy="10.548362"
         rx="0.27044794"
         ry="0.60794806" /><ellipse
         style="fill:#ffffff;fill-opacity:0.758046;stroke:none;stroke-width:0.107421;stroke-dasharray:none;stroke-opacity:1"
         id="ellipse21"
         cx="44.762894"
         cy="19.173361"
         rx="0.27044794"
         ry="0.60794806" /><ellipse
         style="fill:#ffffff;fill-opacity:0.758046;stroke:none;stroke-width:0.0640895;stroke-dasharray:none;stroke-opacity:1"
         id="ellipse22"
         cx="39.194141"
         cy="18.19836"
         rx="0.13919795"
         ry="0.42044806" /></g><path
       id="path16"
       style="fill:#9109ff;fill-opacity:0.34242648;stroke:none;stroke-width:1.40437;stroke-linecap:round;stroke-linejoin:round;stroke-opacity:1;filter:url(#filter22)"
       d="M 25.616998,0.23843422 17.076336,2.0117746 9.5754964,14.953707 l 0.4370806,-0.2749 -0.3761186,0.632418 -6.887538,-5.4853583 -0.217752,8.3250763 1.2376824,1.033076 -3.406446,3.812752 5.1133527,3.443524 3.0579519,-3.13285 2.2876496,1.850855 7.61798,-2.454891 -5.19808,-4.409514 12.080249,-10.5283647 0.05116,0.042891 z"
       sodipodi:nodetypes="ccccccccccccccccc" /><g
       id="g3"><path
         id="rect6"
         style="fill:#3500f2;fill-opacity:1;stroke:#0d0139;stroke-width:1.26788;stroke-linecap:round;stroke-linejoin:round;stroke-opacity:1"
         d="M 2.0664528,22.571597 8.6003267,15.540563 11.397149,18.59807 5.2844155,25.39748 Z"
         sodipodi:nodetypes="ccccc" /><path
         id="rect4"
         style="fill:#3500f2;fill-opacity:1;stroke:#0d0139;stroke-width:1.42742707;stroke-linecap:round;stroke-linejoin:round;stroke-dasharray:none;stroke-opacity:1"
         d="M 24.71582,1.2176167 18.294149,3.6651408 7.506163,16.908629 l 2.958821,2.340253 12.387479,-11.4916469 0.04399,0.040782 z"
         sodipodi:nodetypes="ccccccc" /><path
         style="fill:none;fill-opacity:1;stroke:url(#linearGradient2);stroke-width:1.2729104;stroke-opacity:1;stroke-dasharray:none"
         d="M 24.223322,2.0139768 12.860865,13.983637"
         id="path9"
         sodipodi:nodetypes="cc" /><path
         id="rect5"
         style="fill:#2800b8;fill-opacity:1;stroke:#0d0139;stroke-width:1.04555;stroke-linecap:round;stroke-linejoin:round;stroke-opacity:1"
         d="M 3.5868157,11.741461 16.442825,22.266607 10.991954,23.999405 3.3547368,17.651539 Z"
         sodipodi:nodetypes="ccccc" /><path
         style="fill:#9109ff;fill-opacity:1;stroke:none;stroke-width:1.27291;stroke-linecap:round;stroke-linejoin:round;stroke-dasharray:none;stroke-opacity:0.514698"
         d="M 5.4187499,19.85625 2.8471063,22.559144 7.6028489,21.821783 Z"
         id="path13"
         sodipodi:nodetypes="cccc" /><path
         style="fill:#9109ff;fill-opacity:1;stroke:none;stroke-width:1.27291;stroke-linecap:round;stroke-linejoin:round;stroke-dasharray:none;stroke-opacity:0.514698"
         d="m 3.9244426,17.44786 c 0,0 0.8855663,-0.516535 2.9168153,0 2.031249,0.516535 8.4852811,4.613871 8.4852811,4.613871 L 4.0835416,12.82073 Z"
         id="path14"
         sodipodi:nodetypes="czccc" /><path
         style="fill:#7c1fff;fill-opacity:1;stroke:none;stroke-width:1.07632;stroke-linecap:round;stroke-opacity:1"
         d="M 24.0375,2.325 10.425585,16.660593 11.376149,17.428401 22.35,7.2375 Z"
         id="path1"
         sodipodi:nodetypes="ccccc" /></g><g
       id="g30"
       transform="matrix(-0.69073773,0,0,0.61308333,48.105966,11.14805)"><path
         id="path22"
         style="fill:#734bff;fill-opacity:0.770965;stroke:#3202da;stroke-width:1.00765;stroke-linecap:round;stroke-linejoin:round"
         d="m 42.451914,0.549073 c 0,1.8446752 -0.878005,3.3400783 -1.961081,3.3400783 -1.083075,0 -1.96108,-1.4954031 -1.96108,-3.3400783 -10e-7,-1.8446752 0.848271,-2.5165519 1.931347,-2.5165519 1.083076,0 1.990814,0.6718767 1.990814,2.5165519 z"
         sodipodi:nodetypes="sssss" /><path
         id="path23"
         style="fill:#734bff;fill-opacity:0.57017;stroke:#3202da;stroke-width:0.575543;stroke-linecap:round;stroke-linejoin:round"
         d="m 46.192968,19.469068 c 0,1.083106 -0.487846,1.961137 -1.089635,1.961137 -0.601788,0 -1.089634,-0.878031 -1.089634,-1.961137 -1e-6,-1.083107 0.471324,-1.477601 1.073113,-1.477601 0.601789,0 1.106156,0.394494 1.106156,1.477601 z"
         sodipodi:nodetypes="sssss" /><path
         id="path24"
         style="fill:#734bff;fill-opacity:0.57017;stroke:#3202da;stroke-width:0.575543;stroke-linecap:round;stroke-linejoin:round"
         d="m 40.117968,8.144068 c 0,1.083106 -0.487846,1.961137 -1.089635,1.961137 -0.601788,0 -1.089634,-0.878031 -1.089634,-1.961137 -10e-7,-1.083107 0.471324,-1.477601 1.073113,-1.477601 0.601789,0 1.106156,0.394494 1.106156,1.477601 z"
         sodipodi:nodetypes="sssss" /><path
         id="path25"
         style="fill:#734bff;fill-opacity:0.57017;stroke:#3202da;stroke-width:0.384848;stroke-linecap:round;stroke-linejoin:round"
         d="m 40.213316,18.425576 c 0,0.717957 -0.329063,1.299976 -0.734982,1.299976 -0.405919,0 -0.734982,-0.582019 -0.734982,-1.299976 -1e-6,-0.717959 0.317918,-0.979456 0.723838,-0.979456 0.405919,0 0.746126,0.261497 0.746126,0.979456 z"
         sodipodi:nodetypes="sssss" /><path
         id="path26"
         style="fill:#734bff;fill-opacity:0.57017;stroke:#3202da;stroke-width:0.384848;stroke-linecap:round;stroke-linejoin:round"
         d="m 43.963316,10.625576 c 0,0.717957 -0.329063,1.299976 -0.734982,1.299976 -0.40592,0 -0.734982,-0.582019 -0.734982,-1.299976 -1e-6,-0.717959 0.317918,-0.979456 0.723838,-0.979456 0.405919,0 0.746126,0.261497 0.746126,0.979456 z"
         sodipodi:nodetypes="sssss" /><ellipse
         style="fill:#ffffff;fill-opacity:1;stroke:none;stroke-width:0.144481;stroke-dasharray:none;stroke-opacity:1"
         id="ellipse26"
         cx="39.88789"
         cy="-0.045388609"
         rx="0.38294792"
         ry="0.77669799" /><ellipse
         style="fill:#ffffff;fill-opacity:1;stroke:none;stroke-width:0.0795021;stroke-dasharray:none;stroke-opacity:1"
         id="ellipse27"
         cx="38.66914"
         cy="7.5108619"
         rx="0.21419792"
         ry="0.42044801" /><ellipse
         style="fill:#ffffff;fill-opacity:0.758046;stroke:none;stroke-width:0.107421;stroke-dasharray:none;stroke-opacity:1"
         id="ellipse28"
         cx="43.037891"
         cy="10.548362"
         rx="0.27044794"
         ry="0.60794806" /><ellipse
         style="fill:#ffffff;fill-opacity:0.758046;stroke:none;stroke-width:0.107421;stroke-dasharray:none;stroke-opacity:1"
         id="ellipse29"
         cx="44.762894"
         cy="19.173361"
         rx="0.27044794"
         ry="0.60794806" /><ellipse
         style="fill:#ffffff;fill-opacity:0.758046;stroke:none;stroke-width:0.0640895;stroke-dasharray:none;stroke-opacity:1"
         id="ellipse30"
         cx="39.194141"
         cy="18.19836"
         rx="0.13919795"
         ry="0.42044806" /></g></g></svg>
