<?xml version="1.0" encoding="UTF-8" standalone="no"?>
<!-- Created with Inkscape (http://www.inkscape.org/) -->

<svg
   width="100"
   height="100"
   viewBox="0 0 26.458333 26.458333"
   version="1.1"
   id="svg1"
   inkscape:version="1.4.2 (ebf0e940d0, 2025-05-08)"
   sodipodi:docname="ficha.svg"
   xmlns:inkscape="http://www.inkscape.org/namespaces/inkscape"
   xmlns:sodipodi="http://sodipodi.sourceforge.net/DTD/sodipodi-0.dtd"
   xmlns="http://www.w3.org/2000/svg"
   xmlns:svg="http://www.w3.org/2000/svg">
  <sodipodi:namedview
     id="namedview1"
     pagecolor="#505050"
     bordercolor="#eeeeee"
     borderopacity="1"
     inkscape:showpageshadow="0"
     inkscape:pageopacity="0"
     inkscape:pagecheckerboard="0"
     inkscape:deskcolor="#505050"
     inkscape:document-units="px"
     inkscape:zoom="4.9890312"
     inkscape:cx="51.212348"
     inkscape:cy="58.628617"
     inkscape:window-width="1366"
     inkscape:window-height="697"
     inkscape:window-x="0"
     inkscape:window-y="0"
     inkscape:window-maximized="1"
     inkscape:current-layer="layer1" />
  <defs
     id="defs1" />
  <g
     inkscape:label="Camada 1"
     inkscape:groupmode="layer"
     id="layer1">
    <ellipse
       style="fill:#ffffff;fill-opacity:1;stroke:#210046;stroke-width:1.33535;stroke-dasharray:none;stroke-opacity:1"
       id="path1"
       cx="13.688917"
       cy="13.641299"
       rx="11.4"
       ry="11.625" />
    <path
       id="path11"
       style="fill:#440090;fill-opacity:1;stroke:none;stroke-width:1.12289;stroke-dasharray:none;stroke-opacity:1"
       d="m 23.735686,9.4343191 a 8.3452263,8.3452272 0 0 1 1.256254,4.4033479 8.3452263,8.3452272 0 0 1 -1.391129,4.613672 l -6.427514,-4.26744 z" />
    <path
       id="path13"
       style="fill:#bbbbbb;fill-opacity:1;stroke:none;stroke-width:2.11242;stroke-dasharray:none;stroke-opacity:1"
       d="m 9.5123756,4.1789817 a 10.48268,10.462242 0 0 0 -6.124489,9.4974953 10.48268,10.462242 0 0 0 10.4823564,10.462018 10.48268,10.462242 0 0 0 9.10798,-5.295813 10.48268,10.462242 0 0 1 -4.35478,0.964522 A 10.48268,10.462242 0 0 1 8.1410826,9.345187 10.48268,10.462242 0 0 1 9.5123756,4.1789817 Z" />
    <path
       id="ellipse11"
       style="fill:#440090;fill-opacity:1;stroke:none;stroke-width:1.12289;stroke-dasharray:none;stroke-opacity:1"
       d="m 3.7924408,9.2752201 a 8.3452263,8.3452272 0 0 0 -1.256254,4.4033479 8.3452263,8.3452272 0 0 0 1.391129,4.613672 L 10.35483,14.0248 Z" />
    <path
       id="path17"
       style="fill:#440090;fill-opacity:1;stroke:none;stroke-width:1.12289;stroke-dasharray:none;stroke-opacity:1"
       d="M 18.165344,23.597417 A 8.3452272,8.3452263 0 0 1 13.761997,24.853671 8.3452272,8.3452263 0 0 1 9.1483245,23.462542 L 13.415765,17.035027 Z" />
    <path
       id="path18"
       style="fill:#440090;fill-opacity:1;stroke:none;stroke-width:1.12289;stroke-dasharray:none;stroke-opacity:1"
       d="M 18.218377,3.5469419 A 8.3452272,8.3452263 0 0 0 13.81503,2.2906875 8.3452272,8.3452263 0 0 0 9.2013575,3.6818169 l 4.2674405,6.4275151 z" />
    <ellipse
       style="fill:#ffffff;fill-opacity:1;stroke:#210046;stroke-width:1.12289;stroke-dasharray:none;stroke-opacity:1"
       id="ellipse1"
       cx="13.501417"
       cy="13.6038"
       rx="8.3452263"
       ry="8.3452272" />
    <g
       id="g1"
       transform="rotate(16.008608,9.5534763,20.078947)"
       style="stroke:#210046;stroke-opacity:1">
      <path
         style="fill:#882104;fill-opacity:1;stroke:#210046;stroke-width:0.630237;stroke-opacity:1"
         d="m 7.2911796,23.417741 0.6750001,-1.9875"
         id="path2" />
      <path
         style="fill:#882104;fill-opacity:1;stroke:#210046;stroke-width:0.630237;stroke-opacity:1"
         d="m 6.2786796,23.117741 0.6749999,-1.9875"
         id="path4" />
      <path
         style="fill:#882104;fill-opacity:1;stroke:#210046;stroke-width:0.578997;stroke-opacity:1"
         d="M 5.2507991,22.783678 5.91906,21.089304"
         id="path5" />
      <path
         style="fill:#882104;fill-opacity:1;stroke:#210046;stroke-width:0.714284;stroke-opacity:1"
         d="m 8.2982777,23.708969 0.723304,-2.382456"
         id="path6" />
      <path
         style="fill:#882104;fill-opacity:1;stroke:#210046;stroke-width:0.578997;stroke-opacity:1"
         d="m 9.2632987,23.721178 0.668261,-1.694374"
         id="path7" />
      <path
         style="fill:#882104;fill-opacity:1;stroke:#210046;stroke-width:0.630237;stroke-opacity:1"
         d="m 10.29118,23.792741 0.675,-1.9875"
         id="path8" />
    </g>
    <g
       id="g16"
       transform="matrix(0.69051829,0.36327247,-0.36181359,0.70856594,22.933675,-13.132021)"
       style="stroke:#210046;stroke-opacity:1">
      <path
         style="fill:#882104;fill-opacity:1;stroke:#210046;stroke-width:0.630237;stroke-opacity:1"
         d="m 7.2911796,23.417741 0.6750001,-1.9875"
         id="path3" />
      <path
         style="fill:#882104;fill-opacity:1;stroke:#210046;stroke-width:0.630237;stroke-opacity:1"
         d="m 6.2786796,23.117741 0.6749999,-1.9875"
         id="path9" />
      <path
         style="fill:#882104;fill-opacity:1;stroke:#210046;stroke-width:0.578997;stroke-opacity:1"
         d="M 5.2507991,22.783678 5.91906,21.089304"
         id="path10" />
      <path
         style="fill:#882104;fill-opacity:1;stroke:#210046;stroke-width:0.714284;stroke-opacity:1"
         d="m 8.2982777,23.708969 0.723304,-2.382456"
         id="path14" />
      <path
         style="fill:#882104;fill-opacity:1;stroke:#210046;stroke-width:0.578997;stroke-opacity:1"
         d="m 9.2632987,23.721178 0.668261,-1.694374"
         id="path15" />
      <path
         style="fill:#882104;fill-opacity:1;stroke:#210046;stroke-width:0.630237;stroke-opacity:1"
         d="m 10.29118,23.792741 0.675,-1.9875"
         id="path16" />
    </g>
    <ellipse
       style="fill:#440090;fill-opacity:1;stroke:none;stroke-width:2.99416;stroke-linecap:round;stroke-opacity:1"
       id="path19"
       cx="13.735548"
       cy="13.231734"
       rx="5.0911689"
       ry="5.064652" />
    <path
       id="path20"
       style="fill:#ffffff;stroke-width:2.88324;stroke-linecap:round"
       d="m 13.43061,12.409723 c 0,0.995837 -0.718246,1.803123 -1.604248,1.803123 -0.886002,0 -1.604249,-0.807286 -1.604249,-1.803123 0,-0.995837 0.758022,-1.498183 1.644024,-1.498182 0.886001,0 1.564473,0.502345 1.564473,1.498182 z"
       sodipodi:nodetypes="sssss" />
    <path
       style="fill:none;fill-opacity:1;stroke:#ffffff;stroke-width:0.973298;stroke-linecap:round;stroke-dasharray:none;stroke-opacity:1"
       d="m 14.799096,12.450771 c 0.835188,-0.597514 1.715573,-0.709394 2.672393,0"
       id="path21"
       sodipodi:nodetypes="cc" />
    <path
       style="fill:none;fill-opacity:1;stroke:#ffffff;stroke-width:0.96365;stroke-linecap:round;stroke-dasharray:none;stroke-opacity:1"
       d="m 12.346438,15.89953 c 1.025716,0.476927 2.10694,0.566228 3.282035,0"
       id="path22"
       sodipodi:nodetypes="cc" />
  </g>
</svg>
