<?xml version="1.0" encoding="UTF-8" standalone="no"?>
<!-- Created with Inkscape (http://www.inkscape.org/) -->

<svg
   width="100"
   height="100"
   viewBox="0 0 26.458333 26.458333"
   version="1.1"
   id="svg1"
   inkscape:version="1.4.2 (ebf0e940d0, 2025-05-08)"
   sodipodi:docname="health_fruit.svg.svg"
   xmlns:inkscape="http://www.inkscape.org/namespaces/inkscape"
   xmlns:sodipodi="http://sodipodi.sourceforge.net/DTD/sodipodi-0.dtd"
   xmlns="http://www.w3.org/2000/svg"
   xmlns:svg="http://www.w3.org/2000/svg">
  <sodipodi:namedview
     id="namedview1"
     pagecolor="#505050"
     bordercolor="#eeeeee"
     borderopacity="1"
     inkscape:showpageshadow="0"
     inkscape:pageopacity="0"
     inkscape:pagecheckerboard="0"
     inkscape:deskcolor="#505050"
     inkscape:document-units="px"
     inkscape:zoom="3.5277778"
     inkscape:cx="27.92126"
     inkscape:cy="43.795276"
     inkscape:window-width="1366"
     inkscape:window-height="697"
     inkscape:window-x="0"
     inkscape:window-y="0"
     inkscape:window-maximized="1"
     inkscape:current-layer="layer1" />
  <defs
     id="defs1">
    <inkscape:perspective
       sodipodi:type="inkscape:persp3d"
       inkscape:vp_x="4.5 : 12.929166 : 1"
       inkscape:vp_y="0 : 1000 : 0"
       inkscape:vp_z="30.958333 : 12.929166 : 1"
       inkscape:persp3d-origin="17.729166 : 8.5194443 : 1"
       id="perspective1" />
  </defs>
  <g
     inkscape:label="Camada 1"
     inkscape:groupmode="layer"
     id="layer1">
    <path
       id="rect6"
       style="fill:#4aff0d;stroke:#072c00;stroke-width:1.02420207;fill-opacity:1;stroke-opacity:1;stroke-dasharray:none"
       d="m 15.581249,0.58125001 c 0.831,0 -0.308041,2.67166659 -0.15,3.48749999 l 0.69375,3.5812505 c 0.158041,0.8158333 -0.669,1.5 -1.5,1.5 -0.831,0 -1.586406,-0.6735044 -1.5,-1.5 L 13.556249,3.525 c 0.08641,-0.8264956 1.194,-2.94374999 2.025,-2.94374999 z"
       sodipodi:nodetypes="sssssss" />
    <path
       id="path6"
       style="fill:#ff0d0d;fill-opacity:1;stroke:#1f0d0d;stroke-width:1.09413;stroke-dasharray:none"
       d="M 7.429584,5.1336319 A 10.963607,7.5563901 54.693613 0 0 2.8389769,6.8166385 10.963607,7.5563901 54.693613 0 0 4.7336899,20.635664 10.963607,7.5563901 54.693613 0 0 15.474274,24.501441 7.5276391,10.882401 36.180971 0 0 21.291943,20.535503 7.5276391,10.882401 36.180971 0 0 23.186655,6.8721677 7.5276391,10.882401 36.180971 0 0 13.043923,7.4627508 10.963607,7.5563901 54.693613 0 0 7.429584,5.1336319 Z" />
    <path
       sodipodi:type="spiral"
       style="fill:none;fill-rule:evenodd;stroke:#0b2c00;stroke-width:0.89826834;stroke-dasharray:none;stroke-opacity:1"
       id="path7"
       sodipodi:cx="3.3"
       sodipodi:cy="6.6749997"
       sodipodi:expansion="1"
       sodipodi:revolution="3"
       sodipodi:radius="5.0911684"
       sodipodi:argument="-18.064157"
       sodipodi:t0="0"
       d="M 3.3,6.6749997 C 3.4804982,6.855498 3.1457433,7.0073592 2.9999999,6.9749996 2.6050443,6.8873071 2.5415528,6.3814182 2.7000002,6.0749996 2.9834253,5.5268886 3.7194186,5.4626777 4.2000001,5.775 4.9052729,6.2333457 4.9707576,7.2260323 4.4999995,7.8749999 3.872553,8.7399717 2.6153028,8.8061362 1.7999997,8.1749992 0.77402394,7.3807777 0.70747945,5.8556605 1.5000006,4.8749994 2.4598499,3.6872873 4.2545317,3.6205131 5.4000004,4.5750005 6.7498955,5.6998307 6.816818,7.7650671 5.6999991,9.0750002 4.4105875,10.58737 2.0741677,10.654393 0.59999944,9.3749988 -1.0750443,7.9212696 -1.1421392,5.3132418 0.30000102,3.6749991 1.9178644,1.8371385 4.7978009,1.7699909 6.6000006,3.3750009 8.6007838,5.1568662 8.667971,8.3089321 6.8999987,10.275"
       transform="matrix(0.40903273,-0.26244398,0.24341401,0.37937352,8.0835708,0.939011)" />
    <path
       sodipodi:type="spiral"
       style="fill:none;fill-rule:evenodd;stroke:#c40000;stroke-width:0.502708;stroke-dasharray:none;stroke-opacity:1"
       id="path12"
       sodipodi:cx="3.3"
       sodipodi:cy="6.6749997"
       sodipodi:expansion="1"
       sodipodi:revolution="3"
       sodipodi:radius="5.0911684"
       sodipodi:argument="-18.064157"
       sodipodi:t0="0"
       d="M 3.3,6.6749997 C 3.4804982,6.855498 3.1457433,7.0073592 2.9999999,6.9749996 2.6050443,6.8873071 2.5415528,6.3814182 2.7000002,6.0749996 2.9834253,5.5268886 3.7194186,5.4626777 4.2000001,5.775 4.9052729,6.2333457 4.9707576,7.2260323 4.4999995,7.8749999 3.872553,8.7399717 2.6153028,8.8061362 1.7999997,8.1749992 0.77402394,7.3807777 0.70747945,5.8556605 1.5000006,4.8749994 2.4598499,3.6872873 4.2545317,3.6205131 5.4000004,4.5750005 6.7498955,5.6998307 6.816818,7.7650671 5.6999991,9.0750002 4.4105875,10.58737 2.0741677,10.654393 0.59999944,9.3749988 -1.0750443,7.9212696 -1.1421392,5.3132418 0.30000102,3.6749991 1.9178644,1.8371385 4.7978009,1.7699909 6.6000006,3.3750009 8.6007838,5.1568662 8.667971,8.3089321 6.8999987,10.275"
       transform="matrix(1.0451377,0.26536689,-0.24917652,0.96990888,16.521519,3.5420112)" />
    <path
       sodipodi:type="spiral"
       style="fill:none;fill-rule:evenodd;stroke:#0b2c00;stroke-width:0.95479876;stroke-dasharray:none;stroke-opacity:1"
       id="path9"
       sodipodi:cx="3.3"
       sodipodi:cy="6.6749997"
       sodipodi:expansion="1"
       sodipodi:revolution="3"
       sodipodi:radius="5.0911684"
       sodipodi:argument="-18.064157"
       sodipodi:t0="0"
       d="M 3.3,6.6749997 C 3.4804982,6.855498 3.1457433,7.0073592 2.9999999,6.9749996 2.6050443,6.8873071 2.5415528,6.3814182 2.7000002,6.0749996 2.9834253,5.5268886 3.7194186,5.4626777 4.2000001,5.775 4.9052729,6.2333457 4.9707576,7.2260323 4.4999995,7.8749999 3.872553,8.7399717 2.6153028,8.8061362 1.7999997,8.1749992 0.77402394,7.3807777 0.70747945,5.8556605 1.5000006,4.8749994 2.4598499,3.6872873 4.2545317,3.6205131 5.4000004,4.5750005 6.7498955,5.6998307 6.816818,7.7650671 5.6999991,9.0750002 4.4105875,10.58737 2.0741677,10.654393 0.59999944,9.3749988 -1.0750443,7.9212696 -1.1421392,5.3132418 0.30000102,3.6749991 1.9178644,1.8371385 4.7978009,1.7699909 6.6000006,3.3750009 8.6007838,5.1568662 8.667971,8.3089321 6.8999987,10.275"
       transform="matrix(-0.23773591,-0.42387056,-0.39313546,0.22049753,21.391862,4.9289695)" />
    <path
       sodipodi:type="spiral"
       style="fill:none;fill-rule:evenodd;stroke:#c40000;stroke-width:0.502708;stroke-dasharray:none;stroke-opacity:1"
       id="path10"
       sodipodi:cx="3.3"
       sodipodi:cy="6.6749997"
       sodipodi:expansion="1"
       sodipodi:revolution="3"
       sodipodi:radius="5.0911684"
       sodipodi:argument="-18.064157"
       sodipodi:t0="0"
       d="M 3.3,6.6749997 C 3.4804982,6.855498 3.1457433,7.0073592 2.9999999,6.9749996 2.6050443,6.8873071 2.5415528,6.3814182 2.7000002,6.0749996 2.9834253,5.5268886 3.7194186,5.4626777 4.2000001,5.775 4.9052729,6.2333457 4.9707576,7.2260323 4.4999995,7.8749999 3.872553,8.7399717 2.6153028,8.8061362 1.7999997,8.1749992 0.77402394,7.3807777 0.70747945,5.8556605 1.5000006,4.8749994 2.4598499,3.6872873 4.2545317,3.6205131 5.4000004,4.5750005 6.7498955,5.6998307 6.816818,7.7650671 5.6999991,9.0750002 4.4105875,10.58737 2.0741677,10.654393 0.59999944,9.3749988 -1.0750443,7.9212696 -1.1421392,5.3132418 0.30000102,3.6749991 1.9178644,1.8371385 4.7978009,1.7699909 6.6000006,3.3750009 8.6007838,5.1568662 8.667971,8.3089321 6.8999987,10.275"
       transform="matrix(0.90673167,-0.58358391,0.53959299,0.84359444,0.35658554,8.2514765)" />
    <path
       sodipodi:type="spiral"
       style="fill:none;fill-rule:evenodd;stroke:#0b2c00;stroke-width:0.82585114;stroke-dasharray:none;stroke-opacity:1"
       id="path8"
       sodipodi:cx="3.3"
       sodipodi:cy="6.6749997"
       sodipodi:expansion="1"
       sodipodi:revolution="3"
       sodipodi:radius="5.0911684"
       sodipodi:argument="-18.064157"
       sodipodi:t0="0"
       d="M 3.3,6.6749997 C 3.4804982,6.855498 3.1457433,7.0073592 2.9999999,6.9749996 2.6050443,6.8873071 2.5415528,6.3814182 2.7000002,6.0749996 2.9834253,5.5268886 3.7194186,5.4626777 4.2000001,5.775 4.9052729,6.2333457 4.9707576,7.2260323 4.4999995,7.8749999 3.872553,8.7399717 2.6153028,8.8061362 1.7999997,8.1749992 0.77402394,7.3807777 0.70747945,5.8556605 1.5000006,4.8749994 2.4598499,3.6872873 4.2545317,3.6205131 5.4000004,4.5750005 6.7498955,5.6998307 6.816818,7.7650671 5.6999991,9.0750002 4.4105875,10.58737 2.0741677,10.654393 0.59999944,9.3749988 -1.0750443,7.9212696 -1.1421392,5.3132418 0.30000102,3.6749991 1.9178644,1.8371385 4.7978009,1.7699909 6.6000006,3.3750009 8.6007838,5.1568662 8.667971,8.3089321 6.8999987,10.275"
       transform="matrix(0.5633672,-0.55078475,0.53815462,0.43766163,3.5273584,5.8481222)" />
    <path
       sodipodi:type="spiral"
       style="fill:none;fill-rule:evenodd;stroke:#c40000;stroke-width:0.502708;stroke-dasharray:none;stroke-opacity:1"
       id="path11"
       sodipodi:cx="3.3"
       sodipodi:cy="6.6749997"
       sodipodi:expansion="1"
       sodipodi:revolution="3"
       sodipodi:radius="5.0911684"
       sodipodi:argument="-18.064157"
       sodipodi:t0="0"
       d="M 3.3,6.6749997 C 3.4804982,6.855498 3.1457433,7.0073592 2.9999999,6.9749996 2.6050443,6.8873071 2.5415528,6.3814182 2.7000002,6.0749996 2.9834253,5.5268886 3.7194186,5.4626777 4.2000001,5.775 4.9052729,6.2333457 4.9707576,7.2260323 4.4999995,7.8749999 3.872553,8.7399717 2.6153028,8.8061362 1.7999997,8.1749992 0.77402394,7.3807777 0.70747945,5.8556605 1.5000006,4.8749994 2.4598499,3.6872873 4.2545317,3.6205131 5.4000004,4.5750005 6.7498955,5.6998307 6.816818,7.7650671 5.6999991,9.0750002 4.4105875,10.58737 2.0741677,10.654393 0.59999944,9.3749988 -1.0750443,7.9212696 -1.1421392,5.3132418 0.30000102,3.6749991 1.9178644,1.8371385 4.7978009,1.7699909 6.6000006,3.3750009 8.6007838,5.1568662 8.667971,8.3089321 6.8999987,10.275"
       transform="matrix(-0.98195097,0.44553877,-0.41119582,-0.91308826,19.13714,23.132574)" />
  </g>
</svg>
