<?xml version="1.0" encoding="UTF-8" standalone="no"?>
<!-- Created with Inkscape (http://www.inkscape.org/) -->

<svg
   width="100"
   height="100"
   viewBox="0 0 26.458333 26.458333"
   version="1.1"
   id="svg1"
   inkscape:version="1.4.2 (ebf0e940d0, 2025-05-08)"
   sodipodi:docname="health_fruit.svg"
   xmlns:inkscape="http://www.inkscape.org/namespaces/inkscape"
   xmlns:sodipodi="http://sodipodi.sourceforge.net/DTD/sodipodi-0.dtd"
   xmlns="http://www.w3.org/2000/svg"
   xmlns:svg="http://www.w3.org/2000/svg">
  <sodipodi:namedview
     id="namedview1"
     pagecolor="#505050"
     bordercolor="#eeeeee"
     borderopacity="1"
     inkscape:showpageshadow="0"
     inkscape:pageopacity="0"
     inkscape:pagecheckerboard="0"
     inkscape:deskcolor="#505050"
     inkscape:document-units="px"
     inkscape:zoom="3.5277778"
     inkscape:cx="20.551181"
     inkscape:cy="52.299212"
     inkscape:window-width="1366"
     inkscape:window-height="697"
     inkscape:window-x="0"
     inkscape:window-y="0"
     inkscape:window-maximized="1"
     inkscape:current-layer="layer1" />
  <defs
     id="defs1">
    <inkscape:perspective
       sodipodi:type="inkscape:persp3d"
       inkscape:vp_x="4.5 : 12.929166 : 1"
       inkscape:vp_y="0 : 1000 : 0"
       inkscape:vp_z="30.958333 : 12.929166 : 1"
       inkscape:persp3d-origin="17.729166 : 8.5194443 : 1"
       id="perspective1" />
  </defs>
  <g
     inkscape:label="Camada 1"
     inkscape:groupmode="layer"
     id="layer1">
    <path
       id="path13"
       style="fill:#006930;stroke:#002c14;stroke-width:0.958755;fill-opacity:1"
       d="m 14.990476,3.3427983 c -0.704299,1.6058764 2.562112,0.3159953 3.934825,2.3264418 1.631626,2.3896455 4.659667,4.8333219 5.363966,3.2274472 0.704299,-1.6058758 -0.799989,-5.4250483 -3.294051,-6.6892286 -2.494064,-1.26418049 -5.30044,-0.470536 -6.00474,1.1353396 z"
       sodipodi:nodetypes="sssss" />
    <path
       id="rect6"
       style="fill:#00ac2e;fill-opacity:1;stroke:#002c14;stroke-width:0.91836874;stroke-dasharray:none;stroke-opacity:1"
       d="m 15.052082,0.58125004 c 0.831,0 -0.308041,2.67166656 -0.15,3.48749996 l 0.69375,3.5812505 c 0.158041,0.8158333 -0.669,1.5 -1.5,1.5 -0.831,0 -1.586406,-0.6735044 -1.5,-1.5 L 13.027082,3.525 c 0.08641,-0.8264956 1.194,-2.94374996 2.025,-2.94374996 z"
       sodipodi:nodetypes="sssssss" />
    <path
       id="rect15"
       style="fill:#006930;fill-opacity:1;stroke-width:0.918369"
       d="m 13.29375,5.5687497 1.2375,-0.99375 0.58125,2.5875 -2.15625,0.50625 z"
       sodipodi:nodetypes="ccccc" />
    <path
       style="fill:none;fill-opacity:1;stroke:#002c14;stroke-width:0.918369;stroke-dasharray:none;stroke-opacity:1"
       d="M 23.40818,8.8700822 C 23.112868,8.6328351 21.00329,6.2163283 19.972543,4.6136706 18.951893,3.0267127 15.235065,3.3749997 15.235065,3.3749997"
       id="path15"
       sodipodi:nodetypes="csc" />
    <path
       id="path6"
       style="fill:#ff0d0d;fill-opacity:1;stroke:#9c0000;stroke-width:1.14;stroke-dasharray:none;stroke-opacity:1"
       d="M 7.383575,5.1570828 A 11.400399,7.8889339 53.721808 0 0 2.5701428,6.899578 11.400399,7.8889339 53.721808 0 0 4.5568239,21.20706 11.400399,7.8889339 53.721808 0 0 15.818749,25.209479 7.8574545,11.318064 37.170702 0 0 21.918804,21.103359 7.8574545,11.318064 37.170702 0 0 23.905484,6.95707 7.8574545,11.318064 37.170702 0 0 13.27043,7.5685283 11.400399,7.8889339 53.721808 0 0 7.383575,5.1570828 Z" />
    <path
       id="path1"
       style="fill:#ff3d2e;fill-opacity:1;stroke:none;stroke-width:1.07926;stroke-dasharray:none"
       d="M 7.5580861,5.6852341 A 10.757959,7.4929706 51.802848 0 0 2.945056,7.3148747 10.757959,7.4929706 51.802848 0 0 4.8487567,20.69677 10.757959,7.4929706 51.802848 0 0 8.5475802,23.672392 11.818762,10.421487 0 0 1 7.2953477,19.003471 11.818762,10.421487 0 0 1 19.113964,8.5819202 11.818762,10.421487 0 0 1 24.821482,9.8779937 7.4602914,10.684244 39.119693 0 0 23.390505,7.3688565 7.4602914,10.684244 39.119693 0 0 13.199022,7.9407585 10.757959,7.4929706 51.802848 0 0 7.5580861,5.6852341 Z" />
    <path
       sodipodi:type="spiral"
       style="fill:none;fill-rule:evenodd;stroke:#9c0000;stroke-width:0.924059;stroke-dasharray:none;stroke-opacity:1"
       id="path10"
       sodipodi:cx="3.3"
       sodipodi:cy="6.6749997"
       sodipodi:expansion="1"
       sodipodi:revolution="3"
       sodipodi:radius="5.0911684"
       sodipodi:argument="-18.064157"
       sodipodi:t0="0.09794566"
       d="M 2.8647898,6.9184166 C 2.4930832,6.6830754 2.5797544,6.1442796 2.8494811,5.8695076 3.3089635,5.4014304 4.0770974,5.551503 4.475774,6.0173789 5.0484883,6.6866273 4.8291571,7.704034 4.1647228,8.2210558 3.2897682,8.9018914 2.016859,8.6109846 1.3836619,7.7468245 0.59302571,6.6677983 0.95655258,5.136663 2.0210732,4.3883797 3.3033623,3.4870203 5.0941621,3.9237133 5.9569019,5.1889709 6.9695424,6.6740665 6.4593651,8.7253859 4.9931307,9.7021837 3.3055108,10.826467 0.99312105,10.242605 -0.09746597,8.5752325 -1.3336406,6.6852746 -0.67595877,4.1114383 1.1926652,2.9072518 3.2848317,1.5590091 6.1203831,2.2906048 7.4380298,4.360563 8.6117867,6.2044773 8.3513229,8.6610597 6.8999987,10.275"
       transform="matrix(0.68866193,-0.45728538,0.40982041,0.66102474,0.6974918,8.1639022)" />
    <path
       sodipodi:type="spiral"
       style="fill:none;fill-rule:evenodd;stroke:#9c0000;stroke-width:0.924059;stroke-dasharray:none;stroke-opacity:1"
       id="path2"
       sodipodi:cx="3.3"
       sodipodi:cy="6.6749997"
       sodipodi:expansion="1"
       sodipodi:revolution="3"
       sodipodi:radius="5.0911684"
       sodipodi:argument="-18.064157"
       sodipodi:t0="0.09794566"
       d="M 2.8647898,6.9184166 C 2.4930832,6.6830754 2.5797544,6.1442796 2.8494811,5.8695076 3.3089635,5.4014304 4.0770974,5.551503 4.475774,6.0173789 5.0484883,6.6866273 4.8291571,7.704034 4.1647228,8.2210558 3.2897682,8.9018914 2.016859,8.6109846 1.3836619,7.7468245 0.59302571,6.6677983 0.95655258,5.136663 2.0210732,4.3883797 3.3033623,3.4870203 5.0941621,3.9237133 5.9569019,5.1889709 6.9695424,6.6740665 6.4593651,8.7253859 4.9931307,9.7021837 3.3055108,10.826467 0.99312105,10.242605 -0.09746597,8.5752325 -1.3336406,6.6852746 -0.67595877,4.1114383 1.1926652,2.9072518 3.2848317,1.5590091 6.1203831,2.2906048 7.4380298,4.360563 8.6117867,6.2044773 8.3513229,8.6610597 6.8999987,10.275"
       transform="matrix(-0.58557477,0.38242605,-0.34847358,-0.55281251,12.322748,19.527422)" />
    <path
       sodipodi:type="spiral"
       style="fill:none;fill-rule:evenodd;stroke:#9c0000;stroke-width:0.924059;stroke-dasharray:none;stroke-opacity:1"
       id="path3"
       sodipodi:cx="3.3"
       sodipodi:cy="6.6749997"
       sodipodi:expansion="1"
       sodipodi:revolution="3"
       sodipodi:radius="5.0911684"
       sodipodi:argument="-18.064157"
       sodipodi:t0="0.09794566"
       d="M 2.8647898,6.9184166 C 2.4930832,6.6830754 2.5797544,6.1442796 2.8494811,5.8695076 3.3089635,5.4014304 4.0770974,5.551503 4.475774,6.0173789 5.0484883,6.6866273 4.8291571,7.704034 4.1647228,8.2210558 3.2897682,8.9018914 2.016859,8.6109846 1.3836619,7.7468245 0.59302571,6.6677983 0.95655258,5.136663 2.0210732,4.3883797 3.3033623,3.4870203 5.0941621,3.9237133 5.9569019,5.1889709 6.9695424,6.6740665 6.4593651,8.7253859 4.9931307,9.7021837 3.3055108,10.826467 0.99312105,10.242605 -0.09746597,8.5752325 -1.3336406,6.6852746 -0.67595877,4.1114383 1.1926652,2.9072518 3.2848317,1.5590091 6.1203831,2.2906048 7.4380298,4.360563 8.6117867,6.2044773 8.3513229,8.6610597 6.8999987,10.275"
       transform="matrix(0.7061827,-0.41244016,0.42024696,0.59619914,8.8610092,19.207546)" />
    <path
       sodipodi:type="spiral"
       style="fill:none;fill-rule:evenodd;stroke:#9c0000;stroke-width:0.924059;stroke-dasharray:none;stroke-opacity:1"
       id="path4"
       sodipodi:cx="3.3"
       sodipodi:cy="6.6749997"
       sodipodi:expansion="1"
       sodipodi:revolution="3"
       sodipodi:radius="5.0911684"
       sodipodi:argument="-18.064157"
       sodipodi:t0="0.09794566"
       d="M 2.8647898,6.9184166 C 2.4930832,6.6830754 2.5797544,6.1442796 2.8494811,5.8695076 3.3089635,5.4014304 4.0770974,5.551503 4.475774,6.0173789 5.0484883,6.6866273 4.8291571,7.704034 4.1647228,8.2210558 3.2897682,8.9018914 2.016859,8.6109846 1.3836619,7.7468245 0.59302571,6.6677983 0.95655258,5.136663 2.0210732,4.3883797 3.3033623,3.4870203 5.0941621,3.9237133 5.9569019,5.1889709 6.9695424,6.6740665 6.4593651,8.7253859 4.9931307,9.7021837 3.3055108,10.826467 0.99312105,10.242605 -0.09746597,8.5752325 -1.3336406,6.6852746 -0.67595877,4.1114383 1.1926652,2.9072518 3.2848317,1.5590091 6.1203831,2.2906048 7.4380298,4.360563 8.6117867,6.2044773 8.3513229,8.6610597 6.8999987,10.275"
       transform="matrix(-0.58557477,0.38242605,-0.34847358,-0.55281251,24.679439,17.777333)" />
    <path
       sodipodi:type="spiral"
       style="fill:none;fill-rule:evenodd;stroke:#9c0000;stroke-width:0.924059;stroke-dasharray:none;stroke-opacity:1"
       id="path5"
       sodipodi:cx="3.3"
       sodipodi:cy="6.6749997"
       sodipodi:expansion="1"
       sodipodi:revolution="3"
       sodipodi:radius="5.0911684"
       sodipodi:argument="-18.064157"
       sodipodi:t0="0.09794566"
       d="M 2.8647898,6.9184166 C 2.4930832,6.6830754 2.5797544,6.1442796 2.8494811,5.8695076 3.3089635,5.4014304 4.0770974,5.551503 4.475774,6.0173789 5.0484883,6.6866273 4.8291571,7.704034 4.1647228,8.2210558 3.2897682,8.9018914 2.016859,8.6109846 1.3836619,7.7468245 0.59302571,6.6677983 0.95655258,5.136663 2.0210732,4.3883797 3.3033623,3.4870203 5.0941621,3.9237133 5.9569019,5.1889709 6.9695424,6.6740665 6.4593651,8.7253859 4.9931307,9.7021837 3.3055108,10.826467 0.99312105,10.242605 -0.09746597,8.5752325 -1.3336406,6.6852746 -0.67595877,4.1114383 1.1926652,2.9072518 3.2848317,1.5590091 6.1203831,2.2906048 7.4380298,4.360563 8.6117867,6.2044773 8.3513229,8.6610597 6.8999987,10.275"
       transform="matrix(0.20774705,-0.68266518,0.67473083,0.20424133,8.6954004,14.143592)" />
    <path
       sodipodi:type="spiral"
       style="fill:none;fill-rule:evenodd;stroke:#9c0000;stroke-width:0.924059;stroke-dasharray:none;stroke-opacity:1"
       id="path11"
       sodipodi:cx="3.3"
       sodipodi:cy="6.6749997"
       sodipodi:expansion="1"
       sodipodi:revolution="3"
       sodipodi:radius="5.0911684"
       sodipodi:argument="-18.064157"
       sodipodi:t0="0.09794566"
       d="M 2.8647898,6.9184166 C 2.4930832,6.6830754 2.5797544,6.1442796 2.8494811,5.8695076 3.3089635,5.4014304 4.0770974,5.551503 4.475774,6.0173789 5.0484883,6.6866273 4.8291571,7.704034 4.1647228,8.2210558 3.2897682,8.9018914 2.016859,8.6109846 1.3836619,7.7468245 0.59302571,6.6677983 0.95655258,5.136663 2.0210732,4.3883797 3.3033623,3.4870203 5.0941621,3.9237133 5.9569019,5.1889709 6.9695424,6.6740665 6.4593651,8.7253859 4.9931307,9.7021837 3.3055108,10.826467 0.99312105,10.242605 -0.09746597,8.5752325 -1.3336406,6.6852746 -0.67595877,4.1114383 1.1926652,2.9072518 3.2848317,1.5590091 6.1203831,2.2906048 7.4380298,4.360563 8.6117867,6.2044773 8.3513229,8.6610597 6.8999987,10.275"
       transform="matrix(-0.70186298,-0.29416655,-0.41767631,0.42522979,25.344429,7.2753125)" />
    <path
       id="path12"
       style="fill:#00ac2e;stroke:#002c14;stroke-width:0.920223"
       d="M 12.78805,3.2195179 C 13.456208,4.7789305 10.357411,3.5263703 9.0551385,5.4786473 7.5072388,7.7991518 4.6345802,10.172124 3.9664216,8.6127129 3.298263,7.0533009 4.725359,3.3446307 7.0914405,2.1170277 9.457522,0.8894245 12.119891,1.660106 12.78805,3.2195179 Z"
       sodipodi:nodetypes="sssss" />
    <path
       id="path16"
       style="fill:#006930;fill-opacity:1;stroke:none;stroke-width:0.811103"
       d="M 10.299698,2.0357259 C 10.042203,4.5733204 7.7086275,6.5143531 4.9153546,6.5143411 4.6835227,6.5143185 4.6488073,6.5194436 4.4188923,6.4923006 4.3344244,6.9855282 4.1408899,7.8588812 4.3073924,8.1845455 4.9507136,9.4428256 7.1069115,7.3591899 8.5972713,5.486788 9.851135,3.9115067 13.472095,4.6409689 12.828775,3.3826877 12.465498,2.6721505 11.490394,2.1646467 10.299698,2.0357259 Z"
       sodipodi:nodetypes="cccsssc" />
    <path
       style="fill:none;fill-opacity:1;stroke:#002c14;stroke-width:0.918369;stroke-dasharray:none;stroke-opacity:1"
       d="M 4.396599,8.6579502 C 4.6919115,8.4207031 6.8014896,6.0041963 7.8322368,4.4015386 8.8528867,2.8145807 12.569714,3.1628677 12.569714,3.1628677"
       id="path14"
       sodipodi:nodetypes="csc" />
  </g>
</svg>
