<?xml version="1.0" encoding="UTF-8" standalone="no"?>
<!-- Created with Inkscape (http://www.inkscape.org/) -->

<svg
   width="100"
   height="100"
   viewBox="0 0 26.458333 26.458333"
   version="1.1"
   id="svg1"
   inkscape:version="1.4.2 (ebf0e940d0, 2025-05-08)"
   sodipodi:docname="pele_sapo.svg"
   xml:space="preserve"
   xmlns:inkscape="http://www.inkscape.org/namespaces/inkscape"
   xmlns:sodipodi="http://sodipodi.sourceforge.net/DTD/sodipodi-0.dtd"
   xmlns="http://www.w3.org/2000/svg"
   xmlns:svg="http://www.w3.org/2000/svg"><sodipodi:namedview
     id="namedview1"
     pagecolor="#505050"
     bordercolor="#eeeeee"
     borderopacity="1"
     inkscape:showpageshadow="0"
     inkscape:pageopacity="0"
     inkscape:pagecheckerboard="0"
     inkscape:deskcolor="#505050"
     inkscape:document-units="px"
     inkscape:zoom="7.0555556"
     inkscape:cx="27.425197"
     inkscape:cy="52.795275"
     inkscape:window-width="1366"
     inkscape:window-height="697"
     inkscape:window-x="0"
     inkscape:window-y="0"
     inkscape:window-maximized="1"
     inkscape:current-layer="layer1" /><defs
     id="defs1"><linearGradient
       id="linearGradient13895"
       inkscape:swatch="solid"><stop
         style="stop-color:#000000;stop-opacity:1;"
         offset="0"
         id="stop13893" /></linearGradient><filter
       style="color-interpolation-filters:sRGB"
       inkscape:label="Clean Edges"
       id="filter14269"
       x="-0.31154084"
       y="-0.29580635"
       width="1.6230817"
       height="1.5916127"><feGaussianBlur
         stdDeviation="0.204612"
         result="blur"
         id="feGaussianBlur14263" /><feComposite
         in="SourceGraphic"
         in2="blur"
         operator="in"
         result="composite1"
         id="feComposite14265" /><feComposite
         in="composite1"
         in2="composite1"
         operator="in"
         result="composite2"
         id="feComposite14267" /></filter><filter
       style="color-interpolation-filters:sRGB"
       inkscape:label="Clean Edges"
       id="filter14269-3"
       x="-0.31154084"
       y="-0.29580635"
       width="1.6230817"
       height="1.5916127"><feGaussianBlur
         stdDeviation="0.204612"
         result="blur"
         id="feGaussianBlur14263-5" /><feComposite
         in="SourceGraphic"
         in2="blur"
         operator="in"
         result="composite1"
         id="feComposite14265-6" /><feComposite
         in="composite1"
         in2="composite1"
         operator="in"
         result="composite2"
         id="feComposite14267-2" /></filter><filter
       style="color-interpolation-filters:sRGB;"
       inkscape:label="Clean Edges"
       id="filter14269-35"
       x="-0.31154084"
       y="-0.29580634"
       width="1.6230817"
       height="1.5916127"><feGaussianBlur
         stdDeviation="0.204612"
         result="blur"
         id="feGaussianBlur14263-6" /><feComposite
         in="SourceGraphic"
         in2="blur"
         operator="in"
         result="composite1"
         id="feComposite14265-2" /><feComposite
         in="composite1"
         in2="composite1"
         operator="in"
         result="composite2"
         id="feComposite14267-9" /></filter><filter
       style="color-interpolation-filters:sRGB;"
       inkscape:label="Clean Edges"
       id="filter14269-356"
       x="-0.31154084"
       y="-0.29580634"
       width="1.6230817"
       height="1.5916127"><feGaussianBlur
         stdDeviation="0.204612"
         result="blur"
         id="feGaussianBlur14263-2" /><feComposite
         in="SourceGraphic"
         in2="blur"
         operator="in"
         result="composite1"
         id="feComposite14265-9" /><feComposite
         in="composite1"
         in2="composite1"
         operator="in"
         result="composite2"
         id="feComposite14267-1" /></filter></defs><g
     inkscape:label="Camada 1"
     inkscape:groupmode="layer"
     id="layer1"><path
       id="path13"
       style="fill:#002aa3;fill-opacity:1;stroke:#000f3d;stroke-width:0.964312;stroke-dasharray:none;stroke-opacity:1"
       d="m 15.808987,24.393009 c 0.112502,0.313747 0.339281,0.539804 0.551813,0.776808 1.601985,1.614642 6.050185,-4.055012 6.943694,-5.334382 l 0.160423,-0.343969 c 0.333325,-0.716119 0.08549,-1.631178 -0.555538,-2.051551 l -5.89886,-3.868587 c -0.641026,-0.420375 -1.425612,-0.181691 -1.758933,0.534429 l -0.159914,0.343738 c -0.333325,0.716121 -0.08549,1.631181 0.555536,2.051555 l 4.196022,2.669722 -3.753017,3.647834 c -0.388889,0.417077 -0.481658,1.040237 -0.28122,1.574405 z"
       sodipodi:nodetypes="cccccccccccc" /><path
       id="path11"
       style="fill:#002aa3;fill-opacity:1;stroke:#000f3d;stroke-width:0.964312;stroke-dasharray:none;stroke-opacity:1"
       d="M 10.095672,24.638236 C 9.9638831,24.947686 9.7239757,25.16409 9.4975504,25.392107 7.8017081,26.9386 3.7362642,21.054922 2.9285423,19.732219 L 2.7907636,19.38019 C 2.5045862,18.647319 2.809092,17.741181 3.4733685,17.34863 L 9.5862203,13.736062 C 10.2505,13.343508 11.015819,13.618084 11.302001,14.350953 l 0.137285,0.351775 c 0.286188,0.73287 -0.01833,1.639011 -0.682603,2.031564 L 6.4136445,19.2217 9.9156935,23.047335 C 10.2761,23.48293 10.32889,24.111788 10.095665,24.638238 Z"
       sodipodi:nodetypes="cccccccccccc" /><path
       id="path10"
       style="fill:#003df7;fill-opacity:1;stroke:#000f3d;stroke-width:1.33482;stroke-dasharray:none;stroke-opacity:1"
       d="m 20.180425,1.8180907 c 0.225316,-0.2456156 0.521987,-0.3661015 0.809767,-0.5022004 2.10259,-0.86749253 4.005503,6.0830746 4.33328,7.6087578 l 0.01456,0.3792595 c 0.0297,0.7893354 -0.553441,1.5368004 -1.307292,1.6758504 l -6.937196,1.27977 c -0.753853,0.139051 -1.384592,-0.38508 -1.414288,-1.174415 l -0.01418,-0.37885 c -0.0297,-0.7893373 0.553442,-1.536802 1.307292,-1.6758542 L 21.875163,8.195765 19.82943,3.3784211 C 19.6326,2.8432149 19.788623,2.232811 20.180433,1.8180907 Z"
       sodipodi:nodetypes="cccccccccccc" /><path
       id="rect1"
       style="fill:#003df7;fill-opacity:1;stroke:#000f3d;stroke-width:1.1760729;stroke-dasharray:none;stroke-opacity:1"
       d="M 5.878451,1.12059 C 5.6531354,0.87497345 5.3564628,0.75448865 5.0686845,0.61838971 2.9660932,-0.24910286 1.0631812,6.7014642 0.73540322,8.2271474 l -0.014559,0.3792595 C 0.69114392,9.3957419 1.2742862,10.143208 2.0281368,10.282258 l 6.9371975,1.279769 C 9.719186,11.701079 10.349925,11.176946 10.37962,10.387613 L 10.3938,10.008761 C 10.423498,9.219425 9.8403569,8.4719603 9.0865073,8.3329081 L 4.1837131,7.4982632 6.229446,2.6809204 C 6.4262748,2.1457142 6.2702535,1.5353103 5.8784436,1.12059 Z"
       sodipodi:nodetypes="cccccccccccc" /><ellipse
       style="fill:#001a6b;fill-opacity:1;stroke:none;stroke-width:0.315349;stroke-linecap:round;stroke-opacity:1"
       id="ellipse7"
       cx="1.5063642"
       cy="25.506519"
       rx="1.2126651"
       ry="0.65932518"
       transform="matrix(-0.7297797,0.68368238,0.78693714,0.61703317,0,0)" /><ellipse
       style="fill:#003df7;fill-opacity:1;stroke:#000f3d;stroke-width:1.60602081;stroke-dasharray:none;stroke-opacity:1"
       id="path1-7"
       cx="12.641132"
       cy="12.145881"
       rx="7.3180175"
       ry="6.6951947" /><ellipse
       style="fill:#ffb91e;fill-opacity:1;stroke:none;stroke-width:0.409378;stroke-linecap:round;stroke-opacity:1"
       id="ellipse2"
       cx="17.320421"
       cy="14.147624"
       rx="1.354391"
       ry="0.9948585" /><ellipse
       style="fill:#ffb91e;fill-opacity:1;stroke:none;stroke-width:0.280266;stroke-linecap:round;stroke-opacity:1"
       id="path2-9"
       cx="10.996224"
       cy="15.661374"
       rx="0.99080479"
       ry="0.63739389" /><ellipse
       style="fill:#ffb91e;fill-opacity:1;stroke:none;stroke-width:0.162677;stroke-linecap:round;stroke-opacity:1"
       id="ellipse4"
       cx="17.765844"
       cy="9.1672306"
       rx="0.55988789"
       ry="0.38001943" /><ellipse
       style="fill:#ffb91e;fill-opacity:1;stroke:none;stroke-width:0.236558;stroke-linecap:round;stroke-opacity:1"
       id="ellipse8"
       cx="3.4043462"
       cy="-9.432106"
       rx="0.91000783"
       ry="0.49440807"
       transform="scale(1,-1)" /><ellipse
       style="fill:#ffb91e;fill-opacity:1;stroke:none;stroke-width:0.236722;stroke-linecap:round;stroke-opacity:1"
       id="ellipse10"
       cx="-4.3362203"
       cy="-5.5325699"
       rx="0.95176482"
       ry="0.47337714"
       transform="matrix(0.49074109,-0.87130545,-0.84417846,-0.53606224,0,0)" /><ellipse
       style="fill:#ffb91e;fill-opacity:1;stroke:none;stroke-width:0.299814;stroke-linecap:round;stroke-opacity:1"
       id="ellipse11"
       cx="-2.1062918"
       cy="-4.847477"
       rx="0.98509616"
       ry="0.73363531"
       transform="matrix(0.15869686,-0.98732736,-0.9810264,-0.19387421,0,0)" /><ellipse
       style="fill:#ffb91e;fill-opacity:1;stroke:none;stroke-width:0.236558;stroke-linecap:round;stroke-opacity:1"
       id="ellipse12"
       cx="-23.449524"
       cy="-9.839262"
       rx="0.91000783"
       ry="0.49440807"
       transform="scale(-1)" /><ellipse
       style="fill:#ffb91e;fill-opacity:1;stroke:none;stroke-width:0.236722;stroke-linecap:round;stroke-opacity:1"
       id="ellipse15"
       cx="-18.811802"
       cy="17.236244"
       rx="0.95176482"
       ry="0.47337714"
       transform="matrix(-0.49074109,-0.87130545,0.84417846,-0.53606224,0,0)" /><ellipse
       style="fill:#ffb91e;fill-opacity:1;stroke:none;stroke-width:0.299814;stroke-linecap:round;stroke-opacity:1"
       id="ellipse16"
       cx="-11.601274"
       cy="18.98317"
       rx="0.98509616"
       ry="0.73363531"
       transform="matrix(-0.37766866,-0.92594081,0.91185486,-0.41051275,0,0)" /><ellipse
       style="fill:#001a6b;fill-opacity:1;stroke:none;stroke-width:0.380296;stroke-linecap:round;stroke-opacity:1"
       id="ellipse17"
       cx="24.241655"
       cy="8.7656021"
       rx="1.473901"
       ry="0.78892088"
       transform="matrix(0.63583727,0.77182314,-0.8320822,0.55465233,0,0)" /><ellipse
       style="fill:#001a6b;fill-opacity:1;stroke:none;stroke-width:0.315349;stroke-linecap:round;stroke-opacity:1"
       id="ellipse20"
       cx="6.6163416"
       cy="30.054733"
       rx="1.2126651"
       ry="0.65932518"
       transform="matrix(-0.7297797,0.68368238,0.78693714,0.61703317,0,0)" /><ellipse
       style="fill:#001a6b;fill-opacity:1;stroke:none;stroke-width:0.25715;stroke-linecap:round;stroke-opacity:1"
       id="ellipse1"
       cx="18.081963"
       cy="7.1296248"
       rx="1.0130417"
       ry="0.52481121"
       transform="matrix(0.59279435,0.80535387,-0.80151872,0.59796968,0,0)" /><ellipse
       style="fill:#001a6b;fill-opacity:1;stroke:none;stroke-width:0.25715;stroke-linecap:round;stroke-opacity:1"
       id="ellipse3"
       cx="19.760349"
       cy="8.1062784"
       rx="1.0130417"
       ry="0.52481121"
       transform="matrix(0.59279435,0.80535387,-0.80151872,0.59796968,0,0)" /><ellipse
       style="fill:#001a6b;fill-opacity:1;stroke:none;stroke-width:0.315349;stroke-linecap:round;stroke-opacity:1"
       id="ellipse5"
       cx="7.8215675"
       cy="29.266294"
       rx="1.2126651"
       ry="0.65932518"
       transform="matrix(-0.7297797,0.68368238,0.78693714,0.61703317,0,0)" /><ellipse
       style="fill:#001a6b;fill-opacity:1;stroke:none;stroke-width:0.315349;stroke-linecap:round;stroke-opacity:1"
       id="ellipse6"
       cx="2.2175465"
       cy="29.215845"
       rx="1.2126651"
       ry="0.65932518"
       transform="matrix(-0.7297797,0.68368238,0.78693714,0.61703317,0,0)" /><ellipse
       style="fill:#ffffff;fill-opacity:0.3494783;stroke-width:1.53822;stroke-linecap:round;stroke-linejoin:round;stroke-dasharray:none"
       id="path1"
       cx="13.825817"
       cy="2.98628"
       rx="2.8935642"
       ry="4.313796"
       transform="matrix(0.8039795,0.59465701,-0.5452177,0.8382945,0,0)" /><ellipse
       style="fill:#ffffff;fill-opacity:0.3494783;stroke-width:1.08153;stroke-linecap:round;stroke-linejoin:round;stroke-dasharray:none"
       id="ellipse9"
       cx="12.995935"
       cy="2.9494627"
       rx="2.0470142"
       ry="3.0144892"
       transform="matrix(0.81033497,0.58596693,-0.55370227,0.83271471,0,0)" /></g></svg>
