<?xml version="1.0" encoding="UTF-8" standalone="no"?>
<!-- Created with Inkscape (http://www.inkscape.org/) -->

<svg
   width="100"
   height="100"
   viewBox="0 0 26.458333 26.458334"
   version="1.1"
   id="svg5"
   inkscape:version="1.4.2 (ebf0e940d0, 2025-05-08)"
   sodipodi:docname="base.svg"
   inkscape:export-filename="base.png"
   inkscape:export-xdpi="96"
   inkscape:export-ydpi="96"
   xmlns:inkscape="http://www.inkscape.org/namespaces/inkscape"
   xmlns:sodipodi="http://sodipodi.sourceforge.net/DTD/sodipodi-0.dtd"
   xmlns="http://www.w3.org/2000/svg"
   xmlns:svg="http://www.w3.org/2000/svg">
  <sodipodi:namedview
     id="namedview7"
     pagecolor="#505050"
     bordercolor="#ffffff"
     borderopacity="1"
     inkscape:pageshadow="0"
     inkscape:pageopacity="0"
     inkscape:pagecheckerboard="1"
     inkscape:document-units="mm"
     showgrid="false"
     units="px"
     width="100px"
     inkscape:snap-global="false"
     inkscape:zoom="3.442256"
     inkscape:cx="140.89597"
     inkscape:cy="55.341613"
     inkscape:window-width="1366"
     inkscape:window-height="697"
     inkscape:window-x="0"
     inkscape:window-y="0"
     inkscape:window-maximized="1"
     inkscape:current-layer="layer1"
     inkscape:showpageshadow="0"
     inkscape:deskcolor="#505050" />
  <defs
     id="defs2">
    <linearGradient
       id="linearGradient13895"
       inkscape:swatch="solid">
      <stop
         style="stop-color:#000000;stop-opacity:1;"
         offset="0"
         id="stop13893" />
    </linearGradient>
    <filter
       style="color-interpolation-filters:sRGB;"
       inkscape:label="Clean Edges"
       id="filter14269"
       x="-0.31154084"
       y="-0.29580634"
       width="1.6230817"
       height="1.5916127">
      <feGaussianBlur
         stdDeviation="0.204612"
         result="blur"
         id="feGaussianBlur14263" />
      <feComposite
         in="SourceGraphic"
         in2="blur"
         operator="in"
         result="composite1"
         id="feComposite14265" />
      <feComposite
         in="composite1"
         in2="composite1"
         operator="in"
         result="composite2"
         id="feComposite14267" />
    </filter>
  </defs>
  <g
     inkscape:label="Camada 1"
     inkscape:groupmode="layer"
     id="layer1">
    <rect
       style="fill:#002766;stroke:#090042;stroke-width:0.549252;stroke-opacity:1;fill-opacity:1"
       id="rect2199"
       width="2.9690452"
       height="6.6044025"
       x="7.63902"
       y="19.631306"
       ry="1.1621161" />
    <rect
       style="fill:#002766;stroke:#090042;stroke-width:0.555604;stroke-opacity:1;fill-opacity:1"
       id="rect2303"
       width="3.1049774"
       height="6.4621744"
       x="11.004696"
       y="19.690739"
       ry="1.1370896" />
    <path
       id="rect9714"
       style="fill:#0053ce;fill-opacity:1;stroke:#090042;stroke-width:0.70453;stroke-miterlimit:4;stroke-dasharray:none;stroke-opacity:1"
       d="M 6.9587213,12.459687 C 6.5885288,12.503147 6.2724058,12.67737 6.1566424,12.93362 l -1.5945868,3.529816 c -0.027024,0.05982 -0.04149,0.120641 -0.044331,0.180644 -0.051628,0.07881 -0.084947,0.163069 -0.094391,0.250803 l -0.401844,3.730467 c -0.042415,0.393833 0.4001379,0.695687 0.9917434,0.677203 l 0.4476181,-0.01337 c 0.5916056,-0.01848 1.1018884,-0.351035 1.1443047,-0.744868 l 0.3694429,-3.430522 c 0.024275,-0.03311 0.044905,-0.06764 0.061447,-0.104245 L 8.6313578,13.478982 C 8.7997387,13.106258 8.4786688,12.705635 7.9121066,12.580717 l -0.4288449,-0.09479 c -0.1770531,-0.03904 -0.3562588,-0.04595 -0.5245318,-0.02623 z" />
    <path
       id="path15"
       style="fill:#ffffff;fill-opacity:1;stroke:#191414;stroke-width:0.444;stroke-dasharray:none"
       d="m 17.659134,3.5381799 1.205241,-1.6612209 1.325762,5.3371145 -1.084716,1.095699 z"
       sodipodi:nodetypes="ccccc" />
    <path
       id="path11551"
       style="fill:#002766;fill-opacity:1;stroke:#090042;stroke-width:0.728343;stroke-miterlimit:4;stroke-dasharray:none;stroke-opacity:1"
       d="m 22.476443,13.853334 c -0.118741,0.407513 -0.358479,0.727999 -0.640029,0.806881 l -3.878288,1.08655 c -0.06572,0.01842 -0.129911,0.02251 -0.190914,0.01373 -0.08986,0.04228 -0.181458,0.06287 -0.271725,0.05594 L 13.65715,15.521963 c -0.405221,-0.03109 -0.619405,-0.588985 -0.480749,-1.250358 l 0.104285,-0.500531 c 0.138652,-0.661374 0.577097,-1.168506 0.982318,-1.13741 l 3.5297,0.27087 c 0.03827,-0.02066 0.07722,-0.03694 0.117463,-0.0482 l 3.879185,-1.087217 c 0.409523,-0.114732 0.74783,0.326334 0.758665,0.988245 l 0.0084,0.501061 c 0.0034,0.206848 -0.02602,0.409687 -0.08002,0.594914 z" />
    <rect
       style="fill:#ffffff;stroke:#191414;stroke-width:0.549;stroke-miterlimit:4;stroke-dasharray:none;stroke-opacity:1"
       id="rect2963"
       width="2.00069"
       height="17.948395"
       x="19.743254"
       y="8.1494627"
       ry="0.56545579" />
    <path
       id="path13"
       style="fill:#002766;fill-opacity:1;stroke-width:0.555001"
       d="m 6.9274361,16.469341 0.792869,-1.722906 -0.2146647,-2.023343 -1.991436,4.065339 z"
       sodipodi:nodetypes="ccccc" />
    <path
       id="rect9738"
       style="fill:#313131;fill-opacity:1;stroke:#000000;stroke-width:0.534363;stroke-miterlimit:4;stroke-dasharray:none;stroke-opacity:1"
       d="m 7.5915624,12.624983 -0.488704,11.715121 1.871058,1.22584 1.9704836,-1.802765 1.506626,1.802765 2.253955,-1.69946 -0.434403,-11.241501 z"
       sodipodi:nodetypes="cccccccc" />
    <path
       id="path2"
       style="fill:#1f1f1f;fill-opacity:1;stroke:none;stroke-width:0.505221;stroke-dasharray:none;stroke-opacity:1"
       d="m 8.5935296,15.347336 2.3283594,-0.325561 1.85573,7.41056 -3.9082106,0.51774 z"
       sodipodi:nodetypes="ccccc" />
    <path
       id="path34"
       style="fill:#1f1f1f;fill-opacity:1;stroke:none;stroke-width:0.410882;stroke-dasharray:none;stroke-opacity:1"
       d="M 7.3951983,24.203039 8.2098241,24.783316 9.5708641,13.40659 7.7814053,13.294972 Z"
       sodipodi:nodetypes="ccccc" />
    <g
       id="g15"
       transform="rotate(-7.5915294,8.3348342,18.241943)">
      <path
         id="rect2"
         style="fill:#800000;fill-opacity:1;stroke:#330000;stroke-width:0.428;stroke-dasharray:none;stroke-opacity:1"
         d="m 9.4570037,14.797702 h 1.7663953 l 0.652207,7.255805 -2.9621083,-0.02717 z"
         sodipodi:nodetypes="ccccc" />
      <path
         id="path35"
         style="fill:#ff0000;fill-opacity:1;stroke:none;stroke-width:0.428;stroke-dasharray:none;stroke-opacity:1"
         d="m 9.7068097,14.095592 0.7095243,-0.01922 0.0373,6.083639 -1.2903304,1.164212 z"
         sodipodi:nodetypes="ccccc" />
    </g>
    <path
       id="ellipse1"
       style="fill:#ff0000;stroke:#4e0600;stroke-width:0.373105"
       d="m 14.288813,13.7487 c -0.2598,1.117319 -1.396468,1.925559 -3.36627,1.925559 -1.9697998,0 -3.0397663,-0.981014 -3.3217418,-2.095733 -0.4897913,-1.936268 1.3519427,-2.00291 3.3217418,-2.00291 1.969802,0 3.856062,0.06664 3.36627,2.173084 z"
       sodipodi:nodetypes="sssss" />
    <ellipse
       style="fill:#002766;fill-opacity:1;stroke:#090042;stroke-width:0.313181;stroke-miterlimit:4;stroke-dasharray:none;stroke-opacity:1"
       id="path11105"
       cx="10.991097"
       cy="12.416838"
       rx="2.4663284"
       ry="2.0880623" />
    <ellipse
       style="fill:#0053ce;fill-opacity:1;stroke:none;stroke-width:0.248773;stroke-miterlimit:4;stroke-dasharray:none;stroke-opacity:1"
       id="ellipse2"
       cx="11.250794"
       cy="12.290687"
       rx="2.0547945"
       ry="1.5814151" />
    <ellipse
       style="fill:#002766;fill-opacity:1;stroke:#090042;stroke-width:0.665204;stroke-miterlimit:4;stroke-dasharray:none;stroke-opacity:1"
       id="path9279"
       cx="11.130655"
       cy="6.6764016"
       rx="5.7862"
       ry="5.7214785" />
    <ellipse
       style="fill:#0053ce;fill-opacity:1;stroke:none;stroke-width:0.275613;stroke-miterlimit:4;stroke-dasharray:none;stroke-opacity:1"
       id="ellipse9379"
       cx="11.739683"
       cy="6.0954762"
       rx="4.5802035"
       ry="4.6339922" />
    <path
       id="path9421"
       style="fill:#ffffff;fill-opacity:1;stroke:#002865;stroke-width:0.474;stroke-miterlimit:4;stroke-dasharray:none;stroke-opacity:1"
       d="M 8.4191243,5.5236938 A 1.7275637,2.3700898 0 0 0 8.1297363,6.836792 1.7275637,2.3700898 0 0 0 9.8572795,9.2066731 1.7275637,2.3700898 0 0 0 11.584823,6.836792 1.7275637,2.3700898 0 0 0 11.295435,5.5236938 Z" />
    <path
       id="path3"
       style="fill:#ffffff;fill-opacity:1;stroke:#002865;stroke-width:0.474;stroke-miterlimit:4;stroke-dasharray:none;stroke-opacity:1"
       d="M 12.55053,5.4468304 A 1.7275637,2.3700898 0 0 0 12.261142,6.7599286 1.7275637,2.3700898 0 0 0 13.988685,9.1298097 1.7275637,2.3700898 0 0 0 15.716228,6.7599286 1.7275637,2.3700898 0 0 0 15.42684,5.4468304 Z" />
    <path
       id="path7"
       style="fill:#ffffff;fill-opacity:1;stroke:#191414;stroke-width:0.444;stroke-dasharray:none"
       d="M 24.072333,3.4228848 22.867092,1.7616639 21.54133,7.0987784 22.626046,8.1944774 Z"
       sodipodi:nodetypes="ccccc" />
    <g
       id="g6"
       transform="matrix(-1.7902656,0,0,-1.7323616,72.929196,21.538041)"
       style="stroke-width:0.283917;stroke-dasharray:none">
      <rect
         style="fill:#ffffff;stroke:#191414;stroke-width:0.283917;stroke-miterlimit:4;stroke-dasharray:none;stroke-opacity:1"
         id="rect5"
         width="2.418293"
         height="0.53468895"
         x="27.855507"
         y="7.3858442"
         ry="0.25027269" />
      <rect
         style="fill:#ffffff;stroke:#191414;stroke-width:0.283917;stroke-miterlimit:4;stroke-dasharray:none;stroke-opacity:1"
         id="rect6"
         width="2.895308"
         height="0.70425063"
         x="27.631411"
         y="7.8246946"
         ry="0.3296397" />
    </g>
    <g
       id="g22"
       transform="matrix(1.7884929,0.07707202,-0.07964813,1.7306462,-30.63778,5.5924372)">
      <path
         id="path17"
         style="fill:#861414;fill-opacity:1;stroke:#191414;stroke-width:0.192"
         d="m 29.179479,1.3621619 c 0,0.1894821 -0.12582,0.6505412 -0.328434,0.6505415 -0.202615,2e-7 -0.405299,-0.461059 -0.405299,-0.6505415 0,-0.1894825 0.164252,-0.3430884 0.366867,-0.3430882 0.202615,3e-7 0.366866,0.153606 0.366866,0.3430882 z"
         sodipodi:nodetypes="sssss" />
      <path
         id="path18"
         style="fill:#4d4d4d;stroke:#191414;stroke-width:0.192"
         d="m 28.357427,0.89338797 c 0,0.18948213 0.220065,0.48720663 0.01745,0.48720693 -0.202615,2e-7 -0.751184,-0.2977244 -0.751184,-0.48720693 0,-0.18948251 0.164252,-0.34308838 0.366867,-0.34308815 0.202615,2.9e-7 0.366866,0.153606 0.366867,0.34308815 z"
         sodipodi:nodetypes="sssss" />
      <path
         id="path19"
         style="fill:#4d4d4d;stroke:#191414;stroke-width:0.192"
         d="m 29.960769,0.80506825 c 0,0.18948215 -0.471705,0.48720665 -0.674319,0.48720695 -0.202615,2e-7 -0.05941,-0.29772444 -0.05941,-0.48720695 0,-0.18948251 0.164252,-0.34308838 0.366867,-0.34308815 0.202615,2.9e-7 0.366866,0.153606 0.366866,0.34308815 z"
         sodipodi:nodetypes="sssss" />
      <path
         id="path20"
         style="fill:#df2e2e;fill-opacity:1;stroke:none;stroke-width:0.0965249"
         d="m 29.044968,1.3211899 c 0,0.097872 -0.06157,0.3360203 -0.160706,0.3360204 -0.09914,1e-7 -0.198318,-0.2381481 -0.198318,-0.3360204 0,-0.097872 0.08037,-0.1772134 0.179512,-0.1772133 0.09915,2e-7 0.179512,0.079341 0.179512,0.1772133 z"
         sodipodi:nodetypes="sssss" />
      <path
         id="path21"
         style="fill:#7f7f7f;fill-opacity:1;stroke:none;stroke-width:0.0784491"
         d="m 28.149614,0.69865723 c 0.05242,0.0598357 0.142334,0.23840606 0.08174,0.29149337 -0.0606,0.053093 -0.248779,-0.0393931 -0.301199,-0.099229 -0.05242,-0.0598357 -0.04579,-0.15137913 0.01482,-0.2044742 0.06061,-0.053099 0.152226,-0.0476261 0.204647,0.0122098 z"
         sodipodi:nodetypes="sssss" />
      <path
         id="path22"
         style="fill:#7f7f7f;fill-opacity:1;stroke:none;stroke-width:0.0784491"
         d="m 29.428341,0.62179387 c -0.05242,0.0598357 -0.142334,0.23840606 -0.08174,0.29149337 0.0606,0.053093 0.248779,-0.0393931 0.301199,-0.099229 0.05242,-0.0598357 0.04579,-0.15137913 -0.01482,-0.2044742 -0.06061,-0.053099 -0.152226,-0.0476261 -0.204647,0.0122098 z"
         sodipodi:nodetypes="sssss" />
    </g>
    <rect
       style="fill:#ffffff;stroke:#191414;stroke-width:0.421;stroke-miterlimit:4;stroke-dasharray:none;stroke-opacity:1"
       id="rect4"
       width="4.2497587"
       height="0.9376806"
       x="18.621096"
       y="23.061317"
       ry="0.43890166" />
    <rect
       style="fill:#ffffff;stroke:#191414;stroke-width:0.478;stroke-miterlimit:4;stroke-dasharray:none;stroke-opacity:1"
       id="rect3"
       width="5.0880356"
       height="1.2350399"
       x="18.227282"
       y="23.830927"
       ry="0.57808709" />
    <g
       id="g28"
       transform="matrix(1.7555982,-0.07802106,-0.07818321,-1.7519572,-29.773591,26.116604)">
      <path
         id="path23"
         style="fill:#861414;fill-opacity:1;stroke:#191414;stroke-width:0.192"
         d="m 29.179479,1.3621619 c 0,0.1894821 -0.12582,0.6505412 -0.328434,0.6505415 -0.202615,2e-7 -0.405299,-0.461059 -0.405299,-0.6505415 0,-0.1894825 0.164252,-0.3430884 0.366867,-0.3430882 0.202615,3e-7 0.366866,0.153606 0.366866,0.3430882 z"
         sodipodi:nodetypes="sssss" />
      <path
         id="path24"
         style="fill:#4d4d4d;stroke:#191414;stroke-width:0.192"
         d="m 28.357427,0.89338797 c 0,0.18948213 0.220065,0.48720663 0.01745,0.48720693 -0.202615,2e-7 -0.751184,-0.2977244 -0.751184,-0.48720693 0,-0.18948251 0.164252,-0.34308838 0.366867,-0.34308815 0.202615,2.9e-7 0.366866,0.153606 0.366867,0.34308815 z"
         sodipodi:nodetypes="sssss" />
      <path
         id="path25"
         style="fill:#4d4d4d;stroke:#191414;stroke-width:0.192"
         d="m 29.960769,0.80506825 c 0,0.18948215 -0.471705,0.48720665 -0.674319,0.48720695 -0.202615,2e-7 -0.05941,-0.29772444 -0.05941,-0.48720695 0,-0.18948251 0.164252,-0.34308838 0.366867,-0.34308815 0.202615,2.9e-7 0.366866,0.153606 0.366866,0.34308815 z"
         sodipodi:nodetypes="sssss" />
      <path
         id="path26"
         style="fill:#df2e2e;fill-opacity:1;stroke:none;stroke-width:0.0965249"
         d="m 29.044968,1.3211899 c 0,0.097872 -0.06157,0.3360203 -0.160706,0.3360204 -0.09914,1e-7 -0.198318,-0.2381481 -0.198318,-0.3360204 0,-0.097872 0.08037,-0.1772134 0.179512,-0.1772133 0.09915,2e-7 0.179512,0.079341 0.179512,0.1772133 z"
         sodipodi:nodetypes="sssss" />
      <path
         id="path27"
         style="fill:#7f7f7f;fill-opacity:1;stroke:none;stroke-width:0.0784491"
         d="m 28.149614,0.69865723 c 0.05242,0.0598357 0.142334,0.23840606 0.08174,0.29149337 -0.0606,0.053093 -0.248779,-0.0393931 -0.301199,-0.099229 -0.05242,-0.0598357 -0.04579,-0.15137913 0.01482,-0.2044742 0.06061,-0.053099 0.152226,-0.0476261 0.204647,0.0122098 z"
         sodipodi:nodetypes="sssss" />
      <path
         id="path28"
         style="fill:#7f7f7f;fill-opacity:1;stroke:none;stroke-width:0.0784491"
         d="m 29.428341,0.62179387 c -0.05242,0.0598357 -0.142334,0.23840606 -0.08174,0.29149337 0.0606,0.053093 0.248779,-0.0393931 0.301199,-0.099229 0.05242,-0.0598357 0.04579,-0.15137913 -0.01482,-0.2044742 -0.06061,-0.053099 -0.152226,-0.0476261 -0.204647,0.0122098 z"
         sodipodi:nodetypes="sssss" />
    </g>
    <path
       d="m 17.597545,13.252098 c 0.759318,-0.03732 0.558584,-0.07329 0.570114,-0.07869 l 0.693637,-0.155947 c 0.184536,-0.08632 0.543255,-0.251738 0.661003,-0.163506 l 0.273749,0.29412 c 0.117747,0.08823 0.286572,0.365134 0.123921,0.477323 l -0.509037,0.09319 c -0.38347,0.201698 -0.642549,0.199659 -1.28043,0.322114 -0.118293,-0.07659 -3.611582,-0.928328 -3.463351,-1.057569 z"
       style="fill:#0053ce;fill-opacity:1;stroke:none;stroke-width:0.270178"
       id="path1"
       sodipodi:nodetypes="cccccccccc" />
    <path
       d="m 22.34644,11.848889 c -0.02779,-9.52e-4 -0.05362,0.0032 -0.07752,0.01292 l -1.456759,0.594279 c -0.382288,0.155903 -1.121078,0.464503 -1.102258,0.89762 l 0.05478,1.254704 c 0.01882,0.433116 0.251076,1.314771 0.654224,1.261421 l 2.095479,-0.276985 c 0.403149,-0.05335 1.050282,-0.823093 1.053682,-1.257288 l 0.0072,-0.910539 c 0.0032,-0.407058 -0.811987,-1.561847 -1.228865,-1.576131 z"
       style="fill:#002766;stroke:#090042;stroke-width:0.682;stroke-opacity:1;fill-opacity:1"
       id="path32" />
    <path
       d="m 21.162084,12.835085 c 0.0099,-0.0085 0.02054,-0.01564 0.03207,-0.02104 l 0.703245,-0.32889 c 0.184536,-0.08632 0.543255,-0.251738 0.661003,-0.163506 l 0.273749,0.29412 c 0.117747,0.08823 0.286572,0.365134 0.123921,0.477323 l -0.778059,0.506327 c -0.162645,0.112192 -0.620568,0.161932 -0.746743,0.08024 l -0.264665,-0.171267 c -0.118293,-0.07659 -0.152731,-0.544011 -0.0045,-0.673252 z"
       style="fill:#0053ce;fill-opacity:1;stroke:none;stroke-width:0.270178"
       id="path33"
       sodipodi:nodetypes="ccccccccccc" />
    <path
       id="rect8"
       style="fill:#002766;fill-opacity:1;stroke-width:0.555001"
       d="M 7.0309457,16.242161 6.6652155,17.19594 6.2441874,20.743423 5.5093174,16.773186 Z"
       sodipodi:nodetypes="ccccc" />
    <path
       id="path14"
       style="fill:#818181;fill-opacity:1;stroke:none;stroke-width:0.328419;stroke-miterlimit:4;stroke-dasharray:none;stroke-opacity:1"
       d="M 8.5640811,5.7453587 A 1.5129807,2.0862961 0 0 0 8.3106383,6.901227 1.5129807,2.0862961 0 0 0 9.8236008,8.9873395 1.5129807,2.0862961 0 0 0 11.053251,8.1162305 1.9515851,1.9137071 0 0 1 10.472594,8.203114 1.9515851,1.9137071 0 0 1 8.5210863,6.2894038 1.9515851,1.9137071 0 0 1 8.6016449,5.7453587 Z" />
    <path
       id="path5"
       style="fill:#818181;fill-opacity:1;stroke:none;stroke-width:0.328419;stroke-miterlimit:4;stroke-dasharray:none;stroke-opacity:1"
       d="m 12.694727,5.6638328 a 1.5129807,2.0862961 0 0 0 -0.253443,1.1558683 1.5129807,2.0862961 0 0 0 1.512962,2.0861125 1.5129807,2.0862961 0 0 0 1.22965,-0.871109 1.9515851,1.9137071 0 0 1 -0.580657,0.086884 1.9515851,1.9137071 0 0 1 -1.951507,-1.9137102 1.9515851,1.9137071 0 0 1 0.08056,-0.5440451 z" />
    <g
       id="g7">
      <ellipse
         style="fill:#002766;fill-opacity:1;stroke:none;stroke-width:1.05482"
         id="path4"
         cx="10.279738"
         cy="6.8676744"
         rx="1.1109732"
         ry="1.1472735" />
      <path
         id="ellipse6"
         style="fill:#001c4a;fill-opacity:1;stroke:none;stroke-width:1.05482"
         d="M 9.6216349 5.9433065 A 1.1109732 1.1472735 0 0 0 9.1689494 6.8677979 A 1.1109732 1.1472735 0 0 0 10.279993 8.0150146 A 1.1109732 1.1472735 0 0 0 11.21637 7.4848145 A 1.1109732 1.1472735 0 0 1 10.558529 7.7075399 A 1.1109732 1.1472735 0 0 1 9.4474854 6.5603231 A 1.1109732 1.1472735 0 0 1 9.6216349 5.9433065 z " />
      <circle
         style="fill:#ffffff;fill-opacity:1;stroke:none;stroke-width:0.418942"
         id="ellipse5"
         cx="9.7533178"
         cy="6.2299371"
         r="0.44839242" />
    </g>
    <g
       id="g8"
       transform="translate(4.1314053,-0.10568711)">
      <ellipse
         style="fill:#002766;fill-opacity:1;stroke:none;stroke-width:1.05482"
         id="ellipse7"
         cx="10.279738"
         cy="6.8676744"
         rx="1.1109732"
         ry="1.1472735" />
      <path
         id="path8"
         style="fill:#001c4a;fill-opacity:1;stroke:none;stroke-width:1.05482"
         d="M 9.6216349,5.9433065 A 1.1109732,1.1472735 0 0 0 9.1689494,6.8677979 1.1109732,1.1472735 0 0 0 10.279993,8.0150146 1.1109732,1.1472735 0 0 0 11.21637,7.4848145 1.1109732,1.1472735 0 0 1 10.558529,7.7075399 1.1109732,1.1472735 0 0 1 9.4474854,6.5603231 1.1109732,1.1472735 0 0 1 9.6216349,5.9433065 Z" />
      <circle
         style="fill:#ffffff;fill-opacity:1;stroke:none;stroke-width:0.418942"
         id="circle8"
         cx="9.7533178"
         cy="6.2299371"
         r="0.44839242" />
    </g>
  </g>
</svg>
