<?xml version="1.0" encoding="UTF-8" standalone="no"?>
<!-- Created with Inkscape (http://www.inkscape.org/) -->

<svg
   width="100"
   height="100"
   viewBox="0 0 26.458333 26.458334"
   version="1.1"
   id="svg5"
   inkscape:version="1.4.2 (ebf0e940d0, 2025-05-08)"
   sodipodi:docname="base.svg"
   inkscape:export-filename="base.png"
   inkscape:export-xdpi="96"
   inkscape:export-ydpi="96"
   xmlns:inkscape="http://www.inkscape.org/namespaces/inkscape"
   xmlns:sodipodi="http://sodipodi.sourceforge.net/DTD/sodipodi-0.dtd"
   xmlns="http://www.w3.org/2000/svg"
   xmlns:svg="http://www.w3.org/2000/svg">
  <sodipodi:namedview
     id="namedview7"
     pagecolor="#505050"
     bordercolor="#ffffff"
     borderopacity="1"
     inkscape:pageshadow="0"
     inkscape:pageopacity="0"
     inkscape:pagecheckerboard="1"
     inkscape:document-units="mm"
     showgrid="false"
     units="px"
     width="100px"
     inkscape:snap-global="false"
     inkscape:zoom="3.442256"
     inkscape:cx="62.313785"
     inkscape:cy="40.816255"
     inkscape:window-width="1366"
     inkscape:window-height="697"
     inkscape:window-x="0"
     inkscape:window-y="0"
     inkscape:window-maximized="1"
     inkscape:current-layer="layer1"
     inkscape:showpageshadow="0"
     inkscape:deskcolor="#505050" />
  <defs
     id="defs2">
    <linearGradient
       id="linearGradient13895"
       inkscape:swatch="solid">
      <stop
         style="stop-color:#000000;stop-opacity:1;"
         offset="0"
         id="stop13893" />
    </linearGradient>
    <filter
       style="color-interpolation-filters:sRGB;"
       inkscape:label="Clean Edges"
       id="filter14269"
       x="-0.31154084"
       y="-0.29580634"
       width="1.6230817"
       height="1.5916127">
      <feGaussianBlur
         stdDeviation="0.204612"
         result="blur"
         id="feGaussianBlur14263" />
      <feComposite
         in="SourceGraphic"
         in2="blur"
         operator="in"
         result="composite1"
         id="feComposite14265" />
      <feComposite
         in="composite1"
         in2="composite1"
         operator="in"
         result="composite2"
         id="feComposite14267" />
    </filter>
  </defs>
  <g
     inkscape:label="Camada 1"
     inkscape:groupmode="layer"
     id="layer1">
    <g
       id="g13"
       transform="translate(-0.99922357,-0.07686335)">
      <rect
         style="fill:#0053ce;fill-opacity:1;stroke:#110077;stroke-width:0.547255;stroke-opacity:1"
         id="rect2199"
         width="2.9710424"
         height="6.5520492"
         x="7.4842949"
         y="19.630306"
         ry="1.1529039" />
      <rect
         style="fill:#0053ce;fill-opacity:1;stroke:#110077;stroke-width:0.55612;stroke-opacity:1"
         id="rect2303"
         width="3.1044619"
         height="6.4752464"
         x="11.235543"
         y="19.652565"
         ry="1.1393898" />
      <path
         id="rect9714"
         style="fill:#0053ce;fill-opacity:1;stroke:#110077;stroke-width:0.805;stroke-miterlimit:4;stroke-dasharray:none;stroke-opacity:1"
         d="M 6.9587213,12.459687 C 6.5885288,12.503147 6.2724058,12.67737 6.1566424,12.93362 l -1.5945868,3.529816 c -0.092477,0.139598 -0.091571,0.285749 -0.138722,0.431447 l -0.401844,3.730467 c 0.1473691,0.476928 0.7849892,0.867863 1.3432823,0.851187 0.5958726,-0.002 1.2732387,-0.248058 1.2403839,-0.932222 l 0.3694429,-3.430522 c 0.576672,-1.197336 1.1089097,-2.422372 1.6567591,-3.634811 0.1683809,-0.372724 -0.152689,-0.773347 -0.7192512,-0.898265 l -0.4288449,-0.09479 c -0.1770531,-0.03904 -0.3562588,-0.04595 -0.5245318,-0.02623 z"
         sodipodi:nodetypes="ccccccccccccc" />
      <path
         id="path11551"
         style="fill:#002766;fill-opacity:1;stroke:#110077;stroke-width:0.828;stroke-miterlimit:4;stroke-dasharray:none;stroke-opacity:1"
         d="m 22.476443,13.853334 c -0.118741,0.407513 -0.358479,0.727999 -0.640029,0.806881 l -3.82064,1.091354 c -0.06572,0.01842 -0.245207,-0.18406 -0.30621,-0.19284 -0.08986,0.04228 -0.315968,0.288656 -0.406235,0.248098 L 13.65715,15.521963 c -0.405221,-0.03109 -0.619405,-0.588985 -0.480749,-1.250358 l 0.104285,-0.500531 c 0.138652,-0.661374 0.577097,-1.168506 0.982318,-1.13741 l 3.5297,0.27087 c 0.03827,-0.02066 0.07722,-0.03694 0.117463,-0.0482 l 3.879185,-1.087217 c 0.409523,-0.114732 0.74783,0.326334 0.758665,0.988245 l 0.0084,0.501061 c 0.0034,0.206848 -0.02602,0.409687 -0.08002,0.594914 z"
         sodipodi:nodetypes="cccccccccccccccc" />
      <path
         id="path13"
         style="fill:#002766;fill-opacity:1;stroke-width:0.555001"
         d="m 6.9274361,16.469341 0.792869,-1.722906 -0.2146647,-2.023343 -1.991436,4.065339 z"
         sodipodi:nodetypes="ccccc" />
      <path
         id="rect10"
         style="fill:#002766;stroke-width:0.449457"
         d="m 8.5753356,20.533649 h 0.7333617 c 0.4934601,0 0.8907227,0.410141 0.8907227,0.919599 v 3.386959 c 0,0.509458 -0.3547966,0.555096 -0.8380787,0.658037 L 8.5161112,25.67828 C 8.0328291,25.781221 7.6846127,25.349665 7.6846127,24.840207 v -3.386959 c 0,-0.509458 0.3972624,-0.919599 0.8907229,-0.919599 z"
         sodipodi:nodetypes="sssssssss" />
      <path
         id="path10"
         style="fill:#002766;stroke-width:0.455488"
         d="m 12.403941,20.615175 h 0.753173 c 0.506792,0 0.914786,0.410141 0.914786,0.919599 v 3.386959 c 0,0.509458 -0.364381,0.555096 -0.86072,0.658037 l -0.868064,0.180036 c -0.496338,0.102941 -0.853961,-0.328615 -0.853961,-0.838073 v -3.386959 c 0,-0.509458 0.407994,-0.919599 0.914786,-0.919599 z"
         sodipodi:nodetypes="sssssssss" />
      <path
         id="rect9738"
         style="fill:#313131;fill-opacity:1;stroke:#000000;stroke-width:0.534363;stroke-miterlimit:4;stroke-dasharray:none;stroke-opacity:1"
         d="m 7.3609723,12.663415 -0.204929,11.627484 c 0,0 0.7139886,0.721822 1.1745911,0.750955 1.1548074,0.07304 2.9596506,-1.586128 2.9596506,-1.586128 0,0 0.872549,1.498888 1.621921,1.572175 0.708653,0.0693 1.792775,-1.161417 1.792775,-1.161417 -0.345688,-3.700289 -0.29732,-7.20355 -0.242245,-10.703458 z"
         sodipodi:nodetypes="ccscsccc" />
      <path
         id="rect9"
         style="fill:#101010;fill-opacity:1;stroke-width:0.601853"
         d="m 8.4743761,15.710691 2.4407689,-0.147488 -0.448248,7.392991 c -0.03261,0.537805 -1.6544597,0.517675 -2.4861669,-0.154374 z"
         sodipodi:nodetypes="ccscc" />
      <path
         id="path34"
         style="fill:#101010;fill-opacity:1;stroke:none;stroke-width:0.410882;stroke-dasharray:none;stroke-opacity:1"
         d="M 7.3951983,24.203039 8.2098241,24.783316 9.5708641,13.40659 7.4355202,13.064382 Z"
         sodipodi:nodetypes="ccccc" />
      <path
         id="path9"
         style="fill:#101010;fill-opacity:1;stroke:none;stroke-width:0.522572;stroke-dasharray:none"
         d="m 14.17752,14.709401 c -0.0081,1.664949 -1.285773,1.944927 -3.331461,1.800678 -1.9312615,-0.13618 -2.9876949,-0.840403 -3.2648402,-1.795347 -0.4814013,-1.658738 1.3287841,-1.715828 3.2648402,-1.715828 1.936059,0 3.340216,-0.08024 3.331461,1.710497 z"
         sodipodi:nodetypes="sssss" />
      <g
         id="g15"
         transform="rotate(6.5620373,8.1868557,5.5114997)">
        <path
           id="rect2"
           style="fill:#800000;fill-opacity:1;stroke:#330000;stroke-width:0.428;stroke-dasharray:none;stroke-opacity:1"
           d="m 9.4570037,14.797702 h 1.7663953 l 0.652207,7.255805 -2.9621083,-0.02717 z"
           sodipodi:nodetypes="ccccc" />
        <path
           id="path35"
           style="fill:#ff0000;fill-opacity:1;stroke:none;stroke-width:0.428;stroke-dasharray:none;stroke-opacity:1"
           d="m 9.7068097,14.095592 0.7095243,-0.01922 0.0373,6.083639 -1.2903304,1.164212 z"
           sodipodi:nodetypes="ccccc" />
      </g>
      <path
         d="m 17.597545,13.252098 c 1.067994,-0.146694 1.870228,-0.551227 2.023235,-0.436575 l 0.175268,0.332552 c 0.117747,0.08823 0.286572,0.365134 0.123921,0.477323 l -0.509037,0.09319 c -0.38347,0.201698 -0.730869,0.566526 -1.36875,0.688981 -0.118293,-0.07659 -3.523262,-1.295195 -3.375031,-1.424436 z"
         style="fill:#0053ce;fill-opacity:1;stroke:none;stroke-width:0.270178"
         id="path1"
         sodipodi:nodetypes="cccccccc" />
      <path
         id="ellipse1"
         style="fill:#ff0000;stroke:#4e0600;stroke-width:0.581;stroke-dasharray:none"
         d="m 14.563936,13.614876 c -0.281171,1.074525 -1.511338,1.851808 -3.64317,1.851808 -2.1318295,0 -3.2898083,-0.94344 -3.5949782,-2.015464 -0.5300802,-1.862105 1.4631495,-1.926195 3.5949782,-1.926195 2.131832,0 4.173251,0.06409 3.64317,2.089851 z"
         sodipodi:nodetypes="sssss" />
      <path
         id="path6"
         style="fill:#690006;fill-opacity:1;stroke:none;stroke-width:0.422832;stroke-dasharray:none"
         d="m 12.508196,13.497064 c -0.192533,0.831122 -1.034894,1.432334 -2.494675,1.432334 -1.4597772,0 -2.2527085,-0.729731 -2.4616747,-1.558918 -0.3629743,-1.440298 1.0018975,-1.489872 2.4616747,-1.489872 1.459781,0 2.857649,0.04957 2.494675,1.616456 z"
         sodipodi:nodetypes="sssss" />
      <path
         id="path2"
         style="fill:#ff2c2a;fill-opacity:1;stroke:none;stroke-width:0.395857;stroke-dasharray:none"
         d="m 14.257497,13.332893 c -0.190345,0.736831 -1.023135,1.269836 -2.46633,1.269836 -1.443191,0 -2.227113,-0.646943 -2.4337049,-1.382059 -0.3588502,-1.276896 0.9905139,-1.320846 2.4337049,-1.320846 1.443195,0 2.82518,0.04395 2.46633,1.433069 z"
         sodipodi:nodetypes="sssss" />
      <ellipse
         style="fill:#0053ce;fill-opacity:1;stroke:#110077;stroke-width:0.300522;stroke-miterlimit:4;stroke-dasharray:none;stroke-opacity:1"
         id="path11105"
         cx="10.991097"
         cy="12.240198"
         rx="2.4726579"
         ry="1.9177523" />
      <path
         id="ellipse2"
         style="fill:#002766;stroke-width:0.26587"
         d="m 13.394392,11.861227 c 0.08366,1.291666 -1.552667,1.608348 -2.971444,1.74475 -1.2902243,0.124042 -1.7896697,-0.688808 -1.7896698,-1.562199 1e-7,-0.873391 1.0699717,-1.619847 2.3661448,-1.619847 1.296173,0 2.338522,0.565731 2.394969,1.437296 z"
         sodipodi:nodetypes="sssss" />
      <g
         id="g12"
         transform="matrix(1.1440522,0.07586309,-0.06894434,1.039714,-21.551558,-3.456955)">
        <path
           id="path15"
           style="fill:#ffffff;fill-opacity:1;stroke:#191414;stroke-width:0.444;stroke-dasharray:none"
           d="M 35.414568,3.0001364 36.619809,1.3389155 37.945571,6.67603 36.860855,7.771729 Z"
           sodipodi:nodetypes="ccccc" />
        <rect
           style="fill:#ffffff;stroke:#191414;stroke-width:0.549;stroke-miterlimit:4;stroke-dasharray:none;stroke-opacity:1"
           id="rect2963"
           width="2.00069"
           height="17.948395"
           x="37.498688"
           y="7.6114192"
           ry="0.56545579" />
        <path
           id="path7"
           style="fill:#ffffff;fill-opacity:1;stroke:#191414;stroke-width:0.444;stroke-dasharray:none"
           d="M 41.827767,2.8848413 40.622526,1.2236204 39.296764,6.5607349 40.38148,7.6564339 Z"
           sodipodi:nodetypes="ccccc" />
        <g
           id="g6"
           transform="matrix(-1.7902656,0,0,-1.7323616,90.68463,20.999998)"
           style="stroke-width:0.283917;stroke-dasharray:none">
          <rect
             style="fill:#ffffff;stroke:#191414;stroke-width:0.283917;stroke-miterlimit:4;stroke-dasharray:none;stroke-opacity:1"
             id="rect5"
             width="2.418293"
             height="0.53468895"
             x="27.855507"
             y="7.3858442"
             ry="0.25027269" />
          <rect
             style="fill:#ffffff;stroke:#191414;stroke-width:0.283917;stroke-miterlimit:4;stroke-dasharray:none;stroke-opacity:1"
             id="rect6"
             width="2.895308"
             height="0.70425063"
             x="27.631411"
             y="7.8246946"
             ry="0.3296397" />
        </g>
        <g
           id="g22"
           transform="matrix(1.7884929,0.07707202,-0.07964813,1.7306462,-12.882346,5.0543937)">
          <path
             id="path17"
             style="fill:#861414;fill-opacity:1;stroke:#191414;stroke-width:0.192"
             d="m 29.179479,1.3621619 c 0,0.1894821 -0.12582,0.6505412 -0.328434,0.6505415 -0.202615,2e-7 -0.405299,-0.461059 -0.405299,-0.6505415 0,-0.1894825 0.164252,-0.3430884 0.366867,-0.3430882 0.202615,3e-7 0.366866,0.153606 0.366866,0.3430882 z"
             sodipodi:nodetypes="sssss" />
          <path
             id="path18"
             style="fill:#4d4d4d;stroke:#191414;stroke-width:0.192"
             d="m 28.357427,0.89338797 c 0,0.18948213 0.220065,0.48720663 0.01745,0.48720693 -0.202615,2e-7 -0.751184,-0.2977244 -0.751184,-0.48720693 0,-0.18948251 0.164252,-0.34308838 0.366867,-0.34308815 0.202615,2.9e-7 0.366866,0.153606 0.366867,0.34308815 z"
             sodipodi:nodetypes="sssss" />
          <path
             id="path19"
             style="fill:#4d4d4d;stroke:#191414;stroke-width:0.192"
             d="m 29.960769,0.80506825 c 0,0.18948215 -0.471705,0.48720665 -0.674319,0.48720695 -0.202615,2e-7 -0.05941,-0.29772444 -0.05941,-0.48720695 0,-0.18948251 0.164252,-0.34308838 0.366867,-0.34308815 0.202615,2.9e-7 0.366866,0.153606 0.366866,0.34308815 z"
             sodipodi:nodetypes="sssss" />
          <path
             id="path20"
             style="fill:#df2e2e;fill-opacity:1;stroke:none;stroke-width:0.0965249"
             d="m 29.044968,1.3211899 c 0,0.097872 -0.06157,0.3360203 -0.160706,0.3360204 -0.09914,1e-7 -0.198318,-0.2381481 -0.198318,-0.3360204 0,-0.097872 0.08037,-0.1772134 0.179512,-0.1772133 0.09915,2e-7 0.179512,0.079341 0.179512,0.1772133 z"
             sodipodi:nodetypes="sssss" />
          <path
             id="path21"
             style="fill:#7f7f7f;fill-opacity:1;stroke:none;stroke-width:0.0784491"
             d="m 28.149614,0.69865723 c 0.05242,0.0598357 0.142334,0.23840606 0.08174,0.29149337 -0.0606,0.053093 -0.248779,-0.0393931 -0.301199,-0.099229 -0.05242,-0.0598357 -0.04579,-0.15137913 0.01482,-0.2044742 0.06061,-0.053099 0.152226,-0.0476261 0.204647,0.0122098 z"
             sodipodi:nodetypes="sssss" />
          <path
             id="path22"
             style="fill:#7f7f7f;fill-opacity:1;stroke:none;stroke-width:0.0784491"
             d="m 29.428341,0.62179387 c -0.05242,0.0598357 -0.142334,0.23840606 -0.08174,0.29149337 0.0606,0.053093 0.248779,-0.0393931 0.301199,-0.099229 0.05242,-0.0598357 0.04579,-0.15137913 -0.01482,-0.2044742 -0.06061,-0.053099 -0.152226,-0.0476261 -0.204647,0.0122098 z"
             sodipodi:nodetypes="sssss" />
        </g>
        <rect
           style="fill:#ffffff;stroke:#191414;stroke-width:0.421;stroke-miterlimit:4;stroke-dasharray:none;stroke-opacity:1"
           id="rect4"
           width="4.2497587"
           height="0.9376806"
           x="36.37653"
           y="22.523273"
           ry="0.43890166" />
        <rect
           style="fill:#ffffff;stroke:#191414;stroke-width:0.478;stroke-miterlimit:4;stroke-dasharray:none;stroke-opacity:1"
           id="rect3"
           width="5.0880356"
           height="1.2350399"
           x="35.982716"
           y="23.292883"
           ry="0.57808709" />
        <g
           id="g28"
           transform="matrix(1.7555982,-0.07802106,-0.07818321,-1.7519572,-12.018157,25.578561)">
          <path
             id="path23"
             style="fill:#861414;fill-opacity:1;stroke:#191414;stroke-width:0.192"
             d="m 29.179479,1.3621619 c 0,0.1894821 -0.12582,0.6505412 -0.328434,0.6505415 -0.202615,2e-7 -0.405299,-0.461059 -0.405299,-0.6505415 0,-0.1894825 0.164252,-0.3430884 0.366867,-0.3430882 0.202615,3e-7 0.366866,0.153606 0.366866,0.3430882 z"
             sodipodi:nodetypes="sssss" />
          <path
             id="path24"
             style="fill:#4d4d4d;stroke:#191414;stroke-width:0.192"
             d="m 28.357427,0.89338797 c 0,0.18948213 0.220065,0.48720663 0.01745,0.48720693 -0.202615,2e-7 -0.751184,-0.2977244 -0.751184,-0.48720693 0,-0.18948251 0.164252,-0.34308838 0.366867,-0.34308815 0.202615,2.9e-7 0.366866,0.153606 0.366867,0.34308815 z"
             sodipodi:nodetypes="sssss" />
          <path
             id="path25"
             style="fill:#4d4d4d;stroke:#191414;stroke-width:0.192"
             d="m 29.960769,0.80506825 c 0,0.18948215 -0.471705,0.48720665 -0.674319,0.48720695 -0.202615,2e-7 -0.05941,-0.29772444 -0.05941,-0.48720695 0,-0.18948251 0.164252,-0.34308838 0.366867,-0.34308815 0.202615,2.9e-7 0.366866,0.153606 0.366866,0.34308815 z"
             sodipodi:nodetypes="sssss" />
          <path
             id="path26"
             style="fill:#df2e2e;fill-opacity:1;stroke:none;stroke-width:0.0965249"
             d="m 29.044968,1.3211899 c 0,0.097872 -0.06157,0.3360203 -0.160706,0.3360204 -0.09914,1e-7 -0.198318,-0.2381481 -0.198318,-0.3360204 0,-0.097872 0.08037,-0.1772134 0.179512,-0.1772133 0.09915,2e-7 0.179512,0.079341 0.179512,0.1772133 z"
             sodipodi:nodetypes="sssss" />
          <path
             id="path27"
             style="fill:#7f7f7f;fill-opacity:1;stroke:none;stroke-width:0.0784491"
             d="m 28.149614,0.69865723 c 0.05242,0.0598357 0.142334,0.23840606 0.08174,0.29149337 -0.0606,0.053093 -0.248779,-0.0393931 -0.301199,-0.099229 -0.05242,-0.0598357 -0.04579,-0.15137913 0.01482,-0.2044742 0.06061,-0.053099 0.152226,-0.0476261 0.204647,0.0122098 z"
             sodipodi:nodetypes="sssss" />
          <path
             id="path28"
             style="fill:#7f7f7f;fill-opacity:1;stroke:none;stroke-width:0.0784491"
             d="m 29.428341,0.62179387 c -0.05242,0.0598357 -0.142334,0.23840606 -0.08174,0.29149337 0.0606,0.053093 0.248779,-0.0393931 0.301199,-0.099229 0.05242,-0.0598357 0.04579,-0.15137913 -0.01482,-0.2044742 -0.06061,-0.053099 -0.152226,-0.0476261 -0.204647,0.0122098 z"
             sodipodi:nodetypes="sssss" />
        </g>
      </g>
      <g
         id="g11"
         transform="rotate(7.872831,25.354406,4.44907)">
        <path
           d="m 23.932572,11.908702 c -0.02779,-9.52e-4 -0.05362,0.0032 -0.07752,0.01292 l -1.456759,0.594279 c -0.382288,0.155903 -1.121078,0.464503 -1.102258,0.89762 l 0.05478,1.254704 c 0.01882,0.433116 0.251076,1.314771 0.654224,1.261421 l 2.095479,-0.276985 c 0.403149,-0.05335 1.050282,-0.823093 1.053682,-1.257288 l 0.0072,-0.910539 c 0.0032,-0.407058 -0.811987,-1.561847 -1.228865,-1.576131 z"
           style="fill:#002766;fill-opacity:1;stroke:#110077;stroke-width:0.882;stroke-dasharray:none;stroke-opacity:1"
           id="path32" />
        <path
           d="m 22.748216,12.894898 c 0.0099,-0.0085 0.02054,-0.01564 0.03207,-0.02104 l 0.703245,-0.32889 c 0.184536,-0.08632 0.543255,-0.251738 0.661003,-0.163506 l 0.273749,0.29412 c 0.117747,0.08823 0.286572,0.365134 0.123921,0.477323 l -0.778059,0.506327 c -0.162645,0.112192 -0.620568,0.161932 -0.746743,0.08024 l -0.264665,-0.171267 c -0.118293,-0.07659 -0.152731,-0.544011 -0.0045,-0.673252 z"
           style="fill:#0053ce;fill-opacity:1;stroke:none;stroke-width:0.270178"
           id="path33"
           sodipodi:nodetypes="ccccccccccc" />
      </g>
      <path
         id="rect8"
         style="fill:#002766;fill-opacity:1;stroke-width:0.555001"
         d="m 7.0321467,16.215739 -0.3657302,0.953779 -0.4210281,3.547483 -0.73487,-3.970237 z"
         sodipodi:nodetypes="ccccc" />
      <ellipse
         style="fill:#002766;fill-opacity:1;stroke:#110077;stroke-width:0.89;stroke-miterlimit:4;stroke-dasharray:none;stroke-opacity:1"
         id="path9279"
         cx="11.076304"
         cy="6.4861746"
         rx="5.9909759"
         ry="5.9534302" />
      <ellipse
         style="fill:#0053ce;fill-opacity:1;stroke:none;stroke-width:0.286076;stroke-miterlimit:4;stroke-dasharray:none;stroke-opacity:1"
         id="ellipse9379"
         cx="11.706886"
         cy="5.8816981"
         rx="4.7422986"
         ry="4.8218565" />
      <ellipse
         style="fill:#1e78ff;fill-opacity:1;stroke:none;stroke-width:0.580687;stroke-dasharray:none;stroke-opacity:1"
         id="path11"
         cx="7.03408"
         cy="12.533075"
         rx="2.1000314"
         ry="2.8165536"
         transform="matrix(0.71546477,-0.69864881,0.68243098,0.73095003,0,0)" />
      <path
         id="path9421"
         style="fill:#ffffff;fill-opacity:1;stroke:#002865;stroke-width:0.491994;stroke-miterlimit:4;stroke-dasharray:none;stroke-opacity:1"
         d="M 8.2688113,5.2867356 C 8.0734307,5.6914989 7.9691868,6.1668582 7.9691817,6.6530675 c 8.7e-5,1.3619343 0.8008781,2.4659412 1.7886817,2.4659573 0.9878036,-1.62e-5 1.7885946,-1.104023 1.7886816,-2.4659573 -5e-6,-0.4862092 -0.104249,-0.9615685 -0.299629,-1.3663319 -1.038049,-0.2287903 -2.0362478,-0.264194 -2.9781047,0 z"
         sodipodi:nodetypes="cccccc" />
      <path
         id="path3"
         style="fill:#ffffff;fill-opacity:1;stroke:#002865;stroke-width:0.491994;stroke-miterlimit:4;stroke-dasharray:none;stroke-opacity:1"
         d="m 12.546429,5.2067561 c -0.19538,0.4047634 -0.299624,0.8801227 -0.299629,1.3663319 8.7e-5,1.3619339 0.800878,2.4659406 1.788681,2.4659573 0.987803,-1.67e-5 1.788594,-1.1040234 1.788681,-2.4659573 -5e-6,-0.4862092 -0.104249,-0.9615685 -0.299629,-1.3663319 -1.810539,-0.4634416 -2.168254,-0.1036159 -2.978104,0 z"
         sodipodi:nodetypes="cccccc" />
      <path
         id="path14"
         style="fill:#818181;fill-opacity:1;stroke:none;stroke-width:0.340887;stroke-miterlimit:4;stroke-dasharray:none;stroke-opacity:1"
         d="M 8.4188982,5.5173869 A 1.5665257,2.1708756 0 0 0 8.1564859,6.7201147 1.5665257,2.1708756 0 0 0 9.7229928,8.8907993 1.5665257,2.1708756 0 0 0 10.996161,7.9843751 2.0206525,1.9912897 0 0 1 10.394954,8.0747809 2.0206525,1.9912897 0 0 1 8.3743818,6.0834879 2.0206525,1.9912897 0 0 1 8.4577914,5.5173869 Z" />
      <path
         id="path5"
         style="fill:#818181;fill-opacity:1;stroke:none;stroke-width:0.340887;stroke-miterlimit:4;stroke-dasharray:none;stroke-opacity:1"
         d="m 12.695729,5.4325559 a 1.5665257,2.1708756 0 0 0 -0.262412,1.2027278 1.5665257,2.1708756 0 0 0 1.566506,2.1706846 1.5665257,2.1708756 0 0 0 1.273168,-0.9064242 2.0206525,1.9912897 0 0 1 -0.601207,0.090406 2.0206525,1.9912897 0 0 1 -2.020571,-1.991293 2.0206525,1.9912897 0 0 1 0.08341,-0.5661009 z" />
      <ellipse
         style="fill:#110077;fill-opacity:1;stroke:none;stroke-width:1.09486"
         id="path4"
         cx="10.195273"
         cy="6.6852016"
         rx="1.1502911"
         ry="1.1937846" />
      <path
         id="ellipse6"
         style="fill:#2300ec;fill-opacity:1;stroke:none;stroke-width:1.09486"
         d="M 9.5138792,5.7233596 A 1.150291,1.1937845 0 0 0 9.045173,6.6853304 1.150291,1.1937845 0 0 0 10.195537,7.8790558 1.150291,1.1937845 0 0 0 11.165053,7.3273611 1.150291,1.1937845 0 0 1 10.48393,7.5591159 1.150291,1.1937845 0 0 1 9.3335665,6.3653904 1.150291,1.1937845 0 0 1 9.5138792,5.7233596 Z" />
      <ellipse
         style="fill:#ffffff;fill-opacity:1;stroke:none;stroke-width:0.434846"
         id="ellipse5"
         cx="9.6502228"
         cy="6.0216103"
         rx="0.4642612"
         ry="0.46657047" />
      <ellipse
         style="fill:#110077;fill-opacity:1;stroke:none;stroke-width:1.09486"
         id="ellipse7"
         cx="14.472891"
         cy="6.5752301"
         rx="1.1502911"
         ry="1.1937846" />
      <path
         id="path8"
         style="fill:#2300ec;fill-opacity:1;stroke:none;stroke-width:1.09486"
         d="M 13.791497,5.6133879 A 1.150291,1.1937845 0 0 0 13.32279,6.5753587 1.150291,1.1937845 0 0 0 14.473154,7.7690841 1.150291,1.1937845 0 0 0 15.44267,7.2173894 1.150291,1.1937845 0 0 1 14.761548,7.4491442 1.150291,1.1937845 0 0 1 13.611184,6.2554187 1.150291,1.1937845 0 0 1 13.791497,5.6133879 Z" />
      <ellipse
         style="fill:#ffffff;fill-opacity:1;stroke:none;stroke-width:0.434846"
         id="circle8"
         cx="13.92784"
         cy="5.9116387"
         rx="0.4642612"
         ry="0.46657047" />
    </g>
  </g>
</svg>
