<?xml version="1.0" encoding="UTF-8" standalone="no"?>
<!-- Created with Inkscape (http://www.inkscape.org/) -->

<svg
   width="100"
   height="100"
   viewBox="0 0 26.458333 26.458334"
   version="1.1"
   id="svg5"
   inkscape:version="1.4.2 (ebf0e940d0, 2025-05-08)"
   sodipodi:docname="defantes_capa.svg"
   xml:space="preserve"
   xmlns:inkscape="http://www.inkscape.org/namespaces/inkscape"
   xmlns:sodipodi="http://sodipodi.sourceforge.net/DTD/sodipodi-0.dtd"
   xmlns="http://www.w3.org/2000/svg"
   xmlns:svg="http://www.w3.org/2000/svg"><sodipodi:namedview
     id="namedview7"
     pagecolor="#505050"
     bordercolor="#ffffff"
     borderopacity="1"
     inkscape:pageshadow="0"
     inkscape:pageopacity="0"
     inkscape:pagecheckerboard="1"
     inkscape:document-units="px"
     showgrid="false"
     units="px"
     width="100px"
     inkscape:snap-global="false"
     inkscape:zoom="9.73617"
     inkscape:cx="36.718751"
     inkscape:cy="50.995412"
     inkscape:window-width="1366"
     inkscape:window-height="697"
     inkscape:window-x="0"
     inkscape:window-y="0"
     inkscape:window-maximized="1"
     inkscape:current-layer="layer1"
     inkscape:showpageshadow="0"
     inkscape:deskcolor="#505050" /><defs
     id="defs2"><linearGradient
       id="linearGradient13895"
       inkscape:swatch="solid"><stop
         style="stop-color:#000000;stop-opacity:1;"
         offset="0"
         id="stop13893" /></linearGradient><filter
       style="color-interpolation-filters:sRGB;"
       inkscape:label="Clean Edges"
       id="filter14269"
       x="-0.31154084"
       y="-0.29580634"
       width="1.6230817"
       height="1.5916127"><feGaussianBlur
         stdDeviation="0.204612"
         result="blur"
         id="feGaussianBlur14263" /><feComposite
         in="SourceGraphic"
         in2="blur"
         operator="in"
         result="composite1"
         id="feComposite14265" /><feComposite
         in="composite1"
         in2="composite1"
         operator="in"
         result="composite2"
         id="feComposite14267" /></filter><inkscape:path-effect
       effect="fillet_chamfer"
       id="path-effect68"
       is_visible="true"
       lpeversion="1"
       nodesatellites_param="F,0,0,1,0,0,0,1 @ F,0,0,1,0,0,0,1 @ F,0,0,1,0,0,0,1 @ F,0,0,1,0,0,0,1 @ F,0,0,1,0,0,0,1 @ F,0,0,1,0,0,0,1 @ F,0,0,1,0,0,0,1 @ F,0,0,1,0,0,0,1 @ F,0,0,1,0,0,0,1"
       radius="0"
       unit="px"
       method="auto"
       mode="F"
       chamfer_steps="1"
       flexible="false"
       use_knot_distance="true"
       apply_no_radius="true"
       apply_with_radius="true"
       only_selected="false"
       hide_knots="false" /><inkscape:path-effect
       effect="fillet_chamfer"
       id="path-effect66"
       is_visible="true"
       lpeversion="1"
       nodesatellites_param="F,0,0,1,0,0,0,1 @ F,0,0,1,0,0.44929322,0,1 @ F,0,0,1,0,0.44929322,0,1 @ F,0,0,1,0,0,0,1 @ F,0,0,1,0,0,0,1 @ F,0,0,1,0,0,0,1 @ F,0,0,1,0,0,0,1 @ F,0,0,1,0,0,0,1 @ F,0,0,1,0,0,0,1 @ F,0,0,1,0,0,0,1"
       radius="0"
       unit="px"
       method="auto"
       mode="F"
       chamfer_steps="1"
       flexible="false"
       use_knot_distance="true"
       apply_no_radius="true"
       apply_with_radius="true"
       only_selected="false"
       hide_knots="false" /></defs><g
     inkscape:label="Camada 1"
     inkscape:groupmode="layer"
     id="layer1"><rect
       style="fill:#006f4c;fill-opacity:1;stroke:#001e14;stroke-width:0.81269;stroke-opacity:1"
       id="rect46"
       width="4.4214745"
       height="9.709341"
       x="7.1122136"
       y="28.657494"
       ry="1.7084635" /><rect
       style="fill:#006f4c;fill-opacity:1;stroke:#001e14;stroke-width:0.825855;stroke-opacity:1"
       id="rect47"
       width="4.620028"
       height="9.5955286"
       x="12.694782"
       y="28.690479"
       ry="1.6884372" /><path
       id="path47"
       style="fill:#001e14;fill-opacity:1;stroke-width:0.667457"
       d="m 8.7358899,29.99614 h 1.0913797 c 0.7343624,0 1.3255644,0.607779 1.3255644,1.362734 v 5.019062 c 0,0.754954 -0.528005,0.822584 -1.2472202,0.97513 l -1.257862,0.266792 C 7.9285365,37.772404 7.4103251,37.13289 7.4103251,36.377936 v -5.019062 c 0,-0.754955 0.5912012,-1.362734 1.3255648,-1.362734 z"
       sodipodi:nodetypes="sssssssss" /><path
       id="path48"
       style="fill:#001e14;fill-opacity:1;stroke-width:0.676414"
       d="m 14.43358,30.116951 h 1.120865 c 0.754202,0 1.361375,0.60778 1.361375,1.362734 v 5.019062 c 0,0.754955 -0.542268,0.822585 -1.280915,0.975131 l -1.291844,0.266792 c -0.738645,0.152546 -1.270856,-0.486968 -1.270856,-1.241923 v -5.019062 c 0,-0.754954 0.607173,-1.362734 1.361375,-1.362734 z"
       sodipodi:nodetypes="sssssssss" /><path
       id="rect9714"
       style="fill:#006f4c;fill-opacity:1;stroke:#001e14;stroke-width:1.13773;stroke-miterlimit:4;stroke-dasharray:none;stroke-opacity:1"
       d="M 5.9582655,17.998238 C 5.3822621,18.138009 4.9173653,18.480641 4.7849857,18.919474 L 2.961533,24.964337 c -0.3046509,2.260417 -0.071628,4.595704 -0.034731,6.877603 0.010507,0.649181 0.7687148,1.058182 1.6992548,0.917789 l 0.704182,-0.105213 C 6.2607808,32.514137 7.001114,31.877496 6.9906056,31.228311 7.185292,29.32523 6.570156,27.253552 6.9755421,25.392336 l 1.8244508,-6.04622 C 8.9925425,18.707819 8.4067341,18.115348 7.4875242,18.017568 l -0.6958177,-0.07439 c -0.2872583,-0.03056 -0.5715964,-0.0083 -0.8334235,0.0551 z"
       sodipodi:nodetypes="ccccccccccccc" /><path
       id="path11551"
       style="fill:#006f4c;fill-opacity:1;stroke:#001e14;stroke-width:1.08161;stroke-miterlimit:4;stroke-dasharray:none;stroke-opacity:1"
       d="m 29.810262,18.079715 c -0.08352,0.623475 -0.364538,1.146411 -0.761126,1.324703 l -5.462918,2.455889 c -0.09257,0.04163 -0.251818,-0.07901 -0.343534,-0.07829 -0.122746,0.08196 -0.18719,0.273487 -0.321547,0.283445 l -5.713133,0.423743 c -0.603147,0.04474 -1.043095,-0.724884 -0.987071,-1.724709 l 0.04145,-0.75653 c 0.05601,-0.999827 0.587623,-1.840476 1.190773,-1.885199 l 5.253761,-0.389559 c 1.85112,-0.891957 3.749473,-1.709963 5.626126,-2.553847 0.576849,-0.259326 1.173277,0.311479 1.337316,1.278787 l 0.124472,0.7322 c 0.05128,0.302283 0.05338,0.606003 0.01537,0.889399 z"
       sodipodi:nodetypes="ccccccccscccccc" /><rect
       style="fill:#636363;fill-opacity:1;stroke:#202020;stroke-width:0.97563;stroke-opacity:1"
       id="rect14"
       width="4.8906202"
       height="2.2925684"
       x="2.1439488"
       y="27.103693"
       ry="0.67601371" /><path
       id="rect9738"
       style="fill:#ffffff;fill-opacity:1;stroke:#2c0707;stroke-width:0.929791;stroke-miterlimit:4;stroke-dasharray:none;stroke-opacity:1"
       d="M 7.3447527,18.281154 6.61659,35.09374 l 2.7878521,1.759225 2.9359949,-2.587182 2.244854,2.587182 3.358363,-2.438926 -0.647255,-16.132885 z"
       sodipodi:nodetypes="cccccccc" /><path
       id="ellipse1"
       style="fill:#781414;fill-opacity:1;stroke:#2c0707;stroke-width:0.870228;stroke-dasharray:none;stroke-opacity:1"
       d="m 16.636146,19.79382 c -0.333709,2.056594 -1.793744,3.544283 -4.323923,3.544283 -2.530181,0 -3.9045366,-1.805705 -4.2667299,-3.857515 -0.6291297,-3.563994 1.7365504,-3.686659 4.2667299,-3.686659 2.530179,0 4.953053,0.12267 4.323923,3.999891 z"
       sodipodi:nodetypes="sssss" /><ellipse
       style="fill:#00432e;fill-opacity:1;stroke:#001e14;stroke-width:0.755881;stroke-miterlimit:4;stroke-dasharray:none;stroke-opacity:1"
       id="path11105"
       cx="12.369418"
       cy="18.540897"
       rx="3.551975"
       ry="3.1173139" /><ellipse
       style="fill:#001e14;fill-opacity:1;stroke:none;stroke-width:0.377792;stroke-miterlimit:4;stroke-dasharray:none;stroke-opacity:1"
       id="ellipse49"
       cx="12.331219"
       cy="18.289207"
       rx="3.1996322"
       ry="2.3421071" /><ellipse
       style="fill:#00432e;fill-opacity:1;stroke:#001e14;stroke-width:1.32168;stroke-miterlimit:4;stroke-dasharray:none;stroke-opacity:1"
       id="ellipse3"
       cx="12.171835"
       cy="9.8191061"
       rx="8.9157085"
       ry="8.8222599" /><ellipse
       style="fill:#006f4c;fill-opacity:1;stroke:none;stroke-width:0.459246;stroke-miterlimit:4;stroke-dasharray:none;stroke-opacity:1"
       id="ellipse4"
       cx="12.245414"
       cy="9.4336357"
       rx="7.6640701"
       ry="7.6890574" /><ellipse
       style="fill:#00c285;fill-opacity:1;stroke:none;stroke-width:1.35962;stroke-dasharray:none;stroke-opacity:1"
       id="ellipse8"
       cx="3.640352"
       cy="14.592427"
       rx="4.9300208"
       ry="6.5772986"
       transform="matrix(0.75414497,-0.65670797,0.72313386,0.69070791,0,0)" /><path
       id="path12"
       style="fill:#ffffff;fill-opacity:1;stroke:#001e14;stroke-width:0.759962;stroke-miterlimit:4;stroke-dasharray:none;stroke-opacity:1"
       d="M 6.0734951,11.795259 C 5.7405509,11.228534 5.5166016,10.315645 5.5165931,9.634884 5.5167413,7.7279863 6.8813577,6.1822229 8.5646585,6.1822005 c 1.6833035,2.27e-5 3.0479215,1.5457858 3.0480685,3.4526835 -9e-6,0.680761 -0.177648,1.517551 -0.510594,2.084277 -1.5474244,0.446327 -3.2502951,0.40565 -5.0286379,0.0761 z"
       sodipodi:nodetypes="cccccc" /><ellipse
       style="fill:#001e14;fill-opacity:1;stroke:none;stroke-width:2.14346"
       id="ellipse31"
       cx="8.4777327"
       cy="9.2976036"
       rx="2.2340899"
       ry="2.3558633" /><path
       id="path36"
       style="fill:#000e0a;fill-opacity:1;stroke:none;stroke-width:2.14346"
       d="M 7.1543319,7.3994657 A 2.2340896,2.3558632 0 0 0 6.2440129,9.2978582 2.2340896,2.3558632 0 0 0 8.4782449,11.653605 2.2340896,2.3558632 0 0 0 10.361236,10.564868 2.2340896,2.3558632 0 0 1 9.0383608,11.022222 2.2340896,2.3558632 0 0 1 6.8041305,8.6664755 2.2340896,2.3558632 0 0 1 7.1543319,7.3994657 Z" /><ellipse
       style="fill:#ffffff;fill-opacity:1;stroke:none;stroke-width:0.903527"
       id="ellipse36"
       cx="6.8816276"
       cy="10.008635"
       rx="0.86436486"
       ry="1.0819148" /><path
       id="path42"
       style="fill:#ffffff;fill-opacity:1;stroke:#001e14;stroke-width:0.761595;stroke-miterlimit:4;stroke-dasharray:none;stroke-opacity:1"
       d="m 13.175987,11.415877 c -0.332854,-0.569319 -0.556744,-1.4863853 -0.556752,-2.1702613 1.48e-4,-1.915624 1.364397,-3.4684611 3.047247,-3.4684836 1.68285,2.27e-5 3.047099,1.5528596 3.047248,3.4684836 -1e-5,0.6838758 -0.177602,1.5244953 -0.510456,2.0938143 -1.547009,0.44837 -3.249422,0.407506 -5.027287,0.07645 z"
       sodipodi:nodetypes="cccccc" /><ellipse
       style="fill:#001e14;fill-opacity:1;stroke:none;stroke-width:2.14346"
       id="ellipse42"
       cx="15.741323"
       cy="8.8989458"
       rx="2.2340899"
       ry="2.3558633" /><path
       id="path43"
       style="fill:#000e0a;fill-opacity:1;stroke:none;stroke-width:2.14346"
       d="m 14.417923,7.0008082 a 2.2340896,2.3558632 0 0 0 -0.910318,1.8983925 2.2340896,2.3558632 0 0 0 2.234233,2.3557463 2.2340896,2.3558632 0 0 0 1.88299,-1.088737 2.2340896,2.3558632 0 0 1 -1.322875,0.457355 2.2340896,2.3558632 0 0 1 -2.234231,-2.3557469 2.2340896,2.3558632 0 0 1 0.350201,-1.2670099 z" /><ellipse
       style="fill:#ffffff;fill-opacity:1;stroke:none;stroke-width:0.903527"
       id="ellipse43"
       cx="14.448699"
       cy="9.8072433"
       rx="0.86436486"
       ry="1.0819148" /><path
       id="path2"
       style="fill:#4f0d0d;fill-opacity:1;stroke:#2c0707;stroke-width:0.797448;stroke-opacity:1"
       d="M 15.406044,18.1704 C 12.913947,23.066922 13.490641,27.298693 6.2563667,32.469985 8.6783224,36.721542 19.689313,18.863299 16.141119,17.736915 Z"
       sodipodi:nodetypes="cccc" /><path
       id="path1"
       style="fill:#781414;fill-opacity:1;stroke:#2c0707;stroke-width:0.859943;stroke-opacity:1"
       d="M 16.666944,18.545073 C 13.887881,23.651154 14.530982,28.064034 6.4636787,33.456643 9.1645232,37.890157 21.443433,19.267627 17.486663,18.093035 Z"
       sodipodi:nodetypes="cccc" /><path
       sodipodi:type="spiral"
       style="fill:#07ff86;fill-opacity:1;fill-rule:evenodd;stroke:#00312b;stroke-width:1.165;stroke-dasharray:none;stroke-opacity:1"
       id="path8"
       sodipodi:cx="7.3788824"
       sodipodi:cy="11.990684"
       sodipodi:expansion="1"
       sodipodi:revolution="3"
       sodipodi:radius="7.1775723"
       sodipodi:argument="-18.677364"
       sodipodi:t0="0"
       d="m 7.3788824,11.990684 c 0.3545501,0.06166 0.091804,0.508347 -0.1024849,0.589285 -0.5265123,0.219336 -1.0101602,-0.312416 -1.0760864,-0.794255 -0.1179264,-0.861898 0.6785411,-1.533067 1.4860261,-1.562887 1.1850166,-0.04376 2.0659185,1.047626 2.0496877,2.177796 -0.021633,1.506339 -1.4174993,2.602675 -2.8695671,2.536489 C 5.0391786,14.853823 3.7250753,13.149428 3.8431686,11.375774 3.9861954,9.2276413 6.0011989,7.6945659 8.0962768,7.8656841 10.565254,8.067341 12.31801,10.39416 12.093167,12.810563 11.833578,15.600395 9.1941789,17.573289 6.4565181,17.294254 3.345814,16.977198 1.1524728,14.024706 1.4860261,10.965834 1.8602224,7.5342424 5.1261684,5.1202316 8.5062165,5.5085416 12.258711,5.9396393 14.893555,9.5193049 14.45031,13.220503"
       transform="matrix(0.33120026,-0.0035121,-0.0086454,-0.33118783,1.9276093,18.721193)" /><path
       sodipodi:type="spiral"
       style="fill:#07ff86;fill-opacity:1;fill-rule:evenodd;stroke:#00312b;stroke-width:1.165;stroke-dasharray:none;stroke-opacity:1"
       id="path3"
       sodipodi:cx="7.3788824"
       sodipodi:cy="11.990684"
       sodipodi:expansion="1"
       sodipodi:revolution="3"
       sodipodi:radius="7.1775723"
       sodipodi:argument="-18.677364"
       sodipodi:t0="0"
       d="m 7.3788824,11.990684 c 0.3545501,0.06166 0.091804,0.508347 -0.1024849,0.589285 -0.5265123,0.219336 -1.0101602,-0.312416 -1.0760864,-0.794255 -0.1179264,-0.861898 0.6785411,-1.533067 1.4860261,-1.562887 1.1850166,-0.04376 2.0659185,1.047626 2.0496877,2.177796 -0.021633,1.506339 -1.4174993,2.602675 -2.8695671,2.536489 C 5.0391786,14.853823 3.7250753,13.149428 3.8431686,11.375774 3.9861954,9.2276413 6.0011989,7.6945659 8.0962768,7.8656841 10.565254,8.067341 12.31801,10.39416 12.093167,12.810563 11.833578,15.600395 9.1941789,17.573289 6.4565181,17.294254 3.345814,16.977198 1.1524728,14.024706 1.4860261,10.965834 1.8602224,7.5342424 5.1261684,5.1202316 8.5062165,5.5085416 12.258711,5.9396393 14.893555,9.5193049 14.45031,13.220503"
       transform="matrix(0.14500534,-0.29652816,-0.30133108,-0.1404549,9.4881078,21.159639)" /><path
       sodipodi:type="spiral"
       style="fill:#07ff86;fill-opacity:1;fill-rule:evenodd;stroke:#00312b;stroke-width:1.165;stroke-dasharray:none;stroke-opacity:1"
       id="path4"
       sodipodi:cx="7.3788824"
       sodipodi:cy="11.990684"
       sodipodi:expansion="1"
       sodipodi:revolution="3"
       sodipodi:radius="7.1775723"
       sodipodi:argument="-18.677364"
       sodipodi:t0="0"
       d="m 7.3788824,11.990684 c 0.3545501,0.06166 0.091804,0.508347 -0.1024849,0.589285 -0.5265123,0.219336 -1.0101602,-0.312416 -1.0760864,-0.794255 -0.1179264,-0.861898 0.6785411,-1.533067 1.4860261,-1.562887 1.1850166,-0.04376 2.0659185,1.047626 2.0496877,2.177796 -0.021633,1.506339 -1.4174993,2.602675 -2.8695671,2.536489 C 5.0391786,14.853823 3.7250753,13.149428 3.8431686,11.375774 3.9861954,9.2276413 6.0011989,7.6945659 8.0962768,7.8656841 10.565254,8.067341 12.31801,10.39416 12.093167,12.810563 11.833578,15.600395 9.1941789,17.573289 6.4565181,17.294254 3.345814,16.977198 1.1524728,14.024706 1.4860261,10.965834 1.8602224,7.5342424 5.1261684,5.1202316 8.5062165,5.5085416 12.258711,5.9396393 14.893555,9.5193049 14.45031,13.220503"
       transform="matrix(0.14500534,-0.29652816,-0.30133108,-0.1404549,12.233402,22.24171)" /><path
       sodipodi:type="spiral"
       style="fill:#00954e;fill-opacity:1;fill-rule:evenodd;stroke:#00312b;stroke-width:1.165;stroke-dasharray:none;stroke-opacity:1"
       id="path7"
       sodipodi:cx="7.3788824"
       sodipodi:cy="11.990684"
       sodipodi:expansion="1"
       sodipodi:revolution="3"
       sodipodi:radius="7.1775723"
       sodipodi:argument="-18.677364"
       sodipodi:t0="0"
       d="m 7.3788824,11.990684 c 0.3545501,0.06166 0.091804,0.508347 -0.1024849,0.589285 -0.5265123,0.219336 -1.0101602,-0.312416 -1.0760864,-0.794255 -0.1179264,-0.861898 0.6785411,-1.533067 1.4860261,-1.562887 1.1850166,-0.04376 2.0659185,1.047626 2.0496877,2.177796 -0.021633,1.506339 -1.4174993,2.602675 -2.8695671,2.536489 C 5.0391786,14.853823 3.7250753,13.149428 3.8431686,11.375774 3.9861954,9.2276413 6.0011989,7.6945659 8.0962768,7.8656841 10.565254,8.067341 12.31801,10.39416 12.093167,12.810563 11.833578,15.600395 9.1941789,17.573289 6.4565181,17.294254 3.345814,16.977198 1.1524728,14.024706 1.4860261,10.965834 1.8602224,7.5342424 5.1261684,5.1202316 8.5062165,5.5085416 12.258711,5.9396393 14.893555,9.5193049 14.45031,13.220503"
       transform="matrix(-0.08054227,0.21533119,-0.22384306,-0.12258913,9.6493763,15.209349)" /><path
       sodipodi:type="spiral"
       style="fill:#07ff86;fill-opacity:1;fill-rule:evenodd;stroke:#00312b;stroke-width:1.165;stroke-dasharray:none;stroke-opacity:1"
       id="path5"
       sodipodi:cx="7.3788824"
       sodipodi:cy="11.990684"
       sodipodi:expansion="1"
       sodipodi:revolution="3"
       sodipodi:radius="7.1775723"
       sodipodi:argument="-18.677364"
       sodipodi:t0="0"
       d="m 7.3788824,11.990684 c 0.3545501,0.06166 0.091804,0.508347 -0.1024849,0.589285 -0.5265123,0.219336 -1.0101602,-0.312416 -1.0760864,-0.794255 -0.1179264,-0.861898 0.6785411,-1.533067 1.4860261,-1.562887 1.1850166,-0.04376 2.0659185,1.047626 2.0496877,2.177796 -0.021633,1.506339 -1.4174993,2.602675 -2.8695671,2.536489 C 5.0391786,14.853823 3.7250753,13.149428 3.8431686,11.375774 3.9861954,9.2276413 6.0011989,7.6945659 8.0962768,7.8656841 10.565254,8.067341 12.31801,10.39416 12.093167,12.810563 11.833578,15.600395 9.1941789,17.573289 6.4565181,17.294254 3.345814,16.977198 1.1524728,14.024706 1.4860261,10.965834 1.8602224,7.5342424 5.1261684,5.1202316 8.5062165,5.5085416 12.258711,5.9396393 14.893555,9.5193049 14.45031,13.220503"
       transform="matrix(-0.14500534,-0.29652816,0.30133108,-0.1404549,11.149007,22.640366)"
       inkscape:transform-center-x="1.3115505e-05"
       inkscape:transform-center-y="-0.041890314" /><path
       sodipodi:type="spiral"
       style="fill:#07ff86;fill-opacity:1;fill-rule:evenodd;stroke:#00312b;stroke-width:1.165;stroke-dasharray:none;stroke-opacity:1"
       id="path6"
       sodipodi:cx="7.3788824"
       sodipodi:cy="11.990684"
       sodipodi:expansion="1"
       sodipodi:revolution="3"
       sodipodi:radius="7.1775723"
       sodipodi:argument="-18.677364"
       sodipodi:t0="0"
       d="m 7.3788824,11.990684 c 0.3545501,0.06166 0.091804,0.508347 -0.1024849,0.589285 -0.5265123,0.219336 -1.0101602,-0.312416 -1.0760864,-0.794255 -0.1179264,-0.861898 0.6785411,-1.533067 1.4860261,-1.562887 1.1850166,-0.04376 2.0659185,1.047626 2.0496877,2.177796 -0.021633,1.506339 -1.4174993,2.602675 -2.8695671,2.536489 C 5.0391786,14.853823 3.7250753,13.149428 3.8431686,11.375774 3.9861954,9.2276413 6.0011989,7.6945659 8.0962768,7.8656841 10.565254,8.067341 12.31801,10.39416 12.093167,12.810563 11.833578,15.600395 9.1941789,17.573289 6.4565181,17.294254 3.345814,16.977198 1.1524728,14.024706 1.4860261,10.965834 1.8602224,7.5342424 5.1261684,5.1202316 8.5062165,5.5085416 12.258711,5.9396393 14.893555,9.5193049 14.45031,13.220503"
       transform="matrix(-0.14500534,-0.29652816,0.30133108,-0.1404549,14.637818,21.387442)"
       inkscape:transform-center-x="1.3115505e-05"
       inkscape:transform-center-y="-0.041890314" /><path
       sodipodi:type="spiral"
       style="fill:#07ff86;fill-opacity:1;fill-rule:evenodd;stroke:#00312b;stroke-width:1.165;stroke-dasharray:none;stroke-opacity:1"
       id="path9"
       sodipodi:cx="7.3788824"
       sodipodi:cy="11.990684"
       sodipodi:expansion="1"
       sodipodi:revolution="3"
       sodipodi:radius="7.1775723"
       sodipodi:argument="-18.677364"
       sodipodi:t0="0"
       d="m 7.3788824,11.990684 c 0.3545501,0.06166 0.091804,0.508347 -0.1024849,0.589285 -0.5265123,0.219336 -1.0101602,-0.312416 -1.0760864,-0.794255 -0.1179264,-0.861898 0.6785411,-1.533067 1.4860261,-1.562887 1.1850166,-0.04376 2.0659185,1.047626 2.0496877,2.177796 -0.021633,1.506339 -1.4174993,2.602675 -2.8695671,2.536489 C 5.0391786,14.853823 3.7250753,13.149428 3.8431686,11.375774 3.9861954,9.2276413 6.0011989,7.6945659 8.0962768,7.8656841 10.565254,8.067341 12.31801,10.39416 12.093167,12.810563 11.833578,15.600395 9.1941789,17.573289 6.4565181,17.294254 3.345814,16.977198 1.1524728,14.024706 1.4860261,10.965834 1.8602224,7.5342424 5.1261684,5.1202316 8.5062165,5.5085416 12.258711,5.9396393 14.893555,9.5193049 14.45031,13.220503"
       transform="matrix(-0.16377977,-0.28667184,-0.28663185,0.1682172,24.43494,15.239537)"
       inkscape:transform-center-x="-0.09709561"
       inkscape:transform-center-y="0.0051554904" /><path
       sodipodi:type="spiral"
       style="fill:#00954e;fill-opacity:1;fill-rule:evenodd;stroke:#00312b;stroke-width:1.165;stroke-dasharray:none;stroke-opacity:1"
       id="path10"
       sodipodi:cx="7.3788824"
       sodipodi:cy="11.990684"
       sodipodi:expansion="1"
       sodipodi:revolution="3"
       sodipodi:radius="7.1775723"
       sodipodi:argument="-18.677364"
       sodipodi:t0="0"
       d="m 7.3788824,11.990684 c 0.3545501,0.06166 0.091804,0.508347 -0.1024849,0.589285 -0.5265123,0.219336 -1.0101602,-0.312416 -1.0760864,-0.794255 -0.1179264,-0.861898 0.6785411,-1.533067 1.4860261,-1.562887 1.1850166,-0.04376 2.0659185,1.047626 2.0496877,2.177796 -0.021633,1.506339 -1.4174993,2.602675 -2.8695671,2.536489 C 5.0391786,14.853823 3.7250753,13.149428 3.8431686,11.375774 3.9861954,9.2276413 6.0011989,7.6945659 8.0962768,7.8656841 10.565254,8.067341 12.31801,10.39416 12.093167,12.810563 11.833578,15.600395 9.1941789,17.573289 6.4565181,17.294254 3.345814,16.977198 1.1524728,14.024706 1.4860261,10.965834 1.8602224,7.5342424 5.1261684,5.1202316 8.5062165,5.5085416 12.258711,5.9396393 14.893555,9.5193049 14.45031,13.220503"
       transform="matrix(-0.09533236,0.20925663,0.24554505,0.07019727,12.712449,14.964166)" /><path
       sodipodi:type="spiral"
       style="fill:#00954e;fill-opacity:1;fill-rule:evenodd;stroke:#00312b;stroke-width:1.165;stroke-dasharray:none;stroke-opacity:1"
       id="path11"
       sodipodi:cx="7.3788824"
       sodipodi:cy="11.990684"
       sodipodi:expansion="1"
       sodipodi:revolution="3"
       sodipodi:radius="7.1775723"
       sodipodi:argument="-18.677364"
       sodipodi:t0="0"
       d="m 7.3788824,11.990684 c 0.3545501,0.06166 0.091804,0.508347 -0.1024849,0.589285 -0.5265123,0.219336 -1.0101602,-0.312416 -1.0760864,-0.794255 -0.1179264,-0.861898 0.6785411,-1.533067 1.4860261,-1.562887 1.1850166,-0.04376 2.0659185,1.047626 2.0496877,2.177796 -0.021633,1.506339 -1.4174993,2.602675 -2.8695671,2.536489 C 5.0391786,14.853823 3.7250753,13.149428 3.8431686,11.375774 3.9861954,9.2276413 6.0011989,7.6945659 8.0962768,7.8656841 10.565254,8.067341 12.31801,10.39416 12.093167,12.810563 11.833578,15.600395 9.1941789,17.573289 6.4565181,17.294254 3.345814,16.977198 1.1524728,14.024706 1.4860261,10.965834 1.8602224,7.5342424 5.1261684,5.1202316 8.5062165,5.5085416 12.258711,5.9396393 14.893555,9.5193049 14.45031,13.220503"
       transform="matrix(0.08054227,0.21533119,0.22384306,-0.12258913,14.871775,14.582887)" /><path
       sodipodi:type="spiral"
       style="fill:#00954e;fill-opacity:1;fill-rule:evenodd;stroke:#00312b;stroke-width:1.165;stroke-dasharray:none;stroke-opacity:1"
       id="path14"
       sodipodi:cx="7.3788824"
       sodipodi:cy="11.990684"
       sodipodi:expansion="1"
       sodipodi:revolution="3"
       sodipodi:radius="7.1775723"
       sodipodi:argument="-18.677364"
       sodipodi:t0="0"
       d="m 7.3788824,11.990684 c 0.3545501,0.06166 0.091804,0.508347 -0.1024849,0.589285 -0.5265123,0.219336 -1.0101602,-0.312416 -1.0760864,-0.794255 -0.1179264,-0.861898 0.6785411,-1.533067 1.4860261,-1.562887 1.1850166,-0.04376 2.0659185,1.047626 2.0496877,2.177796 -0.021633,1.506339 -1.4174993,2.602675 -2.8695671,2.536489 C 5.0391786,14.853823 3.7250753,13.149428 3.8431686,11.375774 3.9861954,9.2276413 6.0011989,7.6945659 8.0962768,7.8656841 10.565254,8.067341 12.31801,10.39416 12.093167,12.810563 11.833578,15.600395 9.1941789,17.573289 6.4565181,17.294254 3.345814,16.977198 1.1524728,14.024706 1.4860261,10.965834 1.8602224,7.5342424 5.1261684,5.1202316 8.5062165,5.5085416 12.258711,5.9396393 14.893555,9.5193049 14.45031,13.220503"
       transform="matrix(0.09533236,0.20925663,-0.24554505,0.07019727,11.732381,14.736361)" /><rect
       style="fill:#636363;fill-opacity:1;stroke:#202020;stroke-width:0.993701;stroke-opacity:1"
       id="rect15"
       width="2.2006342"
       height="5.2854333"
       x="20.028271"
       y="17.528431"
       ry="1.5585252" /><rect
       style="fill:#afafaf;fill-opacity:1;stroke:none;stroke-width:0.462033;stroke-opacity:1"
       id="rect1"
       width="0.77866226"
       height="3.2293386"
       x="20.950632"
       y="18.066475"
       ry="0.95224082" /></g></svg>
