<?xml version="1.0" encoding="UTF-8" standalone="no"?>
<!-- Created with Inkscape (http://www.inkscape.org/) -->

<svg
   width="100"
   height="100"
   viewBox="0 0 26.458333 26.458334"
   version="1.1"
   id="svg5"
   inkscape:version="1.4.2 (ebf0e940d0, 2025-05-08)"
   sodipodi:docname="guarda_hover.svg"
   xml:space="preserve"
   xmlns:inkscape="http://www.inkscape.org/namespaces/inkscape"
   xmlns:sodipodi="http://sodipodi.sourceforge.net/DTD/sodipodi-0.dtd"
   xmlns="http://www.w3.org/2000/svg"
   xmlns:svg="http://www.w3.org/2000/svg"><sodipodi:namedview
     id="namedview7"
     pagecolor="#505050"
     bordercolor="#ffffff"
     borderopacity="1"
     inkscape:pageshadow="0"
     inkscape:pageopacity="0"
     inkscape:pagecheckerboard="1"
     inkscape:document-units="mm"
     showgrid="false"
     units="px"
     width="100px"
     inkscape:snap-global="false"
     inkscape:zoom="4.868085"
     inkscape:cx="75.080859"
     inkscape:cy="65.015299"
     inkscape:window-width="1366"
     inkscape:window-height="697"
     inkscape:window-x="0"
     inkscape:window-y="0"
     inkscape:window-maximized="1"
     inkscape:current-layer="layer1"
     inkscape:showpageshadow="0"
     inkscape:deskcolor="#505050" /><defs
     id="defs2"><linearGradient
       id="linearGradient13895"
       inkscape:swatch="solid"><stop
         style="stop-color:#000000;stop-opacity:1;"
         offset="0"
         id="stop13893" /></linearGradient><filter
       style="color-interpolation-filters:sRGB;"
       inkscape:label="Clean Edges"
       id="filter14269"
       x="-0.31154084"
       y="-0.29580634"
       width="1.6230817"
       height="1.5916127"><feGaussianBlur
         stdDeviation="0.204612"
         result="blur"
         id="feGaussianBlur14263" /><feComposite
         in="SourceGraphic"
         in2="blur"
         operator="in"
         result="composite1"
         id="feComposite14265" /><feComposite
         in="composite1"
         in2="composite1"
         operator="in"
         result="composite2"
         id="feComposite14267" /></filter><filter
       style="color-interpolation-filters:sRGB;"
       inkscape:label="Clean Edges"
       id="filter14269-3"
       x="-0.31154084"
       y="-0.29580634"
       width="1.6230817"
       height="1.5916127"><feGaussianBlur
         stdDeviation="0.204612"
         result="blur"
         id="feGaussianBlur14263-5" /><feComposite
         in="SourceGraphic"
         in2="blur"
         operator="in"
         result="composite1"
         id="feComposite14265-6" /><feComposite
         in="composite1"
         in2="composite1"
         operator="in"
         result="composite2"
         id="feComposite14267-2" /></filter></defs><g
     inkscape:label="Camada 1"
     inkscape:groupmode="layer"
     id="layer1"><rect
       style="fill:#888800;fill-opacity:1;stroke:#362c00;stroke-width:1.01162;stroke-linecap:round;stroke-linejoin:round;stroke-dasharray:none;stroke-opacity:1"
       id="rect15"
       width="16.740387"
       height="2.4051135"
       x="2.7116845"
       y="2.5476313"
       ry="1.2025567"
       rx="1.1068027" /><path
       id="rect9714"
       style="fill:#0053ce;fill-opacity:1;stroke:#080039;stroke-width:0.957498;stroke-miterlimit:4;stroke-dasharray:none;stroke-opacity:1"
       d="m 4.9876015,17.741238 c -0.6165436,0.09248 -1.1141608,0.319203 -1.2558576,0.609575 L 1.779953,22.35065 c -0.041032,0.164199 -0.1006574,0.317852 -0.1436043,0.481967 l 0.1064286,4.068887 c 0.011246,0.429558 0.8228183,0.700191 1.8188515,0.607294 l 0.7537438,-0.06962 c 0.9960358,-0.09289 1.788475,-0.514148 1.777227,-0.943707 L 5.9945736,22.75375 c 0.034053,-0.03867 0.061654,-0.07841 0.081902,-0.119898 L 8.0293352,18.633118 C 8.2354368,18.210763 7.6083981,17.818729 6.6244924,17.754028 l -0.7447908,-0.04922 c -0.307476,-0.02022 -0.6118264,-0.0055 -0.8920814,0.03646 z"
       sodipodi:nodetypes="ccccccccccccccc" /><rect
       style="fill:#2f2f2f;fill-opacity:1;stroke:#100f0a;stroke-width:0.96067;stroke-linecap:round;stroke-linejoin:round;stroke-dasharray:none;stroke-opacity:1"
       id="rect8"
       width="5.3158202"
       height="8.4277344"
       x="5.9582963"
       y="16.018742"
       transform="matrix(0.97923356,0.20273537,-0.22131362,0.97520269,0,0)"
       ry="1.9692817" /><rect
       style="fill:#1b1b1b;fill-opacity:1;stroke:none;stroke-width:0.75024;stroke-linecap:round;stroke-linejoin:round;stroke-dasharray:none;stroke-opacity:1"
       id="rect1"
       width="3.6741433"
       height="7.4366417"
       x="6.534668"
       y="15.986863"
       transform="matrix(0.96520201,0.26150542,-0.17086766,0.98529399,0,0)"
       ry="1.7376962" /><path
       id="path11551"
       style="fill:#0053ce;fill-opacity:1;stroke:#090042;stroke-width:1.09361;stroke-miterlimit:4;stroke-dasharray:none;stroke-opacity:1"
       d="m 29.303252,19.909708 c -0.183423,0.594753 -0.553755,1.062493 -0.988676,1.177619 l -5.990934,1.585788 c -0.10152,0.02688 -0.200678,0.03285 -0.294912,0.02004 -0.13881,0.06171 -0.280305,0.09176 -0.419744,0.08164 l -5.92922,-0.429774 c -0.62596,-0.04537 -0.956818,-0.859606 -0.742631,-1.824861 l 0.161093,-0.73051 c 0.214181,-0.965256 0.891463,-1.705401 1.517423,-1.660017 l 5.452457,0.395327 c 0.05912,-0.03015 0.119285,-0.05391 0.18145,-0.07035 l 5.99232,-1.586761 c 0.632605,-0.167448 1.1552,0.476275 1.171937,1.442315 l 0.01298,0.731284 c 0.0053,0.301888 -0.04019,0.597926 -0.12361,0.868259 z" /><rect
       style="fill:#2f2f2f;fill-opacity:1;stroke:#100f0a;stroke-width:0.890469;stroke-linecap:round;stroke-linejoin:round;stroke-dasharray:none;stroke-opacity:1"
       id="rect9"
       width="5.1022682"
       height="7.5440941"
       x="17.847876"
       y="-22.973545"
       transform="matrix(-0.01247383,0.9999222,-0.99994148,-0.01081822,0,0)"
       ry="1.7628043" /><rect
       style="fill:#1b1b1b;fill-opacity:1;stroke:none;stroke-width:0.761868;stroke-linecap:round;stroke-linejoin:round;stroke-dasharray:none;stroke-opacity:1"
       id="rect6"
       width="4.3187337"
       height="6.5243268"
       x="18.3818"
       y="-21.341385"
       transform="matrix(-0.07215895,0.99739315,-0.99998587,-0.00531587,0,0)"
       ry="1.5245185" /><path
       id="rect9738"
       style="fill:#2f2f2f;fill-opacity:1;stroke:#100f0a;stroke-width:0.983147;stroke-miterlimit:4;stroke-dasharray:none;stroke-opacity:1"
       d="M 6.0124921,18.167327 5.535928,27.664999 c 5.329893,3.539128 8.900155,2.090746 12.243787,0 l -0.441441,-9.497672 z"
       sodipodi:nodetypes="ccccc" /><ellipse
       style="fill:#0053ce;fill-opacity:1;stroke:#090042;stroke-width:0.764263;stroke-miterlimit:4;stroke-dasharray:none;stroke-opacity:1"
       id="path11105"
       cx="11.638172"
       cy="18.400206"
       rx="3.6869402"
       ry="3.0701768" /><ellipse
       style="fill:#002766;fill-opacity:1;stroke:none;stroke-width:0.381981;stroke-miterlimit:4;stroke-dasharray:none;stroke-opacity:1"
       id="ellipse49"
       cx="11.598521"
       cy="18.152321"
       rx="3.3212092"
       ry="2.3066919" /><rect
       style="fill:#888800;fill-opacity:1;stroke:#362c00;stroke-width:1.05646;stroke-linecap:round;stroke-linejoin:round;stroke-dasharray:none;stroke-opacity:1"
       id="rect12"
       width="5.6427889"
       height="2.4042664"
       x="17.327751"
       y="-26.488489"
       ry="1.2021332"
       rx="0.37307695"
       transform="rotate(90)" /><rect
       style="fill:#2f2f2f;fill-opacity:1;stroke:#100f0a;stroke-width:1.13967;stroke-miterlimit:4;stroke-dasharray:none;stroke-opacity:1"
       id="rect11"
       width="3.1908109"
       height="26.761463"
       x="27.028917"
       y="6.3551397"
       ry="0.84310746"
       transform="matrix(0.99485429,0.10131607,-0.11113199,0.99380566,0,0)" /><rect
       style="fill:#696969;fill-opacity:1;stroke:none;stroke-width:0.696549;stroke-linecap:round;stroke-linejoin:round;stroke-dasharray:none;stroke-opacity:1"
       id="rect2"
       width="1.1878198"
       height="21.745861"
       x="27.438375"
       y="7.3721914"
       transform="matrix(0.99127609,0.13180183,-0.09557327,0.9954224,0,0)" /><path
       id="path1"
       style="fill:#2f2f2f;stroke:#100f0a;stroke-width:0.947486;stroke-linecap:round;stroke-linejoin:round"
       inkscape:transform-center-x="0.14325572"
       inkscape:transform-center-y="-0.95172092"
       d="M 32.054546,12.579476 27.901404,9.7092492 23.629529,10.877496 28.969161,0.99089993 Z"
       sodipodi:nodetypes="ccccc" /><rect
       style="fill:#100f0a;fill-opacity:1;stroke:none;stroke-width:1.15962;stroke-linecap:round;stroke-linejoin:round;stroke-dasharray:none;stroke-opacity:1"
       id="rect3"
       width="3.2780137"
       height="2.5731437"
       x="18.152657"
       y="23.212717"
       transform="matrix(0.95495025,-0.29676595,0.32878339,0.94440536,0,0)" /><rect
       style="fill:#100f0a;fill-opacity:1;stroke:none;stroke-width:1.11522;stroke-linecap:round;stroke-linejoin:round;stroke-dasharray:none;stroke-opacity:1"
       id="rect4"
       width="3.0556481"
       height="2.5530763"
       x="16.291857"
       y="28.738136"
       transform="matrix(0.94796915,-0.31836219,0.30663107,0.95182844,0,0)" /><path
       d="m 29.38908,16.937812 c -0.04293,-0.0014 -0.08283,0.0047 -0.119748,0.01886 l -2.25031,0.867332 c -0.590534,0.227536 -1.73177,0.677929 -1.702698,1.310051 l 0.08462,1.831204 c 0.02907,0.63212 0.387847,1.91887 1.010604,1.841007 l 3.236964,-0.404252 c 0.622759,-0.07786 1.622409,-1.20128 1.627661,-1.834975 l 0.01112,-1.328905 c 0.0049,-0.594089 -1.254306,-2.27947 -1.898273,-2.300317 z"
       style="fill:#002766;fill-opacity:1;stroke:#080039;stroke-width:1.02402;stroke-opacity:1"
       id="path32" /><ellipse
       style="fill:#002766;fill-opacity:1;stroke:#080039;stroke-width:1.33633;stroke-miterlimit:4;stroke-dasharray:none;stroke-opacity:1"
       id="ellipse3"
       cx="11.433081"
       cy="9.810297"
       rx="9.2544813"
       ry="8.688858" /><ellipse
       style="fill:#0053ce;fill-opacity:1;stroke:none;stroke-width:0.464338;stroke-miterlimit:4;stroke-dasharray:none;stroke-opacity:1"
       id="ellipse4"
       cx="11.509457"
       cy="9.4306545"
       rx="7.9552836"
       ry="7.5727901" /><ellipse
       style="fill:#1e78ff;fill-opacity:1;stroke:none;stroke-width:1.37895;stroke-dasharray:none;stroke-opacity:1"
       id="ellipse8"
       cx="2.7768393"
       cy="14.117833"
       rx="5.0060906"
       ry="6.6628246"
       transform="matrix(0.77090534,-0.63694973,0.74097591,0.67153161,0,0)" /><path
       id="path12"
       style="fill:#ffffff;fill-opacity:1;stroke:#002865;stroke-width:0.842135;stroke-miterlimit:4;stroke-dasharray:none;stroke-opacity:1"
       d="m 5.1760059,7.3688099 c -0.3414513,0.6785722 -0.5711228,1.7716263 -0.5711314,2.58674 1.52e-4,2.2832371 1.3996357,4.1340681 3.1259464,4.1340951 1.7263136,-2.7e-5 3.1257981,-1.850858 3.1259491,-4.1340951 -9e-6,-0.8151135 -0.182188,-1.8170507 -0.52364,-2.495623 C 8.7461679,6.9255134 6.999787,6.9742189 5.1760059,7.3688099 Z"
       sodipodi:nodetypes="cccccc" /><ellipse
       style="fill:#770000;fill-opacity:1;stroke:none;stroke-width:2.16723"
       id="ellipse31"
       cx="7.6405916"
       cy="10.644005"
       rx="2.318979"
       ry="2.32024" /><path
       id="path36"
       style="fill:#ff2525;fill-opacity:1;stroke:none;stroke-width:2.16723"
       d="M 6.2669058,8.7745691 A 2.3189788,2.32024 0 0 0 5.3219972,10.644256 2.3189788,2.32024 0 0 0 7.6411239,12.964381 2.3189788,2.32024 0 0 0 9.5956634,11.892107 2.3189788,2.32024 0 0 1 8.2225227,12.342546 2.3189788,2.32024 0 0 1 5.9033977,10.02242 2.3189788,2.32024 0 0 1 6.2669058,8.7745691 Z" /><ellipse
       style="fill:#ffffff;fill-opacity:1;stroke:none;stroke-width:0.913546"
       id="ellipse36"
       cx="7.9014192"
       cy="9.1097994"
       rx="0.89720833"
       ry="1.0655551" /><path
       id="path42"
       style="fill:#ffffff;fill-opacity:1;stroke:#002865;stroke-width:0.842135;stroke-miterlimit:4;stroke-dasharray:none;stroke-opacity:1"
       d="m 12.547678,7.2350777 c -0.341452,0.6785722 -0.571123,1.7716263 -0.571131,2.58674 1.51e-4,2.2832373 1.399635,4.1340683 3.125946,4.1340953 1.726313,-2.7e-5 3.125797,-1.850858 3.125948,-4.1340953 -9e-6,-0.8151135 -0.182188,-1.8170506 -0.523639,-2.495623 -1.586963,-0.5344135 -3.333343,-0.485708 -5.157124,-0.091117 z"
       sodipodi:nodetypes="cccccc" /><ellipse
       style="fill:#770000;fill-opacity:1;stroke:none;stroke-width:2.16723"
       id="ellipse42"
       cx="15.180179"
       cy="10.251375"
       rx="2.318979"
       ry="2.32024" /><path
       id="path43"
       style="fill:#ff2525;fill-opacity:1;stroke:none;stroke-width:2.16723"
       d="m 13.806493,8.3819397 a 2.3189788,2.32024 0 0 0 -0.944908,1.8696863 2.3189788,2.32024 0 0 0 2.319127,2.320126 2.3189788,2.32024 0 0 0 1.954539,-1.072275 2.3189788,2.32024 0 0 1 -1.37314,0.450439 2.3189788,2.32024 0 0 1 -2.319125,-2.320125 2.3189788,2.32024 0 0 1 0.363507,-1.2478513 z" /><ellipse
       style="fill:#ffffff;fill-opacity:1;stroke:none;stroke-width:0.913546"
       id="ellipse43"
       cx="15.292586"
       cy="8.7171698"
       rx="0.89720833"
       ry="1.0655551" /><path
       id="path2"
       style="fill:#696969;stroke-width:0.824323;stroke-linecap:round;stroke-linejoin:round"
       inkscape:transform-center-x="0.10176024"
       inkscape:transform-center-y="-0.41373917"
       d="M 28.108564,8.6045092 25.172231,9.5971734 28.875079,2.5643636 Z"
       sodipodi:nodetypes="cccc" /><path
       id="rect5"
       style="fill:#100f0a;stroke-width:0.88117;stroke-linecap:round;stroke-linejoin:round"
       d="m 26.10494,10.055279 h 2.917518 l 0.251872,1.249339 -3.16939,0.198308 z"
       sodipodi:nodetypes="ccccc" /><path
       id="path49"
       style="fill:#100f0a;fill-opacity:1;stroke:none;stroke-width:0.61847;stroke-dasharray:none;stroke-opacity:1"
       d="m 11.893426,22.653042 a 1.5007885,1.7306585 87.083969 0 0 -1.67491,1.568705 1.5007885,1.7306585 87.083969 0 0 0.01867,0.17961 1.5007885,1.7306585 87.083969 0 1 0.185731,-0.01584 1.5007885,1.7306585 87.083969 0 1 1.340564,0.484054 1.5007885,1.7306585 87.083969 0 1 1.302294,-0.589995 1.5007885,1.7306585 87.083969 0 1 0.594258,0.06677 1.5007885,1.7306585 87.083969 0 0 0.0167,-0.263435 1.5007885,1.7306585 87.083969 0 0 -1.78345,-1.430078 z m 1.766723,1.69352 a 1.5007885,1.7306585 87.083969 0 1 -1.472455,1.289654 1.5007885,1.7306585 87.083969 0 1 0.01868,0.179609 1.5007885,1.7306585 87.083969 0 1 -0.372475,0.979516 1.5007885,1.7306585 87.083969 0 0 1.3415,0.484013 1.5007885,1.7306585 87.083969 0 0 1.673936,-1.569482 1.5007885,1.7306585 87.083969 0 0 -1.189186,-1.36331 z m -1.826252,2.448784 a 1.5007885,1.7306585 87.083969 0 1 -0.442932,-0.946842 1.5007885,1.7306585 87.083969 0 1 0.01769,-0.262648 1.5007885,1.7306585 87.083969 0 1 -1.171373,-1.184494 1.5007885,1.7306585 87.083969 0 0 -1.4891858,1.553091 1.5007885,1.7306585 87.083969 0 0 1.7844228,1.430859 1.5007885,1.7306585 87.083969 0 0 1.301356,-0.589952 z m -0.425194,-1.209511 a 1.5007885,1.7306585 87.083969 0 0 0.594256,0.06674 1.5007885,1.7306585 87.083969 0 0 0.184801,-0.01594 1.5007885,1.7306585 87.083969 0 0 -0.424092,-0.766427 1.5007885,1.7306585 87.083969 0 0 -0.354915,0.716046 z" /><path
       id="path13"
       style="fill:#100f0a;fill-opacity:1;stroke:none;stroke-width:0.61847;stroke-dasharray:none;stroke-opacity:1"
       d="m 11.893426,22.653042 a 1.5007885,1.7306585 87.083969 0 0 -1.67491,1.568705 1.5007885,1.7306585 87.083969 0 0 0.01867,0.17961 1.5007885,1.7306585 87.083969 0 1 0.185731,-0.01584 1.5007885,1.7306585 87.083969 0 1 1.340564,0.484054 1.5007885,1.7306585 87.083969 0 1 1.302294,-0.589995 1.5007885,1.7306585 87.083969 0 1 0.594258,0.06677 1.5007885,1.7306585 87.083969 0 0 0.0167,-0.263435 1.5007885,1.7306585 87.083969 0 0 -1.78345,-1.430078 z m 1.766723,1.69352 a 1.5007885,1.7306585 87.083969 0 1 -1.472455,1.289654 1.5007885,1.7306585 87.083969 0 1 0.01868,0.179609 1.5007885,1.7306585 87.083969 0 1 -0.372475,0.979516 1.5007885,1.7306585 87.083969 0 0 1.3415,0.484013 1.5007885,1.7306585 87.083969 0 0 1.673936,-1.569482 1.5007885,1.7306585 87.083969 0 0 -1.189186,-1.36331 z m -1.826252,2.448784 a 1.5007885,1.7306585 87.083969 0 1 -0.442932,-0.946842 1.5007885,1.7306585 87.083969 0 1 0.01769,-0.262648 1.5007885,1.7306585 87.083969 0 1 -1.171373,-1.184494 1.5007885,1.7306585 87.083969 0 0 -1.4891858,1.553091 1.5007885,1.7306585 87.083969 0 0 1.7844228,1.430859 1.5007885,1.7306585 87.083969 0 0 1.301356,-0.589952 z m -0.425194,-1.209511 a 1.5007885,1.7306585 87.083969 0 0 0.594256,0.06674 1.5007885,1.7306585 87.083969 0 0 0.184801,-0.01594 1.5007885,1.7306585 87.083969 0 0 -0.424092,-0.766427 1.5007885,1.7306585 87.083969 0 0 -0.354915,0.716046 z" /><rect
       style="fill:#888800;fill-opacity:1;stroke:#362c00;stroke-width:0.912716;stroke-linecap:round;stroke-linejoin:round;stroke-dasharray:none;stroke-opacity:1"
       id="rect14"
       width="16.842142"
       height="1.9459877"
       x="2.7226145"
       y="3.6894102"
       ry="0.97299385"
       rx="1.11353" /></g></svg>
