<?xml version="1.0" encoding="UTF-8" standalone="no"?>
<!-- Created with Inkscape (http://www.inkscape.org/) -->

<svg
   width="100"
   height="100"
   viewBox="0 0 26.458333 26.458334"
   version="1.1"
   id="svg5"
   inkscape:version="1.4.2 (ebf0e940d0, 2025-05-08)"
   sodipodi:docname="meliadas_capa.svg"
   xml:space="preserve"
   xmlns:inkscape="http://www.inkscape.org/namespaces/inkscape"
   xmlns:sodipodi="http://sodipodi.sourceforge.net/DTD/sodipodi-0.dtd"
   xmlns:xlink="http://www.w3.org/1999/xlink"
   xmlns="http://www.w3.org/2000/svg"
   xmlns:svg="http://www.w3.org/2000/svg"><sodipodi:namedview
     id="namedview7"
     pagecolor="#505050"
     bordercolor="#ffffff"
     borderopacity="1"
     inkscape:pageshadow="0"
     inkscape:pageopacity="0"
     inkscape:pagecheckerboard="1"
     inkscape:document-units="px"
     showgrid="false"
     units="px"
     width="100px"
     inkscape:snap-global="false"
     inkscape:zoom="13.769024"
     inkscape:cx="78.691126"
     inkscape:cy="39.327406"
     inkscape:window-width="1366"
     inkscape:window-height="697"
     inkscape:window-x="0"
     inkscape:window-y="0"
     inkscape:window-maximized="1"
     inkscape:current-layer="layer1"
     inkscape:showpageshadow="0"
     inkscape:deskcolor="#505050" /><defs
     id="defs2"><linearGradient
       id="linearGradient25"
       inkscape:collect="always"><stop
         style="stop-color:#ff7a07;stop-opacity:1;"
         offset="0"
         id="stop25" /><stop
         style="stop-color:#4f2500;stop-opacity:1;"
         offset="1"
         id="stop26" /></linearGradient><linearGradient
       id="linearGradient13895"
       inkscape:swatch="solid"><stop
         style="stop-color:#000000;stop-opacity:1;"
         offset="0"
         id="stop13893" /></linearGradient><filter
       style="color-interpolation-filters:sRGB;"
       inkscape:label="Clean Edges"
       id="filter14269"
       x="-0.31154084"
       y="-0.29580634"
       width="1.6230817"
       height="1.5916127"><feGaussianBlur
         stdDeviation="0.204612"
         result="blur"
         id="feGaussianBlur14263" /><feComposite
         in="SourceGraphic"
         in2="blur"
         operator="in"
         result="composite1"
         id="feComposite14265" /><feComposite
         in="composite1"
         in2="composite1"
         operator="in"
         result="composite2"
         id="feComposite14267" /></filter><inkscape:path-effect
       effect="fillet_chamfer"
       id="path-effect68"
       is_visible="true"
       lpeversion="1"
       nodesatellites_param="F,0,0,1,0,0,0,1 @ F,0,0,1,0,0,0,1 @ F,0,0,1,0,0,0,1 @ F,0,0,1,0,0,0,1 @ F,0,0,1,0,0,0,1 @ F,0,0,1,0,0,0,1 @ F,0,0,1,0,0,0,1 @ F,0,0,1,0,0,0,1 @ F,0,0,1,0,0,0,1"
       radius="0"
       unit="px"
       method="auto"
       mode="F"
       chamfer_steps="1"
       flexible="false"
       use_knot_distance="true"
       apply_no_radius="true"
       apply_with_radius="true"
       only_selected="false"
       hide_knots="false" /><inkscape:path-effect
       effect="fillet_chamfer"
       id="path-effect66"
       is_visible="true"
       lpeversion="1"
       nodesatellites_param="F,0,0,1,0,0,0,1 @ F,0,0,1,0,0.44929322,0,1 @ F,0,0,1,0,0.44929322,0,1 @ F,0,0,1,0,0,0,1 @ F,0,0,1,0,0,0,1 @ F,0,0,1,0,0,0,1 @ F,0,0,1,0,0,0,1 @ F,0,0,1,0,0,0,1 @ F,0,0,1,0,0,0,1 @ F,0,0,1,0,0,0,1"
       radius="0"
       unit="px"
       method="auto"
       mode="F"
       chamfer_steps="1"
       flexible="false"
       use_knot_distance="true"
       apply_no_radius="true"
       apply_with_radius="true"
       only_selected="false"
       hide_knots="false" /><linearGradient
       inkscape:collect="always"
       xlink:href="#linearGradient25"
       id="linearGradient26"
       x1="31.331742"
       y1="17.464602"
       x2="41.036871"
       y2="17.464602"
       gradientUnits="userSpaceOnUse"
       gradientTransform="matrix(1.3638865,0,0,1.5009794,-43.659868,-13.975819)" /><linearGradient
       inkscape:collect="always"
       xlink:href="#linearGradient25"
       id="linearGradient28"
       gradientUnits="userSpaceOnUse"
       gradientTransform="matrix(1.3522319,-0.17989116,0.24689738,1.2744191,-45.1804,-3.9720657)"
       x1="31.331742"
       y1="17.464602"
       x2="41.036871"
       y2="17.464602" /><linearGradient
       inkscape:collect="always"
       xlink:href="#linearGradient25"
       id="linearGradient29"
       gradientUnits="userSpaceOnUse"
       gradientTransform="matrix(-1.3522319,-0.17989116,-0.24689738,1.2744191,75.467259,-3.8545301)"
       x1="31.331742"
       y1="17.464602"
       x2="41.036871"
       y2="17.464602" /><linearGradient
       inkscape:collect="always"
       xlink:href="#linearGradient25"
       id="linearGradient30"
       gradientUnits="userSpaceOnUse"
       gradientTransform="matrix(-1.3922802,-0.16140375,-0.19518673,1.4892162,74.627113,-7.5774832)"
       x1="31.331742"
       y1="17.464602"
       x2="41.036871"
       y2="17.464602" /><linearGradient
       inkscape:collect="always"
       xlink:href="#linearGradient25"
       id="linearGradient31"
       gradientUnits="userSpaceOnUse"
       gradientTransform="matrix(-0.9184306,-0.07824219,-0.16769174,0.55429824,54.135202,-0.89011839)"
       x1="31.331742"
       y1="17.464602"
       x2="41.036871"
       y2="17.464602" /><linearGradient
       inkscape:collect="always"
       xlink:href="#linearGradient25"
       id="linearGradient32"
       gradientUnits="userSpaceOnUse"
       gradientTransform="matrix(0.89176619,0.28332396,-0.088616,0.61169727,-19.72392,-15.715845)"
       x1="31.331742"
       y1="17.464602"
       x2="41.036871"
       y2="17.464602" /><linearGradient
       inkscape:collect="always"
       xlink:href="#linearGradient25"
       id="linearGradient33"
       gradientUnits="userSpaceOnUse"
       gradientTransform="matrix(0.82823151,0.42730936,-0.19586532,0.58788261,-16.076797,-22.181081)"
       x1="31.331742"
       y1="17.464602"
       x2="41.036871"
       y2="17.464602" /></defs><g
     inkscape:label="Camada 1"
     inkscape:groupmode="layer"
     id="layer1"><path
       style="fill:url(#linearGradient30);stroke:#572800;stroke-width:0.56585;stroke-dasharray:none;stroke-opacity:1"
       d="m 19.989169,2.7630027 c 1.485166,1.2772326 3.366956,3.8815212 3.786854,6.4752852 0.419896,2.5937621 -1.502887,5.7402601 -1.423367,7.8564711 0.07954,2.116212 0.457004,3.954078 1.208695,4.50604 0.751692,0.55196 1.059212,-0.08306 1.162192,-0.496287 0.323887,-1.29961 -0.525204,-2.922902 -0.521619,-3.640003 0.0014,-0.289341 0.08214,-0.667962 0.302383,-0.8118 0.239291,-0.156331 0.573536,-0.02595 0.782384,0.156437 0.711248,0.621157 1.420808,2.654768 0.906358,4.930174 -0.295709,1.528835 -1.623206,2.349385 -3.008402,2.438988 -0.602107,-0.03693 -0.847574,0.07343 -1.543889,-1.023166 -0.696313,-1.0966 -1.204208,-3.715337 -1.208532,-6.056692 -0.0044,-2.341354 1.916821,-5.159401 1.458904,-7.6555292 -0.74085,-4.0384087 -6.867691,-6.7103294 -6.116094,-8.2009269 0.640983,-1.27122546 2.728968,0.2437798 4.214133,1.5210088 z"
       id="path30"
       sodipodi:nodetypes="zzzzssassszsszz" /><path
       id="path23"
       style="fill:#006f4c;fill-opacity:1;stroke:#001e14;stroke-width:1.04369;stroke-miterlimit:4;stroke-dasharray:none;stroke-opacity:1"
       d="m 9.700886,18.957571 c -0.5491446,0.123372 -0.9923645,0.425806 -1.1185716,0.81315 l -1.6625092,5.144631 c -0.2904445,1.995205 -0.068291,4.056495 -0.033137,6.070662 0.00992,0.573014 1.2794711,1.036871 2.1666201,0.91295 0.9560357,-0.09825 1.4012837,-0.230004 1.6317727,-1.263584 0.18561,-1.679796 -0.400843,-3.508406 -0.01422,-5.151246 l 1.739264,-5.336835 C 12.59367,19.58389 12.035179,19.060934 11.158831,18.974626 l -0.663371,-0.06566 c -0.273863,-0.02697 -0.5449429,-0.0072 -0.7945607,0.04864 z"
       sodipodi:nodetypes="cccccccccccc" /><path
       id="path22"
       style="fill:#006f4c;fill-opacity:1;stroke:#001e14;stroke-width:1.04369;stroke-miterlimit:4;stroke-dasharray:none;stroke-opacity:1"
       d="m 19.591988,18.957571 c 0.549144,0.123372 0.992364,0.425806 1.118572,0.81315 l 1.738425,5.335627 c 0.290443,1.995204 0.06828,4.056494 0.03314,6.070662 -0.01,0.573013 -0.732871,0.934027 -1.620019,0.810107 L 20.19076,31.894247 C 19.303609,31.770325 18.597795,31.208393 18.607815,30.635376 18.422207,28.95558 19.008658,27.12697 18.622035,25.48413 L 16.88278,20.147303 c -0.183568,-0.563409 0.374925,-1.086364 1.251271,-1.172673 l 0.663371,-0.06566 c 0.273863,-0.02698 0.544943,-0.0072 0.794561,0.04864 z"
       sodipodi:nodetypes="ccccccccccccc" /><rect
       style="fill:#636363;fill-opacity:1;stroke:#202020;stroke-width:0.894986;stroke-opacity:1"
       id="rect22"
       width="4.6625724"
       height="2.0235839"
       x="-23.228437"
       y="25.376348"
       ry="0.59669787"
       transform="scale(-1,1)" /><path
       style="fill:url(#linearGradient26);stroke:#572800;stroke-width:1.17508;stroke-dasharray:none;stroke-opacity:1"
       d="M 7.7549396,2.5788883 C 6.1603027,3.6760081 4.0151097,6.044998 3.2818937,8.5717948 2.5486765,11.09859 4.0061107,14.443778 3.6617376,16.53563 3.3173604,18.627483 2.7206735,20.408695 1.9255251,20.870174 1.1303751,21.331652 0.91395091,20.665789 0.86683954,20.243692 0.71866499,18.916143 1.7433003,17.402244 1.8305317,16.689881 c 0.035201,-0.287426 0.00518,-0.672615 -0.1891111,-0.840768 -0.2111309,-0.182748 -0.5501481,-0.09178 -0.77474193,0.06526 -0.76487442,0.534834 -1.70675536,2.472164 -1.49811628,4.790429 0.0919809,1.551884 1.26917281,2.519325 2.59447781,2.767712 0.5856705,0.03263 0.8085745,0.170453 1.619169,-0.838122 C 4.3928025,21.62582 5.21409,19.084358 5.5143796,16.760326 5.8146679,14.436295 4.3172746,11.417385 5.0748291,8.9918979 6.3004543,5.0677778 12.550441,3.1202239 12.013711,1.5538334 11.555974,0.21796965 9.3495767,1.4817713 7.7549396,2.5788883 Z"
       id="path17"
       sodipodi:nodetypes="zzzzssassszsszz" /><rect
       style="fill:#006f4c;fill-opacity:1;stroke:#001e14;stroke-width:0.834249;stroke-opacity:1"
       id="rect46"
       width="4.6030607"
       height="9.8276882"
       x="9.0489321"
       y="30.283726"
       ry="1.729288" /><rect
       style="fill:#006f4c;fill-opacity:1;stroke:#001e14;stroke-width:0.847763;stroke-opacity:1"
       id="rect47"
       width="4.8097687"
       height="9.7124891"
       x="14.989605"
       y="30.485632"
       ry="1.7090176" /><path
       id="rect9738"
       style="fill:#ffffff;fill-opacity:1;stroke:#060e2d;stroke-width:0.954456;stroke-miterlimit:4;stroke-dasharray:none;stroke-opacity:1"
       d="m 10.082713,19.43355 -1.3350334,17.076282 3.4606294,1.323563 4.921231,-0.16622 2.980947,-2.053102 -1.064288,-16.356827 z"
       sodipodi:nodetypes="ccccccc" /><ellipse
       style="fill:#00432e;fill-opacity:1;stroke:#001e14;stroke-width:0.658713;stroke-miterlimit:4;stroke-dasharray:none;stroke-opacity:1"
       id="path11105"
       cx="14.572731"
       cy="19.524857"
       rx="2.9479191"
       ry="2.8524654" /><ellipse
       style="fill:#00432e;fill-opacity:1;stroke:#001e14;stroke-width:1.35674;stroke-miterlimit:4;stroke-dasharray:none;stroke-opacity:1"
       id="ellipse3"
       cx="14.531073"
       cy="10.927127"
       rx="9.2818699"
       ry="8.9297953" /><ellipse
       style="fill:#006f4c;fill-opacity:1;stroke:none;stroke-width:0.471429;stroke-miterlimit:4;stroke-dasharray:none;stroke-opacity:1"
       id="ellipse4"
       cx="14.607675"
       cy="10.536959"
       rx="7.978827"
       ry="7.7827792" /><ellipse
       style="fill:#00c285;fill-opacity:1;stroke:none;stroke-width:1.39776;stroke-dasharray:none;stroke-opacity:1"
       id="ellipse8"
       cx="4.2898388"
       cy="16.962011"
       rx="5.071579"
       ry="6.7574668"
       transform="matrix(0.76320277,-0.64615907,0.73276035,0.68048679,0,0)" /><path
       id="path12"
       style="fill:#ffffff;fill-opacity:1;stroke:#001e14;stroke-width:0.78012;stroke-miterlimit:4;stroke-dasharray:none;stroke-opacity:1"
       d="M 8.1822801,12.927367 C 7.8356622,12.353734 7.6025155,11.429718 7.6025066,10.740659 7.602661,8.8105183 9.023321,7.2459134 10.775754,7.2458908 c 1.752437,2.29e-5 3.173098,1.5646275 3.173249,3.4947682 -8e-6,0.689058 -0.184941,1.536049 -0.531563,2.109682 -1.610975,0.451768 -3.383782,0.410594 -5.2351599,0.07703 z"
       sodipodi:nodetypes="cccccc" /><ellipse
       style="fill:#001e14;fill-opacity:1;stroke:none;stroke-width:2.20033"
       id="ellipse31"
       cx="10.685257"
       cy="10.399268"
       rx="2.3258419"
       ry="2.3845789" /><path
       id="path36"
       style="fill:#00432e;fill-opacity:1;stroke:none;stroke-width:2.20033"
       d="m 9.307506,8.4779934 a 2.3258416,2.3845788 0 0 0 -0.9477051,1.9215316 2.3258416,2.3845788 0 0 0 2.3259901,2.384461 2.3258416,2.3845788 0 0 0 1.960324,-1.102008 2.3258416,2.3845788 0 0 1 -1.377204,0.46293 A 2.3258416,2.3845788 0 0 1 8.942922,9.7604468 2.3258416,2.3845788 0 0 1 9.307506,8.4779934 Z" /><ellipse
       style="fill:#ffffff;fill-opacity:1;stroke:none;stroke-width:0.927494"
       id="ellipse36"
       cx="11.980753"
       cy="9.5309134"
       rx="0.89986354"
       ry="1.0951022" /><path
       id="path42"
       style="fill:#ffffff;fill-opacity:1;stroke:#001e14;stroke-width:0.781798;stroke-miterlimit:4;stroke-dasharray:none;stroke-opacity:1"
       d="m 15.576466,12.54336 c -0.346523,-0.576258 -0.579609,-1.504502 -0.579617,-2.196714 1.54e-4,-1.9389735 1.420431,-3.5107382 3.172394,-3.510761 1.751964,2.29e-5 3.172241,1.5717875 3.172396,3.510761 -10e-6,0.692212 -0.184896,1.543078 -0.531419,2.119336 -1.610544,0.453835 -3.382874,0.412473 -5.233754,0.07738 z"
       sodipodi:nodetypes="cccccc" /><ellipse
       style="fill:#001e14;fill-opacity:1;stroke:none;stroke-width:2.20033"
       id="ellipse42"
       cx="18.247156"
       cy="9.9957514"
       rx="2.3258419"
       ry="2.3845789" /><path
       id="path43"
       style="fill:#00432e;fill-opacity:1;stroke:none;stroke-width:2.20033"
       d="m 16.869408,8.0744765 a 2.3258416,2.3845788 0 0 0 -0.947705,1.921532 2.3258416,2.3845788 0 0 0 2.32599,2.3844605 2.3258416,2.3845788 0 0 0 1.960323,-1.102007 2.3258416,2.3845788 0 0 1 -1.377203,0.462929 2.3258416,2.3845788 0 0 1 -2.325988,-2.3844609 2.3258416,2.3845788 0 0 1 0.364583,-1.2824536 z" /><ellipse
       style="fill:#ffffff;fill-opacity:1;stroke:none;stroke-width:0.927494"
       id="ellipse43"
       cx="20.026827"
       cy="9.1973286"
       rx="0.89986354"
       ry="1.0951022" /><path
       style="fill:#5e78aa;fill-opacity:1;stroke-width:0.888815;stroke-linecap:round;stroke-dasharray:none"
       d="m 9.5680444,31.809747 c 0,0 1.7401226,1.502175 2.8704106,1.786207 1.130289,0.284032 2.571516,-0.276949 3.781187,0.0083 1.22159,0.288066 3.370698,1.476541 3.370698,1.476541 l -0.204978,-4.121091 -9.383295,0.264454 z"
       id="path2"
       sodipodi:nodetypes="czscccc" /><path
       id="path1"
       style="fill:#1d42d5;fill-opacity:1;stroke:#060e2d;stroke-width:0.662441;stroke-opacity:1"
       d="m 9.0708633,29.333009 c -1.2338951,4.711324 11.6228697,3.791411 10.8201617,-0.05451 -4.654243,1.216639 -6.11258,2.600881 -10.8201617,0.05451 z"
       sodipodi:nodetypes="ccc" /><path
       style="fill:url(#linearGradient28);stroke:#572800;stroke-width:0.929944;stroke-dasharray:none;stroke-opacity:1"
       d="M 8.5181555,3.3024399 C 7.1176112,4.4442847 5.3804264,6.7386379 5.0691111,8.9807442 4.7577939,11.222849 6.753027,13.87088 6.7556869,15.692404 c 0.00264,1.821527 -0.2959387,3.41258 -1.0083833,3.909282 -0.7124464,0.496697 -1.0365494,-0.04011 -1.1526894,-0.392284 -0.365278,-1.107623 0.4015791,-2.528157 0.3708879,-3.144501 -0.012382,-0.248684 -0.1054996,-0.571772 -0.3257938,-0.688917 -0.2393873,-0.127311 -0.5605438,-0.0054 -0.757386,0.157597 -0.6703633,0.55499 -1.2855227,2.324126 -0.6973332,4.264951 0.3464656,1.305507 1.6727334,1.971654 3.0275709,2.007746 0.5860333,-0.04954 0.829703,0.03808 1.4674693,-0.925175 0.637765,-0.963255 1.0339872,-3.229429 0.9494289,-5.242274 C 8.5448986,13.625986 6.5637177,11.260253 6.9158284,9.1009554 7.4854986,5.607493 13.361724,3.1295579 12.571924,1.8703933 11.89836,0.79654061 9.9187001,2.1605972 8.5181555,3.3024399 Z"
       id="path28"
       sodipodi:nodetypes="zzzzssassszsszz" /><path
       style="fill:url(#linearGradient29);stroke:#572800;stroke-width:0.888815;stroke-dasharray:none;stroke-opacity:1"
       d="m 21.768704,3.4199754 c 1.400545,1.1418449 3.137729,3.436198 3.449045,5.6783043 0.311316,2.2421053 -1.683917,4.8901353 -1.686577,6.7116613 -0.0027,1.821527 0.295938,3.41258 1.008383,3.909281 0.712447,0.496697 1.036551,-0.04011 1.152689,-0.392283 0.365279,-1.107623 -0.401577,-2.528158 -0.370886,-3.144502 0.01233,-0.248684 0.1055,-0.571772 0.325793,-0.688917 0.239387,-0.127317 0.560544,-0.0054 0.757387,0.157597 0.670363,0.55499 1.285522,2.324127 0.697332,4.264951 -0.346465,1.305508 -1.135922,1.867767 -2.490759,1.90386 -0.586034,-0.04955 -1.366515,0.141966 -2.00428,-0.821289 -0.637765,-0.963254 -1.033987,-3.229429 -0.949429,-5.242273 0.08456,-2.012844 2.065739,-4.378577 1.71363,-6.5378751 -0.56967,-3.4934624 -6.445897,-5.9713975 -5.656097,-7.2305621 0.673564,-1.07385264 2.653225,0.290204 4.053769,1.4320466 z"
       id="path29"
       sodipodi:nodetypes="zzzzssassszsszz" /><path
       style="fill:url(#linearGradient31);stroke:#572800;stroke-width:0.693037;stroke-dasharray:none;stroke-opacity:1"
       d="m 17.663353,2.2738687 c 0.951245,0.496636 2.131134,1.4945464 2.342578,2.4697322 0.211445,0.9751853 -1.14371,2.1269248 -1.145517,2.9191825 -0.0019,0.7922582 0.201,1.4842739 0.684891,1.7003102 0.48389,0.2160344 0.70402,-0.017444 0.782902,-0.1706206 0.248095,-0.4817515 -0.272751,-1.0996016 -0.251905,-1.3676752 0.0084,-0.1081629 0.07165,-0.2486876 0.221277,-0.2996391 0.16259,-0.055375 0.380719,-0.00232 0.514414,0.068546 0.455307,0.2413883 0.873121,1.0108598 0.473626,1.8550059 -0.235318,0.5678194 -1.136115,0.8575544 -2.056315,0.8732524 -0.398031,-0.02155 -0.563532,0.01656 -0.9967,-0.402397 -0.433166,-0.41896 -0.702278,-1.4046143 -0.644847,-2.2800847 0.05743,-0.87547 1.403042,-1.9044263 1.16389,-2.8435954 C 18.36473,3.2764327 14.37362,2.1986751 14.910049,1.6510116 c 0.457482,-0.4670635 1.80206,0.1262222 2.753304,0.6228571 z"
       id="path31"
       sodipodi:nodetypes="zzzzssassszsszz" /><path
       style="fill:url(#linearGradient32);stroke:#572800;stroke-width:0.541268;stroke-dasharray:none;stroke-opacity:1"
       d="M 12.915868,1.7112702 C 11.808456,1.8271236 10.265975,2.346936 9.63739,3.2243738 9.0088033,4.1018108 9.7642385,5.7678395 9.4155738,6.5487991 9.0669613,7.3297809 8.5716049,7.9317067 8.0244577,7.9545965 7.4773113,7.9774844 7.3751139,7.6611677 7.3692319,7.4793613 7.3507265,6.9075621 8.1100543,6.5034494 8.2091465,6.2312592 8.2491603,6.1214486 8.2522491,5.9582255 8.1351356,5.8493348 8.0078798,5.7310011 7.7808406,5.6976564 7.6247243,5.7149924 7.0930416,5.7740655 6.362823,6.36793 6.3623711,7.3560387 6.330891,8.0075883 7.0434724,8.6463929 7.8953473,9.0229276 8.2763573,9.1578879 8.4139648,9.26036 9.0035093,9.0177208 9.5930533,8.77508 10.28009,7.9099605 10.613641,7.0252237 10.947193,6.1404887 10.146366,4.599126 10.784885,3.7680313 11.817923,2.4234285 16.019409,2.9280653 15.760951,2.1782144 15.54053,1.53872 14.023282,1.5954188 12.915868,1.7112702 Z"
       id="path32"
       sodipodi:nodetypes="zzzzssassszsszz" /><path
       style="fill:url(#linearGradient33);stroke:#572800;stroke-width:0.541268;stroke-dasharray:none;stroke-opacity:1"
       d="M 12.985023,0.41123388 C 11.873504,0.34133464 10.261681,0.59709228 9.4867059,1.3570344 8.7117282,2.1169755 9.1602475,3.8837904 8.678156,4.5952051 8.1961119,5.3066505 7.6012838,5.8173141 7.0582031,5.7489383 6.5151239,5.6805605 6.4705857,5.3519604 6.4970586,5.1718776 6.580313,4.6054986 7.4000821,4.3335763 7.5460113,4.0818974 7.6049201,3.9803678 7.6369324,3.8200831 7.540885,3.6933483 7.4365222,3.5556251 7.2187744,3.4850463 7.0619007,3.476181 6.5276332,3.4460207 5.7028628,3.9097131 5.527045,4.8830658 5.3803938,5.5197036 5.9690108,6.2674347 6.7414003,6.7799409 7.0927962,6.9762128 7.2101721,7.1000301 7.8340219,6.9589673 8.4578713,6.8179032 9.2882446,6.0798094 9.7738653,5.2636477 10.259488,4.4474879 9.7441242,2.7959435 10.520661,2.0833067 11.776995,0.93035326 15.826494,2.1257008 15.704961,1.3440401 15.60131,0.67741715 14.096546,0.48113519 12.985023,0.41123388 Z"
       id="path33"
       sodipodi:nodetypes="zzzzssassszsszz" /><path
       style="fill:none;fill-opacity:1;stroke:#060e2d;stroke-width:0.79216;stroke-dasharray:none;stroke-opacity:1"
       d="m 9.8842298,24.100988 c 1.7953662,2.602294 2.9299682,1.489578 4.2738732,1.553606"
       id="path38"
       sodipodi:nodetypes="cc" /><path
       style="fill:none;fill-opacity:1;stroke:#060e2d;stroke-width:0.79216;stroke-dasharray:none;stroke-opacity:1"
       d="m 19.282728,24.308763 c -1.795366,2.602294 -2.929969,1.489577 -4.273873,1.553606"
       id="path39"
       sodipodi:nodetypes="cc" /></g></svg>
