<?xml version="1.0" encoding="UTF-8" standalone="no"?>
<!-- Created with Inkscape (http://www.inkscape.org/) -->

<svg
   width="100"
   height="100"
   viewBox="0 0 26.458333 26.458334"
   version="1.1"
   id="svg5"
   inkscape:version="1.4.2 (ebf0e940d0, 2025-05-08)"
   sodipodi:docname="mestre_capa.svg"
   xml:space="preserve"
   xmlns:inkscape="http://www.inkscape.org/namespaces/inkscape"
   xmlns:sodipodi="http://sodipodi.sourceforge.net/DTD/sodipodi-0.dtd"
   xmlns="http://www.w3.org/2000/svg"
   xmlns:svg="http://www.w3.org/2000/svg"><sodipodi:namedview
     id="namedview7"
     pagecolor="#505050"
     bordercolor="#ffffff"
     borderopacity="1"
     inkscape:pageshadow="0"
     inkscape:pageopacity="0"
     inkscape:pagecheckerboard="1"
     inkscape:document-units="mm"
     showgrid="false"
     units="px"
     width="100px"
     inkscape:snap-global="false"
     inkscape:zoom="4.868085"
     inkscape:cx="65.836977"
     inkscape:cy="55.155159"
     inkscape:window-width="1366"
     inkscape:window-height="697"
     inkscape:window-x="0"
     inkscape:window-y="0"
     inkscape:window-maximized="1"
     inkscape:current-layer="layer1"
     inkscape:showpageshadow="0"
     inkscape:deskcolor="#505050" /><defs
     id="defs2"><linearGradient
       id="linearGradient13895"
       inkscape:swatch="solid"><stop
         style="stop-color:#000000;stop-opacity:1;"
         offset="0"
         id="stop13893" /></linearGradient><filter
       style="color-interpolation-filters:sRGB;"
       inkscape:label="Clean Edges"
       id="filter14269"
       x="-0.31154084"
       y="-0.29580634"
       width="1.6230817"
       height="1.5916127"><feGaussianBlur
         stdDeviation="0.204612"
         result="blur"
         id="feGaussianBlur14263" /><feComposite
         in="SourceGraphic"
         in2="blur"
         operator="in"
         result="composite1"
         id="feComposite14265" /><feComposite
         in="composite1"
         in2="composite1"
         operator="in"
         result="composite2"
         id="feComposite14267" /></filter><filter
       style="color-interpolation-filters:sRGB;"
       inkscape:label="Clean Edges"
       id="filter14269-3"
       x="-0.31154084"
       y="-0.29580634"
       width="1.6230817"
       height="1.5916127"><feGaussianBlur
         stdDeviation="0.204612"
         result="blur"
         id="feGaussianBlur14263-5" /><feComposite
         in="SourceGraphic"
         in2="blur"
         operator="in"
         result="composite1"
         id="feComposite14265-6" /><feComposite
         in="composite1"
         in2="composite1"
         operator="in"
         result="composite2"
         id="feComposite14267-2" /></filter></defs><g
     inkscape:label="Camada 1"
     inkscape:groupmode="layer"
     id="layer1"><path
       id="path15"
       style="fill:#1b58b3;fill-opacity:1;stroke:#080039;stroke-width:1.01868;stroke-miterlimit:4;stroke-dasharray:none;stroke-opacity:1"
       d="m 18.066203,16.955288 c 0.526004,0.122702 0.950544,0.423491 1.071434,0.808732 l 1.665167,5.306642 c 0.03501,0.217846 0.08588,0.421699 0.122515,0.639433 l -0.09079,5.398251 c -0.0096,0.569901 -0.701986,0.928954 -1.551751,0.805706 l -0.643056,-0.09236 c -0.849768,-0.123235 -1.525836,-0.682128 -1.51624,-1.252031 l 0.08363,-4.964195 c -0.02905,-0.05131 -0.05261,-0.104034 -0.06988,-0.15907 l -1.666079,-5.307833 c -0.175835,-0.560346 0.359122,-1.080463 1.19854,-1.166302 l 0.635418,-0.0653 c 0.262322,-0.02682 0.521978,-0.0073 0.761078,0.04837 z"
       sodipodi:nodetypes="ccccccccccccccc" /><path
       id="rect9714-2"
       style="fill:#1b58b3;fill-opacity:1;stroke:#080039;stroke-width:1.01868;stroke-miterlimit:4;stroke-dasharray:none;stroke-opacity:1"
       d="m 6.4835007,16.248238 c -0.5260035,0.122701 -0.950545,0.42349 -1.0714335,0.808732 L 3.746899,22.363611 c -0.035007,0.217846 -0.085876,0.4217 -0.1225159,0.639434 l 0.090799,5.398251 c 0.00959,0.569901 0.7019866,0.928954 1.5517513,0.805706 L 5.909989,29.114642 C 6.7597563,28.991403 7.435825,28.43251 7.4262288,27.862607 l -0.083631,-4.964196 c 0.029053,-0.05131 0.0526,-0.104033 0.069875,-0.159069 L 9.0785525,17.431508 C 9.254389,16.871162 8.7194306,16.351046 7.8800124,16.265207 l -0.6354173,-0.06531 c -0.2623229,-0.02682 -0.5219791,-0.0073 -0.7610783,0.04837 z"
       sodipodi:nodetypes="ccccccccccccccc" /><g
       id="g15"
       transform="matrix(1.3590077,0,0,1.3009061,-3.5372556,-0.13161779)"><path
         id="rect13"
         style="fill:#ffffff;stroke:#000000;stroke-width:0.8;stroke-linecap:round;stroke-dasharray:none;stroke-opacity:1"
         d="M 6.424721,12.514689 9.712743,12.998757 8.08604,19.227659 4.689317,18.037035 Z"
         sodipodi:nodetypes="ccccc" /><path
         id="rect15"
         style="stroke-width:0.388882;stroke-linecap:round"
         transform="matrix(0.97421697,0.22561315,-0.11717576,0.99311119,0,0)"
         d="m 7.4647706,13.685385 3.2214004,0.178886 v 1.658188 H 6.6773458 Z"
         sodipodi:nodetypes="ccccc" /></g><g
       id="g17"
       transform="matrix(-1.3590077,0,0,1.3009061,28.520966,0.32796487)"><path
         id="path16"
         style="fill:#ffffff;stroke:#000000;stroke-width:0.8;stroke-linecap:round;stroke-dasharray:none;stroke-opacity:1"
         d="M 6.424721,12.514689 9.712743,12.998757 8.08604,19.227659 4.689317,18.037035 Z"
         sodipodi:nodetypes="ccccc" /><path
         id="path17"
         style="stroke-width:0.388882;stroke-linecap:round"
         transform="matrix(0.97421697,0.22561315,-0.11717576,0.99311119,0,0)"
         d="m 7.4647706,13.685385 3.2214004,0.178886 v 1.658188 H 6.6773458 Z"
         sodipodi:nodetypes="ccccc" /></g><path
       id="rect9738-7"
       style="fill:#ffffff;fill-opacity:1;stroke:#000000;stroke-width:0.832499;stroke-miterlimit:4;stroke-dasharray:none;stroke-opacity:1"
       d="M 7.7496343,16.496603 7.1585424,28.922708 6.301361,33.164021 12.271027,32.408446 18.363247,33.210975 17.39157,28.891647 16.83743,16.496594 Z"
       sodipodi:nodetypes="cccccccc" /><ellipse
       style="fill:#4c5d60;fill-opacity:1;stroke:none;stroke-width:0.554019;stroke-miterlimit:4;stroke-dasharray:none;stroke-opacity:1"
       id="ellipse9"
       cx="17.712202"
       cy="16.467199"
       rx="4.283814"
       ry="2.7270057"
       transform="matrix(0.98305248,0.18332439,-0.30405967,0.95265299,0,0)" /><ellipse
       style="fill:#113363;fill-opacity:1;stroke:#090042;stroke-width:0.676787;stroke-miterlimit:4;stroke-dasharray:none;stroke-opacity:1"
       id="path11105-0"
       cx="12.338132"
       cy="16.724627"
       rx="3.2436466"
       ry="2.7366161" /><ellipse
       style="fill:#1f59af;fill-opacity:1;stroke:#080039;stroke-width:1.35924;stroke-miterlimit:4;stroke-dasharray:none;stroke-opacity:1"
       id="ellipse3"
       cx="12.472159"
       cy="11.164706"
       rx="7.0194826"
       ry="6.5533876" /><ellipse
       style="fill:#113363;fill-opacity:1;stroke:none;stroke-width:0.914271;stroke-miterlimit:4;stroke-dasharray:none;stroke-opacity:1"
       id="ellipse2"
       cx="14.651632"
       cy="7.242054"
       rx="6.3760962"
       ry="4.9895625"
       transform="matrix(0.97334303,0.22935419,-0.24490401,0.96954733,0,0)" /><g
       id="g2"
       transform="matrix(1.2334578,0,0,1.1016026,-2.1212232,2.1302031)"><path
         id="path12"
         style="fill:#ffffff;fill-opacity:1;stroke:#002865;stroke-width:0.560863;stroke-miterlimit:4;stroke-dasharray:none;stroke-opacity:1"
         d="M 7.8589281,9.7370337 C 7.6378864,9.2720897 7.4892064,8.5231511 7.4892008,7.9646517 c 9.84e-5,-1.5644282 0.9060674,-2.8325801 2.023611,-2.8325985 1.1175452,1.86e-5 2.0235152,1.2681703 2.0236132,2.8325985 -6e-6,0.5584993 -0.117941,1.2450064 -0.338984,1.7099505 -1.027335,0.3661688 -2.1578709,0.3327968 -3.3385129,0.062431 z"
         sodipodi:nodetypes="cccccc" /><ellipse
         style="fill:#000000;fill-opacity:1;stroke:none;stroke-width:1.44338"
         id="ellipse31"
         cx="9.454401"
         cy="8.1129742"
         rx="1.5012131"
         ry="1.5897816" /><path
         id="path36"
         style="fill:#171717;fill-opacity:1;stroke:none;stroke-width:1.44338"
         d="M 8.5651325,6.8320749 A 1.5012129,1.5897816 0 0 0 7.953437,8.1131465 1.5012129,1.5897816 0 0 0 9.4547456,9.7028494 1.5012129,1.5897816 0 0 0 10.720035,8.9681488 1.5012129,1.5897816 0 0 1 9.8311196,9.2767804 1.5012129,1.5897816 0 0 1 8.3298121,7.6870774 1.5012129,1.5897816 0 0 1 8.5651325,6.8320749 Z" /><ellipse
         style="fill:#ffffff;fill-opacity:1;stroke:none;stroke-width:0.608423"
         id="ellipse36"
         cx="9.62325"
         cy="7.0617681"
         rx="0.58081633"
         ry="0.73009682" /><path
         id="path42"
         style="fill:#ffffff;fill-opacity:1;stroke:#002865;stroke-width:0.560863;stroke-miterlimit:4;stroke-dasharray:none;stroke-opacity:1"
         d="m 12.63105,9.4823513 c -0.221042,-0.464944 -0.369722,-1.2138826 -0.369727,-1.772382 9.8e-5,-1.5644282 0.906067,-2.8325801 2.023611,-2.8325985 1.117545,1.86e-5 2.023514,1.2681703 2.023612,2.8325985 -6e-6,0.5584993 -0.117941,1.2450064 -0.338983,1.7099505 -1.027335,0.3661693 -2.157871,0.3327973 -3.338513,0.062431 z"
         sodipodi:nodetypes="cccccc" /><ellipse
         style="fill:#000000;fill-opacity:1;stroke:none;stroke-width:1.44338"
         id="ellipse42"
         cx="14.335224"
         cy="7.8439531"
         rx="1.5012131"
         ry="1.5897816" /><path
         id="path43"
         style="fill:#171717;fill-opacity:1;stroke:none;stroke-width:1.44338"
         d="m 13.445956,6.5630532 a 1.5012129,1.5897816 0 0 0 -0.611695,1.2810716 1.5012129,1.5897816 0 0 0 1.501309,1.5897029 1.5012129,1.5897816 0 0 0 1.265289,-0.7347006 1.5012129,1.5897816 0 0 1 -0.888915,0.3086316 1.5012129,1.5897816 0 0 1 -1.501308,-1.589703 1.5012129,1.5897816 0 0 1 0.23532,-0.8550025 z" /><ellipse
         style="fill:#ffffff;fill-opacity:1;stroke:none;stroke-width:0.608423"
         id="ellipse43"
         cx="14.407992"
         cy="6.7927465"
         rx="0.58081633"
         ry="0.73009682" /></g><path
       id="path2"
       style="fill:#8a6019;stroke:#37260a;stroke-width:1.4217;stroke-linecap:round;stroke-dasharray:none"
       inkscape:transform-center-x="-0.00059990021"
       inkscape:transform-center-y="-0.97580667"
       d="M 24.580411,8.5432884 C 17.639078,10.3257 10.36863,11.221411 1.7720915,8.5443759 L 12.860756,0.92560294 Z"
       sodipodi:nodetypes="cccc" /><path
       id="path8"
       style="fill:#ca8d25;fill-opacity:1;stroke:none;stroke-width:1.14761;stroke-linecap:round;stroke-dasharray:none"
       inkscape:transform-center-x="-0.00048157237"
       inkscape:transform-center-y="-0.7913248"
       d="M 13.003572,1.8556872 4.0936599,8.034446 c 1.9681408,0.6185884 3.849585,1.0014804 5.6632399,1.1999874 A 9.1589975,7.5654378 0 0 1 9.7154636,8.5110796 9.1589975,7.5654378 0 0 1 13.663719,2.2892961 Z" /><path
       style="fill:none;fill-opacity:1;stroke:#37260a;stroke-width:0.741003;stroke-linecap:round;stroke-dasharray:none;stroke-opacity:1"
       d="M 5.5372074,7.8207817 12.8087,1.4965133"
       id="path3"
       sodipodi:nodetypes="cc" /><path
       style="fill:none;fill-opacity:1;stroke:#37260a;stroke-width:0.741003;stroke-linecap:round;stroke-dasharray:none;stroke-opacity:1"
       d="M 20.250385,7.909163 13.052757,1.8323622"
       id="path4"
       sodipodi:nodetypes="cc" /><path
       style="fill:none;fill-opacity:1;stroke:#37260a;stroke-width:0.741003;stroke-linecap:round;stroke-dasharray:none;stroke-opacity:1"
       d="M 8.4732565,8.2980405 12.974891,1.6555997"
       id="path5"
       sodipodi:nodetypes="cc" /><path
       style="fill:none;fill-opacity:1;stroke:#37260a;stroke-width:0.741003;stroke-linecap:round;stroke-dasharray:none;stroke-opacity:1"
       d="M 16.963485,8.5101556 12.868099,1.9030671"
       id="path6"
       sodipodi:nodetypes="cc" /><path
       style="fill:none;fill-opacity:1;stroke:#37260a;stroke-width:0.741003;stroke-linecap:round;stroke-dasharray:none;stroke-opacity:1"
       d="M 14.249024,8.5808606 12.720374,2.0444773"
       id="path7"
       sodipodi:nodetypes="cc" /><path
       style="fill:none;fill-opacity:1;stroke:#090042;stroke-width:1.00181;stroke-linecap:round;stroke-dasharray:none;stroke-opacity:1"
       d="m 9.774045,14.978766 c 0,0 -1.9741912,2.542405 -2.0876999,3.980671 -0.1639922,2.07795 3.9943549,4.614136 2.0876999,6.014276 -0.4390179,0.322391 -1.6594544,-0.519219 -1.6594544,-0.519219"
       id="path9"
       sodipodi:nodetypes="cssc" /><path
       style="fill:none;fill-opacity:1;stroke:#090042;stroke-width:1.01888;stroke-linecap:round;stroke-dasharray:none;stroke-opacity:1"
       d="m 14.136479,15.080533 c 0,0 2.406331,2.371736 2.78708,3.843494 0.550087,2.126337 -3.038089,5.286495 -0.912048,6.486434 0.489534,0.276294 1.524384,-0.751704 1.524384,-0.751704"
       id="path10"
       sodipodi:nodetypes="cssc" /></g></svg>
