<?xml version="1.0" encoding="UTF-8" standalone="no"?>
<!-- Created with Inkscape (http://www.inkscape.org/) -->

<svg
   width="100"
   height="100"
   viewBox="0 0 26.458333 26.458334"
   version="1.1"
   id="svg5"
   inkscape:version="1.4.2 (ebf0e940d0, 2025-05-08)"
   sodipodi:docname="sabio.svg"
   xml:space="preserve"
   xmlns:inkscape="http://www.inkscape.org/namespaces/inkscape"
   xmlns:sodipodi="http://sodipodi.sourceforge.net/DTD/sodipodi-0.dtd"
   xmlns="http://www.w3.org/2000/svg"
   xmlns:svg="http://www.w3.org/2000/svg"><sodipodi:namedview
     id="namedview7"
     pagecolor="#505050"
     bordercolor="#ffffff"
     borderopacity="1"
     inkscape:pageshadow="0"
     inkscape:pageopacity="0"
     inkscape:pagecheckerboard="1"
     inkscape:document-units="mm"
     showgrid="false"
     units="px"
     width="100px"
     inkscape:snap-global="false"
     inkscape:zoom="3.4422559"
     inkscape:cx="73.934073"
     inkscape:cy="32.101042"
     inkscape:window-width="1366"
     inkscape:window-height="697"
     inkscape:window-x="0"
     inkscape:window-y="0"
     inkscape:window-maximized="1"
     inkscape:current-layer="layer1"
     inkscape:showpageshadow="0"
     inkscape:deskcolor="#505050" /><defs
     id="defs2"><linearGradient
       id="linearGradient13895"
       inkscape:swatch="solid"><stop
         style="stop-color:#000000;stop-opacity:1;"
         offset="0"
         id="stop13893" /></linearGradient><filter
       style="color-interpolation-filters:sRGB;"
       inkscape:label="Clean Edges"
       id="filter14269"
       x="-0.31154084"
       y="-0.29580634"
       width="1.6230817"
       height="1.5916127"><feGaussianBlur
         stdDeviation="0.204612"
         result="blur"
         id="feGaussianBlur14263" /><feComposite
         in="SourceGraphic"
         in2="blur"
         operator="in"
         result="composite1"
         id="feComposite14265" /><feComposite
         in="composite1"
         in2="composite1"
         operator="in"
         result="composite2"
         id="feComposite14267" /></filter></defs><g
     inkscape:label="Camada 1"
     inkscape:groupmode="layer"
     id="layer1"><path
       id="rect9714"
       style="fill:#0053ce;fill-opacity:1;stroke:#080039;stroke-width:1.15921;stroke-miterlimit:4;stroke-dasharray:none;stroke-opacity:1"
       d="M 4.4369385 18.286222 C 4.2173164 18.282523 4.002352 18.307484 3.8002848 18.355469 C 3.2075711 18.496476 2.7288268 18.841898 2.5926066 19.284611 L 0.71623535 25.382947 C 0.67678895 25.633292 0.61954632 25.86757 0.57825928 26.117786 L 0.58859456 26.754956 L 4.7805868 26.754956 L 4.7681844 25.99738 C 4.8009214 25.93842 4.8272666 25.877692 4.8467326 25.814445 L 6.7241374 19.715076 C 6.922273 19.071136 6.3197092 18.473234 5.3738322 18.374589 L 4.6575968 18.299658 C 4.5836989 18.291951 4.5101459 18.287455 4.4369385 18.286222 z " /><path
       id="path11551"
       style="fill:#0053ce;fill-opacity:1;stroke:#090042;stroke-width:1.10203;stroke-miterlimit:4;stroke-dasharray:none;stroke-opacity:1"
       d="m 27.909409,20.448917 c -0.181836,0.609223 -0.548962,1.088343 -0.980117,1.20627 l -5.612399,1.566721 c -0.100642,0.02754 -0.564042,-0.350666 -0.65746,-0.363786 -0.137608,0.06321 -0.537291,0.535954 -0.675523,0.525594 l -5.580044,-0.440229 c -0.62054,-0.04648 -0.948534,-0.88052 -0.736201,-1.869259 l 0.159698,-0.748283 c 0.212327,-0.98874 0.883745,-1.746891 1.504286,-1.700404 l 5.405253,0.404945 c 0.05861,-0.03089 0.118252,-0.05522 0.179879,-0.07206 l 5.940442,-1.625366 c 0.627128,-0.171522 1.145199,0.487863 1.161792,1.477405 l 0.01286,0.749076 c 0.0052,0.309233 -0.03985,0.612473 -0.122539,0.889384 z"
       sodipodi:nodetypes="cccccccccccccccc" /><path
       id="rect9738"
       style="fill:#ffffff;fill-opacity:1;stroke:#806600;stroke-width:0.947342;stroke-miterlimit:4;stroke-dasharray:none;stroke-opacity:1"
       d="M 5.2270711 18.640723 L 4.8643026 26.849007 L 15.80317 26.849007 L 15.467273 18.640723 L 5.2270711 18.640723 z " /><path
       id="ellipse1"
       style="fill:#ffcc00;stroke:#806600;stroke-width:0.886654;stroke-dasharray:none;stroke-opacity:1"
       d="m 14.787772,20.166688 c -0.34339,2.074774 -1.845782,3.575615 -4.449365,3.575615 -2.6035828,0 -4.0178096,-1.821668 -4.3905106,-3.891617 -0.6473812,-3.5955 1.7869293,-3.719249 4.3905106,-3.719249 2.603583,0 5.096747,0.123754 4.449365,4.035251 z"
       sodipodi:nodetypes="sssss" /><ellipse
       style="fill:#1e78ff;fill-opacity:1;stroke:#090042;stroke-width:0.770148;stroke-miterlimit:4;stroke-dasharray:none;stroke-opacity:1"
       id="path11105"
       cx="10.397263"
       cy="18.902689"
       rx="3.655021"
       ry="3.1448717" /><ellipse
       style="fill:#003b99;fill-opacity:1;stroke:none;stroke-width:0.384279;stroke-miterlimit:4;stroke-dasharray:none;stroke-opacity:1"
       id="ellipse49"
       cx="10.412306"
       cy="18.621599"
       rx="3.3196316"
       ry="2.3356366" /><rect
       style="fill:#e6a000;fill-opacity:1;stroke:#191414;stroke-width:0.450347;stroke-miterlimit:4;stroke-dasharray:none;stroke-opacity:1"
       id="rect11"
       width="3.2196906"
       height="18.537922"
       x="24.881052"
       y="10.410454"
       ry="0.5840286"
       transform="matrix(0.99895649,0.04567204,-0.10554729,0.99441428,0,0)" /><rect
       style="fill:#b25200;fill-opacity:1;stroke:none;stroke-width:0.262222;stroke-miterlimit:4;stroke-dasharray:none;stroke-opacity:1"
       id="rect45"
       width="1.1068007"
       height="18.283028"
       x="25.052814"
       y="10.437612"
       ry="0.57599831"
       transform="matrix(0.99892813,0.04628808,-0.10415499,0.99456108,0,0)" /><g
       id="g17"
       transform="matrix(-2.8158028,-0.19443342,0.19330735,-2.7506386,105.65256,39.906195)"
       style="fill:#e6a000;fill-opacity:1"><rect
         style="fill:#e6a000;fill-opacity:1;stroke:#191414;stroke-width:0.125918;stroke-miterlimit:4;stroke-dasharray:none;stroke-opacity:1"
         id="rect16"
         width="2.418293"
         height="0.53468895"
         x="27.855507"
         y="7.3858442"
         ry="0.25027269" /><rect
         style="fill:#e6a000;fill-opacity:1;stroke:#191414;stroke-width:0.158123;stroke-miterlimit:4;stroke-dasharray:none;stroke-opacity:1"
         id="rect17"
         width="2.895308"
         height="0.70425063"
         x="27.631411"
         y="7.8246946"
         ry="0.3296397" /></g><g
       id="g22"
       transform="matrix(2.8044144,0.31661562,-0.31838977,2.7392646,-55.276079,3.7429261)"><path
         id="path17"
         style="fill:#861414;fill-opacity:1;stroke:#191414;stroke-width:0.192"
         d="m 29.179479,1.3621619 c 0,0.1894821 -0.12582,0.6505412 -0.328434,0.6505415 -0.202615,2e-7 -0.405299,-0.461059 -0.405299,-0.6505415 0,-0.1894825 0.164252,-0.3430884 0.366867,-0.3430882 0.202615,3e-7 0.366866,0.153606 0.366866,0.3430882 z"
         sodipodi:nodetypes="sssss" /><path
         id="path18"
         style="fill:#4d4d4d;stroke:#191414;stroke-width:0.192"
         d="m 28.357427,0.89338797 c 0,0.18948213 0.220065,0.48720663 0.01745,0.48720693 -0.202615,2e-7 -0.751184,-0.2977244 -0.751184,-0.48720693 0,-0.18948251 0.164252,-0.34308838 0.366867,-0.34308815 0.202615,2.9e-7 0.366866,0.153606 0.366867,0.34308815 z"
         sodipodi:nodetypes="sssss" /><path
         id="path19"
         style="fill:#4d4d4d;stroke:#191414;stroke-width:0.192"
         d="m 29.960769,0.80506825 c 0,0.18948215 -0.471705,0.48720665 -0.674319,0.48720695 -0.202615,2e-7 -0.05941,-0.29772444 -0.05941,-0.48720695 0,-0.18948251 0.164252,-0.34308838 0.366867,-0.34308815 0.202615,2.9e-7 0.366866,0.153606 0.366866,0.34308815 z"
         sodipodi:nodetypes="sssss" /><path
         id="path20"
         style="fill:#df2e2e;fill-opacity:1;stroke:none;stroke-width:0.0965249"
         d="m 29.044968,1.3211899 c 0,0.097872 -0.06157,0.3360203 -0.160706,0.3360204 -0.09914,1e-7 -0.198318,-0.2381481 -0.198318,-0.3360204 0,-0.097872 0.08037,-0.1772134 0.179512,-0.1772133 0.09915,2e-7 0.179512,0.079341 0.179512,0.1772133 z"
         sodipodi:nodetypes="sssss" /><path
         id="path21"
         style="fill:#7f7f7f;fill-opacity:1;stroke:none;stroke-width:0.0784491"
         d="m 28.149614,0.69865723 c 0.05242,0.0598357 0.142334,0.23840606 0.08174,0.29149337 -0.0606,0.053093 -0.248779,-0.0393931 -0.301199,-0.099229 -0.05242,-0.0598357 -0.04579,-0.15137913 0.01482,-0.2044742 0.06061,-0.053099 0.152226,-0.0476261 0.204647,0.0122098 z"
         sodipodi:nodetypes="sssss" /><path
         id="path22"
         style="fill:#7f7f7f;fill-opacity:1;stroke:none;stroke-width:0.0784491"
         d="m 29.428341,0.62179387 c -0.05242,0.0598357 -0.142334,0.23840606 -0.08174,0.29149337 0.0606,0.053093 0.248779,-0.0393931 0.301199,-0.099229 0.05242,-0.0598357 0.04579,-0.15137913 -0.01482,-0.2044742 -0.06061,-0.053099 -0.152226,-0.0476261 -0.204647,0.0122098 z"
         sodipodi:nodetypes="sssss" /></g><path
       id="path56"
       style="fill:#e6a000;fill-opacity:1;stroke:#191414;stroke-width:0.486327;stroke-dasharray:none;stroke-opacity:1"
       d="M 26.03952,0.52597115 A 5.4401131,5.4512634 22.280675 0 0 20.228829,5.5878658 5.4401131,5.4512634 22.280675 0 0 25.275361,11.39946 5.4401131,5.4512634 22.280675 0 0 31.086051,6.3375657 5.4401131,5.4512634 22.280675 0 0 26.03952,0.52597115 Z M 24.935557,2.2306585 24.904822,2.667994 c -0.03975,0.5655594 0.377046,1.0517115 0.933685,1.0901479 0.556639,0.038436 1.036594,-0.3857946 1.07634,-0.9513541 l 0.02889,-0.4110789 a 3.8626656,3.9493987 5.5607017 0 1 2.37837,2.5560986 l -0.464102,-0.032047 c -0.556639,-0.038436 -1.037406,0.3857387 -1.077152,0.951298 -0.03975,0.5655595 0.377046,1.0517115 0.933685,1.0901479 l 0.669737,0.046246 a 3.8626656,3.9493987 5.5607017 0 1 -3.022112,2.9780077 l 0.0538,-0.7655422 C 26.455708,8.6543585 26.039729,8.1682628 25.48309,8.1298264 24.926451,8.09139 24.446496,8.5156209 24.40675,9.0811805 l -0.0538,0.7655422 A 3.8626656,3.9493987 5.5607017 0 1 21.786785,6.5809554 l 0.795719,0.054945 c 0.556639,0.038436 1.037464,-0.386559 1.07721,-0.9521185 C 23.69946,5.1182223 23.282668,4.6320704 22.726029,4.593634 L 22.083927,4.549296 a 3.8626656,3.9493987 5.5607017 0 1 2.85163,-2.3186375 z" /><ellipse
       style="fill:#861414;fill-opacity:1;stroke:#191414;stroke-width:0.527484;stroke-dasharray:none;stroke-opacity:1"
       id="path59"
       cx="26.033768"
       cy="4.137938"
       rx="2.100306"
       ry="2.0555754"
       transform="matrix(0.99762449,0.06888677,-0.07010436,0.99753966,0,0)" /><ellipse
       style="fill:#df2e2e;fill-opacity:1;stroke:none;stroke-width:0.308963;stroke-dasharray:none;stroke-opacity:1"
       id="ellipse59"
       cx="26.419367"
       cy="3.7486401"
       rx="1.2005781"
       ry="1.2337252"
       transform="matrix(0.99762449,0.06888677,-0.07010436,0.99753966,0,0)" /><path
       d="m 27.994493,17.404717 c -0.04256,-0.0014 -0.08211,0.0048 -0.118711,0.01932 l -2.230828,0.888434 c -0.585422,0.233072 -1.716777,0.694422 -1.687957,1.341923 l 0.08389,1.875756 c 0.02882,0.647499 0.384488,1.965554 1.001855,1.885797 l 3.208939,-0.414087 c 0.617368,-0.07976 1.608364,-1.230506 1.61357,-1.879618 l 0.01103,-1.361237 c 0.0049,-0.608543 -1.243447,-2.334928 -1.881839,-2.356282 z"
       style="fill:#002766;fill-opacity:1;stroke:#080039;stroke-width:1.03191;stroke-opacity:1"
       id="path32" /><path
       d="m 25.348822,18.991935 c 0.02063,-0.01679 0.04256,-0.03062 0.0662,-0.04092 l 1.44318,-0.625672 c 0.378699,-0.16421 1.114692,-0.478567 1.346799,-0.290075 l 0.672175,0.546214 c 0.232101,0.188494 0.557442,0.687874 0.221254,0.906503 l -1.747219,1.136512 c -0.336177,0.218637 -1.264974,0.289581 -1.514545,0.113903 l -0.523499,-0.368309 c -0.23398,-0.164703 -0.27249,-1.123563 0.03565,-1.378062 z"
       style="fill:#0053ce;fill-opacity:1;stroke:none;stroke-width:0.549757"
       id="path33" /><ellipse
       style="fill:#003b99;fill-opacity:1;stroke:#080039;stroke-width:1.34662;stroke-miterlimit:4;stroke-dasharray:none;stroke-opacity:1"
       id="ellipse3"
       cx="10.193947"
       cy="10.103795"
       rx="9.1743612"
       ry="8.9002514" /><ellipse
       style="fill:#1e78ff;fill-opacity:1;stroke:none;stroke-width:1.5255;stroke-dasharray:none;stroke-opacity:1"
       id="ellipse8"
       cx="2.6898527"
       cy="14.540752"
       rx="5.5189838"
       ry="7.3965135"
       transform="matrix(0.72108515,-0.69284646,0.68830558,0.72542086,0,0)" /><path
       id="path12"
       style="fill:#ffffff;fill-opacity:1;stroke:#002865;stroke-width:0.84862;stroke-miterlimit:4;stroke-dasharray:none;stroke-opacity:1"
       d="M 3.9910416,12.696266 C 3.6525464,12.001185 3.4248633,10.881537 3.4248547,10.046593 3.4250054,7.7078058 4.8123732,5.8119458 6.5237385,5.8119183 c 1.7113683,2.78e-5 3.0987367,1.8958875 3.0988868,4.2346747 -9.2e-6,0.834944 -0.1806106,1.861258 -0.5191068,2.556339 -1.5732232,0.547416 -3.304485,0.497525 -5.1124769,0.09333 z"
       sodipodi:nodetypes="cccccc" /><ellipse
       style="fill:#110077;fill-opacity:1;stroke:none;stroke-width:2.18392"
       id="ellipse31"
       cx="6.4342904"
       cy="10.268332"
       rx="2.2989028"
       ry="2.3766897" /><path
       id="path36"
       style="fill:#2300ec;fill-opacity:1;stroke:none;stroke-width:2.18392"
       d="M 5.0724971,8.3534145 A 2.2989025,2.3766896 0 0 0 4.135769,10.268589 2.2989025,2.3766896 0 0 0 6.4348181,12.645161 2.2989025,2.3766896 0 0 0 8.3724364,11.546799 2.2989025,2.3766896 0 0 1 7.0111834,12.008197 2.2989025,2.3766896 0 0 1 4.7121361,9.631625 2.2989025,2.3766896 0 0 1 5.0724971,8.3534145 Z" /><ellipse
       style="fill:#ffffff;fill-opacity:1;stroke:none;stroke-width:0.920582"
       id="ellipse36"
       cx="8.1724796"
       cy="9.9650459"
       rx="0.88944089"
       ry="1.0914792" /><path
       id="path42"
       style="fill:#ffffff;fill-opacity:1;stroke:#002865;stroke-width:0.84862;stroke-miterlimit:4;stroke-dasharray:none;stroke-opacity:1"
       d="m 11.298894,12.315521 c -0.338496,-0.695081 -0.566179,-1.814728 -0.566186,-2.6496731 1.5e-4,-2.3387868 1.387517,-4.2346469 3.098883,-4.2346744 1.711368,2.78e-5 3.098736,1.8958876 3.098886,4.2346744 -9e-6,0.8349441 -0.180611,1.8612581 -0.519106,2.5563391 -1.573224,0.547416 -3.304485,0.497525 -5.112477,0.09333 z"
       sodipodi:nodetypes="cccccc" /><ellipse
       style="fill:#110077;fill-opacity:1;stroke:none;stroke-width:2.18392"
       id="ellipse42"
       cx="13.908605"
       cy="9.8661509"
       rx="2.2989028"
       ry="2.3766897" /><path
       id="path43"
       style="fill:#2300ec;fill-opacity:1;stroke:none;stroke-width:2.18392"
       d="m 12.546811,7.9512328 a 2.2989025,2.3766896 0 0 0 -0.936727,1.9151747 2.2989025,2.3766896 0 0 0 2.299049,2.3765725 2.2989025,2.3766896 0 0 0 1.937618,-1.098362 2.2989025,2.3766896 0 0 1 -1.361252,0.461397 2.2989025,2.3766896 0 0 1 -2.299048,-2.3765717 2.2989025,2.3766896 0 0 1 0.36036,-1.2782105 z" /><ellipse
       style="fill:#ffffff;fill-opacity:1;stroke:none;stroke-width:0.920582"
       id="ellipse43"
       cx="15.480442"
       cy="9.6973743"
       rx="0.88944089"
       ry="1.0914792" /><path
       id="path49"
       style="fill:#ffcc00;fill-opacity:1;stroke:#806600;stroke-width:0.83991;stroke-dasharray:none;stroke-opacity:1"
       d="M 10.58385 24.637256 A 2.123842 2.2554672 83.012546 0 0 8.4025879 26.858309 A 2.123842 2.2554672 83.012546 0 0 8.4201579 27.066565 L 11.44633 27.066565 A 2.123842 2.2554672 83.012546 0 1 12.111405 26.940474 A 2.123842 2.2554672 83.012546 0 1 12.885518 27.035042 A 2.123842 2.2554672 83.012546 0 0 12.907222 26.661938 A 2.123842 2.2554672 83.012546 0 0 10.584367 24.637256 L 10.58385 24.637256 z M 12.885518 27.035042 A 2.123842 2.2554672 83.012546 0 1 12.880351 27.066565 L 12.983704 27.066565 A 2.123842 2.2554672 83.012546 0 0 12.885518 27.035042 z " /></g></svg>
