<?xml version="1.0" encoding="UTF-8" standalone="no"?>
<!-- Created with Inkscape (http://www.inkscape.org/) -->

<svg
   width="100"
   height="100"
   viewBox="0 0 26.458333 26.458334"
   version="1.1"
   id="svg5"
   inkscape:version="1.4.2 (ebf0e940d0, 2025-05-08)"
   sodipodi:docname="viajante_capa.svg"
   xml:space="preserve"
   xmlns:inkscape="http://www.inkscape.org/namespaces/inkscape"
   xmlns:sodipodi="http://sodipodi.sourceforge.net/DTD/sodipodi-0.dtd"
   xmlns="http://www.w3.org/2000/svg"
   xmlns:svg="http://www.w3.org/2000/svg"><sodipodi:namedview
     id="namedview7"
     pagecolor="#505050"
     bordercolor="#ffffff"
     borderopacity="1"
     inkscape:pageshadow="0"
     inkscape:pageopacity="0"
     inkscape:pagecheckerboard="1"
     inkscape:document-units="mm"
     showgrid="false"
     units="px"
     width="100px"
     inkscape:snap-global="false"
     inkscape:zoom="2.4340425"
     inkscape:cx="70.869757"
     inkscape:cy="91.000876"
     inkscape:window-width="1366"
     inkscape:window-height="697"
     inkscape:window-x="0"
     inkscape:window-y="0"
     inkscape:window-maximized="1"
     inkscape:current-layer="layer1"
     inkscape:showpageshadow="0"
     inkscape:deskcolor="#505050" /><defs
     id="defs2"><linearGradient
       id="linearGradient13895"
       inkscape:swatch="solid"><stop
         style="stop-color:#000000;stop-opacity:1;"
         offset="0"
         id="stop13893" /></linearGradient><filter
       style="color-interpolation-filters:sRGB;"
       inkscape:label="Clean Edges"
       id="filter14269"
       x="-0.31154084"
       y="-0.29580634"
       width="1.6230817"
       height="1.5916127"><feGaussianBlur
         stdDeviation="0.204612"
         result="blur"
         id="feGaussianBlur14263" /><feComposite
         in="SourceGraphic"
         in2="blur"
         operator="in"
         result="composite1"
         id="feComposite14265" /><feComposite
         in="composite1"
         in2="composite1"
         operator="in"
         result="composite2"
         id="feComposite14267" /></filter><filter
       style="color-interpolation-filters:sRGB;"
       inkscape:label="Clean Edges"
       id="filter14269-3"
       x="-0.31154084"
       y="-0.29580634"
       width="1.6230817"
       height="1.5916127"><feGaussianBlur
         stdDeviation="0.204612"
         result="blur"
         id="feGaussianBlur14263-5" /><feComposite
         in="SourceGraphic"
         in2="blur"
         operator="in"
         result="composite1"
         id="feComposite14265-6" /><feComposite
         in="composite1"
         in2="composite1"
         operator="in"
         result="composite2"
         id="feComposite14267-2" /></filter></defs><g
     inkscape:label="Camada 1"
     inkscape:groupmode="layer"
     id="layer1"><rect
       style="fill:#ffa233;fill-opacity:1;stroke:#a85b00;stroke-width:0.711394;stroke-linecap:round;stroke-linejoin:round;stroke-dasharray:none;stroke-opacity:1"
       id="rect9"
       width="19.609634"
       height="14.665508"
       x="7.8754158"
       y="12.967889"
       ry="2.0116365" /><rect
       style="fill:#a80000;fill-opacity:1;stroke:#1e0000;stroke-width:0.95461;stroke-linecap:round;stroke-linejoin:round;stroke-dasharray:none;stroke-opacity:1"
       id="rect2"
       width="5.0995522"
       height="8.6746588"
       x="-20.41127"
       y="22.467531"
       transform="matrix(-0.97588333,0.21829277,0.20556061,0.97864439,0,0)"
       ry="2.0269797" /><path
       id="rect9714"
       style="fill:#0053ce;fill-opacity:1;stroke:#110077;stroke-width:1.14315;stroke-miterlimit:4;stroke-dasharray:none;stroke-opacity:1"
       d="m 11.350047,18.974843 c -0.543129,-0.224486 -1.126753,-0.219662 -1.5086467,0.05793 l -5.2605137,3.82385 c -0.1871169,0.178381 -0.3778743,0.333681 -0.5663231,0.51091 l -3.80827911,5.035413 c -0.40203475,0.531606 -0.0619222,1.307069 0.76151625,1.738872 l 0.62248126,0.327599 c 0.8234336,0.431813 1.810361,0.350471 2.2123999,-0.181136 l 3.5019536,-4.630617 c 0.062057,-0.02866 0.1203845,-0.06215 0.174945,-0.101803 l 5.2621606,-3.824366 c 0.555479,-0.40377 0.467447,-1.226684 -0.196502,-1.844623 L 12.042883,19.418809 C 11.835392,19.225704 11.596827,19.077056 11.350037,18.97489 Z"
       sodipodi:nodetypes="ccccccccccccccc" /><rect
       style="fill:#a80000;fill-opacity:1;stroke:#1e0000;stroke-width:0.954569;stroke-linecap:round;stroke-linejoin:round;stroke-dasharray:none;stroke-opacity:1"
       id="rect8"
       width="5.060678"
       height="8.7405529"
       x="16.490824"
       y="10.125476"
       transform="matrix(0.80901335,0.58779027,-0.58823882,0.80868726,0,0)"
       ry="2.042377" /><path
       id="rect9738"
       style="fill:#a80000;fill-opacity:1;stroke:#1e0000;stroke-width:0.976992;stroke-miterlimit:4;stroke-dasharray:none;stroke-opacity:1"
       d="m 9.7841046,19.087808 -0.4556114,9.810445 c 5.0955598,3.655677 8.5088498,2.159598 11.7054768,0 l -0.422033,-9.810445 z"
       sodipodi:nodetypes="ccccc" /><ellipse
       style="fill:#0053ce;fill-opacity:1;stroke:#110077;stroke-width:0.759479;stroke-miterlimit:4;stroke-dasharray:none;stroke-opacity:1"
       id="path11105"
       cx="15.162448"
       cy="19.328356"
       rx="3.5248404"
       ry="3.1712828" /><ellipse
       style="fill:#002766;fill-opacity:1;stroke:none;stroke-width:0.37959;stroke-miterlimit:4;stroke-dasharray:none;stroke-opacity:1"
       id="ellipse49"
       cx="15.124541"
       cy="19.072308"
       rx="3.1751888"
       ry="2.3826549" /><ellipse
       style="fill:#0047b0;fill-opacity:1;stroke:#110077;stroke-width:1.32797;stroke-miterlimit:4;stroke-dasharray:none;stroke-opacity:1"
       id="ellipse3"
       cx="14.966374"
       cy="10.455567"
       rx="8.8475981"
       ry="8.9749966" /><ellipse
       style="fill:#005ade;fill-opacity:1;stroke:none;stroke-width:0.467735;stroke-miterlimit:4;stroke-dasharray:none;stroke-opacity:1"
       id="ellipse4"
       cx="15.366014"
       cy="9.9476194"
       rx="7.9321442"
       ry="7.7063704" /><path
       id="path12"
       style="fill:#ffffff;fill-opacity:1;stroke:#002865;stroke-width:0.836863;stroke-miterlimit:4;stroke-dasharray:none;stroke-opacity:1"
       d="m 8.9843954,7.9336789 c -0.3264391,0.7009188 -0.5460128,1.829969 -0.546021,2.6719251 1.452e-4,2.358429 1.3380992,4.27021 2.9885116,4.270238 1.650415,-2.8e-5 2.988368,-1.911809 2.988513,-4.270238 C 14.41539,9.763648 14.241222,8.7287154 13.914782,8.0277965 12.397593,7.475784 10.727991,7.5260934 8.9843954,7.9336789 Z"
       sodipodi:nodetypes="cccccc" /><ellipse
       style="fill:#080039;fill-opacity:1;stroke:none;stroke-width:2.15366"
       id="ellipse31"
       cx="11.340624"
       cy="11.31673"
       rx="2.2170229"
       ry="2.3966491" /><path
       id="path42"
       style="fill:#ffffff;fill-opacity:1;stroke:#002865;stroke-width:0.836863;stroke-miterlimit:4;stroke-dasharray:none;stroke-opacity:1"
       d="m 16.031963,7.7955427 c -0.326439,0.7009187 -0.546012,1.8299689 -0.546019,2.6719253 1.45e-4,2.358428 1.338098,4.27021 2.98851,4.270238 1.650413,-2.8e-5 2.988367,-1.91181 2.988513,-4.270238 C 21.462957,9.6255118 21.288788,8.5905792 20.96235,7.8896603 19.445159,7.3376478 17.77556,7.3879572 16.031963,7.7955427 Z"
       sodipodi:nodetypes="cccccc" /><ellipse
       style="fill:#080039;fill-opacity:1;stroke:none;stroke-width:2.15366"
       id="ellipse42"
       cx="18.548729"
       cy="10.911172"
       rx="2.2170229"
       ry="2.3966491" /><path
       id="path36"
       style="fill:#002766;fill-opacity:1;stroke:none;stroke-width:2.15366"
       d="m 19.893585,9.038319 a 2.2170225,2.3966492 0 0 1 0.903366,1.931258 2.2170225,2.3966492 0 0 1 -2.217165,2.396531 2.2170225,2.3966492 0 0 1 -1.868606,-1.107586 2.2170225,2.3966492 0 0 0 1.312768,0.465273 2.2170225,2.3966492 0 0 0 2.217164,-2.396531 2.2170225,2.3966492 0 0 0 -0.347527,-1.288945 z" /><ellipse
       style="fill:#ffffff;fill-opacity:1;stroke:none;stroke-width:0.907827"
       id="ellipse36"
       cx="9.8305254"
       cy="11.238365"
       rx="0.85776174"
       ry="1.1006455" /><path
       id="path43"
       style="fill:#002766;fill-opacity:1;stroke:none;stroke-width:2.15366"
       d="m 12.662687,9.385488 a 2.2170225,2.3966492 0 0 1 0.903365,1.931259 2.2170225,2.3966492 0 0 1 -2.217164,2.39653 2.2170225,2.3966492 0 0 1 -1.8686045,-1.107586 2.2170225,2.3966492 0 0 0 1.3127665,0.465273 2.2170225,2.3966492 0 0 0 2.217163,-2.396531 2.2170225,2.3966492 0 0 0 -0.347526,-1.288945 z" /><ellipse
       style="fill:#ffffff;fill-opacity:1;stroke:none;stroke-width:0.907827"
       id="ellipse43"
       cx="17.010248"
       cy="11.122491"
       rx="0.85776174"
       ry="1.1006455" /><path
       id="path13"
       style="fill:#1e0000;fill-opacity:1;stroke:none;stroke-width:0.35798;stroke-dasharray:none;stroke-opacity:1"
       d="m 12.19111,22.053659 a 0.8890615,0.97876193 85.659581 0 0 -0.947063,0.929462 0.8890615,0.97876193 85.659581 0 0 0.01051,0.106413 0.8890615,0.97876193 85.659581 0 1 0.105014,-0.0093 0.8890615,0.97876193 85.659581 0 1 0.75801,0.286803 0.8890615,0.97876193 85.659581 0 1 0.73637,-0.349572 0.8890615,0.97876193 85.659581 0 1 0.336019,0.03955 0.8890615,0.97876193 85.659581 0 0 0.0094,-0.156084 0.8890615,0.97876193 85.659581 0 0 -1.008435,-0.847326 z m 0.998978,1.003416 a 0.8890615,0.97876193 85.659581 0 1 -0.832588,0.764123 0.8890615,0.97876193 85.659581 0 1 0.01066,0.106413 0.8890615,0.97876193 85.659581 0 1 -0.210612,0.580368 0.8890615,0.97876193 85.659581 0 0 0.75854,0.286779 0.8890615,0.97876193 85.659581 0 0 0.946511,-0.929925 0.8890615,0.97876193 85.659581 0 0 -0.672414,-0.807762 z m -1.03264,1.45091 a 0.8890615,0.97876193 85.659581 0 1 -0.250451,-0.561006 0.8890615,0.97876193 85.659581 0 1 0.01004,-0.155619 0.8890615,0.97876193 85.659581 0 1 -0.662342,-0.701816 0.8890615,0.97876193 85.659581 0 0 -0.842047,0.920209 0.8890615,0.97876193 85.659581 0 0 1.008987,0.847789 0.8890615,0.97876193 85.659581 0 0 0.735839,-0.349548 z m -0.24042,-0.716637 a 0.8890615,0.97876193 85.659581 0 0 0.336016,0.03955 0.8890615,0.97876193 85.659581 0 0 0.104504,-0.0093 0.8890615,0.97876193 85.659581 0 0 -0.239798,-0.454109 0.8890615,0.97876193 85.659581 0 0 -0.200685,0.424259 z" /><rect
       style="fill:#ffa233;fill-opacity:1;stroke:#a85b00;stroke-width:0.836473;stroke-linecap:round;stroke-linejoin:round;stroke-dasharray:none;stroke-opacity:1"
       id="rect6"
       width="1.9414986"
       height="9.2927074"
       x="9.6052494"
       y="17.895094"
       ry="0.35953927"
       transform="matrix(0.99623572,0.08668562,-0.09243205,0.99571899,0,0)" /><rect
       style="fill:#ffa233;fill-opacity:1;stroke:#a85b00;stroke-width:0.853483;stroke-linecap:round;stroke-linejoin:round;stroke-dasharray:none;stroke-opacity:1"
       id="rect7"
       width="1.9300528"
       height="9.7318506"
       x="-21.054384"
       y="20.137865"
       ry="0.37652987"
       transform="matrix(-0.99581796,0.09135967,0.08770402,0.99614658,0,0)" /><path
       id="rect1"
       style="fill:#ffa233;stroke:#a85b00;stroke-width:1.41927;stroke-linejoin:round"
       d="m 1.6467183,4.4398535 c 7.5541882,0 15.2388717,-2.5447118 22.6625647,0 0.31195,0.1069313 0.596874,0.2595551 0.596874,0.5819622 v 1.6248327 c 0,0.322407 -0.266207,0.5819621 -0.596874,0.5819621 H 1.6467183 c -0.3306688,0 -0.596875,-0.2595551 -0.596875,-0.5819621 V 5.0218157 c 0,-0.3224071 0.2662062,-0.5819622 0.596875,-0.5819622 z"
       sodipodi:nodetypes="sssssssss" /></g></svg>
