<?xml version="1.0" encoding="UTF-8" standalone="no"?>
<!-- Created with Inkscape (http://www.inkscape.org/) -->

<svg
   width="300"
   height="300"
   viewBox="0 0 79.374999 79.374999"
   version="1.1"
   id="svg1"
   inkscape:version="1.4.2 (ebf0e940d0, 2025-05-08)"
   sodipodi:docname="Campo_de_Flores.svg"
   xmlns:inkscape="http://www.inkscape.org/namespaces/inkscape"
   xmlns:sodipodi="http://sodipodi.sourceforge.net/DTD/sodipodi-0.dtd"
   xmlns="http://www.w3.org/2000/svg"
   xmlns:svg="http://www.w3.org/2000/svg">
  <sodipodi:namedview
     id="namedview1"
     pagecolor="#505050"
     bordercolor="#eeeeee"
     borderopacity="1"
     inkscape:showpageshadow="0"
     inkscape:pageopacity="0"
     inkscape:pagecheckerboard="0"
     inkscape:deskcolor="#505050"
     inkscape:document-units="px"
     inkscape:zoom="1.2472578"
     inkscape:cx="344.35543"
     inkscape:cy="163.95969"
     inkscape:window-width="1366"
     inkscape:window-height="697"
     inkscape:window-x="0"
     inkscape:window-y="0"
     inkscape:window-maximized="1"
     inkscape:current-layer="layer1" />
  <defs
     id="defs1" />
  <g
     inkscape:label="Camada 1"
     inkscape:groupmode="layer"
     id="layer1">
    <rect
       style="fill:#007fbd;fill-opacity:1;stroke:none;stroke-width:0.488171"
       id="rect1"
       width="82.519356"
       height="68.942917"
       x="-1.5921535"
       y="-2.1213202" />
    <path
       id="path1"
       style="fill:#28b328;fill-opacity:1;stroke:#0b5a04;stroke-width:1.64835415;stroke-dasharray:none;stroke-opacity:1"
       d="M 69.822094 39.804805 A 35.896171 25.197524 0 0 0 45.299043 46.600773 A 41.418661 25.197524 0 0 0 27.978137 44.29187 A 41.418661 25.197524 0 0 0 -0.86764729 51.407197 L -0.86764729 79.337275 L 80.100019 79.337275 L 80.100019 40.860038 A 35.896171 25.197524 0 0 0 69.822094 39.804805 z " />
    <path
       id="path2"
       style="fill:#1a6c14;fill-opacity:1;stroke:none;stroke-width:1.49536;stroke-dasharray:none;stroke-opacity:1"
       d="M 69.879172,46.940795 A 35.964001,20.697889 0 0 0 45.309781,52.523176 41.496927,20.697889 0 0 0 27.956145,50.626585 41.496927,20.697889 0 0 0 -0.94414644,56.471296 V 79.413774 H 80.176518 V 47.80759 A 35.964001,20.697889 0 0 0 69.879172,46.940795 Z" />
    <ellipse
       style="fill:#ffffff;fill-opacity:1;stroke:#4e4a47;stroke-width:1.52628;stroke-dasharray:none;stroke-opacity:1"
       id="path4"
       cx="41.736977"
       cy="47.241749"
       rx="12.735921"
       ry="8.3872156" />
    <ellipse
       style="fill:#ffffff;fill-opacity:1;stroke:#4e4a47;stroke-width:1.52628;stroke-dasharray:none;stroke-opacity:1"
       id="ellipse4"
       cx="65.071503"
       cy="46.616013"
       rx="12.735921"
       ry="8.3872156" />
    <ellipse
       style="fill:#ffffff;fill-opacity:1;stroke:#4e4a47;stroke-width:1.52628;stroke-dasharray:none;stroke-opacity:1"
       id="ellipse9"
       cx="-2.6577852"
       cy="70.04818"
       rx="12.735921"
       ry="8.3872156"
       transform="rotate(-40.736962)" />
    <ellipse
       style="fill:#ffffff;fill-opacity:1;stroke:#4e4a47;stroke-width:1.52628;stroke-dasharray:none;stroke-opacity:1"
       id="ellipse8"
       cx="-81.344742"
       cy="1.6165195"
       rx="12.735921"
       ry="8.3872156"
       transform="matrix(-0.7577135,-0.65258735,-0.65258735,0.7577135,0,0)" />
    <ellipse
       style="fill:#ffffff;fill-opacity:1;stroke:#4e4a47;stroke-width:1.52628;stroke-dasharray:none;stroke-opacity:1"
       id="ellipse5"
       cx="25.395597"
       cy="68.276108"
       rx="12.735921"
       ry="8.3872156"
       transform="rotate(-40.736962)" />
    <ellipse
       style="fill:#ffffff;fill-opacity:1;stroke:#4e4a47;stroke-width:1.52628;stroke-dasharray:none;stroke-opacity:1"
       id="ellipse6"
       cx="-57.064362"
       cy="-0.8315419"
       rx="12.735921"
       ry="8.3872156"
       transform="matrix(-0.7577135,-0.65258735,-0.65258735,0.7577135,0,0)" />
    <ellipse
       style="fill:#ffffff;fill-opacity:1;stroke:#4e4a47;stroke-width:1.52628;stroke-dasharray:none;stroke-opacity:1"
       id="ellipse7"
       cx="-31.876675"
       cy="-54.5252"
       rx="12.735921"
       ry="8.3872156"
       transform="matrix(0.02146216,-0.99976966,-0.99976966,-0.02146216,0,0)" />
    <path
       id="rect22"
       style="fill:#28b328;fill-opacity:1;stroke:#0b5a04;stroke-width:0.836256;stroke-opacity:1"
       d="m 49.926074,51.879563 h 6.797917 c -2.208143,0.560745 -4.470757,0.908036 0,27.640872 h -6.797917 c 0.601689,-7.363664 4.110195,-5.789993 0,-27.640872 z"
       sodipodi:nodetypes="ccccc" />
    <ellipse
       style="fill:#f4e60b;fill-opacity:1;stroke:#954800;stroke-width:1.64835;stroke-dasharray:none;stroke-opacity:1"
       id="path3"
       cx="53.351196"
       cy="46.350849"
       rx="11.136932"
       ry="9.6520081" />
    <ellipse
       style="fill:#ffffff;fill-opacity:1;stroke:#954800;stroke-width:0.88106258;stroke-dasharray:none;stroke-opacity:1"
       id="path9"
       cx="48.824997"
       cy="42.112499"
       rx="4.5749998"
       ry="5.2124996" />
    <ellipse
       style="fill:#ffffff;fill-opacity:1;stroke:#954800;stroke-width:0.881063;stroke-dasharray:none;stroke-opacity:1"
       id="ellipse10"
       cx="58.274998"
       cy="42.112499"
       rx="4.5749998"
       ry="5.2124996" />
    <path
       id="ellipse11"
       style="fill:#000000;fill-opacity:1;stroke:none;stroke-width:0.612268;stroke-dasharray:none;stroke-opacity:1"
       d="m 45.190312,41.192043 a 3.4312496,3.3562498 2.0294242 0 0 3.310304,3.475791 3.4312496,3.3562498 2.0294242 0 0 2.901388,-1.386405 l -2.929856,-1.75023 3.184047,-1.775063 a 3.4312496,3.3562498 2.0294242 0 0 -2.917862,-1.79686 3.4312496,3.3562498 2.0294242 0 0 -3.548021,3.232767 z" />
    <path
       id="path12"
       style="fill:#000000;fill-opacity:1;stroke:none;stroke-width:0.612268;stroke-dasharray:none;stroke-opacity:1"
       d="m 61.854131,40.967043 a 3.3562498,3.4312496 87.970576 0 1 -3.310304,3.475791 3.3562498,3.4312496 87.970576 0 1 -2.901388,-1.386405 l 2.929856,-1.75023 -3.184047,-1.775063 a 3.3562498,3.4312496 87.970576 0 1 2.917862,-1.79686 3.3562498,3.4312496 87.970576 0 1 3.548021,3.232767 z" />
    <path
       id="path13"
       style="fill:#ffffff;fill-opacity:1;stroke:#000000;stroke-width:0.952078;stroke-dasharray:none;stroke-opacity:1"
       d="M 64.902233,46.845026 A 14.496517,9.0564575 0 0 1 53.189497,50.565357 14.496517,9.0564575 0 0 1 41.940196,47.22121 11.54949,11.132549 0 0 0 53.400147,56.97138 11.54949,11.132549 0 0 0 64.902233,46.845026 Z" />
    <path
       style="fill:#ffffff;fill-opacity:1;stroke:#000000;stroke-width:0.881062;stroke-dasharray:none;stroke-opacity:1"
       d="m 53.033009,50.487423 0.106066,6.310929"
       id="path14" />
    <path
       style="fill:#ffffff;fill-opacity:1;stroke:#000000;stroke-width:0.881062;stroke-dasharray:none;stroke-opacity:1"
       d="m 55.995509,50.224923 0.106066,6.310929"
       id="path15" />
    <path
       style="fill:#ffffff;fill-opacity:1;stroke:#000000;stroke-width:0.881062;stroke-dasharray:none;stroke-opacity:1"
       d="m 50.108009,50.112423 0.106066,6.310929"
       id="path16" />
    <path
       style="fill:#ffffff;fill-opacity:1;stroke:#000000;stroke-width:0.850745;stroke-dasharray:none;stroke-opacity:1"
       d="m 47.74527,49.589027 0.106544,5.857721"
       id="path17" />
    <path
       style="fill:#ffffff;fill-opacity:1;stroke:#000000;stroke-width:0.75733;stroke-dasharray:none;stroke-opacity:1"
       d="m 45.269473,48.993607 0.108138,4.573561"
       id="path18" />
    <path
       style="fill:#ffffff;fill-opacity:1;stroke:#000000;stroke-width:0.66979;stroke-dasharray:none;stroke-opacity:1"
       d="m 43.843501,48.285788 0.110082,3.514199"
       id="path19" />
    <path
       style="fill:#ffffff;fill-opacity:1;stroke:#000000;stroke-width:0.732455;stroke-dasharray:none;stroke-opacity:1"
       d="m 62.406924,48.322453 0.108236,4.274203"
       id="path20" />
    <path
       style="fill:#ffffff;fill-opacity:1;stroke:#000000;stroke-width:0.75733;stroke-dasharray:none;stroke-opacity:1"
       d="m 60.756973,49.410274 0.108138,4.573561"
       id="path21" />
    <path
       style="fill:#ffffff;fill-opacity:1;stroke:#000000;stroke-width:0.850745;stroke-dasharray:none;stroke-opacity:1"
       d="m 58.69527,49.855694 0.106544,5.857721"
       id="path22" />
    <path
       id="path23"
       style="fill:#ffffff;fill-opacity:1;stroke:#022f1d;stroke-width:0.876069;stroke-dasharray:none;stroke-opacity:1"
       d="M 14.588773 6.0161702 A 5.9539576 4.931901 0 0 0 8.6351317 10.948169 A 5.9539576 4.931901 0 0 0 8.6351317 10.965739 A 5.9539576 4.931901 0 0 0 4.1351481 15.748393 A 5.9539576 4.931901 0 0 0 10.08879 20.679874 A 5.9539576 4.931901 0 0 0 14.248226 19.276859 A 5.9539576 4.931901 0 0 0 15.939079 19.479948 A 5.9539576 4.931901 0 0 0 16.901294 19.415352 A 5.9539576 4.931901 0 0 0 21.414197 21.129976 A 5.9539576 4.931901 0 0 0 25.744681 19.582784 A 5.9539576 4.931901 0 0 0 27.938863 19.930049 A 5.9539576 4.931901 0 0 0 33.893021 14.998051 A 5.9539576 4.931901 0 0 0 27.938863 10.066052 A 5.9539576 4.931901 0 0 0 27.606583 10.073804 A 5.9539576 4.931901 0 0 0 22.164022 7.1411661 A 5.9539576 4.931901 0 0 0 19.178157 7.8062418 A 5.9539576 4.931901 0 0 0 14.588773 6.0161702 z " />
    <path
       id="path27"
       style="fill:#ffffff;fill-opacity:1;stroke:#022f1d;stroke-width:0.876069;stroke-dasharray:none;stroke-opacity:1"
       d="m 73.349346,1.7735296 a 5.9539576,4.931901 0 0 0 -5.953641,4.9319988 5.9539576,4.931901 0 0 0 0,0.01757 5.9539576,4.931901 0 0 0 -4.499984,4.7826536 5.9539576,4.931901 0 0 0 5.953642,4.931481 5.9539576,4.931901 0 0 0 4.159436,-1.403015 5.9539576,4.931901 0 0 0 1.690853,0.203089 5.9539576,4.931901 0 0 0 0.962215,-0.0646 5.9539576,4.931901 0 0 0 4.512903,1.714624 5.9539576,4.931901 0 0 0 4.330484,-1.547192 5.9539576,4.931901 0 0 0 2.194182,0.347265 5.9539576,4.931901 0 0 0 5.954158,-4.931998 5.9539576,4.931901 0 0 0 -5.954158,-4.9319986 5.9539576,4.931901 0 0 0 -0.33228,0.00775 A 5.9539576,4.931901 0 0 0 80.924595,2.8985255 5.9539576,4.931901 0 0 0 77.93873,3.5636012 5.9539576,4.931901 0 0 0 73.349346,1.7735296 Z" />
  </g>
</svg>
