<?xml version="1.0" encoding="UTF-8" standalone="no"?>
<!-- Created with Inkscape (http://www.inkscape.org/) -->

<svg
   width="100"
   height="100"
   viewBox="0 0 26.458333 26.458333"
   version="1.1"
   id="svg1"
   inkscape:version="1.4.2 (ebf0e940d0, 2025-05-08)"
   sodipodi:docname="campos.svg"
   xmlns:inkscape="http://www.inkscape.org/namespaces/inkscape"
   xmlns:sodipodi="http://sodipodi.sourceforge.net/DTD/sodipodi-0.dtd"
   xmlns="http://www.w3.org/2000/svg"
   xmlns:svg="http://www.w3.org/2000/svg">
  <sodipodi:namedview
     id="namedview1"
     pagecolor="#505050"
     bordercolor="#eeeeee"
     borderopacity="1"
     inkscape:showpageshadow="0"
     inkscape:pageopacity="0"
     inkscape:pagecheckerboard="0"
     inkscape:deskcolor="#505050"
     inkscape:document-units="px"
     inkscape:zoom="2.4945156"
     inkscape:cx="134.09417"
     inkscape:cy="46.702454"
     inkscape:window-width="1366"
     inkscape:window-height="697"
     inkscape:window-x="0"
     inkscape:window-y="0"
     inkscape:window-maximized="1"
     inkscape:current-layer="layer1" />
  <defs
     id="defs1" />
  <g
     inkscape:label="Camada 1"
     inkscape:groupmode="layer"
     id="layer1">
    <rect
       style="fill:#2cb2ff;fill-opacity:1;stroke:#004770;stroke-width:0.795337;stroke-opacity:1"
       id="rect1"
       width="25.349998"
       height="25.574999"
       x="0.52499998"
       y="0.375"
       ry="0" />
    <ellipse
       style="fill:#0076bb;fill-opacity:1;stroke:#004770;stroke-width:1.61417;stroke-dasharray:none;stroke-opacity:1"
       id="ellipse8"
       cx="17.60755"
       cy="9.2290354"
       rx="7.9181838"
       ry="8.0041676" />
    <ellipse
       style="fill:#0076bb;fill-opacity:1;stroke:#004770;stroke-width:1.30676;stroke-dasharray:none;stroke-opacity:1"
       id="ellipse7"
       cx="19.032549"
       cy="7.5415354"
       rx="6.5718904"
       ry="6.320374" />
    <ellipse
       style="fill:#0076bb;fill-opacity:1;stroke:#004770;stroke-width:0.92022081;stroke-opacity:1;stroke-dasharray:none"
       id="ellipse6"
       cx="20.79505"
       cy="5.779036"
       rx="4.627655"
       ry="4.4511385" />
    <path
       id="ellipse5"
       style="fill:#002f4a;stroke-width:2.07471"
       d="m 25.680374,19.912731 c 0,3.741236 -3.127845,6.774107 -6.986238,6.774107 -3.858393,0 -6.986239,-3.032871 -6.986239,-6.774107 0,-3.741236 5.567364,-5.395248 9.107559,-6.774106 3.595314,-1.400326 4.864918,3.032871 4.864918,6.774106 z"
       sodipodi:nodetypes="sssss" />
    <path
       id="ellipse4"
       style="fill:#002f4a;stroke-width:1.93476"
       d="m 16.028368,17.206886 c -3.67564,1.173401 -2.534254,6.986239 -5.660414,6.986239 -3.1261598,0 -5.660413,-3.127846 -5.660413,-6.986239 0,-3.858393 1.049329,-7.039272 4.1754888,-7.039272 3.1261602,0 13.0850352,5.1431 7.1453382,7.039272 z"
       sodipodi:nodetypes="sssss" />
    <path
       id="ellipse3"
       style="fill:#002f4a;stroke-width:1.68766"
       d="m 9.4522741,21.103649 c -1e-7,2.93578 -2.5342534,5.315699 -5.6604133,5.315699 -3.12615986,0 -5.6604131,-2.37992 -5.6604132,-5.315699 1e-7,-2.935779 1.18269005,-7.173637 4.175489,-6.270293 3.3382919,1.007627 7.1453374,3.334513 7.1453375,6.270293 z"
       sodipodi:nodetypes="sssss" />
    <rect
       style="fill:#004770;fill-opacity:1;stroke:#004770;stroke-width:0.689899;stroke-opacity:1"
       id="rect2"
       width="24.579611"
       height="6.930438"
       x="0.76474321"
       y="19.14728"
       ry="1.1846902" />
    <ellipse
       style="fill:#0076bb;fill-opacity:1;stroke:#004770;stroke-width:0.816621;stroke-opacity:1"
       id="path3"
       cx="21.77005"
       cy="4.8790364"
       rx="2.6675246"
       ry="2.6410081" />
  </g>
</svg>
