<?xml version="1.0" encoding="UTF-8" standalone="no"?>
<!-- Created with Inkscape (http://www.inkscape.org/) -->

<svg
   width="300"
   height="300"
   viewBox="0 0 79.374999 79.374999"
   version="1.1"
   id="svg1"
   inkscape:version="1.4.2 (ebf0e940d0, 2025-05-08)"
   sodipodi:docname="MirrorRoom-capa.svg"
   xml:space="preserve"
   xmlns:inkscape="http://www.inkscape.org/namespaces/inkscape"
   xmlns:sodipodi="http://sodipodi.sourceforge.net/DTD/sodipodi-0.dtd"
   xmlns="http://www.w3.org/2000/svg"
   xmlns:svg="http://www.w3.org/2000/svg"><sodipodi:namedview
     id="namedview1"
     pagecolor="#505050"
     bordercolor="#eeeeee"
     borderopacity="1"
     inkscape:showpageshadow="0"
     inkscape:pageopacity="0"
     inkscape:pagecheckerboard="0"
     inkscape:deskcolor="#505050"
     inkscape:document-units="px"
     inkscape:zoom="1.2472578"
     inkscape:cx="322.70795"
     inkscape:cy="131.88933"
     inkscape:window-width="1366"
     inkscape:window-height="697"
     inkscape:window-x="0"
     inkscape:window-y="0"
     inkscape:window-maximized="1"
     inkscape:current-layer="layer1" /><defs
     id="defs1"><linearGradient
       id="linearGradient13895"
       inkscape:swatch="solid"><stop
         style="stop-color:#000000;stop-opacity:1;"
         offset="0"
         id="stop13893" /></linearGradient><filter
       style="color-interpolation-filters:sRGB;"
       inkscape:label="Clean Edges"
       id="filter14269"
       x="-0.31154084"
       y="-0.29580634"
       width="1.6230817"
       height="1.5916127"><feGaussianBlur
         stdDeviation="0.204612"
         result="blur"
         id="feGaussianBlur14263" /><feComposite
         in="SourceGraphic"
         in2="blur"
         operator="in"
         result="composite1"
         id="feComposite14265" /><feComposite
         in="composite1"
         in2="composite1"
         operator="in"
         result="composite2"
         id="feComposite14267" /></filter><filter
       inkscape:label="Opacity"
       style="color-interpolation-filters:sRGB;"
       id="filter104"
       x="-0.10754719"
       y="-0.1129678"
       width="1.2150944"
       height="1.2252992"><feColorMatrix
         values="1 0 0 0 0 0 1 0 0 0 0 0 1 0 0 0 0 0 5 -1 "
         result="colormatrix"
         id="feColorMatrix104" /><feComposite
         in2="colormatrix"
         operator="arithmetic"
         k2="0.496126"
         result="fbSourceGraphic"
         id="feComposite104" /><feColorMatrix
         result="fbSourceGraphicAlpha"
         in="fbSourceGraphic"
         values="0 0 0 -1 0 0 0 0 -1 0 0 0 0 -1 0 0 0 0 1 0"
         id="feColorMatrix105" /><feColorMatrix
         id="feColorMatrix106"
         values="1 0 0 0 0 0 1 0 0 0 0 0 1 0 0 0 0 0 5 -1 "
         result="colormatrix"
         in="fbSourceGraphic" /><feComposite
         id="feComposite106"
         in2="colormatrix"
         operator="arithmetic"
         k2="0.600916"
         result="composite" /></filter></defs><g
     inkscape:label="Camada 1"
     inkscape:groupmode="layer"
     id="layer1"><path
       id="rect8"
       style="fill:#c88a00;fill-opacity:1;stroke:#332300;stroke-width:2.73848;stroke-opacity:1"
       d="M 52.115125,27.277933 70.018416,27.029317 101.17496,77.732268 80.840847,77.512823 Z"
       sodipodi:nodetypes="ccccc" /><path
       id="path8"
       style="fill:#332300;fill-opacity:1;stroke:none;stroke-width:2.73848"
       d="M 42.820624,14.17224 60.723915,13.923624 99.013672,76.293222 71.546345,63.248739 Z"
       sodipodi:nodetypes="ccccc" /><path
       id="rect2"
       style="fill:#c88a00;fill-opacity:1;stroke:#332300;stroke-width:2.91376;stroke-dasharray:none;stroke-opacity:1"
       d="m 33.742102,3.5761298 c -1.82446,0 -3.293256,1.1458805 -3.293256,2.5692323 v 1.578493 c -1.202671,0.379557 -2.046799,1.2974066 -2.046799,2.3749079 v 3.416219 c -1.6746,1.046807 -2.743527,2.656803 -2.743527,4.46868 v 45.442999 c 0,1.405119 0.642837,2.688846 1.712471,3.682619 v 4.031847 c 0,1.097011 0.876048,2.028547 2.114176,2.394022 v 1.555794 c 0,1.422125 1.467306,2.566844 3.290191,2.566844 h 34.377057 c 1.822886,0 3.290704,-1.144719 3.290704,-2.566844 v -1.555794 c 1.238128,-0.365475 2.113666,-1.297011 2.113666,-2.394022 V 67.62456 c 1.441515,-1.043426 2.341314,-2.535721 2.341314,-4.197899 V 17.983662 c 0,-1.811877 -1.068927,-3.421873 -2.743529,-4.46868 v -3.416219 c 0,-1.0775013 -0.844127,-1.9953509 -2.0468,-2.3749079 v -1.578493 c 0,-1.4233518 -1.468796,-2.5692323 -3.293255,-2.5692323 z" /><rect
       style="fill:#55c4c4;fill-opacity:1;stroke:#332300;stroke-width:1.12771;stroke-opacity:1"
       id="rect1"
       width="36.270267"
       height="50.80619"
       x="31.713408"
       y="15.716921" /><path
       id="rect7"
       style="fill:#ffffff;stroke-width:3.01315"
       d="M 33.910242,34.267263 49.841046,16.832941 48.891174,21.12129 38.308169,32.470826 Z"
       sodipodi:nodetypes="ccccc" /><path
       id="path7"
       style="fill:#ffffff;stroke-width:2.35466"
       d="M 33.667161,30.171733 45.951737,16.36488 45.219271,19.760975 37.058494,28.749073 Z"
       sodipodi:nodetypes="ccccc" /><path
       id="path3-1"
       style="fill:#5728ff;fill-opacity:1;stroke:#3202da;stroke-width:0.825172;stroke-dasharray:none;stroke-opacity:1;filter:url(#filter104)"
       d="m 16.935158,13.920601 c -0.128168,0.08056 -0.244253,0.190328 -0.339478,0.328176 l -0.182766,0.265059 c -0.380898,0.551392 -0.282515,1.336032 0.220718,1.759396 l 4.304036,3.620853 2.5e-4,4.44e-4 c 0.127802,0.226748 0.327025,0.409686 0.581201,0.509018 l 0.288568,0.113056 c 0.600683,0.234762 1.272826,-0.09071 1.506951,-0.7296 l 2.154627,-5.879283 c 0.234125,-0.638895 -0.06146,-1.342344 -0.662142,-1.577106 l -0.288318,-0.112609 c -0.600684,-0.234762 -1.272828,0.0907 -1.506951,0.729599 L 21.57637,16.86511 18.191823,14.017515 c -0.377424,-0.317523 -0.872196,-0.338674 -1.256663,-0.09691 z"
       transform="matrix(1.9249433,-0.10953905,0.10199781,1.9103116,22.985097,10.44087)" /><path
       id="rect1-2"
       style="fill:#5728ff;fill-opacity:1;stroke:#3202da;stroke-width:0.754619;stroke-dasharray:none;stroke-opacity:1;filter:url(#filter104)"
       d="m 1.8352566,14.154542 c -0.1377834,0.05101 -0.2693708,0.128327 -0.386128,0.232212 l -0.2241851,0.199794 c -0.46703165,0.415531 -0.51740183,1.092671 -0.1128381,1.518359 l 3.4601539,3.640732 1.561e-4,4.08e-4 c 0.080752,0.208999 0.2380886,0.390496 0.4635451,0.508618 l 0.2559138,0.134338 c 0.5328185,0.279153 1.2375097,0.09382 1.5799074,-0.41543 l 3.1509833,-4.68624 c 0.342398,-0.509251 0.188656,-1.144116 -0.3441621,-1.423269 L 9.422846,13.730135 C 8.8900275,13.450983 8.1853361,13.636313 7.842938,14.145563 L 5.7435521,17.268143 3.0226558,14.404959 C 2.7192335,14.085694 2.2485962,14.00149 1.8352566,14.154542 Z"
       transform="matrix(1.8406365,0.59189777,-0.55114845,1.8266457,34.483949,4.6609043)" /><path
       id="rect3-7"
       style="fill:#5728ff;fill-opacity:1;stroke:#3202da;stroke-width:0.858109;stroke-opacity:1;filter:url(#filter104)"
       d="m 9.966452,13.479713 c 1.775452,1.807541 4.489077,1.562421 6.828351,0.212618 0.943918,-0.544659 1.634694,0.431956 1.620871,1.148104 -0.06833,3.541274 -1.03265,6.66787 0.662392,10.583828 0.422768,0.976697 -4.327577,-1.554699 -4.268669,-1.174256 0.403884,2.6084 -0.103544,3.373931 -3.44511,-0.05559 -0.04311,-0.04424 -2.4545481,3.546057 -2.6353256,2.009862 C 8.3079168,22.626368 8.13538,18.229463 8.16215,14.635384 c 0.00534,-0.71625 1.0499286,-1.923688 1.8043017,-1.15568 z"
       sodipodi:nodetypes="ssssssssss"
       transform="matrix(1.9249433,-0.10953905,0.10199781,1.9103116,22.985097,10.44087)" /><ellipse
       style="fill:#5728ff;fill-opacity:1;stroke:#3202da;stroke-width:0.803626;stroke-dasharray:none;stroke-opacity:1;filter:url(#filter104)"
       id="path1-0"
       cx="13.12567"
       cy="6.7863402"
       rx="6.3740468"
       ry="6.2395792"
       transform="matrix(1.9249433,-0.10953905,0.10199781,1.9103116,22.985097,10.44087)" /><path
       id="ellipse3"
       style="fill:#ffffff;stroke:#3202da;stroke-width:0.56063;stroke-opacity:1;filter:url(#filter104)"
       transform="matrix(1.7047012,-0.9260217,-0.88247463,-1.6842972,26.967352,38.956173)"
       d="m 13.776252,4.5124869 c 0,1.593731 -1.135471,2.679625 -2.358187,2.679625 -1.222716,-2e-7 -2.0696587,-1.0858941 -2.0696587,-2.679625 0,-1.5937308 0.9912067,-2.885705 2.2139227,-2.8857052 1.222716,0 2.213923,1.2919742 2.213923,2.8857052 z"
       sodipodi:nodetypes="sssss" /><path
       id="ellipse1-9"
       style="fill:#ffffff;stroke:#3202da;stroke-width:0.56063;stroke-opacity:1;filter:url(#filter104)"
       transform="matrix(-1.9944,-0.73705784,0.79333396,-1.7586926,17.956233,24.418747)"
       d="m -12.291213,8.3750229 c 0,1.5937309 -1.19661,2.6507741 -2.419326,2.6507741 -1.222716,0 -2.00852,-1.0570432 -2.00852,-2.6507741 0,-1.593731 0.991207,-2.8857052 2.213923,-2.8857052 1.222716,0 2.213923,1.2919742 2.213923,2.8857052 z"
       sodipodi:nodetypes="sssss" /><path
       id="path2-3"
       style="fill:#ffffff;stroke:#3202da;stroke-width:0.333402;stroke-opacity:1;filter:url(#filter104)"
       d="m 15.411295,10.927727 c 0.105771,0.612903 -1.028127,1.093782 -2.217595,1.143417 -1.170141,0.04883 -2.154626,-0.624561 -1.928776,-1.201239 0.22585,-0.576678 0.722364,-0.09666 1.891748,-0.03111 1.169385,0.06556 2.136643,-0.594722 2.254623,0.08893 z"
       sodipodi:nodetypes="sssss"
       transform="matrix(1.9249433,-0.10953905,0.10199781,1.9103116,22.985097,10.44087)" /><path
       sodipodi:type="star"
       style="fill:#ff2828;fill-opacity:1;stroke:#570000;stroke-width:0.497681;stroke-opacity:1;filter:url(#filter104)"
       id="path5-6"
       inkscape:flatsided="true"
       sodipodi:sides="3"
       sodipodi:cx="8.9624996"
       sodipodi:cy="15"
       sodipodi:r1="3.0837908"
       sodipodi:r2="1.5418954"
       sodipodi:arg1="0.58631626"
       sodipodi:arg2="1.6335138"
       inkscape:rounded="0"
       inkscape:randomized="0"
       d="M 11.53125,16.70625 6.2004688,16.371478 9.1557804,11.922272 Z"
       inkscape:transform-center-x="-0.58161334"
       inkscape:transform-center-y="-0.03194566"
       transform="matrix(0.14984961,1.6881169,-1.5092009,0.15265281,67.268919,22.331929)" /><path
       sodipodi:type="star"
       style="fill:#ff2828;fill-opacity:1;stroke:#570000;stroke-width:0.497681;stroke-opacity:1;filter:url(#filter104)"
       id="path6"
       inkscape:flatsided="true"
       sodipodi:sides="3"
       sodipodi:cx="8.9624996"
       sodipodi:cy="15"
       sodipodi:r1="3.0837908"
       sodipodi:r2="1.5418954"
       sodipodi:arg1="0.58631626"
       sodipodi:arg2="1.6335138"
       inkscape:rounded="0"
       inkscape:randomized="0"
       d="M 11.53125,16.70625 6.2004688,16.371478 9.1557804,11.922272 Z"
       inkscape:transform-center-x="0.45292099"
       inkscape:transform-center-y="-0.15866984"
       transform="matrix(0.20935368,1.6816137,1.5066111,-0.17694856,30.07319,26.558871)" /><ellipse
       style="fill:#ff2828;fill-opacity:1;stroke:#570000;stroke-width:0.529539;stroke-opacity:1;filter:url(#filter104)"
       id="path4-0"
       cx="13.228126"
       cy="16.293749"
       rx="1.2309457"
       ry="1.2028208"
       transform="matrix(1.9249433,-0.10953905,0.10199781,1.9103116,22.985097,10.44087)" /><ellipse
       style="fill:#3202da;fill-opacity:1;stroke:none;stroke-width:0.584553;stroke-opacity:1;filter:url(#filter104)"
       id="path7-6"
       cx="11.334375"
       cy="5.9906249"
       rx="1.1531249"
       ry="1.603125"
       transform="matrix(1.9249433,-0.10953905,0.10199781,1.9103116,19.901763,11.19087)" /><ellipse
       style="fill:#3202da;fill-opacity:1;stroke:none;stroke-width:0.584553;stroke-opacity:1;filter:url(#filter104)"
       id="ellipse7"
       cx="15.946876"
       cy="6.1031251"
       rx="1.1531249"
       ry="1.603125"
       transform="matrix(1.9249433,-0.10953905,0.10199781,1.9103116,20.435097,11.56587)" /><path
       id="path8-2"
       style="fill:#ffffff;stroke:none;stroke-width:0.13307;stroke-opacity:1;filter:url(#filter104)"
       d="m 11.17785,5.0104688 c -0.05905,0.3513565 -0.383221,0.5536622 -0.688971,0.51372 -0.305751,-0.039942 -0.477301,-0.3070071 -0.41825,-0.6583636 0.05905,-0.3513565 0.354782,-0.6038076 0.660533,-0.5638654 0.30575,0.039942 0.505739,0.3571525 0.446688,0.708509 z"
       sodipodi:nodetypes="sssss"
       transform="matrix(1.9249433,-0.10953905,0.10199781,1.9103116,22.460097,10.96587)" /><path
       id="path9"
       style="fill:#ffffff;stroke:none;stroke-width:0.13307;stroke-opacity:1;filter:url(#filter104)"
       d="m 16.09035,4.9729688 c -0.05905,0.3513565 -0.383221,0.5536622 -0.688971,0.51372 -0.305751,-0.039942 -0.477301,-0.3070071 -0.41825,-0.6583636 0.05905,-0.3513565 0.354782,-0.6038076 0.660533,-0.5638654 0.30575,0.039942 0.505739,0.3571525 0.446688,0.708509 z"
       sodipodi:nodetypes="sssss"
       transform="matrix(1.9249433,-0.10953905,0.10199781,1.9103116,22.760097,11.26587)" /><path
       style="fill:#3202da;fill-opacity:1;stroke:none;stroke-width:0.66326;stroke-opacity:1;filter:url(#filter104)"
       d="m 8.7439339,19.275095 -0.0375,5.461485 2.0812501,-2.064708 1.33125,0.799242 0.825,0.865845 1.9875,-1.598483 -2.0625,0.499526 -0.54375,-0.699337 -1.44375,-0.899147 -1.6500001,1.598484 z"
       id="path10"
       transform="matrix(1.9123648,-0.24549175,0.23693394,1.8983035,21.17224,12.205847)" /><g
       id="g66"
       transform="translate(42.002142,3.1819805)"><rect
         style="fill:#002766;fill-opacity:1;stroke:#090042;stroke-width:1.36093;stroke-opacity:1"
         id="rect2199"
         width="7.1023636"
         height="16.950148"
         x="-45.011265"
         y="58.519882"
         ry="2.9825618" /><rect
         style="fill:#002766;fill-opacity:1;stroke:#090042;stroke-width:1.37667;stroke-opacity:1"
         id="rect2303"
         width="7.4275317"
         height="16.585121"
         x="-36.960106"
         y="58.672417"
         ry="2.9183316" /><path
         id="path15"
         style="fill:#ffffff;fill-opacity:1;stroke:#191414;stroke-width:1.10013;stroke-dasharray:none"
         d="m -21.041777,17.217002 2.883102,-4.26351 3.171405,13.697662 -2.59479,2.812103 z"
         sodipodi:nodetypes="ccccc" /><path
         id="path11551"
         style="fill:#002766;fill-opacity:1;stroke:#090042;stroke-width:1.80467;stroke-miterlimit:4;stroke-dasharray:none;stroke-opacity:1"
         d="m -9.5181127,43.690765 c -0.284044,1.045879 -0.8575313,1.868403 -1.5310373,2.070853 l -9.277397,2.788623 c -0.157211,0.04727 -0.310765,0.05777 -0.456692,0.03524 -0.214958,0.108512 -0.434073,0.161356 -0.650004,0.14357 l -9.181828,-0.75576 c -0.969345,-0.07979 -1.481702,-1.511625 -1.150018,-3.209034 l 0.249464,-1.284609 c 0.331675,-1.697411 1.380495,-2.998962 2.349839,-2.919154 l 8.443527,0.695186 c 0.09155,-0.05302 0.184721,-0.09481 0.280988,-0.123705 l 9.279542,-2.790334 c 0.979636,-0.294459 1.7889123,0.837534 1.8148313,2.536323 l 0.02009,1.285969 c 0.0081,0.530874 -0.06224,1.051459 -0.191419,1.526842 z" /><rect
         style="fill:#ffffff;stroke:#191414;stroke-width:1.3603;stroke-miterlimit:4;stroke-dasharray:none;stroke-opacity:1"
         id="rect2963"
         width="4.7859249"
         height="46.064415"
         x="-16.056274"
         y="29.051823"
         ry="1.4512379" /><path
         id="path13"
         style="fill:#002766;fill-opacity:1;stroke-width:1.37517"
         d="m -46.71347,50.404726 1.896651,-4.421825 -0.513507,-5.192894 -4.763789,10.433661 z"
         sodipodi:nodetypes="ccccc" /><path
         id="rect9738"
         style="fill:#313131;fill-opacity:1;stroke:#000000;stroke-width:1.32403;stroke-miterlimit:4;stroke-dasharray:none;stroke-opacity:1"
         d="m -45.124789,40.538211 -1.169047,30.066767 4.475827,3.146109 4.713667,-4.626782 3.604056,4.626782 5.39177,-4.361651 -1.039152,-28.851225 z"
         sodipodi:nodetypes="cccccccc" /><path
         id="path2"
         style="fill:#1f1f1f;fill-opacity:1;stroke:none;stroke-width:1.25183;stroke-dasharray:none;stroke-opacity:1"
         d="m -42.727946,47.525109 5.569755,-0.83555 4.439161,19.019145 -9.348976,1.328775 z"
         sodipodi:nodetypes="ccccc" /><path
         id="path34"
         style="fill:#1f1f1f;fill-opacity:1;stroke:none;stroke-width:1.01808;stroke-dasharray:none;stroke-opacity:1"
         d="m -45.594519,70.253202 1.948697,1.489276 3.255794,-29.198278 -4.280631,-0.286467 z"
         sodipodi:nodetypes="ccccc" /><g
         id="g15"
         transform="matrix(2.3711703,-0.33905889,0.31602488,2.5439971,-68.875,11.372645)"><path
           id="rect2-6"
           style="fill:#800000;fill-opacity:1;stroke:#330000;stroke-width:0.428;stroke-dasharray:none;stroke-opacity:1"
           d="m 9.4570037,14.797702 h 1.7663953 l 0.652207,7.255805 -2.9621083,-0.02717 z"
           sodipodi:nodetypes="ccccc" /><path
           id="path35"
           style="fill:#ff0000;fill-opacity:1;stroke:none;stroke-width:0.428;stroke-dasharray:none;stroke-opacity:1"
           d="m 9.7068097,14.095592 0.7095243,-0.01922 0.0373,6.083639 -1.2903304,1.164212 z"
           sodipodi:nodetypes="ccccc" /></g><path
         id="ellipse1"
         style="fill:#ff0000;stroke:#4e0600;stroke-width:0.924473"
         d="m -29.104047,43.422222 c -0.621477,2.867591 -3.340543,4.941932 -8.05258,4.941932 -4.712031,0 -7.271538,-2.517764 -7.946062,-5.378682 -1.171648,-4.969417 3.234033,-5.140453 7.946062,-5.140453 4.712037,0 9.22423,0.171031 8.05258,5.577203 z"
         sodipodi:nodetypes="sssss" /><ellipse
         style="fill:#002766;fill-opacity:1;stroke:#090042;stroke-width:0.775994;stroke-miterlimit:4;stroke-dasharray:none;stroke-opacity:1"
         id="path11105"
         cx="-36.992634"
         cy="40.004005"
         rx="5.899796"
         ry="5.3589954" /><ellipse
         style="fill:#0053ce;fill-opacity:1;stroke:none;stroke-width:0.616405;stroke-miterlimit:4;stroke-dasharray:none;stroke-opacity:1"
         id="ellipse2"
         cx="-36.371407"
         cy="39.680241"
         rx="4.9153504"
         ry="4.0586896" /><ellipse
         style="fill:#002766;fill-opacity:1;stroke:#090042;stroke-width:1.64823;stroke-miterlimit:4;stroke-dasharray:none;stroke-opacity:1"
         id="path9279"
         cx="-36.658794"
         cy="25.271225"
         rx="13.841384"
         ry="14.68413" /><ellipse
         style="fill:#0053ce;fill-opacity:1;stroke:none;stroke-width:0.682909;stroke-miterlimit:4;stroke-dasharray:none;stroke-opacity:1"
         id="ellipse9379"
         cx="-35.201916"
         cy="23.780285"
         rx="10.956475"
         ry="11.893105" /><path
         id="path9421"
         style="fill:#ffffff;fill-opacity:1;stroke:#002865;stroke-width:1.17447;stroke-miterlimit:4;stroke-dasharray:none;stroke-opacity:1"
         d="m -43.070148,22.012808 c -0.451402,0.998348 -0.767243,2.470821 -0.767255,3.670056 2.01e-4,3.35921 1.850326,6.082242 4.13252,6.082282 2.282194,-3.9e-5 4.13232,-2.723072 4.132521,-6.082282 -1.2e-5,-1.199235 -0.240854,-2.371708 -0.692256,-3.370056 -2.685889,-4.185375 -4.704548,-2.353631 -6.80553,-0.3 z"
         sodipodi:nodetypes="cccccc" /><path
         id="path3"
         style="fill:#ffffff;fill-opacity:1;stroke:#002865;stroke-width:1.17447;stroke-miterlimit:4;stroke-dasharray:none;stroke-opacity:1"
         d="m -33.262258,22.115539 c -0.451402,0.998348 -0.692244,2.170821 -0.692256,3.370056 2.01e-4,3.359209 1.850326,6.082241 4.13252,6.082281 2.282194,-4e-5 4.132319,-2.723072 4.13252,-6.082281 -1.2e-5,-1.199235 -0.240854,-2.371708 -0.692256,-3.370056 -2.113725,-2.696765 -4.36763,-3.290832 -6.880528,0 z"
         sodipodi:nodetypes="cccccc" /><path
         id="path7-7"
         style="fill:#ffffff;fill-opacity:1;stroke:#191414;stroke-width:1.10013;stroke-dasharray:none"
         d="m -5.7005247,16.921098 -2.883102,-4.26351 -3.1714043,13.697662 2.5947893,2.812103 z"
         sodipodi:nodetypes="ccccc" /><g
         id="g6"
         transform="matrix(-4.2825609,0,0,-4.4460925,111.17179,63.413505)"
         style="stroke-width:0.283917;stroke-dasharray:none"><rect
           style="fill:#ffffff;stroke:#191414;stroke-width:0.283917;stroke-miterlimit:4;stroke-dasharray:none;stroke-opacity:1"
           id="rect5"
           width="2.418293"
           height="0.53468895"
           x="27.855507"
           y="7.3858442"
           ry="0.25027269" /><rect
           style="fill:#ffffff;stroke:#191414;stroke-width:0.283917;stroke-miterlimit:4;stroke-dasharray:none;stroke-opacity:1"
           id="rect6"
           width="2.895308"
           height="0.70425063"
           x="27.631411"
           y="7.8246946"
           ry="0.3296397" /></g><g
         id="g22"
         transform="matrix(4.2783204,0.19780474,-0.19052925,4.44169,-136.57462,22.489237)"><path
           id="path17"
           style="fill:#861414;fill-opacity:1;stroke:#191414;stroke-width:0.192"
           d="m 29.179479,1.3621619 c 0,0.1894821 -0.12582,0.6505412 -0.328434,0.6505415 -0.202615,2e-7 -0.405299,-0.461059 -0.405299,-0.6505415 0,-0.1894825 0.164252,-0.3430884 0.366867,-0.3430882 0.202615,3e-7 0.366866,0.153606 0.366866,0.3430882 z"
           sodipodi:nodetypes="sssss" /><path
           id="path18"
           style="fill:#4d4d4d;stroke:#191414;stroke-width:0.192"
           d="m 28.357427,0.89338797 c 0,0.18948213 0.220065,0.48720663 0.01745,0.48720693 -0.202615,2e-7 -0.751184,-0.2977244 -0.751184,-0.48720693 0,-0.18948251 0.164252,-0.34308838 0.366867,-0.34308815 0.202615,2.9e-7 0.366866,0.153606 0.366867,0.34308815 z"
           sodipodi:nodetypes="sssss" /><path
           id="path19"
           style="fill:#4d4d4d;stroke:#191414;stroke-width:0.192"
           d="m 29.960769,0.80506825 c 0,0.18948215 -0.471705,0.48720665 -0.674319,0.48720695 -0.202615,2e-7 -0.05941,-0.29772444 -0.05941,-0.48720695 0,-0.18948251 0.164252,-0.34308838 0.366867,-0.34308815 0.202615,2.9e-7 0.366866,0.153606 0.366866,0.34308815 z"
           sodipodi:nodetypes="sssss" /><path
           id="path20"
           style="fill:#df2e2e;fill-opacity:1;stroke:none;stroke-width:0.0965249"
           d="m 29.044968,1.3211899 c 0,0.097872 -0.06157,0.3360203 -0.160706,0.3360204 -0.09914,1e-7 -0.198318,-0.2381481 -0.198318,-0.3360204 0,-0.097872 0.08037,-0.1772134 0.179512,-0.1772133 0.09915,2e-7 0.179512,0.079341 0.179512,0.1772133 z"
           sodipodi:nodetypes="sssss" /><path
           id="path21"
           style="fill:#7f7f7f;fill-opacity:1;stroke:none;stroke-width:0.0784491"
           d="m 28.149614,0.69865723 c 0.05242,0.0598357 0.142334,0.23840606 0.08174,0.29149337 -0.0606,0.053093 -0.248779,-0.0393931 -0.301199,-0.099229 -0.05242,-0.0598357 -0.04579,-0.15137913 0.01482,-0.2044742 0.06061,-0.053099 0.152226,-0.0476261 0.204647,0.0122098 z"
           sodipodi:nodetypes="sssss" /><path
           id="path22"
           style="fill:#7f7f7f;fill-opacity:1;stroke:none;stroke-width:0.0784491"
           d="m 29.428341,0.62179387 c -0.05242,0.0598357 -0.142334,0.23840606 -0.08174,0.29149337 0.0606,0.053093 0.248779,-0.0393931 0.301199,-0.099229 0.05242,-0.0598357 0.04579,-0.15137913 -0.01482,-0.2044742 -0.06061,-0.053099 -0.152226,-0.0476261 -0.204647,0.0122098 z"
           sodipodi:nodetypes="sssss" /></g><rect
         style="fill:#ffffff;stroke:#191414;stroke-width:1.04315;stroke-miterlimit:4;stroke-dasharray:none;stroke-opacity:1"
         id="rect4"
         width="10.166006"
         height="2.4065499"
         x="-18.740631"
         y="67.322975"
         ry="1.1264377" /><rect
         style="fill:#ffffff;stroke:#191414;stroke-width:1.18438;stroke-miterlimit:4;stroke-dasharray:none;stroke-opacity:1"
         id="rect3"
         width="12.171279"
         height="3.1697204"
         x="-19.682688"
         y="69.298172"
         ry="1.483656" /><g
         id="g28"
         transform="matrix(4.1996318,-0.20024044,-0.18702497,-4.4963845,-134.50736,75.164351)"><path
           id="path23"
           style="fill:#861414;fill-opacity:1;stroke:#191414;stroke-width:0.192"
           d="m 29.179479,1.3621619 c 0,0.1894821 -0.12582,0.6505412 -0.328434,0.6505415 -0.202615,2e-7 -0.405299,-0.461059 -0.405299,-0.6505415 0,-0.1894825 0.164252,-0.3430884 0.366867,-0.3430882 0.202615,3e-7 0.366866,0.153606 0.366866,0.3430882 z"
           sodipodi:nodetypes="sssss" /><path
           id="path24"
           style="fill:#4d4d4d;stroke:#191414;stroke-width:0.192"
           d="m 28.357427,0.89338797 c 0,0.18948213 0.220065,0.48720663 0.01745,0.48720693 -0.202615,2e-7 -0.751184,-0.2977244 -0.751184,-0.48720693 0,-0.18948251 0.164252,-0.34308838 0.366867,-0.34308815 0.202615,2.9e-7 0.366866,0.153606 0.366867,0.34308815 z"
           sodipodi:nodetypes="sssss" /><path
           id="path25"
           style="fill:#4d4d4d;stroke:#191414;stroke-width:0.192"
           d="m 29.960769,0.80506825 c 0,0.18948215 -0.471705,0.48720665 -0.674319,0.48720695 -0.202615,2e-7 -0.05941,-0.29772444 -0.05941,-0.48720695 0,-0.18948251 0.164252,-0.34308838 0.366867,-0.34308815 0.202615,2.9e-7 0.366866,0.153606 0.366866,0.34308815 z"
           sodipodi:nodetypes="sssss" /><path
           id="path26"
           style="fill:#df2e2e;fill-opacity:1;stroke:none;stroke-width:0.0965249"
           d="m 29.044968,1.3211899 c 0,0.097872 -0.06157,0.3360203 -0.160706,0.3360204 -0.09914,1e-7 -0.198318,-0.2381481 -0.198318,-0.3360204 0,-0.097872 0.08037,-0.1772134 0.179512,-0.1772133 0.09915,2e-7 0.179512,0.079341 0.179512,0.1772133 z"
           sodipodi:nodetypes="sssss" /><path
           id="path27"
           style="fill:#7f7f7f;fill-opacity:1;stroke:none;stroke-width:0.0784491"
           d="m 28.149614,0.69865723 c 0.05242,0.0598357 0.142334,0.23840606 0.08174,0.29149337 -0.0606,0.053093 -0.248779,-0.0393931 -0.301199,-0.099229 -0.05242,-0.0598357 -0.04579,-0.15137913 0.01482,-0.2044742 0.06061,-0.053099 0.152226,-0.0476261 0.204647,0.0122098 z"
           sodipodi:nodetypes="sssss" /><path
           id="path28"
           style="fill:#7f7f7f;fill-opacity:1;stroke:none;stroke-width:0.0784491"
           d="m 29.428341,0.62179387 c -0.05242,0.0598357 -0.142334,0.23840606 -0.08174,0.29149337 0.0606,0.053093 0.248779,-0.0393931 0.301199,-0.099229 0.05242,-0.0598357 0.04579,-0.15137913 -0.01482,-0.2044742 -0.06061,-0.053099 -0.152226,-0.0476261 -0.204647,0.0122098 z"
           sodipodi:nodetypes="sssss" /></g><path
         d="m -21.189106,42.147697 c 1.816393,-0.09578 1.33621,-0.188098 1.363791,-0.201957 l 1.659275,-0.400237 c 0.441435,-0.221539 1.29954,-0.646083 1.58121,-0.419637 l 0.654845,0.754857 c 0.281667,0.226442 0.685519,0.937113 0.296436,1.225046 l -1.217686,0.239171 c -0.917313,0.517656 -1.537066,0.512423 -3.062965,0.826703 -0.282973,-0.196567 -8.639399,-2.382546 -8.28481,-2.714242 z"
         style="fill:#0053ce;fill-opacity:1;stroke:none;stroke-width:0.669442"
         id="path1"
         sodipodi:nodetypes="cccccccccc" /><path
         d="m -9.8290977,38.546372 c -0.06648,-0.0024 -0.128266,0.0082 -0.1854383,0.03316 l -3.484767,1.525213 c -0.914486,0.400124 -2.681773,1.192143 -2.636753,2.303734 l 0.131041,3.220188 c 0.04502,1.111589 0.600609,3.37435 1.564994,3.237428 l 5.0126733,-0.71088 c 0.964388,-0.136923 2.512419,-2.112462 2.520552,-3.22682 l 0.01722,-2.336891 c 0.0077,-1.044712 -1.942384,-4.008468 -2.939613,-4.045128 z"
         style="fill:#002766;fill-opacity:1;stroke:#090042;stroke-width:1.68985;stroke-opacity:1"
         id="path32" /><path
         d="m -12.66224,41.077437 c 0.02368,-0.02182 0.04913,-0.04014 0.07672,-0.054 l 1.682259,-0.844094 c 0.441435,-0.22154 1.2995403,-0.646084 1.5812103,-0.419637 l 0.654845,0.754857 c 0.281667,0.226441 0.685519,0.937113 0.296436,1.225045 l -1.8612243,1.299485 c -0.389069,0.28794 -1.484484,0.415597 -1.786312,0.205935 l -0.633115,-0.439555 c -0.282973,-0.196568 -0.365353,-1.3962 -0.01076,-1.727896 z"
         style="fill:#0053ce;fill-opacity:1;stroke:none;stroke-width:0.669442"
         id="path33"
         sodipodi:nodetypes="ccccccccccc" /><path
         id="rect8-5"
         style="fill:#002766;fill-opacity:1;stroke-width:1.37517"
         d="m -46.465861,49.821671 -0.874877,2.447866 -1.007157,9.104587 -1.75791,-10.189582 z"
         sodipodi:nodetypes="ccccc" /><path
         id="path14"
         style="fill:#818181;fill-opacity:1;stroke:none;stroke-width:0.813751;stroke-miterlimit:4;stroke-dasharray:none;stroke-opacity:1"
         d="m -42.798391,22.881709 a 3.6192574,5.3544627 0 0 0 -0.60627,2.966527 3.6192574,5.3544627 0 0 0 3.619214,5.353992 3.6192574,5.3544627 0 0 0 2.941492,-2.235695 4.6684593,4.9115143 0 0 1 -1.389011,0.222986 4.6684593,4.9115143 0 0 1 -4.668274,-4.911522 4.6684593,4.9115143 0 0 1 0.192707,-1.396288 z" /><path
         id="path5"
         style="fill:#818181;fill-opacity:1;stroke:none;stroke-width:0.813751;stroke-miterlimit:4;stroke-dasharray:none;stroke-opacity:1"
         d="m -32.917319,22.672474 a 3.6192574,5.3544627 0 0 0 -0.606271,2.966527 3.6192574,5.3544627 0 0 0 3.619213,5.353991 3.6192574,5.3544627 0 0 0 2.941491,-2.235694 4.6684593,4.9115143 0 0 1 -1.389011,0.222987 4.6684593,4.9115143 0 0 1 -4.668272,-4.911523 4.6684593,4.9115143 0 0 1 0.19271,-1.396287 z" /><g
         id="g64"
         transform="translate(1.8000003,-2.7)"><ellipse
           style="fill:#002766;fill-opacity:1;stroke:none;stroke-width:2.87014"
           id="path4"
           cx="-40.255653"
           cy="28.647718"
           rx="2.5780509"
           ry="3.6603935" /><path
           id="ellipse6"
           style="fill:#001c4a;fill-opacity:1;stroke:none;stroke-width:2.87014"
           d="m -41.782806,25.698509 a 2.5780509,3.6603933 0 0 0 -1.050472,2.949604 2.5780509,3.6603933 0 0 0 2.578214,3.660212 2.5780509,3.6603933 0 0 0 2.172895,-1.691611 2.5780509,3.6603933 0 0 1 -1.526543,0.710608 2.5780509,3.6603933 0 0 1 -2.578214,-3.660212 2.5780509,3.6603933 0 0 1 0.40412,-1.968601 z" /><ellipse
           style="fill:#ffffff;fill-opacity:1;stroke:none;stroke-width:1.13993"
           id="ellipse5"
           cx="-39.090744"
           cy="27.302437"
           rx="1.0405098"
           ry="1.4306028" /></g><g
         id="g65"
         transform="translate(11.50504,-2.859099)"><ellipse
           style="fill:#002766;fill-opacity:1;stroke:none;stroke-width:2.87014"
           id="ellipse64"
           cx="-40.255653"
           cy="28.647718"
           rx="2.5780509"
           ry="3.6603935" /><path
           id="path64"
           style="fill:#001c4a;fill-opacity:1;stroke:none;stroke-width:2.87014"
           d="m -41.782806,25.698509 a 2.5780509,3.6603933 0 0 0 -1.050472,2.949604 2.5780509,3.6603933 0 0 0 2.578214,3.660212 2.5780509,3.6603933 0 0 0 2.172895,-1.691611 2.5780509,3.6603933 0 0 1 -1.526543,0.710608 2.5780509,3.6603933 0 0 1 -2.578214,-3.660212 2.5780509,3.6603933 0 0 1 0.40412,-1.968601 z" /><ellipse
           style="fill:#ffffff;fill-opacity:1;stroke:none;stroke-width:1.13993"
           id="ellipse65"
           cx="-39.090744"
           cy="27.302437"
           rx="1.0405098"
           ry="1.4306028" /></g><path
         id="rect9714"
         style="fill:#0053ce;fill-opacity:1;stroke:#090042;stroke-width:1.74567;stroke-miterlimit:4;stroke-dasharray:none;stroke-opacity:1"
         d="m -52.800516,50.075649 c 0.747474,0.487772 1.613403,0.635951 2.250006,0.313543 l 8.769052,-4.441154 c 0.148608,-0.07526 0.275973,-0.171918 0.38077,-0.284961 0.225024,-0.07436 0.425689,-0.18772 0.588572,-0.344816 l 6.926306,-6.679514 c 0.731209,-0.705184 0.425011,-1.98078 -0.684914,-2.860048 l -0.838762,-0.666478 c -1.109917,-0.879276 -2.592901,-1.018005 -3.324113,-0.312824 l -6.369234,6.142595 c -0.09925,0.02727 -0.194214,0.0629 -0.285161,0.108951 l -8.771619,4.441499 c -0.925958,0.468948 -1.00535,1.749876 -0.179186,2.871062 l 0.624954,0.849118 c 0.258175,0.35038 0.57362,0.641206 0.913328,0.862995 z" /></g></g></svg>
