<?xml version="1.0" encoding="UTF-8" standalone="no"?>
<!-- Created with Inkscape (http://www.inkscape.org/) -->

<svg
   width="100"
   height="100"
   viewBox="0 0 26.458333 26.458333"
   version="1.1"
   id="svg1"
   inkscape:version="1.4.2 (ebf0e940d0, 2025-05-08)"
   sodipodi:docname="blue_ghost[0][1].svg"
   xml:space="preserve"
   xmlns:inkscape="http://www.inkscape.org/namespaces/inkscape"
   xmlns:sodipodi="http://sodipodi.sourceforge.net/DTD/sodipodi-0.dtd"
   xmlns="http://www.w3.org/2000/svg"
   xmlns:svg="http://www.w3.org/2000/svg"><sodipodi:namedview
     id="namedview1"
     pagecolor="#505050"
     bordercolor="#eeeeee"
     borderopacity="1"
     inkscape:showpageshadow="0"
     inkscape:pageopacity="0"
     inkscape:pagecheckerboard="0"
     inkscape:deskcolor="#505050"
     inkscape:document-units="px"
     inkscape:zoom="9.9780621"
     inkscape:cx="44.347288"
     inkscape:cy="42.042232"
     inkscape:window-width="1366"
     inkscape:window-height="697"
     inkscape:window-x="0"
     inkscape:window-y="0"
     inkscape:window-maximized="1"
     inkscape:current-layer="layer1" /><defs
     id="defs1"><linearGradient
       id="linearGradient13895"
       inkscape:swatch="solid"><stop
         style="stop-color:#000000;stop-opacity:1;"
         offset="0"
         id="stop13893" /></linearGradient><filter
       style="color-interpolation-filters:sRGB;"
       inkscape:label="Clean Edges"
       id="filter14269"
       x="-0.31154084"
       y="-0.29580634"
       width="1.6230817"
       height="1.5916127"><feGaussianBlur
         stdDeviation="0.204612"
         result="blur"
         id="feGaussianBlur14263" /><feComposite
         in="SourceGraphic"
         in2="blur"
         operator="in"
         result="composite1"
         id="feComposite14265" /><feComposite
         in="composite1"
         in2="composite1"
         operator="in"
         result="composite2"
         id="feComposite14267" /></filter><filter
       style="color-interpolation-filters:sRGB;"
       inkscape:label="Clean Edges"
       id="filter14269-3"
       x="-0.31154084"
       y="-0.29580634"
       width="1.6230817"
       height="1.5916127"><feGaussianBlur
         stdDeviation="0.204612"
         result="blur"
         id="feGaussianBlur14263-5" /><feComposite
         in="SourceGraphic"
         in2="blur"
         operator="in"
         result="composite1"
         id="feComposite14265-6" /><feComposite
         in="composite1"
         in2="composite1"
         operator="in"
         result="composite2"
         id="feComposite14267-2" /></filter></defs><g
     inkscape:label="Camada 1"
     inkscape:groupmode="layer"
     id="layer1"><path
       id="path3-1"
       style="fill:#24d8ff;fill-opacity:1;stroke:#00657c;stroke-width:0.73403;stroke-dasharray:none;stroke-opacity:1"
       d="m 24.117656,14.909895 c 0.206009,0.136494 0.33527,0.350733 0.474112,0.555277 0.925624,1.516048 -3.649547,4.203997 -4.667447,4.722866 l -0.263174,0.07603 c -0.547822,0.157765 -1.159211,-0.176482 -1.370743,-0.749286 l -1.946711,-5.271154 c -0.211533,-0.57281 0.05963,-1.16102 0.607463,-1.318786 l 0.262944,-0.07567 c 0.547822,-0.157765 1.159212,0.176481 1.370745,0.749284 l 1.326964,3.737211 3.060848,-2.438078 c 0.344673,-0.246776 0.795432,-0.227165 1.144999,0.01231 z"
       sodipodi:nodetypes="cccccccccccc" /><path
       id="rect1-2"
       style="fill:#24d8ff;fill-opacity:1;stroke:#00657c;stroke-width:0.754619;stroke-dasharray:none;stroke-opacity:1"
       d="m 3.0456494,10.594777 c -0.2470887,-0.07171 -0.4976169,-0.0311 -0.7477238,-0.0045 -1.78056616,0.278765 -0.5400164,5.67845 -0.2052374,6.827098 l 0.1297144,0.258289 c 0.2703843,0.53732 0.9510878,0.797286 1.5260764,0.582905 l 5.2913183,-1.972686 c 0.5749904,-0.214382 0.8199468,-0.819928 0.5495613,-1.35725 L 9.4595304,14.670773 C 9.1891451,14.133451 8.5084422,13.873486 7.9334541,14.087864 L 4.2196139,15.528499 3.8647693,11.490136 C 3.8041917,11.053874 3.4707561,10.711222 3.0456494,10.594777 Z"
       sodipodi:nodetypes="cccccccccccc" /><path
       id="rect3-7"
       style="fill:#24d8ff;fill-opacity:1;stroke:#00657c;stroke-width:1.02976;stroke-dasharray:none;stroke-opacity:1"
       d="m 9.3368837,14.190623 c 2.0225673,1.45888 4.6721263,0.81203 6.7889583,-0.834434 0.854161,-0.664363 1.68123,0.164677 1.772732,0.851696 0.452487,3.397228 3.005066,8.849438 1.803961,9.860414 -0.943548,0.794189 -3.802344,-2.202407 -3.790485,-1.831939 0.157685,4.925818 -2.752372,2.246601 -4.084551,0.188664 -0.03259,-0.05034 -0.45901,2.564022 -1.486665,1.814531 -1.0813092,-0.788618 -2.6092846,-5.408391 -2.6198555,-8.66944 -0.00225,-0.693567 0.7565339,-1.999367 1.6159038,-1.379501 z"
       sodipodi:nodetypes="ssssssssss" /><ellipse
       style="fill:#24d8ff;fill-opacity:1;stroke:#00657c;stroke-width:1.04166;stroke-dasharray:none;stroke-opacity:1"
       id="path1-0"
       cx="12.084306"
       cy="6.9442706"
       rx="6.3740468"
       ry="6.2395792" /><path
       id="path12-9"
       style="fill-opacity:0.220034;stroke-width:0.510212;stroke-linecap:round;stroke-linejoin:round"
       d="M 9.8329529,8.6890425 C 11.521352,11.270057 14.306016,12.271227 16.149283,10.925218 17.992551,9.5792102 18.588002,6.2636201 16.899603,3.6826044 15.211204,1.1015895 11.408416,0.41747754 9.5651474,1.7634869 7.7218795,3.109496 8.1445554,6.1080276 9.8329529,8.6890425 Z"
       sodipodi:nodetypes="sssss" /><path
       id="path40"
       style="fill:#00657c;fill-opacity:1;stroke:none;stroke-width:0.381484;stroke-linecap:round;stroke-linejoin:round"
       d="m 3.9740484,13.712682 c 0,0.454595 -0.5106536,0.823116 -1.1405759,0.823116 -0.6299235,0 -1.1405758,-0.368521 -1.1405771,-0.823116 0,-0.454594 0.4933598,-0.620169 1.1232833,-0.620169 0.6299223,0 1.1578697,0.165575 1.1578697,0.620169 z"
       sodipodi:nodetypes="sssss" /><path
       id="path38"
       style="fill:#24d8ff;fill-opacity:1;stroke:#00657c;stroke-width:0.8806;stroke-linecap:round;stroke-linejoin:round;stroke-opacity:1"
       d="m 4.8279489,10.682672 c 0.321595,1.229121 -0.359598,2.471964 -1.521487,2.775967 -1.16189,0.304004 -2.36449103,-0.44595 -2.68608613,-1.675072 -0.3215949,-1.22912 0.47127183,-1.9148936 1.63316113,-2.2188978 1.16189,-0.3040041 2.252817,-0.1111176 2.574412,1.1180028 z"
       sodipodi:nodetypes="sssss" /><path
       id="path39"
       style="fill:#24d8ff;fill-opacity:1;stroke:#00657c;stroke-width:0.821768;stroke-linecap:round;stroke-linejoin:round;stroke-opacity:1"
       d="m 24.807708,16.491244 c -1e-6,1.289027 -0.835671,2.333989 -1.866522,2.333989 -1.030851,0 -1.866521,-1.044962 -1.866521,-2.333989 -1e-6,-1.289027 0.807369,-1.758522 1.838221,-1.758522 1.030851,0 1.894822,0.469495 1.894822,1.758522 z"
       sodipodi:nodetypes="sssss" /><path
       id="path41"
       style="fill:#9eedff;fill-opacity:1;stroke:none;stroke-width:0.451149;stroke-linecap:round;stroke-linejoin:round"
       d="m 23.464783,16.485871 c 0,0.808591 -0.401523,1.464082 -0.896826,1.464082 -0.495304,0 -0.896826,-0.655491 -0.896827,-1.464082 0,-0.80859 0.387925,-1.103099 0.883229,-1.103099 0.495304,0 0.910424,0.294509 0.910424,1.103099 z"
       sodipodi:nodetypes="sssss" /><path
       id="ellipse3"
       style="fill:#ffffff;stroke:#00657c;stroke-width:0.540098;stroke-opacity:1"
       d="M 9.8925477,4.4860182 C 8.7940764,3.4400348 7.2192363,3.4694021 6.3293474,4.2684694 5.4394583,5.0675369 5.5715029,6.3337138 6.6699738,7.3796971 7.768444,8.4256809 9.3803288,8.6258457 10.270217,7.8267787 11.160107,7.0277111 10.991018,5.5320017 9.8925477,4.4860182 Z"
       sodipodi:nodetypes="sssss" /><ellipse
       style="fill:#00657c;fill-opacity:1;stroke:none;stroke-width:0.584553;stroke-opacity:1"
       id="path7-6"
       cx="7.2072492"
       cy="7.8105559"
       rx="1.1531249"
       ry="1.603125"
       transform="rotate(-8.7885028)" /><path
       id="path8"
       style="fill:#ffffff;stroke:none;stroke-width:0.13307;stroke-opacity:1"
       d="M 9.5974668,5.7459189 C 9.592793,6.1021722 9.3033378,6.3516319 8.995075,6.3588735 8.6868111,6.3661154 8.4764711,6.1283966 8.4811459,5.7721431 8.4858197,5.4158897 8.7395081,5.1212185 9.047772,5.1139768 9.3560348,5.106735 9.6021416,5.3896654 9.5974668,5.7459189 Z"
       sodipodi:nodetypes="sssss" /><path
       id="path11"
       style="fill:#ffffff;stroke:#00647b;stroke-width:0.540098;stroke-opacity:1"
       d="m 12.110159,4.029333 c 0.731312,-1.3288729 2.241494,-1.7764585 3.331144,-1.2834332 1.089651,0.4930253 1.346139,1.7399627 0.614828,3.0688354 C 15.32482,7.1436081 13.848639,7.8211964 12.758989,7.3281713 11.669338,6.835146 11.378848,5.3582056 12.110159,4.029333 Z"
       sodipodi:nodetypes="sssss" /><ellipse
       style="fill:#00657c;fill-opacity:1;stroke:none;stroke-width:0.584553;stroke-opacity:1"
       id="ellipse11"
       cx="-12.356204"
       cy="7.677856"
       rx="1.1531249"
       ry="1.603125"
       transform="matrix(-0.98825906,0.15278753,0.15278753,0.98825906,0,0)" /><path
       id="path13"
       style="fill:#ffffff;stroke:none;stroke-width:0.13307;stroke-opacity:1"
       d="m 13.521332,4.9480832 c 0.112039,0.3382092 0.463314,0.4886103 0.759372,0.4024223 0.296058,-0.086188 0.42479,-0.3763282 0.312749,-0.7145372 -0.112039,-0.3382091 -0.442871,-0.542512 -0.738929,-0.4563239 -0.296058,0.086188 -0.445233,0.4302298 -0.333192,0.7684388 z"
       sodipodi:nodetypes="sssss" /><path
       id="path2"
       style="fill:#ffffff;fill-opacity:1;stroke:#00657c;stroke-width:0.274771;stroke-linecap:round;stroke-linejoin:round;stroke-dasharray:none;stroke-opacity:1"
       d="m 15.164978,10.119635 c 0.188979,0.64421 -0.60626,1.484048 -1.776212,1.875833 -1.169961,0.391751 -2.271587,0.187151 -2.460563,-0.457058 -0.18898,-0.644209 0.987107,-0.585798 2.157058,-0.977582 1.169965,-0.391753 1.890739,-1.0854 2.079717,-0.441193 z"
       sodipodi:nodetypes="sssss" /><path
       style="fill:#ffffff;fill-opacity:1;stroke:#00657c;stroke-width:0.299541;stroke-linecap:round;stroke-linejoin:round;stroke-dasharray:none;stroke-opacity:1"
       d="m 10.976662,11.643055 c 1.419571,-0.113008 2.833961,-0.316971 4.19222,-1.506026"
       id="path10"
       sodipodi:nodetypes="cc" /><path
       id="path14"
       style="fill:#000000;fill-opacity:1;stroke:none;stroke-width:0.378619;stroke-linecap:round;stroke-linejoin:round"
       d="m 12.308482,9.3771122 c 0.05787,0.2496623 -0.479275,0.5874181 -1.199733,0.7543958 -0.72046,0.166978 -1.4799045,0.837429 -1.537768,0.587765 -0.057859,-0.249665 0.607766,-1.3249007 1.328225,-1.4918781 0.720459,-0.1669777 1.351413,-0.099947 1.409276,0.1497173 z"
       sodipodi:nodetypes="sssss" /><path
       id="path15"
       style="fill:#000000;fill-opacity:1;stroke:none;stroke-width:0.378619;stroke-linecap:round;stroke-linejoin:round"
       d="m 12.899036,9.1487784 c 0.0961,0.2375793 0.729795,0.205341 1.415376,-0.072003 C 14.999995,8.7994311 16.006797,8.911733 15.910688,8.6741552 15.814574,8.4365789 14.651952,7.9390854 13.96637,8.2164297 13.280788,8.4937738 12.802927,8.9112006 12.899036,9.1487784 Z"
       sodipodi:nodetypes="sssss" /><path
       id="path16"
       style="fill:#9eedff;fill-opacity:1;stroke:none;stroke-width:0.758038;stroke-linecap:round;stroke-linejoin:round"
       d="m 11.290554,18.495841 c 0.140155,2.040791 -0.192015,3.744017 -0.741921,3.804266 -0.5499056,0.06025 -1.1093098,-1.545291 -1.2494658,-3.586082 -0.1401547,-2.040788 0.2394876,-2.831282 0.7893938,-2.891532 0.549907,-0.06025 1.061838,0.63256 1.201993,2.673348 z"
       sodipodi:nodetypes="sssss" /></g></svg>
