<?xml version="1.0" encoding="UTF-8" standalone="no"?>
<!-- Created with Inkscape (http://www.inkscape.org/) -->

<svg
   width="100"
   height="100"
   viewBox="0 0 26.458333 26.458333"
   version="1.1"
   id="svg1"
   inkscape:version="1.4.2 (ebf0e940d0, 2025-05-08)"
   sodipodi:docname="blue_ghost[0][1].svg"
   xml:space="preserve"
   xmlns:inkscape="http://www.inkscape.org/namespaces/inkscape"
   xmlns:sodipodi="http://sodipodi.sourceforge.net/DTD/sodipodi-0.dtd"
   xmlns="http://www.w3.org/2000/svg"
   xmlns:svg="http://www.w3.org/2000/svg"><sodipodi:namedview
     id="namedview1"
     pagecolor="#505050"
     bordercolor="#eeeeee"
     borderopacity="1"
     inkscape:showpageshadow="0"
     inkscape:pageopacity="0"
     inkscape:pagecheckerboard="0"
     inkscape:deskcolor="#505050"
     inkscape:document-units="px"
     inkscape:zoom="3.5277778"
     inkscape:cx="66.755905"
     inkscape:cy="57.401574"
     inkscape:window-width="1366"
     inkscape:window-height="697"
     inkscape:window-x="0"
     inkscape:window-y="0"
     inkscape:window-maximized="1"
     inkscape:current-layer="layer1" /><defs
     id="defs1"><linearGradient
       id="linearGradient13895"
       inkscape:swatch="solid"><stop
         style="stop-color:#000000;stop-opacity:1;"
         offset="0"
         id="stop13893" /></linearGradient><filter
       style="color-interpolation-filters:sRGB;"
       inkscape:label="Clean Edges"
       id="filter14269"
       x="-0.31154084"
       y="-0.29580634"
       width="1.6230817"
       height="1.5916127"><feGaussianBlur
         stdDeviation="0.204612"
         result="blur"
         id="feGaussianBlur14263" /><feComposite
         in="SourceGraphic"
         in2="blur"
         operator="in"
         result="composite1"
         id="feComposite14265" /><feComposite
         in="composite1"
         in2="composite1"
         operator="in"
         result="composite2"
         id="feComposite14267" /></filter><filter
       style="color-interpolation-filters:sRGB;"
       inkscape:label="Clean Edges"
       id="filter14269-3"
       x="-0.31154084"
       y="-0.29580634"
       width="1.6230817"
       height="1.5916127"><feGaussianBlur
         stdDeviation="0.204612"
         result="blur"
         id="feGaussianBlur14263-5" /><feComposite
         in="SourceGraphic"
         in2="blur"
         operator="in"
         result="composite1"
         id="feComposite14265-6" /><feComposite
         in="composite1"
         in2="composite1"
         operator="in"
         result="composite2"
         id="feComposite14267-2" /></filter><filter
       style="color-interpolation-filters:sRGB;"
       inkscape:label="Clean Edges"
       id="filter14269-6"
       x="-0.31154084"
       y="-0.29580634"
       width="1.6230817"
       height="1.5916127"><feGaussianBlur
         stdDeviation="0.204612"
         result="blur"
         id="feGaussianBlur14263-2" /><feComposite
         in="SourceGraphic"
         in2="blur"
         operator="in"
         result="composite1"
         id="feComposite14265-61" /><feComposite
         in="composite1"
         in2="composite1"
         operator="in"
         result="composite2"
         id="feComposite14267-8" /></filter><filter
       style="color-interpolation-filters:sRGB;"
       inkscape:label="Clean Edges"
       id="filter14269-3-7"
       x="-0.31154084"
       y="-0.29580634"
       width="1.6230817"
       height="1.5916127"><feGaussianBlur
         stdDeviation="0.204612"
         result="blur"
         id="feGaussianBlur14263-5-9" /><feComposite
         in="SourceGraphic"
         in2="blur"
         operator="in"
         result="composite1"
         id="feComposite14265-6-2" /><feComposite
         in="composite1"
         in2="composite1"
         operator="in"
         result="composite2"
         id="feComposite14267-2-0" /></filter><filter
       style="color-interpolation-filters:sRGB;"
       inkscape:label="Clean Edges"
       id="filter14269-35"
       x="-0.31154084"
       y="-0.29580634"
       width="1.6230817"
       height="1.5916127"><feGaussianBlur
         stdDeviation="0.204612"
         result="blur"
         id="feGaussianBlur14263-6" /><feComposite
         in="SourceGraphic"
         in2="blur"
         operator="in"
         result="composite1"
         id="feComposite14265-2" /><feComposite
         in="composite1"
         in2="composite1"
         operator="in"
         result="composite2"
         id="feComposite14267-9" /></filter><filter
       style="color-interpolation-filters:sRGB;"
       inkscape:label="Blur"
       id="filter11"
       x="-0.1622268"
       y="-0.087034815"
       width="1.3247731"
       height="1.1740301"><feGaussianBlur
         stdDeviation="0.93 0.45"
         result="blur"
         id="feGaussianBlur11" /></filter></defs><g
     inkscape:label="Camada 1"
     inkscape:groupmode="layer"
     id="layer1"><path
       id="rect3-9"
       style="fill:none;fill-opacity:0.633232;stroke:#0042e6;stroke-width:2.05357;stroke-dasharray:none;stroke-opacity:0.63529414;filter:url(#filter11)"
       d="m 10.654994,0.96053922 c -4.7259012,-7e-6 -8.2056122,2.53376408 -8.5568102,5.83950908 -0.599121,5.6548587 -0.740373,14.6705807 4.9302075,16.6291587 1.911709,0.66029 1.025844,-4.293766 1.119032,-3.701634 8.0782277,10.506079 8.4972167,3.143902 5.9832327,-0.17806 0.877012,1.364492 6.449744,3.825498 7.770716,1.3709 0.337662,-0.627433 -3.482469,-6.943722 -2.689564,-14.1203647 0.321774,-2.762394 -3.83091,-5.83951608 -8.556814,-5.83950908 z"
       sodipodi:nodetypes="ccsccscc"
       transform="matrix(1.0235127,0,0,0.99199203,0.09108446,0.19625108)" /><path
       id="rect3"
       style="fill:#0042e6;fill-opacity:0.63529414;stroke:#ffffff;stroke-width:1.33122;stroke-dasharray:none;stroke-opacity:1"
       d="M 11.402473,1.0468602 C 6.6765715,1.0468529 3.1968599,3.5806238 2.8456618,6.8863689 2.2465415,12.541228 2.1240385,22.19445 7.7946207,24.153028 c 1.9117083,0.66029 1.0070938,-4.931266 1.1002818,-4.339134 8.7173135,10.503228 5.9584065,-0.709808 5.9832325,-0.17806 0.877012,1.364492 4.930994,3.562998 6.251966,1.1084 0.337662,-0.627433 -1.963719,-6.681222 -1.170814,-13.8578651 0.321774,-2.7623942 -3.83091,-5.8395157 -8.556814,-5.8395087 z"
       sodipodi:nodetypes="ccsccscc" /><path
       id="path7"
       style="fill:#ffffff;fill-opacity:1;stroke:none;stroke-width:0.647474;stroke-dasharray:none;stroke-opacity:1"
       d="m 12.846785,6.3642992 a 2.5336249,2.3576068 7.9964988 0 1 2.703114,2.2374786 2.5336249,2.3576068 7.9964988 0 1 -2.344141,2.4788272 2.5336249,2.3576068 7.9964988 0 1 -2.664097,-1.9567189 1.0983252,1.5189161 89.035208 0 0 0.374097,0.015434 1.0983252,1.5189161 89.035208 0 0 1.432743,-1.1685716 1.0983252,1.5189161 89.035208 0 0 -1.076483,-0.9823521 2.5336249,2.3576068 7.9964988 0 1 1.574767,-0.6240972 z" /><path
       id="path3"
       style="fill:#ffffff;fill-opacity:1;stroke:none;stroke-width:0.616425;stroke-dasharray:none;stroke-opacity:1"
       d="M 6.3609294,6.7586452 A 2.5296039,2.1403208 2.2706277 0 1 9.053911,8.7811218 2.5296039,2.1403208 2.2706277 0 1 6.7009208,11.034569 2.5296039,2.1403208 2.2706277 0 1 4.0458177,9.266594 0.99587382,1.5183715 88.835225 0 0 4.4196859,9.2796921 0.99587382,1.5183715 88.835225 0 0 5.8564555,8.2165832 0.99587382,1.5183715 88.835225 0 0 4.784372,7.3283619 2.5296039,2.1403208 2.2706277 0 1 6.3609294,6.7586452 Z" /><ellipse
       style="fill:#0086e6;fill-opacity:0.635294;stroke:#ffffff;stroke-width:0.301601;stroke-linecap:butt;stroke-linejoin:miter;stroke-dasharray:none;stroke-opacity:1"
       id="path6"
       cx="23.587749"
       cy="7.1375699"
       rx="0.70387429"
       ry="0.478484"
       transform="rotate(53.384464)" /><ellipse
       style="fill:#0086e6;fill-opacity:0.635294;stroke:#ffffff;stroke-width:0.301601;stroke-linecap:butt;stroke-linejoin:miter;stroke-dasharray:none;stroke-opacity:1"
       id="ellipse6"
       cx="17.340559"
       cy="7.5970736"
       rx="0.70387429"
       ry="0.478484"
       transform="rotate(53.384464)" /><ellipse
       style="fill:#0086e6;fill-opacity:0.635294;stroke:#ffffff;stroke-width:0.301601;stroke-linecap:butt;stroke-linejoin:miter;stroke-dasharray:none;stroke-opacity:1"
       id="ellipse7"
       cx="9.7552681"
       cy="-24.2521"
       rx="0.70387429"
       ry="0.478484"
       transform="rotate(114.40546)" /><ellipse
       style="fill:#0086e6;fill-opacity:0.635294;stroke:#ffffff;stroke-width:0.301601;stroke-linecap:butt;stroke-linejoin:miter;stroke-dasharray:none;stroke-opacity:1"
       id="ellipse8"
       cx="18.852303"
       cy="12.845834"
       rx="0.70387429"
       ry="0.478484"
       transform="rotate(28.803033)" /><ellipse
       style="fill:#0086e6;fill-opacity:0.635294;stroke:#ffffff;stroke-width:0.301601;stroke-linecap:butt;stroke-linejoin:miter;stroke-dasharray:none;stroke-opacity:1"
       id="ellipse9"
       cx="27.899603"
       cy="1.3515055"
       rx="0.70387429"
       ry="0.478484"
       transform="rotate(53.384464)" /><ellipse
       style="fill:#0086e6;fill-opacity:0.635294;stroke:#ffffff;stroke-width:0.301601;stroke-linecap:butt;stroke-linejoin:miter;stroke-dasharray:none;stroke-opacity:1"
       id="ellipse10"
       cx="12.277319"
       cy="-21.682436"
       rx="0.70387429"
       ry="0.478484"
       transform="rotate(98.708663)" /><ellipse
       style="fill:#0086e6;fill-opacity:0.635294;stroke:#ffffff;stroke-width:0.125072;stroke-linecap:butt;stroke-linejoin:miter;stroke-dasharray:none;stroke-opacity:1"
       id="ellipse1"
       cx="27.932953"
       cy="5.8985567"
       rx="0.28869858"
       ry="0.20061974"
       transform="matrix(0.62568804,0.78007338,-0.82368636,0.56704566,0,0)" /><ellipse
       style="fill:#0086e6;fill-opacity:0.635294;stroke:#ffffff;stroke-width:0.125072;stroke-linecap:butt;stroke-linejoin:miter;stroke-dasharray:none;stroke-opacity:1"
       id="ellipse2"
       cx="26.115227"
       cy="7.4705629"
       rx="0.28869858"
       ry="0.20061974"
       transform="matrix(0.62568804,0.78007338,-0.82368636,0.56704566,0,0)" /><ellipse
       style="fill:#0086e6;fill-opacity:0.635294;stroke:#ffffff;stroke-width:0.125072;stroke-linecap:butt;stroke-linejoin:miter;stroke-dasharray:none;stroke-opacity:1"
       id="ellipse3"
       cx="28.978855"
       cy="0.41488811"
       rx="0.28869858"
       ry="0.20061974"
       transform="matrix(0.62568804,0.78007338,-0.82368636,0.56704566,0,0)" /><ellipse
       style="fill:#0086e6;fill-opacity:0.635294;stroke:#ffffff;stroke-width:0.125072;stroke-linecap:butt;stroke-linejoin:miter;stroke-dasharray:none;stroke-opacity:1"
       id="ellipse5"
       cx="31.370384"
       cy="-0.18636166"
       rx="0.28869858"
       ry="0.20061974"
       transform="matrix(0.62568804,0.78007338,-0.82368636,0.56704566,0,0)" /><ellipse
       style="fill:#0086e6;fill-opacity:0.635294;stroke:#ffffff;stroke-width:0.0582608;stroke-linecap:butt;stroke-linejoin:miter;stroke-dasharray:none;stroke-opacity:1"
       id="ellipse11"
       cx="29.244541"
       cy="1.62137"
       rx="0.13698205"
       ry="0.091745965"
       transform="matrix(0.57662667,0.81700776,-0.78759774,0.61618975,0,0)" /><ellipse
       style="fill:#ffffff;stroke:#ffffff;stroke-width:0.829447;fill-opacity:1;stroke-opacity:1"
       id="path2"
       cx="7.2626858"
       cy="16.757925"
       rx="1.4338531"
       ry="2.4340396"
       transform="matrix(0.98768558,-0.1564519,0.25331862,0.9673829,0,0)" /></g></svg>
