<?xml version="1.0" encoding="UTF-8" standalone="no"?>
<!-- Created with Inkscape (http://www.inkscape.org/) -->

<svg
   width="100"
   height="100"
   viewBox="0 0 26.458333 26.458333"
   version="1.1"
   id="svg1"
   inkscape:version="1.4.2 (ebf0e940d0, 2025-05-08)"
   sodipodi:docname="blue_ghost.svg"
   xml:space="preserve"
   xmlns:inkscape="http://www.inkscape.org/namespaces/inkscape"
   xmlns:sodipodi="http://sodipodi.sourceforge.net/DTD/sodipodi-0.dtd"
   xmlns="http://www.w3.org/2000/svg"
   xmlns:svg="http://www.w3.org/2000/svg"><sodipodi:namedview
     id="namedview1"
     pagecolor="#505050"
     bordercolor="#eeeeee"
     borderopacity="1"
     inkscape:showpageshadow="0"
     inkscape:pageopacity="0"
     inkscape:pagecheckerboard="0"
     inkscape:deskcolor="#505050"
     inkscape:document-units="px"
     inkscape:zoom="7.0555554"
     inkscape:cx="49.110237"
     inkscape:cy="38.055119"
     inkscape:window-width="1366"
     inkscape:window-height="697"
     inkscape:window-x="0"
     inkscape:window-y="0"
     inkscape:window-maximized="1"
     inkscape:current-layer="layer1" /><defs
     id="defs1"><linearGradient
       id="linearGradient13895"
       inkscape:swatch="solid"><stop
         style="stop-color:#000000;stop-opacity:1;"
         offset="0"
         id="stop13893" /></linearGradient><filter
       style="color-interpolation-filters:sRGB;"
       inkscape:label="Clean Edges"
       id="filter14269"
       x="-0.31154084"
       y="-0.29580634"
       width="1.6230817"
       height="1.5916127"><feGaussianBlur
         stdDeviation="0.204612"
         result="blur"
         id="feGaussianBlur14263" /><feComposite
         in="SourceGraphic"
         in2="blur"
         operator="in"
         result="composite1"
         id="feComposite14265" /><feComposite
         in="composite1"
         in2="composite1"
         operator="in"
         result="composite2"
         id="feComposite14267" /></filter><filter
       style="color-interpolation-filters:sRGB;"
       inkscape:label="Clean Edges"
       id="filter14269-3"
       x="-0.31154084"
       y="-0.29580634"
       width="1.6230817"
       height="1.5916127"><feGaussianBlur
         stdDeviation="0.204612"
         result="blur"
         id="feGaussianBlur14263-5" /><feComposite
         in="SourceGraphic"
         in2="blur"
         operator="in"
         result="composite1"
         id="feComposite14265-6" /><feComposite
         in="composite1"
         in2="composite1"
         operator="in"
         result="composite2"
         id="feComposite14267-2" /></filter></defs><g
     inkscape:label="Camada 1"
     inkscape:groupmode="layer"
     id="layer1"><path
       id="path3-1"
       style="fill:#24d8ff;fill-opacity:1;stroke:#00657c;stroke-width:0.754619;stroke-dasharray:none;stroke-opacity:1"
       d="m 24.310378,14.772352 c 0.242594,0.08569 0.422543,0.264665 0.610313,0.432006 1.284683,1.264008 -2.869673,4.929644 -3.811017,5.668117 l -0.255914,0.134338 c -0.532818,0.279153 -1.23751,0.09382 -1.579907,-0.41543 l -3.150984,-4.68624 c -0.342398,-0.509251 -0.188656,-1.144116 0.344163,-1.423269 l 0.255756,-0.133929 c 0.532819,-0.279152 1.23751,-0.09382 1.579908,0.415428 l 2.178936,3.334712 2.641347,-3.075316 c 0.303422,-0.319265 0.774059,-0.403469 1.187399,-0.250417 z"
       sodipodi:nodetypes="cccccccccccc" /><path
       id="rect1-2"
       style="fill:#24d8ff;fill-opacity:1;stroke:#00657c;stroke-width:0.754619;stroke-dasharray:none;stroke-opacity:1"
       d="m 1.9871354,14.467022 c -0.242594,0.08569 -0.422543,0.264665 -0.610313,0.432006 -1.28468301,1.264008 2.869673,4.929644 3.811017,5.668117 l 0.255914,0.134338 c 0.532818,0.279153 1.23751,0.09382 1.579907,-0.41543 l 3.1509836,-4.68624 C 10.517042,15.090562 10.3633,14.455697 9.8304814,14.176544 l -0.255756,-0.133929 c -0.532819,-0.279152 -1.23751,-0.09382 -1.579908,0.415428 l -2.178936,3.334712 -2.641347,-3.075316 C 2.8711124,14.398174 2.4004754,14.31397 1.9871354,14.467022 Z"
       sodipodi:nodetypes="cccccccccccc" /><path
       id="rect3-7"
       style="fill:#24d8ff;fill-opacity:1;stroke:#00657c;stroke-width:1.02976;stroke-dasharray:none;stroke-opacity:1"
       d="m 9.3368837,14.190623 c 2.0225673,1.45888 4.6721263,0.81203 6.7889583,-0.834434 0.854161,-0.664363 1.68123,0.164677 1.772732,0.851696 0.452487,3.397228 3.642566,8.586938 2.441461,9.597914 -0.943548,0.794189 -3.895281,-1.51857 -3.715485,-1.194439 3.422218,6.16945 -2.93187,2.074649 -4.797051,-0.186336 -0.03816,-0.04626 -0.08401,3.539022 -1.111665,2.789531 -1.0813092,-0.788618 -2.9842846,-6.383391 -2.9948555,-9.64444 -0.00225,-0.693567 0.7565339,-1.999367 1.6159038,-1.379501 z"
       sodipodi:nodetypes="ssssssssss" /><ellipse
       style="fill:#24d8ff;fill-opacity:1;stroke:#00657c;stroke-width:1.04166;stroke-dasharray:none;stroke-opacity:1"
       id="path1-0"
       cx="12.084306"
       cy="6.9442706"
       rx="6.3740468"
       ry="6.2395792" /><path
       id="path12-9"
       style="fill-opacity:0.220034;stroke-width:0.510212;stroke-linecap:round;stroke-linejoin:round"
       d="M 9.8329529,8.6890425 C 11.521352,11.270057 14.306016,12.271227 16.149283,10.925218 17.992551,9.5792102 18.588002,6.2636201 16.899603,3.6826044 15.211204,1.1015895 11.408416,0.41747754 9.5651474,1.7634869 7.7218795,3.109496 8.1445554,6.1080276 9.8329529,8.6890425 Z"
       sodipodi:nodetypes="sssss" /><path
       id="path40"
       style="fill:#00657c;fill-opacity:1;stroke:none;stroke-width:0.391254;stroke-linecap:round;stroke-linejoin:round"
       d="m 5.0990484,17.822157 c 0,0.608144 -0.401523,1.101141 -0.896826,1.101141 -0.495304,0 -0.896826,-0.492997 -0.896827,-1.101141 0,-0.608143 0.387925,-0.829644 0.883229,-0.829644 0.495303,0 0.910424,0.221501 0.910424,0.829644 z"
       sodipodi:nodetypes="sssss" /><path
       id="path38"
       style="fill:#24d8ff;stroke:#00657c;stroke-width:0.8806;stroke-linecap:round;stroke-linejoin:round;fill-opacity:1;stroke-opacity:1"
       d="m 4.7484514,16.011649 c 0,1.270497 -0.973604,2.300437 -2.174605,2.300437 -1.201002,0 -2.17460601,-1.02994 -2.17460601,-2.300437 0,-1.270496 0.94063201,-1.733242 2.14163401,-1.733242 1.201002,0 2.207577,0.462746 2.207577,1.733242 z"
       sodipodi:nodetypes="sssss" /><path
       id="path39"
       style="fill:#24d8ff;fill-opacity:1;stroke:#00657c;stroke-width:0.821768;stroke-linecap:round;stroke-linejoin:round;stroke-opacity:1"
       d="m 25.831972,16.391612 c -1e-6,1.289027 -0.835671,2.333989 -1.866522,2.333989 -1.030851,0 -1.866521,-1.044962 -1.866521,-2.333989 -10e-7,-1.289027 0.807369,-1.758522 1.838221,-1.758522 1.030851,0 1.894822,0.469495 1.894822,1.758522 z"
       sodipodi:nodetypes="sssss" /><path
       id="path41"
       style="fill:#9eedff;fill-opacity:1;stroke:none;stroke-width:0.451149;stroke-linecap:round;stroke-linejoin:round"
       d="m 24.489047,16.386239 c 0,0.808591 -0.401523,1.464082 -0.896826,1.464082 -0.495304,0 -0.896826,-0.655491 -0.896827,-1.464082 0,-0.80859 0.387925,-1.103099 0.883229,-1.103099 0.495304,0 0.910424,0.294509 0.910424,1.103099 z"
       sodipodi:nodetypes="sssss" /><g
       id="g16"
       transform="rotate(-8.7885028,10.330801,15.169236)"><path
         id="ellipse3"
         style="fill:#ffffff;stroke:#00657c;stroke-width:0.540098;stroke-opacity:1"
         d="M 12.026238,4.2797066 C 11.100477,3.0781713 9.53964,2.8665778 8.5381118,3.5202994 7.5365832,4.1740212 7.4736215,5.4455067 8.3993821,6.6470419 9.3251419,7.8485774 10.887519,8.292668 11.889047,7.6389466 c 1.001529,-0.6537217 1.062951,-2.1577048 0.137191,-3.35924 z"
         sodipodi:nodetypes="sssss" /><ellipse
         style="fill:#00657c;fill-opacity:1;stroke:none;stroke-width:0.584553;stroke-opacity:1"
         id="path7-6"
         cx="9.5411272"
         cy="5.8627558"
         rx="1.1531249"
         ry="1.603125" /><path
         id="path8"
         style="fill:#ffffff;stroke:none;stroke-width:0.13307;stroke-opacity:1"
         d="m 10.940757,5.1970295 c -0.05905,0.3513565 -0.383221,0.5536622 -0.688971,0.51372 -0.305751,-0.039942 -0.477301,-0.3070071 -0.41825,-0.6583636 0.05905,-0.3513565 0.354782,-0.6038076 0.660533,-0.5638654 0.30575,0.039942 0.505739,0.3571525 0.446688,0.708509 z"
         sodipodi:nodetypes="sssss" /><path
         id="path11"
         style="fill:#ffffff;stroke:#00647b;stroke-width:0.540098;stroke-opacity:1"
         d="m 14.287588,4.1672066 c 0.925761,-1.2015353 2.486598,-1.4131288 3.488126,-0.7594072 1.001529,0.6537218 1.06449,1.9252073 0.13873,3.1267425 -0.92576,1.2015355 -2.488137,1.6456261 -3.489665,0.9919047 -1.001529,-0.6537217 -1.062951,-2.1577048 -0.137191,-3.35924 z"
         sodipodi:nodetypes="sssss" /><ellipse
         style="fill:#00657c;fill-opacity:1;stroke:none;stroke-width:0.584553;stroke-opacity:1"
         id="ellipse11"
         cx="-15.29145"
         cy="6.0127563"
         rx="1.1531249"
         ry="1.603125"
         transform="scale(-1,1)" /><path
         id="path13"
         style="fill:#ffffff;stroke:none;stroke-width:0.13307;stroke-opacity:1"
         d="m 15.541819,5.2907795 c 0.05905,0.3513565 0.383221,0.5536622 0.688971,0.51372 0.305751,-0.039942 0.477301,-0.3070071 0.41825,-0.6583636 -0.05905,-0.3513565 -0.354782,-0.6038076 -0.660533,-0.5638654 -0.30575,0.039942 -0.505739,0.3571525 -0.446688,0.708509 z"
         sodipodi:nodetypes="sssss" /></g><g
       id="g15"
       transform="rotate(-11.668074,12.517294,10.17219)"><path
         id="path2"
         style="fill:#ffffff;fill-opacity:1;stroke:#00657c;stroke-width:0.378619;stroke-linecap:round;stroke-linejoin:round;stroke-dasharray:none;stroke-opacity:1"
         d="m 16.150204,10.503317 c -8.53e-4,0.898175 -1.420053,1.620974 -3.169862,1.61442 -1.749808,-0.0066 -3.1676197,-0.739985 -3.1667617,-1.638159 8.539e-4,-0.8981749 1.5786187,-0.318124 3.3284277,-0.31157 1.749814,0.0066 3.009053,-0.5628628 3.008196,0.335309 z"
         sodipodi:nodetypes="sssss" /><path
         style="fill:#ffffff;fill-opacity:1;stroke:#00657c;stroke-width:0.41275;stroke-linecap:round;stroke-linejoin:round;stroke-dasharray:none;stroke-opacity:1"
         d="m 9.8376231,10.633118 c 1.9779429,0.467442 3.9852779,0.817321 6.3109279,-0.106066"
         id="path10"
         sodipodi:nodetypes="cc" /><path
         id="path14"
         style="fill:#000000;fill-opacity:1;stroke:none;stroke-width:0.378619;stroke-linecap:round;stroke-linejoin:round"
         d="m 12.774947,9.0129509 c -0.02005,0.2554956 -0.634002,0.4157003 -1.371289,0.3578272 -0.737289,-0.057873 -1.6634576,0.3525805 -1.6434026,0.097085 0.02006,-0.2554956 0.9787396,-1.08019 1.7160276,-1.0223167 0.737288,0.057873 1.318719,0.3119089 1.298664,0.5674045 z"
         sodipodi:nodetypes="sssss" /><path
         id="path15"
         style="fill:#000000;fill-opacity:1;stroke:none;stroke-width:0.378619;stroke-linecap:round;stroke-linejoin:round"
         d="m 13.406855,8.9731761 c 0.02005,0.2554956 0.634002,0.4157003 1.371289,0.3578272 0.737289,-0.057873 1.663458,0.3525805 1.643403,0.097085 -0.02006,-0.2554956 -0.97874,-1.08019 -1.716028,-1.0223167 -0.737288,0.057873 -1.318719,0.3119089 -1.298664,0.5674045 z"
         sodipodi:nodetypes="sssss" /></g><path
       id="path16"
       style="fill:#9eedff;fill-opacity:1;stroke:none;stroke-width:0.758038;stroke-linecap:round;stroke-linejoin:round"
       d="m 11.290554,18.495841 c 0.140155,2.040791 -0.192015,3.744017 -0.741921,3.804266 -0.5499056,0.06025 -1.1093098,-1.545291 -1.2494658,-3.586082 -0.1401547,-2.040788 0.2394876,-2.831282 0.7893938,-2.891532 0.549907,-0.06025 1.061838,0.63256 1.201993,2.673348 z"
       sodipodi:nodetypes="sssss" /></g></svg>
