<?xml version="1.0" encoding="UTF-8" standalone="no"?>
<!-- Created with Inkscape (http://www.inkscape.org/) -->

<svg
   width="100"
   height="100"
   viewBox="0 0 26.458333 26.458333"
   version="1.1"
   id="svg1"
   inkscape:version="1.4.2 (ebf0e940d0, 2025-05-08)"
   sodipodi:docname="blue_ghost[0][2].svg"
   xml:space="preserve"
   xmlns:inkscape="http://www.inkscape.org/namespaces/inkscape"
   xmlns:sodipodi="http://sodipodi.sourceforge.net/DTD/sodipodi-0.dtd"
   xmlns="http://www.w3.org/2000/svg"
   xmlns:svg="http://www.w3.org/2000/svg"><sodipodi:namedview
     id="namedview1"
     pagecolor="#505050"
     bordercolor="#eeeeee"
     borderopacity="1"
     inkscape:showpageshadow="0"
     inkscape:pageopacity="0"
     inkscape:pagecheckerboard="0"
     inkscape:deskcolor="#505050"
     inkscape:document-units="px"
     inkscape:zoom="4.9890311"
     inkscape:cx="63.238732"
     inkscape:cy="76.066874"
     inkscape:window-width="1366"
     inkscape:window-height="697"
     inkscape:window-x="0"
     inkscape:window-y="0"
     inkscape:window-maximized="1"
     inkscape:current-layer="layer1" /><defs
     id="defs1"><linearGradient
       id="linearGradient13895"
       inkscape:swatch="solid"><stop
         style="stop-color:#000000;stop-opacity:1;"
         offset="0"
         id="stop13893" /></linearGradient><filter
       style="color-interpolation-filters:sRGB;"
       inkscape:label="Clean Edges"
       id="filter14269"
       x="-0.31154084"
       y="-0.29580634"
       width="1.6230817"
       height="1.5916127"><feGaussianBlur
         stdDeviation="0.204612"
         result="blur"
         id="feGaussianBlur14263" /><feComposite
         in="SourceGraphic"
         in2="blur"
         operator="in"
         result="composite1"
         id="feComposite14265" /><feComposite
         in="composite1"
         in2="composite1"
         operator="in"
         result="composite2"
         id="feComposite14267" /></filter><filter
       style="color-interpolation-filters:sRGB;"
       inkscape:label="Clean Edges"
       id="filter14269-3"
       x="-0.31154084"
       y="-0.29580634"
       width="1.6230817"
       height="1.5916127"><feGaussianBlur
         stdDeviation="0.204612"
         result="blur"
         id="feGaussianBlur14263-5" /><feComposite
         in="SourceGraphic"
         in2="blur"
         operator="in"
         result="composite1"
         id="feComposite14265-6" /><feComposite
         in="composite1"
         in2="composite1"
         operator="in"
         result="composite2"
         id="feComposite14267-2" /></filter><filter
       style="color-interpolation-filters:sRGB;"
       inkscape:label="Clean Edges"
       id="filter14269-6"
       x="-0.31154084"
       y="-0.29580634"
       width="1.6230817"
       height="1.5916127"><feGaussianBlur
         stdDeviation="0.204612"
         result="blur"
         id="feGaussianBlur14263-2" /><feComposite
         in="SourceGraphic"
         in2="blur"
         operator="in"
         result="composite1"
         id="feComposite14265-61" /><feComposite
         in="composite1"
         in2="composite1"
         operator="in"
         result="composite2"
         id="feComposite14267-8" /></filter><filter
       style="color-interpolation-filters:sRGB;"
       inkscape:label="Clean Edges"
       id="filter14269-3-7"
       x="-0.31154084"
       y="-0.29580634"
       width="1.6230817"
       height="1.5916127"><feGaussianBlur
         stdDeviation="0.204612"
         result="blur"
         id="feGaussianBlur14263-5-9" /><feComposite
         in="SourceGraphic"
         in2="blur"
         operator="in"
         result="composite1"
         id="feComposite14265-6-2" /><feComposite
         in="composite1"
         in2="composite1"
         operator="in"
         result="composite2"
         id="feComposite14267-2-0" /></filter><filter
       style="color-interpolation-filters:sRGB;"
       inkscape:label="Clean Edges"
       id="filter14269-35"
       x="-0.31154084"
       y="-0.29580634"
       width="1.6230817"
       height="1.5916127"><feGaussianBlur
         stdDeviation="0.204612"
         result="blur"
         id="feGaussianBlur14263-6" /><feComposite
         in="SourceGraphic"
         in2="blur"
         operator="in"
         result="composite1"
         id="feComposite14265-2" /><feComposite
         in="composite1"
         in2="composite1"
         operator="in"
         result="composite2"
         id="feComposite14267-9" /></filter><filter
       style="color-interpolation-filters:sRGB;"
       inkscape:label="Blur"
       id="filter11"
       x="-0.1622268"
       y="-0.087034815"
       width="1.3247731"
       height="1.1740301"><feGaussianBlur
         stdDeviation="0.93 0.45"
         result="blur"
         id="feGaussianBlur11" /></filter></defs><g
     inkscape:label="Camada 1"
     inkscape:groupmode="layer"
     id="layer1"><path
       id="rect3-9"
       style="fill:none;fill-opacity:0.633232;stroke:#0099fe;stroke-width:2.05357;stroke-dasharray:none;stroke-opacity:0.441837;filter:url(#filter11)"
       d="m 10.654994,0.96053922 c -4.7259012,-7e-6 -8.2056122,2.53376408 -8.5568102,5.83950908 -0.599121,5.6548587 -0.740373,14.6705807 4.9302075,16.6291587 1.911709,0.66029 1.025844,-4.293766 1.119032,-3.701634 8.0782277,10.506079 8.4972167,3.143902 5.9832327,-0.17806 0.877012,1.364492 6.449744,3.825498 7.770716,1.3709 0.337662,-0.627433 -3.482469,-6.943722 -2.689564,-14.1203647 0.321774,-2.762394 -3.83091,-5.83951608 -8.556814,-5.83950908 z"
       sodipodi:nodetypes="ccsccscc"
       transform="matrix(1.061308,0,0,0.97977697,0.96925459,0.20997771)" /><path
       id="rect3"
       style="fill:#0086e6;fill-opacity:0.633232;stroke:#ffffff;stroke-width:1.33122;stroke-dasharray:none;stroke-opacity:1"
       d="M 11.402473,1.0468602 C 6.6765715,1.0468529 3.1968599,3.5806238 2.8456618,6.8863689 2.2465415,12.541228 2.8740385,23.69445 8.5446207,25.653028 c 1.9117083,0.66029 0.2570938,-6.431266 0.3502818,-5.839134 7.3219905,8.040893 5.8460415,-0.908099 5.9832325,-0.17806 0.877012,1.364492 6.993494,6.412998 8.314466,3.9584 0.337662,-0.627433 -4.026219,-9.531222 -3.233314,-16.7078651 0.321774,-2.7623942 -3.83091,-5.8395157 -8.556814,-5.8395087 z"
       sodipodi:nodetypes="ccsccscc" /><path
       id="path7"
       style="fill:#004373;fill-opacity:1;stroke:none;stroke-width:0.69434;stroke-dasharray:none;stroke-opacity:1"
       d="m 12.846785,5.7283637 a 2.718788,2.5266158 82.149422 0 1 2.703114,2.5731182 2.718788,2.5266158 82.149422 0 1 -2.344141,2.8506701 2.718788,2.5266158 82.149422 0 1 -2.664097,-2.2502414 1.2629934,1.5190234 88.284602 0 0 0.374097,0.01775 1.2629934,1.5190234 88.284602 0 0 1.432743,-1.3438666 1.2629934,1.5190234 88.284602 0 0 -1.076483,-1.1297126 2.718788,2.5266158 82.149422 0 1 1.574767,-0.7177177 z" /><ellipse
       style="fill:#ffffff;fill-opacity:1;stroke:none;stroke-width:0.468166;stroke-linecap:round;stroke-linejoin:round;stroke-opacity:1"
       id="path1"
       cx="-10.685594"
       cy="8.3532314"
       rx="0.82499999"
       ry="0.84374994"
       transform="matrix(-0.99818517,0.06021929,0.06021929,0.99818517,0,0)" /><path
       id="path3"
       style="fill:#004373;fill-opacity:1;stroke:none;stroke-width:0.707681;stroke-dasharray:none;stroke-opacity:1"
       d="M 6.5465449,5.9545465 A 2.8228236,2.5279082 86.5476 0 1 9.2395265,8.6201598 2.8228236,2.5279082 86.5476 0 1 6.8865363,11.59019 2.8228236,2.5279082 86.5476 0 1 4.2314332,9.2600095 1.3121068,1.5188918 86.5476 0 0 4.6053014,9.2772728 1.3121068,1.5188918 86.5476 0 0 6.042071,7.8761009 1.3121068,1.5188918 86.5476 0 0 4.9699875,6.7054301 2.8228236,2.5279082 86.5476 0 1 6.5465449,5.9545465 Z" /><ellipse
       style="fill:#ffffff;fill-opacity:1;stroke:none;stroke-width:0.468166;stroke-linecap:round;stroke-linejoin:round;stroke-opacity:1"
       id="ellipse4"
       cx="-4.2355924"
       cy="8.2782307"
       rx="0.82499999"
       ry="0.84374994"
       transform="matrix(-0.99818517,0.06021929,0.06021929,0.99818517,0,0)" /><path
       id="path4"
       style="fill:#004373;stroke-width:0.503775;stroke-linecap:round;stroke-linejoin:round;stroke-opacity:0.183067"
       d="m 13.969168,14.440691 c 0.32835,0.739508 -0.838618,0.608262 -2.350192,0.873417 -1.511573,0.265155 -2.7953499,0.826303 -3.1236988,0.0868 -0.3283496,-0.739507 0.6308427,-1.553948 2.1424158,-1.819103 1.511574,-0.265155 3.003126,0.119384 3.331475,0.858891 z"
       sodipodi:nodetypes="sssss" /><ellipse
       style="fill:#0086e6;fill-opacity:0.635294;stroke:#ffffff;stroke-width:0.301601;stroke-linecap:butt;stroke-linejoin:miter;stroke-dasharray:none;stroke-opacity:1"
       id="path6"
       cx="25.026207"
       cy="6.2243104"
       rx="0.70387429"
       ry="0.478484"
       transform="rotate(53.384464)" /><ellipse
       style="fill:#0086e6;fill-opacity:0.635294;stroke:#ffffff;stroke-width:0.301601;stroke-linecap:butt;stroke-linejoin:miter;stroke-dasharray:none;stroke-opacity:1"
       id="ellipse6"
       cx="21.04072"
       cy="7.2412324"
       rx="0.70387429"
       ry="0.478484"
       transform="rotate(53.384464)" /><ellipse
       style="fill:#0086e6;fill-opacity:0.635294;stroke:#ffffff;stroke-width:0.301601;stroke-linecap:butt;stroke-linejoin:miter;stroke-dasharray:none;stroke-opacity:1"
       id="ellipse7"
       cx="26.776762"
       cy="-1.538538"
       rx="0.70387429"
       ry="0.478484"
       transform="rotate(53.384464)" /><ellipse
       style="fill:#0086e6;fill-opacity:0.635294;stroke:#ffffff;stroke-width:0.301601;stroke-linecap:butt;stroke-linejoin:miter;stroke-dasharray:none;stroke-opacity:1"
       id="ellipse8"
       cx="24.415577"
       cy="2.1336994"
       rx="0.70387429"
       ry="0.478484"
       transform="rotate(53.384464)" /><ellipse
       style="fill:#0086e6;fill-opacity:0.635294;stroke:#ffffff;stroke-width:0.301601;stroke-linecap:butt;stroke-linejoin:miter;stroke-dasharray:none;stroke-opacity:1"
       id="ellipse9"
       cx="27.899603"
       cy="1.3515055"
       rx="0.70387429"
       ry="0.478484"
       transform="rotate(53.384464)" /><ellipse
       style="fill:#0086e6;fill-opacity:0.635294;stroke:#ffffff;stroke-width:0.301601;stroke-linecap:butt;stroke-linejoin:miter;stroke-dasharray:none;stroke-opacity:1"
       id="ellipse10"
       cx="25.223961"
       cy="-4.9816785"
       rx="0.70387429"
       ry="0.478484"
       transform="rotate(53.384464)" /><ellipse
       style="fill:#0086e6;fill-opacity:0.635294;stroke:#ffffff;stroke-width:0.125072;stroke-linecap:butt;stroke-linejoin:miter;stroke-dasharray:none;stroke-opacity:1"
       id="ellipse1"
       cx="28.731674"
       cy="5.3141594"
       rx="0.28869858"
       ry="0.20061974"
       transform="matrix(0.62568804,0.78007338,-0.82368636,0.56704566,0,0)" /><ellipse
       style="fill:#0086e6;fill-opacity:0.635294;stroke:#ffffff;stroke-width:0.125072;stroke-linecap:butt;stroke-linejoin:miter;stroke-dasharray:none;stroke-opacity:1"
       id="ellipse2"
       cx="27.357014"
       cy="7.8665762"
       rx="0.28869858"
       ry="0.20061974"
       transform="matrix(0.62568804,0.78007338,-0.82368636,0.56704566,0,0)" /><ellipse
       style="fill:#0086e6;fill-opacity:0.635294;stroke:#ffffff;stroke-width:0.125072;stroke-linecap:butt;stroke-linejoin:miter;stroke-dasharray:none;stroke-opacity:1"
       id="ellipse3"
       cx="30.376799"
       cy="0.73636663"
       rx="0.28869858"
       ry="0.20061974"
       transform="matrix(0.62568804,0.78007338,-0.82368636,0.56704566,0,0)" /><ellipse
       style="fill:#0086e6;fill-opacity:0.635294;stroke:#ffffff;stroke-width:0.125072;stroke-linecap:butt;stroke-linejoin:miter;stroke-dasharray:none;stroke-opacity:1"
       id="ellipse5"
       cx="33.422329"
       cy="-1.1386783"
       rx="0.28869858"
       ry="0.20061974"
       transform="matrix(0.62568804,0.78007338,-0.82368636,0.56704566,0,0)" /><ellipse
       style="fill:#0086e6;fill-opacity:0.635294;stroke:#ffffff;stroke-width:0.125072;stroke-linecap:butt;stroke-linejoin:miter;stroke-dasharray:none;stroke-opacity:1"
       id="ellipse11"
       cx="29.935768"
       cy="2.9963915"
       rx="0.28869858"
       ry="0.20061974"
       transform="matrix(0.62568804,0.78007338,-0.82368636,0.56704566,0,0)" /></g></svg>
