<?xml version="1.0" encoding="UTF-8" standalone="no"?>
<!-- Created with Inkscape (http://www.inkscape.org/) -->

<svg
   width="100"
   height="100"
   viewBox="0 0 26.458333 26.458333"
   version="1.1"
   id="svg1"
   inkscape:version="1.4.2 (ebf0e940d0, 2025-05-08)"
   sodipodi:docname="blue_ghost[0][0].svg"
   xml:space="preserve"
   xmlns:inkscape="http://www.inkscape.org/namespaces/inkscape"
   xmlns:sodipodi="http://sodipodi.sourceforge.net/DTD/sodipodi-0.dtd"
   xmlns="http://www.w3.org/2000/svg"
   xmlns:svg="http://www.w3.org/2000/svg"><sodipodi:namedview
     id="namedview1"
     pagecolor="#505050"
     bordercolor="#eeeeee"
     borderopacity="1"
     inkscape:showpageshadow="0"
     inkscape:pageopacity="0"
     inkscape:pagecheckerboard="0"
     inkscape:deskcolor="#505050"
     inkscape:document-units="px"
     inkscape:zoom="3.5277777"
     inkscape:cx="93.685041"
     inkscape:cy="69.874017"
     inkscape:window-width="1366"
     inkscape:window-height="697"
     inkscape:window-x="0"
     inkscape:window-y="0"
     inkscape:window-maximized="1"
     inkscape:current-layer="layer1" /><defs
     id="defs1"><linearGradient
       id="linearGradient13895"
       inkscape:swatch="solid"><stop
         style="stop-color:#000000;stop-opacity:1;"
         offset="0"
         id="stop13893" /></linearGradient><filter
       style="color-interpolation-filters:sRGB;"
       inkscape:label="Clean Edges"
       id="filter14269"
       x="-0.31154084"
       y="-0.29580634"
       width="1.6230817"
       height="1.5916127"><feGaussianBlur
         stdDeviation="0.204612"
         result="blur"
         id="feGaussianBlur14263" /><feComposite
         in="SourceGraphic"
         in2="blur"
         operator="in"
         result="composite1"
         id="feComposite14265" /><feComposite
         in="composite1"
         in2="composite1"
         operator="in"
         result="composite2"
         id="feComposite14267" /></filter><filter
       style="color-interpolation-filters:sRGB;"
       inkscape:label="Clean Edges"
       id="filter14269-3"
       x="-0.31154084"
       y="-0.29580634"
       width="1.6230817"
       height="1.5916127"><feGaussianBlur
         stdDeviation="0.204612"
         result="blur"
         id="feGaussianBlur14263-5" /><feComposite
         in="SourceGraphic"
         in2="blur"
         operator="in"
         result="composite1"
         id="feComposite14265-6" /><feComposite
         in="composite1"
         in2="composite1"
         operator="in"
         result="composite2"
         id="feComposite14267-2" /></filter><filter
       style="color-interpolation-filters:sRGB;"
       inkscape:label="Clean Edges"
       id="filter14269-35"
       x="-0.31154084"
       y="-0.29580634"
       width="1.6230817"
       height="1.5916127"><feGaussianBlur
         stdDeviation="0.204612"
         result="blur"
         id="feGaussianBlur14263-6" /><feComposite
         in="SourceGraphic"
         in2="blur"
         operator="in"
         result="composite1"
         id="feComposite14265-2" /><feComposite
         in="composite1"
         in2="composite1"
         operator="in"
         result="composite2"
         id="feComposite14267-9" /></filter><filter
       style="color-interpolation-filters:sRGB"
       inkscape:label="Blur"
       id="filter11"
       x="-0.1637272"
       y="-0.088277675"
       width="1.3277836"
       height="1.1765148"><feGaussianBlur
         stdDeviation="0.93 0.45"
         result="blur"
         id="feGaussianBlur11" /></filter></defs><g
     inkscape:label="Camada 1"
     inkscape:groupmode="layer"
     id="layer1"><path
       id="rect3-9"
       style="fill:none;fill-opacity:0.633232;stroke:#0099fe;stroke-width:2.11374;stroke-dasharray:none;stroke-opacity:0.441837;filter:url(#filter11)"
       d="m 10.654994,0.96053922 c -4.7259012,-7e-6 -8.2056122,2.53376408 -8.5568102,5.83950908 -0.599121,5.6548587 -0.740373,14.6705807 4.9302075,16.6291587 1.911709,0.66029 1.025844,-4.293766 1.119032,-3.701634 8.0782277,10.506079 8.4972167,3.143902 5.9832327,-0.17806 0.877012,1.364492 6.449744,3.825498 7.770716,1.3709 0.337662,-0.627433 -3.482469,-6.943722 -2.689564,-14.1203647 0.321774,-2.762394 -3.83091,-5.83951608 -8.556814,-5.83950908 z"
       sodipodi:nodetypes="ccsccscc"
       transform="matrix(1.0237662,0,0,1.0276149,0.76337861,-0.30032857)" /><path
       id="rect3"
       style="fill:#0086e6;fill-opacity:0.633232;stroke:#ffffff;stroke-width:1.33122;stroke-dasharray:none;stroke-opacity:1"
       d="M 11.390101,0.87930301 C 6.664199,0.87929571 3.1844874,3.4130666 2.8332893,6.7188117 2.2341686,12.373671 2.0929165,21.389393 7.7634982,23.347971 9.675207,24.008261 8.789342,19.054205 8.88253,19.646337 c 8.078228,10.506079 8.497217,3.143902 5.983233,-0.17806 0.877012,1.364492 6.449744,3.825498 7.770716,1.3709 C 22.974141,20.211744 19.15401,13.895455 19.946915,6.7188117 20.268689,3.9564175 16.116005,0.87929601 11.390101,0.87930301 Z"
       sodipodi:nodetypes="ccsccscc" /><path
       id="path7"
       style="fill:#004373;fill-opacity:1;stroke:none;stroke-width:0.69434;stroke-dasharray:none;stroke-opacity:1"
       d="m 12.834413,5.5608065 a 2.718788,2.5266158 82.149422 0 1 2.703114,2.5731182 2.718788,2.5266158 82.149422 0 1 -2.344141,2.8506703 2.718788,2.5266158 82.149422 0 1 -2.664097,-2.2502416 1.2629934,1.5190234 88.284602 0 0 0.374097,0.01775 1.2629934,1.5190234 88.284602 0 0 1.432743,-1.3438666 1.2629934,1.5190234 88.284602 0 0 -1.076483,-1.1297126 2.718788,2.5266158 82.149422 0 1 1.574767,-0.7177177 z" /><ellipse
       style="fill:#ffffff;fill-opacity:1;stroke:none;stroke-width:0.468166;stroke-linecap:round;stroke-linejoin:round;stroke-opacity:1"
       id="path1"
       cx="-10.683332"
       cy="8.1852331"
       rx="0.82499999"
       ry="0.84374994"
       transform="matrix(-0.99818517,0.06021929,0.06021929,0.99818517,0,0)" /><path
       id="path3"
       style="fill:#004373;fill-opacity:1;stroke:none;stroke-width:0.707681;stroke-dasharray:none;stroke-opacity:1"
       d="M 6.5341724,5.7869893 A 2.8228236,2.5279082 86.5476 0 1 9.227154,8.4526026 2.8228236,2.5279082 86.5476 0 1 6.8741638,11.422633 2.8228236,2.5279082 86.5476 0 1 4.2190607,9.0924523 1.3121068,1.5188918 86.5476 0 0 4.5929289,9.1097156 1.3121068,1.5188918 86.5476 0 0 6.0296985,7.7085437 1.3121068,1.5188918 86.5476 0 0 4.957615,6.5378729 2.8228236,2.5279082 86.5476 0 1 6.5341724,5.7869893 Z" /><ellipse
       style="fill:#ffffff;fill-opacity:1;stroke:none;stroke-width:0.468166;stroke-linecap:round;stroke-linejoin:round;stroke-opacity:1"
       id="ellipse4"
       cx="-4.2333322"
       cy="8.1102324"
       rx="0.82499999"
       ry="0.84374994"
       transform="matrix(-0.99818517,0.06021929,0.06021929,0.99818517,0,0)" /><ellipse
       style="fill:#004373;fill-opacity:1;stroke:none;stroke-width:0.325424;stroke-linecap:round;stroke-linejoin:round;stroke-dasharray:none;stroke-opacity:0.183067"
       id="path4"
       cx="10.295026"
       cy="15.239045"
       rx="1.4426527"
       ry="1.1425717"
       transform="matrix(0.99926785,-0.03825927,0.09463261,0.99551226,0,0)" /><ellipse
       style="fill:#0086e6;fill-opacity:0.635294;stroke:#ffffff;stroke-width:0.301601;stroke-linecap:butt;stroke-linejoin:miter;stroke-dasharray:none;stroke-opacity:1"
       id="path6"
       cx="26.069525"
       cy="6.1740413"
       rx="0.70387429"
       ry="0.478484"
       transform="rotate(53.384464)" /><ellipse
       style="fill:#0086e6;fill-opacity:0.635294;stroke:#ffffff;stroke-width:0.301601;stroke-linecap:butt;stroke-linejoin:miter;stroke-dasharray:none;stroke-opacity:1"
       id="ellipse6"
       cx="23.808279"
       cy="8.7058239"
       rx="0.70387429"
       ry="0.478484"
       transform="rotate(53.384464)" /><ellipse
       style="fill:#0086e6;fill-opacity:0.635294;stroke:#ffffff;stroke-width:0.301601;stroke-linecap:butt;stroke-linejoin:miter;stroke-dasharray:none;stroke-opacity:1"
       id="ellipse7"
       cx="29.392159"
       cy="-0.56077576"
       rx="0.70387429"
       ry="0.478484"
       transform="rotate(53.384464)" /><ellipse
       style="fill:#0086e6;fill-opacity:0.635294;stroke:#ffffff;stroke-width:0.301601;stroke-linecap:butt;stroke-linejoin:miter;stroke-dasharray:none;stroke-opacity:1"
       id="ellipse8"
       cx="27.130913"
       cy="1.9710069"
       rx="0.70387429"
       ry="0.478484"
       transform="rotate(53.384464)" /><ellipse
       style="fill:#0086e6;fill-opacity:0.635294;stroke:#ffffff;stroke-width:0.301601;stroke-linecap:butt;stroke-linejoin:miter;stroke-dasharray:none;stroke-opacity:1"
       id="ellipse9"
       cx="30.115973"
       cy="1.9860361"
       rx="0.70387429"
       ry="0.478484"
       transform="rotate(53.384464)" /><ellipse
       style="fill:#0086e6;fill-opacity:0.635294;stroke:#ffffff;stroke-width:0.301601;stroke-linecap:butt;stroke-linejoin:miter;stroke-dasharray:none;stroke-opacity:1"
       id="ellipse10"
       cx="31.188629"
       cy="-4.7387924"
       rx="0.70387429"
       ry="0.478484"
       transform="rotate(53.384464)" /><ellipse
       style="fill:#0086e6;fill-opacity:0.635294;stroke:#ffffff;stroke-width:0.125072;stroke-linecap:butt;stroke-linejoin:miter;stroke-dasharray:none;stroke-opacity:1"
       id="ellipse11"
       cx="17.814487"
       cy="11.332877"
       rx="0.28869858"
       ry="0.20061974"
       transform="matrix(0.62568804,0.78007338,-0.82368636,0.56704566,0,0)" /><ellipse
       style="fill:#0086e6;fill-opacity:0.635294;stroke:#ffffff;stroke-width:0.125072;stroke-linecap:butt;stroke-linejoin:miter;stroke-dasharray:none;stroke-opacity:1"
       id="ellipse12"
       cx="15.515009"
       cy="9.4040413"
       rx="0.28869858"
       ry="0.20061974"
       transform="matrix(0.62568804,0.78007338,-0.82368636,0.56704566,0,0)" /><ellipse
       style="fill:#0086e6;fill-opacity:0.635294;stroke:#ffffff;stroke-width:0.125072;stroke-linecap:butt;stroke-linejoin:miter;stroke-dasharray:none;stroke-opacity:1"
       id="ellipse13"
       cx="25.158522"
       cy="-8.4450779"
       rx="0.28869858"
       ry="0.20061974"
       transform="matrix(0.62568804,0.78007338,-0.82368636,0.56704566,0,0)" /><ellipse
       style="fill:#0086e6;fill-opacity:0.635294;stroke:#ffffff;stroke-width:0.125072;stroke-linecap:butt;stroke-linejoin:miter;stroke-dasharray:none;stroke-opacity:1"
       id="ellipse14"
       cx="27.674459"
       cy="-6.8558474"
       rx="0.28869858"
       ry="0.20061974"
       transform="matrix(0.62568804,0.78007338,-0.82368636,0.56704566,0,0)" /></g></svg>
