<?xml version="1.0" encoding="UTF-8" standalone="no"?>
<!-- Created with Inkscape (http://www.inkscape.org/) -->

<svg
   width="100"
   height="100"
   viewBox="0 0 26.458333 26.458333"
   version="1.1"
   id="svg1"
   inkscape:version="1.4.2 (ebf0e940d0, 2025-05-08)"
   sodipodi:docname="ghost[0][1].svg"
   xmlns:inkscape="http://www.inkscape.org/namespaces/inkscape"
   xmlns:sodipodi="http://sodipodi.sourceforge.net/DTD/sodipodi-0.dtd"
   xmlns="http://www.w3.org/2000/svg"
   xmlns:svg="http://www.w3.org/2000/svg">
  <sodipodi:namedview
     id="namedview1"
     pagecolor="#505050"
     bordercolor="#eeeeee"
     borderopacity="1"
     inkscape:showpageshadow="0"
     inkscape:pageopacity="0"
     inkscape:pagecheckerboard="0"
     inkscape:deskcolor="#505050"
     inkscape:document-units="px"
     inkscape:zoom="3.5277778"
     inkscape:cx="70.015748"
     inkscape:cy="43.795275"
     inkscape:window-width="1477"
     inkscape:window-height="697"
     inkscape:window-x="0"
     inkscape:window-y="0"
     inkscape:window-maximized="0"
     inkscape:current-layer="layer1" />
  <defs
     id="defs1" />
  <g
     inkscape:label="Camada 1"
     inkscape:groupmode="layer"
     id="layer1">
    <path
       id="path3"
       style="fill:#5728ff;fill-opacity:1;stroke:#3202da;stroke-width:0.780572;stroke-dasharray:none;stroke-opacity:1"
       d="m 17.86176,13.612394 c -0.150249,-0.02119 -0.310695,-0.01573 -0.473953,0.02077 l -0.313666,0.07039 c -0.653035,0.146028 -1.098033,0.729395 -0.997731,1.308147 l 0.857906,4.949881 -1.05e-4,4.44e-4 c -0.05346,0.22686 -0.0239,0.466253 0.102563,0.681861 l 0.143379,0.244971 c 0.29884,0.509549 1.022566,0.685676 1.622529,0.394953 l 5.521161,-2.67525 c 0.599967,-0.290725 0.842094,-0.935346 0.543255,-1.444893 L 24.723612,16.919142 C 24.424772,16.409594 23.70105,16.23346 23.101083,16.524189 L 19.42235,18.306886 18.747907,14.41428 c -0.07523,-0.434063 -0.435375,-0.738391 -0.886149,-0.801891 z" />
    <path
       id="rect1"
       style="fill:#5728ff;fill-opacity:1;stroke:#3202da;stroke-width:0.754619;stroke-dasharray:none;stroke-opacity:1"
       d="m 1.8366114,16.437758 c -0.1106936,0.09661 -0.2062541,0.215611 -0.2785171,0.354184 L 1.419457,17.058318 c -0.2890585,0.554283 -0.095716,1.205185 0.4336349,1.459488 l 4.527399,2.174915 2.907e-4,3.26e-4 c 0.1496991,0.166708 0.3612275,0.280514 0.6139346,0.310887 l 0.2869385,0.03471 c 0.5972194,0.07177 1.1901869,-0.351692 1.329456,-0.949335 L 9.8928436,14.589617 C 10.032112,13.991973 9.6629681,13.453065 9.06575,13.381287 L 8.7791043,13.346895 C 8.1818857,13.275122 7.5889167,13.698587 7.4496473,14.29623 L 6.5957841,17.960768 3.0355553,16.250251 C 2.6385431,16.059525 2.1686741,16.147916 1.8366114,16.437758 Z" />
    <path
       id="rect3"
       style="fill:#5728ff;fill-opacity:1;stroke:#3202da;stroke-width:0.845567;stroke-opacity:1"
       d="m 9.9626104,13.863744 c 1.7775726,1.752996 4.4944376,1.515273 6.8365056,0.206202 0.945045,-0.528223 1.636646,0.418921 1.622807,1.113459 -0.06841,3.434411 -0.194462,5.60175 -0.674986,8.916866 -0.148056,1.021433 -2.738355,-0.109519 -2.935598,0.20876 -0.955614,1.542012 -2.06888,2.917273 -3.449224,-0.05391 -0.02536,-0.05458 -3.0490126,1.403232 -3.230006,-0.08661 -0.4215474,-3.469943 -0.00275,-5.698348 0.024045,-9.183971 0.00535,-0.694636 1.0511824,-1.865638 1.8064564,-1.120806 z"
       sodipodi:nodetypes="ssssssssss" />
    <ellipse
       style="fill:#5728ff;fill-opacity:1;stroke:#3202da;stroke-width:0.803626;stroke-dasharray:none;stroke-opacity:1"
       id="path1"
       cx="13.12567"
       cy="6.7863402"
       rx="6.3740468"
       ry="6.2395792" />
    <path
       id="ellipse3"
       style="fill:#ffffff;stroke:#3202da;stroke-width:0.520334;stroke-opacity:1"
       d="M 12.98583,5.9950836 C 12.750123,7.3409735 11.456181,8.1159164 10.235758,7.9629156 9.0153348,7.8099146 8.3305805,6.7869084 8.5662881,5.4410186 8.8019956,4.0951288 9.9824223,3.1281012 11.202845,3.2811018 c 1.220424,0.1530009 2.018693,1.3680919 1.782985,2.7139818 z"
       sodipodi:nodetypes="sssss" />
    <path
       id="ellipse1"
       style="fill:#ffffff;stroke:#3202da;stroke-width:0.5134;stroke-opacity:1"
       d="m 13.362839,5.9152801 c 0.236069,1.3082515 1.588839,2.0304035 2.811133,1.8816814 C 17.396266,7.6482394 18.025226,6.6849612 17.789157,5.3767097 17.553088,4.0684581 16.370851,3.1284738 15.148557,3.2771959 13.926263,3.425918 13.12677,4.6070285 13.362839,5.9152801 Z"
       sodipodi:nodetypes="sssss" />
    <path
       id="path2"
       style="fill:#ffffff;stroke:#3202da;stroke-width:0.512196;stroke-opacity:1"
       d="m 16.700987,10.25177 c 0.03684,0.929546 -1.327415,0.06427 -3.129862,0.08417 -1.856071,0.02049 -3.496217,0.598198 -3.528563,-0.331516 -0.04001,-1.1499255 1.611674,-0.4292552 3.467831,-0.4389779 1.856161,-0.00972 3.132957,-0.7680299 3.190594,0.6863259 z"
       sodipodi:nodetypes="sssss" />
    <ellipse
       style="fill:#3202da;fill-opacity:1;stroke:none;stroke-width:0.584553;stroke-opacity:1"
       id="path7"
       cx="10.644946"
       cy="5.9641085"
       rx="1.1531249"
       ry="1.603125" />
    <ellipse
       style="fill:#3202da;fill-opacity:1;stroke:none;stroke-width:0.584553;stroke-opacity:1"
       id="ellipse7"
       cx="15.602161"
       cy="5.7053776"
       rx="1.1531249"
       ry="1.603125" />
    <path
       id="path8"
       style="fill:#ffffff;stroke:none;stroke-width:0.13307;stroke-opacity:1"
       d="m 11.2574,4.7983368 c -0.05905,0.3513565 -0.383221,0.5536622 -0.688971,0.51372 -0.305751,-0.039942 -0.477301,-0.3070071 -0.41825,-0.6583636 0.05905,-0.3513565 0.354782,-0.6038076 0.660533,-0.5638654 0.30575,0.039942 0.505739,0.3571525 0.446688,0.708509 z"
       sodipodi:nodetypes="sssss" />
    <path
       id="path9"
       style="fill:#ffffff;stroke:none;stroke-width:0.13307;stroke-opacity:1"
       d="m 16.196416,4.6017377 c -0.05905,0.3513565 -0.383221,0.5536622 -0.688971,0.51372 -0.305751,-0.039942 -0.477301,-0.3070071 -0.41825,-0.6583636 0.05905,-0.3513565 0.354782,-0.6038076 0.660533,-0.5638654 0.30575,0.039942 0.505739,0.3571525 0.446688,0.708509 z"
       sodipodi:nodetypes="sssss" />
    <path
       style="fill:#3202da;fill-opacity:1;stroke:none;stroke-width:0.66326;stroke-opacity:1"
       d="m 8.7251839,18.487595 -0.0375,5.461485 2.0812501,-2.064708 1.33125,0.799242 0.825,0.865845 1.9875,-1.598483 -2.0625,0.499526 -0.54375,-0.699337 -1.44375,-0.899147 -1.6500001,1.598484 z"
       id="path10" />
    <path
       sodipodi:type="star"
       style="fill:#ff2828;fill-opacity:1;stroke:#570000;stroke-width:0.497681;stroke-opacity:1"
       id="path5"
       inkscape:flatsided="true"
       sodipodi:sides="3"
       sodipodi:cx="8.9624996"
       sodipodi:cy="15"
       sodipodi:r1="3.0837908"
       sodipodi:r2="1.5418954"
       sodipodi:arg1="0.58631626"
       sodipodi:arg2="1.6335138"
       inkscape:rounded="0"
       inkscape:randomized="0"
       d="M 11.53125,16.70625 6.2004688,16.371478 9.1557804,11.922272 Z"
       inkscape:transform-center-x="-0.28825616"
       inkscape:transform-center-y="0.30016126"
       transform="matrix(0.27143039,0.84339887,-0.74652038,0.24801895,19.967062,7.1133639)" />
    <path
       sodipodi:type="star"
       style="fill:#ff2828;fill-opacity:1;stroke:#570000;stroke-width:0.497681;stroke-opacity:1"
       id="path6"
       inkscape:flatsided="true"
       sodipodi:sides="3"
       sodipodi:cx="8.9624996"
       sodipodi:cy="15"
       sodipodi:r1="3.0837908"
       sodipodi:r2="1.5418954"
       sodipodi:arg1="0.58631626"
       sodipodi:arg2="1.6335138"
       inkscape:rounded="0"
       inkscape:randomized="0"
       d="M 11.53125,16.70625 6.2004688,16.371478 9.1557804,11.922272 Z"
       inkscape:transform-center-x="0.45292099"
       inkscape:transform-center-y="-0.15866984"
       transform="matrix(0.0619263,0.88383327,0.78520057,-0.04760398,3.3049126,10.558017)" />
    <ellipse
       style="fill:#ff2828;fill-opacity:1;stroke:#570000;stroke-width:0.529539;stroke-opacity:1"
       id="path4"
       cx="13.307675"
       cy="18.229454"
       rx="1.2309457"
       ry="1.2028208" />
    <path
       style="fill:#ffffff;stroke:#ffffff;stroke-width:0.3032125;stroke-dasharray:none"
       d="m 11.321202,13.958192 -0.03709,2.100298"
       id="path11" />
    <path
       style="fill:#ffffff;stroke:#ffffff;stroke-width:0.303212;stroke-dasharray:none"
       d="m 12.965225,13.613477 -0.03709,2.100298"
       id="path12" />
    <path
       style="fill:#ffffff;stroke:#ffffff;stroke-width:0.303212;stroke-dasharray:none"
       d="m 14.251275,14.27639 -0.03709,2.100298"
       id="path13" />
  </g>
</svg>
