<?xml version="1.0" encoding="UTF-8" standalone="no"?>
<!-- Created with Inkscape (http://www.inkscape.org/) -->

<svg
   width="100"
   height="100"
   viewBox="0 0 26.458333 26.458333"
   version="1.1"
   id="svg1"
   inkscape:version="1.4.2 (ebf0e940d0, 2025-05-08)"
   sodipodi:docname="ghost[0][2].svg"
   xml:space="preserve"
   xmlns:inkscape="http://www.inkscape.org/namespaces/inkscape"
   xmlns:sodipodi="http://sodipodi.sourceforge.net/DTD/sodipodi-0.dtd"
   xmlns="http://www.w3.org/2000/svg"
   xmlns:svg="http://www.w3.org/2000/svg"><sodipodi:namedview
     id="namedview1"
     pagecolor="#505050"
     bordercolor="#eeeeee"
     borderopacity="1"
     inkscape:showpageshadow="0"
     inkscape:pageopacity="0"
     inkscape:pagecheckerboard="0"
     inkscape:deskcolor="#505050"
     inkscape:document-units="px"
     inkscape:zoom="3.5277777"
     inkscape:cx="11.196851"
     inkscape:cy="40.960631"
     inkscape:window-width="1366"
     inkscape:window-height="697"
     inkscape:window-x="0"
     inkscape:window-y="0"
     inkscape:window-maximized="1"
     inkscape:current-layer="layer1" /><defs
     id="defs1"><linearGradient
       id="linearGradient13895"
       inkscape:swatch="solid"><stop
         style="stop-color:#000000;stop-opacity:1;"
         offset="0"
         id="stop13893" /></linearGradient><filter
       style="color-interpolation-filters:sRGB;"
       inkscape:label="Clean Edges"
       id="filter14269"
       x="-0.31154084"
       y="-0.29580634"
       width="1.6230817"
       height="1.5916127"><feGaussianBlur
         stdDeviation="0.204612"
         result="blur"
         id="feGaussianBlur14263" /><feComposite
         in="SourceGraphic"
         in2="blur"
         operator="in"
         result="composite1"
         id="feComposite14265" /><feComposite
         in="composite1"
         in2="composite1"
         operator="in"
         result="composite2"
         id="feComposite14267" /></filter></defs><g
     inkscape:label="Camada 1"
     inkscape:groupmode="layer"
     id="layer1"><path
       id="path3"
       style="fill:#441fc7;fill-opacity:1;stroke:#3202da;stroke-width:0.754619;stroke-dasharray:none;stroke-opacity:1"
       d="m 24.611651,15.24323 c 0.230601,0.114095 0.387848,0.313311 0.554252,0.501912 1.124252,1.408611 -3.438773,4.550962 -4.461696,5.171525 l -0.270147,0.102759 c -0.562385,0.213411 -1.239847,-0.05489 -1.518866,-0.601442 L 16.347425,15.38846 c -0.27902,-0.546553 -0.05044,-1.158468 0.511949,-1.371878 l 0.269941,-0.102373 c 0.562386,-0.213409 1.239847,0.05489 1.518868,0.601441 l 1.764376,3.57142 2.990263,-2.737263 c 0.339435,-0.280676 0.816766,-0.307976 1.208829,-0.106577 z"
       sodipodi:nodetypes="cccccccccccc" /><path
       id="rect1"
       style="fill:#5728ff;fill-opacity:1;stroke:#3202da;stroke-width:0.754619;stroke-dasharray:none;stroke-opacity:1"
       d="m 2.1799711,14.415157 c -0.2425939,0.08569 -0.4225429,0.264665 -0.6103131,0.432006 -1.28468285,1.264008 2.8696734,4.929644 3.811017,5.668117 l 0.2559138,0.134338 c 0.5328185,0.279153 1.2375097,0.09382 1.5799074,-0.41543 l 3.1509838,-4.68624 c 0.342398,-0.509251 0.188656,-1.144116 -0.344163,-1.423269 L 9.7675605,13.99075 C 9.234742,13.711598 8.5300506,13.896928 8.1876525,14.406178 L 6.0087171,17.74089 3.3673703,14.665574 C 3.063948,14.346309 2.5933107,14.262105 2.1799711,14.415157 Z"
       sodipodi:nodetypes="cccccccccccc" /><path
       id="rect3"
       style="fill:#5728ff;fill-opacity:1;stroke:#3202da;stroke-width:1.02976;stroke-dasharray:none;stroke-opacity:1"
       d="m 16.541994,13.889272 c -1.777689,1.748981 -4.494732,1.511802 -6.836952,0.205729 -0.945107,-0.527013 -1.636753,0.417962 -1.622913,1.110909 0.06842,3.426547 -0.721935,9.7849 0.618709,10.601846 1.053164,0.641766 2.898037,-3.605125 2.954563,-3.238803 0.923242,5.983136 2.781317,2.240997 3.674733,-0.162644 0.02089,-0.05621 1.408323,4.293756 2.31031,3.396962 0.949075,-0.943612 1.192669,-7.570902 0.708124,-10.795769 -0.103054,-0.685872 -1.051251,-1.861366 -1.806574,-1.118239 z"
       sodipodi:nodetypes="ssssssssss" /><ellipse
       style="fill:#5728ff;fill-opacity:1;stroke:#3202da;stroke-width:1.04166;stroke-dasharray:none;stroke-opacity:1"
       id="path1"
       cx="13.12567"
       cy="6.7863402"
       rx="6.3740468"
       ry="6.2395792" /><path
       id="path12"
       style="fill-opacity:0.220034;stroke-width:0.515133;stroke-linecap:round;stroke-linejoin:round"
       d="m 10.897458,8.5584242 c 1.714963,2.5902908 4.543439,3.5950588 6.415707,2.2442118 C 19.185434,9.4517911 19.790253,6.1242852 18.07529,3.5339936 16.360327,0.94370287 12.497708,0.25713228 10.625439,1.607979 8.7531704,2.9588255 9.1824955,5.9681335 10.897458,8.5584242 Z"
       sodipodi:nodetypes="sssss" /><path
       id="ellipse3"
       style="fill:#ffffff;stroke:#3202da;stroke-width:0.497315;stroke-opacity:1"
       d="M 14.211022,6.328398 C 14.009634,7.7673566 12.904093,8.5958871 11.861367,8.4323061 10.818641,8.2687251 10.233589,7.1749778 10.434977,5.7360193 10.636365,4.2970611 11.644918,3.2631632 12.687644,3.4267439 13.730371,3.5903248 14.41241,4.8894396 14.211022,6.328398 Z"
       sodipodi:nodetypes="sssss" /><path
       id="ellipse1"
       style="fill:#ffffff;stroke:#3202da;stroke-width:0.497165;stroke-opacity:1"
       d="m 14.84595,6.299852 c 0.201395,1.438045 1.355466,2.2318428 2.398226,2.0683657 C 18.286938,8.2047406 18.823514,7.1458943 18.622119,5.7078493 18.420725,4.2698043 17.412139,3.2365627 16.369377,3.4000398 15.326617,3.5635169 14.644556,4.861807 14.84595,6.299852 Z"
       sodipodi:nodetypes="sssss" /><path
       id="path2"
       style="fill:#000000;fill-opacity:1;stroke:none;stroke-width:0.234979;stroke-opacity:1"
       d="m 16.14265,10.732628 c -0.03275,0.374311 -0.789499,0.276869 -1.702094,0.254475 -0.912596,-0.02238 -1.635452,0.03874 -1.602702,-0.335569 0.03275,-0.374312 0.677363,-0.433448 1.589958,-0.411054 0.912596,0.02238 1.74759,0.117831 1.714838,0.492148 z"
       sodipodi:nodetypes="sssss" /><ellipse
       style="fill:#3202da;fill-opacity:1;stroke:none;stroke-width:0.542261;stroke-opacity:1"
       id="path7"
       cx="12.347003"
       cy="6.163856"
       rx="0.98868608"
       ry="1.6089946" /><ellipse
       style="fill:#3202da;fill-opacity:1;stroke:none;stroke-width:0.542261;stroke-opacity:1"
       id="ellipse7"
       cx="16.870127"
       cy="6.2501545"
       rx="0.98868608"
       ry="1.6089946" /><path
       id="path8"
       style="fill:#ffffff;stroke:none;stroke-width:0.123443;stroke-opacity:1"
       d="m 13.80426,5.8720645 c -0.05063,0.352643 -0.328572,0.5556894 -0.590722,0.515601 -0.26215,-0.040088 -0.409236,-0.3081312 -0.358606,-0.6607742 0.05063,-0.3526429 0.304189,-0.6060183 0.566339,-0.5659299 0.262149,0.040088 0.433619,0.3584602 0.382989,0.7111031 z"
       sodipodi:nodetypes="sssss" /><path
       id="path9"
       style="fill:#ffffff;stroke:none;stroke-width:0.123443;stroke-opacity:1"
       d="m 18.124383,6.039541 c -0.05063,0.3526429 -0.328573,0.5556894 -0.590722,0.5156009 -0.26215,-0.040088 -0.409237,-0.3081312 -0.358606,-0.6607741 0.05063,-0.3526429 0.304189,-0.6060184 0.566339,-0.5659299 0.262149,0.040088 0.433619,0.3584602 0.382989,0.7111031 z"
       sodipodi:nodetypes="sssss" /><path
       style="fill:#000000;fill-opacity:0.354771;stroke:none;stroke-width:0.600604;stroke-linecap:round;stroke-linejoin:round;stroke-dasharray:none;stroke-opacity:1"
       d="m 9.4499998,17.1 c 0,0 -0.255028,1.999499 0.4875,2.325 C 10.680029,19.750501 12.075,18.15 12.075,18.15 c 0.689899,0.266796 1.335035,0.220244 1.95,-0.0375 0,0 2.08672,1.363775 2.7375,1.1625 0.65078,-0.201275 0.6,-0.9375 0.6,-0.9375 L 17.325,16.575 Z"
       id="path37"
       sodipodi:nodetypes="czcczccc" /><g
       id="g36"
       transform="translate(-0.375,-0.0375)"><path
         id="path5"
         style="fill:#f00000;stroke:#360000;stroke-width:0.719436;stroke-linejoin:round"
         inkscape:transform-center-x="-0.58161334"
         inkscape:transform-center-y="-0.03194566"
         transform="matrix(0.03092799,0.88546009,-0.78587005,0.03484738,22.911917,7.8577367)"
         d="M 11.53125,16.70625 C 7.9600881,17.401508 7.452298,16.7192 6.2004688,16.371478 l 2.9553116,-4.449206 z"
         sodipodi:nodetypes="cccc" /><path
         id="path6"
         style="fill:#f00000;stroke:#360000;stroke-width:0.719436;stroke-linejoin:round"
         inkscape:transform-center-x="0.45292099"
         inkscape:transform-center-y="-0.15866984"
         transform="matrix(0.0619263,0.88383327,0.78520057,-0.04760398,3.5305361,8.9590875)"
         d="M 11.53125,16.70625 C 10.115111,17.205038 9.1416417,18.45273 6.2004688,16.371478 L 9.1557804,11.922272 Z"
         sodipodi:nodetypes="cccc" /><ellipse
         style="fill:#f00000;fill-opacity:1;stroke:#360000;stroke-width:0.529539;stroke-opacity:1"
         id="path4"
         cx="13.608298"
         cy="16.255524"
         rx="1.2309457"
         ry="1.2028208" /><ellipse
         style="fill:#ff4949;fill-opacity:1;stroke:none;stroke-width:0.236675;stroke-opacity:1"
         id="ellipse34"
         cx="13.446051"
         cy="15.957132"
         rx="0.56842333"
         ry="0.52033025" /><path
         id="path35"
         style="fill:#ff2626;fill-opacity:1;stroke:none;stroke-width:0.370417;stroke-linejoin:round"
         inkscape:transform-center-x="-0.32391905"
         inkscape:transform-center-y="-0.021818096"
         d="m 10.483932,14.668762 c -0.130629,0.765317 -0.42078,1.08839 -0.05497,3.231494 l 0.9532,-0.719638 a 1.294864,1.4982773 0 0 1 -0.334714,-1.005166 1.294864,1.4982773 0 0 1 0.224773,-0.843521 z" /><path
         id="path36"
         style="fill:#750000;fill-opacity:1;stroke:none;stroke-width:0.293739;stroke-linejoin:round"
         inkscape:transform-center-x="0.29171004"
         inkscape:transform-center-y="-0.015235181"
         d="m 15.747002,14.94205 c 0.117639,0.534407 0.491632,0.899216 0.162195,2.395706 l -0.951218,-0.475993 c 0.114435,-0.218863 0.142311,-0.429232 0.142329,-0.688631 -0.05305,-0.22338 -0.01752,-0.388853 -0.149387,-0.5625 z"
         sodipodi:nodetypes="cccccc" /></g><path
       id="path40"
       style="fill:#381aa5;fill-opacity:1;stroke:none;stroke-width:0.391254;stroke-linecap:round;stroke-linejoin:round"
       d="m 5.2918838,17.770292 c -1e-7,0.608144 -0.4015229,1.101141 -0.8968263,1.101141 -0.4953033,0 -0.896826,-0.492997 -0.8968262,-1.101141 -10e-8,-0.608143 0.387925,-0.829644 0.8832285,-0.829644 0.4953036,0 0.9104241,0.221501 0.910424,0.829644 z"
       sodipodi:nodetypes="sssss" /><path
       id="path38"
       style="fill:#5728ff;stroke:#3202da;stroke-width:0.8806;stroke-linecap:round;stroke-linejoin:round"
       d="m 4.9412872,15.959784 c -3e-7,1.270497 -0.9736043,2.300437 -2.1746056,2.300437 -1.2010013,0 -2.17460526,-1.02994 -2.17460557,-2.300437 -3.1e-7,-1.270496 0.94063237,-1.733242 2.14163417,-1.733242 1.2010017,0 2.2075772,0.462746 2.207577,1.733242 z"
       sodipodi:nodetypes="sssss" /><path
       id="path39"
       style="fill:#441fc7;fill-opacity:1;stroke:#3202da;stroke-width:0.821768;stroke-linecap:round;stroke-linejoin:round"
       d="m 26.024808,16.868914 c -1e-6,1.289027 -0.835671,2.333989 -1.866522,2.333989 -1.030851,0 -1.866521,-1.044962 -1.866521,-2.333989 -1e-6,-1.289027 0.807369,-1.758522 1.838221,-1.758522 1.030851,0 1.894822,0.469495 1.894822,1.758522 z"
       sodipodi:nodetypes="sssss" /><path
       id="path41"
       style="fill:#5728ff;fill-opacity:1;stroke:none;stroke-width:0.451149;stroke-linecap:round;stroke-linejoin:round"
       d="m 24.463317,16.558822 c 0,0.808591 -0.401523,1.464082 -0.896826,1.464082 -0.495304,0 -0.896826,-0.655491 -0.896827,-1.464082 0,-0.80859 0.387925,-1.103099 0.883229,-1.103099 0.495304,0 0.910424,0.294509 0.910424,1.103099 z"
       sodipodi:nodetypes="sssss" /></g></svg>
