<?xml version="1.0" encoding="UTF-8" standalone="no"?>
<!-- Created with Inkscape (http://www.inkscape.org/) -->

<svg
   width="100"
   height="100"
   viewBox="0 0 26.458333 26.458333"
   version="1.1"
   id="svg1"
   inkscape:version="1.4.2 (ebf0e940d0, 2025-05-08)"
   sodipodi:docname="ghost.svg"
   xmlns:inkscape="http://www.inkscape.org/namespaces/inkscape"
   xmlns:sodipodi="http://sodipodi.sourceforge.net/DTD/sodipodi-0.dtd"
   xmlns="http://www.w3.org/2000/svg"
   xmlns:svg="http://www.w3.org/2000/svg">
  <sodipodi:namedview
     id="namedview1"
     pagecolor="#505050"
     bordercolor="#eeeeee"
     borderopacity="1"
     inkscape:showpageshadow="0"
     inkscape:pageopacity="0"
     inkscape:pagecheckerboard="0"
     inkscape:deskcolor="#505050"
     inkscape:document-units="px"
     inkscape:zoom="4.9890311"
     inkscape:cx="123.97197"
     inkscape:cy="69.652802"
     inkscape:window-width="1366"
     inkscape:window-height="697"
     inkscape:window-x="0"
     inkscape:window-y="0"
     inkscape:window-maximized="1"
     inkscape:current-layer="layer1" />
  <defs
     id="defs1" />
  <g
     inkscape:label="Camada 1"
     inkscape:groupmode="layer"
     id="layer1">
    <path
       id="path3"
       style="fill:#5728ff;fill-opacity:1;stroke:#3202da;stroke-width:0.825172;stroke-dasharray:none;stroke-opacity:1"
       d="m 16.935158,13.920601 c -0.128168,0.08056 -0.244253,0.190328 -0.339478,0.328176 l -0.182766,0.265059 c -0.380898,0.551392 -0.282515,1.336032 0.220718,1.759396 l 4.304036,3.620853 2.5e-4,4.44e-4 c 0.127802,0.226748 0.327025,0.409686 0.581201,0.509018 l 0.288568,0.113056 c 0.600683,0.234762 1.272826,-0.09071 1.506951,-0.7296 l 2.154627,-5.879283 c 0.234125,-0.638895 -0.06146,-1.342344 -0.662142,-1.577106 l -0.288318,-0.112609 c -0.600684,-0.234762 -1.272828,0.0907 -1.506951,0.729599 L 21.57637,16.86511 18.191823,14.017515 c -0.377424,-0.317523 -0.872196,-0.338674 -1.256663,-0.09691 z" />
    <path
       id="rect1"
       style="fill:#5728ff;fill-opacity:1;stroke:#3202da;stroke-width:0.754619;stroke-dasharray:none;stroke-opacity:1"
       d="m 1.8352566,14.154542 c -0.1377834,0.05101 -0.2693708,0.128327 -0.386128,0.232212 l -0.2241851,0.199794 c -0.46703165,0.415531 -0.51740183,1.092671 -0.1128381,1.518359 l 3.4601539,3.640732 1.561e-4,4.08e-4 c 0.080752,0.208999 0.2380886,0.390496 0.4635451,0.508618 l 0.2559138,0.134338 c 0.5328185,0.279153 1.2375097,0.09382 1.5799074,-0.41543 l 3.1509833,-4.68624 c 0.342398,-0.509251 0.188656,-1.144116 -0.3441621,-1.423269 L 9.422846,13.730135 C 8.8900275,13.450983 8.1853361,13.636313 7.842938,14.145563 L 5.7435521,17.268143 3.0226558,14.404959 C 2.7192335,14.085694 2.2485962,14.00149 1.8352566,14.154542 Z" />
    <path
       id="rect3"
       style="fill:#5728ff;fill-opacity:1;stroke:#3202da;stroke-width:0.858109;stroke-opacity:1"
       d="m 9.966452,13.479713 c 1.775452,1.807541 4.489077,1.562421 6.828351,0.212618 0.943918,-0.544659 1.634694,0.431956 1.620871,1.148104 -0.06833,3.541274 0.04952,7.20105 -0.43043,10.619316 -0.14788,1.053215 -2.915082,-1.489953 -3.175847,-1.209744 -0.96491,1.036864 -2.102818,1.07853 -3.44511,-0.05559 -0.04714,-0.03984 -3.1016255,2.759394 -3.282403,1.223199 -0.4210446,-3.577911 0.053496,-7.188153 0.080266,-10.782232 0.00534,-0.71625 1.0499286,-1.923688 1.8043017,-1.15568 z"
       sodipodi:nodetypes="sssssssss" />
    <ellipse
       style="fill:#5728ff;fill-opacity:1;stroke:#3202da;stroke-width:0.803626;stroke-dasharray:none;stroke-opacity:1"
       id="path1"
       cx="13.12567"
       cy="6.7863402"
       rx="6.3740468"
       ry="6.2395792" />
    <path
       id="ellipse3"
       style="fill:#ffffff;stroke:#3202da;stroke-width:0.56063;stroke-opacity:1"
       transform="rotate(8.4284515)"
       d="m 13.776252,4.5124869 c 0,1.593731 -1.135471,2.679625 -2.358187,2.679625 -1.222716,-2e-7 -2.0696587,-1.0858941 -2.0696587,-2.679625 0,-1.5937308 0.9912067,-2.885705 2.2139227,-2.8857052 1.222716,0 2.213923,1.2919742 2.213923,2.8857052 z"
       sodipodi:nodetypes="sssss" />
    <path
       id="ellipse1"
       style="fill:#ffffff;stroke:#3202da;stroke-width:0.56063;stroke-opacity:1"
       transform="matrix(-0.98919967,0.14657426,0.14657426,0.98919967,0,0)"
       d="m -12.291213,8.3750229 c 0,1.5937309 -1.19661,2.6507741 -2.419326,2.6507741 -1.222716,0 -2.00852,-1.0570432 -2.00852,-2.6507741 0,-1.593731 0.991207,-2.8857052 2.213923,-2.8857052 1.222716,0 2.213923,1.2919742 2.213923,2.8857052 z"
       sodipodi:nodetypes="sssss" />
    <path
       id="path2"
       style="fill:#ffffff;stroke:#3202da;stroke-width:0.333402;stroke-opacity:1"
       d="m 15.362568,11.055819 c -0.22585,0.576678 -1.465679,0.908721 -2.635063,0.843164 -1.169385,-0.06556 -1.825502,-0.503888 -1.599652,-1.080566 0.22585,-0.576678 1.356911,-0.991024 2.526295,-0.9254673 1.169385,0.065557 1.93427,0.5861913 1.70842,1.1628693 z"
       sodipodi:nodetypes="sssss" />
    <path
       sodipodi:type="star"
       style="fill:#ff2828;fill-opacity:1;stroke:#570000;stroke-width:0.497681;stroke-opacity:1"
       id="path5"
       inkscape:flatsided="true"
       sodipodi:sides="3"
       sodipodi:cx="8.9624996"
       sodipodi:cy="15"
       sodipodi:r1="3.0837908"
       sodipodi:r2="1.5418954"
       sodipodi:arg1="0.58631626"
       sodipodi:arg2="1.6335138"
       inkscape:rounded="0"
       inkscape:randomized="0"
       d="M 11.53125,16.70625 6.2004688,16.371478 9.1557804,11.922272 Z"
       inkscape:transform-center-x="-0.58161334"
       inkscape:transform-center-y="-0.03194566"
       transform="matrix(0.03092799,0.88546009,-0.78587005,0.03484738,22.606744,7.5209618)" />
    <path
       sodipodi:type="star"
       style="fill:#ff2828;fill-opacity:1;stroke:#570000;stroke-width:0.497681;stroke-opacity:1"
       id="path6"
       inkscape:flatsided="true"
       sodipodi:sides="3"
       sodipodi:cx="8.9624996"
       sodipodi:cy="15"
       sodipodi:r1="3.0837908"
       sodipodi:r2="1.5418954"
       sodipodi:arg1="0.58631626"
       sodipodi:arg2="1.6335138"
       inkscape:rounded="0"
       inkscape:randomized="0"
       d="M 11.53125,16.70625 6.2004688,16.371478 9.1557804,11.922272 Z"
       inkscape:transform-center-x="0.45292099"
       inkscape:transform-center-y="-0.15866984"
       transform="matrix(0.0619263,0.88383327,0.78520057,-0.04760398,3.2253631,8.6223126)" />
    <ellipse
       style="fill:#ff2828;fill-opacity:1;stroke:#570000;stroke-width:0.529539;stroke-opacity:1"
       id="path4"
       cx="13.228126"
       cy="16.293749"
       rx="1.2309457"
       ry="1.2028208" />
    <ellipse
       style="fill:#3202da;fill-opacity:1;stroke:none;stroke-width:0.584553;stroke-opacity:1"
       id="path7"
       cx="11.334375"
       cy="5.9906249"
       rx="1.1531249"
       ry="1.603125" />
    <ellipse
       style="fill:#3202da;fill-opacity:1;stroke:none;stroke-width:0.584553;stroke-opacity:1"
       id="ellipse7"
       cx="15.946876"
       cy="6.1031251"
       rx="1.1531249"
       ry="1.603125" />
    <path
       id="path8"
       style="fill:#ffffff;stroke:none;stroke-width:0.13307;stroke-opacity:1"
       d="m 11.17785,5.0104688 c -0.05905,0.3513565 -0.383221,0.5536622 -0.688971,0.51372 -0.305751,-0.039942 -0.477301,-0.3070071 -0.41825,-0.6583636 0.05905,-0.3513565 0.354782,-0.6038076 0.660533,-0.5638654 0.30575,0.039942 0.505739,0.3571525 0.446688,0.708509 z"
       sodipodi:nodetypes="sssss" />
    <path
       id="path9"
       style="fill:#ffffff;stroke:none;stroke-width:0.13307;stroke-opacity:1"
       d="m 16.09035,4.9729688 c -0.05905,0.3513565 -0.383221,0.5536622 -0.688971,0.51372 -0.305751,-0.039942 -0.477301,-0.3070071 -0.41825,-0.6583636 0.05905,-0.3513565 0.354782,-0.6038076 0.660533,-0.5638654 0.30575,0.039942 0.505739,0.3571525 0.446688,0.708509 z"
       sodipodi:nodetypes="sssss" />
    <path
       style="fill:#3202da;fill-opacity:1;stroke:none;stroke-width:0.66326;stroke-opacity:1"
       d="m 8.7439339,19.275095 -0.0375,5.461485 2.0812501,-2.064708 1.33125,0.799242 0.825,0.865845 1.9875,-1.598483 -2.0625,0.499526 -0.54375,-0.699337 -1.44375,-0.899147 -1.6500001,1.598484 z"
       id="path10" />
  </g>
</svg>
