<?xml version="1.0" encoding="UTF-8" standalone="no"?>
<!-- Created with Inkscape (http://www.inkscape.org/) -->

<svg
   width="100mm"
   height="100mm"
   viewBox="0 0 100 100"
   version="1.1"
   id="svg3527"
   inkscape:version="1.4.2 (ebf0e940d0, 2025-05-08)"
   sodipodi:docname="ceramica_1.svg"
   xmlns:inkscape="http://www.inkscape.org/namespaces/inkscape"
   xmlns:sodipodi="http://sodipodi.sourceforge.net/DTD/sodipodi-0.dtd"
   xmlns="http://www.w3.org/2000/svg"
   xmlns:svg="http://www.w3.org/2000/svg">
  <sodipodi:namedview
     id="namedview3529"
     pagecolor="#505050"
     bordercolor="#ffffff"
     borderopacity="1"
     inkscape:pageshadow="0"
     inkscape:pageopacity="0"
     inkscape:pagecheckerboard="1"
     inkscape:document-units="mm"
     showgrid="false"
     width="100mm"
     inkscape:zoom="0.6085106"
     inkscape:cx="-91.206299"
     inkscape:cy="324.56296"
     inkscape:window-width="1366"
     inkscape:window-height="697"
     inkscape:window-x="0"
     inkscape:window-y="0"
     inkscape:window-maximized="1"
     inkscape:current-layer="layer1"
     inkscape:snap-global="false"
     inkscape:showpageshadow="0"
     inkscape:deskcolor="#505050" />
  <defs
     id="defs3524" />
  <g
     inkscape:label="Camada 1"
     inkscape:groupmode="layer"
     id="layer1">
    <rect
       style="fill:#0b1a1a;fill-opacity:1;stroke:none;stroke-width:0.31362"
       id="rect3553"
       width="100.90731"
       height="101.5415"
       x="-0.54961258"
       y="0.15696889"
       ry="1.0655825" />
    <rect
       style="fill:#050c0c;stroke-width:0.836913"
       id="rect5"
       width="71.329193"
       height="9.8385077"
       x="21.829193"
       y="69.091286"
       ry="0.065970369" />
    <rect
       style="fill:#050c0c;stroke-width:0.682001"
       id="rect1"
       width="5.2267084"
       height="89.161491"
       x="8.608696"
       y="6.456522"
       ry="0.59785658" />
    <rect
       style="fill:#050c0c;stroke-width:0.912832"
       id="rect3"
       width="84.857147"
       height="9.8385077"
       x="8.608696"
       y="86.001221"
       ry="0.065970369" />
    <rect
       style="fill:#050c0c;stroke-width:0.529792"
       id="rect6"
       width="5.2267084"
       height="53.804348"
       x="21.829191"
       y="24.4603"
       ry="0.3607755" />
    <rect
       style="fill:#050c0c;stroke-width:0.668448"
       id="rect9"
       width="45.503105"
       height="9.8385077"
       x="36.758438"
       y="51.480701"
       ry="0.065970369" />
    <path
       id="path12"
       style="fill:#0e2121;stroke-width:0.155739;fill-opacity:1"
       d="m 36.75993,52.154971 h 2.619418 c 8.28e-4,0 0.0015,0.0277 0.0015,0.06215 v 9.142468 c 0,0.03442 -6.66e-4,0.06215 -0.0015,0.06215 H 36.75993 c -8.28e-4,0 -0.0015,-0.0277 -0.0015,-0.06215 v -9.142468 c 0,-0.03442 6.67e-4,-0.06215 0.0015,-0.06215 z" />
    <rect
       style="fill:#050c0c;stroke-width:0.912832"
       id="rect2"
       width="84.857147"
       height="9.8385077"
       x="8.608696"
       y="6.456522"
       ry="0.065970369" />
    <path
       id="path14"
       style="fill:#0e2121;fill-opacity:1;stroke-width:0.364578"
       d="m 8.6243404,5.9888372 h 1.4842646 c 4.59e-4,0 8.34e-4,0.2679379 8.34e-4,0.6010266 V 95.00913 c 0,0.332828 -3.78e-4,0.601026 -8.34e-4,0.601026 H 8.6243404 c -4.59e-4,0 -8.34e-4,-0.267935 -8.34e-4,-0.601026 V 6.5898638 c 0,-0.332828 3.78e-4,-0.6010266 8.34e-4,-0.6010266 z" />
    <path
       id="path1"
       style="fill:#000000;fill-opacity:0.378371;stroke-width:1.21967"
       inkscape:transform-center-x="-0.26363865"
       inkscape:transform-center-y="-16.211906"
       d="M 100.16335,99.946433 0.32590625,100.99044 -0.00138469,-0.03175406 Z"
       sodipodi:nodetypes="cccc" />
    <rect
       style="fill:#050c0c;stroke-width:0.615237"
       id="rect4"
       width="5.2267084"
       height="72.559006"
       x="88.460846"
       y="6.456522"
       ry="0.48653153" />
    <rect
       style="fill:#050c0c;stroke-width:0.76728"
       id="rect7"
       width="59.953415"
       height="9.8385077"
       x="22.000673"
       y="24.424799"
       ry="0.065970369" />
    <rect
       style="fill:#050c0c;stroke-width:0.390345"
       id="rect8"
       width="5.2267084"
       height="29.208075"
       x="77.034836"
       y="24.767754"
       ry="0.19584955" />
    <path
       id="rect10"
       style="fill:#0e2121;stroke-width:0.371104;fill-opacity:1"
       d="m 36.781405,51.386337 h 40.239513 c 0.01272,0 0.02297,0.01024 0.02297,0.02297 v 3.379203 c 0,0.01272 -0.01024,0.02297 -0.02297,0.02297 H 36.781405 c -0.01272,0 -0.02297,-0.01024 -0.02297,-0.02297 v -3.379203 c 0,-0.01272 0.01024,-0.02297 0.02297,-0.02297 z" />
    <path
       id="path10"
       style="fill:#0e2121;stroke-width:0.454552;fill-opacity:1"
       d="m 21.855807,24.039811 h 60.371277 c 0.01909,0 0.03445,0.01024 0.03445,0.02297 v 3.379203 c 0,0.01272 -0.01536,0.02297 -0.03445,0.02297 H 21.855807 c -0.01908,0 -0.03446,-0.01024 -0.03446,-0.02297 v -3.379203 c 0,-0.01272 0.01536,-0.02297 0.03446,-0.02297 z" />
    <path
       id="path11"
       style="fill:#122d2d;stroke-width:0.534726"
       d="m 10.054706,5.9954116 h 83.545603 c 0.02643,0 0.04768,0.01024 0.04768,0.02297 v 3.379203 c 0,0.01272 -0.02126,0.02297 -0.04768,0.02297 H 10.054706 c -0.02641,0 -0.04769,-0.01024 -0.04769,-0.02297 v -3.379203 c 0,-0.01272 0.02126,-0.02297 0.04769,-0.02297 z" />
    <path
       id="path13"
       style="fill:#0e2121;stroke-width:0.285606;fill-opacity:1"
       d="m 21.745348,24.048687 h 1.484264 c 4.59e-4,0 8.34e-4,0.164433 8.34e-4,0.368849 v 54.262757 c 0,0.204256 -3.78e-4,0.368849 -8.34e-4,0.368849 h -1.484264 c -4.59e-4,0 -8.34e-4,-0.164432 -8.34e-4,-0.368849 V 24.417536 c 0,-0.204256 3.78e-4,-0.368849 8.34e-4,-0.368849 z" />
    <path
       id="path2"
       style="fill:#040909;fill-opacity:1;stroke:none;stroke-width:0.4148"
       d="m 27.053361,31.09105 h 50.273591 c 0.0159,0 0.02869,0.01024 0.02869,0.02297 v 3.379203 c 0,0.01272 -0.01279,0.02297 -0.02869,0.02297 H 27.053361 c -0.01589,0 -0.0287,-0.01024 -0.0287,-0.02297 V 31.11402 c 0,-0.01272 0.01279,-0.02297 0.0287,-0.02297 z" />
    <path
       id="path3"
       style="fill:#040909;fill-opacity:1;stroke:none;stroke-width:0.255647"
       d="m 79.743159,31.09105 h -2.766386 c -8.75e-4,0 -0.0016,0.07069 -0.0016,0.158561 v 23.326445 c 0,0.0878 7.03e-4,0.15856 0.0016,0.15856 h 2.766386 c 8.74e-4,0 0.0016,-0.07069 0.0016,-0.15856 V 31.249611 c 0,-0.0878 -7.04e-4,-0.158561 -0.0016,-0.158561 z" />
  </g>
</svg>
