<?xml version="1.0" encoding="UTF-8" standalone="no"?>
<!-- Created with Inkscape (http://www.inkscape.org/) -->

<svg
   width="100"
   height="100"
   viewBox="0 0 26.458335 26.458335"
   version="1.1"
   id="svg1"
   inkscape:version="1.4.2 (ebf0e940d0, 2025-05-08)"
   sodipodi:docname="heart_icon.svg"
   xml:space="preserve"
   xmlns:inkscape="http://www.inkscape.org/namespaces/inkscape"
   xmlns:sodipodi="http://sodipodi.sourceforge.net/DTD/sodipodi-0.dtd"
   xmlns="http://www.w3.org/2000/svg"
   xmlns:svg="http://www.w3.org/2000/svg"><sodipodi:namedview
     id="namedview1"
     pagecolor="#505050"
     bordercolor="#eeeeee"
     borderopacity="1"
     inkscape:showpageshadow="0"
     inkscape:pageopacity="0"
     inkscape:pagecheckerboard="0"
     inkscape:deskcolor="#505050"
     inkscape:document-units="px"
     inkscape:zoom="4.9890312"
     inkscape:cx="46.802674"
     inkscape:cy="46.401794"
     inkscape:window-width="1366"
     inkscape:window-height="697"
     inkscape:window-x="0"
     inkscape:window-y="0"
     inkscape:window-maximized="1"
     inkscape:current-layer="layer1" /><defs
     id="defs1"><linearGradient
       id="linearGradient13895"
       inkscape:swatch="solid"><stop
         style="stop-color:#000000;stop-opacity:1;"
         offset="0"
         id="stop13893" /></linearGradient><filter
       style="color-interpolation-filters:sRGB"
       inkscape:label="Clean Edges"
       id="filter14269"
       x="-0.31154084"
       y="-0.29580635"
       width="1.6230817"
       height="1.5916127"><feGaussianBlur
         stdDeviation="0.204612"
         result="blur"
         id="feGaussianBlur14263" /><feComposite
         in="SourceGraphic"
         in2="blur"
         operator="in"
         result="composite1"
         id="feComposite14265" /><feComposite
         in="composite1"
         in2="composite1"
         operator="in"
         result="composite2"
         id="feComposite14267" /></filter><filter
       style="color-interpolation-filters:sRGB"
       inkscape:label="Clean Edges"
       id="filter14269-3"
       x="-0.31154084"
       y="-0.29580635"
       width="1.6230817"
       height="1.5916127"><feGaussianBlur
         stdDeviation="0.204612"
         result="blur"
         id="feGaussianBlur14263-5" /><feComposite
         in="SourceGraphic"
         in2="blur"
         operator="in"
         result="composite1"
         id="feComposite14265-6" /><feComposite
         in="composite1"
         in2="composite1"
         operator="in"
         result="composite2"
         id="feComposite14267-2" /></filter></defs><g
     inkscape:label="Camada 1"
     inkscape:groupmode="layer"
     id="layer1"><path
       id="path1"
       style="fill:#0053ce;fill-opacity:1;stroke:#ffffff;stroke-width:3.41448;stroke-dasharray:none;stroke-opacity:1"
       d="M 8.2378689,3.7990089 C 7.5317274,3.7504416 6.8461888,3.8137857 6.2012308,3.9871954 2.38654,5.0125711 0.79186971,9.5823325 2.6393974,14.194152 c 0.7261585,1.812769 1.7972082,3.424064 3.279404,4.629588 0,0 3.8771613,4.580242 6.7182436,4.619139 2.922971,0.04002 7.233323,-4.457076 7.233323,-4.457076 0,0 3.151093,-3.074334 4.024667,-5.189026 C 25.698843,9.429822 24.141854,5.1027351 20.417321,4.1317325 18.184787,3.5496634 15.561768,4.3006941 13.4119,6.1375453 11.850743,4.7497798 10.018497,3.9216494 8.2378689,3.7990089 Z"
       sodipodi:nodetypes="ccccsccccc" /><path
       id="path3"
       style="fill:#002766;fill-opacity:1;stroke:none;stroke-width:2.86769;stroke-dasharray:none;stroke-opacity:1"
       d="m 3.9982831,13.947703 c 0.6148949,1.510052 1.5219008,2.852281 2.7769905,3.856493 0,0 3.4342894,3.94741 5.8400524,3.979812 1.552631,0.02091 4.62539,-2.474138 5.733039,-3.68875 C 14.033295,18.583116 7.9103551,16.489028 7.9105574,10.994997 7.9106147,8.9763551 7.7337743,7.1215216 9.1273671,5.6211862 4.8476417,4.3803496 1.6322803,8.1376951 3.9982831,13.947703 Z"
       sodipodi:nodetypes="ccscccc" /></g></svg>
