<?xml version="1.0" encoding="UTF-8" standalone="no"?>
<!-- Created with Inkscape (http://www.inkscape.org/) -->

<svg
   width="100"
   height="100"
   viewBox="0 0 26.458335 26.458335"
   version="1.1"
   id="svg1"
   inkscape:version="1.4.2 (ebf0e940d0, 2025-05-08)"
   sodipodi:docname="heart_icon.svg"
   xml:space="preserve"
   xmlns:inkscape="http://www.inkscape.org/namespaces/inkscape"
   xmlns:sodipodi="http://sodipodi.sourceforge.net/DTD/sodipodi-0.dtd"
   xmlns="http://www.w3.org/2000/svg"
   xmlns:svg="http://www.w3.org/2000/svg"><sodipodi:namedview
     id="namedview1"
     pagecolor="#505050"
     bordercolor="#eeeeee"
     borderopacity="1"
     inkscape:showpageshadow="0"
     inkscape:pageopacity="0"
     inkscape:pagecheckerboard="0"
     inkscape:deskcolor="#505050"
     inkscape:document-units="px"
     inkscape:zoom="4.9890312"
     inkscape:cx="46.802674"
     inkscape:cy="46.401794"
     inkscape:window-width="1366"
     inkscape:window-height="697"
     inkscape:window-x="0"
     inkscape:window-y="0"
     inkscape:window-maximized="1"
     inkscape:current-layer="layer1" /><defs
     id="defs1"><linearGradient
       id="linearGradient13895"
       inkscape:swatch="solid"><stop
         style="stop-color:#000000;stop-opacity:1;"
         offset="0"
         id="stop13893" /></linearGradient><filter
       style="color-interpolation-filters:sRGB"
       inkscape:label="Clean Edges"
       id="filter14269"
       x="-0.31154084"
       y="-0.29580635"
       width="1.6230817"
       height="1.5916127"><feGaussianBlur
         stdDeviation="0.204612"
         result="blur"
         id="feGaussianBlur14263" /><feComposite
         in="SourceGraphic"
         in2="blur"
         operator="in"
         result="composite1"
         id="feComposite14265" /><feComposite
         in="composite1"
         in2="composite1"
         operator="in"
         result="composite2"
         id="feComposite14267" /></filter><filter
       style="color-interpolation-filters:sRGB"
       inkscape:label="Clean Edges"
       id="filter14269-3"
       x="-0.31154084"
       y="-0.29580635"
       width="1.6230817"
       height="1.5916127"><feGaussianBlur
         stdDeviation="0.204612"
         result="blur"
         id="feGaussianBlur14263-5" /><feComposite
         in="SourceGraphic"
         in2="blur"
         operator="in"
         result="composite1"
         id="feComposite14265-6" /><feComposite
         in="composite1"
         in2="composite1"
         operator="in"
         result="composite2"
         id="feComposite14267-2" /></filter></defs><g
     inkscape:label="Camada 1"
     inkscape:groupmode="layer"
     id="layer1"><g
       id="g4"
       transform="matrix(1.0362617,0,0,0.99486446,-0.58946247,0.46677423)"><path
         id="path1"
         style="fill:#0053ce;fill-opacity:1;stroke:#001129;stroke-width:3.36285;stroke-dasharray:none;stroke-opacity:1"
         d="M 8.5184383,3.3494358 C 7.8370067,3.3006178 7.175457,3.3642889 6.5530679,3.5385938 2.8718638,4.5692625 1.3329955,9.1626132 3.115873,13.798239 c 0.7007482,1.822127 1.7343189,3.441739 3.1646485,4.653486 0,0 3.7414885,4.603886 6.4831535,4.642984 2.820688,0.04023 6.980209,-4.480084 6.980209,-4.480084 0,0 3.040827,-3.090204 3.883832,-5.215812 C 25.368404,9.0093155 23.865898,4.6598919 20.271697,3.683877 18.117286,3.0988032 15.586054,3.8537108 13.511416,5.7000439 12.004888,4.3051147 10.236757,3.4727094 8.5184383,3.3494358 Z"
         sodipodi:nodetypes="ccccsccccc" /><path
         id="path3"
         style="fill:#002766;fill-opacity:1;stroke:none;stroke-width:2.82433;stroke-dasharray:none;stroke-opacity:1"
         d="m 4.4272075,13.550518 c 0.593378,1.517847 1.4686452,2.867005 2.6798158,3.8764 0,0 3.3141137,3.967787 5.6356927,4.000356 1.4983,0.02102 4.463535,-2.486909 5.532424,-3.707791 C 14.111066,18.209859 8.2023851,16.104961 8.2025804,10.58257 8.2026357,8.5535078 8.0319834,6.6890995 9.3768105,5.1810193 5.2468447,3.9337774 2.1439978,7.7105185 4.4272075,13.550518 Z"
         sodipodi:nodetypes="ccscccc" /></g></g></svg>
