<?xml version="1.0" encoding="UTF-8" standalone="no"?>
<!-- Created with Inkscape (http://www.inkscape.org/) -->

<svg
   width="200"
   height="200"
   viewBox="0 0 52.916665 52.916666"
   version="1.1"
   id="svg1"
   xml:space="preserve"
   sodipodi:docname="hexopoda0.svg"
   inkscape:version="1.4.2 (ebf0e940d0, 2025-05-08)"
   xmlns:inkscape="http://www.inkscape.org/namespaces/inkscape"
   xmlns:sodipodi="http://sodipodi.sourceforge.net/DTD/sodipodi-0.dtd"
   xmlns="http://www.w3.org/2000/svg"
   xmlns:svg="http://www.w3.org/2000/svg"><sodipodi:namedview
     id="namedview1"
     pagecolor="#505050"
     bordercolor="#eeeeee"
     borderopacity="1"
     inkscape:showpageshadow="0"
     inkscape:pageopacity="0"
     inkscape:pagecheckerboard="0"
     inkscape:deskcolor="#505050"
     inkscape:document-units="px"
     inkscape:zoom="2.4945156"
     inkscape:cx="144.91792"
     inkscape:cy="85.587759"
     inkscape:window-width="1366"
     inkscape:window-height="697"
     inkscape:window-x="0"
     inkscape:window-y="0"
     inkscape:window-maximized="1"
     inkscape:current-layer="layer1" /><defs
     id="defs1"><inkscape:path-effect
       effect="fillet_chamfer"
       id="path-effect68"
       is_visible="true"
       lpeversion="1"
       nodesatellites_param="F,0,0,1,0,0,0,1 @ F,0,0,1,0,0,0,1 @ F,0,0,1,0,0,0,1 @ F,0,0,1,0,0,0,1 @ F,0,0,1,0,0,0,1 @ F,0,0,1,0,0,0,1 @ F,0,0,1,0,0,0,1 @ F,0,0,1,0,0,0,1 @ F,0,0,1,0,0,0,1"
       radius="0"
       unit="px"
       method="auto"
       mode="F"
       chamfer_steps="1"
       flexible="false"
       use_knot_distance="true"
       apply_no_radius="true"
       apply_with_radius="true"
       only_selected="false"
       hide_knots="false" /><inkscape:path-effect
       effect="fillet_chamfer"
       id="path-effect66"
       is_visible="true"
       lpeversion="1"
       nodesatellites_param="F,0,0,1,0,0,0,1 @ F,0,0,1,0,0.44929322,0,1 @ F,0,0,1,0,0.44929322,0,1 @ F,0,0,1,0,0,0,1 @ F,0,0,1,0,0,0,1 @ F,0,0,1,0,0,0,1 @ F,0,0,1,0,0,0,1 @ F,0,0,1,0,0,0,1 @ F,0,0,1,0,0,0,1 @ F,0,0,1,0,0,0,1"
       radius="0"
       unit="px"
       method="auto"
       mode="F"
       chamfer_steps="1"
       flexible="false"
       use_knot_distance="true"
       apply_no_radius="true"
       apply_with_radius="true"
       only_selected="false"
       hide_knots="false" /></defs><g
     inkscape:label="Camada 1"
     inkscape:groupmode="layer"
     id="layer1"><rect
       style="fill:#e59d39;fill-opacity:1;stroke:#6a2a00;stroke-width:1.42583955;stroke-dasharray:none;stroke-opacity:1"
       id="rect3"
       width="51.562153"
       height="51.712154"
       x="0.69392371"
       y="0.69392371" /><ellipse
       style="fill:#935e12;fill-opacity:1;stroke:#6a2a00;stroke-width:0.756664;stroke-dasharray:none;stroke-opacity:1"
       id="path2"
       cx="25.996885"
       cy="10.491089"
       rx="7.4941168"
       ry="8.2473173" /><g
       id="g23"><path
         id="path4"
         style="fill:#935e12;fill-opacity:1;stroke:#6a2a00;stroke-width:1.00438;stroke-miterlimit:4;stroke-dasharray:none;stroke-opacity:1"
         d="m 16.477236,23.901222 c -0.28315,0.481663 -0.720021,0.824278 -1.153238,0.853583 l -5.253878,0.400752 c -0.083575,0.02798 -0.8964246,0.0857 -0.9833405,0.05959 -0.1428545,0.03082 -0.2958673,-0.05276 -0.4261146,-0.08377 L 3.1222002,23.813044 C 2.5374943,23.673862 2.3737503,22.921298 2.7541685,22.126214 L 3.0411217,21.524331 C 3.4215359,20.729244 4.199307,20.201707 4.7840115,20.340895 l 5.0105068,1.324714 c 0.3719017,-0.0184 0.4685917,-0.05471 0.5108967,-0.04722 L 16.031007,21.1177 c 0.630137,-0.04262 1.006895,0.594124 0.845109,1.426855 l -0.122174,0.630411 c -0.05054,0.260227 -0.148028,0.507318 -0.276767,0.726242 z"
         sodipodi:nodetypes="cccccccccccccccc" /><path
         id="path31"
         style="fill:#6a2a00;fill-opacity:1;stroke:none;stroke-width:0.730455;stroke-miterlimit:4;stroke-dasharray:none;stroke-opacity:1"
         d="m 16.733356,23.828128 c -0.33083,0.278148 -0.806588,0.496823 -1.25149,0.550536 l -5.399507,0.675243 c -0.087769,0.02206 -0.9227704,0.124319 -1.009262,0.118282 -0.1485323,0.02886 -0.2975448,-0.0016 -0.4278597,-0.0063 -4.0862685,-1.497784 -6.6192126,-1.065503 -5.6616626,-3.213727 0.4572824,-0.451449 1.5329007,1.017832 2.1179005,1.039262 l 5.0016118,0.252985 c 0.381347,-0.04256 0.483223,-0.07019 0.525772,-0.06999 l 5.889835,-0.769479 c 0.647131,-0.07812 0.976717,0.223153 0.73942,0.675048 l -0.179333,0.342076 c -0.07414,0.141215 -0.195075,0.279678 -0.345485,0.406105 z"
         sodipodi:nodetypes="cccccccccccccc" /></g><path
       id="ellipse54"
       style="fill:#6a2a00;fill-opacity:1;stroke:none;stroke-width:0.684603;stroke-dasharray:none;stroke-opacity:1"
       d="m 22.391788,3.8998914 a 6.6970742,7.5547442 0 0 0 -3.040514,6.3289396 6.6970742,7.5547442 0 0 0 6.697074,7.554966 6.6970742,7.5547442 0 0 0 4.888651,-2.39146 6.6970742,7.5547442 0 0 1 -3.65656,1.225552 6.6970742,7.5547442 0 0 1 -6.697074,-7.5549647 6.6970742,7.5547442 0 0 1 1.808423,-5.1630329 z" /><path
       id="path3"
       style="fill:#935e12;fill-opacity:1;stroke:#6a2a00;stroke-width:0.617264;stroke-dasharray:none;stroke-opacity:1"
       d="m 23.271447,8.1471152 c 1.180433,0.3302201 2.45532,1.5067958 2.165669,2.4372028 -0.289655,0.930408 -2.034158,1.26232 -3.214592,0.932099 -1.180432,-0.330219 -2.518318,-1.561794 -2.228667,-2.4922021 0.289655,-0.9304062 2.097157,-1.207322 3.27759,-0.8770997 z"
       sodipodi:nodetypes="sssss" /><path
       id="path23"
       style="fill:#935e12;fill-opacity:1;stroke:#6a2a00;stroke-width:0.617264;stroke-dasharray:none;stroke-opacity:1"
       d="m 28.630561,8.0410492 c -1.180433,0.3302201 -2.45532,1.5067958 -2.165669,2.4372028 0.289655,0.930408 2.034158,1.26232 3.214592,0.932099 1.180432,-0.330219 2.518318,-1.561794 2.228667,-2.4922021 -0.289655,-0.9304062 -2.097157,-1.207322 -3.27759,-0.8770997 z"
       sodipodi:nodetypes="sssss" /><g
       id="g25"
       transform="matrix(0.58529046,-0.16284209,0.11554873,0.82484613,-2.1222924,13.986685)"><path
         id="path24"
         style="fill:#935e12;fill-opacity:1;stroke:#6a2a00;stroke-width:1.00438;stroke-miterlimit:4;stroke-dasharray:none;stroke-opacity:1"
         d="m 16.477236,23.901222 c -0.28315,0.481663 -0.720021,0.824278 -1.153238,0.853583 l -5.253878,0.400752 c -0.083575,0.02798 -0.8964246,0.0857 -0.9833405,0.05959 -0.1428545,0.03082 -0.2958673,-0.05276 -0.4261146,-0.08377 L 3.1222002,23.813044 C 2.5374943,23.673862 2.3737503,22.921298 2.7541685,22.126214 L 3.0411217,21.524331 C 3.4215359,20.729244 4.199307,20.201707 4.7840115,20.340895 l 5.0105068,1.324714 c 0.3719017,-0.0184 0.4685917,-0.05471 0.5108967,-0.04722 L 16.031007,21.1177 c 0.630137,-0.04262 1.006895,0.594124 0.845109,1.426855 l -0.122174,0.630411 c -0.05054,0.260227 -0.148028,0.507318 -0.276767,0.726242 z"
         sodipodi:nodetypes="cccccccccccccccc" /><path
         id="path25"
         style="fill:#6a2a00;fill-opacity:1;stroke:none;stroke-width:0.730455;stroke-miterlimit:4;stroke-dasharray:none;stroke-opacity:1"
         d="m 16.733356,23.828128 c -0.33083,0.278148 -0.806588,0.496823 -1.25149,0.550536 l -5.399507,0.675243 c -0.087769,0.02206 -0.9227704,0.124319 -1.009262,0.118282 -0.1485323,0.02886 -0.2975448,-0.0016 -0.4278597,-0.0063 -4.0862685,-1.497784 -6.6192126,-1.065503 -5.6616626,-3.213727 0.4572824,-0.451449 1.5329007,1.017832 2.1179005,1.039262 l 5.0016118,0.252985 c 0.381347,-0.04256 0.483223,-0.07019 0.525772,-0.06999 l 5.889835,-0.769479 c 0.647131,-0.07812 0.976717,0.223153 0.73942,0.675048 l -0.179333,0.342076 c -0.07414,0.141215 -0.195075,0.279678 -0.345485,0.406105 z"
         sodipodi:nodetypes="cccccccccccccc" /></g><g
       id="g29"
       transform="matrix(-0.97296415,0.23095622,0.23095622,0.97296415,46.408396,9.2834814)"><path
         id="path28"
         style="fill:#935e12;fill-opacity:1;stroke:#6a2a00;stroke-width:1.00438;stroke-miterlimit:4;stroke-dasharray:none;stroke-opacity:1"
         d="m 16.477236,23.901222 c -0.28315,0.481663 -0.720021,0.824278 -1.153238,0.853583 l -5.253878,0.400752 c -0.083575,0.02798 -0.8964246,0.0857 -0.9833405,0.05959 -0.1428545,0.03082 -0.2958673,-0.05276 -0.4261146,-0.08377 L 3.1222002,23.813044 C 2.5374943,23.673862 2.3737503,22.921298 2.7541685,22.126214 L 3.0411217,21.524331 C 3.4215359,20.729244 4.199307,20.201707 4.7840115,20.340895 l 5.0105068,1.324714 c 0.3719017,-0.0184 0.4685917,-0.05471 0.5108967,-0.04722 L 16.031007,21.1177 c 0.630137,-0.04262 1.006895,0.594124 0.845109,1.426855 l -0.122174,0.630411 c -0.05054,0.260227 -0.148028,0.507318 -0.276767,0.726242 z"
         sodipodi:nodetypes="cccccccccccccccc" /><path
         id="path29"
         style="fill:#6a2a00;fill-opacity:1;stroke:none;stroke-width:0.730455;stroke-miterlimit:4;stroke-dasharray:none;stroke-opacity:1"
         d="m 16.733356,23.828128 c -0.33083,0.278148 -0.806588,0.496823 -1.25149,0.550536 l -5.399507,0.675243 c -0.087769,0.02206 -0.9227704,0.124319 -1.009262,0.118282 -0.1485323,0.02886 -0.2975448,-0.0016 -0.4278597,-0.0063 -4.0862685,-1.497784 -6.6192126,-1.065503 -5.6616626,-3.213727 0.4572824,-0.451449 1.5329007,1.017832 2.1179005,1.039262 l 5.0016118,0.252985 c 0.381347,-0.04256 0.483223,-0.07019 0.525772,-0.06999 l 5.889835,-0.769479 c 0.647131,-0.07812 0.976717,0.223153 0.73942,0.675048 l -0.179333,0.342076 c -0.07414,0.141215 -0.195075,0.279678 -0.345485,0.406105 z"
         sodipodi:nodetypes="cccccccccccccc" /></g><rect
       style="fill:#935e12;fill-opacity:1;stroke:#6a2a00;stroke-width:0.705014;stroke-dasharray:none;stroke-opacity:1"
       id="rect29"
       width="2.3181047"
       height="15.052454"
       x="24.974621"
       y="20.132967"
       ry="1.9594486" /><g
       id="g32"
       transform="matrix(0.41505671,0,0,0.69778901,12.211172,-6.0144708)"><path
         id="path30"
         style="fill:#935e12;fill-opacity:1;stroke:#6a2a00;stroke-width:1.00438;stroke-miterlimit:4;stroke-dasharray:none;stroke-opacity:1"
         d="m 35.961633,41.473267 c 0.184499,0.527384 0.546738,0.948126 0.966076,1.060783 l 5.076773,1.410749 c 0.07657,0.04364 0.862852,0.257699 0.953179,0.248918 0.13418,0.0579 0.300483,0.0055 0.43427,3.47e-4 L 49.080859,43.9734 c 0.600591,-0.0233 0.906993,-0.729898 0.687773,-1.583607 L 49.603687,41.743729 C 49.384471,40.890018 48.723602,40.22183 48.123011,40.245135 l -5.172203,0.32918 c -0.361296,-0.09008 -0.449122,-0.144432 -0.492077,-0.145278 L 36.938533,38.82888 c -0.60995,-0.163859 -1.1029,0.387856 -1.105464,1.236154 l -0.0022,0.642136 c -8.18e-4,0.265089 0.04697,0.526382 0.130866,0.766095 z"
         sodipodi:nodetypes="cccccccccccccccc" /><path
         id="path32"
         style="fill:#6a2a00;fill-opacity:1;stroke:none;stroke-width:0.5908;stroke-miterlimit:4;stroke-dasharray:none;stroke-opacity:1"
         d="m 36.380635,42.254433 c 0.257938,0.23133 0.662335,0.441873 1.068332,0.537208 l 4.923025,1.172756 c 0.07797,0.02653 0.839693,0.206431 0.921663,0.213865 0.133526,0.03919 0.27845,0.03849 0.40114,0.05265 4.09641,-0.465452 6.384513,0.162501 5.885831,-1.411706 -0.344166,-0.364866 -1.620856,0.481709 -2.171689,0.418356 l -4.722369,-0.494663 c -0.348642,-0.07937 -0.438779,-0.111528 -0.478592,-0.117051 l -5.364009,-1.301424 c -0.590543,-0.138664 -0.954253,0.02042 -0.815819,0.356342 l 0.104514,0.254243 c 0.04325,0.10497 0.130746,0.214308 0.248022,0.31946 z"
         sodipodi:nodetypes="cccccccccccccc" /></g><g
       id="g34"
       transform="matrix(0.4935398,0,0,0.68944945,9.4103485,-0.41820594)"><path
         id="path33"
         style="fill:#935e12;fill-opacity:1;stroke:#6a2a00;stroke-width:1.00438;stroke-miterlimit:4;stroke-dasharray:none;stroke-opacity:1"
         d="m 35.961633,41.473267 c 0.184499,0.527384 0.546738,0.948126 0.966076,1.060783 l 5.076773,1.410749 c 0.07657,0.04364 0.862852,0.257699 0.953179,0.248918 0.13418,0.0579 0.300483,0.0055 0.43427,3.47e-4 L 49.080859,43.9734 c 0.600591,-0.0233 0.906993,-0.729898 0.687773,-1.583607 L 49.603687,41.743729 C 49.384471,40.890018 48.723602,40.22183 48.123011,40.245135 l -5.172203,0.32918 c -0.361296,-0.09008 -0.449122,-0.144432 -0.492077,-0.145278 L 36.938533,38.82888 c -0.60995,-0.163859 -1.1029,0.387856 -1.105464,1.236154 l -0.0022,0.642136 c -8.18e-4,0.265089 0.04697,0.526382 0.130866,0.766095 z"
         sodipodi:nodetypes="cccccccccccccccc" /><path
         id="path34"
         style="fill:#6a2a00;fill-opacity:1;stroke:none;stroke-width:0.5908;stroke-miterlimit:4;stroke-dasharray:none;stroke-opacity:1"
         d="m 36.380635,42.254433 c 0.257938,0.23133 0.662335,0.441873 1.068332,0.537208 l 4.923025,1.172756 c 0.07797,0.02653 0.839693,0.206431 0.921663,0.213865 0.133526,0.03919 0.27845,0.03849 0.40114,0.05265 4.09641,-0.465452 6.384513,0.162501 5.885831,-1.411706 -0.344166,-0.364866 -1.620856,0.481709 -2.171689,0.418356 l -4.722369,-0.494663 c -0.348642,-0.07937 -0.438779,-0.111528 -0.478592,-0.117051 l -5.364009,-1.301424 c -0.590543,-0.138664 -0.954253,0.02042 -0.815819,0.356342 l 0.104514,0.254243 c 0.04325,0.10497 0.130746,0.214308 0.248022,0.31946 z"
         sodipodi:nodetypes="cccccccccccccc" /></g><g
       id="g36"
       transform="matrix(0.40274754,0.10033191,-0.16867695,0.67709496,19.437445,2.5504533)"><path
         id="path35"
         style="fill:#935e12;fill-opacity:1;stroke:#6a2a00;stroke-width:1.00438;stroke-miterlimit:4;stroke-dasharray:none;stroke-opacity:1"
         d="m 35.961633,41.473267 c 0.184499,0.527384 0.546738,0.948126 0.966076,1.060783 l 5.076773,1.410749 c 0.07657,0.04364 0.862852,0.257699 0.953179,0.248918 0.13418,0.0579 0.300483,0.0055 0.43427,3.47e-4 L 49.080859,43.9734 c 0.600591,-0.0233 0.906993,-0.729898 0.687773,-1.583607 L 49.603687,41.743729 C 49.384471,40.890018 48.723602,40.22183 48.123011,40.245135 l -5.172203,0.32918 c -0.361296,-0.09008 -0.449122,-0.144432 -0.492077,-0.145278 L 36.938533,38.82888 c -0.60995,-0.163859 -1.1029,0.387856 -1.105464,1.236154 l -0.0022,0.642136 c -8.18e-4,0.265089 0.04697,0.526382 0.130866,0.766095 z"
         sodipodi:nodetypes="cccccccccccccccc" /><path
         id="path36"
         style="fill:#6a2a00;fill-opacity:1;stroke:none;stroke-width:0.5908;stroke-miterlimit:4;stroke-dasharray:none;stroke-opacity:1"
         d="m 36.380635,42.254433 c 0.257938,0.23133 0.662335,0.441873 1.068332,0.537208 l 4.923025,1.172756 c 0.07797,0.02653 0.839693,0.206431 0.921663,0.213865 0.133526,0.03919 0.27845,0.03849 0.40114,0.05265 4.09641,-0.465452 6.384513,0.162501 5.885831,-1.411706 -0.344166,-0.364866 -1.620856,0.481709 -2.171689,0.418356 l -4.722369,-0.494663 c -0.348642,-0.07937 -0.438779,-0.111528 -0.478592,-0.117051 l -5.364009,-1.301424 c -0.590543,-0.138664 -0.954253,0.02042 -0.815819,0.356342 l 0.104514,0.254243 c 0.04325,0.10497 0.130746,0.214308 0.248022,0.31946 z"
         sodipodi:nodetypes="cccccccccccccc" /></g><g
       id="g38"
       transform="matrix(-0.41505671,0,0,0.69778901,39.899649,-6.3144708)"><path
         id="path37"
         style="fill:#935e12;fill-opacity:1;stroke:#6a2a00;stroke-width:1.00438;stroke-miterlimit:4;stroke-dasharray:none;stroke-opacity:1"
         d="m 35.961633,41.473267 c 0.184499,0.527384 0.546738,0.948126 0.966076,1.060783 l 5.076773,1.410749 c 0.07657,0.04364 0.862852,0.257699 0.953179,0.248918 0.13418,0.0579 0.300483,0.0055 0.43427,3.47e-4 L 49.080859,43.9734 c 0.600591,-0.0233 0.906993,-0.729898 0.687773,-1.583607 L 49.603687,41.743729 C 49.384471,40.890018 48.723602,40.22183 48.123011,40.245135 l -5.172203,0.32918 c -0.361296,-0.09008 -0.449122,-0.144432 -0.492077,-0.145278 L 36.938533,38.82888 c -0.60995,-0.163859 -1.1029,0.387856 -1.105464,1.236154 l -0.0022,0.642136 c -8.18e-4,0.265089 0.04697,0.526382 0.130866,0.766095 z"
         sodipodi:nodetypes="cccccccccccccccc" /><path
         id="path38"
         style="fill:#6a2a00;fill-opacity:1;stroke:none;stroke-width:0.5908;stroke-miterlimit:4;stroke-dasharray:none;stroke-opacity:1"
         d="m 36.380635,42.254433 c 0.257938,0.23133 0.662335,0.441873 1.068332,0.537208 l 4.923025,1.172756 c 0.07797,0.02653 0.839693,0.206431 0.921663,0.213865 0.133526,0.03919 0.27845,0.03849 0.40114,0.05265 4.09641,-0.465452 6.384513,0.162501 5.885831,-1.411706 -0.344166,-0.364866 -1.620856,0.481709 -2.171689,0.418356 l -4.722369,-0.494663 c -0.348642,-0.07937 -0.438779,-0.111528 -0.478592,-0.117051 l -5.364009,-1.301424 c -0.590543,-0.138664 -0.954253,0.02042 -0.815819,0.356342 l 0.104514,0.254243 c 0.04325,0.10497 0.130746,0.214308 0.248022,0.31946 z"
         sodipodi:nodetypes="cccccccccccccc" /></g><g
       id="g40"
       transform="matrix(-0.4935398,0,0,0.68944945,42.700473,-0.71820591)"><path
         id="path39"
         style="fill:#935e12;fill-opacity:1;stroke:#6a2a00;stroke-width:1.00438;stroke-miterlimit:4;stroke-dasharray:none;stroke-opacity:1"
         d="m 35.961633,41.473267 c 0.184499,0.527384 0.546738,0.948126 0.966076,1.060783 l 5.076773,1.410749 c 0.07657,0.04364 0.862852,0.257699 0.953179,0.248918 0.13418,0.0579 0.300483,0.0055 0.43427,3.47e-4 L 49.080859,43.9734 c 0.600591,-0.0233 0.906993,-0.729898 0.687773,-1.583607 L 49.603687,41.743729 C 49.384471,40.890018 48.723602,40.22183 48.123011,40.245135 l -5.172203,0.32918 c -0.361296,-0.09008 -0.449122,-0.144432 -0.492077,-0.145278 L 36.938533,38.82888 c -0.60995,-0.163859 -1.1029,0.387856 -1.105464,1.236154 l -0.0022,0.642136 c -8.18e-4,0.265089 0.04697,0.526382 0.130866,0.766095 z"
         sodipodi:nodetypes="cccccccccccccccc" /><path
         id="path40"
         style="fill:#6a2a00;fill-opacity:1;stroke:none;stroke-width:0.5908;stroke-miterlimit:4;stroke-dasharray:none;stroke-opacity:1"
         d="m 36.380635,42.254433 c 0.257938,0.23133 0.662335,0.441873 1.068332,0.537208 l 4.923025,1.172756 c 0.07797,0.02653 0.839693,0.206431 0.921663,0.213865 0.133526,0.03919 0.27845,0.03849 0.40114,0.05265 4.09641,-0.465452 6.384513,0.162501 5.885831,-1.411706 -0.344166,-0.364866 -1.620856,0.481709 -2.171689,0.418356 l -4.722369,-0.494663 c -0.348642,-0.07937 -0.438779,-0.111528 -0.478592,-0.117051 l -5.364009,-1.301424 c -0.590543,-0.138664 -0.954253,0.02042 -0.815819,0.356342 l 0.104514,0.254243 c 0.04325,0.10497 0.130746,0.214308 0.248022,0.31946 z"
         sodipodi:nodetypes="cccccccccccccc" /></g><g
       id="g42"
       transform="matrix(-0.40274754,0.10033191,0.16867695,0.67709496,32.673376,2.2504533)"><path
         id="path41"
         style="fill:#935e12;fill-opacity:1;stroke:#6a2a00;stroke-width:1.00438;stroke-miterlimit:4;stroke-dasharray:none;stroke-opacity:1"
         d="m 35.961633,41.473267 c 0.184499,0.527384 0.546738,0.948126 0.966076,1.060783 l 5.076773,1.410749 c 0.07657,0.04364 0.862852,0.257699 0.953179,0.248918 0.13418,0.0579 0.300483,0.0055 0.43427,3.47e-4 L 49.080859,43.9734 c 0.600591,-0.0233 0.906993,-0.729898 0.687773,-1.583607 L 49.603687,41.743729 C 49.384471,40.890018 48.723602,40.22183 48.123011,40.245135 l -5.172203,0.32918 c -0.361296,-0.09008 -0.449122,-0.144432 -0.492077,-0.145278 L 36.938533,38.82888 c -0.60995,-0.163859 -1.1029,0.387856 -1.105464,1.236154 l -0.0022,0.642136 c -8.18e-4,0.265089 0.04697,0.526382 0.130866,0.766095 z"
         sodipodi:nodetypes="cccccccccccccccc" /><path
         id="path42"
         style="fill:#6a2a00;fill-opacity:1;stroke:none;stroke-width:0.5908;stroke-miterlimit:4;stroke-dasharray:none;stroke-opacity:1"
         d="m 36.380635,42.254433 c 0.257938,0.23133 0.662335,0.441873 1.068332,0.537208 l 4.923025,1.172756 c 0.07797,0.02653 0.839693,0.206431 0.921663,0.213865 0.133526,0.03919 0.27845,0.03849 0.40114,0.05265 4.09641,-0.465452 6.384513,0.162501 5.885831,-1.411706 -0.344166,-0.364866 -1.620856,0.481709 -2.171689,0.418356 l -4.722369,-0.494663 c -0.348642,-0.07937 -0.438779,-0.111528 -0.478592,-0.117051 l -5.364009,-1.301424 c -0.590543,-0.138664 -0.954253,0.02042 -0.815819,0.356342 l 0.104514,0.254243 c 0.04325,0.10497 0.130746,0.214308 0.248022,0.31946 z"
         sodipodi:nodetypes="cccccccccccccc" /></g><g
       id="g44"
       transform="matrix(0.55591108,-0.2450415,0.23256805,0.79977169,2.1170443,13.705949)"><path
         id="path43"
         style="fill:#935e12;fill-opacity:1;stroke:#6a2a00;stroke-width:1.00438;stroke-miterlimit:4;stroke-dasharray:none;stroke-opacity:1"
         d="m 16.477236,23.901222 c -0.28315,0.481663 -0.720021,0.824278 -1.153238,0.853583 l -5.253878,0.400752 c -0.083575,0.02798 -0.8964246,0.0857 -0.9833405,0.05959 -0.1428545,0.03082 -0.2958673,-0.05276 -0.4261146,-0.08377 L 3.1222002,23.813044 C 2.5374943,23.673862 2.3737503,22.921298 2.7541685,22.126214 L 3.0411217,21.524331 C 3.4215359,20.729244 4.199307,20.201707 4.7840115,20.340895 l 5.0105068,1.324714 c 0.3719017,-0.0184 0.4685917,-0.05471 0.5108967,-0.04722 L 16.031007,21.1177 c 0.630137,-0.04262 1.006895,0.594124 0.845109,1.426855 l -0.122174,0.630411 c -0.05054,0.260227 -0.148028,0.507318 -0.276767,0.726242 z"
         sodipodi:nodetypes="cccccccccccccccc" /><path
         id="path44"
         style="fill:#6a2a00;fill-opacity:1;stroke:none;stroke-width:0.730455;stroke-miterlimit:4;stroke-dasharray:none;stroke-opacity:1"
         d="m 16.733356,23.828128 c -0.33083,0.278148 -0.806588,0.496823 -1.25149,0.550536 l -5.399507,0.675243 c -0.087769,0.02206 -0.9227704,0.124319 -1.009262,0.118282 -0.1485323,0.02886 -0.2975448,-0.0016 -0.4278597,-0.0063 -4.0862685,-1.497784 -6.6192126,-1.065503 -5.6616626,-3.213727 0.4572824,-0.451449 1.5329007,1.017832 2.1179005,1.039262 l 5.0016118,0.252985 c 0.381347,-0.04256 0.483223,-0.07019 0.525772,-0.06999 l 5.889835,-0.769479 c 0.647131,-0.07812 0.976717,0.223153 0.73942,0.675048 l -0.179333,0.342076 c -0.07414,0.141215 -0.195075,0.279678 -0.345485,0.406105 z"
         sodipodi:nodetypes="cccccccccccccc" /></g><g
       id="g49"
       transform="matrix(-1,0,0,1,85.716175,8.4852812)"><g
         id="g46"
         transform="matrix(0.58529046,-0.16284209,0.11554873,0.82484613,32.13703,-1.2868212)"><path
           id="path45"
           style="fill:#935e12;fill-opacity:1;stroke:#6a2a00;stroke-width:1.00438;stroke-miterlimit:4;stroke-dasharray:none;stroke-opacity:1"
           d="m 16.477236,23.901222 c -0.28315,0.481663 -0.720021,0.824278 -1.153238,0.853583 l -5.253878,0.400752 c -0.083575,0.02798 -0.8964246,0.0857 -0.9833405,0.05959 -0.1428545,0.03082 -0.2958673,-0.05276 -0.4261146,-0.08377 L 3.1222002,23.813044 C 2.5374943,23.673862 2.3737503,22.921298 2.7541685,22.126214 L 3.0411217,21.524331 C 3.4215359,20.729244 4.199307,20.201707 4.7840115,20.340895 l 5.0105068,1.324714 c 0.3719017,-0.0184 0.4685917,-0.05471 0.5108967,-0.04722 L 16.031007,21.1177 c 0.630137,-0.04262 1.006895,0.594124 0.845109,1.426855 l -0.122174,0.630411 c -0.05054,0.260227 -0.148028,0.507318 -0.276767,0.726242 z"
           sodipodi:nodetypes="cccccccccccccccc" /><path
           id="path46"
           style="fill:#6a2a00;fill-opacity:1;stroke:none;stroke-width:0.730455;stroke-miterlimit:4;stroke-dasharray:none;stroke-opacity:1"
           d="m 16.733356,23.828128 c -0.33083,0.278148 -0.806588,0.496823 -1.25149,0.550536 l -5.399507,0.675243 c -0.087769,0.02206 -0.9227704,0.124319 -1.009262,0.118282 -0.1485323,0.02886 -0.2975448,-0.0016 -0.4278597,-0.0063 -4.0862685,-1.497784 -6.6192126,-1.065503 -5.6616626,-3.213727 0.4572824,-0.451449 1.5329007,1.017832 2.1179005,1.039262 l 5.0016118,0.252985 c 0.381347,-0.04256 0.483223,-0.07019 0.525772,-0.06999 l 5.889835,-0.769479 c 0.647131,-0.07812 0.976717,0.223153 0.73942,0.675048 l -0.179333,0.342076 c -0.07414,0.141215 -0.195075,0.279678 -0.345485,0.406105 z"
           sodipodi:nodetypes="cccccccccccccc" /></g><g
         id="g48"
         transform="matrix(0.55591108,-0.2450415,0.23256805,0.79977169,36.376367,-1.5675572)"><path
           id="path47"
           style="fill:#935e12;fill-opacity:1;stroke:#6a2a00;stroke-width:1.00438;stroke-miterlimit:4;stroke-dasharray:none;stroke-opacity:1"
           d="m 16.477236,23.901222 c -0.28315,0.481663 -0.720021,0.824278 -1.153238,0.853583 l -5.253878,0.400752 c -0.083575,0.02798 -0.8964246,0.0857 -0.9833405,0.05959 -0.1428545,0.03082 -0.2958673,-0.05276 -0.4261146,-0.08377 L 3.1222002,23.813044 C 2.5374943,23.673862 2.3737503,22.921298 2.7541685,22.126214 L 3.0411217,21.524331 C 3.4215359,20.729244 4.199307,20.201707 4.7840115,20.340895 l 5.0105068,1.324714 c 0.3719017,-0.0184 0.4685917,-0.05471 0.5108967,-0.04722 L 16.031007,21.1177 c 0.630137,-0.04262 1.006895,0.594124 0.845109,1.426855 l -0.122174,0.630411 c -0.05054,0.260227 -0.148028,0.507318 -0.276767,0.726242 z"
           sodipodi:nodetypes="cccccccccccccccc" /><path
           id="path48"
           style="fill:#6a2a00;fill-opacity:1;stroke:none;stroke-width:0.730455;stroke-miterlimit:4;stroke-dasharray:none;stroke-opacity:1"
           d="m 16.733356,23.828128 c -0.33083,0.278148 -0.806588,0.496823 -1.25149,0.550536 l -5.399507,0.675243 c -0.087769,0.02206 -0.9227704,0.124319 -1.009262,0.118282 -0.1485323,0.02886 -0.2975448,-0.0016 -0.4278597,-0.0063 -4.0862685,-1.497784 -6.6192126,-1.065503 -5.6616626,-3.213727 0.4572824,-0.451449 1.5329007,1.017832 2.1179005,1.039262 l 5.0016118,0.252985 c 0.381347,-0.04256 0.483223,-0.07019 0.525772,-0.06999 l 5.889835,-0.769479 c 0.647131,-0.07812 0.976717,0.223153 0.73942,0.675048 l -0.179333,0.342076 c -0.07414,0.141215 -0.195075,0.279678 -0.345485,0.406105 z"
           sodipodi:nodetypes="cccccccccccccc" /></g></g><g
       id="g50"><rect
         style="fill:#935e12;fill-opacity:1;stroke:#6a2a00;stroke-width:0.812584;stroke-dasharray:none;stroke-opacity:1"
         id="rect9"
         width="3.7855344"
         height="12.244884"
         x="27.452505"
         y="38.208244"
         ry="1.593974" /><rect
         style="fill:#6a2a00;fill-opacity:1;stroke:none;stroke-width:0.539166;stroke-dasharray:none;stroke-opacity:1"
         id="rect49"
         width="2.4066763"
         height="8.4795399"
         x="28.77833"
         y="38.26128"
         ry="1.1038215" /></g><g
       id="g51"
       transform="matrix(0.88251916,0,0,0.36599782,-4.9051913,24.101759)"><rect
         style="fill:#935e12;fill-opacity:1;stroke:#6a2a00;stroke-width:0.812584;stroke-dasharray:none;stroke-opacity:1"
         id="rect50"
         width="3.7855344"
         height="12.244884"
         x="27.452505"
         y="38.208244"
         ry="1.593974" /><rect
         style="fill:#6a2a00;fill-opacity:1;stroke:none;stroke-width:0.539166;stroke-dasharray:none;stroke-opacity:1"
         id="rect51"
         width="2.4066763"
         height="8.4795399"
         x="28.77833"
         y="38.26128"
         ry="1.1038215" /></g><g
       id="g53"
       transform="matrix(0.85427524,0,0,0.59003158,-4.0233329,20.852348)"><rect
         style="fill:#935e12;fill-opacity:1;stroke:#6a2a00;stroke-width:0.812584;stroke-dasharray:none;stroke-opacity:1"
         id="rect52"
         width="3.7855344"
         height="12.244884"
         x="27.452505"
         y="38.208244"
         ry="1.593974" /><rect
         style="fill:#6a2a00;fill-opacity:1;stroke:none;stroke-width:0.539166;stroke-dasharray:none;stroke-opacity:1"
         id="rect53"
         width="2.4066763"
         height="8.4795399"
         x="28.77833"
         y="38.26128"
         ry="1.1038215" /></g><path
       id="path53"
       style="fill:#6a2a00;fill-opacity:1;stroke:none;stroke-width:1.92589;stroke-dasharray:none;stroke-opacity:1"
       d="m 21.589895,8.6340239 a 2.3994061,1.2098527 6.4425827 0 0 -1.091976,0.8593659 2.3994061,1.2098527 6.4425827 0 0 2.248356,1.4714392 2.3994061,1.2098527 6.4425827 0 0 2.090837,-0.343437 2.3994061,1.2098527 6.4425827 0 1 -1.427893,0.07364 2.3994061,1.2098527 6.4425827 0 1 -2.248355,-1.4714405 2.3994061,1.2098527 6.4425827 0 1 0.429031,-0.5895716 z" /><path
       id="path54"
       style="fill:#6a2a00;fill-opacity:1;stroke:none;stroke-width:1.92589;stroke-dasharray:none;stroke-opacity:1"
       d="m 30.32497,8.4717278 a 1.2098527,2.3994061 78.941091 0 1 1.157597,0.7686927 1.2098527,2.3994061 78.941091 0 1 -2.122636,1.6476195 1.2098527,2.3994061 78.941091 0 1 -2.111695,-0.174046 1.2098527,2.3994061 78.941091 0 0 1.429187,-0.04152 1.2098527,2.3994061 78.941091 0 0 2.122636,-1.6476208 1.2098527,2.3994061 78.941091 0 0 -0.47509,-0.5531293 z" /></g></svg>
