<?xml version="1.0" encoding="UTF-8" standalone="no"?>
<!-- Created with Inkscape (http://www.inkscape.org/) -->

<svg
   width="200"
   height="200"
   viewBox="0 0 52.916665 52.916666"
   version="1.1"
   id="svg1"
   xml:space="preserve"
   sodipodi:docname="hexopoda0.svg"
   inkscape:version="1.4.2 (ebf0e940d0, 2025-05-08)"
   xmlns:inkscape="http://www.inkscape.org/namespaces/inkscape"
   xmlns:sodipodi="http://sodipodi.sourceforge.net/DTD/sodipodi-0.dtd"
   xmlns="http://www.w3.org/2000/svg"
   xmlns:svg="http://www.w3.org/2000/svg"><sodipodi:namedview
     id="namedview1"
     pagecolor="#505050"
     bordercolor="#eeeeee"
     borderopacity="1"
     inkscape:showpageshadow="0"
     inkscape:pageopacity="0"
     inkscape:pagecheckerboard="0"
     inkscape:deskcolor="#505050"
     inkscape:document-units="px"
     inkscape:zoom="7.0555556"
     inkscape:cx="63"
     inkscape:cy="56.905511"
     inkscape:window-width="1366"
     inkscape:window-height="697"
     inkscape:window-x="0"
     inkscape:window-y="0"
     inkscape:window-maximized="1"
     inkscape:current-layer="g81" /><defs
     id="defs1"><inkscape:path-effect
       effect="fillet_chamfer"
       id="path-effect68"
       is_visible="true"
       lpeversion="1"
       nodesatellites_param="F,0,0,1,0,0,0,1 @ F,0,0,1,0,0,0,1 @ F,0,0,1,0,0,0,1 @ F,0,0,1,0,0,0,1 @ F,0,0,1,0,0,0,1 @ F,0,0,1,0,0,0,1 @ F,0,0,1,0,0,0,1 @ F,0,0,1,0,0,0,1 @ F,0,0,1,0,0,0,1"
       radius="0"
       unit="px"
       method="auto"
       mode="F"
       chamfer_steps="1"
       flexible="false"
       use_knot_distance="true"
       apply_no_radius="true"
       apply_with_radius="true"
       only_selected="false"
       hide_knots="false" /><inkscape:path-effect
       effect="fillet_chamfer"
       id="path-effect66"
       is_visible="true"
       lpeversion="1"
       nodesatellites_param="F,0,0,1,0,0,0,1 @ F,0,0,1,0,0.44929322,0,1 @ F,0,0,1,0,0.44929322,0,1 @ F,0,0,1,0,0,0,1 @ F,0,0,1,0,0,0,1 @ F,0,0,1,0,0,0,1 @ F,0,0,1,0,0,0,1 @ F,0,0,1,0,0,0,1 @ F,0,0,1,0,0,0,1 @ F,0,0,1,0,0,0,1"
       radius="0"
       unit="px"
       method="auto"
       mode="F"
       chamfer_steps="1"
       flexible="false"
       use_knot_distance="true"
       apply_no_radius="true"
       apply_with_radius="true"
       only_selected="false"
       hide_knots="false" /><inkscape:path-effect
       effect="fillet_chamfer"
       id="path-effect68-3"
       is_visible="true"
       lpeversion="1"
       nodesatellites_param="F,0,0,1,0,0,0,1 @ F,0,0,1,0,0,0,1 @ F,0,0,1,0,0,0,1 @ F,0,0,1,0,0,0,1 @ F,0,0,1,0,0,0,1 @ F,0,0,1,0,0,0,1 @ F,0,0,1,0,0,0,1 @ F,0,0,1,0,0,0,1 @ F,0,0,1,0,0,0,1"
       radius="0"
       unit="px"
       method="auto"
       mode="F"
       chamfer_steps="1"
       flexible="false"
       use_knot_distance="true"
       apply_no_radius="true"
       apply_with_radius="true"
       only_selected="false"
       hide_knots="false" /><inkscape:path-effect
       effect="fillet_chamfer"
       id="path-effect66-6"
       is_visible="true"
       lpeversion="1"
       nodesatellites_param="F,0,0,1,0,0,0,1 @ F,0,0,1,0,0.44929322,0,1 @ F,0,0,1,0,0.44929322,0,1 @ F,0,0,1,0,0,0,1 @ F,0,0,1,0,0,0,1 @ F,0,0,1,0,0,0,1 @ F,0,0,1,0,0,0,1 @ F,0,0,1,0,0,0,1 @ F,0,0,1,0,0,0,1 @ F,0,0,1,0,0,0,1"
       radius="0"
       unit="px"
       method="auto"
       mode="F"
       chamfer_steps="1"
       flexible="false"
       use_knot_distance="true"
       apply_no_radius="true"
       apply_with_radius="true"
       only_selected="false"
       hide_knots="false" /><inkscape:path-effect
       effect="fillet_chamfer"
       id="path-effect68-36"
       is_visible="true"
       lpeversion="1"
       nodesatellites_param="F,0,0,1,0,0,0,1 @ F,0,0,1,0,0,0,1 @ F,0,0,1,0,0,0,1 @ F,0,0,1,0,0,0,1 @ F,0,0,1,0,0,0,1 @ F,0,0,1,0,0,0,1 @ F,0,0,1,0,0,0,1 @ F,0,0,1,0,0,0,1 @ F,0,0,1,0,0,0,1"
       radius="0"
       unit="px"
       method="auto"
       mode="F"
       chamfer_steps="1"
       flexible="false"
       use_knot_distance="true"
       apply_no_radius="true"
       apply_with_radius="true"
       only_selected="false"
       hide_knots="false" /><inkscape:path-effect
       effect="fillet_chamfer"
       id="path-effect66-7"
       is_visible="true"
       lpeversion="1"
       nodesatellites_param="F,0,0,1,0,0,0,1 @ F,0,0,1,0,0.44929322,0,1 @ F,0,0,1,0,0.44929322,0,1 @ F,0,0,1,0,0,0,1 @ F,0,0,1,0,0,0,1 @ F,0,0,1,0,0,0,1 @ F,0,0,1,0,0,0,1 @ F,0,0,1,0,0,0,1 @ F,0,0,1,0,0,0,1 @ F,0,0,1,0,0,0,1"
       radius="0"
       unit="px"
       method="auto"
       mode="F"
       chamfer_steps="1"
       flexible="false"
       use_knot_distance="true"
       apply_no_radius="true"
       apply_with_radius="true"
       only_selected="false"
       hide_knots="false" /></defs><g
     inkscape:label="Camada 1"
     inkscape:groupmode="layer"
     id="layer1"><ellipse
       style="fill:#2b6a6a;fill-opacity:1;stroke:#143030;stroke-width:0.791172;stroke-dasharray:none;stroke-opacity:1"
       id="path2"
       cx="27.003349"
       cy="9.1687546"
       rx="7.9541597"
       ry="8.4952288" /><ellipse
       style="fill:#2b6a6a;fill-opacity:1;stroke:#143030;stroke-width:0.791172;stroke-dasharray:none;stroke-opacity:1"
       id="ellipse1"
       cx="26.263214"
       cy="43.534142"
       rx="7.9541597"
       ry="8.4952288" /><ellipse
       style="fill:#2b6a6a;fill-opacity:1;stroke:#143030;stroke-width:0.791172;stroke-dasharray:none;stroke-opacity:1"
       id="ellipse7"
       cx="10.564281"
       cy="17.234425"
       rx="7.9541597"
       ry="8.4952288" /><ellipse
       style="fill:#2b6a6a;fill-opacity:1;stroke:#143030;stroke-width:0.791172;stroke-dasharray:none;stroke-opacity:1"
       id="ellipse12"
       cx="43.021645"
       cy="17.764755"
       rx="7.9541597"
       ry="8.4952288" /><ellipse
       style="fill:#2b6a6a;fill-opacity:1;stroke:#143030;stroke-width:0.791172;stroke-dasharray:none;stroke-opacity:1"
       id="ellipse22"
       cx="42.810673"
       cy="36.537277"
       rx="7.9541597"
       ry="8.4952288" /><ellipse
       style="fill:#2b6a6a;fill-opacity:1;stroke:#143030;stroke-width:0.791172;stroke-dasharray:none;stroke-opacity:1"
       id="ellipse38"
       cx="10.124183"
       cy="37.23542"
       rx="7.9541597"
       ry="8.4952288" /><path
       id="path41"
       style="fill:#143030;fill-opacity:1;stroke:#143030;stroke-width:0.61571;stroke-dasharray:none;stroke-opacity:1"
       d="m 11.813545,42.827573 c -0.03526,-1.177762 -0.896412,-2.630476 -1.9030675,-2.5644 -1.0066579,0.06608 -1.7776176,1.62592 -1.7423571,2.803683 0.035264,1.177759 0.9358128,2.701566 1.9424696,2.635492 1.006655,-0.06608 1.738217,-1.697015 1.702955,-2.874775 z"
       sodipodi:nodetypes="sssss" /><path
       id="path42"
       style="fill:#143030;fill-opacity:1;stroke:#143030;stroke-width:0.571377;stroke-dasharray:none;stroke-opacity:1"
       d="M 7.5544014,37.120143 C 6.4719106,37.397203 4.7425326,37.073711 4.3170228,36.23756 3.8915129,35.401409 4.9310056,34.369234 6.0134972,34.092175 7.0959851,33.815113 8.908677,34.152207 9.3341866,34.988356 9.7596921,35.824508 8.636894,36.843084 7.5544014,37.120143 Z"
       sodipodi:nodetypes="sssss" /><path
       id="path15-9"
       style="fill:#143030;fill-opacity:1;stroke:none;stroke-width:0.810982;stroke-dasharray:none;stroke-opacity:1"
       d="m 47.236544,17.879673 c 0,2.355403 -1.866125,5.367808 -4.168108,5.367808 -2.301981,-1e-6 -4.168107,-3.012405 -4.168107,-5.367808 0,-2.355399 1.95119,-5.514868 4.253171,-5.514868 2.301981,0 4.083044,3.159469 4.083044,5.514868 z"
       sodipodi:nodetypes="sssss" /><path
       id="path19"
       style="fill:#2b6a6a;fill-opacity:1;stroke:#2b6a6a;stroke-width:0.886339;stroke-dasharray:none;stroke-opacity:1"
       d="m 45.591947,17.82184 c 0,1.242659 -1.115689,2.831936 -2.491952,2.831936 -1.37627,0 -2.491954,-1.589277 -2.491954,-2.831936 0,-1.242658 1.166541,-2.909524 2.542806,-2.909524 1.37627,0 2.4411,1.666866 2.4411,2.909524 z"
       sodipodi:nodetypes="sssss" /><g
       id="g48"
       transform="matrix(1.8866734,0,0,1.6912737,-94.845472,-2.751072)"
       style="fill:#143030;fill-opacity:1"><path
         id="path20"
         style="fill:#143030;fill-opacity:1;stroke:none;stroke-width:0.117381"
         d="m 74.478124,11.154978 c 0,0.448786 -0.337856,1.022754 -0.754621,1.022754 -0.416764,0 -0.75462,-0.573968 -0.75462,-1.022754 0,-0.448785 0.353255,-1.050773 0.77002,-1.050773 0.416765,0 0.739221,0.601988 0.739221,1.050773 z"
         sodipodi:nodetypes="sssss" /></g><g
       id="g87"
       style="fill:#143030;fill-opacity:1;stroke:#143030;stroke-opacity:1"><path
         id="path86"
         style="fill:#143030;fill-opacity:1;stroke:#143030;stroke-width:0.223558;stroke-dasharray:none;stroke-opacity:1"
         d="M 5.8559822,40.595685 C 5.1562068,40.505916 4.0777549,40.186144 3.8514145,39.933309 3.6250739,39.680473 4.3365569,39.590318 5.0363329,39.680088 c 0.6997739,0.08977 1.8302831,0.424487 2.0566234,0.677323 0.2263375,0.252836 -0.5371974,0.328043 -1.2369741,0.238274 z"
         sodipodi:nodetypes="sssss" /><path
         id="path87"
         style="fill:#143030;fill-opacity:1;stroke:#143030;stroke-width:0.223558;stroke-dasharray:none;stroke-opacity:1"
         d="M 6.1211472,41.54103 C 5.4213718,41.6308 4.3429199,41.950571 4.1165795,42.203406 3.8902389,42.456242 4.6017219,42.546397 5.3014979,42.456627 6.0012718,42.366857 7.131781,42.03214 7.3581213,41.779304 7.5844588,41.526468 6.8209239,41.451261 6.1211472,41.54103 Z"
         sodipodi:nodetypes="sssss" /></g><path
       id="path50"
       style="fill:#000000;fill-opacity:0.365321;stroke:none;stroke-width:0.757074;stroke-dasharray:none;stroke-opacity:1"
       d="m 5.9953444,30.486484 a 7.6501063,8.0879137 0 0 0 -3.473197,6.775599 7.6501063,8.0879137 0 0 0 7.6501056,8.088151 7.6501063,8.0879137 0 0 0 5.584334,-2.560236 7.6501063,8.0879137 0 0 1 -4.17691,1.312045 7.6501063,8.0879137 0 0 1 -7.6501046,-8.088151 7.6501063,8.0879137 0 0 1 2.065772,-5.527408 z" /><path
       style="fill:#143030;fill-opacity:1;stroke:none;stroke-width:2.82072;stroke-opacity:1"
       d="m 24.004167,39.495833 2.024999,2.062498 2.925,-2.287497 2.662499,0.449998 1.012502,3.225001 -2.625,5.812498 -3.975001,2.062502 -3.599999,-2.175 -2.4375,-5.175001 1.2,-3.712498 z"
       id="path56" /><ellipse
       style="fill:#2b6a6a;fill-opacity:1;stroke:none;stroke-width:2.82072;stroke-opacity:1"
       id="path55"
       cx="-7.1167145"
       cy="50.985123"
       rx="2.7577164"
       ry="4.6138716"
       transform="rotate(-36.439395)" /><ellipse
       style="fill:#2b6a6a;fill-opacity:1;stroke:none;stroke-width:2.82072;stroke-opacity:1"
       id="ellipse55"
       cx="-49.201576"
       cy="19.846878"
       rx="2.7577164"
       ry="4.6138716"
       transform="matrix(-0.80448559,-0.59397217,-0.59397217,0.80448559,0,0)" /><path
       id="path51"
       style="fill:#000000;fill-opacity:0.365321;stroke:none;stroke-width:0.757074;stroke-dasharray:none;stroke-opacity:1"
       d="m 22.117379,36.744379 a 7.6501063,8.0879137 0 0 0 -3.473197,6.775599 7.6501063,8.0879137 0 0 0 7.650105,8.088151 7.6501063,8.0879137 0 0 0 5.584334,-2.560236 7.6501063,8.0879137 0 0 1 -4.17691,1.312045 7.6501063,8.0879137 0 0 1 -7.650104,-8.088151 7.6501063,8.0879137 0 0 1 2.065772,-5.527408 z" /><path
       id="path52"
       style="fill:#000000;fill-opacity:0.365321;stroke:none;stroke-width:0.757074;stroke-dasharray:none;stroke-opacity:1"
       d="m 38.875809,11.076404 a 7.6501063,8.0879137 0 0 0 -3.473197,6.775599 7.6501063,8.0879137 0 0 0 7.650105,8.088151 7.6501063,8.0879137 0 0 0 5.584334,-2.560236 7.6501063,8.0879137 0 0 1 -4.17691,1.312045 7.6501063,8.0879137 0 0 1 -7.650104,-8.088151 7.6501063,8.0879137 0 0 1 2.065772,-5.527408 z" /><path
       style="fill:#143030;fill-opacity:1;stroke:none;stroke-width:2.82072;stroke-opacity:1"
       d="M 24.0375,9.0083333 26.4,16.883334 30.449999,9.0083333 27.7125,11.633334 l 2.475,-5.1000008 1.65,-1.4624999 -3.2625,-2.0624999 2.062501,1.875 -1.200002,1.1999999 -1.349999,2.7375001 -0.825,-6.0375 -1.35,6.0749999 -0.5625,-2.3625 -1.6875,-1.2 1.9875,-2.3249999 -2.7375,2.2124999 1.5,1.6875 0.525,2.1749999 0.45,2.3625008 z"
       id="path53" /><path
       id="path54"
       style="fill:#000000;fill-opacity:0.365321;stroke:none;stroke-width:0.757074;stroke-dasharray:none;stroke-opacity:1"
       d="m 22.900809,2.3764042 a 7.6501063,8.0879137 0 0 0 -3.473197,6.775599 7.6501063,8.0879137 0 0 0 7.650105,8.0881508 7.6501063,8.0879137 0 0 0 5.584334,-2.560236 7.6501063,8.0879137 0 0 1 -4.17691,1.312045 7.6501063,8.0879137 0 0 1 -7.650104,-8.0881508 7.6501063,8.0879137 0 0 1 2.065772,-5.527408 z" /><g
       id="g63"
       transform="translate(-0.37006764,-0.15909902)"
       style="fill:#143030;fill-opacity:1"><path
         id="path57"
         style="fill:#143030;fill-opacity:1;stroke:none;stroke-width:0.427079;stroke-dasharray:none;stroke-opacity:1"
         d="M 5.7674183,16.691489 C 6.95635,17.256856 8.8745481,17.143727 9.365052,16.112228 9.855555,15.080729 8.7326226,13.521466 7.5436909,12.956098 6.354761,12.390732 4.3442039,12.506678 3.8537005,13.538176 c -0.4905039,1.031499 0.7247879,2.587946 1.9137178,3.153313 z"
         sodipodi:nodetypes="sssss" /><path
         id="path58"
         style="fill:#143030;fill-opacity:1;stroke:#935e12;stroke-width:0.454798;stroke-dasharray:none;stroke-opacity:1"
         d="m 6.2441567,16.007208 c 0.6589253,0.22768 1.6726483,0.02397 1.8835894,-0.586512 0.2109414,-0.610484 -0.460778,-1.396565 -1.1197033,-1.624245 -0.6589242,-0.227679 -1.7215838,-0.01563 -1.9325245,0.594855 -0.2109421,0.610485 0.5097141,1.388223 1.1686384,1.615902 z"
         sodipodi:nodetypes="sssss" /><g
         id="g59"
         transform="matrix(0.93611878,0,0,-1.5847129,-61.778968,32.663085)"
         style="fill:#143030;fill-opacity:1"><path
           id="path59"
           style="fill:#143030;fill-opacity:1;stroke:none;stroke-width:0.117381"
           d="m 74.478124,11.154978 c 0,0.448786 -0.337856,1.022754 -0.754621,1.022754 -0.416764,0 -0.75462,-0.573968 -0.75462,-1.022754 0,-0.448785 0.353255,-1.050773 0.77002,-1.050773 0.416765,0 0.739221,0.601988 0.739221,1.050773 z"
           sodipodi:nodetypes="sssss" /></g></g><g
       id="g66"
       transform="matrix(-1,0,0,1,21.233114,-0.37123105)"
       style="fill:#143030;fill-opacity:1"><path
         id="path63"
         style="fill:#143030;fill-opacity:1;stroke:none;stroke-width:0.427079;stroke-dasharray:none;stroke-opacity:1"
         d="M 5.7674183,16.691489 C 6.95635,17.256856 8.8745481,17.143727 9.365052,16.112228 9.855555,15.080729 8.7326226,13.521466 7.5436909,12.956098 6.354761,12.390732 4.3442039,12.506678 3.8537005,13.538176 c -0.4905039,1.031499 0.7247879,2.587946 1.9137178,3.153313 z"
         sodipodi:nodetypes="sssss" /><path
         id="path64"
         style="fill:#143030;fill-opacity:1;stroke:#935e12;stroke-width:0.454798;stroke-dasharray:none;stroke-opacity:1"
         d="m 6.2441567,16.007208 c 0.6589253,0.22768 1.6726483,0.02397 1.8835894,-0.586512 0.2109414,-0.610484 -0.460778,-1.396565 -1.1197033,-1.624245 -0.6589242,-0.227679 -1.7215838,-0.01563 -1.9325245,0.594855 -0.2109421,0.610485 0.5097141,1.388223 1.1686384,1.615902 z"
         sodipodi:nodetypes="sssss" /><g
         id="g65"
         transform="matrix(0.93611878,0,0,-1.5847129,-61.778968,32.663085)"
         style="fill:#143030;fill-opacity:1"><path
           id="path65"
           style="fill:#143030;fill-opacity:1;stroke:none;stroke-width:0.117381"
           d="m 74.478124,11.154978 c 0,0.448786 -0.337856,1.022754 -0.754621,1.022754 -0.416764,0 -0.75462,-0.573968 -0.75462,-1.022754 0,-0.448785 0.353255,-1.050773 0.77002,-1.050773 0.416765,0 0.739221,0.601988 0.739221,1.050773 z"
           sodipodi:nodetypes="sssss" /></g></g><g
       id="g69"
       transform="translate(-0.37006764,4.3487066)"
       style="fill:#143030;fill-opacity:1"><path
         id="path66"
         style="fill:#143030;fill-opacity:1;stroke:none;stroke-width:0.427079;stroke-dasharray:none;stroke-opacity:1"
         d="M 5.7674183,16.691489 C 6.95635,17.256856 8.8745481,17.143727 9.365052,16.112228 9.855555,15.080729 8.7326226,13.521466 7.5436909,12.956098 6.354761,12.390732 4.3442039,12.506678 3.8537005,13.538176 c -0.4905039,1.031499 0.7247879,2.587946 1.9137178,3.153313 z"
         sodipodi:nodetypes="sssss" /><path
         id="path67"
         style="fill:#143030;fill-opacity:1;stroke:#935e12;stroke-width:0.454798;stroke-dasharray:none;stroke-opacity:1"
         d="m 6.2441567,16.007208 c 0.6589253,0.22768 1.6726483,0.02397 1.8835894,-0.586512 0.2109414,-0.610484 -0.460778,-1.396565 -1.1197033,-1.624245 -0.6589242,-0.227679 -1.7215838,-0.01563 -1.9325245,0.594855 -0.2109421,0.610485 0.5097141,1.388223 1.1686384,1.615902 z"
         sodipodi:nodetypes="sssss" /><g
         id="g68"
         transform="matrix(0.93611878,0,0,-1.5847129,-61.778968,32.663085)"
         style="fill:#143030;fill-opacity:1"><path
           id="path68"
           style="fill:#143030;fill-opacity:1;stroke:none;stroke-width:0.117381"
           d="m 74.478124,11.154978 c 0,0.448786 -0.337856,1.022754 -0.754621,1.022754 -0.416764,0 -0.75462,-0.573968 -0.75462,-1.022754 0,-0.448785 0.353255,-1.050773 0.77002,-1.050773 0.416765,0 0.739221,0.601988 0.739221,1.050773 z"
           sodipodi:nodetypes="sssss" /></g></g><g
       id="g72"
       transform="matrix(-1,0,0,1,21.233114,4.1365746)"
       style="fill:#143030;fill-opacity:1"><path
         id="path69"
         style="fill:#143030;fill-opacity:1;stroke:none;stroke-width:0.427079;stroke-dasharray:none;stroke-opacity:1"
         d="M 5.7674183,16.691489 C 6.95635,17.256856 8.8745481,17.143727 9.365052,16.112228 9.855555,15.080729 8.7326226,13.521466 7.5436909,12.956098 6.354761,12.390732 4.3442039,12.506678 3.8537005,13.538176 c -0.4905039,1.031499 0.7247879,2.587946 1.9137178,3.153313 z"
         sodipodi:nodetypes="sssss" /><path
         id="path70"
         style="fill:#143030;fill-opacity:1;stroke:#935e12;stroke-width:0.454798;stroke-dasharray:none;stroke-opacity:1"
         d="m 6.2441567,16.007208 c 0.6589253,0.22768 1.6726483,0.02397 1.8835894,-0.586512 0.2109414,-0.610484 -0.460778,-1.396565 -1.1197033,-1.624245 -0.6589242,-0.227679 -1.7215838,-0.01563 -1.9325245,0.594855 -0.2109421,0.610485 0.5097141,1.388223 1.1686384,1.615902 z"
         sodipodi:nodetypes="sssss" /><g
         id="g71"
         transform="matrix(0.93611878,0,0,-1.5847129,-61.778968,32.663085)"
         style="fill:#143030;fill-opacity:1"><path
           id="path71"
           style="fill:#143030;fill-opacity:1;stroke:none;stroke-width:0.117381"
           d="m 74.478124,11.154978 c 0,0.448786 -0.337856,1.022754 -0.754621,1.022754 -0.416764,0 -0.75462,-0.573968 -0.75462,-1.022754 0,-0.448785 0.353255,-1.050773 0.77002,-1.050773 0.416765,0 0.739221,0.601988 0.739221,1.050773 z"
           sodipodi:nodetypes="sssss" /></g></g><g
       id="g75"
       transform="matrix(0.77463085,0,0,0.60987248,2.1173107,14.068158)"
       style="fill:#143030;fill-opacity:1"><path
         id="path72"
         style="fill:#143030;fill-opacity:1;stroke:none;stroke-width:0.427079;stroke-dasharray:none;stroke-opacity:1"
         d="M 5.7674183,16.691489 C 6.95635,17.256856 8.8745481,17.143727 9.365052,16.112228 9.855555,15.080729 8.7326226,13.521466 7.5436909,12.956098 6.354761,12.390732 4.3442039,12.506678 3.8537005,13.538176 c -0.4905039,1.031499 0.7247879,2.587946 1.9137178,3.153313 z"
         sodipodi:nodetypes="sssss" /><path
         id="path73"
         style="fill:#143030;fill-opacity:1;stroke:#935e12;stroke-width:0.454798;stroke-dasharray:none;stroke-opacity:1"
         d="m 6.2441567,16.007208 c 0.6589253,0.22768 1.6726483,0.02397 1.8835894,-0.586512 0.2109414,-0.610484 -0.460778,-1.396565 -1.1197033,-1.624245 -0.6589242,-0.227679 -1.7215838,-0.01563 -1.9325245,0.594855 -0.2109421,0.610485 0.5097141,1.388223 1.1686384,1.615902 z"
         sodipodi:nodetypes="sssss" /><g
         id="g74"
         transform="matrix(0.93611878,0,0,-1.5847129,-61.778968,32.663085)"
         style="fill:#143030;fill-opacity:1"><path
           id="path74"
           style="fill:#143030;fill-opacity:1;stroke:none;stroke-width:0.117381"
           d="m 74.478124,11.154978 c 0,0.448786 -0.337856,1.022754 -0.754621,1.022754 -0.416764,0 -0.75462,-0.573968 -0.75462,-1.022754 0,-0.448785 0.353255,-1.050773 0.77002,-1.050773 0.416765,0 0.739221,0.601988 0.739221,1.050773 z"
           sodipodi:nodetypes="sssss" /></g></g><g
       id="g78"
       transform="matrix(-0.77463085,0,0,0.60987248,18.851801,13.938784)"
       style="fill:#143030;fill-opacity:1"><path
         id="path75"
         style="fill:#143030;fill-opacity:1;stroke:none;stroke-width:0.427079;stroke-dasharray:none;stroke-opacity:1"
         d="M 5.7674183,16.691489 C 6.95635,17.256856 8.8745481,17.143727 9.365052,16.112228 9.855555,15.080729 8.7326226,13.521466 7.5436909,12.956098 6.354761,12.390732 4.3442039,12.506678 3.8537005,13.538176 c -0.4905039,1.031499 0.7247879,2.587946 1.9137178,3.153313 z"
         sodipodi:nodetypes="sssss" /><path
         id="path76"
         style="fill:#143030;fill-opacity:1;stroke:#935e12;stroke-width:0.454798;stroke-dasharray:none;stroke-opacity:1"
         d="m 6.2441567,16.007208 c 0.6589253,0.22768 1.6726483,0.02397 1.8835894,-0.586512 0.2109414,-0.610484 -0.460778,-1.396565 -1.1197033,-1.624245 -0.6589242,-0.227679 -1.7215838,-0.01563 -1.9325245,0.594855 -0.2109421,0.610485 0.5097141,1.388223 1.1686384,1.615902 z"
         sodipodi:nodetypes="sssss" /><g
         id="g77"
         transform="matrix(0.93611878,0,0,-1.5847129,-61.778968,32.663085)"
         style="fill:#143030;fill-opacity:1"><path
           id="path77"
           style="fill:#143030;fill-opacity:1;stroke:none;stroke-width:0.117381"
           d="m 74.478124,11.154978 c 0,0.448786 -0.337856,1.022754 -0.754621,1.022754 -0.416764,0 -0.75462,-0.573968 -0.75462,-1.022754 0,-0.448785 0.353255,-1.050773 0.77002,-1.050773 0.416765,0 0.739221,0.601988 0.739221,1.050773 z"
           sodipodi:nodetypes="sssss" /></g></g><g
       id="g81"
       transform="matrix(0.77463085,0,0,-0.60987248,2.3294427,19.716953)"
       style="fill:#143030;fill-opacity:1"><path
         id="path78"
         style="fill:#143030;fill-opacity:1;stroke:none;stroke-width:0.427079;stroke-dasharray:none;stroke-opacity:1"
         d="M 5.7674183,16.691489 C 6.95635,17.256856 8.8745481,17.143727 9.365052,16.112228 9.855555,15.080729 8.7326226,13.521466 7.5436909,12.956098 6.354761,12.390732 4.3442039,12.506678 3.8537005,13.538176 c -0.4905039,1.031499 0.7247879,2.587946 1.9137178,3.153313 z"
         sodipodi:nodetypes="sssss" /><path
         id="path79"
         style="fill:#143030;fill-opacity:1;stroke:#935e12;stroke-width:0.454798;stroke-dasharray:none;stroke-opacity:1"
         d="m 6.2441567,16.007208 c 0.6589253,0.22768 1.6726483,0.02397 1.8835894,-0.586512 0.2109414,-0.610484 -0.460778,-1.396565 -1.1197033,-1.624245 -0.6589242,-0.227679 -1.7215838,-0.01563 -1.9325245,0.594855 -0.2109421,0.610485 0.5097141,1.388223 1.1686384,1.615902 z"
         sodipodi:nodetypes="sssss" /><g
         id="g80"
         transform="matrix(0.93611878,0,0,-1.5847129,-61.778968,32.663085)"
         style="fill:#143030;fill-opacity:1"><path
           id="path80"
           style="fill:#143030;fill-opacity:1;stroke:none;stroke-width:0.117381"
           d="m 74.478124,11.154978 c 0,0.448786 -0.337856,1.022754 -0.754621,1.022754 -0.416764,0 -0.75462,-0.573968 -0.75462,-1.022754 0,-0.448785 0.353255,-1.050773 0.77002,-1.050773 0.416765,0 0.739221,0.601988 0.739221,1.050773 z"
           sodipodi:nodetypes="sssss" /></g></g><g
       id="g84"
       transform="matrix(-0.77463085,0,0,-0.60987248,19.063933,19.846327)"
       style="fill:#143030;fill-opacity:1"><path
         id="path81"
         style="fill:#143030;fill-opacity:1;stroke:none;stroke-width:0.427079;stroke-dasharray:none;stroke-opacity:1"
         d="M 5.7674183,16.691489 C 6.95635,17.256856 8.8745481,17.143727 9.365052,16.112228 9.855555,15.080729 8.7326226,13.521466 7.5436909,12.956098 6.354761,12.390732 4.3442039,12.506678 3.8537005,13.538176 c -0.4905039,1.031499 0.7247879,2.587946 1.9137178,3.153313 z"
         sodipodi:nodetypes="sssss" /><path
         id="path82"
         style="fill:#143030;fill-opacity:1;stroke:#935e12;stroke-width:0.454798;stroke-dasharray:none;stroke-opacity:1"
         d="m 6.2441567,16.007208 c 0.6589253,0.22768 1.6726483,0.02397 1.8835894,-0.586512 0.2109414,-0.610484 -0.460778,-1.396565 -1.1197033,-1.624245 -0.6589242,-0.227679 -1.7215838,-0.01563 -1.9325245,0.594855 -0.2109421,0.610485 0.5097141,1.388223 1.1686384,1.615902 z"
         sodipodi:nodetypes="sssss" /><g
         id="g83"
         transform="matrix(0.93611878,0,0,-1.5847129,-61.778968,32.663085)"
         style="fill:#143030;fill-opacity:1"><path
           id="path83"
           style="fill:#143030;fill-opacity:1;stroke:none;stroke-width:0.117381"
           d="m 74.478124,11.154978 c 0,0.448786 -0.337856,1.022754 -0.754621,1.022754 -0.416764,0 -0.75462,-0.573968 -0.75462,-1.022754 0,-0.448785 0.353255,-1.050773 0.77002,-1.050773 0.416765,0 0.739221,0.601988 0.739221,1.050773 z"
           sodipodi:nodetypes="sssss" /></g></g><path
       id="path84"
       style="fill:#000000;fill-opacity:0.365321;stroke:none;stroke-width:0.757074;stroke-dasharray:none;stroke-opacity:1"
       d="m 6.4196084,10.440007 a 7.6501063,8.0879137 0 0 0 -3.473197,6.775599 7.6501063,8.0879137 0 0 0 7.6501056,8.088151 7.6501063,8.0879137 0 0 0 5.584334,-2.560236 7.6501063,8.0879137 0 0 1 -4.17691,1.312045 7.6501063,8.0879137 0 0 1 -7.6501046,-8.088151 7.6501063,8.0879137 0 0 1 2.065772,-5.527408 z" /><path
       id="path85"
       style="fill:#143030;fill-opacity:1;stroke:#143030;stroke-width:0.571377;stroke-dasharray:none;stroke-opacity:1"
       d="m 14.115773,36.95196 c -1.082492,0.27706 -2.81187,-0.04644 -3.237379,-0.882583 -0.42551,-0.836151 0.613983,-1.868326 1.696474,-2.145385 1.082488,-0.277062 2.89518,0.06003 3.32069,0.896181 0.425505,0.836152 -0.697293,1.854728 -1.779785,2.131787 z"
       sodipodi:nodetypes="sssss" /><g
       id="g89"
       transform="matrix(-1,0,0,1,20.275934,-0.15909902)"
       style="fill:#143030;fill-opacity:1;stroke:#143030;stroke-opacity:1"><path
         id="path88"
         style="fill:#143030;fill-opacity:1;stroke:#143030;stroke-width:0.223558;stroke-dasharray:none;stroke-opacity:1"
         d="M 5.8559822,40.595685 C 5.1562068,40.505916 4.0777549,40.186144 3.8514145,39.933309 3.6250739,39.680473 4.3365569,39.590318 5.0363329,39.680088 c 0.6997739,0.08977 1.8302831,0.424487 2.0566234,0.677323 0.2263375,0.252836 -0.5371974,0.328043 -1.2369741,0.238274 z"
         sodipodi:nodetypes="sssss" /><path
         id="path89"
         style="fill:#143030;fill-opacity:1;stroke:#143030;stroke-width:0.223558;stroke-dasharray:none;stroke-opacity:1"
         d="M 6.1211472,41.54103 C 5.4213718,41.6308 4.3429199,41.950571 4.1165795,42.203406 3.8902389,42.456242 4.6017219,42.546397 5.3014979,42.456627 6.0012718,42.366857 7.131781,42.03214 7.3581213,41.779304 7.5844588,41.526468 6.8209239,41.451261 6.1211472,41.54103 Z"
         sodipodi:nodetypes="sssss" /></g><path
       style="fill:#143030;fill-opacity:1;stroke:none;stroke-width:2.8616;stroke-opacity:1"
       d="m 37.837498,35.223143 2.850002,0.463138 1.65,9.378514 1.4625,-9.378514 3.749998,-0.771897 -3.15,-1.505194 -1.4625,-5.17169 -2.062498,5.326069 z"
       id="path90" /><path
       id="path91"
       style="fill:#000000;fill-opacity:0.365321;stroke:none;stroke-width:0.757074;stroke-dasharray:none;stroke-opacity:1"
       d="m 38.695344,29.811484 a 7.6501063,8.0879137 0 0 0 -3.473197,6.775599 7.6501063,8.0879137 0 0 0 7.650105,8.088151 7.6501063,8.0879137 0 0 0 5.584334,-2.560236 7.6501063,8.0879137 0 0 1 -4.17691,1.312045 7.6501063,8.0879137 0 0 1 -7.650104,-8.088151 7.6501063,8.0879137 0 0 1 2.065772,-5.527408 z" /></g></svg>
