<?xml version="1.0" encoding="UTF-8" standalone="no"?>
<!-- Created with Inkscape (http://www.inkscape.org/) -->

<svg
   width="200"
   height="200"
   viewBox="0 0 52.916665 52.916666"
   version="1.1"
   id="svg1"
   xml:space="preserve"
   sodipodi:docname="hexopoda0.svg"
   inkscape:version="1.4.2 (ebf0e940d0, 2025-05-08)"
   xmlns:inkscape="http://www.inkscape.org/namespaces/inkscape"
   xmlns:sodipodi="http://sodipodi.sourceforge.net/DTD/sodipodi-0.dtd"
   xmlns="http://www.w3.org/2000/svg"
   xmlns:svg="http://www.w3.org/2000/svg"><sodipodi:namedview
     id="namedview1"
     pagecolor="#505050"
     bordercolor="#eeeeee"
     borderopacity="1"
     inkscape:showpageshadow="0"
     inkscape:pageopacity="0"
     inkscape:pagecheckerboard="0"
     inkscape:deskcolor="#505050"
     inkscape:document-units="px"
     inkscape:zoom="1.7638889"
     inkscape:cx="169.22835"
     inkscape:cy="94.960629"
     inkscape:window-width="1366"
     inkscape:window-height="697"
     inkscape:window-x="0"
     inkscape:window-y="0"
     inkscape:window-maximized="1"
     inkscape:current-layer="layer1" /><defs
     id="defs1"><inkscape:path-effect
       effect="fillet_chamfer"
       id="path-effect68"
       is_visible="true"
       lpeversion="1"
       nodesatellites_param="F,0,0,1,0,0,0,1 @ F,0,0,1,0,0,0,1 @ F,0,0,1,0,0,0,1 @ F,0,0,1,0,0,0,1 @ F,0,0,1,0,0,0,1 @ F,0,0,1,0,0,0,1 @ F,0,0,1,0,0,0,1 @ F,0,0,1,0,0,0,1 @ F,0,0,1,0,0,0,1"
       radius="0"
       unit="px"
       method="auto"
       mode="F"
       chamfer_steps="1"
       flexible="false"
       use_knot_distance="true"
       apply_no_radius="true"
       apply_with_radius="true"
       only_selected="false"
       hide_knots="false" /><inkscape:path-effect
       effect="fillet_chamfer"
       id="path-effect66"
       is_visible="true"
       lpeversion="1"
       nodesatellites_param="F,0,0,1,0,0,0,1 @ F,0,0,1,0,0.44929322,0,1 @ F,0,0,1,0,0.44929322,0,1 @ F,0,0,1,0,0,0,1 @ F,0,0,1,0,0,0,1 @ F,0,0,1,0,0,0,1 @ F,0,0,1,0,0,0,1 @ F,0,0,1,0,0,0,1 @ F,0,0,1,0,0,0,1 @ F,0,0,1,0,0,0,1"
       radius="0"
       unit="px"
       method="auto"
       mode="F"
       chamfer_steps="1"
       flexible="false"
       use_knot_distance="true"
       apply_no_radius="true"
       apply_with_radius="true"
       only_selected="false"
       hide_knots="false" /><inkscape:path-effect
       effect="fillet_chamfer"
       id="path-effect68-3"
       is_visible="true"
       lpeversion="1"
       nodesatellites_param="F,0,0,1,0,0,0,1 @ F,0,0,1,0,0,0,1 @ F,0,0,1,0,0,0,1 @ F,0,0,1,0,0,0,1 @ F,0,0,1,0,0,0,1 @ F,0,0,1,0,0,0,1 @ F,0,0,1,0,0,0,1 @ F,0,0,1,0,0,0,1 @ F,0,0,1,0,0,0,1"
       radius="0"
       unit="px"
       method="auto"
       mode="F"
       chamfer_steps="1"
       flexible="false"
       use_knot_distance="true"
       apply_no_radius="true"
       apply_with_radius="true"
       only_selected="false"
       hide_knots="false" /><inkscape:path-effect
       effect="fillet_chamfer"
       id="path-effect66-6"
       is_visible="true"
       lpeversion="1"
       nodesatellites_param="F,0,0,1,0,0,0,1 @ F,0,0,1,0,0.44929322,0,1 @ F,0,0,1,0,0.44929322,0,1 @ F,0,0,1,0,0,0,1 @ F,0,0,1,0,0,0,1 @ F,0,0,1,0,0,0,1 @ F,0,0,1,0,0,0,1 @ F,0,0,1,0,0,0,1 @ F,0,0,1,0,0,0,1 @ F,0,0,1,0,0,0,1"
       radius="0"
       unit="px"
       method="auto"
       mode="F"
       chamfer_steps="1"
       flexible="false"
       use_knot_distance="true"
       apply_no_radius="true"
       apply_with_radius="true"
       only_selected="false"
       hide_knots="false" /><inkscape:path-effect
       effect="fillet_chamfer"
       id="path-effect68-36"
       is_visible="true"
       lpeversion="1"
       nodesatellites_param="F,0,0,1,0,0,0,1 @ F,0,0,1,0,0,0,1 @ F,0,0,1,0,0,0,1 @ F,0,0,1,0,0,0,1 @ F,0,0,1,0,0,0,1 @ F,0,0,1,0,0,0,1 @ F,0,0,1,0,0,0,1 @ F,0,0,1,0,0,0,1 @ F,0,0,1,0,0,0,1"
       radius="0"
       unit="px"
       method="auto"
       mode="F"
       chamfer_steps="1"
       flexible="false"
       use_knot_distance="true"
       apply_no_radius="true"
       apply_with_radius="true"
       only_selected="false"
       hide_knots="false" /><inkscape:path-effect
       effect="fillet_chamfer"
       id="path-effect66-7"
       is_visible="true"
       lpeversion="1"
       nodesatellites_param="F,0,0,1,0,0,0,1 @ F,0,0,1,0,0.44929322,0,1 @ F,0,0,1,0,0.44929322,0,1 @ F,0,0,1,0,0,0,1 @ F,0,0,1,0,0,0,1 @ F,0,0,1,0,0,0,1 @ F,0,0,1,0,0,0,1 @ F,0,0,1,0,0,0,1 @ F,0,0,1,0,0,0,1 @ F,0,0,1,0,0,0,1"
       radius="0"
       unit="px"
       method="auto"
       mode="F"
       chamfer_steps="1"
       flexible="false"
       use_knot_distance="true"
       apply_no_radius="true"
       apply_with_radius="true"
       only_selected="false"
       hide_knots="false" /></defs><g
     inkscape:label="Camada 1"
     inkscape:groupmode="layer"
     id="layer1"><ellipse
       style="fill:#003488;fill-opacity:1;stroke:#001a43;stroke-width:0.791172;stroke-dasharray:none;stroke-opacity:1"
       id="path2"
       cx="27.003349"
       cy="9.1687546"
       rx="7.9541597"
       ry="8.4952288" /><ellipse
       style="fill:#003488;fill-opacity:1;stroke:#001a43;stroke-width:0.791172;stroke-dasharray:none;stroke-opacity:1"
       id="ellipse1"
       cx="26.263214"
       cy="43.534142"
       rx="7.9541597"
       ry="8.4952288" /><ellipse
       style="fill:#003488;fill-opacity:1;stroke:#001a43;stroke-width:0.791172;stroke-dasharray:none;stroke-opacity:1"
       id="ellipse7"
       cx="10.564281"
       cy="17.234425"
       rx="7.9541597"
       ry="8.4952288" /><ellipse
       style="fill:#003488;fill-opacity:1;stroke:#001a43;stroke-width:0.791172;stroke-dasharray:none;stroke-opacity:1"
       id="ellipse12"
       cx="43.021645"
       cy="17.764755"
       rx="7.9541597"
       ry="8.4952288" /><ellipse
       style="fill:#003488;fill-opacity:1;stroke:#001a43;stroke-width:0.791172;stroke-dasharray:none;stroke-opacity:1"
       id="ellipse22"
       cx="42.810673"
       cy="36.537277"
       rx="7.9541597"
       ry="8.4952288" /><ellipse
       style="fill:#003488;fill-opacity:1;stroke:#001a43;stroke-width:0.791172;stroke-dasharray:none;stroke-opacity:1"
       id="ellipse38"
       cx="10.124183"
       cy="37.23542"
       rx="7.9541597"
       ry="8.4952288" /><path
       id="path15-9"
       style="fill:#001a43;fill-opacity:1;stroke:none;stroke-width:0.810982;stroke-dasharray:none;stroke-opacity:1"
       d="m 47.236544,17.879673 c 0,2.355403 -1.866125,5.367808 -4.168108,5.367808 -2.301981,-1e-6 -4.168107,-3.012405 -4.168107,-5.367808 0,-2.355399 1.95119,-5.514868 4.253171,-5.514868 2.301981,0 4.083044,3.159469 4.083044,5.514868 z"
       sodipodi:nodetypes="sssss" /><path
       id="path19"
       style="fill:#0053ce;fill-opacity:1;stroke:#0053ce;stroke-width:0.886339;stroke-dasharray:none;stroke-opacity:1"
       d="m 45.591947,17.82184 c 0,1.242659 -1.115689,2.831936 -2.491952,2.831936 -1.37627,0 -2.491954,-1.589277 -2.491954,-2.831936 0,-1.242658 1.166541,-2.909524 2.542806,-2.909524 1.37627,0 2.4411,1.666866 2.4411,2.909524 z"
       sodipodi:nodetypes="sssss" /><g
       id="g48"
       transform="matrix(1.8866734,0,0,1.6912737,-94.845472,-2.751072)"
       style="fill:#001a43;fill-opacity:1"><path
         id="path20"
         style="fill:#001a43;fill-opacity:1;stroke:none;stroke-width:0.117381"
         d="m 74.478124,11.154978 c 0,0.448786 -0.337856,1.022754 -0.754621,1.022754 -0.416764,0 -0.75462,-0.573968 -0.75462,-1.022754 0,-0.448785 0.353255,-1.050773 0.77002,-1.050773 0.416765,0 0.739221,0.601988 0.739221,1.050773 z"
         sodipodi:nodetypes="sssss" /></g><g
       id="g87"
       style="fill:#001a43;fill-opacity:1;stroke:none;stroke-opacity:1"
       transform="matrix(1.0125683,0,0,1.2648678,-0.07438424,-11.280879)"><path
         id="path86"
         style="fill:#001a43;fill-opacity:1;stroke:none;stroke-width:0.223558;stroke-dasharray:none;stroke-opacity:1"
         d="M 5.8559822,40.595685 C 5.1562068,40.505916 4.0777549,40.186144 3.8514145,39.933309 3.6250739,39.680473 4.3365569,39.590318 5.0363329,39.680088 c 0.6997739,0.08977 1.8302831,0.424487 2.0566234,0.677323 0.2263375,0.252836 -0.5371974,0.328043 -1.2369741,0.238274 z"
         sodipodi:nodetypes="sssss" /><path
         id="path87"
         style="fill:#001a43;fill-opacity:1;stroke:none;stroke-width:0.223558;stroke-dasharray:none;stroke-opacity:1"
         d="M 6.1211472,41.54103 C 5.4213718,41.6308 4.3429199,41.950571 4.1165795,42.203406 3.8902389,42.456242 4.6017219,42.546397 5.3014979,42.456627 6.0012718,42.366857 7.131781,42.03214 7.3581213,41.779304 7.5844588,41.526468 6.8209239,41.451261 6.1211472,41.54103 Z"
         sodipodi:nodetypes="sssss" /></g><path
       style="fill:#001a43;fill-opacity:1;stroke:none;stroke-width:1.85999;stroke-linecap:round;stroke-linejoin:round;stroke-dasharray:none;stroke-opacity:1"
       d="m 3.3941125,33.59641 3.9501884,0.499455 1.856926,2.815108 -4.7267209,-0.590265 z"
       id="path31" /><ellipse
       style="fill:#0053ce;fill-opacity:1;stroke:#001a43;stroke-width:0.424037;stroke-linecap:round;stroke-linejoin:round;stroke-dasharray:none;stroke-opacity:1"
       id="path33"
       cx="10.275"
       cy="42.862495"
       rx="1.9334469"
       ry="2.0459468" /><path
       id="path50"
       style="fill:#000000;fill-opacity:0.365321;stroke:none;stroke-width:0.757074;stroke-dasharray:none;stroke-opacity:1"
       d="m 5.9953444,30.486484 a 7.6501063,8.0879137 0 0 0 -3.473197,6.775599 7.6501063,8.0879137 0 0 0 7.6501056,8.088151 7.6501063,8.0879137 0 0 0 5.584334,-2.560236 7.6501063,8.0879137 0 0 1 -4.17691,1.312045 7.6501063,8.0879137 0 0 1 -7.6501046,-8.088151 7.6501063,8.0879137 0 0 1 2.065772,-5.527408 z" /><path
       id="path55"
       style="fill:#0053ce;fill-opacity:1;stroke:#001a43;stroke-width:1.25968;stroke-dasharray:none;stroke-opacity:1"
       d="m 29.564742,40.533923 a 2.7577164,4.6138716 36.439395 0 0 -3.263884,1.727542 4.6138716,2.7577164 53.560605 0 0 -4.333069,-1.329117 4.6138716,2.7577164 53.560605 0 0 0.521932,5.349544 4.6138716,2.7577164 53.560605 0 0 4.701005,2.230354 2.7577164,4.6138716 36.439395 0 0 2.971395,-2.283581 2.7577164,4.6138716 36.439395 0 0 0.521932,-5.349544 2.7577164,4.6138716 36.439395 0 0 -1.119311,-0.345198 z" /><path
       id="path51"
       style="fill:#000000;fill-opacity:0.365321;stroke:none;stroke-width:0.757074;stroke-dasharray:none;stroke-opacity:1"
       d="m 22.117379,36.744379 a 7.6501063,8.0879137 0 0 0 -3.473197,6.775599 7.6501063,8.0879137 0 0 0 7.650105,8.088151 7.6501063,8.0879137 0 0 0 5.584334,-2.560236 7.6501063,8.0879137 0 0 1 -4.17691,1.312045 7.6501063,8.0879137 0 0 1 -7.650104,-8.088151 7.6501063,8.0879137 0 0 1 2.065772,-5.527408 z" /><path
       id="path52"
       style="fill:#000000;fill-opacity:0.365321;stroke:none;stroke-width:0.757074;stroke-dasharray:none;stroke-opacity:1"
       d="m 38.875809,11.076404 a 7.6501063,8.0879137 0 0 0 -3.473197,6.775599 7.6501063,8.0879137 0 0 0 7.650105,8.088151 7.6501063,8.0879137 0 0 0 5.584334,-2.560236 7.6501063,8.0879137 0 0 1 -4.17691,1.312045 7.6501063,8.0879137 0 0 1 -7.650104,-8.088151 7.6501063,8.0879137 0 0 1 2.065772,-5.527408 z" /><path
       style="fill:#0053ce;fill-opacity:1;stroke:#001a43;stroke-width:0.465931;stroke-dasharray:none;stroke-opacity:1"
       d="m 23.931434,8.9022673 2.3625,7.8750007 4.049999,-7.8750007 -2.737499,2.6250007 2.475,-5.1000008 1.65,-1.4624999 -3.2625,-2.0624999 2.062501,1.875 -1.200002,1.1999999 -1.349999,2.7375001 -0.825,-6.0375 -1.35,6.0749999 -0.5625,-2.3625 -1.6875,-1.2 1.9875,-2.3249999 -2.7375,2.2124999 1.5,1.6875 0.525,2.1749999 0.45,2.3625008 z"
       id="path53" /><path
       id="path54"
       style="fill:#000000;fill-opacity:0.365321;stroke:none;stroke-width:0.757074;stroke-dasharray:none;stroke-opacity:1"
       d="m 22.900809,2.3764042 a 7.6501063,8.0879137 0 0 0 -3.473197,6.775599 7.6501063,8.0879137 0 0 0 7.650105,8.0881508 7.6501063,8.0879137 0 0 0 5.584334,-2.560236 7.6501063,8.0879137 0 0 1 -4.17691,1.312045 7.6501063,8.0879137 0 0 1 -7.650104,-8.0881508 7.6501063,8.0879137 0 0 1 2.065772,-5.527408 z" /><g
       id="g1"><path
         id="path78"
         style="fill:#001a43;fill-opacity:1;stroke:none;stroke-width:0.293545;stroke-dasharray:none;stroke-opacity:1"
         d="M 6.7970628,9.5372732 C 7.718046,9.1924714 9.2039414,9.2614657 9.5839009,9.8905486 9.9638596,10.519631 9.0940016,11.470583 8.1730184,11.815385 7.2520366,12.160187 5.6945971,12.089474 5.314638,11.460392 4.9346785,10.831309 5.8760811,9.882075 6.7970628,9.5372732 Z"
         sodipodi:nodetypes="sssss" /><path
         id="path79"
         style="fill:#001a43;fill-opacity:1;stroke:#0053ce;stroke-width:0.312597;stroke-dasharray:none;stroke-opacity:1"
         d="M 7.1663591,9.9545974 C 7.676783,9.8157416 8.4620441,9.9399787 8.6254456,10.312295 8.7888473,10.684612 8.2685127,11.164021 7.7580889,11.302877 7.2476658,11.441732 6.4244969,11.31241 6.2610958,10.940092 6.0976935,10.567774 6.655936,10.093453 7.1663591,9.9545974 Z"
         sodipodi:nodetypes="sssss" /><g
         id="g80"
         transform="matrix(0.72514649,0,0,0.96647279,-45.488952,-0.18461365)"
         style="fill:#001a43;fill-opacity:1"><path
           id="path80"
           style="fill:#001a43;fill-opacity:1;stroke:none;stroke-width:0.117381"
           d="m 74.478124,11.154978 c 0,0.448786 -0.337856,1.022754 -0.754621,1.022754 -0.416764,0 -0.75462,-0.573968 -0.75462,-1.022754 0,-0.448785 0.353255,-1.050773 0.77002,-1.050773 0.416765,0 0.739221,0.601988 0.739221,1.050773 z"
           sodipodi:nodetypes="sssss" /></g></g><g
       id="g89"
       transform="matrix(-1.0125683,0,0,1.2648678,20.456385,-11.482119)"
       style="fill:#001a43;fill-opacity:1;stroke:none;stroke-opacity:1"><path
         id="path88"
         style="fill:#001a43;fill-opacity:1;stroke:none;stroke-width:0.223558;stroke-dasharray:none;stroke-opacity:1"
         d="M 5.8559822,40.595685 C 5.1562068,40.505916 4.0777549,40.186144 3.8514145,39.933309 3.6250739,39.680473 4.3365569,39.590318 5.0363329,39.680088 c 0.6997739,0.08977 1.8302831,0.424487 2.0566234,0.677323 0.2263375,0.252836 -0.5371974,0.328043 -1.2369741,0.238274 z"
         sodipodi:nodetypes="sssss" /><path
         id="path89"
         style="fill:#001a43;fill-opacity:1;stroke:none;stroke-width:0.223558;stroke-dasharray:none;stroke-opacity:1"
         d="M 6.1211472,41.54103 C 5.4213718,41.6308 4.3429199,41.950571 4.1165795,42.203406 3.8902389,42.456242 4.6017219,42.546397 5.3014979,42.456627 6.0012718,42.366857 7.131781,42.03214 7.3581213,41.779304 7.5844588,41.526468 6.8209239,41.451261 6.1211472,41.54103 Z"
         sodipodi:nodetypes="sssss" /></g><path
       style="fill:#001a43;fill-opacity:1;stroke:none;stroke-width:2.8616;stroke-opacity:1"
       d="m 37.837498,35.223143 2.850002,0.463138 1.65,9.378514 1.4625,-9.378514 3.749998,-0.771897 -3.15,-1.505194 -1.4625,-5.17169 -2.062498,5.326069 z"
       id="path90" /><path
       id="path91"
       style="fill:#000000;fill-opacity:0.365321;stroke:none;stroke-width:0.757074;stroke-dasharray:none;stroke-opacity:1"
       d="m 38.695344,29.811484 a 7.6501063,8.0879137 0 0 0 -3.473197,6.775599 7.6501063,8.0879137 0 0 0 7.650105,8.088151 7.6501063,8.0879137 0 0 0 5.584334,-2.560236 7.6501063,8.0879137 0 0 1 -4.17691,1.312045 7.6501063,8.0879137 0 0 1 -7.650104,-8.088151 7.6501063,8.0879137 0 0 1 2.065772,-5.527408 z" /><ellipse
       style="fill:#ffffff;fill-opacity:0.17018;stroke:none;stroke-width:0.273337;stroke-miterlimit:4;stroke-dasharray:none;stroke-opacity:1"
       id="ellipse9379"
       cx="18.886929"
       cy="48.244595"
       rx="4.0642266"
       ry="5.1363945"
       transform="matrix(0.49721894,-0.86762511,0.74924246,0.6622958,0,0)" /><g
       id="g8"
       transform="matrix(1.2058873,0.86178018,-0.74727999,1.3994564,5.3565741,-6.261484)"><path
         id="path3"
         style="fill:#001a43;fill-opacity:1;stroke:none;stroke-width:0.293545;stroke-dasharray:none;stroke-opacity:1"
         d="M 6.7970628,9.5372732 C 7.718046,9.1924714 9.2039414,9.2614657 9.5839009,9.8905486 9.9638596,10.519631 9.0940016,11.470583 8.1730184,11.815385 7.2520366,12.160187 5.6945971,12.089474 5.314638,11.460392 4.9346785,10.831309 5.8760811,9.882075 6.7970628,9.5372732 Z"
         sodipodi:nodetypes="sssss" /><path
         id="path5"
         style="fill:#001a43;fill-opacity:1;stroke:#0053ce;stroke-width:0.312597;stroke-dasharray:none;stroke-opacity:1"
         d="M 7.1663591,9.9545974 C 7.676783,9.8157416 8.4620441,9.9399787 8.6254456,10.312295 8.7888473,10.684612 8.2685127,11.164021 7.7580889,11.302877 7.2476658,11.441732 6.4244969,11.31241 6.2610958,10.940092 6.0976935,10.567774 6.655936,10.093453 7.1663591,9.9545974 Z"
         sodipodi:nodetypes="sssss" /><g
         id="g6"
         transform="matrix(0.72514649,0,0,0.96647279,-45.488952,-0.18461365)"
         style="fill:#001a43;fill-opacity:1"><path
           id="path6"
           style="fill:#001a43;fill-opacity:1;stroke:none;stroke-width:0.117381"
           d="m 74.478124,11.154978 c 0,0.448786 -0.337856,1.022754 -0.754621,1.022754 -0.416764,0 -0.75462,-0.573968 -0.75462,-1.022754 0,-0.448785 0.353255,-1.050773 0.77002,-1.050773 0.416765,0 0.739221,0.601988 0.739221,1.050773 z"
           sodipodi:nodetypes="sssss" /></g></g><g
       id="g11"
       transform="matrix(1.2058873,-0.86178018,-0.74727999,-1.3994564,5.5156732,41.606958)"><path
         id="path8"
         style="fill:#001a43;fill-opacity:1;stroke:none;stroke-width:0.293545;stroke-dasharray:none;stroke-opacity:1"
         d="M 6.7970628,9.5372732 C 7.718046,9.1924714 9.2039414,9.2614657 9.5839009,9.8905486 9.9638596,10.519631 9.0940016,11.470583 8.1730184,11.815385 7.2520366,12.160187 5.6945971,12.089474 5.314638,11.460392 4.9346785,10.831309 5.8760811,9.882075 6.7970628,9.5372732 Z"
         sodipodi:nodetypes="sssss" /><path
         id="path9"
         style="fill:#001a43;fill-opacity:1;stroke:#0053ce;stroke-width:0.312597;stroke-dasharray:none;stroke-opacity:1"
         d="M 7.1663591,9.9545974 C 7.676783,9.8157416 8.4620441,9.9399787 8.6254456,10.312295 8.7888473,10.684612 8.2685127,11.164021 7.7580889,11.302877 7.2476658,11.441732 6.4244969,11.31241 6.2610958,10.940092 6.0976935,10.567774 6.655936,10.093453 7.1663591,9.9545974 Z"
         sodipodi:nodetypes="sssss" /><g
         id="g10"
         transform="matrix(0.72514649,0,0,0.96647279,-45.488952,-0.18461365)"
         style="fill:#001a43;fill-opacity:1"><path
           id="path10"
           style="fill:#001a43;fill-opacity:1;stroke:none;stroke-width:0.117381"
           d="m 74.478124,11.154978 c 0,0.448786 -0.337856,1.022754 -0.754621,1.022754 -0.416764,0 -0.75462,-0.573968 -0.75462,-1.022754 0,-0.448785 0.353255,-1.050773 0.77002,-1.050773 0.416765,0 0.739221,0.601988 0.739221,1.050773 z"
           sodipodi:nodetypes="sssss" /></g></g><g
       id="g14"
       transform="matrix(-0.75128875,0.65997364,0.65997364,0.75128875,6.9058046,10.571287)"><path
         id="path11"
         style="fill:#001a43;fill-opacity:1;stroke:none;stroke-width:0.293545;stroke-dasharray:none;stroke-opacity:1"
         d="M 6.7970628,9.5372732 C 7.718046,9.1924714 9.2039414,9.2614657 9.5839009,9.8905486 9.9638596,10.519631 9.0940016,11.470583 8.1730184,11.815385 7.2520366,12.160187 5.6945971,12.089474 5.314638,11.460392 4.9346785,10.831309 5.8760811,9.882075 6.7970628,9.5372732 Z"
         sodipodi:nodetypes="sssss" /><path
         id="path12"
         style="fill:#001a43;fill-opacity:1;stroke:#0053ce;stroke-width:0.312597;stroke-dasharray:none;stroke-opacity:1"
         d="M 7.1663591,9.9545974 C 7.676783,9.8157416 8.4620441,9.9399787 8.6254456,10.312295 8.7888473,10.684612 8.2685127,11.164021 7.7580889,11.302877 7.2476658,11.441732 6.4244969,11.31241 6.2610958,10.940092 6.0976935,10.567774 6.655936,10.093453 7.1663591,9.9545974 Z"
         sodipodi:nodetypes="sssss" /><g
         id="g13"
         transform="matrix(0.72514649,0,0,0.96647279,-45.488952,-0.18461365)"
         style="fill:#001a43;fill-opacity:1"><path
           id="path13"
           style="fill:#001a43;fill-opacity:1;stroke:none;stroke-width:0.117381"
           d="m 74.478124,11.154978 c 0,0.448786 -0.337856,1.022754 -0.754621,1.022754 -0.416764,0 -0.75462,-0.573968 -0.75462,-1.022754 0,-0.448785 0.353255,-1.050773 0.77002,-1.050773 0.416765,0 0.739221,0.601988 0.739221,1.050773 z"
           sodipodi:nodetypes="sssss" /></g></g><g
       id="g17"
       transform="matrix(-1,0,0,1,20.990586,-0.10606601)"><path
         id="path14"
         style="fill:#001a43;fill-opacity:1;stroke:none;stroke-width:0.293545;stroke-dasharray:none;stroke-opacity:1"
         d="M 6.7970628,9.5372732 C 7.718046,9.1924714 9.2039414,9.2614657 9.5839009,9.8905486 9.9638596,10.519631 9.0940016,11.470583 8.1730184,11.815385 7.2520366,12.160187 5.6945971,12.089474 5.314638,11.460392 4.9346785,10.831309 5.8760811,9.882075 6.7970628,9.5372732 Z"
         sodipodi:nodetypes="sssss" /><path
         id="path15"
         style="fill:#001a43;fill-opacity:1;stroke:#0053ce;stroke-width:0.312597;stroke-dasharray:none;stroke-opacity:1"
         d="M 7.1663591,9.9545974 C 7.676783,9.8157416 8.4620441,9.9399787 8.6254456,10.312295 8.7888473,10.684612 8.2685127,11.164021 7.7580889,11.302877 7.2476658,11.441732 6.4244969,11.31241 6.2610958,10.940092 6.0976935,10.567774 6.655936,10.093453 7.1663591,9.9545974 Z"
         sodipodi:nodetypes="sssss" /><g
         id="g16"
         transform="matrix(0.72514649,0,0,0.96647279,-45.488952,-0.18461365)"
         style="fill:#001a43;fill-opacity:1"><path
           id="path16"
           style="fill:#001a43;fill-opacity:1;stroke:none;stroke-width:0.117381"
           d="m 74.478124,11.154978 c 0,0.448786 -0.337856,1.022754 -0.754621,1.022754 -0.416764,0 -0.75462,-0.573968 -0.75462,-1.022754 0,-0.448785 0.353255,-1.050773 0.77002,-1.050773 0.416765,0 0.739221,0.601988 0.739221,1.050773 z"
           sodipodi:nodetypes="sssss" /></g></g><g
       id="g22"
       transform="matrix(-1.2058873,0.86178018,0.74727999,1.3994564,15.634012,-6.36755)"><path
         id="path17"
         style="fill:#001a43;fill-opacity:1;stroke:none;stroke-width:0.293545;stroke-dasharray:none;stroke-opacity:1"
         d="M 6.7970628,9.5372732 C 7.718046,9.1924714 9.2039414,9.2614657 9.5839009,9.8905486 9.9638596,10.519631 9.0940016,11.470583 8.1730184,11.815385 7.2520366,12.160187 5.6945971,12.089474 5.314638,11.460392 4.9346785,10.831309 5.8760811,9.882075 6.7970628,9.5372732 Z"
         sodipodi:nodetypes="sssss" /><path
         id="path18"
         style="fill:#001a43;fill-opacity:1;stroke:#0053ce;stroke-width:0.312597;stroke-dasharray:none;stroke-opacity:1"
         d="M 7.1663591,9.9545974 C 7.676783,9.8157416 8.4620441,9.9399787 8.6254456,10.312295 8.7888473,10.684612 8.2685127,11.164021 7.7580889,11.302877 7.2476658,11.441732 6.4244969,11.31241 6.2610958,10.940092 6.0976935,10.567774 6.655936,10.093453 7.1663591,9.9545974 Z"
         sodipodi:nodetypes="sssss" /><g
         id="g21"
         transform="matrix(0.72514649,0,0,0.96647279,-45.488952,-0.18461365)"
         style="fill:#001a43;fill-opacity:1"><path
           id="path21"
           style="fill:#001a43;fill-opacity:1;stroke:none;stroke-width:0.117381"
           d="m 74.478124,11.154978 c 0,0.448786 -0.337856,1.022754 -0.754621,1.022754 -0.416764,0 -0.75462,-0.573968 -0.75462,-1.022754 0,-0.448785 0.353255,-1.050773 0.77002,-1.050773 0.416765,0 0.739221,0.601988 0.739221,1.050773 z"
           sodipodi:nodetypes="sssss" /></g></g><g
       id="g25"
       transform="matrix(-1.2058873,-0.86178018,0.74727999,-1.3994564,15.474913,41.500892)"><path
         id="path22"
         style="fill:#001a43;fill-opacity:1;stroke:none;stroke-width:0.293545;stroke-dasharray:none;stroke-opacity:1"
         d="M 6.7970628,9.5372732 C 7.718046,9.1924714 9.2039414,9.2614657 9.5839009,9.8905486 9.9638596,10.519631 9.0940016,11.470583 8.1730184,11.815385 7.2520366,12.160187 5.6945971,12.089474 5.314638,11.460392 4.9346785,10.831309 5.8760811,9.882075 6.7970628,9.5372732 Z"
         sodipodi:nodetypes="sssss" /><path
         id="path23"
         style="fill:#001a43;fill-opacity:1;stroke:#0053ce;stroke-width:0.312597;stroke-dasharray:none;stroke-opacity:1"
         d="M 7.1663591,9.9545974 C 7.676783,9.8157416 8.4620441,9.9399787 8.6254456,10.312295 8.7888473,10.684612 8.2685127,11.164021 7.7580889,11.302877 7.2476658,11.441732 6.4244969,11.31241 6.2610958,10.940092 6.0976935,10.567774 6.655936,10.093453 7.1663591,9.9545974 Z"
         sodipodi:nodetypes="sssss" /><g
         id="g24"
         transform="matrix(0.72514649,0,0,0.96647279,-45.488952,-0.18461365)"
         style="fill:#001a43;fill-opacity:1"><path
           id="path24"
           style="fill:#001a43;fill-opacity:1;stroke:none;stroke-width:0.117381"
           d="m 74.478124,11.154978 c 0,0.448786 -0.337856,1.022754 -0.754621,1.022754 -0.416764,0 -0.75462,-0.573968 -0.75462,-1.022754 0,-0.448785 0.353255,-1.050773 0.77002,-1.050773 0.416765,0 0.739221,0.601988 0.739221,1.050773 z"
           sodipodi:nodetypes="sssss" /></g></g><g
       id="g31"
       transform="rotate(41.297863,-6.9579837,24.467197)"><path
         id="path28"
         style="fill:#001a43;fill-opacity:1;stroke:none;stroke-width:0.293545;stroke-dasharray:none;stroke-opacity:1"
         d="M 6.7970628,9.5372732 C 7.718046,9.1924714 9.2039414,9.2614657 9.5839009,9.8905486 9.9638596,10.519631 9.0940016,11.470583 8.1730184,11.815385 7.2520366,12.160187 5.6945971,12.089474 5.314638,11.460392 4.9346785,10.831309 5.8760811,9.882075 6.7970628,9.5372732 Z"
         sodipodi:nodetypes="sssss" /><path
         id="path29"
         style="fill:#001a43;fill-opacity:1;stroke:#0053ce;stroke-width:0.312597;stroke-dasharray:none;stroke-opacity:1"
         d="M 7.1663591,9.9545974 C 7.676783,9.8157416 8.4620441,9.9399787 8.6254456,10.312295 8.7888473,10.684612 8.2685127,11.164021 7.7580889,11.302877 7.2476658,11.441732 6.4244969,11.31241 6.2610958,10.940092 6.0976935,10.567774 6.655936,10.093453 7.1663591,9.9545974 Z"
         sodipodi:nodetypes="sssss" /><g
         id="g30"
         transform="matrix(0.72514649,0,0,0.96647279,-45.488952,-0.18461365)"
         style="fill:#001a43;fill-opacity:1"><path
           id="path30"
           style="fill:#001a43;fill-opacity:1;stroke:none;stroke-width:0.117381"
           d="m 74.478124,11.154978 c 0,0.448786 -0.337856,1.022754 -0.754621,1.022754 -0.416764,0 -0.75462,-0.573968 -0.75462,-1.022754 0,-0.448785 0.353255,-1.050773 0.77002,-1.050773 0.416765,0 0.739221,0.601988 0.739221,1.050773 z"
           sodipodi:nodetypes="sssss" /></g></g><path
       id="path84"
       style="fill:#000000;fill-opacity:0.365321;stroke:none;stroke-width:0.757074;stroke-dasharray:none;stroke-opacity:1"
       d="m 6.1565402,10.938357 a 7.6501063,8.0879137 0 0 0 -3.473197,6.775599 7.6501063,8.0879137 0 0 0 7.6501058,8.088151 7.6501063,8.0879137 0 0 0 5.584334,-2.560236 7.6501063,8.0879137 0 0 1 -4.17691,1.312045 7.6501063,8.0879137 0 0 1 -7.6501048,-8.088151 7.6501063,8.0879137 0 0 1 2.065772,-5.527408 z" /><path
       style="fill:#001a43;fill-opacity:1;stroke:none;stroke-width:1.85999;stroke-linecap:round;stroke-linejoin:round;stroke-dasharray:none;stroke-opacity:1"
       d="m 16.864496,33.569894 -3.950188,0.499455 -1.856926,2.815108 4.72672,-0.590265 z"
       id="path32" /><ellipse
       style="fill:#ffffff;fill-opacity:0.17018;stroke:none;stroke-width:0.273337;stroke-miterlimit:4;stroke-dasharray:none;stroke-opacity:1"
       id="ellipse33"
       cx="14.905066"
       cy="29.66564"
       rx="4.0642266"
       ry="5.1363945"
       transform="matrix(0.49721894,-0.86762511,0.74924246,0.6622958,0,0)" /><ellipse
       style="fill:#ffffff;fill-opacity:0.17018;stroke:none;stroke-width:0.273337;stroke-miterlimit:4;stroke-dasharray:none;stroke-opacity:1"
       id="ellipse34"
       cx="4.3398018"
       cy="57.498085"
       rx="4.0642266"
       ry="5.1363945"
       transform="matrix(0.49721894,-0.86762511,0.74924246,0.6622958,0,0)" /><ellipse
       style="fill:#ffffff;fill-opacity:0.17018;stroke:none;stroke-width:0.273337;stroke-miterlimit:4;stroke-dasharray:none;stroke-opacity:1"
       id="ellipse35"
       cx="-11.880791"
       cy="46.440498"
       rx="4.0642266"
       ry="5.1363945"
       transform="matrix(0.49721894,-0.86762511,0.74924246,0.6622958,0,0)" /><ellipse
       style="fill:#ffffff;fill-opacity:0.17018;stroke:none;stroke-width:0.273337;stroke-miterlimit:4;stroke-dasharray:none;stroke-opacity:1"
       id="ellipse36"
       cx="-18.48868"
       cy="29.404047"
       rx="4.0642266"
       ry="5.1363945"
       transform="matrix(0.49721894,-0.86762511,0.74924246,0.6622958,0,0)" /><ellipse
       style="fill:#ffffff;fill-opacity:0.17018;stroke:none;stroke-width:0.273337;stroke-miterlimit:4;stroke-dasharray:none;stroke-opacity:1"
       id="ellipse37"
       cx="-2.4630675"
       cy="19.369595"
       rx="4.0642266"
       ry="5.1363945"
       transform="matrix(0.49721894,-0.86762511,0.74924246,0.6622958,0,0)" /></g></svg>
