<?xml version="1.0" encoding="UTF-8" standalone="no"?>
<!-- Created with Inkscape (http://www.inkscape.org/) -->

<svg
   width="100"
   height="100"
   viewBox="0 0 26.458335 26.458335"
   version="1.1"
   id="svg1"
   inkscape:version="1.4.2 (ebf0e940d0, 2025-05-08)"
   sodipodi:docname="home_icon_hover.svg"
   xml:space="preserve"
   xmlns:inkscape="http://www.inkscape.org/namespaces/inkscape"
   xmlns:sodipodi="http://sodipodi.sourceforge.net/DTD/sodipodi-0.dtd"
   xmlns="http://www.w3.org/2000/svg"
   xmlns:svg="http://www.w3.org/2000/svg"><sodipodi:namedview
     id="namedview1"
     pagecolor="#505050"
     bordercolor="#eeeeee"
     borderopacity="1"
     inkscape:showpageshadow="0"
     inkscape:pageopacity="0"
     inkscape:pagecheckerboard="0"
     inkscape:deskcolor="#505050"
     inkscape:document-units="px"
     inkscape:zoom="4.9890312"
     inkscape:cx="52.815865"
     inkscape:cy="38.985525"
     inkscape:window-width="1366"
     inkscape:window-height="697"
     inkscape:window-x="0"
     inkscape:window-y="0"
     inkscape:window-maximized="1"
     inkscape:current-layer="layer1" /><defs
     id="defs1"><linearGradient
       id="linearGradient13895"
       inkscape:swatch="solid"><stop
         style="stop-color:#000000;stop-opacity:1;"
         offset="0"
         id="stop13893" /></linearGradient><filter
       style="color-interpolation-filters:sRGB"
       inkscape:label="Clean Edges"
       id="filter14269"
       x="-0.31154084"
       y="-0.29580635"
       width="1.6230817"
       height="1.5916127"><feGaussianBlur
         stdDeviation="0.204612"
         result="blur"
         id="feGaussianBlur14263" /><feComposite
         in="SourceGraphic"
         in2="blur"
         operator="in"
         result="composite1"
         id="feComposite14265" /><feComposite
         in="composite1"
         in2="composite1"
         operator="in"
         result="composite2"
         id="feComposite14267" /></filter></defs><g
     inkscape:label="Camada 1"
     inkscape:groupmode="layer"
     id="layer1"><g
       id="g7"
       transform="matrix(2.5012959,0,0,2.6937441,-15.748503,-5.7052669)"><ellipse
         style="fill:#002766;fill-opacity:1;stroke:none;stroke-width:1.05482"
         id="path4"
         cx="10.279738"
         cy="6.8676744"
         rx="1.1109732"
         ry="1.1472735" /><path
         id="ellipse6"
         style="fill:#001c4a;fill-opacity:1;stroke:none;stroke-width:1.05482"
         d="M 9.6216349,5.9433065 A 1.1109732,1.1472735 0 0 0 9.1689494,6.8677979 1.1109732,1.1472735 0 0 0 10.279993,8.0150146 1.1109732,1.1472735 0 0 0 11.21637,7.4848145 1.1109732,1.1472735 0 0 1 10.558529,7.7075399 1.1109732,1.1472735 0 0 1 9.4474854,6.5603231 1.1109732,1.1472735 0 0 1 9.6216349,5.9433065 Z" /><circle
         style="fill:#ffffff;fill-opacity:1;stroke:none;stroke-width:0.418942"
         id="ellipse5"
         cx="9.7533178"
         cy="6.2299371"
         r="0.44839242" /></g><ellipse
       style="fill:#d5d5d5;fill-opacity:1;stroke:#ffffff;stroke-width:1.43514;stroke-miterlimit:4;stroke-dasharray:none;stroke-opacity:1"
       id="path9279"
       cx="13.241978"
       cy="13.234438"
       rx="12.343628"
       ry="12.483394" /><ellipse
       style="fill:#ffffff;fill-opacity:1;stroke:none;stroke-width:0.400661;stroke-miterlimit:4;stroke-dasharray:none;stroke-opacity:1"
       id="ellipse9379"
       cx="4.5264487"
       cy="20.581173"
       rx="5.9898291"
       ry="7.4882522"
       transform="matrix(0.48425521,-0.87492679,0.73767226,0.67515897,0,0)" /><path
       id="rect1"
       style="fill:#0053ce;fill-opacity:1;stroke:#0053ce;stroke-width:0.638382;stroke-opacity:1"
       d="m 13.251729,5.8398192 -7.7946054,6.9009718 2.6803517,-0.0084 v 7.737198 h 3.1703567 v -2.873998 h 3.480902 v 2.873998 h 3.416807 V 12.70151 l 3.00785,-0.0093 z" /><path
       id="path1"
       style="fill:#003488;fill-opacity:1;stroke:#003488;stroke-width:0.638382;stroke-opacity:1"
       d="M 10.869621 7.9488693 L 5.4570316 12.740825 L 8.1374883 12.732557 L 8.1374883 20.469553 L 11.307838 20.469553 L 11.307838 17.595826 L 14.788762 17.595826 L 14.788762 20.469553 L 18.205608 20.469553 L 18.205608 17.338478 A 7.8962227 5.7126053 58.820968 0 1 14.279233 15.335499 A 7.8962227 5.7126053 58.820968 0 1 10.869621 7.9488693 z " /></g></svg>
