<?xml version="1.0" encoding="UTF-8" standalone="no"?>
<!-- Created with Inkscape (http://www.inkscape.org/) -->

<svg
   width="100"
   height="100"
   viewBox="0 0 26.458335 26.458335"
   version="1.1"
   id="svg1"
   inkscape:version="1.4.2 (ebf0e940d0, 2025-05-08)"
   sodipodi:docname="Logo.svg"
   xml:space="preserve"
   xmlns:inkscape="http://www.inkscape.org/namespaces/inkscape"
   xmlns:sodipodi="http://sodipodi.sourceforge.net/DTD/sodipodi-0.dtd"
   xmlns="http://www.w3.org/2000/svg"
   xmlns:svg="http://www.w3.org/2000/svg"><sodipodi:namedview
     id="namedview1"
     pagecolor="#505050"
     bordercolor="#eeeeee"
     borderopacity="1"
     inkscape:showpageshadow="0"
     inkscape:pageopacity="0"
     inkscape:pagecheckerboard="0"
     inkscape:deskcolor="#505050"
     inkscape:document-units="px"
     inkscape:zoom="3.5277778"
     inkscape:cx="120.89764"
     inkscape:cy="60.519685"
     inkscape:window-width="1366"
     inkscape:window-height="697"
     inkscape:window-x="0"
     inkscape:window-y="0"
     inkscape:window-maximized="1"
     inkscape:current-layer="layer1" /><defs
     id="defs1"><linearGradient
       id="linearGradient13895"
       inkscape:swatch="solid"><stop
         style="stop-color:#000000;stop-opacity:1;"
         offset="0"
         id="stop13893" /></linearGradient><filter
       style="color-interpolation-filters:sRGB"
       inkscape:label="Clean Edges"
       id="filter14269"
       x="-0.31154084"
       y="-0.29580635"
       width="1.6230817"
       height="1.5916127"><feGaussianBlur
         stdDeviation="0.204612"
         result="blur"
         id="feGaussianBlur14263" /><feComposite
         in="SourceGraphic"
         in2="blur"
         operator="in"
         result="composite1"
         id="feComposite14265" /><feComposite
         in="composite1"
         in2="composite1"
         operator="in"
         result="composite2"
         id="feComposite14267" /></filter></defs><g
     inkscape:label="Camada 1"
     inkscape:groupmode="layer"
     id="layer1"><ellipse
       style="fill:#002766;fill-opacity:1;stroke:#001a43;stroke-width:1.43514;stroke-miterlimit:4;stroke-dasharray:none;stroke-opacity:1"
       id="path9279"
       cx="13.241978"
       cy="13.234438"
       rx="12.343628"
       ry="12.483394" /><ellipse
       style="fill:#0053ce;fill-opacity:1;stroke:none;stroke-width:0.617829;stroke-miterlimit:4;stroke-dasharray:none;stroke-opacity:1"
       id="ellipse9379"
       cx="14.166533"
       cy="12.353061"
       rx="10.148315"
       ry="10.509531" /><path
       id="path9421"
       style="fill:#ffffff;fill-opacity:1;stroke:#001a43;stroke-width:1.23038;stroke-miterlimit:4;stroke-dasharray:none;stroke-opacity:1"
       d="M 6.6184743,8.9421423 C 6.1464747,9.989991 5.8946427,11.220598 5.89463,12.479292 c 2.102e-4,3.525767 1.9347607,6.383811 4.321096,6.383854 2.386336,-4.1e-5 4.320888,-2.858087 4.321097,-6.383854 -1.1e-5,-1.258694 -0.251843,-2.489301 -0.723845,-3.5371497 -2.268837,-2.2072792 -4.6824732,-1.9432809 -7.1945037,0 z"
       sodipodi:nodetypes="cccccc" /><path
       id="path3"
       style="fill:#ffffff;fill-opacity:1;stroke:#001a43;stroke-width:1.23038;stroke-miterlimit:4;stroke-dasharray:none;stroke-opacity:1"
       d="m 16.952343,8.7350921 c -0.472002,1.0478486 -0.723834,2.2784559 -0.723845,3.5371499 2.09e-4,3.525766 1.93476,6.38381 4.321095,6.383854 2.386336,-4.4e-5 4.320888,-2.858088 4.321098,-6.383854 -1.3e-5,-1.258694 -0.251845,-2.4893013 -0.723847,-3.5371499 -2.364833,-1.4524634 -4.749052,-2.0603345 -7.194501,0 z"
       sodipodi:nodetypes="cccccc" /><path
       id="path14"
       style="fill:#818181;fill-opacity:1;stroke:none;stroke-width:0.852489;stroke-miterlimit:4;stroke-dasharray:none;stroke-opacity:1"
       d="M 6.9810546,9.5392506 A 3.7844125,5.6199477 0 0 0 6.34712,12.652864 a 3.7844125,5.6199477 0 0 0 3.784366,5.619454 3.7844125,5.6199477 0 0 0 3.075719,-2.346544 4.8814918,5.1550372 0 0 1 -1.452394,0.234039 4.8814918,5.1550372 0 0 1 -4.8812991,-5.155044 4.8814918,5.1550372 0 0 1 0.2015006,-1.4655184 z" /><path
       id="path5"
       style="fill:#818181;fill-opacity:1;stroke:none;stroke-width:0.852489;stroke-miterlimit:4;stroke-dasharray:none;stroke-opacity:1"
       d="m 17.313022,9.3196416 a 3.7844125,5.6199477 0 0 0 -0.633935,3.1136134 3.7844125,5.6199477 0 0 0 3.784365,5.619453 3.7844125,5.6199477 0 0 0 3.075717,-2.346545 4.8814918,5.1550372 0 0 1 -1.452394,0.234043 4.8814918,5.1550372 0 0 1 -4.881296,-5.155046 4.8814918,5.1550372 0 0 1 0.201504,-1.4655184 z" /><g
       id="g7"
       transform="matrix(2.5012959,0,0,2.6937441,-15.748503,-5.7052669)"><ellipse
         style="fill:#002766;fill-opacity:1;stroke:none;stroke-width:1.05482"
         id="path4"
         cx="10.279738"
         cy="6.8676744"
         rx="1.1109732"
         ry="1.1472735" /><path
         id="ellipse6"
         style="fill:#001c4a;fill-opacity:1;stroke:none;stroke-width:1.05482"
         d="M 9.6216349,5.9433065 A 1.1109732,1.1472735 0 0 0 9.1689494,6.8677979 1.1109732,1.1472735 0 0 0 10.279993,8.0150146 1.1109732,1.1472735 0 0 0 11.21637,7.4848145 1.1109732,1.1472735 0 0 1 10.558529,7.7075399 1.1109732,1.1472735 0 0 1 9.4474854,6.5603231 1.1109732,1.1472735 0 0 1 9.6216349,5.9433065 Z" /><circle
         style="fill:#ffffff;fill-opacity:1;stroke:none;stroke-width:0.418942"
         id="ellipse5"
         cx="9.7533178"
         cy="6.2299371"
         r="0.44839242" /></g><g
       id="g8"
       transform="matrix(2.5012959,0,0,2.6937441,-5.5667574,-5.8242407)"><ellipse
         style="fill:#002766;fill-opacity:1;stroke:none;stroke-width:1.05482"
         id="ellipse7"
         cx="10.279738"
         cy="6.8676744"
         rx="1.1109732"
         ry="1.1472735" /><path
         id="path8"
         style="fill:#001c4a;fill-opacity:1;stroke:none;stroke-width:1.05482"
         d="M 9.6216349,5.9433065 A 1.1109732,1.1472735 0 0 0 9.1689494,6.8677979 1.1109732,1.1472735 0 0 0 10.279993,8.0150146 1.1109732,1.1472735 0 0 0 11.21637,7.4848145 1.1109732,1.1472735 0 0 1 10.558529,7.7075399 1.1109732,1.1472735 0 0 1 9.4474854,6.5603231 1.1109732,1.1472735 0 0 1 9.6216349,5.9433065 Z" /><circle
         style="fill:#ffffff;fill-opacity:1;stroke:none;stroke-width:0.418942"
         id="circle8"
         cx="9.7533178"
         cy="6.2299371"
         r="0.44839242" /></g></g></svg>
