<?xml version="1.0" encoding="UTF-8" standalone="no"?>
<!-- Created with Inkscape (http://www.inkscape.org/) -->

<svg
   width="400"
   height="400"
   viewBox="0 0 105.83334 105.83334"
   version="1.1"
   id="svg1"
   inkscape:version="1.4.2 (ebf0e940d0, 2025-05-08)"
   sodipodi:docname="TelaInicial2.svg"
   xml:space="preserve"
   xmlns:inkscape="http://www.inkscape.org/namespaces/inkscape"
   xmlns:sodipodi="http://sodipodi.sourceforge.net/DTD/sodipodi-0.dtd"
   xmlns="http://www.w3.org/2000/svg"
   xmlns:svg="http://www.w3.org/2000/svg"><sodipodi:namedview
     id="namedview1"
     pagecolor="#505050"
     bordercolor="#eeeeee"
     borderopacity="1"
     inkscape:showpageshadow="0"
     inkscape:pageopacity="0"
     inkscape:pagecheckerboard="0"
     inkscape:deskcolor="#505050"
     inkscape:document-units="px"
     inkscape:zoom="1.7638889"
     inkscape:cx="180.56693"
     inkscape:cy="161.85827"
     inkscape:window-width="1366"
     inkscape:window-height="697"
     inkscape:window-x="0"
     inkscape:window-y="0"
     inkscape:window-maximized="1"
     inkscape:current-layer="layer1" /><defs
     id="defs1"><linearGradient
       id="linearGradient13895"
       inkscape:swatch="solid"><stop
         style="stop-color:#000000;stop-opacity:1;"
         offset="0"
         id="stop13893" /></linearGradient><filter
       style="color-interpolation-filters:sRGB;"
       inkscape:label="Clean Edges"
       id="filter14269"
       x="-0.31154084"
       y="-0.29580634"
       width="1.6230817"
       height="1.5916127"><feGaussianBlur
         stdDeviation="0.204612"
         result="blur"
         id="feGaussianBlur14263" /><feComposite
         in="SourceGraphic"
         in2="blur"
         operator="in"
         result="composite1"
         id="feComposite14265" /><feComposite
         in="composite1"
         in2="composite1"
         operator="in"
         result="composite2"
         id="feComposite14267" /></filter><filter
       style="color-interpolation-filters:sRGB;"
       inkscape:label="Clean Edges"
       id="filter14269-6"
       x="-0.31154084"
       y="-0.29580634"
       width="1.6230817"
       height="1.5916127"><feGaussianBlur
         stdDeviation="0.204612"
         result="blur"
         id="feGaussianBlur14263-1" /><feComposite
         in="SourceGraphic"
         in2="blur"
         operator="in"
         result="composite1"
         id="feComposite14265-8" /><feComposite
         in="composite1"
         in2="composite1"
         operator="in"
         result="composite2"
         id="feComposite14267-7" /></filter><filter
       inkscape:label="Blur Double"
       inkscape:menu="Blurs"
       inkscape:menu-tooltip="Overlays two copies with different blur amounts and modifiable blend and composite"
       style="color-interpolation-filters:sRGB;"
       id="filter6"
       x="-0.71930275"
       y="-0.45810527"
       width="2.4386055"
       height="1.9162105"><feGaussianBlur
         stdDeviation="5"
         result="fbSourceGraphic"
         id="feGaussianBlur5" /><feGaussianBlur
         stdDeviation="0.01"
         in="SourceGraphic"
         result="result1"
         id="feGaussianBlur6" /><feComposite
         in2="result1"
         operator="arithmetic"
         in="fbSourceGraphic"
         k2="0.5"
         k3="0.5"
         result="result2"
         id="feComposite6" /><feBlend
         in2="fbSourceGraphic"
         mode="normal"
         result="result3"
         id="feBlend6" /></filter></defs><g
     inkscape:label="Camada 1"
     inkscape:groupmode="layer"
     id="layer1"><g
       id="g157"
       transform="matrix(0.39140512,0,0,0.24537508,41.720032,68.305338)"><ellipse
         style="fill:#fff801;fill-opacity:1;stroke:#882104;stroke-width:0.964999;stroke-opacity:1"
         id="ellipse141"
         cx="16.750168"
         cy="50.256432"
         rx="11.4"
         ry="11.625" /><path
         id="path142"
         style="fill:#db9b00;fill-opacity:1;stroke:none;stroke-width:2.11242;stroke-dasharray:none;stroke-opacity:1"
         d="m 12.573626,40.794114 a 10.48268,10.462242 0 0 0 -6.1244889,9.497495 10.48268,10.462242 0 0 0 10.4823559,10.462018 10.48268,10.462242 0 0 0 9.10798,-5.295813 10.48268,10.462242 0 0 1 -4.35478,0.964522 10.48268,10.462242 0 0 1 -10.48236,-10.462016 10.48268,10.462242 0 0 1 1.371293,-5.166206 z" /><ellipse
         style="fill:#fff801;fill-opacity:1;stroke:#882104;stroke-width:0.805392;stroke-dasharray:none;stroke-opacity:1"
         id="ellipse142"
         cx="16.56267"
         cy="50.218933"
         rx="8.3452263"
         ry="8.3452272" /><path
         style="fill:#882104;fill-opacity:1;stroke:#882104;stroke-width:0.630237;stroke-opacity:1"
         d="m 13.787668,61.243931 0.675,-1.9875"
         id="path143" /><path
         style="fill:#882104;fill-opacity:1;stroke:#882104;stroke-width:0.630237;stroke-opacity:1"
         d="m 12.775168,60.943931 0.675,-1.9875"
         id="path144" /><path
         style="fill:#882104;fill-opacity:1;stroke:#882104;stroke-width:0.578997;stroke-opacity:1"
         d="m 11.747287,60.609868 0.668261,-1.694374"
         id="path145" /><path
         style="fill:#882104;fill-opacity:1;stroke:#882104;stroke-width:0.714284;stroke-opacity:1"
         d="M 14.794766,61.535159 15.51807,59.152703"
         id="path146" /><path
         style="fill:#882104;fill-opacity:1;stroke:#882104;stroke-width:0.578997;stroke-opacity:1"
         d="m 15.759787,61.547368 0.668261,-1.694374"
         id="path147" /><path
         style="fill:#882104;fill-opacity:1;stroke:#882104;stroke-width:0.630237;stroke-opacity:1"
         d="m 16.787668,61.618931 0.675,-1.9875"
         id="path148" /><path
         id="path149"
         style="fill:#db9b00;fill-opacity:1;stroke:none;stroke-width:1.58772;stroke-dasharray:none;stroke-opacity:1"
         d="m 13.421458,43.044114 a 7.9543588,7.7889583 0 0 0 -4.6473209,7.070721 7.9543588,7.7889583 0 0 0 7.9541129,7.788792 7.9543588,7.7889583 0 0 0 6.911223,-3.942641 7.9543588,7.7889583 0 0 1 -3.304449,0.71807 7.9543588,7.7889583 0 0 1 -7.954116,-7.788791 7.9543588,7.7889583 0 0 1 1.04055,-3.846151 z" /><ellipse
         style="fill:#fff801;fill-opacity:1;stroke:#882104;stroke-width:0.608806;stroke-dasharray:none;stroke-opacity:1"
         id="ellipse149"
         cx="13.354173"
         cy="49.211304"
         rx="2.901232"
         ry="3.1398814" /><ellipse
         style="fill:#fff801;fill-opacity:1;stroke:#882104;stroke-width:0.608806;stroke-dasharray:none;stroke-opacity:1"
         id="ellipse150"
         cx="19.559034"
         cy="49.211304"
         rx="2.901232"
         ry="3.1398814" /><path
         id="path150"
         style="fill:#db9b00;fill-opacity:1;stroke:none;stroke-width:0.540964;stroke-dasharray:none;stroke-opacity:1"
         d="m 12.243599,46.719114 a 2.5365275,2.8355217 0 0 0 -1.481962,2.574052 2.5365275,2.8355217 0 0 0 2.53645,2.835461 2.5365275,2.8355217 0 0 0 2.203886,-1.435294 2.5365275,2.8355217 0 0 1 -1.05374,0.261409 2.5365275,2.8355217 0 0 1 -2.53645,-2.835461 2.5365275,2.8355217 0 0 1 0.331816,-1.400167 z" /><path
         id="path151"
         style="fill:#db9b00;fill-opacity:1;stroke:none;stroke-width:0.540964;stroke-dasharray:none;stroke-opacity:1"
         d="m 18.506099,46.644114 a 2.5365275,2.8355217 0 0 0 -1.481962,2.574052 2.5365275,2.8355217 0 0 0 2.536449,2.835461 2.5365275,2.8355217 0 0 0 2.203887,-1.435294 2.5365275,2.8355217 0 0 1 -1.05374,0.261409 2.5365275,2.8355217 0 0 1 -2.53645,-2.835461 2.5365275,2.8355217 0 0 1 0.331816,-1.400167 z" /><path
         style="fill:#882104;fill-opacity:1;stroke:#882104;stroke-width:0.630237;stroke-opacity:1"
         d="m 18.362668,41.068931 0.675,-1.9875"
         id="path152" /><path
         style="fill:#882104;fill-opacity:1;stroke:#882104;stroke-width:0.630237;stroke-opacity:1"
         d="m 17.350168,40.768931 0.675,-1.9875"
         id="path153" /><path
         style="fill:#882104;fill-opacity:1;stroke:#882104;stroke-width:0.578997;stroke-opacity:1"
         d="m 16.322287,40.434868 0.668261,-1.694374"
         id="path154" /><path
         style="fill:#882104;fill-opacity:1;stroke:#882104;stroke-width:0.714284;stroke-opacity:1"
         d="M 19.369766,41.360159 20.09307,38.977703"
         id="path155" /><path
         style="fill:#882104;fill-opacity:1;stroke:#882104;stroke-width:0.578997;stroke-opacity:1"
         d="m 20.334787,41.372368 0.668261,-1.694374"
         id="path156" /><path
         style="fill:#882104;fill-opacity:1;stroke:#882104;stroke-width:0.630237;stroke-opacity:1"
         d="m 21.362668,41.443931 0.675,-1.9875"
         id="path157" /></g><g
       id="g173"
       transform="matrix(0.39140512,0,0,0.24537508,36.667213,64.928747)"><ellipse
         style="fill:#fff801;fill-opacity:1;stroke:#882104;stroke-width:0.964999;stroke-opacity:1"
         id="ellipse157"
         cx="16.750168"
         cy="50.256432"
         rx="11.4"
         ry="11.625" /><path
         id="path158"
         style="fill:#db9b00;fill-opacity:1;stroke:none;stroke-width:2.11242;stroke-dasharray:none;stroke-opacity:1"
         d="m 12.573626,40.794114 a 10.48268,10.462242 0 0 0 -6.1244889,9.497495 10.48268,10.462242 0 0 0 10.4823559,10.462018 10.48268,10.462242 0 0 0 9.10798,-5.295813 10.48268,10.462242 0 0 1 -4.35478,0.964522 10.48268,10.462242 0 0 1 -10.48236,-10.462016 10.48268,10.462242 0 0 1 1.371293,-5.166206 z" /><ellipse
         style="fill:#fff801;fill-opacity:1;stroke:#882104;stroke-width:0.805392;stroke-dasharray:none;stroke-opacity:1"
         id="ellipse158"
         cx="16.56267"
         cy="50.218933"
         rx="8.3452263"
         ry="8.3452272" /><path
         style="fill:#882104;fill-opacity:1;stroke:#882104;stroke-width:0.630237;stroke-opacity:1"
         d="m 13.787668,61.243931 0.675,-1.9875"
         id="path159" /><path
         style="fill:#882104;fill-opacity:1;stroke:#882104;stroke-width:0.630237;stroke-opacity:1"
         d="m 12.775168,60.943931 0.675,-1.9875"
         id="path160" /><path
         style="fill:#882104;fill-opacity:1;stroke:#882104;stroke-width:0.578997;stroke-opacity:1"
         d="m 11.747287,60.609868 0.668261,-1.694374"
         id="path161" /><path
         style="fill:#882104;fill-opacity:1;stroke:#882104;stroke-width:0.714284;stroke-opacity:1"
         d="M 14.794766,61.535159 15.51807,59.152703"
         id="path162" /><path
         style="fill:#882104;fill-opacity:1;stroke:#882104;stroke-width:0.578997;stroke-opacity:1"
         d="m 15.759787,61.547368 0.668261,-1.694374"
         id="path163" /><path
         style="fill:#882104;fill-opacity:1;stroke:#882104;stroke-width:0.630237;stroke-opacity:1"
         d="m 16.787668,61.618931 0.675,-1.9875"
         id="path164" /><path
         id="path165"
         style="fill:#db9b00;fill-opacity:1;stroke:none;stroke-width:1.58772;stroke-dasharray:none;stroke-opacity:1"
         d="m 13.421458,43.044114 a 7.9543588,7.7889583 0 0 0 -4.6473209,7.070721 7.9543588,7.7889583 0 0 0 7.9541129,7.788792 7.9543588,7.7889583 0 0 0 6.911223,-3.942641 7.9543588,7.7889583 0 0 1 -3.304449,0.71807 7.9543588,7.7889583 0 0 1 -7.954116,-7.788791 7.9543588,7.7889583 0 0 1 1.04055,-3.846151 z" /><ellipse
         style="fill:#fff801;fill-opacity:1;stroke:#882104;stroke-width:0.608806;stroke-dasharray:none;stroke-opacity:1"
         id="ellipse165"
         cx="13.354173"
         cy="49.211304"
         rx="2.901232"
         ry="3.1398814" /><ellipse
         style="fill:#fff801;fill-opacity:1;stroke:#882104;stroke-width:0.608806;stroke-dasharray:none;stroke-opacity:1"
         id="ellipse166"
         cx="19.559034"
         cy="49.211304"
         rx="2.901232"
         ry="3.1398814" /><path
         id="path166"
         style="fill:#db9b00;fill-opacity:1;stroke:none;stroke-width:0.540964;stroke-dasharray:none;stroke-opacity:1"
         d="m 12.243599,46.719114 a 2.5365275,2.8355217 0 0 0 -1.481962,2.574052 2.5365275,2.8355217 0 0 0 2.53645,2.835461 2.5365275,2.8355217 0 0 0 2.203886,-1.435294 2.5365275,2.8355217 0 0 1 -1.05374,0.261409 2.5365275,2.8355217 0 0 1 -2.53645,-2.835461 2.5365275,2.8355217 0 0 1 0.331816,-1.400167 z" /><path
         id="path167"
         style="fill:#db9b00;fill-opacity:1;stroke:none;stroke-width:0.540964;stroke-dasharray:none;stroke-opacity:1"
         d="m 18.506099,46.644114 a 2.5365275,2.8355217 0 0 0 -1.481962,2.574052 2.5365275,2.8355217 0 0 0 2.536449,2.835461 2.5365275,2.8355217 0 0 0 2.203887,-1.435294 2.5365275,2.8355217 0 0 1 -1.05374,0.261409 2.5365275,2.8355217 0 0 1 -2.53645,-2.835461 2.5365275,2.8355217 0 0 1 0.331816,-1.400167 z" /><path
         style="fill:#882104;fill-opacity:1;stroke:#882104;stroke-width:0.630237;stroke-opacity:1"
         d="m 18.362668,41.068931 0.675,-1.9875"
         id="path168" /><path
         style="fill:#882104;fill-opacity:1;stroke:#882104;stroke-width:0.630237;stroke-opacity:1"
         d="m 17.350168,40.768931 0.675,-1.9875"
         id="path169" /><path
         style="fill:#882104;fill-opacity:1;stroke:#882104;stroke-width:0.578997;stroke-opacity:1"
         d="m 16.322287,40.434868 0.668261,-1.694374"
         id="path170" /><path
         style="fill:#882104;fill-opacity:1;stroke:#882104;stroke-width:0.714284;stroke-opacity:1"
         d="M 19.369766,41.360159 20.09307,38.977703"
         id="path171" /><path
         style="fill:#882104;fill-opacity:1;stroke:#882104;stroke-width:0.578997;stroke-opacity:1"
         d="m 20.334787,41.372368 0.668261,-1.694374"
         id="path172" /><path
         style="fill:#882104;fill-opacity:1;stroke:#882104;stroke-width:0.630237;stroke-opacity:1"
         d="m 21.362668,41.443931 0.675,-1.9875"
         id="path173" /></g><g
       id="g125"
       transform="matrix(0.39140512,0,0,0.24537508,35.77554,71.068003)"><ellipse
         style="fill:#fff801;fill-opacity:1;stroke:#882104;stroke-width:0.964999;stroke-opacity:1"
         id="ellipse109"
         cx="16.750168"
         cy="50.256432"
         rx="11.4"
         ry="11.625" /><path
         id="path110"
         style="fill:#db9b00;fill-opacity:1;stroke:none;stroke-width:2.11242;stroke-dasharray:none;stroke-opacity:1"
         d="m 12.573626,40.794114 a 10.48268,10.462242 0 0 0 -6.1244889,9.497495 10.48268,10.462242 0 0 0 10.4823559,10.462018 10.48268,10.462242 0 0 0 9.10798,-5.295813 10.48268,10.462242 0 0 1 -4.35478,0.964522 10.48268,10.462242 0 0 1 -10.48236,-10.462016 10.48268,10.462242 0 0 1 1.371293,-5.166206 z" /><ellipse
         style="fill:#fff801;fill-opacity:1;stroke:#882104;stroke-width:0.805392;stroke-dasharray:none;stroke-opacity:1"
         id="ellipse110"
         cx="16.56267"
         cy="50.218933"
         rx="8.3452263"
         ry="8.3452272" /><path
         style="fill:#882104;fill-opacity:1;stroke:#882104;stroke-width:0.630237;stroke-opacity:1"
         d="m 13.787668,61.243931 0.675,-1.9875"
         id="path111" /><path
         style="fill:#882104;fill-opacity:1;stroke:#882104;stroke-width:0.630237;stroke-opacity:1"
         d="m 12.775168,60.943931 0.675,-1.9875"
         id="path112" /><path
         style="fill:#882104;fill-opacity:1;stroke:#882104;stroke-width:0.578997;stroke-opacity:1"
         d="m 11.747287,60.609868 0.668261,-1.694374"
         id="path113" /><path
         style="fill:#882104;fill-opacity:1;stroke:#882104;stroke-width:0.714284;stroke-opacity:1"
         d="M 14.794766,61.535159 15.51807,59.152703"
         id="path114" /><path
         style="fill:#882104;fill-opacity:1;stroke:#882104;stroke-width:0.578997;stroke-opacity:1"
         d="m 15.759787,61.547368 0.668261,-1.694374"
         id="path115" /><path
         style="fill:#882104;fill-opacity:1;stroke:#882104;stroke-width:0.630237;stroke-opacity:1"
         d="m 16.787668,61.618931 0.675,-1.9875"
         id="path116" /><path
         id="path117"
         style="fill:#db9b00;fill-opacity:1;stroke:none;stroke-width:1.58772;stroke-dasharray:none;stroke-opacity:1"
         d="m 13.421458,43.044114 a 7.9543588,7.7889583 0 0 0 -4.6473209,7.070721 7.9543588,7.7889583 0 0 0 7.9541129,7.788792 7.9543588,7.7889583 0 0 0 6.911223,-3.942641 7.9543588,7.7889583 0 0 1 -3.304449,0.71807 7.9543588,7.7889583 0 0 1 -7.954116,-7.788791 7.9543588,7.7889583 0 0 1 1.04055,-3.846151 z" /><ellipse
         style="fill:#fff801;fill-opacity:1;stroke:#882104;stroke-width:0.608806;stroke-dasharray:none;stroke-opacity:1"
         id="ellipse117"
         cx="13.354173"
         cy="49.211304"
         rx="2.901232"
         ry="3.1398814" /><ellipse
         style="fill:#fff801;fill-opacity:1;stroke:#882104;stroke-width:0.608806;stroke-dasharray:none;stroke-opacity:1"
         id="ellipse118"
         cx="19.559034"
         cy="49.211304"
         rx="2.901232"
         ry="3.1398814" /><path
         id="path118"
         style="fill:#db9b00;fill-opacity:1;stroke:none;stroke-width:0.540964;stroke-dasharray:none;stroke-opacity:1"
         d="m 12.243599,46.719114 a 2.5365275,2.8355217 0 0 0 -1.481962,2.574052 2.5365275,2.8355217 0 0 0 2.53645,2.835461 2.5365275,2.8355217 0 0 0 2.203886,-1.435294 2.5365275,2.8355217 0 0 1 -1.05374,0.261409 2.5365275,2.8355217 0 0 1 -2.53645,-2.835461 2.5365275,2.8355217 0 0 1 0.331816,-1.400167 z" /><path
         id="path119"
         style="fill:#db9b00;fill-opacity:1;stroke:none;stroke-width:0.540964;stroke-dasharray:none;stroke-opacity:1"
         d="m 18.506099,46.644114 a 2.5365275,2.8355217 0 0 0 -1.481962,2.574052 2.5365275,2.8355217 0 0 0 2.536449,2.835461 2.5365275,2.8355217 0 0 0 2.203887,-1.435294 2.5365275,2.8355217 0 0 1 -1.05374,0.261409 2.5365275,2.8355217 0 0 1 -2.53645,-2.835461 2.5365275,2.8355217 0 0 1 0.331816,-1.400167 z" /><path
         style="fill:#882104;fill-opacity:1;stroke:#882104;stroke-width:0.630237;stroke-opacity:1"
         d="m 18.362668,41.068931 0.675,-1.9875"
         id="path120" /><path
         style="fill:#882104;fill-opacity:1;stroke:#882104;stroke-width:0.630237;stroke-opacity:1"
         d="m 17.350168,40.768931 0.675,-1.9875"
         id="path121" /><path
         style="fill:#882104;fill-opacity:1;stroke:#882104;stroke-width:0.578997;stroke-opacity:1"
         d="m 16.322287,40.434868 0.668261,-1.694374"
         id="path122" /><path
         style="fill:#882104;fill-opacity:1;stroke:#882104;stroke-width:0.714284;stroke-opacity:1"
         d="M 19.369766,41.360159 20.09307,38.977703"
         id="path123" /><path
         style="fill:#882104;fill-opacity:1;stroke:#882104;stroke-width:0.578997;stroke-opacity:1"
         d="m 20.334787,41.372368 0.668261,-1.694374"
         id="path124" /><path
         style="fill:#882104;fill-opacity:1;stroke:#882104;stroke-width:0.630237;stroke-opacity:1"
         d="m 21.362668,41.443931 0.675,-1.9875"
         id="path125" /></g><g
       id="g141"
       transform="matrix(0.39140512,0,0,0.24537508,30.722721,67.691412)"><ellipse
         style="fill:#fff801;fill-opacity:1;stroke:#882104;stroke-width:0.964999;stroke-opacity:1"
         id="ellipse125"
         cx="16.750168"
         cy="50.256432"
         rx="11.4"
         ry="11.625" /><path
         id="path126"
         style="fill:#db9b00;fill-opacity:1;stroke:none;stroke-width:2.11242;stroke-dasharray:none;stroke-opacity:1"
         d="m 12.573626,40.794114 a 10.48268,10.462242 0 0 0 -6.1244889,9.497495 10.48268,10.462242 0 0 0 10.4823559,10.462018 10.48268,10.462242 0 0 0 9.10798,-5.295813 10.48268,10.462242 0 0 1 -4.35478,0.964522 10.48268,10.462242 0 0 1 -10.48236,-10.462016 10.48268,10.462242 0 0 1 1.371293,-5.166206 z" /><ellipse
         style="fill:#fff801;fill-opacity:1;stroke:#882104;stroke-width:0.805392;stroke-dasharray:none;stroke-opacity:1"
         id="ellipse126"
         cx="16.56267"
         cy="50.218933"
         rx="8.3452263"
         ry="8.3452272" /><path
         style="fill:#882104;fill-opacity:1;stroke:#882104;stroke-width:0.630237;stroke-opacity:1"
         d="m 13.787668,61.243931 0.675,-1.9875"
         id="path127" /><path
         style="fill:#882104;fill-opacity:1;stroke:#882104;stroke-width:0.630237;stroke-opacity:1"
         d="m 12.775168,60.943931 0.675,-1.9875"
         id="path128" /><path
         style="fill:#882104;fill-opacity:1;stroke:#882104;stroke-width:0.578997;stroke-opacity:1"
         d="m 11.747287,60.609868 0.668261,-1.694374"
         id="path129" /><path
         style="fill:#882104;fill-opacity:1;stroke:#882104;stroke-width:0.714284;stroke-opacity:1"
         d="M 14.794766,61.535159 15.51807,59.152703"
         id="path130" /><path
         style="fill:#882104;fill-opacity:1;stroke:#882104;stroke-width:0.578997;stroke-opacity:1"
         d="m 15.759787,61.547368 0.668261,-1.694374"
         id="path131" /><path
         style="fill:#882104;fill-opacity:1;stroke:#882104;stroke-width:0.630237;stroke-opacity:1"
         d="m 16.787668,61.618931 0.675,-1.9875"
         id="path132" /><path
         id="path133"
         style="fill:#db9b00;fill-opacity:1;stroke:none;stroke-width:1.58772;stroke-dasharray:none;stroke-opacity:1"
         d="m 13.421458,43.044114 a 7.9543588,7.7889583 0 0 0 -4.6473209,7.070721 7.9543588,7.7889583 0 0 0 7.9541129,7.788792 7.9543588,7.7889583 0 0 0 6.911223,-3.942641 7.9543588,7.7889583 0 0 1 -3.304449,0.71807 7.9543588,7.7889583 0 0 1 -7.954116,-7.788791 7.9543588,7.7889583 0 0 1 1.04055,-3.846151 z" /><ellipse
         style="fill:#fff801;fill-opacity:1;stroke:#882104;stroke-width:0.608806;stroke-dasharray:none;stroke-opacity:1"
         id="ellipse133"
         cx="13.354173"
         cy="49.211304"
         rx="2.901232"
         ry="3.1398814" /><ellipse
         style="fill:#fff801;fill-opacity:1;stroke:#882104;stroke-width:0.608806;stroke-dasharray:none;stroke-opacity:1"
         id="ellipse134"
         cx="19.559034"
         cy="49.211304"
         rx="2.901232"
         ry="3.1398814" /><path
         id="path134"
         style="fill:#db9b00;fill-opacity:1;stroke:none;stroke-width:0.540964;stroke-dasharray:none;stroke-opacity:1"
         d="m 12.243599,46.719114 a 2.5365275,2.8355217 0 0 0 -1.481962,2.574052 2.5365275,2.8355217 0 0 0 2.53645,2.835461 2.5365275,2.8355217 0 0 0 2.203886,-1.435294 2.5365275,2.8355217 0 0 1 -1.05374,0.261409 2.5365275,2.8355217 0 0 1 -2.53645,-2.835461 2.5365275,2.8355217 0 0 1 0.331816,-1.400167 z" /><path
         id="path135"
         style="fill:#db9b00;fill-opacity:1;stroke:none;stroke-width:0.540964;stroke-dasharray:none;stroke-opacity:1"
         d="m 18.506099,46.644114 a 2.5365275,2.8355217 0 0 0 -1.481962,2.574052 2.5365275,2.8355217 0 0 0 2.536449,2.835461 2.5365275,2.8355217 0 0 0 2.203887,-1.435294 2.5365275,2.8355217 0 0 1 -1.05374,0.261409 2.5365275,2.8355217 0 0 1 -2.53645,-2.835461 2.5365275,2.8355217 0 0 1 0.331816,-1.400167 z" /><path
         style="fill:#882104;fill-opacity:1;stroke:#882104;stroke-width:0.630237;stroke-opacity:1"
         d="m 18.362668,41.068931 0.675,-1.9875"
         id="path136" /><path
         style="fill:#882104;fill-opacity:1;stroke:#882104;stroke-width:0.630237;stroke-opacity:1"
         d="m 17.350168,40.768931 0.675,-1.9875"
         id="path137" /><path
         style="fill:#882104;fill-opacity:1;stroke:#882104;stroke-width:0.578997;stroke-opacity:1"
         d="m 16.322287,40.434868 0.668261,-1.694374"
         id="path138" /><path
         style="fill:#882104;fill-opacity:1;stroke:#882104;stroke-width:0.714284;stroke-opacity:1"
         d="M 19.369766,41.360159 20.09307,38.977703"
         id="path139" /><path
         style="fill:#882104;fill-opacity:1;stroke:#882104;stroke-width:0.578997;stroke-opacity:1"
         d="m 20.334787,41.372368 0.668261,-1.694374"
         id="path140" /><path
         style="fill:#882104;fill-opacity:1;stroke:#882104;stroke-width:0.630237;stroke-opacity:1"
         d="m 21.362668,41.443931 0.675,-1.9875"
         id="path141" /></g><g
       id="g93"
       transform="matrix(0.39140512,0,0,0.24537508,50.488158,74.137632)"><ellipse
         style="fill:#fff801;fill-opacity:1;stroke:#882104;stroke-width:0.964999;stroke-opacity:1"
         id="ellipse77"
         cx="16.750168"
         cy="50.256432"
         rx="11.4"
         ry="11.625" /><path
         id="path78"
         style="fill:#db9b00;fill-opacity:1;stroke:none;stroke-width:2.11242;stroke-dasharray:none;stroke-opacity:1"
         d="m 12.573626,40.794114 a 10.48268,10.462242 0 0 0 -6.1244889,9.497495 10.48268,10.462242 0 0 0 10.4823559,10.462018 10.48268,10.462242 0 0 0 9.10798,-5.295813 10.48268,10.462242 0 0 1 -4.35478,0.964522 10.48268,10.462242 0 0 1 -10.48236,-10.462016 10.48268,10.462242 0 0 1 1.371293,-5.166206 z" /><ellipse
         style="fill:#fff801;fill-opacity:1;stroke:#882104;stroke-width:0.805392;stroke-dasharray:none;stroke-opacity:1"
         id="ellipse78"
         cx="16.56267"
         cy="50.218933"
         rx="8.3452263"
         ry="8.3452272" /><path
         style="fill:#882104;fill-opacity:1;stroke:#882104;stroke-width:0.630237;stroke-opacity:1"
         d="m 13.787668,61.243931 0.675,-1.9875"
         id="path79" /><path
         style="fill:#882104;fill-opacity:1;stroke:#882104;stroke-width:0.630237;stroke-opacity:1"
         d="m 12.775168,60.943931 0.675,-1.9875"
         id="path80" /><path
         style="fill:#882104;fill-opacity:1;stroke:#882104;stroke-width:0.578997;stroke-opacity:1"
         d="m 11.747287,60.609868 0.668261,-1.694374"
         id="path81" /><path
         style="fill:#882104;fill-opacity:1;stroke:#882104;stroke-width:0.714284;stroke-opacity:1"
         d="M 14.794766,61.535159 15.51807,59.152703"
         id="path82" /><path
         style="fill:#882104;fill-opacity:1;stroke:#882104;stroke-width:0.578997;stroke-opacity:1"
         d="m 15.759787,61.547368 0.668261,-1.694374"
         id="path83" /><path
         style="fill:#882104;fill-opacity:1;stroke:#882104;stroke-width:0.630237;stroke-opacity:1"
         d="m 16.787668,61.618931 0.675,-1.9875"
         id="path84" /><path
         id="path85"
         style="fill:#db9b00;fill-opacity:1;stroke:none;stroke-width:1.58772;stroke-dasharray:none;stroke-opacity:1"
         d="m 13.421458,43.044114 a 7.9543588,7.7889583 0 0 0 -4.6473209,7.070721 7.9543588,7.7889583 0 0 0 7.9541129,7.788792 7.9543588,7.7889583 0 0 0 6.911223,-3.942641 7.9543588,7.7889583 0 0 1 -3.304449,0.71807 7.9543588,7.7889583 0 0 1 -7.954116,-7.788791 7.9543588,7.7889583 0 0 1 1.04055,-3.846151 z" /><ellipse
         style="fill:#fff801;fill-opacity:1;stroke:#882104;stroke-width:0.608806;stroke-dasharray:none;stroke-opacity:1"
         id="ellipse85"
         cx="13.354173"
         cy="49.211304"
         rx="2.901232"
         ry="3.1398814" /><ellipse
         style="fill:#fff801;fill-opacity:1;stroke:#882104;stroke-width:0.608806;stroke-dasharray:none;stroke-opacity:1"
         id="ellipse86"
         cx="19.559034"
         cy="49.211304"
         rx="2.901232"
         ry="3.1398814" /><path
         id="path86"
         style="fill:#db9b00;fill-opacity:1;stroke:none;stroke-width:0.540964;stroke-dasharray:none;stroke-opacity:1"
         d="m 12.243599,46.719114 a 2.5365275,2.8355217 0 0 0 -1.481962,2.574052 2.5365275,2.8355217 0 0 0 2.53645,2.835461 2.5365275,2.8355217 0 0 0 2.203886,-1.435294 2.5365275,2.8355217 0 0 1 -1.05374,0.261409 2.5365275,2.8355217 0 0 1 -2.53645,-2.835461 2.5365275,2.8355217 0 0 1 0.331816,-1.400167 z" /><path
         id="path87"
         style="fill:#db9b00;fill-opacity:1;stroke:none;stroke-width:0.540964;stroke-dasharray:none;stroke-opacity:1"
         d="m 18.506099,46.644114 a 2.5365275,2.8355217 0 0 0 -1.481962,2.574052 2.5365275,2.8355217 0 0 0 2.536449,2.835461 2.5365275,2.8355217 0 0 0 2.203887,-1.435294 2.5365275,2.8355217 0 0 1 -1.05374,0.261409 2.5365275,2.8355217 0 0 1 -2.53645,-2.835461 2.5365275,2.8355217 0 0 1 0.331816,-1.400167 z" /><path
         style="fill:#882104;fill-opacity:1;stroke:#882104;stroke-width:0.630237;stroke-opacity:1"
         d="m 18.362668,41.068931 0.675,-1.9875"
         id="path88" /><path
         style="fill:#882104;fill-opacity:1;stroke:#882104;stroke-width:0.630237;stroke-opacity:1"
         d="m 17.350168,40.768931 0.675,-1.9875"
         id="path89" /><path
         style="fill:#882104;fill-opacity:1;stroke:#882104;stroke-width:0.578997;stroke-opacity:1"
         d="m 16.322287,40.434868 0.668261,-1.694374"
         id="path90" /><path
         style="fill:#882104;fill-opacity:1;stroke:#882104;stroke-width:0.714284;stroke-opacity:1"
         d="M 19.369766,41.360159 20.09307,38.977703"
         id="path91" /><path
         style="fill:#882104;fill-opacity:1;stroke:#882104;stroke-width:0.578997;stroke-opacity:1"
         d="m 20.334787,41.372368 0.668261,-1.694374"
         id="path92" /><path
         style="fill:#882104;fill-opacity:1;stroke:#882104;stroke-width:0.630237;stroke-opacity:1"
         d="m 21.362668,41.443931 0.675,-1.9875"
         id="path93" /></g><g
       id="g109"
       transform="matrix(0.39140512,0,0,0.24537508,45.435339,70.761041)"><ellipse
         style="fill:#fff801;fill-opacity:1;stroke:#882104;stroke-width:0.964999;stroke-opacity:1"
         id="ellipse93"
         cx="16.750168"
         cy="50.256432"
         rx="11.4"
         ry="11.625" /><path
         id="path94"
         style="fill:#db9b00;fill-opacity:1;stroke:none;stroke-width:2.11242;stroke-dasharray:none;stroke-opacity:1"
         d="m 12.573626,40.794114 a 10.48268,10.462242 0 0 0 -6.1244889,9.497495 10.48268,10.462242 0 0 0 10.4823559,10.462018 10.48268,10.462242 0 0 0 9.10798,-5.295813 10.48268,10.462242 0 0 1 -4.35478,0.964522 10.48268,10.462242 0 0 1 -10.48236,-10.462016 10.48268,10.462242 0 0 1 1.371293,-5.166206 z" /><ellipse
         style="fill:#fff801;fill-opacity:1;stroke:#882104;stroke-width:0.805392;stroke-dasharray:none;stroke-opacity:1"
         id="ellipse94"
         cx="16.56267"
         cy="50.218933"
         rx="8.3452263"
         ry="8.3452272" /><path
         style="fill:#882104;fill-opacity:1;stroke:#882104;stroke-width:0.630237;stroke-opacity:1"
         d="m 13.787668,61.243931 0.675,-1.9875"
         id="path95" /><path
         style="fill:#882104;fill-opacity:1;stroke:#882104;stroke-width:0.630237;stroke-opacity:1"
         d="m 12.775168,60.943931 0.675,-1.9875"
         id="path96" /><path
         style="fill:#882104;fill-opacity:1;stroke:#882104;stroke-width:0.578997;stroke-opacity:1"
         d="m 11.747287,60.609868 0.668261,-1.694374"
         id="path97" /><path
         style="fill:#882104;fill-opacity:1;stroke:#882104;stroke-width:0.714284;stroke-opacity:1"
         d="M 14.794766,61.535159 15.51807,59.152703"
         id="path98" /><path
         style="fill:#882104;fill-opacity:1;stroke:#882104;stroke-width:0.578997;stroke-opacity:1"
         d="m 15.759787,61.547368 0.668261,-1.694374"
         id="path99" /><path
         style="fill:#882104;fill-opacity:1;stroke:#882104;stroke-width:0.630237;stroke-opacity:1"
         d="m 16.787668,61.618931 0.675,-1.9875"
         id="path100" /><path
         id="path101"
         style="fill:#db9b00;fill-opacity:1;stroke:none;stroke-width:1.58772;stroke-dasharray:none;stroke-opacity:1"
         d="m 13.421458,43.044114 a 7.9543588,7.7889583 0 0 0 -4.6473209,7.070721 7.9543588,7.7889583 0 0 0 7.9541129,7.788792 7.9543588,7.7889583 0 0 0 6.911223,-3.942641 7.9543588,7.7889583 0 0 1 -3.304449,0.71807 7.9543588,7.7889583 0 0 1 -7.954116,-7.788791 7.9543588,7.7889583 0 0 1 1.04055,-3.846151 z" /><ellipse
         style="fill:#fff801;fill-opacity:1;stroke:#882104;stroke-width:0.608806;stroke-dasharray:none;stroke-opacity:1"
         id="ellipse101"
         cx="13.354173"
         cy="49.211304"
         rx="2.901232"
         ry="3.1398814" /><ellipse
         style="fill:#fff801;fill-opacity:1;stroke:#882104;stroke-width:0.608806;stroke-dasharray:none;stroke-opacity:1"
         id="ellipse102"
         cx="19.559034"
         cy="49.211304"
         rx="2.901232"
         ry="3.1398814" /><path
         id="path102"
         style="fill:#db9b00;fill-opacity:1;stroke:none;stroke-width:0.540964;stroke-dasharray:none;stroke-opacity:1"
         d="m 12.243599,46.719114 a 2.5365275,2.8355217 0 0 0 -1.481962,2.574052 2.5365275,2.8355217 0 0 0 2.53645,2.835461 2.5365275,2.8355217 0 0 0 2.203886,-1.435294 2.5365275,2.8355217 0 0 1 -1.05374,0.261409 2.5365275,2.8355217 0 0 1 -2.53645,-2.835461 2.5365275,2.8355217 0 0 1 0.331816,-1.400167 z" /><path
         id="path103"
         style="fill:#db9b00;fill-opacity:1;stroke:none;stroke-width:0.540964;stroke-dasharray:none;stroke-opacity:1"
         d="m 18.506099,46.644114 a 2.5365275,2.8355217 0 0 0 -1.481962,2.574052 2.5365275,2.8355217 0 0 0 2.536449,2.835461 2.5365275,2.8355217 0 0 0 2.203887,-1.435294 2.5365275,2.8355217 0 0 1 -1.05374,0.261409 2.5365275,2.8355217 0 0 1 -2.53645,-2.835461 2.5365275,2.8355217 0 0 1 0.331816,-1.400167 z" /><path
         style="fill:#882104;fill-opacity:1;stroke:#882104;stroke-width:0.630237;stroke-opacity:1"
         d="m 18.362668,41.068931 0.675,-1.9875"
         id="path104" /><path
         style="fill:#882104;fill-opacity:1;stroke:#882104;stroke-width:0.630237;stroke-opacity:1"
         d="m 17.350168,40.768931 0.675,-1.9875"
         id="path105" /><path
         style="fill:#882104;fill-opacity:1;stroke:#882104;stroke-width:0.578997;stroke-opacity:1"
         d="m 16.322287,40.434868 0.668261,-1.694374"
         id="path106" /><path
         style="fill:#882104;fill-opacity:1;stroke:#882104;stroke-width:0.714284;stroke-opacity:1"
         d="M 19.369766,41.360159 20.09307,38.977703"
         id="path107" /><path
         style="fill:#882104;fill-opacity:1;stroke:#882104;stroke-width:0.578997;stroke-opacity:1"
         d="m 20.334787,41.372368 0.668261,-1.694374"
         id="path108" /><path
         style="fill:#882104;fill-opacity:1;stroke:#882104;stroke-width:0.630237;stroke-opacity:1"
         d="m 21.362668,41.443931 0.675,-1.9875"
         id="path109" /></g><g
       id="g58"
       transform="matrix(0.39140512,0,0,0.24537508,32.060232,75.825928)"><ellipse
         style="fill:#fff801;fill-opacity:1;stroke:#882104;stroke-width:0.964999;stroke-opacity:1"
         id="ellipse6"
         cx="16.750168"
         cy="50.256432"
         rx="11.4"
         ry="11.625" /><path
         id="path7"
         style="fill:#db9b00;fill-opacity:1;stroke:none;stroke-width:2.11242;stroke-dasharray:none;stroke-opacity:1"
         d="m 12.573626,40.794114 a 10.48268,10.462242 0 0 0 -6.1244889,9.497495 10.48268,10.462242 0 0 0 10.4823559,10.462018 10.48268,10.462242 0 0 0 9.10798,-5.295813 10.48268,10.462242 0 0 1 -4.35478,0.964522 10.48268,10.462242 0 0 1 -10.48236,-10.462016 10.48268,10.462242 0 0 1 1.371293,-5.166206 z" /><ellipse
         style="fill:#fff801;fill-opacity:1;stroke:#882104;stroke-width:0.805392;stroke-dasharray:none;stroke-opacity:1"
         id="ellipse11"
         cx="16.56267"
         cy="50.218933"
         rx="8.3452263"
         ry="8.3452272" /><path
         style="fill:#882104;fill-opacity:1;stroke:#882104;stroke-width:0.630237;stroke-opacity:1"
         d="m 13.787668,61.243931 0.675,-1.9875"
         id="path14" /><path
         style="fill:#882104;fill-opacity:1;stroke:#882104;stroke-width:0.630237;stroke-opacity:1"
         d="m 12.775168,60.943931 0.675,-1.9875"
         id="path15" /><path
         style="fill:#882104;fill-opacity:1;stroke:#882104;stroke-width:0.578997;stroke-opacity:1"
         d="m 11.747287,60.609868 0.668261,-1.694374"
         id="path23" /><path
         style="fill:#882104;fill-opacity:1;stroke:#882104;stroke-width:0.714284;stroke-opacity:1"
         d="M 14.794766,61.535159 15.51807,59.152703"
         id="path30" /><path
         style="fill:#882104;fill-opacity:1;stroke:#882104;stroke-width:0.578997;stroke-opacity:1"
         d="m 15.759787,61.547368 0.668261,-1.694374"
         id="path31" /><path
         style="fill:#882104;fill-opacity:1;stroke:#882104;stroke-width:0.630237;stroke-opacity:1"
         d="m 16.787668,61.618931 0.675,-1.9875"
         id="path36" /><path
         id="path37"
         style="fill:#db9b00;fill-opacity:1;stroke:none;stroke-width:1.58772;stroke-dasharray:none;stroke-opacity:1"
         d="m 13.421458,43.044114 a 7.9543588,7.7889583 0 0 0 -4.6473209,7.070721 7.9543588,7.7889583 0 0 0 7.9541129,7.788792 7.9543588,7.7889583 0 0 0 6.911223,-3.942641 7.9543588,7.7889583 0 0 1 -3.304449,0.71807 7.9543588,7.7889583 0 0 1 -7.954116,-7.788791 7.9543588,7.7889583 0 0 1 1.04055,-3.846151 z" /><ellipse
         style="fill:#fff801;fill-opacity:1;stroke:#882104;stroke-width:0.608806;stroke-dasharray:none;stroke-opacity:1"
         id="ellipse37"
         cx="13.354173"
         cy="49.211304"
         rx="2.901232"
         ry="3.1398814" /><ellipse
         style="fill:#fff801;fill-opacity:1;stroke:#882104;stroke-width:0.608806;stroke-dasharray:none;stroke-opacity:1"
         id="ellipse38"
         cx="19.559034"
         cy="49.211304"
         rx="2.901232"
         ry="3.1398814" /><path
         id="path38"
         style="fill:#db9b00;fill-opacity:1;stroke:none;stroke-width:0.540964;stroke-dasharray:none;stroke-opacity:1"
         d="m 12.243599,46.719114 a 2.5365275,2.8355217 0 0 0 -1.481962,2.574052 2.5365275,2.8355217 0 0 0 2.53645,2.835461 2.5365275,2.8355217 0 0 0 2.203886,-1.435294 2.5365275,2.8355217 0 0 1 -1.05374,0.261409 2.5365275,2.8355217 0 0 1 -2.53645,-2.835461 2.5365275,2.8355217 0 0 1 0.331816,-1.400167 z" /><path
         id="path39"
         style="fill:#db9b00;fill-opacity:1;stroke:none;stroke-width:0.540964;stroke-dasharray:none;stroke-opacity:1"
         d="m 18.506099,46.644114 a 2.5365275,2.8355217 0 0 0 -1.481962,2.574052 2.5365275,2.8355217 0 0 0 2.536449,2.835461 2.5365275,2.8355217 0 0 0 2.203887,-1.435294 2.5365275,2.8355217 0 0 1 -1.05374,0.261409 2.5365275,2.8355217 0 0 1 -2.53645,-2.835461 2.5365275,2.8355217 0 0 1 0.331816,-1.400167 z" /><path
         style="fill:#882104;fill-opacity:1;stroke:#882104;stroke-width:0.630237;stroke-opacity:1"
         d="m 18.362668,41.068931 0.675,-1.9875"
         id="path40" /><path
         style="fill:#882104;fill-opacity:1;stroke:#882104;stroke-width:0.630237;stroke-opacity:1"
         d="m 17.350168,40.768931 0.675,-1.9875"
         id="path41" /><path
         style="fill:#882104;fill-opacity:1;stroke:#882104;stroke-width:0.578997;stroke-opacity:1"
         d="m 16.322287,40.434868 0.668261,-1.694374"
         id="path42" /><path
         style="fill:#882104;fill-opacity:1;stroke:#882104;stroke-width:0.714284;stroke-opacity:1"
         d="M 19.369766,41.360159 20.09307,38.977703"
         id="path43" /><path
         style="fill:#882104;fill-opacity:1;stroke:#882104;stroke-width:0.578997;stroke-opacity:1"
         d="m 20.334787,41.372368 0.668261,-1.694374"
         id="path57" /><path
         style="fill:#882104;fill-opacity:1;stroke:#882104;stroke-width:0.630237;stroke-opacity:1"
         d="m 21.362668,41.443931 0.675,-1.9875"
         id="path58" /></g><g
       id="g6"
       transform="matrix(-0.06091387,-0.72077809,0.69791183,-0.06290964,19.43963,110.96502)"><path
         id="path11551"
         style="fill:#002766;fill-opacity:1;stroke:#090042;stroke-width:2.41124;stroke-miterlimit:4;stroke-dasharray:none;stroke-opacity:1"
         d="m 39.489115,60.969635 c 0.396923,1.336119 1.198315,2.386901 2.139474,2.645534 l 12.964255,3.562488 c 0.219688,0.0604 0.434265,0.0738 0.638185,0.04502 0.300382,0.138628 0.606574,0.206133 0.908316,0.183411 l 12.830708,-0.965489 c 1.354564,-0.101932 2.070534,-1.931114 1.607038,-4.099569 l -0.348602,-1.6411 c -0.463483,-2.168457 -1.929106,-3.8312 -3.283671,-3.729245 l -11.799004,0.888106 c -0.12793,-0.06773 -0.258129,-0.121117 -0.392653,-0.158033 L 41.785906,54.136082 c -1.368944,-0.376174 -2.49983,1.069956 -2.536048,3.240174 l -0.02808,1.642836 c -0.01135,0.678197 0.08697,1.343247 0.267489,1.950554 z" /><path
         d="m 55.798187,58.998353 c -2.538232,-0.122365 -1.867222,-0.240297 -1.905764,-0.258001 l -2.318674,-0.511306 c -0.616863,-0.283019 -1.815982,-0.825378 -2.209587,-0.53609 l -0.915082,0.964336 c -0.393603,0.289281 -0.957947,1.19717 -0.41424,1.565006 l 1.701597,0.305543 c 1.281855,0.661311 2.147898,0.654626 4.280193,1.05612 0.395427,-0.251117 12.072718,-3.043722 11.577214,-3.467467 z"
         style="fill:#0053ce;fill-opacity:1;stroke:none;stroke-width:0.89445"
         id="path1"
         sodipodi:nodetypes="cccccccccc" /></g><g
       id="g3"
       transform="matrix(0.40222189,0,0,0.39316023,20.93482,52.909032)"><path
         id="rect42278"
         style="fill:#381b11;fill-opacity:1;stroke:#0c0807;stroke-width:2.9;stroke-miterlimit:4;stroke-dasharray:none;stroke-opacity:1"
         d="m 118.29417,45.747688 h 73.29587 c 0.14272,0 10.07118,-0.04611 9.95993,0.363377 l -9.70232,35.712208 c -0.11125,0.409483 -0.11489,0.775779 -0.25761,0.775779 h -73.29587 c -0.14272,0 -0.1721,-0.357871 -0.25761,-0.775779 l -7.33793,-35.863407 c -0.0855,-0.417909 7.45282,-0.212178 7.59554,-0.212178 z"
         sodipodi:nodetypes="sssssssss" /><path
         id="path6473"
         style="fill:#483e37;stroke:#130d0c;stroke-width:1.74273;stroke-miterlimit:4;stroke-dasharray:none;stroke-opacity:1"
         d="m 122.72585,47.838307 h 65.03893 c 0.12664,0 8.93663,-0.03946 8.83792,0.310929 l -8.60933,30.55775 c -0.0987,0.350381 -0.10195,0.663808 -0.22859,0.663808 h -65.03893 c -0.12663,0 -0.15271,-0.306217 -0.22858,-0.663808 l -6.5113,-30.687126 c -0.0759,-0.35759 6.61325,-0.181553 6.73988,-0.181553 z"
         sodipodi:nodetypes="sssssssss" /><path
         id="path6475"
         style="fill:#381b11;fill-opacity:1;stroke:#130d0c;stroke-width:1.5767;stroke-miterlimit:4;stroke-dasharray:none;stroke-opacity:1"
         d="m 126.35737,46.079627 h 58.39703 c 0.11371,0 8.02401,-0.03597 7.93538,0.283455 l -7.73013,27.85763 c -0.0886,0.319421 -0.0915,0.605154 -0.20525,0.605154 h -58.39703 c -0.11371,0 -0.13712,-0.27916 -0.20524,-0.605154 l -5.84636,-27.975574 c -0.0681,-0.325993 5.93789,-0.165511 6.0516,-0.165511 z"
         sodipodi:nodetypes="sssssssss" /><path
         id="rect1-6"
         style="fill:#1b0b09;stroke-width:2.79633"
         d="m 121.79,49.893194 69.27912,-0.03843 -2.00474,6.87927 -65.57807,0.307453 z"
         sodipodi:nodetypes="ccccc" /><path
         id="path6414"
         style="fill:#502d16;stroke:#0c0807;stroke-width:3;stroke-miterlimit:4;stroke-dasharray:none;stroke-opacity:1"
         d="m 195.66045,50.943445 -77.2482,0.06272 c -0.15041,1.15e-4 -10.6142,0.05905 -10.49729,-0.388949 l 10.19605,-39.070477 c 0.11691,-0.447988 0.12045,-0.848648 0.27086,-0.848771 l 77.2482,-0.06272 c 0.15041,-1.22e-4 0.18167,0.391293 0.27214,0.848331 l 7.76318,39.221283 c 0.0905,0.457039 -7.85453,0.238458 -8.00494,0.238581 z"
         sodipodi:nodetypes="sssssssss" /><path
         id="path9173"
         style="fill:#483e37;stroke:#281a18;stroke-width:1.74273;stroke-miterlimit:4;stroke-dasharray:none;stroke-opacity:1"
         d="m 188.99123,46.259929 -65.03808,0.332241 c -0.12663,6.43e-4 -8.93632,0.08511 -8.83939,-0.265778 l 8.45312,-30.60133 c 0.0969,-0.350881 0.0986,-0.664321 0.22519,-0.664967 l 65.03808,-0.332241 c 0.12663,-6.43e-4 0.15427,0.305432 0.23197,0.662631 l 6.66798,30.653464 c 0.0777,0.357198 -6.61224,0.215333 -6.73887,0.21598 z"
         sodipodi:nodetypes="sssssssss" /><path
         id="path9175"
         style="fill:#502d16;stroke:#0c0807;stroke-width:1.93486;stroke-miterlimit:4;stroke-dasharray:none;stroke-opacity:1"
         d="m 182.81992,46.123788 -51.82182,0.04147 c -0.1009,7.5e-5 -7.12052,0.03903 -7.04209,-0.257126 l 6.84001,-25.828514 c 0.0784,-0.296153 0.0808,-0.56102 0.1817,-0.561103 l 51.82182,-0.04147 c 0.10089,-8e-5 0.12187,0.258675 0.18256,0.560811 l 5.20791,25.928209 c 0.0607,0.302136 -5.2692,0.157638 -5.37009,0.157721 z"
         sodipodi:nodetypes="sssssssss" /><path
         id="path2-2"
         style="fill:#2f190d;fill-opacity:1;stroke-width:1.91644"
         d="m 124.24962,45.338734 64.05241,0.01952 -1.85349,-3.494816 -60.63059,-0.156193 z"
         sodipodi:nodetypes="ccccc" /><path
         id="path1-6"
         style="fill:#1b0b09;stroke-width:1.64319"
         d="m 141.59788,55.436567 31.53957,-1.130665 -0.73069,5.243155 -29.84748,1.275611 z"
         sodipodi:nodetypes="ccccc" /><path
         id="rect42567"
         style="fill:#381b11;fill-opacity:1;stroke:#0c0807;stroke-width:2;stroke-miterlimit:4;stroke-dasharray:none"
         d="m 145.37348,45.294603 h 24.47518 c 0.16664,0 0.57602,0.389613 0.3008,0.707827 l -4.83092,5.585563 c -0.27522,0.318214 4.69676,6.454659 4.53012,6.454659 h -24.47518 c -0.16664,0 3.896,-5.787933 3.65789,-6.142661 l -3.95869,-5.897561 c -0.23811,-0.354729 0.13416,-0.707827 0.3008,-0.707827 z"
         sodipodi:nodetypes="sssssssss" /><ellipse
         style="fill:#0c0807;fill-opacity:1;stroke:none;stroke-width:3.4809;stroke-opacity:1"
         id="path5174"
         cx="157.3443"
         cy="49.310001"
         rx="3.2258117"
         ry="3.1429646" /><path
         sodipodi:type="star"
         style="fill:#0c0807;fill-opacity:1;stroke:none;stroke-width:11.2592;stroke-opacity:1"
         id="path6252"
         inkscape:flatsided="true"
         sodipodi:sides="3"
         sodipodi:cx="177.62337"
         sodipodi:cy="200.85498"
         sodipodi:r1="17.519781"
         sodipodi:r2="8.7598906"
         sodipodi:arg1="0.53294908"
         sodipodi:arg2="1.5801466"
         inkscape:rounded="0"
         inkscape:randomized="0"
         d="m 192.71337,209.75635 -30.34382,-0.28373 15.41763,-26.13665 z"
         transform="matrix(0.26458333,0,0,0.26458333,110.27288,2.1077949)"
         inkscape:transform-center-x="0.021671674"
         inkscape:transform-center-y="-1.1400429" /><ellipse
         style="fill:#483e37;fill-opacity:1;stroke:#0c0807;stroke-width:1.6127;stroke-miterlimit:4;stroke-dasharray:none;stroke-opacity:1"
         id="path8904"
         cx="186.1834"
         cy="75.81636"
         rx="0.70671153"
         ry="0.81580108" /><ellipse
         style="fill:#483e37;fill-opacity:1;stroke:#0c0807;stroke-width:1.6127;stroke-miterlimit:4;stroke-dasharray:none;stroke-opacity:1"
         id="ellipse9005"
         cx="125.74545"
         cy="75.813354"
         rx="0.70671153"
         ry="0.81580108" /><ellipse
         style="fill:#483e37;fill-opacity:1;stroke:#0c0807;stroke-width:1.6127;stroke-miterlimit:4;stroke-dasharray:none;stroke-opacity:1"
         id="ellipse9007"
         cx="120.46925"
         cy="55.007568"
         rx="0.70671153"
         ry="0.81580108" /><ellipse
         style="fill:#483e37;fill-opacity:1;stroke:#0c0807;stroke-width:1.6127;stroke-miterlimit:4;stroke-dasharray:none;stroke-opacity:1"
         id="ellipse9009"
         cx="191.49609"
         cy="54.731022"
         rx="0.70671153"
         ry="0.81580108" /><g
         id="g9404"
         transform="matrix(-1,0,0,1,142.79709,-5.6499329)"><ellipse
           style="fill:#483e37;fill-opacity:1;stroke:#281a18;stroke-width:1.6127;stroke-miterlimit:4;stroke-dasharray:none;stroke-opacity:1"
           id="ellipse9398"
           cx="22.194138"
           cy="47.031895"
           rx="0.70671153"
           ry="0.81580108" /><ellipse
           style="fill:#483e37;fill-opacity:1;stroke:#281a18;stroke-width:1.6127;stroke-miterlimit:4;stroke-dasharray:none;stroke-opacity:1"
           id="ellipse9400"
           cx="16.917931"
           cy="26.226107"
           rx="0.70671153"
           ry="0.81580108" /></g><g
         id="g9410"
         transform="translate(168.44962,-7.124392)"><ellipse
           style="fill:#483e37;fill-opacity:1;stroke:#281a18;stroke-width:1.6127;stroke-miterlimit:4;stroke-dasharray:none;stroke-opacity:1"
           id="ellipse9406"
           cx="22.194138"
           cy="47.031895"
           rx="0.70671153"
           ry="0.81580108" /><ellipse
           style="fill:#483e37;fill-opacity:1;stroke:#281a18;stroke-width:1.6127;stroke-miterlimit:4;stroke-dasharray:none;stroke-opacity:1"
           id="ellipse9408"
           cx="16.917931"
           cy="26.226107"
           rx="0.70671153"
           ry="0.81580108" /></g><rect
         style="fill:#060000;fill-opacity:1;stroke:#150d0c;stroke-width:0.9;stroke-miterlimit:4;stroke-dasharray:none;stroke-opacity:1"
         id="rect9947"
         width="19.071381"
         height="0.52177382"
         x="134.72409"
         y="64.586357"
         rx="0.25083929"
         ry="0.52177382" /><rect
         style="fill:#060000;fill-opacity:1;stroke:#150d0c;stroke-width:0.9;stroke-miterlimit:4;stroke-dasharray:none;stroke-opacity:1"
         id="rect15221"
         width="19.071381"
         height="0.52177382"
         x="140.85605"
         y="67.903816"
         rx="0.25083929"
         ry="0.52177382" /><rect
         style="fill:#060000;fill-opacity:1;stroke:#150d0c;stroke-width:0.9;stroke-miterlimit:4;stroke-dasharray:none;stroke-opacity:1"
         id="rect15223"
         width="19.071381"
         height="0.52177382"
         x="136.19637"
         y="70.344246"
         rx="0.25083929"
         ry="0.52177382" /><rect
         style="fill:#060000;fill-opacity:1;stroke:#150d0c;stroke-width:0.9;stroke-miterlimit:4;stroke-dasharray:none;stroke-opacity:1"
         id="rect15225"
         width="19.071381"
         height="0.52177382"
         x="164.9129"
         y="60.818775"
         rx="0.25083929"
         ry="0.52177382" /><rect
         style="fill:#060000;fill-opacity:1;stroke:#150d0c;stroke-width:0.9;stroke-miterlimit:4;stroke-dasharray:none;stroke-opacity:1"
         id="rect15227"
         width="19.071381"
         height="0.52177382"
         x="161.69206"
         y="63.582623"
         rx="0.25083929"
         ry="0.52177382" /><rect
         style="fill:#060000;fill-opacity:1;stroke:#150d0c;stroke-width:0.730044;stroke-miterlimit:4;stroke-dasharray:none;stroke-opacity:1"
         id="rect15229"
         width="12.046432"
         height="0.54352468"
         x="168.49498"
         y="68.45594"
         rx="0.15844256"
         ry="0.54352468" /><rect
         style="fill:#281a18;fill-opacity:1;stroke:#150d0c;stroke-width:0.9;stroke-miterlimit:4;stroke-dasharray:none;stroke-opacity:1"
         id="rect15243"
         width="19.071381"
         height="0.52177382"
         x="130.46118"
         y="31.513828"
         rx="0.25083929"
         ry="0.52177382" /><rect
         style="fill:#281a18;fill-opacity:1;stroke:#150d0c;stroke-width:0.9;stroke-miterlimit:4;stroke-dasharray:none;stroke-opacity:1"
         id="rect15245"
         width="19.071381"
         height="0.52177382"
         x="126.45154"
         y="36.706013"
         rx="0.25083929"
         ry="0.52177382" /><path
         id="path3-1"
         style="fill:#2f190d;fill-opacity:1;stroke-width:1.42563"
         d="m 141.2453,44.107277 32.69216,0.02116 -0.94602,-3.789116 -30.94567,-0.169346 z"
         sodipodi:nodetypes="ccccc" /><rect
         style="fill:#281a18;fill-opacity:1;stroke:#150d0c;stroke-width:0.9;stroke-miterlimit:4;stroke-dasharray:none;stroke-opacity:1"
         id="rect15247"
         width="19.071381"
         height="0.52177382"
         x="131.57089"
         y="39.782299"
         rx="0.25083929"
         ry="0.52177382" /><rect
         style="fill:#281a18;fill-opacity:1;stroke:#150d0c;stroke-width:0.9;stroke-miterlimit:4;stroke-dasharray:none;stroke-opacity:1"
         id="rect15249"
         width="19.071381"
         height="0.52177382"
         x="158.55583"
         y="29.175007"
         rx="0.25083929"
         ry="0.52177382" /><rect
         style="fill:#281a18;fill-opacity:1;stroke:#150d0c;stroke-width:0.9;stroke-miterlimit:4;stroke-dasharray:none;stroke-opacity:1"
         id="rect15251"
         width="19.071381"
         height="0.52177382"
         x="161.89587"
         y="32.559864"
         rx="0.25083929"
         ry="0.52177382" /><rect
         style="fill:#281a18;fill-opacity:1;stroke:#150d0c;stroke-width:0.730044;stroke-miterlimit:4;stroke-dasharray:none;stroke-opacity:1"
         id="rect15253"
         width="12.046432"
         height="0.54352468"
         x="162.13791"
         y="36.812164"
         rx="0.15844256"
         ry="0.54352468" /></g><rect
       style="fill:#002766;fill-opacity:1;stroke:#090042;stroke-width:1.29457;stroke-opacity:1"
       id="rect2199"
       width="6.9530096"
       height="15.667032"
       x="-73.83754"
       y="73.470497"
       ry="2.7567835"
       transform="scale(-1,1)" /><rect
       style="fill:#002766;fill-opacity:1;stroke:#090042;stroke-width:1.30955;stroke-opacity:1"
       id="rect2303"
       width="7.2713404"
       height="15.329637"
       x="-65.955688"
       y="73.611481"
       ry="2.6974158"
       transform="scale(-1,1)" /><path
       id="rect9714"
       style="fill:#0053ce;fill-opacity:1;stroke:#090042;stroke-width:1.66056;stroke-miterlimit:4;stroke-dasharray:none;stroke-opacity:1"
       d="m 75.430686,56.457905 c 0.86693,0.103096 1.607237,0.51639 1.878336,1.124269 l 3.734258,8.373466 c 0.06328,0.141906 0.09716,0.286186 0.103814,0.428525 0.120903,0.186954 0.19893,0.386835 0.221047,0.594958 l 0.941055,8.849453 c 0.09932,0.934255 -0.937059,1.650315 -2.322501,1.606468 l -1.048248,-0.03171 c -1.385441,-0.04385 -2.580439,-0.832729 -2.679771,-1.766985 l -0.865174,-8.13792 c -0.05685,-0.07854 -0.105157,-0.160456 -0.143898,-0.247291 l -3.735956,-8.375245 c -0.39432,-0.88418 0.357572,-1.834542 1.684367,-2.130874 l 1.004283,-0.224861 c 0.41463,-0.09262 0.8343,-0.109007 1.228366,-0.06222 z" /><path
       id="path13"
       style="fill:#002766;fill-opacity:1;stroke-width:1.30812"
       d="m 75.503951,65.969648 -1.856767,-4.087095 0.50271,-4.799796 4.663611,9.64384 z"
       sodipodi:nodetypes="ccccc" /><path
       id="rect9738"
       style="fill:#313131;fill-opacity:1;stroke:#000000;stroke-width:1.25948;stroke-miterlimit:4;stroke-dasharray:none;stroke-opacity:1"
       d="m 73.948678,56.850022 1.144464,27.79073 -4.381706,2.907947 -4.614545,-4.276533 -3.528268,4.276533 -5.278387,-4.031471 1.017299,-26.667206 z"
       sodipodi:nodetypes="cccccccc" /><path
       id="path2"
       style="fill:#1f1f1f;fill-opacity:1;stroke:none;stroke-width:1.10407;stroke-dasharray:none;stroke-opacity:1"
       d="m 67.531995,62.835515 -4.633944,-0.781213 -3.69331,17.782289 7.778196,1.242363 z"
       sodipodi:nodetypes="ccccc" /><path
       id="path34"
       style="fill:#1f1f1f;fill-opacity:1;stroke:none;stroke-width:0.968436;stroke-dasharray:none;stroke-opacity:1"
       d="m 74.40853,84.315603 -1.907717,1.376547 -3.18733,-26.987991 4.190614,-0.264782 z"
       sodipodi:nodetypes="ccccc" /><g
       id="g15"
       transform="matrix(2.3195473,0.32679001,-0.30849709,2.3515399,45.292154,23.799998)"><path
         id="rect2"
         style="fill:#800000;fill-opacity:1;stroke:#330000;stroke-width:0.428;stroke-dasharray:none;stroke-opacity:1"
         d="m 9.4570037,14.797702 h 1.7663953 l 0.652207,7.255805 -2.9621083,-0.02717 z"
         sodipodi:nodetypes="ccccc" /><path
         id="path35"
         style="fill:#ff0000;fill-opacity:1;stroke:none;stroke-width:0.428;stroke-dasharray:none;stroke-opacity:1"
         d="m 9.7068097,14.095592 0.7095243,-0.01922 0.0373,6.083639 -1.2903304,1.164212 z"
         sodipodi:nodetypes="ccccc" /></g><path
       id="ellipse1"
       style="fill:#ff0000;stroke:#4e0600;stroke-width:0.8794"
       d="m 58.264832,59.515715 c 0.608409,2.650516 3.270295,4.567831 7.883244,4.567831 4.612943,0 7.118627,-2.327171 7.778967,-4.971519 1.14701,-4.593235 -3.166025,-4.751323 -7.778967,-4.751323 -4.612949,0 -9.030256,0.158082 -7.883244,5.155011 z"
       sodipodi:nodetypes="sssss" /><ellipse
       style="fill:#002766;fill-opacity:1;stroke:#090042;stroke-width:0.738156;stroke-miterlimit:4;stroke-dasharray:none;stroke-opacity:1"
       id="path11105"
       cx="-65.987534"
       cy="56.356258"
       rx="5.7757306"
       ry="4.9533229"
       transform="scale(-1,1)" /><ellipse
       style="fill:#0053ce;fill-opacity:1;stroke:none;stroke-width:0.586351;stroke-miterlimit:4;stroke-dasharray:none;stroke-opacity:1"
       id="ellipse2"
       cx="-65.379364"
       cy="56.057003"
       rx="4.8119869"
       ry="3.7514493"
       transform="scale(-1,1)" /><ellipse
       style="fill:#002766;fill-opacity:1;stroke:#090042;stroke-width:1.56787;stroke-miterlimit:4;stroke-dasharray:none;stroke-opacity:1"
       id="path9279"
       cx="-65.660713"
       cy="42.738735"
       rx="13.550318"
       ry="13.572549"
       transform="scale(-1,1)" /><ellipse
       style="fill:#0053ce;fill-opacity:1;stroke:none;stroke-width:0.649612;stroke-miterlimit:4;stroke-dasharray:none;stroke-opacity:1"
       id="ellipse9379"
       cx="-64.234474"
       cy="41.360661"
       rx="10.726074"
       ry="10.992805"
       transform="scale(-1,1)" /><path
       id="path9421"
       style="fill:#ffffff;fill-opacity:1;stroke:#002865;stroke-width:1.1172;stroke-miterlimit:4;stroke-dasharray:none;stroke-opacity:1"
       d="m 71.904676,46.167545 c 0.441909,-0.922774 0.677686,-2.006492 0.677698,-3.114944 -1.97e-4,-3.104921 -1.811416,-5.62182 -4.045619,-5.621857 -2.234202,3.6e-5 -4.045423,2.516936 -4.045619,5.621857 1.1e-5,1.108452 0.235788,2.19217 0.677698,3.114944 2.124196,1.943812 4.383958,1.711325 6.735842,0 z"
       sodipodi:nodetypes="cccccc" /><path
       id="path3"
       style="fill:#ffffff;fill-opacity:1;stroke:#002865;stroke-width:1.1172;stroke-miterlimit:4;stroke-dasharray:none;stroke-opacity:1"
       d="m 62.229611,46.188953 c 0.44191,-0.922773 0.677687,-2.006492 0.677699,-3.114944 -1.97e-4,-3.10492 -1.811417,-5.621819 -4.045619,-5.621857 -2.234202,3.8e-5 -4.045422,2.516937 -4.045618,5.621857 1.2e-5,1.108452 0.235789,2.192171 0.677699,3.114944 2.214072,1.279093 4.446291,1.814407 6.735839,0 z"
       sodipodi:nodetypes="cccccc" /><path
       id="rect8"
       style="fill:#002766;fill-opacity:1;stroke-width:1.30812"
       d="m 75.26155,65.43073 0.856479,2.262564 0.985977,8.415375 1.720944,-9.418237 z"
       sodipodi:nodetypes="ccccc" /><g
       id="g8"
       transform="matrix(0.82987999,-2.2616075,2.1478917,0.84064458,35.19853,60.518486)"><ellipse
         style="fill:#002766;fill-opacity:1;stroke:none;stroke-width:1.05482"
         id="ellipse7"
         cx="10.279738"
         cy="6.8676744"
         rx="1.1109732"
         ry="1.1472735" /><path
         id="path8"
         style="fill:#001c4a;fill-opacity:1;stroke:none;stroke-width:1.05482"
         d="M 9.6216349,5.9433065 A 1.1109732,1.1472735 0 0 0 9.1689494,6.8677979 1.1109732,1.1472735 0 0 0 10.279993,8.0150146 1.1109732,1.1472735 0 0 0 11.21637,7.4848145 1.1109732,1.1472735 0 0 1 10.558529,7.7075399 1.1109732,1.1472735 0 0 1 9.4474854,6.5603231 1.1109732,1.1472735 0 0 1 9.6216349,5.9433065 Z" /><circle
         style="fill:#ffffff;fill-opacity:1;stroke:none;stroke-width:0.418942"
         id="circle8"
         cx="9.7533178"
         cy="6.2299371"
         r="0.44839242" /></g><g
       id="g5"
       transform="matrix(0.39140512,0,0,0.24537508,27.007414,72.449337)"><ellipse
         style="fill:#fff801;fill-opacity:1;stroke:#882104;stroke-width:0.964999;stroke-opacity:1"
         id="path1-5"
         cx="16.750168"
         cy="50.256432"
         rx="11.4"
         ry="11.625" /><path
         id="path13-6"
         style="fill:#db9b00;fill-opacity:1;stroke:none;stroke-width:2.11242;stroke-dasharray:none;stroke-opacity:1"
         d="m 12.573626,40.794114 a 10.48268,10.462242 0 0 0 -6.1244889,9.497495 10.48268,10.462242 0 0 0 10.4823559,10.462018 10.48268,10.462242 0 0 0 9.10798,-5.295813 10.48268,10.462242 0 0 1 -4.35478,0.964522 10.48268,10.462242 0 0 1 -10.48236,-10.462016 10.48268,10.462242 0 0 1 1.371293,-5.166206 z" /><ellipse
         style="fill:#fff801;fill-opacity:1;stroke:#882104;stroke-width:0.805392;stroke-dasharray:none;stroke-opacity:1"
         id="ellipse1-2"
         cx="16.56267"
         cy="50.218933"
         rx="8.3452263"
         ry="8.3452272" /><path
         style="fill:#882104;fill-opacity:1;stroke:#882104;stroke-width:0.630237;stroke-opacity:1"
         d="m 13.787668,61.243931 0.675,-1.9875"
         id="path2-9" /><path
         style="fill:#882104;fill-opacity:1;stroke:#882104;stroke-width:0.630237;stroke-opacity:1"
         d="m 12.775168,60.943931 0.675,-1.9875"
         id="path4-1" /><path
         style="fill:#882104;fill-opacity:1;stroke:#882104;stroke-width:0.578997;stroke-opacity:1"
         d="m 11.747287,60.609868 0.668261,-1.694374"
         id="path5-2" /><path
         style="fill:#882104;fill-opacity:1;stroke:#882104;stroke-width:0.714284;stroke-opacity:1"
         d="M 14.794766,61.535159 15.51807,59.152703"
         id="path6" /><path
         style="fill:#882104;fill-opacity:1;stroke:#882104;stroke-width:0.578997;stroke-opacity:1"
         d="m 15.759787,61.547368 0.668261,-1.694374"
         id="path7-7" /><path
         style="fill:#882104;fill-opacity:1;stroke:#882104;stroke-width:0.630237;stroke-opacity:1"
         d="m 16.787668,61.618931 0.675,-1.9875"
         id="path8-0" /><path
         id="path12"
         style="fill:#db9b00;fill-opacity:1;stroke:none;stroke-width:1.58772;stroke-dasharray:none;stroke-opacity:1"
         d="m 13.421458,43.044114 a 7.9543588,7.7889583 0 0 0 -4.6473209,7.070721 7.9543588,7.7889583 0 0 0 7.9541129,7.788792 7.9543588,7.7889583 0 0 0 6.911223,-3.942641 7.9543588,7.7889583 0 0 1 -3.304449,0.71807 7.9543588,7.7889583 0 0 1 -7.954116,-7.788791 7.9543588,7.7889583 0 0 1 1.04055,-3.846151 z" /><ellipse
         style="fill:#fff801;fill-opacity:1;stroke:#882104;stroke-width:0.608806;stroke-dasharray:none;stroke-opacity:1"
         id="ellipse8"
         cx="13.354173"
         cy="49.211304"
         rx="2.901232"
         ry="3.1398814" /><ellipse
         style="fill:#fff801;fill-opacity:1;stroke:#882104;stroke-width:0.608806;stroke-dasharray:none;stroke-opacity:1"
         id="ellipse9"
         cx="19.559034"
         cy="49.211304"
         rx="2.901232"
         ry="3.1398814" /><path
         id="ellipse10"
         style="fill:#db9b00;fill-opacity:1;stroke:none;stroke-width:0.540964;stroke-dasharray:none;stroke-opacity:1"
         d="m 12.243599,46.719114 a 2.5365275,2.8355217 0 0 0 -1.481962,2.574052 2.5365275,2.8355217 0 0 0 2.53645,2.835461 2.5365275,2.8355217 0 0 0 2.203886,-1.435294 2.5365275,2.8355217 0 0 1 -1.05374,0.261409 2.5365275,2.8355217 0 0 1 -2.53645,-2.835461 2.5365275,2.8355217 0 0 1 0.331816,-1.400167 z" /><path
         id="path11"
         style="fill:#db9b00;fill-opacity:1;stroke:none;stroke-width:0.540964;stroke-dasharray:none;stroke-opacity:1"
         d="m 18.506099,46.644114 a 2.5365275,2.8355217 0 0 0 -1.481962,2.574052 2.5365275,2.8355217 0 0 0 2.536449,2.835461 2.5365275,2.8355217 0 0 0 2.203887,-1.435294 2.5365275,2.8355217 0 0 1 -1.05374,0.261409 2.5365275,2.8355217 0 0 1 -2.53645,-2.835461 2.5365275,2.8355217 0 0 1 0.331816,-1.400167 z" /><path
         style="fill:#882104;fill-opacity:1;stroke:#882104;stroke-width:0.630237;stroke-opacity:1"
         d="m 18.362668,41.068931 0.675,-1.9875"
         id="path14-9" /><path
         style="fill:#882104;fill-opacity:1;stroke:#882104;stroke-width:0.630237;stroke-opacity:1"
         d="m 17.350168,40.768931 0.675,-1.9875"
         id="path15-3" /><path
         style="fill:#882104;fill-opacity:1;stroke:#882104;stroke-width:0.578997;stroke-opacity:1"
         d="m 16.322287,40.434868 0.668261,-1.694374"
         id="path16" /><path
         style="fill:#882104;fill-opacity:1;stroke:#882104;stroke-width:0.714284;stroke-opacity:1"
         d="M 19.369766,41.360159 20.09307,38.977703"
         id="path17-6" /><path
         style="fill:#882104;fill-opacity:1;stroke:#882104;stroke-width:0.578997;stroke-opacity:1"
         d="m 20.334787,41.372368 0.668261,-1.694374"
         id="path18-0" /><path
         style="fill:#882104;fill-opacity:1;stroke:#882104;stroke-width:0.630237;stroke-opacity:1"
         d="m 21.362668,41.443931 0.675,-1.9875"
         id="path19-6" /></g><g
       id="g4"
       transform="matrix(0.86176369,-2.3528067,2.2304128,0.87454358,44.134482,61.165905)"><ellipse
         style="fill:#002766;fill-opacity:1;stroke:none;stroke-width:1.05482"
         id="ellipse4"
         cx="10.279738"
         cy="6.8676744"
         rx="1.1109732"
         ry="1.1472735" /><path
         id="path4"
         style="fill:#001c4a;fill-opacity:1;stroke:none;stroke-width:1.05482"
         d="M 9.6216349,5.9433065 A 1.1109732,1.1472735 0 0 0 9.1689494,6.8677979 1.1109732,1.1472735 0 0 0 10.279993,8.0150146 1.1109732,1.1472735 0 0 0 11.21637,7.4848145 1.1109732,1.1472735 0 0 1 10.558529,7.7075399 1.1109732,1.1472735 0 0 1 9.4474854,6.5603231 1.1109732,1.1472735 0 0 1 9.6216349,5.9433065 Z" /><circle
         style="fill:#ffffff;fill-opacity:1;stroke:none;stroke-width:0.418942"
         id="circle4"
         cx="9.7533178"
         cy="6.2299371"
         r="0.44839242" /></g><rect
       style="fill:#00112b;stroke:#030016;stroke-width:1.29778;stroke-opacity:1"
       id="rect2199-2"
       width="6.9637022"
       height="15.720742"
       x="14.104402"
       y="74.705414"
       ry="2.7662346" /><rect
       style="fill:#00112b;stroke:#030016;stroke-width:1.31279;stroke-opacity:1"
       id="rect2303-0"
       width="7.2825217"
       height="15.38219"
       x="21.998375"
       y="74.846886"
       ry="2.7066631" /><path
       id="rect9714-2"
       style="fill:#002766;fill-opacity:1;stroke:#090042;stroke-width:1.7246;stroke-miterlimit:4;stroke-dasharray:none;stroke-opacity:1"
       d="m 11.314036,58.406731 c -0.934578,0.103141 -1.7326541,0.516673 -2.0249072,1.124886 l -4.0256523,8.378064 c -0.068224,0.141987 -0.1047448,0.286343 -0.1119171,0.428762 -0.1303405,0.187047 -0.2144548,0.387048 -0.2382971,0.595285 l -1.0144849,8.854314 c -0.1070806,0.934765 1.0101777,1.651222 2.5037295,1.607348 l 1.1300448,-0.03173 c 1.4935525,-0.04385 2.7817993,-0.833187 2.8888823,-1.767954 l 0.932686,-8.142395 c 0.06128,-0.0786 0.113364,-0.16053 0.155127,-0.247424 l 4.027483,-8.37985 c 0.42509,-0.884666 -0.385474,-1.835547 -1.815802,-2.132045 l -1.082651,-0.224966 c -0.446983,-0.09267 -0.899402,-0.109067 -1.324219,-0.06224 z" /><path
       id="path11551-3"
       style="fill:#002766;fill-opacity:1;stroke:#090042;stroke-width:1.72094;stroke-miterlimit:4;stroke-dasharray:none;stroke-opacity:1"
       d="m 48.724333,61.286391 c -0.2785,0.970021 -0.840789,1.732887 -1.501147,1.920654 l -9.096271,2.586361 c -0.154142,0.04384 -0.304698,0.05358 -0.447777,0.03268 -0.210761,0.10064 -0.425597,0.149651 -0.637313,0.133156 l -9.002569,-0.700945 c -0.95042,-0.074 -1.452774,-1.401985 -1.127565,-2.97628 l 0.244593,-1.191435 c 0.325199,-1.574296 1.353543,-2.781445 2.303963,-2.707426 l 8.278681,0.644764 c 0.08976,-0.04918 0.181115,-0.08793 0.275502,-0.114732 l 9.098376,-2.58795 c 0.960509,-0.273101 1.753986,0.776787 1.779399,2.352362 l 0.0197,1.192697 c 0.008,0.492369 -0.06103,0.975196 -0.187682,1.416099 z" /><path
       id="rect9738-7"
       style="fill:#601288;fill-opacity:1;stroke:#260039;stroke-width:1.24504;stroke-miterlimit:4;stroke-dasharray:none;stroke-opacity:1"
       d="m 13.984715,58.408171 -1.147459,27.086461 4.393176,2.834258 4.626626,-4.168164 3.537504,4.168164 5.292207,-3.929311 -1.019964,-25.991408 z"
       sodipodi:nodetypes="cccccccc" /><path
       id="rect2-5"
       style="fill:#806600;fill-opacity:1;stroke:#403300;stroke-width:1.01129;stroke-dasharray:none;stroke-opacity:1"
       d="m 19.706859,65.041558 h 4.142965 l 1.529708,17.271303 -6.947431,-0.06467 z"
       sodipodi:nodetypes="ccccc" /><path
       id="path35-9"
       style="fill:#ffff00;fill-opacity:1;stroke:none;stroke-width:1.01129;stroke-dasharray:none;stroke-opacity:1"
       d="m 20.292763,64.629895 1.664143,-0.04575 0.08748,14.481146 -3.026385,2.771223 z"
       sodipodi:nodetypes="ccccc" /><path
       id="path34-2"
       style="fill:#260039;fill-opacity:1;stroke:none;stroke-width:0.972708;stroke-dasharray:none;stroke-opacity:1"
       d="m 12.937022,85.199586 2.301914,1.284229 3.396479,-26.595359 -4.213229,-0.265689 z"
       sodipodi:nodetypes="ccccc" /><path
       id="ellipse1-28"
       style="fill:#ffcc00;stroke:#806600;stroke-width:0.912804;stroke-opacity:1"
       d="m 28.627245,60.837018 c -0.525936,3.303509 -2.826997,5.693185 -6.814643,5.693185 -3.987645,0 -6.153673,-2.900505 -6.724501,-6.196329 -0.991529,-5.724847 2.736859,-5.921884 6.724501,-5.921884 3.987646,0 7.806173,0.197045 6.814643,6.425028 z"
       sodipodi:nodetypes="sssss" /><ellipse
       style="fill:#0053ce;fill-opacity:1;stroke:#090042;stroke-width:0.730666;stroke-miterlimit:4;stroke-dasharray:none;stroke-opacity:1"
       id="path11105-9"
       cx="21.902746"
       cy="58.824448"
       rx="5.5980268"
       ry="5.0073442" /><ellipse
       style="fill:#002766;fill-opacity:1;stroke:#090042;stroke-width:1.53669;stroke-miterlimit:4;stroke-dasharray:none;stroke-opacity:1"
       id="path9279-7"
       cx="22.548758"
       cy="45.774765"
       rx="13.206132"
       ry="13.377997" /><ellipse
       style="fill:#0053ce;fill-opacity:1;stroke:none;stroke-width:0.676136;stroke-miterlimit:4;stroke-dasharray:none;stroke-opacity:1"
       id="ellipse9379-3"
       cx="22.766172"
       cy="44.327274"
       rx="11.379948"
       ry="11.224549" /><g
       id="g61"
       transform="matrix(2.4155483,0,0,2.496693,54.589001,23.834177)"><rect
         style="fill:#e6a000;fill-opacity:1;stroke:#191414;stroke-width:0.342646;stroke-miterlimit:4;stroke-dasharray:none;stroke-opacity:1"
         id="rect11"
         width="2.0073555"
         height="17.212606"
         x="-4.8346939"
         y="9.3509035"
         ry="0.54227519" /><rect
         style="fill:#b25200;fill-opacity:1;stroke:none;stroke-width:0.201897;stroke-miterlimit:4;stroke-dasharray:none;stroke-opacity:1"
         id="rect45"
         width="0.70294106"
         height="17.065474"
         x="-4.7259927"
         y="9.3509035"
         ry="0.53763986" /><g
         id="g17"
         transform="matrix(-1.7902656,0,0,-1.7323616,48.237921,23.600697)"
         style="fill:#e6a000;fill-opacity:1"><rect
           style="fill:#e6a000;fill-opacity:1;stroke:#191414;stroke-width:0.125918;stroke-miterlimit:4;stroke-dasharray:none;stroke-opacity:1"
           id="rect16"
           width="2.418293"
           height="0.53468895"
           x="27.855507"
           y="7.3858442"
           ry="0.25027269" /><rect
           style="fill:#e6a000;fill-opacity:1;stroke:#191414;stroke-width:0.158123;stroke-miterlimit:4;stroke-dasharray:none;stroke-opacity:1"
           id="rect17"
           width="2.895308"
           height="0.70425063"
           x="27.631411"
           y="7.8246946"
           ry="0.3296397" /></g><g
         id="g22"
         transform="matrix(1.7884929,0.07707202,-0.07964813,1.7306462,-55.193179,7.8996717)"><path
           id="path17"
           style="fill:#861414;fill-opacity:1;stroke:#191414;stroke-width:0.192"
           d="m 29.179479,1.3621619 c 0,0.1894821 -0.12582,0.6505412 -0.328434,0.6505415 -0.202615,2e-7 -0.405299,-0.461059 -0.405299,-0.6505415 0,-0.1894825 0.164252,-0.3430884 0.366867,-0.3430882 0.202615,3e-7 0.366866,0.153606 0.366866,0.3430882 z"
           sodipodi:nodetypes="sssss" /><path
           id="path18"
           style="fill:#4d4d4d;stroke:#191414;stroke-width:0.192"
           d="m 28.357427,0.89338797 c 0,0.18948213 0.220065,0.48720663 0.01745,0.48720693 -0.202615,2e-7 -0.751184,-0.2977244 -0.751184,-0.48720693 0,-0.18948251 0.164252,-0.34308838 0.366867,-0.34308815 0.202615,2.9e-7 0.366866,0.153606 0.366867,0.34308815 z"
           sodipodi:nodetypes="sssss" /><path
           id="path19"
           style="fill:#4d4d4d;stroke:#191414;stroke-width:0.192"
           d="m 29.960769,0.80506825 c 0,0.18948215 -0.471705,0.48720665 -0.674319,0.48720695 -0.202615,2e-7 -0.05941,-0.29772444 -0.05941,-0.48720695 0,-0.18948251 0.164252,-0.34308838 0.366867,-0.34308815 0.202615,2.9e-7 0.366866,0.153606 0.366866,0.34308815 z"
           sodipodi:nodetypes="sssss" /><path
           id="path20"
           style="fill:#df2e2e;fill-opacity:1;stroke:none;stroke-width:0.0965249"
           d="m 29.044968,1.3211899 c 0,0.097872 -0.06157,0.3360203 -0.160706,0.3360204 -0.09914,1e-7 -0.198318,-0.2381481 -0.198318,-0.3360204 0,-0.097872 0.08037,-0.1772134 0.179512,-0.1772133 0.09915,2e-7 0.179512,0.079341 0.179512,0.1772133 z"
           sodipodi:nodetypes="sssss" /><path
           id="path21"
           style="fill:#7f7f7f;fill-opacity:1;stroke:none;stroke-width:0.0784491"
           d="m 28.149614,0.69865723 c 0.05242,0.0598357 0.142334,0.23840606 0.08174,0.29149337 -0.0606,0.053093 -0.248779,-0.0393931 -0.301199,-0.099229 -0.05242,-0.0598357 -0.04579,-0.15137913 0.01482,-0.2044742 0.06061,-0.053099 0.152226,-0.0476261 0.204647,0.0122098 z"
           sodipodi:nodetypes="sssss" /><path
           id="path22"
           style="fill:#7f7f7f;fill-opacity:1;stroke:none;stroke-width:0.0784491"
           d="m 29.428341,0.62179387 c -0.05242,0.0598357 -0.142334,0.23840606 -0.08174,0.29149337 0.0606,0.053093 0.248779,-0.0393931 0.301199,-0.099229 0.05242,-0.0598357 0.04579,-0.15137913 -0.01482,-0.2044742 -0.06061,-0.053099 -0.152226,-0.0476261 -0.204647,0.0122098 z"
           sodipodi:nodetypes="sssss" /></g><g
         id="g29"
         transform="matrix(1.7555982,-0.07802106,-0.07818321,-1.7519572,-54.32899,26.578925)"><path
           id="path24"
           style="fill:#861414;fill-opacity:1;stroke:#191414;stroke-width:0.192"
           d="m 29.179479,1.3621619 c 0,0.1894821 -0.12582,0.6505412 -0.328434,0.6505415 -0.202615,2e-7 -0.405299,-0.461059 -0.405299,-0.6505415 0,-0.1894825 0.164252,-0.3430884 0.366867,-0.3430882 0.202615,3e-7 0.366866,0.153606 0.366866,0.3430882 z"
           sodipodi:nodetypes="sssss" /><path
           id="path25"
           style="fill:#4d4d4d;stroke:#191414;stroke-width:0.192"
           d="m 28.357427,0.89338797 c 0,0.18948213 0.220065,0.48720663 0.01745,0.48720693 -0.202615,2e-7 -0.751184,-0.2977244 -0.751184,-0.48720693 0,-0.18948251 0.164252,-0.34308838 0.366867,-0.34308815 0.202615,2.9e-7 0.366866,0.153606 0.366867,0.34308815 z"
           sodipodi:nodetypes="sssss" /><path
           id="path26"
           style="fill:#4d4d4d;stroke:#191414;stroke-width:0.192"
           d="m 29.960769,0.80506825 c 0,0.18948215 -0.471705,0.48720665 -0.674319,0.48720695 -0.202615,2e-7 -0.05941,-0.29772444 -0.05941,-0.48720695 0,-0.18948251 0.164252,-0.34308838 0.366867,-0.34308815 0.202615,2.9e-7 0.366866,0.153606 0.366866,0.34308815 z"
           sodipodi:nodetypes="sssss" /><path
           id="path27"
           style="fill:#df2e2e;fill-opacity:1;stroke:none;stroke-width:0.0965249"
           d="m 29.044968,1.3211899 c 0,0.097872 -0.06157,0.3360203 -0.160706,0.3360204 -0.09914,1e-7 -0.198318,-0.2381481 -0.198318,-0.3360204 0,-0.097872 0.08037,-0.1772134 0.179512,-0.1772133 0.09915,2e-7 0.179512,0.079341 0.179512,0.1772133 z"
           sodipodi:nodetypes="sssss" /><path
           id="path28"
           style="fill:#7f7f7f;fill-opacity:1;stroke:none;stroke-width:0.0784491"
           d="m 28.149614,0.69865723 c 0.05242,0.0598357 0.142334,0.23840606 0.08174,0.29149337 -0.0606,0.053093 -0.248779,-0.0393931 -0.301199,-0.099229 -0.05242,-0.0598357 -0.04579,-0.15137913 0.01482,-0.2044742 0.06061,-0.053099 0.152226,-0.0476261 0.204647,0.0122098 z"
           sodipodi:nodetypes="sssss" /><path
           id="path29"
           style="fill:#7f7f7f;fill-opacity:1;stroke:none;stroke-width:0.0784491"
           d="m 29.428341,0.62179387 c -0.05242,0.0598357 -0.142334,0.23840606 -0.08174,0.29149337 0.0606,0.053093 0.248779,-0.0393931 0.301199,-0.099229 0.05242,-0.0598357 0.04579,-0.15137913 -0.01482,-0.2044742 -0.06061,-0.053099 -0.152226,-0.0476261 -0.204647,0.0122098 z"
           sodipodi:nodetypes="sssss" /></g><g
         id="g44"
         transform="matrix(-1.7902656,0,0,1.7323616,48.183571,11.166448)"
         style="fill:#e6a000;fill-opacity:1"><rect
           style="fill:#e6a000;fill-opacity:1;stroke:#191414;stroke-width:0.125918;stroke-miterlimit:4;stroke-dasharray:none;stroke-opacity:1"
           id="rect43"
           width="2.418293"
           height="0.53468895"
           x="27.855507"
           y="7.3858442"
           ry="0.25027269" /><rect
           style="fill:#e6a000;fill-opacity:1;stroke:#191414;stroke-width:0.158123;stroke-miterlimit:4;stroke-dasharray:none;stroke-opacity:1"
           id="rect44"
           width="2.895308"
           height="0.70425063"
           x="27.631411"
           y="7.8246946"
           ry="0.3296397" /></g><path
         id="path56"
         style="fill:#e6a000;fill-opacity:1;stroke:#191414;stroke-width:0.306999;stroke-dasharray:none;stroke-opacity:1"
         d="m -3.8860677,2.3641968 a 3.451263,3.4240878 0 0 0 -3.4514689,3.4240804 3.451263,3.4240878 0 0 0 3.4514689,3.4240804 3.451263,3.4240878 0 0 0 3.4514689,-3.4240804 3.451263,3.4240878 0 0 0 -3.4514689,-3.4240804 z m -0.622701,1.1162109 v 0.2754354 c 0,0.3561913 0.2853307,0.6428548 0.6392375,0.6428548 0.3539068,0 0.6387207,-0.2866635 0.6387207,-0.6428548 V 3.4969442 a 2.450061,2.4811844 0 0 1 1.6185058,1.4991333 h -0.2950724 c -0.3539068,0 -0.6392375,0.2866636 -0.6392375,0.6428548 0,0.3561913 0.2853307,0.6428548 0.6392375,0.6428548 h 0.4258138 A 2.450061,2.4811844 0 0 1 -3.2612996,8.2790812 V 7.7969401 c 0,-0.3561914 -0.2848139,-0.6428548 -0.6387207,-0.6428548 -0.3539069,0 -0.6387207,0.2866634 -0.6387207,0.6428548 V 8.2790812 A 2.450061,2.4811844 0 0 1 -6.3076253,6.3432821 h 0.5059122 c 0.3539068,0 0.6392375,-0.2871803 0.6392375,-0.6433716 0,-0.3561914 -0.2853307,-0.6428548 -0.6392375,-0.6428548 h -0.4082438 a 2.450061,2.4811844 0 0 1 1.7011882,-1.576648 z" /><ellipse
         style="fill:#861414;fill-opacity:1;stroke:#191414;stroke-width:0.33298;stroke-dasharray:none;stroke-opacity:1"
         id="path59"
         cx="-3.8724799"
         cy="5.7611628"
         rx="1.3321862"
         ry="1.2914233" /><ellipse
         style="fill:#df2e2e;fill-opacity:1;stroke:none;stroke-width:0.195036;stroke-dasharray:none;stroke-opacity:1"
         id="ellipse59"
         cx="-3.627902"
         cy="5.5165849"
         rx="0.76150495"
         ry="0.77509266" /></g><path
       d="m 48.599696,56.180594 c -0.06518,-0.0022 -0.125762,0.0076 -0.181818,0.03076 l -3.416733,1.414588 c -0.896631,0.371102 -2.629415,1.105676 -2.585274,2.136643 l 0.128483,2.986626 c 0.04414,1.030964 0.588882,3.129605 1.534439,3.002614 l 4.914809,-0.659319 c 0.94556,-0.126991 2.463369,-1.959244 2.471343,-2.992777 l 0.01688,-2.167394 c 0.0075,-0.968938 -1.904462,-3.717732 -2.882223,-3.751733 z"
       style="fill:#002766;fill-opacity:1;stroke:#090042;stroke-width:1.61145;stroke-opacity:1"
       id="path32" /><path
       d="m 44.881005,58.822843 c 0.02919,-0.02812 0.06021,-0.05127 0.09369,-0.06851 l 2.042436,-1.047849 c 0.535948,-0.275016 1.577549,-0.801488 1.906036,-0.485811 l 0.951286,0.914779 c 0.328478,0.315686 0.788912,1.152027 0.313127,1.518178 l -2.472726,1.903384 c -0.47577,0.366164 -1.790233,0.484979 -2.143435,0.190761 l -0.740885,-0.61683 c -0.331137,-0.275838 -0.385634,-1.881698 0.05045,-2.307923 z"
       style="fill:#0053ce;fill-opacity:1;stroke:none;stroke-width:0.846372"
       id="path33" /><path
       id="path1-61"
       style="fill:#f2f2f2;stroke-width:0.7564438;stroke:#002865;stroke-opacity:1;stroke-dasharray:none"
       d="m 17.634926,40.719456 a 4.3023273,5.299567 0 0 0 -4.301948,5.299023 4.3023273,5.299567 0 0 0 0.369512,2.149895 4.7012184,2.1310428 0 0 1 3.818656,-0.887259 4.7012184,2.1310428 0 0 1 4.000704,1.010963 4.3023273,5.299567 0 0 0 0.416109,-2.273599 4.3023273,5.299567 0 0 0 -4.303033,-5.299023 z" /><path
       id="path3-2"
       style="fill:#f2f2f2;stroke-width:0.76067713;stroke:#002865;stroke-opacity:1;stroke-dasharray:none"
       d="m 27.832989,40.719456 a 4.3023273,5.4338311 0 0 0 -4.301947,5.433273 4.3023273,5.4338311 0 0 0 0.369511,2.204363 4.7012184,2.1850326 0 0 1 3.818657,-0.909738 4.7012184,2.1850326 0 0 1 4.000704,1.036576 4.3023273,5.4338311 0 0 0 0.416108,-2.331201 4.3023273,5.4338311 0 0 0 -4.303033,-5.433273 z" /><path
       id="rect8-9"
       style="fill:#ffd013;fill-opacity:1;stroke:#cfa500;stroke-width:1.09076;stroke-dasharray:none;stroke-opacity:1"
       d="m 35.872063,58.469606 2.565913,-0.120922 c 1.010336,-0.04761 2.233369,-1.46059 2.216337,-0.49191 l -0.130453,7.41932 c -0.01712,0.96868 -1.939393,2.501827 -2.949056,2.45184 l -1.164255,-0.05765 c -1.009663,-0.04999 -2.943228,-1.092006 -2.979267,-2.059937 l -0.256741,-6.894765 c -0.03607,-0.967926 1.687196,-0.198377 2.697529,-0.245991 z"
       sodipodi:nodetypes="sssssssss" /><g
       id="g54"
       transform="matrix(3.0661879,0,0,3.2148565,-61.809159,27.499608)"><g
         id="g49"
         transform="matrix(1.051405,0.04675001,-0.04682291,1.0497679,-3.025573,9.1381983)"><path
           id="path44"
           style="fill:#861414;fill-opacity:1;stroke:#191414;stroke-width:0.192"
           d="m 29.179479,1.3621619 c 0,0.1894821 -0.12582,0.6505412 -0.328434,0.6505415 -0.202615,2e-7 -0.405299,-0.461059 -0.405299,-0.6505415 0,-0.1894825 0.164252,-0.3430884 0.366867,-0.3430882 0.202615,3e-7 0.366866,0.153606 0.366866,0.3430882 z"
           sodipodi:nodetypes="sssss" /><path
           id="path45"
           style="fill:#4d4d4d;stroke:#191414;stroke-width:0.192"
           d="m 28.357427,0.89338797 c 0,0.18948213 0.220065,0.48720663 0.01745,0.48720693 -0.202615,2e-7 -0.751184,-0.2977244 -0.751184,-0.48720693 0,-0.18948251 0.164252,-0.34308838 0.366867,-0.34308815 0.202615,2.9e-7 0.366866,0.153606 0.366867,0.34308815 z"
           sodipodi:nodetypes="sssss" /><path
           id="path46"
           style="fill:#4d4d4d;stroke:#191414;stroke-width:0.192"
           d="m 29.960769,0.80506825 c 0,0.18948215 -0.471705,0.48720665 -0.674319,0.48720695 -0.202615,2e-7 -0.05941,-0.29772444 -0.05941,-0.48720695 0,-0.18948251 0.164252,-0.34308838 0.366867,-0.34308815 0.202615,2.9e-7 0.366866,0.153606 0.366866,0.34308815 z"
           sodipodi:nodetypes="sssss" /><path
           id="path47"
           style="fill:#df2e2e;fill-opacity:1;stroke:none;stroke-width:0.0965249"
           d="m 29.044968,1.3211899 c 0,0.097872 -0.06157,0.3360203 -0.160706,0.3360204 -0.09914,1e-7 -0.198318,-0.2381481 -0.198318,-0.3360204 0,-0.097872 0.08037,-0.1772134 0.179512,-0.1772133 0.09915,2e-7 0.179512,0.079341 0.179512,0.1772133 z"
           sodipodi:nodetypes="sssss" /><path
           id="path48"
           style="fill:#7f7f7f;fill-opacity:1;stroke:none;stroke-width:0.0784491"
           d="m 28.149614,0.69865723 c 0.05242,0.0598357 0.142334,0.23840606 0.08174,0.29149337 -0.0606,0.053093 -0.248779,-0.0393931 -0.301199,-0.099229 -0.05242,-0.0598357 -0.04579,-0.15137913 0.01482,-0.2044742 0.06061,-0.053099 0.152226,-0.0476261 0.204647,0.0122098 z"
           sodipodi:nodetypes="sssss" /><path
           id="path49"
           style="fill:#7f7f7f;fill-opacity:1;stroke:none;stroke-width:0.0784491"
           d="m 29.428341,0.62179387 c -0.05242,0.0598357 -0.142334,0.23840606 -0.08174,0.29149337 0.0606,0.053093 0.248779,-0.0393931 0.301199,-0.099229 0.05242,-0.0598357 0.04579,-0.15137913 -0.01482,-0.2044742 -0.06061,-0.053099 -0.152226,-0.0476261 -0.204647,0.0122098 z"
           sodipodi:nodetypes="sssss" /></g><g
         id="g53"
         transform="matrix(1,0,0,-1,0.11529503,25.879765)"><path
           id="path50"
           style="fill:#4d4d4d;stroke:#191414;stroke-width:0.201912"
           d="m 26.613226,12.939025 c -0.0089,0.198912 0.208565,0.521742 -0.0045,0.51227 -0.21303,-0.0095 -0.775858,-0.347659 -0.766986,-0.546572 0.0089,-0.198913 0.18876,-0.352484 0.40179,-0.343012 0.213031,0.0095 0.378533,0.178402 0.369662,0.377314 z"
           sodipodi:nodetypes="sssss" /><path
           id="path51"
           style="fill:#4d4d4d;stroke:#191414;stroke-width:0.201912"
           d="m 28.303123,12.921266 c -0.0089,0.198912 -0.518766,0.489402 -0.731795,0.47993 -0.21303,-0.0095 -0.04852,-0.315319 -0.03965,-0.514232 0.0089,-0.198912 0.18876,-0.352484 0.401791,-0.343012 0.21303,0.0095 0.378532,0.178402 0.36966,0.377314 z"
           sodipodi:nodetypes="sssss" /><path
           id="path52"
           style="fill:#7f7f7f;fill-opacity:1;stroke:none;stroke-width:0.0824992"
           d="m 26.403848,12.724888 c 0.05231,0.06526 0.138488,0.256925 0.07229,0.309821 -0.0662,0.0529 -0.259723,-0.05298 -0.312036,-0.118248 -0.05231,-0.06526 -0.04106,-0.161054 0.02516,-0.213958 0.06621,-0.05291 0.162281,-0.04288 0.214595,0.02238 z"
           sodipodi:nodetypes="sssss" /><path
           id="path53"
           style="fill:#7f7f7f;fill-opacity:1;stroke:none;stroke-width:0.0824992"
           d="m 27.751907,12.703979 c -0.05792,0.06036 -0.160814,0.243617 -0.09959,0.30218 0.06123,0.05857 0.263412,-0.02972 0.321329,-0.09009 0.05792,-0.06036 0.05523,-0.156772 -0.006,-0.215343 -0.06124,-0.05858 -0.157821,-0.05711 -0.215739,0.0032 z"
           sodipodi:nodetypes="sssss" /></g></g><path
       id="path54"
       style="fill:#d6ab00;fill-opacity:1;stroke:#7f6500;stroke-width:0.748857;stroke-dasharray:none;stroke-opacity:1"
       d="m 7.2891753,69.06185 2.540575,0.228537 C 10.83011,69.380364 12.560205,68.336998 12.42269,69.13864 l -0.999589,5.826986 c -0.137516,0.801629 -2.9853181,2.100467 -3.9691171,1.93028 L 6.3195529,76.699647 C 5.3357549,76.529452 3.6379823,75.429133 3.7281079,74.624193 l 0.6719274,-6.001219 c 0.090125,-0.804944 1.8887896,0.348899 2.8891466,0.438871 z"
       sodipodi:nodetypes="ssssssssss" /><path
       id="path55"
       style="fill:#493900;fill-opacity:1;stroke:none;stroke-width:0.672061;stroke-dasharray:none;stroke-opacity:1"
       d="m 8.1216018,69.739724 a 1.746191,1.7563821 61.563237 0 0 -1.9200172,1.574896 1.746191,1.7563821 61.563237 0 0 -0.00856,0.210185 1.746191,1.7563821 61.563237 0 1 0.18873,0.0079 1.746191,1.7563821 61.563237 0 1 1.2709173,0.749453 1.746191,1.7563821 61.563237 0 1 1.3966464,-0.496942 1.746191,1.7563821 61.563237 0 1 0.5859698,0.161435 1.746191,1.7563821 61.563237 0 0 0.05702,-0.302017 1.746191,1.7563821 61.563237 0 0 -1.570669,-1.905327 z m 1.5136315,2.207337 A 1.746191,1.7563821 61.563237 0 1 7.960963,73.228262 1.746191,1.7563821 61.563237 0 1 7.9524021,73.438446 1.746191,1.7563821 61.563237 0 1 7.428936,74.517351 1.746191,1.7563821 61.563237 0 0 8.7008018,75.266892 1.746191,1.7563821 61.563237 0 0 10.619962,73.690958 1.746191,1.7563821 61.563237 0 0 9.6352639,71.947075 Z M 7.4289018,74.517338 A 1.746191,1.7563821 61.563237 0 1 7.1292455,73.360516 1.746191,1.7563821 61.563237 0 1 7.1871311,73.059571 1.746191,1.7563821 61.563237 0 1 6.1929844,71.524824 1.746191,1.7563821 61.563237 0 0 4.4616763,73.108033 1.746191,1.7563821 61.563237 0 0 6.0331988,75.014395 1.746191,1.7563821 61.563237 0 0 7.4288965,74.517367 Z M 7.1871346,73.05954 a 1.746191,1.7563821 61.563237 0 0 0.5859699,0.161435 1.746191,1.7563821 61.563237 0 0 0.1878482,0.0074 1.746191,1.7563821 61.563237 0 0 -0.3083461,-0.945698 1.746191,1.7563821 61.563237 0 0 -0.4654804,0.776979 z" /><path
       id="path6-3"
       style="fill:#876900;fill-opacity:1;stroke:none;stroke-width:0.555424;stroke-dasharray:none;stroke-opacity:1"
       d="m 34.843076,62.364053 a 1.4773588,1.4179401 85.024511 0 0 1.37422,1.531551 1.4773588,1.4179401 85.024511 0 0 0.17056,-0.0038 1.4773588,1.4179401 85.024511 0 1 -0.0035,-0.159078 1.4773588,1.4179401 85.024511 0 1 0.540529,-1.107616 1.4773588,1.4179401 85.024511 0 1 -0.474683,-1.148037 1.4773588,1.4179401 85.024511 0 1 0.10022,-0.501036 1.4773588,1.4179401 85.024511 0 0 -0.247376,-0.03213 1.4773588,1.4179401 85.024511 0 0 -1.460382,1.420122 z m 1.707753,-1.387989 a 1.4773588,1.4179401 85.024511 0 1 1.12378,1.340349 1.4773588,1.4179401 85.024511 0 1 0.170537,-0.0038 1.4773588,1.4179401 85.024511 0 1 0.900313,0.383547 1.4773588,1.4179401 85.024511 0 0 0.540546,-1.108416 1.4773588,1.4179401 85.024511 0 0 -1.375016,-1.53078 1.4773588,1.4179401 85.024511 0 0 -1.360153,0.919081 z m 2.194623,1.720114 a 1.4773588,1.4179401 85.024511 0 1 -0.920628,0.312477 1.4773588,1.4179401 85.024511 0 1 -0.246552,-0.0329 1.4773588,1.4179401 85.024511 0 1 -1.190416,0.916071 1.4773588,1.4179401 85.024511 0 0 1.371146,1.372484 1.4773588,1.4179401 85.024511 0 0 1.461175,-1.420891 1.4773588,1.4179401 85.024511 0 0 -0.474699,-1.147237 z m -1.167208,0.279576 a 1.4773588,1.4179401 85.024511 0 0 0.100221,-0.501036 1.4773588,1.4179401 85.024511 0 0 -0.004,-0.158317 1.4773588,1.4179401 85.024511 0 0 -0.749322,0.308726 1.4773588,1.4179401 85.024511 0 0 0.652958,0.350608 z" /><ellipse
       style="fill:#002766;fill-opacity:1;stroke:none;stroke-width:2.68015"
       id="ellipse9-1"
       cx="28.196899"
       cy="44.512913"
       rx="2.8447325"
       ry="2.892616" /><path
       id="path10"
       style="fill:#001c4a;fill-opacity:1;stroke:none;stroke-width:2.68015"
       d="m 26.511775,42.182307 a 2.8447322,2.8926159 0 0 0 -1.159135,2.330916 2.8447322,2.8926159 0 0 0 2.844912,2.892472 2.8447322,2.8926159 0 0 0 2.397665,-1.336791 2.8447322,2.8926159 0 0 1 -1.684451,0.561557 2.8447322,2.8926159 0 0 1 -2.844915,-2.892473 2.8447322,2.8926159 0 0 1 0.445924,-1.555681 z" /><ellipse
       style="fill:#ffffff;fill-opacity:1;stroke:none;stroke-width:1.06447"
       id="circle10"
       cx="28.187458"
       cy="42.484528"
       rx="1.1481433"
       ry="1.1305299" /><ellipse
       style="fill:#002766;fill-opacity:1;stroke:none;stroke-width:2.68015"
       id="ellipse10-9"
       cx="18.062576"
       cy="44.383537"
       rx="2.8447325"
       ry="2.892616" /><path
       id="path11-4"
       style="fill:#001c4a;fill-opacity:1;stroke:none;stroke-width:2.68015"
       d="m 16.377452,42.052934 a 2.8447322,2.8926159 0 0 0 -1.159137,2.330916 2.8447322,2.8926159 0 0 0 2.844913,2.892472 2.8447322,2.8926159 0 0 0 2.397663,-1.336791 2.8447322,2.8926159 0 0 1 -1.684451,0.561557 2.8447322,2.8926159 0 0 1 -2.844912,-2.892473 2.8447322,2.8926159 0 0 1 0.445924,-1.555681 z" /><ellipse
       style="fill:#ffffff;fill-opacity:1;stroke:none;stroke-width:1.16184"
       id="circle11"
       cx="18.164671"
       cy="42.387497"
       rx="1.2596846"
       ry="1.2275596" /><g
       id="g75"
       transform="matrix(0.39178294,0,0,0.43135906,70.593298,51.144723)"><ellipse
         style="fill:#fff801;fill-opacity:1;stroke:#882104;stroke-width:0.964999;stroke-opacity:1"
         id="ellipse58"
         cx="16.750168"
         cy="50.256432"
         rx="11.4"
         ry="11.625" /><path
         id="path60"
         style="fill:#db9b00;fill-opacity:1;stroke:none;stroke-width:2.11242;stroke-dasharray:none;stroke-opacity:1"
         d="m 12.573626,40.794114 a 10.48268,10.462242 0 0 0 -6.1244889,9.497495 10.48268,10.462242 0 0 0 10.4823559,10.462018 10.48268,10.462242 0 0 0 9.10798,-5.295813 10.48268,10.462242 0 0 1 -4.35478,0.964522 10.48268,10.462242 0 0 1 -10.48236,-10.462016 10.48268,10.462242 0 0 1 1.371293,-5.166206 z" /><ellipse
         style="fill:#fff801;fill-opacity:1;stroke:#882104;stroke-width:0.805392;stroke-dasharray:none;stroke-opacity:1"
         id="ellipse60"
         cx="16.56267"
         cy="50.218933"
         rx="8.3452263"
         ry="8.3452272" /><path
         style="fill:#882104;fill-opacity:1;stroke:#882104;stroke-width:0.630237;stroke-opacity:1"
         d="m 13.787668,61.243931 0.675,-1.9875"
         id="path61" /><path
         style="fill:#882104;fill-opacity:1;stroke:#882104;stroke-width:0.630237;stroke-opacity:1"
         d="m 12.775168,60.943931 0.675,-1.9875"
         id="path62" /><path
         style="fill:#882104;fill-opacity:1;stroke:#882104;stroke-width:0.578997;stroke-opacity:1"
         d="m 11.747287,60.609868 0.668261,-1.694374"
         id="path63" /><path
         style="fill:#882104;fill-opacity:1;stroke:#882104;stroke-width:0.714284;stroke-opacity:1"
         d="M 14.794766,61.535159 15.51807,59.152703"
         id="path64" /><path
         style="fill:#882104;fill-opacity:1;stroke:#882104;stroke-width:0.578997;stroke-opacity:1"
         d="m 15.759787,61.547368 0.668261,-1.694374"
         id="path65" /><path
         style="fill:#882104;fill-opacity:1;stroke:#882104;stroke-width:0.630237;stroke-opacity:1"
         d="m 16.787668,61.618931 0.675,-1.9875"
         id="path66" /><path
         id="path67"
         style="fill:#db9b00;fill-opacity:1;stroke:none;stroke-width:1.58772;stroke-dasharray:none;stroke-opacity:1"
         d="m 13.421458,43.044114 a 7.9543588,7.7889583 0 0 0 -4.6473209,7.070721 7.9543588,7.7889583 0 0 0 7.9541129,7.788792 7.9543588,7.7889583 0 0 0 6.911223,-3.942641 7.9543588,7.7889583 0 0 1 -3.304449,0.71807 7.9543588,7.7889583 0 0 1 -7.954116,-7.788791 7.9543588,7.7889583 0 0 1 1.04055,-3.846151 z" /><ellipse
         style="fill:#fff801;fill-opacity:1;stroke:#882104;stroke-width:0.608806;stroke-dasharray:none;stroke-opacity:1"
         id="ellipse67"
         cx="13.354173"
         cy="49.211304"
         rx="2.901232"
         ry="3.1398814" /><ellipse
         style="fill:#fff801;fill-opacity:1;stroke:#882104;stroke-width:0.608806;stroke-dasharray:none;stroke-opacity:1"
         id="ellipse68"
         cx="19.559034"
         cy="49.211304"
         rx="2.901232"
         ry="3.1398814" /><path
         id="path68"
         style="fill:#db9b00;fill-opacity:1;stroke:none;stroke-width:0.540964;stroke-dasharray:none;stroke-opacity:1"
         d="m 12.243599,46.719114 a 2.5365275,2.8355217 0 0 0 -1.481962,2.574052 2.5365275,2.8355217 0 0 0 2.53645,2.835461 2.5365275,2.8355217 0 0 0 2.203886,-1.435294 2.5365275,2.8355217 0 0 1 -1.05374,0.261409 2.5365275,2.8355217 0 0 1 -2.53645,-2.835461 2.5365275,2.8355217 0 0 1 0.331816,-1.400167 z" /><path
         id="path69"
         style="fill:#db9b00;fill-opacity:1;stroke:none;stroke-width:0.540964;stroke-dasharray:none;stroke-opacity:1"
         d="m 18.506099,46.644114 a 2.5365275,2.8355217 0 0 0 -1.481962,2.574052 2.5365275,2.8355217 0 0 0 2.536449,2.835461 2.5365275,2.8355217 0 0 0 2.203887,-1.435294 2.5365275,2.8355217 0 0 1 -1.05374,0.261409 2.5365275,2.8355217 0 0 1 -2.53645,-2.835461 2.5365275,2.8355217 0 0 1 0.331816,-1.400167 z" /><path
         style="fill:#882104;fill-opacity:1;stroke:#882104;stroke-width:0.630237;stroke-opacity:1"
         d="m 18.362668,41.068931 0.675,-1.9875"
         id="path70" /><path
         style="fill:#882104;fill-opacity:1;stroke:#882104;stroke-width:0.630237;stroke-opacity:1"
         d="m 17.350168,40.768931 0.675,-1.9875"
         id="path71" /><path
         style="fill:#882104;fill-opacity:1;stroke:#882104;stroke-width:0.578997;stroke-opacity:1"
         d="m 16.322287,40.434868 0.668261,-1.694374"
         id="path72" /><path
         style="fill:#882104;fill-opacity:1;stroke:#882104;stroke-width:0.714284;stroke-opacity:1"
         d="M 19.369766,41.360159 20.09307,38.977703"
         id="path73" /><path
         style="fill:#882104;fill-opacity:1;stroke:#882104;stroke-width:0.578997;stroke-opacity:1"
         d="m 20.334787,41.372368 0.668261,-1.694374"
         id="path74" /><path
         style="fill:#882104;fill-opacity:1;stroke:#882104;stroke-width:0.630237;stroke-opacity:1"
         d="m 21.362668,41.443931 0.675,-1.9875"
         id="path75" /></g><path
       d="m 80.223127,71.487286 c -0.04624,-0.0017 -0.08921,0.0059 -0.128968,0.02376 l -2.423573,1.092663 c -0.636004,0.28665 -1.86511,0.854053 -1.8338,1.650398 l 0.09114,2.306945 c 0.03131,0.796343 0.417709,2.417386 1.088416,2.319295 l 3.486196,-0.509275 c 0.670711,-0.09809 1.747331,-1.513369 1.752984,-2.311696 l 0.01198,-1.67415 c 0.0056,-0.748432 -1.350883,-2.87167 -2.044432,-2.897933 z"
       style="fill:#002766;fill-opacity:1;stroke:#090042;stroke-width:1.1928;stroke-opacity:1"
       id="path76" /><path
       d="m 78.331359,74.128758 c 0.0176,-0.02908 0.03631,-0.05301 0.0565,-0.07084 L 79.61953,72.97446 c 0.323198,-0.284361 0.951325,-0.828724 1.149416,-0.50232 l 0.573664,0.945866 c 0.198086,0.326413 0.475748,1.191175 0.188831,1.569769 l -1.491156,1.968066 c -0.286909,0.378607 -1.079583,0.501461 -1.292577,0.197244 l -0.446782,-0.63779 c -0.19969,-0.285213 -0.232554,-1.945644 0.03042,-2.386354 z"
       style="fill:#0053ce;fill-opacity:1;stroke:none;stroke-width:0.668331"
       id="path77" /></g></svg>
