<?xml version="1.0" encoding="UTF-8" standalone="no"?>
<!-- Created with Inkscape (http://www.inkscape.org/) -->

<svg
   width="400"
   height="400"
   viewBox="0 0 105.83334 105.83334"
   version="1.1"
   id="svg1"
   inkscape:version="1.4.2 (ebf0e940d0, 2025-05-08)"
   sodipodi:docname="TelaInicial3.svg"
   xml:space="preserve"
   xmlns:inkscape="http://www.inkscape.org/namespaces/inkscape"
   xmlns:sodipodi="http://sodipodi.sourceforge.net/DTD/sodipodi-0.dtd"
   xmlns="http://www.w3.org/2000/svg"
   xmlns:svg="http://www.w3.org/2000/svg"><sodipodi:namedview
     id="namedview1"
     pagecolor="#505050"
     bordercolor="#eeeeee"
     borderopacity="1"
     inkscape:showpageshadow="0"
     inkscape:pageopacity="0"
     inkscape:pagecheckerboard="0"
     inkscape:deskcolor="#505050"
     inkscape:document-units="px"
     inkscape:zoom="0.88194444"
     inkscape:cx="473.38583"
     inkscape:cy="175.1811"
     inkscape:window-width="1366"
     inkscape:window-height="697"
     inkscape:window-x="0"
     inkscape:window-y="0"
     inkscape:window-maximized="1"
     inkscape:current-layer="layer1" /><defs
     id="defs1"><linearGradient
       id="linearGradient13895"
       inkscape:swatch="solid"><stop
         style="stop-color:#000000;stop-opacity:1;"
         offset="0"
         id="stop13893" /></linearGradient><filter
       style="color-interpolation-filters:sRGB;"
       inkscape:label="Clean Edges"
       id="filter14269"
       x="-0.31154084"
       y="-0.29580634"
       width="1.6230817"
       height="1.5916127"><feGaussianBlur
         stdDeviation="0.204612"
         result="blur"
         id="feGaussianBlur14263" /><feComposite
         in="SourceGraphic"
         in2="blur"
         operator="in"
         result="composite1"
         id="feComposite14265" /><feComposite
         in="composite1"
         in2="composite1"
         operator="in"
         result="composite2"
         id="feComposite14267" /></filter></defs><g
     inkscape:label="Camada 1"
     inkscape:groupmode="layer"
     id="layer1"><ellipse
       style="fill:#000000;fill-opacity:0.444782;stroke:none;stroke-width:2.82072;stroke-dasharray:none"
       id="path6"
       cx="52.966671"
       cy="101.54877"
       rx="31.800003"
       ry="4.2000003" /><rect
       style="fill:#002766;fill-opacity:1;stroke:#090042;stroke-width:1.81835;stroke-opacity:1"
       id="rect2199"
       width="9.924859"
       height="21.653955"
       x="39.966049"
       y="80.591904"
       ry="3.8102474" /><rect
       style="fill:#002766;fill-opacity:1;stroke:#090042;stroke-width:1.83938;stroke-opacity:1"
       id="rect2303"
       width="10.379251"
       height="21.18763"
       x="51.216763"
       y="80.786758"
       ry="3.728193" /><path
       id="rect9714"
       style="fill:#0053ce;fill-opacity:1;stroke:#090042;stroke-width:2.33241;stroke-miterlimit:4;stroke-dasharray:none;stroke-opacity:1"
       d="m 37.691965,57.078205 c -1.237472,0.142492 -2.2942,0.713721 -2.681172,1.553891 l -5.330351,11.573262 c -0.09033,0.196133 -0.138694,0.395548 -0.148186,0.59228 -0.17258,0.258395 -0.283957,0.534658 -0.315527,0.822312 l -1.343276,12.23114 c -0.141777,1.291266 1.337572,2.280958 3.315178,2.220356 l 1.496289,-0.04383 c 1.977606,-0.0606 3.683368,-1.150943 3.825157,-2.442211 l 1.234966,-11.247704 c 0.08115,-0.108551 0.150103,-0.221773 0.205402,-0.34179 L 43.28322,60.42019 c 0.56286,-1.222055 -0.510405,-2.535584 -2.404297,-2.945155 l -1.433533,-0.31079 c -0.59185,-0.128009 -1.190895,-0.150662 -1.753393,-0.086 z" /><path
       id="path15"
       style="fill:#ffffff;fill-opacity:1;stroke:#191414;stroke-width:1.4699;stroke-dasharray:none"
       d="m 73.46107,27.827123 4.028854,-5.446669 4.431727,17.498878 -3.625964,3.592485 z"
       sodipodi:nodetypes="ccccc" /><path
       id="path11551"
       style="fill:#002766;fill-opacity:1;stroke:#090042;stroke-width:2.41124;stroke-miterlimit:4;stroke-dasharray:none;stroke-opacity:1"
       d="m 89.564264,61.647577 c -0.396923,1.336119 -1.198315,2.386901 -2.139474,2.645534 l -12.964255,3.562488 c -0.219688,0.0604 -0.434265,0.0738 -0.638185,0.04502 -0.300382,0.138628 -0.606574,0.206133 -0.908316,0.183411 L 60.083326,67.118538 c -1.354564,-0.101932 -2.070534,-1.931114 -1.607038,-4.099569 l 0.348602,-1.641097 c 0.463483,-2.168457 1.929106,-3.8312 3.283671,-3.729245 l 11.799004,0.888106 c 0.12793,-0.06773 0.258129,-0.121117 0.392653,-0.158033 l 12.967255,-3.564676 c 1.368944,-0.376174 2.49983,1.069956 2.536048,3.240174 l 0.02808,1.642836 c 0.01135,0.678197 -0.08697,1.343247 -0.267489,1.950554 z" /><rect
       style="fill:#ffffff;stroke:#191414;stroke-width:1.81752;stroke-miterlimit:4;stroke-dasharray:none;stroke-opacity:1"
       id="rect2963"
       width="6.6878629"
       height="58.847672"
       x="80.427818"
       y="42.946205"
       ry="1.8539685" /><path
       id="path13"
       style="fill:#002766;fill-opacity:1;stroke-width:1.83738"
       d="m 37.587385,70.224719 2.650385,-5.648918 -0.717577,-6.633966 -8.306928,13.25409 z"
       sodipodi:nodetypes="ccccc" /><path
       id="rect9738"
       style="fill:#313131;fill-opacity:1;stroke:#000000;stroke-width:1.76906;stroke-miterlimit:4;stroke-dasharray:none;stroke-opacity:1"
       d="m 39.807412,57.620164 -1.63363,38.410544 6.254532,4.019172 6.58689,-5.910743 5.036316,5.910743 7.534472,-5.572035 -1.452113,-36.857681 z"
       sodipodi:nodetypes="cccccccc" /><path
       id="path2"
       style="fill:#1f1f1f;fill-opacity:1;stroke:none;stroke-width:1.67257;stroke-dasharray:none;stroke-opacity:1"
       d="m 41.316708,67.230605 7.783188,-1.067423 6.203294,24.297117 -13.064281,1.697522 z"
       sodipodi:nodetypes="ccccc" /><path
       id="path34"
       style="fill:#1f1f1f;fill-opacity:1;stroke:none;stroke-width:1.36026;stroke-dasharray:none;stroke-opacity:1"
       d="m 39.15101,95.581308 2.723113,1.902574 4.549655,-37.301051 -5.981763,-0.365964 z"
       sodipodi:nodetypes="ccccc" /><g
       id="g15"
       transform="matrix(3.3109663,0.45166795,-0.44035465,3.2501459,21.06999,10.890563)"><path
         id="rect2"
         style="fill:#800000;fill-opacity:1;stroke:#330000;stroke-width:0.428;stroke-dasharray:none;stroke-opacity:1"
         d="m 9.4570037,14.797702 h 1.7663953 l 0.652207,7.255805 -2.9621083,-0.02717 z"
         sodipodi:nodetypes="ccccc" /><path
         id="path35"
         style="fill:#ff0000;fill-opacity:1;stroke:none;stroke-width:0.428;stroke-dasharray:none;stroke-opacity:1"
         d="m 9.7068097,14.095592 0.7095243,-0.01922 0.0373,6.083639 -1.2903304,1.164212 z"
         sodipodi:nodetypes="ccccc" /></g><path
       id="ellipse1"
       style="fill:#ff0000;stroke:#4e0600;stroke-width:1.2352"
       d="m 62.194834,61.304512 c -0.868454,3.663371 -4.668082,6.313359 -11.252693,6.313359 -6.584603,0 -10.161264,-3.216465 -11.103846,-6.871311 -1.637264,-6.348471 4.519244,-6.566971 11.103846,-6.566971 6.584611,0 12.88996,0.218492 11.252693,7.124923 z"
       sodipodi:nodetypes="sssss" /><ellipse
       style="fill:#002766;fill-opacity:1;stroke:#090042;stroke-width:1.03681;stroke-miterlimit:4;stroke-dasharray:none;stroke-opacity:1"
       id="path11105"
       cx="51.171303"
       cy="56.937721"
       rx="8.2443886"
       ry="6.8461618" /><ellipse
       style="fill:#0053ce;fill-opacity:1;stroke:none;stroke-width:0.823586;stroke-miterlimit:4;stroke-dasharray:none;stroke-opacity:1"
       id="ellipse2"
       cx="52.039417"
       cy="56.524109"
       rx="6.8687224"
       ry="5.18501" /><ellipse
       style="fill:#002766;fill-opacity:1;stroke:#090042;stroke-width:2.20222;stroke-miterlimit:4;stroke-dasharray:none;stroke-opacity:1"
       id="path9279"
       cx="51.637814"
       cy="38.116459"
       rx="19.341984"
       ry="18.759096" /><ellipse
       style="fill:#0053ce;fill-opacity:1;stroke:none;stroke-width:0.801055;stroke-miterlimit:4;stroke-dasharray:none;stroke-opacity:1"
       id="ellipse9379"
       cx="54.83194"
       cy="34.9603"
       rx="13.296265"
       ry="13.484531" /><path
       id="path9421"
       style="fill:#ffffff;fill-opacity:1;stroke:#002865;stroke-width:1.56922;stroke-miterlimit:4;stroke-dasharray:none;stroke-opacity:1"
       d="m 42.573767,34.337059 c -0.630789,1.275398 -0.967342,2.773243 -0.967359,4.305274 2.81e-4,4.29142 2.58565,7.770114 5.774794,7.770166 3.189143,-5e-5 5.774514,-3.478746 5.774794,-7.770166 -1.6e-5,-1.532031 -0.336569,-3.029876 -0.96736,-4.305274 -3.032117,-2.68661 -6.257745,-2.365282 -9.614869,0 z"
       sodipodi:nodetypes="cccccc" /><path
       id="path3"
       style="fill:#ffffff;fill-opacity:1;stroke:#002865;stroke-width:1.56922;stroke-miterlimit:4;stroke-dasharray:none;stroke-opacity:1"
       d="m 56.38414,34.085046 c -0.630791,1.275398 -0.967344,2.773243 -0.96736,4.305274 2.8e-4,4.291419 2.58565,7.770114 5.774793,7.770166 3.189143,-5.2e-5 5.774513,-3.478747 5.774793,-7.770166 -1.7e-5,-1.532031 -0.33657,-3.029876 -0.96736,-4.305274 -3.160409,-1.767879 -6.346722,-2.507755 -9.614866,0 z"
       sodipodi:nodetypes="cccccc" /><path
       id="path7"
       style="fill:#ffffff;fill-opacity:1;stroke:#191414;stroke-width:1.4699;stroke-dasharray:none"
       d="m 94.898971,27.449103 -4.028852,-5.446669 -4.431729,17.498878 3.625964,3.592485 z"
       sodipodi:nodetypes="ccccc" /><g
       id="g6"
       transform="matrix(-5.9844607,0,0,-5.6799204,258.21661,86.843543)"
       style="stroke-width:0.283917;stroke-dasharray:none"><rect
         style="fill:#ffffff;stroke:#191414;stroke-width:0.283917;stroke-miterlimit:4;stroke-dasharray:none;stroke-opacity:1"
         id="rect5"
         width="2.418293"
         height="0.53468895"
         x="27.855507"
         y="7.3858442"
         ry="0.25027269" /><rect
         style="fill:#ffffff;stroke:#191414;stroke-width:0.283917;stroke-miterlimit:4;stroke-dasharray:none;stroke-opacity:1"
         id="rect6"
         width="2.895308"
         height="0.70425063"
         x="27.631411"
         y="7.8246946"
         ry="0.3296397" /></g><g
       id="g22"
       transform="matrix(5.978535,0.25269721,-0.26624602,5.674296,-87.984798,34.562448)"><path
         id="path17"
         style="fill:#861414;fill-opacity:1;stroke:#191414;stroke-width:0.192"
         d="m 29.179479,1.3621619 c 0,0.1894821 -0.12582,0.6505412 -0.328434,0.6505415 -0.202615,2e-7 -0.405299,-0.461059 -0.405299,-0.6505415 0,-0.1894825 0.164252,-0.3430884 0.366867,-0.3430882 0.202615,3e-7 0.366866,0.153606 0.366866,0.3430882 z"
         sodipodi:nodetypes="sssss" /><path
         id="path18"
         style="fill:#4d4d4d;stroke:#191414;stroke-width:0.192"
         d="m 28.357427,0.89338797 c 0,0.18948213 0.220065,0.48720663 0.01745,0.48720693 -0.202615,2e-7 -0.751184,-0.2977244 -0.751184,-0.48720693 0,-0.18948251 0.164252,-0.34308838 0.366867,-0.34308815 0.202615,2.9e-7 0.366866,0.153606 0.366867,0.34308815 z"
         sodipodi:nodetypes="sssss" /><path
         id="path19"
         style="fill:#4d4d4d;stroke:#191414;stroke-width:0.192"
         d="m 29.960769,0.80506825 c 0,0.18948215 -0.471705,0.48720665 -0.674319,0.48720695 -0.202615,2e-7 -0.05941,-0.29772444 -0.05941,-0.48720695 0,-0.18948251 0.164252,-0.34308838 0.366867,-0.34308815 0.202615,2.9e-7 0.366866,0.153606 0.366866,0.34308815 z"
         sodipodi:nodetypes="sssss" /><path
         id="path20"
         style="fill:#df2e2e;fill-opacity:1;stroke:none;stroke-width:0.0965249"
         d="m 29.044968,1.3211899 c 0,0.097872 -0.06157,0.3360203 -0.160706,0.3360204 -0.09914,1e-7 -0.198318,-0.2381481 -0.198318,-0.3360204 0,-0.097872 0.08037,-0.1772134 0.179512,-0.1772133 0.09915,2e-7 0.179512,0.079341 0.179512,0.1772133 z"
         sodipodi:nodetypes="sssss" /><path
         id="path21"
         style="fill:#7f7f7f;fill-opacity:1;stroke:none;stroke-width:0.0784491"
         d="m 28.149614,0.69865723 c 0.05242,0.0598357 0.142334,0.23840606 0.08174,0.29149337 -0.0606,0.053093 -0.248779,-0.0393931 -0.301199,-0.099229 -0.05242,-0.0598357 -0.04579,-0.15137913 0.01482,-0.2044742 0.06061,-0.053099 0.152226,-0.0476261 0.204647,0.0122098 z"
         sodipodi:nodetypes="sssss" /><path
         id="path22"
         style="fill:#7f7f7f;fill-opacity:1;stroke:none;stroke-width:0.0784491"
         d="m 29.428341,0.62179387 c -0.05242,0.0598357 -0.142334,0.23840606 -0.08174,0.29149337 0.0606,0.053093 0.248779,-0.0393931 0.301199,-0.099229 0.05242,-0.0598357 0.04579,-0.15137913 -0.01482,-0.2044742 -0.06061,-0.053099 -0.152226,-0.0476261 -0.204647,0.0122098 z"
         sodipodi:nodetypes="sssss" /></g><rect
       style="fill:#ffffff;stroke:#191414;stroke-width:1.39376;stroke-miterlimit:4;stroke-dasharray:none;stroke-opacity:1"
       id="rect4"
       width="14.206001"
       height="3.0743876"
       x="76.676689"
       y="91.837929"
       ry="1.4390335" /><rect
       style="fill:#ffffff;stroke:#191414;stroke-width:1.58246;stroke-miterlimit:4;stroke-dasharray:none;stroke-opacity:1"
       id="rect3"
       width="17.008173"
       height="4.0493445"
       x="75.36026"
       y="94.361267"
       ry="1.895383" /><g
       id="g28"
       transform="matrix(5.8685752,-0.25580884,-0.26134912,-5.7441688,-85.096006,101.85535)"><path
         id="path23"
         style="fill:#861414;fill-opacity:1;stroke:#191414;stroke-width:0.192"
         d="m 29.179479,1.3621619 c 0,0.1894821 -0.12582,0.6505412 -0.328434,0.6505415 -0.202615,2e-7 -0.405299,-0.461059 -0.405299,-0.6505415 0,-0.1894825 0.164252,-0.3430884 0.366867,-0.3430882 0.202615,3e-7 0.366866,0.153606 0.366866,0.3430882 z"
         sodipodi:nodetypes="sssss" /><path
         id="path24"
         style="fill:#4d4d4d;stroke:#191414;stroke-width:0.192"
         d="m 28.357427,0.89338797 c 0,0.18948213 0.220065,0.48720663 0.01745,0.48720693 -0.202615,2e-7 -0.751184,-0.2977244 -0.751184,-0.48720693 0,-0.18948251 0.164252,-0.34308838 0.366867,-0.34308815 0.202615,2.9e-7 0.366866,0.153606 0.366867,0.34308815 z"
         sodipodi:nodetypes="sssss" /><path
         id="path25"
         style="fill:#4d4d4d;stroke:#191414;stroke-width:0.192"
         d="m 29.960769,0.80506825 c 0,0.18948215 -0.471705,0.48720665 -0.674319,0.48720695 -0.202615,2e-7 -0.05941,-0.29772444 -0.05941,-0.48720695 0,-0.18948251 0.164252,-0.34308838 0.366867,-0.34308815 0.202615,2.9e-7 0.366866,0.153606 0.366866,0.34308815 z"
         sodipodi:nodetypes="sssss" /><path
         id="path26"
         style="fill:#df2e2e;fill-opacity:1;stroke:none;stroke-width:0.0965249"
         d="m 29.044968,1.3211899 c 0,0.097872 -0.06157,0.3360203 -0.160706,0.3360204 -0.09914,1e-7 -0.198318,-0.2381481 -0.198318,-0.3360204 0,-0.097872 0.08037,-0.1772134 0.179512,-0.1772133 0.09915,2e-7 0.179512,0.079341 0.179512,0.1772133 z"
         sodipodi:nodetypes="sssss" /><path
         id="path27"
         style="fill:#7f7f7f;fill-opacity:1;stroke:none;stroke-width:0.0784491"
         d="m 28.149614,0.69865723 c 0.05242,0.0598357 0.142334,0.23840606 0.08174,0.29149337 -0.0606,0.053093 -0.248779,-0.0393931 -0.301199,-0.099229 -0.05242,-0.0598357 -0.04579,-0.15137913 0.01482,-0.2044742 0.06061,-0.053099 0.152226,-0.0476261 0.204647,0.0122098 z"
         sodipodi:nodetypes="sssss" /><path
         id="path28"
         style="fill:#7f7f7f;fill-opacity:1;stroke:none;stroke-width:0.0784491"
         d="m 29.428341,0.62179387 c -0.05242,0.0598357 -0.142334,0.23840606 -0.08174,0.29149337 0.0606,0.053093 0.248779,-0.0393931 0.301199,-0.099229 0.05242,-0.0598357 0.04579,-0.15137913 -0.01482,-0.2044742 -0.06061,-0.053099 -0.152226,-0.0476261 -0.204647,0.0122098 z"
         sodipodi:nodetypes="sssss" /></g><path
       d="m 73.255192,59.676295 c 2.538232,-0.122365 1.867222,-0.240297 1.905764,-0.258001 l 2.318674,-0.511306 c 0.616863,-0.283019 1.815982,-0.825378 2.209587,-0.53609 l 0.915082,0.964336 c 0.393603,0.289281 0.957947,1.19717 0.41424,1.565006 l -1.701597,0.305543 c -1.356855,0.286311 -2.072898,0.354626 -4.205193,0.75612 -0.395427,-0.251117 -12.147718,-2.743722 -11.652214,-3.167467 z"
       style="fill:#0053ce;fill-opacity:1;stroke:none;stroke-width:0.89445"
       id="path1"
       sodipodi:nodetypes="cccccccccc" /><path
       d="m 89.129693,55.075572 c -0.09289,-0.0032 -0.179238,0.0105 -0.259131,0.04236 l -4.869622,1.948472 c -1.277904,0.511162 -3.747515,1.522974 -3.684604,2.943041 l 0.183117,4.113817 c 0.06292,1.420064 0.839292,4.31076 2.186926,4.13584 L 89.6911,67.350947 c 1.347639,-0.17492 3.51086,-2.698687 3.522226,-4.122289 l 0.02407,-2.985399 c 0.01073,-1.334626 -2.714293,-5.120851 -4.107823,-5.167684 z"
       style="fill:#002766;fill-opacity:1;stroke:#090042;stroke-width:2.25782;stroke-opacity:1"
       id="path32" /><path
       d="m 86.010511,57.73341 c 0.02703,-0.02115 0.05608,-0.03893 0.08756,-0.05235 l 1.920105,-0.818437 c 0.50385,-0.214806 1.483278,-0.626446 1.804772,-0.406881 l 0.74743,0.731913 c 0.321492,0.219558 0.782443,0.908629 0.338348,1.187808 l -2.124374,1.259987 c -0.444078,0.279187 -1.694368,0.402965 -2.03887,0.199675 l -0.722629,-0.426194 c -0.322981,-0.190593 -0.41701,-1.353762 -0.01228,-1.675375 z"
       style="fill:#0053ce;fill-opacity:1;stroke:none;stroke-width:0.70425"
       id="path33"
       sodipodi:nodetypes="ccccccccccc" /><path
       id="rect8"
       style="fill:#002766;fill-opacity:1;stroke-width:2.12623"
       d="M 37.933394,69.479861 36.596227,72.682031 35.461524,84.388216 31.121928,71.22094 Z"
       sodipodi:nodetypes="ccccc" /><path
       id="path14"
       style="fill:#818181;fill-opacity:1;stroke:none;stroke-width:1.08726;stroke-miterlimit:4;stroke-dasharray:none;stroke-opacity:1"
       d="m 43.058326,35.063835 a 5.0575588,6.8403708 0 0 0 -0.847202,3.789763 5.0575588,6.8403708 0 0 0 5.057497,6.839769 5.0575588,6.8403708 0 0 0 4.110448,-2.856118 6.5237159,6.2745007 0 0 1 -1.941007,0.284865 6.5237159,6.2745007 0 0 1 -6.523458,-6.27451 6.5237159,6.2745007 0 0 1 0.269289,-1.783769 z" /><path
       id="path5"
       style="fill:#818181;fill-opacity:1;stroke:none;stroke-width:1.08726;stroke-miterlimit:4;stroke-dasharray:none;stroke-opacity:1"
       d="m 56.866158,34.796535 a 5.0575588,6.8403708 0 0 0 -0.847202,3.789763 5.0575588,6.8403708 0 0 0 5.057495,6.839769 5.0575588,6.8403708 0 0 0 4.110447,-2.856118 6.5237159,6.2745007 0 0 1 -1.941007,0.284867 6.5237159,6.2745007 0 0 1 -6.523455,-6.27451 6.5237159,6.2745007 0 0 1 0.269294,-1.78377 z" /><g
       id="g7"
       transform="matrix(3.3427781,0,0,3.2787153,12.682126,16.508831)"><ellipse
         style="fill:#002766;fill-opacity:1;stroke:none;stroke-width:1.05482"
         id="path4"
         cx="10.279738"
         cy="6.8676744"
         rx="1.1109732"
         ry="1.1472735" /><path
         id="ellipse6"
         style="fill:#001c4a;fill-opacity:1;stroke:none;stroke-width:1.05482"
         d="M 9.6216349,5.9433065 A 1.1109732,1.1472735 0 0 0 9.1689494,6.8677979 1.1109732,1.1472735 0 0 0 10.279993,8.0150146 1.1109732,1.1472735 0 0 0 11.21637,7.4848145 1.1109732,1.1472735 0 0 1 10.558529,7.7075399 1.1109732,1.1472735 0 0 1 9.4474854,6.5603231 1.1109732,1.1472735 0 0 1 9.6216349,5.9433065 Z" /><circle
         style="fill:#ffffff;fill-opacity:1;stroke:none;stroke-width:0.418942"
         id="ellipse5"
         cx="9.7533178"
         cy="6.2299371"
         r="0.44839242" /></g><g
       id="g8"
       transform="matrix(3.3427781,0,0,3.2787153,26.289198,16.364021)"><ellipse
         style="fill:#002766;fill-opacity:1;stroke:none;stroke-width:1.05482"
         id="ellipse7"
         cx="10.279738"
         cy="6.8676744"
         rx="1.1109732"
         ry="1.1472735" /><path
         id="path8"
         style="fill:#001c4a;fill-opacity:1;stroke:none;stroke-width:1.05482"
         d="M 9.6216349,5.9433065 A 1.1109732,1.1472735 0 0 0 9.1689494,6.8677979 1.1109732,1.1472735 0 0 0 10.279993,8.0150146 1.1109732,1.1472735 0 0 0 11.21637,7.4848145 1.1109732,1.1472735 0 0 1 10.558529,7.7075399 1.1109732,1.1472735 0 0 1 9.4474854,6.5603231 1.1109732,1.1472735 0 0 1 9.6216349,5.9433065 Z" /><circle
         style="fill:#ffffff;fill-opacity:1;stroke:none;stroke-width:0.418942"
         id="circle8"
         cx="9.7533178"
         cy="6.2299371"
         r="0.44839242" /></g></g></svg>
