<?xml version="1.0" encoding="UTF-8" standalone="no"?>
<!-- Created with Inkscape (http://www.inkscape.org/) -->

<svg
   width="400"
   height="400"
   viewBox="0 0 105.83334 105.83334"
   version="1.1"
   id="svg1"
   inkscape:version="1.4.2 (ebf0e940d0, 2025-05-08)"
   sodipodi:docname="TelaInicial1.svg"
   xml:space="preserve"
   xmlns:inkscape="http://www.inkscape.org/namespaces/inkscape"
   xmlns:sodipodi="http://sodipodi.sourceforge.net/DTD/sodipodi-0.dtd"
   xmlns="http://www.w3.org/2000/svg"
   xmlns:svg="http://www.w3.org/2000/svg"><sodipodi:namedview
     id="namedview1"
     pagecolor="#505050"
     bordercolor="#eeeeee"
     borderopacity="1"
     inkscape:showpageshadow="0"
     inkscape:pageopacity="0"
     inkscape:pagecheckerboard="0"
     inkscape:deskcolor="#505050"
     inkscape:document-units="px"
     inkscape:zoom="0.88194444"
     inkscape:cx="324.8504"
     inkscape:cy="230.74016"
     inkscape:window-width="1366"
     inkscape:window-height="697"
     inkscape:window-x="0"
     inkscape:window-y="0"
     inkscape:window-maximized="1"
     inkscape:current-layer="layer1" /><defs
     id="defs1"><linearGradient
       id="linearGradient13895"
       inkscape:swatch="solid"><stop
         style="stop-color:#000000;stop-opacity:1;"
         offset="0"
         id="stop13893" /></linearGradient><filter
       style="color-interpolation-filters:sRGB;"
       inkscape:label="Clean Edges"
       id="filter14269"
       x="-0.31154084"
       y="-0.29580634"
       width="1.6230817"
       height="1.5916127"><feGaussianBlur
         stdDeviation="0.204612"
         result="blur"
         id="feGaussianBlur14263" /><feComposite
         in="SourceGraphic"
         in2="blur"
         operator="in"
         result="composite1"
         id="feComposite14265" /><feComposite
         in="composite1"
         in2="composite1"
         operator="in"
         result="composite2"
         id="feComposite14267" /></filter></defs><g
     inkscape:label="Camada 1"
     inkscape:groupmode="layer"
     id="layer1"><ellipse
       style="fill:#000000;fill-opacity:0.444782;stroke:none;stroke-width:2.82072;stroke-dasharray:none"
       id="path6"
       cx="53.400005"
       cy="101.41669"
       rx="31.800003"
       ry="4.2000003" /><g
       id="g1"
       transform="matrix(1.533382,0,0,1.5213774,-27.681794,-57.343857)"><rect
         style="fill:#002766;fill-opacity:1;stroke:#090042;stroke-width:1.19051;stroke-opacity:1"
         id="rect2199"
         width="6.4725289"
         height="14.233126"
         x="44.399361"
         y="90.578217"
         ry="2.5044723" /><rect
         style="fill:#002766;fill-opacity:1;stroke:#090042;stroke-width:1.20428;stroke-opacity:1"
         id="rect2303"
         width="6.7688618"
         height="13.92661"
         x="51.736549"
         y="90.706299"
         ry="2.4505379" /><path
         id="rect9714"
         style="fill:#0053ce;fill-opacity:1;stroke:#090042;stroke-width:1.52708;stroke-miterlimit:4;stroke-dasharray:none;stroke-opacity:1"
         d="m 42.916309,75.122685 c -0.807021,0.09366 -1.49617,0.469128 -1.748535,1.021371 l -3.476205,7.607095 c -0.05891,0.128918 -0.09045,0.259993 -0.09664,0.389305 -0.112549,0.169843 -0.185184,0.35143 -0.205772,0.540505 l -0.876022,8.039517 c -0.09246,0.848748 0.872302,1.499272 2.162004,1.459438 l 0.97581,-0.02881 c 1.289702,-0.03983 2.40212,-0.756514 2.494588,-1.605263 l 0.805387,-7.393106 c 0.05292,-0.07135 0.09789,-0.145771 0.133954,-0.224658 l 3.477786,-7.608711 c 0.367071,-0.803256 -0.332862,-1.666637 -1.56797,-1.935848 l -0.934883,-0.204281 c -0.385977,-0.08414 -0.776646,-0.09903 -1.143481,-0.05653 z" /><path
         id="path15"
         style="fill:#ffffff;fill-opacity:1;stroke:#191414;stroke-width:0.962376;stroke-dasharray:none"
         d="m 66.243246,55.895975 2.62743,-3.580091 2.890165,11.501997 -2.364684,2.361337 z"
         sodipodi:nodetypes="ccccc" /><path
         id="path11551"
         style="fill:#002766;fill-opacity:1;stroke:#090042;stroke-width:1.57869;stroke-miterlimit:4;stroke-dasharray:none;stroke-opacity:1"
         d="m 76.744996,78.126129 c -0.258855,0.87823 -0.781485,1.568908 -1.395265,1.738907 l -8.454681,2.34162 c -0.14327,0.0397 -0.283207,0.04851 -0.416194,0.02959 -0.195895,0.09112 -0.395579,0.135491 -0.592361,0.120556 l -8.367588,-0.634615 c -0.883383,-0.067 -1.350305,-1.26932 -1.048035,-2.694643 l 0.227342,-1.078692 c 0.302262,-1.425325 1.258073,-2.518244 2.141457,-2.451229 l 7.694758,0.583751 c 0.08343,-0.04452 0.16834,-0.07961 0.25607,-0.103875 l 8.456637,-2.343058 c 0.892761,-0.247259 1.630272,0.703281 1.653892,2.129763 l 0.01831,1.079835 c 0.0074,0.445778 -0.05672,0.882915 -0.174444,1.282097 z" /><rect
         style="fill:#ffffff;stroke:#191414;stroke-width:1.18997;stroke-miterlimit:4;stroke-dasharray:none;stroke-opacity:1"
         id="rect2963"
         width="4.3615112"
         height="38.680523"
         x="70.786636"
         y="65.833733"
         ry="1.2186118" /><path
         id="path13"
         style="fill:#002766;fill-opacity:1;stroke-width:1.20297"
         d="m 42.848107,83.763877 1.728457,-3.713029 -0.46797,-4.3605 -4.341337,8.761199 z"
         sodipodi:nodetypes="ccccc" /><path
         id="rect9738"
         style="fill:#313131;fill-opacity:1;stroke:#000000;stroke-width:1.15824;stroke-miterlimit:4;stroke-dasharray:none;stroke-opacity:1"
         d="m 44.295905,75.478914 -1.065377,25.247216 4.078913,2.6418 4.295661,-3.885128 3.28445,3.885128 4.91363,-3.662495 -0.947,-24.226521 z"
         sodipodi:nodetypes="cccccccc" /><path
         id="path2"
         style="fill:#1f1f1f;fill-opacity:1;stroke:none;stroke-width:1.09507;stroke-dasharray:none;stroke-opacity:1"
         d="m 45.280197,81.795848 5.075831,-0.701616 4.045498,15.970473 -8.519913,1.11578 z"
         sodipodi:nodetypes="ccccc" /><path
         id="path34"
         style="fill:#1f1f1f;fill-opacity:1;stroke:none;stroke-width:0.890593;stroke-dasharray:none;stroke-opacity:1"
         d="m 43.86783,100.43074 1.775887,1.25056 2.967072,-24.517947 -3.901026,-0.240548 z"
         sodipodi:nodetypes="ccccc" /><g
         id="g15"
         transform="matrix(2.1592573,0.29688094,-0.2871787,2.136318,32.076235,44.76359)"><path
           id="rect2"
           style="fill:#800000;fill-opacity:1;stroke:#330000;stroke-width:0.428;stroke-dasharray:none;stroke-opacity:1"
           d="m 9.4570037,14.797702 h 1.7663953 l 0.652207,7.255805 -2.9621083,-0.02717 z"
           sodipodi:nodetypes="ccccc" /><path
           id="path35"
           style="fill:#ff0000;fill-opacity:1;stroke:none;stroke-width:0.428;stroke-dasharray:none;stroke-opacity:1"
           d="m 9.7068097,14.095592 0.7095243,-0.01922 0.0373,6.083639 -1.2903304,1.164212 z"
           sodipodi:nodetypes="ccccc" /></g><path
         id="ellipse1"
         style="fill:#ff0000;stroke:#4e0600;stroke-width:0.80871"
         d="m 58.895934,77.900633 c -0.566365,2.40793 -3.044305,4.149765 -7.33848,4.149765 -4.29417,0 -6.626701,-2.11418 -7.241409,-4.516507 -1.067747,-4.172844 2.94724,-4.316464 7.241409,-4.316464 4.294175,0 8.406229,0.143615 7.33848,4.683206 z"
         sodipodi:nodetypes="sssss" /><ellipse
         style="fill:#002766;fill-opacity:1;stroke:#090042;stroke-width:0.678824;stroke-miterlimit:4;stroke-dasharray:none;stroke-opacity:1"
         id="path11105"
         cx="51.706902"
         cy="75.030342"
         rx="5.3766046"
         ry="4.4999762" /><ellipse
         style="fill:#0053ce;fill-opacity:1;stroke:none;stroke-width:0.539219;stroke-miterlimit:4;stroke-dasharray:none;stroke-opacity:1"
         id="ellipse2"
         cx="52.273045"
         cy="74.758476"
         rx="4.4794593"
         ry="3.4081023" /><ellipse
         style="fill:#002766;fill-opacity:1;stroke:#090042;stroke-width:1.44184;stroke-miterlimit:4;stroke-dasharray:none;stroke-opacity:1"
         id="path9279"
         cx="52.011139"
         cy="62.659145"
         rx="12.613936"
         ry="12.330338" /><ellipse
         style="fill:#0053ce;fill-opacity:1;stroke:none;stroke-width:0.597395;stroke-miterlimit:4;stroke-dasharray:none;stroke-opacity:1"
         id="ellipse9379"
         cx="53.338821"
         cy="61.407196"
         rx="9.9848595"
         ry="9.986701" /><path
         id="path9421"
         style="fill:#ffffff;fill-opacity:1;stroke:#002865;stroke-width:1.0274;stroke-miterlimit:4;stroke-dasharray:none;stroke-opacity:1"
         d="m 46.099992,60.17495 c -0.411371,0.838318 -0.630855,1.82285 -0.630866,2.829853 1.83e-4,2.820746 1.68624,5.107289 3.76605,5.107323 2.07981,-3.3e-5 3.765868,-2.286577 3.766051,-5.107323 -1.1e-5,-1.007003 -0.219495,-1.991535 -0.630867,-2.829853 -1.977405,-1.765906 -4.081009,-1.554698 -6.270368,0 z"
         sodipodi:nodetypes="cccccc" /><path
         id="path3"
         style="fill:#ffffff;fill-opacity:1;stroke:#002865;stroke-width:1.0274;stroke-miterlimit:4;stroke-dasharray:none;stroke-opacity:1"
         d="m 55.106471,60.009302 c -0.411372,0.838318 -0.630856,1.82285 -0.630867,2.829853 1.83e-4,2.820746 1.68624,5.107289 3.76605,5.107323 2.07981,-3.4e-5 3.765867,-2.286577 3.76605,-5.107323 -1.1e-5,-1.007003 -0.219495,-1.991535 -0.630867,-2.829853 -2.061071,-1.162025 -4.139035,-1.648345 -6.270366,0 z"
         sodipodi:nodetypes="cccccc" /><path
         id="path7"
         style="fill:#ffffff;fill-opacity:1;stroke:#191414;stroke-width:0.962376;stroke-dasharray:none"
         d="m 80.224042,55.647503 -2.627429,-3.580091 -2.890166,11.501997 2.364684,2.361337 z"
         sodipodi:nodetypes="ccccc" /><g
         id="g6"
         transform="matrix(-3.9027853,0,0,-3.7334066,186.73217,94.687415)"
         style="stroke-width:0.283917;stroke-dasharray:none"><rect
           style="fill:#ffffff;stroke:#191414;stroke-width:0.283917;stroke-miterlimit:4;stroke-dasharray:none;stroke-opacity:1"
           id="rect5"
           width="2.418293"
           height="0.53468895"
           x="27.855507"
           y="7.3858442"
           ry="0.25027269" /><rect
           style="fill:#ffffff;stroke:#191414;stroke-width:0.283917;stroke-miterlimit:4;stroke-dasharray:none;stroke-opacity:1"
           id="rect6"
           width="2.895308"
           height="0.70425063"
           x="27.631411"
           y="7.8246946"
           ry="0.3296397" /></g><g
         id="g22"
         transform="matrix(3.8989208,0.16609765,-0.1736332,3.7297097,-39.044196,60.323098)"><path
           id="path17"
           style="fill:#861414;fill-opacity:1;stroke:#191414;stroke-width:0.192"
           d="m 29.179479,1.3621619 c 0,0.1894821 -0.12582,0.6505412 -0.328434,0.6505415 -0.202615,2e-7 -0.405299,-0.461059 -0.405299,-0.6505415 0,-0.1894825 0.164252,-0.3430884 0.366867,-0.3430882 0.202615,3e-7 0.366866,0.153606 0.366866,0.3430882 z"
           sodipodi:nodetypes="sssss" /><path
           id="path18"
           style="fill:#4d4d4d;stroke:#191414;stroke-width:0.192"
           d="m 28.357427,0.89338797 c 0,0.18948213 0.220065,0.48720663 0.01745,0.48720693 -0.202615,2e-7 -0.751184,-0.2977244 -0.751184,-0.48720693 0,-0.18948251 0.164252,-0.34308838 0.366867,-0.34308815 0.202615,2.9e-7 0.366866,0.153606 0.366867,0.34308815 z"
           sodipodi:nodetypes="sssss" /><path
           id="path19"
           style="fill:#4d4d4d;stroke:#191414;stroke-width:0.192"
           d="m 29.960769,0.80506825 c 0,0.18948215 -0.471705,0.48720665 -0.674319,0.48720695 -0.202615,2e-7 -0.05941,-0.29772444 -0.05941,-0.48720695 0,-0.18948251 0.164252,-0.34308838 0.366867,-0.34308815 0.202615,2.9e-7 0.366866,0.153606 0.366866,0.34308815 z"
           sodipodi:nodetypes="sssss" /><path
           id="path20"
           style="fill:#df2e2e;fill-opacity:1;stroke:none;stroke-width:0.0965249"
           d="m 29.044968,1.3211899 c 0,0.097872 -0.06157,0.3360203 -0.160706,0.3360204 -0.09914,1e-7 -0.198318,-0.2381481 -0.198318,-0.3360204 0,-0.097872 0.08037,-0.1772134 0.179512,-0.1772133 0.09915,2e-7 0.179512,0.079341 0.179512,0.1772133 z"
           sodipodi:nodetypes="sssss" /><path
           id="path21"
           style="fill:#7f7f7f;fill-opacity:1;stroke:none;stroke-width:0.0784491"
           d="m 28.149614,0.69865723 c 0.05242,0.0598357 0.142334,0.23840606 0.08174,0.29149337 -0.0606,0.053093 -0.248779,-0.0393931 -0.301199,-0.099229 -0.05242,-0.0598357 -0.04579,-0.15137913 0.01482,-0.2044742 0.06061,-0.053099 0.152226,-0.0476261 0.204647,0.0122098 z"
           sodipodi:nodetypes="sssss" /><path
           id="path22"
           style="fill:#7f7f7f;fill-opacity:1;stroke:none;stroke-width:0.0784491"
           d="m 29.428341,0.62179387 c -0.05242,0.0598357 -0.142334,0.23840606 -0.08174,0.29149337 0.0606,0.053093 0.248779,-0.0393931 0.301199,-0.099229 0.05242,-0.0598357 0.04579,-0.15137913 -0.01482,-0.2044742 -0.06061,-0.053099 -0.152226,-0.0476261 -0.204647,0.0122098 z"
           sodipodi:nodetypes="sssss" /></g><rect
         style="fill:#ffffff;stroke:#191414;stroke-width:0.912524;stroke-miterlimit:4;stroke-dasharray:none;stroke-opacity:1"
         id="rect4"
         width="9.2644892"
         height="2.0207922"
         x="68.340324"
         y="97.970222"
         ry="0.94587547" /><rect
         style="fill:#ffffff;stroke:#191414;stroke-width:1.03607;stroke-miterlimit:4;stroke-dasharray:none;stroke-opacity:1"
         id="rect3"
         width="11.091935"
         height="2.6616304"
         x="67.481812"
         y="99.628807"
         ry="1.2458335" /><g
         id="g28"
         transform="matrix(3.8272102,-0.16814292,-0.17043967,-3.775637,-37.160261,104.55466)"><path
           id="path23"
           style="fill:#861414;fill-opacity:1;stroke:#191414;stroke-width:0.192"
           d="m 29.179479,1.3621619 c 0,0.1894821 -0.12582,0.6505412 -0.328434,0.6505415 -0.202615,2e-7 -0.405299,-0.461059 -0.405299,-0.6505415 0,-0.1894825 0.164252,-0.3430884 0.366867,-0.3430882 0.202615,3e-7 0.366866,0.153606 0.366866,0.3430882 z"
           sodipodi:nodetypes="sssss" /><path
           id="path24"
           style="fill:#4d4d4d;stroke:#191414;stroke-width:0.192"
           d="m 28.357427,0.89338797 c 0,0.18948213 0.220065,0.48720663 0.01745,0.48720693 -0.202615,2e-7 -0.751184,-0.2977244 -0.751184,-0.48720693 0,-0.18948251 0.164252,-0.34308838 0.366867,-0.34308815 0.202615,2.9e-7 0.366866,0.153606 0.366867,0.34308815 z"
           sodipodi:nodetypes="sssss" /><path
           id="path25"
           style="fill:#4d4d4d;stroke:#191414;stroke-width:0.192"
           d="m 29.960769,0.80506825 c 0,0.18948215 -0.471705,0.48720665 -0.674319,0.48720695 -0.202615,2e-7 -0.05941,-0.29772444 -0.05941,-0.48720695 0,-0.18948251 0.164252,-0.34308838 0.366867,-0.34308815 0.202615,2.9e-7 0.366866,0.153606 0.366866,0.34308815 z"
           sodipodi:nodetypes="sssss" /><path
           id="path26"
           style="fill:#df2e2e;fill-opacity:1;stroke:none;stroke-width:0.0965249"
           d="m 29.044968,1.3211899 c 0,0.097872 -0.06157,0.3360203 -0.160706,0.3360204 -0.09914,1e-7 -0.198318,-0.2381481 -0.198318,-0.3360204 0,-0.097872 0.08037,-0.1772134 0.179512,-0.1772133 0.09915,2e-7 0.179512,0.079341 0.179512,0.1772133 z"
           sodipodi:nodetypes="sssss" /><path
           id="path27"
           style="fill:#7f7f7f;fill-opacity:1;stroke:none;stroke-width:0.0784491"
           d="m 28.149614,0.69865723 c 0.05242,0.0598357 0.142334,0.23840606 0.08174,0.29149337 -0.0606,0.053093 -0.248779,-0.0393931 -0.301199,-0.099229 -0.05242,-0.0598357 -0.04579,-0.15137913 0.01482,-0.2044742 0.06061,-0.053099 0.152226,-0.0476261 0.204647,0.0122098 z"
           sodipodi:nodetypes="sssss" /><path
           id="path28"
           style="fill:#7f7f7f;fill-opacity:1;stroke:none;stroke-width:0.0784491"
           d="m 29.428341,0.62179387 c -0.05242,0.0598357 -0.142334,0.23840606 -0.08174,0.29149337 0.0606,0.053093 0.248779,-0.0393931 0.301199,-0.099229 0.05242,-0.0598357 0.04579,-0.15137913 -0.01482,-0.2044742 -0.06061,-0.053099 -0.152226,-0.0476261 -0.204647,0.0122098 z"
           sodipodi:nodetypes="sssss" /></g><path
         d="m 66.108982,76.830407 c 1.655316,-0.08043 1.217715,-0.157947 1.24285,-0.169584 l 1.512131,-0.336081 c 0.402289,-0.186028 1.184298,-0.54252 1.440989,-0.352371 l 0.596774,0.633857 c 0.256689,0.190144 0.624728,0.786899 0.270148,1.028677 l -1.109702,0.200833 c -0.835966,0.434679 -1.400759,0.430285 -2.791342,0.694187 -0.257879,-0.165059 -7.873262,-2.000636 -7.550117,-2.279163 z"
         style="fill:#0053ce;fill-opacity:1;stroke:none;stroke-width:0.585615"
         id="path1"
         sodipodi:nodetypes="cccccccccc" /><path
         d="m 76.461589,73.806356 c -0.06058,-0.0021 -0.116891,0.0069 -0.168993,0.02784 l -3.17574,1.280729 c -0.833389,0.335986 -2.443954,1.001049 -2.402926,1.934458 l 0.11942,2.704008 c 0.04103,0.933407 0.547347,2.833459 1.426211,2.718484 l 4.568151,-0.596929 c 0.878867,-0.114975 2.289619,-1.773845 2.297031,-2.709577 l 0.0157,-1.9623 c 0.007,-0.877249 -1.770135,-3.365931 -2.67893,-3.396714 z"
         style="fill:#002766;fill-opacity:1;stroke:#090042;stroke-width:1.47824;stroke-opacity:1"
         id="path32" /><path
         d="m 73.879689,75.931704 c 0.02158,-0.01832 0.04478,-0.03371 0.06991,-0.04534 l 1.533076,-0.70879 c 0.40229,-0.186028 1.184298,-0.54252 1.440989,-0.352371 l 0.596774,0.633857 c 0.256689,0.190144 0.624728,0.786899 0.270148,1.028677 l -1.696171,1.091184 c -0.354567,0.241784 -1.35284,0.348979 -1.627902,0.172925 l -0.576971,-0.369097 c -0.257879,-0.165059 -0.332954,-1.172397 -0.0098,-1.450923 z"
         style="fill:#0053ce;fill-opacity:1;stroke:none;stroke-width:0.585615"
         id="path33"
         sodipodi:nodetypes="ccccccccccc" /><path
         id="rect8"
         style="fill:#002766;fill-opacity:1;stroke-width:1.20297"
         d="m 43.073758,83.274282 -0.797293,2.055486 -0.917843,7.645168 -1.602019,-8.556244 z"
         sodipodi:nodetypes="ccccc" /><path
         id="path14"
         style="fill:#818181;fill-opacity:1;stroke:none;stroke-width:0.711853;stroke-miterlimit:4;stroke-dasharray:none;stroke-opacity:1"
         d="m 46.415999,60.652659 a 3.2983032,4.4961696 0 0 0 -0.552506,2.491008 3.2983032,4.4961696 0 0 0 3.298263,4.495774 3.2983032,4.4961696 0 0 0 2.680642,-1.877324 4.2544623,4.1242237 0 0 1 -1.265834,0.187242 4.2544623,4.1242237 0 0 1 -4.254294,-4.12423 4.2544623,4.1242237 0 0 1 0.175618,-1.17247 z" /><path
         id="path5"
         style="fill:#818181;fill-opacity:1;stroke:none;stroke-width:0.711853;stroke-miterlimit:4;stroke-dasharray:none;stroke-opacity:1"
         d="m 55.420821,60.476963 a 3.2983032,4.4961696 0 0 0 -0.552506,2.491008 3.2983032,4.4961696 0 0 0 3.298262,4.495774 3.2983032,4.4961696 0 0 0 2.680641,-1.877324 4.2544623,4.1242237 0 0 1 -1.265834,0.187243 4.2544623,4.1242237 0 0 1 -4.254292,-4.12423 4.2544623,4.1242237 0 0 1 0.175621,-1.17247 z" /><g
         id="g7"
         transform="matrix(2.1800035,0,0,2.1550966,26.606062,48.456472)"><ellipse
           style="fill:#002766;fill-opacity:1;stroke:none;stroke-width:1.05482"
           id="path4"
           cx="10.279738"
           cy="6.8676744"
           rx="1.1109732"
           ry="1.1472735" /><path
           id="ellipse6"
           style="fill:#001c4a;fill-opacity:1;stroke:none;stroke-width:1.05482"
           d="M 9.6216349,5.9433065 A 1.1109732,1.1472735 0 0 0 9.1689494,6.8677979 1.1109732,1.1472735 0 0 0 10.279993,8.0150146 1.1109732,1.1472735 0 0 0 11.21637,7.4848145 1.1109732,1.1472735 0 0 1 10.558529,7.7075399 1.1109732,1.1472735 0 0 1 9.4474854,6.5603231 1.1109732,1.1472735 0 0 1 9.6216349,5.9433065 Z" /><circle
           style="fill:#ffffff;fill-opacity:1;stroke:none;stroke-width:0.418942"
           id="ellipse5"
           cx="9.7533178"
           cy="6.2299371"
           r="0.44839242" /></g><g
         id="g8"
         transform="matrix(2.1800035,0,0,2.1550966,35.479958,48.361288)"><ellipse
           style="fill:#002766;fill-opacity:1;stroke:none;stroke-width:1.05482"
           id="ellipse7"
           cx="10.279738"
           cy="6.8676744"
           rx="1.1109732"
           ry="1.1472735" /><path
           id="path8"
           style="fill:#001c4a;fill-opacity:1;stroke:none;stroke-width:1.05482"
           d="M 9.6216349,5.9433065 A 1.1109732,1.1472735 0 0 0 9.1689494,6.8677979 1.1109732,1.1472735 0 0 0 10.279993,8.0150146 1.1109732,1.1472735 0 0 0 11.21637,7.4848145 1.1109732,1.1472735 0 0 1 10.558529,7.7075399 1.1109732,1.1472735 0 0 1 9.4474854,6.5603231 1.1109732,1.1472735 0 0 1 9.6216349,5.9433065 Z" /><circle
           style="fill:#ffffff;fill-opacity:1;stroke:none;stroke-width:0.418942"
           id="circle8"
           cx="9.7533178"
           cy="6.2299371"
           r="0.44839242" /></g></g></g></svg>
