<?xml version="1.0" encoding="UTF-8" standalone="no"?>
<!-- Created with Inkscape (http://www.inkscape.org/) -->

<svg
   width="400"
   height="400"
   viewBox="0 0 105.83334 105.83334"
   version="1.1"
   id="svg1"
   inkscape:version="1.4.2 (ebf0e940d0, 2025-05-08)"
   sodipodi:docname="TelaInicial3.svg"
   xml:space="preserve"
   xmlns:inkscape="http://www.inkscape.org/namespaces/inkscape"
   xmlns:sodipodi="http://sodipodi.sourceforge.net/DTD/sodipodi-0.dtd"
   xmlns="http://www.w3.org/2000/svg"
   xmlns:svg="http://www.w3.org/2000/svg"><sodipodi:namedview
     id="namedview1"
     pagecolor="#505050"
     bordercolor="#eeeeee"
     borderopacity="1"
     inkscape:showpageshadow="0"
     inkscape:pageopacity="0"
     inkscape:pagecheckerboard="0"
     inkscape:deskcolor="#505050"
     inkscape:document-units="px"
     inkscape:zoom="0.88194444"
     inkscape:cx="324.8504"
     inkscape:cy="230.74016"
     inkscape:window-width="1366"
     inkscape:window-height="697"
     inkscape:window-x="0"
     inkscape:window-y="0"
     inkscape:window-maximized="1"
     inkscape:current-layer="layer1" /><defs
     id="defs1"><linearGradient
       id="linearGradient13895"
       inkscape:swatch="solid"><stop
         style="stop-color:#000000;stop-opacity:1;"
         offset="0"
         id="stop13893" /></linearGradient><filter
       style="color-interpolation-filters:sRGB;"
       inkscape:label="Clean Edges"
       id="filter14269"
       x="-0.31154084"
       y="-0.29580634"
       width="1.6230817"
       height="1.5916127"><feGaussianBlur
         stdDeviation="0.204612"
         result="blur"
         id="feGaussianBlur14263" /><feComposite
         in="SourceGraphic"
         in2="blur"
         operator="in"
         result="composite1"
         id="feComposite14265" /><feComposite
         in="composite1"
         in2="composite1"
         operator="in"
         result="composite2"
         id="feComposite14267" /></filter></defs><g
     inkscape:label="Camada 1"
     inkscape:groupmode="layer"
     id="layer1"><g
       inkscape:label="Camada 1"
       id="layer1-2"
       transform="matrix(2.4730889,0,0,2.4909538,38.207832,12.872812)"><path
         id="path3-9"
         style="fill:#5728ff;fill-opacity:1;stroke:#3202da;stroke-width:0.825172;stroke-dasharray:none;stroke-opacity:1"
         d="m 17.328831,13.740686 c -0.149127,0.02604 -0.298128,0.08369 -0.438453,0.175224 l -0.269511,0.176135 c -0.561297,0.366144 -0.767296,1.129625 -0.461804,1.711995 l 2.612835,4.980803 6.3e-5,5.06e-4 c 0.03244,0.258254 0.147579,0.502999 0.345228,0.691166 l 0.224286,0.21389 c 0.467092,0.444701 1.212424,0.397924 1.671,-0.104772 l 4.220093,-4.625927 c 0.458578,-0.5027 0.451315,-1.265693 -0.01578,-1.710393 L 24.992569,15.035931 C 24.525477,14.59123 23.780147,14.637997 23.32157,15.140702 l -2.811768,3.082439 -2.054538,-3.916992 C 18.226146,13.869371 17.77621,13.662478 17.328832,13.74069 Z" /><path
         id="rect3-1"
         style="fill:#5728ff;fill-opacity:1;stroke:#3202da;stroke-width:0.858109;stroke-opacity:1"
         d="m 9.966452,13.479713 c 1.775452,1.807541 4.489077,1.562421 6.828351,0.212618 0.943918,-0.544659 1.634694,0.431956 1.620871,1.148104 -0.06833,3.541274 0.04952,7.20105 -0.43043,10.619316 -0.14788,1.053215 -2.915082,-1.489953 -3.175847,-1.209744 -0.96491,1.036864 -2.102818,1.07853 -3.44511,-0.05559 -0.04714,-0.03984 -3.1016255,2.759394 -3.282403,1.223199 -0.4210446,-3.577911 0.053496,-7.188153 0.080266,-10.782232 0.00534,-0.71625 1.0499286,-1.923688 1.8043017,-1.15568 z"
         sodipodi:nodetypes="sssssssss" /><ellipse
         style="fill:#5728ff;fill-opacity:1;stroke:#3202da;stroke-width:0.803626;stroke-dasharray:none;stroke-opacity:1"
         id="path1-2"
         cx="13.12567"
         cy="6.7863402"
         rx="6.3740468"
         ry="6.2395792" /><path
         id="ellipse3-7"
         style="fill:#ffffff;stroke:#3202da;stroke-width:0.56063;stroke-opacity:1"
         transform="rotate(8.4284515)"
         d="m 13.776252,4.5124869 c 0,1.593731 -1.135471,2.679625 -2.358187,2.679625 -1.222716,-2e-7 -2.0696587,-1.0858941 -2.0696587,-2.679625 0,-1.5937308 0.9912067,-2.885705 2.2139227,-2.8857052 1.222716,0 2.213923,1.2919742 2.213923,2.8857052 z"
         sodipodi:nodetypes="sssss" /><path
         id="ellipse1-0"
         style="fill:#ffffff;stroke:#3202da;stroke-width:0.56063;stroke-opacity:1"
         transform="matrix(-0.98919967,0.14657426,0.14657426,0.98919967,0,0)"
         d="m -12.291213,8.3750229 c 0,1.5937309 -1.19661,2.6507741 -2.419326,2.6507741 -1.222716,0 -2.00852,-1.0570432 -2.00852,-2.6507741 0,-1.593731 0.991207,-2.8857052 2.213923,-2.8857052 1.222716,0 2.213923,1.2919742 2.213923,2.8857052 z"
         sodipodi:nodetypes="sssss" /><path
         id="path2-9"
         style="fill:#ffffff;stroke:#3202da;stroke-width:0.376502;stroke-dasharray:none;stroke-opacity:1"
         d="m 15.406039,10.960514 c -0.230481,0.303414 -1.495734,0.478116 -2.689098,0.443623 -1.193364,-0.03449 -1.862935,-0.265116 -1.632455,-0.56853 0.230482,-0.303413 1.384737,-0.521417 2.5781,-0.486926 1.193365,0.03449 1.973934,0.308419 1.743453,0.611833 z"
         sodipodi:nodetypes="sssss" /><path
         sodipodi:type="star"
         style="fill:#ff2828;fill-opacity:1;stroke:#570000;stroke-width:0.497681;stroke-opacity:1"
         id="path5-3"
         inkscape:flatsided="true"
         sodipodi:sides="3"
         sodipodi:cx="8.9624996"
         sodipodi:cy="15"
         sodipodi:r1="3.0837908"
         sodipodi:r2="1.5418954"
         sodipodi:arg1="0.58631626"
         sodipodi:arg2="1.6335138"
         inkscape:rounded="0"
         inkscape:randomized="0"
         d="M 11.53125,16.70625 6.2004688,16.371478 9.1557804,11.922272 Z"
         inkscape:transform-center-x="-0.58161334"
         inkscape:transform-center-y="-0.03194566"
         transform="matrix(0.03092799,0.88546009,-0.78587005,0.03484738,22.606744,7.5209618)" /><path
         sodipodi:type="star"
         style="fill:#ff2828;fill-opacity:1;stroke:#570000;stroke-width:0.497681;stroke-opacity:1"
         id="path6-6"
         inkscape:flatsided="true"
         sodipodi:sides="3"
         sodipodi:cx="8.9624996"
         sodipodi:cy="15"
         sodipodi:r1="3.0837908"
         sodipodi:r2="1.5418954"
         sodipodi:arg1="0.58631626"
         sodipodi:arg2="1.6335138"
         inkscape:rounded="0"
         inkscape:randomized="0"
         d="M 11.53125,16.70625 6.2004688,16.371478 9.1557804,11.922272 Z"
         inkscape:transform-center-x="0.45292099"
         inkscape:transform-center-y="-0.15866984"
         transform="matrix(0.0619263,0.88383327,0.78520057,-0.04760398,3.2253631,8.6223126)" /><ellipse
         style="fill:#ff2828;fill-opacity:1;stroke:#570000;stroke-width:0.529539;stroke-opacity:1"
         id="path4-0"
         cx="13.228126"
         cy="16.293749"
         rx="1.2309457"
         ry="1.2028208" /><ellipse
         style="fill:#3202da;fill-opacity:1;stroke:none;stroke-width:0.584553;stroke-opacity:1"
         id="path7-6"
         cx="10.154391"
         cy="5.9773664"
         rx="1.1531249"
         ry="1.603125" /><ellipse
         style="fill:#3202da;fill-opacity:1;stroke:none;stroke-width:0.584553;stroke-opacity:1"
         id="ellipse7-2"
         cx="14.886215"
         cy="5.9042511"
         rx="1.1531249"
         ry="1.603125" /><path
         id="path8-6"
         style="fill:#ffffff;stroke:none;stroke-width:0.13307;stroke-opacity:1"
         d="m 11.17785,5.0104688 c -0.05905,0.3513565 -0.383221,0.5536622 -0.688971,0.51372 -0.305751,-0.039942 -0.477301,-0.3070071 -0.41825,-0.6583636 0.05905,-0.3513565 0.354782,-0.6038076 0.660533,-0.5638654 0.30575,0.039942 0.505739,0.3571525 0.446688,0.708509 z"
         sodipodi:nodetypes="sssss" /><path
         id="path9-1"
         style="fill:#ffffff;stroke:none;stroke-width:0.13307;stroke-opacity:1"
         d="m 16.09035,4.9729688 c -0.05905,0.3513565 -0.383221,0.5536622 -0.688971,0.51372 -0.305751,-0.039942 -0.477301,-0.3070071 -0.41825,-0.6583636 0.05905,-0.3513565 0.354782,-0.6038076 0.660533,-0.5638654 0.30575,0.039942 0.505739,0.3571525 0.446688,0.708509 z"
         sodipodi:nodetypes="sssss" /><path
         style="fill:#3202da;fill-opacity:1;stroke:none;stroke-width:0.66326;stroke-opacity:1"
         d="m 8.7439339,19.275095 -0.0375,5.461485 2.0812501,-2.064708 1.33125,0.799242 0.825,0.865845 1.9875,-1.598483 -2.0625,0.499526 -0.54375,-0.699337 -1.44375,-0.899147 -1.6500001,1.598484 z"
         id="path10-8" /><path
         id="rect1-7"
         style="fill:#5728ff;fill-opacity:1;stroke:#3202da;stroke-width:0.730817;stroke-dasharray:none;stroke-opacity:1"
         d="M 8.5614307,12.809304 C 8.4372432,12.747785 8.2973116,12.708221 8.1468257,12.69679 L 7.8576346,12.67511 C 7.2556994,12.62937 6.7190537,13.048771 6.6543782,13.615576 l -0.5530861,4.847705 -2.072e-4,3.83e-4 c -0.1054379,0.196364 -0.1424853,0.427497 -0.089673,0.663443 l 0.059755,0.267992 c 0.1248148,0.557604 0.7035819,0.92296 1.2975251,0.819179 l 5.465705,-0.954898 c 0.593944,-0.103781 0.971459,-0.636645 0.846645,-1.194248 l -0.05996,-0.26761 C 13.496267,17.239874 12.9175,16.874517 12.323558,16.978295 L 8.6817275,17.614717 9.1168642,13.802524 C 9.16537,13.37742 8.9339903,12.993849 8.5614307,12.809304 Z" /></g><g
       inkscape:label="Camada 1"
       id="layer1-5"
       transform="matrix(2.6663971,0,0,2.7360833,1.4366152,25.367374)"><path
         id="path3"
         style="fill:#5728ff;fill-opacity:1;stroke:#3202da;stroke-width:0.780572;stroke-dasharray:none;stroke-opacity:1"
         d="m 17.86176,13.612394 c -0.150249,-0.02119 -0.310695,-0.01573 -0.473953,0.02077 l -0.313666,0.07039 c -0.653035,0.146028 -1.098033,0.729395 -0.997731,1.308147 l 0.857906,4.949881 -1.05e-4,4.44e-4 c -0.05346,0.22686 -0.0239,0.466253 0.102563,0.681861 l 0.143379,0.244971 c 0.29884,0.509549 1.022566,0.685676 1.622529,0.394953 l 5.521161,-2.67525 c 0.599967,-0.290725 0.842094,-0.935346 0.543255,-1.444893 L 24.723612,16.919142 C 24.424772,16.409594 23.70105,16.23346 23.101083,16.524189 L 19.42235,18.306886 18.747907,14.41428 c -0.07523,-0.434063 -0.435375,-0.738391 -0.886149,-0.801891 z" /><path
         id="rect1"
         style="fill:#5728ff;fill-opacity:1;stroke:#3202da;stroke-width:0.754619;stroke-dasharray:none;stroke-opacity:1"
         d="m 1.8366114,16.437758 c -0.1106936,0.09661 -0.2062541,0.215611 -0.2785171,0.354184 L 1.419457,17.058318 c -0.2890585,0.554283 -0.095716,1.205185 0.4336349,1.459488 l 4.527399,2.174915 2.907e-4,3.26e-4 c 0.1496991,0.166708 0.3612275,0.280514 0.6139346,0.310887 l 0.2869385,0.03471 c 0.5972194,0.07177 1.1901869,-0.351692 1.329456,-0.949335 L 9.8928436,14.589617 C 10.032112,13.991973 9.6629681,13.453065 9.06575,13.381287 L 8.7791043,13.346895 C 8.1818857,13.275122 7.5889167,13.698587 7.4496473,14.29623 L 6.5957841,17.960768 3.0355553,16.250251 C 2.6385431,16.059525 2.1686741,16.147916 1.8366114,16.437758 Z" /><path
         id="rect3"
         style="fill:#5728ff;fill-opacity:1;stroke:#3202da;stroke-width:0.845567;stroke-opacity:1"
         d="m 9.9626104,13.863744 c 1.7775726,1.752996 4.4944376,1.515273 6.8365056,0.206202 0.945045,-0.528223 1.636646,0.418921 1.622807,1.113459 -0.06841,3.434411 -0.194462,5.60175 -0.674986,8.916866 -0.148056,1.021433 -2.738355,-0.109519 -2.935598,0.20876 -0.955614,1.542012 -2.06888,2.917273 -3.449224,-0.05391 -0.02536,-0.05458 -3.0490126,1.403232 -3.230006,-0.08661 -0.4215474,-3.469943 -0.00275,-5.698348 0.024045,-9.183971 0.00535,-0.694636 1.0511824,-1.865638 1.8064564,-1.120806 z"
         sodipodi:nodetypes="ssssssssss" /><ellipse
         style="fill:#5728ff;fill-opacity:1;stroke:#3202da;stroke-width:0.803626;stroke-dasharray:none;stroke-opacity:1"
         id="path1"
         cx="13.12567"
         cy="6.7863402"
         rx="6.3740468"
         ry="6.2395792" /><path
         id="ellipse3"
         style="fill:#ffffff;stroke:#3202da;stroke-width:0.520334;stroke-opacity:1"
         d="M 12.98583,5.9950836 C 12.750123,7.3409735 11.456181,8.1159164 10.235758,7.9629156 9.0153348,7.8099146 8.3305805,6.7869084 8.5662881,5.4410186 8.8019956,4.0951288 9.9824223,3.1281012 11.202845,3.2811018 c 1.220424,0.1530009 2.018693,1.3680919 1.782985,2.7139818 z"
         sodipodi:nodetypes="sssss" /><path
         id="ellipse1"
         style="fill:#ffffff;stroke:#3202da;stroke-width:0.5134;stroke-opacity:1"
         d="m 13.362839,5.9152801 c 0.236069,1.3082515 1.588839,2.0304035 2.811133,1.8816814 C 17.396266,7.6482394 18.025226,6.6849612 17.789157,5.3767097 17.553088,4.0684581 16.370851,3.1284738 15.148557,3.2771959 13.926263,3.425918 13.12677,4.6070285 13.362839,5.9152801 Z"
         sodipodi:nodetypes="sssss" /><path
         id="path2"
         style="fill:#ffffff;stroke:#3202da;stroke-width:0.512196;stroke-opacity:1"
         d="m 16.700987,10.25177 c 0.03684,0.929546 -1.327415,0.06427 -3.129862,0.08417 -1.856071,0.02049 -3.496217,0.598198 -3.528563,-0.331516 -0.04001,-1.1499255 1.611674,-0.4292552 3.467831,-0.4389779 1.856161,-0.00972 3.132957,-0.7680299 3.190594,0.6863259 z"
         sodipodi:nodetypes="sssss" /><ellipse
         style="fill:#3202da;fill-opacity:1;stroke:none;stroke-width:0.584553;stroke-opacity:1"
         id="path7"
         cx="10.644946"
         cy="5.9641085"
         rx="1.1531249"
         ry="1.603125" /><ellipse
         style="fill:#3202da;fill-opacity:1;stroke:none;stroke-width:0.584553;stroke-opacity:1"
         id="ellipse7"
         cx="15.602161"
         cy="5.7053776"
         rx="1.1531249"
         ry="1.603125" /><path
         id="path8"
         style="fill:#ffffff;stroke:none;stroke-width:0.13307;stroke-opacity:1"
         d="m 11.2574,4.7983368 c -0.05905,0.3513565 -0.383221,0.5536622 -0.688971,0.51372 -0.305751,-0.039942 -0.477301,-0.3070071 -0.41825,-0.6583636 0.05905,-0.3513565 0.354782,-0.6038076 0.660533,-0.5638654 0.30575,0.039942 0.505739,0.3571525 0.446688,0.708509 z"
         sodipodi:nodetypes="sssss" /><path
         id="path9"
         style="fill:#ffffff;stroke:none;stroke-width:0.13307;stroke-opacity:1"
         d="m 16.196416,4.6017377 c -0.05905,0.3513565 -0.383221,0.5536622 -0.688971,0.51372 -0.305751,-0.039942 -0.477301,-0.3070071 -0.41825,-0.6583636 0.05905,-0.3513565 0.354782,-0.6038076 0.660533,-0.5638654 0.30575,0.039942 0.505739,0.3571525 0.446688,0.708509 z"
         sodipodi:nodetypes="sssss" /><path
         style="fill:#3202da;fill-opacity:1;stroke:none;stroke-width:0.66326;stroke-opacity:1"
         d="m 8.7251839,18.487595 -0.0375,5.461485 2.0812501,-2.064708 1.33125,0.799242 0.825,0.865845 1.9875,-1.598483 -2.0625,0.499526 -0.54375,-0.699337 -1.44375,-0.899147 -1.6500001,1.598484 z"
         id="path10" /><path
         sodipodi:type="star"
         style="fill:#ff2828;fill-opacity:1;stroke:#570000;stroke-width:0.497681;stroke-opacity:1"
         id="path5"
         inkscape:flatsided="true"
         sodipodi:sides="3"
         sodipodi:cx="8.9624996"
         sodipodi:cy="15"
         sodipodi:r1="3.0837908"
         sodipodi:r2="1.5418954"
         sodipodi:arg1="0.58631626"
         sodipodi:arg2="1.6335138"
         inkscape:rounded="0"
         inkscape:randomized="0"
         d="M 11.53125,16.70625 6.2004688,16.371478 9.1557804,11.922272 Z"
         inkscape:transform-center-x="-0.28825616"
         inkscape:transform-center-y="0.30016126"
         transform="matrix(0.27143039,0.84339887,-0.74652038,0.24801895,19.967062,7.1133639)" /><path
         sodipodi:type="star"
         style="fill:#ff2828;fill-opacity:1;stroke:#570000;stroke-width:0.497681;stroke-opacity:1"
         id="path6"
         inkscape:flatsided="true"
         sodipodi:sides="3"
         sodipodi:cx="8.9624996"
         sodipodi:cy="15"
         sodipodi:r1="3.0837908"
         sodipodi:r2="1.5418954"
         sodipodi:arg1="0.58631626"
         sodipodi:arg2="1.6335138"
         inkscape:rounded="0"
         inkscape:randomized="0"
         d="M 11.53125,16.70625 6.2004688,16.371478 9.1557804,11.922272 Z"
         inkscape:transform-center-x="0.45292099"
         inkscape:transform-center-y="-0.15866984"
         transform="matrix(0.0619263,0.88383327,0.78520057,-0.04760398,3.3049126,10.558017)" /><ellipse
         style="fill:#ff2828;fill-opacity:1;stroke:#570000;stroke-width:0.529539;stroke-opacity:1"
         id="path4"
         cx="13.307675"
         cy="18.229454"
         rx="1.2309457"
         ry="1.2028208" /><path
         style="fill:#ffffff;stroke:#ffffff;stroke-width:0.303212;stroke-dasharray:none"
         d="m 11.321202,13.958192 -0.03709,2.100298"
         id="path11" /><path
         style="fill:#ffffff;stroke:#ffffff;stroke-width:0.303212;stroke-dasharray:none"
         d="m 12.965225,13.613477 -0.03709,2.100298"
         id="path12" /><path
         style="fill:#ffffff;stroke:#ffffff;stroke-width:0.303212;stroke-dasharray:none"
         d="m 14.251275,14.27639 -0.03709,2.100298"
         id="path13" /></g></g></svg>
