<?xml version="1.0" encoding="UTF-8" standalone="no"?>
<!-- Created with Inkscape (http://www.inkscape.org/) -->

<svg
   width="100"
   height="100"
   viewBox="0 0 26.458333 26.458333"
   version="1.1"
   id="svg1"
   inkscape:version="1.4.2 (ebf0e940d0, 2025-05-08)"
   sodipodi:docname="cl-agua.svg"
   xml:space="preserve"
   xmlns:inkscape="http://www.inkscape.org/namespaces/inkscape"
   xmlns:sodipodi="http://sodipodi.sourceforge.net/DTD/sodipodi-0.dtd"
   xmlns="http://www.w3.org/2000/svg"
   xmlns:svg="http://www.w3.org/2000/svg"><sodipodi:namedview
     id="namedview1"
     pagecolor="#505050"
     bordercolor="#eeeeee"
     borderopacity="1"
     inkscape:showpageshadow="0"
     inkscape:pageopacity="0"
     inkscape:pagecheckerboard="0"
     inkscape:deskcolor="#505050"
     inkscape:document-units="px"
     inkscape:zoom="2.4945156"
     inkscape:cx="5.4118723"
     inkscape:cy="50.310369"
     inkscape:window-width="1366"
     inkscape:window-height="697"
     inkscape:window-x="0"
     inkscape:window-y="0"
     inkscape:window-maximized="1"
     inkscape:current-layer="layer1" /><defs
     id="defs1"><filter
       inkscape:label="Glowing Bubble"
       inkscape:menu="Ridges"
       inkscape:menu-tooltip="Bubble effect with refraction and glow"
       x="-2.8985506"
       y="-2.8985509"
       width="6.7971012"
       height="6.7971018"
       style="color-interpolation-filters:sRGB;"
       id="filter14"><feGaussianBlur
         stdDeviation="1"
         result="result1"
         id="feGaussianBlur9" /><feGaussianBlur
         stdDeviation="10"
         result="result6"
         in="result1"
         id="feGaussianBlur10" /><feComposite
         operator="atop"
         in="result6"
         in2="result1"
         result="result8"
         id="feComposite10" /><feComposite
         operator="xor"
         result="fbSourceGraphic"
         in="result6"
         in2="result8"
         id="feComposite11" /><feColorMatrix
         result="fbSourceGraphicAlpha"
         in="fbSourceGraphic"
         values="0 0 0 -1 0 0 0 0 -1 0 0 0 0 -1 0 0 0 0 2 0 "
         id="feColorMatrix11" /><feGaussianBlur
         result="result0"
         in="fbSourceGraphicAlpha"
         stdDeviation="1"
         id="feGaussianBlur11" /><feSpecularLighting
         specularExponent="35"
         specularConstant="1.5"
         surfaceScale="-2"
         lighting-color="rgb(255,255,255)"
         result="result1"
         in="result0"
         id="feSpecularLighting11"><feDistantLight
           azimuth="230"
           elevation="60"
           id="feDistantLight11" /></feSpecularLighting><feComposite
         operator="in"
         result="result2"
         in="result1"
         in2="fbSourceGraphicAlpha"
         id="feComposite12" /><feComposite
         k3="1.2"
         k2="1.1"
         operator="arithmetic"
         result="result4"
         in="fbSourceGraphic"
         in2="result2"
         id="feComposite13" /><feGaussianBlur
         result="result80"
         in="result4"
         stdDeviation="0.5"
         id="feGaussianBlur13" /><feComposite
         operator="atop"
         in="result9"
         in2="result80"
         result="result91"
         id="feComposite14" /><feBlend
         mode="multiply"
         in2="result91"
         id="feBlend14" /></filter><linearGradient
       id="linearGradient13895"
       inkscape:swatch="solid"><stop
         style="stop-color:#000000;stop-opacity:1;"
         offset="0"
         id="stop13893" /></linearGradient><filter
       style="color-interpolation-filters:sRGB;"
       inkscape:label="Clean Edges"
       id="filter14269"
       x="-0.31154084"
       y="-0.29580634"
       width="1.6230817"
       height="1.5916127"><feGaussianBlur
         stdDeviation="0.204612"
         result="blur"
         id="feGaussianBlur14263" /><feComposite
         in="SourceGraphic"
         in2="blur"
         operator="in"
         result="composite1"
         id="feComposite14265" /><feComposite
         in="composite1"
         in2="composite1"
         operator="in"
         result="composite2"
         id="feComposite14267" /></filter><filter
       style="color-interpolation-filters:sRGB;"
       inkscape:label="Clean Edges"
       id="filter14269-3"
       x="-0.31154084"
       y="-0.29580634"
       width="1.6230817"
       height="1.5916127"><feGaussianBlur
         stdDeviation="0.204612"
         result="blur"
         id="feGaussianBlur14263-6" /><feComposite
         in="SourceGraphic"
         in2="blur"
         operator="in"
         result="composite1"
         id="feComposite14265-0" /><feComposite
         in="composite1"
         in2="composite1"
         operator="in"
         result="composite2"
         id="feComposite14267-6" /></filter></defs><g
     inkscape:label="Camada 1"
     inkscape:groupmode="layer"
     id="layer1"><ellipse
       style="fill:#000000;fill-opacity:0.423228;stroke:none;stroke-width:1.02473;stroke-linecap:round;stroke-linejoin:round;stroke-opacity:1"
       id="path1"
       cx="13.200001"
       cy="20.212502"
       rx="11.549999"
       ry="2.5125" /><path
       id="rect42278"
       style="fill:#eb8900;fill-opacity:1;stroke:#5b3500;stroke-width:1.05076;stroke-miterlimit:4;stroke-dasharray:none;stroke-opacity:1"
       d="M 4.4550146,11.427011 H 21.474078 c 0.03314,0 2.338496,-0.0109 2.312664,0.08587 l -2.252847,8.440378 c -0.02583,0.09678 -0.02668,0.183351 -0.05982,0.183351 H 4.4550146 c -0.033139,0 -0.03996,-0.08458 -0.059816,-0.183351 L 2.6913548,11.477153 c -0.019852,-0.09877 1.7305207,-0.05016 1.7636598,-0.05016 z"
       sodipodi:nodetypes="sssssssss" /><path
       id="path7"
       style="fill:#001c77;fill-opacity:1;stroke:#5b3500;stroke-width:0.821076;stroke-miterlimit:4;stroke-dasharray:none;stroke-opacity:1"
       d="M 6.1998188,12.199813 H 20.060729 c 0.027,0 1.904551,-0.0075 1.883514,0.05838 l -1.834795,5.737806 c -0.02102,0.06579 -0.02172,0.124643 -0.04871,0.124643 H 6.1998169 c -0.026994,0 -0.032552,-0.0575 -0.048714,-0.124643 l -1.38767,-5.762094 c -0.016181,-0.06714 1.4093961,-0.0341 1.4363859,-0.0341 z"
       sodipodi:nodetypes="sssssssss" /><ellipse
       style="fill:#000c32;fill-opacity:1;stroke:none;stroke-width:0.927984;stroke-dasharray:none;stroke-opacity:1"
       id="ellipse7"
       cx="13.3863"
       cy="13.179984"
       rx="3.5650194"
       ry="3.1616418" /><path
       id="rect7"
       style="fill:#000c32;stroke-width:0.852422;stroke-linecap:round;fill-opacity:1"
       d="M 5.0782879,11.983849 21.521732,12.28701 21.017067,13.83174 5.6069849,13.925021 Z"
       sodipodi:nodetypes="ccccc" /><path
       id="path6414"
       style="fill:#eb8900;fill-opacity:1;stroke:#5b3500;stroke-width:0.878003;stroke-miterlimit:4;stroke-dasharray:none;stroke-opacity:1"
       d="M 22.461402,12.208812 4.2509863,12.22284 c -0.035458,2.6e-5 -2.5021812,0.01322 -2.4746209,-0.08704 L 4.1799722,3.3925608 c 0.02756,-0.1002509 0.028395,-0.1899116 0.063852,-0.1899392 L 22.45424,3.1885861 c 0.03545,-2.72e-5 0.04283,0.087564 0.06415,0.1898408 l 1.830086,8.7769941 c 0.02134,0.102278 -1.851619,0.05336 -1.887076,0.05339 z"
       sodipodi:nodetypes="sssssssss" /><path
       id="path6"
       style="fill:#001c77;fill-opacity:1;stroke:#5b3500;stroke-width:0.821076;stroke-miterlimit:4;stroke-dasharray:none;stroke-opacity:1"
       d="M 6.1998188,10.836629 H 20.060729 c 0.027,0 1.904551,0.0075 1.883514,-0.05838 L 20.109448,5.0404443 c -0.02102,-0.065793 -0.02172,-0.1246425 -0.04872,-0.1246425 H 6.1998169 c -0.026994,0 -0.032552,0.057502 -0.048714,0.1246425 l -1.38767,5.7620937 c -0.016181,0.06714 1.4093961,0.0341 1.4363859,0.0341 z"
       sodipodi:nodetypes="sssssssss" /><ellipse
       style="fill:#f17300;fill-opacity:1;stroke:#341900;stroke-width:0.755408;stroke-dasharray:none;stroke-opacity:1"
       id="path3"
       cx="13.43728"
       cy="12.417789"
       rx="2.7663498"
       ry="2.6999271" /><ellipse
       style="fill:#341900;fill-opacity:1;stroke:none;stroke-width:1.19613;stroke-opacity:1"
       id="path5174"
       cx="13.462639"
       cy="11.570368"
       rx="1.1312017"
       ry="1.0583048" /><path
       sodipodi:type="star"
       style="fill:#341900;fill-opacity:1;stroke:none;stroke-width:11.2592;stroke-opacity:1"
       id="path6252"
       inkscape:flatsided="true"
       sodipodi:sides="3"
       sodipodi:cx="177.62337"
       sodipodi:cy="200.85498"
       sodipodi:r1="17.519781"
       sodipodi:r2="8.7598906"
       sodipodi:arg1="0.53294908"
       sodipodi:arg2="1.5801466"
       inkscape:rounded="0"
       inkscape:randomized="0"
       d="m 192.71337,209.75635 -30.34382,-0.28373 15.41763,-26.13665 z"
       transform="matrix(0.08275853,0,0,0.10439782,-1.2199237,-7.7399057)"
       inkscape:transform-center-x="0.028129269"
       inkscape:transform-center-y="-1.9072827" /><path
       id="path2"
       style="fill:#ffffff;fill-opacity:0.41909727;stroke:none;stroke-width:6.40771;stroke-linecap:round;stroke-opacity:1"
       d="M 2.446879 1.5001668 A 1.171875 1.18125 0 0 0 2.32854 1.5058512 A 1.171875 1.18125 0 0 1 2.38125 1.8562174 A 1.171875 1.18125 0 0 1 1.3275675 3.0313395 A 1.171875 1.18125 0 0 0 2.446879 3.8622965 A 1.171875 1.18125 0 0 0 3.6189005 2.68149 A 1.171875 1.18125 0 0 0 2.446879 1.5001668 z " /><path
       id="path4"
       style="fill:#ffffff;fill-opacity:0.41909727;stroke:none;stroke-width:6.40771;stroke-linecap:round;stroke-opacity:1"
       d="m 24.002566,3.3698367 a 1.171875,1.18125 0 0 0 -0.118339,0.00568 1.171875,1.18125 0 0 1 0.05271,0.3503662 1.171875,1.18125 0 0 1 -1.053683,1.1751221 1.171875,1.18125 0 0 0 1.119312,0.830957 1.171875,1.18125 0 0 0 1.172021,-1.1808021 1.171875,1.18125 0 0 0 -1.172021,-1.1813232 z" /><path
       id="path5"
       style="fill:#ffffff;fill-opacity:0.41909727;stroke:none;stroke-width:6.40771;stroke-linecap:round;stroke-opacity:1"
       d="m 6.1834755,14.612834 a 1.171875,1.18125 0 0 0 -0.118339,0.0057 1.171875,1.18125 0 0 1 0.05271,0.350366 1.171875,1.18125 0 0 1 -1.053683,1.175123 1.171875,1.18125 0 0 0 1.119312,0.830957 1.171875,1.18125 0 0 0 1.172021,-1.180803 1.171875,1.18125 0 0 0 -1.172021,-1.181323 z" /></g></svg>
