<?xml version="1.0" encoding="UTF-8" standalone="no"?>
<!-- Created with Inkscape (http://www.inkscape.org/) -->

<svg
   width="100"
   height="100"
   viewBox="0 0 26.458333 26.458333"
   version="1.1"
   id="svg1"
   inkscape:version="1.4.2 (ebf0e940d0, 2025-05-08)"
   sodipodi:docname="cl-wood.svg"
   xml:space="preserve"
   xmlns:inkscape="http://www.inkscape.org/namespaces/inkscape"
   xmlns:sodipodi="http://sodipodi.sourceforge.net/DTD/sodipodi-0.dtd"
   xmlns="http://www.w3.org/2000/svg"
   xmlns:svg="http://www.w3.org/2000/svg"><sodipodi:namedview
     id="namedview1"
     pagecolor="#505050"
     bordercolor="#eeeeee"
     borderopacity="1"
     inkscape:showpageshadow="0"
     inkscape:pageopacity="0"
     inkscape:pagecheckerboard="0"
     inkscape:deskcolor="#505050"
     inkscape:document-units="px"
     inkscape:zoom="19.956125"
     inkscape:cx="81.854569"
     inkscape:cy="41.265527"
     inkscape:window-width="1366"
     inkscape:window-height="697"
     inkscape:window-x="0"
     inkscape:window-y="0"
     inkscape:window-maximized="1"
     inkscape:current-layer="layer1" /><defs
     id="defs1"><filter
       inkscape:label="Glowing Bubble"
       inkscape:menu="Ridges"
       inkscape:menu-tooltip="Bubble effect with refraction and glow"
       x="-2.8985506"
       y="-2.8985509"
       width="6.7971012"
       height="6.7971018"
       style="color-interpolation-filters:sRGB;"
       id="filter14"><feGaussianBlur
         stdDeviation="1"
         result="result1"
         id="feGaussianBlur9" /><feGaussianBlur
         stdDeviation="10"
         result="result6"
         in="result1"
         id="feGaussianBlur10" /><feComposite
         operator="atop"
         in="result6"
         in2="result1"
         result="result8"
         id="feComposite10" /><feComposite
         operator="xor"
         result="fbSourceGraphic"
         in="result6"
         in2="result8"
         id="feComposite11" /><feColorMatrix
         result="fbSourceGraphicAlpha"
         in="fbSourceGraphic"
         values="0 0 0 -1 0 0 0 0 -1 0 0 0 0 -1 0 0 0 0 2 0 "
         id="feColorMatrix11" /><feGaussianBlur
         result="result0"
         in="fbSourceGraphicAlpha"
         stdDeviation="1"
         id="feGaussianBlur11" /><feSpecularLighting
         specularExponent="35"
         specularConstant="1.5"
         surfaceScale="-2"
         lighting-color="rgb(255,255,255)"
         result="result1"
         in="result0"
         id="feSpecularLighting11"><feDistantLight
           azimuth="230"
           elevation="60"
           id="feDistantLight11" /></feSpecularLighting><feComposite
         operator="in"
         result="result2"
         in="result1"
         in2="fbSourceGraphicAlpha"
         id="feComposite12" /><feComposite
         k3="1.2"
         k2="1.1"
         operator="arithmetic"
         result="result4"
         in="fbSourceGraphic"
         in2="result2"
         id="feComposite13" /><feGaussianBlur
         result="result80"
         in="result4"
         stdDeviation="0.5"
         id="feGaussianBlur13" /><feComposite
         operator="atop"
         in="result9"
         in2="result80"
         result="result91"
         id="feComposite14" /><feBlend
         mode="multiply"
         in2="result91"
         id="feBlend14" /></filter></defs><g
     inkscape:label="Camada 1"
     inkscape:groupmode="layer"
     id="layer1"><path
       id="rect3"
       style="fill:#000000;fill-opacity:0.435242;stroke-width:0.716169"
       d="M 2.8712245,21.812292 H 22.925729 l 2.296467,3.288443 -20.3415649,0.100414 z"
       sodipodi:nodetypes="ccccc" /><path
       id="rect42278-6"
       style="fill:#381b11;fill-opacity:1;stroke:#0c0807;stroke-width:0.759586;stroke-miterlimit:4;stroke-dasharray:none;stroke-opacity:1"
       d="M 3.1675545,12.300716 H 22.76466 c 0.03816,0 2.69273,-0.01183 2.662985,0.09324 l -2.594108,9.163507 c -0.02974,0.10507 -0.03072,0.199059 -0.06888,0.199059 H 3.1675545 c -0.038159,0 -0.046014,-0.09183 -0.068877,-0.199059 L 1.1367361,12.35516 c -0.02286,-0.107233 1.9926594,-0.05444 2.0308184,-0.05444 z"
       sodipodi:nodetypes="sssssssss" /><path
       id="path6473"
       style="fill:#483e37;stroke:#130d0c;stroke-width:0.456466;stroke-miterlimit:4;stroke-dasharray:none;stroke-opacity:1"
       d="M 4.3524521,12.837155 H 21.741901 c 0.03386,0 2.389385,-0.01012 2.362993,0.07978 l -2.301875,7.840908 c -0.02639,0.08991 -0.02726,0.170329 -0.06112,0.170329 H 4.3524521 c -0.033857,0 -0.04083,-0.07857 -0.061115,-0.170329 L 2.5504114,12.88374 c -0.020293,-0.09175 1.7681837,-0.04659 1.8020407,-0.04659 z"
       sodipodi:nodetypes="sssssssss" /><path
       id="path6475-7"
       style="fill:#381b11;fill-opacity:1;stroke:#130d0c;stroke-width:0.412979;stroke-miterlimit:4;stroke-dasharray:none;stroke-opacity:1"
       d="M 5.3234111,12.38589 H 20.937016 c 0.0304,0 2.145379,-0.0092 2.121682,0.07273 l -2.066804,7.148076 c -0.02369,0.08196 -0.02446,0.155278 -0.05488,0.155278 H 5.3234111 c -0.030403,0 -0.036662,-0.07163 -0.054875,-0.155278 L 3.7053957,12.428359 c -0.018208,-0.08365 1.5876127,-0.04247 1.6180154,-0.04247 z"
       sodipodi:nodetypes="sssssssss" /><path
       id="rect1"
       style="fill:#1b0b09;stroke-width:0.732432"
       d="m 4.102234,13.364425 18.523148,-0.0099 -0.536007,1.765173 -17.5335988,0.07889 z"
       sodipodi:nodetypes="ccccc" /><path
       id="path6414-5"
       style="fill:#502d16;stroke:#0c0807;stroke-width:0.785778;stroke-miterlimit:4;stroke-dasharray:none;stroke-opacity:1"
       d="m 23.852965,13.633912 -20.6538395,0.01609 c -0.040215,3e-5 -2.83791704,0.01515 -2.80665883,-0.0998 L 3.118583,3.5249885 C 3.149841,3.4100378 3.150788,3.3072313 3.191003,3.3071997 l 20.653839,-0.016093 c 0.04022,-3.13e-5 0.04857,0.1004031 0.07276,0.2176759 l 2.07564,10.0639109 c 0.0242,0.117273 -2.100065,0.06119 -2.14028,0.06122 z"
       sodipodi:nodetypes="sssssssss" /><path
       id="path9173"
       style="fill:#483e37;stroke:#281a18;stroke-width:0.456466;stroke-miterlimit:4;stroke-dasharray:none;stroke-opacity:1"
       d="m 22.069817,12.432154 -17.3892219,0.08525 c -0.033857,1.65e-4 -2.3893025,0.02184 -2.3633864,-0.0682 L 4.5773182,4.5971174 c 0.025908,-0.090034 0.026363,-0.1704602 0.060209,-0.170626 L 22.026749,4.3412407 c 0.03386,-1.65e-4 0.04125,0.078372 0.06202,0.1700265 l 1.782816,7.8654678 c 0.02077,0.09165 -1.767913,0.05525 -1.80177,0.05542 z"
       sodipodi:nodetypes="sssssssss" /><path
       id="path9175-3"
       style="fill:#502d16;stroke:#0c0807;stroke-width:0.50679;stroke-miterlimit:4;stroke-dasharray:none;stroke-opacity:1"
       d="m 20.419795,12.397221 -13.8555927,0.01064 c -0.026978,1.9e-5 -1.9038123,0.01002 -1.8828425,-0.06598 L 6.5101722,5.7144664 C 6.531134,5.6384756 6.5317757,5.5705126 6.5587533,5.5704913 L 20.414346,5.5598504 c 0.02698,-2.06e-5 0.03258,0.066374 0.04881,0.1439002 l 1.392438,6.6529994 c 0.01623,0.07753 -1.408825,0.04045 -1.4358,0.04047 z"
       sodipodi:nodetypes="sssssssss" /><path
       id="path2"
       style="fill:#2f190d;fill-opacity:1;stroke-width:0.501966"
       d="M 4.7598623,12.195782 21.55409,12.187524 21.389978,11.304037 5.1791864,11.263957 Z"
       sodipodi:nodetypes="ccccc" /><path
       id="path1"
       style="fill:#1b0b09;stroke-width:0.476202"
       d="M 9.3982639,14.851859 17.830994,14.496695 17.63563,16.143672 9.6553133,16.544366 Z"
       sodipodi:nodetypes="ccccc" /><ellipse
       style="fill:#483e37;fill-opacity:1;stroke:#0c0807;stroke-width:0.422408;stroke-miterlimit:4;stroke-dasharray:none;stroke-opacity:1"
       id="path8904"
       cx="21.319086"
       cy="20.01613"
       rx="0.18895335"
       ry="0.20932893" /><ellipse
       style="fill:#483e37;fill-opacity:1;stroke:#0c0807;stroke-width:0.422408;stroke-miterlimit:4;stroke-dasharray:none;stroke-opacity:1"
       id="ellipse9005"
       cx="5.1598029"
       cy="20.01536"
       rx="0.18895335"
       ry="0.20932893" /><ellipse
       style="fill:#483e37;fill-opacity:1;stroke:#0c0807;stroke-width:0.422408;stroke-miterlimit:4;stroke-dasharray:none;stroke-opacity:1"
       id="ellipse9007"
       cx="3.7491062"
       cy="14.676738"
       rx="0.18895335"
       ry="0.20932893" /><ellipse
       style="fill:#483e37;fill-opacity:1;stroke:#0c0807;stroke-width:0.422408;stroke-miterlimit:4;stroke-dasharray:none;stroke-opacity:1"
       id="ellipse9009"
       cx="22.739542"
       cy="14.605778"
       rx="0.18895335"
       ry="0.20932893" /><g
       id="g9404"
       transform="matrix(-0.26736985,0,0,0.25659311,9.7188965,-0.88755904)"><ellipse
         style="fill:#483e37;fill-opacity:1;stroke:#281a18;stroke-width:1.6127;stroke-miterlimit:4;stroke-dasharray:none;stroke-opacity:1"
         id="ellipse9398"
         cx="22.194138"
         cy="47.031895"
         rx="0.70671153"
         ry="0.81580108" /><ellipse
         style="fill:#483e37;fill-opacity:1;stroke:#281a18;stroke-width:1.6127;stroke-miterlimit:4;stroke-dasharray:none;stroke-opacity:1"
         id="ellipse9400"
         cx="16.917931"
         cy="26.226107"
         rx="0.70671153"
         ry="0.81580108" /></g><g
       id="g9410"
       transform="matrix(0.26736985,0,0,0.25659311,16.57761,-1.2658951)"><ellipse
         style="fill:#483e37;fill-opacity:1;stroke:#281a18;stroke-width:1.6127;stroke-miterlimit:4;stroke-dasharray:none;stroke-opacity:1"
         id="ellipse9406"
         cx="22.194138"
         cy="47.031895"
         rx="0.70671153"
         ry="0.81580108" /><ellipse
         style="fill:#483e37;fill-opacity:1;stroke:#281a18;stroke-width:1.6127;stroke-miterlimit:4;stroke-dasharray:none;stroke-opacity:1"
         id="ellipse9408"
         cx="16.917931"
         cy="26.226107"
         rx="0.70671153"
         ry="0.81580108" /></g><rect
       style="fill:#060000;fill-opacity:1;stroke:#150d0c;stroke-width:0.235733;stroke-miterlimit:4;stroke-dasharray:none;stroke-opacity:1"
       id="rect9947"
       width="5.099112"
       height="0.13388357"
       x="7.56042"
       y="17.134588"
       rx="0.067066863"
       ry="0.13388357" /><rect
       style="fill:#060000;fill-opacity:1;stroke:#150d0c;stroke-width:0.235733;stroke-miterlimit:4;stroke-dasharray:none;stroke-opacity:1"
       id="rect15221"
       width="5.099112"
       height="0.13388357"
       x="9.1999207"
       y="17.985826"
       rx="0.067066863"
       ry="0.13388357" /><rect
       style="fill:#060000;fill-opacity:1;stroke:#150d0c;stroke-width:0.235733;stroke-miterlimit:4;stroke-dasharray:none;stroke-opacity:1"
       id="rect15223"
       width="5.099112"
       height="0.13388357"
       x="7.954062"
       y="18.612024"
       rx="0.067066863"
       ry="0.13388357" /><rect
       style="fill:#060000;fill-opacity:1;stroke:#150d0c;stroke-width:0.235733;stroke-miterlimit:4;stroke-dasharray:none;stroke-opacity:1"
       id="rect15225"
       width="5.099112"
       height="0.13388357"
       x="15.631998"
       y="16.167854"
       rx="0.067066863"
       ry="0.13388357" /><rect
       style="fill:#060000;fill-opacity:1;stroke:#150d0c;stroke-width:0.235733;stroke-miterlimit:4;stroke-dasharray:none;stroke-opacity:1"
       id="rect15227"
       width="5.099112"
       height="0.13388357"
       x="14.770843"
       y="16.877037"
       rx="0.067066863"
       ry="0.13388357" /><rect
       style="fill:#060000;fill-opacity:1;stroke:#150d0c;stroke-width:0.191218;stroke-miterlimit:4;stroke-dasharray:none;stroke-opacity:1"
       id="rect15229"
       width="3.2208526"
       height="0.13946469"
       x="16.589737"
       y="18.127497"
       rx="0.042362764"
       ry="0.13946469" /><rect
       style="fill:#281a18;fill-opacity:1;stroke:#150d0c;stroke-width:0.235733;stroke-miterlimit:4;stroke-dasharray:none;stroke-opacity:1"
       id="rect15243"
       width="5.099112"
       height="0.13388357"
       x="6.4206467"
       y="8.648406"
       rx="0.067066863"
       ry="0.13388357" /><rect
       style="fill:#281a18;fill-opacity:1;stroke:#150d0c;stroke-width:0.235733;stroke-miterlimit:4;stroke-dasharray:none;stroke-opacity:1"
       id="rect15245"
       width="5.099112"
       height="0.13388357"
       x="5.3485889"
       y="9.9806852"
       rx="0.067066863"
       ry="0.13388357" /><path
       id="path3-2"
       style="fill:#2f190d;fill-opacity:1;stroke-width:0.37341"
       d="m 9.3039947,11.879798 8.7408983,0.0054 -0.252938,-0.972261 -8.2739388,-0.04345 z"
       sodipodi:nodetypes="ccccc" /><rect
       style="fill:#281a18;fill-opacity:1;stroke:#150d0c;stroke-width:0.235733;stroke-miterlimit:4;stroke-dasharray:none;stroke-opacity:1"
       id="rect15247"
       width="5.099112"
       height="0.13388357"
       x="6.7173495"
       y="10.770039"
       rx="0.067066863"
       ry="0.13388357" /><rect
       style="fill:#281a18;fill-opacity:1;stroke:#150d0c;stroke-width:0.235733;stroke-miterlimit:4;stroke-dasharray:none;stroke-opacity:1"
       id="rect15249"
       width="5.099112"
       height="0.13388357"
       x="13.932309"
       y="8.0482807"
       rx="0.067066863"
       ry="0.13388357" /><rect
       style="fill:#281a18;fill-opacity:1;stroke:#150d0c;stroke-width:0.235733;stroke-miterlimit:4;stroke-dasharray:none;stroke-opacity:1"
       id="rect15251"
       width="5.099112"
       height="0.13388357"
       x="14.825336"
       y="8.9168119"
       rx="0.067066863"
       ry="0.13388357" /><rect
       style="fill:#281a18;fill-opacity:1;stroke:#150d0c;stroke-width:0.191218;stroke-miterlimit:4;stroke-dasharray:none;stroke-opacity:1"
       id="rect15253"
       width="3.2208526"
       height="0.13946469"
       x="14.890048"
       y="10.007922"
       rx="0.042362764"
       ry="0.13946469" /><path
       id="rect42567"
       style="fill:#381b11;fill-opacity:1;stroke:#0c0807;stroke-width:0.617075;stroke-miterlimit:4;stroke-dasharray:none"
       d="m 10.452722,11.256482 h 6.454127 c 0.04394,0 0.151896,0.140647 0.07932,0.255523 l -1.273918,2.016374 c -0.07258,0.114873 1.238539,2.330116 1.194597,2.330116 h -6.454127 c -0.04394,0 1.027378,-2.089428 0.964589,-2.217485 L 10.3734,11.512005 c -0.06279,-0.128055 0.03538,-0.255523 0.07932,-0.255523 z"
       sodipodi:nodetypes="sssssssss" /><ellipse
       style="fill:#0c0807;fill-opacity:1;stroke:none;stroke-width:0.911738;stroke-opacity:1"
       id="path5174-5"
       cx="13.608381"
       cy="13.214782"
       rx="0.86248481"
       ry="0.80646306" /><path
       sodipodi:type="star"
       style="fill:#0c0807;fill-opacity:1;stroke:none;stroke-width:11.2592;stroke-opacity:1"
       id="path6252-6"
       inkscape:flatsided="true"
       sodipodi:sides="3"
       sodipodi:cx="177.62337"
       sodipodi:cy="200.85498"
       sodipodi:r1="17.519781"
       sodipodi:r2="8.7598906"
       sodipodi:arg1="0.53294908"
       sodipodi:arg2="1.5801466"
       inkscape:rounded="0"
       inkscape:randomized="0"
       d="m 192.71337,209.75635 -30.34382,-0.28373 15.41763,-26.13665 z"
       transform="matrix(0.07074161,0,0,0.06789026,1.0229034,1.1030205)"
       inkscape:transform-center-x="0.021671674"
       inkscape:transform-center-y="-1.1400429" /></g></svg>
