<?xml version="1.0" encoding="UTF-8" standalone="no"?>
<!-- Created with Inkscape (http://www.inkscape.org/) -->

<svg
   width="300"
   height="300"
   viewBox="0 0 79.374998 79.374998"
   version="1.1"
   id="svg1"
   xml:space="preserve"
   sodipodi:docname="hexopodaTale[11].svg"
   inkscape:version="1.4.2 (ebf0e940d0, 2025-05-08)"
   xmlns:inkscape="http://www.inkscape.org/namespaces/inkscape"
   xmlns:sodipodi="http://sodipodi.sourceforge.net/DTD/sodipodi-0.dtd"
   xmlns="http://www.w3.org/2000/svg"
   xmlns:svg="http://www.w3.org/2000/svg"><sodipodi:namedview
     id="namedview1"
     pagecolor="#505050"
     bordercolor="#eeeeee"
     borderopacity="1"
     inkscape:showpageshadow="0"
     inkscape:pageopacity="0"
     inkscape:pagecheckerboard="0"
     inkscape:deskcolor="#505050"
     inkscape:document-units="px"
     inkscape:zoom="1.2472578"
     inkscape:cx="111.84536"
     inkscape:cy="201.64235"
     inkscape:window-width="1366"
     inkscape:window-height="697"
     inkscape:window-x="0"
     inkscape:window-y="0"
     inkscape:window-maximized="1"
     inkscape:current-layer="layer1"
     showguides="false" /><defs
     id="defs1"><rect
       x="78.572369"
       y="101.82338"
       width="107.43569"
       height="93.805787"
       id="rect2" /><inkscape:path-effect
       effect="fillet_chamfer"
       id="path-effect68"
       is_visible="true"
       lpeversion="1"
       nodesatellites_param="F,0,0,1,0,0,0,1 @ F,0,0,1,0,0,0,1 @ F,0,0,1,0,0,0,1 @ F,0,0,1,0,0,0,1 @ F,0,0,1,0,0,0,1 @ F,0,0,1,0,0,0,1 @ F,0,0,1,0,0,0,1 @ F,0,0,1,0,0,0,1 @ F,0,0,1,0,0,0,1"
       radius="0"
       unit="px"
       method="auto"
       mode="F"
       chamfer_steps="1"
       flexible="false"
       use_knot_distance="true"
       apply_no_radius="true"
       apply_with_radius="true"
       only_selected="false"
       hide_knots="false" /><inkscape:path-effect
       effect="fillet_chamfer"
       id="path-effect66"
       is_visible="true"
       lpeversion="1"
       nodesatellites_param="F,0,0,1,0,0,0,1 @ F,0,0,1,0,0.44929322,0,1 @ F,0,0,1,0,0.44929322,0,1 @ F,0,0,1,0,0,0,1 @ F,0,0,1,0,0,0,1 @ F,0,0,1,0,0,0,1 @ F,0,0,1,0,0,0,1 @ F,0,0,1,0,0,0,1 @ F,0,0,1,0,0,0,1 @ F,0,0,1,0,0,0,1"
       radius="0"
       unit="px"
       method="auto"
       mode="F"
       chamfer_steps="1"
       flexible="false"
       use_knot_distance="true"
       apply_no_radius="true"
       apply_with_radius="true"
       only_selected="false"
       hide_knots="false" /><inkscape:path-effect
       effect="fillet_chamfer"
       id="path-effect68-3"
       is_visible="true"
       lpeversion="1"
       nodesatellites_param="F,0,0,1,0,0,0,1 @ F,0,0,1,0,0,0,1 @ F,0,0,1,0,0,0,1 @ F,0,0,1,0,0,0,1 @ F,0,0,1,0,0,0,1 @ F,0,0,1,0,0,0,1 @ F,0,0,1,0,0,0,1 @ F,0,0,1,0,0,0,1 @ F,0,0,1,0,0,0,1"
       radius="0"
       unit="px"
       method="auto"
       mode="F"
       chamfer_steps="1"
       flexible="false"
       use_knot_distance="true"
       apply_no_radius="true"
       apply_with_radius="true"
       only_selected="false"
       hide_knots="false" /><inkscape:path-effect
       effect="fillet_chamfer"
       id="path-effect66-6"
       is_visible="true"
       lpeversion="1"
       nodesatellites_param="F,0,0,1,0,0,0,1 @ F,0,0,1,0,0.44929322,0,1 @ F,0,0,1,0,0.44929322,0,1 @ F,0,0,1,0,0,0,1 @ F,0,0,1,0,0,0,1 @ F,0,0,1,0,0,0,1 @ F,0,0,1,0,0,0,1 @ F,0,0,1,0,0,0,1 @ F,0,0,1,0,0,0,1 @ F,0,0,1,0,0,0,1"
       radius="0"
       unit="px"
       method="auto"
       mode="F"
       chamfer_steps="1"
       flexible="false"
       use_knot_distance="true"
       apply_no_radius="true"
       apply_with_radius="true"
       only_selected="false"
       hide_knots="false" /><inkscape:path-effect
       effect="fillet_chamfer"
       id="path-effect68-36"
       is_visible="true"
       lpeversion="1"
       nodesatellites_param="F,0,0,1,0,0,0,1 @ F,0,0,1,0,0,0,1 @ F,0,0,1,0,0,0,1 @ F,0,0,1,0,0,0,1 @ F,0,0,1,0,0,0,1 @ F,0,0,1,0,0,0,1 @ F,0,0,1,0,0,0,1 @ F,0,0,1,0,0,0,1 @ F,0,0,1,0,0,0,1"
       radius="0"
       unit="px"
       method="auto"
       mode="F"
       chamfer_steps="1"
       flexible="false"
       use_knot_distance="true"
       apply_no_radius="true"
       apply_with_radius="true"
       only_selected="false"
       hide_knots="false" /><inkscape:path-effect
       effect="fillet_chamfer"
       id="path-effect66-7"
       is_visible="true"
       lpeversion="1"
       nodesatellites_param="F,0,0,1,0,0,0,1 @ F,0,0,1,0,0.44929322,0,1 @ F,0,0,1,0,0.44929322,0,1 @ F,0,0,1,0,0,0,1 @ F,0,0,1,0,0,0,1 @ F,0,0,1,0,0,0,1 @ F,0,0,1,0,0,0,1 @ F,0,0,1,0,0,0,1 @ F,0,0,1,0,0,0,1 @ F,0,0,1,0,0,0,1"
       radius="0"
       unit="px"
       method="auto"
       mode="F"
       chamfer_steps="1"
       flexible="false"
       use_knot_distance="true"
       apply_no_radius="true"
       apply_with_radius="true"
       only_selected="false"
       hide_knots="false" /><linearGradient
       id="linearGradient13895"
       inkscape:swatch="solid"><stop
         style="stop-color:#000000;stop-opacity:1;"
         offset="0"
         id="stop13893" /></linearGradient><filter
       style="color-interpolation-filters:sRGB"
       inkscape:label="Clean Edges"
       id="filter14269"
       x="-0.31154084"
       y="-0.29580635"
       width="1.6230817"
       height="1.5916127"><feGaussianBlur
         stdDeviation="0.204612"
         result="blur"
         id="feGaussianBlur14263" /><feComposite
         in="SourceGraphic"
         in2="blur"
         operator="in"
         result="composite1"
         id="feComposite14265" /><feComposite
         in="composite1"
         in2="composite1"
         operator="in"
         result="composite2"
         id="feComposite14267" /></filter><filter
       style="color-interpolation-filters:sRGB"
       inkscape:label="Clean Edges"
       id="filter14269-9"
       x="-0.31154084"
       y="-0.29580635"
       width="1.6230817"
       height="1.5916127"><feGaussianBlur
         stdDeviation="0.204612"
         result="blur"
         id="feGaussianBlur14263-1" /><feComposite
         in="SourceGraphic"
         in2="blur"
         operator="in"
         result="composite1"
         id="feComposite14265-27" /><feComposite
         in="composite1"
         in2="composite1"
         operator="in"
         result="composite2"
         id="feComposite14267-0" /></filter><inkscape:path-effect
       effect="fillet_chamfer"
       id="path-effect68-9"
       is_visible="true"
       lpeversion="1"
       nodesatellites_param="F,0,0,1,0,0,0,1 @ F,0,0,1,0,0,0,1 @ F,0,0,1,0,0,0,1 @ F,0,0,1,0,0,0,1 @ F,0,0,1,0,0,0,1 @ F,0,0,1,0,0,0,1 @ F,0,0,1,0,0,0,1 @ F,0,0,1,0,0,0,1 @ F,0,0,1,0,0,0,1"
       radius="0"
       unit="px"
       method="auto"
       mode="F"
       chamfer_steps="1"
       flexible="false"
       use_knot_distance="true"
       apply_no_radius="true"
       apply_with_radius="true"
       only_selected="false"
       hide_knots="false" /><inkscape:path-effect
       effect="fillet_chamfer"
       id="path-effect66-3"
       is_visible="true"
       lpeversion="1"
       nodesatellites_param="F,0,0,1,0,0,0,1 @ F,0,0,1,0,0.44929322,0,1 @ F,0,0,1,0,0.44929322,0,1 @ F,0,0,1,0,0,0,1 @ F,0,0,1,0,0,0,1 @ F,0,0,1,0,0,0,1 @ F,0,0,1,0,0,0,1 @ F,0,0,1,0,0,0,1 @ F,0,0,1,0,0,0,1 @ F,0,0,1,0,0,0,1"
       radius="0"
       unit="px"
       method="auto"
       mode="F"
       chamfer_steps="1"
       flexible="false"
       use_knot_distance="true"
       apply_no_radius="true"
       apply_with_radius="true"
       only_selected="false"
       hide_knots="false" /><inkscape:path-effect
       effect="fillet_chamfer"
       id="path-effect68-7"
       is_visible="true"
       lpeversion="1"
       nodesatellites_param="F,0,0,1,0,0,0,1 @ F,0,0,1,0,0,0,1 @ F,0,0,1,0,0,0,1 @ F,0,0,1,0,0,0,1 @ F,0,0,1,0,0,0,1 @ F,0,0,1,0,0,0,1 @ F,0,0,1,0,0,0,1 @ F,0,0,1,0,0,0,1 @ F,0,0,1,0,0,0,1"
       radius="0"
       unit="px"
       method="auto"
       mode="F"
       chamfer_steps="1"
       flexible="false"
       use_knot_distance="true"
       apply_no_radius="true"
       apply_with_radius="true"
       only_selected="false"
       hide_knots="false" /><inkscape:path-effect
       effect="fillet_chamfer"
       id="path-effect66-5"
       is_visible="true"
       lpeversion="1"
       nodesatellites_param="F,0,0,1,0,0,0,1 @ F,0,0,1,0,0.44929322,0,1 @ F,0,0,1,0,0.44929322,0,1 @ F,0,0,1,0,0,0,1 @ F,0,0,1,0,0,0,1 @ F,0,0,1,0,0,0,1 @ F,0,0,1,0,0,0,1 @ F,0,0,1,0,0,0,1 @ F,0,0,1,0,0,0,1 @ F,0,0,1,0,0,0,1"
       radius="0"
       unit="px"
       method="auto"
       mode="F"
       chamfer_steps="1"
       flexible="false"
       use_knot_distance="true"
       apply_no_radius="true"
       apply_with_radius="true"
       only_selected="false"
       hide_knots="false" /><inkscape:path-effect
       effect="fillet_chamfer"
       id="path-effect68-3-6"
       is_visible="true"
       lpeversion="1"
       nodesatellites_param="F,0,0,1,0,0,0,1 @ F,0,0,1,0,0,0,1 @ F,0,0,1,0,0,0,1 @ F,0,0,1,0,0,0,1 @ F,0,0,1,0,0,0,1 @ F,0,0,1,0,0,0,1 @ F,0,0,1,0,0,0,1 @ F,0,0,1,0,0,0,1 @ F,0,0,1,0,0,0,1"
       radius="0"
       unit="px"
       method="auto"
       mode="F"
       chamfer_steps="1"
       flexible="false"
       use_knot_distance="true"
       apply_no_radius="true"
       apply_with_radius="true"
       only_selected="false"
       hide_knots="false" /><inkscape:path-effect
       effect="fillet_chamfer"
       id="path-effect66-6-0"
       is_visible="true"
       lpeversion="1"
       nodesatellites_param="F,0,0,1,0,0,0,1 @ F,0,0,1,0,0.44929322,0,1 @ F,0,0,1,0,0.44929322,0,1 @ F,0,0,1,0,0,0,1 @ F,0,0,1,0,0,0,1 @ F,0,0,1,0,0,0,1 @ F,0,0,1,0,0,0,1 @ F,0,0,1,0,0,0,1 @ F,0,0,1,0,0,0,1 @ F,0,0,1,0,0,0,1"
       radius="0"
       unit="px"
       method="auto"
       mode="F"
       chamfer_steps="1"
       flexible="false"
       use_knot_distance="true"
       apply_no_radius="true"
       apply_with_radius="true"
       only_selected="false"
       hide_knots="false" /><filter
       style="color-interpolation-filters:sRGB"
       inkscape:label="Clean Edges"
       id="filter14269-5"
       x="-0.31154084"
       y="-0.29580635"
       width="1.6230817"
       height="1.5916127"><feGaussianBlur
         stdDeviation="0.204612"
         result="blur"
         id="feGaussianBlur14263-6" /><feComposite
         in="SourceGraphic"
         in2="blur"
         operator="in"
         result="composite1"
         id="feComposite14265-2" /><feComposite
         in="composite1"
         in2="composite1"
         operator="in"
         result="composite2"
         id="feComposite14267-9" /></filter><filter
       style="color-interpolation-filters:sRGB"
       inkscape:label="Clean Edges"
       id="filter14269-3"
       x="-0.31154084"
       y="-0.29580635"
       width="1.6230817"
       height="1.5916127"><feGaussianBlur
         stdDeviation="0.204612"
         result="blur"
         id="feGaussianBlur14263-7" /><feComposite
         in="SourceGraphic"
         in2="blur"
         operator="in"
         result="composite1"
         id="feComposite14265-5" /><feComposite
         in="composite1"
         in2="composite1"
         operator="in"
         result="composite2"
         id="feComposite14267-92" /></filter><inkscape:path-effect
       effect="fillet_chamfer"
       id="path-effect68-2"
       is_visible="true"
       lpeversion="1"
       nodesatellites_param="F,0,0,1,0,0,0,1 @ F,0,0,1,0,0,0,1 @ F,0,0,1,0,0,0,1 @ F,0,0,1,0,0,0,1 @ F,0,0,1,0,0,0,1 @ F,0,0,1,0,0,0,1 @ F,0,0,1,0,0,0,1 @ F,0,0,1,0,0,0,1 @ F,0,0,1,0,0,0,1"
       radius="0"
       unit="px"
       method="auto"
       mode="F"
       chamfer_steps="1"
       flexible="false"
       use_knot_distance="true"
       apply_no_radius="true"
       apply_with_radius="true"
       only_selected="false"
       hide_knots="false" /><inkscape:path-effect
       effect="fillet_chamfer"
       id="path-effect66-8"
       is_visible="true"
       lpeversion="1"
       nodesatellites_param="F,0,0,1,0,0,0,1 @ F,0,0,1,0,0.44929322,0,1 @ F,0,0,1,0,0.44929322,0,1 @ F,0,0,1,0,0,0,1 @ F,0,0,1,0,0,0,1 @ F,0,0,1,0,0,0,1 @ F,0,0,1,0,0,0,1 @ F,0,0,1,0,0,0,1 @ F,0,0,1,0,0,0,1 @ F,0,0,1,0,0,0,1"
       radius="0"
       unit="px"
       method="auto"
       mode="F"
       chamfer_steps="1"
       flexible="false"
       use_knot_distance="true"
       apply_no_radius="true"
       apply_with_radius="true"
       only_selected="false"
       hide_knots="false" /><inkscape:path-effect
       effect="fillet_chamfer"
       id="path-effect68-5"
       is_visible="true"
       lpeversion="1"
       nodesatellites_param="F,0,0,1,0,0,0,1 @ F,0,0,1,0,0,0,1 @ F,0,0,1,0,0,0,1 @ F,0,0,1,0,0,0,1 @ F,0,0,1,0,0,0,1 @ F,0,0,1,0,0,0,1 @ F,0,0,1,0,0,0,1 @ F,0,0,1,0,0,0,1 @ F,0,0,1,0,0,0,1"
       radius="0"
       unit="px"
       method="auto"
       mode="F"
       chamfer_steps="1"
       flexible="false"
       use_knot_distance="true"
       apply_no_radius="true"
       apply_with_radius="true"
       only_selected="false"
       hide_knots="false" /><inkscape:path-effect
       effect="fillet_chamfer"
       id="path-effect66-35"
       is_visible="true"
       lpeversion="1"
       nodesatellites_param="F,0,0,1,0,0,0,1 @ F,0,0,1,0,0.44929322,0,1 @ F,0,0,1,0,0.44929322,0,1 @ F,0,0,1,0,0,0,1 @ F,0,0,1,0,0,0,1 @ F,0,0,1,0,0,0,1 @ F,0,0,1,0,0,0,1 @ F,0,0,1,0,0,0,1 @ F,0,0,1,0,0,0,1 @ F,0,0,1,0,0,0,1"
       radius="0"
       unit="px"
       method="auto"
       mode="F"
       chamfer_steps="1"
       flexible="false"
       use_knot_distance="true"
       apply_no_radius="true"
       apply_with_radius="true"
       only_selected="false"
       hide_knots="false" /><inkscape:path-effect
       effect="fillet_chamfer"
       id="path-effect68-3-62"
       is_visible="true"
       lpeversion="1"
       nodesatellites_param="F,0,0,1,0,0,0,1 @ F,0,0,1,0,0,0,1 @ F,0,0,1,0,0,0,1 @ F,0,0,1,0,0,0,1 @ F,0,0,1,0,0,0,1 @ F,0,0,1,0,0,0,1 @ F,0,0,1,0,0,0,1 @ F,0,0,1,0,0,0,1 @ F,0,0,1,0,0,0,1"
       radius="0"
       unit="px"
       method="auto"
       mode="F"
       chamfer_steps="1"
       flexible="false"
       use_knot_distance="true"
       apply_no_radius="true"
       apply_with_radius="true"
       only_selected="false"
       hide_knots="false" /><inkscape:path-effect
       effect="fillet_chamfer"
       id="path-effect66-6-9"
       is_visible="true"
       lpeversion="1"
       nodesatellites_param="F,0,0,1,0,0,0,1 @ F,0,0,1,0,0.44929322,0,1 @ F,0,0,1,0,0.44929322,0,1 @ F,0,0,1,0,0,0,1 @ F,0,0,1,0,0,0,1 @ F,0,0,1,0,0,0,1 @ F,0,0,1,0,0,0,1 @ F,0,0,1,0,0,0,1 @ F,0,0,1,0,0,0,1 @ F,0,0,1,0,0,0,1"
       radius="0"
       unit="px"
       method="auto"
       mode="F"
       chamfer_steps="1"
       flexible="false"
       use_knot_distance="true"
       apply_no_radius="true"
       apply_with_radius="true"
       only_selected="false"
       hide_knots="false" /><inkscape:path-effect
       effect="fillet_chamfer"
       id="path-effect68-36-1"
       is_visible="true"
       lpeversion="1"
       nodesatellites_param="F,0,0,1,0,0,0,1 @ F,0,0,1,0,0,0,1 @ F,0,0,1,0,0,0,1 @ F,0,0,1,0,0,0,1 @ F,0,0,1,0,0,0,1 @ F,0,0,1,0,0,0,1 @ F,0,0,1,0,0,0,1 @ F,0,0,1,0,0,0,1 @ F,0,0,1,0,0,0,1"
       radius="0"
       unit="px"
       method="auto"
       mode="F"
       chamfer_steps="1"
       flexible="false"
       use_knot_distance="true"
       apply_no_radius="true"
       apply_with_radius="true"
       only_selected="false"
       hide_knots="false" /><inkscape:path-effect
       effect="fillet_chamfer"
       id="path-effect66-7-2"
       is_visible="true"
       lpeversion="1"
       nodesatellites_param="F,0,0,1,0,0,0,1 @ F,0,0,1,0,0.44929322,0,1 @ F,0,0,1,0,0.44929322,0,1 @ F,0,0,1,0,0,0,1 @ F,0,0,1,0,0,0,1 @ F,0,0,1,0,0,0,1 @ F,0,0,1,0,0,0,1 @ F,0,0,1,0,0,0,1 @ F,0,0,1,0,0,0,1 @ F,0,0,1,0,0,0,1"
       radius="0"
       unit="px"
       method="auto"
       mode="F"
       chamfer_steps="1"
       flexible="false"
       use_knot_distance="true"
       apply_no_radius="true"
       apply_with_radius="true"
       only_selected="false"
       hide_knots="false" /><inkscape:path-effect
       effect="fillet_chamfer"
       id="path-effect68-53"
       is_visible="true"
       lpeversion="1"
       nodesatellites_param="F,0,0,1,0,0,0,1 @ F,0,0,1,0,0,0,1 @ F,0,0,1,0,0,0,1 @ F,0,0,1,0,0,0,1 @ F,0,0,1,0,0,0,1 @ F,0,0,1,0,0,0,1 @ F,0,0,1,0,0,0,1 @ F,0,0,1,0,0,0,1 @ F,0,0,1,0,0,0,1"
       radius="0"
       unit="px"
       method="auto"
       mode="F"
       chamfer_steps="1"
       flexible="false"
       use_knot_distance="true"
       apply_no_radius="true"
       apply_with_radius="true"
       only_selected="false"
       hide_knots="false" /><inkscape:path-effect
       effect="fillet_chamfer"
       id="path-effect66-56"
       is_visible="true"
       lpeversion="1"
       nodesatellites_param="F,0,0,1,0,0,0,1 @ F,0,0,1,0,0.44929322,0,1 @ F,0,0,1,0,0.44929322,0,1 @ F,0,0,1,0,0,0,1 @ F,0,0,1,0,0,0,1 @ F,0,0,1,0,0,0,1 @ F,0,0,1,0,0,0,1 @ F,0,0,1,0,0,0,1 @ F,0,0,1,0,0,0,1 @ F,0,0,1,0,0,0,1"
       radius="0"
       unit="px"
       method="auto"
       mode="F"
       chamfer_steps="1"
       flexible="false"
       use_knot_distance="true"
       apply_no_radius="true"
       apply_with_radius="true"
       only_selected="false"
       hide_knots="false" /><inkscape:path-effect
       effect="fillet_chamfer"
       id="path-effect68-3-2"
       is_visible="true"
       lpeversion="1"
       nodesatellites_param="F,0,0,1,0,0,0,1 @ F,0,0,1,0,0,0,1 @ F,0,0,1,0,0,0,1 @ F,0,0,1,0,0,0,1 @ F,0,0,1,0,0,0,1 @ F,0,0,1,0,0,0,1 @ F,0,0,1,0,0,0,1 @ F,0,0,1,0,0,0,1 @ F,0,0,1,0,0,0,1"
       radius="0"
       unit="px"
       method="auto"
       mode="F"
       chamfer_steps="1"
       flexible="false"
       use_knot_distance="true"
       apply_no_radius="true"
       apply_with_radius="true"
       only_selected="false"
       hide_knots="false" /><inkscape:path-effect
       effect="fillet_chamfer"
       id="path-effect66-6-91"
       is_visible="true"
       lpeversion="1"
       nodesatellites_param="F,0,0,1,0,0,0,1 @ F,0,0,1,0,0.44929322,0,1 @ F,0,0,1,0,0.44929322,0,1 @ F,0,0,1,0,0,0,1 @ F,0,0,1,0,0,0,1 @ F,0,0,1,0,0,0,1 @ F,0,0,1,0,0,0,1 @ F,0,0,1,0,0,0,1 @ F,0,0,1,0,0,0,1 @ F,0,0,1,0,0,0,1"
       radius="0"
       unit="px"
       method="auto"
       mode="F"
       chamfer_steps="1"
       flexible="false"
       use_knot_distance="true"
       apply_no_radius="true"
       apply_with_radius="true"
       only_selected="false"
       hide_knots="false" /><inkscape:path-effect
       effect="fillet_chamfer"
       id="path-effect68-36-2"
       is_visible="true"
       lpeversion="1"
       nodesatellites_param="F,0,0,1,0,0,0,1 @ F,0,0,1,0,0,0,1 @ F,0,0,1,0,0,0,1 @ F,0,0,1,0,0,0,1 @ F,0,0,1,0,0,0,1 @ F,0,0,1,0,0,0,1 @ F,0,0,1,0,0,0,1 @ F,0,0,1,0,0,0,1 @ F,0,0,1,0,0,0,1"
       radius="0"
       unit="px"
       method="auto"
       mode="F"
       chamfer_steps="1"
       flexible="false"
       use_knot_distance="true"
       apply_no_radius="true"
       apply_with_radius="true"
       only_selected="false"
       hide_knots="false" /><inkscape:path-effect
       effect="fillet_chamfer"
       id="path-effect66-7-7"
       is_visible="true"
       lpeversion="1"
       nodesatellites_param="F,0,0,1,0,0,0,1 @ F,0,0,1,0,0.44929322,0,1 @ F,0,0,1,0,0.44929322,0,1 @ F,0,0,1,0,0,0,1 @ F,0,0,1,0,0,0,1 @ F,0,0,1,0,0,0,1 @ F,0,0,1,0,0,0,1 @ F,0,0,1,0,0,0,1 @ F,0,0,1,0,0,0,1 @ F,0,0,1,0,0,0,1"
       radius="0"
       unit="px"
       method="auto"
       mode="F"
       chamfer_steps="1"
       flexible="false"
       use_knot_distance="true"
       apply_no_radius="true"
       apply_with_radius="true"
       only_selected="false"
       hide_knots="false" /><rect
       x="78.572369"
       y="101.82338"
       width="107.43569"
       height="93.805787"
       id="rect4" /><rect
       x="78.572369"
       y="101.82338"
       width="107.43569"
       height="93.805787"
       id="rect5" /><rect
       x="78.572369"
       y="101.82338"
       width="107.43569"
       height="93.805787"
       id="rect6" /><rect
       x="78.572369"
       y="101.82338"
       width="107.43569"
       height="93.805787"
       id="rect7" /><filter
       style="color-interpolation-filters:sRGB;"
       inkscape:label="Clean Edges"
       id="filter14269-6"
       x="-0.31154084"
       y="-0.29580634"
       width="1.6230817"
       height="1.5916127"><feGaussianBlur
         stdDeviation="0.204612"
         result="blur"
         id="feGaussianBlur14263-75" /><feComposite
         in="SourceGraphic"
         in2="blur"
         operator="in"
         result="composite1"
         id="feComposite14265-3" /><feComposite
         in="composite1"
         in2="composite1"
         operator="in"
         result="composite2"
         id="feComposite14267-5" /></filter><filter
       style="color-interpolation-filters:sRGB;"
       inkscape:label="Clean Edges"
       id="filter14269-67"
       x="-0.31154084"
       y="-0.29580634"
       width="1.6230817"
       height="1.5916127"><feGaussianBlur
         stdDeviation="0.204612"
         result="blur"
         id="feGaussianBlur14263-5" /><feComposite
         in="SourceGraphic"
         in2="blur"
         operator="in"
         result="composite1"
         id="feComposite14265-35" /><feComposite
         in="composite1"
         in2="composite1"
         operator="in"
         result="composite2"
         id="feComposite14267-6" /></filter></defs><g
     inkscape:label="Camada 1"
     inkscape:groupmode="layer"
     id="layer1"><rect
       style="fill:#9d1604;fill-opacity:1;stroke:none;stroke-width:3.79994574;stroke-linecap:round;stroke-linejoin:round;stroke-dasharray:none;stroke-opacity:1"
       id="rect1"
       width="82.758202"
       height="83.138725"
       x="-1.794613"
       y="-1.1582168" /><ellipse
       style="fill:#f82020;fill-opacity:1;stroke:none;stroke-width:5.39952;stroke-linecap:round;stroke-linejoin:round;stroke-dasharray:none;stroke-opacity:1"
       id="ellipse37"
       cx="73.026443"
       cy="56.586224"
       rx="21.902632"
       ry="10.341436" /><path
       id="path11551"
       style="fill:#f82020;fill-opacity:1;stroke:#300702;stroke-width:1.9572;stroke-miterlimit:4;stroke-dasharray:none;stroke-opacity:1"
       d="m 38.587879,43.584737 c -0.269104,1.004691 -0.812426,1.794824 -1.450507,1.989301 l -8.658773,2.690646 c -0.148942,0.04541 -0.555715,-0.453786 -0.693968,-0.475431 -0.20365,0.104237 -0.716083,0.711658 -0.920656,0.611665 l -8.263389,-0.702309 c -0.918358,-0.07665 -1.403766,-1.452096 -1.089529,-3.082658 l 0.236343,-1.23402 c 0.314229,-1.630564 1.307884,-2.880858 2.226242,-2.804193 l 7.99941,0.667808 c 0.08673,-0.05094 0.175005,-0.09107 0.266209,-0.118833 l 8.791454,-2.680447 c 0.928107,-0.282863 1.694817,0.804551 1.719373,2.436439 l 0.01904,1.235326 c 0.0077,0.509968 -0.05897,1.010051 -0.18135,1.466714 z"
       sodipodi:nodetypes="cccccccccccccccc" /><path
       d="m 27.530761,42.102437 c 2.420411,-0.361662 4.238525,-1.359005 4.585287,-1.07634 l 0.397213,0.81988 c 0.266851,0.217524 0.649462,0.900209 0.280843,1.176802 l -1.153637,0.229752 c -0.869064,0.49727 -1.65638,1.396725 -3.102019,1.698628 -0.268089,-0.188826 -7.98482,-3.1932 -7.648882,-3.511833 z"
       style="fill:#9d1604;fill-opacity:1;stroke:none;stroke-width:0.638639"
       id="path1-8"
       sodipodi:nodetypes="cccccccc" /><g
       id="g12"
       transform="matrix(2.5927822,0.1870344,-0.15624957,2.5633319,-61.193425,0.90760057)"
       style="fill:#9d1604;fill-opacity:1;stroke:#300702;stroke-opacity:1"><path
         id="path15"
         style="fill:#9d1604;fill-opacity:1;stroke:#300702;stroke-width:0.444;stroke-dasharray:none;stroke-opacity:1"
         d="M 35.414568,3.0001364 36.619809,1.3389155 37.945571,6.67603 36.860855,7.771729 Z"
         sodipodi:nodetypes="ccccc" /><rect
         style="fill:#9d1604;fill-opacity:1;stroke:#300702;stroke-width:0.549;stroke-miterlimit:4;stroke-dasharray:none;stroke-opacity:1"
         id="rect2963"
         width="2.00069"
         height="17.948395"
         x="37.498688"
         y="7.6114192"
         ry="0.56545579" /><path
         id="path7-3"
         style="fill:#9d1604;fill-opacity:1;stroke:#300702;stroke-width:0.444;stroke-dasharray:none;stroke-opacity:1"
         d="M 41.827767,2.8848413 40.622526,1.2236204 39.296764,6.5607349 40.38148,7.6564339 Z"
         sodipodi:nodetypes="ccccc" /><g
         id="g6"
         transform="matrix(-1.7902656,0,0,-1.7323616,90.68463,20.999998)"
         style="fill:#9d1604;fill-opacity:1;stroke:#300702;stroke-width:0.283917;stroke-dasharray:none;stroke-opacity:1"><rect
           style="fill:#9d1604;fill-opacity:1;stroke:#300702;stroke-width:0.283917;stroke-miterlimit:4;stroke-dasharray:none;stroke-opacity:1"
           id="rect5-7"
           width="2.418293"
           height="0.53468895"
           x="27.855507"
           y="7.3858442"
           ry="0.25027269" /><rect
           style="fill:#9d1604;fill-opacity:1;stroke:#300702;stroke-width:0.283917;stroke-miterlimit:4;stroke-dasharray:none;stroke-opacity:1"
           id="rect6-5"
           width="2.895308"
           height="0.70425063"
           x="27.631411"
           y="7.8246946"
           ry="0.3296397" /></g><g
         id="g22"
         transform="matrix(1.7884929,0.07707202,-0.07964813,1.7306462,-12.882346,5.0543937)"
         style="fill:#9d1604;fill-opacity:1;stroke:#300702;stroke-opacity:1"><path
           id="path17"
           style="fill:#9d1604;fill-opacity:1;stroke:#300702;stroke-width:0.192;stroke-opacity:1"
           d="m 29.179479,1.3621619 c 0,0.1894821 -0.12582,0.6505412 -0.328434,0.6505415 -0.202615,2e-7 -0.405299,-0.461059 -0.405299,-0.6505415 0,-0.1894825 0.164252,-0.3430884 0.366867,-0.3430882 0.202615,3e-7 0.366866,0.153606 0.366866,0.3430882 z"
           sodipodi:nodetypes="sssss" /><path
           id="path18"
           style="fill:#9d1604;fill-opacity:1;stroke:#300702;stroke-width:0.192;stroke-opacity:1"
           d="m 28.357427,0.89338797 c 0,0.18948213 0.220065,0.48720663 0.01745,0.48720693 -0.202615,2e-7 -0.751184,-0.2977244 -0.751184,-0.48720693 0,-0.18948251 0.164252,-0.34308838 0.366867,-0.34308815 0.202615,2.9e-7 0.366866,0.153606 0.366867,0.34308815 z"
           sodipodi:nodetypes="sssss" /><path
           id="path19"
           style="fill:#9d1604;fill-opacity:1;stroke:#300702;stroke-width:0.192;stroke-opacity:1"
           d="m 29.960769,0.80506825 c 0,0.18948215 -0.471705,0.48720665 -0.674319,0.48720695 -0.202615,2e-7 -0.05941,-0.29772444 -0.05941,-0.48720695 0,-0.18948251 0.164252,-0.34308838 0.366867,-0.34308815 0.202615,2.9e-7 0.366866,0.153606 0.366866,0.34308815 z"
           sodipodi:nodetypes="sssss" /><path
           id="path20"
           style="fill:#9d1604;fill-opacity:1;stroke:#300702;stroke-width:0.0965249;stroke-opacity:1"
           d="m 29.044968,1.3211899 c 0,0.097872 -0.06157,0.3360203 -0.160706,0.3360204 -0.09914,1e-7 -0.198318,-0.2381481 -0.198318,-0.3360204 0,-0.097872 0.08037,-0.1772134 0.179512,-0.1772133 0.09915,2e-7 0.179512,0.079341 0.179512,0.1772133 z"
           sodipodi:nodetypes="sssss" /><path
           id="path21"
           style="fill:#9d1604;fill-opacity:1;stroke:#300702;stroke-width:0.0784491;stroke-opacity:1"
           d="m 28.149614,0.69865723 c 0.05242,0.0598357 0.142334,0.23840606 0.08174,0.29149337 -0.0606,0.053093 -0.248779,-0.0393931 -0.301199,-0.099229 -0.05242,-0.0598357 -0.04579,-0.15137913 0.01482,-0.2044742 0.06061,-0.053099 0.152226,-0.0476261 0.204647,0.0122098 z"
           sodipodi:nodetypes="sssss" /><path
           id="path22"
           style="fill:#9d1604;fill-opacity:1;stroke:#300702;stroke-width:0.0784491;stroke-opacity:1"
           d="m 29.428341,0.62179387 c -0.05242,0.0598357 -0.142334,0.23840606 -0.08174,0.29149337 0.0606,0.053093 0.248779,-0.0393931 0.301199,-0.099229 0.05242,-0.0598357 0.04579,-0.15137913 -0.01482,-0.2044742 -0.06061,-0.053099 -0.152226,-0.0476261 -0.204647,0.0122098 z"
           sodipodi:nodetypes="sssss" /></g><rect
         style="fill:#9d1604;fill-opacity:1;stroke:#300702;stroke-width:0.421;stroke-miterlimit:4;stroke-dasharray:none;stroke-opacity:1"
         id="rect4-9"
         width="4.2497587"
         height="0.9376806"
         x="36.37653"
         y="22.523273"
         ry="0.43890166" /><rect
         style="fill:#9d1604;fill-opacity:1;stroke:#300702;stroke-width:0.478;stroke-miterlimit:4;stroke-dasharray:none;stroke-opacity:1"
         id="rect3"
         width="5.0880356"
         height="1.2350399"
         x="35.982716"
         y="23.292883"
         ry="0.57808709" /><g
         id="g28"
         transform="matrix(1.7555982,-0.07802106,-0.07818321,-1.7519572,-12.018157,25.578561)"
         style="fill:#9d1604;fill-opacity:1;stroke:#300702;stroke-opacity:1"><path
           id="path23"
           style="fill:#9d1604;fill-opacity:1;stroke:#300702;stroke-width:0.192;stroke-opacity:1"
           d="m 29.179479,1.3621619 c 0,0.1894821 -0.12582,0.6505412 -0.328434,0.6505415 -0.202615,2e-7 -0.405299,-0.461059 -0.405299,-0.6505415 0,-0.1894825 0.164252,-0.3430884 0.366867,-0.3430882 0.202615,3e-7 0.366866,0.153606 0.366866,0.3430882 z"
           sodipodi:nodetypes="sssss" /><path
           id="path24"
           style="fill:#9d1604;fill-opacity:1;stroke:#300702;stroke-width:0.192;stroke-opacity:1"
           d="m 28.357427,0.89338797 c 0,0.18948213 0.220065,0.48720663 0.01745,0.48720693 -0.202615,2e-7 -0.751184,-0.2977244 -0.751184,-0.48720693 0,-0.18948251 0.164252,-0.34308838 0.366867,-0.34308815 0.202615,2.9e-7 0.366866,0.153606 0.366867,0.34308815 z"
           sodipodi:nodetypes="sssss" /><path
           id="path25"
           style="fill:#9d1604;fill-opacity:1;stroke:#300702;stroke-width:0.192;stroke-opacity:1"
           d="m 29.960769,0.80506825 c 0,0.18948215 -0.471705,0.48720665 -0.674319,0.48720695 -0.202615,2e-7 -0.05941,-0.29772444 -0.05941,-0.48720695 0,-0.18948251 0.164252,-0.34308838 0.366867,-0.34308815 0.202615,2.9e-7 0.366866,0.153606 0.366866,0.34308815 z"
           sodipodi:nodetypes="sssss" /><path
           id="path26"
           style="fill:#9d1604;fill-opacity:1;stroke:#300702;stroke-width:0.0965249;stroke-opacity:1"
           d="m 29.044968,1.3211899 c 0,0.097872 -0.06157,0.3360203 -0.160706,0.3360204 -0.09914,1e-7 -0.198318,-0.2381481 -0.198318,-0.3360204 0,-0.097872 0.08037,-0.1772134 0.179512,-0.1772133 0.09915,2e-7 0.179512,0.079341 0.179512,0.1772133 z"
           sodipodi:nodetypes="sssss" /><path
           id="path27"
           style="fill:#9d1604;fill-opacity:1;stroke:#300702;stroke-width:0.0784491;stroke-opacity:1"
           d="m 28.149614,0.69865723 c 0.05242,0.0598357 0.142334,0.23840606 0.08174,0.29149337 -0.0606,0.053093 -0.248779,-0.0393931 -0.301199,-0.099229 -0.05242,-0.0598357 -0.04579,-0.15137913 0.01482,-0.2044742 0.06061,-0.053099 0.152226,-0.0476261 0.204647,0.0122098 z"
           sodipodi:nodetypes="sssss" /><path
           id="path28"
           style="fill:#9d1604;fill-opacity:1;stroke:#300702;stroke-width:0.0784491;stroke-opacity:1"
           d="m 29.428341,0.62179387 c -0.05242,0.0598357 -0.142334,0.23840606 -0.08174,0.29149337 0.0606,0.053093 0.248779,-0.0393931 0.301199,-0.099229 0.05242,-0.0598357 0.04579,-0.15137913 -0.01482,-0.2044742 -0.06061,-0.053099 -0.152226,-0.0476261 -0.204647,0.0122098 z"
           sodipodi:nodetypes="sssss" /></g></g><path
       d="m 39.602617,38.136903 c -0.06209,-0.01171 -0.121367,-0.01029 -0.178038,0.0054 l -3.454838,0.959389 c -0.906615,0.251644 -2.660962,0.755812 -2.753164,1.819919 l -0.266517,3.082715 c -0.0922,1.064104 0.155512,3.295699 1.077122,3.301552 l 4.790236,0.0312 c 0.921613,0.0058 2.613346,-1.655463 2.755766,-2.714698 l 0.29882,-2.221315 c 0.133546,-0.99303 -1.338032,-4.088525 -2.26947,-4.264188 z"
       style="fill:#f82020;fill-opacity:1;stroke:#300702;stroke-width:2.08484;stroke-dasharray:none;stroke-opacity:1"
       id="path32" /><path
       d="m 36.637651,40.145415 c 0.02486,-0.01742 0.05096,-0.03126 0.07853,-0.04056 l 1.680849,-0.565723 c 0.441071,-0.148493 1.297729,-0.431334 1.534678,-0.176091 l 0.523251,0.810739 c 0.236948,0.255238 0.529993,0.9885 0.130022,1.207559 l -1.903884,0.973791 c -0.399957,0.219068 -1.443414,0.185902 -1.701312,-0.05622 L 36.438789,41.791272 C 36.197,41.564286 36.264789,40.41113 36.63768,40.145557 Z"
       style="fill:#9d1604;fill-opacity:1;stroke:none;stroke-width:0.638639"
       id="path33"
       sodipodi:nodetypes="ccccccccccc" /><ellipse
       style="fill:#f82020;fill-opacity:1;stroke:none;stroke-width:2.25261;stroke-linecap:round;stroke-linejoin:round;stroke-opacity:1"
       id="path8"
       cx="13.904649"
       cy="75.067764"
       rx="13.079681"
       ry="2.0390284" /><rect
       style="fill:#9d1604;fill-opacity:1;stroke:#300702;stroke-width:1.37856;stroke-opacity:1"
       id="rect2199"
       width="7.4386101"
       height="16.60619"
       x="5.072928"
       y="58.58997"
       ry="2.9220386" /><rect
       style="fill:#9d1604;fill-opacity:1;stroke:#300702;stroke-width:1.4009;stroke-opacity:1"
       id="rect2303"
       width="7.7726536"
       height="16.411533"
       x="14.464947"
       y="58.646381"
       ry="2.8877871" /><path
       id="rect9714"
       style="fill:#9d1604;fill-opacity:1;stroke:#300702;stroke-width:1.93948;stroke-miterlimit:4;stroke-dasharray:none;stroke-opacity:1"
       d="m 3.0589661,40.371209 c -0.8445205,0.110583 -1.5656923,0.553887 -1.8297836,1.205906 l -3.6377319,8.981496 c -0.2109683,0.355203 -0.2089018,0.727079 -0.316467,1.097802 l -0.916726,9.492044 c 0.336192,1.213528 1.7907947,2.208248 3.06442984,2.165816 1.35936489,-0.0051 2.90464036,-0.631175 2.82968946,-2.372005 L 3.0951871,52.213422 C 4.4107493,49.166841 5.624943,46.04978 6.8747528,42.964771 7.2588807,42.016386 6.5264232,40.997015 5.2339243,40.679166 L 4.2556006,40.437977 C 3.8516888,40.338642 3.4428668,40.321058 3.0589848,40.37124 Z"
       sodipodi:nodetypes="ccccccccccccc" /><path
       id="path13"
       style="fill:#f82020;fill-opacity:1;stroke-width:1.39809"
       d="M 3.6787238,50.578491 5.6638328,46.21178 5.1263759,41.083611 0.14040967,51.387225 Z"
       sodipodi:nodetypes="ccccc" /><path
       id="rect10"
       style="fill:#f82020;fill-opacity:1;stroke-width:1.1322"
       d="m 7.8045758,60.879492 h 1.8361198 c 1.2354784,0 2.2301054,1.039504 2.2301054,2.330727 v 8.584258 c 0,1.291223 -0.888304,1.406893 -2.0982996,1.667798 l -2.116206,0.456301 C 6.4463003,74.17948 5.5744692,73.0857 5.5744692,71.794477 v -8.584258 c 0,-1.291223 0.9946281,-2.330727 2.2301066,-2.330727 z"
       sodipodi:nodetypes="sssssssss" /><path
       id="path10"
       style="fill:#f82020;fill-opacity:1;stroke-width:1.1474"
       d="m 17.390269,61.086121 h 1.885722 c 1.268858,0 2.290354,1.039503 2.290354,2.330726 v 8.584259 c 0,1.291222 -0.912303,1.406892 -2.154988,1.667796 l -2.173375,0.456302 c -1.242684,0.260905 -2.138066,-0.832876 -2.138066,-2.124098 v -8.584259 c 0,-1.291223 1.021496,-2.330726 2.290353,-2.330726 z"
       sodipodi:nodetypes="sssssssss" /><path
       id="rect9738"
       style="fill:#9d1604;fill-opacity:1;stroke:#300702;stroke-width:1.34608;stroke-miterlimit:4;stroke-dasharray:none;stroke-opacity:1"
       d="M 4.7641695,40.932359 4.2510878,70.402255 c 0,0 1.7876164,1.82946 2.9408287,1.903298 2.8912955,0.18512 7.4100875,-4.020046 7.4100875,-4.020046 0,0 2.184605,3.798936 4.06081,3.984682 1.774258,0.17564 4.488577,-2.943615 4.488577,-2.943615 -0.865499,-9.378395 -0.7444,-18.257422 -0.606509,-27.127949 z"
       sodipodi:nodetypes="ccscsccc" /><path
       id="rect9"
       style="fill:#f82020;fill-opacity:1;stroke-width:1.51611"
       d="m 7.551802,48.65569 6.110963,-0.373809 -1.122279,18.737559 c -0.08165,1.363069 -4.1422783,1.312049 -6.2246272,-0.39126 z"
       sodipodi:nodetypes="ccscc" /><path
       id="path34"
       style="fill:#f82020;fill-opacity:1;stroke:none;stroke-width:1.03503;stroke-dasharray:none;stroke-opacity:1"
       d="M 4.8498619,70.179573 6.8894432,71.650287 10.297084,42.815939 4.950816,41.948611 Z"
       sodipodi:nodetypes="ccccc" /><path
       id="path9"
       style="fill:#f82020;fill-opacity:1;stroke:none;stroke-width:1.31639;stroke-dasharray:none"
       d="m 21.830786,46.117917 c -0.02027,4.219819 -3.219194,4.929423 -8.340992,4.563824 -4.8353068,-0.345148 -7.4803023,-2.130003 -8.1741926,-4.550312 -1.2052869,-4.204077 3.3268819,-4.348772 8.1741926,-4.348772 4.847319,0 8.362913,-0.203368 8.340992,4.33526 z"
       sodipodi:nodetypes="sssss" /><path
       id="rect2-2"
       style="fill:#590d02;fill-opacity:1;stroke:#300702;stroke-width:1.07816;stroke-dasharray:none;stroke-opacity:1"
       d="m 7.3342038,46.555411 4.3935572,0.511619 -0.4538,18.458289 -7.3598815,-0.926358 z"
       sodipodi:nodetypes="ccccc" /><path
       id="path35"
       style="fill:#9d1604;fill-opacity:1;stroke:none;stroke-width:1.07816;stroke-dasharray:none;stroke-opacity:1"
       d="M 8.1564353,44.859923 9.9267346,45.017036 8.2788565,60.345828 4.7363111,62.903464 Z"
       sodipodi:nodetypes="ccccc" /><path
       id="ellipse1"
       style="fill:#9d1604;fill-opacity:1;stroke:#300702;stroke-width:1.46358;stroke-dasharray:none;stroke-opacity:1"
       d="m 22.798257,43.343841 c -0.703969,2.723386 -3.783943,4.693413 -9.121419,4.693413 -5.3374685,0 -8.2367049,-2.391152 -9.0007603,-5.108201 -1.327163,-4.719511 3.6632927,-4.881947 9.0007603,-4.881947 5.337476,0 10.448585,0.162436 9.121419,5.296735 z"
       sodipodi:nodetypes="sssss" /><path
       id="path6"
       style="fill:#f92d11;fill-opacity:1;stroke:none;stroke-width:1.06514;stroke-dasharray:none"
       d="m 17.651293,43.045245 c -0.482046,2.106482 -2.591068,3.630255 -6.245927,3.630255 -3.6548501,0 -5.6401153,-1.849506 -6.1633044,-3.951083 -0.9087796,-3.650439 2.5084543,-3.776085 6.1633044,-3.776085 3.654859,0 7.154707,0.125636 6.245927,4.096913 z"
       sodipodi:nodetypes="sssss" /><path
       id="path2"
       style="fill:#f82020;fill-opacity:1;stroke:none;stroke-width:0.997188;stroke-dasharray:none"
       d="m 22.031024,42.629153 c -0.476567,1.867501 -2.561626,3.218403 -6.174959,3.218403 -3.613324,0 -5.576032,-1.639678 -6.0932774,-3.502833 -0.8984532,-3.236296 2.4799534,-3.347687 6.0932774,-3.347687 3.613333,0 7.073413,0.111391 6.174959,3.632117 z"
       sodipodi:nodetypes="sssss" /><ellipse
       style="fill:#9d1604;fill-opacity:1;stroke:#300702;stroke-width:0.757032;stroke-miterlimit:4;stroke-dasharray:none;stroke-opacity:1"
       id="path11105"
       cx="13.852925"
       cy="39.859718"
       rx="6.1908031"
       ry="4.860549" /><path
       id="ellipse2"
       style="fill:#590d02;fill-opacity:1;stroke-width:0.669742"
       d="m 19.870065,38.899211 c 0.20946,3.273731 -3.887419,4.076363 -7.439615,4.422075 -3.2303407,0.314384 -4.4808031,-1.745787 -4.4808041,-3.959399 1e-6,-2.213612 2.6788931,-4.105507 5.9241261,-4.105507 3.245234,0 5.854966,1.433846 5.996293,3.642831 z"
       sodipodi:nodetypes="sssss" /><path
       id="rect8"
       style="fill:#f82020;fill-opacity:1;stroke-width:1.39809"
       d="M 3.9408878,49.935736 3.0252082,52.353091 1.2585779,60.894198 0.13118118,51.28162 Z"
       sodipodi:nodetypes="ccccc" /><ellipse
       style="fill:#9d1604;fill-opacity:1;stroke:#300702;stroke-width:2.24196;stroke-miterlimit:4;stroke-dasharray:none;stroke-opacity:1"
       id="path9279"
       cx="14.06626"
       cy="25.276125"
       rx="14.999629"
       ry="15.088987" /><ellipse
       style="fill:#f92d11;fill-opacity:1;stroke:none;stroke-width:0.720641;stroke-miterlimit:4;stroke-dasharray:none;stroke-opacity:1"
       id="ellipse9379"
       cx="14.181946"
       cy="23.744076"
       rx="11.87331"
       ry="12.221011" /><ellipse
       style="fill:#f95843;fill-opacity:1;stroke:none;stroke-width:1.46304;stroke-dasharray:none;stroke-opacity:1"
       id="path11"
       cx="1.0851216"
       cy="27.548267"
       rx="5.289526"
       ry="7.0982962"
       transform="matrix(0.71118112,-0.70300883,0.67796235,0.73509663,0,0)" /><path
       id="path9421"
       style="fill:#f92d11;fill-opacity:1;stroke:#300702;stroke-width:1.42874996;stroke-miterlimit:4;stroke-dasharray:none;stroke-opacity:1"
       d="m 4.310071,21.715209 c -0.5269389,1.042277 -0.8080845,2.266341 -0.8080985,3.518344 2.347e-4,3.50702 2.1599611,6.349868 4.8240578,6.34991 2.6640967,-4.2e-5 4.8238227,-2.84289 4.8240577,-6.34991 -1.3e-5,-1.252001 -0.281159,-2.476066 -0.808096,-3.518344 -2.7996088,-0.589141 -5.4917416,-0.680306 -8.031921,0 z"
       sodipodi:nodetypes="cccccc" /><path
       id="path3"
       style="fill:#f92d11;fill-opacity:1;stroke:#300702;stroke-width:1.42874996;stroke-miterlimit:4;stroke-dasharray:none;stroke-opacity:1"
       d="m 15.846766,21.50926 c -0.526938,1.042277 -0.808083,2.266341 -0.808096,3.518343 2.34e-4,3.507019 2.15996,6.349868 4.824056,6.34991 2.664095,-4.2e-5 4.823821,-2.842891 4.824056,-6.34991 -1.4e-5,-1.252002 -0.281159,-2.476066 -0.808097,-3.518343 -4.883007,-1.193375 -5.847761,-0.266814 -8.031919,0 z"
       sodipodi:nodetypes="cccccc" /><path
       id="path14"
       style="fill:#9d1604;fill-opacity:1;stroke:none;stroke-width:0.898342;stroke-miterlimit:4;stroke-dasharray:none;stroke-opacity:1"
       d="m 4.7148534,22.309142 a 4.2249052,5.5900666 0 0 0 -0.7077233,3.09706 4.2249052,5.5900666 0 0 0 4.2248546,5.589575 4.2249052,5.5900666 0 0 0 3.4337233,-2.33407 5.449681,5.1276277 0 0 1 -1.621449,0.232798 5.449681,5.1276277 0 0 1 -5.4494657,-5.127636 5.449681,5.1276277 0 0 1 0.2249556,-1.457727 z" /><path
       id="path5"
       style="fill:#9d1604;fill-opacity:1;stroke:none;stroke-width:0.898342;stroke-miterlimit:4;stroke-dasharray:none;stroke-opacity:1"
       d="m 16.249426,22.090701 a 4.2249052,5.5900666 0 0 0 -0.707722,3.097058 4.2249052,5.5900666 0 0 0 4.224853,5.589574 4.2249052,5.5900666 0 0 0 3.433722,-2.334067 5.449681,5.1276277 0 0 1 -1.62145,0.232799 5.449681,5.1276277 0 0 1 -5.449462,-5.127637 5.449681,5.1276277 0 0 1 0.224957,-1.457727 z" /><ellipse
       style="fill:#f82020;fill-opacity:1;stroke:none;stroke-width:1.05629;stroke-linecap:round;stroke-linejoin:round;stroke-opacity:1"
       id="ellipse3"
       cx="34.313156"
       cy="75.926292"
       rx="6.557374"
       ry="0.89431077" /><path
       style="fill:#6c5500;fill-opacity:1;stroke:#443400;stroke-width:2.16403;stroke-linecap:round;stroke-linejoin:round;stroke-dasharray:none;stroke-opacity:1"
       d="m 63.215345,57.699912 12.727922,-5.409366 c 2.153342,0.956502 2.475224,2.509293 1.59099,4.454773 l -15.379573,7.742817 z"
       id="path7"
       sodipodi:nodetypes="ccccc" /><path
       style="fill:#f7c100;fill-opacity:1;stroke:#443400;stroke-width:2.16403;stroke-linecap:round;stroke-linejoin:round;stroke-dasharray:none;stroke-opacity:1"
       d="m 48.599998,54.149998 0.15,-6.599999 6.450002,-5.849998 2.924998,-0.675003 1.65,0.600001 L 60.975,43.05 l -0.15,2.024999 z"
       id="path16" /><path
       style="fill:#f7c100;fill-opacity:1;stroke:#443400;stroke-width:2.16403;stroke-linecap:round;stroke-linejoin:round;stroke-dasharray:none;stroke-opacity:1"
       d="m 61.115345,46.224912 12.727922,-5.409366 c 2.153342,0.956502 2.475224,2.509293 1.59099,4.454773 l -15.379573,7.742817 z"
       id="path29"
       sodipodi:nodetypes="ccccc" /><path
       style="fill:#6c5500;fill-opacity:1;stroke:#443400;stroke-width:2.16403;stroke-linecap:round;stroke-linejoin:round;stroke-dasharray:none;stroke-opacity:1"
       d="m 67.565345,48.624912 12.727922,-5.409366 c 2.153342,0.956502 2.475224,2.509293 1.59099,4.454773 l -15.379573,7.742817 z"
       id="path30"
       sodipodi:nodetypes="ccccc" /><path
       style="fill:#6c5500;fill-opacity:1;stroke:#443400;stroke-width:2.13726;stroke-linecap:round;stroke-linejoin:round;stroke-dasharray:none;stroke-opacity:1"
       d="m 47.986617,53.174768 8.614641,-6.087533 5.256391,-0.300619 7.081526,2.555259 2.774206,4.283819 -10.220758,6.162688 z"
       id="path12" /><path
       style="fill:#a17e00;fill-opacity:1;stroke:none;stroke-width:2.16403;stroke-linecap:round;stroke-linejoin:round;stroke-dasharray:none;stroke-opacity:1"
       d="m 59.290902,53.351204 8.697415,-3.235012 -6.257896,-2.333453 -4.826003,0.212132 -2.96985,2.121321 z"
       id="path31" /><path
       style="fill:#f7c100;fill-opacity:1;stroke:none;stroke-width:2.16403;stroke-linecap:round;stroke-linejoin:round;stroke-dasharray:none;stroke-opacity:1"
       d="m 53.908833,50.019225 3.791079,1.263694 4.083542,-3.50018 -4.822234,0.20303 z"
       id="path36"
       sodipodi:nodetypes="ccccc" /><ellipse
       style="fill:#f82020;fill-opacity:1;stroke:none;stroke-width:2.42618;stroke-linecap:round;stroke-linejoin:round;stroke-dasharray:none;stroke-opacity:1"
       id="path37"
       cx="59.025734"
       cy="68.412582"
       rx="14.371945"
       ry="3.1819804" /><ellipse
       style="fill:#6c5500;fill-opacity:1;stroke:#443400;stroke-width:2.48462;stroke-linecap:round;stroke-linejoin:round;stroke-dasharray:none;stroke-opacity:1"
       id="path4"
       cx="53.727486"
       cy="60.009556"
       rx="9.5280304"
       ry="8.9810638" /><ellipse
       style="fill:#a17e00;fill-opacity:1;stroke:none;stroke-width:1.70526;stroke-linecap:round;stroke-linejoin:round;stroke-dasharray:none;stroke-opacity:1"
       id="ellipse31"
       cx="-17.817358"
       cy="79.264053"
       rx="7.4127803"
       ry="5.4376521"
       transform="matrix(0.69825274,-0.71585132,0.81711294,0.57647762,0,0)" /><ellipse
       style="fill:#f7c100;fill-opacity:1;stroke:none;stroke-width:1.33546;stroke-linecap:round;stroke-linejoin:round;stroke-dasharray:none;stroke-opacity:1"
       id="ellipse30"
       cx="-11.31462"
       cy="75.752625"
       rx="5.9067678"
       ry="4.1852875"
       transform="matrix(0.62820768,-0.7780457,0.76107515,0.64866372,0,0)" /><path
       style="fill:none;fill-opacity:1;stroke:#300702;stroke-width:1.42875;stroke-linecap:round;stroke-linejoin:round;stroke-dasharray:none;stroke-opacity:1"
       d="m 11.332331,36.181757 c 4.983932,1.158063 6.982448,-0.324707 9.430877,-1.409493"
       id="path1"
       sodipodi:nodetypes="cc" /></g></svg>
