<?xml version="1.0" encoding="UTF-8" standalone="no"?>
<!-- Created with Inkscape (http://www.inkscape.org/) -->

<svg
   width="300"
   height="300"
   viewBox="0 0 79.374998 79.374998"
   version="1.1"
   id="svg1"
   xml:space="preserve"
   sodipodi:docname="hexopodaTale[3].svg"
   inkscape:version="1.4.2 (ebf0e940d0, 2025-05-08)"
   xmlns:inkscape="http://www.inkscape.org/namespaces/inkscape"
   xmlns:sodipodi="http://sodipodi.sourceforge.net/DTD/sodipodi-0.dtd"
   xmlns="http://www.w3.org/2000/svg"
   xmlns:svg="http://www.w3.org/2000/svg"><sodipodi:namedview
     id="namedview1"
     pagecolor="#505050"
     bordercolor="#eeeeee"
     borderopacity="1"
     inkscape:showpageshadow="0"
     inkscape:pageopacity="0"
     inkscape:pagecheckerboard="0"
     inkscape:deskcolor="#505050"
     inkscape:document-units="px"
     inkscape:zoom="1.7638889"
     inkscape:cx="170.3622"
     inkscape:cy="147.68504"
     inkscape:window-width="1366"
     inkscape:window-height="697"
     inkscape:window-x="0"
     inkscape:window-y="0"
     inkscape:window-maximized="1"
     inkscape:current-layer="layer1"
     showguides="false" /><defs
     id="defs1"><rect
       x="78.572369"
       y="101.82338"
       width="107.43569"
       height="93.805787"
       id="rect2" /><inkscape:path-effect
       effect="fillet_chamfer"
       id="path-effect68"
       is_visible="true"
       lpeversion="1"
       nodesatellites_param="F,0,0,1,0,0,0,1 @ F,0,0,1,0,0,0,1 @ F,0,0,1,0,0,0,1 @ F,0,0,1,0,0,0,1 @ F,0,0,1,0,0,0,1 @ F,0,0,1,0,0,0,1 @ F,0,0,1,0,0,0,1 @ F,0,0,1,0,0,0,1 @ F,0,0,1,0,0,0,1"
       radius="0"
       unit="px"
       method="auto"
       mode="F"
       chamfer_steps="1"
       flexible="false"
       use_knot_distance="true"
       apply_no_radius="true"
       apply_with_radius="true"
       only_selected="false"
       hide_knots="false" /><inkscape:path-effect
       effect="fillet_chamfer"
       id="path-effect66"
       is_visible="true"
       lpeversion="1"
       nodesatellites_param="F,0,0,1,0,0,0,1 @ F,0,0,1,0,0.44929322,0,1 @ F,0,0,1,0,0.44929322,0,1 @ F,0,0,1,0,0,0,1 @ F,0,0,1,0,0,0,1 @ F,0,0,1,0,0,0,1 @ F,0,0,1,0,0,0,1 @ F,0,0,1,0,0,0,1 @ F,0,0,1,0,0,0,1 @ F,0,0,1,0,0,0,1"
       radius="0"
       unit="px"
       method="auto"
       mode="F"
       chamfer_steps="1"
       flexible="false"
       use_knot_distance="true"
       apply_no_radius="true"
       apply_with_radius="true"
       only_selected="false"
       hide_knots="false" /><inkscape:path-effect
       effect="fillet_chamfer"
       id="path-effect68-3"
       is_visible="true"
       lpeversion="1"
       nodesatellites_param="F,0,0,1,0,0,0,1 @ F,0,0,1,0,0,0,1 @ F,0,0,1,0,0,0,1 @ F,0,0,1,0,0,0,1 @ F,0,0,1,0,0,0,1 @ F,0,0,1,0,0,0,1 @ F,0,0,1,0,0,0,1 @ F,0,0,1,0,0,0,1 @ F,0,0,1,0,0,0,1"
       radius="0"
       unit="px"
       method="auto"
       mode="F"
       chamfer_steps="1"
       flexible="false"
       use_knot_distance="true"
       apply_no_radius="true"
       apply_with_radius="true"
       only_selected="false"
       hide_knots="false" /><inkscape:path-effect
       effect="fillet_chamfer"
       id="path-effect66-6"
       is_visible="true"
       lpeversion="1"
       nodesatellites_param="F,0,0,1,0,0,0,1 @ F,0,0,1,0,0.44929322,0,1 @ F,0,0,1,0,0.44929322,0,1 @ F,0,0,1,0,0,0,1 @ F,0,0,1,0,0,0,1 @ F,0,0,1,0,0,0,1 @ F,0,0,1,0,0,0,1 @ F,0,0,1,0,0,0,1 @ F,0,0,1,0,0,0,1 @ F,0,0,1,0,0,0,1"
       radius="0"
       unit="px"
       method="auto"
       mode="F"
       chamfer_steps="1"
       flexible="false"
       use_knot_distance="true"
       apply_no_radius="true"
       apply_with_radius="true"
       only_selected="false"
       hide_knots="false" /><inkscape:path-effect
       effect="fillet_chamfer"
       id="path-effect68-36"
       is_visible="true"
       lpeversion="1"
       nodesatellites_param="F,0,0,1,0,0,0,1 @ F,0,0,1,0,0,0,1 @ F,0,0,1,0,0,0,1 @ F,0,0,1,0,0,0,1 @ F,0,0,1,0,0,0,1 @ F,0,0,1,0,0,0,1 @ F,0,0,1,0,0,0,1 @ F,0,0,1,0,0,0,1 @ F,0,0,1,0,0,0,1"
       radius="0"
       unit="px"
       method="auto"
       mode="F"
       chamfer_steps="1"
       flexible="false"
       use_knot_distance="true"
       apply_no_radius="true"
       apply_with_radius="true"
       only_selected="false"
       hide_knots="false" /><inkscape:path-effect
       effect="fillet_chamfer"
       id="path-effect66-7"
       is_visible="true"
       lpeversion="1"
       nodesatellites_param="F,0,0,1,0,0,0,1 @ F,0,0,1,0,0.44929322,0,1 @ F,0,0,1,0,0.44929322,0,1 @ F,0,0,1,0,0,0,1 @ F,0,0,1,0,0,0,1 @ F,0,0,1,0,0,0,1 @ F,0,0,1,0,0,0,1 @ F,0,0,1,0,0,0,1 @ F,0,0,1,0,0,0,1 @ F,0,0,1,0,0,0,1"
       radius="0"
       unit="px"
       method="auto"
       mode="F"
       chamfer_steps="1"
       flexible="false"
       use_knot_distance="true"
       apply_no_radius="true"
       apply_with_radius="true"
       only_selected="false"
       hide_knots="false" /><linearGradient
       id="linearGradient13895"
       inkscape:swatch="solid"><stop
         style="stop-color:#000000;stop-opacity:1;"
         offset="0"
         id="stop13893" /></linearGradient><filter
       style="color-interpolation-filters:sRGB"
       inkscape:label="Clean Edges"
       id="filter14269"
       x="-0.31154084"
       y="-0.29580635"
       width="1.6230817"
       height="1.5916127"><feGaussianBlur
         stdDeviation="0.204612"
         result="blur"
         id="feGaussianBlur14263" /><feComposite
         in="SourceGraphic"
         in2="blur"
         operator="in"
         result="composite1"
         id="feComposite14265" /><feComposite
         in="composite1"
         in2="composite1"
         operator="in"
         result="composite2"
         id="feComposite14267" /></filter><filter
       style="color-interpolation-filters:sRGB"
       inkscape:label="Clean Edges"
       id="filter14269-9"
       x="-0.31154084"
       y="-0.29580635"
       width="1.6230817"
       height="1.5916127"><feGaussianBlur
         stdDeviation="0.204612"
         result="blur"
         id="feGaussianBlur14263-1" /><feComposite
         in="SourceGraphic"
         in2="blur"
         operator="in"
         result="composite1"
         id="feComposite14265-27" /><feComposite
         in="composite1"
         in2="composite1"
         operator="in"
         result="composite2"
         id="feComposite14267-0" /></filter><inkscape:path-effect
       effect="fillet_chamfer"
       id="path-effect68-9"
       is_visible="true"
       lpeversion="1"
       nodesatellites_param="F,0,0,1,0,0,0,1 @ F,0,0,1,0,0,0,1 @ F,0,0,1,0,0,0,1 @ F,0,0,1,0,0,0,1 @ F,0,0,1,0,0,0,1 @ F,0,0,1,0,0,0,1 @ F,0,0,1,0,0,0,1 @ F,0,0,1,0,0,0,1 @ F,0,0,1,0,0,0,1"
       radius="0"
       unit="px"
       method="auto"
       mode="F"
       chamfer_steps="1"
       flexible="false"
       use_knot_distance="true"
       apply_no_radius="true"
       apply_with_radius="true"
       only_selected="false"
       hide_knots="false" /><inkscape:path-effect
       effect="fillet_chamfer"
       id="path-effect66-3"
       is_visible="true"
       lpeversion="1"
       nodesatellites_param="F,0,0,1,0,0,0,1 @ F,0,0,1,0,0.44929322,0,1 @ F,0,0,1,0,0.44929322,0,1 @ F,0,0,1,0,0,0,1 @ F,0,0,1,0,0,0,1 @ F,0,0,1,0,0,0,1 @ F,0,0,1,0,0,0,1 @ F,0,0,1,0,0,0,1 @ F,0,0,1,0,0,0,1 @ F,0,0,1,0,0,0,1"
       radius="0"
       unit="px"
       method="auto"
       mode="F"
       chamfer_steps="1"
       flexible="false"
       use_knot_distance="true"
       apply_no_radius="true"
       apply_with_radius="true"
       only_selected="false"
       hide_knots="false" /><inkscape:path-effect
       effect="fillet_chamfer"
       id="path-effect68-7"
       is_visible="true"
       lpeversion="1"
       nodesatellites_param="F,0,0,1,0,0,0,1 @ F,0,0,1,0,0,0,1 @ F,0,0,1,0,0,0,1 @ F,0,0,1,0,0,0,1 @ F,0,0,1,0,0,0,1 @ F,0,0,1,0,0,0,1 @ F,0,0,1,0,0,0,1 @ F,0,0,1,0,0,0,1 @ F,0,0,1,0,0,0,1"
       radius="0"
       unit="px"
       method="auto"
       mode="F"
       chamfer_steps="1"
       flexible="false"
       use_knot_distance="true"
       apply_no_radius="true"
       apply_with_radius="true"
       only_selected="false"
       hide_knots="false" /><inkscape:path-effect
       effect="fillet_chamfer"
       id="path-effect66-5"
       is_visible="true"
       lpeversion="1"
       nodesatellites_param="F,0,0,1,0,0,0,1 @ F,0,0,1,0,0.44929322,0,1 @ F,0,0,1,0,0.44929322,0,1 @ F,0,0,1,0,0,0,1 @ F,0,0,1,0,0,0,1 @ F,0,0,1,0,0,0,1 @ F,0,0,1,0,0,0,1 @ F,0,0,1,0,0,0,1 @ F,0,0,1,0,0,0,1 @ F,0,0,1,0,0,0,1"
       radius="0"
       unit="px"
       method="auto"
       mode="F"
       chamfer_steps="1"
       flexible="false"
       use_knot_distance="true"
       apply_no_radius="true"
       apply_with_radius="true"
       only_selected="false"
       hide_knots="false" /><inkscape:path-effect
       effect="fillet_chamfer"
       id="path-effect68-3-6"
       is_visible="true"
       lpeversion="1"
       nodesatellites_param="F,0,0,1,0,0,0,1 @ F,0,0,1,0,0,0,1 @ F,0,0,1,0,0,0,1 @ F,0,0,1,0,0,0,1 @ F,0,0,1,0,0,0,1 @ F,0,0,1,0,0,0,1 @ F,0,0,1,0,0,0,1 @ F,0,0,1,0,0,0,1 @ F,0,0,1,0,0,0,1"
       radius="0"
       unit="px"
       method="auto"
       mode="F"
       chamfer_steps="1"
       flexible="false"
       use_knot_distance="true"
       apply_no_radius="true"
       apply_with_radius="true"
       only_selected="false"
       hide_knots="false" /><inkscape:path-effect
       effect="fillet_chamfer"
       id="path-effect66-6-0"
       is_visible="true"
       lpeversion="1"
       nodesatellites_param="F,0,0,1,0,0,0,1 @ F,0,0,1,0,0.44929322,0,1 @ F,0,0,1,0,0.44929322,0,1 @ F,0,0,1,0,0,0,1 @ F,0,0,1,0,0,0,1 @ F,0,0,1,0,0,0,1 @ F,0,0,1,0,0,0,1 @ F,0,0,1,0,0,0,1 @ F,0,0,1,0,0,0,1 @ F,0,0,1,0,0,0,1"
       radius="0"
       unit="px"
       method="auto"
       mode="F"
       chamfer_steps="1"
       flexible="false"
       use_knot_distance="true"
       apply_no_radius="true"
       apply_with_radius="true"
       only_selected="false"
       hide_knots="false" /><filter
       style="color-interpolation-filters:sRGB"
       inkscape:label="Clean Edges"
       id="filter14269-5"
       x="-0.31154084"
       y="-0.29580635"
       width="1.6230817"
       height="1.5916127"><feGaussianBlur
         stdDeviation="0.204612"
         result="blur"
         id="feGaussianBlur14263-6" /><feComposite
         in="SourceGraphic"
         in2="blur"
         operator="in"
         result="composite1"
         id="feComposite14265-2" /><feComposite
         in="composite1"
         in2="composite1"
         operator="in"
         result="composite2"
         id="feComposite14267-9" /></filter><filter
       style="color-interpolation-filters:sRGB"
       inkscape:label="Clean Edges"
       id="filter14269-3"
       x="-0.31154084"
       y="-0.29580635"
       width="1.6230817"
       height="1.5916127"><feGaussianBlur
         stdDeviation="0.204612"
         result="blur"
         id="feGaussianBlur14263-7" /><feComposite
         in="SourceGraphic"
         in2="blur"
         operator="in"
         result="composite1"
         id="feComposite14265-5" /><feComposite
         in="composite1"
         in2="composite1"
         operator="in"
         result="composite2"
         id="feComposite14267-92" /></filter><inkscape:path-effect
       effect="fillet_chamfer"
       id="path-effect68-2"
       is_visible="true"
       lpeversion="1"
       nodesatellites_param="F,0,0,1,0,0,0,1 @ F,0,0,1,0,0,0,1 @ F,0,0,1,0,0,0,1 @ F,0,0,1,0,0,0,1 @ F,0,0,1,0,0,0,1 @ F,0,0,1,0,0,0,1 @ F,0,0,1,0,0,0,1 @ F,0,0,1,0,0,0,1 @ F,0,0,1,0,0,0,1"
       radius="0"
       unit="px"
       method="auto"
       mode="F"
       chamfer_steps="1"
       flexible="false"
       use_knot_distance="true"
       apply_no_radius="true"
       apply_with_radius="true"
       only_selected="false"
       hide_knots="false" /><inkscape:path-effect
       effect="fillet_chamfer"
       id="path-effect66-8"
       is_visible="true"
       lpeversion="1"
       nodesatellites_param="F,0,0,1,0,0,0,1 @ F,0,0,1,0,0.44929322,0,1 @ F,0,0,1,0,0.44929322,0,1 @ F,0,0,1,0,0,0,1 @ F,0,0,1,0,0,0,1 @ F,0,0,1,0,0,0,1 @ F,0,0,1,0,0,0,1 @ F,0,0,1,0,0,0,1 @ F,0,0,1,0,0,0,1 @ F,0,0,1,0,0,0,1"
       radius="0"
       unit="px"
       method="auto"
       mode="F"
       chamfer_steps="1"
       flexible="false"
       use_knot_distance="true"
       apply_no_radius="true"
       apply_with_radius="true"
       only_selected="false"
       hide_knots="false" /><inkscape:path-effect
       effect="fillet_chamfer"
       id="path-effect68-5"
       is_visible="true"
       lpeversion="1"
       nodesatellites_param="F,0,0,1,0,0,0,1 @ F,0,0,1,0,0,0,1 @ F,0,0,1,0,0,0,1 @ F,0,0,1,0,0,0,1 @ F,0,0,1,0,0,0,1 @ F,0,0,1,0,0,0,1 @ F,0,0,1,0,0,0,1 @ F,0,0,1,0,0,0,1 @ F,0,0,1,0,0,0,1"
       radius="0"
       unit="px"
       method="auto"
       mode="F"
       chamfer_steps="1"
       flexible="false"
       use_knot_distance="true"
       apply_no_radius="true"
       apply_with_radius="true"
       only_selected="false"
       hide_knots="false" /><inkscape:path-effect
       effect="fillet_chamfer"
       id="path-effect66-35"
       is_visible="true"
       lpeversion="1"
       nodesatellites_param="F,0,0,1,0,0,0,1 @ F,0,0,1,0,0.44929322,0,1 @ F,0,0,1,0,0.44929322,0,1 @ F,0,0,1,0,0,0,1 @ F,0,0,1,0,0,0,1 @ F,0,0,1,0,0,0,1 @ F,0,0,1,0,0,0,1 @ F,0,0,1,0,0,0,1 @ F,0,0,1,0,0,0,1 @ F,0,0,1,0,0,0,1"
       radius="0"
       unit="px"
       method="auto"
       mode="F"
       chamfer_steps="1"
       flexible="false"
       use_knot_distance="true"
       apply_no_radius="true"
       apply_with_radius="true"
       only_selected="false"
       hide_knots="false" /><inkscape:path-effect
       effect="fillet_chamfer"
       id="path-effect68-3-62"
       is_visible="true"
       lpeversion="1"
       nodesatellites_param="F,0,0,1,0,0,0,1 @ F,0,0,1,0,0,0,1 @ F,0,0,1,0,0,0,1 @ F,0,0,1,0,0,0,1 @ F,0,0,1,0,0,0,1 @ F,0,0,1,0,0,0,1 @ F,0,0,1,0,0,0,1 @ F,0,0,1,0,0,0,1 @ F,0,0,1,0,0,0,1"
       radius="0"
       unit="px"
       method="auto"
       mode="F"
       chamfer_steps="1"
       flexible="false"
       use_knot_distance="true"
       apply_no_radius="true"
       apply_with_radius="true"
       only_selected="false"
       hide_knots="false" /><inkscape:path-effect
       effect="fillet_chamfer"
       id="path-effect66-6-9"
       is_visible="true"
       lpeversion="1"
       nodesatellites_param="F,0,0,1,0,0,0,1 @ F,0,0,1,0,0.44929322,0,1 @ F,0,0,1,0,0.44929322,0,1 @ F,0,0,1,0,0,0,1 @ F,0,0,1,0,0,0,1 @ F,0,0,1,0,0,0,1 @ F,0,0,1,0,0,0,1 @ F,0,0,1,0,0,0,1 @ F,0,0,1,0,0,0,1 @ F,0,0,1,0,0,0,1"
       radius="0"
       unit="px"
       method="auto"
       mode="F"
       chamfer_steps="1"
       flexible="false"
       use_knot_distance="true"
       apply_no_radius="true"
       apply_with_radius="true"
       only_selected="false"
       hide_knots="false" /><inkscape:path-effect
       effect="fillet_chamfer"
       id="path-effect68-36-1"
       is_visible="true"
       lpeversion="1"
       nodesatellites_param="F,0,0,1,0,0,0,1 @ F,0,0,1,0,0,0,1 @ F,0,0,1,0,0,0,1 @ F,0,0,1,0,0,0,1 @ F,0,0,1,0,0,0,1 @ F,0,0,1,0,0,0,1 @ F,0,0,1,0,0,0,1 @ F,0,0,1,0,0,0,1 @ F,0,0,1,0,0,0,1"
       radius="0"
       unit="px"
       method="auto"
       mode="F"
       chamfer_steps="1"
       flexible="false"
       use_knot_distance="true"
       apply_no_radius="true"
       apply_with_radius="true"
       only_selected="false"
       hide_knots="false" /><inkscape:path-effect
       effect="fillet_chamfer"
       id="path-effect66-7-2"
       is_visible="true"
       lpeversion="1"
       nodesatellites_param="F,0,0,1,0,0,0,1 @ F,0,0,1,0,0.44929322,0,1 @ F,0,0,1,0,0.44929322,0,1 @ F,0,0,1,0,0,0,1 @ F,0,0,1,0,0,0,1 @ F,0,0,1,0,0,0,1 @ F,0,0,1,0,0,0,1 @ F,0,0,1,0,0,0,1 @ F,0,0,1,0,0,0,1 @ F,0,0,1,0,0,0,1"
       radius="0"
       unit="px"
       method="auto"
       mode="F"
       chamfer_steps="1"
       flexible="false"
       use_knot_distance="true"
       apply_no_radius="true"
       apply_with_radius="true"
       only_selected="false"
       hide_knots="false" /><inkscape:path-effect
       effect="fillet_chamfer"
       id="path-effect68-53"
       is_visible="true"
       lpeversion="1"
       nodesatellites_param="F,0,0,1,0,0,0,1 @ F,0,0,1,0,0,0,1 @ F,0,0,1,0,0,0,1 @ F,0,0,1,0,0,0,1 @ F,0,0,1,0,0,0,1 @ F,0,0,1,0,0,0,1 @ F,0,0,1,0,0,0,1 @ F,0,0,1,0,0,0,1 @ F,0,0,1,0,0,0,1"
       radius="0"
       unit="px"
       method="auto"
       mode="F"
       chamfer_steps="1"
       flexible="false"
       use_knot_distance="true"
       apply_no_radius="true"
       apply_with_radius="true"
       only_selected="false"
       hide_knots="false" /><inkscape:path-effect
       effect="fillet_chamfer"
       id="path-effect66-56"
       is_visible="true"
       lpeversion="1"
       nodesatellites_param="F,0,0,1,0,0,0,1 @ F,0,0,1,0,0.44929322,0,1 @ F,0,0,1,0,0.44929322,0,1 @ F,0,0,1,0,0,0,1 @ F,0,0,1,0,0,0,1 @ F,0,0,1,0,0,0,1 @ F,0,0,1,0,0,0,1 @ F,0,0,1,0,0,0,1 @ F,0,0,1,0,0,0,1 @ F,0,0,1,0,0,0,1"
       radius="0"
       unit="px"
       method="auto"
       mode="F"
       chamfer_steps="1"
       flexible="false"
       use_knot_distance="true"
       apply_no_radius="true"
       apply_with_radius="true"
       only_selected="false"
       hide_knots="false" /><inkscape:path-effect
       effect="fillet_chamfer"
       id="path-effect68-3-2"
       is_visible="true"
       lpeversion="1"
       nodesatellites_param="F,0,0,1,0,0,0,1 @ F,0,0,1,0,0,0,1 @ F,0,0,1,0,0,0,1 @ F,0,0,1,0,0,0,1 @ F,0,0,1,0,0,0,1 @ F,0,0,1,0,0,0,1 @ F,0,0,1,0,0,0,1 @ F,0,0,1,0,0,0,1 @ F,0,0,1,0,0,0,1"
       radius="0"
       unit="px"
       method="auto"
       mode="F"
       chamfer_steps="1"
       flexible="false"
       use_knot_distance="true"
       apply_no_radius="true"
       apply_with_radius="true"
       only_selected="false"
       hide_knots="false" /><inkscape:path-effect
       effect="fillet_chamfer"
       id="path-effect66-6-91"
       is_visible="true"
       lpeversion="1"
       nodesatellites_param="F,0,0,1,0,0,0,1 @ F,0,0,1,0,0.44929322,0,1 @ F,0,0,1,0,0.44929322,0,1 @ F,0,0,1,0,0,0,1 @ F,0,0,1,0,0,0,1 @ F,0,0,1,0,0,0,1 @ F,0,0,1,0,0,0,1 @ F,0,0,1,0,0,0,1 @ F,0,0,1,0,0,0,1 @ F,0,0,1,0,0,0,1"
       radius="0"
       unit="px"
       method="auto"
       mode="F"
       chamfer_steps="1"
       flexible="false"
       use_knot_distance="true"
       apply_no_radius="true"
       apply_with_radius="true"
       only_selected="false"
       hide_knots="false" /><inkscape:path-effect
       effect="fillet_chamfer"
       id="path-effect68-36-2"
       is_visible="true"
       lpeversion="1"
       nodesatellites_param="F,0,0,1,0,0,0,1 @ F,0,0,1,0,0,0,1 @ F,0,0,1,0,0,0,1 @ F,0,0,1,0,0,0,1 @ F,0,0,1,0,0,0,1 @ F,0,0,1,0,0,0,1 @ F,0,0,1,0,0,0,1 @ F,0,0,1,0,0,0,1 @ F,0,0,1,0,0,0,1"
       radius="0"
       unit="px"
       method="auto"
       mode="F"
       chamfer_steps="1"
       flexible="false"
       use_knot_distance="true"
       apply_no_radius="true"
       apply_with_radius="true"
       only_selected="false"
       hide_knots="false" /><inkscape:path-effect
       effect="fillet_chamfer"
       id="path-effect66-7-7"
       is_visible="true"
       lpeversion="1"
       nodesatellites_param="F,0,0,1,0,0,0,1 @ F,0,0,1,0,0.44929322,0,1 @ F,0,0,1,0,0.44929322,0,1 @ F,0,0,1,0,0,0,1 @ F,0,0,1,0,0,0,1 @ F,0,0,1,0,0,0,1 @ F,0,0,1,0,0,0,1 @ F,0,0,1,0,0,0,1 @ F,0,0,1,0,0,0,1 @ F,0,0,1,0,0,0,1"
       radius="0"
       unit="px"
       method="auto"
       mode="F"
       chamfer_steps="1"
       flexible="false"
       use_knot_distance="true"
       apply_no_radius="true"
       apply_with_radius="true"
       only_selected="false"
       hide_knots="false" /><rect
       x="78.572369"
       y="101.82338"
       width="107.43569"
       height="93.805787"
       id="rect4" /><rect
       x="78.572369"
       y="101.82338"
       width="107.43569"
       height="93.805787"
       id="rect5" /><rect
       x="78.572369"
       y="101.82338"
       width="107.43569"
       height="93.805787"
       id="rect6" /><rect
       x="78.572369"
       y="101.82338"
       width="107.43569"
       height="93.805787"
       id="rect7" /><filter
       style="color-interpolation-filters:sRGB;"
       inkscape:label="Clean Edges"
       id="filter14269-6"
       x="-0.31154084"
       y="-0.29580634"
       width="1.6230817"
       height="1.5916127"><feGaussianBlur
         stdDeviation="0.204612"
         result="blur"
         id="feGaussianBlur14263-75" /><feComposite
         in="SourceGraphic"
         in2="blur"
         operator="in"
         result="composite1"
         id="feComposite14265-3" /><feComposite
         in="composite1"
         in2="composite1"
         operator="in"
         result="composite2"
         id="feComposite14267-5" /></filter><filter
       style="color-interpolation-filters:sRGB;"
       inkscape:label="Clean Edges"
       id="filter14269-67"
       x="-0.31154084"
       y="-0.29580634"
       width="1.6230817"
       height="1.5916127"><feGaussianBlur
         stdDeviation="0.204612"
         result="blur"
         id="feGaussianBlur14263-5" /><feComposite
         in="SourceGraphic"
         in2="blur"
         operator="in"
         result="composite1"
         id="feComposite14265-35" /><feComposite
         in="composite1"
         in2="composite1"
         operator="in"
         result="composite2"
         id="feComposite14267-6" /></filter></defs><g
     inkscape:label="Camada 1"
     inkscape:groupmode="layer"
     id="layer1"><rect
       style="fill:#a17e00;fill-opacity:1;stroke:none;stroke-width:3.79989;stroke-linecap:round;stroke-linejoin:round;stroke-dasharray:none;stroke-opacity:1"
       id="rect1"
       width="82.758202"
       height="83.138725"
       x="-1.794613"
       y="-1.1582168" /><ellipse
       style="fill:#7e6200;fill-opacity:1;stroke:none;stroke-width:2.26983;stroke-linecap:round;stroke-linejoin:round;stroke-dasharray:none;stroke-opacity:1"
       id="ellipse39"
       cx="51.975002"
       cy="7.1999998"
       rx="11.475"
       ry="10.95" /><ellipse
       style="fill:#f7c100;fill-opacity:1;stroke:none;stroke-width:1.77662;stroke-linecap:round;stroke-linejoin:round;stroke-dasharray:none;stroke-opacity:1"
       id="ellipse38"
       cx="51.975002"
       cy="7.125"
       rx="8.9250002"
       ry="8.625" /><ellipse
       style="fill:#322600;fill-opacity:1;stroke:none;stroke-width:5.39952;stroke-linecap:round;stroke-linejoin:round;stroke-dasharray:none;stroke-opacity:1"
       id="ellipse37"
       cx="73.026443"
       cy="56.586224"
       rx="21.902632"
       ry="10.341436" /><ellipse
       style="fill:#ffe795;fill-opacity:1;stroke:none;stroke-width:1.05547;stroke-linecap:round;stroke-linejoin:round;stroke-dasharray:none;stroke-opacity:1"
       id="path38"
       cx="51.975002"
       cy="7.1999998"
       rx="5.1750002"
       ry="5.25" /><g
       id="g3"
       transform="matrix(0.93509789,0,0,0.9539314,65.350614,4.1310205)"><g
         id="g1"
         transform="matrix(0.9898517,0,0,1.0326752,-81.876715,-5.4846232)"><path
           id="path11551"
           style="fill:#322600;fill-opacity:1;stroke:#443400;stroke-width:2.04966;stroke-miterlimit:4;stroke-dasharray:none;stroke-opacity:1"
           d="m 53.802468,45.361498 c -0.290732,1.019886 -0.877721,1.821969 -1.567085,2.019387 l -9.354684,2.73134 c -0.160913,0.0461 -0.600379,-0.460649 -0.749743,-0.482622 -0.220018,0.105814 -0.773635,0.722421 -0.99465,0.620916 l -8.927523,-0.712931 c -0.992167,-0.07781 -1.516588,-1.474057 -1.177095,-3.12928 l 0.255338,-1.252683 c 0.339484,-1.655225 1.412999,-2.924428 2.405166,-2.846604 l 8.642329,0.677908 c 0.0937,-0.05171 0.18907,-0.09245 0.287604,-0.12063 l 9.498029,-2.720986 c 1.0027,-0.287141 1.831031,0.816719 1.85756,2.473288 l 0.02057,1.254009 c 0.0083,0.51768 -0.06371,1.025327 -0.195925,1.488896 z"
           sodipodi:nodetypes="cccccccccccccccc" /><path
           d="m 41.856682,43.85678 c 2.614941,-0.367132 4.579178,-1.379559 4.95381,-1.092619 l 0.429137,0.83228 c 0.288298,0.220814 0.70166,0.913824 0.303415,1.1946 l -1.246356,0.233227 c -0.938911,0.504791 -1.789504,1.417849 -3.35133,1.724318 -0.289636,-0.191682 -8.626566,-3.241494 -8.263628,-3.564946 z"
           style="fill:#a17e00;fill-opacity:1;stroke:none;stroke-width:0.668808"
           id="path1-8"
           sodipodi:nodetypes="cccccccc" /><g
           id="g12"
           transform="matrix(2.8011659,0.18986311,-0.16880745,2.6020998,-53.998327,2.0389115)"
           style="fill:#a17e00;fill-opacity:1;stroke:#443400;stroke-opacity:1"><path
             id="path15"
             style="fill:#a17e00;fill-opacity:1;stroke:#443400;stroke-width:0.444;stroke-dasharray:none;stroke-opacity:1"
             d="M 35.414568,3.0001364 36.619809,1.3389155 37.945571,6.67603 36.860855,7.771729 Z"
             sodipodi:nodetypes="ccccc" /><rect
             style="fill:#a17e00;fill-opacity:1;stroke:#443400;stroke-width:0.549;stroke-miterlimit:4;stroke-dasharray:none;stroke-opacity:1"
             id="rect2963"
             width="2.00069"
             height="17.948395"
             x="37.498688"
             y="7.6114192"
             ry="0.56545579" /><path
             id="path7-3"
             style="fill:#a17e00;fill-opacity:1;stroke:#443400;stroke-width:0.444;stroke-dasharray:none;stroke-opacity:1"
             d="M 41.827767,2.8848413 40.622526,1.2236204 39.296764,6.5607349 40.38148,7.6564339 Z"
             sodipodi:nodetypes="ccccc" /><g
             id="g6"
             transform="matrix(-1.7902656,0,0,-1.7323616,90.68463,20.999998)"
             style="fill:#a17e00;fill-opacity:1;stroke:#443400;stroke-width:0.283917;stroke-dasharray:none;stroke-opacity:1"><rect
               style="fill:#a17e00;fill-opacity:1;stroke:#443400;stroke-width:0.283917;stroke-miterlimit:4;stroke-dasharray:none;stroke-opacity:1"
               id="rect5-7"
               width="2.418293"
               height="0.53468895"
               x="27.855507"
               y="7.3858442"
               ry="0.25027269" /><rect
               style="fill:#a17e00;fill-opacity:1;stroke:#443400;stroke-width:0.283917;stroke-miterlimit:4;stroke-dasharray:none;stroke-opacity:1"
               id="rect6-5"
               width="2.895308"
               height="0.70425063"
               x="27.631411"
               y="7.8246946"
               ry="0.3296397" /></g><g
             id="g22"
             transform="matrix(1.7884929,0.07707202,-0.07964813,1.7306462,-12.882346,5.0543937)"
             style="fill:#a17e00;fill-opacity:1;stroke:#443400;stroke-opacity:1"><path
               id="path17"
               style="fill:#a17e00;fill-opacity:1;stroke:#443400;stroke-width:0.192;stroke-opacity:1"
               d="m 29.179479,1.3621619 c 0,0.1894821 -0.12582,0.6505412 -0.328434,0.6505415 -0.202615,2e-7 -0.405299,-0.461059 -0.405299,-0.6505415 0,-0.1894825 0.164252,-0.3430884 0.366867,-0.3430882 0.202615,3e-7 0.366866,0.153606 0.366866,0.3430882 z"
               sodipodi:nodetypes="sssss" /><path
               id="path18"
               style="fill:#a17e00;fill-opacity:1;stroke:#443400;stroke-width:0.192;stroke-opacity:1"
               d="m 28.357427,0.89338797 c 0,0.18948213 0.220065,0.48720663 0.01745,0.48720693 -0.202615,2e-7 -0.751184,-0.2977244 -0.751184,-0.48720693 0,-0.18948251 0.164252,-0.34308838 0.366867,-0.34308815 0.202615,2.9e-7 0.366866,0.153606 0.366867,0.34308815 z"
               sodipodi:nodetypes="sssss" /><path
               id="path19"
               style="fill:#a17e00;fill-opacity:1;stroke:#443400;stroke-width:0.192;stroke-opacity:1"
               d="m 29.960769,0.80506825 c 0,0.18948215 -0.471705,0.48720665 -0.674319,0.48720695 -0.202615,2e-7 -0.05941,-0.29772444 -0.05941,-0.48720695 0,-0.18948251 0.164252,-0.34308838 0.366867,-0.34308815 0.202615,2.9e-7 0.366866,0.153606 0.366866,0.34308815 z"
               sodipodi:nodetypes="sssss" /><path
               id="path20"
               style="fill:#a17e00;fill-opacity:1;stroke:#443400;stroke-width:0.0965249;stroke-opacity:1"
               d="m 29.044968,1.3211899 c 0,0.097872 -0.06157,0.3360203 -0.160706,0.3360204 -0.09914,1e-7 -0.198318,-0.2381481 -0.198318,-0.3360204 0,-0.097872 0.08037,-0.1772134 0.179512,-0.1772133 0.09915,2e-7 0.179512,0.079341 0.179512,0.1772133 z"
               sodipodi:nodetypes="sssss" /><path
               id="path21"
               style="fill:#a17e00;fill-opacity:1;stroke:#443400;stroke-width:0.0784491;stroke-opacity:1"
               d="m 28.149614,0.69865723 c 0.05242,0.0598357 0.142334,0.23840606 0.08174,0.29149337 -0.0606,0.053093 -0.248779,-0.0393931 -0.301199,-0.099229 -0.05242,-0.0598357 -0.04579,-0.15137913 0.01482,-0.2044742 0.06061,-0.053099 0.152226,-0.0476261 0.204647,0.0122098 z"
               sodipodi:nodetypes="sssss" /><path
               id="path22"
               style="fill:#a17e00;fill-opacity:1;stroke:#443400;stroke-width:0.0784491;stroke-opacity:1"
               d="m 29.428341,0.62179387 c -0.05242,0.0598357 -0.142334,0.23840606 -0.08174,0.29149337 0.0606,0.053093 0.248779,-0.0393931 0.301199,-0.099229 0.05242,-0.0598357 0.04579,-0.15137913 -0.01482,-0.2044742 -0.06061,-0.053099 -0.152226,-0.0476261 -0.204647,0.0122098 z"
               sodipodi:nodetypes="sssss" /></g><rect
             style="fill:#a17e00;fill-opacity:1;stroke:#443400;stroke-width:0.421;stroke-miterlimit:4;stroke-dasharray:none;stroke-opacity:1"
             id="rect4-9"
             width="4.2497587"
             height="0.9376806"
             x="36.37653"
             y="22.523273"
             ry="0.43890166" /><rect
             style="fill:#a17e00;fill-opacity:1;stroke:#443400;stroke-width:0.478;stroke-miterlimit:4;stroke-dasharray:none;stroke-opacity:1"
             id="rect3"
             width="5.0880356"
             height="1.2350399"
             x="35.982716"
             y="23.292883"
             ry="0.57808709" /><g
             id="g28"
             transform="matrix(1.7555982,-0.07802106,-0.07818321,-1.7519572,-12.018157,25.578561)"
             style="fill:#a17e00;fill-opacity:1;stroke:#443400;stroke-opacity:1"><path
               id="path23"
               style="fill:#a17e00;fill-opacity:1;stroke:#443400;stroke-width:0.192;stroke-opacity:1"
               d="m 29.179479,1.3621619 c 0,0.1894821 -0.12582,0.6505412 -0.328434,0.6505415 -0.202615,2e-7 -0.405299,-0.461059 -0.405299,-0.6505415 0,-0.1894825 0.164252,-0.3430884 0.366867,-0.3430882 0.202615,3e-7 0.366866,0.153606 0.366866,0.3430882 z"
               sodipodi:nodetypes="sssss" /><path
               id="path24"
               style="fill:#a17e00;fill-opacity:1;stroke:#443400;stroke-width:0.192;stroke-opacity:1"
               d="m 28.357427,0.89338797 c 0,0.18948213 0.220065,0.48720663 0.01745,0.48720693 -0.202615,2e-7 -0.751184,-0.2977244 -0.751184,-0.48720693 0,-0.18948251 0.164252,-0.34308838 0.366867,-0.34308815 0.202615,2.9e-7 0.366866,0.153606 0.366867,0.34308815 z"
               sodipodi:nodetypes="sssss" /><path
               id="path25"
               style="fill:#a17e00;fill-opacity:1;stroke:#443400;stroke-width:0.192;stroke-opacity:1"
               d="m 29.960769,0.80506825 c 0,0.18948215 -0.471705,0.48720665 -0.674319,0.48720695 -0.202615,2e-7 -0.05941,-0.29772444 -0.05941,-0.48720695 0,-0.18948251 0.164252,-0.34308838 0.366867,-0.34308815 0.202615,2.9e-7 0.366866,0.153606 0.366866,0.34308815 z"
               sodipodi:nodetypes="sssss" /><path
               id="path26"
               style="fill:#a17e00;fill-opacity:1;stroke:#443400;stroke-width:0.0965249;stroke-opacity:1"
               d="m 29.044968,1.3211899 c 0,0.097872 -0.06157,0.3360203 -0.160706,0.3360204 -0.09914,1e-7 -0.198318,-0.2381481 -0.198318,-0.3360204 0,-0.097872 0.08037,-0.1772134 0.179512,-0.1772133 0.09915,2e-7 0.179512,0.079341 0.179512,0.1772133 z"
               sodipodi:nodetypes="sssss" /><path
               id="path27"
               style="fill:#a17e00;fill-opacity:1;stroke:#443400;stroke-width:0.0784491;stroke-opacity:1"
               d="m 28.149614,0.69865723 c 0.05242,0.0598357 0.142334,0.23840606 0.08174,0.29149337 -0.0606,0.053093 -0.248779,-0.0393931 -0.301199,-0.099229 -0.05242,-0.0598357 -0.04579,-0.15137913 0.01482,-0.2044742 0.06061,-0.053099 0.152226,-0.0476261 0.204647,0.0122098 z"
               sodipodi:nodetypes="sssss" /><path
               id="path28"
               style="fill:#a17e00;fill-opacity:1;stroke:#443400;stroke-width:0.0784491;stroke-opacity:1"
               d="m 29.428341,0.62179387 c -0.05242,0.0598357 -0.142334,0.23840606 -0.08174,0.29149337 0.0606,0.053093 0.248779,-0.0393931 0.301199,-0.099229 0.05242,-0.0598357 0.04579,-0.15137913 -0.01482,-0.2044742 -0.06061,-0.053099 -0.152226,-0.0476261 -0.204647,0.0122098 z"
               sodipodi:nodetypes="sssss" /></g></g><path
           d="m 54.898762,39.831271 c -0.06708,-0.01189 -0.131122,-0.01045 -0.192348,0.0055 l -3.732505,0.973899 c -0.979481,0.25545 -2.874826,0.767243 -2.974438,1.847443 l -0.287937,3.129338 c -0.09961,1.080198 0.168011,3.345544 1.163691,3.351485 l 5.175231,0.03167 c 0.995683,0.0059 2.823382,-1.6805 2.977248,-2.755755 L 57.350541,44.15994 C 57.49482,43.151892 55.90497,40.009581 54.898672,39.831261 Z"
           style="fill:#322600;fill-opacity:1;stroke:#443400;stroke-width:2.18333;stroke-dasharray:none;stroke-opacity:1"
           id="path32" /><path
           d="m 51.695499,41.87016 c 0.02686,-0.01768 0.05506,-0.03173 0.08484,-0.04117 l 1.81594,-0.574279 c 0.47652,-0.150738 1.402028,-0.437857 1.658021,-0.178754 l 0.565305,0.823001 c 0.255991,0.259098 0.572589,1.00345 0.140472,1.225822 l -2.056901,0.988519 c -0.432102,0.222381 -1.559422,0.188713 -1.838047,-0.05707 l -0.584475,-0.51532 C 51.219433,43.31049 51.29267,42.139893 51.695531,41.870304 Z"
           style="fill:#a17e00;fill-opacity:1;stroke:none;stroke-width:0.668808"
           id="path33"
           sodipodi:nodetypes="ccccccccccc" /></g><ellipse
         style="fill:#322600;fill-opacity:1;stroke:none;stroke-width:2.38506;stroke-linecap:round;stroke-linejoin:round;stroke-opacity:1"
         id="path8"
         cx="-55.016663"
         cy="74.362518"
         rx="13.987499"
         ry="2.1375" /><rect
         style="fill:#a17e00;fill-opacity:1;stroke:#443400;stroke-width:1.45962;stroke-opacity:1"
         id="rect2199"
         width="7.9548998"
         height="17.408159"
         x="-64.461365"
         y="57.088959"
         ry="3.0631537" /><rect
         style="fill:#a17e00;fill-opacity:1;stroke:#443400;stroke-width:1.48327;stroke-opacity:1"
         id="rect2303"
         width="8.3121281"
         height="17.204102"
         x="-54.417477"
         y="57.148094"
         ry="3.0272481" /><path
         id="rect9714"
         style="fill:#a17e00;fill-opacity:1;stroke:#443400;stroke-width:2.05352;stroke-miterlimit:4;stroke-dasharray:none;stroke-opacity:1"
         d="m -66.615109,37.990351 c -0.903136,0.115923 -1.674362,0.580636 -1.956783,1.264143 l -3.890215,9.415243 c -0.225611,0.372357 -0.223401,0.762192 -0.338432,1.150819 l -0.980353,9.950447 c 0.359526,1.272133 1.915088,2.314892 3.277122,2.270411 1.453714,-0.0053 3.106242,-0.661657 3.026089,-2.486558 l 0.901307,-9.150391 c 1.406871,-3.193711 2.705338,-6.461306 4.041893,-9.6953 0.410789,-0.994186 -0.372506,-2.062786 -1.754713,-2.395985 l -1.046226,-0.252837 c -0.431946,-0.104132 -0.869143,-0.122565 -1.279669,-0.06996 z"
         sodipodi:nodetypes="ccccccccccccc" /><path
         id="path13"
         style="fill:#322600;fill-opacity:1;stroke-width:1.48029"
         d="m -65.952336,48.690577 2.122889,-4.577594 -0.57476,-5.375826 -5.332026,10.801211 z"
         sodipodi:nodetypes="ccccc" /><path
         id="rect10"
         style="fill:#322600;fill-opacity:1;stroke-width:1.19877"
         d="m -61.540122,59.489049 h 1.963559 c 1.321229,0 2.38489,1.089705 2.38489,2.443285 v 8.998822 c 0,1.35358 -0.949959,1.474836 -2.243936,1.748341 l -2.263085,0.478337 c -1.293977,0.273504 -2.226319,-0.873098 -2.226319,-2.226678 v -8.998822 c 0,-1.35358 1.063662,-2.443285 2.384891,-2.443285 z"
         sodipodi:nodetypes="sssssssss" /><path
         id="path10"
         style="fill:#322600;fill-opacity:1;stroke-width:1.21486"
         d="m -51.289117,59.705656 h 2.016604 c 1.356925,0 2.44932,1.089705 2.44932,2.443285 v 8.998822 c 0,1.35358 -0.975623,1.474836 -2.304559,1.74834 l -2.324222,0.478338 c -1.328934,0.273505 -2.286462,-0.873098 -2.286462,-2.226678 v -8.998822 c 0,-1.35358 1.092395,-2.443285 2.449319,-2.443285 z"
         sodipodi:nodetypes="sssssssss" /><path
         id="rect9738"
         style="fill:#a17e00;fill-opacity:1;stroke:#443400;stroke-width:1.42523;stroke-miterlimit:4;stroke-dasharray:none;stroke-opacity:1"
         d="m -64.791553,38.578601 -0.548693,30.893097 c 0,0 1.911689,1.917811 3.144942,1.995215 3.091971,0.19406 7.924398,-4.214188 7.924398,-4.214188 0,0 2.336231,3.9824 4.342657,4.177116 1.897404,0.184123 4.800115,-3.085772 4.800115,-3.085772 -0.925571,-9.83131 -0.796066,-19.139135 -0.648605,-28.43805 z"
         sodipodi:nodetypes="ccscsccc" /><path
         id="rect9"
         style="fill:#322600;fill-opacity:1;stroke-width:1.60525"
         d="m -61.81044,46.674918 6.535105,-0.391862 -1.200173,19.64246 c -0.08732,1.428896 -4.42978,1.375412 -6.656658,-0.410156 z"
         sodipodi:nodetypes="ccscc" /><path
         id="path34"
         style="fill:#322600;fill-opacity:1;stroke:none;stroke-width:1.09589;stroke-dasharray:none;stroke-opacity:1"
         d="m -64.699913,69.238262 2.181142,1.54174 3.644154,-30.226857 -5.717335,-0.909214 z"
         sodipodi:nodetypes="ccccc" /><path
         id="path9"
         style="fill:#322600;fill-opacity:1;stroke:none;stroke-width:1.39379;stroke-dasharray:none"
         d="m -46.540398,44.014587 c -0.02168,4.423608 -3.442628,5.167482 -8.919913,4.784227 -5.17091,-0.361817 -7.999486,-2.232869 -8.741537,-4.770063 -1.288942,-4.407106 3.55779,-4.558789 8.741537,-4.558789 5.183755,0 8.943355,-0.213189 8.919913,4.544625 z"
         sodipodi:nodetypes="sssss" /><path
         id="rect2-2"
         style="fill:#322600;fill-opacity:1;stroke:#443400;stroke-width:1.14155;stroke-dasharray:none;stroke-opacity:1"
         d="m -62.043141,44.473209 4.6985,0.536327 -0.485297,19.349703 -7.870707,-0.971095 z"
         sodipodi:nodetypes="ccccc" /><path
         id="path35"
         style="fill:#a17e00;fill-opacity:1;stroke:none;stroke-width:1.14155;stroke-dasharray:none;stroke-opacity:1"
         d="m -61.163841,42.69584 1.89317,0.164701 -1.762252,16.069071 -3.788422,2.681153 z"
         sodipodi:nodetypes="ccccc" /><path
         id="ellipse1"
         style="fill:#a17e00;fill-opacity:1;stroke:#443400;stroke-width:1.54963;stroke-dasharray:none;stroke-opacity:1"
         d="m -45.505778,41.106541 c -0.752829,2.854908 -4.046574,4.920074 -9.754507,4.920074 -5.707925,0 -8.808388,-2.506629 -9.625474,-5.354893 -1.419277,-4.947432 3.91755,-5.117713 9.625474,-5.117713 5.707933,0 11.173787,0.170281 9.754507,5.552532 z"
         sodipodi:nodetypes="sssss" /><path
         id="path6"
         style="fill:#322600;fill-opacity:1;stroke:none;stroke-width:1.12777;stroke-dasharray:none"
         d="m -51.009976,40.793525 c -0.515503,2.208211 -2.770906,3.805573 -6.679437,3.805573 -3.908521,0 -6.031577,-1.938825 -6.591079,-4.141895 -0.971855,-3.826731 2.682558,-3.958445 6.591079,-3.958445 3.908531,0 7.651292,0.131704 6.679437,4.294767 z"
         sodipodi:nodetypes="sssss" /><path
         id="path2"
         style="fill:#f7c100;fill-opacity:1;stroke:none;stroke-width:1.05582;stroke-dasharray:none"
         d="m -46.326262,40.357339 c -0.509644,1.957689 -2.73942,3.37383 -6.603543,3.37383 -3.864113,0 -5.963046,-1.718863 -6.516192,-3.671996 -0.960812,-3.392588 2.652079,-3.509359 6.516192,-3.509359 3.864123,0 7.564356,0.116771 6.603543,3.807525 z"
         sodipodi:nodetypes="sssss" /><ellipse
         style="fill:#a17e00;fill-opacity:1;stroke:#443400;stroke-width:0.801543;stroke-miterlimit:4;stroke-dasharray:none;stroke-opacity:1"
         id="path11105"
         cx="-55.071976"
         cy="37.454159"
         rx="6.6204867"
         ry="5.0952816" /><path
         id="ellipse2"
         style="fill:#322600;fill-opacity:1;stroke-width:0.709121"
         d="m -48.637206,36.447265 c 0.223998,3.431831 -4.157232,4.273224 -7.955975,4.635632 -3.454548,0.329567 -4.791801,-1.830097 -4.791802,-4.150612 10e-7,-2.320515 2.864826,-4.303776 6.3353,-4.303776 3.470476,0 6.261341,1.503092 6.412477,3.818756 z"
         sodipodi:nodetypes="sssss" /><path
         id="rect8"
         style="fill:#322600;fill-opacity:1;stroke-width:1.48029"
         d="m -65.671976,48.016781 -0.979234,2.534098 -1.127294,9.425318 -1.967598,-10.548534 z"
         sodipodi:nodetypes="ccccc" /><ellipse
         style="fill:#a17e00;fill-opacity:1;stroke:#443400;stroke-width:2.37378;stroke-miterlimit:4;stroke-dasharray:none;stroke-opacity:1"
         id="path9279"
         cx="-54.843834"
         cy="22.166273"
         rx="16.040705"
         ry="15.817686" /><ellipse
         style="fill:#f7c100;fill-opacity:1;stroke:none;stroke-width:0.763013;stroke-miterlimit:4;stroke-dasharray:none;stroke-opacity:1"
         id="ellipse9379"
         cx="-54.720119"
         cy="20.560236"
         rx="12.697398"
         ry="12.811206" /><ellipse
         style="fill:#ffe795;fill-opacity:1;stroke:none;stroke-width:1.54868;stroke-dasharray:none;stroke-opacity:1"
         id="path11"
         cx="-46.788094"
         cy="-22.601032"
         rx="5.6017385"
         ry="7.5103531"
         transform="matrix(0.71815312,-0.69588511,0.68523929,0.728318,0,0)" /><path
         id="path9421"
         style="fill:#f7c100;fill-opacity:1;stroke:#443400;stroke-width:1.37278;stroke-miterlimit:4;stroke-dasharray:none;stroke-opacity:1"
         d="m -65.277169,18.433389 c -0.563512,1.092612 -0.864171,2.37579 -0.864186,3.688257 2.51e-4,3.676386 2.309877,6.656525 5.15888,6.656569 2.849003,-4.4e-5 5.158629,-2.980183 5.15888,-6.656569 -1.4e-5,-1.312465 -0.300673,-2.595644 -0.864183,-3.688257 -2.993921,-0.617593 -5.872906,-0.71316 -8.589391,0 z"
         sodipodi:nodetypes="cccccc" /><path
         id="path3"
         style="fill:#f7c100;fill-opacity:1;stroke:#443400;stroke-width:1.37278;stroke-miterlimit:4;stroke-dasharray:none;stroke-opacity:1"
         d="m -52.939749,18.217494 c -0.563511,1.092612 -0.86417,2.37579 -0.864184,3.688256 2.5e-4,3.676385 2.309876,6.656524 5.158878,6.656569 2.849001,-4.5e-5 5.158627,-2.980184 5.158878,-6.656569 -1.5e-5,-1.312466 -0.300673,-2.595644 -0.864184,-3.688256 -5.221921,-1.251007 -6.253635,-0.279699 -8.589388,0 z"
         sodipodi:nodetypes="cccccc" /><path
         id="path14"
         style="fill:#a17e00;fill-opacity:1;stroke:none;stroke-width:0.951162;stroke-miterlimit:4;stroke-dasharray:none;stroke-opacity:1"
         d="m -64.844292,19.056005 a 4.5181422,5.86003 0 0 0 -0.756844,3.246628 4.5181422,5.86003 0 0 0 4.518088,5.859514 4.5181422,5.86003 0 0 0 3.672047,-2.44679 5.8279257,5.3752583 0 0 1 -1.733989,0.244041 5.8279257,5.3752583 0 0 1 -5.827695,-5.375267 5.8279257,5.3752583 0 0 1 0.240569,-1.528126 z" /><path
         id="path5"
         style="fill:#a17e00;fill-opacity:1;stroke:none;stroke-width:0.951162;stroke-miterlimit:4;stroke-dasharray:none;stroke-opacity:1"
         d="m -52.509142,18.827015 a 4.5181422,5.86003 0 0 0 -0.756843,3.246625 4.5181422,5.86003 0 0 0 4.518087,5.859514 4.5181422,5.86003 0 0 0 3.672045,-2.446787 5.8279257,5.3752583 0 0 1 -1.73399,0.244041 5.8279257,5.3752583 0 0 1 -5.827691,-5.375268 5.8279257,5.3752583 0 0 1 0.24057,-1.528125 z" /><ellipse
         style="fill:#322600;fill-opacity:1;stroke:none;stroke-width:1.1184;stroke-linecap:round;stroke-linejoin:round;stroke-opacity:1"
         id="ellipse3"
         cx="-33.191666"
         cy="75.262512"
         rx="7.0124998"
         ry="0.93750012" /></g><path
       style="fill:#6c5500;fill-opacity:1;stroke:#443400;stroke-width:2.16403;stroke-linecap:round;stroke-linejoin:round;stroke-dasharray:none;stroke-opacity:1"
       d="m 63.215345,57.699912 12.727922,-5.409366 c 2.153342,0.956502 2.475224,2.509293 1.59099,4.454773 l -15.379573,7.742817 z"
       id="path7"
       sodipodi:nodetypes="ccccc" /><path
       style="fill:#f7c100;fill-opacity:1;stroke:#443400;stroke-width:2.16403;stroke-linecap:round;stroke-linejoin:round;stroke-dasharray:none;stroke-opacity:1"
       d="m 48.599998,54.149998 0.15,-6.599999 6.450002,-5.849998 2.924998,-0.675003 1.65,0.600001 L 60.975,43.05 l -0.15,2.024999 z"
       id="path16" /><path
       style="fill:#f7c100;fill-opacity:1;stroke:#443400;stroke-width:2.16403;stroke-linecap:round;stroke-linejoin:round;stroke-dasharray:none;stroke-opacity:1"
       d="m 61.115345,46.224912 12.727922,-5.409366 c 2.153342,0.956502 2.475224,2.509293 1.59099,4.454773 l -15.379573,7.742817 z"
       id="path29"
       sodipodi:nodetypes="ccccc" /><path
       style="fill:#6c5500;fill-opacity:1;stroke:#443400;stroke-width:2.16403;stroke-linecap:round;stroke-linejoin:round;stroke-dasharray:none;stroke-opacity:1"
       d="m 67.565345,48.624912 12.727922,-5.409366 c 2.153342,0.956502 2.475224,2.509293 1.59099,4.454773 l -15.379573,7.742817 z"
       id="path30"
       sodipodi:nodetypes="ccccc" /><path
       style="fill:#6c5500;fill-opacity:1;stroke:#443400;stroke-width:2.13726;stroke-linecap:round;stroke-linejoin:round;stroke-dasharray:none;stroke-opacity:1"
       d="m 47.986617,53.174768 8.614641,-6.087533 5.256391,-0.300619 7.081526,2.555259 2.774206,4.283819 -10.220758,6.162688 z"
       id="path12" /><path
       style="fill:#a17e00;fill-opacity:1;stroke:none;stroke-width:2.16403;stroke-linecap:round;stroke-linejoin:round;stroke-dasharray:none;stroke-opacity:1"
       d="m 59.290902,53.351204 8.697415,-3.235012 -6.257896,-2.333453 -4.826003,0.212132 -2.96985,2.121321 z"
       id="path31" /><path
       style="fill:#f7c100;fill-opacity:1;stroke:none;stroke-width:2.16403;stroke-linecap:round;stroke-linejoin:round;stroke-dasharray:none;stroke-opacity:1"
       d="m 53.908833,50.019225 3.791079,1.263694 4.083542,-3.50018 -4.822234,0.20303 z"
       id="path36"
       sodipodi:nodetypes="ccccc" /><ellipse
       style="fill:#322600;fill-opacity:1;stroke:none;stroke-width:2.42618;stroke-linecap:round;stroke-linejoin:round;stroke-dasharray:none;stroke-opacity:1"
       id="path37"
       cx="59.025734"
       cy="68.412582"
       rx="14.371945"
       ry="3.1819804" /><ellipse
       style="fill:#6c5500;fill-opacity:1;stroke:#443400;stroke-width:2.48462;stroke-linecap:round;stroke-linejoin:round;stroke-dasharray:none;stroke-opacity:1"
       id="path4"
       cx="53.727486"
       cy="60.009556"
       rx="9.5280304"
       ry="8.9810638" /><ellipse
       style="fill:#a17e00;fill-opacity:1;stroke:none;stroke-width:1.70526;stroke-linecap:round;stroke-linejoin:round;stroke-dasharray:none;stroke-opacity:1"
       id="ellipse31"
       cx="-17.817358"
       cy="79.264053"
       rx="7.4127803"
       ry="5.4376521"
       transform="matrix(0.69825274,-0.71585132,0.81711294,0.57647762,0,0)" /><ellipse
       style="fill:#f7c100;fill-opacity:1;stroke:none;stroke-width:1.33546;stroke-linecap:round;stroke-linejoin:round;stroke-dasharray:none;stroke-opacity:1"
       id="ellipse30"
       cx="-11.31462"
       cy="75.752625"
       rx="5.9067678"
       ry="4.1852875"
       transform="matrix(0.62820768,-0.7780457,0.76107515,0.64866372,0,0)" /></g></svg>
