<?xml version="1.0" encoding="UTF-8" standalone="no"?>
<!-- Created with Inkscape (http://www.inkscape.org/) -->

<svg
   width="300"
   height="300"
   viewBox="0 0 79.374998 79.374998"
   version="1.1"
   id="svg1"
   xml:space="preserve"
   sodipodi:docname="hexopodaTale[0].svg"
   inkscape:version="1.4.2 (ebf0e940d0, 2025-05-08)"
   xmlns:inkscape="http://www.inkscape.org/namespaces/inkscape"
   xmlns:sodipodi="http://sodipodi.sourceforge.net/DTD/sodipodi-0.dtd"
   xmlns="http://www.w3.org/2000/svg"
   xmlns:svg="http://www.w3.org/2000/svg"><sodipodi:namedview
     id="namedview1"
     pagecolor="#505050"
     bordercolor="#eeeeee"
     borderopacity="1"
     inkscape:showpageshadow="0"
     inkscape:pageopacity="0"
     inkscape:pagecheckerboard="0"
     inkscape:deskcolor="#505050"
     inkscape:document-units="px"
     inkscape:zoom="1.7638889"
     inkscape:cx="190.20472"
     inkscape:cy="218.55118"
     inkscape:window-width="1366"
     inkscape:window-height="697"
     inkscape:window-x="0"
     inkscape:window-y="0"
     inkscape:window-maximized="1"
     inkscape:current-layer="layer1"
     showguides="false" /><defs
     id="defs1"><inkscape:path-effect
       effect="fillet_chamfer"
       id="path-effect68"
       is_visible="true"
       lpeversion="1"
       nodesatellites_param="F,0,0,1,0,0,0,1 @ F,0,0,1,0,0,0,1 @ F,0,0,1,0,0,0,1 @ F,0,0,1,0,0,0,1 @ F,0,0,1,0,0,0,1 @ F,0,0,1,0,0,0,1 @ F,0,0,1,0,0,0,1 @ F,0,0,1,0,0,0,1 @ F,0,0,1,0,0,0,1"
       radius="0"
       unit="px"
       method="auto"
       mode="F"
       chamfer_steps="1"
       flexible="false"
       use_knot_distance="true"
       apply_no_radius="true"
       apply_with_radius="true"
       only_selected="false"
       hide_knots="false" /><inkscape:path-effect
       effect="fillet_chamfer"
       id="path-effect66"
       is_visible="true"
       lpeversion="1"
       nodesatellites_param="F,0,0,1,0,0,0,1 @ F,0,0,1,0,0.44929322,0,1 @ F,0,0,1,0,0.44929322,0,1 @ F,0,0,1,0,0,0,1 @ F,0,0,1,0,0,0,1 @ F,0,0,1,0,0,0,1 @ F,0,0,1,0,0,0,1 @ F,0,0,1,0,0,0,1 @ F,0,0,1,0,0,0,1 @ F,0,0,1,0,0,0,1"
       radius="0"
       unit="px"
       method="auto"
       mode="F"
       chamfer_steps="1"
       flexible="false"
       use_knot_distance="true"
       apply_no_radius="true"
       apply_with_radius="true"
       only_selected="false"
       hide_knots="false" /><inkscape:path-effect
       effect="fillet_chamfer"
       id="path-effect68-3"
       is_visible="true"
       lpeversion="1"
       nodesatellites_param="F,0,0,1,0,0,0,1 @ F,0,0,1,0,0,0,1 @ F,0,0,1,0,0,0,1 @ F,0,0,1,0,0,0,1 @ F,0,0,1,0,0,0,1 @ F,0,0,1,0,0,0,1 @ F,0,0,1,0,0,0,1 @ F,0,0,1,0,0,0,1 @ F,0,0,1,0,0,0,1"
       radius="0"
       unit="px"
       method="auto"
       mode="F"
       chamfer_steps="1"
       flexible="false"
       use_knot_distance="true"
       apply_no_radius="true"
       apply_with_radius="true"
       only_selected="false"
       hide_knots="false" /><inkscape:path-effect
       effect="fillet_chamfer"
       id="path-effect66-6"
       is_visible="true"
       lpeversion="1"
       nodesatellites_param="F,0,0,1,0,0,0,1 @ F,0,0,1,0,0.44929322,0,1 @ F,0,0,1,0,0.44929322,0,1 @ F,0,0,1,0,0,0,1 @ F,0,0,1,0,0,0,1 @ F,0,0,1,0,0,0,1 @ F,0,0,1,0,0,0,1 @ F,0,0,1,0,0,0,1 @ F,0,0,1,0,0,0,1 @ F,0,0,1,0,0,0,1"
       radius="0"
       unit="px"
       method="auto"
       mode="F"
       chamfer_steps="1"
       flexible="false"
       use_knot_distance="true"
       apply_no_radius="true"
       apply_with_radius="true"
       only_selected="false"
       hide_knots="false" /><inkscape:path-effect
       effect="fillet_chamfer"
       id="path-effect68-36"
       is_visible="true"
       lpeversion="1"
       nodesatellites_param="F,0,0,1,0,0,0,1 @ F,0,0,1,0,0,0,1 @ F,0,0,1,0,0,0,1 @ F,0,0,1,0,0,0,1 @ F,0,0,1,0,0,0,1 @ F,0,0,1,0,0,0,1 @ F,0,0,1,0,0,0,1 @ F,0,0,1,0,0,0,1 @ F,0,0,1,0,0,0,1"
       radius="0"
       unit="px"
       method="auto"
       mode="F"
       chamfer_steps="1"
       flexible="false"
       use_knot_distance="true"
       apply_no_radius="true"
       apply_with_radius="true"
       only_selected="false"
       hide_knots="false" /><inkscape:path-effect
       effect="fillet_chamfer"
       id="path-effect66-7"
       is_visible="true"
       lpeversion="1"
       nodesatellites_param="F,0,0,1,0,0,0,1 @ F,0,0,1,0,0.44929322,0,1 @ F,0,0,1,0,0.44929322,0,1 @ F,0,0,1,0,0,0,1 @ F,0,0,1,0,0,0,1 @ F,0,0,1,0,0,0,1 @ F,0,0,1,0,0,0,1 @ F,0,0,1,0,0,0,1 @ F,0,0,1,0,0,0,1 @ F,0,0,1,0,0,0,1"
       radius="0"
       unit="px"
       method="auto"
       mode="F"
       chamfer_steps="1"
       flexible="false"
       use_knot_distance="true"
       apply_no_radius="true"
       apply_with_radius="true"
       only_selected="false"
       hide_knots="false" /><linearGradient
       id="linearGradient13895"
       inkscape:swatch="solid"><stop
         style="stop-color:#000000;stop-opacity:1;"
         offset="0"
         id="stop13893" /></linearGradient><filter
       style="color-interpolation-filters:sRGB"
       inkscape:label="Clean Edges"
       id="filter14269"
       x="-0.31154084"
       y="-0.29580635"
       width="1.6230817"
       height="1.5916127"><feGaussianBlur
         stdDeviation="0.204612"
         result="blur"
         id="feGaussianBlur14263" /><feComposite
         in="SourceGraphic"
         in2="blur"
         operator="in"
         result="composite1"
         id="feComposite14265" /><feComposite
         in="composite1"
         in2="composite1"
         operator="in"
         result="composite2"
         id="feComposite14267" /></filter><filter
       style="color-interpolation-filters:sRGB"
       inkscape:label="Clean Edges"
       id="filter14269-9"
       x="-0.31154084"
       y="-0.29580635"
       width="1.6230817"
       height="1.5916127"><feGaussianBlur
         stdDeviation="0.204612"
         result="blur"
         id="feGaussianBlur14263-1" /><feComposite
         in="SourceGraphic"
         in2="blur"
         operator="in"
         result="composite1"
         id="feComposite14265-27" /><feComposite
         in="composite1"
         in2="composite1"
         operator="in"
         result="composite2"
         id="feComposite14267-0" /></filter><inkscape:path-effect
       effect="fillet_chamfer"
       id="path-effect68-9"
       is_visible="true"
       lpeversion="1"
       nodesatellites_param="F,0,0,1,0,0,0,1 @ F,0,0,1,0,0,0,1 @ F,0,0,1,0,0,0,1 @ F,0,0,1,0,0,0,1 @ F,0,0,1,0,0,0,1 @ F,0,0,1,0,0,0,1 @ F,0,0,1,0,0,0,1 @ F,0,0,1,0,0,0,1 @ F,0,0,1,0,0,0,1"
       radius="0"
       unit="px"
       method="auto"
       mode="F"
       chamfer_steps="1"
       flexible="false"
       use_knot_distance="true"
       apply_no_radius="true"
       apply_with_radius="true"
       only_selected="false"
       hide_knots="false" /><inkscape:path-effect
       effect="fillet_chamfer"
       id="path-effect66-3"
       is_visible="true"
       lpeversion="1"
       nodesatellites_param="F,0,0,1,0,0,0,1 @ F,0,0,1,0,0.44929322,0,1 @ F,0,0,1,0,0.44929322,0,1 @ F,0,0,1,0,0,0,1 @ F,0,0,1,0,0,0,1 @ F,0,0,1,0,0,0,1 @ F,0,0,1,0,0,0,1 @ F,0,0,1,0,0,0,1 @ F,0,0,1,0,0,0,1 @ F,0,0,1,0,0,0,1"
       radius="0"
       unit="px"
       method="auto"
       mode="F"
       chamfer_steps="1"
       flexible="false"
       use_knot_distance="true"
       apply_no_radius="true"
       apply_with_radius="true"
       only_selected="false"
       hide_knots="false" /><inkscape:path-effect
       effect="fillet_chamfer"
       id="path-effect68-7"
       is_visible="true"
       lpeversion="1"
       nodesatellites_param="F,0,0,1,0,0,0,1 @ F,0,0,1,0,0,0,1 @ F,0,0,1,0,0,0,1 @ F,0,0,1,0,0,0,1 @ F,0,0,1,0,0,0,1 @ F,0,0,1,0,0,0,1 @ F,0,0,1,0,0,0,1 @ F,0,0,1,0,0,0,1 @ F,0,0,1,0,0,0,1"
       radius="0"
       unit="px"
       method="auto"
       mode="F"
       chamfer_steps="1"
       flexible="false"
       use_knot_distance="true"
       apply_no_radius="true"
       apply_with_radius="true"
       only_selected="false"
       hide_knots="false" /><inkscape:path-effect
       effect="fillet_chamfer"
       id="path-effect66-5"
       is_visible="true"
       lpeversion="1"
       nodesatellites_param="F,0,0,1,0,0,0,1 @ F,0,0,1,0,0.44929322,0,1 @ F,0,0,1,0,0.44929322,0,1 @ F,0,0,1,0,0,0,1 @ F,0,0,1,0,0,0,1 @ F,0,0,1,0,0,0,1 @ F,0,0,1,0,0,0,1 @ F,0,0,1,0,0,0,1 @ F,0,0,1,0,0,0,1 @ F,0,0,1,0,0,0,1"
       radius="0"
       unit="px"
       method="auto"
       mode="F"
       chamfer_steps="1"
       flexible="false"
       use_knot_distance="true"
       apply_no_radius="true"
       apply_with_radius="true"
       only_selected="false"
       hide_knots="false" /><inkscape:path-effect
       effect="fillet_chamfer"
       id="path-effect68-3-6"
       is_visible="true"
       lpeversion="1"
       nodesatellites_param="F,0,0,1,0,0,0,1 @ F,0,0,1,0,0,0,1 @ F,0,0,1,0,0,0,1 @ F,0,0,1,0,0,0,1 @ F,0,0,1,0,0,0,1 @ F,0,0,1,0,0,0,1 @ F,0,0,1,0,0,0,1 @ F,0,0,1,0,0,0,1 @ F,0,0,1,0,0,0,1"
       radius="0"
       unit="px"
       method="auto"
       mode="F"
       chamfer_steps="1"
       flexible="false"
       use_knot_distance="true"
       apply_no_radius="true"
       apply_with_radius="true"
       only_selected="false"
       hide_knots="false" /><inkscape:path-effect
       effect="fillet_chamfer"
       id="path-effect66-6-0"
       is_visible="true"
       lpeversion="1"
       nodesatellites_param="F,0,0,1,0,0,0,1 @ F,0,0,1,0,0.44929322,0,1 @ F,0,0,1,0,0.44929322,0,1 @ F,0,0,1,0,0,0,1 @ F,0,0,1,0,0,0,1 @ F,0,0,1,0,0,0,1 @ F,0,0,1,0,0,0,1 @ F,0,0,1,0,0,0,1 @ F,0,0,1,0,0,0,1 @ F,0,0,1,0,0,0,1"
       radius="0"
       unit="px"
       method="auto"
       mode="F"
       chamfer_steps="1"
       flexible="false"
       use_knot_distance="true"
       apply_no_radius="true"
       apply_with_radius="true"
       only_selected="false"
       hide_knots="false" /><filter
       style="color-interpolation-filters:sRGB"
       inkscape:label="Clean Edges"
       id="filter14269-5"
       x="-0.31154084"
       y="-0.29580635"
       width="1.6230817"
       height="1.5916127"><feGaussianBlur
         stdDeviation="0.204612"
         result="blur"
         id="feGaussianBlur14263-6" /><feComposite
         in="SourceGraphic"
         in2="blur"
         operator="in"
         result="composite1"
         id="feComposite14265-2" /><feComposite
         in="composite1"
         in2="composite1"
         operator="in"
         result="composite2"
         id="feComposite14267-9" /></filter><filter
       style="color-interpolation-filters:sRGB"
       inkscape:label="Clean Edges"
       id="filter14269-3"
       x="-0.31154084"
       y="-0.29580635"
       width="1.6230817"
       height="1.5916127"><feGaussianBlur
         stdDeviation="0.204612"
         result="blur"
         id="feGaussianBlur14263-7" /><feComposite
         in="SourceGraphic"
         in2="blur"
         operator="in"
         result="composite1"
         id="feComposite14265-5" /><feComposite
         in="composite1"
         in2="composite1"
         operator="in"
         result="composite2"
         id="feComposite14267-92" /></filter><inkscape:path-effect
       effect="fillet_chamfer"
       id="path-effect68-2"
       is_visible="true"
       lpeversion="1"
       nodesatellites_param="F,0,0,1,0,0,0,1 @ F,0,0,1,0,0,0,1 @ F,0,0,1,0,0,0,1 @ F,0,0,1,0,0,0,1 @ F,0,0,1,0,0,0,1 @ F,0,0,1,0,0,0,1 @ F,0,0,1,0,0,0,1 @ F,0,0,1,0,0,0,1 @ F,0,0,1,0,0,0,1"
       radius="0"
       unit="px"
       method="auto"
       mode="F"
       chamfer_steps="1"
       flexible="false"
       use_knot_distance="true"
       apply_no_radius="true"
       apply_with_radius="true"
       only_selected="false"
       hide_knots="false" /><inkscape:path-effect
       effect="fillet_chamfer"
       id="path-effect66-8"
       is_visible="true"
       lpeversion="1"
       nodesatellites_param="F,0,0,1,0,0,0,1 @ F,0,0,1,0,0.44929322,0,1 @ F,0,0,1,0,0.44929322,0,1 @ F,0,0,1,0,0,0,1 @ F,0,0,1,0,0,0,1 @ F,0,0,1,0,0,0,1 @ F,0,0,1,0,0,0,1 @ F,0,0,1,0,0,0,1 @ F,0,0,1,0,0,0,1 @ F,0,0,1,0,0,0,1"
       radius="0"
       unit="px"
       method="auto"
       mode="F"
       chamfer_steps="1"
       flexible="false"
       use_knot_distance="true"
       apply_no_radius="true"
       apply_with_radius="true"
       only_selected="false"
       hide_knots="false" /><inkscape:path-effect
       effect="fillet_chamfer"
       id="path-effect68-5"
       is_visible="true"
       lpeversion="1"
       nodesatellites_param="F,0,0,1,0,0,0,1 @ F,0,0,1,0,0,0,1 @ F,0,0,1,0,0,0,1 @ F,0,0,1,0,0,0,1 @ F,0,0,1,0,0,0,1 @ F,0,0,1,0,0,0,1 @ F,0,0,1,0,0,0,1 @ F,0,0,1,0,0,0,1 @ F,0,0,1,0,0,0,1"
       radius="0"
       unit="px"
       method="auto"
       mode="F"
       chamfer_steps="1"
       flexible="false"
       use_knot_distance="true"
       apply_no_radius="true"
       apply_with_radius="true"
       only_selected="false"
       hide_knots="false" /><inkscape:path-effect
       effect="fillet_chamfer"
       id="path-effect66-35"
       is_visible="true"
       lpeversion="1"
       nodesatellites_param="F,0,0,1,0,0,0,1 @ F,0,0,1,0,0.44929322,0,1 @ F,0,0,1,0,0.44929322,0,1 @ F,0,0,1,0,0,0,1 @ F,0,0,1,0,0,0,1 @ F,0,0,1,0,0,0,1 @ F,0,0,1,0,0,0,1 @ F,0,0,1,0,0,0,1 @ F,0,0,1,0,0,0,1 @ F,0,0,1,0,0,0,1"
       radius="0"
       unit="px"
       method="auto"
       mode="F"
       chamfer_steps="1"
       flexible="false"
       use_knot_distance="true"
       apply_no_radius="true"
       apply_with_radius="true"
       only_selected="false"
       hide_knots="false" /><inkscape:path-effect
       effect="fillet_chamfer"
       id="path-effect68-3-62"
       is_visible="true"
       lpeversion="1"
       nodesatellites_param="F,0,0,1,0,0,0,1 @ F,0,0,1,0,0,0,1 @ F,0,0,1,0,0,0,1 @ F,0,0,1,0,0,0,1 @ F,0,0,1,0,0,0,1 @ F,0,0,1,0,0,0,1 @ F,0,0,1,0,0,0,1 @ F,0,0,1,0,0,0,1 @ F,0,0,1,0,0,0,1"
       radius="0"
       unit="px"
       method="auto"
       mode="F"
       chamfer_steps="1"
       flexible="false"
       use_knot_distance="true"
       apply_no_radius="true"
       apply_with_radius="true"
       only_selected="false"
       hide_knots="false" /><inkscape:path-effect
       effect="fillet_chamfer"
       id="path-effect66-6-9"
       is_visible="true"
       lpeversion="1"
       nodesatellites_param="F,0,0,1,0,0,0,1 @ F,0,0,1,0,0.44929322,0,1 @ F,0,0,1,0,0.44929322,0,1 @ F,0,0,1,0,0,0,1 @ F,0,0,1,0,0,0,1 @ F,0,0,1,0,0,0,1 @ F,0,0,1,0,0,0,1 @ F,0,0,1,0,0,0,1 @ F,0,0,1,0,0,0,1 @ F,0,0,1,0,0,0,1"
       radius="0"
       unit="px"
       method="auto"
       mode="F"
       chamfer_steps="1"
       flexible="false"
       use_knot_distance="true"
       apply_no_radius="true"
       apply_with_radius="true"
       only_selected="false"
       hide_knots="false" /><inkscape:path-effect
       effect="fillet_chamfer"
       id="path-effect68-36-1"
       is_visible="true"
       lpeversion="1"
       nodesatellites_param="F,0,0,1,0,0,0,1 @ F,0,0,1,0,0,0,1 @ F,0,0,1,0,0,0,1 @ F,0,0,1,0,0,0,1 @ F,0,0,1,0,0,0,1 @ F,0,0,1,0,0,0,1 @ F,0,0,1,0,0,0,1 @ F,0,0,1,0,0,0,1 @ F,0,0,1,0,0,0,1"
       radius="0"
       unit="px"
       method="auto"
       mode="F"
       chamfer_steps="1"
       flexible="false"
       use_knot_distance="true"
       apply_no_radius="true"
       apply_with_radius="true"
       only_selected="false"
       hide_knots="false" /><inkscape:path-effect
       effect="fillet_chamfer"
       id="path-effect66-7-2"
       is_visible="true"
       lpeversion="1"
       nodesatellites_param="F,0,0,1,0,0,0,1 @ F,0,0,1,0,0.44929322,0,1 @ F,0,0,1,0,0.44929322,0,1 @ F,0,0,1,0,0,0,1 @ F,0,0,1,0,0,0,1 @ F,0,0,1,0,0,0,1 @ F,0,0,1,0,0,0,1 @ F,0,0,1,0,0,0,1 @ F,0,0,1,0,0,0,1 @ F,0,0,1,0,0,0,1"
       radius="0"
       unit="px"
       method="auto"
       mode="F"
       chamfer_steps="1"
       flexible="false"
       use_knot_distance="true"
       apply_no_radius="true"
       apply_with_radius="true"
       only_selected="false"
       hide_knots="false" /><inkscape:path-effect
       effect="fillet_chamfer"
       id="path-effect68-53"
       is_visible="true"
       lpeversion="1"
       nodesatellites_param="F,0,0,1,0,0,0,1 @ F,0,0,1,0,0,0,1 @ F,0,0,1,0,0,0,1 @ F,0,0,1,0,0,0,1 @ F,0,0,1,0,0,0,1 @ F,0,0,1,0,0,0,1 @ F,0,0,1,0,0,0,1 @ F,0,0,1,0,0,0,1 @ F,0,0,1,0,0,0,1"
       radius="0"
       unit="px"
       method="auto"
       mode="F"
       chamfer_steps="1"
       flexible="false"
       use_knot_distance="true"
       apply_no_radius="true"
       apply_with_radius="true"
       only_selected="false"
       hide_knots="false" /><inkscape:path-effect
       effect="fillet_chamfer"
       id="path-effect66-56"
       is_visible="true"
       lpeversion="1"
       nodesatellites_param="F,0,0,1,0,0,0,1 @ F,0,0,1,0,0.44929322,0,1 @ F,0,0,1,0,0.44929322,0,1 @ F,0,0,1,0,0,0,1 @ F,0,0,1,0,0,0,1 @ F,0,0,1,0,0,0,1 @ F,0,0,1,0,0,0,1 @ F,0,0,1,0,0,0,1 @ F,0,0,1,0,0,0,1 @ F,0,0,1,0,0,0,1"
       radius="0"
       unit="px"
       method="auto"
       mode="F"
       chamfer_steps="1"
       flexible="false"
       use_knot_distance="true"
       apply_no_radius="true"
       apply_with_radius="true"
       only_selected="false"
       hide_knots="false" /><inkscape:path-effect
       effect="fillet_chamfer"
       id="path-effect68-3-2"
       is_visible="true"
       lpeversion="1"
       nodesatellites_param="F,0,0,1,0,0,0,1 @ F,0,0,1,0,0,0,1 @ F,0,0,1,0,0,0,1 @ F,0,0,1,0,0,0,1 @ F,0,0,1,0,0,0,1 @ F,0,0,1,0,0,0,1 @ F,0,0,1,0,0,0,1 @ F,0,0,1,0,0,0,1 @ F,0,0,1,0,0,0,1"
       radius="0"
       unit="px"
       method="auto"
       mode="F"
       chamfer_steps="1"
       flexible="false"
       use_knot_distance="true"
       apply_no_radius="true"
       apply_with_radius="true"
       only_selected="false"
       hide_knots="false" /><inkscape:path-effect
       effect="fillet_chamfer"
       id="path-effect66-6-91"
       is_visible="true"
       lpeversion="1"
       nodesatellites_param="F,0,0,1,0,0,0,1 @ F,0,0,1,0,0.44929322,0,1 @ F,0,0,1,0,0.44929322,0,1 @ F,0,0,1,0,0,0,1 @ F,0,0,1,0,0,0,1 @ F,0,0,1,0,0,0,1 @ F,0,0,1,0,0,0,1 @ F,0,0,1,0,0,0,1 @ F,0,0,1,0,0,0,1 @ F,0,0,1,0,0,0,1"
       radius="0"
       unit="px"
       method="auto"
       mode="F"
       chamfer_steps="1"
       flexible="false"
       use_knot_distance="true"
       apply_no_radius="true"
       apply_with_radius="true"
       only_selected="false"
       hide_knots="false" /><inkscape:path-effect
       effect="fillet_chamfer"
       id="path-effect68-36-2"
       is_visible="true"
       lpeversion="1"
       nodesatellites_param="F,0,0,1,0,0,0,1 @ F,0,0,1,0,0,0,1 @ F,0,0,1,0,0,0,1 @ F,0,0,1,0,0,0,1 @ F,0,0,1,0,0,0,1 @ F,0,0,1,0,0,0,1 @ F,0,0,1,0,0,0,1 @ F,0,0,1,0,0,0,1 @ F,0,0,1,0,0,0,1"
       radius="0"
       unit="px"
       method="auto"
       mode="F"
       chamfer_steps="1"
       flexible="false"
       use_knot_distance="true"
       apply_no_radius="true"
       apply_with_radius="true"
       only_selected="false"
       hide_knots="false" /><inkscape:path-effect
       effect="fillet_chamfer"
       id="path-effect66-7-7"
       is_visible="true"
       lpeversion="1"
       nodesatellites_param="F,0,0,1,0,0,0,1 @ F,0,0,1,0,0.44929322,0,1 @ F,0,0,1,0,0.44929322,0,1 @ F,0,0,1,0,0,0,1 @ F,0,0,1,0,0,0,1 @ F,0,0,1,0,0,0,1 @ F,0,0,1,0,0,0,1 @ F,0,0,1,0,0,0,1 @ F,0,0,1,0,0,0,1 @ F,0,0,1,0,0,0,1"
       radius="0"
       unit="px"
       method="auto"
       mode="F"
       chamfer_steps="1"
       flexible="false"
       use_knot_distance="true"
       apply_no_radius="true"
       apply_with_radius="true"
       only_selected="false"
       hide_knots="false" /></defs><g
     inkscape:label="Camada 1"
     inkscape:groupmode="layer"
     id="layer1"><rect
       style="fill:#a17e00;fill-opacity:1;stroke:none;stroke-width:3.79989;stroke-linecap:round;stroke-linejoin:round;stroke-dasharray:none;stroke-opacity:1"
       id="rect1"
       width="82.758202"
       height="83.138725"
       x="-1.794613"
       y="-1.1582168" /><ellipse
       style="fill:#a17e00;fill-opacity:1;stroke:#5c4800;stroke-width:0.796359;stroke-dasharray:none;stroke-opacity:1"
       id="path2"
       cx="40.570084"
       cy="13.033395"
       rx="8.1607485"
       ry="8.3890991" /><ellipse
       style="fill:#a17e00;fill-opacity:1;stroke:#5c4800;stroke-width:0.796359;stroke-dasharray:none;stroke-opacity:1"
       id="ellipse1"
       cx="38.839893"
       cy="65.365288"
       rx="8.1607485"
       ry="8.3890991" /><ellipse
       style="fill:#a17e00;fill-opacity:1;stroke:#5c4800;stroke-width:0.796359;stroke-dasharray:none;stroke-opacity:1"
       id="ellipse7"
       cx="17.933224"
       cy="28.498302"
       rx="8.1607485"
       ry="8.3890991" /><ellipse
       style="fill:#a17e00;fill-opacity:1;stroke:#5c4800;stroke-width:0.796359;stroke-dasharray:none;stroke-opacity:1"
       id="ellipse12"
       cx="64.133583"
       cy="26.780342"
       rx="8.1607485"
       ry="8.3890991" /><ellipse
       style="fill:#a17e00;fill-opacity:1;stroke:#5c4800;stroke-width:0.796359;stroke-dasharray:none;stroke-opacity:1"
       id="ellipse22"
       cx="62.11713"
       cy="54.830837"
       rx="8.1607485"
       ry="8.3890991" /><ellipse
       style="fill:#a17e00;fill-opacity:1;stroke:#5c4800;stroke-width:0.796359;stroke-dasharray:none;stroke-opacity:1"
       id="ellipse38"
       cx="16.460857"
       cy="54.382755"
       rx="8.1607485"
       ry="8.3890991" /><path
       id="path15-9"
       style="fill:#423400;fill-opacity:1;stroke:none;stroke-width:0.816299;stroke-dasharray:none;stroke-opacity:1"
       d="m 68.457953,26.893823 c 0,2.325978 -1.914592,5.300749 -4.276363,5.300749 -2.361769,-10e-7 -4.276363,-2.974771 -4.276363,-5.300749 0,-2.325973 2.001867,-5.445971 4.363636,-5.445971 2.361769,0 4.18909,3.119998 4.18909,5.445971 z"
       sodipodi:nodetypes="sssss" /><path
       id="path19"
       style="fill:#a17e00;fill-opacity:1;stroke:#a17e00;stroke-width:0.841687;stroke-dasharray:none;stroke-opacity:1"
       d="m 66.579912,27.15127 c 0,1.23785 -1.010018,2.820976 -2.25593,2.820976 -1.245918,0 -2.255931,-1.583126 -2.255931,-2.820976 0,-1.237849 1.056054,-2.898264 2.301967,-2.898264 1.245918,0 2.209894,1.660415 2.209894,2.898264 z"
       sodipodi:nodetypes="sssss" /><g
       id="g48"
       transform="matrix(1.9356748,0,0,1.6701448,-77.314274,6.5208152)"
       style="fill:#423400;fill-opacity:1"><path
         id="path20"
         style="fill:#423400;fill-opacity:1;stroke:none;stroke-width:0.117381"
         d="m 74.478124,11.154978 c 0,0.448786 -0.337856,1.022754 -0.754621,1.022754 -0.416764,0 -0.75462,-0.573968 -0.75462,-1.022754 0,-0.448785 0.353255,-1.050773 0.77002,-1.050773 0.416765,0 0.739221,0.601988 0.739221,1.050773 z"
         sodipodi:nodetypes="sssss" /></g><g
       id="g87"
       style="fill:#423400;fill-opacity:1;stroke:none;stroke-opacity:1"
       transform="matrix(1.0388671,0,0,1.2490659,5.9974124,6.4725697)"><path
         id="path86"
         style="fill:#423400;fill-opacity:1;stroke:none;stroke-width:0.223558;stroke-dasharray:none;stroke-opacity:1"
         d="M 5.8559822,40.595685 C 5.1562068,40.505916 4.0777549,40.186144 3.8514145,39.933309 3.6250739,39.680473 4.3365569,39.590318 5.0363329,39.680088 c 0.6997739,0.08977 1.8302831,0.424487 2.0566234,0.677323 0.2263375,0.252836 -0.5371974,0.328043 -1.2369741,0.238274 z"
         sodipodi:nodetypes="sssss" /><path
         id="path87"
         style="fill:#423400;fill-opacity:1;stroke:none;stroke-width:0.223558;stroke-dasharray:none;stroke-opacity:1"
         d="M 6.1211472,41.54103 C 5.4213718,41.6308 4.3429199,41.950571 4.1165795,42.203406 3.8902389,42.456242 4.6017219,42.546397 5.3014979,42.456627 6.0012718,42.366857 7.131781,42.03214 7.3581213,41.779304 7.5844588,41.526468 6.8209239,41.451261 6.1211472,41.54103 Z"
         sodipodi:nodetypes="sssss" /></g><path
       style="fill:#423400;fill-opacity:1;stroke:none;stroke-width:1.87218;stroke-linecap:round;stroke-linejoin:round;stroke-dasharray:none;stroke-opacity:1"
       d="m 9.5559923,50.789211 4.0527837,0.493215 1.905155,2.779939 -4.849485,-0.582891 z"
       id="path31" /><ellipse
       style="fill:#423400;fill-opacity:1;stroke:#423400;stroke-width:0.426817;stroke-linecap:round;stroke-linejoin:round;stroke-dasharray:none;stroke-opacity:1"
       id="path33"
       cx="16.615591"
       cy="59.939533"
       rx="1.9836631"
       ry="2.0203869" /><path
       id="path50"
       style="fill:#000000;fill-opacity:0.365321;stroke:none;stroke-width:0.762037;stroke-dasharray:none;stroke-opacity:1"
       d="m 12.224784,47.718137 a 7.8487979,7.9868723 0 0 0 -3.5634031,6.690952 7.8487979,7.9868723 0 0 0 7.8487961,7.987107 7.8487979,7.9868723 0 0 0 5.729372,-2.528252 7.8487979,7.9868723 0 0 1 -4.285394,1.295654 7.8487979,7.9868723 0 0 1 -7.848796,-7.987106 7.8487979,7.9868723 0 0 1 2.119425,-5.458355 z" /><path
       id="path51"
       style="fill:#000000;fill-opacity:0.365321;stroke:none;stroke-width:0.762037;stroke-dasharray:none;stroke-opacity:1"
       d="m 34.586383,58.660356 a 7.8487979,7.9868723 0 0 0 -3.563404,6.690952 7.8487979,7.9868723 0 0 0 7.848797,7.987106 7.8487979,7.9868723 0 0 0 5.729372,-2.528251 7.8487979,7.9868723 0 0 1 -4.285394,1.295654 7.8487979,7.9868723 0 0 1 -7.848796,-7.987107 7.8487979,7.9868723 0 0 1 2.119425,-5.458354 z" /><path
       id="path52"
       style="fill:#000000;fill-opacity:0.365321;stroke:none;stroke-width:0.762037;stroke-dasharray:none;stroke-opacity:1"
       d="m 59.88007,20.175547 a 7.8487979,7.9868723 0 0 0 -3.563404,6.690952 7.8487979,7.9868723 0 0 0 7.848796,7.987107 7.8487979,7.9868723 0 0 0 5.729373,-2.528252 7.8487979,7.9868723 0 0 1 -4.285394,1.295654 7.8487979,7.9868723 0 0 1 -7.848796,-7.987106 7.8487979,7.9868723 0 0 1 2.119425,-5.458355 z" /><path
       style="fill:#423400;fill-opacity:1;stroke:none;stroke-width:0.735304;stroke-dasharray:none;stroke-opacity:1"
       d="m 37.418387,12.770237 2.42386,7.77662 4.155187,-7.77662 -2.808599,2.592207 2.539282,-5.036287 1.692854,-1.444229 -3.347234,-2.0367332 2.116069,1.8515762 -1.231169,1.185008 -1.385062,2.703301 -0.846427,-5.9620743 -1.385063,5.9991053 -0.577109,-2.332985 -1.731329,-1.185009 2.03912,-2.2959537 -2.808599,2.1848597 1.538958,1.666418 0.538636,2.147828 0.461688,2.332986 z"
       id="path53" /><path
       id="path54"
       style="fill:#000000;fill-opacity:0.365321;stroke:none;stroke-width:0.762037;stroke-dasharray:none;stroke-opacity:1"
       d="m 36.360994,6.3259011 a 7.8487979,7.9868723 0 0 0 -3.563404,6.6909519 7.8487979,7.9868723 0 0 0 7.848796,7.987107 7.8487979,7.9868723 0 0 0 5.729373,-2.528252 7.8487979,7.9868723 0 0 1 -4.285395,1.295654 7.8487979,7.9868723 0 0 1 -7.848795,-7.987106 7.8487979,7.9868723 0 0 1 2.119425,-5.4583549 z" /><path
       id="path78"
       style="fill:#5c4800;fill-opacity:1;stroke:none;stroke-width:0.295469;stroke-dasharray:none;stroke-opacity:1"
       d="m 14.068162,20.89731 c 0.944903,-0.340494 2.469391,-0.272362 2.859219,0.348862 0.389827,0.621223 -0.502623,1.560295 -1.447527,1.90079 -0.944902,0.340494 -2.542791,0.270665 -2.932619,-0.350558 -0.389828,-0.621224 0.576025,-1.5586 1.520927,-1.899094 z"
       sodipodi:nodetypes="sssss" /><path
       id="path79"
       style="fill:#5c4800;fill-opacity:1;stroke:#a17e00;stroke-width:0.314646;stroke-dasharray:none;stroke-opacity:1"
       d="m 14.44705,21.309421 c 0.523681,-0.137121 1.329337,-0.01444 1.496982,0.353229 0.167646,0.367665 -0.366203,0.841085 -0.889884,0.978206 -0.52368,0.137121 -1.368228,0.0094 -1.535873,-0.358252 -0.167647,-0.367667 0.405095,-0.836062 0.928775,-0.973183 z"
       sodipodi:nodetypes="sssss" /><g
       id="g80"
       transform="matrix(0.74398028,0,0,0.95439875,-39.575846,11.296878)"
       style="fill:#5c4800;fill-opacity:1"><path
         id="path80"
         style="fill:#5c4800;fill-opacity:1;stroke:none;stroke-width:0.117381"
         d="m 74.478124,11.154978 c 0,0.448786 -0.337856,1.022754 -0.754621,1.022754 -0.416764,0 -0.75462,-0.573968 -0.75462,-1.022754 0,-0.448785 0.353255,-1.050773 0.77002,-1.050773 0.416765,0 0.739221,0.601988 0.739221,1.050773 z"
         sodipodi:nodetypes="sssss" /></g><g
       id="g89"
       transform="matrix(-1.0388671,0,0,1.2490659,27.061412,6.2738437)"
       style="fill:#423400;fill-opacity:1;stroke:none;stroke-opacity:1"><path
         id="path88"
         style="fill:#423400;fill-opacity:1;stroke:none;stroke-width:0.223558;stroke-dasharray:none;stroke-opacity:1"
         d="M 5.8559822,40.595685 C 5.1562068,40.505916 4.0777549,40.186144 3.8514145,39.933309 3.6250739,39.680473 4.3365569,39.590318 5.0363329,39.680088 c 0.6997739,0.08977 1.8302831,0.424487 2.0566234,0.677323 0.2263375,0.252836 -0.5371974,0.328043 -1.2369741,0.238274 z"
         sodipodi:nodetypes="sssss" /><path
         id="path89"
         style="fill:#423400;fill-opacity:1;stroke:none;stroke-width:0.223558;stroke-dasharray:none;stroke-opacity:1"
         d="M 6.1211472,41.54103 C 5.4213718,41.6308 4.3429199,41.950571 4.1165795,42.203406 3.8902389,42.456242 4.6017219,42.546397 5.3014979,42.456627 6.0012718,42.366857 7.131781,42.03214 7.3581213,41.779304 7.5844588,41.526468 6.8209239,41.451261 6.1211472,41.54103 Z"
         sodipodi:nodetypes="sssss" /></g><path
       id="path91"
       style="fill:#000000;fill-opacity:0.365321;stroke:none;stroke-width:0.762037;stroke-dasharray:none;stroke-opacity:1"
       d="m 57.894918,48.189071 a 7.8487979,7.9868723 0 0 0 -3.563404,6.690952 7.8487979,7.9868723 0 0 0 7.848796,7.987106 7.8487979,7.9868723 0 0 0 5.729373,-2.528251 7.8487979,7.9868723 0 0 1 -4.285395,1.295654 7.8487979,7.9868723 0 0 1 -7.848795,-7.987107 7.8487979,7.9868723 0 0 1 2.119425,-5.458354 z" /><ellipse
       style="fill:#ffffff;fill-opacity:0.0794485;stroke:none;stroke-width:0.274212;stroke-miterlimit:4;stroke-dasharray:none;stroke-opacity:1"
       id="ellipse9379"
       cx="24.838707"
       cy="70.910652"
       rx="4.0526633"
       ry="5.1840634"
       transform="matrix(0.51158846,-0.85923061,0.76163363,0.64800788,0,0)" /><path
       id="path3"
       style="fill:#5c4800;fill-opacity:1;stroke:none;stroke-width:0.451167;stroke-dasharray:none;stroke-opacity:1"
       d="m 13.687515,24.260576 c 1.403803,0.307263 3.189266,1.667129 3.177044,2.859855 -0.01222,1.192726 -1.817501,1.766654 -3.221304,1.459392 -1.403801,-0.307262 -3.276461,-1.730388 -3.264239,-2.923113 0.01222,-1.192727 1.904699,-1.703396 3.308499,-1.396134 z"
       sodipodi:nodetypes="sssss" /><path
       id="path5"
       style="fill:#5c4800;fill-opacity:1;stroke:#a17e00;stroke-width:0.480449;stroke-dasharray:none;stroke-opacity:1"
       d="m 13.824454,25.151583 c 0.737959,0.242483 1.614238,1.082444 1.530949,1.736032 -0.08329,0.653589 -1.094608,0.873307 -1.832568,0.630825 -0.737957,-0.242484 -1.657238,-1.121732 -1.573947,-1.775322 0.08329,-0.653591 1.137608,-0.834017 1.875566,-0.591535 z"
       sodipodi:nodetypes="sssss" /><g
       id="g6"
       transform="matrix(0.89715639,0.61710986,-0.74098371,1.3356394,-43.547453,-33.670944)"
       style="fill:#5c4800;fill-opacity:1"><path
         id="path6"
         style="fill:#5c4800;fill-opacity:1;stroke:none;stroke-width:0.117381"
         d="m 74.478124,11.154978 c 0,0.448786 -0.337856,1.022754 -0.754621,1.022754 -0.416764,0 -0.75462,-0.573968 -0.75462,-1.022754 0,-0.448785 0.353255,-1.050773 0.77002,-1.050773 0.416765,0 0.739221,0.601988 0.739221,1.050773 z"
         sodipodi:nodetypes="sssss" /></g><path
       id="path8"
       style="fill:#5c4800;fill-opacity:1;stroke:none;stroke-width:0.451167;stroke-dasharray:none;stroke-opacity:1"
       d="m 13.850746,33.601701 c 1.403803,-0.307263 3.189266,-1.667129 3.177044,-2.859856 -0.01222,-1.192725 -1.817501,-1.766653 -3.221304,-1.459391 -1.403801,0.307262 -3.276461,1.730388 -3.264239,2.923113 0.01222,1.192727 1.904699,1.703396 3.308499,1.396134 z"
       sodipodi:nodetypes="sssss" /><path
       id="path9"
       style="fill:#5c4800;fill-opacity:1;stroke:#a17e00;stroke-width:0.480449;stroke-dasharray:none;stroke-opacity:1"
       d="m 13.987685,32.710694 c 0.737959,-0.242483 1.614238,-1.082444 1.530949,-1.736032 -0.08329,-0.653589 -1.094608,-0.873307 -1.832568,-0.630825 -0.737957,0.242484 -1.657238,1.121731 -1.573947,1.775322 0.08329,0.653591 1.137608,0.834017 1.875566,0.591535 z"
       sodipodi:nodetypes="sssss" /><g
       id="g10"
       transform="matrix(0.89715639,-0.61710986,-0.74098371,-1.3356394,-43.384222,91.533221)"
       style="fill:#5c4800;fill-opacity:1"><path
         id="path10"
         style="fill:#5c4800;fill-opacity:1;stroke:none;stroke-width:0.117381"
         d="m 74.478124,11.154978 c 0,0.448786 -0.337856,1.022754 -0.754621,1.022754 -0.416764,0 -0.75462,-0.573968 -0.75462,-1.022754 0,-0.448785 0.353255,-1.050773 0.77002,-1.050773 0.416765,0 0.739221,0.601988 0.739221,1.050773 z"
         sodipodi:nodetypes="sssss" /></g><path
       id="path11"
       style="fill:#5c4800;fill-opacity:1;stroke:none;stroke-width:0.295469;stroke-dasharray:none;stroke-opacity:1"
       d="m 15.39837,33.423978 c -0.943366,0.344422 -2.041979,1.364009 -1.908891,2.078358 0.133088,0.714348 1.44748,0.852951 2.390845,0.50853 0.943365,-0.344421 2.095961,-1.411911 1.962873,-2.126259 -0.133088,-0.714349 -1.501463,-0.80505 -2.444827,-0.460629 z"
       sodipodi:nodetypes="sssss" /><path
       id="path12"
       style="fill:#5c4800;fill-opacity:1;stroke:#a17e00;stroke-width:0.314646;stroke-dasharray:none;stroke-opacity:1"
       d="m 15.396292,33.974273 c -0.487457,0.22964 -1.008614,0.833589 -0.882464,1.216305 0.126151,0.382717 0.851841,0.399275 1.339298,0.169635 0.487456,-0.22964 1.03439,-0.862068 0.908237,-1.244785 -0.126151,-0.382717 -0.877615,-0.370795 -1.365071,-0.141155 z"
       sodipodi:nodetypes="sssss" /><g
       id="g13"
       transform="matrix(-0.55894402,0.47259875,0.65441297,0.71702904,49.117677,-7.8650131)"
       style="fill:#5c4800;fill-opacity:1"><path
         id="path13"
         style="fill:#5c4800;fill-opacity:1;stroke:none;stroke-width:0.117381"
         d="m 74.478124,11.154978 c 0,0.448786 -0.337856,1.022754 -0.754621,1.022754 -0.416764,0 -0.75462,-0.573968 -0.75462,-1.022754 0,-0.448785 0.353255,-1.050773 0.77002,-1.050773 0.416765,0 0.739221,0.601988 0.739221,1.050773 z"
         sodipodi:nodetypes="sssss" /></g><path
       id="path14"
       style="fill:#5c4800;fill-opacity:1;stroke:none;stroke-width:0.295469;stroke-dasharray:none;stroke-opacity:1"
       d="m 21.656726,20.792569 c -0.944903,-0.340494 -2.469391,-0.272362 -2.859219,0.348862 -0.389827,0.621223 0.502623,1.560295 1.447527,1.90079 0.944902,0.340494 2.542792,0.270665 2.932619,-0.350558 0.389828,-0.621224 -0.576025,-1.5586 -1.520927,-1.899094 z"
       sodipodi:nodetypes="sssss" /><path
       id="path15"
       style="fill:#5c4800;fill-opacity:1;stroke:#a17e00;stroke-width:0.314646;stroke-dasharray:none;stroke-opacity:1"
       d="m 21.277838,21.20468 c -0.52368,-0.137121 -1.329337,-0.01444 -1.496982,0.353229 -0.167646,0.367665 0.366203,0.841085 0.889884,0.978206 0.52368,0.137121 1.368228,0.0094 1.535874,-0.358252 0.167646,-0.367667 -0.405096,-0.836062 -0.928776,-0.973183 z"
       sodipodi:nodetypes="sssss" /><g
       id="g16"
       transform="matrix(-0.74398028,0,0,0.95439875,75.300734,11.192137)"
       style="fill:#5c4800;fill-opacity:1"><path
         id="path16"
         style="fill:#5c4800;fill-opacity:1;stroke:none;stroke-width:0.117381"
         d="m 74.478124,11.154978 c 0,0.448786 -0.337856,1.022754 -0.754621,1.022754 -0.416764,0 -0.75462,-0.573968 -0.75462,-1.022754 0,-0.448785 0.353255,-1.050773 0.77002,-1.050773 0.416765,0 0.739221,0.601988 0.739221,1.050773 z"
         sodipodi:nodetypes="sssss" /></g><path
       id="path17"
       style="fill:#5c4800;fill-opacity:1;stroke:none;stroke-width:0.451167;stroke-dasharray:none;stroke-opacity:1"
       d="m 22.037373,24.155835 c -1.403803,0.307263 -3.189266,1.667129 -3.177044,2.859856 0.01222,1.192725 1.817501,1.766653 3.221304,1.459391 1.403801,-0.307262 3.276461,-1.730388 3.264239,-2.923113 -0.01222,-1.192727 -1.904699,-1.703396 -3.308499,-1.396134 z"
       sodipodi:nodetypes="sssss" /><path
       id="path18"
       style="fill:#5c4800;fill-opacity:1;stroke:#a17e00;stroke-width:0.480449;stroke-dasharray:none;stroke-opacity:1"
       d="m 21.900434,25.046842 c -0.737959,0.242483 -1.614238,1.082444 -1.530949,1.736032 0.08329,0.653589 1.094608,0.873307 1.832568,0.630825 0.737957,-0.242484 1.657238,-1.121731 1.573947,-1.775322 -0.08329,-0.653591 -1.137608,-0.834017 -1.875566,-0.591535 z"
       sodipodi:nodetypes="sssss" /><g
       id="g21"
       transform="matrix(-0.89715639,0.61710986,0.74098371,1.3356394,79.272341,-33.775685)"
       style="fill:#5c4800;fill-opacity:1"><path
         id="path21"
         style="fill:#5c4800;fill-opacity:1;stroke:none;stroke-width:0.117381"
         d="m 74.478124,11.154978 c 0,0.448786 -0.337856,1.022754 -0.754621,1.022754 -0.416764,0 -0.75462,-0.573968 -0.75462,-1.022754 0,-0.448785 0.353255,-1.050773 0.77002,-1.050773 0.416765,0 0.739221,0.601988 0.739221,1.050773 z"
         sodipodi:nodetypes="sssss" /></g><path
       id="path22"
       style="fill:#5c4800;fill-opacity:1;stroke:none;stroke-width:0.451167;stroke-dasharray:none;stroke-opacity:1"
       d="m 21.874142,33.49696 c -1.403803,-0.307263 -3.189266,-1.667129 -3.177044,-2.859856 0.01222,-1.192725 1.817501,-1.766653 3.221304,-1.459391 1.403801,0.307262 3.276461,1.730388 3.264239,2.923113 -0.01222,1.192727 -1.904699,1.703396 -3.308499,1.396134 z"
       sodipodi:nodetypes="sssss" /><path
       id="path23"
       style="fill:#5c4800;fill-opacity:1;stroke:#a17e00;stroke-width:0.480449;stroke-dasharray:none;stroke-opacity:1"
       d="m 21.737203,32.605953 c -0.737959,-0.242483 -1.614238,-1.082444 -1.530949,-1.736032 0.08329,-0.653589 1.094608,-0.873307 1.832568,-0.630825 0.737957,0.242484 1.657238,1.121731 1.573947,1.775322 -0.08329,0.653591 -1.137608,0.834017 -1.875566,0.591535 z"
       sodipodi:nodetypes="sssss" /><g
       id="g24"
       transform="matrix(-0.89715639,-0.61710986,0.74098371,-1.3356394,79.10911,91.42848)"
       style="fill:#5c4800;fill-opacity:1"><path
         id="path24"
         style="fill:#5c4800;fill-opacity:1;stroke:none;stroke-width:0.117381"
         d="m 74.478124,11.154978 c 0,0.448786 -0.337856,1.022754 -0.754621,1.022754 -0.416764,0 -0.75462,-0.573968 -0.75462,-1.022754 0,-0.448785 0.353255,-1.050773 0.77002,-1.050773 0.416765,0 0.739221,0.601988 0.739221,1.050773 z"
         sodipodi:nodetypes="sssss" /></g><path
       id="path28"
       style="fill:#5c4800;fill-opacity:1;stroke:none;stroke-width:0.295469;stroke-dasharray:none;stroke-opacity:1"
       d="m 20.667546,33.528719 c 0.943366,0.344422 2.041979,1.364009 1.908891,2.078358 -0.133088,0.714349 -1.44748,0.852951 -2.390845,0.50853 -0.943365,-0.344421 -2.095961,-1.411911 -1.962873,-2.126259 0.133088,-0.714349 1.501463,-0.80505 2.444827,-0.460629 z"
       sodipodi:nodetypes="sssss" /><path
       id="path29"
       style="fill:#5c4800;fill-opacity:1;stroke:#a17e00;stroke-width:0.314646;stroke-dasharray:none;stroke-opacity:1"
       d="m 20.669624,34.079014 c 0.487457,0.229641 1.008614,0.83359 0.882464,1.216306 -0.126152,0.382716 -0.851841,0.399274 -1.339298,0.169634 -0.487456,-0.22964 -1.03439,-0.862067 -0.908238,-1.244785 0.126152,-0.382717 0.877616,-0.370795 1.365072,-0.141155 z"
       sodipodi:nodetypes="sssss" /><g
       id="g30"
       transform="matrix(0.55894402,0.47259876,-0.65441298,0.71702904,-13.051761,-7.7602726)"
       style="fill:#5c4800;fill-opacity:1"><path
         id="path30"
         style="fill:#5c4800;fill-opacity:1;stroke:none;stroke-width:0.117381"
         d="m 74.478124,11.154978 c 0,0.448786 -0.337856,1.022754 -0.754621,1.022754 -0.416764,0 -0.75462,-0.573968 -0.75462,-1.022754 0,-0.448785 0.353255,-1.050773 0.77002,-1.050773 0.416765,0 0.739221,0.601988 0.739221,1.050773 z"
         sodipodi:nodetypes="sssss" /></g><path
       id="path84"
       style="fill:#000000;fill-opacity:0.365321;stroke:none;stroke-width:0.760088;stroke-dasharray:none;stroke-opacity:1"
       d="m 13.673503,21.86839 a 7.8487979,7.946062 0 0 0 -3.563404,6.656764 7.8487979,7.946062 0 0 0 7.848797,7.946295 7.8487979,7.946062 0 0 0 5.729373,-2.515332 7.8487979,7.946062 0 0 1 -4.285394,1.289033 7.8487979,7.946062 0 0 1 -7.848797,-7.946295 7.8487979,7.946062 0 0 1 2.119425,-5.430465 z" /><path
       style="fill:#423400;fill-opacity:1;stroke:none;stroke-width:1.87218;stroke-linecap:round;stroke-linejoin:round;stroke-dasharray:none;stroke-opacity:1"
       d="m 23.376233,50.763026 -4.052783,0.493215 -1.905155,2.77994 4.849484,-0.582891 z"
       id="path32" /><ellipse
       style="fill:#ffffff;fill-opacity:0.0794485;stroke:none;stroke-width:0.274212;stroke-miterlimit:4;stroke-dasharray:none;stroke-opacity:1"
       id="ellipse33"
       cx="20.244564"
       cy="43.217781"
       rx="4.0526633"
       ry="5.1840634"
       transform="matrix(0.51158846,-0.85923061,0.76163363,0.64800788,0,0)" /><ellipse
       style="fill:#5c4800;fill-opacity:1;stroke:none;stroke-width:0.727781;stroke-linecap:round"
       id="path1"
       cx="62.110729"
       cy="54.451534"
       rx="4.7256966"
       ry="4.3040557" /><ellipse
       style="fill:#a17e00;fill-opacity:1;stroke:none;stroke-width:0.209235;stroke-linecap:round"
       id="ellipse2"
       cx="79.265831"
       cy="17.751387"
       rx="1.4826312"
       ry="1.133899"
       transform="matrix(0.87398106,0.48595999,-0.51461609,0.85742071,0,0)" /><ellipse
       style="fill:#a17e00;fill-opacity:1;stroke:none;stroke-width:0.209237;stroke-linecap:round"
       id="ellipse3"
       cx="26.08643"
       cy="78.409531"
       rx="1.4819568"
       ry="1.1344346"
       transform="matrix(0.86727419,-0.49783077,0.52669824,0.85005233,0,0)" /><path
       id="rect3"
       style="fill:#5c4800;stroke-width:0.827716;stroke-linecap:round;fill-opacity:1"
       d="m 59.653105,57.265075 2.063728,-0.09258 -0.03847,2.842277 -2.409993,-0.592504 z"
       sodipodi:nodetypes="ccccc" /><ellipse
       style="fill:#ffffff;fill-opacity:0.0794485;stroke:none;stroke-width:0.274212;stroke-miterlimit:4;stroke-dasharray:none;stroke-opacity:1"
       id="ellipse34"
       cx="1.9996026"
       cy="83.846451"
       rx="4.0526633"
       ry="5.1840634"
       transform="matrix(0.51158846,-0.85923061,0.76163363,0.64800788,0,0)" /><path
       id="path7"
       style="fill:#423400;fill-opacity:1;stroke:none;stroke-width:1.39183;stroke-linecap:round;stroke-dasharray:none;stroke-opacity:1;paint-order:markers fill stroke"
       d="m 39.100523,61.200306 a 3.8666335,3.7031515 0 0 0 -3.50612,3.686979 3.8666335,3.7031515 0 0 0 3.866647,3.703308 3.8666335,3.7031515 0 0 0 3.597841,-2.346909 3.8666335,3.7031515 0 0 1 -0.360527,0.01633 3.8666335,3.7031515 0 0 1 -3.866645,-3.703308 3.8666335,3.7031515 0 0 1 0.268804,-1.3564 z" /><ellipse
       style="fill:#ffffff;fill-opacity:0.0794485;stroke:none;stroke-width:0.274212;stroke-miterlimit:4;stroke-dasharray:none;stroke-opacity:1"
       id="ellipse35"
       cx="-21.313959"
       cy="68.847641"
       rx="4.0526633"
       ry="5.1840634"
       transform="matrix(0.51158846,-0.85923061,0.76163363,0.64800788,0,0)" /><ellipse
       style="fill:#ffffff;fill-opacity:0.0794485;stroke:none;stroke-width:0.274212;stroke-miterlimit:4;stroke-dasharray:none;stroke-opacity:1"
       id="ellipse36"
       cx="-28.049789"
       cy="44.10907"
       rx="4.0526633"
       ry="5.1840634"
       transform="matrix(0.51158846,-0.85923061,0.76163363,0.64800788,0,0)" /><ellipse
       style="fill:#ffffff;fill-opacity:0.0794485;stroke:none;stroke-width:0.274212;stroke-miterlimit:4;stroke-dasharray:none;stroke-opacity:1"
       id="ellipse37"
       cx="-6.8156042"
       cy="31.200037"
       rx="4.0526633"
       ry="5.1840634"
       transform="matrix(0.51158846,-0.85923061,0.76163363,0.64800788,0,0)" /><path
       id="ellipse4"
       style="fill:#423400;fill-opacity:1;stroke:none;stroke-width:1.01574;stroke-linecap:round"
       d="m 36.592727,59.337198 a 6.5957621,6.006698 0 0 0 -3.051946,5.066223 6.5957621,6.006698 0 0 0 6.595916,6.006718 6.5957621,6.006698 0 0 0 5.183223,-2.292458 6.5957621,6.006698 0 0 1 -3.54397,0.941076 6.5957621,6.006698 0 0 1 -6.595291,-6.006716 6.5957621,6.006698 0 0 1 1.412068,-3.714843 z" /><path
       id="path25"
       style="fill:#5c4800;stroke-width:0.945982;stroke-linecap:round;fill-opacity:1"
       d="m 64.515314,57.32472 -2.052775,0.237475 0.729981,3.645613 2.226593,-1.177595 z"
       sodipodi:nodetypes="ccccc" /></g></svg>
